<?xml version="1.0" encoding="UTF-8"?>
<!DOCTYPE svg PUBLIC "-//W3C//DTD SVG 1.1//EN" "http://www.w3.org/Graphics/SVG/1.1/DTD/svg11.dtd">
<!-- Creator: CorelDRAW X6 -->
<svg xmlns="http://www.w3.org/2000/svg" xml:space="preserve" width="225.213mm" height="134.959mm" version="1.1" style="shape-rendering:geometricPrecision; text-rendering:geometricPrecision; image-rendering:optimizeQuality; fill-rule:evenodd; clip-rule:evenodd"
viewBox="0 0 22521 13496"
 xmlns:xlink="http://www.w3.org/1999/xlink">
 <defs>
  <style type="text/css">
   <![CDATA[
    .str0 {stroke:#9E8245;stroke-width:7.62}
    .fil21 {fill:none}
    .fil22 {fill:none;fill-rule:nonzero}
    .fil0 {fill:#12665F}
    .fil2 {fill:#358676}
    .fil9 {fill:#3B2515}
    .fil14 {fill:#3B2819}
    .fil3 {fill:#3B3C41}
    .fil7 {fill:#42ACA5}
    .fil8 {fill:#7DB7B1}
    .fil10 {fill:#9E8245}
    .fil23 {fill:#B0914F}
    .fil1 {fill:#BC9B53}
    .fil19 {fill:#BECD2C}
    .fil25 {fill:#C7A328}
    .fil6 {fill:#C8C5C0}
    .fil20 {fill:#C99B1C}
    .fil11 {fill:#CEB07E}
    .fil17 {fill:#D9B174}
    .fil13 {fill:#DFAC1E}
    .fil5 {fill:#E1DFDA}
    .fil18 {fill:#F2F0F1}
    .fil12 {fill:#FFD000}
    .fil15 {fill:#358676;fill-rule:nonzero}
    .fil4 {fill:#3B2515;fill-rule:nonzero}
    .fil24 {fill:#3B2819;fill-rule:nonzero}
    .fil16 {fill:#9E8245;fill-rule:nonzero}
   ]]>
  </style>
 </defs>
 <g id="Слой_x0020_1">
  <metadata id="CorelCorpID_0Corel-Layer"/>
  <g id="_823518448">
   <g id="_227598688">
    <rect class="fil0" x="-42" y="-8" width="22581" height="13500"/>
    <g id="_242304176">
     <path class="fil1" d="M10608 4140c969,0 1756,783 1756,1750 0,14 0,28 -1,42 129,-40 229,-85 293,-133 52,39 80,81 80,124 0,41 -26,81 -74,119 51,39 78,80 78,122 0,42 -27,83 -78,122 51,39 78,80 78,122 0,96 -141,185 -379,258l-444 3894c-283,188 -633,309 -1260,316 -626,7 -852,-98 -1194,-272l-524 -3942c-230,-72 -364,-160 -364,-254 0,-42 27,-83 78,-122 -51,-39 -78,-80 -78,-122 0,-41 26,-81 74,-119 -51,-39 -78,-80 -78,-122 0,-43 28,-85 80,-124 47,36 114,69 199,101l0 -10c0,-966 786,-1750 1756,-1750l1 0z"/>
     <path class="fil2" d="M12655 5954c52,-39 80,-81 80,-124 0,-248 -932,-449 -2082,-449 -1150,0 -2082,201 -2082,449 0,43 28,85 80,124 250,-188 1051,-325 2001,-325 950,0 1752,137 2001,325l2 0z"/>
     <path class="fil3" d="M10701 10528c910,0 1649,71 1649,159 0,88 -739,159 -1649,159 -910,0 -1649,-71 -1649,-159 0,-88 739,-159 1649,-159z"/>
     <path class="fil4" d="M11491 4278c161,71 292,195 415,318 317,316 519,746 537,1224 21,-8 40,-16 59,-25 43,-20 78,-39 105,-60l48 -37 48 37c34,26 60,53 79,82 22,34 33,69 33,106 0,35 -11,70 -31,102l0 0c-3,5 -7,10 -11,16 5,6 9,12 13,18 21,34 32,69 32,105 0,37 -11,72 -32,105 -4,6 -8,12 -12,17 4,6 8,11 12,17 21,33 32,68 32,105 0,76 -46,143 -131,202 -62,42 -148,82 -254,117l-438 3842 -4 37 -31 21c-149,98 -314,179 -524,236 -207,56 -458,89 -779,92 -321,3 -541,-22 -725,-71 -186,-49 -331,-121 -507,-210l-37 -19 -6 -42 -518 -3892c-101,-35 -184,-74 -244,-116 -83,-58 -127,-124 -127,-199 0,-37 11,-72 32,-105 4,-6 8,-12 12,-17 -4,-6 -8,-11 -12,-17 -21,-33 -32,-68 -32,-105 0,-35 10,-70 31,-102 3,-5 7,-10 11,-16 -5,-6 -9,-12 -13,-19 -21,-33 -32,-68 -32,-105 0,-37 11,-72 33,-106 19,-29 45,-57 79,-82l48 -37 48 37c19,15 44,29 73,44l0 0c27,-461 227,-877 535,-1184 185,-184 408,-333 657,-427 185,-70 386,-89 459,-225 46,-88 96,-195 146,-299 38,-81 108,-273 194,-304 42,-16 100,-11 183,37 50,26 123,-7 163,-20 78,-25 168,-58 194,-68 67,-25 133,-51 201,-78l-81 -173 0 0c-18,-39 -19,-81 -5,-118 13,-37 41,-69 80,-87l0 0 152 -71c39,-18 81,-19 118,-5 13,5 25,11 36,19 -1,-22 2,-43 9,-63 13,-37 41,-69 80,-87l0 0 152 -71c39,-18 81,-19 118,-5 32,11 60,33 79,64 -5,-27 -2,-54 7,-79 13,-37 41,-69 80,-87l0 0 152 -71c39,-18 81,-19 118,-5 37,13 69,41 87,80l7 16 5 -42c5,-45 28,-84 60,-110 33,-26 76,-40 120,-35l182 20c12,-65 37,-123 70,-164 42,-51 96,-80 155,-74l2 0 8 1c62,10 108,55 133,120 12,31 19,68 20,108l14 2 1 0c5,-4 10,-9 15,-12 40,-31 89,-45 134,-42 49,3 95,26 126,67 23,29 34,63 36,98 38,9 73,30 99,63 31,40 41,90 33,139 -8,41 -29,80 -63,111 56,34 100,79 126,125 35,61 40,125 9,179 -32,54 -90,80 -161,80 -37,0 -77,-8 -117,-24 0,29 0,59 -2,88 -2,22 -4,45 -7,68 -21,158 -77,295 -155,392 -28,36 -59,67 -93,91 -85,62 -195,83 -297,59 -166,-38 -243,-204 -278,-328 -17,-62 -32,-116 -63,-145 -17,-12 -43,-17 -75,-17 -57,0 -310,90 -576,196 -304,121 -630,225 -744,494 -50,117 -45,248 81,304l-4 1zm-383 18c-1,29 -4,53 -15,56l0 0c-28,7 -58,4 -85,-11 -89,-46 -172,-81 -244,-113 -51,-5 -102,-7 -155,-7 -463,0 -881,187 -1184,489 -303,302 -491,719 -491,1180l0 0 0 10 0 116 -108 -41c-47,-17 -87,-35 -122,-53 -14,-7 -27,-14 -39,-21 -1,1 -1,2 -2,3 -5,7 -7,14 -7,19 0,5 2,12 7,19 8,13 21,26 39,40l82 63 -81 64c-17,14 -30,26 -37,38 -4,7 -6,13 -6,18 0,5 2,12 7,19 8,13 21,26 39,40l83 64 -83 64c-18,14 -31,27 -39,40 -5,7 -7,13 -7,19 0,18 20,41 58,67 55,38 139,75 250,110l49 15 7 51 519 3900c151,76 281,137 437,179 171,45 377,69 682,66 305,-3 542,-34 738,-87 178,-48 319,-115 447,-195l440 -3856 6 -52 50 -15c113,-35 203,-73 261,-112 40,-27 61,-51 61,-69 0,-5 -2,-12 -7,-19 -8,-13 -21,-26 -39,-40l-83 -64 83 -64c18,-14 31,-27 39,-40 5,-7 7,-13 7,-19 0,-6 -2,-12 -7,-19 -8,-12 -21,-26 -39,-40l-82 -63 81 -64c17,-13 29,-26 37,-38l0 0c4,-7 6,-13 6,-18 0,-6 -2,-12 -7,-19 -1,-1 -1,-2 -2,-3 -24,14 -50,27 -78,40 -52,23 -112,46 -182,67l-106 33 3 -112c0,-8 0,-14 0,-20 0,-11 0,4 0,-20 0,-461 -188,-878 -491,-1180 -189,-188 -424,-332 -684,-413l-4 -2zm2317 -1637l16 -142 4 -34 21 -16 -19 -13 -1 0c0,0 0,0 -1,0l-91 -10 -85 -9 15 -84 1 -4 0 0 0 -3 0 0c6,-39 3,-75 -7,-102 -5,-12 -8,-19 -8,-19l0 0m170 490l-16 -25 3 -29m19 63c-2,-4 -4,-7 -6,-9m12 19c-2,-3 -4,-6 -6,-10m23 39l-17 -29m247 -132l1 5 4 2c4,2 8,2 13,2 6,-1 13,-4 19,-8 8,-6 13,-14 14,-22 1,-5 0,-9 -2,-12 -2,-3 -6,-4 -11,-4 -8,-1 -17,2 -25,8 -6,4 -10,10 -12,16 -2,5 -3,9 -2,13l1 0zm-215 196l-15 -35m18 43c-3,-7 -3,-8 -4,-9m7 18c-2,-4 0,1 -4,-9m151 17l0 0 0 0 0 0 0 0zm0 0l-4 7 31 35c8,9 16,17 25,25 10,8 21,15 32,22 35,20 69,31 97,31 13,0 21,0 21,-1 0,0 -4,-8 -10,-19 -14,-24 -40,-50 -75,-70l0 0c-35,-20 -69,-31 -97,-31 -12,0 -20,0 -21,1l0 -1 0 0 0 1 0 0 0 0 0 0 0 0c-1,1 0,1 0,0l1 0zm-125 46l-21 -55m34 119l-13 -64m26 173c-2,-37 -7,-74 -14,-109m13 223c3,-39 3,-77 1,-114m-6 171c2,-18 4,-37 6,-57m-127 371c59,-76 104,-185 121,-314m-297 412c62,4 124,-33 176,-98m-186 97c2,0 5,1 9,1m-101 -41c29,22 60,36 92,40m-92 -41l0 0m-84 -100c24,42 52,76 84,100m-117 -172c9,26 20,50 33,72m-54 -153c5,28 13,56 22,82m-22 -82l0 0m0 -1l0 0 0 1m-94 -158c48,34 81,85 94,157m-263 -203c65,0 122,14 169,46m-2266 771l239 137m-227 -157l-12 20m26 -76l9 16 -24 40m33 -87l-18 31m985 -538c-100,42 -197,80 -286,113m324 -227l0 0 0 0 0 0c0,1 0,0 0,0l-38 114m38 -114l0 0 0 0 0 0 0 0c0,0 0,-1 0,0 0,1 0,0 0,0l0 0 0 0 0 0 0 0 0 0 0 0 0 0 0 0zm0 0c0,0 0,0 0,0l0 0 0 0m-111 -236l111 236m29 -302l-141 65m394 -207l110 235m30 -300l-141 65m251 170l-110 -235m225 314l-114 -79m250 15c-45,21 -90,42 -135,64m151 -71l-15 7m45 -128l59 79 -89 42m30 -121l0 0c0,0 0,0 0,0m0 1l0 0c0,0 0,0 0,0 1,1 0,0 0,-1l0 0 0 1zm0 1c0,1 0,0 0,-1l0 0 0 1zm-111 -237l110 235m30 -301l-141 65m252 171l0 -1 0 0c0,0 1,2 0,1zm0 -1l0 0 0 0 0 0c0,0 0,0 0,0l0 0zm0 0l-110 -236m223 289l-88 41 -24 -94 0 0m140 41l-28 13m65 -122l38 74 -76 35m37 -110c0,0 0,1 0,1m0 -2c0,1 0,1 0,1m27 -248l-27 247m29 -249c-1,1 -1,1 -1,2m4 -3c-1,0 -2,0 -2,1m190 20l-188 -21m188 21l0 0m2 1c-1,-1 -1,-1 -2,-1m3 4c0,-1 0,-2 -1,-2m0 8l0 0 1 -6m-10 91l9 -86m116 160l-146 100 19 -175m141 66c-7,4 -11,7 -15,9m15 -9l0 0m14 -8c-6,3 -11,5 -14,8m59 -71l-5 44 -40 19m50 -108l-5 45m-9 -99l17 25 -3 30m-29 -99c3,19 8,35 16,45m-15 -117c-4,26 -4,51 -1,72m1 -73l0 1m38 -95c-18,22 -32,55 -38,95m52 -111c0,0 -6,6 -14,16m309 185l-8 17 11 5c4,2 8,2 13,2 6,-1 13,-4 19,-8 8,-6 13,-14 14,-22 1,-5 0,-9 -2,-12 -2,-3 -6,-4 -11,-4 -8,-1 -17,2 -25,8 -3,2 -5,4 -7,7 -2,3 -4,5 -5,7l1 0z"/>
     <path class="fil5" d="M10606 4140c969,0 1756,783 1756,1750 0,966 -786,1750 -1756,1750 -969,0 -1756,-783 -1756,-1750 0,-966 786,-1750 1756,-1750z"/>
     <path class="fil2" d="M8914 6479l3471 -40 -470 4122c-283,188 -633,309 -1259,316 -626,7 -852,-98 -1194,-272l-549 -4125 1 -1z"/>
     <polygon class="fil6" points="8846,6104 10704,6197 12432,6077 11924,10371 9453,10354 "/>
     <path class="fil5" d="M12631 6040c52,39 80,81 80,124 0,248 -932,449 -2082,449 -1150,0 -2082,-201 -2082,-449 0,-43 28,-85 80,-124 250,188 1051,325 2001,325 950,0 1752,-137 2001,-325l2 0z"/>
     <path class="fil7" d="M12301 7191l-386 3371 -2453 39 -458 -3397c381,101 959,168 1626,168 666,0 1291,-72 1671,-180l0 -1z"/>
     <path class="fil8" d="M12301 7191l-386 3371 -309 5 376 -3265c233,-30 159,-65 319,-111z"/>
     <path class="fil9" d="M12914 3347c-7,54 5,109 46,159 4,4 10,12 17,20m543 -996l-16 142c5,7 10,15 14,22l98 -76c-8,-38 8,-81 44,-108 48,-37 115,-33 149,11 33,43 21,109 -27,146 -36,28 -81,32 -116,15l-110 85c3,7 6,13 8,20 1,-1 1,-2 2,-4 32,-54 134,-54 229,2 94,55 146,144 113,198 -32,54 -134,54 -229,-2 -31,-18 -57,-40 -77,-63 15,76 20,158 14,244 -22,327 -204,570 -403,543 -92,-12 -179,-79 -236,-181 -29,-51 -51,-112 -63,-179l0 -1c-18,-99 -85,-138 -184,-138 -145,0 -1152,410 -1306,518 -11,7 -21,16 -32,25 11,10 14,27 6,40l-38 63c-5,8 -12,13 -21,15 8,11 9,25 2,38l-40 68c-9,15 -28,21 -43,15 6,10 6,24 0,35l-40 68c-10,17 -31,22 -48,13l-1 -1c0,1 -1,1 -1,2l-37 62c5,10 6,22 0,32l-38 63c-9,15 -29,21 -45,12l-497 -285c-16,-9 -21,-29 -12,-44l37 -62c-5,-10 -6,-22 0,-32l38 -63c2,-4 5,-7 9,-10 -2,-9 -1,-18 4,-26l40 -68c9,-15 28,-21 43,-15 -6,-10 -6,-24 0,-35l40 -68c10,-17 31,-22 48,-13l5 3c-1,-7 0,-14 4,-21l38 -63c9,-15 29,-21 45,-12l49 28c45,-12 88,-23 129,-35 166,-47 349,-117 543,-198 -1,-2 -2,-4 -3,-6l-114 -242c-17,-37 -1,-81 36,-98l152 -71c37,-17 81,-1 99,36l114 242c2,5 4,9 5,14 43,-19 85,-39 128,-59 -11,-7 -19,-17 -25,-30l-114 -242c-17,-37 -1,-81 36,-98l152 -71c37,-17 81,-1 99,36l114 242c6,12 8,26 7,38 50,-24 100,-47 151,-71 -3,-4 -5,-8 -8,-13l-114 -242c-17,-37 -1,-81 36,-98l152 -71c37,-17 81,-1 99,36l114 242c2,4 4,9 5,13l28 -13c-7,-14 -11,-30 -9,-47l27 -247c5,-46 47,-79 92,-74l188 21c46,5 79,47 74,92l-10 91c13,-9 26,-17 40,-23l5 -45c-27,-39 -39,-105 -28,-176 17,-108 81,-187 145,-177 62,10 99,105 82,213 0,2 -1,5 -1,7l91 10c14,2 27,7 39,15 8,-16 20,-31 35,-43 48,-37 115,-33 149,11 33,43 21,109 -27,146 -36,28 -81,32 -116,15l-12 9 -4 3z"/>
     <path class="fil10 str0" d="M13534 2459l-27 247c-5,46 -47,79 -92,74l-188 -21c-46,-5 -79,-47 -74,-92l27 -247c5,-46 47,-79 92,-74l188 21c46,5 79,47 74,92z"/>
     <path class="fil11" d="M13138 2466l-27 247c-5,46 -47,79 -92,74l-188 -21c-46,-5 -79,-47 -74,-92l27 -247c5,-46 47,-79 92,-74l188 21c46,5 79,47 74,92z"/>
     <path class="fil11" d="M12618 2479l114 242c17,37 1,81 -36,98l-152 71c-37,17 -81,1 -99,-36l-114 -242c-17,-37 -1,-81 36,-98l152 -71c37,-17 81,-1 99,36z"/>
     <path class="fil11" d="M12182 2657l114 242c17,37 1,81 -36,98l-152 71c-37,17 -81,1 -99,-36l-114 -242c-17,-37 -1,-81 36,-98l152 -71c37,-17 81,-1 99,36z"/>
     <path class="fil11" d="M11788 2864l114 242c17,37 1,81 -36,98l-152 71c-37,17 -81,1 -99,-36l-114 -242c-17,-37 -1,-81 36,-98l152 -71c37,-17 81,-1 99,36z"/>
     <path class="fil10" d="M11784 2932l87 186c13,28 1,62 -27,76l-116 54c-28,13 -62,1 -76,-27l-87 -186c-13,-28 -1,-62 27,-76l116 -54c28,-13 62,-1 76,27z"/>
     <path class="fil10" d="M12176 2723l87 186c13,28 1,62 -27,76l-116 54c-28,13 -62,1 -76,-27l-87 -186c-13,-28 -1,-62 27,-76l116 -54c28,-13 62,-1 76,27z"/>
     <path class="fil10" d="M12620 2554l87 186c13,28 1,62 -27,76l-116 54c-28,13 -62,1 -76,-27l-87 -186c-13,-28 -1,-62 27,-76l116 -54c28,-13 62,-1 76,27z"/>
     <path class="fil10" d="M13069 2507l-21 205c-3,31 -31,54 -62,51l-127 -13c-31,-3 -54,-31 -51,-62l21 -205c3,-31 31,-54 62,-51l127 13c31,3 54,31 51,62z"/>
     <path class="fil9" d="M13540 2427l-29 281c-4,43 -43,74 -86,70l-176 -18c-43,-4 -74,-43 -70,-86l29 -281c4,-43 43,-74 86,-70l176 18c43,4 74,43 70,86z"/>
     <path class="fil5" d="M13539 2510l-160 123 -49 -64 160 -123c-8,-38 8,-81 44,-108 48,-37 115,-33 149,11 33,43 21,109 -27,146 -36,28 -81,32 -116,15z"/>
     <path class="fil6" d="M13674 2671l-160 123 -49 -64 160 -123c-8,-38 8,-81 44,-108 48,-37 115,-33 149,11 33,43 21,109 -27,146 -36,28 -81,32 -116,15z"/>
     <path class="fil12" d="M11431 3715c-49,34 -89,84 -184,193l-257 -46 -108 -366c69,-17 133,-34 194,-52 587,-168 1416,-614 2045,-882 55,-40 116,-59 181,-50 201,27 344,313 322,640 -22,327 -204,570 -403,543 -140,-19 -264,-161 -300,-360 -18,-99 -85,-138 -184,-138 -145,0 -1152,410 -1306,518z"/>
     <path class="fil13" d="M13370 2349c-17,108 -81,187 -145,177 -62,-10 -99,-105 -82,-213 17,-108 81,-187 145,-177 62,10 99,105 82,213z"/>
     <path class="fil13" d="M13802 2774c-94,-55 -197,-56 -229,-2 -32,54 19,143 113,198 94,55 197,56 229,2 32,-54 -19,-143 -113,-198z"/>
     <path class="fil14" d="M13283 2796c10,14 0,38 -22,55 -22,17 -49,19 -59,5 -10,-14 0,-38 22,-55 22,-17 49,-19 59,-5z"/>
     <path class="fil14" d="M13344 2880c10,14 0,38 -22,55 -22,17 -49,19 -59,5 -10,-14 0,-38 22,-55 22,-17 49,-19 59,-5z"/>
     <path class="fil2" d="M10652 7043c910,0 1649,71 1649,159 0,88 -739,159 -1649,159 -910,0 -1649,-71 -1649,-159 0,-88 739,-159 1649,-159z"/>
     <path class="fil9" d="M9841 7155c-107,71 -209,147 -300,228 -161,142 -288,296 -351,451 -89,219 18,473 64,692 16,74 37,148 49,223 7,44 25,75 -40,158l79 22 110 -43 -1 -1 5 -2c-51,-75 -66,-32 -93,-76 -41,-67 -15,-133 -12,-225 29,34 62,67 96,97 76,66 176,119 290,160l0 673c-10,60 -22,159 189,159 221,0 205,-111 186,-153l-88 -607c47,8 95,15 145,20l0 475c-10,60 -22,159 189,159 221,0 205,-111 186,-153l-68 -467c137,-1 277,-11 414,-31l0 597c-10,60 -22,159 189,159 221,0 205,-111 186,-153l-96 -655c38,-9 76,-19 113,-30l0 573c-10,60 -22,159 189,159 221,0 205,-111 186,-153l-99 -676c142,-61 265,-135 358,-221 36,-33 68,-68 95,-104 129,-175 172,-385 172,-612 0,-550 -147,-761 -340,-1416 -197,-522 -392,-1045 -589,-1567 -72,-191 -194,-416 -191,-618l-486 -214c-100,308 648,1476 670,2270 15,528 -470,288 -1400,902l-4 0z"/>
     <path class="fil15" d="M9877 7209c-53,35 -105,72 -155,110 -47,36 -93,74 -138,113l0 0c-80,71 -152,144 -210,219 -53,69 -96,138 -124,208 -62,151 -14,332 30,503 5,20 10,39 15,59l103 121c14,16 28,32 43,47 15,15 31,30 47,43 34,30 74,57 117,81 45,25 96,47 153,67l43 15 0 45 0 673 0 4 -1 6c-3,19 -7,44 1,56 11,16 44,29 123,29 53,0 87,-7 109,-17 10,-5 16,-10 19,-14 2,-3 3,-7 3,-11 0,-7 -2,-14 -4,-19l-4 -9 -1 -10 -88 -607 -13 -87 87 15c24,4 47,8 69,11 23,3 47,6 72,9l58 6 0 58 0 475 0 4 -1 6c-3,19 -7,44 1,56 11,16 44,29 123,29 53,0 87,-7 109,-17 10,-5 16,-10 19,-14 2,-3 3,-7 3,-11 0,-7 -2,-14 -4,-19l-4 -9 -1 -10 -68 -467 -11 -73 74 -1c65,0 133,-3 203,-8 68,-5 136,-12 203,-22l73 -10 0 74 0 597 0 4 -1 6c-3,19 -7,44 1,56 11,16 44,29 123,29 53,0 87,-7 109,-17 10,-5 16,-10 19,-14 2,-3 3,-7 3,-11 0,-7 -2,-14 -4,-19l-4 -9 -1 -10 -96 -655 -8 -58 57 -14c24,-6 43,-10 56,-14 14,-4 32,-9 55,-15l82 -23 0 85 0 573 0 4 -1 6c-3,19 -7,44 1,56 11,16 44,29 123,29 53,0 87,-7 109,-17 10,-5 16,-10 19,-14 2,-3 3,-7 3,-11 0,-7 -2,-14 -4,-19l-4 -9 -1 -10 -99 -676 -7 -48 45 -20c69,-30 133,-63 192,-99 55,-34 105,-71 149,-111l0 0c18,-16 34,-32 48,-47 14,-15 27,-31 39,-48 59,-80 99,-169 124,-264 25,-97 35,-201 35,-310 0,-382 -73,-598 -185,-925 -45,-133 -96,-283 -153,-472l-588 -1564c-15,-41 -35,-89 -56,-138 -62,-147 -128,-305 -137,-460l-367 -162c11,151 124,425 255,740 189,456 412,996 426,1434 10,348 -160,405 -496,517 -228,76 -541,181 -933,440l-6 0zm-233 7c52,-40 106,-78 162,-115 406,-269 730,-376 963,-455 276,-92 415,-139 407,-392 -12,-414 -231,-943 -415,-1389 -166,-401 -231,-567 -178,-732l74 71 140 27 284 -94 -40 83 28 20c-2,141 116,258 180,408 20,47 39,93 58,143l589 1567 2 4c54,185 106,336 152,468 115,339 192,563 192,966 0,118 -11,233 -39,342 -29,111 -75,214 -146,309 -14,19 -30,39 -48,58 -18,20 -37,39 -56,56l0 0c-49,45 -105,86 -168,125 -50,31 -105,60 -164,87l90 620c7,17 12,40 12,64 0,25 -6,52 -22,78 -15,25 -39,47 -74,64 -38,18 -91,30 -165,30 -57,0 -102,-7 -137,-19 -3,11 -8,21 -15,32 -15,25 -39,47 -74,64 -38,18 -91,30 -165,30 -131,0 -197,-37 -230,-85 -34,-50 -29,-101 -23,-142l0 -521c-46,5 -92,10 -139,13 -45,3 -90,6 -137,7l56 387c7,17 12,40 12,64 0,25 -6,52 -22,78 -15,25 -39,47 -74,64 -38,18 -91,30 -165,30 -78,0 -133,-13 -173,-34 -3,16 -9,31 -19,47 -15,25 -39,47 -74,64 -38,18 -91,30 -165,30 -131,0 -197,-37 -230,-85 -34,-50 -29,-101 -23,-142l0 -625c-45,-18 -87,-38 -128,-60 -52,-29 -98,-61 -140,-96 -2,-1 -28,-4 -32,16 -2,12 64,102 81,114 17,13 -68,-19 -66,-16 24,7 -14,-15 26,44l-25 22 -4 2c0,1 -33,86 -39,88 -85,-24 129,-36 -64,-90 154,-195 -36,38 -19,-31 6,-23 3,-40 -7,-107 -9,-58 -64,-194 -64,-230 -10,-47 -23,-96 -36,-146 -50,-190 -102,-393 -25,-583 33,-80 81,-160 142,-238 63,-81 141,-161 226,-237l0 0c45,-40 94,-80 146,-119l8 -3z"/>
     <path class="fil7" d="M10611 4136c183,0 349,26 479,57 156,37 255,89 255,140 0,92 -326,167 -728,167 -401,0 -728,-75 -728,-167 0,-60 135,-123 342,-160 109,-19 239,-37 378,-37l1 0z"/>
     <path class="fil16" d="M11993 7094c-24,-77 -35,-132 -65,-221 -45,-133 -96,-283 -153,-472l-588 -1564c-15,-41 -35,-89 -56,-138 -62,-147 -128,-305 -137,-460l-375 -75c11,151 132,338 263,653 189,456 412,996 426,1434 10,348 -160,405 -496,517l-695 283 -248 11c-71,3 117,-73 174,-104 298,-167 541,-249 729,-311 276,-92 415,-139 407,-392 -12,-414 -231,-943 -415,-1389 -96,-232 -191,-441 -230,-611 -27,-118 -19,-229 14,-345l20 32 485 239 154 17c4,12 -93,122 45,453 20,47 39,93 58,143l589 1567 2 4c54,185 106,336 152,468 35,104 71,211 98,301l-155 -39 -1 -1z"/>
     <path class="fil17" d="M9732 8719l261 10c37,257 75,514 112,771 20,41 35,153 -186,153 -211,0 -198,-98 -189,-159l0 -774 1 -1z"/>
     <path class="fil17" d="M10161 8613l261 10c37,257 75,514 112,771 20,41 35,153 -186,153 -211,0 -198,-98 -189,-159l0 -774 1 -1z"/>
     <path class="fil17" d="M10880 8719l261 10c37,257 75,514 112,771 20,41 35,153 -186,153 -211,0 -198,-98 -189,-159l0 -774 1 -1z"/>
     <path class="fil17" d="M11271 8613l261 10c37,257 75,514 112,771 20,41 35,153 -186,153 -211,0 -198,-98 -189,-159l0 -774 1 -1z"/>
     <path class="fil12" d="M9835 7136c-296,195 -548,434 -646,675 -89,219 18,473 64,692 16,74 37,148 49,223 7,44 25,75 -40,158l79 22 110 -43c-51,-75 -66,-32 -93,-76 -42,-69 -13,-136 -12,-232 30,36 64,70 100,101 527,455 2135,300 2555,-265 129,-175 172,-385 172,-612 0,-550 -147,-761 -340,-1416 -197,-522 -392,-1045 -589,-1567 -72,-191 -176,-343 -96,-570l-538 -234c-147,348 604,1448 627,2242 15,528 -470,288 -1401,902l-1 0z"/>
     <path class="fil18" d="M12348 5819c9,72 14,144 14,218 0,9 0,17 0,25 -373,120 -1010,200 -1732,200 -754,0 -1414,-86 -1779,-216 0,-3 0,-6 0,-9 0,-79 5,-157 16,-233 368,126 1021,210 1764,210 714,0 1344,-77 1718,-196l-1 1z"/>
     <path class="fil19" d="M12631 5799c52,39 80,81 80,124 0,248 -932,449 -2082,449 -1150,0 -2082,-201 -2082,-449 0,-43 28,-85 80,-124 250,188 1051,325 2001,325 950,0 1752,-137 2001,-325l2 0z"/>
     <path class="fil20" d="M9613 7299c-196,159 -352,335 -425,513 -89,219 18,473 64,692 16,74 37,148 49,223 7,44 25,75 -40,158l79 22 110 -43c-51,-75 -66,-32 -93,-76 -42,-69 -13,-136 -12,-232 30,36 64,70 100,101 527,455 2135,300 2555,-265 129,-175 172,-385 172,-612 0,-212 -22,-374 -60,-531 -276,51 -826,85 -1460,85 -393,0 -755,-13 -1039,-36l-1 1z"/>
     <path class="fil9" d="M9605 7302c-124,101 -234,210 -315,321 3,11 7,22 12,32l91 189c45,94 160,134 254,89l190 -91c94,-45 134,-159 89,-253l-91 -189c-42,-87 -142,-128 -231,-99l1 1z"/>
     <path class="fil13" d="M11642 8659c150,-76 272,-169 351,-276 129,-175 172,-385 172,-612 0,-423 -87,-646 -216,-1025 -210,37 -455,66 -723,84 478,37 854,464 854,986 0,357 -176,669 -441,843l2 0z"/>
     <path class="fil9" d="M11536 7073l-114 0c-55,0 -100,-45 -100,-100l0 -111c0,-55 45,-100 100,-100l114 0c55,0 100,45 100,100l0 111c0,55 -45,100 -100,100z"/>
     <path class="fil19" d="M12631 6285c52,39 80,81 80,124 0,248 -932,449 -2082,449 -1150,0 -2082,-201 -2082,-449 0,-43 28,-85 80,-124 250,188 1051,325 2001,325 950,0 1752,-137 2001,-325l2 0z"/>
     <path class="fil14" d="M9260 8883c22,-59 88,-89 148,-67 59,22 96,91 67,147 -22,41 -43,47 -59,15 -12,74 -69,96 -57,5l-30 19c-63,40 -84,-75 -67,-119l-1 0z"/>
     <path class="fil9" d="M10103 9481c5,33 18,63 9,96 -11,42 -56,85 -193,85 -152,0 -188,-51 -192,-102 -2,-28 4,-68 4,-100 13,43 57,81 189,81 108,0 162,-28 184,-61l-1 1z"/>
     <path class="fil9" d="M10533 9367c5,33 18,63 9,96 -11,42 -56,85 -193,85 -152,0 -188,-51 -192,-102 -2,-28 4,-68 4,-100 13,43 57,81 189,81 108,0 162,-28 184,-61l-1 1z"/>
     <path class="fil9" d="M11250 9471c5,33 18,63 9,96 -11,42 -56,85 -193,85 -152,0 -188,-51 -192,-102 -2,-28 4,-68 4,-100 13,43 57,81 189,81 108,0 162,-28 184,-61l-1 1z"/>
     <path class="fil9" d="M11643 9368c5,33 18,63 9,96 -11,42 -56,85 -193,85 -152,0 -188,-51 -192,-102 -2,-28 4,-68 4,-100 13,43 57,81 189,81 108,0 162,-28 184,-61l-1 1z"/>
     <path class="fil5" d="M13771 2852c-33,-23 -72,-31 -87,-18 -15,13 -1,43 31,67 33,23 72,31 87,18 15,-13 1,-43 -31,-67z"/>
     <path class="fil5" d="M13233 2302c-11,39 -6,78 12,88 18,10 41,-13 53,-52 11,-39 6,-78 -12,-88 -18,-10 -41,13 -53,52z"/>
     <path class="fil21" d="M13280 2760c47,8 98,37 93,92 -1,6 -3,26 -10,30"/>
     <path class="fil4" d="M13264 2722c38,7 79,23 106,50 24,23 38,54 35,93 0,6 -2,20 -6,31 -3,10 -8,19 -16,23l-17 -31c1,-1 -1,-1 0,-3 3,-8 4,-19 4,-23 2,-28 -8,-49 -25,-66 -22,-22 -55,-35 -88,-40l6 -34 1 0z"/>
     <path class="fil22" d="M13041 3122c-100,97 -176,249 -74,373 11,14 49,57 71,55"/>
     <path class="fil4" d="M13050 3131c-54,52 -100,120 -114,190 -9,43 -5,87 17,129 6,12 1,41 11,53l0 0c7,8 -6,41 10,54l0 0c8,6 16,11 21,11l8 56c-12,1 10,-66 -3,-76l0 0c-18,-14 -36,-35 -44,-44l0 0c-48,-59 -59,-124 -46,-187 15,-76 64,-148 121,-204l18 18 1 0z"/>
     <path class="fil9" d="M10607 7889l391 0c55,0 100,45 100,100l0 111c0,55 -45,100 -100,100l-391 0c-55,0 -100,-45 -100,-100l0 -111c0,-55 45,-100 100,-100z"/>
     <path class="fil9" d="M11146 7516l-176 0c-55,0 -100,-45 -100,-100l0 -111c0,-55 45,-100 100,-100l176 0c55,0 100,45 100,100l0 111c0,55 -45,100 -100,100z"/>
     <path class="fil20" d="M11117 7469l-119 0c-37,0 -68,-31 -68,-68l0 -75c0,-37 31,-68 68,-68l119 0c37,0 68,31 68,68l0 75c0,37 -31,68 -68,68z"/>
     <path class="fil20" d="M10950 8150l-299 0c-37,0 -68,-31 -68,-68l0 -75c0,-37 31,-68 68,-68l299 0c37,0 68,31 68,68l0 75c0,37 -31,68 -68,68z"/>
     <path class="fil20" d="M9753 7497l50 118c25,59 -3,127 -61,152l-118 50c-59,25 -127,-3 -153,-61l-50 -118c-25,-59 3,-127 61,-152l118 -50c59,-25 127,3 153,61z"/>
     <path class="fil20" d="M11513 7020l-71 0c-34,0 -62,-28 -62,-62l0 -68c0,-34 28,-62 62,-62l71 0c34,0 62,28 62,62l0 68c0,34 -28,62 -62,62z"/>
     <path class="fil20" d="M9281 8877c-2,-38 28,-69 65,-71 38,-2 74,28 71,65 -2,28 -13,36 -29,22 11,44 -16,69 -30,16l-12 17c-25,37 -64,-21 -65,-50l0 1z"/>
     <path class="fil9" d="M10507 6973l99 185c49,92 14,208 -78,257l-186 99c-92,49 -209,14 -258,-78l-99 -185c-49,-92 -14,-208 78,-257l186 -99c92,-49 209,-14 258,78z"/>
     <path class="fil20" d="M10448 7055l62 131c31,65 3,144 -63,175l-131 62c-65,31 -145,3 -176,-63l-62 -131c-31,-65 -3,-144 63,-175l131 -62c65,-31 145,-3 176,63z"/>
     <path class="fil23" d="M10395 7270l-110 45c-35,14 -74,-2 -89,-37l-29 -69c-14,-35 2,-74 37,-89l110 -45c35,-14 74,2 89,37l29 69c14,35 -2,74 -37,89z"/>
     <path class="fil23" d="M9696 7669l-82 34c-26,11 -56,-2 -66,-28l-21 -52c-11,-26 2,-56 28,-66l82 -34c26,-11 56,2 66,28l21 52c11,26 -2,56 -28,66z"/>
     <path class="fil23" d="M11101 7430l-79 -2c-25,-1 -45,-21 -44,-46l1 -50c1,-25 21,-45 46,-44l79 2c25,1 45,21 44,46l-1 50c-1,25 -21,45 -46,44z"/>
     <path class="fil24" d="M11101 7451l-79 -2 0 0c-18,-1 -35,-9 -46,-21 -12,-12 -19,-29 -18,-47l0 0 1 -50 0 0c1,-18 9,-35 21,-46 12,-12 29,-19 47,-18l0 0 79 2 0 0c18,1 35,9 46,21 12,12 19,29 18,47l0 0 -1 50 0 0c-1,18 -9,35 -21,46 -12,12 -29,19 -47,18l0 0zm-77 -44l79 2 0 0c6,0 12,-2 16,-6 5,-4 7,-11 8,-17l0 0 1 -50 0 0c0,-6 -2,-12 -6,-16 -4,-5 -11,-7 -17,-8l0 0 -79 -2 0 0c-6,0 -12,2 -16,6 -5,4 -7,11 -8,17l0 0 -1 50 0 0c0,6 2,12 6,16 4,5 11,7 17,8l0 0z"/>
     <path class="fil20" d="M10894 8120l-201 -3c-25,0 -44,-21 -43,-46l2 -50c1,-25 22,-45 47,-45l201 3c25,0 44,21 43,46l-2 50c-1,25 -22,45 -47,45z"/>
     <path class="fil24" d="M10894 8141l-201 -3 0 0 -2 0 0 0c-18,-1 -33,-8 -44,-20 -11,-12 -18,-28 -18,-45l0 0 0 -2 0 0 2 -50c1,-18 9,-35 21,-46 12,-12 29,-19 47,-19l0 0 201 3 0 0 2 0 0 0c18,1 33,8 44,20 11,12 18,28 18,45l0 0 0 2 0 0 -2 50c-1,18 -9,35 -21,46 -12,12 -29,19 -47,19l0 0zm-200 -45l201 3 0 0c7,0 13,-3 18,-7 5,-5 8,-11 8,-17l2 -50 0 0 0 -1 0 0c0,-6 -2,-12 -6,-16 -4,-4 -9,-7 -15,-7l0 0 -1 0 -201 -3 0 0c-7,0 -13,3 -18,7 -5,5 -8,11 -8,17l-2 50 0 0 0 1 0 0c0,6 2,12 6,16 4,4 9,7 15,7l0 0 1 0z"/>
     <path class="fil9" d="M9524 8483l-114 0c-55,0 -100,-45 -100,-100l0 -111c0,-55 45,-100 100,-100l114 0c55,0 100,45 100,100l0 111c0,55 -45,100 -100,100z"/>
     <path class="fil20" d="M9501 8430l-71 0c-34,0 -62,-28 -62,-62l0 -68c0,-34 28,-62 62,-62l71 0c34,0 62,28 62,62l0 68c0,34 -28,62 -62,62z"/>
     <path class="fil23" d="M9499 8398l-66 -2c-21,-1 -37,-18 -37,-39l1 -42c1,-21 18,-37 39,-37l66 2c21,1 37,18 37,39l-1 42c-1,21 -18,37 -39,37z"/>
     <path class="fil19" d="M11403 3796l-668 -291 38 -79c21,-16 50,-20 76,-9l537 234c38,16 54,61 37,99l-21 47 1 -1z"/>
     <polygon class="fil12" points="10733,3502 11403,3795 11350,3910 10678,3617 "/>
     <polygon class="fil19" points="10681,3615 11351,3908 11298,4024 10626,3730 "/>
     <polygon class="fil12" points="10628,3728 11299,4021 11246,4137 10573,3843 10576,3835 "/>
     <path class="fil19" d="M10573 3843l673 293 -41 77c-18,15 -42,22 -66,16l-565 -246c-28,-20 -38,-58 -24,-91l22 -49 1 0z"/>
     <path class="fil25" d="M11145 3682c29,-36 62,-68 97,-95l145 63c38,16 54,61 37,99l-21 46 -1 1 -51 112 -1 2 -50 111 -1 2 0 0 -52 113 -160 -69 160 69 -42 76c-18,15 -42,22 -66,16l-156 -69c-17,-82 43,-285 90,-373l0 0c20,-37 44,-73 71,-105l0 0 1 1z"/>
     <path class="fil18" d="M11347 4295c117,43 187,94 187,144 0,122 -411,220 -918,220 -507,0 -918,-99 -918,-220 0,-59 94,-120 249,-167 -26,19 -40,38 -40,58 0,92 326,167 728,167 401,0 728,-75 728,-167 0,-11 -5,-23 -15,-34l1 -1z"/>
     <path class="fil6" d="M10237 4641c-224,-21 -374,-59 -478,-123 -40,-25 -62,-52 -62,-80 0,-59 94,-120 249,-167 -26,19 -40,38 -40,58 0,21 15,43 46,59 70,35 253,84 324,86 -46,25 -63,119 -39,167z"/>
     <path class="fil18" d="M11749 4659c281,200 418,469 444,734 3,36 9,72 -23,91l-275 165c-31,19 -83,13 -91,-23 -62,-260 -146,-497 -444,-734 -29,-23 -9,-72 23,-91l275 -165c31,-19 61,1 91,23z"/>
    </g>
   </g>
  </g>
 </g>
</svg>
