<?xml version="1.0" encoding="UTF-8"?>
<!DOCTYPE svg PUBLIC "-//W3C//DTD SVG 1.1//EN" "http://www.w3.org/Graphics/SVG/1.1/DTD/svg11.dtd">
<!-- Creator: CorelDRAW X6 -->
<svg xmlns="http://www.w3.org/2000/svg" xml:space="preserve" width="225.213mm" height="134.959mm" version="1.1" style="shape-rendering:geometricPrecision; text-rendering:geometricPrecision; image-rendering:optimizeQuality; fill-rule:evenodd; clip-rule:evenodd"
viewBox="0 0 22521 13496"
 xmlns:xlink="http://www.w3.org/1999/xlink">
 <defs>
  <style type="text/css">
   <![CDATA[
    .str0 {stroke:#0F595C;stroke-width:7.62}
    .str11 {stroke:#D9D6D6;stroke-width:7.62}
    .str4 {stroke:#A39A6B;stroke-width:16.93}
    .str8 {stroke:#CD5F60;stroke-width:16.93}
    .str3 {stroke:#CAC395;stroke-width:20}
    .str1 {stroke:#8F7E68;stroke-width:25.4;stroke-linecap:round;stroke-linejoin:round}
    .str2 {stroke:#A39A6B;stroke-width:25.4}
    .str5 {stroke:#CD5F60;stroke-width:25.4}
    .str6 {stroke:#8F4D55;stroke-width:33.87}
    .str12 {stroke:#0C6D70;stroke-width:42.33}
    .str10 {stroke:#4E9B87;stroke-width:42.33}
    .str7 {stroke:#B16545;stroke-width:42.33;stroke-linecap:round;stroke-linejoin:round}
    .str9 {stroke:#CAC395;stroke-width:42.33}
    .fil9 {fill:none}
    .fil14 {fill:none;fill-rule:nonzero}
    .fil0 {fill:#005F63}
    .fil38 {fill:#0C6D70}
    .fil1 {fill:#0F595C}
    .fil32 {fill:#0F93B9}
    .fil8 {fill:#374852}
    .fil15 {fill:#40535E}
    .fil7 {fill:#4E9B87}
    .fil17 {fill:#63747B}
    .fil22 {fill:#6CB0AE}
    .fil23 {fill:#6E6455}
    .fil2 {fill:#7B6830}
    .fil21 {fill:#7BCAC7}
    .fil30 {fill:#827563}
    .fil26 {fill:#8F4D55}
    .fil6 {fill:#8F7D46}
    .fil19 {fill:#8F7E68}
    .fil16 {fill:#91AABE}
    .fil13 {fill:#93C5BC}
    .fil34 {fill:#997032}
    .fil35 {fill:#9DB842}
    .fil29 {fill:#A39A6B}
    .fil18 {fill:#A8A7A5}
    .fil4 {fill:#B16545}
    .fil25 {fill:#B56F77}
    .fil27 {fill:#BAAA79}
    .fil20 {fill:#C8E4E7}
    .fil3 {fill:#CAC395}
    .fil24 {fill:#CD5F60}
    .fil11 {fill:#EE9575}
    .fil5 {fill:#EEEEEE}
    .fil28 {fill:#F2A88C}
    .fil33 {fill:#F8EAA1}
    .fil41 {fill:#FBCFD0}
    .fil31 {fill:#63747B;fill-rule:nonzero}
    .fil39 {fill:#6FBFAA;fill-rule:nonzero}
    .fil37 {fill:#7B6830;fill-rule:nonzero}
    .fil36 {fill:#A8A7A5;fill-rule:nonzero}
    .fil10 {fill:#B16545;fill-rule:nonzero}
    .fil40 {fill:#BAAA79;fill-rule:nonzero}
    .fil12 {fill:#CAC395;fill-rule:nonzero}
   ]]>
  </style>
 </defs>
 <g id="Слой_x0020_1">
  <metadata id="CorelCorpID_0Corel-Layer"/>
  <g id="_886176832">
   <rect class="fil0" x="-1" width="22500" height="13500"/>
   <ellipse class="fil1 str0" cx="16769" cy="10754" rx="1466" ry="409"/>
   <ellipse class="fil1 str0" cx="13069" cy="10410" rx="1092" ry="305"/>
   <ellipse class="fil1 str0" cx="9439" cy="11168" rx="1092" ry="305"/>
   <ellipse class="fil1 str0" cx="6083" cy="10734" rx="1466" ry="409"/>
   <path class="fil2" d="M6969 5651c3,-20 4,-40 5,-60 -21,59 -92,110 -136,142 -12,8 -21,15 -29,21 -80,66 -188,155 -268,247 -80,92 -132,186 -99,261 9,-1 18,-2 27,-3 0,-1 -1,-2 -1,-3 -32,-64 17,-151 93,-238 78,-90 186,-179 265,-244 7,-5 16,-12 27,-20 34,-25 83,-60 116,-103z"/>
   <path class="fil2" d="M6605 5935c5,7 11,14 17,20 68,-67 144,-131 204,-180 7,-5 16,-12 27,-20 34,-25 83,-60 116,-103 3,-20 4,-40 5,-60 -21,59 -92,110 -136,142 -12,8 -21,15 -29,21 -60,50 -137,113 -205,180l1 0z"/>
   <path class="fil2" d="M6804 6412c106,-62 -21,-166 -157,-214 41,-33 40,-77 11,-124 23,-26 44,-57 62,-90 160,-25 357,-332 193,-649 -53,-102 -139,-62 -214,32 -104,-135 -280,73 -368,294 -23,58 -37,121 -42,184 -119,-22 -239,-4 -287,57 -90,113 83,333 340,361 -30,117 221,293 463,150l-1 -1z"/>
   <path class="fil3" d="M6969 5636c3,-20 5,-74 5,-94 -16,114 -92,160 -136,191 -12,8 -21,15 -29,21 -80,66 -188,155 -268,247 -82,94 -135,190 -97,266 3,6 11,9 17,6 6,-3 9,-11 6,-17 -32,-64 17,-151 93,-238 78,-90 186,-179 265,-244 7,-5 16,-12 27,-20 34,-25 86,-62 116,-118l1 0z"/>
   <ellipse class="fil3" cx="5747" cy="4899" rx="1267" ry="1053"/>
   <rect class="fil4" transform="matrix(-0.737222 0.201462 -0.201462 -0.737222 6386.81 4765.5)" width="15.88" height="162.06"/>
   <rect class="fil4" transform="matrix(-0.737222 0.201462 -0.201462 -0.737222 6352.99 4783.26)" width="15.88" height="162.06"/>
   <rect class="fil4" transform="matrix(-0.737222 0.201462 -0.201462 -0.737222 6322.81 4810.3)" width="15.88" height="162.06"/>
   <rect class="fil4" transform="matrix(-0.712077 0.277543 -0.277543 -0.712077 6296.06 4832.22)" width="15.88" height="162.06"/>
   <rect class="fil4" transform="matrix(-0.636347 0.423257 -0.423257 -0.636347 6273.49 4850.55)" width="15.88" height="162.06"/>
   <rect class="fil4" transform="matrix(-0.576151 0.502129 -0.502129 -0.576151 6252.07 4870.63)" width="15.88" height="162.06"/>
   <rect class="fil4" transform="matrix(-0.738026 -0.198499 0.198499 -0.738026 6577.53 4733.28)" width="15.88" height="162.06"/>
   <rect class="fil4" transform="matrix(-0.738026 -0.198499 0.198499 -0.738026 6539.37 4731.52)" width="15.88" height="162.06"/>
   <rect class="fil4" transform="matrix(-0.738026 -0.198499 0.198499 -0.738026 6499.66 4739.62)" width="15.88" height="162.06"/>
   <rect class="fil4" transform="matrix(-0.754752 -0.120136 0.120136 -0.754752 6465.51 4745.02)" width="15.88" height="162.06"/>
   <rect class="fil4" transform="matrix(-0.762993 0.043875 -0.043875 -0.762993 6436.77 4749.45)" width="15.88" height="162.06"/>
   <rect class="fil4" transform="matrix(-0.750879 0.142351 -0.142351 -0.750879 6408.14 4755.96)" width="15.88" height="162.06"/>
   <rect class="fil4" transform="matrix(-0.655146 0.393531 -0.393531 -0.655146 6215.59 4899.54)" width="15.88" height="162.06"/>
   <rect class="fil4" transform="matrix(-0.655146 0.393531 -0.393531 -0.655146 6187.84 4925.8)" width="15.88" height="162.06"/>
   <rect class="fil4" transform="matrix(-0.655146 0.393531 -0.393531 -0.655146 6166.11 4960)" width="15.88" height="162.06"/>
   <rect class="fil4" transform="matrix(-0.610343 0.459963 -0.459963 -0.610343 6146.29 4988.34)" width="15.88" height="162.06"/>
   <rect class="fil4" transform="matrix(-0.497991 0.579732 -0.579732 -0.497991 6129.53 5012.1)" width="15.88" height="162.06"/>
   <rect class="fil4" transform="matrix(-0.41869 0.639361 -0.639361 -0.41869 6114.35 5037.23)" width="15.88" height="162.06"/>
   <path class="fil4" d="M6312 4744c-247,157 -332,468 -304,508 28,41 343,98 589,-59 247,-157 324,-471 304,-508 -20,-38 -343,-98 -589,59z"/>
   <path class="fil5" d="M6312 4797c-247,157 -332,468 -304,508 28,41 343,98 589,-59 247,-157 324,-471 304,-508 -20,-38 -343,-98 -589,59z"/>
   <path class="fil6" d="M6002 3867c577,98 1012,523 1012,1032 0,48 -4,96 -12,143 -477,-108 -863,-569 -1000,-1175z"/>
   <path class="fil3" d="M6303 3952c7,3 14,6 21,9 75,150 191,323 324,454 100,98 209,172 317,195 2,6 4,11 6,17 -114,-21 -229,-99 -333,-201 -139,-137 -260,-319 -335,-474z"/>
   <path class="fil4" d="M5300 4813c286,59 477,319 465,367 -12,48 -285,213 -572,155 -286,-59 -470,-324 -465,-367 5,-42 285,-213 572,-155z"/>
   <path class="fil5" d="M5271 4868c290,33 503,275 496,323 -7,49 -265,238 -555,206 -290,-33 -498,-281 -496,-323 1,-43 265,-238 555,-206z"/>
   <circle class="fil7" cx="5355" cy="5139" r="247"/>
   <circle class="fil8" cx="5355" cy="5130" r="195"/>
   <circle class="fil5" cx="5527" cy="5140" r="77"/>
   <path class="fil2" d="M5747 3845c87,0 171,7 253,21 41,104 64,215 64,331 0,582 -567,1053 -1267,1053 -87,0 -171,-7 -253,-21 -41,-104 -64,-215 -64,-331 0,-582 567,-1053 1267,-1053z"/>
   <path class="fil3" d="M5866 3850c11,1 22,2 32,3 -3,248 -20,537 -99,793 -40,128 -95,247 -172,348 -32,23 -66,45 -101,66 116,-113 192,-261 243,-423 79,-252 95,-540 98,-786l-1 -1z"/>
   <path class="fil9" d="M5831 3848c-4,420 -49,961 -371,1247"/>
   <circle class="fil7" cx="6405" cy="5051" r="254"/>
   <circle class="fil8" cx="6405" cy="5042" r="201"/>
   <circle class="fil5" cx="6227" cy="5053" r="79"/>
   <path class="fil9" d="M5815 5452c-4,141 175,166 175,-40"/>
   <path class="fil10" d="M5841 5466c0,-5 5,-10 10,-9 5,0 10,5 9,10 -1,25 10,43 23,51 5,3 11,5 17,5 6,0 12,-2 17,-5 16,-10 28,-34 28,-75 0,-5 4,-10 10,-10 5,0 10,4 10,10 0,49 -17,79 -37,92 -9,5 -18,8 -27,8 -9,0 -18,-3 -27,-7 -19,-11 -34,-35 -33,-68l0 -2z"/>
   <path class="fil10" d="M5217 5533c44,73 121,124 206,159 95,39 203,61 291,75 95,16 225,9 345,-21 149,-38 211,-86 309,-184 11,-11 23,-21 29,-31 14,-20 43,-22 21,10 -8,12 -21,24 -33,36 -99,102 -170,153 -321,191 -123,31 -257,38 -354,21 -89,-15 -198,-36 -296,-77 -90,-37 -171,-91 -218,-169 -20,-33 0,-47 21,-12l0 2z"/>
   <path class="fil3" d="M4778 5530l-216 -297c-118,-103 -148,59 -91,180 39,81 90,180 177,197 78,15 104,-14 130,-81l0 1z"/>
   <path class="fil2" d="M6874 6313c-35,-87 -128,0 -178,98 -39,77 -41,183 1,219 77,65 261,-110 177,-317z"/>
   <path class="fil6" d="M6886 5859c-64,-123 -188,18 -248,169 -47,118 -35,274 33,321 122,85 367,-197 215,-490z"/>
   <path class="fil2" d="M6553 6403c43,-83 127,12 168,115 32,80 24,186 -22,218 -83,58 -249,-134 -146,-333z"/>
   <path class="fil2" d="M6573 6733c39,-74 114,11 150,102 29,72 21,166 -20,194 -74,52 -222,-119 -130,-297l0 1z"/>
   <path class="fil6" d="M6898 6614c-39,-78 -143,0 -199,88 -44,69 -46,163 2,195 86,58 292,-98 198,-283l-1 0z"/>
   <path class="fil6" d="M6793 6954l-145 121c-50,70 19,334 119,401 240,161 417,-189 364,-136 -51,51 -193,113 -118,64 53,-34 137,-184 67,-99 -65,79 -254,26 -145,-171 45,-82 -25,-199 -122,-183l-20 2 0 1z"/>
   <path class="fil4" d="M6885 6960c60,-50 30,-196 -108,-79 -289,243 -68,226 108,79z"/>
   <ellipse class="fil11" cx="7021" cy="5084" rx="40" ry="38"/>
   <path class="fil12" d="M6964 5070c8,-13 21,-50 36,-95 41,-121 104,-306 189,-342 57,-24 120,13 186,168 39,90 -84,146 -189,194 -56,25 -106,48 -119,70 -5,9 0,19 22,32 34,20 58,62 71,112 14,54 17,119 8,174 -12,74 -42,113 -76,126 -34,13 -72,1 -104,-27 -30,-27 -56,-68 -66,-116 -16,-75 3,-164 95,-236 -8,1 -15,1 -19,0 -3,-1 -10,-3 -14,-6 -3,-2 -6,-4 -7,-7 -3,-5 -4,-11 -1,-17l0 0c0,-8 1,-15 2,-21l-13 -8 -1 -1zm61 -87c-7,20 -13,37 -18,53 11,-3 23,0 34,8 3,2 5,4 7,6 18,-27 71,-51 129,-78 94,-43 204,-93 176,-161 -59,-137 -109,-173 -152,-155 -74,32 -135,210 -175,327l-1 0zm52 136c-3,-2 -7,-4 -9,-6 0,1 -1,2 -1,3l0 0 0 0c-3,9 -9,16 -18,23 -95,67 -116,152 -101,222 9,42 31,79 58,102 25,22 54,32 78,22 26,-10 49,-43 60,-106 9,-52 6,-112 -7,-163 -12,-44 -31,-80 -59,-96l-1 -1zm-33 -25c0,-2 -1,-4 -1,-6 -3,-10 -9,-19 -17,-24 -5,-4 -10,-5 -14,-3 -6,4 -10,17 -10,42l0 0c1,0 2,1 3,1 1,0 6,0 12,-1 5,-1 9,-2 11,-4l0 0c6,-4 11,-5 16,-6l0 1z"/>
   <path class="fil7" d="M6157 10331l34 -101c-194,312 81,843 273,466 88,-173 39,-570 -168,-605 -106,-18 -104,162 -139,240z"/>
   <path class="fil3" d="M6047 8301c6,152 18,314 31,476 25,307 37,323 -3,679 -10,94 0,226 33,424 22,132 44,268 28,398 -45,364 455,265 234,-189 -123,-252 25,-463 9,-679 -23,-315 -62,-268 -20,-644 28,-246 45,-764 -41,-898 -35,-55 -84,153 -162,159 -139,10 -114,191 -110,275l1 -1z"/>
   <path class="fil13" d="M6117 9169c2,53 -17,10 -22,79 -4,55 -11,121 -20,207 -10,94 0,226 33,424 22,132 44,268 28,398 -45,364 455,265 234,-189 -123,-252 25,-463 9,-679 -5,-66 -10,-117 -16,-158 -9,-73 -30,-40 -34,-99l-213 16 1 1z"/>
   <path class="fil7" d="M5592 10313c6,-60 -30,108 -43,176 -12,60 -19,129 1,138 138,56 24,-55 194,98 92,83 343,65 401,-37 67,-118 -346,-420 -367,-425 -265,-66 -94,156 -185,50l-1 0z"/>
   <path class="fil3" d="M5575 9091c-4,141 -22,248 -11,386 15,187 16,611 18,767 3,200 211,255 282,200 73,-57 -29,-164 -41,-196 -16,-43 -33,-72 -42,-112 -11,-52 -9,-121 24,-259 61,-257 65,-311 60,-482 -7,-233 -37,-262 5,-510 50,-294 130,-741 16,-796 -65,-31 -100,-213 -140,-197 -232,93 -164,934 -172,1200l1 -1z"/>
   <path class="fil13" d="M5555 9204c0,2 -1,19 -1,20 -36,275 -22,530 18,803 13,90 10,167 10,217 3,200 211,255 282,200 73,-57 -29,-164 -41,-196 -16,-43 -33,-72 -42,-112 -11,-52 -9,-121 24,-259 61,-257 65,-311 60,-482 -2,-66 -6,-115 -9,-158 0,-6 -4,-29 -5,-34l-297 2 1 -1z"/>
   <path class="fil11" d="M5647 6203l-27 -61c-414,48 -168,331 -142,398 62,159 1,281 -15,385 -42,274 -211,426 -287,804 -76,377 405,569 724,563 35,-1 270,14 489,-50 420,-124 436,-335 342,-700 -83,-324 -167,-714 -255,-878 -253,-469 271,-296 -178,-533 -181,-95 -155,106 -576,106 -45,0 -155,-28 -76,-34l1 0z"/>
   <path class="fil3" d="M5809 5940l-40 -16c1,12 15,80 16,90 15,147 3,44 -199,146 -168,84 400,630 632,86 82,-192 -80,-137 -160,-145 -36,-3 -32,-73 -32,-79 5,-78 51,-171 -84,-148 -22,4 -34,38 -61,57 -8,6 -57,-2 -72,8l0 1z"/>
   <path class="fil3" d="M5344 6353c-66,325 -163,1340 -511,1516 -134,68 -199,211 11,139 2,-9 -48,23 -73,54 -28,35 -21,79 66,30 55,-31 101,-138 20,-3 -12,21 -47,90 12,66 61,-24 126,-225 69,-59 -48,138 50,69 94,-61 94,-275 297,-477 426,-828 66,-179 180,-812 -47,-946 -26,-16 -51,4 -69,92l2 0z"/>
   <path class="fil4" d="M5171 7754c-50,361 416,544 729,538 35,-1 270,14 489,-50 319,-94 405,-239 386,-463 -16,166 -120,279 -386,358 -219,65 -454,50 -489,50 -281,5 -685,-142 -729,-433z"/>
   <path class="fil3" d="M6530 6353c66,325 163,1340 511,1516 134,68 199,211 -11,139 -2,-9 48,23 73,54 28,35 21,79 -66,30 -55,-31 -101,-138 -20,-3 12,21 47,90 -12,66 -61,-24 -126,-225 -69,-59 48,138 -50,69 -94,-61 -94,-275 -297,-477 -426,-828 -66,-179 -180,-812 47,-946 26,-16 51,4 69,92l-2 0z"/>
   <path class="fil9" d="M4481 4965c559,0 1038,-619 1038,-1105"/>
   <path class="fil12" d="M4481 4952c262,0 506,-138 690,-334 204,-217 335,-506 335,-758l26 0c0,258 -133,554 -342,776 -189,201 -440,343 -709,343l0 -26 0 -1z"/>
   <path class="fil14" d="M6215 3939c111,298 470,810 795,782"/>
   <path class="fil12" d="M6188 3911c2,5 4,9 6,14 67,169 224,420 390,583 129,126 273,213 410,202l1 15c-143,12 -291,-77 -422,-206 -173,-170 -342,-443 -405,-614l20 6z"/>
   <ellipse class="fil3" cx="9296" cy="4633" rx="1267" ry="1053"/>
   <path class="fil11" d="M10494 4977c-73,175 -200,330 -365,449 -51,-51 -82,-120 -82,-196 0,-158 137,-287 306,-287 51,0 99,12 142,33l-1 1z"/>
   <path class="fil11" d="M8469 5431c-166,-119 -295,-274 -369,-449 44,-23 95,-36 149,-36 169,0 306,128 306,287 0,78 -33,148 -86,199l0 -1z"/>
   <path class="fil15" d="M9296 3572c350,0 667,118 898,308 231,191 375,454 377,746l0 44 -15 -41c-44,-120 -290,-190 -548,-231 -746,-118 -624,127 -712,-503 -67,546 32,412 -556,470 -85,8 -166,19 -240,32 -106,18 -199,41 -273,69 -117,43 -188,97 -190,162l-15 0 0 0 0 0c2,-292 146,-555 377,-746 230,-190 548,-308 898,-308l-1 -2z"/>
   <path class="fil5" d="M8637 4460c276,-84 573,28 587,70 14,42 -137,291 -413,375 -276,84 -570,-35 -587,-70 -17,-35 137,-291 413,-375z"/>
   <circle class="fil16" transform="matrix(0.756941 -0.167213 0.220708 0.682705 8699.17 4691.1)" r="312"/>
   <circle class="fil8" transform="matrix(0.596793 -0.131835 0.174012 0.538264 8704.91 4683.83)" r="312"/>
   <circle class="fil5" transform="matrix(0.23509 -0.0519328 0.0685471 0.212034 8912.6 4739.13)" r="312"/>
   <path class="fil3" d="M8243 4892l-216 -297c-118,-103 -148,59 -91,180 39,81 90,180 177,197 78,15 104,-14 130,-81l0 1z"/>
   <path class="fil17" d="M10715 4056c39,-128 -4,-310 -98,-432 -262,-342 -785,-307 -692,58 25,99 68,234 201,380 68,74 151,106 214,131 139,55 322,36 375,-137z"/>
   <path class="fil9" d="M10497 3504c-59,154 79,379 225,523"/>
   <path class="fil18" d="M10076 3398c-9,3 -18,5 -27,9 -5,12 -10,26 -12,41 -11,60 -2,144 27,234 28,89 75,185 140,269 95,125 227,226 391,247 10,-5 21,-10 30,-16 -171,-12 -308,-114 -405,-243 -63,-83 -109,-176 -137,-263 -28,-87 -37,-167 -26,-224 4,-21 11,-40 20,-53l-1 -1z"/>
   <path class="fil18" d="M10319 3411c-6,-2 -12,-4 -19,-6 -39,143 6,312 95,461 68,113 162,216 264,287 4,-5 9,-9 13,-14 -100,-69 -193,-170 -260,-282 -87,-145 -131,-308 -93,-445l0 -1z"/>
   <path class="fil18" d="M10720 4039c2,-7 3,-15 5,-23 -54,-54 -107,-120 -149,-189 -66,-109 -103,-226 -70,-317 -5,-4 -11,-8 -16,-12 -39,98 0,223 70,339 45,74 102,144 161,201l-1 1z"/>
   <path class="fil5" d="M10003 4460c-276,-84 -573,28 -587,70 -15,42 137,291 413,375 276,84 570,-35 587,-70 17,-35 -137,-291 -413,-375z"/>
   <circle class="fil16" transform="matrix(-0.756941 -0.167213 -0.220708 0.682705 9933.07 4691.1)" r="312"/>
   <circle class="fil8" transform="matrix(-0.596793 -0.131835 -0.174012 0.538264 9935.42 4683.83)" r="312"/>
   <path class="fil19" d="M10003 4460c-176,-54 -360,-28 -474,9 100,103 244,208 425,264 151,46 305,49 440,33 -52,-92 -189,-245 -391,-307l0 1z"/>
   <path class="fil16" d="M9129 5931l8 -71c-66,-9 -151,9 -187,16 -256,48 -55,269 -59,370 -12,292 335,479 281,627l536 0c-52,-200 304,-381 251,-480 -253,-469 223,-433 -213,-574 -209,-68 -121,147 -541,147 -45,0 -156,-28 -76,-34l0 -1z"/>
   <path class="fil3" d="M9291 5668l-40 -16c1,12 15,80 16,90 15,147 3,44 -199,146 -168,84 400,630 632,86 82,-192 -91,-155 -171,-163 -39,-4 -17,-111 -22,-150 -16,-111 -77,-50 -144,-2 -8,6 -57,-2 -72,8l0 1z"/>
   <path class="fil5" d="M9228 10725l34 -101c-194,312 81,843 273,466 88,-173 39,-570 -168,-605 -106,-18 -104,162 -139,240z"/>
   <path class="fil3" d="M9134 8722c13,315 22,312 47,616 7,81 -27,139 -35,288 -5,95 0,449 33,647 22,132 44,268 28,398 -45,364 455,265 234,-189 -123,-252 25,-589 9,-805 -23,-315 -62,-268 -20,-644 12,-103 49,-708 24,-783 -32,-95 -190,-266 -295,-260 -139,9 -29,648 -25,732z"/>
   <path class="fil20" d="M10203 8949l211 7 23 17c170,-38 111,364 314,290 49,-18 70,-83 68,-160 -7,-268 -201,-326 -230,-408 -22,-63 -61,-148 -174,-109 -69,24 -96,64 -106,111 -14,66 31,77 -106,251l0 1z"/>
   <path class="fil3" d="M9565 8304l27 -115c-31,323 50,831 64,995 14,153 129,378 372,126 127,-132 353,-272 458,-412 111,-148 23,-149 -62,-149 -97,0 -229,25 -323,92 -106,76 -155,152 -167,135 -6,-7 -5,-174 -6,-335 -1,-48 -18,-532 -24,-545 -40,-87 -136,-25 -239,35 -56,33 -81,139 -101,174l1 -1z"/>
   <path class="fil20" d="M9433 6851c457,0 856,558 958,1312 -279,137 -617,218 -958,218 -341,0 -662,-78 -941,-215 102,-754 484,-1315 941,-1315z"/>
   <path class="fil16" d="M9443 6795c457,0 839,561 941,1315 -279,137 -599,215 -941,215 -341,0 -662,-78 -941,-215 102,-754 484,-1315 941,-1315z"/>
   <path class="fil21" d="M9443 6795c405,0 752,441 896,1067 -268,123 -573,193 -896,193 -323,0 -628,-70 -896,-193 144,-626 491,-1067 896,-1067z"/>
   <path class="fil20" d="M9443 6795c358,0 670,345 837,857 -254,107 -538,168 -837,168 -300,0 -584,-60 -837,-168 167,-512 480,-857 837,-857z"/>
   <path class="fil21" d="M9443 6795c303,0 574,248 751,635 -231,86 -485,133 -751,133 -266,0 -520,-47 -751,-133 177,-387 448,-635 751,-635z"/>
   <path class="fil20" d="M9443 6795c249,0 476,167 648,442 -208,67 -433,104 -668,104 -222,0 -435,-33 -634,-94 172,-281 402,-452 654,-452z"/>
   <path class="fil21" d="M9443 6795c185,0 359,93 506,253 -167,42 -344,64 -526,64 -170,0 -335,-19 -493,-56 149,-165 324,-261 513,-261z"/>
   <path class="fil22" d="M9443 6794c115,0 225,36 327,101 -113,18 -229,27 -347,27 -107,0 -212,-8 -315,-22 104,-68 217,-106 335,-106z"/>
   <path class="fil3" d="M8780 6005c-151,295 -517,1247 -899,1323 -147,29 -249,150 -27,136 4,-9 -52,9 -85,33 -36,26 -41,71 56,47 61,-15 135,-106 20,3 -17,17 -69,74 -6,67 65,-7 182,-183 82,-38 -83,120 29,80 107,-34 164,-240 415,-380 633,-683 112,-155 392,-734 209,-924 -21,-22 -51,-10 -91,70l1 0z"/>
   <path class="fil3" d="M10013 6005c27,53 57,128 101,213 168,328 182,664 397,312 59,-96 101,-190 121,-274 9,-37 19,-50 -31,-89 -52,-42 -25,-140 12,-80 8,12 42,53 46,6 3,-31 -26,-111 2,-143 23,-27 60,-7 93,98 -7,7 -10,-52 0,-91 11,-43 51,-64 64,35 8,62 -50,164 10,18 9,-22 44,-91 60,-30 17,63 -105,236 -6,91 82,-120 86,-2 7,112 -57,83 -96,162 -127,236 -56,136 -244,666 -430,622 -79,-19 -157,-117 -203,-181 -112,-155 -392,-734 -209,-924 21,-22 51,-10 91,70l2 -1z"/>
   <path class="fil3" d="M10355 4892l216 -297c118,-103 148,59 91,180 -39,81 -90,180 -177,197 -78,15 -104,-14 -130,-81l0 1z"/>
   <rect class="fil8" transform="matrix(0.660926 0.383746 -0.383746 0.660926 8248.84 4749.89)" width="15.88" height="162.06"/>
   <rect class="fil8" transform="matrix(0.660926 0.383746 -0.383746 0.660926 8285.23 4761.51)" width="15.88" height="162.06"/>
   <rect class="fil8" transform="matrix(0.660926 0.383746 -0.383746 0.660926 8325.68 4764.03)" width="15.88" height="162.06"/>
   <rect class="fil8" transform="matrix(0.697472 0.312437 -0.312437 0.697472 8360.06 4767.71)" width="15.88" height="162.06"/>
   <rect class="fil8" transform="matrix(0.748116 0.156224 -0.156224 0.748116 8388.96 4770.91)" width="15.88" height="162.06"/>
   <rect class="fil8" transform="matrix(0.762051 0.0579885 -0.0579885 0.762051 8418.3 4772.08)" width="15.88" height="162.06"/>
   <rect class="fil8" transform="matrix(-0.301707 0.70218 0.70218 0.301707 9081.13 4468.92)" width="15.88" height="162.06"/>
   <rect class="fil8" transform="matrix(-0.301707 0.70218 0.70218 0.301707 9058.85 4499.95)" width="15.88" height="162.06"/>
   <rect class="fil8" transform="matrix(-0.301707 0.70218 0.70218 0.301707 9027.89 4526.09)" width="15.88" height="162.06"/>
   <rect class="fil8" transform="matrix(-0.373568 0.666732 0.666732 0.373568 9002.47 4549.55)" width="15.88" height="162.06"/>
   <rect class="fil8" transform="matrix(-0.507378 0.571534 0.571534 0.507378 8981.19 4569.35)" width="15.88" height="162.06"/>
   <rect class="fil8" transform="matrix(-0.577144 0.500987 0.500987 0.577144 8958.33 4587.78)" width="15.88" height="162.06"/>
   <path class="fil19" d="M8633 4459c176,-54 360,-28 474,9 -100,103 -244,208 -425,264 -151,46 -305,49 -440,33 52,-92 189,-245 391,-307l0 1z"/>
   <rect class="fil8" transform="matrix(0.341512 0.683706 -0.683706 0.341512 9538.36 4481.26)" width="15.88" height="162.06"/>
   <rect class="fil8" transform="matrix(0.341512 0.683706 -0.683706 0.341512 9562.39 4510.96)" width="15.88" height="162.06"/>
   <rect class="fil8" transform="matrix(0.341512 0.683706 -0.683706 0.341512 9594.8 4535.29)" width="15.88" height="162.06"/>
   <rect class="fil8" transform="matrix(0.411219 0.644191 -0.644191 0.411219 9621.52 4557.24)" width="15.88" height="162.06"/>
   <rect class="fil8" transform="matrix(0.539345 0.541471 -0.541471 0.539345 9643.9 4575.79)" width="15.88" height="162.06"/>
   <rect class="fil8" transform="matrix(0.604948 0.467036 -0.467036 0.604948 9667.78 4592.88)" width="15.88" height="162.06"/>
   <rect class="fil8" transform="matrix(-0.705556 0.293726 0.293726 0.705556 10359.2 4772.08)" width="15.88" height="162.06"/>
   <rect class="fil8" transform="matrix(-0.705556 0.293726 0.293726 0.705556 10321.6 4778.83)" width="15.88" height="162.06"/>
   <rect class="fil8" transform="matrix(-0.705556 0.293726 0.293726 0.705556 10281.2 4776.02)" width="15.88" height="162.06"/>
   <rect class="fil8" transform="matrix(-0.732431 0.21824 0.21824 0.732431 10246.6 4775.15)" width="15.88" height="162.06"/>
   <rect class="fil8" transform="matrix(-0.762145 0.0567322 0.0567322 0.762145 10217.5 4774.54)" width="15.88" height="162.06"/>
   <rect class="fil8" transform="matrix(-0.763072 -0.0424819 -0.0424819 0.763072 10188.3 4771.85)" width="15.88" height="162.06"/>
   <path class="fil2" d="M14054 5637c3,-20 4,-40 5,-60 -21,59 -92,110 -136,142 -12,8 -21,15 -29,21 -80,66 -188,155 -268,247 -80,92 -132,186 -99,261 9,-1 18,-2 27,-3 0,-1 -1,-2 -1,-3 -32,-64 17,-151 93,-238 78,-90 186,-179 265,-244 7,-5 16,-12 27,-20 34,-25 83,-60 116,-103z"/>
   <path class="fil2" d="M13690 5921c5,7 11,14 17,20 68,-67 144,-131 204,-180 7,-5 16,-12 27,-20 34,-25 83,-60 116,-103 3,-20 4,-40 5,-60 -21,59 -92,110 -136,142 -12,8 -21,15 -29,21 -60,50 -137,113 -205,180l1 0z"/>
   <path class="fil23" d="M13889 6398c106,-62 -21,-166 -157,-214 41,-33 40,-77 11,-124 23,-26 44,-57 62,-90 160,-25 357,-332 193,-649 -53,-102 -139,-62 -214,32 -104,-135 -280,73 -368,294 -23,58 -37,121 -42,184 -119,-22 -239,-4 -287,57 -90,113 83,333 340,361 -30,117 221,293 463,150l-1 -1z"/>
   <path class="fil3" d="M14054 5622c3,-20 5,-74 5,-94 -16,114 -92,160 -136,191 -12,8 -21,15 -29,21 -80,66 -188,155 -268,247 -82,94 -135,190 -97,266 3,6 11,9 17,6 6,-3 9,-11 6,-17 -32,-64 17,-151 93,-238 78,-90 186,-179 265,-244 7,-5 16,-12 27,-20 34,-25 86,-62 116,-118l1 0z"/>
   <path class="fil23" d="M13958 6299c-35,-87 -128,0 -178,98 -39,77 -41,183 1,219 77,66 261,-110 177,-317z"/>
   <path class="fil19" d="M13970 5845c-64,-123 -188,18 -248,169 -47,118 -35,274 33,321 122,85 367,-197 215,-490z"/>
   <path class="fil23" d="M13638 6389c43,-83 127,12 168,115 32,80 24,186 -22,218 -83,58 -249,-134 -146,-333z"/>
   <path class="fil23" d="M13658 6719c39,-74 114,11 150,102 29,72 21,166 -20,194 -74,52 -222,-119 -130,-297l0 1z"/>
   <path class="fil19" d="M13983 6600c-39,-78 -143,0 -199,88 -44,69 -46,163 2,195 86,58 292,-98 198,-283l-1 0z"/>
   <path class="fil19" d="M13878 6940l-145 121c-50,70 19,334 119,401 240,161 417,-189 364,-136 -51,51 -193,113 -118,64 53,-34 137,-184 67,-99 -65,79 -254,26 -145,-171 45,-82 -25,-199 -122,-183l-20 2 0 1z"/>
   <path class="fil24" d="M13970 6946c60,-50 30,-196 -108,-79 -289,243 -68,226 108,79z"/>
   <ellipse class="fil11" cx="14106" cy="5069" rx="40" ry="38"/>
   <path class="fil12" d="M14049 5056c8,-13 21,-50 36,-95 41,-121 104,-306 189,-342 57,-24 120,13 186,168 39,90 -84,146 -189,194 -56,25 -106,48 -119,70 -5,9 0,19 22,32 34,20 58,62 71,112 14,54 17,119 8,174 -12,74 -42,113 -76,126 -34,13 -72,1 -104,-27 -30,-27 -56,-68 -66,-116 -16,-75 3,-164 95,-236 -8,1 -15,1 -19,0 -3,-1 -10,-3 -14,-6 -3,-2 -6,-4 -7,-7 -3,-5 -4,-11 -1,-17l0 0c0,-8 1,-15 2,-21l-13 -8 -1 -1zm61 -87c-7,20 -13,37 -18,53 11,-3 23,0 34,8 3,2 5,4 7,6 18,-27 71,-51 129,-78 94,-43 204,-93 176,-161 -59,-137 -109,-173 -152,-155 -74,32 -135,210 -175,327l-1 0zm52 136c-3,-2 -7,-4 -9,-6 0,1 -1,2 -1,3l0 0 0 0c-3,9 -9,16 -18,23 -95,67 -116,152 -101,222 9,42 31,79 58,102 25,22 54,32 78,22 26,-10 49,-43 60,-106 9,-52 6,-112 -7,-163 -12,-44 -31,-80 -59,-96l-1 -1zm-33 -25c0,-2 -1,-4 -1,-6 -3,-10 -9,-19 -17,-24 -5,-4 -10,-5 -14,-3 -6,4 -10,17 -10,42l0 0c1,0 2,1 3,1 1,0 6,0 12,-1 5,-1 9,-2 11,-4l0 0c6,-4 11,-5 16,-6l0 1z"/>
   <path class="fil14" d="M14025 6019c10,293 -317,327 -376,560"/>
   <path class="fil12" d="M14034 6056c-1,10 -2,19 -3,29 -19,127 -107,199 -194,271 -77,63 -153,126 -178,225l-19 -5c27,-105 106,-170 185,-236 90,-74 181,-150 191,-286 1,-12 2,-56 1,-69 1,0 5,13 9,26 6,19 10,24 8,44l0 1z"/>
   <path class="fil12" d="M13981 6385c20,113 -45,173 -127,247 -63,58 -136,124 -182,231l-14 -6c47,-111 121,-178 186,-237 75,-68 136,-124 123,-222 -2,-17 -4,-87 -4,-87 0,-2 13,46 18,73l0 1z"/>
   <path class="fil2" d="M11606 5637c-3,-20 -4,-40 -5,-60 21,59 92,110 136,142 12,8 21,15 29,21 80,66 188,155 268,247 80,92 132,186 99,261 -9,-1 -18,-2 -27,-3 0,-1 1,-2 1,-3 32,-64 -17,-151 -93,-238 -78,-90 -186,-179 -265,-244 -7,-5 -16,-12 -27,-20 -34,-25 -83,-60 -116,-103z"/>
   <path class="fil2" d="M11971 5921c-5,7 -11,14 -17,20 -68,-67 -144,-131 -204,-180 -7,-5 -16,-12 -27,-20 -34,-25 -83,-60 -116,-103 -3,-20 -4,-40 -5,-60 21,59 92,110 136,142 12,8 21,15 29,21 60,50 137,113 205,180l-1 0z"/>
   <path class="fil23" d="M11772 6398c-106,-62 21,-166 157,-214 -41,-33 -40,-77 -11,-124 -23,-26 -44,-57 -62,-90 -160,-25 -357,-332 -193,-649 53,-102 139,-62 214,32 104,-135 280,73 368,294 23,58 37,121 42,184 119,-22 239,-4 287,57 90,113 -83,333 -340,361 30,117 -221,293 -463,150l1 -1z"/>
   <path class="fil3" d="M11606 5622c-3,-20 -5,-74 -5,-94 16,114 92,160 136,191 12,8 21,15 29,21 80,66 188,155 268,247 82,94 135,190 97,266 -3,6 -11,9 -17,6 -6,-3 -9,-11 -6,-17 32,-64 -17,-151 -93,-238 -78,-90 -186,-179 -265,-244 -7,-5 -16,-12 -27,-20 -34,-25 -86,-62 -116,-118l-1 0z"/>
   <path class="fil23" d="M11702 6299c35,-87 128,0 178,98 39,77 41,183 -1,219 -77,66 -261,-110 -177,-317z"/>
   <path class="fil19" d="M11690 5845c64,-123 188,18 248,169 47,118 35,274 -33,321 -122,85 -367,-197 -215,-490z"/>
   <path class="fil23" d="M12022 6389c-43,-83 -127,12 -168,115 -32,80 -24,186 22,218 83,58 249,-134 146,-333z"/>
   <path class="fil23" d="M12002 6719c-39,-74 -114,11 -150,102 -29,72 -21,166 20,194 74,52 222,-119 130,-297l0 1z"/>
   <path class="fil19" d="M11677 6600c39,-78 143,0 199,88 44,69 46,163 -2,195 -86,58 -292,-98 -198,-283l1 0z"/>
   <path class="fil19" d="M11783 6940l145 121c50,70 -19,334 -119,401 -240,161 -417,-189 -364,-136 51,51 193,113 118,64 -53,-34 -137,-184 -67,-99 65,79 254,26 145,-171 -45,-82 25,-199 122,-183l20 2 0 1z"/>
   <path class="fil24" d="M11691 6946c-60,-50 -30,-196 108,-79 289,243 68,226 -108,79z"/>
   <ellipse class="fil11" cx="11555" cy="5069" rx="40" ry="38"/>
   <path class="fil12" d="M11612 5056c-8,-13 -21,-50 -36,-95 -41,-121 -104,-306 -189,-342 -57,-24 -120,13 -186,168 -39,90 84,146 189,194 56,25 106,48 119,70 5,9 0,19 -22,32 -34,20 -58,62 -71,112 -14,54 -17,119 -8,174 12,74 42,113 76,126 34,13 72,1 104,-27 30,-27 56,-68 66,-116 16,-75 -3,-164 -95,-236 8,1 15,1 19,0 3,-1 10,-3 14,-6 3,-2 6,-4 7,-7 3,-5 4,-11 1,-17l0 0c0,-8 -1,-15 -2,-21l13 -8 1 -1zm-61 -87c7,20 13,37 18,53 -11,-3 -23,0 -34,8 -3,2 -5,4 -7,6 -18,-27 -71,-51 -129,-78 -94,-43 -204,-93 -176,-161 59,-137 109,-173 152,-155 74,32 135,210 175,327l1 0zm-52 136c3,-2 7,-4 9,-6 0,1 1,2 1,3l0 0 0 0c3,9 9,16 18,23 95,67 116,152 101,222 -9,42 -31,79 -58,102 -25,22 -54,32 -78,22 -26,-10 -49,-43 -60,-106 -9,-52 -6,-112 7,-163 12,-44 31,-80 59,-96l1 -1zm33 -25c0,-2 1,-4 1,-6 3,-10 9,-19 17,-24 5,-4 10,-5 14,-3 6,4 10,17 10,42l0 0c-1,0 -2,1 -3,1 -1,0 -6,0 -12,-1 -5,-1 -9,-2 -11,-4l0 0c-6,-4 -11,-5 -16,-6l0 1z"/>
   <path class="fil14" d="M11636 6019c-10,293 317,327 376,560"/>
   <path class="fil12" d="M11626 6056c1,10 2,19 3,29 19,127 107,199 194,271 77,63 153,126 178,225l19 -5c-27,-105 -106,-170 -185,-236 -90,-74 -181,-150 -191,-286 -1,-12 -2,-56 -1,-69 -1,0 -5,13 -9,26 -6,19 -10,24 -8,44l0 1z"/>
   <path class="fil12" d="M11679 6385c-20,113 45,173 127,247 63,58 136,124 182,231l14 -6c-47,-111 -121,-178 -186,-237 -75,-68 -136,-124 -123,-222 2,-17 4,-87 4,-87 0,-2 -13,46 -18,73l0 1z"/>
   <path class="fil25" d="M13382 10682c102,88 263,75 295,-128 30,-191 -131,-611 -337,-568 -94,20 -127,549 42,696z"/>
   <path class="fil26" d="M12732 6292c13,24 -48,66 -78,24 -21,-29 194,-52 -66,-102 -99,-19 -164,51 -160,205 258,25 176,716 117,877 -53,145 -119,264 -184,374 -37,62 -305,381 -340,440 -2,21 98,94 269,168 560,242 992,245 1520,-51 79,-44 136,-88 143,-125 -9,-17 -19,45 -27,24 -94,-275 -297,-477 -426,-828 -66,-179 -180,-812 47,-946 5,-3 11,-5 16,-5 -31,-36 -55,-207 -211,-155 -203,68 -123,135 -543,135 -45,0 -156,-28 -76,-34l-1 -1z"/>
   <path class="fil3" d="M13222 8329c13,315 22,534 47,838 7,81 -27,139 -35,288 -5,95 0,226 33,424 22,132 44,268 28,398 -45,364 455,265 234,-189 -123,-252 25,-463 9,-679 -23,-315 -62,-268 -20,-644 39,-346 106,-945 -162,-925 -139,10 -138,406 -134,489z"/>
   <path class="fil25" d="M12699 10053c17,-38 -31,-42 -80,1 -21,19 -57,48 -68,66 -62,108 -71,168 -41,208 84,115 136,-6 211,220 64,193 662,246 253,-236 -43,-50 -82,-85 -116,-107 -230,-147 -118,-71 -159,-151l0 -1z"/>
   <path class="fil3" d="M12578 7755c-118,64 142,976 280,1298 61,143 55,148 0,290 -103,264 -276,702 -275,851 -4,36 26,84 76,117 61,41 130,45 154,9 24,-36 -7,-98 -68,-139 -13,-8 -6,-35 25,-83 105,-164 260,-427 339,-601 78,-173 114,-219 90,-413 -44,-354 -330,-1487 -621,-1329z"/>
   <path class="fil3" d="M13700 6683c119,415 301,961 564,1060 141,53 221,188 5,139 -3,-9 50,18 78,46 32,32 30,76 -63,37 -58,-25 -116,-126 -20,-1 15,19 56,84 -5,67 -63,-17 -150,-210 -75,-51 62,132 -42,75 -101,-50 -123,-263 -348,-441 -515,-776 -85,-171 -297,-740 -59,-853 65,-31 159,269 191,382z"/>
   <path class="fil24" d="M12732 6203c13,24 -48,66 -78,24 -21,-29 194,-52 -66,-102 -99,-19 -164,51 -160,205 258,25 176,716 117,877 -53,145 -119,264 -184,374 -37,62 -309,466 -344,525 -5,47 459,239 1124,228 72,-1 784,-110 811,-240 -9,-17 -17,-36 -25,-57 -94,-275 -297,-477 -426,-828 -66,-179 -165,-751 62,-885 26,-15 -37,-142 -46,-158 -29,-49 -75,-92 -164,-63 -203,68 -123,135 -543,135 -45,0 -156,-28 -76,-34l-2 -1z"/>
   <path class="fil27" d="M12894 5940l-40 -16c1,12 15,80 16,90 15,147 3,44 -199,146 -168,84 264,549 632,86 82,-103 -91,-155 -171,-163 -44,-4 -3,-187 -27,-219 -26,-35 -88,30 -139,67 -8,6 -57,-2 -72,8l0 1z"/>
   <ellipse class="fil3" cx="12832" cy="4899" rx="1267" ry="1053"/>
   <path class="fil28" d="M12114 5766c-88,-50 -168,-110 -238,-176 15,-74 86,-129 171,-129 96,0 174,71 174,159 0,66 -45,123 -108,147l1 -1z"/>
   <path class="fil28" d="M13858 5516c-72,82 -157,155 -254,217 -33,-29 -53,-69 -53,-114 0,-88 78,-159 174,-159 53,0 100,21 132,55l1 1z"/>
   <rect class="fil8" transform="matrix(-0.705556 0.293726 0.293726 0.705556 13262.9 5269.52)" width="15.88" height="162.06"/>
   <rect class="fil8" transform="matrix(-0.705556 0.293726 0.293726 0.705556 13225.3 5276.27)" width="15.88" height="162.06"/>
   <rect class="fil8" transform="matrix(-0.705556 0.293726 0.293726 0.705556 13184.9 5273.46)" width="15.88" height="162.06"/>
   <rect class="fil8" transform="matrix(-0.732431 0.21824 0.21824 0.732431 13150.3 5272.59)" width="15.88" height="162.06"/>
   <rect class="fil8" transform="matrix(-0.762145 0.0567322 0.0567322 0.762145 13121.3 5271.98)" width="15.88" height="162.06"/>
   <rect class="fil8" transform="matrix(-0.763072 -0.0424819 -0.0424819 0.763072 13092 5269.28)" width="15.88" height="162.06"/>
   <rect class="fil8" transform="matrix(-0.564201 0.51552 0.51552 0.564201 13461.9 5217.06)" width="15.88" height="162.06"/>
   <rect class="fil8" transform="matrix(-0.564201 0.51552 0.51552 0.564201 13428.9 5236.16)" width="15.88" height="162.06"/>
   <rect class="fil8" transform="matrix(-0.564201 0.51552 0.51552 0.564201 13389.9 5247.22)" width="15.88" height="162.06"/>
   <rect class="fil8" transform="matrix(-0.615075 0.453614 0.453614 0.615075 13357.1 5258.12)" width="15.88" height="162.06"/>
   <rect class="fil8" transform="matrix(-0.697782 0.311744 0.311744 0.697782 13329.5 5267.4)" width="15.88" height="162.06"/>
   <rect class="fil8" transform="matrix(-0.732288 0.218719 0.218719 0.732288 13301.1 5274.78)" width="15.88" height="162.06"/>
   <rect class="fil8" transform="matrix(-0.301548 0.702248 0.702248 0.301548 13625.2 5103.6)" width="15.88" height="162.06"/>
   <rect class="fil8" transform="matrix(-0.301548 0.702248 0.702248 0.301548 13602.9 5134.64)" width="15.88" height="162.06"/>
   <rect class="fil8" transform="matrix(-0.301548 0.702248 0.702248 0.301548 13571.9 5160.79)" width="15.88" height="162.06"/>
   <rect class="fil8" transform="matrix(-0.373417 0.666816 0.666816 0.373417 13546.5 5184.25)" width="15.88" height="162.06"/>
   <rect class="fil8" transform="matrix(-0.507248 0.571649 0.571649 0.507248 13525.2 5204.06)" width="15.88" height="162.06"/>
   <rect class="fil8" transform="matrix(-0.577031 0.501118 0.501118 0.577031 13502.4 5222.49)" width="15.88" height="162.06"/>
   <rect class="fil8" transform="matrix(-0.120357 0.754717 0.754717 0.120357 13760.3 4944.67)" width="15.88" height="162.06"/>
   <rect class="fil8" transform="matrix(-0.120357 0.754717 0.754717 0.120357 13746.4 4980.22)" width="15.88" height="162.06"/>
   <rect class="fil8" transform="matrix(-0.120357 0.754717 0.754717 0.120357 13722.7 5013.16)" width="15.88" height="162.06"/>
   <rect class="fil8" transform="matrix(-0.198715 0.737968 0.737968 0.198715 13703.9 5042.13)" width="15.88" height="162.06"/>
   <rect class="fil8" transform="matrix(-0.351779 0.67848 0.67848 0.351779 13688.1 5066.54)" width="15.88" height="162.06"/>
   <rect class="fil8" transform="matrix(-0.436712 0.627189 0.627189 0.436712 13670.4 5090.02)" width="15.88" height="162.06"/>
   <rect class="fil8" transform="matrix(0.760982 -0.0706369 0.0706369 0.760982 12695.9 5259.53)" width="15.88" height="162.06"/>
   <rect class="fil8" transform="matrix(0.760982 -0.0706369 0.0706369 0.760982 12732.3 5247.89)" width="15.88" height="162.06"/>
   <rect class="fil8" transform="matrix(0.760982 -0.0706369 0.0706369 0.760982 12766.7 5226.5)" width="15.88" height="162.06"/>
   <rect class="fil8" transform="matrix(0.749404 -0.149924 0.149924 0.749404 12796.9 5209.55)" width="15.88" height="162.06"/>
   <rect class="fil8" transform="matrix(0.700076 -0.306558 0.306558 0.700076 12822.3 5195.4)" width="15.88" height="162.06"/>
   <rect class="fil8" transform="matrix(0.654461 -0.39467 0.39467 0.654461 12846.8 5179.34)" width="15.88" height="162.06"/>
   <rect class="fil8" transform="matrix(0.739867 0.191523 -0.191523 0.739867 12495.5 5306.31)" width="15.88" height="162.06"/>
   <rect class="fil8" transform="matrix(0.739867 0.191523 -0.191523 0.739867 12533.7 5307.7)" width="15.88" height="162.06"/>
   <rect class="fil8" transform="matrix(0.739867 0.191523 -0.191523 0.739867 12573.3 5299.24)" width="15.88" height="162.06"/>
   <rect class="fil8" transform="matrix(0.755853 0.113006 -0.113006 0.755853 12607.4 5293.51)" width="15.88" height="162.06"/>
   <rect class="fil8" transform="matrix(0.762545 -0.0510763 0.0510763 0.762545 12636.1 5288.81)" width="15.88" height="162.06"/>
   <rect class="fil8" transform="matrix(0.749502 -0.149434 0.149434 0.749502 12664.7 5282.03)" width="15.88" height="162.06"/>
   <rect class="fil8" transform="matrix(0.595146 0.479463 -0.479463 0.595146 12298.2 5282.43)" width="15.88" height="162.06"/>
   <rect class="fil8" transform="matrix(0.595146 0.479463 -0.479463 0.595146 12332.4 5299.43)" width="15.88" height="162.06"/>
   <rect class="fil8" transform="matrix(0.595146 0.479463 -0.479463 0.595146 12372 5308.06)" width="15.88" height="162.06"/>
   <rect class="fil8" transform="matrix(0.642075 0.414516 -0.414516 0.642075 12405.4 5316.9)" width="15.88" height="162.06"/>
   <rect class="fil8" transform="matrix(0.715806 0.26778 -0.26778 0.715806 12433.5 5324.44)" width="15.88" height="162.06"/>
   <rect class="fil8" transform="matrix(0.744464 0.172791 -0.172791 0.744464 12462.3 5330.04)" width="15.88" height="162.06"/>
   <rect class="fil8" transform="matrix(0.459579 0.610631 -0.610631 0.459579 12104.3 5205.25)" width="15.88" height="162.06"/>
   <rect class="fil8" transform="matrix(0.459579 0.610631 -0.610631 0.459579 12133.3 5230.12)" width="15.88" height="162.06"/>
   <rect class="fil8" transform="matrix(0.459579 0.610631 -0.610631 0.459579 12169.6 5248.18)" width="15.88" height="162.06"/>
   <rect class="fil8" transform="matrix(0.520987 0.559157 -0.559157 0.520987 12199.8 5264.94)" width="15.88" height="162.06"/>
   <rect class="fil8" transform="matrix(0.628413 0.43495 -0.43495 0.628413 12225.2 5279.13)" width="15.88" height="162.06"/>
   <rect class="fil8" transform="matrix(0.679465 0.349874 -0.349874 0.679465 12251.8 5291.62)" width="15.88" height="162.06"/>
   <path class="fil29" d="M13314 4839c-206,131 -277,390 -254,424 23,34 286,82 492,-49 206,-131 270,-393 254,-424 -17,-32 -286,-82 -492,49z"/>
   <path class="fil9 str1" d="M13126 4098c60,218 103,205 89,474 -11,212 241,129 113,15"/>
   <path class="fil2" d="M13066 5236c-3,21 -2,36 3,43 23,34 286,82 492,-49 206,-131 270,-393 254,-424 -5,-10 -34,-21 -77,-28 -13,100 -63,257 -185,366 -182,162 -449,158 -478,128 -5,-5 -8,-18 -9,-36z"/>
   <path class="fil30" d="M13088 3867c577,98 1012,523 1012,1032 0,48 -4,96 -12,143 -477,-108 -863,-569 -1000,-1175z"/>
   <path class="fil29" d="M12446 4898c242,27 420,229 414,270 -6,41 -221,199 -464,172 -242,-27 -415,-234 -414,-270 1,-36 221,-199 464,-172z"/>
   <path class="fil2" d="M12831 5134c12,18 17,32 16,40 -7,41 -225,195 -467,164 -242,-31 -411,-242 -409,-277 1,-11 22,-33 57,-58 54,85 166,207 322,254 234,70 474,-47 487,-86 2,-7 0,-19 -7,-36l1 -1z"/>
   <path class="fil19" d="M12832 3845c87,0 171,7 253,21 41,104 64,215 64,331 0,582 -567,1053 -1267,1053 -87,0 -171,-7 -253,-21 -41,-104 -64,-215 -64,-331 0,-582 567,-1053 1267,-1053z"/>
   <path class="fil9 str2" d="M11589 5031c559,0 1038,-619 1038,-1105"/>
   <path class="fil9 str3" d="M12856 3845c0,474 -40,1169 -593,1335"/>
   <path class="fil9 str4" d="M13301 3939c111,298 470,810 795,782"/>
   <ellipse class="fil17" cx="9251" cy="4949" rx="36" ry="10"/>
   <path class="fil31" d="M9251 4932c11,0 21,1 28,3 10,3 16,8 16,15 0,7 -6,12 -16,15 -7,2 -17,3 -28,3 -11,0 -21,-1 -28,-3 -10,-3 -16,-8 -16,-15 0,-7 6,-12 16,-15 7,-2 17,-3 28,-3zm23 18c-6,-2 -14,-2 -23,-2 -9,0 -17,1 -23,2 6,2 14,2 23,2 9,0 17,-1 23,-2zm6 0c0,-1 0,0 -1,0 1,0 1,1 1,0zm-58 0c0,1 0,0 1,0 -1,0 -1,-1 -1,0z"/>
   <ellipse class="fil17" cx="9395" cy="4945" rx="36" ry="10"/>
   <path class="fil31" d="M9395 4928c11,0 21,1 28,3 10,3 16,8 16,15 0,7 -6,12 -16,15 -7,2 -17,3 -28,3 -11,0 -21,-1 -28,-3 -10,-3 -16,-8 -16,-15 0,-7 6,-12 16,-15 7,-2 17,-3 28,-3zm23 18c-6,-2 -14,-2 -23,-2 -9,0 -17,1 -23,2 6,2 14,2 23,2 9,0 17,-1 23,-2zm6 0c0,-1 0,0 -1,0 1,0 1,1 1,0zm-58 0c0,1 0,0 1,0 -1,0 -1,-1 -1,0z"/>
   <path class="fil28 str5" d="M12974 5707c38,-88 95,107 83,-33 -9,-103 160,87 37,122 -22,6 -153,-13 -120,-88l0 -1z"/>
   <path class="fil24 str5" d="M12974 5707c38,-88 95,107 83,-33 -5,-61 51,-20 74,32l-136 67c-21,-14 -33,-35 -20,-65l-1 -1z"/>
   <path class="fil9 str6" d="M12638 6801c105,95 615,70 747,-38 11,-9 60,-25 13,-23"/>
   <path class="fil9 str6" d="M12820 6850c-65,75 -76,203 -100,275 -3,8 -1,-1 -1,-8"/>
   <path class="fil9 str6" d="M12884 6858c-13,47 5,110 -12,162"/>
   <path class="fil9 str6" d="M13188 6841c82,57 99,203 117,222"/>
   <path class="fil3" d="M12610 6694c-6,432 11,1007 234,1177 119,91 158,244 -36,134 0,-10 43,31 62,67 21,40 6,82 -71,18 -48,-40 -75,-154 -19,-6 8,23 30,97 -24,63 -55,-35 -84,-244 -57,-71 22,144 -62,59 -82,-77 -42,-287 -206,-523 -270,-892 -32,-188 -71,-795 189,-834 71,-11 75,303 73,421l1 0z"/>
   <path class="fil21" d="M16711 8807l-211 7 -23 17c-170,-38 -111,364 -314,290 -49,-18 -70,-83 -68,-160 7,-268 201,-326 230,-408 22,-63 61,-148 174,-109 69,24 96,64 106,111 14,66 -31,77 106,251l0 1z"/>
   <path class="fil20" d="M16534 8813l-34 1 -23 17c-40,-9 -67,6 -89,34l1 -207c94,35 155,90 146,143 -1,4 -1,8 -2,11l1 1z"/>
   <path class="fil27" d="M17346 7857l94 -86c-2,14 -52,78 -68,213 -33,275 -46,461 -76,734 -16,141 -32,260 -38,325 -14,153 -129,378 -372,126 -127,-132 -353,-272 -458,-412 -111,-148 -23,-149 62,-149 97,0 229,25 323,92 106,76 155,152 167,135 6,-7 5,-174 6,-335 1,-48 18,-532 24,-545 40,-87 254,-302 356,-242 56,33 -41,111 -20,145l0 -1z"/>
   <path class="fil3" d="M16511 9067c7,81 -27,139 -35,288 -5,95 12,445 45,643 22,132 44,268 28,398 -45,364 455,265 234,-189 -123,-252 13,-682 -3,-898 -23,-315 -62,-268 -20,-644 27,-244 37,-293 37,-541 0,-272 40,-732 -176,-728 -216,4 -168,455 -168,728 0,370 27,573 58,943z"/>
   <path class="fil32" d="M17440 7271c3,10 4,20 4,30l0 603c0,69 -69,126 -153,126l-188 0c-84,0 -153,-57 -153,-126l0 -181c-24,0 -48,0 -72,-3l0 184c0,69 -69,126 -153,126l-188 0c-84,0 -153,-57 -153,-126l0 -480c-1,-21 -2,-47 0,-82l0 -40c0,-10 2,-20 4,-30 1,-12 3,-24 4,-36l0 0c3,-16 6,-33 10,-49l0 0c1,-4 2,-8 3,-13l0 0c62,-232 260,-473 449,-473 13,0 34,1 59,2 24,-1 46,-2 59,-2 189,0 387,241 449,473l0 2 0 2 2 8 0 2 0 2 0 2 2 7 0 0 0 2 0 2 0 2 0 2 1 5 0 2 0 2 0 2 0 2 0 0 1 8 0 2 0 2 0 2c0,3 1,5 1,8l0 2 0 2 0 2 0 2 1 6 0 2 0 2 0 2 0 0c0,3 1,5 1,8l0 2 0 2 0 2 0 0 1 8 0 2 9 -15z"/>
   <path class="fil13" d="M17440 7271c3,10 4,20 4,30l0 35 -1059 0 0 -35c0,-10 2,-20 4,-30 1,-12 3,-24 4,-36l0 0c3,-16 6,-33 10,-49l0 0c1,-4 2,-8 3,-13l0 0 2 -6 1011 0 2 6 0 2 0 2 2 8 0 2 0 2 0 2 2 7 0 0 0 2 0 2 0 2 0 2 1 5 0 2 0 2 0 2 0 2 0 0 1 8 0 2 0 2 0 2c0,3 1,5 1,8l0 2 0 2 0 2 0 2 1 6 0 2 0 2 0 2 0 0c0,3 1,5 1,8l0 2 0 2 0 2 0 0 1 8 0 2 9 -14z"/>
   <polygon class="fil13" points="17445,7476 17445,7646 16386,7646 16386,7476 "/>
   <path class="fil13" d="M17445 7761l0 143c0,9 -1,18 -4,27l-486 0c-2,-9 -4,-18 -4,-27l0 -143 493 0 1 0zm-565 0l0 143c0,9 -1,18 -4,27l-486 0c-2,-9 -4,-18 -4,-27l0 -143 493 0 1 0z"/>
   <path class="fil33" d="M16587 5931l31 49c-86,2 -83,-178 -212,-150 -105,23 -145,87 -152,139 -12,94 118,223 164,299 151,250 266,457 212,605l623 0c-52,-200 170,-508 116,-607 -37,-70 8,-108 6,-145 -6,-121 71,-120 72,-176 0,-9 4,-32 -13,-54 -35,-45 -66,-113 -134,-115 -149,-3 -115,111 -160,107 -191,-18 -58,82 -478,82 -45,0 -155,-28 -76,-34l1 0z"/>
   <path class="fil27" d="M16748 5668l-40 -16c1,12 15,80 16,90 15,147 3,44 -199,146 -168,84 400,630 632,86 82,-192 -91,-155 -171,-163 -50,-5 0,-214 -40,-267 -26,-35 -74,79 -125,115 -8,6 -57,-2 -72,8l-1 1z"/>
   <ellipse class="fil3" cx="16754" cy="4633" rx="1267" ry="1053"/>
   <rect class="fil4" transform="matrix(-0.46574 -0.605945 0.605945 -0.46574 17772.4 4627.48)" width="15.88" height="162.06"/>
   <rect class="fil4" transform="matrix(-0.46574 -0.605945 0.605945 -0.46574 17743.1 4602.91)" width="15.88" height="162.06"/>
   <rect class="fil4" transform="matrix(-0.46574 -0.605945 0.605945 -0.46574 17706.7 4585.22)" width="15.88" height="162.06"/>
   <rect class="fil4" transform="matrix(-0.526623 -0.553852 0.553852 -0.526623 17676.3 4568.77)" width="15.88" height="162.06"/>
   <rect class="fil4" transform="matrix(-0.632786 -0.428563 0.428563 -0.632786 17650.7 4554.83)" width="15.88" height="162.06"/>
   <rect class="fil4" transform="matrix(-0.682973 -0.342974 0.342974 -0.682973 17624 4542.62)" width="15.88" height="162.06"/>
   <rect class="fil4" transform="matrix(-0.0958966 -0.758213 0.758213 -0.0958966 17874.5 4791.78)" width="15.88" height="162.06"/>
   <rect class="fil4" transform="matrix(-0.0958966 -0.758213 0.758213 -0.0958966 17861.6 4755.8)" width="15.88" height="162.06"/>
   <rect class="fil4" transform="matrix(-0.0958966 -0.758213 0.758213 -0.0958966 17839.1 4722.11)" width="15.88" height="162.06"/>
   <rect class="fil4" transform="matrix(-0.174755 -0.744006 0.744006 -0.174755 17821.2 4692.55)" width="15.88" height="162.06"/>
   <rect class="fil4" transform="matrix(-0.329663 -0.689497 0.689497 -0.329663 17806.2 4667.64)" width="15.88" height="162.06"/>
   <rect class="fil4" transform="matrix(-0.416209 -0.640979 0.640979 -0.416209 17789.3 4643.61)" width="15.88" height="162.06"/>
   <path class="fil27" d="M17442 4399c280,84 445,361 430,408 -16,47 -304,186 -583,102 -280,-84 -439,-366 -430,-408 9,-42 304,-186 583,-102z"/>
   <rect class="fil4" transform="matrix(0.46574 -0.605945 -0.605945 -0.46574 15775.6 4627.48)" width="15.88" height="162.06"/>
   <rect class="fil4" transform="matrix(0.46574 -0.605945 -0.605945 -0.46574 15804.9 4602.91)" width="15.88" height="162.06"/>
   <rect class="fil4" transform="matrix(0.46574 -0.605945 -0.605945 -0.46574 15841.3 4585.22)" width="15.88" height="162.06"/>
   <rect class="fil4" transform="matrix(0.526623 -0.553852 -0.553852 -0.526623 15871.7 4568.77)" width="15.88" height="162.06"/>
   <rect class="fil4" transform="matrix(0.632786 -0.428563 -0.428563 -0.632786 15897.3 4554.83)" width="15.88" height="162.06"/>
   <rect class="fil4" transform="matrix(0.682973 -0.342974 -0.342974 -0.682973 15924 4542.62)" width="15.88" height="162.06"/>
   <rect class="fil4" transform="matrix(0.0958966 -0.758213 -0.758213 -0.0958966 15673.5 4791.78)" width="15.88" height="162.06"/>
   <rect class="fil4" transform="matrix(0.0958966 -0.758213 -0.758213 -0.0958966 15686.4 4755.8)" width="15.88" height="162.06"/>
   <rect class="fil4" transform="matrix(0.0958966 -0.758213 -0.758213 -0.0958966 15708.9 4722.11)" width="15.88" height="162.06"/>
   <rect class="fil4" transform="matrix(0.174755 -0.744006 -0.744006 -0.174755 15726.9 4692.55)" width="15.88" height="162.06"/>
   <rect class="fil4" transform="matrix(0.329663 -0.689497 -0.689497 -0.329663 15741.8 4667.64)" width="15.88" height="162.06"/>
   <rect class="fil4" transform="matrix(0.416209 -0.640979 -0.640979 -0.416209 15758.7 4643.61)" width="15.88" height="162.06"/>
   <path class="fil27" d="M16104 4399c-280,84 -445,361 -430,408 16,47 304,186 583,102 280,-84 439,-366 430,-408 -9,-42 -304,-186 -583,-102z"/>
   <path class="fil27" d="M16754 3580c697,0 1262,468 1267,1046 -142,-386 -2523,-394 -2534,0 5,-578 570,-1046 1267,-1046z"/>
   <path class="fil34" d="M16754 3572c350,0 667,118 898,308 231,191 375,454 377,746l0 44 -15 -41c-44,-120 -290,-190 -548,-231 -746,-118 -624,127 -712,-503 -67,546 32,412 -556,470 -85,8 -166,19 -240,32 -106,18 -199,41 -273,69 -117,43 -188,97 -190,162l-15 0 0 0 0 0c2,-292 146,-555 377,-746 230,-190 548,-308 898,-308l-1 -2z"/>
   <path class="fil5" d="M16094 4460c276,-84 573,28 587,70 15,42 -137,291 -413,375 -276,84 -570,-35 -587,-70 -17,-35 137,-291 413,-375z"/>
   <circle class="fil35" transform="matrix(0.756941 -0.167213 0.220708 0.682705 16164.8 4691.1)" r="312"/>
   <circle class="fil8" transform="matrix(0.596793 -0.131835 0.174012 0.538264 16162.4 4683.83)" r="312"/>
   <circle class="fil5" transform="matrix(0.23509 -0.0519328 0.0685471 0.212034 16362 4656.23)" r="312"/>
   <path class="fil5" d="M17461 4460c-276,-84 -573,28 -587,70 -14,42 137,291 413,375 276,84 570,-35 587,-70 17,-35 -137,-291 -413,-375z"/>
   <circle class="fil35" transform="matrix(-0.756941 -0.167213 -0.220708 0.682705 17390.6 4691.1)" r="312"/>
   <circle class="fil8" transform="matrix(-0.596793 -0.131835 -0.174012 0.538264 17392.9 4683.83)" r="312"/>
   <circle class="fil5" transform="matrix(-0.23509 -0.0519328 -0.0685471 0.212034 17197.4 4652.19)" r="312"/>
   <circle class="fil5" transform="matrix(-0.307985 -0.0680358 -0.0898018 0.27778 17559.3 4656.23)" r="312"/>
   <circle class="fil5" transform="matrix(-0.307985 -0.0680358 -0.0898018 0.27778 15992.2 4656.23)" r="312"/>
   <path class="fil21" d="M16568 10778c66,167 199,254 309,37 88,-173 39,-570 -168,-605 -117,-20 -244,310 -141,569l0 -1z"/>
   <path class="fil20" d="M16870 10356c-35,-77 -88,-134 -161,-147 -53,-9 -107,53 -142,147l303 0z"/>
   <ellipse class="fil4" cx="16709" cy="4949" rx="36" ry="10"/>
   <path class="fil10" d="M16709 4932c11,0 21,1 28,3 10,3 16,8 16,15 0,7 -6,12 -16,15 -7,2 -17,3 -28,3 -11,0 -21,-1 -28,-3 -10,-3 -16,-8 -16,-15 0,-7 6,-12 16,-15 7,-2 17,-3 28,-3zm23 18c-6,-2 -14,-2 -23,-2 -9,0 -17,1 -23,2 6,2 14,2 23,2 9,0 17,-1 23,-2zm6 0c0,-1 0,0 -1,0 1,0 1,1 1,0zm-58 0c0,1 0,0 1,0 -1,0 -1,-1 -1,0z"/>
   <ellipse class="fil4" cx="16852" cy="4945" rx="36" ry="10"/>
   <path class="fil10" d="M16852 4928c11,0 21,1 28,3 10,3 16,8 16,15 0,7 -6,12 -16,15 -7,2 -17,3 -28,3 -11,0 -21,-1 -28,-3 -10,-3 -16,-8 -16,-15 0,-7 6,-12 16,-15 7,-2 17,-3 28,-3zm23 18c-6,-2 -14,-2 -23,-2 -9,0 -17,1 -23,2 6,2 14,2 23,2 9,0 17,-1 23,-2zm6 0c0,-1 0,0 -1,0 1,0 1,1 1,0zm-58 0c0,1 0,0 1,0 -1,0 -1,-1 -1,0z"/>
   <path class="fil27" d="M17399 7101c-34,-88 -85,-173 -146,-243l-676 0c-61,69 -112,155 -146,243l967 0 1 0z"/>
   <path class="fil3" d="M16354 5989c27,53 57,128 101,213 168,328 182,664 397,312 92,-150 147,-293 127,-409 -26,-148 50,-286 118,-74 -7,7 -10,-52 0,-91 11,-43 51,-64 64,35 8,62 -50,164 10,18 9,-22 44,-91 60,-30 17,63 -105,236 -6,91 82,-120 86,-2 7,112 -57,83 -96,162 -127,236 -56,136 -244,666 -430,622 -79,-19 -157,-117 -203,-181 -112,-155 -392,-734 -209,-924 21,-22 51,-10 91,70z"/>
   <path class="fil9 str7" d="M16839 5293c96,27 251,139 267,-105"/>
   <circle class="fil5" cx="6323" cy="4901" r="37"/>
   <ellipse class="fil11" cx="4901" cy="5474" rx="97" ry="91"/>
   <ellipse class="fil11" cx="6648" cy="5474" rx="97" ry="91"/>
   <path class="fil13" d="M6127 9139l198 0c39,0 70,16 70,35l0 6c0,19 -31,35 -70,35l-199 0c-39,0 -70,-16 -70,-35l0 -6c0,-19 31,-35 70,-35z"/>
   <path class="fil13" d="M5597 9139l207 0c40,0 73,16 73,35l0 6c0,19 -33,35 -73,35l-207 0c-40,0 -73,-16 -73,-35l0 -6c0,-19 33,-35 73,-35z"/>
   <path class="fil9" d="M6940 6033c10,293 -317,327 -376,560"/>
   <path class="fil12" d="M6949 6071c-1,10 -2,19 -3,29 -19,127 -107,199 -194,271 -77,63 -153,126 -178,225l-19 -5c27,-105 106,-170 185,-236 90,-74 181,-150 191,-286 1,-12 2,-56 1,-69 1,0 5,13 9,26 6,19 10,24 8,44l0 1z"/>
   <path class="fil12" d="M6897 6399c20,113 -45,173 -127,247 -63,58 -136,124 -182,231l-14 -6c47,-111 121,-178 186,-237 75,-68 136,-124 123,-222 -2,-17 -4,-87 -4,-87 0,-2 13,46 18,73l0 1z"/>
   <circle class="fil5" transform="matrix(0.23509 -0.0519328 0.0685471 0.212034 9726.06 4739.13)" r="312"/>
   <path class="fil9" d="M9335 5371c228,-135 298,-147 501,-32"/>
   <path class="fil10" d="M9343 5385c-8,5 -18,2 -22,-6 -5,-8 -2,-18 6,-22 116,-69 192,-106 267,-112 75,-6 146,21 251,79 8,4 11,14 6,22 -4,8 -14,11 -22,6 -99,-56 -165,-81 -232,-75 -68,5 -141,41 -253,108l-1 0z"/>
   <path class="fil14" d="M9973 3823c106,329 432,480 767,356 262,-97 327,234 40,75 -21,-12 -173,-37 -14,12 178,55 -116,305 -168,30 -4,-20 24,-52 21,-71"/>
   <path class="fil36" d="M10005 3870c61,132 152,233 271,288 126,59 277,68 431,18 9,-3 19,-6 29,-10 96,-35 167,-16 207,17 24,19 37,44 38,66 1,25 -11,46 -37,56 -25,9 -64,7 -118,-15 12,17 13,38 7,58 -6,20 -20,39 -38,55 -18,15 -41,27 -64,31 -58,11 -122,-18 -145,-135 -3,-15 4,-30 12,-45 5,-10 10,-21 9,-26 -122,19 -240,2 -342,-45 -127,-59 -230,-166 -288,-311 -20,-50 -30,-106 -47,-157 8,25 50,104 75,156l0 -1zm710 331c-32,10 -64,18 -95,23l12 -2c2,13 -5,27 -11,41 -5,11 -11,23 -10,30 19,98 69,123 114,115 19,-4 38,-13 52,-26 15,-12 26,-27 30,-42 7,-24 -3,-49 -45,-62 -40,-13 -62,-21 -70,-25 -24,-13 -21,-22 0,-28 4,-1 11,-1 19,0 23,2 64,12 75,18 74,41 122,48 148,39 15,-5 21,-17 20,-30 -1,-15 -11,-33 -29,-48 -34,-28 -97,-44 -182,-13 -10,4 -20,7 -30,10l2 0z"/>
   <path class="fil14" d="M10099 3367c-174,79 61,826 559,826"/>
   <path class="fil14" d="M10325 3363c-127,301 183,755 489,859"/>
   <path class="fil17" d="M7860 4056c-39,-128 4,-310 98,-432 262,-342 785,-307 692,58 -25,99 -68,234 -201,380 -68,74 -151,106 -214,131 -139,55 -322,36 -375,-137z"/>
   <path class="fil9" d="M8078 3504c59,154 -79,379 -225,523"/>
   <path class="fil18" d="M8499 3398c9,3 18,5 27,9 5,12 10,26 12,41 11,60 2,144 -27,234 -28,89 -75,185 -140,269 -95,125 -227,226 -391,247 -10,-5 -21,-10 -30,-16 171,-12 308,-114 405,-243 63,-83 109,-176 137,-263 28,-87 37,-167 26,-224 -4,-21 -11,-40 -20,-53l1 -1z"/>
   <path class="fil18" d="M8257 3411c6,-2 12,-4 19,-6 39,143 -6,312 -95,461 -68,113 -162,216 -264,287 -4,-5 -9,-9 -13,-14 100,-69 193,-170 260,-282 87,-145 131,-308 93,-445l0 -1z"/>
   <path class="fil18" d="M7855 4039c-2,-7 -3,-15 -5,-23 54,-54 107,-120 149,-189 66,-109 103,-226 70,-317 5,-4 11,-8 16,-12 39,98 0,223 -70,339 -45,74 -102,144 -161,201l1 1z"/>
   <path class="fil9" d="M8602 3823c-106,329 -432,480 -767,356 -262,-97 -327,234 -40,75 21,-12 173,-37 14,12 -178,55 116,305 168,30 4,-20 -23,-52 -21,-71"/>
   <path class="fil36" d="M8571 3870c-61,132 -153,233 -271,288 -126,59 -277,68 -431,18 -9,-3 -19,-6 -29,-10 -96,-35 -167,-16 -207,17 -24,19 -37,44 -38,66 -1,25 11,46 37,56 25,9 64,7 118,-15 -12,17 -13,38 -7,58 6,20 20,39 38,55 18,15 41,27 64,31 58,11 122,-18 145,-135 3,-15 -4,-30 -12,-45 -5,-10 -10,-21 -9,-26 122,19 240,2 342,-45 127,-59 230,-166 288,-311 20,-50 30,-106 47,-157 -8,25 -50,104 -75,156l0 -1zm-710 331c32,10 64,18 95,23l-12 -2c-2,13 5,27 11,41 5,11 11,23 10,30 -19,98 -69,123 -114,115 -19,-4 -38,-13 -52,-26 -15,-12 -26,-27 -30,-42 -7,-24 3,-49 45,-62 40,-13 62,-21 70,-25 24,-13 21,-22 0,-28 -4,-1 -11,-1 -19,0 -23,2 -64,12 -75,18 -74,41 -122,48 -148,39 -15,-5 -21,-17 -20,-30 1,-15 11,-33 29,-48 34,-28 97,-44 182,-13 10,4 20,7 30,10l-2 0z"/>
   <path class="fil14" d="M8476 3367c174,79 -61,826 -559,826"/>
   <path class="fil14" d="M8250 3363c127,301 -183,755 -489,859"/>
   <path class="fil37" d="M12838 5486c11,0 21,1 28,3 10,3 16,8 16,15 0,7 -6,12 -16,15 -7,2 -17,3 -28,3 -11,0 -21,-1 -28,-3 -10,-3 -16,-8 -16,-15 0,-7 6,-12 16,-15 7,-2 17,-3 28,-3zm23 18c-6,-2 -14,-2 -23,-2 -9,0 -17,1 -23,2 6,2 14,2 23,2 9,0 17,-1 23,-2zm6 0c0,-1 0,0 -1,0 1,0 1,1 1,0zm-58 0c0,1 0,0 1,0 -1,0 -1,-1 -1,0z"/>
   <path class="fil37" d="M12982 5482c11,0 21,1 28,3 10,3 16,8 16,15 0,7 -6,12 -16,14 -7,2 -17,3 -28,3 -11,0 -21,-1 -28,-3 -10,-3 -16,-8 -16,-14 0,-7 6,-12 16,-15 7,-2 17,-3 28,-3zm23 18c-6,-2 -14,-2 -23,-2 -9,0 -17,1 -23,2 6,2 14,2 23,2 9,0 17,-1 23,-2zm6 0c0,-1 0,0 -1,0 1,0 1,1 1,0zm-58 0c0,1 0,0 1,0 -1,0 -1,-1 -1,0z"/>
   <rect class="fil14" transform="matrix(0.685907 -0.337069 0.337069 0.685907 12910.7 5702.57)" width="307" height="130"/>
   <path class="fil14 str8" d="M13007 5755c-14,5 -118,40 -107,22"/>
   <path class="fil14 str8" d="M13104 5722c32,-20 61,-48 73,-85"/>
   <path class="fil34" d="M17930 4733c-68,95 26,449 160,539 322,217 561,-254 489,-183 -68,68 -260,152 -158,86 71,-46 184,-247 89,-132 -87,106 -341,35 -195,-230 45,-81 5,-188 -71,-230 -106,-58 -225,-57 -314,150z"/>
   <ellipse class="fil11" cx="15788" cy="5069" rx="97" ry="91"/>
   <path class="fil3" d="M17479 5973c27,53 57,128 101,213 168,328 182,664 397,312 59,-96 101,-190 121,-274 9,-37 19,-50 -31,-89 -52,-42 -25,-140 12,-80 8,12 42,53 46,6 3,-31 -26,-111 2,-143 23,-27 60,-7 93,98 -7,7 -10,-52 0,-91 11,-43 51,-64 64,35 8,62 -50,164 10,18 9,-22 44,-91 60,-30 17,63 -105,236 -6,91 82,-120 86,-2 7,112 -57,83 -96,162 -127,236 -56,136 -244,666 -430,622 -79,-19 -157,-117 -203,-181 -112,-155 -392,-734 -209,-924 21,-22 51,-10 91,70l2 -1z"/>
   <path class="fil29" d="M17295 3667c7,3 14,6 21,9 75,150 191,323 324,454 100,98 209,172 317,195 2,6 4,11 6,17 -114,-21 -229,-99 -333,-201 -139,-137 -260,-319 -335,-474z"/>
   <path class="fil12" d="M17192 3628c2,5 4,9 6,14 67,169 224,420 390,583 129,126 273,213 410,202l1 15c-143,12 -291,-77 -422,-206 -173,-170 -342,-443 -405,-614l20 6z"/>
   <path class="fil38" d="M15523 4491l-13 170 8 9c-139,-163 -209,-282 -347,-388 -537,-411 -2041,-116 -2031,-1134 9,-863 1815,-1621 2710,-1260 312,126 513,351 470,650 -28,194 -173,438 -477,741 -430,428 -271,591 -320,1212z"/>
   <path class="fil39" d="M15539 4489l20 204 11 115 2 115 -65 -38c-93,-109 72,-270 -346,-589 -189,-144 -501,-200 -825,-259 -593,-107 -1219,-220 -1213,-888 1,-87 19,-172 53,-256 125,-309 456,-589 860,-791 403,-201 879,-325 1294,-321 192,2 372,31 525,93 165,66 300,161 385,279 80,110 116,241 95,389 -15,102 -61,217 -145,347 -78,121 -189,255 -337,403 -311,310 -309,479 -306,790 1,113 3,245 -10,409l2 -2zm-38 119l5 -118c13,-163 11,-296 10,-409 -4,-320 -6,-494 315,-813 147,-146 256,-278 333,-397 81,-126 126,-237 140,-334 20,-139 -14,-262 -89,-365 -82,-113 -212,-203 -371,-268 -149,-60 -325,-89 -513,-91 -410,-4 -881,118 -1279,317 -398,199 -723,473 -845,774 -32,80 -50,162 -51,244 -6,641 606,752 1186,856 327,59 644,116 839,265 188,144 190,193 321,338l-1 1z"/>
   <path class="fil13 str9" d="M15085 2128c-65,-32 -98,6 -140,72m-23 36c-55,87 -131,203 -296,278 -108,48 306,-82 -46,102 -47,25 186,-22 17,83 -17,11 -8,23 18,32m680 -463c128,-7 291,-27 326,-256 -6,86 -305,16 -413,75m-153 323c101,110 -176,281 -318,297 -45,5 -86,14 -122,25 -64,20 -114,48 -153,81 -33,-97 -119,-297 -279,-60 -49,72 -67,343 -337,302 122,114 361,87 524,-26 4,25 12,48 25,70 8,212 -502,178 -349,304 129,106 357,-67 451,-211 18,9 38,17 60,23 9,3 18,5 27,8 -9,103 -84,253 -320,323 -272,81 -10,345 314,-33 60,-70 137,-166 172,-256 187,23 318,-25 449,-188 193,76 390,53 563,-109 141,-133 -279,21 -498,20 12,-18 23,-36 35,-56 5,-9 10,-18 14,-26 175,4 405,-8 283,-108 -11,-9 -142,28 -256,25 22,-152 -120,-202 198,-139 169,33 283,-321 -151,-369 -37,-4 -67,-17 -91,-36 -51,-41 -76,-110 -88,-182 -24,-148 9,-309 -13,-269 -34,62 -69,199 -99,308 -24,89 -46,158 -61,153 -1,0 -55,-57 -90,-77 -23,-13 -38,-11 -23,36 7,20 19,49 40,89 11,21 85,75 93,84l0 -3z"/>
   <path class="fil34" d="M15608 4733c68,95 -26,449 -160,539 -322,217 -561,-254 -489,-183 68,68 260,152 158,86 -71,-46 -184,-247 -89,-132 87,106 341,35 195,-230 -45,-81 -5,-188 71,-230 106,-58 225,-57 314,150z"/>
   <path class="fil9" d="M17951 4988c0,-321 138,-336 104,-501 -48,-237 189,-395 43,-41 -7,18 44,-90 92,-140 24,-25 48,-35 64,-9 50,83 -189,304 -238,379"/>
   <path class="fil40" d="M17935 5010c0,-17 -1,-58 0,-73 6,-135 39,-210 67,-269l0 0 0 0 5 -11c26,-55 46,-97 32,-169 -20,-100 8,-186 39,-230 14,-19 28,-31 41,-33l0 0c18,-3 31,6 35,31 3,16 1,42 -9,79 10,-15 21,-28 32,-39 14,-14 28,-24 42,-27 17,-4 31,2 43,21 42,69 -80,207 -168,308 -30,34 -56,64 -70,84 -26,54 -55,123 -63,241 -2,27 -16,65 -27,89l1 -2zm129 -528c9,46 6,80 -3,113l14 -16c83,-94 197,-224 165,-277 -5,-8 -10,-10 -15,-9 -8,2 -18,9 -29,20 -36,37 -73,107 -86,131 -6,12 -10,19 -21,14 -8,-3 -10,-9 -6,-19 40,-97 51,-153 46,-179 -1,-7 -3,-10 -5,-10l0 0c-7,1 -16,9 -25,23 -28,39 -54,118 -35,210l0 -1z"/>
   <path class="fil40" d="M15601 5010c0,-17 1,-58 0,-73 -6,-135 -39,-210 -67,-269l0 0 0 0 -5 -11c-26,-55 -46,-97 -32,-169 20,-100 -8,-186 -39,-230 -14,-19 -28,-31 -41,-33l0 0c-18,-3 -31,6 -35,31 -3,16 -1,42 9,79 -10,-15 -21,-28 -32,-39 -14,-14 -28,-24 -42,-27 -17,-4 -31,2 -43,21 -42,69 80,207 168,308 30,34 56,64 70,84 26,54 55,123 63,241 2,27 16,65 27,89l-1 -2zm-129 -528c-9,46 -6,80 3,113l-14 -16c-83,-94 -197,-224 -165,-277 5,-8 10,-10 15,-9 8,2 18,9 29,20 36,37 73,107 86,131 6,12 10,19 21,14 8,-3 10,-9 6,-19 -40,-97 -51,-153 -46,-179 1,-7 3,-10 5,-10l0 0c7,1 16,9 25,23 28,39 54,118 35,210l0 -1z"/>
   <ellipse class="fil11" cx="17672" cy="5069" rx="97" ry="91"/>
   <path class="fil20" d="M15039 2278l28 -33c6,-73 54,-234 85,-308 52,-125 47,-72 42,38 -4,103 5,232 83,297 17,14 30,14 23,23 -42,-17 -103,-30 -157,-26 -55,5 -77,11 -109,21 -1,-4 1,-8 5,-12z"/>
   <path class="fil38 str10" d="M11434 2458c-707,-231 -10,-884 -10,-219 0,4 92,-342 224,-263 151,91 -127,510 -214,482z"/>
   <path class="fil11" d="M13913 3064c229,17 235,-401 416,-411 40,-2 68,34 86,65 59,99 9,282 -141,348 -91,40 -349,78 -361,-2z"/>
   <path class="fil41 str11" d="M14619 2715c-32,-28 34,-54 46,-65 12,-11 -8,-7 -25,-43 -5,-10 76,-48 89,-80 8,-18 -51,-24 -37,-42 29,-36 99,-78 117,-90 32,-22 129,-200 202,-260 36,-30 84,-19 96,35 22,107 11,267 -69,352 -62,66 -136,115 -215,143 -68,24 -140,29 -204,49l0 1z"/>
   <circle class="fil5" transform="matrix(-0.502494 -0.068301 -0.107171 0.456972 15290.5 2464.57)" r="312"/>
   <path class="fil11" d="M15229 2121c3,29 19,64 33,91 8,15 17,27 26,31 60,28 134,0 190,-29 26,-14 71,-50 96,-94 21,-37 29,-71 3,-58 -12,6 -89,13 -154,13 -5,0 -110,4 -152,5 -32,1 -48,-11 -42,41z"/>
   <circle class="fil35" transform="matrix(-0.428127 -0.0581928 -0.0913101 0.389342 15290.9 2469.88)" r="312"/>
   <circle class="fil0" transform="matrix(-0.337547 -0.0458808 -0.0719914 0.306968 15291.9 2465.73)" r="312"/>
   <circle class="fil5" transform="matrix(-0.132967 -0.0180734 -0.028359 0.120921 15181.8 2457.12)" r="312"/>
   <circle class="fil5" transform="matrix(-0.174197 -0.0236776 -0.0371524 0.158416 15364.5 2495.02)" r="312"/>
   <path class="fil38 str10" d="M4550 2725c-493,-161 -7,-617 -7,-153 0,3 65,-238 156,-183 106,63 -89,356 -149,336z"/>
   <path class="fil38 str10" d="M18653 3570c-707,-231 -10,-884 -10,-219 0,4 93,-342 224,-263 151,91 -127,510 -214,482z"/>
   <path class="fil9 str12" d="M18717 9437c685,-224 10,-858 10,-212 0,4 -90,-331 -217,-255 -147,88 123,495 208,467l-1 0z"/>
   <path class="fil9 str12" d="M6908 3290c685,-224 10,-858 10,-212 0,4 -90,-332 -217,-255 -147,88 123,495 208,467l-1 0z"/>
   <path class="fil9 str12" d="M15279 6990c685,-224 10,-858 10,-212 0,4 -90,-331 -217,-255 -147,88 123,495 208,467l-1 0z"/>
   <path class="fil10" d="M14923 5531c11,0 21,1 28,3 10,3 16,8 16,15 0,7 -6,12 -16,15 -7,2 -17,3 -28,3 -11,0 -21,-1 -28,-3 -10,-3 -16,-8 -16,-15 0,-7 6,-12 16,-15 7,-2 17,-3 28,-3zm23 18c-6,-2 -14,-2 -23,-2 -9,0 -17,1 -23,2 6,2 14,2 23,2 9,0 17,-1 23,-2zm6 0c0,-1 0,0 -1,0 1,0 1,1 1,0zm-58 0c0,1 0,0 1,0 -1,0 -1,-1 -1,0z"/>
  </g>
 </g>
</svg>
