<?xml version="1.0" encoding="UTF-8"?>
<!DOCTYPE svg PUBLIC "-//W3C//DTD SVG 1.1//EN" "http://www.w3.org/Graphics/SVG/1.1/DTD/svg11.dtd">
<!-- Creator: CorelDRAW X6 -->
<svg xmlns="http://www.w3.org/2000/svg" xml:space="preserve" width="225.213mm" height="134.959mm" version="1.1" style="shape-rendering:geometricPrecision; text-rendering:geometricPrecision; image-rendering:optimizeQuality; fill-rule:evenodd; clip-rule:evenodd"
viewBox="0 0 22521 13496"
 xmlns:xlink="http://www.w3.org/1999/xlink">
 <defs>
  <style type="text/css">
   <![CDATA[
    .str0 {stroke:#434547;stroke-width:7.62}
    .str1 {stroke:#6B7B7F;stroke-width:7.62}
    .fil12 {fill:none}
    .fil1 {fill:#3C4E66}
    .fil2 {fill:#41546E}
    .fil11 {fill:#434547}
    .fil0 {fill:#445975}
    .fil8 {fill:#6B7B7F}
    .fil15 {fill:#78646E}
    .fil13 {fill:#909B9F}
    .fil5 {fill:#99828E}
    .fil4 {fill:#BEAD9E}
    .fil10 {fill:#D2A2AB}
    .fil9 {fill:#E4D0BE}
    .fil7 {fill:#EEF4EA}
    .fil14 {fill:#F2F3ED}
    .fil3 {fill:white}
    .fil6 {fill:#6B7B7F;fill-rule:nonzero}
   ]]>
  </style>
 </defs>
 <g id="Слой_x0020_1">
  <metadata id="CorelCorpID_0Corel-Layer"/>
  <g id="_902766960">
   <rect class="fil0" x="-5" y="-2" width="22500" height="13500"/>
   <path class="fil1" d="M10975 5437c-7,5 -13,9 -19,14m-1007 -1224l-21 8c154,-18 675,92 1017,6 218,-55 -314,910 -288,844l0 0c9,-23 15,-48 17,-74l0 -5 0 -3c0,-3 0,-6 1,-9l0 0 0 0c0,-3 0,-7 0,-11 1,-67 -25,-152 49,-193 108,-59 208,-75 275,-35 216,129 33,304 -1,441 -78,308 195,10 -20,221l0 0 0 0 0 0c-3,3 -6,5 -8,8l0 0 0 0 -1 1 0 0 -1 1 0 0 -1 1 0 0 0 1 0 0 -1 1 0 0 -1 1 0 0 -1 1 0 0 -1 1 0 0 -1 1 0 0 -1 1 0 0 -1 1 0 0 0 1 0 1 0 1 0 1 0 1 0 1 0 0 0 1 0 0 0 1 0 0 0 1 0 0 0 1 0 0 0 1 0 0 0 1 0 0 0 1 0 0 0 1 0 1 0 0 0 1 0 0 0 0 0 1 0 0 0 1 0 0 0 1 0 2 0 1 0 1 0 0 0 1 0 1c0,2 1,5 1,7l0 1 0 0c0,1 1,1 1,1l0 0c2,3 6,5 11,5l0 0c4,0 9,-1 15,-4 5,-2 11,-6 18,-11 49,-35 26,-120 57,-138 114,-68 137,58 97,252 -123,601 2027,1344 2244,1222 171,-96 71,-591 135,-757 34,-140 235,-147 243,-360 13,-349 -196,-1824 -132,-2137 12,-57 199,1115 276,1691 30,224 127,497 176,637 51,147 -2,307 49,279 80,-44 96,-174 157,-65 197,350 79,1473 -33,1405 81,-25 122,-94 146,-61 48,66 -222,714 -280,795 -24,34 245,-252 249,-209 3,29 -80,163 -168,299 -651,1009 -1769,1223 -2572,1049 -172,-37 23,123 65,220 20,48 23,87 8,90 -58,12 -499,-157 -638,-204 -131,-44 -148,-82 -83,66 30,67 27,135 -2,172 -37,47 -530,-51 -985,-227 -424,-163 -610,-287 -936,-565 -60,-51 -90,-63 -90,-45 -1,30 102,335 92,559 -5,107 -1125,-1119 -1002,-2337 55,-543 87,-706 61,-706 -28,1 -92,126 -101,132 -97,56 129,-549 146,-583 285,-567 -21,-156 9,-234 40,-106 99,-270 177,-428 107,-218 231,-399 409,-614 175,-212 173,-143 105,-505 -23,-121 33,-247 119,-280 273,-104 735,318 948,354l-3 0z"/>
   <ellipse class="fil2" cx="11305" cy="9642" rx="2750" ry="363"/>
   <path class="fil3" d="M11496 5018c-6,4 -12,9 -18,13m-1420 -658l-20 7c144,-17 631,86 952,6 203,-51 300,-275 324,-336l0 0c8,-21 14,-45 16,-69l0 -5 0 -3c0,-3 0,-6 0,-9l0 0 0 0c0,-3 0,-7 0,-10 1,-63 -23,-143 46,-181 101,-56 195,-70 257,-32 202,121 31,285 -1,412 -73,288 67,648 -134,846l0 0 0 0 0 0c-3,3 -5,5 -8,8l0 0 0 0 -1 1 0 0 -1 1 0 0 -1 1 0 0 0 1 0 0 -1 1 0 0 -1 1 0 0 -1 1 0 0 -1 1 0 0 -1 1 0 0 -1 1 0 0 -1 1 0 0 0 1 0 0 0 1 0 1 0 0 0 1 0 0 0 1 0 0 0 1 0 0 0 1 0 0 0 1 0 0 0 1 0 0 0 1 0 0 0 1 0 0 0 1 0 1 0 0 0 1 0 0 0 0 0 1 0 0 0 1 0 0 0 1 0 2 0 0 0 1 0 0 0 1 0 0c0,2 1,4 1,6l0 1 0 0c0,0 1,1 1,1l0 0c2,3 5,5 10,5l0 0c4,0 8,-1 14,-4 5,-2 10,-5 16,-10 46,-33 24,-112 53,-129 106,-64 128,54 91,235 -115,563 1417,1743 1620,1629 160,-90 67,-553 126,-708 32,-131 220,-137 228,-337 12,-326 -20,-969 39,-1262 26,-125 2,85 22,176 -5,151 51,507 75,670 28,209 118,465 164,596 48,137 -2,287 46,261 75,-41 90,-163 147,-61 184,328 74,1378 -31,1314 76,-23 114,-88 137,-57 45,62 -208,668 -262,744 -22,31 229,-236 233,-196 3,27 -75,152 -157,280 -609,944 -1654,1144 -2406,981 -161,-35 22,115 60,206 19,45 21,81 8,84 -54,11 -467,-147 -597,-191 -122,-41 -138,-77 -77,62 28,63 26,126 -1,161 -34,44 -496,-48 -921,-212 -397,-153 -570,-268 -875,-529 -56,-48 -84,-59 -84,-42 -1,28 95,313 86,523 -4,100 -1052,-1047 -937,-2186 51,-508 81,-660 57,-660 -26,0 -86,118 -95,123 -91,53 121,-513 137,-545 267,-531 -20,-145 8,-219 37,-99 93,-253 165,-400 100,-204 216,-373 382,-574 164,-198 162,-134 98,-472 -21,-113 30,-231 112,-262 255,-97 687,297 886,332l0 1 -1 -1z"/>
   <path class="fil4" d="M9932 4363l-650 242c-136,0 -184,-439 -17,-502 242,-92 478,228 667,260z"/>
   <path class="fil5" d="M9466 4519c-32,-17 -51,-31 -63,-48 -95,-141 5,-252 203,-153 76,38 120,98 18,154 -11,6 -151,51 -159,47l1 0z"/>
   <path class="fil6" d="M10464 4360c-28,12 -58,25 -89,41 -10,5 -16,7 -26,11l0 0 -7 3 -83 -157 7 -3 0 0c7,-2 11,-4 18,-8 8,-4 102,-32 107,-24l73 137z"/>
   <path class="fil7" d="M10620 4337c-56,4 -103,-32 -107,-79 -3,-47 40,-88 95,-92 56,-4 177,59 180,106 3,47 -113,61 -169,65l1 0z"/>
   <path class="fil8" d="M10795 4288c35,-46 -221,-70 -193,25 13,43 159,21 193,-25z"/>
   <ellipse class="fil3" transform="matrix(-0.0894056 -0.14726 0.266446 -0.161766 10630.5 4239.96)" rx="98" ry="106"/>
   <path class="fil3" d="M13686 5737l-210 -460c110,-514 143,-1049 139,-1575 -1,-103 0,-148 24,-149 11,0 7,158 21,425 6,119 16,205 34,498 34,562 92,1253 25,1359 -9,14 -33,-114 -33,-98z"/>
   <path class="fil9" d="M12470 5371c-81,-56 15,-120 127,-38 29,21 -2,-19 -7,-22 -20,-22 -77,-90 -92,-141 -7,-24 -4,-44 15,-53 94,-43 126,111 138,111 1,-1 -76,-241 44,-223 46,7 47,152 60,104 2,-7 170,-158 52,91 -1,2 -2,4 -3,6 -38,291 288,453 481,345 274,-153 272,-1102 429,-346 82,394 1,799 -23,842l-296 1024 -4179 -86 -82 -2042c-105,-955 2135,-305 2142,-989 2,-147 161,-222 275,-196 86,20 164,107 90,250 -58,112 -77,165 -76,228 2,222 48,547 -138,718 -19,17 -23,68 28,31 44,-31 92,-61 120,-77 45,-26 79,6 44,178 -109,535 273,-69 350,-192 54,-85 137,-183 243,-178 121,6 174,55 141,109 -9,15 -39,8 -66,14 -52,10 -94,24 24,28 87,3 81,72 47,80 -49,11 -158,36 -51,38 108,2 71,69 30,81 -15,4 -32,4 -44,11 -8,5 75,8 56,46 -9,17 -23,21 -39,22 -87,4 -115,50 -177,118 -126,138 -244,341 -22,475 189,113 418,-17 479,-136 36,-70 -6,-147 -124,-229l4 -2z"/>
   <path class="fil4" d="M11438 4946c-3,3 -5,5 -8,8 -17,15 -22,57 13,40 -12,20 -35,46 -71,77 -51,44 -81,75 -167,93 -131,28 -269,-43 -276,-36 45,-5 135,0 170,-5 151,-25 182,-49 238,-97 54,-46 88,-80 102,-80l-1 0z"/>
   <path class="fil5" d="M8725 5269c-69,140 -122,286 -157,380 -26,70 246,-296 -8,208 -15,30 -216,568 -130,518 9,-5 65,-116 90,-117 23,0 -5,145 -54,627 -110,1082 689,2193 693,2098 13,-302 -259,-734 106,-353 369,384 1345,680 1552,637 51,-11 -65,-74 -105,-167 -58,-131 -43,-98 73,-59 123,42 669,169 720,158 13,-3 11,-37 -7,-80 -37,-86 -54,-120 98,-87 714,155 1706,-35 2285,-932 78,-121 152,-240 149,-266 -4,-38 -328,266 -307,236 51,-72 431,-699 389,-757 -22,-30 -132,28 -204,50 30,18 103,-174 158,-399 60,-242 99,-522 42,-617 -15,-25 -26,-24 -53,32 -147,311 -31,-57 -235,-423 -67,-120 -71,-170 -78,-166 -10,6 -14,110 -69,272 -170,507 -760,888 -1278,794 -82,-15 -126,-9 -66,85 29,45 -102,23 -285,-34 -1244,-388 -817,-636 -1478,-1123 -394,-290 -509,-78 -892,-52 -437,29 -724,-210 -310,-564 77,-65 170,-116 226,-166 74,-66 109,-108 -53,-174 -27,-11 -567,126 -184,-187 48,-39 -104,-49 -106,-47 -263,290 -394,416 -521,675l-1 0z"/>
   <path class="fil4" d="M11127 5702c-65,42 -116,117 -116,249 0,182 100,244 190,269 36,10 91,32 147,53 77,29 127,94 175,41 12,-13 9,-34 -38,-80 -100,-100 101,61 120,-35 6,-30 -52,-58 -73,-81 -23,-26 -26,-48 30,-21 108,53 212,-4 105,-69 -93,-57 -206,-117 -15,-53 59,20 111,-105 -36,-99 -99,4 -112,-118 40,-10 16,12 79,1 45,-63 -8,-16 -60,-30 -87,-45 -142,-77 -264,-197 -486,-56l-1 0z"/>
   <path class="fil4" d="M12217 5964c55,52 -113,167 34,57 51,-38 215,-46 62,69 -52,39 107,-24 138,55 22,56 -224,63 -81,56 1,0 138,45 -36,66 -49,6 -81,171 -29,257 31,51 38,95 29,133 -59,251 -639,181 -522,-150 41,-116 301,-643 405,-545l0 2z"/>
   <path class="fil10" d="M9542 5252c-147,134 -203,346 259,182 129,-46 109,-136 33,-186 -106,-70 -173,-104 -293,4l1 0z"/>
   <path class="fil11 str0" d="M11262 4045c11,-28 16,-58 17,-91 2,-147 161,-222 275,-196 86,20 164,107 90,250 -49,95 -70,147 -75,199 -56,39 -121,53 -180,32 -74,-27 -120,-103 -127,-194z"/>
   <path class="fil8 str1" d="M11421 3968c-33,76 -153,7 -44,-113 39,-43 98,-46 109,-12 6,19 4,34 -9,49 -29,35 -16,-17 -56,76z"/>
   <path class="fil7" d="M10656 4771c-70,-23 -111,-88 -91,-147 19,-59 91,-88 160,-66 70,23 186,157 167,216 -19,59 -167,20 -236,-3z"/>
   <path class="fil8" d="M10998 4778c105,-64 -383,-312 -401,-103 -8,94 298,166 401,103z"/>
   <path class="fil12" d="M10261 4915c39,8 63,128 214,185 6,2 8,4 15,7"/>
   <ellipse class="fil3" transform="matrix(-0.0374749 -0.222347 0.402304 -0.0678053 10715.5 4657.84)" rx="98" ry="106"/>
   <path class="fil6" d="M10664 4411c1,41 -30,75 -72,122 -63,70 -112,189 -138,376 -2,12 -3,17 -6,28l0 0 -2 7 -176 -20 2 -7 0 0c2,-7 3,-11 4,-19 29,-209 199,-322 268,-399 65,-51 91,-81 120,-87l0 -1z"/>
   <ellipse class="fil13" transform="matrix(-0.0374749 -0.222347 0.402304 -0.0678053 11422.8 4045.39)" rx="98" ry="106"/>
   <path class="fil12" d="M11434 4965c-150,107 -122,141 -346,178 -56,9 -96,22 -155,29"/>
   <path class="fil14" d="M12451 4864c8,-100 -223,-155 -181,-75 12,22 74,-13 136,22 25,14 38,27 45,53z"/>
   <path class="fil14" d="M12474 4993c8,-100 -223,-155 -181,-75 12,22 74,-13 136,22 25,14 38,27 45,53z"/>
   <path class="fil14" d="M12441 4981c5,59 -131,91 -106,44 7,-13 44,8 80,-13 15,-8 22,-16 26,-31z"/>
   <path class="fil14" d="M12428 5069c5,59 -131,91 -106,44 7,-13 44,8 80,-13 15,-8 22,-16 26,-31z"/>
   <path class="fil3" d="M11783 5964c52,-86 -130,-238 -128,-148 1,25 72,21 112,80 16,24 22,41 16,68z"/>
   <path class="fil3" d="M11856 5952c-51,87 -271,0 -191,-41 22,-11 53,53 124,60 29,3 46,-1 67,-18l0 -1z"/>
   <path class="fil3" d="M11839 6095c-51,87 -271,0 -191,-41 22,-11 53,53 124,60 29,3 46,-1 67,-18l0 -1z"/>
   <path class="fil3" d="M11706 6217c-39,64 -203,-4 -142,-34 17,-8 39,40 92,47 21,2 35,0 50,-13z"/>
   <path class="fil14" d="M11634 6314c-39,64 -203,-4 -142,-34 17,-8 39,40 92,47 21,2 35,0 50,-13z"/>
   <path class="fil14" d="M12857 4924c81,60 -30,270 -63,185 -9,-23 59,-47 73,-117 6,-28 5,-46 -11,-69l1 1z"/>
   <path class="fil14" d="M12617 4880c101,-1 139,233 62,186 -21,-13 19,-73 -12,-137 -12,-26 -24,-39 -50,-48l0 -1z"/>
   <path class="fil14" d="M12440 5064c62,-35 165,95 102,92 -18,-1 -14,-51 -54,-80 -16,-12 -28,-16 -47,-12l-1 0z"/>
   <path class="fil14" d="M12362 5330c29,-65 190,-20 137,15 -15,10 -41,-33 -91,-33 -20,0 -32,4 -46,18z"/>
   <path class="fil3" d="M12372 5959c-51,-87 -271,1 -191,43 22,11 53,-53 124,-61 29,-3 46,0 67,18z"/>
   <path class="fil3" d="M12519 6057c-26,-97 -262,-72 -195,-11 18,17 65,-37 136,-25 28,5 44,13 60,36l-1 0z"/>
   <path class="fil3" d="M12583 6223c3,-101 -230,-144 -184,-66 13,21 73,-17 137,15 26,13 39,25 47,51z"/>
   <path class="fil14" d="M12528 6335c19,-87 -176,-162 -148,-87 8,21 66,-3 116,35 20,15 30,28 32,52z"/>
   <path class="fil15" d="M11564 7982c-75,100 -160,158 -261,120 -136,-52 -399,102 -148,307 32,26 47,62 50,103 -70,58 -804,36 -952,-13 -602,-201 -1340,-531 -1004,-1328 294,-697 1069,-434 1458,16 245,282 477,535 805,722 30,17 46,43 52,74l0 -1z"/>
   <path class="fil5" d="M11303 8102l-1 0c-22,-8 -47,-11 -73,-10 2,-30 4,-58 6,-84 -14,31 -28,61 -41,89 -40,9 -79,29 -107,57 36,-78 78,-169 125,-274 25,-55 41,-103 51,-138 22,17 45,34 68,50 -9,65 -19,165 -28,310zm-253 132c-2,29 7,61 29,96 -50,96 -92,167 -127,216 -21,1 -43,1 -66,1 30,-42 81,-139 164,-313zm-198 313c-22,0 -44,0 -66,-1 -11,-86 -1,-221 10,-375 11,-154 24,-328 22,-481 -2,-158 -3,-284 -4,-381 23,26 47,52 70,77 3,86 6,187 8,303 2,155 -11,331 -22,488 -13,170 -23,314 -18,370zm-247 -6c-25,-1 -49,-3 -73,-4 11,-80 22,-171 32,-261 15,-133 31,-267 51,-374 30,-157 56,-339 79,-499 10,-70 20,-137 30,-196 20,23 41,47 61,70 -5,43 -10,89 -17,137 -23,160 -50,343 -80,502 -20,107 -35,238 -50,368 -10,88 -20,176 -32,257l-1 0zm-278 -25c-30,-5 -55,-10 -72,-15 -1,-238 43,-621 84,-971 28,-239 54,-461 66,-603 22,14 43,28 64,44 -8,152 -32,354 -57,568 -42,360 -88,754 -85,977zm-116 -30c-25,-9 -51,-17 -76,-27 -7,-81 -14,-157 -22,-229 -15,-148 -29,-281 -28,-422 -11,244 -17,464 -9,630 -25,-9 -50,-19 -74,-28 -10,-250 8,-598 28,-963 12,-225 24,-456 31,-674 24,6 49,14 73,22 -6,213 -18,438 -30,656 -3,59 -6,118 -9,176 17,-172 59,-365 147,-609 21,-59 41,-110 60,-151 21,11 41,22 61,34 -14,38 -31,85 -51,142 -190,527 -162,808 -124,1179 8,82 17,169 24,263l-1 1zm-272 -102c-24,-10 -48,-20 -72,-31 9,-170 3,-395 -25,-685 -18,-191 -84,-318 -148,-441 -64,-123 -126,-243 -142,-415 24,-13 48,-24 73,-33 11,175 72,292 135,413 67,130 136,263 156,468 30,307 34,544 23,722l0 2zm-268 -129c-23,-13 -46,-26 -68,-40 122,-643 30,-988 -85,-1146 -30,-42 -62,-70 -91,-86 -24,-13 -45,-18 -60,-16 19,-24 39,-45 60,-65 12,4 24,10 37,17 37,21 77,56 115,107 126,172 226,544 93,1229l-1 0zm-257 -181c-28,-26 -55,-53 -79,-81 -7,-80 -17,-170 -28,-264 -23,-198 -47,-413 -45,-590 25,-54 53,-102 84,-143 -27,186 6,469 35,725 15,129 29,252 34,354l-1 -1z"/>
   <ellipse class="fil3" transform="matrix(-0.0645866 -0.383207 0.693357 -0.11686 10676.7 4600.45)" rx="98" ry="106"/>
  </g>
 </g>
</svg>
