<?xml version="1.0" encoding="UTF-8"?>
<!DOCTYPE svg PUBLIC "-//W3C//DTD SVG 1.1//EN" "http://www.w3.org/Graphics/SVG/1.1/DTD/svg11.dtd">
<!-- Creator: CorelDRAW X6 -->
<svg xmlns="http://www.w3.org/2000/svg" xml:space="preserve" width="225.213mm" height="134.959mm" version="1.1" style="shape-rendering:geometricPrecision; text-rendering:geometricPrecision; image-rendering:optimizeQuality; fill-rule:evenodd; clip-rule:evenodd"
viewBox="0 0 22521 13496"
 xmlns:xlink="http://www.w3.org/1999/xlink">
 <defs>
  <style type="text/css">
   <![CDATA[
    .fil38 {fill:none}
    .fil12 {fill:none;fill-rule:nonzero}
    .fil19 {fill:#081C25}
    .fil31 {fill:#0A1828}
    .fil7 {fill:#0C2228}
    .fil59 {fill:#0D0503}
    .fil48 {fill:#29062F}
    .fil37 {fill:#2B000B}
    .fil22 {fill:#2C1A09}
    .fil0 {fill:#3C4167}
    .fil34 {fill:#46A6A5}
    .fil33 {fill:#51979B}
    .fil24 {fill:#520B0A}
    .fil53 {fill:#5CD5D3}
    .fil55 {fill:#5E6966}
    .fil5 {fill:#60166F}
    .fil18 {fill:#61A0AB}
    .fil43 {fill:#647C0A}
    .fil50 {fill:#677B18}
    .fil57 {fill:#7D9091}
    .fil35 {fill:#8FC8D1}
    .fil1 {fill:#915280}
    .fil56 {fill:#92ACAD}
    .fil44 {fill:#93ADAE}
    .fil30 {fill:#9BB21E}
    .fil45 {fill:#9DB225}
    .fil42 {fill:#9E96A3}
    .fil3 {fill:#A15C8F}
    .fil41 {fill:#ACE0DC}
    .fil40 {fill:#AED0B8}
    .fil6 {fill:#B27EBD}
    .fil20 {fill:#BB3C93}
    .fil49 {fill:#BD6666}
    .fil36 {fill:#C34912}
    .fil47 {fill:#C9C741}
    .fil23 {fill:#E0E6ED}
    .fil51 {fill:#E2E4DF}
    .fil46 {fill:#E6E340}
    .fil4 {fill:#E7ECEF}
    .fil15 {fill:#ED5052}
    .fil10 {fill:#EE76BE}
    .fil16 {fill:#EF4957}
    .fil29 {fill:#EF790D}
    .fil25 {fill:#F0F8ED}
    .fil58 {fill:#F3101C}
    .fil9 {fill:#F4F8F9}
    .fil28 {fill:#F5951A}
    .fil32 {fill:#FB6F0D}
    .fil17 {fill:#FBB8C1}
    .fil52 {fill:#FC7F80}
    .fil54 {fill:#FCA4A4}
    .fil27 {fill:#FCB040}
    .fil21 {fill:#FE6300}
    .fil14 {fill:#FE8081}
    .fil8 {fill:black;fill-rule:nonzero}
    .fil39 {fill:#2B7D92;fill-rule:nonzero}
    .fil13 {fill:#603481;fill-rule:nonzero}
    .fil2 {fill:#915280;fill-rule:nonzero}
    .fil11 {fill:#BB3C93;fill-rule:nonzero}
    .fil26 {fill:#F0F8ED;fill-rule:nonzero}
   ]]>
  </style>
 </defs>
 <g id="Слой_x0020_1">
  <metadata id="CorelCorpID_0Corel-Layer"/>
  <g id="_909881600">
   <rect class="fil0" x="-2" y="-6" width="22500" height="13500"/>
   <path class="fil1" d="M7105 8415l91 23c-204,64 -416,127 -333,447 40,156 59,288 -18,432 -137,255 350,451 230,-143 -33,-164 -19,-383 122,-468 160,-96 182,-291 -92,-291z"/>
   <path class="fil2" d="M7161 8439l-58 -14 -75 -19 77 0c80,0 136,16 171,42 25,18 40,41 46,66 6,25 3,51 -8,79 -18,45 -57,89 -111,122 -61,37 -98,100 -117,172 -24,91 -20,197 -2,286 40,194 15,306 -32,360 -30,34 -69,47 -106,41 -37,-6 -73,-28 -99,-61 -37,-48 -51,-122 -9,-199 38,-70 52,-139 51,-208 0,-69 -15,-141 -35,-218 -80,-312 110,-386 308,-449l0 2 -1 -2zm59 2l-21 7 -5 1c-199,62 -403,125 -323,435 20,79 35,151 35,223 0,72 -14,142 -54,217 -38,70 -26,136 8,179 22,29 54,48 86,53 31,5 65,-6 90,-34 44,-50 66,-157 28,-344 -19,-92 -23,-201 2,-294 20,-77 60,-143 125,-183 51,-30 87,-72 104,-113 10,-23 12,-47 7,-67 -5,-21 -17,-40 -38,-55 -12,-9 -27,-16 -45,-23l0 -1 1 -1z"/>
   <path class="fil1" d="M7464 8578l91 23c-204,64 -416,127 -333,447 40,156 59,288 -18,432 -137,255 350,451 230,-143 -33,-164 -19,-383 122,-468 160,-96 182,-291 -92,-291z"/>
   <path class="fil2" d="M7520 8602l-58 -14 -75 -19 77 0c80,0 136,16 171,42 25,18 40,41 46,66 6,25 3,51 -8,79 -18,45 -57,89 -111,122 -61,37 -98,100 -117,172 -24,91 -20,197 -2,286 40,194 15,306 -32,360 -30,34 -69,47 -106,41 -37,-6 -73,-28 -99,-61 -37,-48 -51,-122 -10,-199 38,-70 52,-139 51,-208 0,-69 -15,-141 -35,-218 -80,-312 110,-386 308,-449l0 2 0 -2zm59 2l-21 7 -5 1c-199,62 -403,125 -323,435 20,79 35,151 35,223 0,72 -14,142 -54,217 -38,70 -26,136 8,179 22,29 54,48 86,53 31,5 65,-6 90,-34 44,-50 66,-157 28,-344 -19,-92 -23,-201 2,-294 20,-77 60,-143 125,-183 51,-30 87,-72 104,-113 9,-23 12,-47 7,-67 -5,-21 -17,-40 -38,-55 -12,-9 -27,-16 -45,-23l0 -1 1 -1z"/>
   <path class="fil1" d="M7918 8627l106 27c-238,74 -485,148 -389,522 47,181 69,336 -21,504 -160,298 409,526 268,-167 -39,-192 -23,-446 143,-546 186,-112 213,-339 -107,-339l0 -1z"/>
   <path class="fil2" d="M7989 8654l-73 -18 -75 -19 77 0c93,0 158,19 198,48 28,21 46,47 52,76 7,28 3,60 -9,90 -21,52 -66,104 -129,141 -71,44 -115,117 -137,201 -28,106 -24,230 -2,334 46,226 17,356 -38,419 -34,40 -80,53 -123,47 -43,-7 -85,-31 -114,-70 -43,-57 -59,-141 -10,-231 44,-83 61,-162 61,-243 0,-82 -17,-165 -41,-254 -94,-366 131,-450 364,-523l0 2 -1 0zm63 0l-25 8 -5 2c-233,72 -471,147 -378,509 24,91 41,176 41,259 0,84 -17,166 -63,252 -45,83 -30,160 10,211 27,34 64,57 102,63 38,6 76,-6 106,-41 51,-59 78,-184 33,-403 -22,-107 -27,-234 2,-343 24,-89 69,-167 145,-214 60,-36 103,-85 122,-132 10,-28 14,-54 9,-80 -6,-25 -20,-47 -45,-66 -14,-10 -32,-20 -53,-27l-1 1 0 1z"/>
   <path class="fil1" d="M9444 8404l-91 23c204,64 416,127 333,447 -40,156 -59,288 18,432 137,255 -350,451 -230,-143 33,-164 19,-383 -122,-468 -160,-96 -182,-291 92,-291z"/>
   <path class="fil2" d="M9446 8413l-58 14c198,63 388,137 308,449 -20,77 -34,148 -35,218 0,69 14,137 51,208 42,78 28,151 -9,199 -26,33 -62,55 -99,61 -38,6 -77,-6 -106,-41 -47,-54 -72,-166 -32,-360 18,-89 22,-196 -2,-286 -19,-72 -56,-135 -117,-172 -54,-33 -94,-77 -111,-122 -10,-27 -13,-53 -8,-79 6,-25 21,-47 46,-66 35,-26 91,-42 171,-42l77 0 -75 19 0 -2 -1 2zm-96 23l-21 -7c-18,6 -33,13 -45,23 -21,15 -33,34 -38,55 -5,21 -2,44 7,67 16,41 53,82 104,113 66,40 105,106 125,183 25,94 21,203 2,294 -38,187 -15,293 28,344 26,29 58,39 90,34 32,-5 64,-24 86,-53 33,-44 46,-109 8,-179 -39,-74 -54,-144 -54,-216 0,-71 15,-144 35,-223 80,-310 -124,-373 -323,-435l-5 -1 0 1 1 0z"/>
   <path class="fil1" d="M9083 8567l-91 23c204,64 416,127 333,447 -40,156 -59,288 18,432 137,255 -350,451 -230,-143 33,-164 19,-383 -122,-468 -160,-96 -182,-291 92,-291z"/>
   <path class="fil2" d="M9086 8576l-58 14c198,63 388,137 308,449 -20,77 -34,148 -35,218 0,69 14,137 51,208 42,78 28,151 -10,199 -26,33 -62,55 -99,61 -38,6 -77,-6 -106,-41l0 0c-47,-54 -72,-166 -32,-360 18,-89 22,-196 -2,-286 -19,-72 -56,-135 -117,-172 -54,-33 -94,-77 -111,-122 -10,-27 -13,-53 -8,-79 6,-25 21,-47 46,-66 35,-26 91,-42 171,-42l77 0 -75 19 0 -2 0 2zm-96 23l-21 -7c-18,6 -33,13 -45,23 -21,15 -33,34 -38,55 -5,21 -2,44 7,67 16,41 53,82 103,113 66,40 105,106 125,183 25,94 21,203 2,294 -38,187 -15,293 28,344l0 0c26,29 58,39 90,34 32,-5 64,-24 86,-53 33,-44 46,-109 8,-179 -39,-74 -54,-144 -54,-216 0,-71 15,-144 35,-223 80,-310 -124,-373 -323,-435l-5 -1 0 1 2 0z"/>
   <path class="fil1" d="M8629 8615l-106 27c238,74 485,148 389,522 -47,181 -69,336 21,504 160,298 -409,526 -268,-167 39,-192 23,-446 -143,-546 -186,-112 -213,-339 107,-339l0 -1z"/>
   <path class="fil2" d="M8632 8624l-73 18c233,73 458,158 364,523 -23,90 -40,174 -41,254 0,81 16,160 61,243 48,90 32,175 -10,231 -29,38 -71,64 -114,70 -44,7 -88,-7 -123,-47 -55,-63 -84,-194 -38,-419 21,-104 26,-228 -2,-334 -22,-85 -66,-159 -137,-201 -64,-38 -109,-89 -129,-141 -12,-30 -16,-62 -9,-90 7,-28 24,-55 52,-76 41,-29 105,-48 198,-48l77 0 -75 19 0 -2 -1 0zm-111 27l-25 -8c-21,8 -39,16 -53,27 -25,18 -39,41 -45,66 -6,25 -3,52 9,80 19,48 62,96 122,132 76,47 122,123 145,214 28,109 24,236 2,343 -45,218 -18,344 33,403 30,34 68,46 106,41 38,-6 75,-28 102,-63 39,-51 53,-128 10,-211 -46,-85 -63,-168 -63,-252 0,-84 18,-168 41,-259 93,-363 -145,-437 -378,-509l-5 -2 -1 -1 0 -1z"/>
   <path class="fil3" d="M9939 7341c64,115 99,239 99,367 0,620 -805,1122 -1797,1122 -992,0 -1797,-502 -1797,-1122 0,-246 113,-428 245,-564 558,-572 602,-1044 1552,-1044 760,0 1347,606 1699,1239l0 1 -1 1z"/>
   <path class="fil4" d="M6818 6867c285,0 516,231 516,516 0,285 -231,516 -516,516 -285,0 -516,-231 -516,-516 0,-285 231,-516 516,-516z"/>
   <path class="fil5" d="M7313 7796c-85,169 -273,272 -477,272 -199,0 -369,-108 -471,-263 -47,-71 -110,-235 13,-249l763 0c134,-4 280,22 171,240l1 0z"/>
   <path class="fil6" d="M6809 6950c238,0 431,193 431,431 0,238 -193,431 -431,431 -238,0 -431,-193 -431,-431 0,-238 193,-431 431,-431z"/>
   <path class="fil7" d="M6809 7068c173,0 313,141 313,313 0,173 -141,313 -313,313 -173,0 -313,-141 -313,-313 0,-173 141,-313 313,-313z"/>
   <path class="fil8" d="M6809 7058c89,0 170,36 228,95 59,59 95,140 95,228 0,89 -36,170 -95,228 -59,59 -140,95 -228,95 -89,0 -170,-36 -228,-95 -59,-59 -95,-140 -95,-228 0,-89 36,-170 95,-228 59,-59 140,-95 228,-95zm215 108c-55,-55 -131,-89 -215,-89 -84,0 -160,34 -215,89 -55,55 -89,131 -89,215 0,84 34,160 89,215 55,55 131,89 215,89 84,0 160,-34 215,-89 55,-55 89,-131 89,-215 0,-84 -34,-160 -89,-215z"/>
   <path class="fil9" d="M6636 7532c42,0 76,34 76,76 0,42 -34,76 -76,76 -42,0 -76,-34 -76,-76 0,-42 34,-76 76,-76z"/>
   <path class="fil4" d="M7000 7014c81,0 146,66 146,146 0,81 -66,146 -146,146 -81,0 -146,-66 -146,-146 0,-81 66,-146 146,-146z"/>
   <path class="fil4" d="M9647 6867c285,0 516,231 516,516 0,285 -231,516 -516,516 -285,0 -516,-231 -516,-516 0,-285 231,-516 516,-516z"/>
   <path class="fil3" d="M10142 7662c320,-335 270,-271 377,-766 69,-317 54,-744 499,-690 368,46 216,564 -36,220 -109,-148 -223,91 -301,348 -173,575 -66,1032 -578,1547 -104,104 -450,275 -610,173 -142,-91 263,-419 341,-580 43,-89 257,-198 307,-251l2 0 -1 -1z"/>
   <path class="fil3" d="M10915 6575c-53,115 217,193 97,-28 -6,-10 2,-83 1,-144 -1,-46 -7,-85 -28,-87 -66,-8 -41,76 -36,106 5,30 1,76 -34,153z"/>
   <path class="fil3" d="M11100 6624c-20,124 262,125 85,-53 -9,-9 -21,-81 -39,-139 -13,-44 -30,-80 -51,-77 -66,10 -18,85 -5,112 13,28 22,72 10,157z"/>
   <path class="fil3" d="M11253 6554c21,124 289,36 65,-78 -10,-6 -45,-69 -81,-120 -27,-37 -54,-66 -72,-57 -59,30 9,85 30,108 21,22 44,62 58,146l0 1z"/>
   <path class="fil5" d="M10142 7796c-85,169 -273,272 -477,272 -199,0 -369,-108 -471,-263 -47,-71 -110,-235 13,-249l763 0c134,-4 280,22 171,240l1 0z"/>
   <path class="fil6" d="M9639 6950c238,0 431,193 431,431 0,238 -193,431 -431,431 -238,0 -431,-193 -431,-431 0,-238 193,-431 431,-431z"/>
   <path class="fil7" d="M9639 7068c173,0 313,141 313,313 0,173 -141,313 -313,313 -173,0 -313,-141 -313,-313 0,-173 141,-313 313,-313z"/>
   <path class="fil8" d="M9639 7058c89,0 170,36 228,95 59,59 95,140 95,228 0,89 -36,170 -95,228 -59,59 -140,95 -228,95 -89,0 -170,-36 -228,-95 -59,-59 -95,-140 -95,-228 0,-89 36,-170 95,-228 59,-59 140,-95 228,-95zm215 108c-55,-55 -131,-89 -215,-89 -84,0 -160,34 -215,89 -55,55 -89,131 -89,215 0,84 34,160 89,215 55,55 131,89 215,89 84,0 160,-34 215,-89 55,-55 89,-131 89,-215 0,-84 -34,-160 -89,-215z"/>
   <path class="fil9" d="M9465 7532c42,0 76,34 76,76 0,42 -34,76 -76,76 -42,0 -76,-34 -76,-76 0,-42 34,-76 76,-76z"/>
   <path class="fil4" d="M9806 6998c81,0 146,66 146,146 0,81 -66,146 -146,146 -81,0 -146,-66 -146,-146 0,-81 66,-146 146,-146z"/>
   <path class="fil5" d="M7996 7579c-18,-44 -58,-81 -110,-99 -46,-15 -93,-13 -132,4 -189,82 13,67 100,100 96,36 207,149 142,-5z"/>
   <path class="fil5" d="M8439 7579c18,-44 58,-81 110,-99 46,-15 93,-13 132,4 189,82 -13,67 -100,100 -96,36 -207,149 -142,-5z"/>
   <path class="fil3" d="M5618 7154c-108,-18 -75,-286 113,-311 558,-76 290,724 260,991 -28,251 123,487 328,509 147,16 273,-104 345,-160 209,-167 609,225 319,409 -225,143 -948,-35 -1122,-316 -378,-607 310,-1028 -241,-1121l-1 0 -1 -1z"/>
   <path class="fil3" d="M5634 6777c-86,-91 -259,131 -10,101 11,-2 76,32 134,54 43,16 82,25 92,7 31,-58 -56,-66 -85,-72 -29,-7 -71,-27 -130,-88l0 -1 -1 -1z"/>
   <path class="fil3" d="M5520 6932c-109,-64 -213,198 18,100 10,-5 83,10 143,15 46,4 85,1 90,-19 14,-65 -71,-47 -103,-46 -30,2 -75,-6 -149,-49l0 -1 1 0z"/>
   <path class="fil3" d="M5528 7100c-123,-27 -140,254 48,88 9,-8 82,-16 141,-30 45,-11 82,-26 80,-47 -7,-66 -83,-23 -111,-11 -28,11 -73,18 -157,0l-1 0z"/>
   <path class="fil5" d="M9362 6466c44,-214 261,-452 12,-586 -62,-33 -357,30 -154,233 156,156 -414,-32 -400,108 19,193 329,364 495,396 189,37 9,34 48,-152l-2 1 1 0z"/>
   <path class="fil10" d="M8717 8340l0 -1c98,-23 202,-89 201,-153 25,-6 -39,2 44,-1 83,-3 253,57 255,138 3,81 -107,150 -246,156 -139,5 -253,-57 -255,-138l1 -1z"/>
   <path class="fil11" d="M8835 8338c-22,-1 -40,-19 -39,-41 1,-22 19,-40 41,-39 1,0 10,-2 21,-4 21,-4 48,-9 73,-9l1 0c49,0 124,0 170,44 16,15 17,41 1,57 -15,16 -41,17 -57,1 -23,-22 -78,-22 -115,-22l-1 0c-19,0 -42,4 -60,7 -15,3 -28,5 -37,5l2 1z"/>
   <path class="fil12" d="M7048 8118c816,0 1430,747 1954,-54 198,-301 48,311 549,-14"/>
   <path class="fil13" d="M7048 8150c-18,0 -32,-14 -32,-32 0,-18 14,-32 32,-32 291,0 555,93 799,179 434,153 802,282 1129,-217 66,-102 108,-116 147,-90 19,12 32,34 47,60 41,69 104,176 364,7 15,-10 35,-6 45,9 9,15 6,35 -10,45 -316,205 -400,65 -454,-28 -10,-18 -20,-34 -27,-39 -5,-3 -19,12 -58,72 -354,541 -744,405 -1204,243 -238,-84 -497,-175 -777,-175l-2 0 1 -2z"/>
   <path class="fil14" d="M5749 12325l0 0c58,59 56,155 -3,213l-72 70c-59,58 -155,56 -213,-3l0 0c-58,-59 -56,-155 3,-213l72 -70c59,-58 155,-56 213,3z"/>
   <path class="fil14" d="M6089 12499l0 0c58,59 56,155 -3,213l-72 70c-59,58 -155,56 -213,-3l0 0c-58,-59 -56,-155 3,-213l72 -70c59,-58 155,-56 213,3z"/>
   <path class="fil14" d="M7809 12325l0 0c-58,59 -56,155 3,213l72 70c59,58 155,56 213,-3l0 0c58,-59 56,-155 -3,-213l-72 -70c-59,-58 -155,-56 -213,3z"/>
   <path class="fil14" d="M7467 12499l0 0c-58,59 -56,155 3,213l72 70c59,58 155,56 213,-3l0 0c58,-59 56,-155 -3,-213l-72 -70c-59,-58 -155,-56 -213,3z"/>
   <path class="fil14" d="M6380 12494l0 0c-83,3 -148,72 -146,155l3 101c3,83 72,148 155,146l0 0c83,-3 148,-72 146,-155l-3 -101c-3,-83 -72,-148 -155,-146z"/>
   <path class="fil14" d="M6747 12494l0 0c-83,3 -148,72 -146,155l3 101c3,83 72,148 155,146l0 0c83,-3 148,-72 146,-155l-3 -101c-3,-83 -72,-148 -155,-146z"/>
   <path class="fil14" d="M7127 12494l0 0c-83,3 -148,72 -146,155l3 101c3,83 72,148 155,146l0 0c83,-3 148,-72 146,-155l-3 -101c-3,-83 -72,-148 -155,-146z"/>
   <path class="fil15" d="M6026 10670l1541 0c331,0 602,271 602,602l0 738c0,331 -271,602 -602,602l-1541 0c-331,0 -602,-271 -602,-602l0 -738c0,-331 271,-602 602,-602z"/>
   <path class="fil14" d="M4826 8775l0 0c258,126 367,442 240,700l-240 491c-126,258 -442,367 -700,240l0 0c-258,-126 -367,-442 -240,-700l240 -491c126,-258 442,-367 700,-240z"/>
   <path class="fil16" d="M4698 9036l0 0c235,126 338,429 230,674l-240 543c-108,244 -388,341 -623,215l0 0c-235,-126 -338,-429 -230,-674l240 -543c108,-244 388,-341 623,-215z"/>
   <path class="fil17" d="M4022 9094l0 0c258,126 367,442 240,700l-240 491c-126,258 -442,367 -700,240l0 0c-258,-126 -367,-442 -240,-700l240 -491c126,-258 442,-367 700,-240z"/>
   <path class="fil16" d="M4256 9562l1477 0c456,0 829,373 829,829l0 1016c0,456 -373,829 -829,829l-1975 0c-456,0 -829,-373 -829,-829l0 -1016c0,-379 492,-1385 1073,-1101l0 0c120,59 207,158 254,273l0 -1z"/>
   <path class="fil14" d="M3574 11371l0 0c231,113 327,393 214,624l-214 437c-113,231 -393,327 -624,214l0 0c-231,-113 -327,-393 -214,-624l214 -437c113,-231 393,-327 624,-214z"/>
   <path class="fil4" d="M4019 9976c481,0 871,390 871,871 0,481 -390,871 -871,871 -481,0 -871,-390 -871,-871 0,-481 390,-871 871,-871z"/>
   <path class="fil18" d="M4032 10214c349,0 632,283 632,632 0,349 -283,632 -632,632 -349,0 -632,-283 -632,-632 0,-349 283,-632 632,-632z"/>
   <path class="fil4" d="M4705 12236l-713 0c579,-230 965,-1058 1248,-1489 305,-463 468,-207 388,47 -106,342 -650,1242 -923,1442z"/>
   <path class="fil17" d="M4485 12236l-93 0c17,-16 35,-34 55,-53 566,-537 822,-966 1093,-1679l2 -4 -2 -1 4 -6c22,6 40,20 54,40 -273,719 -536,1155 -1105,1696l-7 7 -1 0z"/>
   <path class="fil19" d="M4032 10439c233,0 422,189 422,422 0,233 -189,422 -422,422 -233,0 -422,-189 -422,-422 0,-233 189,-422 422,-422z"/>
   <path class="fil8" d="M4032 10429c119,0 227,48 305,126 78,78 126,186 126,305 0,119 -48,227 -126,305 -78,78 -186,126 -305,126 -119,0 -227,-48 -305,-126 -78,-78 -126,-186 -126,-305 0,-119 48,-227 126,-305 78,-78 186,-126 305,-126zm292 140c-75,-75 -178,-121 -292,-121 -114,0 -216,47 -292,121 -75,75 -121,178 -121,292 0,114 47,217 121,292 75,75 178,121 292,121 114,0 216,-47 292,-121 75,-75 121,-178 121,-292 0,-114 -47,-216 -121,-292z"/>
   <path class="fil9" d="M3681 11152c85,0 153,68 153,153 0,85 -68,153 -153,153 -85,0 -153,-68 -153,-153 0,-85 68,-153 153,-153z"/>
   <path class="fil4" d="M4314 10221c163,0 296,133 296,296 0,163 -133,296 -296,296 -163,0 -296,-133 -296,-296 0,-163 133,-296 296,-296z"/>
   <path class="fil17" d="M3621 12730l0 0c-105,165 -327,214 -492,108l-313 -200c-165,-105 -214,-327 -108,-492l0 0c105,-165 327,-214 492,-108l313 200c165,105 214,327 108,492z"/>
   <path class="fil17" d="M7832 10717c145,-252 677,-261 697,-202 14,44 -493,137 -374,520 144,466 -407,-172 -323,-318z"/>
   <path class="fil14" d="M7225 11165c-130,-214 84,-621 136,-612 39,7 -101,429 238,499 412,84 -299,237 -374,113z"/>
   <path class="fil17" d="M6588 10725c-130,-214 84,-621 136,-612 39,7 -101,429 238,499 412,84 -299,237 -374,113z"/>
   <path class="fil14" d="M8057 11460c263,-123 706,173 687,233 -13,44 -482,-170 -605,213 -148,465 -236,-374 -84,-445l1 0 1 -1z"/>
   <path class="fil20" d="M17583 2909l0 0c182,0 331,149 331,331l0 831c0,182 -149,331 -331,331l0 0c-82,0 -156,-29 -214,-79 -104,-87 -286,-467 -296,30 -4,182 -149,331 -331,331l0 0c-182,0 -331,-149 -331,-331l0 -1179c0,-182 149,-331 331,-331l0 0c182,0 331,149 331,331l0 430 141 0c13,0 26,1 38,3l0 -367c0,-182 149,-331 331,-331z"/>
   <path class="fil10" d="M18196 1898c1001,0 1813,509 1813,1138 0,629 -812,1138 -1813,1138 -1001,0 -1813,-509 -1813,-1138 0,-629 812,-1138 1813,-1138z"/>
   <path class="fil10" d="M18910 1045c104,-308 138,-734 574,-630 362,86 151,585 -61,215 -91,-160 -233,66 -338,311 -236,553 -182,1018 -748,1472 -115,92 -478,222 -625,103 -131,-106 -79,-549 98,-578 274,-46 475,-106 581,-160 158,-79 342,-207 520,-733l-1 0z"/>
   <path class="fil10" d="M19339 771c-66,107 195,216 100,-16 -5,-11 11,-82 17,-143 4,-46 3,-85 -18,-90 -65,-15 -49,71 -47,102 2,30 -8,75 -51,148l-1 -1z"/>
   <path class="fil10" d="M19518 841c-33,122 246,154 91,-44 -8,-10 -11,-82 -23,-142 -9,-45 -21,-83 -42,-82 -66,3 -28,82 -18,111 10,28 14,74 -9,157l1 0z"/>
   <path class="fil10" d="M19677 789c7,126 282,68 73,-70 -9,-7 -37,-74 -66,-128 -22,-40 -47,-72 -66,-65 -62,24 0,86 18,110 18,25 37,66 41,152l0 1z"/>
   <path class="fil20" d="M19173 2079c273,-287 231,-232 323,-656 59,-272 47,-637 426,-591 315,39 184,482 -30,188 -93,-127 -191,78 -257,297 -148,492 -57,882 -495,1324 -88,89 -385,235 -521,147 -122,-78 225,-358 292,-497 37,-76 220,-169 263,-214l0 1 -1 1z"/>
   <path class="fil20" d="M19834 1150c-46,98 186,165 84,-24 -5,-9 2,-71 1,-123 -1,-39 -6,-73 -24,-75 -56,-7 -35,65 -30,91 4,26 1,65 -29,131l-1 0 -1 0z"/>
   <path class="fil20" d="M19993 1192c-17,106 224,107 73,-46 -7,-8 -18,-68 -33,-119 -11,-37 -26,-68 -44,-66 -56,9 -15,72 -5,96 11,24 19,62 8,134l1 0 0 1z"/>
   <path class="fil20" d="M20124 1132c18,106 247,31 55,-66 -9,-5 -38,-60 -68,-103 -23,-32 -47,-57 -62,-48 -50,27 8,73 26,92 18,19 38,53 49,124l0 1z"/>
   <path class="fil20" d="M18879 1898c641,0 1160,625 1160,1396 0,771 -519,1396 -1160,1396 -641,0 -1160,-625 -1160,-1396 0,-771 519,-1396 1160,-1396z"/>
   <path class="fil10" d="M17765 3710c129,461 -21,565 -158,699 -162,160 -140,502 62,427 144,-53 -17,-307 289,-229 94,24 179,81 137,141 -24,35 -81,41 -116,65 -187,129 -26,468 158,192 90,-138 188,-342 292,-291 101,50 -80,263 -103,308 -114,226 97,425 220,86 46,-126 104,-273 156,-227 138,121 -50,432 192,453 44,4 122,-47 105,-126 -14,-69 -196,-226 18,-306 98,-37 77,111 132,197 88,138 367,150 170,-179 -33,-56 38,-249 351,65 189,189 458,51 74,-250 -53,-42 -37,-91 20,-108 148,-44 232,112 356,47 38,-20 52,-56 -24,-125 -31,-28 -78,-63 -144,-103 -86,-52 -4,-104 98,-108 147,-6 206,-89 85,-127 -109,-34 -235,-20 -239,-124 -6,-142 86,-360 81,-349 -229,423 -2052,453 -2212,-28l2 1 -2 -1z"/>
   <path class="fil4" d="M18442 3022c179,0 325,-145 325,-325 0,-179 -145,-325 -325,-325 -179,0 -325,145 -325,325 0,179 145,325 325,325z"/>
   <path class="fil21" d="M18338 2884c129,0 234,-104 234,-234 0,-129 -104,-234 -234,-234 -129,0 -234,104 -234,234 0,129 104,234 234,234z"/>
   <path class="fil22" d="M18341 2789c79,0 143,-64 143,-143 0,-79 -64,-143 -143,-143 -79,0 -143,64 -143,143 0,79 64,143 143,143z"/>
   <path class="fil8" d="M18341 2780c37,0 70,-15 94,-39 24,-24 39,-58 39,-94 0,-37 -15,-70 -39,-94l0 0c-24,-24 -58,-39 -94,-39 -37,0 -70,15 -94,39 -24,24 -39,58 -39,94 0,37 15,70 39,94 24,24 58,39 94,39zm107 -26c-28,28 -66,45 -107,45 -42,0 -80,-17 -107,-45l0 0c-28,-28 -45,-66 -45,-107 0,-42 17,-80 45,-107l0 0c28,-28 66,-45 107,-45 42,0 80,17 107,45l0 0 0 0c28,28 45,66 45,107 0,42 -17,80 -45,107l0 0z"/>
   <path class="fil23" d="M18439 2863c55,0 101,-45 101,-101 0,-55 -45,-101 -101,-101 -55,0 -101,45 -101,101 0,55 45,101 101,101z"/>
   <path class="fil4" d="M19382 3022c179,0 325,-145 325,-325 0,-179 -145,-325 -325,-325 -179,0 -325,145 -325,325 0,179 145,325 325,325z"/>
   <path class="fil21" d="M19502 2884c129,0 234,-104 234,-234 0,-129 -104,-234 -234,-234 -129,0 -234,104 -234,234 0,129 104,234 234,234z"/>
   <path class="fil22" d="M19506 2789c79,0 143,-64 143,-143 0,-79 -64,-143 -143,-143 -79,0 -143,64 -143,143 0,79 64,143 143,143z"/>
   <path class="fil8" d="M19506 2780c37,0 70,-15 94,-39 24,-24 39,-58 39,-94 0,-37 -15,-70 -39,-94l0 0c-24,-24 -58,-39 -94,-39 -37,0 -70,15 -94,39l0 0c-24,24 -39,58 -39,94 0,37 15,70 39,94 24,24 58,39 94,39zm107 -26c-28,28 -66,45 -107,45 -42,0 -80,-17 -107,-45l0 0c-28,-28 -45,-66 -45,-107 0,-42 17,-80 45,-107l0 0c28,-28 66,-45 108,-45 42,0 80,17 107,45l0 0 0 0c28,28 45,66 45,107 0,42 -17,80 -45,107l0 0 -1 0z"/>
   <path class="fil4" d="M19601 2863c55,0 101,-45 101,-101 0,-55 -45,-101 -101,-101 -55,0 -101,45 -101,101 0,55 45,101 101,101z"/>
   <path class="fil24" d="M18001 2604c-6,-126 72,-248 191,-314 117,-65 252,-57 362,1 50,27 141,102 73,150l-447 249c-77,46 -171,78 -179,-85l0 -1z"/>
   <path class="fil24" d="M19788 2604c6,-126 -72,-248 -191,-314 -117,-65 -252,-57 -362,1 -50,27 -141,102 -73,150l447 249c77,46 171,78 179,-85l0 -1z"/>
   <path class="fil10" d="M16374 3018c-532,-172 -766,-1169 -663,-1230 76,-45 458,872 1130,494 819,-461 -158,837 -467,737l0 -1z"/>
   <polygon class="fil25" points="15855,1842 15789,1815 15722,1787 15749,1875 15777,1963 15816,1902 "/>
   <path class="fil26" d="M15841 1846l-56 -23 -47 -20 21 68 21 68 28 -44 33 -50 0 1zm-48 -41l66 28 10 5 -7 10 -40 60 -40 60 -11 17 -6 -19 -28 -88 -28 -88 -6 -19 19 8 66 28 2 1 3 -3z"/>
   <polygon class="fil25" points="15924,2012 15853,1995 15783,1978 15824,2061 15864,2143 15894,2078 "/>
   <path class="fil26" d="M15910 2019l-59 -14 -50 -12 31 65 31 65 22 -47 25 -55 0 -2zm-54 -32l70 17 11 3 -5 10 -29 66 -29 66 -9 18 -9 -18 -40 -83 -40 -83 -9 -18 20 5 70 17 -3 0 2 0z"/>
   <polygon class="fil25" points="16011,2159 15939,2156 15867,2154 15923,2226 15980,2299 15995,2229 "/>
   <path class="fil26" d="M15999 2167l-61 -2 -52 -2 44 57 44 57 11 -50 13 -59 1 -1zm-60 -21l72 3 11 0 -3 11 -16 70 -16 70 -5 20 -12 -16 -56 -73 -56 -73 -12 -16 20 1 72 3 1 0z"/>
   <polygon class="fil25" points="16136,2306 16063,2308 15991,2311 16052,2379 16113,2448 16124,2377 "/>
   <path class="fil26" d="M16124 2315l-61 2 -52 2 47 54 47 54 8 -51 10 -60 1 -1zm-61 -17l72 -2 11 0 -2 11 -11 71 -11 71 -3 20 -13 -15 -61 -69 -61 -69 -13 -15 20 -1 72 -2z"/>
   <polygon class="fil25" points="16265,2431 16193,2445 16123,2460 16194,2518 16267,2575 16266,2503 "/>
   <path class="fil26" d="M16255 2443l-60 12 -51 10 56 45 56 45 -1 -52 -1 -61 1 1zm-64 -7l70 -14 11 -2 0 11 1 72 1 72 0 20 -16 -12 -71 -58 -71 -58 -16 -12 20 -4 70 -14 1 -1z"/>
   <polygon class="fil25" points="16433,2504 16355,2542 16278,2581 16379,2626 16479,2670 16455,2588 "/>
   <path class="fil26" d="M16426 2518l-67 33 -59 29 83 36 83 36 -18 -64 -20 -72 -1 1 -1 1zm-76 16l77 -39 10 -5 3 11 24 84 24 84 6 19 -18 -9 -101 -45 -101 -45 -18 -9 18 -9 77 -39 -1 0 0 2z"/>
   <path class="fil27" d="M12500 9430c1003,0 2157,361 2406,1444 96,418 -202,1077 166,1046 360,-29 210,298 -268,241 -262,-31 -260,205 -306,349 -137,434 -1144,293 -1487,259 -911,-91 -1423,-563 -2386,-585 -253,-6 -671,122 -869,127 -207,6 -271,-86 -261,-189 22,-230 292,-236 459,-314 231,-107 135,-359 135,-842 0,-850 1080,-1538 2412,-1538l-1 1 0 1z"/>
   <path class="fil28" d="M9894 11833c21,-8 41,-15 59,-24 119,-55 151,-148 154,-291 28,85 69,167 124,235 114,142 319,130 300,280 -22,168 -448,226 -617,-155 -7,-16 -13,-31 -20,-47l0 2z"/>
   <path class="fil28" d="M14931 11874c29,34 74,52 141,47 104,-9 166,13 189,47 -287,202 -424,47 -330,-93l0 -1z"/>
   <path class="fil29" d="M11581 11027c-115,417 15,976 666,854 353,-66 777,-240 1040,-448 152,-120 251,-251 251,-378 0,-725 -1740,-815 -1957,-28l1 0 -1 0z"/>
   <path class="fil14" d="M11790 11827c109,66 258,91 456,53 353,-66 777,-240 1040,-448 143,-113 239,-235 250,-356 -382,-325 -1291,-255 -1624,201 -39,53 -173,142 -192,209 -19,69 -42,145 -46,218 -3,54 96,114 115,122l1 1z"/>
   <path class="fil4" d="M11564 11494c24,103 69,196 141,267 -17,-62 -22,-142 34,-231 122,-190 186,-221 138,-208 -43,11 -196,102 -312,172l-1 0z"/>
   <path class="fil4" d="M13511 11171c17,-39 26,-78 26,-116 0,-67 -15,-130 -43,-186 -136,1 -316,4 -359,16 -48,14 22,7 225,105 95,47 133,119 150,180l1 0 0 1z"/>
   <path class="fil4" d="M11535 10044c299,0 541,153 541,341 0,189 -242,341 -541,341 -299,0 -541,-153 -541,-341 0,-189 242,-341 541,-341z"/>
   <path class="fil4" d="M13251 9916c-272,0 -492,139 -492,310 0,171 220,310 492,310 272,0 492,-139 492,-310 0,-171 -220,-310 -492,-310z"/>
   <path class="fil30" d="M11780 10122c150,0 272,104 272,230 0,127 -122,230 -272,230 -150,0 -272,-104 -272,-230 0,-127 122,-230 272,-230z"/>
   <path class="fil31" d="M11780 10185c109,0 198,75 198,167 0,92 -88,167 -198,167 -109,0 -198,-75 -198,-167 0,-92 88,-167 198,-167z"/>
   <path class="fil9" d="M11763 10295c27,0 47,18 47,40 0,22 -21,40 -47,40 -27,0 -47,-18 -47,-40 0,-22 21,-40 47,-40z"/>
   <path class="fil23" d="M11881 10152c51,0 92,35 92,78 0,44 -42,78 -92,78 -51,0 -92,-35 -92,-78 0,-44 42,-78 92,-78z"/>
   <path class="fil30" d="M13454 9977c150,0 272,104 272,230 0,127 -122,230 -272,230 -150,0 -272,-104 -272,-230 0,-127 122,-230 272,-230z"/>
   <path class="fil31" d="M13454 10040c109,0 198,75 198,167 0,92 -88,167 -198,167 -109,0 -198,-75 -198,-167 0,-92 88,-167 198,-167z"/>
   <path class="fil9" d="M13433 10155c27,0 47,18 47,40 0,22 -21,40 -47,40 -27,0 -47,-18 -47,-40 0,-22 21,-40 47,-40z"/>
   <path class="fil4" d="M13555 10004c51,0 92,35 92,78 0,44 -42,78 -92,78 -51,0 -92,-35 -92,-78 0,-44 42,-78 92,-78z"/>
   <path class="fil28" d="M11959 9415c395,-256 1369,-872 1323,-488 -24,192 -433,-9 -629,163 -371,326 94,262 -108,402 -161,111 -453,201 -610,119 -76,-40 -87,-122 24,-195l0 -1z"/>
   <path class="fil28" d="M12813 9382c299,-215 789,-456 1104,-441 212,10 336,257 179,346 -76,43 -181,38 -273,-113 -48,-81 -480,-48 -553,236 -26,99 -103,152 -198,174 -508,116 -606,46 -260,-201l-1 -1 2 0z"/>
   <path class="fil21" d="M11026 10608c-92,-118 -101,-288 -32,-432 67,-142 202,-227 348,-247 66,-10 205,1 173,94l-259 545c-43,97 -110,192 -229,41l0 -1 -1 0z"/>
   <path class="fil32" d="M12729 10421c-84,-107 -92,-261 -29,-393 62,-129 184,-206 315,-225 61,-9 186,1 158,85l-235 495c-39,87 -101,175 -208,37l0 1 -1 0z"/>
   <path class="fil33" d="M4945 1292l546 0c141,0 258,116 258,258l0 592c0,141 -116,258 -258,258l-546 0c-141,0 -258,-116 -258,-258l0 -592c0,-141 116,-258 258,-258z"/>
   <path class="fil33" d="M2669 1292l546 0c141,0 258,116 258,258l0 592c0,141 -116,258 -258,258l-546 0c-141,0 -258,-116 -258,-258l0 -592c0,-141 116,-258 258,-258z"/>
   <path class="fil34" d="M3305 3734l462 0c121,0 218,99 218,218l0 224 189 0 0 -224c0,-121 99,-218 218,-218l462 0c121,0 218,99 218,218l0 973c0,121 -99,218 -218,218l-462 0c-121,0 -218,-99 -218,-218 0,-496 -189,-496 -189,0 0,121 -99,218 -218,218l-462 0c-121,0 -218,-99 -218,-218l0 -973c0,-121 99,-218 218,-218z"/>
   <path class="fil33" d="M3641 3415l880 0c305,0 554,249 554,554l0 0c0,305 -249,554 -554,554l-880 0c-305,0 -554,-249 -554,-554l0 0c0,-305 249,-554 554,-554z"/>
   <path class="fil35" d="M3014 1641l2133 0c331,0 602,271 602,602l0 859c0,331 -271,602 -602,602l-2133 0c-331,0 -602,-271 -602,-602l0 -859c0,-331 271,-602 602,-602z"/>
   <path class="fil4" d="M3035 1901c271,0 491,219 491,491 0,271 -219,491 -491,491 -271,0 -491,-219 -491,-491 0,-271 219,-491 491,-491z"/>
   <path class="fil4" d="M5088 1901c271,0 491,219 491,491 0,271 -219,491 -491,491 -271,0 -491,-219 -491,-491 0,-271 219,-491 491,-491z"/>
   <path class="fil36" d="M3035 2035c197,0 356,160 356,356 0,197 -160,356 -356,356 -197,0 -356,-160 -356,-356 0,-197 160,-356 356,-356z"/>
   <path class="fil37" d="M3035 2161c131,0 237,106 237,237 0,131 -106,237 -237,237 -131,0 -237,-106 -237,-237 0,-131 106,-237 237,-237z"/>
   <path class="fil8" d="M3035 2152c68,0 130,28 175,72 45,45 72,106 72,175 0,68 -28,130 -72,175 -45,45 -106,72 -175,72 -68,0 -130,-28 -175,-72l0 0c-45,-45 -72,-106 -72,-175 0,-68 28,-130 72,-175l0 0c45,-45 106,-72 175,-72zm161 85c-41,-41 -99,-66 -161,-66 -63,0 -120,26 -161,66l0 0c-41,41 -66,99 -66,161 0,63 26,120 66,161l0 0c41,41 99,66 161,66 63,0 120,-26 161,-66 41,-41 66,-99 66,-161 0,-63 -26,-120 -66,-161z"/>
   <path class="fil9" d="M2838 2563c47,0 85,39 85,85 0,47 -39,85 -85,85 -47,0 -85,-39 -85,-85 0,-47 39,-85 85,-85z"/>
   <path class="fil4" d="M3194 2039c92,0 167,75 167,167 0,92 -75,167 -167,167 -92,0 -167,-75 -167,-167 0,-92 75,-167 167,-167z"/>
   <path class="fil36" d="M5094 2035c197,0 356,160 356,356 0,197 -160,356 -356,356 -197,0 -356,-160 -356,-356 0,-197 160,-356 356,-356z"/>
   <path class="fil37" d="M5094 2161c131,0 237,106 237,237 0,131 -106,237 -237,237 -131,0 -237,-106 -237,-237 0,-131 106,-237 237,-237z"/>
   <path class="fil8" d="M5094 2152c68,0 130,28 175,72 45,45 72,106 72,175 0,68 -28,130 -72,175 -45,45 -106,72 -175,72 -68,0 -130,-28 -175,-72 -45,-45 -72,-106 -72,-175 0,-68 28,-130 72,-175 45,-45 106,-72 175,-72zm161 85c-41,-41 -99,-66 -161,-66 -63,0 -120,26 -161,66 -41,41 -66,99 -66,161 0,63 26,120 66,161 41,41 99,66 161,66 63,0 120,-26 161,-66 41,-41 66,-99 66,-161 0,-63 -26,-120 -66,-161z"/>
   <path class="fil9" d="M4897 2563c47,0 85,39 85,85 0,47 -39,85 -85,85 -47,0 -85,-39 -85,-85 0,-47 39,-85 85,-85z"/>
   <path class="fil4" d="M5253 2039c92,0 167,75 167,167 0,92 -75,167 -167,167 -92,0 -167,-75 -167,-167 0,-92 75,-167 167,-167z"/>
   <path class="fil38" d="M2730 2903c10,86 88,318 179,151 62,-112 472,-164 649,47 332,393 283,-151 725,140 240,158 287,-368 751,-254 228,56 318,323 413,-89"/>
   <path class="fil39" d="M2710 2906c-1,-11 7,-21 18,-22 11,-1 21,7 22,18 4,39 23,109 51,155 10,15 20,28 30,34 8,5 15,5 24,1 11,-7 24,-21 37,-46 7,-12 16,-24 28,-34 47,-40 139,-68 240,-73 101,-5 213,12 306,63 41,23 78,51 108,87 158,187 221,148 300,102 88,-53 193,-116 422,34 96,63 160,-2 239,-82 107,-107 241,-241 506,-176 73,18 131,56 180,87 34,22 64,41 87,47 45,10 80,-31 121,-209 3,-10 13,-17 24,-15 10,3 17,13 15,24 -48,208 -100,254 -169,238 -31,-8 -64,-28 -101,-52 -47,-30 -102,-66 -168,-83 -243,-60 -367,65 -468,165 -93,93 -167,167 -290,86 -207,-136 -300,-80 -379,-33 -94,57 -171,103 -351,-110 -28,-32 -60,-58 -97,-78 -85,-47 -191,-63 -285,-58 -93,5 -175,29 -216,65 -9,8 -15,14 -19,22 -18,32 -35,51 -53,62 -22,12 -44,10 -63,-1 -16,-10 -31,-27 -44,-47 -31,-51 -52,-128 -57,-171l-1 0 3 0z"/>
   <path class="fil40" d="M3161 3930c69,104 229,168 428,26 82,-58 148,-34 186,35 35,63 11,145 94,148 32,1 60,-28 35,-146 -16,-77 62,-51 71,15 12,81 100,116 96,14 -9,-226 -373,-208 -593,-248 -136,-25 -325,-131 -346,-18 -8,43 -28,89 28,175l0 -1 1 0z"/>
   <path class="fil40" d="M5009 3930c-69,104 -229,168 -428,26 -82,-58 -148,-34 -186,35 -35,63 -11,145 -94,148 -32,1 -60,-28 -35,-146 16,-77 -62,-51 -71,15 -12,81 -100,116 -96,14 9,-226 373,-208 593,-248 136,-25 325,-131 346,-18 8,43 28,89 -28,175l0 -1 -1 0z"/>
   <path class="fil33" d="M4266 2638c-43,48 -110,80 -186,80 -66,0 -126,-24 -169,-63 -209,-189 47,-82 173,-85 141,-4 333,-102 182,68z"/>
   <path class="fil41" d="M3454 1770c-32,-127 34,-180 63,-278 -1,8 -1,15 -1,23l0 0c0,104 17,184 122,184l375 0c41,4 87,4 128,0l402 0c84,0 91,-57 117,-132 10,70 85,63 40,200 -39,119 -552,110 -622,37 -70,73 -592,87 -622,-34l-1 0 -1 0zm615 25c0,1 1,2 1,3 -1,-1 -1,-2 -1,-3zm3 5c1,1 1,2 2,3 -1,-1 -1,-2 -2,-3z"/>
   <path class="fil40" d="M3505 1706c-117,-266 191,-701 250,-682 44,14 -180,465 198,597 64,22 193,23 258,0 380,-129 154,-583 198,-597 60,-19 367,416 250,682 -49,113 -512,107 -577,34 -66,73 -528,79 -577,-34l1 0 -1 0zm571 25c0,1 1,2 1,3 0,-1 -1,-2 -1,-3zm3 5c1,1 1,2 2,3 -1,-1 -1,-2 -2,-3z"/>
   <path class="fil42" d="M3481 1614c-2,-17 -3,-33 -2,-50 10,3 20,6 30,9 57,17 141,44 250,44 55,0 98,-9 129,-23 16,9 34,17 54,25 -39,27 -101,47 -183,47 -115,0 -205,-28 -264,-46l-14 -5 0 -1zm1 -95c2,-16 4,-32 8,-47 55,19 137,25 251,-1 9,-2 16,-4 24,-5 8,15 16,30 27,44 -12,2 -26,5 -40,8 -117,27 -206,22 -269,2l-1 -1zm31 -139c5,-15 10,-30 16,-46l0 0c73,28 146,37 204,36 3,16 7,32 11,47 -66,3 -149,-7 -232,-38l1 1zm52 -124c8,-15 15,-29 23,-43 14,14 30,25 46,27 36,5 68,10 96,17 -1,16 -1,32 -1,48 -28,-7 -62,-12 -102,-18 -21,-3 -43,-15 -62,-31zm53 -93c10,-14 18,-28 28,-41 27,10 58,25 94,44 -3,16 -5,33 -8,51 -48,-27 -86,-45 -115,-54l1 0z"/>
   <path class="fil42" d="M4681 1614c2,-17 3,-33 2,-50 -10,3 -20,6 -30,9 -57,17 -141,44 -250,44 -55,0 -98,-9 -129,-23 -16,9 -34,17 -54,25 39,27 101,47 183,47 115,0 205,-28 264,-46l14 -5 0 -1zm-1 -95c-2,-16 -4,-32 -8,-47 -55,19 -137,25 -251,-1 -9,-2 -16,-4 -24,-5 -8,15 -16,30 -27,44 12,2 26,5 40,8 117,27 206,22 269,2l1 -1zm-31 -139c-5,-15 -10,-30 -16,-46l0 0c-73,28 -146,37 -204,36 -3,16 -7,32 -11,47 66,3 149,-7 232,-38l-1 1zm-52 -124c-8,-15 -15,-29 -23,-43 -14,14 -30,25 -46,27 -36,5 -68,10 -96,17 1,16 1,32 1,48 28,-7 62,-12 102,-18 21,-3 43,-15 62,-31zm-53 -93c-10,-14 -18,-28 -28,-41 -27,10 -58,25 -94,44 3,16 5,33 8,51 48,-27 86,-45 115,-54l-1 0z"/>
   <path class="fil43" d="M7337 2456l113 0c29,0 53,24 53,53l0 1304c0,29 -24,53 -53,53l-113 0c-29,0 -53,-24 -53,-53l0 -1304c0,-29 24,-53 53,-53z"/>
   <path class="fil43" d="M7702 2456l113 0c29,0 53,24 53,53l0 1304c0,29 -24,53 -53,53l-113 0c-29,0 -53,-24 -53,-53l0 -1304c0,-29 24,-53 53,-53z"/>
   <path class="fil43" d="M8704 1333c890,0 1610,591 1610,1320 0,729 -722,1320 -1610,1320 -890,0 -1610,-591 -1610,-1320 0,-729 722,-1320 1610,-1320z"/>
   <path class="fil30" d="M8675 2933l1270 0c204,0 370,167 370,370l0 783c0,204 -167,370 -370,370l-1270 0c-204,0 -370,-167 -370,-370l0 -783c0,-204 167,-370 370,-370z"/>
   <path class="fil43" d="M9776 2982l199 -11c188,-10 340,129 340,332l0 783c0,204 -154,370 -343,370l-459 0 0 -1231 0 -30c9,-192 53,-203 261,-215l1 1 1 1z"/>
   <path class="fil44" d="M10225 4346c-55,60 -131,100 -216,109l-2 -50c-2,-64 48,-118 113,-120l0 0c45,-1 85,24 105,61z"/>
   <path class="fil44" d="M9964 4457l-233 0 -2 -52c-2,-64 48,-118 113,-120l0 0c64,-2 118,48 120,113l2 59z"/>
   <path class="fil45" d="M10047 1016l610 0c667,0 992,940 1038,1454 27,303 -254,515 -510,515l-339 0c-23,165 -165,293 -337,293l-314 0c-171,0 -313,-128 -337,-293l-339 0c-280,0 -522,-230 -510,-510 23,-500 412,-1458 1038,-1458l1 0 -1 -1z"/>
   <path class="fil46" d="M10855 2985l-10 0c-23,165 -165,293 -337,293l-314 0c-171,0 -313,-128 -337,-293l-9 0 0 0 0 0c0,-194 159,-351 351,-351l302 0c194,0 351,159 351,351l0 0 0 0 2 0 1 0z"/>
   <path class="fil46" d="M10795 2614c-96,-107 -246,-178 -414,-178 -148,0 -282,53 -377,140 -465,421 105,181 386,190 312,9 742,227 405,-152z"/>
   <path class="fil4" d="M9733 2443c179,0 325,-145 325,-325 0,-179 -145,-325 -325,-325 -179,0 -325,145 -325,325 0,179 145,325 325,325z"/>
   <path class="fil47" d="M9741 2451c104,0 189,-85 189,-189 0,-104 -85,-189 -189,-189 -104,0 -189,85 -189,189 0,104 85,189 189,189z"/>
   <path class="fil48" d="M9745 2375c64,0 116,-52 116,-116 0,-64 -52,-116 -116,-116 -64,0 -116,52 -116,116 0,64 52,116 116,116z"/>
   <path class="fil8" d="M9745 2366c29,0 56,-12 75,-31 19,-19 31,-46 31,-75 0,-29 -12,-56 -31,-75l0 0c-19,-19 -46,-31 -75,-31 -29,0 -56,12 -75,31 -19,19 -31,46 -31,75 0,29 12,56 31,75l0 0c19,19 46,31 75,31zm88 -18c-23,23 -54,37 -88,37 -34,0 -66,-14 -88,-37l0 0c-23,-23 -37,-54 -37,-88 0,-34 14,-66 37,-88 23,-23 54,-37 88,-37 34,0 66,14 88,37l0 0c23,23 37,54 37,88 0,34 -14,66 -37,88l0 0z"/>
   <path class="fil9" d="M9649 2179c23,0 42,-19 42,-42 0,-23 -19,-42 -42,-42 -23,0 -42,19 -42,42 0,23 19,42 42,42z"/>
   <path class="fil23" d="M9825 2425c45,0 82,-36 82,-82 0,-45 -36,-82 -82,-82 -45,0 -82,36 -82,82 0,45 36,82 82,82z"/>
   <path class="fil4" d="M10971 2443c179,0 325,-145 325,-325 0,-179 -145,-325 -325,-325 -179,0 -325,145 -325,325 0,179 145,325 325,325z"/>
   <path class="fil47" d="M10979 2451c104,0 189,-85 189,-189 0,-104 -85,-189 -189,-189 -104,0 -189,85 -189,189 0,104 85,189 189,189z"/>
   <path class="fil48" d="M10982 2375c64,0 116,-52 116,-116 0,-64 -52,-116 -116,-116 -64,0 -116,52 -116,116 0,64 52,116 116,116z"/>
   <path class="fil8" d="M10982 2366c29,0 56,-12 75,-31 19,-19 31,-46 31,-75 0,-29 -12,-56 -31,-75l0 0c-19,-19 -46,-31 -75,-31 -29,0 -56,12 -75,31 -19,19 -31,46 -31,75 0,29 12,56 31,75l0 0c19,19 46,31 75,31zm88 -18c-23,23 -54,37 -88,37 -34,0 -66,-14 -88,-37l0 0c-23,-23 -37,-54 -37,-88 0,-34 14,-66 37,-88 23,-23 54,-37 88,-37 34,0 66,14 88,37l0 0c23,23 37,54 37,88 0,34 -14,66 -37,88l0 0z"/>
   <path class="fil9" d="M10886 2179c23,0 42,-19 42,-42 0,-23 -19,-42 -42,-42 -23,0 -42,19 -42,42 0,23 19,42 42,42z"/>
   <path class="fil4" d="M11065 2425c45,0 82,-36 82,-82 0,-45 -36,-82 -82,-82 -45,0 -82,36 -82,82 0,45 36,82 82,82z"/>
   <path class="fil4" d="M10361 2059c244,0 442,-198 442,-442 0,-244 -198,-442 -442,-442 -244,0 -442,198 -442,442 0,244 198,442 442,442z"/>
   <path class="fil47" d="M10372 2069c142,0 257,-115 257,-257 0,-142 -115,-257 -257,-257 -142,0 -257,115 -257,257 0,142 115,257 257,257z"/>
   <path class="fil48" d="M10378 1966c87,0 158,-70 158,-158 0,-87 -70,-158 -158,-158 -87,0 -158,70 -158,158 0,87 70,158 158,158z"/>
   <path class="fil8" d="M10378 1956c41,0 78,-16 104,-44 27,-27 44,-64 44,-104 0,-41 -16,-78 -44,-104l0 0c-27,-27 -64,-44 -104,-44 -41,0 -78,16 -104,44l0 0c-27,27 -44,64 -44,104 0,41 16,78 44,104 27,27 64,44 104,44zm118 -29c-30,30 -72,48 -118,48 -47,0 -87,-19 -118,-48 -30,-30 -48,-72 -48,-118 0,-46 19,-87 48,-118l0 0 0 0c30,-30 72,-48 118,-48 47,0 87,19 118,48l0 0c30,30 48,72 48,118 0,47 -19,87 -48,118z"/>
   <path class="fil9" d="M10247 1699c31,0 57,-26 57,-57 0,-31 -26,-57 -57,-57 -31,0 -57,26 -57,57 0,31 26,57 57,57z"/>
   <path class="fil4" d="M10477 2037c61,0 110,-49 110,-110 0,-61 -49,-110 -110,-110 -61,0 -110,49 -110,110 0,61 49,110 110,110z"/>
   <path class="fil46" d="M11257 1132c-43,48 -110,80 -186,80 -66,0 -126,-24 -169,-63 -209,-189 47,-82 173,-85 141,-4 333,-102 182,68z"/>
   <path class="fil46" d="M9821 1132c-43,48 -110,80 -186,80 -66,0 -126,-24 -169,-63 -209,-189 47,-82 173,-85 141,-4 333,-102 182,68z"/>
   <path class="fil30" d="M7061 2555c-386,-1992 1230,-2257 1533,-1185 108,382 -4,774 -471,621 -339,-111 -135,-461 1,-423 36,9 54,48 70,123 60,270 275,-104 57,-368 -338,-407 -1038,141 -661,424 214,160 8,634 -212,870 -254,273 -257,245 -317,-62l-1 0 1 0z"/>
   <path class="fil49" d="M11158 2663c-19,-21 -52,-34 -105,-35 -111,-2 -377,71 -732,73 -361,2 -576,-86 -717,-73 -51,5 -96,32 -118,73 -139,257 728,258 827,257 71,0 1087,-35 845,-296l0 1z"/>
   <path class="fil23" d="M9502 2820c30,29 80,53 141,71l-8 -46 -12 -71 -67 26 -54 20z"/>
   <path class="fil23" d="M9657 2895c37,10 78,19 120,27 14,3 28,5 42,7l-32 -54 -37 -62 -53 48 -38 34 -1 0 -1 0z"/>
   <path class="fil50" d="M9994 3677l664 0c213,0 386,174 386,386l0 0c0,213 -174,386 -386,386l-664 0c-213,0 -386,-174 -386,-386l0 0c0,-213 174,-386 386,-386z"/>
   <path class="fil44" d="M10986 3860c37,59 59,129 59,204l0 0c0,4 0,8 0,11l-28 -9c-61,-20 -95,-85 -75,-146l0 0c9,-26 25,-46 45,-60l-1 -1 0 1z"/>
   <path class="fil44" d="M11040 4121c-12,81 -49,154 -104,211l-12 -4c-61,-20 -95,-85 -75,-146l0 0c20,-61 85,-95 146,-75l46 14 -1 0z"/>
   <path class="fil30" d="M9270 3677l664 0c213,0 386,174 386,386l0 0c0,213 -174,386 -386,386l-664 0c-213,0 -386,-174 -386,-386l0 0c0,-213 174,-386 386,-386z"/>
   <path class="fil51" d="M10286 4223c-28,61 -71,114 -124,153 -4,-10 -6,-21 -6,-32l0 0c-2,-64 48,-118 112,-120l18 -1z"/>
   <path class="fil51" d="M10300 3938c13,39 21,82 21,125l0 0c0,37 -6,73 -15,106l-31 1c-64,2 -118,-48 -120,-112l0 0c-2,-64 48,-118 112,-120l33 -1 0 1z"/>
   <path class="fil51" d="M10154 3746c49,34 90,80 120,133l0 0c-64,2 -118,-48 -120,-112l0 0c0,-7 0,-14 1,-21l-1 0z"/>
   <path class="fil23" d="M11139 2808c-30,29 -80,53 -141,71l8 -46 12 -71 67 26 54 20z"/>
   <path class="fil23" d="M10984 2883c-37,10 -78,19 -120,27 -14,3 -28,5 -42,7l32 -54 37 -62 53 48 38 34 1 0 1 0z"/>
   <path class="fil5" d="M7160 6466c-44,-214 -261,-452 -12,-586 62,-33 357,30 154,233 -156,156 414,-32 400,108 -19,193 -329,364 -495,396 -189,37 -10,34 -48,-152l2 1 -1 0z"/>
   <path class="fil3" d="M7147 6417c-7,-20 -13,-41 -21,-61 80,-21 182,-105 267,-179 33,-2 70,-6 107,-9 -12,10 -26,22 -39,34 -93,82 -212,185 -313,215l-1 0zm-94 -243c-7,-21 -13,-42 -17,-62 11,-4 24,-8 36,-10 18,-4 36,-6 55,-6 -17,-10 -33,-22 -47,-35 -16,-15 -30,-32 -41,-50 -1,-2 -2,-4 -3,-6 9,-32 27,-62 57,-88l7 6c-9,10 -12,19 -12,28 0,9 3,20 9,30 7,12 16,24 28,34 28,27 66,45 91,46 61,2 95,11 112,22l3 2c-8,10 -16,19 -27,28 -31,31 -33,48 -17,58 -28,6 -64,6 -100,-3 -32,-8 -68,-9 -101,-2 -11,2 -22,6 -31,10l-1 -1 -1 -1zm539 -10c26,1 48,3 67,8 -3,7 -6,13 -9,19 -17,34 -47,73 -82,112 -106,117 -280,237 -405,236 2,-18 2,-39 -2,-64 103,6 260,-107 360,-216 31,-34 56,-67 71,-97l-1 2 1 0z"/>
   <path class="fil3" d="M9371 6417c7,-20 13,-41 21,-61 -80,-21 -182,-105 -267,-179 -33,-2 -70,-6 -107,-9 12,10 26,22 39,34 93,82 212,185 313,215l1 0zm94 -243c7,-21 13,-42 17,-62 -11,-4 -24,-8 -36,-10 -18,-4 -36,-6 -55,-6 17,-10 33,-22 47,-35 16,-15 30,-32 41,-50 1,-2 2,-4 3,-6 -9,-32 -27,-62 -57,-88l-7 6c9,10 12,19 12,28 0,9 -3,20 -9,30 -7,12 -16,24 -28,34 -28,27 -66,45 -91,46 -61,2 -95,11 -112,22l-3 2c8,10 16,19 27,28 31,31 33,48 17,58 28,6 64,6 100,-3 32,-8 68,-9 101,-2 11,2 22,6 31,10l1 -1 1 -1zm-539 -10c-26,1 -48,3 -67,8 3,7 6,13 9,19 17,34 47,73 82,112 106,117 280,237 405,236 -2,-18 -2,-39 2,-64 -103,6 -260,-107 -360,-216 -31,-34 -56,-67 -71,-97l1 2 -1 0z"/>
   <path class="fil14" d="M6206 9789c59,-166 375,-232 393,-198 13,25 -278,137 -165,352 139,262 -262,-57 -228,-154z"/>
   <path class="fil14" d="M5771 9573c-34,-173 205,-390 237,-370 24,14 -170,259 37,386 252,155 -254,85 -274,-16z"/>
   <path class="fil14" d="M5332 9581c-51,-119 86,-311 113,-302 19,7 -82,212 86,272 204,72 -169,100 -199,31l0 -1z"/>
   <path class="fil28" d="M13941 12242c-166,83 -374,92 -547,45 -441,-120 -529,513 600,280 394,-82 426,-496 273,-551 -138,-49 -167,147 -326,226z"/>
   <path class="fil14" d="M12369 5542l-61 182c159,-567 -93,-688 -262,-854 -199,-196 -172,-617 76,-525 178,66 -21,377 355,282 116,-29 219,-99 168,-175 -29,-43 -99,-49 -142,-80 -230,-159 -31,-575 194,-235 111,169 231,421 358,357 123,-62 -98,-323 -125,-378 -141,-277 120,-523 271,-106 56,156 127,336 192,279 169,-148 -62,-531 236,-556 54,-5 150,58 130,155 -18,85 -240,278 22,376 121,46 95,-136 162,-242 108,-169 452,-184 209,219 -41,68 47,306 432,-80 233,-233 562,-63 91,308 -66,51 -46,112 25,133 181,54 285,-138 438,-58 47,24 64,69 -29,154 -38,35 -96,77 -178,126 -106,65 -5,127 121,133 180,8 254,109 103,156 -135,42 -304,27 -327,153 -37,203 112,444 111,430 -6,-223 -2066,-333 -2419,-187 -19,8 -110,0 -152,34l2 -1 -1 0z"/>
   <path class="fil52" d="M13673 4446c695,0 1426,1136 1426,2078 0,943 -730,1335 -1426,1335 -695,0 -1623,-385 -1623,-1327 0,-943 928,-2085 1623,-2085l0 -1z"/>
   <path class="fil4" d="M12668 4635c179,0 325,145 325,325 0,179 -145,325 -325,325 -179,0 -325,-145 -325,-325 0,-179 145,-325 325,-325z"/>
   <path class="fil53" d="M12578 4673c104,0 189,85 189,189 0,104 -85,189 -189,189 -104,0 -189,-85 -189,-189 0,-104 85,-189 189,-189z"/>
   <path class="fil0" d="M12581 4749c64,0 116,52 116,116 0,64 -52,116 -116,116 -64,0 -116,-52 -116,-116 0,-64 52,-116 116,-116z"/>
   <path class="fil9" d="M12486 4945c23,0 42,19 42,42 0,23 -19,42 -42,42 -23,0 -42,-19 -42,-42 0,-23 19,-42 42,-42z"/>
   <path class="fil4" d="M12780 4792c45,0 82,36 82,82 0,45 -36,82 -82,82 -45,0 -82,-36 -82,-82 0,-45 36,-82 82,-82z"/>
   <path class="fil4" d="M14458 4635c179,0 325,145 325,325 0,179 -145,325 -325,325 -179,0 -325,-145 -325,-325 0,-179 145,-325 325,-325z"/>
   <path class="fil53" d="M14466 4627c104,0 189,85 189,189 0,104 -85,189 -189,189 -104,0 -189,-85 -189,-189 0,-104 85,-189 189,-189z"/>
   <path class="fil0" d="M14470 4703c64,0 116,52 116,116 0,64 -52,116 -116,116 -64,0 -116,-52 -116,-116 0,-64 52,-116 116,-116z"/>
   <path class="fil9" d="M14374 4899c23,0 42,19 42,42 0,23 -19,42 -42,42 -23,0 -42,-19 -42,-42 0,-23 19,-42 42,-42z"/>
   <path class="fil4" d="M14652 4810c45,0 82,36 82,82 0,45 -36,82 -82,82 -45,0 -82,-36 -82,-82 0,-45 36,-82 82,-82z"/>
   <path class="fil4" d="M13586 4302c179,0 325,145 325,325 0,179 -145,325 -325,325 -179,0 -325,-145 -325,-325 0,-179 145,-325 325,-325z"/>
   <path class="fil53" d="M13594 4293c104,0 189,85 189,189 0,104 -85,189 -189,189 -104,0 -189,-85 -189,-189 0,-104 85,-189 189,-189z"/>
   <path class="fil0" d="M13597 4370c64,0 116,52 116,116 0,64 -52,116 -116,116 -64,0 -116,-52 -116,-116 0,-64 52,-116 116,-116z"/>
   <path class="fil9" d="M13502 4566c23,0 42,19 42,42 0,23 -19,42 -42,42 -23,0 -42,-19 -42,-42 0,-23 19,-42 42,-42z"/>
   <path class="fil4" d="M13767 4496c45,0 82,36 82,82 0,45 -36,82 -82,82 -45,0 -82,-36 -82,-82 0,-45 36,-82 82,-82z"/>
   <path class="fil16" d="M14404 5719c-19,21 -52,34 -105,35 -111,2 -377,-71 -732,-73 -361,-2 -576,86 -717,73 -51,-5 -96,-32 -118,-73 -139,-257 728,-258 827,-257 71,0 1087,35 845,296l0 -1z"/>
   <path class="fil4" d="M14231 5503c19,5 36,10 53,16l40 13 62 30 14 11 -79 29 -67 26 -12 -71 -9 -55 -1 0 -1 1z"/>
   <path class="fil4" d="M14104 5474c43,8 85,17 123,27l-46 41 -53 48 -37 -62 -37 -62 50 8 -1 0 1 0z"/>
   <path class="fil54" d="M12861 6538l0 0c308,0 559,252 559,559l0 374c0,308 -252,559 -559,559l0 0c-308,0 -559,-252 -559,-559l0 -374c0,-308 252,-559 559,-559z"/>
   <path class="fil54" d="M14255 6538l0 0c308,0 559,252 559,559l0 374c0,308 -252,559 -559,559l0 0c-308,0 -559,-252 -559,-559l0 -374c0,-308 252,-559 559,-559z"/>
   <path class="fil52" d="M12587 7774l0 0c58,59 56,155 -3,213l-72 70c-59,58 -155,56 -213,-3l0 0c-58,-59 -56,-155 3,-213l72 -70c59,-58 155,-56 213,3z"/>
   <path class="fil16" d="M12809 7724c6,126 -274,96 -80,-63 9,-8 29,-78 53,-134 18,-42 39,-76 59,-70 64,17 9,85 -8,112 -16,26 -30,69 -26,155l1 0 1 0z"/>
   <path class="fil16" d="M12618 7699c-29,122 -290,17 -59,-82 10,-5 49,-66 88,-114 29,-35 58,-63 76,-51 57,34 -15,85 -38,105 -23,21 -48,59 -67,141l0 1z"/>
   <path class="fil16" d="M12504 7577c-66,107 -280,-75 -30,-96 11,-1 68,-47 120,-80 39,-25 75,-41 88,-25 43,50 -41,76 -69,88 -28,12 -64,41 -109,113l1 -1 -1 1z"/>
   <path class="fil15" d="M12525 7475c-62,91 154,252 303,134 441,-350 -322,-710 -535,-875 -200,-154 -266,-426 -141,-589 91,-117 264,-125 354,-138 265,-34 259,-595 -74,-514 -259,64 -630,707 -549,1029 176,692 956,489 642,951l-1 0 1 2z"/>
   <path class="fil52" d="M13115 7774l0 0c-58,59 -56,155 3,213l72 70c59,58 155,56 213,-3l0 0c58,-59 56,-155 -3,-213l-72 -70c-59,-58 -155,-56 -213,3z"/>
   <path class="fil52" d="M12828 7824l0 0c-83,3 -148,72 -146,155l3 101c3,83 72,148 155,146l0 0c83,-3 148,-72 146,-155l-3 -101c-3,-83 -72,-148 -155,-146z"/>
   <path class="fil52" d="M14003 7774l0 0c58,59 56,155 -3,213l-72 70c-59,58 -155,56 -213,-3l0 0c-58,-59 -56,-155 3,-213l72 -70c59,-58 155,-56 213,3z"/>
   <path class="fil52" d="M14530 7774l0 0c-58,59 -56,155 3,213l72 70c59,58 155,56 213,-3l0 0c58,-59 56,-155 -3,-213l-72 -70c-59,-58 -155,-56 -213,3z"/>
   <path class="fil15" d="M14634 7475c62,91 -154,252 -303,134 -441,-350 322,-710 535,-875 200,-154 266,-426 141,-589 -91,-117 -264,-125 -354,-138 -265,-34 -259,-595 74,-514 259,64 630,707 549,1029 -176,692 -956,489 -642,951l1 0 -1 2z"/>
   <path class="fil15" d="M14351 7724c-6,126 274,96 80,-63 -10,-8 -29,-78 -53,-134 -18,-42 -39,-76 -59,-70 -64,17 -9,85 8,112 16,26 30,69 26,155l-1 0 -1 0z"/>
   <path class="fil15" d="M14541 7699c29,122 290,17 59,-82 -10,-5 -49,-66 -88,-114 -29,-35 -58,-63 -76,-51 -57,34 15,85 38,105 23,21 48,59 67,141l0 1z"/>
   <path class="fil15" d="M14656 7577c66,107 280,-75 30,-96 -11,-1 -68,-47 -120,-80 -39,-25 -75,-41 -88,-25 -43,50 41,76 69,88 28,12 64,41 109,113l-1 -1 1 1z"/>
   <path class="fil52" d="M14243 7824l0 0c-83,3 -148,72 -146,155l3 101c3,83 72,148 155,146l0 0c83,-3 148,-72 146,-155l-3 -101c-3,-83 -72,-148 -155,-146z"/>
   <path class="fil4" d="M12923 5484c-19,5 -36,10 -53,16l-40 13 -62 30 -14 11 79 29 67 26 12 -71 9 -55 1 0 1 1z"/>
   <path class="fil4" d="M13051 5455c-43,8 -85,17 -123,27l46 41 53 48 37 -62 37 -62 -50 8 1 0 -1 0z"/>
   <path class="fil55" d="M18437 10391l-165 34c364,131 739,262 566,832 -85,276 -129,514 -2,780 226,471 -667,784 -402,-276 73,-292 65,-687 -184,-853 -279,-186 -305,-538 188,-517l-1 0z"/>
   <path class="fil56" d="M18205 8309c65,107 221,178 426,45 84,-54 150,-28 185,43 32,65 5,146 87,153 32,3 61,-26 42,-145 -12,-78 64,-48 70,19 9,82 95,120 95,18 2,-226 -364,-224 -582,-273 -135,-30 -319,-144 -345,-33 -9,43 -32,88 21,176l0 -1 1 -2z"/>
   <path class="fil56" d="M18279 7797c48,1481 321,3082 295,3666 -24,537 -479,953 -1015,931 -537,-24 -953,-479 -931,-1015 69,-1581 116,-3270 180,-4748 20,-456 447,-808 954,-785 507,22 1577,385 1557,841 -25,562 -1067,348 -1043,1111l1 -1 2 0z"/>
   <path class="fil4" d="M18807 7155c-229,97 -459,208 -516,480 -457,-84 -640,-723 -567,-895 278,-659 794,103 1082,416l1 -1z"/>
   <path class="fil55" d="M18424 7384c-16,16 -30,33 -44,51 -165,-75 -341,-405 -461,-636 -51,-98 -55,-113 -83,-148 -10,-14 -9,-34 6,-45 14,-10 34,-9 45,6 31,39 36,57 89,158 122,235 306,578 448,614z"/>
   <path class="fil42" d="M18302 8308c65,1046 211,2087 258,2733 -82,59 -183,92 -291,87l0 0c-254,-11 -454,-229 -442,-483l84 -1899c9,-224 179,-405 393,-438l-2 0z"/>
   <path class="fil55" d="M16626 11621c60,283 84,523 -66,777 -266,449 595,840 424,-240 -47,-298 -5,-690 258,-834 476,-260 395,-860 -175,-744 -292,59 -563,466 -442,1042l1 -1z"/>
   <path class="fil57" d="M17379 8722c92,154 316,254 611,64 120,-78 215,-39 265,62 47,92 7,209 125,218 46,4 86,-36 60,-207 -18,-111 91,-69 102,27 12,116 136,172 137,27 2,-323 -520,-320 -833,-391 -193,-44 -457,-207 -494,-47 -14,61 -46,125 29,251l-2 -2 0 -2z"/>
   <path class="fil42" d="M16492 6123c-283,-181 -587,504 38,267 29,-11 217,36 380,55 121,14 227,12 241,-42 45,-171 -186,-135 -267,-133 -82,2 -200,-24 -391,-146l-1 -1z"/>
   <path class="fil42" d="M16296 6596c-322,-97 -424,647 110,246 26,-19 219,-26 380,-52 120,-20 221,-51 220,-107 -4,-177 -216,-78 -293,-53 -78,25 -198,32 -417,-32l0 -1 0 -1z"/>
   <path class="fil4" d="M17358 6845c285,12 525,-208 537,-493 12,-285 -208,-525 -493,-537 -285,-12 -525,208 -537,493 -12,285 208,525 493,537z"/>
   <path class="fil58" d="M17353 6763c238,10 440,-174 450,-412 10,-238 -174,-440 -412,-450 -238,-10 -440,174 -450,412 -10,238 174,440 412,450z"/>
   <path class="fil59" d="M17359 6645c173,8 319,-126 327,-299 8,-173 -126,-319 -299,-327 -173,-8 -319,126 -327,299 -8,173 126,319 299,327z"/>
   <path class="fil4" d="M17656 6500c81,4 149,-59 153,-141 4,-81 -59,-149 -141,-153 -81,-4 -149,59 -153,141 -4,81 59,149 141,153z"/>
   <path class="fil57" d="M17874 5939c-77,-173 -262,-283 -464,-292 -198,-9 -373,92 -482,242 -49,68 -121,230 2,249l762 33c133,10 280,-10 181,-232l1 0z"/>
   <path class="fil42" d="M16424 7024c-336,10 -200,747 181,198 18,-26 200,-93 345,-169 107,-57 195,-119 176,-171 -60,-166 -230,-7 -295,42 -66,47 -179,93 -405,100l-1 0 -1 0z"/>
   <path class="fil42" d="M16529 7581c-202,116 122,522 176,63 3,-22 92,-122 156,-216 47,-70 80,-136 51,-161 -90,-83 -142,71 -167,122 -25,50 -79,116 -216,194l0 -1 0 -1z"/>
   <path class="fil42" d="M16581 7953c-202,116 122,522 176,63 3,-22 92,-122 156,-216 47,-70 80,-136 51,-161 -90,-83 -142,71 -167,122 -25,50 -79,116 -216,194l0 -1 0 -1z"/>
   <path class="fil42" d="M16565 8413c-186,106 112,480 161,57 2,-20 85,-112 142,-198 44,-65 74,-124 47,-149 -84,-76 -131,66 -154,112 -23,47 -72,106 -198,178l0 1 2 -1z"/>
   <path class="fil42" d="M16586 8830c-170,97 103,440 148,52 2,-18 77,-103 131,-181 40,-59 67,-114 44,-137 -76,-69 -120,60 -141,103 -21,43 -66,97 -181,163l-1 0z"/>
   <path class="fil56" d="M16621 12513l0 0c-63,-54 -158,-47 -212,16l-66 76c-54,63 -47,158 16,212l0 0c63,54 158,47 212,-16l66 -76c54,-63 47,-158 -16,-212z"/>
   <path class="fil56" d="M16862 12744l0 0c-63,-54 -158,-47 -212,16l-66 76c-54,63 -47,158 16,212l0 0c63,54 158,47 212,-16l66 -76c54,-63 47,-158 -16,-212z"/>
   <path class="fil57" d="M18753 12176l0 0c53,-39 128,-27 167,28l47 65c39,53 27,128 -28,167l0 0c-53,39 -128,27 -167,-28l-47 -65c-39,-53 -27,-128 28,-167z"/>
   <path class="fil57" d="M18546 12342l0 0c53,-39 128,-27 167,28l47 65c39,53 27,128 -28,167l0 0c-53,39 -128,27 -167,-28l-47 -65c-39,-53 -27,-128 28,-167z"/>
   <path class="fil57" d="M19165 6549c-45,47 -114,75 -189,71 -66,-3 -125,-29 -166,-70 -200,-198 51,-80 177,-78 141,2 338,-87 179,76l-1 1z"/>
  </g>
 </g>
</svg>
