<?xml version="1.0" encoding="UTF-8"?>
<!DOCTYPE svg PUBLIC "-//W3C//DTD SVG 1.1//EN" "http://www.w3.org/Graphics/SVG/1.1/DTD/svg11.dtd">
<!-- Creator: CorelDRAW X6 -->
<svg xmlns="http://www.w3.org/2000/svg" xml:space="preserve" width="225.213mm" height="134.959mm" version="1.1" style="shape-rendering:geometricPrecision; text-rendering:geometricPrecision; image-rendering:optimizeQuality; fill-rule:evenodd; clip-rule:evenodd"
viewBox="0 0 22521 13496"
 xmlns:xlink="http://www.w3.org/1999/xlink">
 <defs>
  <style type="text/css">
   <![CDATA[
    .str10 {stroke:#927164;stroke-width:7.62}
    .str14 {stroke:#99ADC9;stroke-width:7.62}
    .str9 {stroke:#A7BCD9;stroke-width:7.62}
    .str7 {stroke:#B4B4B4;stroke-width:7.62}
    .str5 {stroke:#E9CA93;stroke-width:7.62}
    .str3 {stroke:#EEEEEF;stroke-width:7.62}
    .str1 {stroke:#00B2A4;stroke-width:20}
    .str6 {stroke:#56C3D0;stroke-width:20}
    .str11 {stroke:#575762;stroke-width:20}
    .str15 {stroke:#589AD4;stroke-width:20}
    .str12 {stroke:#5B432B;stroke-width:20}
    .str19 {stroke:#7C6963;stroke-width:20}
    .str16 {stroke:#9DAFB2;stroke-width:20}
    .str17 {stroke:#9DB8BD;stroke-width:20}
    .str8 {stroke:#DEDEDE;stroke-width:20}
    .str4 {stroke:#E9CA93;stroke-width:20}
    .str2 {stroke:#EBCC96;stroke-width:20}
    .str0 {stroke:#EEEEEF;stroke-width:20}
    .str18 {stroke:#9DB8BD;stroke-width:25}
    .str13 {stroke:#59626B;stroke-width:50}
    .fil31 {fill:none}
    .fil5 {fill:#00B2A4}
    .fil24 {fill:#20ABBC}
    .fil19 {fill:#332F26}
    .fil2 {fill:#5196C8}
    .fil11 {fill:#56C3D0}
    .fil25 {fill:#575762}
    .fil0 {fill:#579DCE}
    .fil8 {fill:#58616A}
    .fil36 {fill:#589AD4}
    .fil33 {fill:#5A9BD1}
    .fil28 {fill:#5B432B}
    .fil40 {fill:#6FB0D7}
    .fil32 {fill:#73E9DA}
    .fil23 {fill:#7C6963}
    .fil21 {fill:#7D6A65}
    .fil3 {fill:#82C1E0}
    .fil17 {fill:#927164}
    .fil18 {fill:#99ADC9}
    .fil34 {fill:#9DAFB2}
    .fil35 {fill:#9DB8BD}
    .fil15 {fill:#A7BCD9}
    .fil12 {fill:#B4B4B4}
    .fil41 {fill:#BF7975}
    .fil22 {fill:#BFA188}
    .fil1 {fill:#C5142C}
    .fil13 {fill:#CE2D32}
    .fil37 {fill:#D4E5E9}
    .fil9 {fill:#D57E45}
    .fil29 {fill:#D9C8C1}
    .fil26 {fill:#DC675A}
    .fil20 {fill:#DEB492}
    .fil14 {fill:#DEDEDE}
    .fil30 {fill:#E8B892}
    .fil6 {fill:#E9CA93}
    .fil38 {fill:#EADDC3}
    .fil42 {fill:#EBCC96}
    .fil16 {fill:#EEEEEF}
    .fil43 {fill:#F2C6A2}
    .fil10 {fill:#F2EDD5}
    .fil7 {fill:#F7DCA5}
    .fil27 {fill:#FEFFFF}
    .fil4 {fill:white}
    .fil44 {fill:#7C6963;fill-rule:nonzero}
    .fil39 {fill:#9DB8BD;fill-rule:nonzero}
   ]]>
  </style>
 </defs>
 <g id="Слой_x0020_1">
  <metadata id="CorelCorpID_0Corel-Layer"/>
  <rect class="fil0" x="-12" y="-10" width="22500" height="13500"/>
  <polygon class="fil1" points="19020,5202 19115,5202 19115,5263 19020,5263 "/>
  <polygon class="fil1" points="19020,5356 19118,5356 19118,5404 19020,5404 "/>
  <polygon class="fil2" points="7907,5252 10834,1652 13111,7263 9434,7217 "/>
  <polygon class="fil2" points="11688,5259 14616,1659 16875,7182 13215,7225 "/>
  <path class="fil2" d="M15373 5259l2928 -3600c310,970 620,1940 930,2910 756,2368 -588,2101 -2330,2659l-1527 -1969 -1 0z"/>
  <path class="fil3" d="M12013 1342l2264 0c197,0 356,131 356,292l0 3526c0,161 -159,292 -356,292l-2264 0c-197,0 -356,-131 -356,-292l0 -3526c0,-161 159,-292 356,-292z"/>
  <polygon class="fil2" points="4006,5252 6934,1652 9828,7158 5533,7217 "/>
  <path class="fil2" d="M3971 10549l2963 -3053 1483 4641c-1954,625 -2803,1221 -3569,943 -259,-94 -555,-252 -786,-613 -36,-56 -85,-1482 -76,-1509 102,-313 112,-241 -14,-409l-1 0z"/>
  <path class="fil3" d="M4332 7180l2264 0c197,0 356,131 356,292l0 3526c0,161 -159,292 -356,292l-2264 0c-197,0 -356,-131 -356,-292l0 -3526c0,-161 159,-292 356,-292z"/>
  <path class="fil3" d="M4328 1342l2264 0c197,0 356,131 356,292l0 3526c0,161 -159,292 -356,292l-2264 0c-197,0 -356,-131 -356,-292l0 -3526c0,-161 159,-292 356,-292z"/>
  <path class="fil4" d="M5132 4277l656 0c243,0 415,-30 493,205 112,336 96,604 98,969 0,15 -1616,-7 -1842,-6 1,-357 -17,-608 102,-958 100,-294 197,-210 492,-210l1 0z"/>
  <ellipse class="fil5 str0" cx="5480" cy="4855" rx="285" ry="235"/>
  <path class="fil5 str1" d="M5492 4545l0 55c0,97 80,177 177,177l0 0c97,0 177,-80 177,-177l0 -119c0,-94 -74,-171 -166,-177l0 240 -188 0 0 1z"/>
  <path class="fil5 str1" d="M5445 4562l0 55c0,97 -80,177 -177,177l0 0c-97,0 -177,-80 -177,-177l0 -119c0,-94 74,-171 166,-177l0 240 188 0 0 1z"/>
  <rect class="fil6" x="5199" y="3817" width="518" height="695"/>
  <ellipse class="fil7 str2" cx="5451" cy="3370" rx="529" ry="665"/>
  <path class="fil8" d="M4912 3770c-12,-65 -67,-210 -66,-269 0,-10 15,11 15,1 1,-15 3,-31 6,-49 11,-77 75,-48 108,-91 69,-88 150,-176 255,-202 178,-45 358,-73 366,-332 267,262 406,628 232,984 -26,54 -75,119 -73,119 2,0 108,-41 192,-98 426,-289 270,-980 -71,-1282 -698,-619 -1808,424 -963,1219l-1 0z"/>
  <rect class="fil5 str3" x="5952" y="5185" width="319.52" height="88.51"/>
  <ellipse class="fil6 str4" cx="5457" cy="4515" rx="253" ry="179"/>
  <ellipse class="fil6 str5" transform="matrix(0.83329 -0.155056 0.155056 0.83329 4879.79 3388.4)" rx="87" ry="188"/>
  <ellipse class="fil6 str5" transform="matrix(-0.83329 -0.155056 -0.155056 0.83329 5959.19 3388.4)" rx="87" ry="188"/>
  <polygon class="fil9" points="12383,2914 13834,2933 13879,3087 13906,4091 12345,4091 12325,3107 "/>
  <path class="fil10" d="M12809 4270l656 0c243,0 415,-30 493,205 112,336 96,604 98,969 0,15 -1616,-7 -1842,-6 1,-357 -17,-608 102,-958 100,-294 197,-210 492,-210l1 0z"/>
  <ellipse class="fil11 str6" cx="13156" cy="4848" rx="285" ry="235"/>
  <path class="fil11 str6" d="M13169 4537l0 55c0,97 80,177 177,177l0 0c97,0 177,-80 177,-177l0 -119c0,-94 -74,-171 -166,-177l0 240 -188 0 0 1z"/>
  <path class="fil11 str6" d="M13121 4555l0 55c0,97 -80,177 -177,177l0 0c-97,0 -177,-80 -177,-177l0 -119c0,-94 74,-171 166,-177l0 240 188 0 0 1z"/>
  <rect class="fil6" x="12875" y="3810" width="518" height="695"/>
  <ellipse class="fil7 str2" cx="13128" cy="3363" rx="529" ry="665"/>
  <path class="fil9" d="M13576 3763c12,-65 67,-210 66,-269 0,-10 -15,12 -15,1 -1,-15 -3,-31 -6,-49 -11,-77 -75,-48 -108,-91 -69,-88 -150,-176 -255,-202 -178,-45 -358,-73 -366,-332 -267,262 -406,628 -232,984 26,54 75,119 73,119 -2,0 -108,-41 -192,-98 -123,-84 -191,-205 -195,-346 -11,-376 -110,-668 256,-946 253,-193 622,-241 919,-40 372,251 549,803 54,1270l1 -1z"/>
  <rect class="fil12 str7" x="13629" y="5178" width="319.52" height="88.51"/>
  <ellipse class="fil6 str4" cx="13135" cy="4510" rx="252" ry="179"/>
  <ellipse class="fil6 str5" transform="matrix(0.83329 -0.155056 0.155056 0.83329 12556.2 3381.2)" rx="87" ry="188"/>
  <ellipse class="fil6 str5" transform="matrix(-0.83329 -0.155056 -0.155056 0.83329 13635.7 3381.2)" rx="87" ry="188"/>
  <path class="fil3" d="M8248 1342l2264 0c197,0 356,131 356,292l0 3526c0,161 -159,292 -356,292l-2264 0c-197,0 -356,-131 -356,-292l0 -3526c0,-161 159,-292 356,-292z"/>
  <rect class="fil5" x="8449" y="4287" width="1839" height="1174"/>
  <rect class="fil6" x="9109" y="3907" width="518" height="695"/>
  <ellipse class="fil7 str2" cx="9362" cy="3380" rx="529" ry="665"/>
  <path class="fil13" d="M9319 2372c442,0 801,421 801,941 0,297 -117,563 -301,735 26,-139 69,-156 46,-318 -74,-506 -733,-408 -749,-892 -271,266 -269,714 -175,1059 10,36 39,197 84,292 -297,-138 -507,-478 -507,-876 0,-520 359,-941 801,-941z"/>
  <ellipse class="fil6 str4" cx="9373" cy="4496" rx="257" ry="237"/>
  <path class="fil14 str8" d="M9297 4607l0 55c0,97 -80,177 -177,177l0 0c-97,0 -177,-80 -177,-177l0 -119c0,-94 74,-171 166,-177l0 240 188 0 0 1z"/>
  <path class="fil14 str8" d="M9439 4607l0 55c0,97 80,177 177,177l0 0c97,0 177,-80 177,-177l0 -119c0,-94 -74,-171 -166,-177l0 240 -188 0 0 1z"/>
  <polygon class="fil15 str9" points="9367,5449 9244,5023 9122,4597 9367,4597 9612,4597 9489,5023 "/>
  <rect class="fil14" x="9862" y="5195" width="319.52" height="88.51"/>
  <path class="fil3" d="M15692 1342l2264 0c197,0 356,131 356,292l0 3526c0,161 -159,292 -356,292l-2264 0c-197,0 -356,-131 -356,-292l0 -3526c0,-161 159,-292 356,-292z"/>
  <path class="fil0" d="M16140 4289l1350 0c135,0 245,110 245,245l2 929c0,15 -1616,-7 -1842,-6l1 -923c0,-135 110,-245 245,-245l-1 0z"/>
  <rect class="fil6" x="16556" y="3909" width="518" height="695"/>
  <ellipse class="fil7 str2" cx="16808" cy="3382" rx="529" ry="665"/>
  <ellipse class="fil6 str4" cx="16819" cy="4498" rx="257" ry="237"/>
  <path class="fil16 str0" d="M16767 4649l0 55c0,97 -80,177 -177,177l0 0c-97,0 -177,-80 -177,-177l0 -119c0,-94 74,-171 166,-177l0 240 188 0 0 1z"/>
  <path class="fil17" d="M17246 3782c26,-139 69,-156 46,-318 -74,-506 -713,-140 -729,-624 -217,213 -259,544 -219,844 105,253 350,679 232,880 -129,221 -98,389 -98,666 0,72 -371,-263 -421,-498 -57,-271 112,-348 146,-500 31,-138 -133,-379 -184,-574 -36,-107 -55,-223 -55,-344 0,-307 125,-580 319,-752 698,-619 1808,424 963,1219l0 1z"/>
  <path class="fil16 str0" d="M16886 4608l0 55c0,97 80,177 177,177l0 0c97,0 177,-80 177,-177l0 -119c0,-94 -74,-171 -166,-177l0 240 -188 0 0 1z"/>
  <path class="fil16 str0" d="M16707 4877l-37 41c-66,72 -60,184 12,250l0 0c72,66 184,60 250,-12l80 -88c63,-69 61,-176 -4,-243l-162 178 -139 -126z"/>
  <path class="fil16 str0" d="M16884 4877l37 41c66,72 60,184 -12,250l0 0c-72,66 -184,60 -250,-12l-80 -88c-63,-69 -61,-176 4,-243l162 178 139 -126z"/>
  <polygon class="fil18 str9" points="16814,5451 16691,5025 16569,4599 16814,4599 17059,4599 16936,5025 "/>
  <rect class="fil16 str3" x="17309" y="5197" width="319.52" height="88.51"/>
  <path class="fil2" d="M6884 11360l3951 -3865 1483 4641c-3138,1006 -3491,1723 -5433,-777l-1 1z"/>
  <path class="fil2" d="M10930 11367l3686 -3865 1483 4641c-3138,1006 -3227,1723 -5169,-777l0 1z"/>
  <path class="fil2" d="M14261 11279l4039 -3777c257,806 515,1611 772,2417 753,2357 380,2390 -1274,2882 -1921,572 -2557,-261 -3537,-1522z"/>
  <path class="fil3" d="M12013 7180l2264 0c197,0 356,131 356,292l0 3526c0,161 -159,292 -356,292l-2264 0c-197,0 -356,-131 -356,-292l0 -3526c0,-161 159,-292 356,-292z"/>
  <path class="fil19" d="M13681 9366l-1079 0 0 444c99,100 143,143 264,208l602 0 215 -177 -2 -475z"/>
  <rect class="fil5" x="12301" y="10120" width="1839" height="1174"/>
  <rect class="fil6" x="12962" y="9740" width="518" height="695"/>
  <ellipse class="fil7 str2" cx="13215" cy="9214" rx="529" ry="665"/>
  <path class="fil20" d="M13253 9494l16 48 -112 5c-29,-45 -39,-16 -60,-5 4,-70 40,-141 26,-210 -10,-47 9,-74 -144,-85 -112,-9 -229,39 -255,71 -11,14 108,-146 96,-154 0,-14 46,-11 79,-15 22,-3 77,-46 135,-46 110,-1 132,128 132,214 0,54 -7,123 -13,138 -31,75 94,93 99,39l1 0z"/>
  <path class="fil14" d="M13118 9243c-1,-10 -4,-6 -12,-2 -31,18 -103,-32 -162,-44 -62,-12 -113,-5 -151,7 -4,11 29,27 63,49 46,30 101,68 113,72 55,20 154,-15 148,-83l1 1z"/>
  <ellipse class="fil21" cx="12998" cy="9288" rx="57" ry="41"/>
  <ellipse class="fil16" cx="12961" cy="9275" rx="31" ry="23"/>
  <ellipse class="fil16" cx="12994" cy="9286" rx="7" ry="8"/>
  <path class="fil22" d="M13115 9275c-4,9 -6,4 -12,-2 -23,-27 -108,-3 -167,-12 -62,-9 -116,-29 -149,-52 0,-14 46,-11 79,-15 22,-3 77,-46 135,-46 58,-1 140,64 113,127l1 0z"/>
  <path class="fil23" d="M13171 8205c-442,0 -801,421 -801,941 0,297 117,563 301,735 -26,-139 -69,-156 -46,-318 74,-506 733,-408 749,-892 271,266 269,714 175,1059 -10,36 -39,197 -84,292 297,-138 507,-478 507,-876 0,-520 -359,-941 -801,-941z"/>
  <ellipse class="fil6 str4" cx="13225" cy="10330" rx="257" ry="237"/>
  <path class="fil14 str8" d="M13150 10440l0 55c0,97 -80,177 -177,177l0 0c-97,0 -177,-80 -177,-177l0 -119c0,-94 74,-171 166,-177l0 240 188 0 0 1z"/>
  <path class="fil14 str8" d="M13292 10440l0 55c0,97 80,177 177,177l0 0c97,0 177,-80 177,-177l0 -119c0,-94 -74,-171 -166,-177l0 240 -188 0 0 1z"/>
  <polygon class="fil17 str10" points="13220,11282 13097,10856 12975,10430 13220,10430 13465,10430 13342,10856 "/>
  <rect class="fil14" x="13715" y="11028" width="319.52" height="88.51"/>
  <path class="fil24" d="M4810 10115l1350 0c135,0 245,110 245,245l2 929c0,15 -1616,-7 -1842,-6l1 -923c0,-135 110,-245 245,-245l-1 0z"/>
  <ellipse class="fil16 str0" cx="5506" cy="10693" rx="285" ry="235"/>
  <path class="fil16 str0" d="M5519 10382l0 55c0,97 80,177 177,177l0 0c97,0 177,-80 177,-177l0 -119c0,-94 -74,-171 -166,-177l0 240 -188 0 0 1z"/>
  <path class="fil16 str0" d="M5472 10400l0 55c0,97 -80,177 -177,177l0 0c-97,0 -177,-80 -177,-177l0 -119c0,-94 74,-171 166,-177l0 240 188 0 0 1z"/>
  <rect class="fil6" x="5226" y="9655" width="518" height="695"/>
  <ellipse class="fil7 str2" cx="5478" cy="9208" rx="529" ry="665"/>
  <rect class="fil25 str11" transform="matrix(0.96436 0.567427 -0.413788 0.703246 4979.71 9176.22)" width="79.37" height="58.21"/>
  <rect class="fil25 str11" transform="matrix(-0.96436 0.567427 0.413788 0.703246 5972.97 9172.62)" width="79.37" height="58.21"/>
  <path class="fil8" d="M5916 9608c26,-139 69,-156 46,-318 -74,-506 -713,-140 -729,-624 -217,213 -259,544 -219,844 105,253 350,679 232,880 -129,221 -98,389 -98,666 0,72 -371,-263 -421,-498 -57,-271 112,-348 146,-500 31,-137 -133,-379 -184,-574 -36,-107 -55,-223 -55,-344 0,-307 125,-580 319,-752 698,-619 1808,424 963,1219l0 1z"/>
  <path class="fil14" d="M5934 8405l0 -725 -974 0 0 723c140,51 308,81 490,81 179,0 346,-29 484,-79z"/>
  <rect class="fil26" x="5386" y="7940" width="122" height="287"/>
  <rect class="fil26" x="5264" y="8024" width="366" height="102"/>
  <rect class="fil26" x="5397" y="8002" width="101" height="152"/>
  <rect class="fil16 str3" x="5979" y="11023" width="319.52" height="88.51"/>
  <path class="fil20" d="M5479 9243l1 2 -2 -1 2 -1 -1 0zm73 251l16 48 -112 5c-29,-45 -39,-16 -60,-5l30 -276 36 -15 -6 5c18,16 7,175 -3,199 -31,75 94,93 99,39z"/>
  <path class="fil27" d="M5256 9202c92,14 136,42 129,91 -7,48 -86,82 -178,68 -92,-14 -161,-75 -155,-119 4,-29 54,14 106,5 26,-4 68,-50 98,-46l0 1z"/>
  <ellipse class="fil28 str12" transform="matrix(-0.422748 0.0257511 0.0174023 0.285689 5266.89 9332.2)" rx="126" ry="112"/>
  <path class="fil28" d="M5128 9155c34,0 75,-29 97,-22 -6,-1 -12,-2 -19,-3l0 0 -1 0c-44,-7 -79,38 -110,50 -29,10 -31,45 -35,63 15,10 35,20 59,28 25,9 53,16 83,20 20,3 81,4 119,5 15,0 31,4 39,8 -15,-4 -29,-3 -36,-2 -33,3 -85,5 -101,8 -7,-1 -15,-2 -23,-3 -31,-5 -60,-12 -86,-21 -27,-9 -49,-21 -66,-33l-4 -3 0 -4 0 -1 0 0 0 -1 0 0 0 0 0 0c7,-47 45,-87 84,-86l0 -3z"/>
  <ellipse class="fil29" transform="matrix(-0.618113 0.0376514 0.0376514 0.618113 5223.99 9322.4)" rx="23" ry="24"/>
  <path class="fil30" d="M5381 9260c3,5 7,17 7,28 -1,12 -7,23 -7,23 -4,9 -6,4 -12,-2 -23,-27 -108,-3 -167,-12 -62,-9 -116,-29 -149,-52 0,-1 0,-2 0,-2 5,-31 17,-1 73,-8 36,-5 167,-123 254,26l1 -1z"/>
  <path class="fil25 str11" d="M5414 9230l119 0 0 41 -14 0c-12,-7 -28,-11 -46,-11 -18,0 -34,4 -46,11l-14 0 0 -41 1 0z"/>
  <ellipse class="fil31 str13" cx="5227" cy="9251" rx="178" ry="127"/>
  <path class="fil27" d="M5696 9201c-92,14 -131,47 -123,95 7,48 81,78 173,64 92,-14 161,-75 155,-119 -4,-29 -47,11 -99,3 -26,-4 -75,-49 -106,-44l0 1z"/>
  <path class="fil30" d="M5574 9260c-3,5 -7,17 -7,28 1,12 7,23 7,23 4,9 6,4 12,-2 23,-27 108,-3 167,-12 62,-9 116,-29 149,-52 0,-1 0,-2 0,-2 -5,-31 -22,-5 -79,-12 -36,-5 -162,-119 -248,30l-1 -1z"/>
  <ellipse class="fil28 str12" transform="matrix(0.422748 0.0257511 -0.0174023 0.285689 5686.79 9332.2)" rx="126" ry="112"/>
  <path class="fil28" d="M5825 9155c-34,0 -75,-29 -97,-22 6,-1 12,-2 19,-3l0 0 1 0c44,-7 79,38 110,50 29,10 31,45 35,63 -15,10 -35,20 -59,28 -25,9 -53,16 -83,20 -20,3 -81,4 -119,5 -15,0 -31,4 -39,8 15,-4 29,-3 36,-2 33,3 85,5 101,8 7,-1 15,-2 22,-3 31,-5 60,-12 86,-21 27,-9 49,-21 66,-33l4 -3 0 -4 0 -1 0 0 0 -1 0 0 0 0 0 0c-7,-47 -45,-87 -84,-86l1 -3z"/>
  <ellipse class="fil29" transform="matrix(0.618113 0.0376514 -0.0376514 0.618113 5729.69 9322.4)" rx="23" ry="24"/>
  <ellipse class="fil31 str13" cx="5722" cy="9251" rx="178" ry="127"/>
  <ellipse class="fil6 str4" cx="5505" cy="10353" rx="231" ry="179"/>
  <ellipse class="fil18" cx="5444" cy="7696" rx="477" ry="54"/>
  <path class="fil3" d="M8248 7180l2264 0c197,0 356,131 356,292l0 3526c0,161 -159,292 -356,292l-2264 0c-197,0 -356,-131 -356,-292l0 -3526c0,-161 159,-292 356,-292z"/>
  <path class="fil32" d="M8695 10110l1350 0c135,0 245,110 245,245l2 929c0,15 -1616,-7 -1842,-6l1 -923c0,-135 110,-245 245,-245l-1 0z"/>
  <polygon class="fil5" points="9636,10108 9981,10652 9729,10678 9527,10678 9583,10394 "/>
  <polygon class="fil5" points="9103,10106 8758,10650 9010,10676 9212,10676 9156,10392 "/>
  <rect class="fil6" x="9111" y="9730" width="518" height="695"/>
  <ellipse class="fil7 str2" cx="9364" cy="9203" rx="529" ry="665"/>
  <polygon class="fil18 str14" points="9368,11273 9239,10848 9110,10422 9368,10422 9625,10422 9496,10848 "/>
  <rect class="fil16 str3" x="9864" y="11018" width="319.52" height="88.51"/>
  <polygon class="fil5" points="9583,10571 9375,11264 9586,10910 9830,10730 "/>
  <polygon class="fil5" points="9159,10571 9367,11264 9156,10910 8912,10730 "/>
  <path class="fil19" d="M9407 8196c-56,0 -111,9 -164,24l109 0 0 706 485 0c17,181 -7,630 -52,795 -10,36 -39,197 -84,292 297,-138 507,-478 507,-876 0,-520 -359,-941 -801,-941z"/>
  <path class="fil19" d="M9325 8196c56,0 111,9 164,24l-109 0 0 706 -485 0c-17,181 7,630 52,795 10,36 39,197 84,292 -297,-138 -507,-478 -507,-876 0,-520 359,-941 801,-941z"/>
  <path class="fil3" d="M15692 7180l2264 0c197,0 356,131 356,292l0 3526c0,161 -159,292 -356,292l-2264 0c-197,0 -356,-131 -356,-292l0 -3526c0,-161 159,-292 356,-292z"/>
  <path class="fil4" d="M16149 10114l1350 0c135,0 245,110 245,245l2 929c0,15 -1616,-7 -1842,-6l1 -923c0,-135 110,-245 245,-245l-1 0z"/>
  <ellipse class="fil33 str15" cx="16845" cy="10692" rx="285" ry="235"/>
  <path class="fil34 str16" d="M16858 10381l0 55c0,97 80,177 177,177l0 0c97,0 177,-80 177,-177l0 -119c0,-94 -74,-171 -166,-177l0 240 -188 0 0 1z"/>
  <path class="fil34 str16" d="M16810 10398l0 55c0,97 -80,177 -177,177l0 0c-97,0 -177,-80 -177,-177l0 -119c0,-94 74,-171 166,-177l0 240 188 0 0 1z"/>
  <rect class="fil6" x="16564" y="9654" width="518" height="695"/>
  <ellipse class="fil7 str2" cx="16817" cy="9207" rx="529" ry="665"/>
  <rect class="fil35 str17" transform="matrix(1.17156 -0.401569 0.264568 0.771867 17214.5 9228)" width="79.37" height="58.21"/>
  <rect class="fil35 str17" transform="matrix(1.17156 0.401569 0.264568 -0.771867 16320.4 9241.1)" width="79.37" height="58.21"/>
  <ellipse class="fil6 str4" cx="16844" cy="10351" rx="231" ry="179"/>
  <path class="fil8" d="M17300 9289c-34,-232 -234,-660 -239,-664 -30,70 -61,252 -226,374 -169,124 -403,108 -483,290 -145,330 390,829 232,1100 -129,221 -98,389 -98,666 0,72 -371,-263 -421,-498 -57,-271 112,-348 146,-500 31,-137 -133,-379 -184,-574 -36,-107 -55,-223 -55,-344 0,-307 125,-580 319,-752 166,-147 354,-200 535,-185 180,-15 369,38 535,185 194,172 319,445 319,752 0,121 -20,237 -55,344 -51,195 -215,436 -184,574 35,153 204,230 146,500 -50,235 -421,570 -421,498 0,-277 31,-446 -98,-666 -158,-271 284,-744 232,-1100z"/>
  <rect class="fil36 str3" x="17318" y="11022" width="319.52" height="88.51"/>
  <path class="fil20" d="M16819 9306l1 2 -2 -1 2 -1 -1 0zm69 204l16 48 -112 5c-29,-45 -39,-16 -60,-5l34 -229 36 -15 -6 5c18,16 3,128 -7,152 -31,75 94,93 99,39z"/>
  <rect class="fil35 str17" x="16778" y="9223" width="64.76" height="47.5"/>
  <path class="fil37" d="M17316 8388l0 -725 -974 0 0 723c140,51 308,81 490,81 179,0 346,-29 484,-79z"/>
  <rect class="fil26" x="16768" y="7923" width="122" height="287"/>
  <rect class="fil26" x="16646" y="8007" width="366" height="102"/>
  <rect class="fil26" x="16779" y="7984" width="101" height="152"/>
  <ellipse class="fil35" cx="16826" cy="7679" rx="477" ry="54"/>
  <rect class="fil38" x="16421" y="9163" width="354" height="164"/>
  <path class="fil39" d="M16421 9142l354 0 20 0 0 20 0 164 0 20 -20 0 -354 0 -20 0 0 -20 0 -164 0 -20 20 0zm334 41l-313 0 0 123 313 0 0 -123z"/>
  <rect class="fil38" x="16857" y="9163" width="354" height="164"/>
  <path class="fil39" d="M16857 9142l354 0 20 0 0 20 0 164 0 20 -20 0 -354 0 -20 0 0 -20 0 -164 0 -20 20 0zm334 41l-313 0 0 123 313 0 0 -123z"/>
  <rect class="fil40" x="4012" y="6324" width="2884" height="198"/>
  <rect class="fil40" x="7933" y="6324" width="2884" height="198"/>
  <rect class="fil40" x="11801" y="6324" width="2884" height="198"/>
  <rect class="fil40" x="15428" y="6324" width="2884" height="198"/>
  <rect class="fil40" x="4025" y="11841" width="2884" height="572"/>
  <ellipse class="fil6 str5" transform="matrix(-0.83329 -0.155056 -0.155056 0.83329 17334.6 3397.5)" rx="87" ry="188"/>
  <rect class="fil40" x="7974" y="11841" width="2884" height="572"/>
  <rect class="fil40" x="11745" y="11841" width="2884" height="572"/>
  <rect class="fil40" x="15400" y="11841" width="2884" height="572"/>
  <path class="fil4" d="M9849 8373l0 -725 -974 0 0 723c140,51 308,81 490,81 179,0 346,-29 484,-79z"/>
  <rect class="fil35 str18" x="9339" y="7897" width="45.55" height="224.27"/>
  <rect class="fil35 str18" transform="matrix(0.00646573 0.662172 -0.662172 0.00646573 9477.97 7981.92)" width="68.79" height="338.67"/>
  <ellipse class="fil14" cx="9359" cy="7663" rx="477" ry="54"/>
  <path class="fil20" d="M5337 9664c1,-1 138,-23 157,-20 19,-3 162,19 163,20 -25,11 -60,35 -85,47 -25,12 -49,16 -73,2l-1 -1 -1 1c-24,14 -49,10 -73,-2 -25,-12 -61,-36 -85,-48l-2 1z"/>
  <path class="fil41" d="M5337 9664c0,0 16,8 33,9 21,1 49,2 72,-2 32,-5 40,-10 55,-9 16,1 39,8 86,11 15,1 30,0 43,-1 16,-1 30,-8 30,-8 -8,-3 -18,-2 -27,-5 -20,-7 -41,-14 -59,-23 -25,-12 -49,-16 -73,-2l-1 1 -1 -1c-24,-14 -49,-10 -73,2 -16,8 -36,15 -54,22 -10,4 -23,2 -31,6z"/>
  <path class="fil20" d="M9341 9290l1 2 -2 -1 2 -1 -1 0zm69 204l16 48 -112 5c-29,-45 -39,-16 -60,-5l34 -229 36 -15 -6 5c18,16 3,128 -7,152 -31,75 94,93 99,39z"/>
  <path class="fil42" d="M9194 9664c1,-1 138,-23 157,-20 19,-3 162,19 163,20 -25,11 -60,35 -85,47 -25,12 -49,16 -73,2l-1 -1 -1 1c-24,14 -49,10 -73,-2 -25,-12 -61,-36 -85,-48l-2 1z"/>
  <path class="fil41" d="M9194 9664c0,0 16,8 33,9 21,1 49,2 72,-2 32,-5 40,-10 55,-9 16,1 39,8 86,11 15,1 30,0 43,-1 16,-1 30,-8 30,-8 -8,-3 -18,-2 -27,-5 -20,-7 -41,-14 -59,-23 -25,-12 -49,-16 -73,-2l-1 1 -1 -1c-24,-14 -49,-10 -73,2 -16,8 -36,15 -54,22 -10,4 -23,2 -31,6z"/>
  <path class="fil42" d="M13037 9664c1,-1 138,-23 157,-20 19,-3 162,19 163,20 -25,11 -60,35 -85,47 -25,12 -49,16 -73,2l-1 -1 -1 1c-24,14 -49,10 -73,-2 -25,-12 -61,-36 -85,-48l-2 1z"/>
  <path class="fil20" d="M13037 9664c0,0 16,8 33,9 21,1 49,2 72,-2 32,-5 40,-10 55,-9 16,1 39,8 86,11 15,1 30,0 43,-1 16,-1 30,-8 30,-8 -8,-3 -18,-2 -27,-5 -20,-7 -41,-14 -59,-23 -25,-12 -49,-16 -73,-2l-1 1 -1 -1c-24,-14 -49,-10 -73,2 -16,8 -36,15 -54,22 -10,4 -23,2 -31,6z"/>
  <path class="fil43" d="M16643 9631c1,0 68,24 112,18 29,-4 56,-7 64,-5 6,-1 27,-3 49,3 62,18 123,-27 124,-26 6,2 -103,131 -169,92l-1 -1 -1 1c-24,14 -47,6 -73,-2 -34,-9 -90,-66 -104,-81l-1 1z"/>
  <path class="fil20" d="M16643 9630c4,3 10,9 16,16 19,21 84,29 110,25 32,-5 40,-10 55,-9 16,1 39,8 86,11 49,3 73,-47 82,-53 -1,0 -63,32 -94,17 -25,-12 -49,-16 -73,-2l-1 1 -1 -1c-24,-14 -49,-10 -73,2 -33,16 -106,-7 -106,-7l-1 0z"/>
  <path class="fil23" d="M13352 9116c50,-44 98,-64 135,-60 68,7 108,75 115,71 27,-15 -75,-83 -170,-92 -178,-16 -204,190 -80,81z"/>
  <path class="fil23" d="M13039 9116c-50,-44 -98,-64 -135,-60 -68,7 -108,75 -115,71 -27,-15 75,-83 170,-92 178,-16 204,190 80,81z"/>
  <path class="fil14" d="M13265 9243c1,-10 4,-6 12,-2 31,18 103,-32 162,-44 62,-12 113,-5 151,7 4,11 -29,27 -63,49 -46,30 -101,68 -113,72 -55,20 -154,-15 -148,-83l-1 1z"/>
  <ellipse class="fil21" cx="13385" cy="9288" rx="57" ry="41"/>
  <path class="fil30" d="M13267 9268c4,9 6,4 12,-2 23,-27 108,-3 167,-12 62,-9 116,-29 149,-52 0,-14 -46,-11 -79,-15 -22,-3 -77,-46 -135,-46 -58,-1 -140,64 -113,127l-1 0z"/>
  <ellipse class="fil16" cx="13421" cy="9275" rx="31" ry="23"/>
  <ellipse class="fil16" cx="13388" cy="9286" rx="7" ry="8"/>
  <rect class="fil23 str19" transform="matrix(1.17156 -0.401569 0.264568 0.771867 9760.81 9228)" width="79.37" height="58.21"/>
  <rect class="fil23 str19" transform="matrix(1.17156 0.401569 0.264568 -0.771867 8866.71 9241.1)" width="79.37" height="58.21"/>
  <rect class="fil23 str19" x="9325" y="9223" width="64.76" height="47.5"/>
  <rect class="fil38" x="8967" y="9163" width="354" height="164"/>
  <path class="fil44" d="M8967 9142l354 0 20 0 0 20 0 164 0 20 -20 0 -354 0 -20 0 0 -20 0 -164 0 -20 20 0zm334 41l-313 0 0 123 313 0 0 -123z"/>
  <rect class="fil38" x="9403" y="9163" width="354" height="164"/>
  <path class="fil44" d="M9403 9142l354 0 20 0 0 20 0 164 0 20 -20 0 -354 0 -20 0 0 -20 0 -164 0 -20 20 0zm334 41l-313 0 0 123 313 0 0 -123z"/>
 </g>
</svg>
