<?xml version="1.0" encoding="UTF-8"?>
<!DOCTYPE svg PUBLIC "-//W3C//DTD SVG 1.1//EN" "http://www.w3.org/Graphics/SVG/1.1/DTD/svg11.dtd">
<!-- Creator: CorelDRAW X6 -->
<svg xmlns="http://www.w3.org/2000/svg" xml:space="preserve" width="225.213mm" height="134.959mm" version="1.1" style="shape-rendering:geometricPrecision; text-rendering:geometricPrecision; image-rendering:optimizeQuality; fill-rule:evenodd; clip-rule:evenodd"
viewBox="0 0 22521 13496"
 xmlns:xlink="http://www.w3.org/1999/xlink">
 <defs>
  <style type="text/css">
   <![CDATA[
    .str0 {stroke:#7B6848;stroke-width:67.73}
    .fil24 {fill:none}
    .fil30 {fill:#041C33}
    .fil15 {fill:#0D313F}
    .fil11 {fill:#0E141A}
    .fil31 {fill:#14313B}
    .fil12 {fill:#184048}
    .fil10 {fill:#192129}
    .fil13 {fill:#2A5452}
    .fil22 {fill:#2C4B4E}
    .fil19 {fill:#373F34}
    .fil9 {fill:#445547}
    .fil25 {fill:#4E5647}
    .fil29 {fill:#507369}
    .fil23 {fill:#516258}
    .fil8 {fill:#58523A}
    .fil20 {fill:#5A7A68}
    .fil27 {fill:#657B6C}
    .fil21 {fill:#739279}
    .fil2 {fill:#7DAE9E}
    .fil6 {fill:#908857}
    .fil14 {fill:#9B9E85}
    .fil32 {fill:#A3A689}
    .fil28 {fill:#A9B899}
    .fil5 {fill:#ADB297}
    .fil16 {fill:#B4C0A1}
    .fil4 {fill:#D2D4BF}
    .fil0 {fill:#E9E5D9}
    .fil18 {fill:#0D313F;fill-rule:nonzero}
    .fil26 {fill:#657B6C;fill-rule:nonzero}
    .fil1 {fill:#6D6F4C;fill-rule:nonzero}
    .fil17 {fill:#7B6848;fill-rule:nonzero}
    .fil3 {fill:#7DAE9E;fill-rule:nonzero}
    .fil7 {fill:#B5A467;fill-rule:nonzero}
   ]]>
  </style>
 </defs>
 <g id="Слой_x0020_1">
  <metadata id="CorelCorpID_0Corel-Layer"/>
  <rect class="fil0" x="-14" y="3" width="22544" height="13467"/>
  <path class="fil1" d="M17006 9706c189,0 367,48 522,132 140,75 262,180 357,307 4,-2 7,-4 11,-6 27,-14 56,-22 86,-22 144,0 237,195 274,439 12,82 19,172 19,261 0,90 -5,178 -18,259 -34,225 -123,397 -275,397 -27,0 -53,-6 -79,-18 -2,-1 -3,-1 -5,-2 -95,132 -219,242 -362,320 -158,87 -338,136 -531,136 -193,0 -375,-50 -533,-138 -143,-79 -266,-189 -361,-321 -2,1 -4,2 -6,3 -26,13 -53,19 -81,19 -154,0 -245,-178 -280,-408 -14,-92 -20,-194 -18,-295 2,-102 12,-202 30,-291 42,-212 133,-369 271,-362 30,2 60,10 88,25 3,2 7,4 10,6 95,-127 217,-232 357,-308 156,-85 335,-133 524,-133zm460 246c-137,-74 -294,-116 -460,-116 -167,0 -325,42 -462,117 -143,77 -264,189 -352,325l-47 72 -57 -65c-12,-13 -24,-23 -36,-29 -11,-6 -21,-9 -32,-9 -59,-3 -107,108 -137,257 -17,83 -26,175 -28,268 -2,93 4,187 17,273 26,167 76,297 151,297 8,0 16,-2 25,-6 11,-5 22,-14 32,-25l58 -59 44 70c87,139 209,255 354,335 139,77 299,121 470,121 170,0 329,-43 468,-120 144,-79 266,-194 353,-332l43 -68 58 56c11,10 21,18 31,23 8,4 15,5 23,5 73,0 122,-124 146,-286 12,-75 17,-157 17,-239 0,-82 -7,-165 -18,-243 -27,-182 -78,-327 -144,-327 -9,0 -18,2 -26,7 -12,6 -24,16 -35,29l-56 62 -46 -70c-88,-134 -209,-245 -351,-322z"/>
  <path class="fil1" d="M17006 7076c189,0 367,48 522,132 140,75 262,180 357,307 4,-2 7,-4 11,-6 27,-14 56,-22 86,-22 144,0 237,195 274,439 12,82 19,172 19,261 0,90 -5,178 -18,259 -34,225 -123,397 -275,397 -27,0 -53,-6 -79,-18 -2,-1 -3,-1 -5,-2 -95,132 -219,242 -362,320 -158,87 -338,136 -531,136 -193,0 -375,-50 -533,-138 -143,-79 -266,-189 -361,-321 -2,1 -4,2 -6,3 -26,13 -53,19 -81,19 -154,0 -245,-178 -280,-408 -14,-92 -20,-194 -18,-295 2,-102 12,-202 30,-291 42,-212 133,-369 271,-362 30,2 60,10 88,25 3,2 7,4 10,6 95,-127 217,-232 357,-308 156,-85 335,-133 524,-133zm460 246c-137,-74 -294,-116 -460,-116 -167,0 -325,42 -462,117 -143,77 -264,189 -352,325l-47 72 -57 -65c-12,-13 -24,-23 -36,-29 -11,-6 -21,-9 -32,-9 -59,-3 -107,108 -137,257 -17,83 -26,175 -28,268 -2,93 4,187 17,273 26,167 76,297 151,297 8,0 16,-2 25,-6 11,-5 22,-14 32,-25l58 -59 44 70c87,139 209,255 354,335 139,77 299,121 470,121 170,0 329,-43 468,-120 144,-79 266,-194 353,-332l43 -68 58 56c11,10 21,18 31,23 8,4 15,5 23,5 73,0 122,-124 146,-286 12,-75 17,-157 17,-239 0,-82 -7,-165 -18,-243 -27,-182 -78,-327 -144,-327 -9,0 -18,2 -26,7 -12,6 -24,16 -35,29l-56 62 -46 -70c-88,-134 -209,-245 -351,-322z"/>
  <path class="fil2" d="M17006 4371c362,0 681,186 866,467 33,-37 71,-57 110,-57 283,0 324,1225 0,1225 -35,0 -69,-17 -100,-47 -184,290 -507,483 -876,483 -370,0 -695,-194 -878,-487 -32,32 -67,50 -104,50 -324,0 -297,-1240 0,-1225 41,2 79,22 113,61 185,-284 505,-471 869,-471z"/>
  <path class="fil3" d="M17006 4305c189,0 367,48 522,132 140,75 262,180 357,307 4,-2 7,-4 11,-6 27,-14 56,-22 86,-22 144,0 237,195 274,439 12,82 19,172 19,261 0,90 -5,178 -18,259 -34,225 -123,397 -275,397 -27,0 -53,-6 -79,-18 -2,-1 -3,-1 -5,-2 -95,132 -219,242 -362,320 -158,87 -338,136 -531,136 -193,0 -375,-50 -533,-138 -143,-79 -266,-189 -361,-321 -2,1 -4,2 -6,3 -26,13 -53,19 -81,19 -154,0 -245,-178 -280,-408 -14,-92 -20,-194 -18,-295 2,-102 12,-202 30,-291 42,-212 133,-369 271,-362 30,2 60,10 88,25 3,2 7,4 10,6 95,-127 217,-232 357,-308 156,-85 335,-133 524,-133zm460 246c-137,-74 -294,-116 -460,-116 -167,0 -325,42 -462,117 -143,77 -264,189 -352,325l-47 72 -57 -65c-12,-13 -24,-23 -36,-29 -11,-6 -21,-9 -32,-9 -59,-3 -107,108 -137,257 -17,83 -26,175 -28,268 -2,93 4,187 17,273 26,167 76,297 151,297 8,0 16,-2 25,-6 11,-5 22,-14 32,-25l58 -59 44 70c87,139 209,255 354,335 139,77 299,121 470,121 170,0 329,-43 468,-120 144,-79 266,-194 353,-332l43 -68 58 56c11,10 21,18 31,23 8,4 15,5 23,5 73,0 122,-124 146,-286 12,-75 17,-157 17,-239 0,-82 -7,-165 -18,-243 -27,-182 -78,-327 -144,-327 -9,0 -18,2 -26,7 -12,6 -24,16 -35,29l-56 62 -46 -70c-88,-134 -209,-245 -351,-322z"/>
  <path class="fil2" d="M17006 1627c362,0 681,186 866,467 33,-37 71,-57 110,-57 283,0 324,1225 0,1225 -35,0 -69,-17 -100,-47 -184,290 -507,483 -876,483 -370,0 -695,-194 -878,-487 -32,32 -67,50 -104,50 -324,0 -297,-1240 0,-1225 41,2 79,22 113,61 185,-284 505,-471 869,-471z"/>
  <path class="fil3" d="M17006 1562c189,0 367,48 522,132 140,75 262,180 357,307 4,-2 7,-4 11,-6 27,-14 56,-22 86,-22 144,0 237,195 274,439 12,82 19,172 19,261 0,90 -5,178 -18,259 -34,225 -123,397 -275,397 -27,0 -53,-6 -79,-18 -2,-1 -3,-1 -5,-2 -95,132 -219,242 -362,320 -158,87 -338,136 -531,136 -193,0 -375,-50 -533,-138 -143,-79 -266,-189 -361,-321 -2,1 -4,2 -6,3 -26,13 -53,19 -81,19 -154,0 -245,-178 -280,-408 -14,-92 -20,-194 -18,-295 2,-102 12,-202 30,-291 42,-212 133,-369 271,-362 30,2 60,10 88,25 3,2 7,4 10,6 95,-127 217,-232 357,-308 156,-85 335,-133 524,-133zm460 246c-137,-74 -294,-116 -460,-116 -167,0 -325,42 -462,117 -143,77 -264,189 -352,325l-47 72 -57 -65c-12,-13 -24,-23 -36,-29 -11,-6 -21,-9 -32,-9 -59,-3 -107,108 -137,257 -17,83 -26,175 -28,268 -2,93 4,187 17,273 26,167 76,297 151,297 8,0 16,-2 25,-6 11,-5 22,-14 32,-25l58 -59 44 70c87,139 209,255 354,335 139,77 299,121 470,121 170,0 329,-43 468,-120 144,-79 266,-194 353,-332l43 -68 58 56c11,10 21,18 31,23 8,4 15,5 23,5 73,0 122,-124 146,-286 12,-75 17,-157 17,-239 0,-82 -7,-165 -18,-243 -27,-182 -78,-327 -144,-327 -9,0 -18,2 -26,7 -12,6 -24,16 -35,29l-56 62 -46 -70c-88,-134 -209,-245 -351,-322z"/>
  <path class="fil4" d="M6798 9042c-158,24 -329,63 -417,141 -153,136 59,183 -130,259 -55,22 -126,46 -185,74 -608,282 419,340 1598,307 919,-26 2863,-217 3249,-310 311,-75 -294,53 -269,-17 152,-426 -2084,-274 -2656,-498 -140,-55 -940,7 -1189,44z"/>
  <path class="fil5" d="M8242 8970l132 30c36,-34 -1078,-70 -1091,69 -10,106 49,117 -101,209 -252,155 321,211 427,207 508,-19 347,72 742,133 376,58 814,-57 1354,-57 237,0 1435,109 1450,-256 17,-444 -830,-249 -1187,-249 -406,0 -1362,-2 -1726,-86z"/>
  <path class="fil6" d="M8432 5215c-114,-135 -327,-170 -507,-72 -203,110 -288,347 -190,528 101,187 161,354 243,506 -30,69 -53,149 -66,236 -15,109 -12,212 6,299 -10,7 -18,17 -22,29l-44 132c-3,-1 -7,-1 -10,-1 -22,-15 -52,-12 -72,7l-233 225c-22,21 -21,58 2,79l53 51c7,6 15,11 23,13l-3 125c-1,27 21,49 48,50l64 1c16,0 30,-7 40,-19l-1 35c-1,27 21,49 48,50l64 1c18,0 35,-10 43,-25l0 9c-1,27 21,49 48,50l64 1c27,1 49,-21 50,-48l2 -102 30 10 23 94c6,26 33,42 59,36l62 -15c26,-6 42,-33 36,-59l-34 -138 66 -200c11,-32 -3,-66 -30,-83l45 -134c7,-22 0,-45 -15,-60 48,-70 87,-164 110,-270l0 420 14 0 26 494c-39,77 -61,165 -61,260 0,87 19,168 51,241l-23 707c-131,20 -231,134 -231,270l0 0c0,75 30,143 79,192 -4,8 -7,20 -7,36l0 0c0,14 3,28 9,39 15,29 44,48 78,48l803 0c48,0 88,-40 88,-88l0 0c0,-20 -5,-33 -13,-39 47,-49 76,-116 76,-189l0 0c0,-134 -97,-246 -224,-269l82 -536c107,-97 176,-246 176,-412 0,-84 -18,-164 -49,-235 142,-407 330,-417 509,12 -28,68 -44,143 -44,223 0,87 19,168 51,241l-23 707c-131,20 -231,134 -231,270l0 0c0,71 28,136 73,185 -7,7 -12,21 -12,43l0 0c0,14 3,28 9,39 15,29 44,48 78,48l803 0c48,0 88,-40 88,-88l0 0c0,-15 -3,-26 -7,-33 51,-50 82,-119 82,-195l0 0c0,-134 -97,-246 -224,-269l82 -536c107,-97 176,-246 176,-412 0,-162 -65,-308 -168,-405l0 -349 0 0 0 -436c22,114 63,213 113,287 -16,15 -23,38 -15,60l45 134c-27,17 -40,51 -30,83l62 186 -17 165c-3,27 17,51 43,53l63 7c27,3 51,-17 53,-43l9 -86 7 -2 2 95c1,27 23,48 50,48l64 -1c27,-1 48,-23 48,-50l-2 -92 8 72c3,27 27,46 54,43l63 -7c27,-3 46,-27 43,-54l-4 -38c8,18 28,30 49,28l63 -6c27,-3 46,-26 44,-53l-11 -119c14,0 28,-5 39,-15l53 -51c22,-21 24,-58 2,-79l-233 -225c-20,-19 -50,-22 -72,-7 -3,0 -7,1 -10,1l-44 -132c-4,-12 -12,-22 -22,-29 18,-87 22,-190 6,-299 -12,-87 -35,-167 -66,-236 84,-154 143,-322 243,-506 98,-181 13,-418 -190,-528 -182,-99 -397,-63 -511,76l0 -8 -63 0c132,-107 228,-293 319,-437 47,45 116,128 169,128 302,0 303,-741 306,-793 6,-54 10,-117 10,-185 0,-120 -11,-226 -28,-292 -14,-110 -43,-583 -287,-583 -59,0 -116,31 -166,86 -280,-426 -762,-707 -1310,-707 -550,0 -1034,284 -1313,713 -52,-59 -110,-92 -172,-92 -292,0 -330,839 -306,1060 13,258 60,481 128,621 55,152 189,210 358,38 92,147 183,334 317,443l-81 0 0 4zm2123 938c-1,5 -3,10 -4,16l0 -26c1,3 2,5 3,8l1 3zm-2123 -1l0 2 0 -1 0 -1z"/>
  <path class="fil7" d="M8368 5269c-44,-52 -108,-85 -179,-95 -72,-10 -151,3 -224,43 -83,45 -142,115 -169,192 -26,73 -24,153 13,222 53,97 96,193 137,284 35,78 69,153 106,222l20 36 -17 38c-14,32 -26,66 -36,101 -10,35 -18,73 -23,112 -7,49 -10,97 -9,141 1,45 6,88 14,128l12 55 -40 27 -41 123 -24 72 -72 -16 0 0 -1 0c0,0 0,0 0,0l0 0 -1 0c-2,0 0,0 1,0l0 0 1 0 0 0 -1 0 0 0 -21 -2 0 0 -196 190 27 26 55 16 -1 65 -2 89 10 0 145 -188 -5 255 7 0 154 -271 -3 128 101 34 30 10 36 12 -4 -18 8 -23 63 -190 -47 -30 21 -62 39 -118 -40 -38 41 -59c21,-30 40,-67 56,-107 17,-41 30,-86 41,-133l44 -203 -43 -161 0 -1 -7 -26 10 -25 0 -1 163 -427 0 70 0 387 0 2 0 403 0 243 0 93 9 0 4 80 26 494 1 22 -10 20c-16,33 -29,68 -38,107 -9,36 -13,75 -13,115 0,37 4,73 11,106 8,35 19,69 33,99l8 18 -1 20 -23 707 -2 70 -69 11c-45,7 -86,31 -115,65 -28,33 -45,76 -45,123 0,26 5,50 14,72 9,23 23,44 41,61l44 44 -26 48 0 3 0 0c0,0 0,1 0,1l0 0c0,0 0,0 0,1 0,1 1,1 2,2 0,0 1,0 2,0l794 0 -43 -32 66 -69c17,-18 30,-38 39,-61 9,-21 13,-45 13,-70 0,-46 -16,-88 -44,-121 -28,-33 -67,-57 -111,-65l-80 -15 12 -80 82 -536 4 -29 23 -20c46,-41 83,-94 109,-155 25,-59 39,-125 39,-195 0,-36 -4,-71 -10,-104 -7,-34 -18,-66 -31,-97l-13 -30 11 -31c47,-134 100,-230 157,-289 48,-49 102,-74 159,-75 56,-1 111,22 163,69 64,58 127,159 187,302l13 32 -13 32c-12,29 -21,60 -28,93 -6,31 -9,64 -9,98 0,37 4,73 11,106 8,35 19,69 33,99l8 18 -1 20 -23 707 -2 70 -69 11c-45,7 -86,31 -115,65 -28,33 -45,76 -45,123 0,24 5,48 13,69 9,22 21,42 37,60l55 59 -43 43c0,0 1,0 1,1 0,0 1,0 2,0l803 0c1,0 2,0 2,-1l0 0 0 0 -31 -47 49 -48c18,-18 33,-39 43,-62 9,-22 14,-47 14,-73 0,-46 -16,-88 -44,-121 -28,-33 -67,-57 -111,-65l-80 -15 12 -80 82 -536 4 -29 23 -20c46,-41 83,-94 109,-155 25,-59 39,-125 39,-195 0,-68 -13,-133 -37,-191 -25,-60 -60,-112 -104,-153l-26 -25 0 -36 0 -349 0 -84 0 0 0 -352 0 -372 0 -26 0 -465 0 -53 164 491 1 3c0,1 0,0 1,2l0 0 1 3 10 25 -7 26c-1,5 -1,5 -2,6l-1 6 -35 158 36 180c10,51 24,98 41,141 17,44 37,82 59,114l41 60 -40 38 39 118 21 62 -47 30 59 177 6 17 -2 18 -2 22 44 -15 7 -2 108 -36 2 114 0 2 154 -10 -43 -404 -2 0 -24 -72 -41 -123 -40 -27 12 -55c8,-40 13,-83 14,-128 1,-44 -2,-92 -9,-141 -6,-40 -14,-77 -23,-112 -10,-36 -22,-70 -36,-101l-17 -38 20 -36c38,-71 73,-146 108,-226 41,-90 83,-185 135,-280 37,-69 40,-149 13,-222 -28,-77 -86,-146 -169,-192 -74,-40 -154,-53 -226,-42 -71,11 -135,44 -179,97l-150 183 0 -160 -216 0 184 -150c94,-77 174,-207 246,-327 17,-27 33,-54 55,-90l56 -88 74 72c9,9 18,18 27,28 33,34 74,76 83,76 203,0 218,-588 221,-695l0 -18 0 -5c3,-27 5,-55 7,-84 1,-26 2,-57 2,-92 0,-58 -2,-111 -7,-155 -4,-46 -11,-85 -18,-116l-1 -3 -1 -7c-2,-17 -3,-27 -5,-39 -14,-132 -52,-471 -199,-471 -16,0 -31,4 -47,12 -19,10 -38,26 -57,46l-73 80 -59 -90c-135,-205 -319,-375 -537,-492 -209,-113 -448,-177 -703,-177 -256,0 -496,65 -706,178 -218,118 -403,289 -537,496l-61 93 -73 -83c-20,-22 -40,-39 -60,-50 -16,-9 -32,-13 -48,-13 -3,0 -6,0 -7,0 -72,8 -125,131 -162,285 -43,178 -58,393 -58,545 0,58 2,105 6,136l0 5c6,123 20,238 41,338 21,100 47,185 79,250l1 3 2 6c10,29 24,52 40,67 10,10 21,16 32,19 13,3 27,2 44,-4 30,-11 64,-34 103,-74l74 -76 57 90c26,41 44,71 62,102 70,118 144,245 237,320l184 150 -234 0 0 150 -149 -176zm-155 -261c11,2 22,4 33,6 -21,-34 -41,-68 -61,-102l-9 -15c-29,20 -58,35 -85,45 -49,17 -95,20 -137,11 -43,-10 -82,-31 -114,-63 -33,-32 -59,-75 -78,-125 -37,-76 -68,-174 -91,-287 -22,-108 -37,-230 -44,-360 -4,-38 -7,-92 -7,-153 0,-160 16,-390 63,-584 53,-219 147,-396 307,-414 9,-1 18,-2 26,-2 44,0 87,12 128,33 10,5 19,11 29,17 144,-195 329,-357 542,-472 234,-127 502,-199 786,-199 283,0 550,71 783,197 214,115 399,276 543,470 9,-6 18,-11 27,-15 40,-20 81,-31 124,-31 298,0 348,447 367,621l3 29c9,36 16,84 22,138 5,54 8,112 8,171 0,32 -1,65 -3,100 -2,33 -4,65 -7,92 0,3 0,6 0,10 -4,132 -23,860 -389,860 -57,0 -108,-36 -153,-77 -20,33 -41,67 -62,101 3,-1 6,-1 9,-1 107,-16 224,3 331,61 120,65 206,169 247,283 42,118 38,247 -23,359 -52,96 -92,184 -129,268 -31,69 -61,136 -95,202 10,27 20,56 28,86 12,43 21,88 28,133 8,57 11,114 10,168 -1,41 -4,81 -10,118 5,8 9,17 12,27l22 65c30,3 60,17 83,39l233 225 1 1 1 1 1 1c26,28 39,63 38,99 -1,34 -14,69 -39,95l-1 1 -1 1 -1 1 -53 51c-3,3 -5,5 -8,7l6 58c3,36 -8,71 -30,97 -22,26 -53,44 -90,48l-50 5c-3,6 -7,11 -11,16 -21,27 -53,45 -89,49l-63 7c-12,1 -25,1 -36,-1 -22,17 -49,27 -78,27l-64 1c-26,1 -51,-6 -71,-19 -19,7 -39,10 -60,8l-18 -2c9,43 13,88 13,134 0,93 -19,182 -53,261 -31,73 -75,138 -128,192l-67 437c51,23 96,57 131,99 52,62 83,142 83,228 0,48 -10,95 -28,138 -12,29 -28,56 -47,80 0,3 0,6 0,10l0 0c0,47 -19,90 -51,121l0 0 0 0c-31,31 -74,51 -121,51l-803 0c-33,0 -63,-9 -90,-26 -27,-17 -49,-41 -64,-69 -6,-11 -10,-24 -14,-38l0 0c-3,-13 -5,-26 -5,-40l0 0c0,-9 1,-18 2,-27 -15,-22 -28,-46 -38,-72 -16,-41 -25,-84 -25,-130 0,-88 33,-169 86,-232 39,-46 90,-82 148,-103l20 -625c-15,-37 -28,-76 -36,-115 -10,-46 -15,-93 -15,-141 0,-44 4,-88 13,-130 6,-31 14,-61 25,-90 -45,-103 -90,-174 -132,-212 -19,-17 -34,-26 -47,-25 -11,0 -25,9 -42,26 -37,37 -73,103 -108,196 12,32 22,65 29,99 9,45 14,91 14,138 0,93 -19,182 -53,261 -31,73 -75,138 -128,192l-67 437c51,23 96,57 131,99 52,62 83,142 83,228 0,47 -9,91 -26,133 -10,25 -23,49 -39,71 1,8 2,16 2,24l0 0c0,47 -19,90 -51,121l0 0 0 0c-31,31 -74,51 -121,51l-803 0c-33,0 -63,-9 -90,-26 -27,-17 -49,-41 -64,-69 -6,-11 -10,-24 -14,-38l0 0c-3,-13 -5,-26 -5,-40l0 0c0,-4 0,-8 0,-12 -19,-24 -34,-51 -46,-80 -17,-42 -27,-88 -27,-136 0,-88 33,-169 86,-232 39,-46 90,-82 148,-103l20 -625c-15,-37 -28,-76 -36,-115 -10,-46 -15,-93 -15,-141 0,-53 6,-104 18,-153 10,-43 24,-84 42,-123l-13 -239 -31 92 28 114 0 0c0,1 1,3 1,4l2 7 0 3c4,31 -3,61 -18,86 -18,29 -46,52 -82,60l-11 3 -51 13c-35,9 -71,2 -100,-16l-1 0c-23,18 -53,29 -85,28l-64 -1c-33,-1 -63,-13 -86,-34 -2,0 -3,0 -5,0l-64 -1c-37,-1 -70,-16 -93,-41 -7,-8 -14,-16 -19,-26l-38 -1c-37,-1 -70,-16 -93,-41 -24,-25 -38,-58 -37,-95l2 -79 -49 -47 -1 -1 -1 -1 -1 -1c-25,-26 -39,-60 -39,-95 -1,-35 11,-71 38,-99l1 -1 1 -1 1 -1 233 -225c23,-23 53,-36 83,-39l22 -65c3,-10 7,-19 12,-27 -6,-37 -9,-77 -10,-118 -1,-54 2,-111 10,-168 7,-46 16,-91 28,-133 8,-30 18,-59 28,-86 -33,-64 -62,-129 -93,-198 -38,-85 -78,-174 -131,-272 -61,-113 -65,-242 -23,-359 41,-115 127,-218 247,-283 106,-57 221,-76 328,-61zm2422 2284l5 5 -5 -15 0 9zm469 -326l172 377 3 0 -8 -84 -9 -94 83 2 23 -23 -196 -190 0 0 -21 2 0 0 -1 0 0 0 -46 10zm46 -10l1 0 0 0 0 0 -1 0 0 0zm1 0c1,0 3,-1 1,0l-1 0 0 0z"/>
  <path class="fil8" d="M8443 5227c-112,-145 -332,-184 -517,-84 -203,110 -288,347 -190,528 57,106 165,170 285,182l434 -312 -12 -315z"/>
  <rect class="fil9" x="8433" y="5211" width="2119" height="1234"/>
  <path class="fil10" d="M10552 6779l-356 -228 0 -65 -1442 0 -325 414 55 773 737 155c171,-837 462,-872 709,15l622 -220 0 -844z"/>
  <rect class="fil11" x="8433" y="5653" width="2119" height="1324"/>
  <ellipse class="fil11" cx="9487" cy="5402" rx="926" ry="197"/>
  <path class="fil12" d="M9502 2428c865,0 1567,701 1567,1567 0,865 -701,1567 -1567,1567 -865,0 -1567,-701 -1567,-1567 0,-865 701,-1567 1567,-1567z"/>
  <ellipse class="fil13" cx="10990" cy="3973" rx="297" ry="912"/>
  <ellipse class="fil14" cx="11224" cy="3924" rx="69" ry="364"/>
  <path class="fil9" d="M8866 3005c271,-267 983,-274 1288,25l147 554c-189,-191 -514,-269 -794,-269 -265,0 -598,96 -808,272l168 -582z"/>
  <path class="fil15" d="M10268 3464l30 114c-189,-191 -514,-269 -794,-269 -265,0 -598,96 -808,272l32 -111c211,-160 524,-247 776,-247 266,0 572,70 764,240z"/>
  <path class="fil16" d="M10034 4427c-197,0 -345,-241 -552,-241 -220,0 -364,241 -567,241 -342,0 -525,-398 -358,-682 164,-278 610,-433 947,-433 331,0 726,109 883,385 166,293 16,729 -353,729z"/>
  <path class="fil17" d="M10034 4446c-103,0 -191,-60 -280,-122 -86,-59 -173,-119 -272,-119 -107,0 -197,61 -285,121 -90,61 -177,120 -282,120 -81,0 -153,-21 -215,-58 -70,-42 -127,-103 -165,-175 -39,-71 -60,-153 -60,-236 0,-83 21,-166 66,-242 79,-133 220,-239 382,-313 185,-85 399,-129 582,-129 183,0 384,33 556,108 145,63 269,157 343,287 47,83 70,178 70,271 0,88 -20,175 -59,251 -39,76 -97,141 -171,183 -59,34 -129,53 -209,53zm-258 -153c84,58 167,115 258,115 73,0 136,-18 190,-48 68,-38 121,-97 156,-167 36,-70 55,-151 55,-234 0,-87 -21,-175 -65,-252 -69,-122 -187,-211 -325,-271 -167,-73 -363,-104 -541,-104 -178,0 -386,43 -566,126 -156,71 -291,172 -365,298 -41,70 -60,147 -60,223 0,77 19,152 55,218 35,66 87,122 151,160 56,33 122,52 195,52 94,0 176,-56 261,-113 93,-63 188,-128 307,-128 111,0 203,64 294,126z"/>
  <path class="fil15" d="M10978 3049c-218,0 -394,415 -394,926 0,512 176,926 394,926 35,0 68,-11 100,-30 -169,-104 -294,-466 -294,-896 0,-430 125,-792 294,-896 -32,-20 -66,-30 -100,-30z"/>
  <path class="fil15" d="M10772 3860c72,-53 292,-63 392,0l0 34c-100,-45 -314,-48 -384,14l-8 -48z"/>
  <path class="fil18" d="M10771 3858c38,-28 116,-44 197,-44 74,0 149,14 197,44l1 1 0 1 0 34 0 3 -3 -1c-52,-24 -135,-36 -213,-33 -70,3 -136,17 -169,46l-3 3 -1 -4 -8 -48 0 -1 1 -1zm197 -40c-79,0 -156,16 -193,42l7 43c34,-28 99,-42 168,-45 77,-3 159,9 212,32l0 -29c-47,-29 -122,-43 -194,-43z"/>
  <path class="fil15" d="M10772 4092c72,53 292,63 392,0l0 -34c-100,45 -314,48 -384,-14l-8 48z"/>
  <path class="fil18" d="M10774 4091c38,27 114,42 193,42 72,0 147,-13 194,-43l0 -29c-53,23 -135,35 -212,32 -69,-2 -134,-17 -168,-45l-7 43zm193 47c-80,0 -159,-16 -197,-44l-1 -1 0 -1 8 -48 1 -4 3 3c33,29 98,44 169,46 78,3 161,-9 213,-33l3 -1 0 3 0 34 0 1 -1 1c-48,30 -124,44 -197,44z"/>
  <path class="fil15" d="M10846 4424c89,11 285,-88 341,-192l-17 -30c-65,88 -250,196 -342,176l17 45z"/>
  <path class="fil18" d="M10847 4422c46,5 120,-19 189,-58 63,-35 121,-83 148,-132l-14 -26c-35,46 -101,96 -169,132 -62,32 -125,51 -169,43l15 40zm191 -54c-70,39 -146,64 -193,58l-1 0 0 -1 -17 -45 -1 -4 4 1c43,9 107,-10 170,-42 69,-36 136,-87 170,-133l2 -3 2 3 17 30 1 1 -1 1c-27,50 -86,99 -151,135z"/>
  <path class="fil15" d="M10968 4742c84,-30 215,-207 218,-325l-28 -19c-18,108 -135,288 -225,311l35 33z"/>
  <path class="fil18" d="M10969 4739c43,-16 99,-71 143,-137 40,-60 71,-129 73,-185l-24 -16c-10,57 -47,132 -92,194 -41,56 -88,102 -131,115l32 29zm146 -134c-45,67 -102,123 -146,139l-1 0 -1 -1 -35 -33 -3 -3 4 -1c42,-11 91,-57 132,-114 46,-63 82,-139 91,-195l1 -3 3 2 28 19 1 1 0 1c-2,57 -32,127 -73,188z"/>
  <path class="fil15" d="M10972 3148c84,30 244,234 247,352l-28 19c-18,-108 -164,-314 -254,-338l35 -33z"/>
  <path class="fil15" d="M10836 3521c89,-11 285,88 341,192l-17 30c-65,-88 -250,-196 -342,-176l17 -45z"/>
  <path class="fil18" d="M10835 3518c47,-6 123,19 193,58 64,36 123,85 151,135l1 1 -1 1 -17 30 -2 3 -2 -3c-34,-46 -101,-97 -170,-133 -63,-32 -127,-52 -170,-42l-4 1 1 -4 17 -45 0 -1 1 0zm191 62c-69,-39 -143,-63 -189,-58l-15 40c44,-8 107,12 169,43 68,35 135,86 169,132l14 -26c-27,-49 -85,-97 -148,-132z"/>
  <ellipse class="fil15" cx="11200" cy="3924" rx="43" ry="364"/>
  <polygon class="fil12" points="8474,7678 9232,7816 9074,8856 8438,8765 "/>
  <ellipse class="fil19" cx="8885" cy="7731" rx="473" ry="530"/>
  <path class="fil0" d="M8081 5721c-113,1 -216,-59 -257,-161 -54,-137 33,-299 179,-357 146,-58 385,-22 439,149l-94 141 -267 228z"/>
  <ellipse class="fil20" transform="matrix(0.563638 0.0802755 -0.0802755 0.563638 8179.74 6450.56)" rx="472" ry="904"/>
  <path class="fil19" d="M8252 5941c129,18 225,245 182,360 -45,120 -130,191 -222,196 -174,10 -255,-167 -230,-324 21,-134 124,-253 270,-232z"/>
  <ellipse class="fil19" cx="7900" cy="5757" rx="68" ry="184"/>
  <path class="fil21" d="M8434 6150c-45,120 -130,191 -222,196 -158,9 -299,-205 -316,-479 -34,-564 157,-514 547,-514 0,157 44,652 -10,796z"/>
  <path class="fil20" d="M7910 5562c54,-238 236,-208 534,-208 0,46 4,121 8,208l-542 0z"/>
  <rect class="fil22" x="8210" y="8675" width="1115" height="547" rx="61355" ry="70519"/>
  <path class="fil10" d="M8371 9265l803 0c48,0 88,-40 88,-88l0 0c0,-51 -33,-55 -61,-22 -22,27 -39,66 -83,-15 -16,-28 -33,-53 -63,-9 -93,136 -71,-135 -139,-9 -50,93 -74,0 -98,-20 -42,-35 -43,11 -53,31 -18,39 -58,29 -64,8 -17,-60 -42,-45 -62,-19 -35,45 -55,34 -86,-20 -20,-34 -46,-18 -57,14 -33,99 -64,87 -127,36 -44,-36 -87,-46 -87,22l0 0c0,14 3,28 9,39 15,29 44,48 78,48z"/>
  <path class="fil23" d="M8336 8897c43,54 138,78 175,-18 20,-52 153,-53 75,-114 -101,-79 -345,13 -249,132z"/>
  <path class="fil10" d="M7904 6928l-53 -51c-22,-21 -57,-20 -79,2l-233 225c-22,21 -21,58 2,79l53 51c22,21 57,20 79,-2l233 -225c22,-21 21,-58 -2,-79z"/>
  <rect class="fil10" transform="matrix(-0.540253 -0.179607 -0.179607 0.540253 8356.73 6833.18)" width="816" height="569" rx="100" ry="100"/>
  <rect class="fil11" transform="matrix(-0.677902 -0.225368 -0.225368 0.677902 8346.33 7036.41)" width="816" height="569" rx="100" ry="100"/>
  <rect class="fil15" transform="matrix(-0.473227 0.11603 0.11603 0.473227 8230.02 7192.76)" width="331" height="626" rx="100" ry="100"/>
  <rect class="fil15" transform="matrix(-0.487137 -0.0102387 -0.0102387 0.487137 8084.71 7221.99)" width="331" height="626" rx="100" ry="100"/>
  <rect class="fil15" transform="matrix(-0.487137 -0.0102387 -0.0102387 0.487137 7930.1 7186.89)" width="331" height="626" rx="100" ry="100"/>
  <rect class="fil15" transform="matrix(-0.487137 -0.0102387 -0.0102387 0.487137 7779.86 7119.75)" width="331" height="626" rx="100" ry="100"/>
  <path class="fil24" d="M8652 3943c155,-121 179,-151 401,-148 112,1 272,104 122,205 -20,13 -162,108 -166,114"/>
  <polygon class="fil25" points="9282,3828 9266,3828 9266,3828 9266,3828 8827,3828 8827,3868 9197,3868 8873,4057 8893,4092 9277,3868 9282,3868 9282,3865 9286,3863 9282,3856 "/>
  <polygon class="fil25" points="9738,3828 9754,3828 9754,3828 9754,3828 10192,3828 10192,3868 9823,3868 10146,4057 10126,4092 9743,3868 9738,3868 9738,3865 9733,3863 9738,3856 "/>
  <path class="fil15" d="M8583 4989c386,381 1402,391 1837,-36l319 -1203 -155 4 -163 616c-434,427 -1451,417 -1837,36l-170 -589 -167 5 337 1167z"/>
  <path class="fil15" d="M11065 3080c74,50 180,286 155,401l-32 12c9,-109 -83,-344 -165,-389l42 -23z"/>
  <path class="fil24" d="M10819 3513c69,-5 385,71 350,202"/>
  <path class="fil26" d="M10818 3508c23,-2 72,5 127,20 51,14 107,34 151,61 45,27 78,61 80,101 1,9 0,18 -3,27l-11 -3c2,-8 3,-16 2,-23 -2,-36 -33,-67 -75,-92 -43,-26 -98,-46 -149,-60 -54,-14 -101,-21 -123,-20l-1 -11z"/>
  <path class="fil27" d="M11051 4886c9,-4 19,-9 28,-15 -169,-104 -294,-466 -294,-896 0,-430 125,-792 294,-896 -9,-6 -18,-10 -28,-15 -183,80 -321,457 -321,911 0,453 138,830 321,911z"/>
  <path class="fil15" d="M11073 4875c71,-55 160,-342 118,-457l-23 37c16,108 -60,349 -139,399l44 20z"/>
  <path class="fil24" d="M10786 3903c62,-31 383,-81 401,54"/>
  <path class="fil26" d="M10783 3898c21,-10 69,-22 125,-29 53,-7 112,-9 163,-1 52,8 95,27 113,63l0 0c4,8 6,17 8,26l-11 1c-1,-8 -3,-16 -7,-22l0 0c-16,-32 -56,-49 -104,-57 -50,-8 -108,-6 -160,1 -55,7 -102,19 -122,28l-5 -10z"/>
  <path class="fil24" d="M10786 4111c62,31 383,81 401,-54"/>
  <path class="fil26" d="M10788 4106c20,10 67,21 122,28 52,7 110,9 160,1 49,-8 88,-25 104,-57l0 0c3,-7 6,-14 7,-22l11 1c-1,9 -4,18 -8,26l0 0c-18,36 -61,55 -113,63 -51,8 -111,6 -163,-1 -56,-7 -104,-19 -125,-29l5 -10z"/>
  <path class="fil24" d="M10854 4446c69,-4 374,-116 324,-242"/>
  <path class="fil26" d="M10833 4429c22,0 69,-9 122,-25 50,-16 104,-38 146,-66 41,-27 70,-60 71,-95 0,-8 -1,-15 -3,-23l11 -3c3,9 4,18 4,27 -1,40 -32,75 -76,105 -43,29 -98,52 -149,68 -54,17 -103,26 -126,26l0 -11z"/>
  <path class="fil26" d="M10988 3158c20,11 59,43 97,84 36,39 73,86 97,132 25,49 72,152 23,198l-8 -8c44,-41 -3,-141 -25,-185 -23,-45 -59,-91 -95,-129 -38,-40 -75,-71 -94,-82l5 -10z"/>
  <ellipse class="fil13" cx="8005" cy="3973" rx="297" ry="912"/>
  <ellipse class="fil14" cx="7771" cy="3924" rx="69" ry="364"/>
  <path class="fil15" d="M8017 3049c218,0 394,415 394,926 0,512 -176,926 -394,926 -35,0 -68,-11 -100,-30 169,-104 294,-466 294,-896 0,-430 -125,-792 -294,-896 32,-20 66,-30 100,-30z"/>
  <path class="fil15" d="M8223 3860c-72,-53 -292,-63 -392,0l0 34c100,-45 314,-48 384,14l8 -48z"/>
  <path class="fil18" d="M8224 3858c-38,-28 -116,-44 -197,-44 -74,0 -149,14 -197,44l-1 1 0 1 0 34 0 3 3 -1c52,-24 135,-36 213,-33 70,3 136,17 169,46l3 3 1 -4 8 -48 0 -1 -1 -1zm-197 -40c79,0 156,16 193,42l-7 43c-34,-28 -99,-42 -168,-45 -77,-3 -159,9 -212,32l0 -29c47,-29 122,-43 194,-43z"/>
  <path class="fil15" d="M8223 4092c-72,53 -292,63 -392,0l0 -34c100,45 314,48 384,-14l8 48z"/>
  <path class="fil18" d="M8220 4091c-38,27 -114,42 -193,42 -72,0 -147,-13 -194,-43l0 -29c53,23 135,35 212,32 69,-2 134,-17 168,-45l7 43zm-193 47c80,0 159,-16 197,-44l1 -1 0 -1 -8 -48 -1 -4 -3 3c-33,29 -98,44 -169,46 -78,3 -161,-9 -213,-33l-3 -1 0 3 0 34 0 1 1 1c48,30 124,44 197,44z"/>
  <path class="fil15" d="M8149 4424c-89,11 -285,-88 -341,-192l17 -30c65,88 250,196 342,176l-17 45z"/>
  <path class="fil18" d="M8147 4422c-46,5 -120,-19 -189,-58 -63,-35 -121,-83 -148,-132l14 -26c35,46 101,96 169,132 62,32 125,51 169,43l-15 40zm-191 -54c70,39 146,64 193,58l1 0 0 -1 17 -45 1 -4 -4 1c-43,9 -107,-10 -170,-42 -69,-36 -136,-87 -170,-133l-2 -3 -2 3 -17 30 -1 1 1 1c27,50 86,99 151,135z"/>
  <path class="fil15" d="M8026 4742c-84,-30 -215,-207 -218,-325l28 -19c18,108 135,288 225,311l-35 33z"/>
  <path class="fil18" d="M8026 4739c-43,-16 -99,-71 -143,-137 -40,-60 -71,-129 -73,-185l24 -16c10,57 47,132 92,194 41,56 88,102 131,115l-32 29zm-146 -134c45,67 102,123 146,139l1 0 1 -1 35 -33 3 -3 -4 -1c-42,-11 -91,-57 -132,-114 -46,-63 -82,-139 -91,-195l-1 -3 -3 2 -28 19 -1 1 0 1c2,57 32,127 73,188z"/>
  <path class="fil15" d="M8023 3148c-84,30 -244,234 -247,352l28 19c18,-108 164,-314 254,-338l-35 -33z"/>
  <path class="fil15" d="M8159 3521c-89,-11 -285,88 -341,192l17 30c65,-88 250,-196 342,-176l-17 -45z"/>
  <path class="fil18" d="M8159 3518c-47,-6 -123,19 -193,58 -64,36 -123,85 -151,135l-1 1 1 1 17 30 2 3 2 -3c34,-46 101,-97 170,-133 63,-32 127,-52 170,-42l4 1 -1 -4 -17 -45 0 -1 -1 0zm-191 62c69,-39 143,-63 189,-58l15 40c-44,-8 -107,12 -169,43 -68,35 -135,86 -169,132l-14 -26c27,-49 85,-97 148,-132z"/>
  <ellipse class="fil15" cx="7795" cy="3924" rx="43" ry="364"/>
  <path class="fil15" d="M7930 3080c-74,50 -180,286 -155,401l32 12c-9,-109 83,-344 165,-389l-42 -23z"/>
  <path class="fil24" d="M8176 3513c-69,-5 -385,71 -350,202"/>
  <path class="fil26" d="M8176 3508c-23,-2 -72,5 -127,20 -51,14 -107,34 -151,61 -45,27 -78,61 -80,101 -1,9 0,18 3,27l11 -3c-2,-8 -3,-16 -2,-23 2,-36 33,-67 75,-92 43,-26 98,-46 149,-60 54,-14 101,-21 123,-20l1 -11z"/>
  <path class="fil27" d="M7944 4886c-9,-4 -19,-9 -28,-15 169,-104 294,-466 294,-896 0,-430 -125,-792 -294,-896 9,-6 18,-10 28,-15 183,80 321,457 321,911 0,453 -138,830 -321,911z"/>
  <path class="fil15" d="M7921 4875c-71,-55 -160,-342 -118,-457l23 37c-16,108 60,349 139,399l-44 20z"/>
  <path class="fil24" d="M8209 3903c-62,-31 -383,-81 -401,54"/>
  <path class="fil26" d="M8212 3898c-21,-10 -69,-22 -125,-29 -53,-7 -112,-9 -163,-1 -52,8 -95,27 -113,63l0 0c-4,8 -6,17 -8,26l11 1c1,-8 3,-16 7,-22l0 0c16,-32 56,-49 104,-57 50,-8 108,-6 160,1 55,7 102,19 122,28l5 -10z"/>
  <path class="fil24" d="M8209 4111c-62,31 -383,81 -401,-54"/>
  <path class="fil26" d="M8207 4106c-20,10 -67,21 -122,28 -52,7 -110,9 -160,1 -49,-8 -88,-25 -104,-57l0 0c-3,-7 -6,-14 -7,-22l-11 1c1,9 4,18 8,26l0 0c18,36 61,55 113,63 51,8 111,6 163,-1 56,-7 104,-19 125,-29l-5 -10z"/>
  <path class="fil24" d="M8140 4446c-69,-4 -374,-116 -324,-242"/>
  <path class="fil26" d="M8162 4429c-22,0 -69,-9 -122,-25 -50,-16 -104,-38 -146,-66 -41,-27 -70,-60 -71,-95 0,-8 1,-15 3,-23l-11 -3c-3,9 -4,18 -4,27 1,40 32,75 76,105 43,29 98,52 149,68 54,17 103,26 126,26l0 -11z"/>
  <path class="fil26" d="M8007 3158c-20,11 -59,43 -97,84 -36,39 -73,86 -97,132 -25,49 -72,152 -23,198l8 -8c-44,-41 3,-141 25,-185 23,-45 59,-91 95,-129 38,-40 75,-71 94,-82l-5 -10z"/>
  <ellipse class="fil9" transform="matrix(0.49238 0.285822 -0.285822 0.49238 10228.3 3019.37)" rx="398" ry="165"/>
  <path class="fil15" d="M10058 2877c-26,13 -47,32 -60,58 -42,84 21,200 141,261 120,61 252,42 294,-42 7,-15 12,-31 13,-47 -2,2 -4,4 -6,6 -66,66 -197,43 -292,-53 -56,-56 -87,-124 -90,-184z"/>
  <ellipse class="fil15" transform="matrix(-0.385339 -0.419102 -0.419102 0.385339 10244.3 2980.52)" rx="271" ry="170"/>
  <polygon class="fil13" points="10310,2899 10250,2871 10189,2842 10190,2880 10190,2917 10250,2969 10310,3020 10347,3015 10384,3009 10347,2954 "/>
  <rect class="fil28" transform="matrix(-0.264836 -0.22649 -0.340673 0.39835 10401 2840.82)" width="187" height="293" rx="100" ry="100"/>
  <path class="fil15" d="M10376 2820l0 0c-3,-3 -7,-5 -12,-6 0,2 1,5 2,7 3,9 10,16 21,22 0,-6 -2,-12 -6,-16 -1,-1 -3,-3 -4,-4 -1,-1 -1,-1 -2,-2zm-25 -8c-4,0 -8,2 -12,4 -1,3 -3,5 -4,8 -12,25 -4,37 10,44 8,4 17,6 25,8l1 0 7 -8c-2,0 -4,-1 -6,-1 -7,-2 -16,-3 -22,-7 -9,-5 -15,-13 -6,-31l0 0c3,7 8,15 17,22 7,6 15,10 22,12 2,-3 3,-6 4,-9 -6,-2 -13,-5 -19,-11 -11,-9 -15,-19 -16,-28l1 -2zm-41 34l-6 7c5,4 11,9 17,15 10,9 20,18 30,24 -3,-1 -7,-2 -10,-3 -17,-5 -38,-10 -49,-19 -1,-1 -1,-1 -2,-2l-9 11c1,3 2,7 3,11 5,13 13,25 28,30 -6,1 -11,1 -15,-1 -6,-1 -12,-4 -16,-9 -4,-4 -7,-9 -8,-15 0,-2 -1,-5 -1,-7l-1 1c-3,4 -6,9 -7,13 2,6 5,11 9,15 5,5 12,9 20,11 9,2 20,2 32,-3l13 -15 -2 0 -1 -1 -2 1c-25,2 -35,-12 -40,-26 -1,-2 -1,-4 -2,-6 13,8 31,13 47,17 4,1 7,2 10,3l13 -15c-11,-5 -23,-15 -34,-25 -6,-5 -12,-11 -17,-15z"/>
  <polygon class="fil28" points="10193,2923 10190,2843 10184,2843 10150,2883 10152,2952 10184,2915 "/>
  <polygon class="fil28" points="10304,3016 10384,3007 10384,3013 10350,3053 10281,3061 10313,3024 "/>
  <rect class="fil29" transform="matrix(-0.470579 -0.402444 -0.428895 0.501508 10320.7 3014.95)" width="273.41" height="97.01"/>
  <ellipse class="fil9" transform="matrix(-0.49238 0.285822 0.285822 0.49238 8788.21 3019.37)" rx="398" ry="165"/>
  <path class="fil15" d="M8959 2877c26,13 47,32 60,58 42,84 -21,200 -141,261 -120,61 -252,42 -294,-42 -7,-15 -12,-31 -13,-47 2,2 4,4 6,6 66,66 197,43 292,-53 56,-56 87,-124 90,-184z"/>
  <ellipse class="fil15" transform="matrix(0.385339 -0.419102 0.419102 0.385339 8772.2 2980.52)" rx="271" ry="170"/>
  <polygon class="fil13" points="8707,2899 8767,2871 8827,2842 8827,2880 8827,2917 8767,2969 8707,3020 8669,3015 8632,3009 8670,2954 "/>
  <rect class="fil28" transform="matrix(0.264836 -0.22649 0.340673 0.39835 8615.5 2840.82)" width="187" height="293" rx="100" ry="100"/>
  <path class="fil15" d="M8640 2820l0 0c3,-3 7,-5 12,-6 0,2 -1,5 -2,7 -3,9 -10,16 -21,22 0,-6 2,-12 6,-16 1,-1 3,-3 4,-4 1,-1 1,-1 2,-2zm25 -8c4,0 8,2 12,4 1,3 3,5 4,8 12,25 4,37 -10,44 -8,4 -17,6 -25,8l-1 0 -7 -8c2,0 4,-1 6,-1 7,-2 16,-3 22,-7 9,-5 15,-13 6,-31l0 0c-3,7 -8,15 -17,22 -7,6 -15,10 -22,12 -2,-3 -3,-6 -4,-9 6,-2 13,-5 19,-11 11,-9 15,-19 16,-28l-1 -2zm41 34l6 7c-5,4 -11,9 -17,15 -10,9 -20,18 -30,24 3,-1 7,-2 10,-3 17,-5 38,-10 49,-19 1,-1 1,-1 2,-2l9 11c-1,3 -2,7 -3,11 -5,13 -13,25 -28,30 6,1 11,1 15,-1 6,-1 12,-4 16,-9 4,-4 7,-9 8,-15 0,-2 1,-5 1,-7l1 1c3,4 6,9 7,13 -2,6 -5,11 -9,15 -5,5 -12,9 -20,11 -9,2 -20,2 -32,-3l-13 -15 2 0 1 -1 2 1c25,2 35,-12 40,-26 1,-2 1,-4 2,-6 -13,8 -31,13 -47,17 -4,1 -7,2 -10,3l-13 -15c11,-5 23,-15 34,-25 6,-5 12,-11 17,-15z"/>
  <polygon class="fil28" points="8823,2923 8826,2843 8833,2843 8867,2883 8864,2952 8832,2915 "/>
  <polygon class="fil28" points="8713,3016 8633,3007 8632,3013 8666,3053 8735,3061 8703,3024 "/>
  <rect class="fil29" transform="matrix(0.470579 -0.402444 0.428895 0.501508 8695.79 3014.95)" width="273.41" height="97.01"/>
  <rect class="fil30" transform="matrix(0.565108 -0.069173 0.069173 0.565108 8593.61 4569.9)" width="212" height="811" rx="100" ry="100"/>
  <rect class="fil30" transform="matrix(-0.565108 -0.069173 -0.069173 0.565108 10403.7 4524.71)" width="212" height="811" rx="100" ry="100"/>
  <rect class="fil12" transform="matrix(-0.569324 0.00156204 0.00156204 0.569324 9624.82 4748.01)" width="212" height="811" rx="100" ry="100"/>
  <rect class="fil12" transform="matrix(-0.569324 0.00156204 0.00156204 0.569324 9820.64 4748.01)" width="212" height="811" rx="100" ry="100"/>
  <rect class="fil12" transform="matrix(-0.569324 0.00156204 0.00156204 0.569324 9439.03 4748.01)" width="212" height="811" rx="100" ry="100"/>
  <rect class="fil12" transform="matrix(-0.569324 0.00156204 0.00156204 0.569324 9253.25 4730.93)" width="212" height="811" rx="100" ry="100"/>
  <rect class="fil30" transform="matrix(-0.569324 0.00156204 0.00156204 0.569324 9077.51 4713.85)" width="212" height="811" rx="100" ry="100"/>
  <rect class="fil30" transform="matrix(-0.569324 0.00156204 0.00156204 0.569324 8916.83 4636.02)" width="212" height="811" rx="100" ry="100"/>
  <rect class="fil30" transform="matrix(-0.569324 0.00156204 0.00156204 0.569324 10001.4 4713.85)" width="212" height="811" rx="100" ry="100"/>
  <rect class="fil30" transform="matrix(-0.569324 0.00156204 0.00156204 0.569324 10184 4631)" width="212" height="811" rx="100" ry="100"/>
  <path class="fil8" d="M10546 5227c112,-145 332,-184 517,-84 203,110 288,347 190,528 -57,106 -165,170 -285,182l-434 -312 12 -315z"/>
  <path class="fil0" d="M10908 5721c113,1 216,-59 257,-161 54,-137 -33,-299 -179,-357 -146,-58 -385,-22 -439,149l94 141 267 228z"/>
  <ellipse class="fil20" transform="matrix(-0.563638 0.0802755 0.0802755 0.563638 10809.4 6450.56)" rx="472" ry="904"/>
  <path class="fil19" d="M10737 5941c-129,18 -225,245 -182,360 45,120 130,191 222,196 174,10 255,-167 230,-324 -21,-134 -124,-253 -270,-232z"/>
  <ellipse class="fil19" cx="11087" cy="5757" rx="68" ry="184"/>
  <path class="fil21" d="M10555 6150c45,120 130,191 222,196 158,9 299,-205 316,-479 34,-564 -157,-514 -547,-514 0,157 -44,652 10,796z"/>
  <path class="fil20" d="M11079 5562c-54,-238 -236,-208 -534,-208 0,46 -4,121 -8,208l542 0z"/>
  <path class="fil10" d="M11085 6928l53 -51c22,-21 57,-20 79,2l233 225c22,21 21,58 -2,79l-53 51c-22,21 -57,20 -79,-2l-233 -225c-22,-21 -21,-58 2,-79z"/>
  <rect class="fil10" transform="matrix(0.540253 -0.179607 0.179607 0.540253 10632.4 6833.18)" width="816" height="569" rx="100" ry="100"/>
  <rect class="fil11" transform="matrix(0.677902 -0.225368 0.225368 0.677902 10642.8 7036.41)" width="816" height="569" rx="100" ry="100"/>
  <rect class="fil15" transform="matrix(0.484653 0.0501809 -0.0501809 0.484653 10736.6 7200.07)" width="331" height="626" rx="100" ry="100"/>
  <rect class="fil15" transform="matrix(0.487137 -0.0102387 0.0102387 0.487137 10883.4 7221.99)" width="331" height="626" rx="100" ry="100"/>
  <rect class="fil15" transform="matrix(0.484471 -0.0519076 0.0519076 0.484471 11028.4 7200.64)" width="331" height="626" rx="100" ry="100"/>
  <rect class="fil15" transform="matrix(0.485035 -0.0463445 0.0463445 0.485035 11183.3 7129.4)" width="331" height="626" rx="100" ry="100"/>
  <path class="fil12" d="M8755 6413l0 313c0,41 31,76 73,85 -17,-16 -28,-38 -28,-61l0 -313c0,-48 44,-88 97,-88l444 2c8,0 16,1 24,3 -18,-17 -42,-27 -70,-27l-444 -2c-53,0 -97,39 -97,88z"/>
  <rect class="fil31" transform="matrix(-0.000193899 0.439754 0.354898 0.00136009 8785.48 6339.36)" width="1111" height="1799" rx="200" ry="200"/>
  <path class="fil9" d="M8755 5797l1 313c0,41 31,75 73,85 -17,-16 -28,-37 -28,-61l-1 -313c0,-48 44,-88 97,-88l444 1c8,0 16,1 24,3 -18,-17 -42,-27 -70,-27l-444 -1c-53,0 -97,39 -97,88z"/>
  <rect class="fil31" transform="matrix(0.000763692 0.439753 0.3549 0.000587272 8784.96 5723.82)" width="1111" height="1799" rx="200" ry="200"/>
  <path class="fil12" d="M9538 6414l1 313c0,41 31,75 73,85 -17,-16 -28,-37 -28,-61l-1 -313c0,-48 43,-88 97,-88l444 0c8,0 16,1 24,3 -18,-17 -43,-27 -70,-27l-444 0c-53,0 -97,40 -97,88z"/>
  <rect class="fil31" transform="matrix(0.00141192 0.439752 0.354901 6.41234E-005 9567.91 6340.47)" width="1111" height="1799" rx="200" ry="200"/>
  <path class="fil9" d="M9538 5800l0 313c0,41 31,75 73,85 -17,-16 -28,-38 -28,-61l0 -313c0,-48 44,-88 97,-88l444 1c8,0 16,1 24,3 -18,-17 -42,-27 -70,-27l-444 -1c-53,0 -97,39 -97,88z"/>
  <rect class="fil31" transform="matrix(0.000425847 0.439754 0.3549 0.000859927 9568.45 5726.94)" width="1111" height="1799" rx="200" ry="200"/>
  <polygon class="fil12" points="9835,7678 10593,7816 10435,8856 9800,8765 "/>
  <ellipse class="fil19" cx="10247" cy="7731" rx="473" ry="530"/>
  <ellipse class="fil29" cx="10247" cy="7707" rx="362" ry="406"/>
  <rect class="fil22" x="9572" y="8675" width="1115" height="547" rx="61355" ry="70519"/>
  <path class="fil23" d="M9698 8897c43,54 138,78 174,-18 20,-52 153,-53 75,-114 -101,-79 -345,13 -249,132z"/>
  <path class="fil10" d="M9720 9265l803 0c48,0 88,-40 88,-88l0 0c0,-51 -33,-55 -61,-22 -22,27 -39,66 -83,-15 -16,-28 -33,-53 -63,-9 -93,136 -71,-135 -139,-9 -50,93 -74,0 -98,-20 -42,-35 -43,11 -53,31 -18,39 -58,29 -64,8 -17,-60 -42,-45 -62,-19 -35,45 -55,34 -86,-20 -20,-34 -46,-18 -57,14 -33,99 -64,87 -127,36 -44,-36 -87,-46 -87,22l0 0c0,14 3,28 9,39 15,29 44,48 78,48z"/>
  <path class="fil12" d="M17013 1627c572,0 1036,464 1036,1036 0,572 -464,1036 -1036,1036 -572,0 -1036,-464 -1036,-1036 0,-572 464,-1036 1036,-1036z"/>
  <ellipse class="fil13" cx="17997" cy="2648" rx="196" ry="603"/>
  <ellipse class="fil14" cx="18152" cy="2616" rx="46" ry="241"/>
  <path class="fil9" d="M16592 2008c179,-177 650,-181 852,17l97 366c-125,-127 -340,-178 -525,-178 -176,0 -396,63 -534,180l111 -385z"/>
  <path class="fil15" d="M17520 2312l20 75c-125,-127 -340,-178 -525,-178 -176,0 -396,63 -534,180l21 -73c139,-106 346,-163 513,-163 176,0 379,46 505,159z"/>
  <path class="fil16" d="M17365 2948c-130,0 -228,-159 -365,-159 -146,0 -241,159 -375,159 -226,0 -347,-263 -236,-451 109,-184 404,-286 627,-286 219,0 480,72 584,255 110,194 10,482 -233,482z"/>
  <path class="fil17" d="M17365 2964c-69,0 -128,-40 -187,-81 -57,-39 -114,-78 -178,-78 -70,0 -129,40 -187,79 -60,40 -118,80 -188,80 -54,0 -102,-14 -144,-39 -47,-28 -85,-69 -111,-117 -26,-48 -40,-102 -40,-158 0,-55 14,-111 44,-162 52,-89 146,-159 254,-208 123,-56 265,-86 386,-86 121,0 255,22 369,71 97,42 179,105 228,191 31,56 47,119 47,181 0,59 -14,117 -39,167 -26,51 -65,94 -115,122 -40,23 -87,36 -140,36zm-169 -107c55,38 109,75 169,75 47,0 89,-11 124,-31 44,-25 79,-64 102,-109 24,-46 36,-99 36,-153 0,-57 -14,-114 -42,-165 -45,-80 -123,-138 -213,-178 -110,-48 -239,-69 -356,-69 -117,0 -254,29 -373,83 -103,47 -191,113 -240,196 -27,46 -39,96 -39,146 0,50 13,100 36,143 23,43 57,80 99,104 36,22 79,34 127,34 61,0 115,-37 171,-74 62,-42 125,-85 204,-85 74,0 136,42 196,84z"/>
  <path class="fil15" d="M17989 2037c-144,0 -261,274 -261,613 0,338 117,613 261,613 23,0 45,-7 66,-20 -112,-69 -194,-308 -194,-592 0,-284 82,-523 194,-592 -21,-13 -43,-20 -66,-20z"/>
  <path class="fil15" d="M17853 2573c48,-35 193,-42 259,0l0 22c-66,-30 -208,-32 -254,9l-5 -32z"/>
  <path class="fil18" d="M17852 2572c25,-18 77,-29 130,-29 49,0 99,9 130,29l1 0 0 1 0 22 0 2 -2 -1c-34,-16 -90,-24 -141,-22 -46,2 -90,11 -111,31l-2 2 0 -3 -5 -32 0 -1 1 -1zm130 -26c-52,0 -103,10 -128,28l4 28c23,-19 66,-28 111,-30 51,-2 105,6 140,21l0 -19c-31,-19 -80,-28 -128,-28z"/>
  <path class="fil15" d="M17853 2727c48,35 193,42 259,0l0 -22c-66,30 -208,32 -254,-9l-5 32z"/>
  <path class="fil18" d="M17855 2727c25,18 76,28 128,28 48,0 97,-9 128,-28l0 -19c-35,15 -89,23 -140,21 -46,-2 -89,-11 -111,-30l-4 28zm128 31c-53,0 -105,-11 -130,-29l-1 -1 0 -1 5 -32 0 -3 2 2c22,19 65,29 111,31 51,2 107,-6 141,-22l2 -1 0 2 0 22 0 1 -1 0c-32,20 -82,29 -130,29z"/>
  <path class="fil15" d="M17902 2947c59,7 189,-58 226,-127l-11 -20c-43,58 -166,130 -226,116l11 30z"/>
  <path class="fil18" d="M17903 2945c30,3 80,-13 125,-38 42,-23 80,-55 98,-87l-10 -17c-23,30 -67,64 -112,87 -41,21 -83,34 -112,29l10 27zm126 -36c-46,26 -97,42 -128,38l-1 0 0 -1 -11 -30 -1 -2 3 1c28,6 71,-7 112,-28 46,-24 90,-58 112,-88l1 -2 1 2 11 20 0 1 0 1c-18,33 -57,65 -100,89z"/>
  <path class="fil15" d="M17983 3156c56,-20 142,-137 144,-215l-19 -12c-12,71 -89,190 -149,206l23 22z"/>
  <path class="fil18" d="M17983 3155c29,-11 65,-47 94,-90 27,-40 47,-85 48,-122l-16 -11c-7,37 -31,87 -61,128 -27,37 -58,67 -87,76l21 19zm97 -89c-30,44 -67,81 -97,92l-1 0 -1 -1 -23 -22 -2 -2 3 -1c28,-7 60,-38 87,-76 30,-42 54,-92 61,-129l0 -2 2 1 19 12 1 0 0 1c-1,38 -21,84 -49,125z"/>
  <path class="fil15" d="M17985 2103c56,20 161,154 163,233l-19 12c-12,-71 -108,-208 -168,-223l23 -22z"/>
  <path class="fil15" d="M17895 2349c59,-7 189,58 226,127l-11 20c-43,-58 -166,-130 -226,-116l11 -30z"/>
  <path class="fil18" d="M17895 2348c31,-4 81,12 128,38 42,24 82,56 100,89l0 1 0 1 -11 20 -1 2 -1 -2c-22,-30 -67,-64 -112,-88 -41,-21 -84,-34 -112,-28l-3 1 1 -2 11 -30 0 -1 1 0zm126 41c-45,-26 -95,-41 -125,-38l-10 27c29,-5 71,8 112,29 45,23 89,57 112,87l10 -17c-18,-32 -56,-64 -98,-87z"/>
  <ellipse class="fil15" cx="18136" cy="2616" rx="28" ry="241"/>
  <path class="fil24" d="M16451 2629c103,-80 118,-100 265,-98 74,1 180,69 80,135 -13,9 -107,71 -110,76"/>
  <polygon class="fil25" points="16847,2695 16837,2693 16837,2693 16837,2693 16553,2635 16558,2609 16798,2658 16613,2493 16630,2473 16849,2668 16853,2669 16852,2671 16855,2673 16851,2677 "/>
  <polygon class="fil25" points="17183,2687 17193,2686 17193,2686 17193,2686 17480,2645 17477,2619 17235,2653 17429,2499 17413,2479 17182,2660 17179,2661 17179,2663 17177,2665 17180,2669 "/>
  <path class="fil15" d="M16405 3320c255,252 927,259 1214,-24l211 -795 -103 3 -108 407c-287,282 -959,276 -1214,24l-112 -390 -110 3 223 772z"/>
  <path class="fil15" d="M18047 2058c49,33 119,189 102,265l-21 8c6,-72 -55,-228 -109,-257l28 -15z"/>
  <path class="fil24" d="M17884 2344c46,-3 255,47 232,134"/>
  <path class="fil26" d="M17884 2341c15,-1 48,4 84,13 34,9 71,23 100,40 30,18 51,40 53,67 0,6 0,12 -2,18l-7 -2c1,-5 2,-10 2,-15 -2,-24 -22,-44 -50,-61 -28,-17 -65,-31 -98,-40 -35,-10 -67,-14 -82,-13l0 -8z"/>
  <path class="fil27" d="M18037 3252c6,-3 12,-6 18,-10 -112,-69 -194,-308 -194,-592 0,-284 82,-523 194,-592 -6,-4 -12,-7 -18,-10 -121,53 -213,302 -213,602 0,300 92,549 213,602z"/>
  <path class="fil15" d="M18052 3245c47,-36 106,-226 78,-302l-15 25c10,72 -40,231 -92,264l29 14z"/>
  <path class="fil24" d="M17862 2602c41,-20 254,-53 265,36"/>
  <path class="fil26" d="M17860 2599c14,-7 46,-15 83,-19 35,-4 74,-6 108,-1 34,5 63,18 74,42l0 0c3,5 4,11 5,17l-7 1c-1,-5 -2,-10 -4,-15l0 0c-10,-21 -37,-33 -69,-38 -33,-5 -72,-4 -106,1 -36,5 -67,12 -80,19l-3 -7z"/>
  <path class="fil24" d="M17862 2739c41,20 254,53 265,-36"/>
  <path class="fil26" d="M17864 2736c13,6 44,14 80,19 34,4 73,6 106,1 32,-5 59,-16 69,-38l0 0c2,-4 4,-9 4,-15l7 1c-1,6 -3,12 -5,17l0 0c-12,24 -40,36 -74,42 -34,5 -73,4 -108,-1 -37,-5 -69,-13 -83,-19l3 -7z"/>
  <path class="fil24" d="M17908 2961c46,-2 248,-77 214,-160"/>
  <path class="fil26" d="M17893 2950c15,0 46,-6 81,-17 33,-10 69,-25 96,-44 27,-18 46,-39 47,-63 0,-5 -1,-10 -2,-15l7 -2c2,6 3,12 3,18 -1,26 -21,50 -50,69 -28,19 -65,34 -98,45 -36,11 -68,17 -83,17l0 -8z"/>
  <path class="fil26" d="M17996 2109c13,7 39,28 64,55 24,26 48,57 64,87 17,32 47,101 15,131l-5 -5c29,-27 -2,-93 -17,-122 -15,-30 -39,-60 -63,-85 -25,-27 -50,-47 -62,-54l4 -7z"/>
  <ellipse class="fil13" cx="16023" cy="2648" rx="196" ry="603"/>
  <ellipse class="fil14" cx="15868" cy="2616" rx="46" ry="241"/>
  <path class="fil15" d="M16031 2037c144,0 261,274 261,613 0,338 -117,613 -261,613 -23,0 -45,-7 -66,-20 112,-69 194,-308 194,-592 0,-284 -82,-523 -194,-592 21,-13 43,-20 66,-20z"/>
  <path class="fil15" d="M16167 2573c-48,-35 -193,-42 -259,0l0 22c66,-30 208,-32 254,9l5 -32z"/>
  <path class="fil18" d="M16168 2572c-25,-18 -77,-29 -130,-29 -49,0 -99,9 -130,29l-1 0 0 1 0 22 0 2 2 -1c34,-16 90,-24 141,-22 46,2 90,11 111,31l2 2 0 -3 5 -32 0 -1 -1 -1zm-130 -26c52,0 103,10 128,28l-4 28c-23,-19 -66,-28 -111,-30 -51,-2 -105,6 -140,21l0 -19c31,-19 80,-28 128,-28z"/>
  <path class="fil15" d="M16167 2727c-48,35 -193,42 -259,0l0 -22c66,30 208,32 254,-9l5 32z"/>
  <path class="fil18" d="M16166 2727c-25,18 -76,28 -128,28 -48,0 -97,-9 -128,-28l0 -19c35,15 89,23 140,21 46,-2 89,-11 111,-30l4 28zm-128 31c53,0 105,-11 130,-29l1 -1 0 -1 -5 -32 0 -3 -2 2c-22,19 -65,29 -111,31 -51,2 -107,-6 -141,-22l-2 -1 0 2 0 22 0 1 1 0c32,20 82,29 130,29z"/>
  <path class="fil15" d="M16119 2947c-59,7 -189,-58 -226,-127l11 -20c43,58 166,130 226,116l-11 30z"/>
  <path class="fil18" d="M16118 2945c-30,3 -80,-13 -125,-38 -42,-23 -80,-55 -98,-87l10 -17c23,30 67,64 112,87 41,21 83,34 112,29l-10 27zm-126 -36c46,26 97,42 128,38l1 0 0 -1 11 -30 1 -2 -3 1c-28,6 -71,-7 -112,-28 -46,-24 -90,-58 -112,-88l-1 -2 -1 2 -11 20 0 1 0 1c18,33 57,65 100,89z"/>
  <path class="fil15" d="M16038 3156c-56,-20 -142,-137 -144,-215l19 -12c12,71 89,190 149,206l-23 22z"/>
  <path class="fil18" d="M16037 3155c-29,-11 -65,-47 -94,-90 -27,-40 -47,-85 -48,-122l16 -11c7,37 31,87 61,128 27,37 58,67 87,76l-21 19zm-97 -89c30,44 67,81 97,92l1 0 1 -1 23 -22 2 -2 -3 -1c-28,-7 -60,-38 -87,-76 -30,-42 -54,-92 -61,-129l0 -2 -2 1 -19 12 -1 0 0 1c1,38 21,84 49,125z"/>
  <path class="fil15" d="M16035 2103c-56,20 -161,154 -163,233l19 12c12,-71 108,-208 168,-223l-23 -22z"/>
  <path class="fil15" d="M16125 2349c-59,-7 -189,58 -226,127l11 20c43,-58 166,-130 226,-116l-11 -30z"/>
  <path class="fil18" d="M16125 2348c-31,-4 -81,12 -128,38 -42,24 -82,56 -100,89l0 1 0 1 11 20 1 2 1 -2c22,-30 67,-64 112,-88 41,-21 84,-34 112,-28l3 1 -1 -2 -11 -30 0 -1 -1 0zm-126 41c45,-26 95,-41 125,-38l10 27c-29,-5 -71,8 -112,29 -45,23 -89,57 -112,87l-10 -17c18,-32 56,-64 98,-87z"/>
  <ellipse class="fil15" cx="15884" cy="2616" rx="28" ry="241"/>
  <path class="fil15" d="M15974 2058c-49,33 -119,189 -102,265l21 8c-6,-72 55,-228 109,-257l-28 -15z"/>
  <path class="fil24" d="M16137 2344c-46,-3 -255,47 -232,134"/>
  <path class="fil26" d="M16137 2341c-15,-1 -48,4 -84,13 -34,9 -71,23 -100,40 -30,18 -51,40 -53,67 0,6 0,12 2,18l7 -2c-1,-5 -2,-10 -2,-15 2,-24 22,-44 50,-61 28,-17 65,-31 98,-40 35,-10 67,-14 82,-13l0 -8z"/>
  <path class="fil27" d="M15983 3252c-6,-3 -12,-6 -18,-10 112,-69 194,-308 194,-592 0,-284 -82,-523 -194,-592 6,-4 12,-7 18,-10 121,53 213,302 213,602 0,300 -92,549 -213,602z"/>
  <path class="fil15" d="M15968 3245c-47,-36 -106,-226 -78,-302l15 25c-10,72 40,231 92,264l-29 14z"/>
  <path class="fil24" d="M16158 2602c-41,-20 -254,-53 -265,36"/>
  <path class="fil26" d="M16160 2599c-14,-7 -46,-15 -83,-19 -35,-4 -74,-6 -108,-1 -34,5 -63,18 -74,42l0 0c-3,5 -4,11 -5,17l7 1c1,-5 2,-10 4,-15l0 0c10,-21 37,-33 69,-38 33,-5 72,-4 106,1 36,5 67,12 80,19l3 -7z"/>
  <path class="fil24" d="M16158 2739c-41,20 -254,53 -265,-36"/>
  <path class="fil26" d="M16157 2736c-13,6 -44,14 -80,19 -34,4 -73,6 -106,1 -32,-5 -59,-16 -69,-38l0 0c-2,-4 -4,-9 -4,-15l-7 1c1,6 3,12 5,17l0 0c12,24 40,36 74,42 34,5 73,4 108,-1 37,-5 69,-13 83,-19l-3 -7z"/>
  <path class="fil24" d="M16113 2961c-46,-2 -248,-77 -214,-160"/>
  <path class="fil26" d="M16127 2950c-15,0 -46,-6 -81,-17 -33,-10 -69,-25 -96,-44 -27,-18 -46,-39 -47,-63 0,-5 1,-10 2,-15l-7 -2c-2,6 -3,12 -3,18 1,26 21,50 50,69 28,19 65,34 98,45 36,11 68,17 83,17l0 -8z"/>
  <path class="fil26" d="M16025 2109c-13,7 -39,28 -64,55 -24,26 -48,57 -64,87 -17,32 -47,101 -15,131l5 -5c-29,-27 2,-93 17,-122 15,-30 39,-60 63,-85 25,-27 50,-47 62,-54l-4 -7z"/>
  <ellipse class="fil9" transform="matrix(0.325584 0.188999 -0.188999 0.325584 17493.5 2017.68)" rx="398" ry="165"/>
  <path class="fil15" d="M17381 1924c-17,9 -31,21 -40,38 -28,55 14,133 93,173 79,40 166,28 194,-28 5,-10 8,-20 8,-31 -1,1 -3,3 -4,4 -44,44 -130,28 -193,-35 -37,-37 -57,-82 -59,-122z"/>
  <ellipse class="fil15" transform="matrix(-0.254804 -0.277129 -0.277129 0.254804 17504.1 1991.99)" rx="271" ry="170"/>
  <polygon class="fil13" points="17547,1938 17508,1919 17468,1901 17468,1925 17468,1950 17508,1984 17548,2018 17572,2015 17597,2011 17572,1974 "/>
  <rect class="fil28" transform="matrix(-0.175122 -0.149766 -0.225269 0.263408 17607.7 1899.61)" width="187" height="293" rx="100" ry="100"/>
  <path class="fil15" d="M17591 1886l0 0c-2,-2 -5,-3 -8,-4 0,2 1,3 1,5 2,6 7,11 14,15 0,-4 -1,-8 -4,-11 -1,-1 -2,-2 -2,-3 0,0 -1,-1 -1,-1zm-16 -5c-3,0 -6,1 -8,2 -1,2 -2,4 -3,5 -8,16 -3,25 7,29 5,3 11,4 16,5l1 0 5 -5c-1,0 -3,-1 -4,-1 -5,-1 -10,-2 -15,-4 -6,-3 -10,-9 -4,-21l0 0c2,5 5,10 11,14 5,4 10,7 14,8 1,-2 2,-4 3,-6 -4,-1 -8,-4 -13,-7 -7,-6 -10,-13 -11,-18l1 -2zm-27 23l-4 5c3,2 7,6 11,10 6,6 13,12 20,16 -2,-1 -4,-1 -7,-2 -11,-3 -25,-7 -32,-12 0,0 -1,-1 -1,-1l-6 7c1,2 1,5 2,7 3,8 8,17 18,20 -4,1 -7,0 -10,0 -4,-1 -8,-3 -10,-6 -3,-3 -4,-6 -5,-10 0,-1 0,-3 0,-5l0 0c-2,3 -4,6 -5,9 1,4 3,7 6,10 3,4 8,6 13,7 6,1 13,1 21,-2l8 -10 -1 0 0 -1 -2 1c-16,2 -23,-8 -27,-17 0,-1 -1,-3 -1,-4 8,5 21,8 31,11 2,1 5,1 7,2l8 -10c-7,-3 -15,-10 -23,-17 -4,-4 -8,-7 -12,-10z"/>
  <polygon class="fil28" points="17470,1954 17468,1901 17464,1901 17441,1928 17443,1973 17464,1949 "/>
  <polygon class="fil28" points="17543,2015 17596,2009 17597,2013 17574,2040 17529,2045 17550,2021 "/>
  <rect class="fil29" transform="matrix(-0.311168 -0.266114 -0.283605 0.331621 17554.6 2014.76)" width="273.41" height="97.01"/>
  <ellipse class="fil9" transform="matrix(-0.325584 0.188999 0.188999 0.325584 16541.3 2017.68)" rx="398" ry="165"/>
  <path class="fil15" d="M16654 1924c17,9 31,21 40,38 28,55 -14,133 -93,173 -79,40 -166,28 -194,-28 -5,-10 -8,-20 -8,-31 1,1 3,3 4,4 44,44 130,28 193,-35 37,-37 57,-82 59,-122z"/>
  <ellipse class="fil15" transform="matrix(0.254804 -0.277129 0.277129 0.254804 16530.7 1991.99)" rx="271" ry="170"/>
  <polygon class="fil13" points="16487,1938 16527,1919 16567,1901 16567,1925 16567,1950 16527,1984 16487,2018 16463,2015 16438,2011 16463,1974 "/>
  <rect class="fil28" transform="matrix(0.175122 -0.149766 0.225269 0.263408 16427.1 1899.61)" width="187" height="293" rx="100" ry="100"/>
  <path class="fil15" d="M16444 1886l0 0c2,-2 5,-3 8,-4 0,2 -1,3 -1,5 -2,6 -7,11 -14,15 0,-4 1,-8 4,-11 1,-1 2,-2 2,-3 0,0 1,-1 1,-1zm16 -5c3,0 6,1 8,2 1,2 2,4 3,5 8,16 3,25 -7,29 -5,3 -11,4 -16,5l-1 0 -5 -5c1,0 3,-1 4,-1 5,-1 10,-2 15,-4 6,-3 10,-9 4,-21l0 0c-2,5 -5,10 -11,14 -5,4 -10,7 -14,8 -1,-2 -2,-4 -3,-6 4,-1 8,-4 13,-7 7,-6 10,-13 11,-18l-1 -2zm27 23l4 5c-3,2 -7,6 -11,10 -6,6 -13,12 -20,16 2,-1 4,-1 7,-2 11,-3 25,-7 32,-12 0,0 1,-1 1,-1l6 7c-1,2 -1,5 -2,7 -3,8 -8,17 -18,20 4,1 7,0 10,0 4,-1 8,-3 10,-6 3,-3 4,-6 5,-10 0,-1 0,-3 0,-5l0 0c2,3 4,6 5,9 -1,4 -3,7 -6,10 -3,4 -8,6 -13,7 -6,1 -13,1 -21,-2l-8 -10 1 0 0 -1 2 1c16,2 23,-8 27,-17 0,-1 1,-3 1,-4 -8,5 -21,8 -31,11 -2,1 -5,1 -7,2l-8 -10c7,-3 15,-10 23,-17 4,-4 8,-7 12,-10z"/>
  <polygon class="fil28" points="16564,1954 16567,1901 16571,1901 16593,1928 16591,1973 16571,1949 "/>
  <polygon class="fil28" points="16491,2015 16438,2009 16438,2013 16461,2040 16506,2045 16485,2021 "/>
  <rect class="fil29" transform="matrix(0.311168 -0.266114 0.283605 0.331621 16480.2 2014.76)" width="273.41" height="97.01"/>
  <rect class="fil32" transform="matrix(0.373676 -0.0457404 0.0457404 0.373676 16412.6 3042.96)" width="212" height="811" rx="100" ry="100"/>
  <rect class="fil32" transform="matrix(-0.373676 -0.0457404 -0.0457404 0.373676 17609.6 3013.08)" width="212" height="811" rx="100" ry="100"/>
  <rect class="fil32" transform="matrix(-0.376463 0.0010329 0.0010329 0.376463 17094.5 3160.73)" width="212" height="811" rx="100" ry="100"/>
  <rect class="fil32" transform="matrix(-0.376463 0.0010329 0.0010329 0.376463 17224 3160.73)" width="212" height="811" rx="100" ry="100"/>
  <rect class="fil32" transform="matrix(-0.376463 0.0010329 0.0010329 0.376463 16971.7 3160.73)" width="212" height="811" rx="100" ry="100"/>
  <rect class="fil32" transform="matrix(-0.376463 0.0010329 0.0010329 0.376463 16848.8 3149.44)" width="212" height="811" rx="100" ry="100"/>
  <rect class="fil32" transform="matrix(-0.376463 0.0010329 0.0010329 0.376463 16732.6 3138.15)" width="212" height="811" rx="100" ry="100"/>
  <rect class="fil32" transform="matrix(-0.376463 0.0010329 0.0010329 0.376463 16626.4 3086.68)" width="212" height="811" rx="100" ry="100"/>
  <rect class="fil32" transform="matrix(-0.376463 0.0010329 0.0010329 0.376463 17343.5 3138.15)" width="212" height="811" rx="100" ry="100"/>
  <rect class="fil32" transform="matrix(-0.376463 0.0010329 0.0010329 0.376463 17464.3 3083.36)" width="212" height="811" rx="100" ry="100"/>
  <path class="fil12" d="M17013 4361c572,0 1036,464 1036,1036 0,572 -464,1036 -1036,1036 -572,0 -1036,-464 -1036,-1036 0,-572 464,-1036 1036,-1036z"/>
  <path class="fil15" d="M17682 6184c-38,32 -77,62 -119,88 -295,-224 -863,-217 -1125,-11 -40,-26 -78,-55 -114,-87l77 -266c255,-252 927,-259 1214,24l67 252z"/>
  <ellipse class="fil13" cx="17997" cy="5382" rx="196" ry="603"/>
  <ellipse class="fil14" cx="18152" cy="5350" rx="46" ry="241"/>
  <path class="fil9" d="M16592 4742c179,-177 650,-181 852,17l97 366c-125,-127 -340,-178 -525,-178 -176,0 -396,63 -534,180l111 -385z"/>
  <path class="fil15" d="M17520 5046l20 75c-125,-127 -340,-178 -525,-178 -176,0 -396,63 -534,180l21 -73c139,-106 346,-163 513,-163 176,0 379,46 505,159z"/>
  <path class="fil16" d="M17365 5682c-130,0 -228,-159 -365,-159 -146,0 -241,159 -375,159 -226,0 -347,-263 -236,-451 109,-184 404,-286 627,-286 219,0 480,72 584,255 110,194 10,482 -233,482z"/>
  <path class="fil17" d="M17365 5698c-69,0 -128,-40 -187,-81 -57,-39 -114,-78 -178,-78 -70,0 -129,40 -187,79 -60,40 -118,80 -188,80 -54,0 -102,-14 -144,-39 -47,-28 -85,-69 -111,-117 -26,-48 -40,-102 -40,-158 0,-55 14,-111 44,-162 52,-89 146,-159 254,-208 123,-56 265,-86 386,-86 121,0 255,22 369,71 97,42 179,105 228,191 31,56 47,119 47,181 0,59 -14,117 -39,167 -26,51 -65,94 -115,122 -40,23 -87,36 -140,36zm-169 -107c55,38 109,75 169,75 47,0 89,-11 124,-31 44,-25 79,-64 102,-109 24,-46 36,-99 36,-153 0,-57 -14,-114 -42,-165 -45,-80 -123,-138 -213,-178 -110,-48 -239,-69 -356,-69 -117,0 -254,29 -373,83 -103,47 -191,113 -240,196 -27,46 -39,96 -39,146 0,50 13,100 36,143 23,43 57,80 99,104 36,22 79,34 127,34 61,0 115,-37 171,-74 62,-42 125,-85 204,-85 74,0 136,42 196,84z"/>
  <path class="fil15" d="M17989 4771c-144,0 -261,274 -261,613 0,338 117,613 261,613 23,0 45,-7 66,-20 -112,-69 -194,-308 -194,-592 0,-284 82,-523 194,-592 -21,-13 -43,-20 -66,-20z"/>
  <path class="fil15" d="M17853 5307c48,-35 193,-42 259,0l0 22c-66,-30 -208,-32 -254,9l-5 -32z"/>
  <path class="fil18" d="M17852 5306c25,-18 77,-29 130,-29 49,0 99,9 130,29l1 0 0 1 0 22 0 2 -2 -1c-34,-16 -90,-24 -141,-22 -46,2 -90,11 -111,31l-2 2 0 -3 -5 -32 0 -1 1 -1zm130 -26c-52,0 -103,10 -128,28l4 28c23,-19 66,-28 111,-30 51,-2 105,6 140,21l0 -19c-31,-19 -80,-28 -128,-28z"/>
  <path class="fil15" d="M17853 5461c48,35 193,42 259,0l0 -22c-66,30 -208,32 -254,-9l-5 32z"/>
  <path class="fil18" d="M17855 5460c25,18 76,28 128,28 48,0 97,-9 128,-28l0 -19c-35,15 -89,23 -140,21 -46,-2 -89,-11 -111,-30l-4 28zm128 31c-53,0 -105,-11 -130,-29l-1 -1 0 -1 5 -32 0 -3 2 2c22,19 65,29 111,31 51,2 107,-6 141,-22l2 -1 0 2 0 22 0 1 -1 0c-32,20 -82,29 -130,29z"/>
  <path class="fil15" d="M17902 5680c59,7 189,-58 226,-127l-11 -20c-43,58 -166,130 -226,116l11 30z"/>
  <path class="fil18" d="M17903 5679c30,3 80,-13 125,-38 42,-23 80,-55 98,-87l-10 -17c-23,30 -67,64 -112,87 -41,21 -83,34 -112,29l10 27zm126 -36c-46,26 -97,42 -128,38l-1 0 0 -1 -11 -30 -1 -2 3 1c28,6 71,-7 112,-28 46,-24 90,-58 112,-88l1 -2 1 2 11 20 0 1 0 1c-18,33 -57,65 -100,89z"/>
  <path class="fil15" d="M17983 5890c56,-20 142,-137 144,-215l-19 -12c-12,71 -89,190 -149,206l23 22z"/>
  <path class="fil18" d="M17983 5889c29,-11 65,-47 94,-90 27,-40 47,-85 48,-122l-16 -11c-7,37 -31,87 -61,128 -27,37 -58,67 -87,76l21 19zm97 -89c-30,44 -67,81 -97,92l-1 0 -1 -1 -23 -22 -2 -2 3 -1c28,-7 60,-38 87,-76 30,-42 54,-92 61,-129l0 -2 2 1 19 12 1 0 0 1c-1,38 -21,84 -49,125z"/>
  <path class="fil15" d="M17985 4837c56,20 161,154 163,233l-19 12c-12,-71 -108,-208 -168,-223l23 -22z"/>
  <path class="fil15" d="M17895 5083c59,-7 189,58 226,127l-11 20c-43,-58 -166,-130 -226,-116l11 -30z"/>
  <path class="fil18" d="M17895 5081c31,-4 81,12 128,38 42,24 82,56 100,89l0 1 0 1 -11 20 -1 2 -1 -2c-22,-30 -67,-64 -112,-88 -41,-21 -84,-34 -112,-28l-3 1 1 -2 11 -30 0 -1 1 0zm126 41c-45,-26 -95,-41 -125,-38l-10 27c29,-5 71,8 112,29 45,23 89,57 112,87l10 -17c-18,-32 -56,-64 -98,-87z"/>
  <ellipse class="fil15" cx="18136" cy="5350" rx="28" ry="241"/>
  <path class="fil24" d="M16451 5362c103,-80 118,-100 265,-98 74,1 180,69 80,135 -13,9 -107,71 -110,76"/>
  <polygon class="fil25" points="17274,5365 17280,5357 17280,5357 17280,5357 17459,5128 17438,5112 17287,5305 17320,5059 17294,5056 17255,5346 17253,5349 17255,5350 17254,5354 17260,5354 "/>
  <path class="fil15" d="M18047 4791c49,33 119,189 102,265l-21 8c6,-72 -55,-228 -109,-257l28 -15z"/>
  <path class="fil24" d="M17884 5078c46,-3 255,47 232,134"/>
  <path class="fil26" d="M17884 5074c15,-1 48,4 84,13 34,9 71,23 100,40 30,18 51,40 53,67 0,6 0,12 -2,18l-7 -2c1,-5 2,-10 2,-15 -2,-24 -22,-44 -50,-61 -28,-17 -65,-31 -98,-40 -35,-10 -67,-14 -82,-13l0 -8z"/>
  <path class="fil27" d="M18037 5986c6,-3 12,-6 18,-10 -112,-69 -194,-308 -194,-592 0,-284 82,-523 194,-592 -6,-4 -12,-7 -18,-10 -121,53 -213,302 -213,602 0,300 92,549 213,602z"/>
  <path class="fil15" d="M18052 5979c47,-36 106,-226 78,-302l-15 25c10,72 -40,231 -92,264l29 14z"/>
  <path class="fil24" d="M17862 5336c41,-20 254,-53 265,36"/>
  <path class="fil26" d="M17860 5332c14,-7 46,-15 83,-19 35,-4 74,-6 108,-1 34,5 63,18 74,42l0 0c3,5 4,11 5,17l-7 1c-1,-5 -2,-10 -4,-15l0 0c-10,-21 -37,-33 -69,-38 -33,-5 -72,-4 -106,1 -36,5 -67,12 -80,19l-3 -7z"/>
  <path class="fil24" d="M17862 5473c41,20 254,53 265,-36"/>
  <path class="fil26" d="M17864 5470c13,6 44,14 80,19 34,4 73,6 106,1 32,-5 59,-16 69,-38l0 0c2,-4 4,-9 4,-15l7 1c-1,6 -3,12 -5,17l0 0c-12,24 -40,36 -74,42 -34,5 -73,4 -108,-1 -37,-5 -69,-13 -83,-19l3 -7z"/>
  <path class="fil24" d="M17908 5695c46,-2 248,-77 214,-160"/>
  <path class="fil26" d="M17893 5684c15,0 46,-6 81,-17 33,-10 69,-25 96,-44 27,-18 46,-39 47,-63 0,-5 -1,-10 -2,-15l7 -2c2,6 3,12 3,18 -1,26 -21,50 -50,69 -28,19 -65,34 -98,45 -36,11 -68,17 -83,17l0 -8z"/>
  <path class="fil26" d="M17996 4843c13,7 39,28 64,55 24,26 48,57 64,87 17,32 47,101 15,131l-5 -5c29,-27 -2,-93 -17,-122 -15,-30 -39,-60 -63,-85 -25,-27 -50,-47 -62,-54l4 -7z"/>
  <ellipse class="fil13" cx="16023" cy="5382" rx="196" ry="603"/>
  <ellipse class="fil14" cx="15868" cy="5350" rx="46" ry="241"/>
  <path class="fil15" d="M16031 4771c144,0 261,274 261,613 0,338 -117,613 -261,613 -23,0 -45,-7 -66,-20 112,-69 194,-308 194,-592 0,-284 -82,-523 -194,-592 21,-13 43,-20 66,-20z"/>
  <path class="fil15" d="M16167 5307c-48,-35 -193,-42 -259,0l0 22c66,-30 208,-32 254,9l5 -32z"/>
  <path class="fil18" d="M16168 5306c-25,-18 -77,-29 -130,-29 -49,0 -99,9 -130,29l-1 0 0 1 0 22 0 2 2 -1c34,-16 90,-24 141,-22 46,2 90,11 111,31l2 2 0 -3 5 -32 0 -1 -1 -1zm-130 -26c52,0 103,10 128,28l-4 28c-23,-19 -66,-28 -111,-30 -51,-2 -105,6 -140,21l0 -19c31,-19 80,-28 128,-28z"/>
  <path class="fil15" d="M16167 5461c-48,35 -193,42 -259,0l0 -22c66,30 208,32 254,-9l5 32z"/>
  <path class="fil18" d="M16166 5460c-25,18 -76,28 -128,28 -48,0 -97,-9 -128,-28l0 -19c35,15 89,23 140,21 46,-2 89,-11 111,-30l4 28zm-128 31c53,0 105,-11 130,-29l1 -1 0 -1 -5 -32 0 -3 -2 2c-22,19 -65,29 -111,31 -51,2 -107,-6 -141,-22l-2 -1 0 2 0 22 0 1 1 0c32,20 82,29 130,29z"/>
  <path class="fil15" d="M16119 5680c-59,7 -189,-58 -226,-127l11 -20c43,58 166,130 226,116l-11 30z"/>
  <path class="fil18" d="M16118 5679c-30,3 -80,-13 -125,-38 -42,-23 -80,-55 -98,-87l10 -17c23,30 67,64 112,87 41,21 83,34 112,29l-10 27zm-126 -36c46,26 97,42 128,38l1 0 0 -1 11 -30 1 -2 -3 1c-28,6 -71,-7 -112,-28 -46,-24 -90,-58 -112,-88l-1 -2 -1 2 -11 20 0 1 0 1c18,33 57,65 100,89z"/>
  <path class="fil15" d="M16038 5890c-56,-20 -142,-137 -144,-215l19 -12c12,71 89,190 149,206l-23 22z"/>
  <path class="fil18" d="M16037 5889c-29,-11 -65,-47 -94,-90 -27,-40 -47,-85 -48,-122l16 -11c7,37 31,87 61,128 27,37 58,67 87,76l-21 19zm-97 -89c30,44 67,81 97,92l1 0 1 -1 23 -22 2 -2 -3 -1c-28,-7 -60,-38 -87,-76 -30,-42 -54,-92 -61,-129l0 -2 -2 1 -19 12 -1 0 0 1c1,38 21,84 49,125z"/>
  <path class="fil15" d="M16035 4837c-56,20 -161,154 -163,233l19 12c12,-71 108,-208 168,-223l-23 -22z"/>
  <path class="fil15" d="M16125 5083c-59,-7 -189,58 -226,127l11 20c43,-58 166,-130 226,-116l-11 -30z"/>
  <path class="fil18" d="M16125 5081c-31,-4 -81,12 -128,38 -42,24 -82,56 -100,89l0 1 0 1 11 20 1 2 1 -2c22,-30 67,-64 112,-88 41,-21 84,-34 112,-28l3 1 -1 -2 -11 -30 0 -1 -1 0zm-126 41c45,-26 95,-41 125,-38l10 27c-29,-5 -71,8 -112,29 -45,23 -89,57 -112,87l-10 -17c18,-32 56,-64 98,-87z"/>
  <ellipse class="fil15" cx="15884" cy="5350" rx="28" ry="241"/>
  <path class="fil15" d="M15974 4791c-49,33 -119,189 -102,265l21 8c-6,-72 55,-228 109,-257l-28 -15z"/>
  <path class="fil24" d="M16137 5078c-46,-3 -255,47 -232,134"/>
  <path class="fil26" d="M16137 5074c-15,-1 -48,4 -84,13 -34,9 -71,23 -100,40 -30,18 -51,40 -53,67 0,6 0,12 2,18l7 -2c-1,-5 -2,-10 -2,-15 2,-24 22,-44 50,-61 28,-17 65,-31 98,-40 35,-10 67,-14 82,-13l0 -8z"/>
  <path class="fil27" d="M15983 5986c-6,-3 -12,-6 -18,-10 112,-69 194,-308 194,-592 0,-284 -82,-523 -194,-592 6,-4 12,-7 18,-10 121,53 213,302 213,602 0,300 -92,549 -213,602z"/>
  <path class="fil15" d="M15968 5979c-47,-36 -106,-226 -78,-302l15 25c-10,72 40,231 92,264l-29 14z"/>
  <path class="fil24" d="M16158 5336c-41,-20 -254,-53 -265,36"/>
  <path class="fil26" d="M16160 5332c-14,-7 -46,-15 -83,-19 -35,-4 -74,-6 -108,-1 -34,5 -63,18 -74,42l0 0c-3,5 -4,11 -5,17l7 1c1,-5 2,-10 4,-15l0 0c10,-21 37,-33 69,-38 33,-5 72,-4 106,1 36,5 67,12 80,19l3 -7z"/>
  <path class="fil24" d="M16158 5473c-41,20 -254,53 -265,-36"/>
  <path class="fil26" d="M16157 5470c-13,6 -44,14 -80,19 -34,4 -73,6 -106,1 -32,-5 -59,-16 -69,-38l0 0c-2,-4 -4,-9 -4,-15l-7 1c1,6 3,12 5,17l0 0c12,24 40,36 74,42 34,5 73,4 108,-1 37,-5 69,-13 83,-19l-3 -7z"/>
  <path class="fil24" d="M16113 5695c-46,-2 -248,-77 -214,-160"/>
  <path class="fil26" d="M16127 5684c-15,0 -46,-6 -81,-17 -33,-10 -69,-25 -96,-44 -27,-18 -46,-39 -47,-63 0,-5 1,-10 2,-15l-7 -2c-2,6 -3,12 -3,18 1,26 21,50 50,69 28,19 65,34 98,45 36,11 68,17 83,17l0 -8z"/>
  <path class="fil26" d="M16025 4843c-13,7 -39,28 -64,55 -24,26 -48,57 -64,87 -17,32 -47,101 -15,131l5 -5c-29,-27 2,-93 17,-122 15,-30 39,-60 63,-85 25,-27 50,-47 62,-54l-4 -7z"/>
  <ellipse class="fil9" transform="matrix(0.325584 0.188999 -0.188999 0.325584 17493.5 4751.43)" rx="398" ry="165"/>
  <path class="fil15" d="M17381 4657c-17,9 -31,21 -40,38 -28,55 14,133 93,173 79,40 166,28 194,-28 5,-10 8,-20 8,-31 -1,1 -3,3 -4,4 -44,44 -130,28 -193,-35 -37,-37 -57,-82 -59,-122z"/>
  <ellipse class="fil15" transform="matrix(-0.254804 -0.277129 -0.277129 0.254804 17504.1 4725.74)" rx="271" ry="170"/>
  <polygon class="fil13" points="17547,4672 17508,4653 17468,4634 17468,4659 17468,4684 17508,4718 17548,4752 17572,4748 17597,4744 17572,4708 "/>
  <rect class="fil28" transform="matrix(-0.175122 -0.149766 -0.225269 0.263408 17607.7 4633.36)" width="187" height="293" rx="100" ry="100"/>
  <path class="fil15" d="M17591 4619l0 0c-2,-2 -5,-3 -8,-4 0,2 1,3 1,5 2,6 7,11 14,15 0,-4 -1,-8 -4,-11 -1,-1 -2,-2 -2,-3 0,0 -1,-1 -1,-1zm-16 -5c-3,0 -6,1 -8,2 -1,2 -2,4 -3,5 -8,16 -3,25 7,29 5,3 11,4 16,5l1 0 5 -5c-1,0 -3,-1 -4,-1 -5,-1 -10,-2 -15,-4 -6,-3 -10,-9 -4,-21l0 0c2,5 5,10 11,14 5,4 10,7 14,8 1,-2 2,-4 3,-6 -4,-1 -8,-4 -13,-7 -7,-6 -10,-13 -11,-18l1 -2zm-27 23l-4 5c3,2 7,6 11,10 6,6 13,12 20,16 -2,-1 -4,-1 -7,-2 -11,-3 -25,-7 -32,-12 0,0 -1,-1 -1,-1l-6 7c1,2 1,5 2,7 3,8 8,17 18,20 -4,1 -7,0 -10,0 -4,-1 -8,-3 -10,-6 -3,-3 -4,-6 -5,-10 0,-1 0,-3 0,-5l0 0c-2,3 -4,6 -5,9 1,4 3,7 6,10 3,4 8,6 13,7 6,1 13,1 21,-2l8 -10 -1 0 0 -1 -2 1c-16,2 -23,-8 -27,-17 0,-1 -1,-3 -1,-4 8,5 21,8 31,11 2,1 5,1 7,2l8 -10c-7,-3 -15,-10 -23,-17 -4,-4 -8,-7 -12,-10z"/>
  <polygon class="fil28" points="17470,4688 17468,4635 17464,4635 17441,4661 17443,4707 17464,4683 "/>
  <polygon class="fil28" points="17543,4749 17596,4743 17597,4747 17574,4774 17529,4779 17550,4755 "/>
  <rect class="fil29" transform="matrix(-0.311168 -0.266114 -0.283605 0.331621 17554.6 4748.51)" width="273.41" height="97.01"/>
  <ellipse class="fil9" transform="matrix(-0.325584 0.188999 0.188999 0.325584 16541.3 4751.43)" rx="398" ry="165"/>
  <path class="fil15" d="M16654 4657c17,9 31,21 40,38 28,55 -14,133 -93,173 -79,40 -166,28 -194,-28 -5,-10 -8,-20 -8,-31 1,1 3,3 4,4 44,44 130,28 193,-35 37,-37 57,-82 59,-122z"/>
  <ellipse class="fil15" transform="matrix(0.254804 -0.277129 0.277129 0.254804 16530.7 4725.74)" rx="271" ry="170"/>
  <polygon class="fil13" points="16487,4672 16527,4653 16567,4634 16567,4659 16567,4684 16527,4718 16487,4752 16463,4748 16438,4744 16463,4708 "/>
  <rect class="fil28" transform="matrix(0.175122 -0.149766 0.225269 0.263408 16427.1 4633.36)" width="187" height="293" rx="100" ry="100"/>
  <path class="fil15" d="M16444 4619l0 0c2,-2 5,-3 8,-4 0,2 -1,3 -1,5 -2,6 -7,11 -14,15 0,-4 1,-8 4,-11 1,-1 2,-2 2,-3 0,0 1,-1 1,-1zm16 -5c3,0 6,1 8,2 1,2 2,4 3,5 8,16 3,25 -7,29 -5,3 -11,4 -16,5l-1 0 -5 -5c1,0 3,-1 4,-1 5,-1 10,-2 15,-4 6,-3 10,-9 4,-21l0 0c-2,5 -5,10 -11,14 -5,4 -10,7 -14,8 -1,-2 -2,-4 -3,-6 4,-1 8,-4 13,-7 7,-6 10,-13 11,-18l-1 -2zm27 23l4 5c-3,2 -7,6 -11,10 -6,6 -13,12 -20,16 2,-1 4,-1 7,-2 11,-3 25,-7 32,-12 0,0 1,-1 1,-1l6 7c-1,2 -1,5 -2,7 -3,8 -8,17 -18,20 4,1 7,0 10,0 4,-1 8,-3 10,-6 3,-3 4,-6 5,-10 0,-1 0,-3 0,-5l0 0c2,3 4,6 5,9 -1,4 -3,7 -6,10 -3,4 -8,6 -13,7 -6,1 -13,1 -21,-2l-8 -10 1 0 0 -1 2 1c16,2 23,-8 27,-17 0,-1 1,-3 1,-4 -8,5 -21,8 -31,11 -2,1 -5,1 -7,2l-8 -10c7,-3 15,-10 23,-17 4,-4 8,-7 12,-10z"/>
  <polygon class="fil28" points="16564,4688 16567,4635 16571,4635 16593,4661 16591,4707 16571,4683 "/>
  <polygon class="fil28" points="16491,4749 16438,4743 16438,4747 16461,4774 16506,4779 16485,4755 "/>
  <rect class="fil29" transform="matrix(0.311168 -0.266114 0.283605 0.331621 16480.2 4748.51)" width="273.41" height="97.01"/>
  <rect class="fil32" transform="matrix(0.373676 0.0457404 0.0457404 -0.373676 16407.9 6185.26)" width="212" height="811" rx="100" ry="100"/>
  <rect class="fil32" transform="matrix(-0.373676 0.0457404 -0.0457404 -0.373676 17604.9 6215.14)" width="212" height="811" rx="100" ry="100"/>
  <rect class="fil32" transform="matrix(-0.376463 -0.0010329 0.0010329 -0.376463 17089.8 6067.48)" width="212" height="811" rx="100" ry="100"/>
  <rect class="fil32" transform="matrix(-0.376463 -0.0010329 0.0010329 -0.376463 17219.3 6067.48)" width="212" height="811" rx="100" ry="100"/>
  <rect class="fil32" transform="matrix(-0.376463 -0.0010329 0.0010329 -0.376463 16967 6067.48)" width="212" height="811" rx="100" ry="100"/>
  <rect class="fil32" transform="matrix(-0.376463 -0.0010329 0.0010329 -0.376463 16844.1 6078.78)" width="212" height="811" rx="100" ry="100"/>
  <rect class="fil32" transform="matrix(-0.376463 -0.0010329 0.0010329 -0.376463 16727.9 6090.07)" width="212" height="811" rx="100" ry="100"/>
  <rect class="fil32" transform="matrix(-0.376463 -0.0010329 0.0010329 -0.376463 16621.7 6141.54)" width="212" height="811" rx="100" ry="100"/>
  <rect class="fil32" transform="matrix(-0.376463 -0.0010329 0.0010329 -0.376463 17338.8 6090.07)" width="212" height="811" rx="100" ry="100"/>
  <rect class="fil32" transform="matrix(-0.376463 -0.0010329 0.0010329 -0.376463 17459.6 6144.86)" width="212" height="811" rx="100" ry="100"/>
  <polygon class="fil25" points="16789,5356 16787,5345 16787,5345 16787,5345 16749,5058 16723,5061 16755,5303 16603,5108 16582,5124 16762,5356 16762,5359 16764,5359 16766,5361 16771,5358 "/>
  <path class="fil12" d="M17013 7129c572,0 1036,464 1036,1036 0,572 -464,1036 -1036,1036 -572,0 -1036,-464 -1036,-1036 0,-572 464,-1036 1036,-1036z"/>
  <path class="fil15" d="M17682 8952c-38,32 -77,62 -119,88 -295,-224 -863,-217 -1125,-11 -40,-26 -78,-55 -114,-87l77 -266c255,-252 927,-259 1214,24l67 252z"/>
  <ellipse class="fil13" cx="17997" cy="8150" rx="196" ry="603"/>
  <ellipse class="fil14" cx="18152" cy="8118" rx="46" ry="241"/>
  <path class="fil9" d="M16592 7510c179,-177 650,-181 852,17l97 366c-125,-127 -340,-178 -525,-178 -176,0 -396,63 -534,180l111 -385z"/>
  <path class="fil15" d="M17520 7814l20 75c-125,-127 -340,-178 -525,-178 -176,0 -396,63 -534,180l21 -73c139,-106 346,-163 513,-163 176,0 379,46 505,159z"/>
  <path class="fil16 str0" d="M17365 8450c-130,0 -228,-159 -365,-159 -146,0 -241,159 -375,159 -226,0 -347,-263 -236,-451 109,-184 404,-286 627,-286 219,0 480,72 584,255 110,194 10,482 -233,482z"/>
  <path class="fil15" d="M17989 7539c-144,0 -261,274 -261,613 0,338 117,613 261,613 23,0 45,-7 66,-20 -112,-69 -194,-308 -194,-592 0,-284 82,-523 194,-592 -21,-13 -43,-20 -66,-20z"/>
  <path class="fil15" d="M17853 8075c48,-35 193,-42 259,0l0 22c-66,-30 -208,-32 -254,9l-5 -32z"/>
  <path class="fil18" d="M17852 8074c25,-18 77,-29 130,-29 49,0 99,9 130,29l1 0 0 1 0 22 0 2 -2 -1c-34,-16 -90,-24 -141,-22 -46,2 -90,11 -111,31l-2 2 0 -3 -5 -32 0 -1 1 -1zm130 -26c-52,0 -103,10 -128,28l4 28c23,-19 66,-28 111,-30 51,-2 105,6 140,21l0 -19c-31,-19 -80,-28 -128,-28z"/>
  <path class="fil15" d="M17853 8229c48,35 193,42 259,0l0 -22c-66,30 -208,32 -254,-9l-5 32z"/>
  <path class="fil18" d="M17855 8229c25,18 76,28 128,28 48,0 97,-9 128,-28l0 -19c-35,15 -89,23 -140,21 -46,-2 -89,-11 -111,-30l-4 28zm128 31c-53,0 -105,-11 -130,-29l-1 -1 0 -1 5 -32 0 -3 2 2c22,19 65,29 111,31 51,2 107,-6 141,-22l2 -1 0 2 0 22 0 1 -1 0c-32,20 -82,29 -130,29z"/>
  <path class="fil15" d="M17902 8449c59,7 189,-58 226,-127l-11 -20c-43,58 -166,130 -226,116l11 30z"/>
  <path class="fil18" d="M17903 8447c30,3 80,-13 125,-38 42,-23 80,-55 98,-87l-10 -17c-23,30 -67,64 -112,87 -41,21 -83,34 -112,29l10 27zm126 -36c-46,26 -97,42 -128,38l-1 0 0 -1 -11 -30 -1 -2 3 1c28,6 71,-7 112,-28 46,-24 90,-58 112,-88l1 -2 1 2 11 20 0 1 0 1c-18,33 -57,65 -100,89z"/>
  <path class="fil15" d="M17983 8659c56,-20 142,-137 144,-215l-19 -12c-12,71 -89,190 -149,206l23 22z"/>
  <path class="fil18" d="M17983 8657c29,-11 65,-47 94,-90 27,-40 47,-85 48,-122l-16 -11c-7,37 -31,87 -61,128 -27,37 -58,67 -87,76l21 19zm97 -89c-30,44 -67,81 -97,92l-1 0 -1 -1 -23 -22 -2 -2 3 -1c28,-7 60,-38 87,-76 30,-42 54,-92 61,-129l0 -2 2 1 19 12 1 0 0 1c-1,38 -21,84 -49,125z"/>
  <path class="fil15" d="M17985 7605c56,20 161,154 163,233l-19 12c-12,-71 -108,-208 -168,-223l23 -22z"/>
  <path class="fil15" d="M17895 7851c59,-7 189,58 226,127l-11 20c-43,-58 -166,-130 -226,-116l11 -30z"/>
  <path class="fil18" d="M17895 7850c31,-4 81,12 128,38 42,24 82,56 100,89l0 1 0 1 -11 20 -1 2 -1 -2c-22,-30 -67,-64 -112,-88 -41,-21 -84,-34 -112,-28l-3 1 1 -2 11 -30 0 -1 1 0zm126 41c-45,-26 -95,-41 -125,-38l-10 27c29,-5 71,8 112,29 45,23 89,57 112,87l10 -17c-18,-32 -56,-64 -98,-87z"/>
  <ellipse class="fil15" cx="18136" cy="8118" rx="28" ry="241"/>
  <path class="fil24" d="M16451 8131c103,-80 118,-100 265,-98 74,1 180,69 80,135 -13,9 -107,71 -110,76"/>
  <polygon class="fil25" points="17497,8171 17488,8165 17488,8165 17488,8165 17244,8009 17229,8031 17435,8163 17188,8153 17187,8180 17480,8191 17483,8193 17484,8191 17487,8191 17487,8186 "/>
  <path class="fil15" d="M18047 7560c49,33 119,189 102,265l-21 8c6,-72 -55,-228 -109,-257l28 -15z"/>
  <path class="fil24" d="M17884 7846c46,-3 255,47 232,134"/>
  <path class="fil26" d="M17884 7843c15,-1 48,4 84,13 34,9 71,23 100,40 30,18 51,40 53,67 0,6 0,12 -2,18l-7 -2c1,-5 2,-10 2,-15 -2,-24 -22,-44 -50,-61 -28,-17 -65,-31 -98,-40 -35,-10 -67,-14 -82,-13l0 -8z"/>
  <path class="fil27" d="M18037 8754c6,-3 12,-6 18,-10 -112,-69 -194,-308 -194,-592 0,-284 82,-523 194,-592 -6,-4 -12,-7 -18,-10 -121,53 -213,302 -213,602 0,300 92,549 213,602z"/>
  <path class="fil15" d="M18052 8747c47,-36 106,-226 78,-302l-15 25c10,72 -40,231 -92,264l29 14z"/>
  <path class="fil24" d="M17862 8104c41,-20 254,-53 265,36"/>
  <path class="fil26" d="M17860 8101c14,-7 46,-15 83,-19 35,-4 74,-6 108,-1 34,5 63,18 74,42l0 0c3,5 4,11 5,17l-7 1c-1,-5 -2,-10 -4,-15l0 0c-10,-21 -37,-33 -69,-38 -33,-5 -72,-4 -106,1 -36,5 -67,12 -80,19l-3 -7z"/>
  <path class="fil24" d="M17862 8241c41,20 254,53 265,-36"/>
  <path class="fil26" d="M17864 8238c13,6 44,14 80,19 34,4 73,6 106,1 32,-5 59,-16 69,-38l0 0c2,-4 4,-9 4,-15l7 1c-1,6 -3,12 -5,17l0 0c-12,24 -40,36 -74,42 -34,5 -73,4 -108,-1 -37,-5 -69,-13 -83,-19l3 -7z"/>
  <path class="fil24" d="M17908 8463c46,-2 248,-77 214,-160"/>
  <path class="fil26" d="M17893 8452c15,0 46,-6 81,-17 33,-10 69,-25 96,-44 27,-18 46,-39 47,-63 0,-5 -1,-10 -2,-15l7 -2c2,6 3,12 3,18 -1,26 -21,50 -50,69 -28,19 -65,34 -98,45 -36,11 -68,17 -83,17l0 -8z"/>
  <path class="fil26" d="M17996 7611c13,7 39,28 64,55 24,26 48,57 64,87 17,32 47,101 15,131l-5 -5c29,-27 -2,-93 -17,-122 -15,-30 -39,-60 -63,-85 -25,-27 -50,-47 -62,-54l4 -7z"/>
  <ellipse class="fil13" cx="16023" cy="8150" rx="196" ry="603"/>
  <ellipse class="fil14" cx="15868" cy="8118" rx="46" ry="241"/>
  <path class="fil15" d="M16031 7539c144,0 261,274 261,613 0,338 -117,613 -261,613 -23,0 -45,-7 -66,-20 112,-69 194,-308 194,-592 0,-284 -82,-523 -194,-592 21,-13 43,-20 66,-20z"/>
  <path class="fil15" d="M16167 8075c-48,-35 -193,-42 -259,0l0 22c66,-30 208,-32 254,9l5 -32z"/>
  <path class="fil18" d="M16168 8074c-25,-18 -77,-29 -130,-29 -49,0 -99,9 -130,29l-1 0 0 1 0 22 0 2 2 -1c34,-16 90,-24 141,-22 46,2 90,11 111,31l2 2 0 -3 5 -32 0 -1 -1 -1zm-130 -26c52,0 103,10 128,28l-4 28c-23,-19 -66,-28 -111,-30 -51,-2 -105,6 -140,21l0 -19c31,-19 80,-28 128,-28z"/>
  <path class="fil15" d="M16167 8229c-48,35 -193,42 -259,0l0 -22c66,30 208,32 254,-9l5 32z"/>
  <path class="fil18" d="M16166 8229c-25,18 -76,28 -128,28 -48,0 -97,-9 -128,-28l0 -19c35,15 89,23 140,21 46,-2 89,-11 111,-30l4 28zm-128 31c53,0 105,-11 130,-29l1 -1 0 -1 -5 -32 0 -3 -2 2c-22,19 -65,29 -111,31 -51,2 -107,-6 -141,-22l-2 -1 0 2 0 22 0 1 1 0c32,20 82,29 130,29z"/>
  <path class="fil15" d="M16119 8449c-59,7 -189,-58 -226,-127l11 -20c43,58 166,130 226,116l-11 30z"/>
  <path class="fil18" d="M16118 8447c-30,3 -80,-13 -125,-38 -42,-23 -80,-55 -98,-87l10 -17c23,30 67,64 112,87 41,21 83,34 112,29l-10 27zm-126 -36c46,26 97,42 128,38l1 0 0 -1 11 -30 1 -2 -3 1c-28,6 -71,-7 -112,-28 -46,-24 -90,-58 -112,-88l-1 -2 -1 2 -11 20 0 1 0 1c18,33 57,65 100,89z"/>
  <path class="fil15" d="M16038 8659c-56,-20 -142,-137 -144,-215l19 -12c12,71 89,190 149,206l-23 22z"/>
  <path class="fil18" d="M16037 8657c-29,-11 -65,-47 -94,-90 -27,-40 -47,-85 -48,-122l16 -11c7,37 31,87 61,128 27,37 58,67 87,76l-21 19zm-97 -89c30,44 67,81 97,92l1 0 1 -1 23 -22 2 -2 -3 -1c-28,-7 -60,-38 -87,-76 -30,-42 -54,-92 -61,-129l0 -2 -2 1 -19 12 -1 0 0 1c1,38 21,84 49,125z"/>
  <path class="fil15" d="M16035 7605c-56,20 -161,154 -163,233l19 12c12,-71 108,-208 168,-223l-23 -22z"/>
  <path class="fil15" d="M16125 7851c-59,-7 -189,58 -226,127l11 20c43,-58 166,-130 226,-116l-11 -30z"/>
  <path class="fil18" d="M16125 7850c-31,-4 -81,12 -128,38 -42,24 -82,56 -100,89l0 1 0 1 11 20 1 2 1 -2c22,-30 67,-64 112,-88 41,-21 84,-34 112,-28l3 1 -1 -2 -11 -30 0 -1 -1 0zm-126 41c45,-26 95,-41 125,-38l10 27c-29,-5 -71,8 -112,29 -45,23 -89,57 -112,87l-10 -17c18,-32 56,-64 98,-87z"/>
  <ellipse class="fil15" cx="15884" cy="8118" rx="28" ry="241"/>
  <path class="fil15" d="M15974 7560c-49,33 -119,189 -102,265l21 8c-6,-72 55,-228 109,-257l-28 -15z"/>
  <path class="fil24" d="M16137 7846c-46,-3 -255,47 -232,134"/>
  <path class="fil26" d="M16137 7843c-15,-1 -48,4 -84,13 -34,9 -71,23 -100,40 -30,18 -51,40 -53,67 0,6 0,12 2,18l7 -2c-1,-5 -2,-10 -2,-15 2,-24 22,-44 50,-61 28,-17 65,-31 98,-40 35,-10 67,-14 82,-13l0 -8z"/>
  <path class="fil27" d="M15983 8754c-6,-3 -12,-6 -18,-10 112,-69 194,-308 194,-592 0,-284 -82,-523 -194,-592 6,-4 12,-7 18,-10 121,53 213,302 213,602 0,300 -92,549 -213,602z"/>
  <path class="fil15" d="M15968 8747c-47,-36 -106,-226 -78,-302l15 25c-10,72 40,231 92,264l-29 14z"/>
  <path class="fil24" d="M16158 8104c-41,-20 -254,-53 -265,36"/>
  <path class="fil26" d="M16160 8101c-14,-7 -46,-15 -83,-19 -35,-4 -74,-6 -108,-1 -34,5 -63,18 -74,42l0 0c-3,5 -4,11 -5,17l7 1c1,-5 2,-10 4,-15l0 0c10,-21 37,-33 69,-38 33,-5 72,-4 106,1 36,5 67,12 80,19l3 -7z"/>
  <path class="fil24" d="M16158 8241c-41,20 -254,53 -265,-36"/>
  <path class="fil26" d="M16157 8238c-13,6 -44,14 -80,19 -34,4 -73,6 -106,1 -32,-5 -59,-16 -69,-38l0 0c-2,-4 -4,-9 -4,-15l-7 1c1,6 3,12 5,17l0 0c12,24 40,36 74,42 34,5 73,4 108,-1 37,-5 69,-13 83,-19l-3 -7z"/>
  <path class="fil24" d="M16113 8463c-46,-2 -248,-77 -214,-160"/>
  <path class="fil26" d="M16127 8452c-15,0 -46,-6 -81,-17 -33,-10 -69,-25 -96,-44 -27,-18 -46,-39 -47,-63 0,-5 1,-10 2,-15l-7 -2c-2,6 -3,12 -3,18 1,26 21,50 50,69 28,19 65,34 98,45 36,11 68,17 83,17l0 -8z"/>
  <path class="fil26" d="M16025 7611c-13,7 -39,28 -64,55 -24,26 -48,57 -64,87 -17,32 -47,101 -15,131l5 -5c-29,-27 2,-93 17,-122 15,-30 39,-60 63,-85 25,-27 50,-47 62,-54l-4 -7z"/>
  <ellipse class="fil9" transform="matrix(0.325584 0.188999 -0.188999 0.325584 17493.5 7519.72)" rx="398" ry="165"/>
  <path class="fil15" d="M17381 7426c-17,9 -31,21 -40,38 -28,55 14,133 93,173 79,40 166,28 194,-28 5,-10 8,-20 8,-31 -1,1 -3,3 -4,4 -44,44 -130,28 -193,-35 -37,-37 -57,-82 -59,-122z"/>
  <ellipse class="fil15" transform="matrix(-0.254804 -0.277129 -0.277129 0.254804 17504.1 7494.03)" rx="271" ry="170"/>
  <polygon class="fil13" points="17547,7440 17508,7421 17468,7403 17468,7427 17468,7452 17508,7486 17548,7520 17572,7517 17597,7513 17572,7476 "/>
  <rect class="fil28" transform="matrix(-0.175122 -0.149766 -0.225269 0.263408 17607.7 7401.65)" width="187" height="293" rx="100" ry="100"/>
  <path class="fil15" d="M17591 7388l0 0c-2,-2 -5,-3 -8,-4 0,2 1,3 1,5 2,6 7,11 14,15 0,-4 -1,-8 -4,-11 -1,-1 -2,-2 -2,-3 0,0 -1,-1 -1,-1zm-16 -5c-3,0 -6,1 -8,2 -1,2 -2,4 -3,5 -8,16 -3,25 7,29 5,3 11,4 16,5l1 0 5 -5c-1,0 -3,-1 -4,-1 -5,-1 -10,-2 -15,-4 -6,-3 -10,-9 -4,-21l0 0c2,5 5,10 11,14 5,4 10,7 14,8 1,-2 2,-4 3,-6 -4,-1 -8,-4 -13,-7 -7,-6 -10,-13 -11,-19l1 -2zm-27 23l-4 5c3,2 7,6 11,10 6,6 13,12 20,16 -2,-1 -4,-1 -7,-2 -11,-3 -25,-7 -32,-12 0,0 -1,-1 -1,-1l-6 7c1,2 1,5 2,7 3,8 8,17 18,20 -4,1 -7,0 -10,0 -4,-1 -8,-3 -10,-6 -3,-3 -4,-6 -5,-10 0,-1 0,-3 0,-5l0 0c-2,3 -4,6 -5,9 1,4 3,7 6,10 3,4 8,6 13,7 6,1 13,1 21,-2l8 -10 -1 0 0 -1 -2 1c-16,2 -23,-8 -27,-17 0,-1 -1,-3 -1,-4 8,5 21,8 31,11 2,1 5,1 7,2l8 -10c-7,-3 -15,-10 -23,-17 -4,-4 -8,-7 -12,-10z"/>
  <polygon class="fil28" points="17470,7456 17468,7403 17464,7403 17441,7430 17443,7475 17464,7451 "/>
  <polygon class="fil28" points="17543,7517 17596,7511 17597,7515 17574,7542 17529,7547 17550,7523 "/>
  <rect class="fil29" transform="matrix(-0.311168 -0.266114 -0.283605 0.331621 17554.6 7516.8)" width="273.41" height="97.01"/>
  <ellipse class="fil9" transform="matrix(-0.325584 0.188999 0.188999 0.325584 16541.3 7519.72)" rx="398" ry="165"/>
  <path class="fil15" d="M16654 7426c17,9 31,21 40,38 28,55 -14,133 -93,173 -79,40 -166,28 -194,-28 -5,-10 -8,-20 -8,-31 1,1 3,3 4,4 44,44 130,28 193,-35 37,-37 57,-82 59,-122z"/>
  <ellipse class="fil15" transform="matrix(0.254804 -0.277129 0.277129 0.254804 16530.7 7494.03)" rx="271" ry="170"/>
  <polygon class="fil13" points="16487,7440 16527,7421 16567,7403 16567,7427 16567,7452 16527,7486 16487,7520 16463,7517 16438,7513 16463,7476 "/>
  <rect class="fil28" transform="matrix(0.175122 -0.149766 0.225269 0.263408 16427.1 7401.65)" width="187" height="293" rx="100" ry="100"/>
  <path class="fil15" d="M16444 7388l0 0c2,-2 5,-3 8,-4 0,2 -1,3 -1,5 -2,6 -7,11 -14,15 0,-4 1,-8 4,-11 1,-1 2,-2 2,-3 0,0 1,-1 1,-1zm16 -5c3,0 6,1 8,2 1,2 2,4 3,5 8,16 3,25 -7,29 -5,3 -11,4 -16,5l-1 0 -5 -5c1,0 3,-1 4,-1 5,-1 10,-2 15,-4 6,-3 10,-9 4,-21l0 0c-2,5 -5,10 -11,14 -5,4 -10,7 -14,8 -1,-2 -2,-4 -3,-6 4,-1 8,-4 13,-7 7,-6 10,-13 11,-19l-1 -2zm27 23l4 5c-3,2 -7,6 -11,10 -6,6 -13,12 -20,16 2,-1 4,-1 7,-2 11,-3 25,-7 32,-12 0,0 1,-1 1,-1l6 7c-1,2 -1,5 -2,7 -3,8 -8,17 -18,20 4,1 7,0 10,0 4,-1 8,-3 10,-6 3,-3 4,-6 5,-10 0,-1 0,-3 0,-5l0 0c2,3 4,6 5,9 -1,4 -3,7 -6,10 -3,4 -8,6 -13,7 -6,1 -13,1 -21,-2l-8 -10 1 0 0 -1 2 1c16,2 23,-8 27,-17 0,-1 1,-3 1,-4 -8,5 -21,8 -31,11 -2,1 -5,1 -7,2l-8 -10c7,-3 15,-10 23,-17 4,-4 8,-7 12,-10z"/>
  <polygon class="fil28" points="16564,7456 16567,7403 16571,7403 16593,7430 16591,7475 16571,7451 "/>
  <polygon class="fil28" points="16491,7517 16438,7511 16438,7515 16461,7542 16506,7547 16485,7523 "/>
  <rect class="fil29" transform="matrix(0.311168 -0.266114 0.283605 0.331621 16480.2 7516.8)" width="273.41" height="97.01"/>
  <rect class="fil32" transform="matrix(0.373676 0.0457404 0.0457404 -0.373676 16407.9 8953.55)" width="212" height="811" rx="100" ry="100"/>
  <rect class="fil32" transform="matrix(-0.373676 0.0457404 -0.0457404 -0.373676 17604.9 8983.43)" width="212" height="811" rx="100" ry="100"/>
  <rect class="fil32" transform="matrix(-0.376463 -0.0010329 0.0010329 -0.376463 17089.8 8835.77)" width="212" height="811" rx="100" ry="100"/>
  <rect class="fil32" transform="matrix(-0.376463 -0.0010329 0.0010329 -0.376463 17219.3 8835.77)" width="212" height="811" rx="100" ry="100"/>
  <rect class="fil32" transform="matrix(-0.376463 -0.0010329 0.0010329 -0.376463 16967 8835.77)" width="212" height="811" rx="100" ry="100"/>
  <rect class="fil32" transform="matrix(-0.376463 -0.0010329 0.0010329 -0.376463 16844.1 8847.07)" width="212" height="811" rx="100" ry="100"/>
  <rect class="fil32" transform="matrix(-0.376463 -0.0010329 0.0010329 -0.376463 16727.9 8858.36)" width="212" height="811" rx="100" ry="100"/>
  <rect class="fil32" transform="matrix(-0.376463 -0.0010329 0.0010329 -0.376463 16621.7 8909.82)" width="212" height="811" rx="100" ry="100"/>
  <rect class="fil32" transform="matrix(-0.376463 -0.0010329 0.0010329 -0.376463 17338.8 8858.36)" width="212" height="811" rx="100" ry="100"/>
  <rect class="fil32" transform="matrix(-0.376463 -0.0010329 0.0010329 -0.376463 17459.6 8913.14)" width="212" height="811" rx="100" ry="100"/>
  <ellipse class="fil13" cx="10250" cy="7705" rx="324" ry="363"/>
  <ellipse class="fil29" cx="8886" cy="7707" rx="362" ry="406"/>
  <ellipse class="fil13" cx="8889" cy="7705" rx="324" ry="363"/>
  <rect class="fil19" x="8433" y="6946" width="2118.92" height="57.2343"/>
  <polygon class="fil25" points="16533,8171 16542,8165 16542,8165 16542,8165 16787,8009 16801,8031 16595,8163 16843,8153 16844,8180 16551,8191 16548,8193 16547,8191 16543,8191 16543,8186 "/>
  <path class="fil12" d="M17013 9774c572,0 1036,464 1036,1036 0,572 -464,1036 -1036,1036 -572,0 -1036,-464 -1036,-1036 0,-572 464,-1036 1036,-1036z"/>
  <ellipse class="fil13" cx="17997" cy="10795" rx="196" ry="603"/>
  <ellipse class="fil14" cx="18152" cy="10763" rx="46" ry="241"/>
  <path class="fil9" d="M16592 10155c179,-177 650,-181 852,17l97 366c-125,-127 -340,-178 -525,-178 -176,0 -396,63 -534,180l111 -385z"/>
  <path class="fil15" d="M17520 10459l20 75c-125,-127 -340,-178 -525,-178 -176,0 -396,63 -534,180l21 -73c139,-106 346,-163 513,-163 176,0 379,46 505,159z"/>
  <path class="fil16 str0" d="M17365 11095c-130,0 -228,-159 -365,-159 -146,0 -241,159 -375,159 -226,0 -347,-263 -236,-451 109,-184 404,-286 627,-286 219,0 480,72 584,255 110,194 10,482 -233,482z"/>
  <path class="fil15" d="M17989 10184c-144,0 -261,274 -261,613 0,338 117,613 261,613 23,0 45,-7 66,-20 -112,-69 -194,-308 -194,-592 0,-284 82,-523 194,-592 -21,-13 -43,-20 -66,-20z"/>
  <path class="fil15" d="M17853 10720c48,-35 193,-42 259,0l0 22c-66,-30 -208,-32 -254,9l-5 -32z"/>
  <path class="fil18" d="M17852 10719c25,-18 77,-29 130,-29 49,0 99,9 130,29l1 0 0 1 0 22 0 2 -2 -1c-34,-16 -90,-24 -141,-22 -46,2 -90,11 -111,31l-2 2 0 -3 -5 -32 0 -1 1 -1zm130 -26c-52,0 -103,10 -128,28l4 28c23,-19 66,-28 111,-30 51,-2 105,6 140,21l0 -19c-31,-19 -80,-28 -128,-28z"/>
  <path class="fil15" d="M17853 10874c48,35 193,42 259,0l0 -22c-66,30 -208,32 -254,-9l-5 32z"/>
  <path class="fil18" d="M17855 10873c25,18 76,28 128,28 48,0 97,-9 128,-28l0 -19c-35,15 -89,23 -140,21 -46,-2 -89,-11 -111,-30l-4 28zm128 31c-53,0 -105,-11 -130,-29l-1 -1 0 -1 5 -32 0 -3 2 2c22,19 65,29 111,31 51,2 107,-6 141,-22l2 -1 0 2 0 22 0 1 -1 0c-32,20 -82,29 -130,29z"/>
  <path class="fil15" d="M17902 11093c59,7 189,-58 226,-127l-11 -20c-43,58 -166,130 -226,116l11 30z"/>
  <path class="fil18" d="M17903 11092c30,3 80,-13 125,-38 42,-23 80,-55 98,-87l-10 -17c-23,30 -67,64 -112,87 -41,21 -83,34 -112,29l10 27zm126 -36c-46,26 -97,42 -128,38l-1 0 0 -1 -11 -30 -1 -2 3 1c28,6 71,-7 112,-28 46,-24 90,-58 112,-88l1 -2 1 2 11 20 0 1 0 1c-18,33 -57,65 -100,89z"/>
  <path class="fil15" d="M17983 11303c56,-20 142,-137 144,-215l-19 -12c-12,71 -89,190 -149,206l23 22z"/>
  <path class="fil18" d="M17983 11302c29,-11 65,-47 94,-90 27,-40 47,-85 48,-122l-16 -11c-7,37 -31,87 -61,128 -27,37 -58,67 -87,76l21 19zm97 -89c-30,44 -67,81 -97,92l-1 0 -1 -1 -23 -22 -2 -2 3 -1c28,-7 60,-38 87,-76 30,-42 54,-92 61,-129l0 -2 2 1 19 12 1 0 0 1c-1,38 -21,84 -49,125z"/>
  <path class="fil15" d="M17985 10250c56,20 161,154 163,233l-19 12c-12,-71 -108,-208 -168,-223l23 -22z"/>
  <path class="fil15" d="M17895 10496c59,-7 189,58 226,127l-11 20c-43,-58 -166,-130 -226,-116l11 -30z"/>
  <path class="fil18" d="M17895 10495c31,-4 81,12 128,38 42,24 82,56 100,89l0 1 0 1 -11 20 -1 2 -1 -2c-22,-30 -67,-64 -112,-88 -41,-21 -84,-34 -112,-28l-3 1 1 -2 11 -30 0 -1 1 0zm126 41c-45,-26 -95,-41 -125,-38l-10 27c29,-5 71,8 112,29 45,23 89,57 112,87l10 -17c-18,-32 -56,-64 -98,-87z"/>
  <ellipse class="fil15" cx="18136" cy="10763" rx="28" ry="241"/>
  <path class="fil24" d="M16451 10775c103,-80 118,-100 265,-98 74,1 180,69 80,135 -13,9 -107,71 -110,76"/>
  <polygon class="fil25" points="16863,10918 16853,10916 16853,10916 16853,10916 16566,10874 16570,10848 16811,10884 16618,10729 16634,10708 16864,10891 16867,10892 16867,10894 16869,10896 16866,10900 "/>
  <polygon class="fil25" points="17109,10913 17119,10912 17119,10912 17119,10912 17406,10871 17402,10845 17160,10879 17355,10725 17338,10705 17108,10886 17105,10887 17105,10889 17102,10891 17106,10895 "/>
  <path class="fil15" d="M16621 11692c318,165 962,-27 1153,-381l-4 -805 -11 46c-44,173 -61,376 -185,511 -254,276 -787,407 -1067,262l-222 -339 -104 36 441 672z"/>
  <path class="fil15" d="M18047 10204c49,33 119,189 102,265l-21 8c6,-72 -55,-228 -109,-257l28 -15z"/>
  <path class="fil24" d="M17884 10491c46,-3 255,47 232,134"/>
  <path class="fil26" d="M17884 10487c15,-1 48,4 84,13 34,9 71,23 100,40 30,18 51,40 53,67 0,6 0,12 -2,18l-7 -2c1,-5 2,-10 2,-15 -2,-24 -22,-44 -50,-61 -28,-17 -65,-31 -98,-39 -35,-10 -67,-14 -82,-13l0 -8z"/>
  <path class="fil27" d="M18037 11399c6,-3 12,-6 18,-10 -112,-69 -194,-308 -194,-592 0,-284 82,-523 194,-592 -6,-4 -12,-7 -18,-10 -121,53 -213,302 -213,602 0,300 92,549 213,602z"/>
  <path class="fil15" d="M18052 11392c47,-36 106,-226 78,-302l-15 25c10,72 -40,231 -92,264l29 14z"/>
  <path class="fil24" d="M17862 10749c41,-20 254,-53 265,36"/>
  <path class="fil26" d="M17860 10745c14,-7 46,-15 83,-19 35,-4 74,-6 108,-1 34,5 63,18 74,42l0 0c3,5 4,11 5,17l-7 1c-1,-5 -2,-10 -4,-15l0 0c-10,-21 -37,-33 -69,-38 -33,-5 -72,-4 -106,1 -36,5 -67,12 -80,19l-3 -7z"/>
  <path class="fil24" d="M17862 10886c41,20 254,53 265,-36"/>
  <path class="fil26" d="M17864 10883c13,6 44,14 80,19 34,4 73,6 106,1 32,-5 59,-16 69,-38l0 0c2,-4 4,-9 4,-15l7 1c-1,6 -3,12 -5,17l0 0c-12,24 -40,36 -74,42 -34,5 -73,4 -108,-1 -37,-5 -69,-13 -83,-19l3 -7z"/>
  <path class="fil24" d="M17908 11108c46,-2 248,-77 214,-160"/>
  <path class="fil26" d="M17893 11097c15,0 46,-6 81,-17 33,-10 69,-25 96,-44 27,-18 46,-39 47,-63 0,-5 -1,-10 -2,-15l7 -2c2,6 3,12 3,18 -1,26 -21,50 -50,69 -28,19 -65,34 -98,45 -36,11 -68,17 -83,17l0 -8z"/>
  <path class="fil26" d="M17996 10256c13,7 39,28 64,55 24,26 48,57 64,87 17,32 47,101 15,131l-5 -5c29,-27 -2,-93 -17,-122 -15,-30 -39,-60 -63,-85 -25,-27 -50,-47 -62,-54l4 -7z"/>
  <ellipse class="fil13" cx="16023" cy="10795" rx="196" ry="603"/>
  <ellipse class="fil14" cx="15868" cy="10763" rx="46" ry="241"/>
  <path class="fil15" d="M16031 10184c144,0 261,274 261,613 0,338 -117,613 -261,613 -23,0 -45,-7 -66,-20 112,-69 194,-308 194,-592 0,-284 -82,-523 -194,-592 21,-13 43,-20 66,-20z"/>
  <path class="fil15" d="M16167 10720c-48,-35 -193,-42 -259,0l0 22c66,-30 208,-32 254,9l5 -32z"/>
  <path class="fil18" d="M16168 10719c-25,-18 -77,-29 -130,-29 -49,0 -99,9 -130,29l-1 0 0 1 0 22 0 2 2 -1c34,-16 90,-24 141,-22 46,2 90,11 111,31l2 2 0 -3 5 -32 0 -1 -1 -1zm-130 -26c52,0 103,10 128,28l-4 28c-23,-19 -66,-28 -111,-30 -51,-2 -105,6 -140,21l0 -19c31,-19 80,-28 128,-28z"/>
  <path class="fil15" d="M16167 10874c-48,35 -193,42 -259,0l0 -22c66,30 208,32 254,-9l5 32z"/>
  <path class="fil18" d="M16166 10873c-25,18 -76,28 -128,28 -48,0 -97,-9 -128,-28l0 -19c35,15 89,23 140,21 46,-2 89,-11 111,-30l4 28zm-128 31c53,0 105,-11 130,-29l1 -1 0 -1 -5 -32 0 -3 -2 2c-22,19 -65,29 -111,31 -51,2 -107,-6 -141,-22l-2 -1 0 2 0 22 0 1 1 0c32,20 82,29 130,29z"/>
  <path class="fil15" d="M16119 11093c-59,7 -189,-58 -226,-127l11 -20c43,58 166,130 226,116l-11 30z"/>
  <path class="fil18" d="M16118 11092c-30,3 -80,-13 -125,-38 -42,-23 -80,-55 -98,-87l10 -17c23,30 67,64 112,87 41,21 83,34 112,29l-10 27zm-126 -36c46,26 97,42 128,38l1 0 0 -1 11 -30 1 -2 -3 1c-28,6 -71,-7 -112,-28 -46,-24 -90,-58 -112,-88l-1 -2 -1 2 -11 20 0 1 0 1c18,33 57,65 100,89z"/>
  <path class="fil15" d="M16038 11303c-56,-20 -142,-137 -144,-215l19 -12c12,71 89,190 149,206l-23 22z"/>
  <path class="fil18" d="M16037 11302c-29,-11 -65,-47 -94,-90 -27,-40 -47,-85 -48,-122l16 -11c7,37 31,87 61,128 27,37 58,67 87,76l-21 19zm-97 -89c30,44 67,81 97,92l1 0 1 -1 23 -22 2 -2 -3 -1c-28,-7 -60,-38 -87,-76 -30,-42 -54,-92 -61,-129l0 -2 -2 1 -19 12 -1 0 0 1c1,38 21,84 49,125z"/>
  <path class="fil15" d="M16035 10250c-56,20 -161,154 -163,233l19 12c12,-71 108,-208 168,-223l-23 -22z"/>
  <path class="fil15" d="M16125 10496c-59,-7 -189,58 -226,127l11 20c43,-58 166,-130 226,-116l-11 -30z"/>
  <path class="fil18" d="M16125 10495c-31,-4 -81,12 -128,38 -42,24 -82,56 -100,89l0 1 0 1 11 20 1 2 1 -2c22,-30 67,-64 112,-88 41,-21 84,-34 112,-28l3 1 -1 -2 -11 -30 0 -1 -1 0zm-126 41c45,-26 95,-41 125,-38l10 27c-29,-5 -71,8 -112,29 -45,23 -89,57 -112,87l-10 -17c18,-32 56,-64 98,-87z"/>
  <ellipse class="fil15" cx="15884" cy="10763" rx="28" ry="241"/>
  <path class="fil15" d="M15974 10204c-49,33 -119,189 -102,265l21 8c-6,-72 55,-228 109,-257l-28 -15z"/>
  <path class="fil24" d="M16137 10491c-46,-3 -255,47 -232,134"/>
  <path class="fil26" d="M16137 10487c-15,-1 -48,4 -84,13 -34,9 -71,23 -100,40 -30,18 -51,40 -53,67 0,6 0,12 2,18l7 -2c-1,-5 -2,-10 -2,-15 2,-24 22,-44 50,-61 28,-17 65,-31 98,-39 35,-10 67,-14 82,-13l0 -8z"/>
  <path class="fil27" d="M15983 11399c-6,-3 -12,-6 -18,-10 112,-69 194,-308 194,-592 0,-284 -82,-523 -194,-592 6,-4 12,-7 18,-10 121,53 213,302 213,602 0,300 -92,549 -213,602z"/>
  <path class="fil15" d="M15968 11392c-47,-36 -106,-226 -78,-302l15 25c-10,72 40,231 92,264l-29 14z"/>
  <path class="fil24" d="M16158 10749c-41,-20 -254,-53 -265,36"/>
  <path class="fil26" d="M16160 10745c-14,-7 -46,-15 -83,-19 -35,-4 -74,-6 -108,-1 -34,5 -63,18 -74,42l0 0c-3,5 -4,11 -5,17l7 1c1,-5 2,-10 4,-15l0 0c10,-21 37,-33 69,-38 33,-5 72,-4 106,1 36,5 67,12 80,19l3 -7z"/>
  <path class="fil24" d="M16158 10886c-41,20 -254,53 -265,-36"/>
  <path class="fil26" d="M16157 10883c-13,6 -44,14 -80,19 -34,4 -73,6 -106,1 -32,-5 -59,-16 -69,-38l0 0c-2,-4 -4,-9 -4,-15l-7 1c1,6 3,12 5,17l0 0c12,24 40,36 74,42 34,5 73,4 108,-1 37,-5 69,-13 83,-19l-3 -7z"/>
  <path class="fil24" d="M16113 11108c-46,-2 -248,-77 -214,-160"/>
  <path class="fil26" d="M16127 11097c-15,0 -46,-6 -81,-17 -33,-10 -69,-25 -96,-44 -27,-18 -46,-39 -47,-63 0,-5 1,-10 2,-15l-7 -2c-2,6 -3,12 -3,18 1,26 21,50 50,69 28,19 65,34 98,45 36,11 68,17 83,17l0 -8z"/>
  <path class="fil26" d="M16025 10256c-13,7 -39,28 -64,55 -24,26 -48,57 -64,87 -17,32 -47,101 -15,131l5 -5c-29,-27 2,-93 17,-122 15,-30 39,-60 63,-85 25,-27 50,-47 62,-54l-4 -7z"/>
  <ellipse class="fil9" transform="matrix(0.325584 0.188999 -0.188999 0.325584 17493.5 10164.5)" rx="398" ry="165"/>
  <path class="fil15" d="M17381 10070c-17,9 -31,21 -40,38 -28,55 14,133 93,173 79,40 166,28 194,-28 5,-10 8,-20 8,-31 -1,1 -3,3 -4,4 -44,44 -130,28 -193,-35 -37,-37 -57,-82 -59,-122z"/>
  <ellipse class="fil15" transform="matrix(-0.254804 -0.277129 -0.277129 0.254804 17504.1 10138.8)" rx="271" ry="170"/>
  <polygon class="fil13" points="17547,10085 17508,10066 17468,10047 17468,10072 17468,10097 17508,10131 17548,10165 17572,10161 17597,10158 17572,10121 "/>
  <rect class="fil28" transform="matrix(-0.175122 -0.149766 -0.225269 0.263408 17607.7 10046.4)" width="187" height="293" rx="100" ry="100"/>
  <path class="fil15" d="M17591 10032l0 0c-2,-2 -5,-3 -8,-4 0,2 1,3 1,5 2,6 7,11 14,15 0,-4 -1,-8 -4,-11 -1,-1 -2,-2 -2,-3 0,0 -1,-1 -1,-1zm-16 -5c-3,0 -6,1 -8,2 -1,2 -2,3 -3,5 -8,16 -3,25 7,29 5,3 11,4 16,5l1 0 5 -5c-1,0 -3,-1 -4,-1 -5,-1 -10,-2 -15,-4 -6,-3 -10,-9 -4,-21l0 0c2,5 5,10 11,14 5,4 10,7 14,8 1,-2 2,-4 3,-6 -4,-1 -8,-4 -13,-7 -7,-6 -10,-13 -11,-18l1 -2zm-27 23l-4 5c3,2 7,6 11,10 6,6 13,12 20,16 -2,-1 -4,-1 -7,-2 -11,-3 -25,-7 -32,-12 0,0 -1,-1 -1,-1l-6 7c1,2 1,5 2,7 3,8 8,17 18,20 -4,1 -7,0 -10,0 -4,-1 -8,-3 -10,-6 -3,-3 -4,-6 -5,-10 0,-1 0,-3 0,-5l0 0c-2,3 -4,6 -5,9 1,4 3,7 6,10 3,4 8,6 13,7 6,1 13,1 21,-2l8 -10 -1 0 0 -1 -2 1c-16,2 -23,-8 -27,-17 0,-1 -1,-3 -1,-4 8,5 21,8 31,11 2,1 5,1 7,2l8 -10c-7,-3 -15,-10 -23,-17 -4,-4 -8,-7 -12,-10z"/>
  <polygon class="fil28" points="17470,10101 17468,10048 17464,10048 17441,10074 17443,10120 17464,10096 "/>
  <polygon class="fil28" points="17543,10162 17596,10156 17597,10160 17574,10187 17529,10192 17550,10168 "/>
  <rect class="fil29" transform="matrix(-0.311168 -0.266114 -0.283605 0.331621 17554.6 10161.6)" width="273.41" height="97.01"/>
  <ellipse class="fil9" transform="matrix(-0.325584 0.188999 0.188999 0.325584 16541.3 10164.5)" rx="398" ry="165"/>
  <path class="fil15" d="M16654 10070c17,9 31,21 40,38 28,55 -14,133 -93,173 -79,40 -166,28 -194,-28 -5,-10 -8,-20 -8,-31 1,1 3,3 4,4 44,44 130,28 193,-35 37,-37 57,-82 59,-122z"/>
  <ellipse class="fil15" transform="matrix(0.254804 -0.277129 0.277129 0.254804 16530.7 10138.8)" rx="271" ry="170"/>
  <polygon class="fil13" points="16487,10085 16527,10066 16567,10047 16567,10072 16567,10097 16527,10131 16487,10165 16463,10161 16438,10158 16463,10121 "/>
  <rect class="fil28" transform="matrix(0.175122 -0.149766 0.225269 0.263408 16427.1 10046.4)" width="187" height="293" rx="100" ry="100"/>
  <path class="fil15" d="M16444 10032l0 0c2,-2 5,-3 8,-4 0,2 -1,3 -1,5 -2,6 -7,11 -14,15 0,-4 1,-8 4,-11 1,-1 2,-2 2,-3 0,0 1,-1 1,-1zm16 -5c3,0 6,1 8,2 1,2 2,3 3,5 8,16 3,25 -7,29 -5,3 -11,4 -16,5l-1 0 -5 -5c1,0 3,-1 4,-1 5,-1 10,-2 15,-4 6,-3 10,-9 4,-21l0 0c-2,5 -5,10 -11,14 -5,4 -10,7 -14,8 -1,-2 -2,-4 -3,-6 4,-1 8,-4 13,-7 7,-6 10,-13 11,-18l-1 -2zm27 23l4 5c-3,2 -7,6 -11,10 -6,6 -13,12 -20,16 2,-1 4,-1 7,-2 11,-3 25,-7 32,-12 0,0 1,-1 1,-1l6 7c-1,2 -1,5 -2,7 -3,8 -8,17 -18,20 4,1 7,0 10,0 4,-1 8,-3 10,-6 3,-3 4,-6 5,-10 0,-1 0,-3 0,-5l0 0c2,3 4,6 5,9 -1,4 -3,7 -6,10 -3,4 -8,6 -13,7 -6,1 -13,1 -21,-2l-8 -10 1 0 0 -1 2 1c16,2 23,-8 27,-17 0,-1 1,-3 1,-4 -8,5 -21,8 -31,11 -2,1 -5,1 -7,2l-8 -10c7,-3 15,-10 23,-17 4,-4 8,-7 12,-10z"/>
  <polygon class="fil28" points="16564,10101 16567,10048 16571,10048 16593,10074 16591,10120 16571,10096 "/>
  <polygon class="fil28" points="16491,10162 16438,10156 16438,10160 16461,10187 16506,10192 16485,10168 "/>
  <rect class="fil29" transform="matrix(0.311168 -0.266114 0.283605 0.331621 16480.2 10161.6)" width="273.41" height="97.01"/>
  <rect class="fil32" transform="matrix(0.343493 -0.154073 0.154073 0.343493 16546.5 11425)" width="212" height="811" rx="100" ry="100"/>
  <rect class="fil32" transform="matrix(-0.370514 0.0666738 0.0666738 0.370514 17681.2 11042.9)" width="212" height="811" rx="100" ry="100"/>
  <rect class="fil32" transform="matrix(-0.359361 0.112184 0.112184 0.359361 17232.8 11336.1)" width="212" height="811" rx="100" ry="100"/>
  <rect class="fil32" transform="matrix(-0.359361 0.112184 0.112184 0.359361 17356.5 11297.9)" width="212" height="811" rx="100" ry="100"/>
  <rect class="fil32" transform="matrix(-0.359361 0.112184 0.112184 0.359361 17115.4 11372.4)" width="212" height="811" rx="100" ry="100"/>
  <rect class="fil32" transform="matrix(-0.359361 0.112184 0.112184 0.359361 16994.7 11397.9)" width="212" height="811" rx="100" ry="100"/>
  <rect class="fil32" transform="matrix(-0.359361 0.112184 0.112184 0.359361 16880.4 11421.4)" width="212" height="811" rx="100" ry="100"/>
  <rect class="fil32" transform="matrix(-0.359361 0.112184 0.112184 0.359361 16763.6 11403.7)" width="212" height="811" rx="100" ry="100"/>
  <rect class="fil32" transform="matrix(-0.359361 0.112184 0.112184 0.359361 17464 11241)" width="212" height="811" rx="100" ry="100"/>
  <rect class="fil32" transform="matrix(-0.359361 0.112184 0.112184 0.359361 17563.2 11153)" width="212" height="811" rx="100" ry="100"/>
 </g>
</svg>
