<?xml version="1.0" encoding="UTF-8"?>
<!DOCTYPE svg PUBLIC "-//W3C//DTD SVG 1.1//EN" "http://www.w3.org/Graphics/SVG/1.1/DTD/svg11.dtd">
<!-- Creator: CorelDRAW X6 -->
<svg xmlns="http://www.w3.org/2000/svg" xml:space="preserve" width="225.213mm" height="134.959mm" version="1.1" style="shape-rendering:geometricPrecision; text-rendering:geometricPrecision; image-rendering:optimizeQuality; fill-rule:evenodd; clip-rule:evenodd"
viewBox="0 0 22521 13496"
 xmlns:xlink="http://www.w3.org/1999/xlink">
 <defs>
  <style type="text/css">
   <![CDATA[
    .str0 {stroke:#FBFDFF;stroke-width:169.33}
    .fil31 {fill:none}
    .fil28 {fill:#37C5F3}
    .fil29 {fill:#615963}
    .fil24 {fill:#70BD98}
    .fil30 {fill:#857B78}
    .fil9 {fill:#8667AA}
    .fil5 {fill:#9F7EC2}
    .fil18 {fill:#A29FD8}
    .fil3 {fill:#AF99C6}
    .fil4 {fill:#B098C7}
    .fil19 {fill:#B2C8D1}
    .fil26 {fill:#B9DBC0}
    .fil20 {fill:#BDD5DE}
    .fil6 {fill:#BFA188}
    .fil16 {fill:#C5D8E0}
    .fil23 {fill:#C5DA35}
    .fil8 {fill:#D39F78}
    .fil14 {fill:#D4E6ED}
    .fil21 {fill:#D6AC89}
    .fil25 {fill:#E0CDB7}
    .fil7 {fill:#E8B892}
    .fil0 {fill:#E9E0CF}
    .fil2 {fill:#EBA4AE}
    .fil22 {fill:#ED316E}
    .fil27 {fill:#F2BDC4}
    .fil15 {fill:#F74F85}
    .fil1 {fill:#FBFDFF}
    .fil17 {fill:#FDCE9A}
    .fil32 {fill:#615963;fill-rule:nonzero}
    .fil11 {fill:#A29FD8;fill-rule:nonzero}
    .fil13 {fill:#B098C7;fill-rule:nonzero}
    .fil12 {fill:#F2BDC4;fill-rule:nonzero}
    .fil10 {fill:#FFA6C2;fill-rule:nonzero}
   ]]>
  </style>
 </defs>
 <g id="Слой_x0020_1">
  <metadata id="CorelCorpID_0Corel-Layer"/>
  <g id="_914776288">
   <rect class="fil0" y="-20" width="22500" height="13500"/>
   <path class="fil1 str0" d="M16556 5233l0 1270 3 0 0 210 -2 0 0 97 0 0 0 134 160 0 0 625 1318 0 0 141 -1344 0 0 -1 -1030 0 -8643 0 0 1 -1353 0 0 -141 1346 0 0 -345 0 0 0 -42c0,-88 72,-159 159,-159l5 0 4 -39 0 -26 0 0 0 0 0 0 0 0 0 0 0 0 0 0 0 0 0 0 0 0 0 0 0 0 0 0 0 0 0 0 0 0 0 0 0 0 0 0 0 0 0 0 0 0 0 0 0 0 0 0 0 0 0 0 0 0 0 0 0 0 0 0 0 0 0 0 0 0 0 0 0 0 0 0 0 0 0 0 0 0 0 0 0 0 0 0 0 0 0 0 0 0 0 0 0 0 0 0 0 0 0 0 0 0 0 0 0 0 0 0 0 0 0 0 0 0 0 0 0 0 0 0 0 0 0 0 0 0 0 0 0 0 0 0 0 0 0 0 0 0 0 0 0 0 0 0 0 0 0 0 0 0 0 0 0 0 0 0 0 0 1 -1 0 0 0 0 0 0 0 0 0 -3 3 0 1 -1 0 0 0 0 0 0 0 0 0 0 0 0 0 0 0 0 1 0 0 0 0 0 0 0 0 0 0 0 0 0 0 0 0 0 0 0 0 0 0 0 0 0 0 0 0 0 0 0 0 0 0 0 0 0 0 0 0 0 0 0 0 0 0 0 0 0 0 0 0 0 0 0 0 0 0 0 0 0 0 0 0 0 0 0 0 0 0 0 0 0 0 0 0 0 0 0 0 0 0 0 0 0 0 0 0 0 0 0 0 0 0 0 0 0 0 0 0 0 0 0 0 0 0 0 0 0 0 0 0 0 0 0 0 0 0 0 0 0 0 0 0 0 0 0 0 0 0 0 0 0 0 0 0 0 0 0 0 0 0 0 0 0 0 0 0 0 0 0 0 0 0 0 0 0 0 0 0 0 0 0 0 0 0 0 0 0 0 0 0 0 0 0 0 0 0 0 0 0 0 0 0 0 0 0 0 0 0 0 0 0 0 0 0 0 0 0 0 0 0 0 0 0 0 0 0 0 0 0 0 0 0 0 0 0 0 0 0 0 0 0 0 0 0 0 0 0 0 0 0 0 0 0 0 0 0 0 0 0 0 0 0 0 0 0 0 0 0 0 0 0 0 0 0 0 0 0 0 0 0 0 0 0 0 0 0 0 0 0 0 0 0 0 0 0 0 0 0 0 0 0 0 0 0 0 0 0 0 0 0 0 0 0 0 0 0 0 0 0 0 0 0 0 0 0 0 0 0 0 48 0 1 -1 0 0 0 0 0 0 0 0 0 0 0 0 0 0 0 0 0 0 0 0 0 0 0 0 0 0 0 0 0 0 0 0 0 0 0 0 0 0 0 0 0 0 0 0 0 0 0 0 0 0 0 0 0 0 0 0 0 0 0 0 0 0 0 0 0 0 0 0 0 0 0 0 0 0 0 0 0 0 0 0 0 0 0 0 0 0 0 0 0 0 0 0 0 0 0 0 0 0 0 0 0 0 0 0 0 0 0 0 0 0 0 0 0 0 0 0 0 0 0 0 0 0 0 0 0 0 0 0 0 0 0 0 0 0 0 0 0 0 0 0 0 0 0 0 0 0 0 0 0 0 0 0 0 0 0 0 0 0 0 0 0 0 0 0 0 0 0 0 0 0 0 0 0 0 0 0 0 0 0 0 0 0 0 0 0 0 0 0 0 0 0 0 0 0 0 0 0 0 0 0 0 0 0 0 0 0 0 0 0 0 0 0 0 0 0 0 0 0 0 0 0 0 0 0 0 0 0 0 0 0 0 0 0 0 0 0 0 0 0 0 0 0 0 0 0 0 0 0 0 0 0 0 0 0 0 0 0 0 0 0 0 0 0 0 0 0 0 0 0 0 0 0 0 0 0 0 0 0 0 0 0 0 0 0 0 0 0 0 0 0 0 0 0 0 0 0 0 0 0 0 0 0 0 0 0 0 0 0 0 0 0 0 0 0 0 0 0 0 0 0 0 0 0 0 0 0 0 0 0 0 0 0 0 0 0 0 53 0 0 0 0 0 0 0 0 0 0 0 0 0 0 0 0 0 0 0 0 0 0 0 0 0 0 0 0 0 0 0 0 0 0 0 0 0 0 0 0 0 0 0 0 0 0 0 0 0 0 0 0 0 0 0 0 0 0 0 0 0 0 0 0 0 0 0 0 0 0 0 0 0 0 0 0 0 0 0 0 0 0 0 0 0 0 0 0 0 0 0 0 0 0 0 0 0 0 0 0 0 0 0 0 0 0 0 0 0 0 0 0 0 0 0 0 0 0 0 0 0 0 0 0 0 0 0 0 0 0 0 0 0 0 0 0 0 0 0 0 0 0 0 0 0 0 0 0 0 0 0 0 0 0 0 0 0 0 0 0 0 0 0 0 0 0 0 0 0 0 0 0 0 0 0 0 0 0 0 0 0 0 0 0 0 0 0 0 0 0 0 0 0 0 0 0 0 0 0 0 0 0 0 0 0 0 0 0 0 0 0 0 0 0 0 0 0 0 0 0 0 0 0 0 0 0 0 0 0 0 0 0 0 0 0 0 0 0 0 0 0 0 0 0 0 0 0 0 0 0 0 0 0 0 0 0 0 0 0 0 0 0 0 0 0 0 0 0 0 0 0 0 0 0 0 0 0 0 0 0 0 0 0 0 0 0 0 0 0 0 0 0 0 0 0 0 0 0 0 0 0 0 0 0 0 0 0 0 0 0 0 0 0 0 0 0 0 0 0 0 0 0 0 0 0 0 0 0 0 0 0 0 0 0 0 0 0 0 0 0 0 0 0 0 0 49 0 0 -231 -43 0 0 -210 43 0 0 -477 0 -18 0 -247 0 -79 0 -281 -137 0 0 -909 -249 0 0 -162 -234 0 0 241 18 0c4,0 8,1 12,2 2,-2 3,-2 6,-2l56 0c5,0 9,4 9,9l0 149c0,5 -4,9 -9,9l-7 0c36,15 68,44 75,82 0,2 1,3 1,5 6,17 8,35 4,54 -8,42 -45,78 -86,86 -50,11 -77,-29 -94,-72l-113 0c-26,16 -54,31 -84,46 -24,12 -48,23 -72,33 244,73 478,340 483,541 3,103 4,119 53,151 16,10 41,1 66,17 7,4 14,16 16,29 9,47 -51,90 -100,41 7,39 11,83 4,148 -9,98 -27,189 -48,258 -22,71 -55,184 -151,163 -58,-12 -109,-61 -119,-120 -4,-26 -2,-51 6,-75 0,-3 1,-4 1,-7 9,-54 57,-96 109,-116 1,-39 3,-80 8,-122 1,-10 2,-20 3,-30 -55,55 -123,97 -198,112 9,48 18,103 23,159 4,42 7,84 8,122 52,20 99,61 109,116 0,3 1,4 1,7 8,23 10,49 6,75 -10,59 -62,107 -119,120 -96,21 -129,-92 -151,-163 -60,-202 -24,-484 -211,-634 -11,-9 -26,-19 -42,-28l2 2c-15,-9 -32,-18 -52,-28l-1 -1 0 0 -1 -1 -1 -1 0 0 -1 -1 -1 -1c12,46 22,101 28,159 3,31 5,60 5,89 37,15 72,44 78,84l0 0 0 0 0 0 0 0 0 0 0 0 0 0 0 0 0 0 0 0 0 0 0 0 0 0 1 5c3,9 5,20 5,30 0,6 0,13 -1,21l0 1 0 0 0 1c-8,42 -45,78 -86,86 -69,15 -93,-66 -109,-117 -15,-50 -28,-115 -34,-186l0 -2 0 -2 0 -1 0 -3 0 -1 0 -2 0 -2 0 0 0 -3 0 0 0 -1 0 -3 0 -1 0 -3 0 0 0 -3 0 -1 0 -3 0 -1 0 -2 0 -2 0 0 0 -3 0 -1 0 -2 0 -3 0 0 0 -3 0 -2 0 -3 0 -1 0 -2 0 -3 0 0 0 -3 0 -2 0 -1 0 -3 0 -1 0 -2 0 -3 0 0 0 -3 0 -2 0 -1 0 -3 0 -1 0 -2 0 -3 0 0 0 -3 0 -2 0 -1 0 -3 0 -1 0 -2 0 -3 0 0 0 -3 0 -2 0 -1 0 -3 0 -1 0 -3 0 -3 0 0 0 -3 0 -2 0 -2 0 -3 0 -1 0 -3 0 -3 0 -1 0 -3 0 -1 0 -2 0 -3 0 0 0 -3 0 -2 0 -1 0 -3 0 -1 0 -2 0 -3 0 0 0 -4 0 -1 0 -3 0 -1 0 -2 0 -3 0 0 0 -4 0 0 0 -1c-1,-37 -7,-71 -24,-92 -7,-8 -13,-16 -19,-26 -40,16 -84,22 -127,15 -19,-3 -37,-9 -54,-17 -25,15 -56,21 -88,15 -68,-12 -115,-73 -103,-136 5,-30 22,-55 47,-72 -10,-46 -12,-97 -3,-147 9,-49 27,-94 51,-133 -19,-24 -28,-55 -22,-87 11,-63 76,-104 144,-92 32,5 59,22 78,43 21,-3 42,-2 63,2 41,7 77,25 107,51 34,-27 71,-50 113,-67 75,-32 155,-113 257,-164 12,-6 24,-11 36,-17l0 -187 0 -3 0 -440c0,-16 13,-28 28,-28l181 0c4,0 9,1 12,3l250 0 0 -16 249 0 0 -39 1459 0 0 -91c2657,0 5313,-5 7973,-5l0 1209 -138 0c0,13 -3,26 -7,38l72 -6 0 17zm-9287 1708l0 0zm-71 0l0 0z"/>
   <path class="fil2" d="M8703 5440c1,6 2,13 2,20 0,63 -51,115 -115,115 -63,0 -115,-51 -115,-115 0,-7 1,-13 2,-20l226 0z"/>
   <path class="fil2" d="M7651 5440c1,6 2,13 2,20 0,63 -51,115 -115,115 -63,0 -115,-51 -115,-115 0,-7 1,-13 2,-20l226 0z"/>
   <path class="fil2" d="M8048 5440c1,6 2,13 2,20 0,63 -51,115 -115,115 -63,0 -115,-51 -115,-115 0,-7 1,-13 2,-20l226 0z"/>
   <path class="fil2" d="M8265 5440c1,6 2,13 2,20 0,63 -51,115 -115,115 -63,0 -115,-51 -115,-115 0,-7 1,-13 2,-20l226 0z"/>
   <path class="fil2" d="M8480 5440c1,6 2,13 2,20 0,63 -51,115 -115,115 -51,0 -94,-33 -109,-78 -3,-11 -6,-23 -6,-36 0,-7 2,-33 3,-39l224 20 1 -1 0 -1z"/>
   <path class="fil2" d="M7867 5440c1,6 2,13 2,20 0,63 -51,115 -115,115 -63,0 -115,-51 -115,-115 0,-7 1,-13 2,-20l226 0z"/>
   <rect class="fil3" x="7522" y="5047" width="8914" height="2626"/>
   <rect class="fil4" x="16692" y="7572" width="1344" height="141"/>
   <rect class="fil4" x="5666" y="7572" width="1353" height="141"/>
   <path class="fil5" d="M7011 7712c2888,0 5763,0 8651,0l1056 0 0 -765 -9534 0 -9 84 -77 89 -87 107 0 484 0 1z"/>
   <rect class="fil6" x="8309" y="5135" width="404" height="1927"/>
   <rect class="fil7" x="7406" y="5154" width="403" height="1871"/>
   <path class="fil8" d="M7406 6029l0 -18c8,7 17,11 28,11 34,1 49,-35 60,-62l2 0c0,1 0,2 0,3 0,41 -28,75 -62,75 -10,0 -20,-3 -28,-9zm0 -266l0 -79c11,-3 22,-4 34,-4 82,0 148,81 148,180 0,3 0,4 0,7l-3 0c-28,-64 -82,-107 -145,-107 -12,0 -23,2 -34,4l0 -1z"/>
   <path class="fil2" d="M9488 5223c1,6 2,13 2,20 0,63 -51,115 -115,115 -63,0 -115,-51 -115,-115 0,-7 1,-13 2,-20l226 0z"/>
   <path class="fil2" d="M9704 5223c1,6 2,13 2,20 0,63 -51,115 -115,115 -63,0 -115,-51 -115,-115 0,-7 1,-13 2,-20l226 0z"/>
   <path class="fil2" d="M9920 5223c1,6 2,13 2,20 0,63 -51,115 -115,115 -51,0 -94,-33 -109,-78 -3,-11 -6,-23 -6,-36 0,-7 2,-33 3,-39l224 20 1 -1 0 -1z"/>
   <path class="fil2" d="M9307 5223c1,6 2,13 2,20 0,63 -51,115 -115,115 -63,0 -115,-51 -115,-115 0,-7 1,-13 2,-20l226 0z"/>
   <rect class="fil9" x="7268" y="4085" width="1611" height="1318"/>
   <rect class="fil6" x="8814" y="5135" width="399" height="1871"/>
   <rect class="fil7" x="9518" y="5135" width="402" height="1871"/>
   <path class="fil2" d="M10793 5225c1,6 2,13 2,20 0,63 -51,115 -115,115 -63,0 -115,-51 -115,-115 0,-7 1,-13 2,-20l226 0z"/>
   <path class="fil2" d="M11009 5225c1,6 2,13 2,20 0,63 -51,115 -115,115 -63,0 -115,-51 -115,-115 0,-7 1,-13 2,-20l226 0z"/>
   <path class="fil2" d="M11226 5225c1,6 2,13 2,20 0,63 -51,115 -115,115 -51,0 -94,-33 -109,-78 -3,-11 -6,-23 -6,-36 0,-7 2,-33 3,-39l224 20 1 -1 0 -1z"/>
   <path class="fil2" d="M10612 5225c1,6 2,13 2,20 0,63 -51,115 -115,115 -63,0 -115,-51 -115,-115 0,-7 1,-13 2,-20l226 0z"/>
   <path class="fil2" d="M11619 5225c1,6 2,13 2,20 0,63 -51,115 -115,115 -63,0 -115,-51 -115,-115 0,-7 1,-13 2,-20l226 0z"/>
   <path class="fil2" d="M11834 5225c1,6 2,13 2,20 0,63 -51,115 -115,115 -63,0 -115,-51 -115,-115 0,-7 1,-13 2,-20l226 0z"/>
   <path class="fil2" d="M11437 5225c1,6 2,13 2,20 0,63 -51,115 -115,115 -63,0 -115,-51 -115,-115 0,-7 1,-13 2,-20l226 0z"/>
   <path class="fil2" d="M11960 5225c1,6 2,13 2,20 0,63 -51,115 -115,115 -63,0 -115,-51 -115,-115 0,-7 1,-13 2,-20l226 0z"/>
   <path class="fil2" d="M12564 5225c1,6 2,13 2,20 0,63 -51,115 -115,115 -63,0 -115,-51 -115,-115 0,-7 1,-13 2,-20l226 0z"/>
   <rect class="fil7" x="11426" y="5135" width="402" height="1871"/>
   <rect class="fil7" x="11930" y="5135" width="402" height="1871"/>
   <path class="fil2" d="M13032 5225c1,6 2,13 2,20 0,63 -51,115 -115,115 -63,0 -115,-51 -115,-115 0,-7 1,-13 2,-20l226 0z"/>
   <path class="fil2" d="M13248 5225c1,6 2,13 2,20 0,63 -51,115 -115,115 -63,0 -115,-51 -115,-115 0,-7 1,-13 2,-20l226 0z"/>
   <path class="fil2" d="M13463 5225c1,6 2,13 2,20 0,63 -51,115 -115,115 -51,0 -94,-33 -109,-78 -3,-11 -6,-23 -6,-36 0,-7 2,-33 3,-39l224 20 1 -1 0 -1z"/>
   <path class="fil2" d="M12851 5225c1,6 2,13 2,20 0,63 -51,115 -115,115 -63,0 -115,-51 -115,-115 0,-7 1,-13 2,-20l226 0z"/>
   <rect class="fil7" x="12530" y="5135" width="402" height="1871"/>
   <path class="fil2" d="M13927 5225c1,6 2,13 2,20 0,63 -51,115 -115,115 -63,0 -115,-51 -115,-115 0,-7 1,-13 2,-20l226 0z"/>
   <path class="fil2" d="M14133 5225c1,6 2,13 2,20 0,63 -51,115 -115,115 -63,0 -115,-51 -115,-115 0,-7 1,-13 2,-20l226 0z"/>
   <path class="fil2" d="M14350 5225c1,6 2,13 2,20 0,63 -51,115 -115,115 -63,0 -115,-51 -115,-115 0,-7 1,-13 2,-20l226 0z"/>
   <rect class="fil7" x="13438" y="5135" width="402" height="1871"/>
   <path class="fil2" d="M15009 5225c1,6 2,13 2,20 0,63 -51,115 -115,115 -63,0 -115,-51 -115,-115 0,-7 1,-13 2,-20l226 0z"/>
   <path class="fil2" d="M15225 5225c1,6 2,13 2,20 0,63 -51,115 -115,115 -63,0 -115,-51 -115,-115 0,-7 1,-13 2,-20l226 0z"/>
   <path class="fil2" d="M15441 5225c1,6 2,13 2,20 0,63 -51,115 -115,115 -51,0 -94,-33 -109,-78 -3,-11 -6,-23 -6,-36 0,-7 2,-33 3,-39l224 20 1 -1 0 -1z"/>
   <path class="fil2" d="M14828 5225c1,6 2,13 2,20 0,63 -51,115 -115,115 -63,0 -115,-51 -115,-115 0,-7 1,-13 2,-20l226 0z"/>
   <path class="fil2" d="M15844 5225c1,6 2,13 2,20 0,63 -51,115 -115,115 -63,0 -115,-51 -115,-115 0,-7 1,-13 2,-20l226 0z"/>
   <path class="fil2" d="M16060 5225c1,6 2,13 2,20 0,63 -51,115 -115,115 -63,0 -115,-51 -115,-115 0,-7 1,-13 2,-20l226 0z"/>
   <path class="fil2" d="M16276 5225c1,6 2,13 2,20 0,63 -51,115 -115,115 -51,0 -94,-33 -109,-78 -3,-11 -6,-23 -6,-36 0,-7 2,-33 3,-39l224 20 1 -1 0 -1z"/>
   <path class="fil2" d="M15662 5225c1,6 2,13 2,20 0,63 -51,115 -115,115 -63,0 -115,-51 -115,-115 0,-7 1,-13 2,-20l226 0z"/>
   <rect class="fil7" x="14246" y="5135" width="402" height="1871"/>
   <rect class="fil6" x="16155" y="5135" width="402" height="1871"/>
   <rect class="fil7" x="10021" y="5135" width="402" height="1871"/>
   <path class="fil9" d="M16700 3990l0 1209 -6707 0 0 -12 -123 0 -1142 0 0 -1191c2657,0 5313,-5 7973,-5l-1 -1z"/>
   <path class="fil10" d="M7406 5356l403 0 0 -201 503 0 0 201 403 0 0 -403 -101 0 0 -805 -1006 0 0 101 -101 0 0 704 -101 0 0 403zm503 -403l0 -603 302 0 0 603 -302 0zm1609 -603l0 201 -302 0 0 -201 302 0zm-302 805l0 -403 302 0 0 403 403 0 0 -905 -101 0 0 -101 -905 0 0 101 -101 0 0 905 403 0 -1 0zm1208 -201l0 -805 -403 0 0 1006 1811 0 0 -1006 -403 0 0 805 -302 0 0 -805 -403 0 0 805 -302 0 2 0zm1509 0l0 201 1006 0 101 -101 0 -905 -403 0 0 403 -302 0 0 -403 -403 0 0 503 101 101 603 0 0 201 -704 0 1 0zm1208 -805l0 201 302 0 0 805 403 0 0 -805 302 0 0 -201 -1006 0 -1 0zm1107 1006l403 0 0 -302 101 -1c-1,1 201,297 201,303l403 0 0 -201c-2,-6 -301,-336 -302,-339 0,-1 294,-263 302,-266l0 -201 -403 0 0 52c0,4 -303,248 -302,251l0 -302 -403 0 0 1006 0 -2 0 2zm1912 -805l0 201 -302 0 0 -201 302 0zm-302 805l0 -403 302 0 0 403 403 0 0 -905 -101 -46 0 -55 -905 0 0 53 -101 48 0 905 403 0 -1 0z"/>
   <path class="fil11" d="M8815 5153l403 0 0 49 -403 0 0 -49zm704 0l403 0 0 49 -403 0 0 -49zm503 0l1811 0 0 49 -1811 0 0 -49zm1912 0l1006 0 0 49 -1006 0 0 -49zm1509 0l403 0 0 49 -403 0 0 -49zm805 0l403 0 0 49 -403 0 0 -49zm704 0l403 0 0 49 -403 0 0 -49zm503 0l403 0 0 49 -403 0 0 -49zm704 0l402 0 0 49 -402 0 0 -49z"/>
   <path class="fil10" d="M9519 4349l0 201 -302 0 0 -201 302 0zm-302 805l0 -403 302 0 0 403 403 0 0 -905 -101 -47 0 -53 -905 0 0 53 -87 43 -14 909 403 0 0 -1 -1 1z"/>
   <rect class="fil7" x="6585" y="4141" width="836" height="191"/>
   <path class="fil10" d="M7406 5356l403 0 0 -201 503 0 0 201 403 0 0 -403 -101 0 0 -805 -1006 0 0 53 -101 47 0 704 -101 0 0 403 0 1zm503 -403l0 -603 302 0 0 603 -302 0z"/>
   <path class="fil12" d="M8613 4249l0 -16 -1006 0 0 15 -101 0 0 0 1107 0 0 1zm201 0l1107 0 0 0 -101 0 0 -15 -905 0 0 15 -101 0 0 0zm1208 0l403 0 0 -16 -403 0 0 16zm704 0l403 0 0 -16 -403 0 0 16zm704 0l403 0 0 -16 -403 0 0 16zm503 0l403 0 0 -16 -403 0 0 16zm704 0l403 0 0 -16 -403 0 0 16zm503 0l1006 0 0 -16 -1006 0 0 16zm1107 0l403 0 0 -16 -403 0 0 16zm603 0l503 0 0 -16 -403 0 0 15 -101 0 0 0 0 1 1 0zm603 0l1107 0 0 0 -101 0 0 -15 -905 0 0 15 -101 0 0 0z"/>
   <path class="fil11" d="M8613 4204l0 -55 -1006 0 0 55 1006 0zm7848 0l-905 0 0 -55 905 0 0 55zm-1107 0l-403 0 0 -55 403 0 0 55zm-704 0l-403 0 0 -55 403 0 0 55zm-503 0l-1006 0 0 -55 1006 0 0 55zm-1107 0l-403 0 0 -55 403 0 0 55zm-704 0l-403 0 0 -55 403 0 0 55zm-503 0l-403 0 0 -55 403 0 0 55zm-704 0l-403 0 0 -55 403 0 0 55zm-704 0l-403 0 0 -55 403 0 0 55zm-603 0l-905 0 0 -55 905 0 0 55z"/>
   <path class="fil13" d="M11832 4204l-403 0 0 -55 403 0 0 55zm-704 0l-403 0 0 -55 403 0 0 55zm-704 0l-403 0 0 -55 403 0 0 55z"/>
   <path class="fil4" d="M7181 7359c1,3 1,55 1,59 0,14 -5,27 -13,36 -10,13 -27,21 -44,21 -17,0 -32,-8 -42,-19 -7,-8 -57,-146 -57,-146l156 50 -1 -1z"/>
   <rect class="fil14" x="7406" y="6509" width="403" height="868"/>
   <path class="fil15" d="M7171 7026l229 0 257 0 159 0c0,128 0,255 0,383l-159 0 -257 0 -229 0c-88,0 -159,-72 -159,-159l0 -63c0,-88 72,-159 159,-159l0 -1 0 -1z"/>
   <path class="fil16" d="M10589 5178c1,6 2,13 2,20 0,63 -51,115 -115,115 -63,0 -115,-51 -115,-115 0,-7 1,-13 2,-20l226 0z"/>
   <path class="fil16" d="M10813 5178c1,6 2,13 2,20 0,63 -51,115 -115,115 -63,0 -115,-51 -115,-115 0,-7 1,-13 2,-20l226 0z"/>
   <path class="fil16" d="M11032 5178c1,6 2,13 2,20 0,63 -51,115 -115,115 -63,0 -115,-51 -115,-115 0,-7 1,-13 2,-20l226 0z"/>
   <path class="fil16" d="M11257 5178c1,6 2,13 2,20 0,63 -51,115 -115,115 -63,0 -115,-51 -115,-115 0,-7 1,-13 2,-20l226 0z"/>
   <path class="fil16" d="M11479 5178c1,6 2,13 2,20 0,63 -51,115 -115,115 -63,0 -115,-51 -115,-115 0,-7 1,-13 2,-20l226 0z"/>
   <path class="fil16" d="M11701 5178c1,6 2,13 2,20 0,63 -51,115 -115,115 -63,0 -115,-51 -115,-115 0,-7 1,-13 2,-20l226 0z"/>
   <path class="fil16" d="M11925 5178c1,6 2,13 2,20 0,63 -51,115 -115,115 -63,0 -115,-51 -115,-115 0,-7 1,-13 2,-20l226 0z"/>
   <path class="fil16" d="M12144 5178c1,6 2,13 2,20 0,63 -51,115 -115,115 -63,0 -115,-51 -115,-115 0,-7 1,-13 2,-20l226 0z"/>
   <path class="fil16" d="M12363 5178c1,6 2,13 2,20 0,63 -51,115 -115,115 -63,0 -115,-51 -115,-115 0,-7 1,-13 2,-20l226 0z"/>
   <path class="fil16" d="M12574 5178c1,6 2,13 2,20 0,63 -51,115 -115,115 -63,0 -115,-51 -115,-115 0,-7 1,-13 2,-20l226 0z"/>
   <path class="fil16" d="M12795 5178c1,6 2,13 2,20 0,63 -51,115 -115,115 -63,0 -115,-51 -115,-115 0,-7 1,-13 2,-20l226 0z"/>
   <path class="fil16" d="M13019 5178c1,6 2,13 2,20 0,63 -51,115 -115,115 -63,0 -115,-51 -115,-115 0,-7 1,-13 2,-20l226 0z"/>
   <path class="fil17" d="M13238 5178c1,6 2,13 2,20 0,63 -51,115 -115,115 -63,0 -115,-51 -115,-115 0,-7 1,-13 2,-20l226 0z"/>
   <path class="fil17" d="M13463 5178c1,6 2,13 2,20 0,63 -51,115 -115,115 -63,0 -115,-51 -115,-115 0,-7 1,-13 2,-20l226 0z"/>
   <path class="fil17" d="M13684 5178c1,6 2,13 2,20 0,63 -51,115 -115,115 -63,0 -115,-51 -115,-115 0,-7 1,-13 2,-20l226 0z"/>
   <path class="fil17" d="M13906 5178c1,6 2,13 2,20 0,63 -51,115 -115,115 -63,0 -115,-51 -115,-115 0,-7 1,-13 2,-20l226 0z"/>
   <path class="fil17" d="M14130 5178c1,6 2,13 2,20 0,63 -51,115 -115,115 -63,0 -115,-51 -115,-115 0,-7 1,-13 2,-20l226 0z"/>
   <path class="fil17" d="M14349 5178c1,6 2,13 2,20 0,63 -51,115 -115,115 -63,0 -115,-51 -115,-115 0,-7 1,-13 2,-20l226 0z"/>
   <path class="fil17" d="M14574 5178c1,6 2,13 2,20 0,63 -51,115 -115,115 -63,0 -115,-51 -115,-115 0,-7 1,-13 2,-20l226 0z"/>
   <path class="fil17" d="M14790 5178c1,6 2,13 2,20 0,63 -51,115 -115,115 -63,0 -115,-51 -115,-115 0,-7 1,-13 2,-20l226 0z"/>
   <path class="fil17" d="M15012 5178c1,6 2,13 2,20 0,63 -51,115 -115,115 -63,0 -115,-51 -115,-115 0,-7 1,-13 2,-20l226 0z"/>
   <path class="fil17" d="M15236 5178c1,6 2,13 2,20 0,63 -51,115 -115,115 -63,0 -115,-51 -115,-115 0,-7 1,-13 2,-20l226 0z"/>
   <path class="fil17" d="M15455 5178c1,6 2,13 2,20 0,63 -51,115 -115,115 -63,0 -115,-51 -115,-115 0,-7 1,-13 2,-20l226 0z"/>
   <path class="fil17" d="M15673 5178c1,6 2,13 2,20 0,63 -51,115 -115,115 -63,0 -115,-51 -115,-115 0,-7 1,-13 2,-20l226 0z"/>
   <path class="fil17" d="M15889 5178c1,6 2,13 2,20 0,63 -51,115 -115,115 -63,0 -115,-51 -115,-115 0,-7 1,-13 2,-20l226 0z"/>
   <path class="fil17" d="M16111 5178c1,6 2,13 2,20 0,63 -51,115 -115,115 -63,0 -115,-51 -115,-115 0,-7 1,-13 2,-20l226 0z"/>
   <path class="fil17" d="M16335 5178c1,6 2,13 2,20 0,63 -51,115 -115,115 -63,0 -115,-51 -115,-115 0,-7 1,-13 2,-20l226 0z"/>
   <path class="fil17" d="M16561 5178c1,6 2,13 2,20 0,63 -51,115 -115,115 -63,0 -115,-51 -115,-115 0,-7 1,-13 2,-20l226 0z"/>
   <rect class="fil18" x="7406" y="5321" width="400.59" height="77.38"/>
   <path class="fil16" d="M7634 5390c1,6 2,13 2,20 0,63 -51,115 -115,115 -63,0 -115,-51 -115,-115 0,-7 1,-13 2,-20l226 0z"/>
   <path class="fil16" d="M7837 5390c1,6 2,13 2,20 0,63 -51,115 -115,115 -63,0 -115,-51 -115,-115 0,-7 1,-13 2,-20l226 0z"/>
   <path class="fil16" d="M8048 5390c1,6 2,13 2,20 0,63 -51,115 -115,115 -63,0 -115,-51 -115,-115 0,-7 1,-13 2,-20l226 0z"/>
   <path class="fil16" d="M8259 5390c1,6 2,13 2,20 0,63 -51,115 -115,115 -63,0 -115,-51 -115,-115 0,-7 1,-13 2,-20l226 0z"/>
   <path class="fil16" d="M8484 5390c1,6 2,13 2,20 0,63 -51,115 -115,115 -63,0 -115,-51 -115,-115 0,-7 1,-13 2,-20l226 0z"/>
   <path class="fil16" d="M8712 5390c1,6 2,13 2,20 0,63 -51,115 -115,115 -63,0 -115,-51 -115,-115 0,-7 1,-13 2,-20l226 0z"/>
   <path class="fil4" d="M7503 7408c1,3 1,6 1,9 0,32 -26,57 -57,57 -32,0 -57,-26 -57,-57 0,-3 0,-7 1,-9l113 0 -1 0z"/>
   <path class="fil4" d="M7604 7408c1,3 1,6 1,9 0,32 -26,57 -57,57 -32,0 -57,-26 -57,-57 0,-3 0,-7 1,-9l113 0 -1 0z"/>
   <path class="fil4" d="M7710 7408c1,3 1,6 1,9 0,32 -26,57 -57,57 -32,0 -57,-26 -57,-57 0,-3 0,-7 1,-9l113 0 -1 0z"/>
   <path class="fil4" d="M7815 7408c1,3 1,6 1,9 0,32 -26,57 -57,57 -32,0 -57,-26 -57,-57 0,-3 0,-7 1,-9l113 0 -1 0z"/>
   <path class="fil4" d="M7287 7408c1,3 1,6 1,9 0,32 -26,57 -57,57 -32,0 -57,-26 -57,-57 0,-3 0,-7 1,-9l113 0 -1 0z"/>
   <path class="fil4" d="M7392 7408c1,3 1,6 1,9 0,32 -26,57 -57,57 -32,0 -57,-26 -57,-57 0,-3 0,-7 1,-9l113 0 -1 0z"/>
   <rect class="fil19" x="7363" y="6506" width="468" height="210"/>
   <rect class="fil20" x="7490" y="6506" width="341" height="210"/>
   <rect class="fil20" x="7489" y="6506" width="222" height="210"/>
   <rect class="fil14" x="7753" y="6506" width="11.27" height="210.03"/>
   <rect class="fil14" x="7799" y="6506" width="11.27" height="210.03"/>
   <path class="fil2" d="M7190 6944l17 0c5,0 10,47 10,105l0 0c0,58 -4,105 -9,105l-17 0c-5,0 -9,-47 -9,-105l0 0c0,-58 4,-105 9,-105l-1 0z"/>
   <path class="fil2" d="M7260 6944l17 0c5,0 9,47 9,105l0 0c0,58 -4,105 -9,105l-17 0c-5,0 -9,-47 -9,-105l0 0c0,-58 4,-105 9,-105z"/>
   <path class="fil2" d="M7331 6944l26 0c5,0 9,47 9,105l0 0c0,58 -4,105 -9,105l-26 0c-5,0 -9,-47 -9,-105l0 0c0,-58 4,-105 9,-105z"/>
   <path class="fil4" d="M7216 7027l-36 0 0 -65c0,-9 8,-18 18,-18l0 0c9,0 18,8 18,18l0 65z"/>
   <path class="fil4" d="M7286 7027l-36 0 0 -65c0,-9 8,-18 18,-18l0 0c9,0 18,8 18,18l0 65z"/>
   <path class="fil4" d="M7367 7027l-46 0 0 -60c0,-12 10,-22 22,-22l0 0c12,0 22,10 22,22l0 60 1 0 1 0z"/>
   <rect class="fil14" x="8309" y="6509" width="403" height="868"/>
   <rect class="fil14" x="8811" y="6067" width="403" height="1215"/>
   <path class="fil18" d="M9455 6946l-229 0 -257 0 -159 0c0,121 0,241 0,362l159 0 257 0 229 0c88,0 159,-68 159,-152l0 -59c0,-84 -72,-152 -159,-152l0 1z"/>
   <path class="fil4" d="M8937 7358c-1,3 -1,55 -1,59 0,14 5,27 13,36 10,13 27,21 44,21 17,0 32,-8 42,-19 7,-8 57,-146 57,-146l-156 50 1 -1z"/>
   <path class="fil4" d="M9174 7297c-1,3 -1,6 -1,9 0,32 26,57 57,57 32,0 57,-26 57,-57 0,-3 0,-7 -1,-9l-113 0 1 0z"/>
   <path class="fil4" d="M9072 7297c-1,3 -1,6 -1,9 0,32 26,57 57,57 32,0 57,-26 57,-57 0,-3 0,-7 -1,-9l-113 0 1 0z"/>
   <path class="fil4" d="M8966 7297c-1,3 -1,6 -1,9 0,32 26,57 57,57 32,0 57,-26 57,-57 0,-3 0,-7 -1,-9l-113 0 1 0z"/>
   <path class="fil4" d="M8861 7297c-1,3 -1,6 -1,9 0,32 26,57 57,57 32,0 57,-26 57,-57 0,-3 0,-7 -1,-9l-113 0 1 0z"/>
   <path class="fil4" d="M9389 7297c-1,3 -1,6 -1,9 0,32 26,57 57,57 32,0 57,-26 57,-57 0,-3 0,-7 -1,-9l-113 0 1 0z"/>
   <path class="fil4" d="M9284 7297c-1,3 -1,6 -1,9 0,32 26,57 57,57 32,0 57,-26 57,-57 0,-3 0,-7 -1,-9l-113 0 1 0z"/>
   <path class="fil15" d="M8947 7026l-229 0 -257 0 -159 0c0,128 0,255 0,383l159 0 257 0 229 0c88,0 159,-72 159,-159l0 -63c0,-88 -72,-159 -159,-159l0 -1 0 -1z"/>
   <path class="fil4" d="M8616 7408c-1,3 -1,6 -1,9 0,32 26,57 57,57 32,0 57,-26 57,-57 0,-3 0,-7 -1,-9l-113 0 1 0z"/>
   <path class="fil4" d="M8514 7408c-1,3 -1,6 -1,9 0,32 26,57 57,57 32,0 57,-26 57,-57 0,-3 0,-7 -1,-9l-113 0 1 0z"/>
   <path class="fil4" d="M8409 7408c-1,3 -1,6 -1,9 0,32 26,57 57,57 32,0 57,-26 57,-57 0,-3 0,-7 -1,-9l-113 0 1 0z"/>
   <path class="fil4" d="M8303 7408c-1,3 -1,6 -1,9 0,32 26,57 57,57 32,0 57,-26 57,-57 0,-3 0,-7 -1,-9l-113 0 1 0z"/>
   <path class="fil4" d="M8831 7408c-1,3 -1,6 -1,9 0,32 26,57 57,57 32,0 57,-26 57,-57 0,-3 0,-7 -1,-9l-113 0 1 0z"/>
   <path class="fil4" d="M8725 7408c-1,3 -1,6 -1,9 0,32 26,57 57,57 32,0 57,-26 57,-57 0,-3 0,-7 -1,-9l-113 0 1 0z"/>
   <rect class="fil19" x="8287" y="6506" width="468" height="210"/>
   <rect class="fil20" x="8286" y="6506" width="341" height="210"/>
   <rect class="fil20" x="8407" y="6506" width="222" height="210"/>
   <rect class="fil14" x="8353" y="6506" width="11.27" height="210.03"/>
   <rect class="fil14" x="8307" y="6506" width="11.27" height="210.03"/>
   <path class="fil2" d="M8911 6944l17 0c5,0 10,47 10,105l0 0c0,58 -4,105 -9,105l-17 0c-5,0 -9,-47 -9,-105l0 0c0,-58 4,-105 9,-105l-1 0z"/>
   <path class="fil2" d="M8840 6944l17 0c5,0 9,47 9,105l0 0c0,58 -4,105 -9,105l-17 0c-5,0 -9,-47 -9,-105l0 0c0,-58 4,-105 9,-105z"/>
   <path class="fil2" d="M8760 6944l26 0c5,0 9,47 9,105l0 0c0,58 -4,105 -9,105l-26 0c-5,0 -9,-47 -9,-105l0 0c0,-58 4,-105 9,-105z"/>
   <path class="fil19" d="M8902 7027l36 0 0 -65c0,-9 -8,-18 -18,-18l0 0c-9,0 -18,8 -18,18l0 65z"/>
   <path class="fil19" d="M8831 7027l36 0 0 -65c0,-9 -8,-18 -18,-18l0 0c-9,0 -18,8 -18,18l0 65z"/>
   <path class="fil19" d="M8751 7027l46 0 0 -60c0,-12 -10,-22 -22,-22l0 0c-12,0 -22,10 -22,22l0 60 -1 0 -1 0z"/>
   <path class="fil21" d="M8709 6029l0 -18c-8,7 -17,11 -28,11 -34,1 -49,-35 -60,-62l-2 0c0,1 0,2 0,3 0,41 28,75 62,75 10,0 20,-3 28,-9zm0 -266l0 -79c-11,-3 -22,-4 -34,-4 -82,0 -148,81 -148,180 0,3 0,4 0,7l3 0c28,-64 82,-107 145,-107 12,0 23,2 34,4l0 -1z"/>
   <rect class="fil20" x="8753" y="6008" width="515" height="210"/>
   <path class="fil15" d="M9576 6979l285 0c70,0 126,56 126,126l0 256c0,69 -56,126 -126,126l-285 0c-69,0 -126,-56 -126,-126l0 -256c0,-70 56,-126 126,-126z"/>
   <path class="fil22" d="M10108 6979l285 0c70,0 126,56 126,126l0 256c0,69 -56,126 -126,126l-285 0c-69,0 -126,-56 -126,-126l0 -256c0,-70 56,-126 126,-126z"/>
   <path class="fil4" d="M11191 7359c1,3 1,55 1,59 0,14 -5,27 -13,36 -10,13 -27,21 -44,21 -17,0 -32,-8 -42,-19 -7,-8 -57,-146 -57,-146l156 50 -1 -1z"/>
   <rect class="fil14" x="11427" y="6509" width="403" height="868"/>
   <path class="fil2" d="M11187 7026l229 0 257 0 159 0c0,128 0,255 0,383l-159 0 -257 0 -229 0c-88,0 -159,-72 -159,-159l0 -63c0,-88 72,-159 159,-159l0 -1 0 -1z"/>
   <path class="fil4" d="M11507 7408c1,3 1,6 1,9 0,32 -26,57 -57,57 -32,0 -57,-26 -57,-57 0,-3 0,-7 1,-9l113 0 -1 0z"/>
   <path class="fil4" d="M11608 7408c1,3 1,6 1,9 0,32 -26,57 -57,57 -32,0 -57,-26 -57,-57 0,-3 0,-7 1,-9l113 0 -1 0z"/>
   <path class="fil4" d="M11714 7408c1,3 1,6 1,9 0,32 -26,57 -57,57 -32,0 -57,-26 -57,-57 0,-3 0,-7 1,-9l113 0 -1 0z"/>
   <path class="fil4" d="M11825 7408c1,3 1,6 1,9 0,32 -26,57 -57,57 -32,0 -57,-26 -57,-57 0,-3 0,-7 1,-9l113 0 -1 0z"/>
   <path class="fil4" d="M11291 7408c1,3 1,6 1,9 0,32 -26,57 -57,57 -32,0 -57,-26 -57,-57 0,-3 0,-7 1,-9l113 0 -1 0z"/>
   <path class="fil4" d="M11396 7408c1,3 1,6 1,9 0,32 -26,57 -57,57 -32,0 -57,-26 -57,-57 0,-3 0,-7 1,-9l113 0 -1 0z"/>
   <rect class="fil19" x="11367" y="6506" width="468" height="210"/>
   <rect class="fil20" x="11494" y="6506" width="341" height="210"/>
   <rect class="fil20" x="11493" y="6506" width="222" height="210"/>
   <rect class="fil14" x="11758" y="6506" width="11.27" height="210.03"/>
   <rect class="fil14" x="11803" y="6506" width="11.27" height="210.03"/>
   <path class="fil23" d="M11194 6944l17 0c5,0 9,47 9,105l0 0c0,58 -4,105 -9,105l-17 0c-5,0 -9,-47 -9,-105l0 0c0,-58 4,-105 9,-105z"/>
   <path class="fil23" d="M11264 6944l17 0c5,0 9,47 9,105l0 0c0,58 -4,105 -9,105l-17 0c-5,0 -9,-47 -9,-105l0 0c0,-58 4,-105 9,-105z"/>
   <path class="fil23" d="M11335 6944l26 0c5,0 9,47 9,105l0 0c0,58 -4,105 -9,105l-26 0c-5,0 -9,-47 -9,-105l0 0c0,-58 4,-105 10,-105l-1 0z"/>
   <path class="fil4" d="M11220 7027l-36 0 0 -65c0,-9 8,-18 18,-18l0 0c9,0 18,8 18,18l0 65z"/>
   <path class="fil4" d="M11291 7027l-36 0 0 -65c0,-9 8,-18 18,-18l0 0c9,0 18,8 18,18l0 65z"/>
   <path class="fil4" d="M11371 7027l-46 0 0 -60c0,-12 10,-22 22,-22l0 0c12,0 22,10 22,22l0 60 1 0 1 0z"/>
   <path class="fil22" d="M11998 6966l285 0c70,0 126,58 126,129l0 263c0,71 -56,129 -126,129l-285 0c-69,0 -126,-58 -126,-129l0 -263c0,-71 56,-129 126,-129z"/>
   <path class="fil19" d="M12410 7297l0 71c0,69 -57,126 -126,126l-286 0c-69,0 -126,-57 -126,-126l0 -71c0,69 57,126 126,126l286 0c69,0 126,-57 126,-126z"/>
   <path class="fil7" d="M12333 6971c2,9 3,19 3,29 0,94 -90,171 -201,171 -111,0 -201,-77 -201,-171 0,-10 1,-20 3,-29l396 0 1 0 -1 0z"/>
   <path class="fil14" d="M12132 7171c-59,0 -112,-22 -150,-55 -18,-17 -53,-72 -53,-100 -1,-5 -1,-10 -1,-16 0,-5 0,-15 1,-24l0 -97 -3 0 0 -1215 403 0 0 1175 5 0 0 152c0,108 -97,179 -204,179l1 0 1 1z"/>
   <rect class="fil14" x="12531" y="6509" width="403" height="868"/>
   <path class="fil24" d="M13170 7026l-229 0 -257 0 -159 0c0,128 0,255 0,383l159 0 257 0 229 0c88,0 159,-72 159,-159l0 -63c0,-88 -72,-159 -159,-159l0 -1 0 -1z"/>
   <path class="fil4" d="M12837 7408c-1,3 -1,6 -1,9 0,32 26,57 57,57 32,0 57,-26 57,-57 0,-3 0,-7 -1,-9l-113 0 1 0z"/>
   <path class="fil4" d="M12735 7408c-1,3 -1,6 -1,9 0,32 26,57 57,57 32,0 57,-26 57,-57 0,-3 0,-7 -1,-9l-113 0 1 0z"/>
   <path class="fil4" d="M12629 7408c-1,3 -1,6 -1,9 0,32 26,57 57,57 32,0 57,-26 57,-57 0,-3 0,-7 -1,-9l-113 0 1 0z"/>
   <path class="fil4" d="M12524 7408c-1,3 -1,6 -1,9 0,32 26,57 57,57 32,0 57,-26 57,-57 0,-3 0,-7 -1,-9l-113 0 1 0z"/>
   <path class="fil4" d="M13052 7408c-1,3 -1,6 -1,9 0,32 26,57 57,57 32,0 57,-26 57,-57 0,-3 0,-7 -1,-9l-113 0 1 0z"/>
   <path class="fil4" d="M12946 7408c-1,3 -1,6 -1,9 0,32 26,57 57,57 32,0 57,-26 57,-57 0,-3 0,-7 -1,-9l-113 0 1 0z"/>
   <rect class="fil19" x="12508" y="6506" width="468" height="210"/>
   <rect class="fil20" x="12507" y="6506" width="341" height="210"/>
   <rect class="fil20" x="12628" y="6506" width="222" height="210"/>
   <rect class="fil14" x="12574" y="6506" width="11.27" height="210.03"/>
   <rect class="fil14" x="12528" y="6506" width="11.27" height="210.03"/>
   <path class="fil19" d="M13123 7026l36 0 0 65c0,9 -8,18 -18,18l0 0c-9,0 -18,-8 -18,-18l0 -65z"/>
   <path class="fil19" d="M13052 7026l36 0 0 65c0,9 -8,18 -18,18l0 0c-9,0 -18,-8 -18,-18l0 -65z"/>
   <path class="fil19" d="M12972 7026l46 0 0 60c0,12 -10,22 -22,22l0 0c-12,0 -22,-10 -22,-22l0 -60 -1 0 -1 0z"/>
   <path class="fil20" d="M9987 7297l0 71c0,69 -57,126 -126,126l-286 0c-69,0 -126,-57 -126,-126l0 -71c0,69 57,126 126,126l286 0c69,0 126,-57 126,-126z"/>
   <path class="fil19" d="M10523 7297l0 71c0,69 -57,126 -126,126l-286 0c-69,0 -126,-57 -126,-126l0 -71c0,69 57,126 126,126l286 0c69,0 126,-57 126,-126z"/>
   <path class="fil25" d="M13753 5960l2 0c0,1 0,2 0,3 0,101 -172,101 -172,0 0,-1 0,-2 0,-3l2 0c33,78 135,78 169,0l-1 0zm90 -94l3 0c0,-3 0,-4 0,-7 0,-244 -354,-244 -354,0 0,3 0,4 0,7l3 0c63,-146 285,-146 347,0l1 0z"/>
   <path class="fil7" d="M10422 6971c2,9 3,19 3,29 0,94 -90,171 -201,171 -111,0 -201,-77 -201,-171 0,-10 1,-20 3,-29l396 0 1 0 -1 0z"/>
   <path class="fil14" d="M9717 7171c-59,0 -111,-22 -148,-55 -18,-17 -52,-72 -52,-100 -1,-5 -1,-10 -1,-16 0,-5 0,-15 1,-24l0 -137 403 0 0 152c0,108 -97,179 -202,179l-1 1z"/>
   <path class="fil14" d="M10221 7171c-59,0 -111,-22 -148,-55 -18,-17 -52,-72 -52,-100 -1,-5 -1,-10 -1,-16 0,-5 0,-15 1,-24l0 -137 403 0 0 152c0,108 -97,179 -202,179l-1 1z"/>
   <path class="fil19" d="M10221 7171c-59,0 -111,-22 -148,-55 -18,-17 -52,-72 -52,-100 -1,-5 -1,-10 -1,-16 0,-3 0,-9 0,-16l403 0 0 7c0,108 -97,179 -202,179l0 1z"/>
   <path class="fil19" d="M9718 7171c-59,0 -111,-22 -148,-55 -18,-17 -52,-72 -52,-100 -1,-5 -1,-10 -1,-16 0,-3 0,-9 0,-16l403 0 0 7c0,108 -97,179 -202,179l0 1z"/>
   <rect class="fil19" x="9983" y="6765" width="470.34" height="75.46"/>
   <rect class="fil19" x="9485" y="6765" width="470.34" height="75.46"/>
   <path class="fil2" d="M12132 7171c-59,0 -113,-22 -150,-55 -19,-17 -53,-72 -53,-100 -1,-5 -1,-10 -1,-16 0,-3 0,-9 0,-16l409 0 0 7c0,108 -98,179 -205,179l0 1z"/>
   <rect class="fil20" x="11869" y="5665" width="528" height="206"/>
   <rect class="fil20" x="11869" y="5869" width="528.2" height="35.2"/>
   <rect class="fil26" x="8753" y="5989" width="513.23" height="36.56"/>
   <rect class="fil27" x="11912" y="6833" width="435.31" height="93.1"/>
   <path class="fil4" d="M14874 7359c-1,3 -1,55 -1,59 0,14 5,27 13,36 10,13 27,21 44,21 17,0 32,-8 42,-19 7,-8 57,-146 57,-146l-156 50 1 -1z"/>
   <rect class="fil14" x="14247" y="6486" width="403" height="892"/>
   <path class="fil27" d="M14884 7026l-229 0 -257 0 -159 0c0,128 0,255 0,383l159 0 257 0 229 0c88,0 159,-72 159,-159l0 -63c0,-88 -72,-159 -159,-159l0 -1 0 -1z"/>
   <path class="fil4" d="M14553 7408c-1,3 -1,6 -1,9 0,32 26,57 57,57 32,0 57,-26 57,-57 0,-3 0,-7 -1,-9l-113 0 1 0z"/>
   <path class="fil4" d="M14451 7408c-1,3 -1,6 -1,9 0,32 26,57 57,57 32,0 57,-26 57,-57 0,-3 0,-7 -1,-9l-113 0 1 0z"/>
   <path class="fil4" d="M14346 7408c-1,3 -1,6 -1,9 0,32 26,57 57,57 32,0 57,-26 57,-57 0,-3 0,-7 -1,-9l-113 0 1 0z"/>
   <path class="fil4" d="M14240 7408c-1,3 -1,6 -1,9 0,32 26,57 57,57 32,0 57,-26 57,-57 0,-3 0,-7 -1,-9l-113 0 1 0z"/>
   <path class="fil4" d="M14768 7408c-1,3 -1,6 -1,9 0,32 26,57 57,57 32,0 57,-26 57,-57 0,-3 0,-7 -1,-9l-113 0 1 0z"/>
   <path class="fil4" d="M14663 7408c-1,3 -1,6 -1,9 0,32 26,57 57,57 32,0 57,-26 57,-57 0,-3 0,-7 -1,-9l-113 0 1 0z"/>
   <rect class="fil19" x="14225" y="6279" width="468" height="210"/>
   <rect class="fil20" x="14202" y="6279" width="363" height="210"/>
   <rect class="fil20" x="14345" y="6279" width="222" height="210"/>
   <rect class="fil14" x="14290" y="6279" width="11.27" height="210.03"/>
   <rect class="fil14" x="14245" y="6279" width="11.27" height="210.03"/>
   <path class="fil2" d="M14849 6944l17 0c5,0 9,47 9,105l0 0c0,58 -4,105 -9,105l-17 0c-5,0 -9,-47 -9,-105l0 0c0,-58 4,-105 9,-105z"/>
   <path class="fil2" d="M14778 6944l17 0c5,0 9,47 9,105l0 0c0,58 -4,105 -9,105l-17 0c-5,0 -9,-47 -9,-105l0 0c0,-58 4,-105 9,-105z"/>
   <path class="fil2" d="M14698 6944l26 0c5,0 9,47 9,105l0 0c0,58 -4,105 -9,105l-26 0c-5,0 -9,-47 -9,-105l0 0c0,-58 4,-105 9,-105z"/>
   <path class="fil27" d="M14839 7027l36 0 0 -65c0,-9 -8,-18 -18,-18l0 0c-9,0 -18,8 -18,18l0 65z"/>
   <path class="fil27" d="M14768 7027l36 0 0 -65c0,-9 -8,-18 -18,-18l0 0c-9,0 -18,8 -18,18l0 65z"/>
   <path class="fil27" d="M14688 7027l46 0 0 -60c0,-12 -10,-22 -22,-22l0 0c-12,0 -22,10 -22,22l0 60 -1 0 -1 0z"/>
   <path class="fil8" d="M14645 6029l0 -18c-8,7 -17,11 -28,11 -34,1 -49,-35 -60,-62l-2 0c0,1 0,2 0,3 0,41 28,75 62,75 10,0 20,-3 28,-9zm0 -266l0 -79c-11,-3 -22,-4 -34,-4 -82,0 -148,81 -148,180 0,3 0,4 0,7l3 0c28,-64 82,-107 145,-107 12,0 23,2 34,4l0 -1z"/>
   <path class="fil17" d="M9256 5178c1,6 2,13 2,20 0,63 -51,115 -115,115 -63,0 -115,-51 -115,-115 0,-7 1,-13 2,-20l226 0z"/>
   <path class="fil17" d="M9478 5178c1,6 2,13 2,20 0,63 -51,115 -115,115 -63,0 -115,-51 -115,-115 0,-7 1,-13 2,-20l226 0z"/>
   <path class="fil17" d="M9701 5178c1,6 2,13 2,20 0,63 -51,115 -115,115 -63,0 -115,-51 -115,-115 0,-7 1,-13 2,-20l226 0z"/>
   <path class="fil17" d="M9920 5178c1,6 2,13 2,20 0,63 -51,115 -115,115 -63,0 -115,-51 -115,-115 0,-7 1,-13 2,-20l226 0z"/>
   <path class="fil16" d="M10146 5178c1,6 2,13 2,20 0,63 -51,115 -115,115 -63,0 -115,-51 -115,-115 0,-7 1,-13 2,-20l226 0z"/>
   <path class="fil16" d="M10368 5178c1,6 2,13 2,20 0,63 -51,115 -115,115 -63,0 -115,-51 -115,-115 0,-7 1,-13 2,-20l226 0z"/>
   <path class="fil17" d="M9043 5184c1,6 -2,28 -2,34 0,28 -9,53 -26,72 -21,26 -53,42 -89,42 -38,0 -72,-18 -92,-47 -14,-19 -22,-42 -22,-67 0,-7 1,-34 3,-40l228 5 -1 0 1 1z"/>
   <rect class="fil6" x="15450" y="5135" width="402" height="1871"/>
   <path class="fil11" d="M8815 5129l403 0 0 68 -403 0 0 -68zm704 0l403 0 0 68 -403 0 0 -68zm503 0l1811 0 0 68 -1811 0 0 -68zm1912 0l1006 0 0 68 -1006 0 0 -68zm1509 0l403 0 0 68 -403 0 0 -68zm805 0l403 0 0 68 -403 0 0 -68zm704 0l403 0 0 68 -403 0 0 -68zm503 0l403 0 0 68 -403 0 0 -68zm704 0l402 0 0 68 -402 0 0 -68z"/>
   <rect class="fil18" x="8311" y="5316" width="402.99" height="82.42"/>
   <path class="fil8" d="M11440 6029l0 -18c8,7 17,11 28,11 34,1 49,-35 60,-62l2 0c0,1 0,2 0,3 0,41 -28,75 -62,75 -10,0 -20,-3 -28,-9zm0 -266l0 -79c11,-3 22,-4 34,-4 82,0 148,81 148,180 0,3 0,4 0,7l-3 0c-28,-64 -82,-107 -145,-107 -12,0 -23,2 -34,4l0 -1z"/>
   <path class="fil8" d="M12926 6029l0 -18c-8,7 -17,11 -28,11 -34,1 -49,-35 -60,-62l-2 0c0,1 0,2 0,3 0,41 28,75 62,75 10,0 20,-3 28,-9zm0 -266l0 -79c-11,-3 -22,-4 -34,-4 -82,0 -148,81 -148,180 0,3 0,4 0,7l3 0c28,-64 82,-107 145,-107 12,0 23,2 34,4l0 -1z"/>
   <path class="fil6" d="M6254 4977c75,-32 155,-113 257,-164 125,-61 280,-103 297,-68 17,34 -88,122 -235,194 -24,12 -48,23 -72,33 244,73 478,340 483,541 3,103 4,119 53,151 16,10 41,1 66,17 7,4 14,16 16,29 9,47 -51,90 -100,41 7,39 11,83 4,148 -9,98 -27,189 -48,258 -22,71 -55,184 -151,163 -58,-12 -109,-61 -119,-120 -4,-26 -2,-51 6,-75 0,-3 1,-4 1,-7 9,-54 57,-96 109,-116 1,-39 3,-80 8,-122 1,-10 2,-20 3,-30 -55,55 -123,97 -198,112 9,48 18,103 23,159 4,42 7,84 8,122 52,20 99,61 109,116 0,3 1,4 1,7 8,23 10,49 6,75 -10,59 -62,107 -119,120 -96,21 -129,-92 -151,-163 -60,-202 -24,-484 -211,-634 -22,-18 -53,-37 -97,-57 12,46 22,101 28,159 3,31 5,60 5,89 37,15 72,44 78,84 4,23 9,33 5,59 -8,42 -45,78 -86,86 -69,15 -93,-66 -109,-117 -15,-50 -28,-115 -34,-186 -7,-73 21,-203 -22,-255 -26,-32 -46,-71 -62,-109 -86,-204 24,-447 247,-541l0 2 1 -1z"/>
   <path class="fil6" d="M6261 5738c-16,-9 -34,-20 -56,-30 12,46 22,101 28,159 3,31 5,60 5,89 37,15 72,44 78,84 0,2 1,3 1,5 6,17 8,35 4,54 -8,42 -45,78 -86,86 -69,15 -93,-66 -109,-117 -15,-50 -28,-115 -34,-186 -4,-44 4,-109 2,-166 22,-17 47,-26 72,-26 34,0 66,17 96,47l-1 1z"/>
   <ellipse class="fil6" transform="matrix(0.634961 0.112052 -0.0991226 0.561697 5979.41 5304.65)" rx="406" ry="556"/>
   <path class="fil6" d="M5894 4947c36,6 66,26 84,53 -79,6 -154,55 -203,130 -21,-25 -30,-57 -24,-91 11,-63 76,-104 144,-92l-1 0z"/>
   <path class="fil6" d="M5782 5615c36,6 71,-2 97,-21 -73,-33 -126,-104 -147,-191 -28,16 -48,43 -54,76 -11,63 35,124 103,136l1 0z"/>
   <path class="fil6" d="M6576 4138l180 0c16,0 28,5 28,11l0 478c0,6 -13,11 -28,11l-180 0c-16,0 -28,-5 -28,-11l0 -478c0,-6 13,-11 28,-11z"/>
   <path class="fil4" d="M14063 7359c-1,3 -1,55 -1,59 0,14 5,27 13,36 10,13 27,21 44,21 17,0 32,-8 42,-19 7,-8 57,-146 57,-146l-156 50 1 -1z"/>
   <rect class="fil14" x="13437" y="6509" width="403" height="868"/>
   <path class="fil28" d="M14074 7026l-229 0 -257 0 -159 0c0,128 0,255 0,383l159 0 257 0 229 0c88,0 159,-72 159,-159l0 -63c0,-88 -72,-159 -159,-159l0 -1 0 -1z"/>
   <path class="fil4" d="M13743 7408c-1,3 -1,6 -1,9 0,32 26,57 57,57 32,0 57,-26 57,-57 0,-3 0,-7 -1,-9l-113 0 1 0z"/>
   <path class="fil4" d="M13641 7408c-1,3 -1,6 -1,9 0,32 26,57 57,57 32,0 57,-26 57,-57 0,-3 0,-7 -1,-9l-113 0 1 0z"/>
   <path class="fil4" d="M13535 7408c-1,3 -1,6 -1,9 0,32 26,57 57,57 32,0 57,-26 57,-57 0,-3 0,-7 -1,-9l-113 0 1 0z"/>
   <path class="fil4" d="M13430 7408c-1,3 -1,6 -1,9 0,32 26,57 57,57 32,0 57,-26 57,-57 0,-3 0,-7 -1,-9l-113 0 1 0z"/>
   <path class="fil4" d="M13958 7408c-1,3 -1,6 -1,9 0,32 26,57 57,57 32,0 57,-26 57,-57 0,-3 0,-7 -1,-9l-113 0 1 0z"/>
   <path class="fil4" d="M13852 7408c-1,3 -1,6 -1,9 0,32 26,57 57,57 32,0 57,-26 57,-57 0,-3 0,-7 -1,-9l-113 0 1 0z"/>
   <rect class="fil19" x="13414" y="6506" width="468" height="210"/>
   <rect class="fil20" x="13392" y="6506" width="363" height="210"/>
   <rect class="fil20" x="13534" y="6506" width="222" height="210"/>
   <rect class="fil14" x="13480" y="6506" width="11.27" height="210.03"/>
   <rect class="fil14" x="13434" y="6506" width="11.27" height="210.03"/>
   <path class="fil2" d="M14038 6944l17 0c5,0 9,47 9,105l0 0c0,58 -4,105 -9,105l-17 0c-5,0 -9,-47 -9,-105l0 0c0,-58 4,-105 9,-105z"/>
   <path class="fil2" d="M13968 6944l17 0c5,0 9,47 9,105l0 0c0,58 -4,105 -9,105l-17 0c-5,0 -9,-47 -9,-105l0 0c0,-58 4,-105 9,-105z"/>
   <path class="fil2" d="M13887 6944l26 0c5,0 9,47 9,105l0 0c0,58 -4,105 -9,105l-26 0c-5,0 -9,-47 -9,-105l0 0c0,-58 4,-105 9,-105z"/>
   <path class="fil4" d="M14029 7027l36 0 0 -65c0,-9 -8,-18 -18,-18l0 0c-9,0 -18,8 -18,18l0 65z"/>
   <path class="fil4" d="M13958 7027l36 0 0 -65c0,-9 -8,-18 -18,-18l0 0c-9,0 -18,8 -18,18l0 65z"/>
   <path class="fil4" d="M13877 7027l46 0 0 -60c0,-12 -10,-22 -22,-22l0 0c-12,0 -22,10 -22,22l0 60 -1 0 -1 0z"/>
   <path class="fil4" d="M15931 7359c1,3 1,55 1,59 0,14 -5,27 -13,36 -10,13 -27,21 -44,21 -17,0 -32,-8 -42,-19 -7,-8 -57,-146 -57,-146l156 50 -1 -1z"/>
   <rect class="fil14" x="16155" y="6509" width="403" height="868"/>
   <path class="fil4" d="M15438 7408c1,3 1,6 1,9 0,32 -26,57 -57,57 -32,0 -57,-26 -57,-57 0,-3 0,-7 1,-9l113 0 -1 0z"/>
   <path class="fil4" d="M15227 7359c1,3 1,55 1,59 0,14 -5,27 -13,36 -10,13 -27,21 -44,21 -17,0 -32,-8 -42,-19 -7,-8 -57,-146 -57,-146l156 50 -1 -1z"/>
   <rect class="fil14" x="15451" y="5860" width="403" height="1518"/>
   <path class="fil24" d="M15217 7026l229 0 257 0 159 0c0,128 0,255 0,383l-159 0 -257 0 -229 0c-88,0 -159,-72 -159,-159l0 -63c0,-88 72,-159 159,-159l0 -1 0 -1z"/>
   <path class="fil15" d="M15921 7026l229 0 257 0 159 0c0,128 0,255 0,383l-159 0 -257 0 -229 0c-88,0 -159,-72 -159,-159l0 -63c0,-88 72,-159 159,-159l0 -1 0 -1z"/>
   <path class="fil4" d="M16252 7408c1,3 1,6 1,9 0,32 -26,57 -57,57 -32,0 -57,-26 -57,-57 0,-3 0,-7 1,-9l113 0 -1 0z"/>
   <path class="fil4" d="M16354 7408c1,3 1,6 1,9 0,32 -26,57 -57,57 -32,0 -57,-26 -57,-57 0,-3 0,-7 1,-9l113 0 -1 0z"/>
   <path class="fil4" d="M16459 7408c1,3 1,6 1,9 0,32 -26,57 -57,57 -32,0 -57,-26 -57,-57 0,-3 0,-7 1,-9l113 0 -1 0z"/>
   <path class="fil4" d="M16565 7408c1,3 1,6 1,9 0,32 -26,57 -57,57 -32,0 -57,-26 -57,-57 0,-3 0,-7 1,-9l113 0 -1 0z"/>
   <path class="fil4" d="M16036 7408c1,3 1,6 1,9 0,32 -26,57 -57,57 -32,0 -57,-26 -57,-57 0,-3 0,-7 1,-9l113 0 -1 0z"/>
   <path class="fil4" d="M16143 7408c1,3 1,6 1,9 0,32 -26,57 -57,57 -32,0 -57,-26 -57,-57 0,-3 0,-7 1,-9l113 0 -1 0z"/>
   <rect class="fil19" x="16112" y="6506" width="443" height="210"/>
   <rect class="fil20" x="16240" y="6506" width="320" height="210"/>
   <rect class="fil20" x="16239" y="6506" width="222" height="210"/>
   <rect class="fil14" x="16504" y="6506" width="11.27" height="210.03"/>
   <rect class="fil14" x="16543" y="6506" width="11.27" height="210.03"/>
   <path class="fil2" d="M15940 6944l17 0c5,0 9,47 9,105l0 0c0,58 -4,105 -9,105l-17 0c-5,0 -9,-47 -9,-105l0 0c0,-58 4,-105 9,-105z"/>
   <path class="fil2" d="M16010 6944l17 0c5,0 9,47 9,105l0 0c0,58 -4,105 -9,105l-17 0c-5,0 -9,-47 -9,-105l0 0c0,-58 4,-105 9,-105z"/>
   <path class="fil2" d="M16081 6944l26 0c5,0 9,47 9,105l0 0c0,58 -4,105 -9,105l-26 0c-5,0 -9,-47 -9,-105l0 0c0,-58 4,-105 9,-105z"/>
   <path class="fil4" d="M15966 7027l-36 0 0 -65c0,-9 8,-18 18,-18l0 0c9,0 18,8 18,18l0 65z"/>
   <path class="fil4" d="M16036 7027l-36 0 0 -65c0,-9 8,-18 18,-18l0 0c9,0 18,8 18,18l0 65z"/>
   <path class="fil4" d="M16117 7027l-46 0 0 -60c0,-12 10,-22 22,-22l0 0c12,0 22,10 22,22l0 60 1 0 1 0z"/>
   <path class="fil21" d="M16154 6029l0 -18c8,7 17,11 28,11 34,1 49,-35 60,-62l2 0c0,1 0,2 0,3 0,41 -28,75 -62,75 -10,0 -20,-3 -28,-9zm0 -266l0 -79c11,-3 22,-4 34,-4 82,0 148,81 148,180 0,3 0,4 0,7l-3 0c-28,-64 -82,-107 -145,-107 -12,0 -23,2 -34,4l0 -1z"/>
   <rect class="fil9" x="7020" y="4124" width="432" height="370"/>
   <path class="fil6" d="M6761 4360c39,-3 -8,128 9,290 2,19 94,35 95,53 1,11 1,22 1,33 37,15 72,44 78,84 0,2 1,3 1,5 6,17 8,35 4,54 -8,42 -45,78 -86,86 -69,15 -93,-66 -109,-117 -15,-50 -28,-115 -34,-186 -16,-163 2,-298 41,-303l1 0 -1 1z"/>
   <path class="fil7" d="M6582 4573l221 0c19,0 34,3 34,7l0 308c0,4 -15,7 -34,7l-221 0c-19,0 -34,-3 -34,-7l0 -308c0,-4 15,-7 34,-7z"/>
   <path class="fil7" d="M6821 4573l56 0c5,0 9,2 9,3l0 160c0,2 -4,3 -9,3l-56 0c-5,0 -9,-2 -9,-3l0 -160c0,-2 4,-3 9,-3z"/>
   <path class="fil4" d="M15548 7408c1,3 1,6 1,9 0,32 -26,57 -57,57 -32,0 -57,-26 -57,-57 0,-3 0,-7 1,-9l113 0 -1 0z"/>
   <path class="fil4" d="M15649 7408c1,3 1,6 1,9 0,32 -26,57 -57,57 -32,0 -57,-26 -57,-57 0,-3 0,-7 1,-9l113 0 -1 0z"/>
   <path class="fil4" d="M15755 7408c1,3 1,6 1,9 0,32 -26,57 -57,57 -32,0 -57,-26 -57,-57 0,-3 0,-7 1,-9l113 0 -1 0z"/>
   <path class="fil4" d="M15861 7408c1,3 1,6 1,9 0,32 -26,57 -57,57 -32,0 -57,-26 -57,-57 0,-3 0,-7 1,-9l113 0 -1 0z"/>
   <path class="fil4" d="M15332 7408c1,3 1,6 1,9 0,32 -26,57 -57,57 -32,0 -57,-26 -57,-57 0,-3 0,-7 1,-9l113 0 -1 0z"/>
   <rect class="fil19" x="15408" y="5661" width="468" height="210"/>
   <rect class="fil20" x="15536" y="5661" width="341" height="210"/>
   <rect class="fil20" x="15535" y="5661" width="222" height="210"/>
   <rect class="fil14" x="15799" y="5661" width="11.27" height="210.03"/>
   <rect class="fil14" x="15844" y="5661" width="11.27" height="210.03"/>
   <path class="fil2" d="M15236 6944l17 0c5,0 9,47 9,105l0 0c0,58 -4,105 -9,105l-17 0c-5,0 -9,-47 -9,-105l0 0c0,-58 4,-105 9,-105z"/>
   <path class="fil2" d="M15306 6944l17 0c5,0 9,47 9,105l0 0c0,58 -4,105 -9,105l-17 0c-5,0 -9,-47 -9,-105l0 0c0,-58 4,-105 9,-105z"/>
   <path class="fil2" d="M15377 6944l26 0c5,0 9,47 9,105l0 0c0,58 -4,105 -9,105l-26 0c-5,0 -9,-47 -9,-105l0 0c0,-58 4,-105 9,-105z"/>
   <path class="fil4" d="M15262 7027l-36 0 0 -65c0,-9 8,-18 18,-18l0 0c9,0 18,8 18,18l0 65z"/>
   <path class="fil4" d="M15332 7027l-36 0 0 -65c0,-9 8,-18 18,-18l0 0c9,0 18,8 18,18l0 65z"/>
   <path class="fil4" d="M15412 7027l-46 0 0 -60c0,-12 10,-22 22,-22l0 0c12,0 22,10 22,22l0 60 1 0 1 0z"/>
   <rect class="fil26" x="11869" y="5663" width="528.2" height="35.2"/>
   <rect class="fil26" x="15409" y="5657" width="469.08" height="35.2"/>
   <rect class="fil26" x="14203" y="6259" width="486.68" height="35.2"/>
   <rect class="fil2" x="11900" y="6833" width="359.45" height="93.1"/>
   <ellipse class="fil29" transform="matrix(0.0819788 -0.0473051 0.0185616 0.133213 5968.47 5244.65)" rx="273" ry="238"/>
   <ellipse class="fil30" transform="matrix(0.0431844 -0.0365984 -0.0100163 0.107769 5959.84 5242.67)" rx="273" ry="238"/>
   <ellipse class="fil30" cx="6105" cy="5287" rx="129" ry="162"/>
   <ellipse class="fil29" transform="matrix(0.114699 -0.0201978 0.0201978 0.114699 5943.47 5122.85)" rx="273" ry="238"/>
   <ellipse class="fil29" transform="matrix(-0.0944359 -0.0681593 -0.0681593 0.0944359 5864.06 5367.83)" rx="273" ry="238"/>
   <path class="fil31" d="M5998 5254c103,23 155,134 77,167l-5 2"/>
   <path class="fil32" d="M5979 5246c40,9 72,31 93,57l0 0c12,15 21,31 24,47 3,16 2,32 -5,46 -7,12 -17,22 -34,28l-5 2 -4 -10 5 -2c14,-6 22,-14 28,-23 6,-11 7,-24 4,-38 -3,-14 -10,-28 -22,-42l0 0c-20,-24 -50,-44 -87,-53l3 -11 -1 -1 1 0z"/>
   <path class="fil32" d="M5978 5256c40,9 78,3 109,-10l0 0c17,-8 32,-19 42,-32 10,-13 16,-28 16,-43 -1,-14 -6,-28 -18,-41l-3 -4 -9 8 3 4c9,11 15,22 16,34 1,12 -4,25 -13,35 -9,11 -22,22 -38,28l0 0c-28,13 -64,18 -101,9l-3 11 -1 0 0 1z"/>
   <path class="fil7" d="M5780 5558c20,3 38,-1 53,-11 -40,-18 -68,-57 -79,-104 -16,9 -26,23 -29,41 -6,34 19,67 56,73l0 1 -1 0z"/>
   <path class="fil7" d="M5892 4994c19,5 34,17 42,33 -43,-1 -86,21 -117,59 -9,-15 -13,-33 -9,-50 9,-34 47,-52 83,-41l1 0 0 -1z"/>
   <path class="fil2" d="M14240 6814l0 217 159 0 28 0c0,-15 0,-28 -2,-36 -11,-53 -44,-104 -96,-141 -28,-20 -58,-34 -90,-41l1 1z"/>
   <path class="fil27" d="M16558 6814l0 217 -159 0 -28 0c0,-15 0,-28 2,-36 11,-53 44,-104 96,-141 28,-20 58,-34 90,-41l-1 1z"/>
  </g>
 </g>
</svg>
