<?xml version="1.0" encoding="UTF-8"?>
<!DOCTYPE svg PUBLIC "-//W3C//DTD SVG 1.1//EN" "http://www.w3.org/Graphics/SVG/1.1/DTD/svg11.dtd">
<!-- Creator: CorelDRAW X6 -->
<svg xmlns="http://www.w3.org/2000/svg" xml:space="preserve" width="225.213mm" height="134.959mm" version="1.1" style="shape-rendering:geometricPrecision; text-rendering:geometricPrecision; image-rendering:optimizeQuality; fill-rule:evenodd; clip-rule:evenodd"
viewBox="0 0 22521 13496"
 xmlns:xlink="http://www.w3.org/1999/xlink">
 <defs>
  <style type="text/css">
   <![CDATA[
    .fil4 {fill:#2B1E15}
    .fil1 {fill:#37383D}
    .fil6 {fill:#528016}
    .fil8 {fill:#5F9516}
    .fil10 {fill:#756946}
    .fil5 {fill:#AD836B}
    .fil0 {fill:#C2C9CC}
    .fil9 {fill:#D1DDE2}
    .fil11 {fill:#F0F0F0}
    .fil7 {fill:white}
    .fil2 {fill:#2B1E15;fill-rule:nonzero}
    .fil3 {fill:#528016;fill-rule:nonzero}
   ]]>
  </style>
 </defs>
 <g id="Слой_x0020_1">
  <metadata id="CorelCorpID_0Corel-Layer"/>
  <rect class="fil0" x="-16" y="-4" width="22500" height="13500"/>
  <polygon class="fil1" points="11256,-4 22484,-4 22484,13496 11256,13496 "/>
  <path class="fil2" d="M4101 8027c-3,22 -6,64 -11,125 -3,37 -5,80 -8,130 -35,11 -86,15 -152,15 -99,0 -180,-22 -242,-67 -73,-54 -110,-132 -110,-239 0,-101 32,-180 96,-236 61,-54 140,-80 239,-80 38,0 78,3 120,9l21 247c-17,-6 -41,-10 -73,-10 -41,0 -77,12 -108,37 -36,28 -55,63 -55,106 0,41 15,72 46,94 26,19 56,28 90,26l-6 -78c-2,-16 -5,-42 -11,-79l166 0zm546 -119c0,48 -13,90 -41,127 -24,32 -54,56 -89,70 8,11 26,36 56,74 15,18 38,41 69,69 -11,4 -39,15 -81,33 -29,13 -56,26 -82,39 -8,-9 -25,-33 -51,-72 -11,-19 -29,-53 -53,-100l-1 0 -4 137 -220 0c-3,-56 -7,-151 -11,-281 -2,-77 -8,-183 -16,-319 71,-8 138,-11 196,-11 219,0 329,78 329,235l1 1 -1 0zm-178 85c0,-25 -11,-42 -32,-53 -15,-8 -35,-11 -58,-11l-2 134c22,0 41,-5 58,-15 22,-12 33,-32 33,-56zm610 -309l-17 248c-10,-2 -31,-4 -63,-8 -22,-2 -46,-4 -71,-4l-5 75c28,1 75,0 140,-2 -3,10 -8,28 -14,54 -4,16 -7,34 -10,56 -8,-2 -26,-4 -56,-7 -14,-1 -35,-2 -63,-1l-4 87c19,0 56,-2 108,-5 10,-1 26,-4 48,-9 -2,8 -7,27 -15,58 -4,16 -8,35 -13,60l-349 0 -11 -306c-2,-70 -7,-168 -15,-294l411 0 0 -1 -1 -1zm444 0l-17 248c-10,-2 -31,-4 -63,-8 -22,-2 -46,-4 -72,-4l-5 75c28,1 75,0 140,-2 -3,10 -8,28 -14,54 -4,16 -7,34 -10,56 -8,-2 -26,-4 -56,-7 -14,-1 -35,-2 -63,-1l-4 87c19,0 56,-2 108,-5 10,-1 26,-4 48,-9 -2,8 -7,27 -15,58 -4,16 -9,35 -13,60l-349 0 -11 -306c-2,-70 -7,-168 -15,-294l411 0 0 -1 0 -1zm514 0c-4,53 -8,145 -15,276 -4,96 -7,207 -10,332 -34,-27 -86,-67 -156,-120 -30,-21 -75,-53 -136,-95l-4 207 -125 0c-2,-53 -7,-152 -15,-299 -6,-119 -13,-219 -20,-301l196 0 146 138c0,-32 -1,-56 -2,-75 -1,-16 -2,-37 -5,-63l145 0 2 0zm599 0l-16 246c-10,-2 -30,-4 -62,-6 -19,-1 -41,-2 -66,-2l-7 125c26,1 68,-2 123,-5 -3,11 -7,32 -11,58 -3,16 -6,35 -10,57 -7,-2 -24,-4 -50,-7 -19,-2 -39,-2 -57,-2l-3 136 -219 0 -11 -306c-2,-71 -8,-168 -18,-294l407 0 0 -1 -1 0zm559 0l-9 252c-3,71 -4,182 -4,327 -67,24 -135,36 -204,36 -86,0 -151,-17 -196,-51 -38,-29 -65,-74 -80,-135 -9,-35 -18,-100 -26,-193 -8,-86 -12,-166 -15,-236l252 0c-2,34 -3,91 -5,168 -1,43 -1,105 1,184 0,61 5,101 15,122 11,22 32,33 64,33 9,0 19,-3 31,-8 0,-54 -2,-138 -5,-256 -3,-58 -7,-140 -14,-244l192 0 3 0 1 0zm557 225c0,48 -13,90 -41,127 -24,32 -54,56 -89,70 8,11 26,36 56,74 15,18 38,41 69,69 -11,4 -39,15 -81,33 -29,13 -56,26 -82,39 -8,-9 -25,-33 -51,-72 -11,-19 -29,-53 -53,-100l-1 0 -4 137 -220 0c-3,-56 -7,-151 -11,-281 -2,-77 -8,-183 -16,-319 71,-8 138,-11 196,-11 219,0 329,78 329,235l1 1 -1 0zm-178 85c0,-25 -11,-42 -32,-53 -15,-8 -35,-11 -58,-11l-2 134c22,0 41,-5 58,-15 22,-12 34,-32 34,-56z"/>
  <path class="fil3" d="M3578 8024c-1,-10 -2,-20 -2,-31 0,-22 2,-43 5,-63l346 0c-19,6 -39,16 -56,29 -24,19 -40,40 -48,65l-245 0zm475 -93l0 2c-2,-1 -4,-2 -5,-2l5 0 1 0 -1 0z"/>
  <path class="fil3" d="M3651 7778c7,-8 14,-15 22,-22 61,-54 140,-80 239,-80 38,0 78,3 120,9l8 93 -389 0z"/>
  <path class="fil4" d="M6127 3745l-255 316 695 658c-67,-148 -86,-550 -121,-754 -40,-224 -175,-405 -320,-222l0 1z"/>
  <path class="fil5" d="M6144 3982l-115 144c119,62 227,147 314,256 -20,-86 -32,-217 -45,-294 -19,-108 -84,-194 -153,-107l0 1z"/>
  <path class="fil4" d="M5106 3745l255 316 -700 656c67,-148 90,-547 125,-750 40,-224 175,-405 320,-222z"/>
  <path class="fil5" d="M5085 3982l115 144c-119,62 -227,147 -314,256 20,-86 32,-217 45,-294 19,-108 84,-194 153,-107l0 1z"/>
  <path class="fil6" d="M4780 4987c-46,11 -365,-22 -403,15 -119,115 -215,99 -373,138 -112,28 -240,92 -358,232 -212,252 -262,629 -29,903 78,93 138,353 129,519 -2,39 -5,74 -19,99 -2,2 349,-137 520,-467 130,-250 59,-305 309,-550 54,-53 38,29 39,-22 2,-111 249,-182 268,-266 80,-376 -10,-436 -82,-603l-1 1 -1 1z"/>
  <path class="fil7" d="M3464 5841c-4,41 1,80 7,117 19,111 55,212 145,319 78,93 138,353 129,519 -1,11 -2,20 -2,30 25,3 51,4 77,4 11,0 24,0 35,-1 117,-71 288,-201 392,-402 91,-175 81,-209 155,-326 -92,-211 -386,-360 -584,-360 -198,0 -252,36 -353,99l1 0 -2 0z"/>
  <path class="fil8" d="M3466 5928c12,123 61,244 150,349 78,93 138,353 129,519 -2,39 -5,74 -19,99 -2,2 349,-137 520,-467 61,-118 78,-192 104,-264 -86,-207 -348,-353 -535,-353 -187,0 -253,43 -350,115l1 1z"/>
  <path class="fil7" d="M3478 6000c21,99 67,193 138,278 78,93 135,351 125,519 -2,39 -5,78 -19,102 -2,2 353,-140 523,-470 30,-58 49,-106 64,-148 -71,-218 -344,-375 -524,-375 -180,0 -222,35 -309,93l2 0z"/>
  <path class="fil4" d="M5841 5188c978,63 1499,1854 807,2176 -92,42 -190,78 -293,106 -405,108 -1230,98 -1621,-36 -60,-20 -119,-44 -175,-70 -384,-179 -395,-811 -160,-1349 188,-430 532,-800 967,-828 80,-5 159,-4 236,4 78,-7 156,-9 236,-4l1 0 2 0z"/>
  <path class="fil8" d="M6827 5201c406,0 631,655 -11,815 -293,73 -677,50 -924,-47 -157,-62 -268,-163 -284,-309 201,53 428,-45 494,-303 7,-19 11,-40 15,-62 26,-162 255,58 336,24 159,-69 351,-119 374,-119l0 1z"/>
  <path class="fil6" d="M6809 6018c-293,71 -672,48 -917,-48 -157,-62 -268,-163 -284,-309 201,53 428,-45 494,-303 7,-19 11,-40 15,-62 2,-15 6,-26 11,-35 299,132 535,427 679,757l1 -1 1 2z"/>
  <path class="fil9" d="M4714 4636c-63,99 -132,189 -211,261 -3,5 -4,11 -4,15 -4,55 123,57 152,102 93,145 336,159 543,26 107,-68 78,-172 128,-268 46,-90 192,-155 148,-226 -93,-145 -403,-167 -610,-35 -55,34 -105,78 -145,123l-1 1z"/>
  <path class="fil10" d="M5567 5407l343 -76c101,32 220,54 347,54 363,0 756,-198 756,-259 0,-23 -69,-56 -167,-114 -52,-31 -108,-79 -159,-138 -99,-114 -192,-266 -289,-416 -187,-289 -486,-439 -805,-440 -317,-1 -628,148 -788,459 -115,226 -265,425 -451,533 -43,25 -67,61 -95,78 -38,22 -74,24 -74,37 0,60 392,259 756,259 120,0 233,-19 331,-48l296 71 -2 0z"/>
  <path class="fil7" d="M6489 4636c99,99 138,172 203,244 3,5 11,28 11,33 4,55 -123,57 -152,102 -93,145 -336,159 -543,26 -107,-68 -78,-172 -128,-268 -46,-90 -192,-155 -148,-226 93,-145 403,-167 610,-35 55,34 105,78 145,123l1 0 1 0z"/>
  <path class="fil8" d="M6873 5081c201,0 400,179 413,361 30,404 -342,543 -478,573 41,-41 73,-82 95,-123 143,-264 4,-521 -278,-593 -39,-10 105,-123 72,-144 101,-34 159,-75 175,-75l-1 0 1 1z"/>
  <path class="fil4" d="M6795 5272c136,-56 227,-116 227,-145 0,-23 -78,-41 -167,-114 -121,-100 -216,-176 -297,-235 -127,-93 -227,-138 -326,-165 -63,-17 -479,-87 -504,-54 -57,73 404,985 1067,713z"/>
  <path class="fil7" d="M4729 4636c-54,54 -89,112 -124,152 -29,35 -49,58 -79,92 -3,5 -11,28 -11,33 -4,55 123,57 152,102 93,145 264,125 471,-7 107,-68 152,-139 200,-234 46,-90 177,-150 132,-221 -93,-145 -388,-172 -595,-41 -55,34 -105,78 -145,123l0 1z"/>
  <path class="fil4" d="M4408 5272c-136,-56 -227,-116 -227,-145 0,-23 78,-41 167,-114 121,-100 216,-176 297,-235 127,-93 227,-138 326,-165 63,-17 479,-87 504,-54 57,73 -404,985 -1067,713z"/>
  <path class="fil11" d="M5285 4981c158,-193 451,-205 616,-24 235,259 -11,566 -300,561 -265,-5 -529,-277 -316,-537l0 -1 -1 0z"/>
  <path class="fil10" d="M4815 6978c418,-112 356,-522 769,-633 100,-26 150,-39 212,-78 28,-19 86,-59 107,-102 19,-41 8,-69 -41,-56 2,0 -3,-32 -14,-39 -41,-26 -73,3 -105,28 6,-11 17,-34 -1,-48 -11,-9 -32,-8 -44,2l-135 110c-28,6 -58,12 -89,19 -152,33 -526,128 -769,271 -429,252 -132,590 111,525l-2 1 2 0z"/>
  <path class="fil10" d="M5961 4660c21,13 27,41 14,62 -26,41 -157,-6 -158,-11 -3,-27 108,17 127,-7 12,-15 11,-38 -5,-50l0 0c7,0 14,2 22,7l0 -1z"/>
  <path class="fil10" d="M5996 5181c-182,269 -584,267 -788,-4 226,264 632,205 788,4z"/>
  <path class="fil10" d="M5238 4660c-21,13 -27,41 -14,62 26,41 157,-6 158,-11 3,-27 -108,17 -127,-7 -12,-15 -11,-38 5,-50l0 0c-7,0 -14,2 -22,7l0 -1z"/>
  <path class="fil4" d="M5603 5199c38,0 68,19 68,42 0,28 -46,24 -68,99 -22,-75 -68,-71 -68,-99 0,-23 30,-42 68,-42z"/>
  <path class="fil2" d="M15584 8034c-3,22 -6,64 -11,125 -3,37 -5,80 -8,130 -35,11 -86,15 -152,15 -99,0 -180,-22 -242,-67 -73,-54 -110,-132 -110,-239 0,-101 32,-180 96,-236 61,-54 140,-80 239,-80 38,0 78,3 120,8l21 247c-17,-6 -41,-10 -73,-10 -41,0 -77,12 -108,37 -36,28 -55,63 -55,106 0,41 15,72 46,94 26,19 56,28 90,26l-6 -78c-2,-16 -5,-42 -11,-79l166 0 0 1zm546 -119c0,48 -13,90 -41,127 -24,32 -54,56 -89,70 8,11 26,36 56,74 15,18 38,41 69,69 -11,4 -39,15 -81,33 -29,13 -56,26 -82,39 -8,-9 -25,-34 -51,-72 -11,-19 -29,-53 -53,-100l-1 0 -4 137 -220 0c-3,-56 -7,-151 -11,-281 -2,-77 -8,-183 -16,-319 72,-8 138,-11 196,-11 219,0 329,78 329,235l1 1 -1 0zm-178 85c0,-25 -11,-42 -32,-53 -15,-8 -35,-11 -58,-11l-2 134c22,0 41,-5 58,-15 22,-12 33,-32 33,-56zm610 -309l-17 248c-10,-2 -31,-4 -63,-8 -22,-2 -46,-4 -72,-4l-5 75c28,1 75,0 140,-2 -3,10 -8,28 -14,54 -4,16 -7,34 -10,56 -8,-2 -26,-4 -56,-7 -14,-1 -35,-2 -63,-1l-4 87c19,0 56,-2 108,-5 10,-1 26,-4 48,-9 -2,9 -7,27 -15,58 -4,16 -9,35 -13,60l-349 0 -11 -306c-2,-70 -7,-168 -15,-294l411 0 0 -1 0 -1zm444 0l-17 248c-10,-2 -31,-4 -63,-8 -22,-2 -46,-4 -71,-4l-5 75c28,1 75,0 140,-2 -3,10 -8,28 -14,54 -4,16 -7,34 -10,56 -8,-2 -26,-4 -56,-7 -14,-1 -35,-2 -63,-1l-4 87c19,0 56,-2 108,-5 10,-1 26,-4 48,-9 -2,9 -7,27 -15,58 -4,16 -8,35 -13,60l-349 0 -11 -306c-2,-70 -7,-168 -15,-294l411 0 0 -1 -1 -1zm514 0c-4,53 -9,145 -15,276 -4,96 -7,207 -10,332 -34,-27 -86,-67 -156,-120 -30,-21 -75,-53 -136,-95l-4 207 -125 0c-2,-53 -7,-152 -15,-299 -6,-119 -13,-219 -20,-301l196 0 146 138c0,-32 -1,-56 -2,-75 -1,-16 -2,-37 -5,-63l145 0 2 0zm599 0l-16 246c-10,-2 -30,-4 -62,-6 -19,-1 -41,-2 -66,-2l-7 125c26,1 68,-2 123,-5 -3,11 -7,32 -11,58 -3,16 -6,35 -10,57 -7,-2 -24,-4 -50,-7 -19,-2 -39,-2 -57,-2l-3 136 -219 0 -11 -306c-2,-71 -8,-168 -18,-294l407 0 0 -1 -1 0zm559 0l-9 252c-3,72 -4,182 -4,327 -67,24 -135,36 -204,36 -86,0 -151,-17 -196,-51 -38,-29 -65,-74 -80,-136 -9,-35 -18,-100 -26,-193 -8,-86 -12,-166 -15,-236l252 0c-2,34 -3,91 -5,168 -1,43 -1,105 1,184 0,61 5,101 15,122 11,22 32,33 64,33 9,0 19,-3 31,-8 0,-54 -2,-138 -5,-256 -3,-58 -7,-140 -14,-244l192 0 3 0 1 1zm557 225c0,48 -13,90 -41,127 -24,32 -54,56 -89,70 8,11 26,36 56,74 15,18 38,41 69,69 -11,4 -39,15 -81,33 -29,13 -56,26 -82,39 -8,-9 -25,-34 -51,-72 -11,-19 -29,-53 -53,-100l-1 0 -4 137 -220 0c-3,-56 -7,-151 -11,-281 -2,-77 -8,-183 -16,-319 72,-8 138,-11 196,-11 219,0 329,78 329,235l1 1 -1 0zm-178 85c0,-25 -11,-42 -32,-53 -15,-8 -35,-11 -58,-11l-2 134c22,0 41,-5 58,-15 22,-12 33,-32 33,-56z"/>
  <path class="fil3" d="M15060 8031c-1,-10 -2,-20 -2,-31 0,-22 2,-43 5,-63l346 0c-19,6 -39,16 -56,29 -24,19 -40,40 -48,65l-245 0zm475 -93l0 2c-2,-1 -4,-2 -5,-2l5 0 1 0 -1 0z"/>
  <path class="fil3" d="M15134 7785c7,-8 14,-15 22,-22 61,-54 140,-80 239,-80 38,0 78,3 120,8l8 93 -389 0 0 1z"/>
  <path class="fil4" d="M17610 3751l-255 316 695 658c-67,-148 -85,-550 -121,-754 -40,-224 -175,-405 -320,-222l0 1z"/>
  <path class="fil5" d="M17627 3989l-115 144c119,62 227,147 314,256 -20,-86 -32,-217 -45,-294 -19,-108 -84,-194 -153,-107l0 1z"/>
  <path class="fil4" d="M16587 3751l255 316 -700 656c67,-148 90,-547 125,-750 40,-224 175,-405 320,-222z"/>
  <path class="fil5" d="M16567 3989l115 144c-119,62 -227,147 -314,256 20,-86 32,-217 45,-294 19,-108 84,-194 153,-107l0 1z"/>
  <path class="fil6" d="M16262 4994c-46,11 -365,-22 -403,15 -119,115 -215,99 -373,138 -112,28 -240,92 -358,232 -212,252 -262,629 -29,903 78,93 138,353 129,519 -2,39 -5,74 -19,99 -2,2 349,-137 520,-467 130,-250 59,-305 309,-550 54,-53 38,29 39,-22 2,-111 249,-182 268,-266 80,-376 -10,-436 -82,-603l-1 1 -1 1z"/>
  <path class="fil7" d="M14946 5848c-4,41 1,80 7,117 19,111 55,212 145,319 78,93 138,353 129,519 -1,11 -2,20 -2,30 25,3 51,4 77,4 11,0 24,0 35,-1 117,-71 288,-201 392,-402 91,-175 81,-209 155,-326 -92,-211 -386,-360 -584,-360 -198,0 -252,36 -353,99l1 0 -2 0z"/>
  <path class="fil8" d="M14949 5935c12,123 61,244 150,349 78,93 138,353 129,519 -2,39 -5,74 -19,99 -2,2 349,-137 520,-467 61,-118 78,-192 104,-264 -86,-207 -348,-353 -535,-353 -187,0 -253,43 -350,115l1 1z"/>
  <path class="fil7" d="M14960 6006c21,99 67,193 138,278 78,93 136,351 125,519 -2,39 -5,78 -19,102 -2,2 353,-140 523,-470 30,-58 49,-106 64,-148 -71,-218 -344,-375 -524,-375 -180,0 -222,35 -309,93l2 0z"/>
  <path class="fil4" d="M17324 5195c978,63 1499,1854 807,2176 -92,42 -190,78 -293,106 -405,108 -1230,98 -1621,-36 -60,-20 -119,-44 -175,-70 -384,-179 -395,-811 -160,-1349 188,-430 532,-800 967,-828 80,-5 159,-4 236,4 78,-7 156,-9 236,-4l1 0 2 0z"/>
  <path class="fil8" d="M18310 5208c406,0 631,655 -11,815 -293,73 -677,50 -924,-47 -157,-62 -268,-163 -284,-309 201,53 428,-45 494,-303 7,-19 11,-40 15,-62 26,-162 255,58 336,24 159,-69 351,-119 374,-119l0 1z"/>
  <path class="fil6" d="M18291 6025c-293,71 -672,48 -917,-48 -157,-62 -268,-163 -284,-309 201,53 428,-45 494,-303 7,-19 11,-40 15,-62 2,-15 6,-26 11,-35 299,132 535,427 679,757l1 -1 1 2z"/>
  <path class="fil9" d="M16196 4643c-63,99 -132,189 -211,261 -3,5 -4,11 -4,15 -4,55 123,57 152,102 93,145 336,159 543,26 107,-68 78,-172 128,-268 46,-90 192,-155 148,-226 -93,-145 -403,-167 -610,-35 -55,34 -105,78 -145,123l-1 1z"/>
  <path class="fil10" d="M17049 5414l343 -76c101,32 220,54 347,54 363,0 756,-199 756,-259 0,-23 -69,-56 -167,-114 -52,-31 -108,-79 -159,-138 -99,-114 -192,-266 -289,-416 -187,-289 -486,-439 -805,-440 -317,-1 -628,148 -788,459 -115,226 -265,425 -451,533 -43,25 -67,61 -95,78 -38,22 -74,24 -74,37 0,60 392,259 756,259 120,0 233,-19 331,-48l296 71 -2 0z"/>
  <path class="fil7" d="M17971 4643c99,99 138,172 203,244 3,5 11,28 11,33 4,55 -123,57 -152,102 -93,145 -336,159 -543,26 -107,-68 -78,-172 -128,-268 -46,-90 -192,-155 -148,-226 93,-145 403,-167 610,-35 55,34 105,78 145,123l1 0 1 0z"/>
  <path class="fil8" d="M18356 5088c201,0 400,179 413,361 30,404 -342,543 -478,573 41,-41 73,-82 95,-123 143,-264 4,-521 -278,-593 -39,-10 105,-123 72,-144 101,-33 159,-75 175,-75l-1 0 1 1z"/>
  <path class="fil4" d="M18278 5278c136,-56 227,-116 227,-145 0,-23 -78,-41 -167,-114 -121,-100 -216,-176 -297,-235 -127,-93 -227,-138 -326,-165 -63,-17 -479,-87 -504,-54 -57,73 404,985 1067,713z"/>
  <path class="fil7" d="M16211 4643c-54,54 -89,112 -124,152 -29,35 -49,58 -79,92 -3,5 -11,28 -11,33 -4,55 123,57 152,102 93,145 264,125 471,-7 107,-68 152,-139 200,-234 46,-90 177,-150 132,-221 -93,-145 -388,-172 -595,-41 -55,34 -105,78 -145,123l0 1z"/>
  <path class="fil4" d="M15889 5278c-135,-56 -227,-116 -227,-145 0,-23 78,-41 167,-114 121,-100 216,-176 297,-235 127,-93 227,-138 325,-165 63,-17 479,-87 504,-54 57,73 -404,985 -1067,713l1 0z"/>
  <path class="fil11" d="M16767 4988c158,-193 451,-204 616,-24 235,259 -11,566 -300,561 -265,-5 -529,-277 -316,-537l0 -1 -1 0z"/>
  <path class="fil10" d="M16296 6985c418,-112 356,-522 769,-633 100,-26 150,-39 212,-78 28,-19 86,-59 107,-102 19,-41 8,-69 -41,-56 2,0 -3,-32 -14,-39 -41,-26 -73,3 -105,28 6,-11 17,-34 -1,-48 -11,-9 -32,-9 -44,2l-135 110c-28,6 -58,12 -89,19 -152,33 -526,128 -769,271 -429,252 -132,590 111,525l-2 1 2 0z"/>
  <path class="fil10" d="M17443 4667c21,13 27,41 14,62 -26,41 -157,-6 -158,-11 -3,-27 108,17 127,-7 12,-15 11,-38 -5,-50l0 0c7,0 14,2 22,7l0 -1z"/>
  <path class="fil10" d="M17479 5188c-182,269 -584,267 -788,-4 226,264 632,205 788,4z"/>
  <path class="fil10" d="M16721 4667c-21,13 -27,41 -14,62 26,41 157,-6 158,-11 3,-27 -108,17 -127,-7 -12,-15 -11,-38 5,-50l0 0c-7,0 -14,2 -22,7l0 -1z"/>
  <path class="fil4" d="M17085 5206c38,0 68,19 68,42 0,28 -46,24 -68,99 -22,-75 -68,-71 -68,-99 0,-23 30,-42 68,-42z"/>
 </g>
</svg>
