<?xml version="1.0" encoding="UTF-8"?>
<!DOCTYPE svg PUBLIC "-//W3C//DTD SVG 1.1//EN" "http://www.w3.org/Graphics/SVG/1.1/DTD/svg11.dtd">
<!-- Creator: CorelDRAW X6 -->
<svg xmlns="http://www.w3.org/2000/svg" xml:space="preserve" width="225.213mm" height="134.959mm" version="1.1" style="shape-rendering:geometricPrecision; text-rendering:geometricPrecision; image-rendering:optimizeQuality; fill-rule:evenodd; clip-rule:evenodd"
viewBox="0 0 22521 13496"
 xmlns:xlink="http://www.w3.org/1999/xlink">
 <defs>
  <style type="text/css">
   <![CDATA[
    .fil12 {fill:#2F0801}
    .fil8 {fill:#343912}
    .fil11 {fill:#36100A}
    .fil1 {fill:#43381E}
    .fil2 {fill:#4A4F23}
    .fil0 {fill:#575D27}
    .fil10 {fill:#614233}
    .fil3 {fill:#702C09}
    .fil4 {fill:#914E24}
    .fil6 {fill:#AB8B66}
    .fil9 {fill:#C37109}
    .fil5 {fill:#CFD3C4}
    .fil7 {fill:#343912;fill-rule:nonzero}
   ]]>
  </style>
 </defs>
 <g id="Слой_x0020_1">
  <metadata id="CorelCorpID_0Corel-Layer"/>
  <g id="_917723120">
   <g id="_821448336">
    <rect class="fil0" width="22500" height="13500"/>
    <path class="fil1" d="M17832 6490c204,-32 -118,676 -379,803 -261,127 -132,63 -196,90 29,2 58,7 87,10l1093 125c3,0 -203,133 -484,198 -203,47 -477,32 -590,38 -271,13 -46,2 -69,3 100,10 317,52 533,149l407 183c3,1 -68,67 -197,78 -120,11 -295,-31 -417,-46 272,167 614,349 614,349 -126,-2 -405,58 -625,-24 -309,-114 -562,-377 -632,-348 85,64 102,57 268,246 166,188 538,547 514,571 -24,24 -526,-78 -712,-397 -58,-100 -225,-376 -358,-333 71,175 99,383 154,602l341 1352c0,0 -678,-422 -827,-888 -149,-466 -154,-680 -192,-853 2,58 4,-85 4,180 0,264 22,770 22,770 -349,-528 -406,-443 -380,-1092 -91,-30 -168,-71 -224,-119 -312,-213 -282,-302 -346,-605l-158 -747c0,0 267,251 429,631 17,40 33,79 48,118 -12,-93 -13,-199 5,-312l109 -672c0,0 142,294 154,663 1,33 2,65 2,96 52,-55 110,-112 174,-170 273,-248 583,-351 583,-351l-400 538c284,-102 351,-359 558,-484 477,-287 885,-321 1089,-353l-2 1z"/>
    <path class="fil2" d="M18392 6693c0,0 -484,438 -745,565 -261,127 -132,63 -196,90 29,2 58,6 87,10l925 134c0,0 -401,201 -907,227 -23,1 -46,2 -69,3 100,10 361,-13 533,149l231 218c0,0 -189,28 -438,-3 272,167 437,375 437,375l-650 -195c-124,-37 -392,-219 -431,-203 85,64 180,146 268,246 243,277 366,565 342,588 -24,24 -354,-96 -540,-415 -58,-100 -225,-376 -358,-333 71,175 128,378 154,602l164 1418c0,0 -454,-513 -690,-1250 -63,-196 -114,-385 -153,-557 2,58 4,118 4,180 -1,467 -167,845 -168,845l-166 -845c-22,-113 -29,-222 -25,-321 -91,-30 -168,-71 -224,-119 -312,-213 -282,-302 -346,-605l-158 -747c0,0 267,251 429,631 17,40 33,79 48,118 -12,-93 15,-198 5,-312l-28 -345c0,0 284,136 291,336 7,201 2,65 2,96 52,-55 110,-112 174,-170 273,-248 583,-351 583,-351l-400 538c280,-40 470,-179 677,-303 477,-287 928,-232 1336,-295l2 0z"/>
    <path class="fil3" d="M11269 6650c189,23 512,587 1367,409 9,-2 1479,-16 1071,-412 -122,-119 -1025,-321 -1195,-321 -799,0 181,-131 294,-630 70,-310 124,-125 124,-677 0,-787 -1242,-219 -1205,-611 12,-126 562,-290 775,-616 228,-349 1057,-519 1400,148 198,386 371,262 692,835 128,230 239,746 563,585 434,-216 440,70 521,307 311,897 682,850 1386,1262 98,57 400,258 658,252 144,-3 325,-43 345,-128 1,-3 131,-41 149,-148 6,-33 -32,-121 -42,-155 -18,-63 -69,-144 -187,-177 -89,-25 -241,-25 -346,7 -173,52 -300,156 -402,-116 -56,-151 -201,-360 -323,-534 -8,-11 59,-60 61,-79 2,-23 -63,-17 -78,-40 -38,-57 -131,-104 -137,-138 -29,-173 82,-59 90,-156 4,-45 -26,-92 -27,-139 -2,-58 18,-116 11,-176 -51,-394 -248,-828 -421,-1163 -70,-135 -248,-268 -298,-399 -126,-328 -440,182 -844,-422 -166,-248 -292,-517 -668,-428 -34,8 -3,46 -18,51 -8,3 -111,2 -139,1 -25,-1 2,27 -17,26 -70,-2 -152,-7 -222,-5 -26,1 29,27 2,28 -111,2 -231,2 -337,1 -48,-1 5,34 -43,34 -240,1 -467,-32 -594,-22 -85,7 -108,-8 -66,15 24,13 17,23 -30,38 -41,13 -214,-38 -247,-23 -60,28 43,102 32,99 -31,-10 -285,-13 -340,30 -27,21 76,81 40,101 -48,27 -155,17 -189,45 -55,44 -76,64 -54,101 -70,47 -249,177 -352,246 -80,54 -159,151 -243,216 -74,57 -141,179 -202,231 -71,61 -116,71 -148,136 -47,96 -143,93 -187,197 -67,159 -223,200 -241,267 -5,18 79,9 100,22 28,18 -115,134 -169,218 -35,54 -43,118 -50,141 -12,40 147,-103 117,-52 -66,113 -150,250 -223,402 -23,47 -27,128 -23,182 3,43 13,56 -30,114 -46,62 -141,166 -138,221 29,504 95,-128 428,387 136,211 294,224 249,412z"/>
    <path class="fil4" d="M16478 6431c34,17 49,114 113,172 146,131 378,271 471,326 98,57 400,258 658,252 144,-3 325,-43 345,-128 1,-3 131,-41 149,-148 6,-33 -32,-121 -42,-155 -18,-63 -69,-144 -187,-177 -89,-25 -241,-25 -346,7 -173,52 -300,156 -402,-116 -56,-151 -201,-360 -323,-534 -8,-11 59,-60 61,-79 2,-23 -63,-18 -78,-40 -38,-57 -144,-114 -115,-97 1,0 69,208 57,451 -12,257 -65,383 -361,266z"/>
    <path class="fil3" d="M14924 2586c-286,20 -110,-182 -58,-310 30,-74 205,-28 276,-217 93,-244 536,-288 523,-347 -19,-85 103,80 60,21 -21,-29 -10,-42 -1,-37 9,6 26,15 47,25 8,4 2,-40 10,-36 19,9 37,39 60,50 9,4 8,-25 16,-20 19,12 39,23 59,33 7,4 -8,-45 -2,-40 42,34 25,-23 39,-16 10,6 27,35 39,39 13,5 20,-15 28,-7 23,22 22,48 24,25 3,-37 8,-52 34,-48 8,1 0,38 10,42 8,3 12,-41 21,-38 7,2 11,57 18,59 14,4 98,-32 115,-29 7,1 13,11 19,12 18,4 77,-30 92,-27 12,3 -34,37 -30,47 5,11 73,-28 99,-32 26,-4 -22,39 5,41 15,1 108,-38 124,-35 17,3 -50,59 -34,63 21,5 99,-29 121,-23 12,4 -62,50 -50,54 25,9 196,-22 223,-12 15,6 -42,-3 -28,3 24,11 109,25 135,37 18,8 -46,19 -29,28 13,7 56,8 71,14 30,12 -26,6 0,21 18,10 42,1 66,14 13,7 27,15 41,24 61,39 104,128 123,155 45,65 192,207 215,378 27,204 -46,350 -138,631 -53,161 -240,686 -396,388 -58,-111 -338,101 -521,101 -109,0 -374,-122 -447,-170 -185,-121 -111,252 -373,22 -97,-85 -289,-183 -400,-224 -51,-19 -209,-66 -243,-181 -39,-133 52,-342 91,-466 8,-26 -26,-13 -55,-11l1 -1z"/>
    <path class="fil5" d="M15733 2101c54,-10 139,22 179,70 46,57 22,153 -31,217 -30,36 -97,-82 -194,-93 -108,-13 -112,31 -198,45 -71,11 -26,-86 22,-131 69,-64 148,-94 222,-108z"/>
    <path class="fil6" d="M15564 3453c-48,11 -67,0 -76,-52 -2,-1 -83,-214 -30,-249 23,-15 1,-122 202,-225 51,-26 228,-161 234,-207 9,-69 85,-55 156,-94 126,-69 85,24 104,18 13,-4 18,-21 33,-15 22,9 34,39 58,67 87,100 193,277 231,328 54,72 60,65 94,106 34,41 142,249 31,284 -28,9 -73,42 -90,47 0,1 -254,156 -321,23 -25,-50 -329,-19 -409,-72 -54,-35 -179,33 -216,41l-1 0z"/>
    <path class="fil7" d="M9324 9253c3,10 0,18 -10,23 -10,2 -18,-2 -23,-10l-310 -800 -3 -3c-2,0 -3,0 -4,-1 -1,-1 -2,-1 -4,-1 -8,0 -13,4 -13,13l0 742c0,17 -6,31 -18,43 -12,12 -26,18 -43,18 -17,0 -31,-6 -43,-18 -12,-12 -18,-26 -18,-43l0 -1473c0,-68 24,-125 71,-173 47,-47 105,-71 173,-71 68,0 125,24 173,71 47,47 71,105 71,173l0 475c0,56 -19,103 -58,142 -39,39 -86,58 -142,58 -54,0 -101,-19 -141,-58 -40,-39 -60,-86 -60,-142l0 -475c0,-12 6,-18 18,-18 12,0 18,6 18,18l0 475c0,46 16,85 48,117 32,32 71,48 117,48 46,0 85,-16 117,-48 32,-32 48,-71 48,-117l0 -475c0,-58 -20,-107 -61,-147 -41,-41 -90,-61 -147,-61 -58,0 -107,20 -147,61 -41,41 -61,90 -61,147l0 1473c0,17 8,25 25,25 17,0 25,-8 25,-25l0 -742c0,-14 5,-25 14,-34 9,-9 21,-14 34,-14 22,0 36,8 41,25l312 803 1 -1zm264 -922c-17,0 -31,-6 -43,-18 -12,-12 -18,-26 -18,-43l0 -528c0,-68 24,-125 71,-173 47,-47 105,-71 173,-71l229 0c12,0 18,6 18,18 0,12 -6,18 -18,18l-229 0c-58,0 -107,20 -147,61 -41,41 -61,90 -61,147l0 528c0,17 8,25 25,25l226 0c17,0 31,6 43,18 12,12 18,26 18,43 0,17 -6,31 -18,43 -12,12 -26,18 -43,18l-226 0c-17,0 -25,9 -25,28l0 587c0,58 20,107 61,147 41,41 90,61 147,61l229 0c12,0 18,6 18,18 0,12 -6,18 -18,18l-229 0c-68,0 -125,-24 -173,-71 -47,-47 -71,-105 -71,-173l0 -587c0,-19 6,-34 18,-46 12,-12 26,-18 43,-18l226 0c17,0 25,-8 25,-25 0,-17 -8,-25 -25,-25l-226 0zm1118 744c0,56 -20,103 -60,142 -40,39 -87,58 -141,58 -56,0 -103,-19 -142,-58 -39,-39 -58,-86 -58,-142l0 -676c0,-12 6,-18 18,-18 12,0 18,6 18,18l0 676c0,46 16,85 48,117 32,32 71,48 117,48 46,0 85,-16 117,-48 32,-32 48,-71 48,-117l0 -1334c0,-58 -20,-107 -61,-147 -41,-41 -90,-61 -147,-61l-183 0c-19,0 -28,8 -28,25l0 1699c0,12 -5,18 -15,18 -12,0 -18,-6 -18,-18l0 -1699c0,-17 6,-31 17,-43 11,-12 26,-18 44,-18l183 0c68,0 125,24 173,71 47,47 71,105 71,173l0 1334 -1 0zm927 -1577c68,0 125,24 173,71 47,47 71,105 71,173l0 475c0,56 -19,103 -58,142 -39,39 -86,58 -142,58 -54,0 -101,-19 -141,-58 -40,-39 -60,-86 -60,-142l0 -475c0,-12 6,-18 18,-18 12,0 18,6 18,18l0 475c0,46 16,85 48,117 32,32 71,48 117,48 46,0 85,-16 118,-48 33,-32 50,-71 50,-117l0 -475c0,-58 -20,-107 -61,-147 -41,-41 -91,-61 -150,-61 -58,0 -107,20 -147,61 -41,41 -61,90 -61,147l0 1516c0,12 -6,18 -18,18 -12,0 -18,-6 -18,-18l0 -1516c0,-68 24,-125 71,-173 47,-47 105,-71 173,-71l-1 0zm508 1778c-19,0 -33,-6 -44,-18 -11,-12 -17,-26 -17,-43l0 -1473c0,-68 24,-125 71,-173 47,-47 105,-71 173,-71 68,0 125,24 173,71 47,47 71,105 71,173l0 1516c0,12 -6,18 -18,18 -12,0 -18,-6 -18,-18l0 -1516c0,-58 -20,-107 -61,-147 -41,-41 -90,-61 -147,-61 -59,0 -109,20 -150,61 -41,41 -61,90 -61,147l0 1473c0,17 9,25 28,25 17,0 25,-8 25,-25l0 -772c0,-17 6,-31 18,-43 12,-12 26,-18 43,-18l191 0c12,0 18,6 18,18 0,12 -6,18 -18,18l-191 0c-17,0 -25,8 -25,25l0 772c0,17 -6,31 -18,43 -12,12 -26,18 -43,18zm1189 -1778c12,0 18,6 18,18l0 1712c0,14 -5,25 -14,34 -9,9 -21,14 -34,14 -10,0 -19,-3 -28,-10 -8,-7 -14,-15 -18,-25l-422 -1697c-2,-7 -6,-10 -13,-10 -8,0 -13,4 -13,13l0 1669c0,17 8,25 25,25 19,0 28,-8 28,-25l0 -815c0,-12 5,-18 15,-18 12,0 18,6 18,18l0 815c0,17 -6,31 -17,43 -11,12 -26,18 -44,18 -17,0 -31,-6 -43,-18 -12,-12 -18,-26 -18,-43l0 -1669c0,-14 5,-25 14,-34 9,-9 21,-14 34,-14 24,0 39,12 46,36l422 1699c2,5 6,8 13,8 8,0 13,-4 13,-13l0 -1712c0,-12 6,-18 18,-18l0 -1zm706 1577c0,56 -20,103 -60,142 -40,39 -87,58 -141,58 -56,0 -103,-19 -142,-58 -39,-39 -58,-86 -58,-142l0 -676c0,-12 6,-18 18,-18 12,0 18,6 18,18l0 676c0,46 16,85 48,117 32,32 71,48 117,48 46,0 85,-16 117,-48 32,-32 48,-71 48,-117l0 -1334c0,-58 -20,-107 -61,-147 -41,-41 -90,-61 -147,-61l-183 0c-19,0 -28,8 -28,25l0 1699c0,12 -5,18 -15,18 -12,0 -18,-6 -18,-18l0 -1699c0,-17 6,-31 17,-43 11,-12 26,-18 44,-18l183 0c68,0 125,24 173,71 47,47 71,105 71,173l0 1334 -1 0zm264 201c-19,0 -33,-6 -44,-18 -11,-12 -17,-26 -17,-43l0 -1473c0,-68 24,-125 71,-173 47,-47 105,-71 173,-71 68,0 125,24 173,71 47,47 71,105 71,173l0 1516c0,12 -6,18 -18,18 -12,0 -18,-6 -18,-18l0 -1516c0,-58 -20,-107 -61,-147 -41,-41 -90,-61 -147,-61 -59,0 -109,20 -150,61 -41,41 -61,90 -61,147l0 1473c0,17 9,25 28,25 17,0 25,-8 25,-25l0 -772c0,-17 6,-31 18,-43 12,-12 26,-18 43,-18l191 0c12,0 18,6 18,18 0,12 -6,18 -18,18l-191 0c-17,0 -25,8 -25,25l0 772c0,17 -6,31 -18,43 -12,12 -26,18 -43,18z"/>
    <path class="fil7" d="M9298 9245c3,10 0,18 -10,23 -10,2 -18,-2 -23,-10l-310 -800 -3 -3c-2,0 -3,0 -4,-1 -1,-1 -2,-1 -4,-1 -8,0 -13,4 -13,13l0 742c0,17 -6,31 -18,43 -12,12 -26,18 -43,18 -17,0 -31,-6 -43,-18 -12,-12 -18,-26 -18,-43l0 -1473c0,-68 24,-125 71,-173 47,-47 105,-71 173,-71 68,0 125,24 173,71 47,47 71,105 71,173l0 475c0,56 -19,103 -58,142 -39,39 -86,58 -142,58 -54,0 -101,-19 -141,-58 -40,-39 -60,-86 -60,-142l0 -475c0,-12 6,-18 18,-18 12,0 18,6 18,18l0 475c0,46 16,85 48,117 32,32 71,48 117,48 46,0 85,-16 117,-48 32,-32 48,-71 48,-117l0 -475c0,-58 -20,-107 -61,-147 -41,-41 -90,-61 -147,-61 -58,0 -107,20 -147,61 -41,41 -61,90 -61,147l0 1473c0,17 8,25 25,25 17,0 25,-8 25,-25l0 -742c0,-14 5,-25 14,-34 9,-9 21,-14 34,-14 22,0 36,8 41,25l312 803 1 -1zm264 -922c-17,0 -31,-6 -43,-18 -12,-12 -18,-26 -18,-43l0 -528c0,-68 24,-125 71,-173 47,-47 105,-71 173,-71l229 0c12,0 18,6 18,18 0,12 -6,18 -18,18l-229 0c-58,0 -107,20 -147,61 -41,41 -61,90 -61,147l0 528c0,17 8,25 25,25l226 0c17,0 31,6 43,18 12,12 18,26 18,43 0,17 -6,31 -18,43 -12,12 -26,18 -43,18l-226 0c-17,0 -25,9 -25,28l0 587c0,58 20,107 61,147 41,41 90,61 147,61l229 0c12,0 18,6 18,18 0,12 -6,18 -18,18l-229 0c-68,0 -125,-24 -173,-71 -47,-47 -71,-105 -71,-173l0 -587c0,-19 6,-34 18,-46 12,-12 26,-18 43,-18l226 0c17,0 25,-8 25,-25 0,-17 -8,-25 -25,-25l-226 0zm1118 744c0,56 -20,103 -60,142 -40,39 -87,58 -141,58 -56,0 -103,-19 -142,-58 -39,-39 -58,-86 -58,-142l0 -676c0,-12 6,-18 18,-18 12,0 18,6 18,18l0 676c0,46 16,85 48,117 32,32 71,48 117,48 46,0 85,-16 117,-48 32,-32 48,-71 48,-117l0 -1334c0,-58 -20,-107 -61,-147 -41,-41 -90,-61 -147,-61l-183 0c-19,0 -28,8 -28,25l0 1699c0,12 -5,18 -15,18 -12,0 -18,-6 -18,-18l0 -1699c0,-17 6,-31 17,-43 11,-12 26,-18 44,-18l183 0c68,0 125,24 173,71 47,47 71,105 71,173l0 1334 -1 0zm927 -1577c68,0 125,24 173,71 47,47 71,105 71,173l0 475c0,56 -19,103 -58,142 -39,39 -86,58 -142,58 -54,0 -101,-19 -141,-58 -40,-39 -60,-86 -60,-142l0 -475c0,-12 6,-18 18,-18 12,0 18,6 18,18l0 475c0,46 16,85 48,117 32,32 71,48 117,48 46,0 85,-16 118,-48 33,-32 50,-71 50,-117l0 -475c0,-58 -20,-107 -61,-147 -41,-41 -91,-61 -150,-61 -58,0 -107,20 -147,61 -41,41 -61,90 -61,147l0 1516c0,12 -6,18 -18,18 -12,0 -18,-6 -18,-18l0 -1516c0,-68 24,-125 71,-173 47,-47 105,-71 173,-71l-1 0zm508 1778c-19,0 -33,-6 -44,-18 -11,-12 -17,-26 -17,-43l0 -1473c0,-68 24,-125 71,-173 47,-47 105,-71 173,-71 68,0 125,24 173,71 47,47 71,105 71,173l0 1516c0,12 -6,18 -18,18 -12,0 -18,-6 -18,-18l0 -1516c0,-58 -20,-107 -61,-147 -41,-41 -90,-61 -147,-61 -59,0 -109,20 -150,61 -41,41 -61,90 -61,147l0 1473c0,17 9,25 28,25 17,0 25,-8 25,-25l0 -772c0,-17 6,-31 18,-43 12,-12 26,-18 43,-18l191 0c12,0 18,6 18,18 0,12 -6,18 -18,18l-191 0c-17,0 -25,8 -25,25l0 772c0,17 -6,31 -18,43 -12,12 -26,18 -43,18zm1189 -1778c12,0 18,6 18,18l0 1712c0,14 -5,25 -14,34 -9,9 -21,14 -34,14 -10,0 -19,-3 -28,-10 -8,-7 -14,-15 -18,-25l-422 -1697c-2,-7 -6,-10 -13,-10 -8,0 -13,4 -13,13l0 1669c0,17 8,25 25,25 19,0 28,-8 28,-25l0 -815c0,-12 5,-18 15,-18 12,0 18,6 18,18l0 815c0,17 -6,31 -17,43 -11,12 -26,18 -44,18 -17,0 -31,-6 -43,-18 -12,-12 -18,-26 -18,-43l0 -1669c0,-14 5,-25 14,-34 9,-9 21,-14 34,-14 24,0 39,12 46,36l422 1699c2,5 6,8 13,8 8,0 13,-4 13,-13l0 -1712c0,-12 6,-18 18,-18l0 -1zm706 1577c0,56 -20,103 -60,142 -40,39 -87,58 -141,58 -56,0 -103,-19 -142,-58 -39,-39 -58,-86 -58,-142l0 -676c0,-12 6,-18 18,-18 12,0 18,6 18,18l0 676c0,46 16,85 48,117 32,32 71,48 117,48 46,0 85,-16 117,-48 32,-32 48,-71 48,-117l0 -1334c0,-58 -20,-107 -61,-147 -41,-41 -90,-61 -147,-61l-183 0c-19,0 -28,8 -28,25l0 1699c0,12 -5,18 -15,18 -12,0 -18,-6 -18,-18l0 -1699c0,-17 6,-31 17,-43 11,-12 26,-18 44,-18l183 0c68,0 125,24 173,71 47,47 71,105 71,173l0 1334 -1 0zm264 201c-19,0 -33,-6 -44,-18 -11,-12 -17,-26 -17,-43l0 -1473c0,-68 24,-125 71,-173 47,-47 105,-71 173,-71 68,0 125,24 173,71 47,47 71,105 71,173l0 1516c0,12 -6,18 -18,18 -12,0 -18,-6 -18,-18l0 -1516c0,-58 -20,-107 -61,-147 -41,-41 -90,-61 -147,-61 -59,0 -109,20 -150,61 -41,41 -61,90 -61,147l0 1473c0,17 9,25 28,25 17,0 25,-8 25,-25l0 -772c0,-17 6,-31 18,-43 12,-12 26,-18 43,-18l191 0c12,0 18,6 18,18 0,12 -6,18 -18,18l-191 0c-17,0 -25,8 -25,25l0 772c0,17 -6,31 -18,43 -12,12 -26,18 -43,18z"/>
    <polygon class="fil8" points="8830,9281 8945,9281 8945,13471 8830,13471 "/>
    <polygon class="fil8" points="9258,9281 9342,9281 9342,13471 9258,13471 "/>
    <polygon class="fil8" points="9373,9281 9457,9281 9457,13471 9373,13471 "/>
    <polygon class="fil8" points="9496,9281 9580,9281 9580,13471 9496,13471 "/>
    <polygon class="fil8" points="9708,9281 9920,9281 9920,13471 9708,13471 "/>
    <polygon class="fil8" points="9954,9267 10018,9267 10018,13495 9954,13495 "/>
    <polygon class="fil8" points="10197,9281 10250,9281 10250,13471 10197,13471 "/>
    <polygon class="fil8" points="10360,9281 10413,9281 10413,13471 10360,13471 "/>
    <polygon class="fil8" points="10480,9281 10532,9281 10532,13471 10480,13471 "/>
    <polygon class="fil8" points="10568,9281 10779,9281 10779,13471 10568,13471 "/>
    <polygon class="fil8" points="10806,9281 10890,9281 10890,13471 10806,13471 "/>
    <polygon class="fil8" points="11115,9281 11167,9281 11167,13471 11115,13471 "/>
    <polygon class="fil8" points="11365,9276 11418,9276 11418,13466 11365,13466 "/>
    <polygon class="fil8" points="12027,9281 12111,9281 12111,13471 12027,13471 "/>
    <polygon class="fil8" points="12142,9281 12226,9281 12226,13471 12142,13471 "/>
    <polygon class="fil8" points="11697,9281 11750,9281 11750,13471 11697,13471 "/>
    <polygon class="fil8" points="11816,9281 11869,9281 11869,13471 11816,13471 "/>
    <polygon class="fil8" points="11899,9281 11952,9281 11952,13471 11899,13471 "/>
    <polygon class="fil8" points="12748,9222 12801,9222 12801,13462 12748,13462 "/>
    <polygon class="fil8" points="12841,9222 12894,9222 12894,13462 12841,13462 "/>
    <polygon class="fil8" points="13524,9222 13577,9222 13577,13462 13524,13462 "/>
    <path class="fil4" d="M9494 6193c11,6 35,34 38,54 6,45 0,37 29,64 29,27 167,148 186,186 31,64 28,94 -7,142 17,11 31,12 30,36 -1,22 -15,20 -25,35 49,12 81,18 81,74 56,6 31,65 10,85 -26,24 -63,27 -86,49 11,39 49,66 44,119 -5,54 -47,62 -64,98 13,21 36,49 46,72 15,33 8,57 39,75 41,23 273,33 372,-57 140,-127 150,-21 136,-179 -64,-48 -109,-47 -147,-130 -23,-52 -10,-68 -3,-117 5,-42 -29,-58 -54,-78l-81 -59c-31,-21 -41,-38 -72,-63 -97,-79 -4,-91 41,-140 -31,-18 -79,-28 -92,-56 -46,-97 120,-122 66,-195 -22,-29 -45,-52 -81,-65 -29,33 -8,52 -68,63 -70,12 -160,12 -231,0 -32,-5 -73,-17 -106,-12l-1 -1z"/>
    <path class="fil4" d="M16052 3496c-42,5 -75,18 -102,40 -75,63 -52,224 161,182 117,-23 211,-157 64,-211 -28,-10 -90,-15 -123,-11z"/>
    <path class="fil4" d="M15654 3424c-148,54 26,292 156,215 182,-108 -44,-256 -156,-215z"/>
    <path class="fil3" d="M15900 3539c44,-23 70,-37 127,-55l-212 -41c30,12 75,60 85,96z"/>
    <path class="fil5" d="M16596 2734c-9,-15 -22,-26 -46,-27 -19,-1 -42,3 -57,16 20,10 82,-7 75,29 -4,22 -41,23 -11,67 57,14 58,-50 39,-85z"/>
    <path class="fil5" d="M15748 2632c17,20 48,6 51,-19 7,-56 -47,-79 -96,-55l25 7c14,2 11,0 25,4 -2,24 -23,44 -6,63l1 0z"/>
    <path class="fil9" d="M15262 5544c-42,-89 -87,-146 -88,-262 -6,-737 114,-726 -447,-1227 -237,-212 -440,-429 -428,-575 13,-157 31,-321 -422,-321 -1308,0 -1181,551 -1858,941 -223,129 -459,231 -570,529 -33,87 38,379 198,390 167,11 265,-16 346,-43 394,-133 852,177 810,555 -34,305 -459,544 -577,752 -148,260 247,215 741,208 219,-3 344,77 421,161 115,125 21,157 -65,184 -115,36 -257,43 -270,41 -44,-9 504,-41 528,-41 248,6 249,164 351,2 35,-56 -41,-344 -207,-363 -6,-1 -464,-195 -408,-273 125,-175 430,-91 565,-662 276,-1168 -1194,-943 -476,-1161 100,-30 66,-122 205,185 149,329 347,614 395,990 15,119 209,297 86,109 -1,-1 -197,-54 -159,44 71,185 -61,435 214,624 256,176 369,371 686,473 409,133 521,327 831,497 90,49 -4,192 93,208 34,6 122,-143 206,-126 188,40 189,-83 241,-114 62,-37 122,-34 118,-188 -3,-100 -163,-255 -280,-305 -147,-63 -305,-71 -397,-183 -146,-179 -237,-371 -304,-516 -26,-56 73,-11 69,-34 -9,-52 -157,-206 -205,-263 -8,-9 80,26 89,3 22,-57 -10,-194 -31,-239l-1 0z"/>
    <path class="fil10" d="M10657 6214c-45,-117 -409,-262 -31,-346 39,-9 115,-205 406,29 130,104 282,43 347,333 8,35 -6,91 11,131 31,73 -10,137 -57,210 -40,63 23,185 2,251 -36,111 -152,158 -251,188 -18,6 -51,29 -63,32 -77,19 -15,-35 28,-112 74,-132 79,-154 -11,-406 -72,-202 -141,-245 -361,-284 -9,-2 -16,-17 -19,-24l-1 -2zm-496 188c3,-125 -283,-308 104,-332 42,-3 113,-144 269,205 85,189 272,329 298,544 35,293 -357,502 -580,481 -19,-2 -58,8 -70,6 -79,-12 -2,-40 69,-93 19,-14 71,-17 87,-40 51,-76 -10,-231 -4,-352 10,-215 25,-269 -163,-389 -7,-5 -9,-22 -8,-30l-2 0z"/>
    <path class="fil6" d="M17760 2057l12 -142c-170,-84 -406,43 -587,67l-154 98c113,7 144,-81 194,159 13,62 79,314 108,406 11,37 17,363 49,364 16,0 -5,-136 15,-171 13,-24 51,98 68,78 16,-19 -8,-153 5,-185 12,-30 51,109 68,106 23,-5 -18,-227 31,-138l-1 -144 76 -187 114 -309 2 -2z"/>
    <path class="fil5" d="M16701 3011c0,25 11,192 7,205 -18,68 -326,361 -143,340 88,-10 260,-125 283,-148 61,-61 52,-110 63,-183 3,-20 -19,-98 -25,-120 -21,-82 -119,-232 -176,-221 -11,2 -17,14 -15,40 5,49 4,18 5,87l1 0z"/>
    <path class="fil5" d="M15366 2795c-5,24 -45,186 -44,200 3,38 76,153 116,245 10,23 64,32 86,69 22,36 12,101 8,111 -6,16 -95,-53 -131,-64 -85,-26 -273,-143 -291,-170 -48,-71 8,-144 10,-218 1,-20 36,-93 46,-114 36,-76 158,-206 213,-186 11,4 15,17 7,42 -14,47 -7,17 -21,85l1 0z"/>
    <path class="fil10" d="M15916 3005c45,-59 92,-85 191,-16 21,15 31,51 44,85 15,39 29,74 -33,74 -146,-2 -111,-2 -243,-35 -8,-2 -38,-4 -21,-38 10,-20 50,-55 61,-71l1 1z"/>
    <path class="fil5" d="M16547 2172c-55,-1 -121,-6 -175,95 -34,64 -22,153 31,217 30,36 97,-76 194,-88 85,-10 69,-8 102,6 11,5 38,4 64,14 12,4 16,14 32,19 53,19 56,-91 28,-136 -55,-87 -129,-126 -275,-127l-1 0z"/>
    <path class="fil11" d="M16052 3496c33,-4 95,1 123,11 148,54 53,188 -64,211 -213,42 -236,-119 -161,-182 27,-22 60,-35 102,-40zm-451 -61c15,-13 28,-25 53,-35 35,-14 84,-5 123,-7 62,-3 157,-55 135,-117 -18,-16 -34,-7 -40,-29 26,-7 33,7 59,-7 -6,-17 -25,-24 -46,-24 -35,-1 -18,14 -53,14 -70,-80 67,-234 111,-259 -13,52 -70,101 -73,125 86,-5 156,-23 234,19 117,64 -9,-73 14,-127l14 17c28,55 76,176 40,227 -32,46 -43,26 -59,9 -25,0 -39,5 -50,20 25,16 6,-11 37,5 -12,31 -20,3 -37,33 -26,46 27,105 56,132 32,30 36,38 74,60 100,57 124,36 189,-7 31,-20 47,-36 81,-53 62,-32 114,-61 128,-135 13,-66 -47,-161 -76,-189 -50,-48 -91,-64 -132,-131 -32,-52 -69,-113 -88,-175 -17,-57 -20,-48 -56,-78 -24,-20 -13,-37 -28,-54l-21 -29 -40 11c-13,-17 -6,-22 -16,-38 -27,-1 -29,4 -45,16 -18,13 -23,6 -43,2l-33 45c-34,2 -18,-10 -57,11 -22,12 -26,11 -39,34 -25,45 -29,56 -61,89 -44,45 -95,101 -168,131 -60,25 -131,84 -149,150 -29,105 113,152 80,203 -33,51 -60,-29 -69,45 -5,39 -9,68 6,96 11,21 23,22 45,2l0 -2zm-208 -235c-11,-40 13,-30 -17,-72 -12,-17 -19,-32 -32,-51 -83,-128 8,-177 50,-231 50,-64 77,-160 102,-239 14,-46 31,-89 86,-78 6,23 -7,40 -7,74 0,68 4,147 80,167 65,18 93,-12 129,-36 110,-74 198,-151 206,-296 2,-28 1,-58 -5,-85 -8,-39 -10,-27 -29,-53 0,-1 -42,-37 -19,-32 53,11 69,50 76,105 8,63 -12,139 -13,195 -1,50 15,37 55,38 38,1 6,6 40,-10 45,-22 53,-2 70,25 49,-19 33,10 77,28 2,19 -3,34 13,40 39,16 61,-44 76,-69 24,-39 49,-87 79,-122 60,-72 185,-119 286,-114l4 12c0,-1 1,2 1,3 27,1 60,6 81,15 -9,12 -17,10 -35,14 6,6 -2,0 10,7l21 10c29,13 71,28 85,56 -23,-11 -45,-27 -70,-41 -17,-9 -58,-24 -68,-32 5,-5 4,-3 10,-7l10 -6c1,-2 3,-1 4,-3 -58,-3 -73,6 -79,-18 -86,-1 -179,54 -217,102 -35,44 -34,59 -59,101 -43,73 -47,180 -1,247 16,24 42,63 78,77 41,15 94,19 135,2 31,-13 82,-57 103,-40 28,22 -5,47 2,91 22,138 92,226 18,371 -29,56 -160,137 -167,165 41,11 160,-42 202,-58 37,-13 51,-28 82,-47 36,-22 60,0 112,-8 27,-23 -4,-27 62,-34 -24,-42 -10,-75 39,-83 -11,-46 22,-52 60,-62 -6,-61 5,-34 16,-64 8,-25 -14,-37 25,-59 -17,-45 -28,-37 10,-78l-9 -12c-4,-5 -6,-5 -9,-12 -13,-28 10,-61 34,-73 -6,-43 -11,-37 20,-68 -7,-20 -23,-24 -17,-56 5,-22 22,-29 31,-43 15,-22 3,-34 10,-63 5,-23 11,-27 14,-58 6,-68 -23,-83 -20,-120 5,-48 63,-43 84,-15 61,82 11,401 78,490 19,-40 -9,-119 15,-153 32,5 37,59 59,73 9,-63 -12,-142 1,-191 43,2 47,54 69,80 2,-39 -1,-80 -1,-119 2,-101 26,-61 30,-72 0,-1 2,0 3,-1 3,-67 26,-162 65,-195 -2,41 -34,95 -40,149 -3,26 6,125 -4,142 -7,12 -24,4 -27,-3 -1,-2 -3,-2 -4,-3 0,34 11,137 1,166l-4 7c-20,15 -60,-95 -70,-112 -4,35 25,184 -17,206 -21,-12 -29,-64 -51,-85 -2,48 8,109 -14,154 -1,1 -2,3 -2,3 0,1 -2,4 -3,3 0,-1 -2,2 -3,3 -21,-8 -13,-7 -23,-36 -5,-13 -10,-25 -14,-38 -9,13 -29,24 -31,31 -3,32 6,65 -2,95 -10,39 23,11 13,70 -17,18 -58,35 -76,49 13,52 83,86 57,208 -44,-1 -24,-28 -56,-39 9,50 33,95 24,158 -42,-3 -22,-31 -62,-43 -11,28 -6,77 -14,112 -8,37 -10,61 -50,68 -3,37 -17,51 -50,38 -6,56 -16,112 -13,171 2,41 30,127 18,150 -28,11 -73,-50 -101,-66 -4,60 -9,112 -8,174 1,38 9,150 -5,175 -21,19 -40,-38 -58,-56 -7,-7 -17,7 -11,-24 -2,57 -1,115 -1,172 0,32 11,147 7,163 -26,9 -30,-4 -52,-10 -2,69 -18,129 -19,203 -1,75 18,125 21,201 1,36 1,73 3,108 1,39 12,61 15,98 3,34 -10,182 -21,203 -24,13 -29,-1 -53,-9 11,44 33,87 41,132 16,93 -54,47 -85,84 -53,66 63,159 116,193 5,25 5,17 -6,37 38,2 113,-2 118,33 5,31 -50,39 -70,58 -10,9 0,-3 -9,10 25,7 137,42 139,68 -16,10 -31,8 -54,7 31,32 70,55 97,89 19,24 76,77 79,102 -17,18 -10,9 -30,20 16,12 29,25 50,37 19,11 42,16 49,36 -15,18 -6,5 -26,14l86 68c64,53 131,92 177,133 32,28 60,29 102,48 14,6 39,24 49,24 26,-1 184,-58 341,-2 16,6 91,40 101,48 0,16 -4,12 -10,25 52,19 52,47 81,80 40,46 26,46 48,107 22,60 2,131 -39,176 -19,22 -36,11 -55,22 -3,3 -41,237 -259,157 -29,39 -18,53 -67,75 -111,52 -239,13 -306,-75 -30,1 -71,3 -98,-6 -24,-8 -31,-28 -51,-47 -49,-48 -58,-46 -121,-75 -22,-10 -46,-19 -68,-30 -66,-34 -120,-76 -199,-96 -94,-24 -257,-33 -360,-32 -136,1 -283,-36 -357,-138 -29,-40 -44,-76 -82,-114 -26,-26 -45,-54 -64,-86l-62 -82c-26,-26 -61,-79 -85,-111 -34,-44 -70,-97 -111,-137 -12,-11 -16,-12 -25,-21 -18,-18 -26,-38 -45,-53l-142 -152c-13,-15 -25,-47 -43,-57 -24,16 -24,65 -62,80 -59,-10 -54,-122 -75,-183 -12,-36 -23,-57 -32,-97l-19 -74c-2,-4 -3,-7 -6,-10 -5,-7 -3,-5 -8,-9 -8,33 -21,56 -30,84 -9,30 -8,59 -26,82 -21,0 -81,-20 -104,-26l107 137c21,21 33,42 58,61 19,14 14,17 30,32 17,16 21,8 17,39 -29,6 -57,4 -82,-4 8,24 19,23 34,47l153 234c38,44 74,56 64,87 -27,5 -19,-4 -43,-9 20,46 75,98 110,132 107,102 177,117 305,170 69,28 176,83 229,132 51,47 73,69 113,124 59,79 125,272 13,343 -38,24 -55,14 -91,-1 -14,31 -9,89 -32,131 -54,99 -219,87 -283,27 -12,-11 -23,-32 -39,-36 -19,126 -71,128 -194,152 -62,12 -92,11 -143,-14 -172,-84 -103,-245 -196,-314 -56,-41 -278,-108 -365,-146 -81,-36 -145,-77 -218,-123 -103,-65 -68,-37 -147,-111 -46,-43 -93,-73 -124,-129 -11,-20 -17,-38 -30,-57 -31,-46 -57,-118 -96,-155 -18,10 -21,22 -36,28 -38,-24 -60,-64 -75,-120l-28 28c-11,10 -21,12 -41,9 -28,-36 -39,-140 -49,-198 -79,86 -81,-31 -108,-123 -14,34 -31,81 -59,90 -45,-21 -50,-185 -51,-244l-35 22c-9,58 21,212 -12,247 -41,1 -32,-53 -49,-79 -8,-12 -53,-54 -64,-59 -6,57 35,81 3,126 -34,4 -75,-17 -108,-25 8,45 30,80 44,119 40,110 -1,54 111,131 18,12 33,17 48,29 36,26 53,39 45,101 26,14 51,42 72,71 24,33 29,68 28,118 -2,219 -187,218 -319,256 -102,30 -204,42 -308,46 -33,1 -28,11 -61,12 -94,2 -174,15 -265,24 -82,8 -312,-1 -395,-1 -300,-1 -503,30 -802,-35 -116,-25 -297,-107 -437,-130 -72,-12 -204,-15 -272,4 -79,22 -178,102 -196,54 -15,-42 100,-84 159,-122 71,-47 140,-56 195,-87 -15,-34 -77,-75 13,-92 -7,-7 -85,-57 -7,-89 -32,-64 -10,-80 53,-106 -7,-26 -45,-49 -9,-82 22,-20 43,-24 35,-79 -4,-27 -29,-44 -36,-79 -6,-31 0,-71 36,-71 8,28 3,46 18,75 26,54 44,68 25,135 -8,26 -18,37 -39,47 9,26 34,53 12,80 -14,17 -47,22 -62,41 33,26 83,18 50,71 62,10 54,36 89,57 49,29 117,50 174,58 167,21 369,21 542,21 140,0 207,-14 356,6 188,25 133,28 346,29 87,1 288,21 358,7 260,-51 297,-140 416,-146 49,-2 123,7 152,33 40,37 5,103 60,126 52,-26 36,-126 6,-181 -17,-32 -24,-51 -47,-77 -30,-35 -62,-58 -99,-82 -77,-51 -94,-84 -198,-106 -29,-6 -68,-20 -96,-23 -38,-4 -86,-2 -121,4 -68,11 -148,-23 -215,-14 -170,23 -83,-4 -221,-2 -101,1 -232,46 -328,30l-13 -28c-52,3 -158,29 -195,24 -20,-20 -22,-42 7,-57 -47,-3 -130,54 -163,34 -28,-24 20,-42 40,-49 25,-9 47,-17 74,-23 40,-9 137,-32 171,-17 8,23 5,35 -19,45 61,6 169,-30 231,-18 5,8 4,8 8,17 0,1 1,3 2,4l5 10c99,-3 192,-31 297,-12 41,7 60,0 100,-3 5,-34 15,-49 36,-62 39,-25 81,-39 120,-66 10,-7 36,-34 48,-45 43,-41 59,-38 85,-106 10,-25 43,-122 52,-133 55,-3 41,58 53,102 59,-35 54,-312 124,-275 17,19 5,29 4,58 -1,22 0,47 0,69 27,-16 45,-45 63,-73 80,-122 85,-142 103,-299 13,-107 -3,-133 -35,-225 -7,-19 -15,-26 -22,-45 -7,-17 -10,-33 -18,-49 -6,-13 -58,-68 -35,-86 29,-23 72,72 82,88 1,-84 -96,-248 -135,-302 -96,-132 -190,-127 -251,-187 1,-14 5,-17 12,-27 -45,-18 -87,-40 -139,-58l-147 -43c4,-30 14,-14 18,-26 1,-2 3,-1 4,-2 -59,-4 -188,19 -223,11 -4,-19 1,-22 9,-36 7,-12 -1,5 6,-11 -43,5 -236,55 -253,49 -2,-22 0,-15 13,-32 65,-87 51,-73 144,-135 8,-5 10,-6 16,-10l10 -7c1,-2 2,-2 3,-3 -47,-2 -267,38 -322,62 -30,13 -59,47 -83,34 -17,-21 -3,-31 2,-57 -34,12 -86,45 -121,65 -28,16 -89,66 -119,59 -7,-20 -4,-26 1,-47 -31,14 -163,119 -203,153 -14,12 -11,16 -29,7 -11,-29 40,-58 60,-74 28,-22 220,-190 251,-159 15,28 -9,26 -21,51 45,-21 217,-139 266,-122 8,21 -1,31 -10,46 27,-4 65,-17 95,-24 32,-7 65,-10 97,-17 72,-17 217,-48 293,-57 35,-4 69,-5 103,-10 85,-13 137,-9 223,-12 -20,-64 -126,-94 -183,-127 -25,-14 -46,-20 -44,-52 30,-26 77,-22 126,-29 -63,-24 -114,-41 -184,-59 -43,-11 -185,-30 -185,-57 11,-29 60,-34 90,-43 25,-7 76,-29 92,-31 -58,-10 -275,-3 -297,-15 -10,-23 8,-34 22,-44 45,-32 71,-72 110,-109l-128 15c25,-17 68,-22 103,-33 30,-9 74,-34 105,-14 3,28 -15,27 -36,41 -31,21 -93,83 -112,117 62,-1 124,-5 185,0 26,2 156,-2 144,43 -16,23 -59,24 -95,35 -33,11 -64,22 -94,30l12 7c1,1 3,1 4,2 29,11 129,26 187,46 40,13 161,38 158,91 -36,29 -93,6 -128,27 39,12 80,35 113,53 23,12 32,22 49,33 15,10 33,16 51,27 35,21 59,44 102,63 26,11 35,18 53,29 23,13 34,11 34,43 -5,13 -27,7 -36,31 11,17 35,21 58,31 55,22 144,90 123,124 -18,14 -41,11 -66,12 5,10 50,47 82,91l69 101c37,67 61,176 85,256 25,84 48,220 67,279 21,67 40,127 68,190 9,21 19,34 25,59l39 -3c22,34 16,78 22,126 11,85 14,64 27,124 23,-9 33,-21 47,-37 82,-91 68,58 73,87 8,42 3,66 15,108 41,-6 32,-40 72,-42 23,28 13,115 16,156 16,-23 70,-136 110,-80 36,51 -14,120 44,165 17,-12 37,-81 72,28 9,28 16,38 28,61 53,10 27,-9 74,39 49,50 47,14 78,35l62 52c12,9 18,18 30,27 17,12 70,40 100,65 19,16 45,31 61,47 18,18 35,44 52,61 18,18 46,30 47,63 -24,-3 -49,-29 -67,-42 -77,-56 -128,-105 -213,-154l-87 -69c-35,-30 -45,16 -118,-77 -34,13 -39,17 -58,-21 -36,-71 -7,-54 -59,-65 -7,-1 -23,-8 -29,-12 -15,-8 -29,-24 -37,-41 -18,-40 -3,-94 -16,-140 -31,19 -27,35 -39,69 -10,28 -25,52 -57,48 -35,-30 -18,-98 -21,-152 -51,25 -76,38 -94,-35 -9,-35 -9,-115 -11,-156 -13,11 -27,22 -41,35 -91,82 -99,-112 -111,-169 -1,-1 -3,-1 -4,-1 -1,0 -3,-1 -4,-1l-12 -4c-23,-11 -29,-57 -51,-95 -3,33 -6,60 -13,91 -6,28 -17,53 -21,83 -3,23 -5,74 -5,98 0,95 -17,53 -22,83 0,102 -2,208 23,299 36,-32 14,-100 62,-102 35,39 44,161 67,193 11,-10 17,-23 24,-36 9,-17 10,-29 34,-30 8,19 11,90 18,121 7,28 18,84 27,106 42,-23 -8,-124 267,80 20,15 32,27 52,41 22,17 205,131 225,136 46,13 148,56 189,80 79,46 160,80 244,117 41,18 82,41 121,59 34,15 93,41 122,59 24,15 24,27 53,40 37,17 85,42 110,70 51,56 81,77 104,165 12,48 34,195 111,137 75,-56 18,-180 26,-211 48,-13 59,185 203,182 51,-1 106,-43 118,-77 8,-24 10,-67 6,-93 -5,-34 -19,-39 -19,-69 22,-5 28,12 48,24 61,38 130,48 129,-47 -1,-82 -50,-143 -96,-203 -45,-59 -90,-111 -157,-142 -34,-16 -74,-25 -110,-39 -34,-14 -78,-28 -112,-38 -51,-15 -59,-30 -105,-50 -99,-43 -183,-117 -228,-221 -8,-18 -12,-38 -19,-59 -15,-46 -46,-118 -72,-150 -18,-22 -109,-166 -97,-189l20 -1c8,1 16,4 22,5 19,4 37,2 57,1 -7,-22 -99,-103 -122,-133 -12,-16 -15,-24 -27,-40 -22,-28 -69,-73 -77,-106 21,-5 27,8 44,15 16,6 34,7 51,9 -16,-39 -41,-74 -64,-131 -18,-46 -29,-99 -42,-149 -27,-110 4,-349 72,-384 53,-28 96,4 142,31 28,17 30,22 50,43 17,18 22,32 44,54 131,129 135,259 273,398 33,33 57,67 92,99l100 91c34,30 56,70 88,103l151 138c25,18 29,20 48,45 12,16 121,118 55,111 -18,-2 -35,-15 -52,-20 -30,-9 -39,-20 -67,-24 71,94 91,78 149,129 58,52 67,45 121,85 32,24 96,64 115,91 21,30 41,43 69,65 28,22 50,44 76,63l161 113c118,79 247,126 390,157 34,7 71,17 102,31 44,19 54,31 85,55 51,40 41,58 79,58 20,-31 12,-68 29,-85 16,7 14,9 19,29 3,13 6,25 8,38 5,28 0,52 14,74 24,36 48,67 108,66 162,-3 112,-199 125,-219 20,5 18,16 26,39 33,100 93,139 189,71 32,-23 31,-42 38,-75l5 -13c29,-24 27,26 52,29 33,4 65,-80 69,-107 4,-29 -5,-42 -14,-68 -19,-54 -10,-72 -60,-115 -50,-43 -22,-21 -35,-43 -9,-15 -47,-20 -54,-33 -15,-28 33,-9 -26,-36 -73,-34 -149,-35 -231,-34 -82,0 -273,67 -333,102 -40,23 -58,62 -128,41 -43,-13 -62,-58 -64,-110 -7,-152 -106,-229 -177,-344 -42,-67 -26,-79 -48,-128 -15,-34 -48,-79 -70,-106 -72,-88 -139,-87 1,-154 -1,-1 -3,-1 -4,-2l-26 -6c-26,-2 -61,0 -84,-9 -7,-23 6,-30 14,-46 -26,-18 -44,-32 -65,-58 -43,-54 -87,-96 -43,-164 40,-62 102,2 76,-91 -5,-18 -9,-30 -15,-47 -63,-184 19,-20 -2,-253 -4,-46 -1,-36 -31,-55 -40,-26 -70,-135 -90,-179 -18,-40 -39,-80 -56,-119 -39,-90 -157,-487 -185,-526 -1,40 8,92 -12,124 -21,-2 -22,-10 -33,-28l-69 -105c-2,24 5,58 -6,77 -29,-3 -33,-30 -48,-51 -12,-17 -25,-49 -41,-59 3,38 6,63 6,104 0,40 8,64 -15,87 -32,-5 -37,-44 -52,-71 -14,-26 -24,-65 -41,-84 -1,20 9,98 -29,67 -27,-23 -55,-132 -73,-163 -9,53 -12,84 -43,112 -47,7 -66,-18 -72,-60 -4,-24 -4,-91 -21,-110 -17,45 -51,82 -79,117 -71,87 -26,-119 -24,-143 -27,26 -42,68 -73,91 6,-21 69,-122 94,-131 2,56 -25,109 -20,186 40,-28 83,-129 113,-142 38,45 -7,174 72,178 47,-31 28,-100 52,-133 25,13 55,150 88,185l5 -102c33,11 68,172 101,183 6,-69 -10,-185 -2,-208l4 -8c28,17 54,99 87,126l2 -88c31,2 78,129 111,144 2,-70 11,-150 -23,-208 -11,-18 -8,-7 -16,-25 -3,-7 -6,-19 -9,-28 -20,-61 -71,-162 -103,-206l-116 -116c-131,-89 -221,-33 -261,-120 -120,14 -228,-4 -304,-63 -28,-22 -65,-69 -80,-105 -31,-75 -208,-75 -277,-100 -55,-20 -76,-30 -117,-68 -34,-32 -85,-33 -123,-63 -20,-15 -27,-27 -51,-42 -35,-21 -28,-17 -29,-65 -20,-15 -32,-17 -33,-55 -1,-29 0,-9 -6,-35 -14,-62 80,-51 128,-72 158,-70 87,26 114,84 18,40 -5,18 -18,48l42 0 10 26c44,-4 46,8 30,36 26,-1 52,-4 72,5 5,28 -12,25 -25,44 32,2 46,10 67,12 29,3 47,-4 31,31 50,8 28,16 67,31 35,13 54,18 63,13 64,-30 -69,-130 -76,-155l8 -8zm261 223c112,-41 338,107 156,215 -130,77 -304,-161 -156,-215zm246 116c-9,-36 -55,-85 -85,-96l212 41c-57,18 -83,33 -127,55zm215 -343c-12,-5 -19,-12 -34,-18l-38 -16c23,1 74,3 72,34z"/>
    <path class="fil11" d="M15477 3255l68 0 0 49c-27,-5 -53,-15 -66,-20l-3 -1 0 -27 1 -1zm67 160l-67 0 0 -57c15,5 31,16 58,45 3,4 6,8 9,12z"/>
    <path class="fil6" d="M9463 6278c-61,-43 -386,-21 -547,-107 -86,-46 163,298 -35,163 -121,-82 69,117 -30,131 -25,4 234,285 -27,265 -49,-4 -61,-41 -1,79 16,32 187,232 247,233 14,0 164,14 164,36 0,73 -174,101 197,97 99,-1 325,147 263,38 -140,-244 27,-434 -147,-611 -121,-123 3,-264 -84,-325l0 1z"/>
    <path class="fil6" d="M14999 1536l49 -134c102,-2 224,59 312,132 119,98 205,109 286,238 -154,-35 -440,331 -599,575 -76,117 -103,214 -111,211 -15,-6 -11,9 -14,-32 -2,-27 -381,111 -388,86 -4,-16 60,-95 67,-129 4,-18 -48,7 -47,-5 1,-23 100,-106 114,-140 6,-14 -56,2 -60,-1 -19,-14 234,-178 225,-165l-28 -38 27 -25 -22 -29 115 -103 26 -113 47 -327 1 -1z"/>
    <path class="fil11" d="M9494 6193c33,-5 75,6 106,12 70,12 160,12 231,0 60,-11 39,-30 68,-63 37,13 59,35 81,65 54,73 -113,99 -66,195 14,28 61,39 92,56 -45,49 -138,61 -41,140 30,25 40,42 72,63l81 59c25,19 60,36 54,78 -6,50 -20,66 3,117 38,84 83,82 147,130 14,159 3,52 -136,179 -99,90 -331,80 -372,57 -31,-17 -24,-41 -39,-75 -10,-23 -34,-51 -46,-72 17,-36 60,-44 64,-98 5,-53 -33,-80 -44,-119 23,-22 61,-25 86,-49 22,-20 47,-79 -10,-85 1,-56 -32,-62 -81,-74 10,-15 23,-13 25,-35 2,-24 -13,-25 -30,-36 34,-48 38,-78 7,-142 -18,-38 -157,-159 -186,-186 -29,-27 -22,-19 -29,-64 -3,-20 -27,-48 -38,-54l1 1zm691 1103l60 -52c97,-78 123,-17 160,-170 8,-35 23,-45 19,-89 -2,-21 -16,-60 -22,-86 -9,-38 -8,-60 -13,-96 -9,-56 -18,-43 -41,-70 74,-90 -5,-197 -65,-271 -25,-31 -44,-38 -71,-64 14,-28 20,-38 0,-71 -36,-57 -134,-118 -124,-193 23,-7 40,1 65,-7 17,-5 35,-18 53,-24 36,-13 76,-26 109,-39 22,19 99,124 117,155 21,35 37,44 43,96 6,46 6,75 28,111 51,88 134,100 225,193 337,432 -271,703 -545,679l2 -2zm678 -176l324 -184c-38,20 -20,8 -59,19 -18,6 -51,29 -63,32 -77,19 -15,-35 28,-112 74,-132 19,-128 -71,-380 -60,-168 -118,-226 -262,-263l4 -10c38,-96 -27,-149 -74,-185 -72,-55 -178,-41 -211,-68 80,-36 67,-61 187,-72 43,-4 72,10 109,19 44,10 76,-10 117,-13 -14,24 -25,21 -17,52 56,19 76,-11 123,-19 86,-15 58,59 106,32 15,-36 -29,-47 -31,-92 42,-43 26,-43 -60,-79 -30,-13 -109,-33 -146,-36 -102,-8 -199,59 -282,83 10,-13 13,-26 25,-39 11,-14 24,-23 36,-37 14,-17 12,-29 28,-44 14,-14 29,-14 42,-33 -8,-20 1,-8 -16,-19 78,-69 50,-47 60,-81 6,-21 65,-57 56,-93l-43 26c-17,-176 94,-336 172,-473 34,-60 88,-116 73,-132 -24,-26 -98,47 -119,58 19,-109 66,-147 132,-216 51,-53 74,-89 126,-132 17,-14 42,-19 31,-46 -25,-13 -114,27 -149,32 31,-69 154,-146 195,-192 -11,-54 -42,7 49,-117 10,-14 21,-22 33,-34 37,-36 135,-108 143,-122 -1,-1 -4,-4 -4,-2l-13 -5c-3,-1 -9,0 -15,-1 30,-24 95,-89 128,-105 25,-12 41,-37 57,-58 38,-48 176,-202 224,-244l66 -53c43,-38 62,-79 124,-108 169,-80 92,-97 279,-191 24,-12 98,-45 101,-74 2,-21 -16,-21 -30,-30 51,-36 150,-67 213,-87 32,-10 55,-8 70,-32 -2,-32 -53,-54 -72,-89 61,-10 100,-15 165,-17 31,-1 162,5 174,-1 21,-26 -19,-84 -31,-103 128,-10 354,82 308,-1 -6,-11 -9,-10 -16,-26 52,-1 82,1 132,8 30,4 93,18 119,14l13 -17c16,-20 192,9 222,14 72,11 143,29 193,-11l-7 -32c64,-1 115,19 180,21 6,-8 2,-1 5,-12 5,-19 -4,4 1,-10 35,-1 162,11 181,4 0,-28 -3,-8 -16,-32 75,-6 152,7 227,12l9 -32c55,-10 93,4 145,-2 13,-22 8,-24 10,-54l73 -3c31,0 85,-23 103,-13 7,8 5,67 47,102 20,17 29,8 32,41 2,23 -3,49 10,65 29,35 216,13 139,-97 -68,-98 -3,-157 7,-237 8,-70 2,-75 -10,-136 -17,-86 9,-67 48,-99 -1,-23 -4,-18 -14,-30 32,-10 65,-30 18,-48 1,-1 3,-3 4,-2 1,1 4,-2 7,-4 9,-5 8,-2 13,-8 28,-28 -36,-39 -56,-43 4,-4 2,-3 10,-7 7,-3 9,-3 16,-5 22,-7 18,1 22,-19 -24,-16 -86,4 -99,26 8,28 27,22 49,36 -28,7 -58,5 -61,36 16,15 21,9 47,14 -1,1 -3,1 -4,3l-15 9c-35,22 -7,27 11,41 -43,29 -28,36 -45,83 -45,-3 -73,-8 -124,-3 -44,4 -166,37 -202,55 -31,16 -54,37 -82,52 14,-49 81,-102 76,-132 -24,-6 -36,6 -61,11 24,-69 97,-84 120,-126 21,-38 -28,-26 -48,-20 18,-28 137,-110 177,-133 36,-21 48,-32 13,-63 10,-10 22,-8 17,-29 -4,-18 -10,-6 -22,-28 37,-9 109,-72 122,-105 -37,13 -70,69 -136,99 3,31 8,16 25,38l-30 24c15,29 23,6 27,38 -15,14 -23,11 -43,20 -16,7 -25,14 -39,23 -29,18 -52,32 -77,52 -20,16 -97,72 -88,101 7,20 25,6 42,4 -37,20 -68,67 -90,102 -13,21 -40,51 7,44 7,-1 20,-6 29,-8 -25,57 -71,76 -37,144 39,3 120,-78 270,-97 -5,22 -1,24 4,41 -15,7 -35,25 -43,41 5,40 38,28 28,77 -13,61 -107,55 -155,56 -58,1 -51,6 -53,57 -46,8 -90,-5 -149,6l-9 26c-59,5 -136,-14 -202,-11 -38,2 -26,12 -41,35 -30,-2 -62,-5 -93,-6 -129,-4 -45,29 -120,14 -42,-9 -83,-17 -126,-9 -5,21 3,27 8,44l-172 -25c-52,-7 -225,-31 -276,-17 -36,10 4,20 -75,8 -52,-8 -138,-17 -186,-4 -11,27 -5,22 5,50 -102,-12 -190,-27 -292,-27 -44,0 -41,28 -11,47 27,17 35,17 45,58 -78,2 -298,-2 -347,35 -2,32 37,68 55,87 -1,1 -2,1 -3,3 -2,8 -23,12 -31,15 -44,15 -364,122 -223,158l-6 6c-17,15 -43,25 -64,35 -28,14 -47,25 -71,42 -23,16 -45,27 -60,48 -59,80 -112,67 -192,143 -21,20 -35,42 -54,60 -16,16 -44,34 -64,49 -30,23 -56,55 -81,84 -45,50 -89,92 -131,148 -10,13 -19,27 -28,40 -21,31 -40,60 -73,81 -14,9 -24,15 -33,23 -11,10 -18,19 -28,28 -18,16 -50,32 -60,54 13,17 7,4 26,15 -60,34 -197,161 -217,237 0,1 -1,3 -1,4 0,1 -1,3 -1,4 -4,14 -53,43 -68,55 -45,36 -81,76 -117,120 -13,16 -54,52 -43,69 12,18 39,6 60,-1 21,-7 42,-15 63,-18 -70,99 -169,151 -213,275 -10,30 -36,103 -30,128 38,12 48,-18 75,-32 -10,35 -102,172 -130,237 -34,79 -70,211 -43,305 40,-4 -2,-7 30,-15 -14,14 -53,57 -59,76 -9,28 0,13 -29,38 -21,18 -17,22 -14,48 -28,18 -43,52 -65,75 -15,16 -85,93 -94,113 -11,23 -7,32 -25,47 -25,20 -63,36 -89,55 -39,29 -153,47 -210,69 -19,7 -31,15 -46,21 -27,10 -41,1 -69,2 -58,3 -60,38 -87,59 -29,-10 -63,-40 -85,-45 -47,-11 -50,36 -70,61 -50,16 -157,13 -212,6 -53,-7 -167,-38 -198,0 -1,31 22,46 33,66 -57,4 -185,-29 -237,-58 -19,-11 -35,-17 -45,6 -9,20 3,-9 -2,8 -3,9 -1,6 -3,11 -49,-4 -99,-12 -146,-24 -75,-20 -79,-39 -116,-55 -22,-9 -44,3 -43,32 3,55 58,135 74,188 -36,-14 -113,-87 -130,-121 -10,-20 -11,-50 -36,-35 -17,14 -3,42 3,63 20,74 40,99 73,167 -2,0 -89,-40 -57,29 30,66 116,236 182,242 1,-64 -110,-156 -131,-232l60 3c15,-32 -5,-42 -21,-67 -11,-16 -33,-54 -39,-72 33,19 85,89 150,76 21,-33 -13,-68 -31,-106 -16,-35 -43,-80 -52,-114 31,12 51,28 89,40 50,16 176,46 226,31 41,-12 5,-13 102,13 116,30 117,-5 143,121 12,55 -23,45 -51,71 -12,12 -19,22 -33,34 -18,14 -26,11 -33,36 11,38 38,25 61,46 -44,33 -70,54 4,111 62,47 61,40 80,116 14,57 75,64 94,102 17,34 -22,43 -23,171 0,49 -7,73 17,108l46 78c-81,-29 -58,-48 -202,-77 -43,-9 -85,-8 -130,-10 -50,-2 -79,-10 -124,-16 18,-36 50,-24 52,-68 -25,-28 -75,-19 -122,-19 -10,-5 -4,-3 -12,-10 -26,-23 -69,-39 -99,-56 -45,-25 -71,-40 -103,-72 -36,-36 -113,-164 -117,-235 20,15 35,50 66,35 -4,-20 -30,-49 -39,-81 48,31 33,59 129,63 -1,-1 -3,-3 -3,-2l-15 -7c-22,-7 -43,-8 -60,-23 -16,-13 -38,-49 -62,-51 -11,29 19,69 30,91 -15,-8 -21,-15 -31,-29 -10,-15 -13,-27 -28,-30 -13,70 65,212 96,252 31,40 46,51 94,81 33,21 88,44 115,65 -24,8 -19,3 -24,18 45,18 130,-15 170,15 -13,34 -50,31 -55,66 80,49 247,-13 448,103 139,80 427,60 614,60 106,0 256,-36 354,-61 95,-24 190,-62 271,-116l15 -14 -4 -7z"/>
    <path class="fil11" d="M14650 3425c-11,11 -99,50 -122,67 -70,53 -101,48 -88,99 67,35 222,-10 290,-6 -16,21 -65,35 -111,91 -22,26 -82,84 -69,135 25,38 112,-24 172,-48 32,-13 156,-52 187,-53 -29,23 -60,40 -84,63 -22,22 -63,48 -27,88 57,14 114,-34 167,-45 62,-12 130,-28 195,-27 -11,37 -70,130 -93,165 -115,178 -45,221 49,158 39,-26 183,-135 215,-145 -20,46 -129,219 -103,280 55,107 229,-272 231,-282 -15,19 -40,39 -79,91l-76 96c6,-34 40,-81 63,-130 19,-41 65,-97 29,-142 -53,-9 -63,17 -91,38 -26,18 -52,31 -78,51 -13,10 -21,18 -36,26 -35,20 -97,74 -124,81 5,-33 54,-108 72,-133 22,-31 52,-93 70,-131 65,-136 -203,-48 -285,-39 11,-19 11,-16 33,-26 18,-8 22,-14 36,-21 33,-14 58,-13 60,-54 -46,-48 -171,-10 -230,8 -36,11 -72,20 -106,33 -30,12 -74,36 -98,43 23,-42 58,-73 97,-101 10,-7 18,-12 28,-18 18,-11 13,-10 28,-23 29,-25 49,-9 44,-62 -28,-19 -19,-23 -59,-16 -28,5 -54,3 -82,7 -54,8 -103,16 -160,15 90,-84 218,-116 231,-125 6,-44 -44,-40 -121,-56 -52,-10 -106,-10 -158,-22 21,-8 40,-16 61,-22 30,-8 52,-8 55,-37 -41,-8 -98,14 -135,24 -25,6 -115,33 -76,63 26,19 225,20 277,42l1 0z"/>
    <path class="fil11" d="M16215 1772c14,-9 14,-20 18,-42 14,20 21,49 44,52 17,-21 3,-32 15,-52 15,23 32,86 58,30 6,8 7,12 13,20 18,0 13,4 25,-6l6 7c17,17 12,25 72,-18 -4,15 -7,14 -4,34l27 -3c0,-1 1,0 2,2l12 13c20,9 14,-9 33,0 7,3 6,16 41,2 1,1 2,2 2,4l15 18c13,5 19,0 29,-4l5 9c5,7 1,2 7,8 28,28 41,13 60,3 1,1 2,1 2,3 2,9 12,14 23,15 11,0 28,-6 42,-8 -12,39 26,34 61,42 42,10 48,14 77,37 53,43 71,100 102,126 52,45 120,-5 164,-28 59,-32 99,-43 167,-65 72,-23 297,-104 372,-73 127,53 2,204 -4,350 1,-1 2,-5 2,-4 3,8 1,-1 11,-22 31,-68 63,-139 72,-218 7,-61 -12,-95 -50,-117 -51,-30 -85,-15 -138,-8 -131,17 -286,47 -411,84 -10,3 -23,9 -31,11 -38,10 -9,2 -29,-4 -24,-7 -53,2 -78,4 31,-34 82,-26 84,-62 -43,-12 -105,10 -148,15 30,-39 72,-26 71,-62 -32,-7 -64,8 -91,13 19,-13 16,-1 22,-24 -8,-6 -1,-4 -13,-5 -31,-4 -65,34 -110,28 15,-10 27,-21 22,-44 -17,-7 -28,1 -44,3 21,-16 22,-38 -19,-27 -22,6 -41,17 -64,21 14,-13 35,-25 32,-47 -18,-5 -56,0 -73,6 13,-11 12,-7 10,-30 -21,0 -26,5 -42,12l-8 -9c-3,-5 -2,-5 -8,-12 -25,-1 -31,7 -52,15l-5 -25c-33,-2 -34,13 -62,21l5 -29c-26,-4 -37,10 -52,19l-5 -6c-17,-15 12,6 -6,-5 -15,-10 -17,-9 -51,10 -6,-15 3,-8 -10,-24 -26,3 -30,17 -50,28 1,-15 6,-29 -1,-44 -32,-3 -32,27 -52,46 -19,-21 -14,-46 -41,-50 -16,14 -15,30 -18,53 -18,-39 -25,-52 -46,-56 -4,18 -17,57 -8,72l-1 -3z"/>
    <path class="fil11" d="M17226 2217c16,12 13,5 25,10 -28,34 8,31 38,31 -10,22 -72,127 5,136 46,5 100,-50 118,-85 14,-28 16,-48 27,-71 13,-29 36,-27 90,-65 13,-9 19,-11 33,-19 52,-34 -11,-29 -37,-32 0,0 58,-33 60,-64 -30,-30 -65,-18 -103,-4 -34,13 -69,25 -99,41 -38,20 -102,47 -126,81 -14,20 -26,20 -31,42l0 -1z"/>
    <path class="fil11" d="M14925 1779c3,9 2,5 6,10l11 11c-31,49 -10,31 -1,52 -16,13 -19,13 -25,36 11,15 5,3 18,15 -8,12 -14,18 -4,34 18,-5 9,-4 20,-24 15,-30 29,-29 7,-51 32,-30 11,-26 0,-47 31,-30 29,-37 12,-57 35,-46 14,-95 29,-145 17,-59 32,-68 36,-139 2,-33 3,-47 31,-57 28,-10 51,-5 72,7 39,23 87,34 130,50 49,19 61,49 96,79 33,28 73,48 100,76 13,14 28,31 45,43 22,15 33,21 51,37 8,7 13,13 21,20 27,23 65,61 88,47 19,-27 9,-54 9,-88 10,13 29,22 42,35 18,19 26,35 49,34 10,-22 3,-55 3,-80 14,8 3,-1 14,10 26,25 50,76 91,69 9,-19 0,-36 -2,-59 42,25 52,74 84,30 46,33 115,50 180,20 -26,-12 -79,-5 -112,-11 -44,-8 -51,-33 -83,-41 -6,5 -2,2 -7,8l-8 12c-28,-30 -44,-54 -72,-52l2 64c-61,-35 -68,-93 -104,-95l0 88c-48,-29 -78,-76 -102,-76 -1,30 17,49 11,83l-195 -160c-26,-20 -82,-55 -114,-67 -45,-18 -13,-23 -124,-61 -20,-7 -45,-13 -66,-22 -26,-11 -33,-25 -72,-23 -60,4 -75,43 -82,101 -6,51 -40,99 -41,139 -5,140 -6,74 -43,144l-1 1z"/>
    <path class="fil12" d="M16493 2723c15,-13 39,-17 57,-16 24,1 37,12 46,27 20,35 18,99 -39,85 -30,-44 6,-45 11,-67 7,-36 -56,-19 -75,-29zm37 -84c-48,7 -66,15 -86,45 -57,87 14,216 141,207 144,-10 136,-280 -55,-252z"/>
    <path class="fil12" d="M15704 2558c48,-24 103,0 96,55 -3,25 -34,40 -51,19 -17,-19 5,-39 6,-63 -14,-4 -11,-2 -25,-4l-25 -7 -1 0zm-2 -75c-193,55 -74,263 67,234 119,-24 122,-179 38,-222 -23,-12 -77,-20 -106,-12l1 0z"/>
    <path class="fil11" d="M15187 1934c-11,7 -88,6 -33,101 12,20 33,53 56,45 6,-15 2,-15 5,-27 8,-25 -1,0 12,-18 13,-17 2,-13 17,-29 4,-5 1,4 11,-10 3,-37 -7,-37 -12,-71 64,5 38,-15 37,-57 26,-1 68,15 66,-21 -1,-24 -32,-48 -45,-59 -10,-10 -12,-15 -22,-24 -9,-9 -18,-14 -28,-23 -21,-18 -30,-28 -58,-45 -15,-9 -69,-29 -72,-5 -1,11 28,27 28,73 1,43 13,48 14,87 2,58 18,51 22,83l2 0z"/>
    <path class="fil11" d="M16498 2160c23,-32 56,-26 52,-54 -26,5 -86,53 -104,68 -23,20 -73,61 -79,93l56 -55c34,-37 25,-4 72,-31 42,-24 111,-61 166,-68l-14 14c-14,12 -69,55 -15,52l57 -21c28,-11 50,-22 81,-26 -12,14 -71,42 -54,60 23,10 100,-22 143,-23l-23 12c-30,11 -51,10 -52,42 45,15 115,6 156,30 -23,17 -36,7 -56,26 7,28 61,33 106,73 15,13 14,23 31,31 -10,-64 -70,-68 -107,-99 24,-14 41,-5 51,-31 -23,-44 -116,-23 -159,-41 13,-12 35,-16 54,-21 26,-7 48,-7 51,-30 -48,-27 -119,7 -166,15 26,-39 106,-36 115,-68 -43,-29 -181,44 -224,53 11,-19 24,-25 41,-36 18,-11 34,-13 40,-32 -43,-21 -181,55 -218,67l-1 0z"/>
    <path class="fil11" d="M15636 1963c-11,30 15,68 11,104 -26,-21 -57,-88 -96,-90 -9,27 8,40 15,66 -37,-13 -62,-57 -93,-56 -13,30 11,63 20,93 -33,-11 -40,-30 -69,-35 3,20 81,135 107,138 1,-24 -41,-53 -68,-98 14,9 29,17 50,18 3,-30 -21,-58 -28,-94 27,16 64,60 103,57 3,-30 -12,-34 -19,-60 17,15 96,138 95,50 0,-25 -14,-49 -17,-77 38,20 39,81 88,83 7,-23 3,-55 5,-82 16,7 27,34 34,51 19,44 10,51 37,51 14,-23 3,-45 10,-70 19,13 29,49 39,72 29,66 26,48 56,59 32,11 67,75 92,103 16,18 -2,7 20,15 -10,-43 -74,-123 -106,-136 -23,-9 -21,-2 -32,-24 -7,-14 -13,-27 -20,-42 -13,-27 -24,-64 -54,-69 -16,17 -12,23 -17,50 -23,-43 -29,-84 -70,-76 -6,21 -6,48 -7,73 -18,-12 -46,-68 -70,-75 -19,-6 -5,-5 -19,1l3 0z"/>
    <path class="fil11" d="M15560 2377c9,18 1,5 20,15 -22,21 -30,30 -15,67 17,3 24,0 35,-6 -7,-20 -1,-3 -24,-13 1,-32 23,-41 42,-58 -5,-14 -2,-4 -10,-11 -2,-2 -18,-1 -3,-2 18,-20 54,2 33,-33 40,-5 17,-8 26,-25 71,-4 69,4 106,37 24,22 49,46 64,84 -55,-27 -186,-29 -209,31 32,3 21,-27 117,-29 75,-2 74,29 124,29 -13,-54 -41,-95 -83,-133 -16,-14 -23,-28 -35,-38 -20,-17 -30,-5 -58,-3 -15,1 -51,0 -64,8 -12,7 -20,34 -28,45 -12,19 -26,11 -38,34l0 1z"/>
    <path class="fil11" d="M16509 2610c43,-2 78,-10 117,7 68,30 44,53 86,56 -4,-35 -35,-55 -63,-69 -45,-24 -63,-17 -115,-15 38,-43 69,-22 69,-22 21,4 26,-9 44,-7 18,2 6,10 44,13 -8,24 -3,22 19,32 39,18 11,2 8,26 -2,14 12,21 17,42 6,28 -5,36 17,45 11,-26 3,-57 -9,-77 12,-12 10,-2 17,-21 -9,-15 -22,-23 -40,-31 18,-12 13,1 20,-21 -30,-18 -3,10 -33,-24 -24,-27 -30,4 -76,-10 -25,-8 -52,6 -83,23 -24,13 -37,22 -40,53l1 0z"/>
    <path class="fil11" d="M15226 2182c6,37 63,44 84,74 -24,3 -66,4 -86,18 7,26 11,9 33,32 -68,20 -44,97 -43,99 15,-10 16,-50 19,-72 51,-22 63,-16 78,-24 -4,-16 0,-11 -24,-17 -11,-3 -23,-7 -32,-10 26,-11 62,-9 85,-21 -3,-22 -36,-34 -65,-51 -3,-2 -10,-6 -13,-8 -12,-11 -3,-1 -11,-14 25,-2 85,-7 104,-15 -20,-12 -112,-1 -130,8l1 1z"/>
    <path class="fil3" d="M16115 3196c2,-31 -49,-33 -72,-34l38 16c15,7 22,13 34,18z"/>
   </g>
  </g>
 </g>
</svg>
