<?xml version="1.0" encoding="UTF-8"?>
<!DOCTYPE svg PUBLIC "-//W3C//DTD SVG 1.1//EN" "http://www.w3.org/Graphics/SVG/1.1/DTD/svg11.dtd">
<!-- Creator: CorelDRAW X6 -->
<svg xmlns="http://www.w3.org/2000/svg" xml:space="preserve" width="225.213mm" height="134.959mm" version="1.1" style="shape-rendering:geometricPrecision; text-rendering:geometricPrecision; image-rendering:optimizeQuality; fill-rule:evenodd; clip-rule:evenodd"
viewBox="0 0 22521 13496"
 xmlns:xlink="http://www.w3.org/1999/xlink">
 <defs>
  <style type="text/css">
   <![CDATA[
    .fil12 {fill:black}
    .fil11 {fill:#36100A}
    .fil1 {fill:#43381E}
    .fil8 {fill:#474D20}
    .fil0 {fill:#4A4F23}
    .fil2 {fill:#575D27}
    .fil9 {fill:#614233}
    .fil3 {fill:#702C09}
    .fil7 {fill:#914E24}
    .fil4 {fill:#AB8B66}
    .fil6 {fill:#C37109}
    .fil10 {fill:#CFD3C4}
    .fil5 {fill:#43381E;fill-rule:nonzero}
   ]]>
  </style>
 </defs>
 <g id="Слой_x0020_1">
  <metadata id="CorelCorpID_0Corel-Layer"/>
  <g id="_917471056">
   <g id="_827582496">
    <rect class="fil0" x="-4" y="14" width="22500" height="13500"/>
    <path class="fil1" d="M16214 5775l92 940c0,0 -295,-345 -442,-835 -147,-490 -189,-911 -92,-940 97,-29 392,326 442,835z"/>
    <path class="fil2" d="M16072 6183l-166 1259c0,0 -281,-541 -325,-1228 -44,-687 30,-1251 166,-1259 135,-9 414,546 325,1228z"/>
    <path class="fil3" d="M12621 2085c-345,60 -157,-208 -110,-370 18,-62 93,-74 177,-139 44,-34 110,-78 132,-160 46,-174 228,-334 380,-411 118,-59 222,-49 212,-80 -34,-102 136,84 76,18 -29,-32 -17,-50 -6,-44 12,6 33,15 60,25 10,4 -3,-49 8,-45 24,8 51,43 80,53 11,4 6,-32 17,-27 24,12 50,23 76,33 9,4 -15,-54 -7,-49 55,36 27,-32 46,-24 13,6 38,39 52,43 16,4 23,-21 33,-13 30,24 33,56 32,28 -2,-46 3,-65 35,-63 10,1 5,47 18,50 9,2 9,-51 20,-49 8,1 21,68 30,70 18,4 115,-51 137,-50 8,1 17,11 24,12 23,3 90,-47 108,-45 15,2 -37,50 -30,61 7,12 85,-43 117,-52 31,-8 -22,51 12,50 19,-1 127,-60 147,-59 21,1 -54,78 -33,81 26,4 116,-49 144,-43 15,3 -69,68 -54,72 31,8 236,-52 270,-43 19,5 -52,2 -33,8 31,11 136,17 169,27 23,7 -53,29 -32,37 17,7 69,3 88,8 38,11 -31,10 3,25 23,10 52,-4 82,8 17,7 35,15 53,24 79,40 60,178 87,209 64,73 344,191 394,397 60,244 192,405 116,758 -44,202 -365,725 -594,382 -135,-203 -641,48 -897,-83 -240,-124 -387,-61 -736,-308 -257,-182 -547,-144 -833,-318 -28,-17 -33,-13 -68,-7l-2 3z"/>
    <path class="fil4" d="M13614 2474c-231,-124 -72,-282 -254,-345 -64,-185 348,-217 398,-288 372,-530 1169,447 639,667 -81,34 -170,-152 -388,-137 -72,5 -86,30 -212,102 -38,22 -137,27 -183,2l0 -1z"/>
    <path class="fil1" d="M4781 15c839,326 1835,663 2794,960 1584,491 3236,842 4617,1092l122 -18 1466 495 6741 896 552 134 1396 244 6 2168 -2642 -708 -4446 -1121 -3911 -707c-2670,-569 -5457,-1330 -8027,-2288 -1068,-398 -2158,-830 -3230,-1171l4562 23 0 1z"/>
    <path class="fil5" d="M13795 9447c3,10 0,18 -10,23 -10,2 -18,-2 -23,-10l-310 -800 -3 -3c-2,0 -3,0 -4,-1 -1,-1 -2,-1 -4,-1 -8,0 -13,4 -13,13l0 742c0,17 -6,31 -18,43 -12,12 -26,18 -43,18 -17,0 -31,-6 -43,-18 -12,-12 -18,-26 -18,-43l0 -1473c0,-68 24,-125 71,-173 47,-47 105,-71 173,-71 68,0 125,24 173,71 47,47 71,105 71,173l0 475c0,56 -19,103 -58,142 -39,39 -86,58 -142,58 -54,0 -101,-19 -141,-58 -40,-39 -60,-86 -60,-142l0 -475c0,-12 6,-18 18,-18 12,0 18,6 18,18l0 475c0,46 16,85 48,117 32,32 71,48 117,48 46,0 85,-16 117,-48 32,-32 48,-71 48,-117l0 -475c0,-58 -20,-107 -61,-147 -41,-41 -90,-61 -147,-61 -58,0 -107,20 -147,61 -41,41 -61,90 -61,147l0 1473c0,17 8,25 25,25 17,0 25,-8 25,-25l0 -742c0,-14 5,-25 14,-34 9,-9 21,-14 34,-14 22,0 36,8 41,25l312 803 1 -1zm264 -922c-17,0 -31,-6 -43,-18 -12,-12 -18,-26 -18,-43l0 -528c0,-68 24,-125 71,-173 47,-47 105,-71 173,-71l229 0c12,0 18,6 18,18 0,12 -6,18 -18,18l-229 0c-58,0 -107,20 -147,61 -41,41 -61,90 -61,147l0 528c0,17 8,25 25,25l226 0c17,0 31,6 43,18 12,12 18,26 18,43 0,17 -6,31 -18,43 -12,12 -26,18 -43,18l-226 0c-17,0 -25,9 -25,28l0 587c0,58 20,107 61,147 41,41 90,61 147,61l229 0c12,0 18,6 18,18 0,12 -6,18 -18,18l-229 0c-68,0 -125,-24 -173,-71 -47,-47 -71,-105 -71,-173l0 -587c0,-19 6,-34 18,-46 12,-12 26,-18 43,-18l226 0c17,0 25,-8 25,-25 0,-17 -8,-25 -25,-25l-226 0zm1118 744c0,56 -20,103 -60,142 -40,39 -87,58 -141,58 -56,0 -103,-19 -142,-58 -39,-39 -58,-86 -58,-142l0 -676c0,-12 6,-18 18,-18 12,0 18,6 18,18l0 676c0,46 16,85 48,117 32,32 71,48 117,48 46,0 85,-16 117,-48 32,-32 48,-71 48,-117l0 -1334c0,-58 -20,-107 -61,-147 -41,-41 -90,-61 -147,-61l-183 0c-19,0 -28,8 -28,25l0 1699c0,12 -5,18 -15,18 -12,0 -18,-6 -18,-18l0 -1699c0,-17 6,-31 17,-43 11,-12 26,-18 44,-18l183 0c68,0 125,24 173,71 47,47 71,105 71,173l0 1334 -1 0zm927 -1577c68,0 125,24 173,71 47,47 71,105 71,173l0 475c0,56 -19,103 -58,142 -39,39 -86,58 -142,58 -54,0 -101,-19 -141,-58 -40,-39 -60,-86 -60,-142l0 -475c0,-12 6,-18 18,-18 12,0 18,6 18,18l0 475c0,46 16,85 48,117 32,32 71,48 117,48 46,0 85,-16 118,-48 33,-32 50,-71 50,-117l0 -475c0,-58 -20,-107 -61,-147 -41,-41 -91,-61 -150,-61 -58,0 -107,20 -147,61 -41,41 -61,90 -61,147l0 1516c0,12 -6,18 -18,18 -12,0 -18,-6 -18,-18l0 -1516c0,-68 24,-125 71,-173 47,-47 105,-71 173,-71l-1 0zm508 1778c-19,0 -33,-6 -44,-18 -11,-12 -17,-26 -17,-43l0 -1473c0,-68 24,-125 71,-173 47,-47 105,-71 173,-71 68,0 125,24 173,71 47,47 71,105 71,173l0 1516c0,12 -6,18 -18,18 -12,0 -18,-6 -18,-18l0 -1516c0,-58 -20,-107 -61,-147 -41,-41 -90,-61 -147,-61 -59,0 -109,20 -150,61 -41,41 -61,90 -61,147l0 1473c0,17 9,25 28,25 17,0 25,-8 25,-25l0 -772c0,-17 6,-31 18,-43 12,-12 26,-18 43,-18l191 0c12,0 18,6 18,18 0,12 -6,18 -18,18l-191 0c-17,0 -25,8 -25,25l0 772c0,17 -6,31 -18,43 -12,12 -26,18 -43,18zm1189 -1778c12,0 18,6 18,18l0 1712c0,14 -5,25 -14,34 -9,9 -21,14 -34,14 -10,0 -19,-3 -28,-10 -8,-7 -14,-15 -18,-25l-422 -1697c-2,-7 -6,-10 -13,-10 -8,0 -13,4 -13,13l0 1669c0,17 8,25 25,25 19,0 28,-8 28,-25l0 -815c0,-12 5,-18 15,-18 12,0 18,6 18,18l0 815c0,17 -6,31 -17,43 -11,12 -26,18 -44,18 -17,0 -31,-6 -43,-18 -12,-12 -18,-26 -18,-43l0 -1669c0,-14 5,-25 14,-34 9,-9 21,-14 34,-14 24,0 39,12 46,36l422 1699c2,5 6,8 13,8 8,0 13,-4 13,-13l0 -1712c0,-12 6,-18 18,-18l0 -1zm706 1577c0,56 -20,103 -60,142 -40,39 -87,58 -141,58 -56,0 -103,-19 -142,-58 -39,-39 -58,-86 -58,-142l0 -676c0,-12 6,-18 18,-18 12,0 18,6 18,18l0 676c0,46 16,85 48,117 32,32 71,48 117,48 46,0 85,-16 117,-48 32,-32 48,-71 48,-117l0 -1334c0,-58 -20,-107 -61,-147 -41,-41 -90,-61 -147,-61l-183 0c-19,0 -28,8 -28,25l0 1699c0,12 -5,18 -15,18 -12,0 -18,-6 -18,-18l0 -1699c0,-17 6,-31 17,-43 11,-12 26,-18 44,-18l183 0c68,0 125,24 173,71 47,47 71,105 71,173l0 1334 -1 0zm264 201c-19,0 -33,-6 -44,-18 -11,-12 -17,-26 -17,-43l0 -1473c0,-68 24,-125 71,-173 47,-47 105,-71 173,-71 68,0 125,24 173,71 47,47 71,105 71,173l0 1516c0,12 -6,18 -18,18 -12,0 -18,-6 -18,-18l0 -1516c0,-58 -20,-107 -61,-147 -41,-41 -90,-61 -147,-61 -59,0 -109,20 -150,61 -41,41 -61,90 -61,147l0 1473c0,17 9,25 28,25 17,0 25,-8 25,-25l0 -772c0,-17 6,-31 18,-43 12,-12 26,-18 43,-18l191 0c12,0 18,6 18,18 0,12 -6,18 -18,18l-191 0c-17,0 -25,8 -25,25l0 772c0,17 -6,31 -18,43 -12,12 -26,18 -43,18z"/>
    <path class="fil5" d="M13768 9439c3,10 0,18 -10,23 -10,2 -18,-2 -23,-10l-310 -800 -3 -3c-2,0 -3,0 -4,-1 -1,-1 -2,-1 -4,-1 -8,0 -13,4 -13,13l0 742c0,17 -6,31 -18,43 -12,12 -26,18 -43,18 -17,0 -31,-6 -43,-18 -12,-12 -18,-26 -18,-43l0 -1473c0,-68 24,-125 71,-173 47,-47 105,-71 173,-71 68,0 125,24 173,71 47,47 71,105 71,173l0 475c0,56 -19,103 -58,142 -39,39 -86,58 -142,58 -54,0 -101,-19 -141,-58 -40,-39 -60,-86 -60,-142l0 -475c0,-12 6,-18 18,-18 12,0 18,6 18,18l0 475c0,46 16,85 48,117 32,32 71,48 117,48 46,0 85,-16 117,-48 32,-32 48,-71 48,-117l0 -475c0,-58 -20,-107 -61,-147 -41,-41 -90,-61 -147,-61 -58,0 -107,20 -147,61 -41,41 -61,90 -61,147l0 1473c0,17 8,25 25,25 17,0 25,-8 25,-25l0 -742c0,-14 5,-25 14,-34 9,-9 21,-14 34,-14 22,0 36,8 41,25l312 803 1 -1zm264 -922c-17,0 -31,-6 -43,-18 -12,-12 -18,-26 -18,-43l0 -528c0,-68 24,-125 71,-173 47,-47 105,-71 173,-71l229 0c12,0 18,6 18,18 0,12 -6,18 -18,18l-229 0c-58,0 -107,20 -147,61 -41,41 -61,90 -61,147l0 528c0,17 8,25 25,25l226 0c17,0 31,6 43,18 12,12 18,26 18,43 0,17 -6,31 -18,43 -12,12 -26,18 -43,18l-226 0c-17,0 -25,9 -25,28l0 587c0,58 20,107 61,147 41,41 90,61 147,61l229 0c12,0 18,6 18,18 0,12 -6,18 -18,18l-229 0c-68,0 -125,-24 -173,-71 -47,-47 -71,-105 -71,-173l0 -587c0,-19 6,-34 18,-46 12,-12 26,-18 43,-18l226 0c17,0 25,-8 25,-25 0,-17 -8,-25 -25,-25l-226 0zm1118 744c0,56 -20,103 -60,142 -40,39 -87,58 -141,58 -56,0 -103,-19 -142,-58 -39,-39 -58,-86 -58,-142l0 -676c0,-12 6,-18 18,-18 12,0 18,6 18,18l0 676c0,46 16,85 48,117 32,32 71,48 117,48 46,0 85,-16 117,-48 32,-32 48,-71 48,-117l0 -1334c0,-58 -20,-107 -61,-147 -41,-41 -90,-61 -147,-61l-183 0c-19,0 -28,8 -28,25l0 1699c0,12 -5,18 -15,18 -12,0 -18,-6 -18,-18l0 -1699c0,-17 6,-31 17,-43 11,-12 26,-18 44,-18l183 0c68,0 125,24 173,71 47,47 71,105 71,173l0 1334 -1 0zm927 -1577c68,0 125,24 173,71 47,47 71,105 71,173l0 475c0,56 -19,103 -58,142 -39,39 -86,58 -142,58 -54,0 -101,-19 -141,-58 -40,-39 -60,-86 -60,-142l0 -475c0,-12 6,-18 18,-18 12,0 18,6 18,18l0 475c0,46 16,85 48,117 32,32 71,48 117,48 46,0 85,-16 118,-48 33,-32 50,-71 50,-117l0 -475c0,-58 -20,-107 -61,-147 -41,-41 -91,-61 -150,-61 -58,0 -107,20 -147,61 -41,41 -61,90 -61,147l0 1516c0,12 -6,18 -18,18 -12,0 -18,-6 -18,-18l0 -1516c0,-68 24,-125 71,-173 47,-47 105,-71 173,-71l-1 0zm508 1778c-19,0 -33,-6 -44,-18 -11,-12 -17,-26 -17,-43l0 -1473c0,-68 24,-125 71,-173 47,-47 105,-71 173,-71 68,0 125,24 173,71 47,47 71,105 71,173l0 1516c0,12 -6,18 -18,18 -12,0 -18,-6 -18,-18l0 -1516c0,-58 -20,-107 -61,-147 -41,-41 -90,-61 -147,-61 -59,0 -109,20 -150,61 -41,41 -61,90 -61,147l0 1473c0,17 9,25 28,25 17,0 25,-8 25,-25l0 -772c0,-17 6,-31 18,-43 12,-12 26,-18 43,-18l191 0c12,0 18,6 18,18 0,12 -6,18 -18,18l-191 0c-17,0 -25,8 -25,25l0 772c0,17 -6,31 -18,43 -12,12 -26,18 -43,18zm1189 -1778c12,0 18,6 18,18l0 1712c0,14 -5,25 -14,34 -9,9 -21,14 -34,14 -10,0 -19,-3 -28,-10 -8,-7 -14,-15 -18,-25l-422 -1697c-2,-7 -6,-10 -13,-10 -8,0 -13,4 -13,13l0 1669c0,17 8,25 25,25 19,0 28,-8 28,-25l0 -815c0,-12 5,-18 15,-18 12,0 18,6 18,18l0 815c0,17 -6,31 -17,43 -11,12 -26,18 -44,18 -17,0 -31,-6 -43,-18 -12,-12 -18,-26 -18,-43l0 -1669c0,-14 5,-25 14,-34 9,-9 21,-14 34,-14 24,0 39,12 46,36l422 1699c2,5 6,8 13,8 8,0 13,-4 13,-13l0 -1712c0,-12 6,-18 18,-18l0 -1zm706 1577c0,56 -20,103 -60,142 -40,39 -87,58 -141,58 -56,0 -103,-19 -142,-58 -39,-39 -58,-86 -58,-142l0 -676c0,-12 6,-18 18,-18 12,0 18,6 18,18l0 676c0,46 16,85 48,117 32,32 71,48 117,48 46,0 85,-16 117,-48 32,-32 48,-71 48,-117l0 -1334c0,-58 -20,-107 -61,-147 -41,-41 -90,-61 -147,-61l-183 0c-19,0 -28,8 -28,25l0 1699c0,12 -5,18 -15,18 -12,0 -18,-6 -18,-18l0 -1699c0,-17 6,-31 17,-43 11,-12 26,-18 44,-18l183 0c68,0 125,24 173,71 47,47 71,105 71,173l0 1334 -1 0zm264 201c-19,0 -33,-6 -44,-18 -11,-12 -17,-26 -17,-43l0 -1473c0,-68 24,-125 71,-173 47,-47 105,-71 173,-71 68,0 125,24 173,71 47,47 71,105 71,173l0 1516c0,12 -6,18 -18,18 -12,0 -18,-6 -18,-18l0 -1516c0,-58 -20,-107 -61,-147 -41,-41 -90,-61 -147,-61 -59,0 -109,20 -150,61 -41,41 -61,90 -61,147l0 1473c0,17 9,25 28,25 17,0 25,-8 25,-25l0 -772c0,-17 6,-31 18,-43 12,-12 26,-18 43,-18l191 0c12,0 18,6 18,18 0,12 -6,18 -18,18l-191 0c-17,0 -25,8 -25,25l0 772c0,17 -6,31 -18,43 -12,12 -26,18 -43,18z"/>
    <path class="fil5" d="M13179 12800c0,53 -12,98 -37,133 -28,40 -66,60 -115,60 -49,0 -87,-20 -115,-60 -25,-36 -37,-80 -37,-133 0,-53 12,-97 37,-133 28,-40 66,-60 115,-60 49,0 87,20 115,60 24,35 37,80 37,133zm-45 0c0,-39 -9,-74 -27,-103 -20,-33 -47,-50 -80,-50 -33,0 -60,16 -80,50 -18,30 -27,64 -27,103 0,39 9,74 27,104 20,33 47,50 80,50 33,0 60,-17 80,-50 18,-30 27,-64 27,-104zm561 78c0,32 -11,60 -34,83 -24,24 -52,36 -85,36 -49,0 -85,-22 -107,-65 -16,-32 -24,-73 -24,-123 0,-52 14,-97 43,-134 32,-41 75,-62 130,-62l46 0 0 42 -36 0c-47,0 -82,16 -106,49 -19,26 -30,59 -31,99 32,-22 62,-32 89,-32 30,0 57,9 79,28 24,21 36,47 36,79zm-43 -1c0,-20 -7,-36 -22,-48 -14,-11 -31,-17 -51,-17 -17,0 -33,5 -49,14 -16,9 -28,20 -35,33 1,24 9,45 23,63 16,21 36,31 59,31 21,0 39,-8 54,-23 14,-15 22,-33 22,-53l-1 0zm438 105l-47 0 0 -308 -39 36 -23 -24 65 -62 44 0 0 357 0 1zm713 -90c0,25 -10,48 -31,68 -23,22 -54,34 -91,34 -38,0 -68,-11 -91,-33 -20,-19 -31,-42 -31,-69 0,-25 9,-46 26,-65 9,-10 28,-24 57,-43 -46,-30 -70,-59 -70,-87 0,-30 11,-52 33,-68 19,-14 45,-21 76,-21 31,0 56,7 76,21 22,16 32,38 32,68 0,29 -23,58 -69,87 29,19 48,33 57,43 17,19 26,40 26,65zm-55 -195c0,-17 -7,-30 -22,-40 -13,-8 -27,-12 -45,-12 -17,0 -32,4 -45,12 -15,10 -22,23 -22,40 0,22 22,44 67,67 45,-23 67,-45 67,-67zm13 195c0,-29 -27,-58 -80,-87 -53,29 -80,58 -80,87 0,14 7,28 20,42 16,16 36,24 60,24 24,0 44,-8 60,-23 14,-13 20,-27 20,-42l0 -1zm743 17l-64 0 0 73 -44 0 0 -73 -177 0c18,-86 38,-183 59,-291l44 0c-8,51 -24,135 -47,250l122 0 0 -124 44 0 0 124 64 0 0 41 -1 0zm526 73l-47 0 0 -308 -39 36 -23 -24 65 -62 44 0 0 357 0 1zm587 -183c0,53 -12,98 -37,133 -28,40 -66,60 -115,60 -49,0 -87,-20 -115,-60 -25,-36 -37,-80 -37,-133 0,-53 12,-97 37,-133 28,-40 66,-60 115,-60 49,0 87,20 115,60 24,35 37,80 37,133zm-45 0c0,-39 -9,-74 -27,-103 -20,-33 -47,-50 -80,-50 -33,0 -60,16 -80,50 -18,30 -27,64 -27,103 0,39 9,74 27,104 20,33 47,50 80,50 33,0 60,-17 80,-50 18,-30 27,-64 27,-104zm759 0c0,53 -12,98 -37,133 -28,40 -66,60 -115,60 -49,0 -87,-20 -115,-60 -25,-36 -37,-80 -37,-133 0,-53 12,-97 37,-133 28,-40 66,-60 115,-60 49,0 87,20 115,60 24,35 37,80 37,133zm-45 0c0,-39 -9,-74 -27,-103 -20,-33 -47,-50 -80,-50 -33,0 -60,16 -80,50 -18,30 -27,64 -27,103 0,39 9,74 27,104 20,33 47,50 80,50 33,0 60,-17 80,-50 18,-30 27,-64 27,-104zm561 -4c0,52 -14,97 -42,135 -31,42 -71,63 -122,63 -23,0 -44,-2 -64,-6l0 -43c24,4 42,6 54,6 40,0 72,-15 95,-46 20,-27 31,-62 32,-104 -32,22 -62,33 -89,33 -34,0 -62,-11 -83,-32 -21,-22 -32,-49 -32,-83 0,-34 13,-61 38,-82 24,-19 52,-29 87,-29 43,0 76,22 99,65 18,34 27,75 27,123zm-50 -51c-1,-21 -9,-42 -23,-61 -15,-21 -33,-32 -53,-32 -21,0 -40,6 -55,17 -17,13 -26,29 -26,50 0,20 7,37 21,52 14,14 31,21 52,21 16,0 32,-5 48,-13 16,-9 28,-20 36,-33l0 -1zm620 55c0,53 -12,98 -37,133 -28,40 -66,60 -115,60 -49,0 -87,-20 -115,-60 -25,-36 -37,-80 -37,-133 0,-53 12,-97 37,-133 28,-40 66,-60 115,-60 49,0 87,20 115,60 24,35 37,80 37,133zm-45 0c0,-39 -9,-74 -27,-103 -20,-33 -47,-50 -80,-50 -33,0 -60,16 -80,50 -18,30 -27,64 -27,103 0,39 9,74 27,104 20,33 47,50 80,50 33,0 60,-17 80,-50 18,-30 27,-64 27,-104zm384 78c0,32 -11,60 -34,83 -24,24 -52,36 -85,36 -49,0 -85,-22 -107,-65 -16,-32 -24,-73 -24,-123 0,-52 14,-97 43,-134 32,-41 75,-62 130,-62l46 0 0 42 -36 0c-47,0 -82,16 -106,49 -19,26 -30,59 -31,99 32,-22 62,-32 89,-32 30,0 57,9 79,28 24,21 36,47 36,79zm-43 -1c0,-20 -7,-36 -22,-48 -14,-11 -31,-17 -51,-17 -17,0 -33,5 -49,14 -16,9 -28,20 -35,33 1,24 9,45 23,63 16,21 36,31 59,31 21,0 39,-8 54,-23 14,-15 22,-33 22,-53l-1 0zm563 -215c-24,28 -48,57 -73,85 -31,37 -54,69 -69,98 -20,39 -31,77 -31,114 0,9 1,16 2,23l-49 0c-1,-8 -2,-16 -2,-23 0,-39 9,-78 28,-117 14,-29 36,-61 64,-97 23,-28 46,-56 69,-83l-175 0 0 -44 235 0 0 44 1 0zm499 229c0,25 -10,48 -31,68 -23,22 -54,34 -91,34 -38,0 -68,-11 -91,-33 -20,-19 -31,-42 -31,-69 0,-25 9,-46 26,-65 9,-10 28,-24 57,-43 -46,-30 -70,-59 -70,-87 0,-30 11,-52 33,-68 19,-14 45,-21 76,-21 31,0 56,7 76,21 22,16 32,38 32,68 0,29 -23,58 -69,87 29,19 48,33 57,43 17,19 26,40 26,65zm-55 -195c0,-17 -7,-30 -22,-40 -13,-8 -27,-12 -45,-12 -17,0 -32,4 -45,12 -15,10 -22,23 -22,40 0,22 22,44 67,67 45,-23 67,-45 67,-67zm13 195c0,-29 -27,-58 -80,-87 -53,29 -80,58 -80,87 0,14 7,28 20,42 16,16 36,24 60,24 24,0 44,-8 60,-23 14,-13 20,-27 20,-42l0 -1z"/>
    <rect class="fil1" x="13301" y="9459" width="115" height="3060"/>
    <polygon class="fil1" points="13728,9459 13812,9459 13812,12519 13728,12519 "/>
    <polygon class="fil1" points="13843,9459 13927,9459 13927,12519 13843,12519 "/>
    <polygon class="fil1" points="13967,9459 14050,9459 14050,12519 13967,12519 "/>
    <polygon class="fil1" points="14178,9459 14390,9459 14390,12519 14178,12519 "/>
    <polygon class="fil1" points="14425,9449 14488,9449 14488,12537 14425,12537 "/>
    <polygon class="fil1" points="14668,9459 14721,9459 14721,12519 14668,12519 "/>
    <polygon class="fil1" points="14831,9459 14884,9459 14884,12519 14831,12519 "/>
    <polygon class="fil1" points="14950,9459 15003,9459 15003,12519 14950,12519 "/>
    <polygon class="fil1" points="15038,9459 15250,9459 15250,12519 15038,12519 "/>
    <polygon class="fil1" points="15276,9459 15360,9459 15360,12519 15276,12519 "/>
    <polygon class="fil1" points="15585,9459 15638,9459 15638,12519 15585,12519 "/>
    <polygon class="fil1" points="15836,9455 15889,9455 15889,12516 15836,12516 "/>
    <polygon class="fil1" points="16498,9459 16582,9459 16582,12519 16498,12519 "/>
    <polygon class="fil1" points="16612,9459 16696,9459 16696,12519 16612,12519 "/>
    <polygon class="fil1" points="16167,9459 16220,9459 16220,12519 16167,12519 "/>
    <polygon class="fil1" points="16286,9459 16339,9459 16339,12519 16286,12519 "/>
    <polygon class="fil1" points="16370,9459 16423,9459 16423,12519 16370,12519 "/>
    <polygon class="fil1" points="17219,9416 17272,9416 17272,12513 17219,12513 "/>
    <polygon class="fil1" points="17311,9416 17364,9416 17364,12513 17311,12513 "/>
    <polygon class="fil1" points="17995,9416 18048,9416 18048,12513 17995,12513 "/>
    <path class="fil6" d="M19029 4347c11,15 8,36 10,60 2,22 6,41 12,64 10,40 22,75 31,115 13,54 -4,216 -23,259 -41,-2 -45,-51 -77,-77 6,85 23,127 7,220 -47,-3 -58,-75 -111,-124 0,30 46,250 -1,296 -24,-12 -38,-68 -51,-96 -2,39 2,82 0,122 -1,21 -3,40 -6,60l-7 40c-4,10 -2,7 -7,13 -44,-25 -57,-102 -89,-132 0,68 12,156 -17,211 -11,-15 -6,-5 2,-49 12,-64 -1,-141 1,-204 40,19 56,117 99,145 10,-94 6,-164 8,-258 22,9 11,-1 36,57 10,23 15,46 28,62 24,-212 -15,-183 -11,-294 50,8 80,107 114,127 10,-149 -23,-191 -16,-241 33,5 59,76 86,98 10,-20 16,-87 21,-114 8,-47 6,-87 -6,-131 -15,-56 -53,-172 -33,-230l0 1zm-1073 -2115c41,-18 156,29 202,42 35,9 68,17 103,27 216,61 -31,85 -49,95 44,25 377,69 447,134l-3 32c-34,9 -80,5 -119,7 64,38 149,68 235,120 26,15 66,30 45,66 -22,11 -57,3 -84,5 1,1 3,1 4,3l77 36c76,37 111,78 172,122 18,13 25,14 17,45 -31,16 -77,6 -114,4 20,31 112,70 156,145 13,23 32,40 30,71 -21,17 -20,8 -46,19 -2,1 -4,2 -5,2 -1,1 -4,2 -5,3 28,13 41,30 59,60 16,28 27,44 16,62l-16 15c-1,1 -2,2 -4,3 16,31 52,49 48,82 -2,15 1,8 -12,24 -1,1 -2,2 -3,3 -1,1 -2,2 -3,3 41,42 55,47 87,107 19,34 60,98 61,135 -58,-8 -87,-106 -119,-154 -37,-55 -168,-126 -58,-130 -21,-48 -68,-43 -25,-111 -44,-85 -169,-101 -137,-148 9,-10 -10,-2 15,-10 11,-4 16,-3 28,-3 17,1 37,4 55,5 -17,-50 -69,-85 -109,-113 -88,-61 -122,-44 -119,-99 36,-31 76,-14 133,-14 -58,-71 -174,-111 -259,-140 -38,-13 -82,-17 -68,-63 25,-13 99,-5 136,-6l-239 -118c-38,-15 -69,-16 -63,-60 32,-18 66,-10 111,-13 -141,-70 -462,-68 -430,-135 12,-26 108,-37 141,-50 -42,-16 -109,-29 -156,-44 -27,-9 -50,-17 -77,-23 -35,-9 -57,-5 -58,-39l2 -4zm-2064 980c20,12 12,5 35,1 2,63 -44,179 -33,226 29,13 34,3 49,-14 6,92 -82,440 -141,537 -13,21 -30,38 -40,60 45,26 45,47 5,104 -20,28 -47,67 -66,90 30,25 80,10 37,116 -21,51 -25,96 -40,148 -20,66 -68,120 -102,174 -21,32 13,20 -2,68 -7,23 -49,91 -65,118 -37,66 -15,73 -7,147 10,95 81,110 158,123 25,4 42,18 72,21 61,7 106,-2 140,43 67,89 -28,176 -106,222 -56,33 -88,13 -141,47 -20,13 -29,28 -47,41 -45,34 -142,78 -199,83 -68,7 -175,-12 -220,-63 -13,-15 -23,-44 -33,-60 -165,77 -224,341 -158,510 25,-30 16,-92 59,-119 42,12 23,45 11,77 -13,35 -13,78 -11,119 29,16 42,38 90,44 119,16 183,-24 193,-145 3,-31 -4,-42 30,-41 12,30 9,74 0,107 -10,35 -32,67 -35,85 105,-10 216,-81 273,-158 60,-81 37,-96 62,-155 12,-29 30,-36 43,-64 14,-29 18,-51 34,-77 17,-26 27,-37 45,-61l127 -202c21,-49 64,-74 93,-125 17,-29 17,-47 24,-82 8,-43 -1,-69 44,-66 8,9 13,13 15,31 36,-55 21,-167 52,-212 54,-10 47,40 51,87l14 -17c62,-97 113,-242 158,-347 43,-101 89,-160 128,-272 10,-30 19,-79 30,-105 12,-30 14,-12 18,-46 11,-90 41,-184 59,-275 8,-41 10,-74 21,-115 9,-34 17,-66 30,-99 24,-62 -6,-131 27,-173 28,-36 -9,-112 27,-142l20 -11c1,0 3,-1 4,-2 -35,-195 -3,-225 -1,-347 1,-56 -15,-77 47,-53 -6,-74 -52,-117 10,-137 19,-6 0,5 12,-5 -76,-133 -54,-139 -85,-206 -58,-126 -141,-355 82,-371 101,-8 162,26 200,89 19,31 34,65 54,93 39,53 79,121 126,168 143,141 147,183 241,347 18,31 37,60 54,93 71,135 162,212 232,355 55,111 141,302 166,421 39,187 21,160 80,360 11,38 19,81 31,116 37,102 26,97 47,170 10,34 15,27 27,50 27,55 17,205 21,275 16,-15 20,-28 45,-19 36,12 36,131 44,164 46,213 51,219 127,414 14,35 22,70 25,109 7,106 -42,91 12,153 8,9 16,20 22,31 115,187 22,210 118,410 17,35 24,32 48,57 54,57 89,117 166,157 55,28 130,12 148,-42 9,-27 10,-59 18,-87 23,-82 57,-163 79,-245 8,-30 4,-67 12,-94 6,-21 19,-49 27,-78 31,-106 63,-213 108,-315 16,-37 158,-182 194,-234 10,-14 13,-18 18,-35 16,-52 70,-81 76,-142 4,-40 -7,-22 10,-42 19,-21 21,-10 11,-90 -9,-76 -22,-138 20,-179 -1,-30 -21,-89 0,-111 18,-19 19,15 25,-40 17,-144 -22,-16 -7,-159 11,-103 67,-213 69,-312 2,-153 -51,-189 -15,-217 31,-25 64,46 106,60 18,-111 -64,-262 -51,-297 30,-53 69,37 98,50 2,-138 -29,-286 -62,-405 -17,-61 -42,-110 -61,-169 -45,-139 -93,-284 -181,-400 -7,-9 -45,-62 -48,-70 -17,-40 -3,-42 -35,-77 -98,-110 -209,-84 -158,-161 -54,-50 -192,-44 -134,-121 -39,-9 -153,-12 -177,-23 -14,-6 -11,-4 -17,-17l-10 -26c-46,2 -175,35 -188,-30 -2,-9 0,-26 -6,-31 -103,-28 -253,-19 -329,-85 -4,-49 8,-49 28,-71 -74,-10 -174,13 -236,-11 -3,-46 9,-25 26,-55 -54,3 -132,33 -177,8 4,-27 -2,-14 16,-26l28 -20c-33,1 -181,12 -205,-8 -42,-35 -185,-66 -244,-73 -78,-10 -161,-14 -237,-27 -126,-21 -77,-25 -234,-33 -83,-4 -172,1 -253,-9 -80,-10 -145,-32 -220,-46 -157,-30 -333,-24 -486,10 -160,36 -238,96 -285,243 -22,70 -26,164 -17,243 17,142 120,226 165,363 50,153 110,407 42,559 -9,20 -33,83 -34,102z"/>
    <path class="fil7" d="M13866 6727c55,-4 56,-28 63,-80 3,-23 11,-43 13,-59 3,-22 -5,-43 -6,-65 61,-52 42,-4 87,-7 32,-2 37,-45 46,-77 20,-75 12,-149 20,-226 9,-86 25,-129 4,-222 -14,-60 -11,-45 -46,-78 -27,-25 -68,-20 -52,-58 35,-22 50,8 79,14 5,-92 -160,-133 -166,-245 -3,-51 23,-58 50,-83 19,-18 14,-24 30,-40 16,-16 20,-8 24,-48 3,-37 -43,-174 -53,-221 -8,-35 -8,-80 -23,-111 -31,-65 -28,-158 -45,-231 -51,-230 -67,-220 -145,-407 -22,-54 -61,-150 -97,-179 -180,-149 -111,-123 -337,-215 -129,-52 -327,-201 -380,-102 -17,33 -18,86 -1,118 10,19 61,58 69,66 20,20 12,75 27,114 15,38 28,55 49,87 95,146 84,246 110,442 18,-12 20,-23 50,-20 44,43 2,144 -6,209l8 5c1,1 3,2 4,2 26,17 29,29 20,81 -6,33 -20,67 -23,99 43,22 37,32 50,84 25,97 43,125 67,203 38,124 59,165 162,243 103,78 64,135 104,160 48,30 133,33 143,126 8,77 0,180 -20,250 -25,86 -55,51 -92,178 -10,33 -26,71 -29,108 -2,24 1,36 -9,55 -11,21 -17,19 -25,39 14,37 42,71 85,74 1,-32 -15,-42 -3,-73 14,-2 19,-9 45,24 17,22 5,29 29,42 27,15 85,27 120,24z"/>
    <path class="fil8" d="M16735 3505c2,166 -23,53 -23,159 0,44 -25,97 -36,143 -10,40 -27,113 -50,133 -17,14 -16,-7 -31,57 -6,25 -10,59 -13,86 76,-15 137,30 210,44 141,26 255,38 368,148 51,50 77,87 124,135 106,109 88,90 220,162 27,15 52,31 86,43 70,25 122,41 189,70 37,16 188,37 224,27 3,-129 -4,-29 -42,-115 -54,-124 -49,-102 -61,-253 -33,19 -45,62 -94,54 -49,-47 -23,-204 -76,-269 -12,16 -5,26 -23,36 -42,23 -62,-58 -80,-105 -12,-32 -25,-56 -33,-91 -26,-125 -97,-99 -205,-177 -47,-34 -220,-209 -255,-256 -20,-26 -34,-50 -55,-74 -18,-22 -44,-44 -62,-68 -78,-100 3,-21 -117,-136 -24,-23 -38,-46 -62,-67 -23,-21 -47,-37 -66,-63 -1,1 -3,1 -3,4 0,2 -2,3 -3,4 -21,30 -14,47 -13,93 2,155 64,241 -1,268l-19 8 2 0z"/>
    <path class="fil3" d="M16949 5767c48,12 50,-2 74,-27 63,-64 58,-111 124,-193 21,-27 82,-96 93,-119 49,-111 -55,-321 -95,-415 -37,-87 4,-20 -64,-147 -49,-92 -54,-99 -137,-180 -53,-51 -223,-114 -331,-83 -115,33 -175,131 -168,254 6,99 12,89 50,160 80,148 137,277 209,426 11,-25 2,-26 27,-37 35,20 56,147 95,184l15 -28c87,2 89,169 107,206l1 -1z"/>
    <path class="fil9" d="M19690 2598c41,14 148,119 173,150 38,49 79,142 136,199 73,72 196,196 318,142 95,-41 151,-38 164,-89 6,-25 15,-43 11,-70 -23,-130 -144,-129 -158,-172 -7,-22 16,-17 -40,-40 -47,-19 -111,-28 -126,-44 -25,-26 8,-20 -47,-35 -89,-26 -139,-20 -198,-48 -33,-16 -192,4 -232,8l-1 -1z"/>
    <path class="fil7" d="M17210 6680c39,-6 44,8 69,10 61,5 61,-106 74,-167 19,-88 50,-156 83,-234 16,-40 71,-242 -9,-233 -23,3 -65,57 -84,75 -50,49 -96,129 -121,202 -19,57 -72,168 -106,211 -38,49 -78,22 -98,61 -30,60 13,211 59,237 45,26 88,-3 108,-29 22,-27 2,-93 24,-134l1 1z"/>
    <path class="fil7" d="M13567 2636c6,19 10,47 43,62 14,6 7,-4 28,7 19,15 -8,26 63,61 27,14 169,61 192,56 48,-11 102,-87 65,-161 -19,-38 -33,-37 -73,-57 -107,-53 -81,-17 -155,-98 -110,-4 -108,98 -164,130l1 0z"/>
    <path class="fil7" d="M14265 2790l17 -24c22,-1 46,-3 64,-9 23,-7 2,1 21,-13 19,-14 13,-3 33,-20 22,-19 69,-38 78,-52 11,-77 -54,-110 -109,-134 -86,-36 -118,3 -187,31 -62,25 -114,75 -90,146 23,68 97,65 174,74l-1 1z"/>
    <path class="fil6" d="M13824 2459c9,50 118,79 177,76 53,-3 96,-30 143,-50 27,-11 30,-8 33,-32 -70,-41 -156,80 -313,27 -20,-7 -23,-13 -39,-21l-1 0z"/>
    <path class="fil7" d="M13875 2449c5,8 -8,16 49,19 51,3 62,1 108,-12 23,-7 29,-6 41,-21l-197 14 -1 0z"/>
    <path class="fil9" d="M14016 1809c94,5 88,53 120,113 12,23 25,51 25,79 0,86 -72,157 -161,157 -89,0 -161,-70 -161,-157 0,-30 40,-49 54,-73 28,-45 26,-125 123,-120l0 1z"/>
    <path class="fil4" d="M12480 876l102 -80c167,-59 199,-28 423,33l398 114c-25,17 38,-1 11,17 -33,21 -145,23 -180,46 -113,73 -241,209 -311,299 -126,191 -80,178 -242,256l14 -90 -105 -311 -55 -57 -54 -225 -1 -2z"/>
    <path class="fil4" d="M15611 918l-51 -133c-127,-28 -115,-6 -339,55l-234 141 -45 8c44,51 107,90 149,140 24,28 41,60 58,93 58,109 336,296 445,382l-60 -148 22 -201 37 -207 19 -131 -1 1z"/>
    <path class="fil10" d="M14732 1815c1,42 22,325 15,348 -39,116 -397,512 -8,477 187,-17 219,27 287,22 112,-9 181,-116 181,-221 0,-88 -46,-161 -27,-261 6,-33 -40,-166 -52,-204 -46,-138 -252,-393 -374,-376 -23,3 -37,24 -32,67 11,84 8,31 11,148l-1 0z"/>
    <path class="fil10" d="M13339 1833c-1,42 -106,307 -98,330 39,116 410,181 22,146 -187,-17 -219,27 -287,22 -112,-9 -181,-116 -181,-221 0,-88 33,169 14,70 -6,-33 40,-166 52,-204 46,-138 252,-393 374,-376 23,3 37,24 32,67 -11,84 75,48 73,165l-1 1z"/>
    <path class="fil11" d="M17210 6680c-22,42 -3,107 -24,134 -20,25 -63,54 -108,29 -46,-26 -90,-177 -59,-237 20,-39 59,-12 98,-61 34,-43 86,-154 106,-211 25,-74 71,-153 121,-202 18,-18 60,-73 84,-75 80,-9 26,193 9,233 -32,78 -64,146 -83,234 -13,61 -14,172 -74,167 -25,-2 -30,-16 -69,-10l-1 -1zm-262 -912c-17,-37 -20,-204 -107,-206l-15 28c-39,-36 -59,-163 -95,-184 -25,11 -16,12 -27,37 -72,-150 -129,-279 -209,-426 -38,-71 -44,-61 -50,-160 -8,-123 52,-221 168,-254 108,-31 278,33 331,83 84,81 89,88 137,180 67,127 27,61 64,147 40,94 144,304 95,415 -10,23 -71,92 -93,119 -65,83 -60,129 -124,193 -25,25 -27,38 -74,27l-1 1zm-2875 103c-29,-7 -44,-37 -79,-14 -16,39 25,33 52,58 35,33 32,18 46,78 22,92 5,136 -4,222 -8,77 -1,151 -20,226 -8,32 -14,74 -46,77 -45,3 -27,-45 -87,7 1,22 9,43 6,65 -2,16 -10,36 -13,59 -7,52 -8,77 -63,80 -36,2 -93,-9 -120,-24 -23,-13 -11,-20 -29,-42 -26,-33 -30,-26 -45,-24 -12,31 4,42 3,73 -44,-4 -72,-37 -85,-74 8,-20 15,-17 25,-39 10,-19 7,-31 9,-55 3,-36 19,-75 29,-108 37,-127 68,-91 92,-178 20,-70 28,-173 20,-250 -10,-94 -94,-96 -143,-126 -40,-25 -1,-82 -104,-160 -103,-79 -124,-120 -162,-243 -24,-78 -42,-106 -67,-203 -13,-52 -7,-62 -50,-84 3,-32 17,-65 23,-99 9,-53 5,-65 -20,-81 -1,-1 -3,-2 -4,-2l-8 -5c9,-65 50,-166 6,-209 -31,-2 -32,9 -50,20 -26,-196 -15,-296 -110,-442 -20,-31 -34,-48 -49,-87 -15,-39 -7,-94 -27,-114 -8,-8 -59,-47 -69,-66 -16,-32 -16,-86 1,-118 53,-99 250,50 380,102 226,91 158,66 337,215 35,29 74,126 97,179 79,187 94,177 145,407 16,74 13,167 45,231 15,31 15,76 23,111 10,46 57,184 53,221 -4,40 -8,32 -24,48 -16,16 -11,23 -30,40 -27,25 -52,32 -50,83 6,112 170,153 166,245zm3517 -1256c-34,-12 -59,-28 -86,-43 -131,-72 -114,-53 -220,-162 -47,-48 -73,-85 -124,-135 -113,-110 -228,-122 -368,-148 -73,-13 -134,-58 -210,-44 2,-27 7,-62 13,-86 15,-65 14,-43 31,-57 23,-20 40,-93 50,-133 12,-46 37,-99 36,-143 0,-106 25,8 23,-159l19 -8c65,-27 3,-113 1,-268 -1,-46 -8,-63 13,-93 1,-1 3,-1 3,-4 0,-2 2,-3 3,-4 19,26 42,42 66,63 24,21 38,44 62,67 119,115 39,36 117,136 18,23 44,46 62,68 20,24 35,48 55,74 36,47 209,222 255,256 108,77 179,52 205,177 7,35 20,59 33,91 18,47 38,128 80,105 18,-10 10,-19 23,-36 53,65 27,222 76,269 49,8 61,-35 94,-54 11,151 6,129 61,253 38,86 45,-14 42,115 -36,10 -186,-11 -224,-27 -66,-29 -119,-45 -189,-70l-2 0zm-3326 -1825c-76,-9 -151,-7 -174,-74 -24,-71 28,-121 90,-146 69,-28 101,-67 187,-31 55,23 120,57 109,134 -8,14 -55,33 -78,52 -20,17 -14,5 -33,20 -18,14 2,6 -21,13 -19,6 -43,8 -64,9l-17 24 1 -1zm-698 -154c55,-31 54,-134 164,-130 74,81 48,45 155,98 39,19 54,18 73,57 37,74 -17,150 -65,161 -24,5 -165,-42 -192,-56 -71,-35 -44,-46 -63,-61 -21,-11 -14,-1 -28,-7 -33,-14 -36,-43 -43,-62l-1 0zm6766 122c15,43 136,42 158,172 5,27 -5,45 -11,70 -13,51 -68,47 -164,89 -123,53 -246,-70 -318,-142 -57,-57 -98,-150 -136,-199 -25,-31 -131,-137 -173,-150 39,-4 198,-24 232,-8 59,28 109,22 198,48 55,16 22,10 47,35 15,16 80,25 126,44 56,23 33,19 40,40l1 1zm-6509 -299c17,8 19,14 39,21 157,53 243,-68 313,-27 -3,24 -6,21 -33,32 -47,20 -90,47 -143,50 -59,4 -167,-26 -177,-76l1 0zm249 -24c-12,15 -18,14 -41,21 -46,13 -57,15 -108,12 -57,-4 -43,-11 -49,-19l197 -14 1 0zm1819 776c1,-19 25,-83 34,-102 68,-151 8,-406 -42,-559 -45,-138 -148,-221 -165,-363 -9,-79 -5,-173 17,-243 47,-146 125,-207 285,-243 153,-34 328,-39 486,-10 75,14 140,36 220,46 81,10 170,5 253,9 156,8 107,12 234,33 76,13 159,17 237,27 59,8 202,39 244,73 24,20 172,8 205,8l-28 20c-18,11 -12,-1 -16,26 45,25 123,-5 177,-8 -16,30 -29,9 -26,55 61,24 162,1 236,11 -21,22 -32,22 -28,71 76,66 226,57 329,85 6,5 5,21 6,31 13,65 142,33 188,30l10 26c6,14 3,11 17,17 25,11 138,14 177,23 -58,78 81,72 134,121 -51,77 60,52 158,161 31,35 18,36 35,77 3,8 41,61 48,70 88,116 136,261 181,400 19,60 44,108 61,169 33,119 64,267 62,405 -29,-14 -68,-103 -98,-50 -12,35 69,186 51,297 -42,-13 -75,-84 -106,-60 -36,28 17,63 15,217 -1,99 -58,209 -69,312 -15,143 24,15 7,159 -6,55 -7,21 -25,40 -21,22 -1,81 0,111 -42,41 -29,103 -20,179 9,81 7,69 -11,90 -17,19 -6,2 -10,42 -5,60 -59,90 -76,142 -5,17 -9,21 -18,35 -36,53 -178,197 -194,234 -44,102 -77,209 -108,315 -9,30 -21,57 -27,78 -8,27 -4,65 -12,94 -21,82 -55,162 -79,245 -8,28 -9,60 -18,87 -18,54 -93,70 -148,42 -77,-40 -112,-99 -166,-157 -24,-26 -31,-23 -48,-57 -96,-200 -3,-223 -118,-410 -6,-11 -14,-22 -22,-31 -54,-62 -6,-47 -12,-153 -3,-39 -11,-74 -25,-109 -76,-195 -81,-200 -127,-414 -7,-33 -7,-152 -44,-164 -25,-8 -28,5 -45,19 -3,-71 7,-220 -21,-275 -12,-24 -17,-16 -27,-50 -21,-72 -10,-68 -47,-170 -13,-35 -20,-78 -31,-116 -59,-200 -41,-173 -80,-360 -25,-119 -112,-310 -166,-421 -70,-143 -162,-220 -232,-355 -17,-33 -36,-62 -54,-93 -94,-163 -98,-206 -241,-347 -47,-46 -87,-115 -126,-168 -21,-28 -35,-61 -54,-93 -38,-63 -99,-97 -200,-89 -224,17 -141,245 -82,371 31,67 9,74 85,206 -13,10 6,-2 -12,5 -61,20 -16,63 -10,137 -62,-24 -46,-3 -47,53 -2,121 -33,151 1,347 -1,1 -3,2 -4,2l-20 11c-37,31 0,107 -27,142 -32,42 -2,112 -27,173 -13,33 -21,65 -30,99 -11,41 -13,74 -21,115 -19,91 -48,184 -59,275 -4,34 -6,16 -18,46 -11,27 -19,75 -30,105 -38,112 -85,170 -128,272 -44,105 -95,250 -158,347l-14 17c-3,-47 3,-98 -51,-87 -30,45 -16,157 -52,212 -2,-17 -7,-22 -15,-31 -45,-3 -35,23 -44,66 -7,35 -7,53 -24,82 -29,50 -72,76 -93,125l-127 202c-18,24 -28,34 -45,61 -16,26 -20,48 -34,77 -13,27 -30,35 -43,64 -25,59 -2,74 -62,155 -57,77 -168,149 -273,158 4,-18 26,-50 35,-85 9,-33 11,-77 0,-107 -34,-1 -27,9 -30,41 -10,121 -73,161 -193,145 -48,-6 -60,-28 -90,-44 -2,-40 -2,-83 11,-119 12,-32 31,-66 -11,-77 -43,28 -34,89 -59,119 -66,-169 -7,-433 158,-510 11,16 20,45 33,60 45,51 152,69 220,63 58,-6 154,-50 199,-83 18,-13 26,-28 47,-41 53,-34 85,-14 141,-47 79,-46 173,-133 106,-222 -34,-46 -79,-37 -140,-43 -30,-3 -47,-17 -72,-21 -78,-14 -148,-28 -158,-123 -8,-74 -30,-80 7,-147 15,-27 57,-94 65,-118 15,-48 -19,-35 2,-68 35,-54 83,-108 102,-174 15,-52 20,-97 40,-148 43,-106 -8,-91 -37,-116 20,-23 47,-62 66,-90 40,-57 41,-79 -5,-104 10,-22 27,-40 40,-60 59,-97 147,-445 141,-537 -15,17 -21,26 -49,14 -11,-47 35,-163 33,-226 -24,4 -16,10 -35,-1zm5870 2449c-15,-6 -34,-11 -49,-16 -34,-10 -74,-14 -110,-19 -143,-21 -286,-55 -424,-93 -79,-22 -167,-43 -243,-75l-149 -45c-70,-18 -135,-33 -204,-54 -66,-20 -130,-42 -197,-61 -67,-19 -112,-54 -171,-82l-258 -130c-140,-60 -283,-142 -383,-257 -108,-124 -127,-353 -81,-515 10,-36 19,-64 27,-101 23,-103 36,-69 22,-230 126,10 100,-59 83,-208 91,7 42,-152 38,-254 17,8 95,77 132,99 118,68 168,113 318,130 41,5 160,-10 181,-39 14,-28 -10,-35 -15,-79 40,11 61,36 109,21 11,-37 -10,-46 -16,-87 42,5 88,38 120,22 23,-29 -13,-59 -12,-112 99,-11 181,26 259,59 70,29 158,55 233,77 175,51 268,74 440,106 18,3 53,14 66,-2 29,-48 -167,-92 -211,-105 -104,-32 -551,-137 -593,-225 -16,-33 -44,-68 -48,-110 -6,-58 -2,-144 -12,-235 -4,-39 -30,-82 -49,-115 -17,-30 -27,-21 -38,-45 -27,-58 -41,-79 -89,-110 -1,-1 -14,-9 -14,-10 -8,-8 -2,-1 -8,-10 -15,-27 -2,-27 -36,-46 -38,-21 -71,-33 -115,-50 -39,-14 -11,-19 -46,-36 -53,-26 -131,-43 -189,-52l-14 -31c-72,-15 -221,2 -295,8 -119,10 -158,-19 -240,-61 -77,-40 -137,-54 -220,-86 -70,-27 -150,-73 -220,-87 21,-44 29,-56 -31,-79 -38,-15 -78,-21 -121,-27 5,-20 6,-27 -1,-45 -61,-26 -195,-4 -270,-4 -10,-16 -5,-34 -22,-46 -33,-23 -294,-26 -344,-74 13,-24 32,-26 30,-60 -52,-33 -167,-14 -240,-18 10,-17 43,-38 25,-55 -23,-24 -108,7 -143,7 108,-74 -78,-43 -137,-56l-131 -39c-26,-8 -36,-17 -61,-27 -36,-15 -175,-42 -190,-65 13,-22 47,-14 71,-23 0,-23 -7,-21 -33,-30 -48,-18 -106,-22 -155,-34 -64,-16 -118,-44 -180,-66 -164,-58 -263,-44 -427,-67l9 -6c2,-1 7,-4 9,-5 4,-2 9,-3 13,-5 8,-3 18,-4 27,-8 23,-9 36,-15 39,-38 -41,-27 -193,-37 -253,-36 -80,1 -199,21 -267,15 21,-5 47,-20 83,-28 39,-8 70,-3 83,-34 0,-49 -181,-25 -211,-19 -68,14 -146,30 -209,41 14,-17 60,-46 63,-80 -67,-16 -170,16 -227,35 -36,12 -63,20 -94,36 -33,16 -47,40 -92,32 -122,-21 -92,-182 -62,-274 29,-91 18,-44 1,-93 6,-10 22,-30 26,-40 8,-24 -1,-22 -13,-35 15,-9 29,-22 37,-42 -14,-18 -7,-3 -29,-18 12,-18 20,-22 18,-49l-33 1c1,-164 -247,-96 -342,-47 -59,31 -97,66 -151,101 -38,24 -84,48 -127,61 -24,7 -28,1 -38,21 28,18 144,-44 173,-63 137,-89 156,-126 331,-151 75,-11 140,-9 129,91l19 9c0,0 8,1 12,3 -19,33 -35,32 -21,51l19 16c-15,9 -17,9 -27,27l18 19c1,1 3,4 4,3 1,-1 3,2 4,3 -9,8 -23,25 -26,37 -6,26 4,18 17,38 -12,54 -36,117 -51,176 -15,59 -29,113 -45,173 -9,33 6,47 11,62 9,26 23,18 32,50 12,45 28,49 59,84 24,28 24,45 57,73 -10,13 -27,11 -30,30 -6,32 56,60 64,94 5,21 -2,19 8,44 23,54 19,79 15,143 -15,-19 -15,-42 -50,-34 -20,38 22,95 39,128 -18,23 -26,25 -15,56 8,25 15,37 14,65 -17,-13 -28,-23 -44,-2 -22,25 10,77 16,106 -92,-47 -15,114 -8,179 -42,-11 -73,-68 -123,-54 -8,31 1,51 7,84l-27 8c-25,13 -8,50 0,73 13,34 30,62 25,105 -44,-51 -41,-64 -73,-61 -26,51 34,80 -43,133 -29,20 -123,6 -142,-20 -43,-59 63,-213 75,-277 19,-108 34,-222 6,-332 -11,-41 -33,-75 -57,-108 -20,-28 -54,-39 -59,10 -3,32 14,41 18,69 -54,12 -86,16 -93,72 -29,245 57,300 -81,388 -55,35 -58,35 -136,31 -112,-5 -139,-76 -262,-58 -48,7 -161,39 -130,-43 13,-36 49,-45 74,-97 85,-179 129,-116 142,-199 13,-85 -29,-114 -37,-184 -8,-73 11,-157 6,-213 -4,-40 -19,-160 -57,-166 -41,-7 -56,15 -75,36 -127,131 -298,-20 -348,22 -19,34 9,63 27,80 90,83 76,122 135,218 40,65 54,73 82,154 41,120 79,271 -87,311 -138,33 -212,-72 -319,-134 -47,-27 -100,-57 -112,-116 19,-15 29,-7 48,-28 18,-21 11,-27 40,-34 29,38 1,8 -4,44 60,12 112,-42 99,-93 -13,-53 16,-67 -22,-166 -12,-33 -7,-83 -20,-111 -17,10 -10,2 -14,29 -1,9 -2,22 -2,31 -2,26 -6,42 2,66 11,32 43,84 -2,104 -58,26 -137,12 -199,7 -163,-14 48,-132 3,-243 -23,11 -12,21 -26,50 -17,35 -79,109 -83,134 -5,31 10,42 4,58 -7,18 -25,14 -13,55 7,26 47,71 76,72 -7,-43 -33,-13 -13,-64 36,7 24,20 42,47 13,19 24,21 47,35 3,98 -70,120 -131,163 -61,43 -117,103 -197,42 -82,-62 -94,-101 -113,-121 -29,-29 -44,0 -76,-37l24 -52c-13,-15 -4,-4 -14,-11l-13 -9c21,-10 19,-7 20,-34 -20,-15 -39,-18 -72,-22 10,-18 24,-20 7,-40 -12,-15 -28,-8 -22,-34 7,-26 46,-27 77,-36 50,-15 106,-53 144,-79 43,-30 94,-54 140,-84 24,-15 104,-89 112,-111 23,-65 -29,-139 -92,-128 -33,6 -105,56 -153,72 -75,25 -125,18 -187,-13 -44,-22 -116,-96 -145,-37 -15,31 1,169 20,204 13,24 -3,72 -27,123 -29,64 -74,66 -85,133 -6,37 9,67 1,88 -19,47 -82,40 -122,29 -252,-65 -233,-203 -230,-404 1,-46 -4,-58 18,-94 30,-49 48,-29 6,-58 14,-7 25,-15 42,-23 20,-10 30,-9 34,-31 -19,-13 -32,-8 -57,-9 21,-34 103,-44 115,-73 -17,-14 -13,-8 -38,-9 24,-10 44,-25 76,-36 33,-12 44,-9 56,-36 13,-30 117,-23 140,-46 -32,-15 -157,4 -203,57l-112 65c0,25 -1,11 8,29 -16,5 -51,25 -61,36 -33,33 10,31 29,40 -21,9 -36,20 -52,32 -36,26 -13,24 -24,46 -21,11 -33,12 -50,27 -13,11 -25,24 -36,34 -43,38 -32,52 -60,86 -23,27 -16,29 -6,58 10,30 1,23 -11,49 -15,33 3,29 4,57 1,28 -5,21 2,59 -63,-14 -154,-29 -201,-59 -9,-69 63,-137 69,-181 -27,1 -41,14 -64,22 30,-78 116,-131 120,-150 -19,-8 -14,-2 -36,2 67,-58 87,-97 175,-149 16,-9 22,-16 20,-41 -7,-66 -52,-127 -71,-187 -42,-134 -4,-42 -67,-192 -23,-54 -11,-49 -61,-57 -8,-49 4,-65 5,-105 -20,-3 -15,5 -27,-1 -7,-72 -35,-116 25,-157 33,-23 117,-39 142,-60 -24,-14 -92,16 -117,27 -66,28 -104,75 -80,144 11,32 6,30 11,64 7,43 16,9 18,58 1,30 3,44 10,66 18,-1 22,-7 35,-11 16,42 35,79 53,118 20,43 20,86 37,127 21,52 51,77 31,119 -32,67 -28,50 -72,92 -28,27 -58,54 -90,80 -32,26 -112,139 -151,183 -16,18 -21,28 -36,46 -203,239 -353,88 -539,50 -93,-19 -208,-17 -300,-36 -44,-9 -252,-51 -276,-43 -1,38 9,28 42,43 121,54 328,74 460,85 107,9 156,46 249,70 125,33 165,10 284,12 55,1 232,29 265,55 38,30 81,29 108,50 20,15 53,60 73,80 70,72 129,67 217,94 96,29 177,20 274,38 1,25 -5,20 8,39 27,-3 18,-8 39,-18 -5,19 -13,43 -4,63 26,2 25,-4 38,-21l15 21c22,-2 15,-5 32,-8 4,79 24,26 50,75 22,42 34,25 66,58 21,22 16,22 56,26l20 42 51 -13c8,56 20,69 73,79 14,75 136,83 199,106 16,6 23,13 42,16 252,37 186,-14 310,-21 84,-5 130,22 183,58 113,76 147,161 310,170 165,9 192,-85 248,-115 136,-73 329,-133 467,-46 105,65 169,138 230,252 29,54 53,103 76,165 35,93 90,312 39,401 -34,60 -157,117 -228,136 -39,11 -276,36 -321,40 -73,7 -144,17 -218,22 -76,5 -125,30 -211,27 -81,-3 -161,1 -241,0 -167,-2 -464,-54 -630,-92 -67,-15 -125,-35 -190,-50 -74,-17 -127,-13 -201,-40 -134,-49 -257,-56 -402,-80 -62,-10 -146,-37 -198,-41 -75,-6 -154,-12 -228,-16 -36,-2 -81,1 -113,-10 -36,-12 -151,-47 -188,-44 -39,3 -43,23 -100,16 -28,-20 -9,-23 -52,-37 -23,-7 -34,-19 -60,-22 -33,-4 -51,4 -85,-4 -33,-8 -53,0 -75,-7 -35,-11 -18,-15 -69,-17 -37,-1 -37,-11 -70,-14 -60,-5 -109,-9 -151,-12 -232,-20 -239,-30 -566,-117 -109,-29 -448,-125 -536,-140 -104,-18 -203,-21 -308,-32 -74,-8 -232,-54 -286,-43 36,3 113,35 152,47 153,44 347,42 517,88 55,15 104,32 160,46 53,13 106,25 160,40 293,80 530,160 840,166 39,1 42,13 82,14 54,2 48,17 82,20 22,2 26,-4 50,2 51,12 83,-1 131,22 19,9 19,3 36,17 38,32 55,41 112,24 42,-12 28,-19 77,-2 24,9 56,11 82,18 107,26 -1,20 169,30 20,26 11,45 38,73 18,19 31,32 45,60l99 229c19,53 33,108 60,157 17,31 23,37 61,32 6,164 115,196 136,352l40 324c8,58 2,52 43,76 -3,39 -35,110 8,132l19 9c-10,47 -37,106 -22,149 21,9 27,8 47,0 28,80 38,120 76,188 41,72 7,148 19,238 11,80 28,149 25,236 -6,160 -7,335 35,487 21,77 52,117 81,178 21,44 31,38 56,74 39,57 75,90 137,122 41,22 61,35 91,2 28,15 55,33 93,43 69,18 163,23 206,-43 21,-32 16,-70 16,-112 172,-54 131,-209 108,-371 -4,-30 -6,-58 -11,-89 -11,-66 -13,-112 -19,-180 -2,-28 -11,-62 -19,-88 -13,-42 -7,-36 -6,-82 1,-60 -38,-87 -76,-123 -26,-26 -79,-62 -91,-109 -8,-33 17,-41 36,-57 16,-14 14,-20 23,-29 12,-12 16,-7 32,-14 26,-101 -3,-161 -30,-254 -35,-125 -33,-268 -55,-398 -8,-46 -34,-85 -35,-120 -1,-38 18,-24 18,-58 0,-21 -60,-126 -65,-158 33,12 67,54 110,42 17,-52 -60,-115 -74,-166 26,9 53,34 78,18 22,-23 -1,-40 -16,-61 -25,-36 -99,-160 -108,-193 43,7 84,38 117,12 15,-20 -44,-102 -63,-147 -17,-41 -58,-117 -66,-156l239 49c76,13 156,32 234,48 120,25 226,58 344,84 32,7 67,28 101,41 37,15 65,31 104,43 75,24 62,13 115,26 38,9 68,23 108,33 36,9 76,16 116,25 88,18 136,51 214,73 125,35 141,22 243,39 -1,13 -21,93 -27,113 -22,76 -124,183 -136,222 -8,25 8,30 19,43 -41,84 -65,50 -154,298 -48,136 -15,86 -108,192 -24,27 -42,52 -62,85 -94,158 -193,108 -269,324 -33,93 -36,228 -9,326 18,66 -4,103 67,156 55,41 141,63 229,64 90,2 187,0 260,-40 90,-49 103,-64 158,-142 22,-31 41,-56 56,-97 21,-61 12,-44 46,-101 56,-92 33,-75 113,-181 39,-51 37,-71 58,-95 21,-25 41,-52 61,-86 82,-140 146,-174 241,-353l104 -190c29,115 116,225 169,330 23,46 24,102 63,101 11,-26 10,-72 13,-106 16,18 97,201 118,247 10,22 21,74 44,58 15,-13 6,-40 8,-63 13,20 32,75 44,102 14,31 26,80 64,86l15 -48c63,44 67,268 90,353 8,28 12,18 11,60l-8 212c-1,41 -13,80 -16,123 -5,81 -24,181 -25,264 -4,210 -47,326 119,434 72,47 152,36 211,-17 33,-30 38,-41 60,-87 13,-26 19,-77 34,-106 17,-33 47,-38 60,-87 47,-166 -15,-204 78,-358 44,-74 50,-123 84,-204 28,-68 53,-140 68,-220 15,-77 31,-171 38,-250 12,-136 13,-112 -18,-246 -28,-120 -72,-182 -78,-211 -12,-58 -77,-143 -87,-203 48,-22 40,-49 19,-92 28,-5 34,-3 52,-17 16,-24 -103,-202 -113,-253 95,21 185,46 273,74 194,63 237,38 295,51 15,95 1,112 83,91 8,66 31,167 47,231 37,151 140,279 108,421 -18,80 27,84 78,180 49,94 44,375 21,482 -16,76 -38,160 -28,242 35,277 154,177 173,366 8,83 -8,163 -30,237 -10,35 -15,76 -27,107 -22,58 -75,109 -119,151 -41,39 -141,70 -190,21 -30,-30 -52,-162 -61,-210 -5,-25 -12,-30 -12,-60 0,-28 8,-33 -5,-58 -15,-30 -15,-82 -7,-121 10,-45 28,-65 37,-99 20,-75 117,-92 105,-161 -71,-8 -182,175 -201,248 -23,89 -34,127 1,186 36,59 14,124 26,198 21,126 54,221 175,277 61,28 136,15 185,-16 33,-21 97,-76 115,-107 92,37 174,2 242,-65 80,-80 209,-332 238,-443 25,-94 54,-171 67,-273 14,-114 44,-169 81,-261 77,-190 43,-420 59,-621 3,-39 18,-111 38,-133 42,-46 57,33 64,-107 29,-12 26,-3 51,-24 8,-43 -4,-126 2,-180 6,-55 24,-93 33,-144 78,-10 221,58 296,73 52,11 107,16 160,28 49,11 107,14 156,25 63,14 79,24 154,35 52,7 100,23 152,28 153,16 296,83 442,117 27,6 53,10 79,16 77,16 146,50 225,57 156,15 315,48 467,84 80,19 162,23 242,40 26,5 43,16 65,20 3,-24 -3,-25 -27,-34l-1 1z"/>
    <path class="fil11" d="M18158 2274c-46,-12 -161,-60 -202,-42 1,34 22,31 58,39 27,7 50,15 77,23 47,15 114,28 156,44 -34,13 -129,23 -141,50 -31,67 289,65 430,135 -44,4 -79,-5 -111,13 -6,43 24,44 63,60l239 118c-37,1 -110,-7 -136,6 -14,46 30,51 68,63 85,29 201,69 259,140 -57,0 -97,-18 -133,14 -3,55 32,38 119,99 40,28 92,63 109,113 -18,-1 -38,-4 -55,-5 -11,0 -17,-1 -28,3 -25,9 -6,0 -15,10 -32,47 93,63 137,148 -43,67 4,63 25,111 -110,3 21,75 58,130 32,48 60,146 119,154 -1,-38 -43,-101 -61,-135 -32,-60 -46,-64 -87,-107 1,-1 2,-2 3,-3 1,-1 2,-2 3,-3 13,-16 11,-9 12,-24 3,-33 -33,-51 -48,-82 1,-1 3,-2 4,-3l16 -15c11,-18 0,-34 -16,-62 -18,-31 -31,-47 -59,-60 2,-1 4,-2 5,-3 1,-1 3,-2 5,-2 25,-10 25,-2 46,-19 1,-31 -17,-48 -30,-71 -44,-75 -135,-114 -156,-145 37,1 83,11 114,-4 8,-31 0,-32 -17,-45 -61,-44 -95,-85 -172,-122l-77 -36c-1,-2 -3,-2 -4,-3 27,-2 62,6 84,-5 21,-36 -20,-51 -45,-66 -87,-52 -171,-81 -235,-120 39,-2 84,2 119,-7l3 -32c-69,-65 -403,-108 -447,-134 18,-10 265,-34 49,-95 -35,-10 -68,-17 -103,-27l-2 4z"/>
    <path class="fil11" d="M14157 876c0,-12 3,-14 7,-23 28,-72 -94,21 -117,37 -17,12 -28,16 -27,42 40,-8 58,-33 92,-46 -10,22 -28,27 -17,53 23,24 111,-61 163,-87 -55,101 80,13 90,10 -15,27 -37,26 -29,64 39,9 150,-64 192,-79 -10,10 -67,61 -68,75 -2,30 -1,8 5,17 27,19 116,-50 179,-50 -17,9 -137,82 -67,95 16,3 62,-9 78,-12 36,-7 76,-17 111,-21 -9,14 -13,17 -22,29 -2,3 -8,12 -9,15 -11,53 60,-1 117,-19 41,-13 89,-24 104,-60 -33,-16 -105,29 -144,35 20,-28 34,-18 47,-41 -36,-19 -182,29 -235,33 41,-30 119,-68 99,-91 -40,-21 -107,6 -150,13 12,-21 40,-37 56,-50 19,-14 72,-44 28,-53 -40,-8 -189,75 -228,88 12,-25 31,-26 34,-43 13,-65 -114,24 -144,37 9,-23 9,-29 27,-42 20,-14 27,-13 35,-34 -36,-14 -186,87 -206,107l-1 1z"/>
    <path class="fil11" d="M13877 898c-12,-24 -23,-44 -56,-48l1 40c-18,-17 -43,-51 -72,-48l-8 35c0,1 -1,3 -2,4 -36,-42 -61,-51 -38,23 -40,-12 -63,-43 -89,-46 -1,20 4,22 10,39 -26,-15 -74,-56 -107,-59 3,25 19,42 29,65 -35,-9 -63,-46 -96,-45 2,22 7,23 15,40 -28,-9 -43,-28 -77,-30 3,32 19,40 24,69 -56,-15 -34,-16 -125,-32 -45,-8 -84,-16 -126,-32 -72,-25 -183,-64 -267,-60 13,53 69,14 138,89 99,105 19,26 116,107 24,20 54,31 82,7 33,-29 36,-22 86,-27 42,-4 32,-18 87,-18 43,0 13,-52 10,-76 28,13 76,53 101,53 5,-27 -10,-17 -22,-45 27,9 61,44 86,39 1,-23 -17,-42 -24,-65 23,14 83,64 108,66 4,-22 3,-13 -5,-34 26,10 57,34 85,25 9,-22 -8,-26 -22,-46 16,17 39,39 68,38 -1,-34 -17,-27 -22,-62 19,19 46,50 75,55l9 -26c10,20 17,37 42,37 10,-19 8,-47 11,-71l13 27c8,23 -5,9 13,25 17,-8 11,1 21,-23 6,-14 7,-21 12,-33 1,11 0,32 2,42 4,23 3,18 18,26 6,-14 -1,-93 -5,-109 -33,2 -24,22 -42,49 -11,-19 -12,-43 -18,-54 -8,-15 2,-4 -11,-13 -23,21 -14,73 -29,101l1 1z"/>
    <path class="fil11" d="M12684 1033c-20,13 -52,23 -35,54l71 9c-8,25 -23,41 -21,69 6,5 6,4 13,10 1,1 6,4 7,5l8 6c-24,41 -34,87 -16,142 46,-2 16,-15 48,-17 19,-1 32,0 55,-2 -1,26 -7,47 -13,71 -7,29 -13,42 5,64 23,-10 77,-96 97,-120 38,-45 56,-52 15,-156 -19,-48 -57,-103 -92,-126 -31,-20 -114,-60 -166,-49 -2,33 5,18 22,40l2 0z"/>
    <path class="fil11" d="M15181 1226l4 54c34,9 45,-5 78,-2 47,4 25,30 65,31 21,-23 16,-51 25,-82 17,-62 85,-155 59,-249 -72,-32 -122,15 -184,78 -27,28 -43,45 -66,75 -35,46 -17,70 19,95z"/>
    <path class="fil10" d="M13840 1330c18,35 33,130 18,170 -14,39 -100,9 -173,-23 -96,-42 -135,-69 -236,-32 -9,3 -13,11 -25,15 -42,15 -43,-71 -21,-106 68,-108 368,-154 437,-25l0 1z"/>
    <path class="fil11" d="M13866 1267c-34,-17 -146,-61 -188,-28 -1,1 -3,2 -3,3 -1,1 -2,2 -3,3l-69 -25c-7,15 -1,21 -7,32 -30,0 -52,-3 -81,5 -23,6 -27,7 -39,22 9,7 -1,4 14,6 20,3 32,-7 58,-8 24,-2 57,1 83,2 25,1 115,18 138,27 51,21 60,32 82,82l46 124c33,45 76,2 85,-41 5,-23 -1,-131 -7,-154 -10,-41 -45,-81 -66,-99 -10,-8 -40,-31 -56,-16 -15,14 7,41 13,64l0 1z"/>
    <path class="fil11" d="M14918 1373c11,25 84,33 110,43 -25,8 -20,-2 -29,22 10,20 64,37 90,52 29,17 52,43 78,57 -36,2 -61,-13 -87,1 -7,25 24,34 69,70 31,25 52,41 72,71l-69 -14c2,48 53,51 90,120 52,97 24,195 67,181 30,-10 -2,-102 -8,-122 -20,-69 -42,-91 -75,-132 23,-1 21,3 39,-8 3,-41 -85,-113 -114,-128 8,-5 3,-5 18,-5 15,-1 54,16 67,-2 10,-26 -50,-55 -71,-71l-89 -62c24,-1 34,3 53,-8 0,-30 -18,-27 -91,-51 -28,-9 -94,-34 -120,-14z"/>
    <path class="fil12" d="M19059 4844c19,-43 36,-205 23,-259 -10,-40 -21,-74 -31,-115 -6,-23 -10,-41 -12,-64 -2,-24 1,-45 -10,-60 -20,58 18,174 33,230 12,44 14,84 6,131 -5,27 -11,94 -21,114 -27,-22 -53,-94 -86,-98 -7,50 26,92 16,241 -34,-20 -64,-118 -114,-127 -4,112 35,82 11,294 -13,-16 -18,-39 -28,-62 -24,-58 -13,-48 -36,-57 -2,95 2,164 -8,258 -43,-28 -59,-126 -99,-145 -2,63 11,140 -1,204 -8,44 -13,34 -2,49 29,-55 17,-143 17,-211 31,30 45,106 89,132 5,-6 3,-3 7,-13l7 -40c3,-20 5,-39 6,-60 1,-40 -2,-83 0,-122 13,28 27,84 51,96 47,-46 1,-266 1,-296 53,49 64,121 111,124 16,-92 -1,-134 -7,-220 32,26 37,76 77,77l0 -1z"/>
    <path class="fil10" d="M14434 1328c-19,35 -120,130 -106,170 14,39 100,9 173,-23 96,-42 135,-69 236,-32 9,3 13,11 25,15 42,15 43,-71 21,-106 -68,-108 -281,-154 -350,-25l1 1z"/>
    <path class="fil11" d="M14224 1518c38,1 48,-24 69,-40 25,-19 51,-23 74,-43 23,-19 30,-42 47,-70 16,-27 39,-42 28,-82 -51,-18 -91,28 -132,42 -21,7 -33,2 -53,12 -41,20 -72,141 -34,181l1 0z"/>
    <path class="fil11" d="M13373 1538c-32,28 17,71 32,79 108,59 178,55 301,7 40,-16 32,-46 -23,-41 -70,6 -154,10 -219,-19 -20,-9 -81,-34 -91,-26z"/>
    <path class="fil11" d="M14441 1634c-48,0 -125,-21 -148,-8 2,59 88,65 148,69 56,4 133,-18 172,-44 62,-42 77,-127 -1,-65 -33,27 -119,48 -171,48z"/>
    <path class="fil11" d="M14818 1033c15,15 30,2 69,0 -32,25 -46,17 -58,41 1,1 3,1 4,3 4,10 82,3 106,6 -41,11 -44,11 -51,27 11,5 101,7 127,11 -10,12 -40,18 -3,53 18,18 31,30 61,38l-16 -19c-21,-18 -40,-17 -45,-48 21,-8 25,-3 37,-18 -21,-27 -68,-26 -102,-30 20,-11 20,-4 30,-23 -22,-14 -75,-6 -114,-6 18,-17 68,-34 78,-53 -21,-9 -97,8 -123,18z"/>
   </g>
  </g>
 </g>
</svg>
