<?xml version="1.0" encoding="UTF-8"?>
<!DOCTYPE svg PUBLIC "-//W3C//DTD SVG 1.1//EN" "http://www.w3.org/Graphics/SVG/1.1/DTD/svg11.dtd">
<!-- Creator: CorelDRAW X6 -->
<svg xmlns="http://www.w3.org/2000/svg" xml:space="preserve" width="225.213mm" height="134.959mm" version="1.1" style="shape-rendering:geometricPrecision; text-rendering:geometricPrecision; image-rendering:optimizeQuality; fill-rule:evenodd; clip-rule:evenodd"
viewBox="0 0 22521 13496"
 xmlns:xlink="http://www.w3.org/1999/xlink">
 <defs>
  <style type="text/css">
   <![CDATA[
    .str2 {stroke:#6D4E32;stroke-width:7.62}
    .str0 {stroke:black;stroke-width:20}
    .str1 {stroke:#6D4E32;stroke-width:67.73;stroke-linecap:round;stroke-linejoin:round}
    .fil20 {fill:none}
    .fil11 {fill:#020305}
    .fil16 {fill:#191816}
    .fil15 {fill:#192033}
    .fil26 {fill:#272B25}
    .fil13 {fill:#32382F}
    .fil3 {fill:#3A5664}
    .fil7 {fill:#3D3B34}
    .fil27 {fill:#3E4231}
    .fil0 {fill:#3E6376}
    .fil8 {fill:#444444}
    .fil12 {fill:#525252}
    .fil9 {fill:#575757}
    .fil2 {fill:#5C7B88}
    .fil28 {fill:#61635F}
    .fil6 {fill:#631B1B}
    .fil21 {fill:#6D4E32}
    .fil17 {fill:#6D775F}
    .fil14 {fill:#727272}
    .fil10 {fill:#737373}
    .fil23 {fill:#7DAE9E}
    .fil4 {fill:#7F9EA3}
    .fil5 {fill:#868686}
    .fil25 {fill:#8C7B47}
    .fil33 {fill:#9A0000}
    .fil1 {fill:#9B0704}
    .fil24 {fill:#9E8B50}
    .fil31 {fill:#A7B395}
    .fil32 {fill:#BD4D27}
    .fil19 {fill:#D5A76B}
    .fil30 {fill:#FFFFFE}
    .fil22 {fill:white}
    .fil35 {fill:#324A56;fill-rule:nonzero}
    .fil34 {fill:#3A5664;fill-rule:nonzero}
    .fil29 {fill:#3D3B34;fill-rule:nonzero}
    .fil36 {fill:#9B0704;fill-rule:nonzero}
    .fil18 {fill:#A7B395;fill-rule:nonzero}
   ]]>
  </style>
 </defs>
 <g id="Слой_x0020_1">
  <metadata id="CorelCorpID_0Corel-Layer"/>
  <rect class="fil0" x="-27" width="22572" height="13543"/>
  <path class="fil1" d="M10496 6061l-299 110c-2,-5 44,94 148,98 162,7 243,-94 264,86 27,227 21,299 -34,506 -30,112 -45,233 66,251 62,10 123,-84 61,-423 -19,-106 -25,-186 -21,-265 5,-99 82,-448 -22,-499 -39,-19 -106,108 -163,136z"/>
  <polygon class="fil2" points="22580,3702 22545,8296 12132,5493 13385,994 "/>
  <path class="fil3" d="M22545 5826l0 2540 14 3400 -4253 -219 -1208 -1114c25,-188 305,-827 195,-964 69,43 223,0 270,62 63,83 151,28 264,82 38,18 89,-329 118,-298 102,107 94,6 142,24 43,16 54,-272 85,-311 30,27 98,27 136,65 55,53 198,-24 154,4l18 -51c4,5 7,8 10,12 85,-46 452,-93 425,-150 -32,-67 115,-67 -51,-200 -48,-38 443,-153 413,-205 -91,-157 -22,-289 -149,-369 -94,-60 -50,-286 -120,-380 85,58 279,14 499,-62 71,-221 150,-481 87,-559 61,38 199,0 240,55 56,74 134,25 235,73 34,16 79,-292 105,-265 91,95 83,5 126,21 38,15 48,-242 75,-277 26,24 87,24 121,58 49,48 177,-21 138,4l13 -38c-3,-11 -7,-20 -12,-28 43,27 140,0 170,39 40,52 95,18 166,52 24,11 56,-206 74,-187 64,67 59,4 89,15 27,10 34,-171 53,-196 19,17 61,17 86,41 21,20 62,11 85,4l6 -3 -1 1 -2 1c2,-11 15,-56 -5,-73 -19,-16 -22,-48 -35,-61 17,-16 151,-32 142,-51 -10,-22 37,-22 -17,-65 -15,-13 144,-50 134,-66 -30,-51 -7,-94 -48,-120 -30,-19 -16,-93 -39,-123 32,22 114,-2 200,-34 -1,-10 -3,-19 -10,-42 -1,-4 -1,-6 -2,-11l23 11c-24,5 49,-17 50,-52 0,-25 23,-48 24,-66 20,2 94,69 121,77l10 -4c11,-18 40,14 38,-53 0,-20 131,78 137,60 20,-55 67,-66 60,-114 -5,-36 61,-72 69,-109 7,68 218,162 329,223zm-2024 1964l11 -15 3 3 -14 11zm942 -1206l-3 -4 5 3 -2 1z"/>
  <path class="fil2" d="M22545 11036l0 1669c-59,18 -49,117 0,266l0 573 -11634 0c-65,-22 -114,-37 -144,-43 -129,-29 1949,-756 2992,-470 1621,444 1460,468 1546,-134 27,-186 961,176 1116,-114 354,-659 -3652,-1178 -3864,-1422 -189,-218 1541,-101 1641,-216 676,-773 2197,-1206 2073,-1656 171,249 764,330 832,609 92,378 473,319 781,672 103,117 790,-992 845,-843 190,517 311,158 449,292 123,120 586,-851 750,-940 61,135 294,238 369,423 108,263 713,211 522,243l138 -149c9,34 18,49 20,84 20,339 36,283 120,615 531,2113 1151,8 1257,297 73,200 135,244 191,244z"/>
  <path class="fil3" d="M-27 10015l0 -3648c254,-179 1337,-551 1380,-837 25,131 248,269 226,394 -30,169 133,213 194,410 20,66 495,-258 491,-188 -16,242 97,119 129,198 28,70 388,-238 470,-244 1,65 76,148 73,236 -4,125 249,213 167,191l82 -35c-2,10 -2,17 -3,25 150,50 616,442 654,346 45,-113 208,64 185,-284 -7,-100 677,365 706,271 88,-284 324,-347 280,-590 -32,-179 290,-379 325,-567 25,166 294,352 630,532 346,-160 747,-354 771,-516 22,117 221,240 201,351 -27,150 119,190 173,365 18,58 441,-230 437,-168 -14,215 87,106 114,176 25,63 345,-212 418,-217 0,58 67,132 65,210 -3,111 222,189 148,170l60 -26c11,-16 17,-31 20,-46 15,82 156,169 142,247 -19,106 84,134 122,258 13,41 311,-162 308,-118 -10,152 61,75 81,124 18,44 244,-149 295,-153 0,41 28,96 46,148l127 373 -139 106 85 175c17,36 -149,-11 -151,68 -5,179 180,343 193,348l-2 0 100 -302 113 132c26,30 187,105 180,-8 -2,-33 220,119 229,88 29,-92 105,-113 91,-192 -11,-58 94,-123 106,-184 9,63 128,136 263,203 11,-13 19,-24 38,-59 3,-6 6,-8 11,-14l12 40c-33,-23 75,41 119,2 31,-27 83,-26 106,-45 19,26 21,190 41,232l16 9c34,-7 27,64 106,-13 24,-23 51,245 81,232 89,-38 154,8 205,-54 38,-46 155,-7 209,-38 -101,114 158,734 112,782 -24,25 -72,135 -104,121 -25,-11 -55,-35 -88,-66l-214 2167 -11236 -1119zm6994 -2457l30 -2 -1 7 -29 -4zm2516 755l2 -8 -2 8z"/>
  <path class="fil2" d="M14080 9823c0,2055 -538,2083 1298,1576 -1538,0 -3818,-960 -4997,-962 -11692,-17 -3871,-40 -986,73 934,37 -1377,971 -1462,767 -54,-131 -620,-182 -761,-285 -253,-185 -669,-68 -954,-218 -403,-213 -627,-678 -482,-843 676,-773 2197,-1206 2073,-1656 171,249 764,330 832,609 92,378 473,319 781,672 103,117 790,-992 845,-843 190,517 311,158 449,292 123,120 586,-851 750,-940 61,135 294,238 369,423 108,263 713,211 522,243l138 -149c9,34 18,49 20,84 20,339 36,283 120,615 531,2113 1151,8 1257,297 73,200 135,244 191,244z"/>
  <polygon class="fil4" points="22560,3881 22525,8131 12392,5305 13541,1229 "/>
  <path class="fil2" d="M16643 9181c108,115 194,228 188,342 -8,129 -71,270 -226,349l53 9 -16 100 -124 -20 -4 25 5 1 -12 75 -5 -1 -15 92 62 10 -16 100 -62 -10 -69 424c30,-34 66,-52 103,-50l70 -431 41 7c35,-123 109,-209 181,-206 1,-12 2,-24 4,-36 15,-93 68,-162 117,-154 12,2 23,9 33,19l36 -219 -90 -15 23 -139 122 20 21 -128 -58 -9 13 -81 -139 -23 23 -139 238 39c-257,-186 -305,-444 -248,-662 67,-257 386,-343 578,-565 242,-278 354,-518 410,-638 -43,-22 -69,-68 -62,-117 8,-49 48,-85 97,-91l40 -246 -180 -28 8 -53 181 29 27 -169 53 9 -27 168 158 25 -8 53 -159 -25 -39 242c55,17 90,69 81,125 -8,51 -52,88 -104,92 6,146 10,437 162,703 162,283 469,517 448,782 -16,205 -115,434 -355,538l129 21 -23 139 -128 -21 -13 81 -58 -9 -21 128 122 20 -23 139 -84 -14 -36 224c14,-10 29,-14 44,-11 49,8 77,89 63,181 73,25 115,147 98,289l35 6 -299 1845c-2550,-414 -5033,-811 -7512,-1213l242 -1492 -139 -23 50 -307 134 22c1,-5 1,-10 2,-15 21,-127 105,-218 188,-205 54,9 94,59 110,128l123 -757 -58 -9 23 -139 122 20 21 -128 -58 -9 15 -91 -133 -22 30 -187 12 2c-174,-196 -259,-451 -192,-707 158,-608 826,-919 1176,-1457 33,-51 52,-103 69,-140 -76,-30 -124,-106 -111,-187 12,-75 73,-130 148,-140l61 -377 -276 -44 12 -81 277 44 42 -258 81 13 -42 258 242 38 -12 81 -243 -38 -60 371c83,26 138,106 124,191 -12,73 -70,127 -142,139 9,49 9,122 28,212 127,595 605,1109 559,1683 -21,265 -182,483 -409,616l83 13 -17 104 6 1 -16 101 94 15 -5 32 -95 -15 -23 144c33,10 54,41 48,74 -4,25 -23,45 -46,52 1,9 3,19 5,29 50,232 387,443 369,666 -8,107 -54,224 -161,294l35 6 -13 83 -80 -13 -22 134 -35 -6 -4 26 73 12 -2 14 290 47 149 -915 -90 -15 31 -193 122 20 9 -57 -58 -9 30 -183 -133 -22 23 -139 135 22c-180,-177 -210,-398 -161,-588 103,-397 687,-522 916,-874 22,-33 34,-67 45,-92 -50,-19 -81,-69 -73,-122 8,-49 48,-85 97,-91l40 -246 -180 -28 8 -53 181 29 27 -169 53 9 -27 168 158 25 -8 53 -159 -25 -39 242c55,17 90,69 81,125 -8,47 -46,83 -93,91 6,32 6,80 18,138 18,83 58,165 109,245l383 -784 -156 -25 26 -160 204 33 905 -1850 6 -38 -26 -4 21 -131 -69 -11 44 -270 40 6 6 -37 55 9 13 -79 -26 -4 8 -46 -60 -10 21 -126 61 10c-76,-104 -84,-239 -56,-357 57,-247 325,-340 438,-563 11,-21 17,-42 23,-58 -22,-11 -35,-41 -29,-73 5,-30 24,-53 46,-59l25 -152 -81 -13 5 -33 81 13 17 -105 24 4 -17 104 71 11 -5 33 -71 -11 -24 150c24,9 39,40 33,75 -5,29 -23,52 -44,58 2,20 0,49 4,85 27,237 273,439 249,670 -11,111 -51,234 -135,310l26 4 -20 126 -60 -10 -8 46 -26 -4 -13 79 55 9 -6 37 40 6 -44 270 -69 -11 -21 131 -26 -4 -7 41 -1 0 264 2038 214 35 -26 160 -167 -27 233 1795 256 42 -81 497 -67 -11 -14 88zm-4299 -424c47,-37 89,-78 119,-125 2,-3 4,-6 6,-9 -13,-10 -22,-25 -25,-42l-13 80 -70 -11 -17 108zm-12 -255l122 20 -3 20c10,-19 29,-32 51,-35l24 -147 -107 -17 5 -32 108 17 3 -18 -108 -18 -15 91 -58 -9 -21 128z"/>
  <path class="fil5" d="M18160 6832l-55 -14 15 -95 56 9 -16 100zm-1885 -483l-1452 -372 727 -1488 7 -41 -28 -4 22 -138 -73 -12 46 -286 42 7 6 -39 58 9 14 -84 -28 -4 8 -49 -63 -10 22 -134 64 10c-81,-110 -89,-253 -60,-379 61,-262 344,-361 464,-597 11,-22 18,-45 24,-61 -23,-11 -37,-43 -31,-77 5,-32 25,-57 49,-62l26 -162 -85 -13 5 -35 86 13 18 -111 25 4 -18 111 75 12 -5 35 -75 -12 -26 159c26,9 41,43 35,79 -5,31 -24,55 -47,62 2,21 0,52 5,90 29,251 289,465 264,711 -12,117 -55,248 -143,329l28 5 -22 134 -63 -10 -8 49 -28 -4 -14 84 58 9 -6 39 42 7 -46 286 -73 -12 -22 138 -28 -4 -7 43 -1 0 231 1777z"/>
  <path class="fil0" d="M11625 9967c-376,231 -685,-434 -720,-650 -177,41 -1048,1114 -1118,257 -21,-255 -822,985 -1065,170 -100,-337 -95,-1057 -19,-1416 7,-34 3,-51 3,-86 -446,274 -814,-516 -855,-772 -181,42 -887,854 -973,706 -97,-166 -310,148 -355,-401 -13,-158 -971,728 -1039,587 -203,-422 -586,-467 -574,-856 9,-287 -540,-523 -639,-809 0,517 -1392,1374 -2253,1951 -370,248 -642,444 -663,539l-124 557c-19,87 -1060,-769 -1076,-681 -36,200 -327,1058 -32,1452 165,220 979,101 997,110 402,184 1685,44 2254,44 1904,0 1536,-566 1613,-359 136,364 -385,850 439,1106 355,111 1264,-58 1744,-58 919,0 1616,163 2601,97 228,-15 4376,337 4239,296 -1140,-339 -2688,-300 -2388,-1711 6,-29 3,-43 3,-73z"/>
  <path class="fil1" d="M-95 13552c244,-203 952,-209 1611,-722 153,-119 283,-222 285,-227 146,-356 -98,-781 -31,-1202 21,-131 583,300 609,185 51,-217 -787,-616 -312,-1057 135,-126 130,-222 67,-303 -282,-365 -449,-404 148,-659 221,-94 394,-273 158,-741 -204,-403 693,-1483 998,-1496 210,-9 -122,841 -237,1341 -89,385 -345,1032 271,978 401,-35 908,-1681 1324,-1013 78,126 163,-476 787,100 255,236 699,-390 1505,-422 1713,-67 1824,3017 2878,1800 495,-572 1654,212 423,406 -1008,159 -1083,569 -762,747 210,117 385,153 512,175 491,87 250,610 -28,533 -105,-29 -241,-129 -458,-79 -734,168 -436,-235 -944,-318 -378,-62 -813,84 -1049,439 -209,315 -415,669 -599,685 -617,54 -586,-678 -497,-1063 282,-1214 -879,-434 -535,239 388,760 -322,759 -534,868 -597,307 575,393 191,805l-5780 0zm5562 -1673c45,332 304,310 293,-257 -5,-268 324,-703 164,-766 -308,-121 -486,804 -457,1023zm3122 -1090c130,540 502,-217 152,-212 -92,1 -190,55 -152,212z"/>
  <path class="fil6" d="M1830 12124c-34,-233 -99,-479 -61,-723 21,-131 583,300 609,185 51,-217 -787,-616 -312,-1057 135,-126 130,-222 67,-303 -282,-365 -449,-404 148,-659 221,-94 394,-273 158,-741 -204,-403 693,-1483 998,-1496 210,-9 -122,841 -237,1341 -89,385 -345,1032 271,978 326,-29 722,-1122 1082,-1171l0 3646 -2725 0z"/>
  <path class="fil3" d="M843 12300c-238,-298 -636,-1232 86,-691 666,499 -371,-993 269,-892 142,23 368,170 623,347 619,427 1409,1022 1592,400 20,-68 1101,741 1313,817 307,111 390,366 -170,340 -824,-37 -556,-380 -1415,134 -613,367 -1019,-358 -1469,-39 -426,301 -595,-123 -830,-417z"/>
  <g id="_998065232">
   <path class="fil7" d="M4859 8518l-2043 930c-38,17 -55,63 -38,101l381 837c17,38 68,64 101,38l1778 -1464c32,-27 53,-62 38,-101l-116 -303c-15,-39 -63,-55 -101,-38z"/>
   <path class="fil8" d="M3292 10274l248 50c12,2 20,14 18,27l0 0c-2,12 -14,20 -27,18l-248 -50c-12,-2 -20,-14 -18,-27l0 0c2,-12 14,-20 27,-18z"/>
   <g>
    <path class="fil7" d="M6217 7561l-1158 421c-59,21 3,31 22,91l80 260c19,60 38,108 95,82l1063 -484c57,-26 164,-73 127,-124l-121 -169c-36,-51 -49,-97 -108,-76zm3 76l-852 309c-43,16 -61,69 -42,111l75 166c19,42 69,61 111,42l782 -356c42,-19 111,-49 94,-91l-58 -139c-18,-43 -68,-57 -111,-42z"/>
    <polygon class="fil9" points="5816,8646 5293,8839 5423,9153 5905,8926 5750,8825 5739,8714 "/>
    <polygon class="fil8" points="6540,7637 6334,7662 6591,8227 6796,8041 "/>
    <path class="fil5" d="M6338 7653c-435,304 -818,435 -1499,682l236 531 150 53 1252 -570 120 -124 -259 -572z"/>
    <polygon class="fil5" points="6516,8170 5952,8426 6136,8828 6699,8572 "/>
    <path class="fil8" d="M6614 8508l-454 273c-18,11 -32,34 -19,50l546 683c13,16 34,32 50,19l396 -320c16,-13 32,-34 19,-50l-488 -636c-13,-17 -32,-30 -50,-19z"/>
    <polygon class="fil10" points="6128,8780 5656,8995 5687,9062 6159,8847 "/>
    <path class="fil11" d="M5777 8670c-58,26 -82,97 -54,157 28,61 97,88 154,62 3,-1 6,-3 8,-4 -47,3 -91,-19 -115,-72 -24,-52 -6,-132 46,-161 -13,1 -26,12 -39,18z"/>
    <path class="fil5" d="M5655 8726c-58,26 -82,97 -54,157 28,61 97,88 154,62 3,-1 6,-3 8,-4 -47,3 -94,-25 -115,-72 -26,-58 -5,-124 46,-153 -13,1 -26,4 -39,10z"/>
    <path class="fil8" d="M5268 8890c13,-5 47,-13 64,-8 55,15 102,134 81,199 -10,30 -53,24 -81,35 -31,12 -15,4 -17,4 90,-83 22,-234 -96,-198 10,-9 13,-19 49,-33z"/>
    <path class="fil12" d="M5324 9115l266 -56c8,-2 19,5 17,13l-126 597c-2,8 -5,18 -13,17l-201 -26c-8,-1 -18,-5 -17,-13l62 -515c1,-8 5,-15 13,-17z"/>
    <path class="fil9" d="M5528 9520l-250 114c-43,20 -62,71 -43,114l0 0c20,43 71,62 114,43l250 -114c43,-20 62,-71 43,-114l0 0c-20,-43 -71,-62 -114,-43z"/>
    <path class="fil5" d="M6160 7525l-1158 421c-59,21 -82,94 -56,151l103 225c26,57 94,82 151,56l1063 -484c57,-26 151,-66 127,-124l-78 -188c-24,-58 -92,-78 -151,-56zm3 76l-852 309c-43,16 -61,69 -42,111l75 166c19,42 69,61 111,42l782 -356c42,-19 111,-49 94,-91l-58 -139c-18,-43 -68,-57 -111,-42z"/>
   </g>
   <path class="fil8" d="M8815 6578l-2264 1031c-19,9 -27,31 -19,50l221 485c9,19 32,29 50,19l2203 -1165c18,-10 27,-31 19,-50l-160 -351c-9,-19 -31,-27 -50,-19z"/>
   <path class="fil13" d="M8671 6643l-34 16c49,128 108,306 147,457l34 -18c-40,-152 -98,-328 -147,-455zm-59 27l-35 16c16,70 38,161 69,276 14,52 21,135 22,215l37 -20c-2,-77 -9,-154 -23,-205 -31,-119 -54,-212 -70,-282zm-198 90l-35 16c47,62 98,159 110,220 20,103 38,184 54,247l34 -18c-16,-60 -33,-138 -51,-236 -12,-64 -63,-163 -112,-229zm-90 41l-35 16c9,57 30,138 64,249 20,65 39,165 47,252l36 -19c-9,-87 -27,-181 -47,-245 -37,-117 -57,-199 -65,-254zm-214 97l-34 16c26,53 60,131 103,240 38,98 70,173 98,230l33 -18c-27,-55 -58,-129 -96,-226 -42,-109 -76,-188 -103,-242zm-73 33l-36 16c13,90 43,215 82,344 18,58 24,126 22,183l38 -20c0,-56 -7,-119 -24,-174 -40,-133 -70,-261 -82,-349zm-220 100l-37 17c50,46 112,138 134,226 30,120 59,203 84,256l33 -17c-23,-50 -50,-129 -80,-248 -23,-89 -82,-181 -134,-234zm-76 35l-35 16c11,46 35,114 80,208 30,65 52,211 44,297 -1,15 -4,27 -6,36l43 -23c0,-3 1,-7 1,-10 9,-91 -15,-247 -48,-316 -47,-99 -71,-166 -79,-208zm-183 83l-36 16c18,18 33,39 40,59 96,254 163,379 207,424l2 2 35 -19c-3,-2 -6,-5 -10,-9 -41,-42 -104,-163 -199,-412 -8,-21 -22,-43 -40,-62zm-129 59l-35 16c12,65 44,159 106,291 33,70 59,158 75,240l34 -18c-17,-82 -43,-169 -76,-237 -64,-138 -95,-231 -105,-291zm-195 89l-28 13c27,31 73,123 146,304 34,86 65,155 91,210l33 -18c-26,-54 -56,-122 -90,-206 -65,-161 -115,-256 -153,-303zm-65 29l-37 17c-13,81 -10,208 -7,329 4,144 7,276 -8,286 -63,38 -101,24 -126,-18 -34,-57 -49,-159 -63,-259 -12,-86 -24,-169 -49,-222l-34 16c22,48 34,129 46,212 15,103 30,210 68,273 29,48 68,71 125,55l61 -32c26,-37 22,-169 19,-311 -4,-137 -7,-284 7,-345zm-380 173l-35 16c40,169 125,549 72,585 -13,9 -48,-23 -113,-120 -13,-19 -16,-47 -20,-84 -8,-69 -20,-167 -98,-309l-34 16c76,137 87,231 95,297 2,16 4,30 6,43l37 81c72,101 119,127 149,107 73,-49 -18,-462 -59,-632z"/>
   <path class="fil11 str0" d="M10517 5913l-232 105c-57,26 -82,94 -56,151l0 0c26,57 94,82 151,56l232 -105c57,-26 82,-94 56,-151l0 0c-26,-57 -94,-82 -151,-56z"/>
   <path class="fil8" d="M10246 6103l-881 401c-19,9 -27,31 -19,50l16 35c9,19 31,27 50,19l881 -401c19,-9 27,-31 19,-50l-16 -35c-9,-19 -31,-27 -50,-19z"/>
   <path class="fil14" d="M8944 6742l56 -25c-12,-238 -6,-588 215,-238 23,37 49,73 72,108l71 -33c-29,-86 -103,-177 -164,-273 -333,-529 -266,253 -251,462z"/>
   <polygon class="fil8" points="9442,6491 9265,6571 9361,6782 9538,6701 "/>
   <polygon class="fil5" points="9051,6665 8944,6714 9052,6952 9090,6935 9129,7022 9090,7040 9119,7104 9229,7054 9218,7030 9200,6990 9152,6887 9152,6887 "/>
   <path class="fil8" d="M9662 6369l-881 401c-19,9 -27,31 -19,50l16 35c9,19 31,27 50,19l881 -401c19,-9 27,-31 19,-50l-16 -35c-9,-19 -31,-27 -50,-19z"/>
   <path class="fil8" d="M9290 6362l-448 204c-18,8 -25,29 -17,47l15 32c8,18 29,25 47,17l448 -204c18,-8 25,-29 17,-47l-15 -32c-8,-18 -29,-25 -47,-17z"/>
   <path class="fil15" d="M4409 2449c-1910,0 -2057,946 -2057,2426 0,1480 280,2680 2166,2680 1886,0 2166,-1200 2166,-2680 0,-1480 -365,-2426 -2275,-2426z"/>
   <path class="fil7" d="M2560 6430c257,681 810,1125 1957,1125 1886,0 2166,-1200 2166,-2680 0,-215 -8,-419 -27,-610 -378,-871 -1116,-1462 -1964,-1462 -1233,0 -2233,1251 -2233,2795 0,290 35,569 101,832z"/>
   <path class="fil7" d="M3400 7307c-3,3 -150,313 -195,382 -254,394 -595,945 -403,1441 35,89 -98,257 50,109 137,-137 476,-1009 531,-1216 40,-149 223,-474 140,-582 -26,-34 -108,-154 -124,-135z"/>
   <path class="fil16" d="M2673 6699c297,527 844,856 1832,856 1886,0 2166,-1200 2166,-2680 0,-977 -159,-1721 -816,-2114 86,158 -1360,-238 -486,157 725,328 769,1021 769,1401 0,1480 -341,3192 -2142,2632 -466,-145 -887,-781 -1096,-829 -225,-51 -66,677 -228,578z"/>
   <path class="fil16" d="M5448 4022c-563,0 -1020,571 -1020,1276 0,705 457,1276 1020,1276 563,0 1020,-571 1020,-1276 0,-705 -457,-1276 -1020,-1276z"/>
   <path class="fil17" d="M6546 6208c98,-360 131,-773 136,-1213 -291,-146 -478,-626 -995,-626 -481,0 -870,453 -870,1012 0,709 414,1411 1246,839 170,-117 268,-118 468,25 5,-12 10,-25 16,-37z"/>
   <path class="fil18" d="M6578 6112c34,-147 60,-302 77,-463 18,-160 28,-327 34,-499l1 -17 -16 -6c-104,-40 -159,-109 -277,-208 -200,-168 -422,-355 -693,-355 -195,0 -371,92 -499,240 -127,147 -205,350 -205,574 0,230 55,460 166,621 46,67 102,122 167,161l0 0c66,39 142,61 226,61l0 0c129,0 279,-50 451,-168 80,-55 160,-84 252,-74 93,11 145,38 276,146l30 24 9 -37zm30 -468c-16,145 -38,286 -68,420 -125,-97 -176,-121 -271,-132 -105,-12 -195,21 -284,82 -163,112 -304,160 -423,160l0 0c-76,0 -144,-19 -202,-54l0 0c-59,-35 -110,-85 -152,-147 -105,-153 -157,-373 -157,-594 0,-212 74,-404 193,-543 118,-138 282,-223 462,-223 254,0 469,181 662,344 115,97 168,164 275,209 -6,164 -16,324 -33,478z"/>
   <path class="fil19" d="M6578 6108c66,-283 97,-596 107,-927 -277,-106 -576,-567 -984,-567 -364,0 -659,343 -659,766 0,536 313,1068 943,635 164,-113 331,-120 593,94z"/>
   <path class="fil20 str1" d="M6158 5310c-63,-114 -94,-191 -146,-207 -166,-52 -313,-103 -501,16"/>
   <path class="fil21 str2" d="M6258 5086l-370 -277c-35,-27 -86,-19 -112,16l-29 39c-26,35 -19,86 16,112l370 277c35,26 86,19 112,-16l29 -39c26,-35 19,-86 -16,-112z"/>
   <path class="fil22" d="M5753 5058c-141,0 -215,37 -249,115 -18,42 -25,95 -25,160 0,186 -16,318 274,324 213,4 384,-134 386,-299 1,-166 -168,-299 -386,-299z"/>
   <path class="fil23" d="M5892 5112c-138,0 -250,116 -250,260 0,144 112,260 250,260 138,0 250,-116 250,-260 0,-144 -112,-260 -250,-260z"/>
   <path class="fil7" d="M5320 12676c-233,44 -527,10 -673,-185 -89,-119 -447,-72 -423,-519 15,-268 245,-258 497,-305 276,-52 562,-42 823,70 256,110 423,818 -224,939z"/>
   <path class="fil24" d="M5191 10060l83 35c37,122 70,127 60,365 -5,108 18,229 84,361 149,299 331,896 104,1187 -141,181 -537,213 -743,174 -401,-75 -655,-308 -583,-756 27,-167 244,-199 -49,-494 -153,-154 -109,-550 160,-659 331,-135 384,-155 737,-175 14,-1 120,-37 148,-39z"/>
   <path class="fil7" d="M3060 12828c-233,-48 -492,-189 -554,-425 -38,-144 -387,-235 -196,-640 115,-243 324,-146 576,-95 276,56 536,173 736,375 196,198 83,917 -562,785z"/>
   <path class="fil25" d="M4262 10414l79 -12c-197,78 -526,272 -490,744 25,333 -31,955 -351,1139 -199,114 -578,-5 -754,-119 -343,-221 -490,-532 -255,-920 88,-145 301,-93 141,-476 -84,-200 106,-551 396,-551 357,0 750,59 1084,174 13,4 125,11 151,20z"/>
   <path class="fil17" d="M2989 12277c-95,-31 -182,-71 -244,-111 -343,-221 -490,-532 -255,-920 1,-2 3,-4 4,-7 1,-2 3,-4 4,-6l0 0c1,-2 3,-4 5,-6l0 0c2,-2 3,-4 5,-6l0 0c2,-2 3,-4 5,-6 2,-2 3,-4 5,-5 2,-2 3,-4 5,-5 2,-2 3,-3 5,-5l0 0c2,-2 3,-3 5,-5l0 0c2,-2 4,-3 5,-5l0 0c2,-2 4,-3 5,-5l0 0c2,-1 4,-3 5,-4l0 0 6 -4 0 0 6 -4 0 0 6 -4 0 0 6 -4 6 -4 0 0 6 -4 0 0 6 -4 6 -4 0 0 5 -4 5 -4 0 0 5 -4 0 0 5 -4 0 0 5 -4 0 0c2,-1 3,-3 5,-4l0 0c2,-1 3,-3 5,-4l0 0c2,-1 3,-3 5,-4l0 0c2,-1 3,-3 5,-4l0 0c2,-2 3,-3 5,-5l0 0c2,-2 3,-3 4,-5l0 0c1,-2 3,-3 4,-5 1,-2 3,-3 4,-5l0 0c1,-2 3,-3 4,-5l0 0c1,-2 2,-4 4,-5l0 0c1,-2 2,-4 3,-6l0 0c1,-2 2,-4 3,-6l0 0c1,-2 2,-4 3,-6l0 0c1,-2 2,-4 3,-6l0 0c1,-2 2,-4 2,-7l0 0c1,-2 2,-5 2,-7 1,-2 1,-5 2,-7l0 0c1,-2 1,-5 2,-8l0 0c0,-3 1,-5 1,-8l0 0c0,-3 1,-5 1,-8l0 0c0,-3 0,-6 1,-9l0 0c0,-3 0,-6 0,-9 0,-3 0,-6 0,-9 0,-3 0,-6 0,-10 0,-3 0,-7 -1,-10l0 0c0,-3 -1,-7 -1,-11 0,-4 -1,-7 -2,-11l0 0c-1,-4 -1,-8 -2,-12 -1,-4 -2,-8 -2,-12 -1,-4 -2,-8 -3,-13 -1,-4 -2,-9 -3,-13 -1,-4 -2,-9 -4,-14 -1,-5 -3,-9 -4,-14 -1,-5 -3,-10 -5,-15 -2,-5 -3,-10 -5,-15 -2,-5 -4,-10 -6,-16 -2,-5 -4,-11 -6,-16 -2,-6 -4,-11 -7,-17 -2,-6 -5,-12 -7,-18 -84,-200 106,-551 396,-551l1 0 1 0 1 0 10 0 1 0 1 0 1 0 1 0 1 0 0 0 1 0 1 0 1 0 1 0 1 0 1 0 6 0 1 0 1 0 1 0 1 0 1 0 1 0 1 0 1 0 0 0 1 0 1 0 1 0 1 0 8 0 1 0 1 0 1 0 1 0 1 0 1 0 0 0 0 0 1 0c13,8 27,16 41,24 3,2 24,-7 55,-21l0 0 7 0 3 0 3 0 3 0 3 0 3 0 3 0 3 0 3 0 3 0 3 0 3 0 3 0 3 0 3 0 3 0 3 0 3 0 3 0 3 0 7 0 3 0 3 0 3 0 7 0 3 0 7 0 3 0 1 0 3 0 3 0 7 1 3 0 1 0 2 0 13 1 1 0 1 0 2 0 3 0 7 1 3 0 2 0 2 0 10 1 3 0 2 0 1 0 10 1 3 0 3 0 1 0 3 0 3 0 3 0 3 0 3 0 0 0 3 0 -77 131c-65,213 -252,721 -436,1126 -47,103 -106,552 38,700 28,29 53,56 74,81z"/>
   <path class="fil25" d="M5033 12194c-95,6 -185,1 -254,-12 -401,-75 -655,-308 -583,-756 27,-167 244,-199 -49,-494 -114,-114 -119,-362 -4,-527 94,-22 194,-31 362,-41 13,-1 120,-37 148,-39l83 35c109,360 400,1617 297,1833z"/>
   <path class="fil7" d="M5068 11260l-39 16c-208,85 -513,10 -694,-117 -208,-146 -109,183 367,240 74,9 536,39 395,-123 -16,-19 -10,3 -28,-16z"/>
   <g>
    <path class="fil11" d="M5121 8986l-24 36c-161,251 12,817 171,1071 95,151 -202,272 -553,273 -484,2 -853,119 -1238,157 -277,28 -570,-1 -755,-185 -336,-334 570,-3170 1226,-2943 196,68 609,-28 822,124 87,62 -56,625 -5,696 228,316 167,185 234,528 21,110 204,140 128,268 -7,-9 -5,-14 -5,-26z"/>
    <path class="fil16" d="M5097 9022c-31,49 -50,110 -59,179 -181,86 -487,163 -696,215 -81,20 -146,37 -181,47 -16,5 -64,12 -130,22 -180,27 -505,75 -588,128 83,62 263,67 466,44 320,-37 688,-146 844,-219 36,-17 161,-68 275,-93l5 -1c1,30 4,62 8,93 -104,23 -217,69 -249,85 -163,77 -544,190 -874,228 -237,27 -452,15 -552,-78 -40,-37 -39,-74 -5,-110 75,-81 452,-137 656,-167 62,-9 107,-16 116,-19 39,-12 105,-29 186,-49 222,-56 562,-141 709,-218 -81,20 -227,57 -386,98 -321,83 -690,178 -802,116 -54,-30 -67,-78 -26,-151 46,-82 216,-112 413,-147 218,-39 473,-84 591,-194 -12,4 -26,8 -43,9 -81,7 -178,22 -213,35 -173,61 -319,72 -464,50 -143,-22 -282,-76 -446,-146l36 -85c158,68 291,120 424,140 130,20 262,10 419,-46 42,-15 149,-33 237,-40 85,-7 159,1 174,37l9 21 -11 20c-107,186 -428,243 -696,291 -174,31 -324,57 -348,100 -9,16 -12,24 -10,25 79,44 429,-46 734,-125 196,-51 375,-97 477,-94zm-31 549c6,28 13,57 21,84 -167,79 -389,124 -466,140l-8 2c-82,17 -264,39 -454,59 -212,22 -434,41 -534,44 -248,8 -371,36 -418,70 -8,6 -11,9 -10,11 2,9 13,21 30,34 66,52 193,95 270,94 29,0 66,-1 107,-1 394,-3 1275,-8 1544,-269 12,30 24,59 36,87 -332,266 -1187,271 -1580,274 -41,0 -76,1 -106,1 -94,2 -249,-50 -329,-114 -33,-26 -56,-55 -63,-87 -9,-39 4,-75 46,-106 60,-44 202,-79 470,-88 98,-3 317,-22 528,-44 187,-20 367,-42 445,-58l8 -2c76,-15 313,-64 464,-134z"/>
   </g>
   <path class="fil16" d="M4546 8411l-48 0c-185,623 -744,1314 -1055,1909 -99,189 -278,228 -439,185 -189,-50 -339,-235 -119,-743 263,-606 662,-1706 1281,-2016 453,-226 764,33 459,533 -49,80 -5,131 -78,131z"/>
   <path class="fil26" d="M4371 8375c0,3 -82,176 -174,348 -127,237 -261,520 -542,221 -116,-123 -153,-324 -12,-521 144,-201 296,-453 532,-563 333,-156 173,702 196,515z"/>
   <path class="fil26" d="M3432 9488c-106,-61 -147,-154 -151,-249 -10,-216 134,-379 293,-264 116,84 274,193 318,330 -29,162 -28,430 -459,183z"/>
   <path class="fil26" d="M3434 10088c-138,212 -330,411 -487,262 -157,-148 29,-922 311,-817 505,188 294,372 175,554z"/>
   <path class="fil7" d="M5022 8341l-2043 930c-38,17 -55,63 -38,101l381 837c17,38 68,64 101,38l1778 -1464c32,-27 53,-62 38,-101l-116 -303c-15,-39 -63,-55 -101,-38z"/>
   <path class="fil5" d="M4687 8497l-1635 744c-30,14 -44,50 -30,80l305 670c14,30 55,51 80,30l1423 -1172c26,-21 42,-49 30,-80l-93 -242c-12,-31 -50,-44 -80,-30z"/>
   <path class="fil8" d="M4687 8497l-545 248 620 160 67 -55c26,-21 42,-49 30,-80l-93 -242c-12,-31 -50,-44 -80,-30z"/>
   <path class="fil8" d="M5642 8021l565 197 -603 216 -72 -49c-28,-19 -46,-45 -37,-77l70 -250c9,-32 46,-48 77,-37z"/>
   <g>
    <path class="fil16" d="M6717 8221c109,32 127,299 41,597 -86,298 -239,478 -353,483 -85,4 -372,-4 -543,-8 -41,-1 -28,-27 -51,-27l298 -1063 559 19c17,-5 34,-6 49,-1l0 0 0 0z"/>
    <path class="fil27" d="M6154 8202c109,31 127,299 42,597 -86,298 -244,515 -353,483 -109,-31 -127,-299 -42,-597 86,-298 244,-515 353,-483z"/>
    <path class="fil25" d="M6077 8260c71,34 60,265 -23,514 -83,250 -208,425 -279,391 -71,-34 -60,-265 23,-514 83,-250 208,-425 279,-391z"/>
    <path class="fil24" d="M6032 8225c-310,-83 -794,-301 -1168,-475 -331,-154 -646,-120 -704,315 -84,633 1022,958 1498,1093 58,16 125,5 146,-51l279 -735c21,-56 7,-131 -51,-146z"/>
    <path class="fil25" d="M4852 8060l-212 -112c-122,-64 -173,93 -235,188 -62,95 -47,314 48,376l106 69c95,62 244,46 285,-60l68 -177c41,-106 40,-232 -60,-285z"/>
    <path class="fil28" d="M5485 8027c-32,-13 -64,-27 -96,-41l-411 943c32,13 65,26 97,39l410 -941z"/>
    <path class="fil27" d="M4811 8855c-13,114 355,259 440,178 13,-28 21,-12 21,-92 0,-80 -107,-231 -239,-231 -101,0 -187,60 -222,146z"/>
    <path class="fil28" d="M6752 8420l-61 0c-60,0 -109,49 -109,109l0 0c0,60 49,109 109,109l61 0c60,0 109,-49 109,-109l0 0c0,-60 -49,-109 -109,-109z"/>
    <path class="fil28" d="M6709 8650l-61 0c-60,0 -109,49 -109,109l0 0c0,60 49,109 109,109l61 0c60,0 109,-49 109,-109l0 0c0,-60 -49,-109 -109,-109z"/>
    <path class="fil28" d="M6619 8874l-61 0c-60,0 -109,49 -109,109l0 0c0,60 49,109 109,109l61 0c60,0 109,-49 109,-109l0 0c0,-60 -49,-109 -109,-109z"/>
    <path class="fil7" d="M6509 9107l-54 0c-53,0 -97,44 -97,97l0 0c0,53 44,97 97,97l54 0c53,0 97,-44 97,-97l0 0c0,-53 -44,-97 -97,-97z"/>
    <path class="fil16" d="M6861 8214l-251 0c-60,0 -109,49 -109,109l0 0c0,60 49,109 109,109l251 0c60,0 109,-49 109,-109l0 0c0,-60 -49,-109 -109,-109z"/>
   </g>
   <path class="fil16" d="M3570 8001c-62,31 -116,-11 -151,-189 -35,-176 -10,-303 48,-391 179,-273 901,-151 917,-58 1,6 -300,3 -486,176 -182,169 -313,455 -328,462z"/>
   <path class="fil29" d="M5261 11519c-97,8 -157,-24 -185,-75 -17,-30 -23,-67 -19,-106 3,-40 17,-82 40,-121 55,-95 165,-170 314,-153 81,9 134,48 160,98 14,28 20,61 18,95 -2,34 -13,70 -33,103 -48,80 -145,148 -294,160zm-236 -47c39,71 117,116 241,106 170,-15 283,-94 339,-189 24,-41 38,-85 41,-129 3,-44 -5,-87 -24,-125 -34,-68 -103,-119 -206,-130 -176,-20 -305,70 -371,182 -27,46 -43,97 -47,146 -4,50 4,99 27,139z"/>
   <path class="fil17" d="M5263 11548c-396,34 -261,-560 149,-515 316,35 266,478 -149,515z"/>
   <path class="fil17" d="M5074 11241l-39 16c-208,85 -513,10 -694,-117 -208,-146 -109,183 367,240 74,9 536,39 395,-123 -16,-19 -10,3 -28,-16z"/>
   <path class="fil20 str1" d="M6167 5429c-32,228 -476,331 -697,230"/>
   <path class="fil7" d="M5944 5187c-102,0 -185,86 -185,193 0,107 83,193 185,193 102,0 185,-86 185,-193 0,-107 -83,-193 -185,-193z"/>
   <path class="fil30" d="M6084 5203c-39,-49 -94,-70 -122,-48 -47,37 6,75 25,99 22,27 57,126 117,78 28,-22 19,-80 -20,-129z"/>
   <path class="fil31" d="M5336 11428c-254,22 -167,-359 96,-329 202,23 170,306 -96,329z"/>
   <path class="fil7" d="M3443 11302l-42 8c-220,42 -505,-91 -658,-251 -175,-184 -143,158 312,307 71,23 518,143 412,-43 -12,-22 -10,1 -25,-22z"/>
   <path class="fil29" d="M3581 11593c-97,-11 -149,-55 -167,-110 -10,-33 -9,-70 2,-108 11,-39 33,-77 63,-111 73,-82 195,-134 337,-89 78,25 123,73 138,128 9,31 8,64 -1,96 -9,33 -27,66 -53,94 -62,69 -171,116 -320,100zm-223 -93c24,77 92,137 216,151 169,19 296,-37 370,-119 32,-36 54,-76 66,-118 12,-42 12,-86 1,-127 -20,-73 -78,-137 -176,-168 -168,-54 -313,8 -399,106 -36,40 -61,87 -75,134 -14,48 -15,97 -1,142z"/>
   <path class="fil17" d="M3578 11622c-396,-44 -146,-601 247,-475 303,97 167,521 -247,475z"/>
   <path class="fil17" d="M3452 11284l-42 8c-220,42 -505,-91 -658,-251 -175,-184 -143,158 312,307 71,23 518,143 412,-43 -12,-22 -10,1 -25,-22z"/>
   <path class="fil31" d="M3672 11518c-253,-28 -93,-384 158,-304 194,62 107,334 -158,304z"/>
  </g>
  <path class="fil32" d="M8987 6616c0,0 -1,0 -1,0l1 0zm-4175 -75c-33,27 -76,44 -123,44 -103,0 -187,-79 -187,-176 0,-41 15,-79 40,-109 -7,-19 -11,-39 -11,-61 0,-97 84,-176 187,-176 79,0 146,46 174,111 14,-3 29,-5 45,-5 265,0 -80,-139 176,-139 58,0 106,45 106,100 0,2 0,5 0,7 13,-3 26,-4 39,-4 82,0 152,50 177,120 109,-55 1623,-41 801,-994 -260,-302 -242,-154 -499,-209 -192,-41 -62,-169 22,-238 173,-144 383,204 519,125 27,-16 36,-44 18,-91 -76,-128 485,-1556 -797,-2119 -136,-60 -281,-106 -426,-142 -488,-121 -978,-121 -1162,-113 -56,2 793,-144 1549,103 636,208 1191,703 1219,1719 19,191 27,395 27,610 0,663 -61,1302 -327,1789 -212,389 -543,628 -1085,783 -907,260 -351,456 467,187 133,-44 251,-83 418,-149 58,-23 120,2 144,60 76,183 441,-73 551,-123 681,-310 1365,-616 2044,-926 2,39 1,80 0,119 -713,322 -1281,626 -1935,884 -97,38 -442,173 -544,265 -8,7 -14,14 -19,20 -60,89 -87,-293 -197,-218 -335,116 -500,178 -709,240 12,10 262,211 521,307 312,116 535,17 820,63 40,7 68,18 71,37 -4,33 -101,20 -182,18 -278,-8 -141,250 -645,76 -154,-50 -289,-165 -638,-318 -798,-349 -1183,-330 -808,-439 139,-40 389,-71 753,-183 353,-109 674,-302 662,-410 -6,-58 -119,-110 -397,-150 -32,-3 -64,-7 -92,-12 -108,-7 -92,-72 -42,-143 -6,0 -13,-1 -18,-1 -146,-21 -233,-187 -292,-83 -23,40 -71,64 -123,64 -58,0 -109,-33 -131,-80 -11,2 -23,3 -34,3 -47,0 -89,-16 -123,-44zm-518 -7c23,0 42,18 42,40 0,22 -19,40 -42,40 -23,0 -62,-18 -62,-40 0,-22 38,-40 62,-40zm-183 -155c23,0 42,18 42,40 0,22 -19,40 -42,40 -23,0 -74,-18 -74,-40 0,-22 51,-40 74,-40zm511 449c37,0 108,27 108,61 0,35 -71,65 -108,65 -37,0 -67,-28 -67,-63 0,-35 30,-63 67,-63zm324 -100c58,0 106,45 106,100 0,55 -47,100 -106,100 -58,0 -106,-45 -106,-100 0,-55 47,-100 106,-100zm4054 -235l171 -79c-7,24 13,83 -15,114 -35,40 -120,60 -160,84 0,-38 1,-84 3,-119z"/>
  <path class="fil33" d="M6048 7046c134,-140 230,-310 167,-405 -167,-253 -1053,88 -604,207 186,49 503,98 437,198z"/>
  <path class="fil33" d="M6350 3940c46,446 -51,622 98,1094 64,203 126,365 118,491 -26,422 -222,497 -232,485 -7,-10 106,-46 138,-209 38,-190 -123,-398 -239,-542 -260,-302 -242,-154 -499,-209 -192,-41 -62,-169 22,-238 173,-144 383,204 519,125 27,-16 36,-44 18,-91 -1,-2 -15,-31 -13,-69 7,-123 68,-820 69,-837z"/>
  <path class="fil4" d="M10847 4443c42,-227 183,-441 20,-147 -253,457 -51,615 68,749 180,204 19,345 -184,521 -99,86 -77,235 74,287 223,76 586,-366 415,-771 -141,-335 -461,-269 -394,-640z"/>
  <g id="_998052784">
   <path class="fil34" d="M15698 2216l-148 517c-33,115 -107,137 -203,110 -96,-28 -147,-86 -114,-200l148 -517 -226 -65 -151 529c-74,258 97,400 286,454 189,54 409,23 483,-235l151 -529 -226 -65z"/>
   <path class="fil35" d="M16073 3248l100 -349c13,-46 27,-100 35,-142l195 585 214 61 244 -855 -226 -65 -100 349c-14,48 -28,102 -36,143l-194 -586 -214 -61 -244 855 226 65zm872 249l87 -120 354 101 10 148 232 66 -92 -951 -244 -70 -580 759 232 66zm365 -506c13,-19 27,-37 47,-80 -6,47 -4,70 -3,93l17 272 -220 -63 158 -222zm542 93c-87,305 369,391 334,514 -12,43 -54,47 -143,21 -98,-28 -202,-87 -284,-185l-61 214c76,76 183,137 306,172 187,53 359,39 417,-164 86,-303 -368,-396 -336,-507 9,-32 41,-46 124,-24 99,27 188,81 246,157l59 -208c-62,-64 -161,-120 -267,-150 -176,-50 -345,-11 -394,159zm790 -27l-58 202 242 69 -187 653 226 65 187 -653 241 69 58 -202 -708 -202zm820 234l-244 855 623 178 56 -195 -397 -113 40 -139 353 101 55 -194 -353 -101 37 -131 390 111 56 -195 -615 -176zm750 1139l80 -278 98 28 124 337 255 73 -147 -377c105,-11 196,-68 237,-210 65,-226 -95,-339 -268,-388l-360 -103 -244 855 226 65zm188 -659l144 41c65,18 99,64 80,130 -19,66 -72,86 -137,68l-144 -41 57 -198zm-5696 -253c-87,305 109,500 344,567 90,26 180,32 264,17l63 -220c-62,34 -151,38 -239,12 -133,-38 -248,-145 -200,-311 53,-186 209,-222 344,-183 78,22 149,70 189,129l61 -214c-64,-57 -146,-100 -233,-125 -231,-66 -502,3 -594,326zm811 218c-68,238 25,489 331,577 305,87 517,-77 585,-315 68,-238 -25,-489 -331,-577 -305,-87 -517,77 -585,315zm684 195c-39,137 -146,216 -294,174 -148,-42 -197,-166 -158,-303 39,-137 146,-216 294,-174 148,42 197,166 158,303zm328 145l-49 171 464 133 49 -171 -464 -133zm588 116c-68,238 25,489 331,577 305,87 517,-77 585,-315 68,-238 -25,-489 -331,-577 -305,-87 -517,77 -585,315zm684 195c-39,137 -146,216 -294,174 -148,-42 -197,-166 -158,-303 39,-137 146,-216 294,-174 148,42 197,166 158,303zm487 -323l-244 855 226 65 77 -269 112 32c212,59 392,38 456,-187 64,-225 -77,-339 -289,-399l-338 -97zm395 430c-22,77 -89,80 -157,61l-123 -35 56 -195 123 35c68,20 124,58 102,135z"/>
   <path class="fil36" d="M14480 4339c-87,305 369,391 334,514 -12,43 -54,47 -143,21 -98,-28 -202,-87 -284,-185l-61 214c76,76 183,137 306,172 187,53 359,39 417,-164 87,-303 -368,-396 -336,-507 9,-32 41,-46 124,-24 99,27 188,81 246,157l59 -208c-62,-64 -161,-120 -267,-150 -176,-50 -345,-11 -394,159zm1414 151l-93 327 -318 -91 93 -327 -226 -65 -244 855 226 65 93 -326 318 91 -93 326 226 65 244 -855 -226 -65zm237 530c-68,238 25,489 331,577 305,87 517,-77 585,-315 68,-238 -25,-489 -331,-577 -305,-87 -517,77 -585,315zm684 195c-39,137 -146,216 -294,174 -148,-42 -197,-166 -158,-303 39,-137 146,-216 294,-174 148,42 197,166 158,303zm322 92c-68,238 25,489 331,577 305,87 517,-77 585,-315 68,-238 -25,-489 -331,-577 -305,-87 -517,77 -585,315zm684 195c-39,137 -146,216 -294,174 -148,-42 -197,-166 -158,-303 39,-137 146,-216 294,-174 148,42 197,166 158,303zm397 -349l-58 201 242 69 -187 653 226 65 187 -653 241 69 58 -202 -708 -202zm820 234l-244 855 623 178 56 -195 -397 -113 40 -139 353 101 55 -194 -353 -101 37 -131 390 111 56 -195 -615 -176zm750 1139l80 -278 98 28 124 337 255 73 -147 -377c105,-11 196,-68 237,-210 65,-226 -95,-339 -268,-388l-360 -103 -244 855 226 65zm188 -659l144 41c65,18 99,64 80,130 -19,66 -72,86 -137,68l-144 -41 57 -198z"/>
  </g>
 </g>
</svg>
