<?xml version="1.0" encoding="UTF-8"?>
<!DOCTYPE svg PUBLIC "-//W3C//DTD SVG 1.1//EN" "http://www.w3.org/Graphics/SVG/1.1/DTD/svg11.dtd">
<!-- Creator: CorelDRAW X6 -->
<svg xmlns="http://www.w3.org/2000/svg" xml:space="preserve" width="225.213mm" height="134.959mm" version="1.1" style="shape-rendering:geometricPrecision; text-rendering:geometricPrecision; image-rendering:optimizeQuality; fill-rule:evenodd; clip-rule:evenodd"
viewBox="0 0 22521 13496"
 xmlns:xlink="http://www.w3.org/1999/xlink">
 <defs>
  <style type="text/css">
   <![CDATA[
    .str1 {stroke:#67BEDB;stroke-width:7.62}
    .str0 {stroke:#2D2E3B;stroke-width:20}
    .fil11 {fill:#00091C}
    .fil2 {fill:#026A6E}
    .fil1 {fill:#16828A}
    .fil21 {fill:#212121}
    .fil0 {fill:#248A91}
    .fil25 {fill:#2D2E3B}
    .fil22 {fill:#32AFB8}
    .fil28 {fill:#359399}
    .fil6 {fill:#442C61}
    .fil7 {fill:#464749}
    .fil14 {fill:#4B3852}
    .fil5 {fill:#513276}
    .fil16 {fill:#56377B}
    .fil24 {fill:#5D9DA6}
    .fil30 {fill:#67BEDB}
    .fil10 {fill:#697049}
    .fil9 {fill:#6E754D}
    .fil4 {fill:#72598F}
    .fil29 {fill:#809DA8}
    .fil15 {fill:#8667AA}
    .fil13 {fill:#8E837E}
    .fil17 {fill:#97AB33}
    .fil20 {fill:#A44D52}
    .fil23 {fill:#B099A8}
    .fil12 {fill:#B2C8D1}
    .fil19 {fill:#C24433}
    .fil8 {fill:#C5DA35}
    .fil26 {fill:#C77165}
    .fil18 {fill:#F2F3ED}
    .fil3 {fill:#464749;fill-rule:nonzero}
    .fil31 {fill:#67BEDB;fill-rule:nonzero}
    .fil27 {fill:#A44D52;fill-rule:nonzero}
   ]]>
  </style>
 </defs>
 <g id="Слой_x0020_1">
  <metadata id="CorelCorpID_0Corel-Layer"/>
  <g id="_270201712">
   <g id="_229212144">
    <g id="_1099856400">
     <rect class="fil0" x="-1" y="-43" width="22522" height="13543"/>
     <path class="fil1" d="M11821 9173c-2083,0 -11415,19 -11407,5l-239 177 122 80 119 78 0 9 -119 80 -121 81 122 80 110 72 -111 74 -121 81 122 80 122 80c1,1 1,8 1,14l11400 1 0 -994z"/>
     <ellipse class="fil2" cx="10152" cy="10042" rx="4638" ry="730"/>
     <path class="fil3" d="M6746 2756c427,381 649,806 754,1252 107,450 95,920 63,1387 -23,336 -181,754 -355,1214 -426,1129 -950,2513 312,3369l0 0c180,122 648,199 1227,239 715,49 1593,42 2323,-2 430,-26 832,-115 1185,-265 344,-145 643,-347 876,-603 822,-900 346,-2383 -82,-3719 -223,-697 -434,-1354 -448,-1884 -4,-150 20,-258 54,-333 -190,12 -518,7 -1060,-65 -683,-91 -1218,-269 -1784,-456 -253,-84 -513,-170 -780,-247 -445,-128 -942,-240 -1364,-256 -320,-12 -596,29 -766,159 -56,43 -99,89 -126,133 -17,28 -28,54 -31,76l2 1zm608 1287c-101,-427 -314,-833 -732,-1196l-21 -19 -4 -28c-8,-61 10,-130 52,-199 36,-59 92,-119 163,-175 201,-153 509,-203 861,-189 435,17 945,130 1400,262 286,82 539,167 786,248 561,186 1091,361 1757,450 941,126 1235,101 1266,92 1,0 -44,48 -70,120 -38,100 -62,244 -60,332 13,507 221,1155 441,1841 441,1375 931,2901 50,3865 -248,272 -564,486 -928,639 -369,156 -796,172 -1242,199 -730,-23 -1580,-81 -2315,26 -604,-42 -1034,-145 -1238,-285l0 0c-1359,-922 -895,-2293 -450,-3472 169,-448 324,-857 345,-1171 31,-455 42,-911 -60,-1342l-1 0z"/>
     <path class="fil4" d="M10603 9951l1120 278 -1352 1252c-1,1 -15,-14 -14,-16l47 -148 47 -148 -151 33 -138 31 42 -134 47 -148 -151 33 -148 33 -6 -6 46 -145 47 -148 -151 33 -147 33 -10 -11 876 -822 -3 2z"/>
     <path class="fil5" d="M10657 11215l-286 265c-1,1 -15,-14 -14,-16l47 -148 47 -148 -151 33 -138 31 42 -134 47 -148 -151 33 -148 33 -6 -6 46 -145 47 -148 -151 33 -147 33 -10 -11 210 -198 720 640 -3 3z"/>
     <path class="fil6" d="M7453 9278l644 708 -876 822c-1,1 -15,-14 -14,-16l47 -148 47 -148 -151 33 -138 31 42 -134 47 -148 -151 33 -148 33 -6 -6 46 -145 47 -148 -151 33 -147 33 -10 -11 876 -822 -3 2z"/>
     <path class="fil7" d="M6671 2790c862,749 880,1677 817,2600 -79,1150 -1837,3411 -10,4650 426,290 2259,331 3598,250 868,-52 1627,-360 2112,-892 1286,-1407 -471,-4121 -510,-5655 -11,-438 217,-438 190,-437 -6,0 -246,102 -1261,-33 -973,-130 -1653,-440 -2553,-701 -804,-233 -1773,-406 -2195,-85 -129,98 -198,216 -186,304l-1 0z"/>
     <path class="fil2" d="M15402 9141l0 -1 -144 -54 -133 -50 108 -89 120 -98 -145 -54 -142 -54 -1 -9 117 -96 120 -98 -145 -54 -141 -53 -2 -15 369 -65c32,-269 95,-546 174,-792 -299,124 -84,-4 -910,425 -826,430 -2318,1509 -2861,2285 2,29 -2,41 -1,42 12,24 -1,-134 393,-327 628,-306 1958,-431 2989,-625 -1,-2 -5,-20 -3,-21l120 -98 119 -98 -2 1z"/>
     <path class="fil8" d="M14807 9361l238 -63 1 -15 309 127c149,-195 373,-704 426,-844 -10,6 -104,-28 -1002,217 -898,245 -2585,983 -3279,1627 -5,28 -11,40 -10,41 6,26 28,-132 453,-237 388,-95 2867,124 2565,-528 -39,-83 474,-214 299,-327l-1 1z"/>
     <path class="fil9" d="M15207 10190l0 -1 -129 -83 -119 -77 125 -64 138 -71 -130 -84 -128 -82 0 -9 135 -69 138 -71 -130 -84 -127 -82 1 -15 375 14c88,-256 208,-513 337,-736 -319,58 -81,-22 -979,223 -898,245 -2585,983 -3279,1627 -5,28 -11,40 -10,41 6,26 28,-132 453,-237 678,-167 2005,-6 3053,23 -1,-2 0,-20 2,-21l138 -71 137 -70 -2 2z"/>
     <path class="fil10" d="M15207 10190l0 -1 -129 -83 -119 -77 125 -64 138 -71 -130 -84 -128 -82 0 -9 135 -69 138 -71 -130 -84 -122 -79 -310 929c87,4 173,7 256,9 -1,-2 0,-20 2,-21l138 -71 137 -70 -1 1zm-217 -794l365 14c88,-256 208,-513 337,-736 -239,43 -165,9 -493,93l-210 629 1 0z"/>
     <path class="fil7" d="M15216 10191l0 -1 -259 -161c-3,1 -2300,-80 -2897,43 -243,151 -456,304 -617,452 -5,28 -11,40 -10,41 6,26 28,-132 453,-237 678,-167 2005,-6 3053,23 6,0 235,-141 276,-163l0 1z"/>
     <path class="fil11" d="M6785 2823c862,749 860,1691 797,2614 -79,1150 -1837,3411 -10,4650 426,290 2259,331 3598,250 868,-52 1627,-360 2112,-892 1286,-1407 -471,-4121 -511,-5655 -11,-438 135,-501 108,-501 -6,0 -164,166 -1179,29 -973,-130 -1653,-440 -2553,-701 -804,-233 -1773,-406 -2195,-85 -129,98 -178,203 -166,290l-1 1z"/>
     <path class="fil7" d="M7319 3528c177,339 252,699 276,1066 143,87 263,160 323,200 931,612 2072,1375 2761,1608 885,299 1133,296 2046,341 168,8 354,125 371,41 -218,-681 -422,-1324 -435,-1835 -11,-438 135,-501 108,-501 -6,0 -164,166 -1179,29 -973,-130 -1653,-440 -2552,-701 -575,-167 -1234,-303 -1718,-250l-1 1z"/>
     <path class="fil12" d="M7412 6133c-26,80 -54,163 -84,248 1631,-229 2917,-933 3346,-1829 101,-210 451,-431 451,-658 0,-168 96,-331 241,-490 -381,-68 -721,-164 -1055,-269 158,246 244,514 244,793 0,1107 -1358,2025 -3144,2205z"/>
     <path class="fil13" d="M6818 2811c44,39 34,103 74,143 737,727 751,1608 691,2483 -16,232 -100,509 -209,814 1631,-229 2917,-933 3346,-1829 101,-210 451,-431 451,-658 0,-168 96,-331 241,-490 -826,-147 -1456,-422 -2265,-656 -804,-233 -1773,-406 -2195,-85 -129,98 -145,191 -133,278l-1 0z"/>
     <path class="fil14" d="M6765 2839c506,440 2880,1956 3065,2537 572,-315 696,-548 908,-991 101,-210 451,-431 451,-658 0,-168 -560,214 -414,55 -826,-147 -913,-469 -1722,-703 -804,-233 -1374,-726 -1797,-404 -129,98 -503,77 -490,166l-1 -1z"/>
     <path class="fil15" d="M13073 5720l-40 -126c-67,3 -219,-11 -330,-71 -712,-384 -1161,9 -2046,-341 -1295,-514 -2578,-1873 -3850,-2421 13,41 -11,-90 -22,49 535,268 1681,1225 2311,1622 613,386 1148,760 1576,886 912,267 1148,265 2062,310 168,8 323,177 339,92z"/>
     <polygon class="fil16" points="11271,3072 11676,3090 11845,3687 11271,3663 "/>
     <path class="fil17" d="M13206 5626c-218,-681 -422,-1324 -435,-1835 -11,-438 135,-501 108,-501 -6,0 -164,166 -1179,29 -973,-130 -1653,-440 -2553,-701 -804,-233 -1773,-406 -2195,-85 -111,85 -159,181 -167,263 98,147 1033,700 1244,840 931,612 2072,1375 2761,1608 347,117 597,189 827,234 109,21 422,64 548,4 83,-40 68,-170 110,-238 174,-277 46,316 234,325 99,5 207,10 326,16 168,8 354,125 371,41z"/>
     <path class="fil9" d="M13057 5413c-178,-566 -326,-1094 -338,-1528 -11,-438 135,-501 108,-501 -6,0 -164,166 -1179,29 -232,-31 -446,-72 -653,-120 318,118 641,318 943,585 606,534 400,798 426,902 65,261 401,74 539,328 55,101 106,204 152,306l2 -1z"/>
     <path class="fil18" d="M11360 3266c-801,-149 -1422,-417 -2214,-647 -804,-233 -1773,-406 -2195,-85 -63,48 -111,100 -143,151 -81,129 -26,147 86,231 292,219 961,607 1134,720 715,471 1554,1029 2216,1368 435,-413 822,-1013 1116,-1739z"/>
     <path class="fil19" d="M6751 8382c-44,637 138,1243 821,1705 341,232 1581,304 2747,283 76,-205 549,52 586,-180 32,-198 -271,-873 -271,-1083 0,-1508 -1045,-2739 -2022,-2739 -977,0 -1639,853 -1861,2012l1 1z"/>
     <path class="fil20" d="M8889 10343c442,29 942,36 1429,27 26,-69 96,-85 180,-86 128,-122 391,14 490,-155 -81,-270 -355,-885 -355,-1021 0,-272 26,-808 -153,-1289 -51,-138 -125,-212 -195,-330 -240,-408 -644,-692 -686,-718 153,263 793,1102 679,1977 -114,876 -719,1543 -1400,1585l12 11 -1 0z"/>
     <path class="fil21" d="M12539 9993c287,-141 539,-325 742,-548 1286,-1407 -471,-4121 -511,-5655 -11,-438 135,-501 108,-501 -1,0 -11,9 -37,21 -283,545 -503,1303 -622,2184 -65,478 -100,991 -100,1527 0,1132 157,2169 417,2971l2 0z"/>
     <path class="fil7" d="M12182 8228c63,602 179,1185 323,1662 218,-84 292,-114 640,-467 348,-353 650,-1149 349,-1447 -276,-273 -840,-157 -1312,252z"/>
     <ellipse class="fil15" cx="11489" cy="6060" rx="512" ry="513"/>
     <ellipse class="fil8" cx="11410" cy="6060" rx="512" ry="513"/>
     <ellipse class="fil13" cx="11451" cy="6005" rx="472" ry="474"/>
     <ellipse class="fil2" cx="11334" cy="6047" rx="367" ry="368"/>
     <circle class="fil22" cx="11307" cy="5795" r="116"/>
     <path class="fil4" d="M10138 10404c17,-2 236,27 501,34 109,3 226,2 340,-6 339,-24 652,-135 663,-144 -127,24 -346,-27 -470,-246 -288,-506 -445,-1516 -473,-1786 -40,-383 -61,-787 -61,-1203 0,-749 64,-1532 207,-2154 151,-658 465,-1242 830,-1811l-454 -157 -136 453c-159,418 -339,941 -422,1308 -154,683 -242,1479 -242,2328 0,502 31,984 88,1436 39,312 103,680 176,1022 35,165 126,373 94,558 -45,253 -666,283 -639,366l-1 0z"/>
     <path class="fil23" d="M11542 3301c43,-71 87,-141 132,-212l-454 -157 -85 283 406 85 1 0z"/>
     <path class="fil17" d="M11086 10112c-290,-505 -445,-1516 -473,-1786 -40,-383 -61,-786 -61,-1203 0,-606 42,-1233 133,-1780l-204 -95c-95,565 -148,1189 -148,1844 0,502 31,984 88,1436 39,312 103,680 176,1022 35,165 127,373 94,558 -23,129 -567,262 -484,242 121,-29 525,-117 723,-99 336,31 406,294 157,-139l0 1z"/>
     <path class="fil16" d="M11484 10341c94,-26 154,-49 159,-53 -696,128 -974,-1988 -998,-3281 -11,-621 45,-1224 131,-1765l-207 -81c-96,566 -150,1204 -150,1862 0,502 31,984 88,1436 39,312 103,680 176,1022 35,165 126,373 94,558 -34,195 -410,257 -570,314l1276 -11z"/>
     <path class="fil1" d="M22520 10979c-2083,0 -11415,19 -11407,5l-239 177 122 80 119 78 0 9 -119 80 -121 81 122 80 110 72 -111 74 -121 81 122 80 122 80c1,1 1,8 1,14l11400 1 0 -994z"/>
     <circle class="fil24" cx="11471" cy="5888" r="63"/>
     <path class="fil8" d="M10678 11195c42,-18 837,-708 1014,-798 231,-116 611,-275 823,-373 366,-171 716,-472 813,-578 1286,-1407 -519,-4121 -511,-5655 2,-460 87,-509 63,-499 -35,13 -68,143 -91,288 -246,1564 1308,3425 813,4994 -255,810 -888,1262 -1582,1563 -310,134 -346,131 -415,167 -62,31 -244,251 -312,311 -78,68 -600,575 -615,581l0 -1z"/>
     <path class="fil21" d="M12480 5811c-93,283 -325,370 -329,831 -9,961 -275,1945 -596,2539 -208,386 -366,366 -343,379 1,1 14,-2 42,1 391,-250 811,-624 1226,-1096 159,-181 454,-655 721,-626 280,30 -2,-296 80,-418l-801 0 0 -1609z"/>
     <path class="fil11" d="M10973 5990c-2,17 -4,34 -4,51 0,204 164,368 367,368 203,0 367,-165 367,-368 0,-17 -1,-35 -4,-51 -25,179 -178,317 -363,317 -185,0 -338,-137 -363,-317z"/>
     <circle class="fil24" cx="11330" cy="5808" r="36"/>
     <path class="fil5" d="M7511 10537l-286 265c-1,1 -15,-14 -14,-16l47 -148 47 -148 -151 33 -138 31 42 -134 47 -148 -151 33 -148 33 -6 -6 46 -145 47 -148 -151 33 -147 33 -10 -11 210 -198 720 640 -3 3z"/>
     <polygon class="fil25 str0" points="11600,6314 11606,6365 11613,6415 11565,6394 11518,6373 11559,6343 "/>
     <polygon class="fil25 str0" points="11686,6192 11710,6237 11733,6281 11681,6278 11630,6275 11658,6234 "/>
     <path class="fil26" d="M8579 6907c-430,-114 -826,109 -1079,406 -664,776 41,1340 385,783 118,-192 223,-458 438,-602 249,-167 558,-2 596,-263 16,-111 -59,-250 -340,-325z"/>
     <path class="fil27" d="M8570 6939c-191,-51 -375,-32 -543,31 -196,74 -369,210 -503,365 -253,296 -301,557 -246,732 21,66 56,119 100,157 43,37 95,59 151,63 109,8 232,-54 327,-208 27,-43 54,-92 82,-143 93,-169 195,-355 367,-469 113,-75 235,-86 341,-96 122,-11 221,-20 239,-143 8,-51 -9,-110 -65,-165 -50,-47 -130,-91 -250,-123l-1 0zm-567 -31c179,-67 377,-87 583,-33 132,35 222,84 279,139 75,71 96,151 85,223 -26,175 -148,186 -299,200 -98,9 -211,19 -311,85 -158,105 -256,284 -345,445 -28,50 -55,99 -84,146 -110,178 -256,249 -388,239 -69,-5 -135,-33 -189,-79 -53,-46 -96,-109 -120,-188 -61,-194 -11,-479 259,-795 140,-164 322,-306 531,-384l1 1z"/>
     <path class="fil28" d="M11793 894c1347,0 663,1452 1835,682 148,-97 139,-158 145,-148 41,64 -372,681 -436,762 -416,529 -987,908 -1544,918 -610,11 -1104,-496 -1104,-1107 0,-611 522,-1107 1104,-1107l0 -1z"/>
     <rect class="fil29" transform="matrix(0.359267 0.207558 -0.207101 0.360059 11640.3 2274.27)" width="935" height="1605"/>
     <polygon class="fil22" points="11370,2615 11847,2872 11832,2909 11355,2650 "/>
     <polygon class="fil30" points="11490,2448 11569,2469 11995,2659 11973,2724 11496,2466 "/>
     <ellipse class="fil22" cx="11792" cy="2078" rx="497" ry="499"/>
     <polygon class="fil30" points="11447,2523 11923,2781 11912,2825 11435,2566 "/>
     <path class="fil12" d="M8487 2581c-592,-110 -1145,-121 -1460,98 584,-90 986,-36 1460,103l0 -202z"/>
     <circle class="fil22" transform="matrix(0.194251 0.0556133 -0.0744472 0.261183 11762.7 2142.11)" r="1199"/>
     <path class="fil31 str1" d="M11856 1801l0 0 4 1c73,21 128,79 157,157 28,74 32,167 6,259l0 0c-26,92 -78,169 -141,217 -65,50 -142,70 -215,49 -73,-21 -128,-79 -157,-157 -28,-74 -32,-167 -6,-259l0 0 0 0c26,-92 78,-169 141,-217 64,-49 139,-69 211,-50zm109 177c-23,-60 -65,-106 -120,-121l0 0c-55,-16 -115,1 -166,40 -54,41 -98,106 -121,188l0 0 0 0c-23,80 -20,161 4,224 23,60 65,106 120,121 55,16 115,-1 166,-40 54,-41 98,-106 121,-188l0 0c23,-80 20,-161 -4,-224z"/>
     <path class="fil2" d="M12889 1684c123,149 299,180 747,-114 148,-97 139,-158 145,-148 40,64 -372,681 -436,762 -379,482 -794,946 -1572,926 -610,-15 -1104,-496 -1104,-1107 0,-611 522,-1107 1104,-1107 107,0 200,9 283,25 -595,6 -1054,571 -1044,1104 15,820 1298,1302 1841,381 73,-124 78,-281 78,-416 0,-106 -14,-209 -41,-306l-1 0z"/>
    </g>
   </g>
  </g>
 </g>
</svg>
