<?xml version="1.0" encoding="UTF-8"?>
<!DOCTYPE svg PUBLIC "-//W3C//DTD SVG 1.1//EN" "http://www.w3.org/Graphics/SVG/1.1/DTD/svg11.dtd">
<!-- Creator: CorelDRAW X6 -->
<svg xmlns="http://www.w3.org/2000/svg" xml:space="preserve" width="225.213mm" height="134.959mm" version="1.1" style="shape-rendering:geometricPrecision; text-rendering:geometricPrecision; image-rendering:optimizeQuality; fill-rule:evenodd; clip-rule:evenodd"
viewBox="0 0 22521 13496"
 xmlns:xlink="http://www.w3.org/1999/xlink">
 <defs>
  <style type="text/css">
   <![CDATA[
    .str2 {stroke:black;stroke-width:20}
    .str0 {stroke:#1C0D00;stroke-width:42.33}
    .str1 {stroke:#341B02;stroke-width:84.67}
    .fil12 {fill:none}
    .fil0 {fill:#2B2B2B}
    .fil7 {fill:#341B02}
    .fil2 {fill:#362100}
    .fil15 {fill:#48210C}
    .fil5 {fill:#4A2E00}
    .fil14 {fill:#522B06}
    .fil9 {fill:#584122}
    .fil10 {fill:#685330}
    .fil1 {fill:#6B3400}
    .fil4 {fill:#874405}
    .fil11 {fill:#8F5C10}
    .fil16 {fill:#926100}
    .fil6 {fill:#1C0D00;fill-rule:nonzero}
    .fil8 {fill:#341B02;fill-rule:nonzero}
    .fil3 {fill:#685330;fill-rule:nonzero}
    .fil13 {fill:#6B3400;fill-rule:nonzero}
   ]]>
  </style>
 </defs>
 <g id="Слой_x0020_1">
  <metadata id="CorelCorpID_0Corel-Layer"/>
  <rect class="fil0" x="-7" y="-25" width="22494" height="13521"/>
  <g id="_998117168">
   <rect class="fil1" x="12899" y="1691" width="2737" height="2794"/>
   <polygon class="fil2" points="12899,4455 12902,1682 13311,2065 13306,4016 "/>
   <path class="fil3" d="M12872 4455l3 -2773 31 18 15 -38 409 383 9 8 0 12 -6 1952 0 11 -7 8 -407 438 -17 7 -30 -26zm58 -2710l-3 2640 352 -379 6 -1929 -355 -331z"/>
   <rect class="fil4" x="13331" y="2057" width="1890" height="1947"/>
   <polygon class="fil5" points="13580,2057 13637,2057 13637,4004 13580,4004 "/>
   <polygon class="fil2" points="15642,4455 15639,1696 15221,2068 15235,4016 "/>
   <path class="fil3" d="M15614 4385l-3 -2627 -363 323 14 1926 352 379zm44 -2688l0 2794 -15 -6 -22 -12 -407 -438 -7 -8 0 -11 -14 -1949 0 -12 9 -8 418 -371 31 19 7 2z"/>
   <path class="fil6 str0" d="M12899 1664l2737 0 27 0 0 27 0 2794 0 27 -27 0 -2737 0 -27 0 0 -27 0 -2794 0 -27 27 0zm2709 55l-2682 0 0 2739 2682 0 0 -2739z"/>
   <polygon class="fil7" points="13896,2057 13965,2057 13965,4004 13896,4004 "/>
   <polygon class="fil2" points="14232,2057 14294,2057 14294,4004 14232,4004 "/>
   <polygon class="fil5" points="14569,2057 14627,2057 14627,4004 14569,4004 "/>
   <polygon class="fil7" points="14912,2057 14959,2057 14959,4004 14912,4004 "/>
   <polygon class="fil1 str1" points="14950,2057 15221,2057 15221,2370 13590,4004 13314,4004 13314,3698 "/>
   <path class="fil8" d="M13301 1997l1951 0 28 0 0 28 0 2010 0 28 -28 0 -1951 0 -28 0 0 -28 0 -2010 0 -28 28 0zm1897 58l-1869 -2 0 1953 1877 0 -9 -1952z"/>
   <circle class="fil9" cx="15478" cy="2140" r="43"/>
   <circle class="fil10" cx="13491" cy="3800" r="44"/>
   <circle class="fil10" cx="15023" cy="2282" r="44"/>
   <circle class="fil9" cx="13087" cy="2140" r="43"/>
   <circle class="fil9" cx="13372" cy="4284" r="43"/>
   <circle class="fil9" cx="15223" cy="4299" r="43"/>
   <rect class="fil11" x="9711" y="1691" width="2737" height="2794"/>
   <polygon class="fil2" points="9711,4455 9714,1682 10123,2065 10118,4016 "/>
   <path class="fil3" d="M9684 4455l3 -2773 31 18 15 -38 409 383 9 8 0 12 -6 1952 0 11 -7 8 -407 438 -17 7 -30 -26zm58 -2710l-3 2640 352 -379 6 -1929 -355 -331z"/>
   <rect class="fil4" x="10143" y="2057" width="1890" height="1947"/>
   <polygon class="fil5" points="10392,2057 10449,2057 10449,4004 10392,4004 "/>
   <polygon class="fil2" points="12454,4455 12451,1696 12033,2068 12047,4016 "/>
   <path class="fil3" d="M12426 4385l-3 -2627 -363 323 14 1926 352 379zm44 -2688l0 2794 -15 -6 -22 -12 -407 -438 -7 -8 0 -11 -14 -1949 0 -12 9 -8 418 -371 31 19 7 2z"/>
   <path class="fil6 str0" d="M9711 1664l2737 0 27 0 0 27 0 2794 0 27 -27 0 -2737 0 -27 0 0 -27 0 -2794 0 -27 27 0zm2709 55l-2682 0 0 2739 2682 0 0 -2739z"/>
   <polygon class="fil7" points="10708,2057 10777,2057 10777,4004 10708,4004 "/>
   <polygon class="fil2" points="11044,2057 11107,2057 11107,4004 11044,4004 "/>
   <polygon class="fil5" points="11381,2057 11439,2057 11439,4004 11381,4004 "/>
   <polygon class="fil7" points="11725,2057 11771,2057 11771,4004 11725,4004 "/>
   <path class="fil8" d="M10113 1997l1951 0 28 0 0 28 0 2010 0 28 -28 0 -1951 0 -28 0 0 -28 0 -2010 0 -28 28 0zm1897 58l-1869 -2 0 1953 1877 0 -9 -1952z"/>
   <circle class="fil9" cx="12290" cy="2140" r="43"/>
   <polygon class="fil11" points="11762,2057 12033,2057 12033,2370 10403,4004 10126,4004 10126,3698 "/>
   <path class="fil8" d="M11762 2030l271 0 27 0 0 27 0 312 0 11 -8 8 -1630 1634 -8 8 -11 0 -276 0 -27 0 0 -27 0 -307 0 -11 8 -8 1636 -1640 8 -8 11 0zm243 55l-232 0 -1620 1624 0 268 238 0 1614 -1618 0 -274z"/>
   <circle class="fil10" cx="10304" cy="3800" r="44"/>
   <circle class="fil10" cx="11836" cy="2282" r="44"/>
   <circle class="fil9" cx="9899" cy="2140" r="43"/>
   <circle class="fil9" cx="10184" cy="4284" r="43"/>
   <circle class="fil9" cx="12035" cy="4299" r="43"/>
   <g>
    <polygon class="fil1" points="10418,2057 10147,2057 10147,2370 11777,4004 12054,4004 12054,3698 "/>
    <path class="fil8" d="M10418 2030l-271 0 -27 0 0 27 0 312 0 11 8 8 1630 1634 8 8 11 0 276 0 27 0 0 -27 0 -307 0 -11 -8 -8 -1636 -1640 -8 -8 -11 0zm-243 55l232 0 1620 1624 0 268 -238 0 -1614 -1618 0 -274z"/>
    <circle class="fil10" cx="11876" cy="3800" r="44"/>
    <circle class="fil10" cx="10344" cy="2282" r="44"/>
   </g>
   <rect class="fil7" x="6620" y="1691" width="2737" height="2794"/>
   <polygon class="fil1" points="6620,1691 9356,1691 9356,2039 6620,2039 "/>
   <polygon class="fil2" points="6620,4455 6622,1682 7032,2065 7026,4016 "/>
   <path class="fil3" d="M6592 4455l3 -2773 31 18 15 -38 409 383 9 8 0 12 -6 1952 0 11 -7 8 -407 438 -17 7 -30 -26zm58 -2710l-3 2640 352 -379 6 -1929 -355 -331z"/>
   <rect class="fil4" x="7052" y="2057" width="1890" height="1947"/>
   <polygon class="fil5" points="7300,2057 7358,2057 7358,4004 7300,4004 "/>
   <polygon class="fil2" points="9362,4455 9359,1696 8941,2068 8955,4016 "/>
   <path class="fil3" d="M9335 4385l-3 -2627 -363 323 14 1926 352 379zm44 -2688l0 2794 -15 -6 -22 -12 -407 -438 -7 -8 0 -11 -14 -1949 0 -12 9 -8 418 -371 31 19 7 2z"/>
   <path class="fil6 str0" d="M6620 1664l2737 0 27 0 0 27 0 2794 0 27 -27 0 -2737 0 -27 0 0 -27 0 -2794 0 -27 27 0zm2709 55l-2682 0 0 2739 2682 0 0 -2739z"/>
   <polygon class="fil7" points="7616,2057 7685,2057 7685,4004 7616,4004 "/>
   <polygon class="fil2" points="7953,2057 8015,2057 8015,4004 7953,4004 "/>
   <polygon class="fil5" points="8289,2057 8347,2057 8347,4004 8289,4004 "/>
   <polygon class="fil7" points="8633,2057 8679,2057 8679,4004 8633,4004 "/>
   <path class="fil8" d="M7021 1997l1951 0 28 0 0 28 0 2010 0 28 -28 0 -1951 0 -28 0 0 -28 0 -2010 0 -28 28 0zm1897 58l-1869 -2 0 1953 1877 0 -9 -1952z"/>
   <circle class="fil9" cx="9198" cy="2140" r="43"/>
   <polygon class="fil1" points="8671,2057 8941,2057 8941,2370 7311,4004 7035,4004 7035,3698 "/>
   <path class="fil8" d="M8671 2030l271 0 27 0 0 27 0 312 0 11 -8 8 -1630 1634 -8 8 -11 0 -276 0 -27 0 0 -27 0 -307 0 -11 8 -8 1636 -1640 8 -8 11 0zm243 55l-232 0 -1620 1624 0 268 238 0 1614 -1618 0 -274z"/>
   <circle class="fil10" cx="7212" cy="3800" r="44"/>
   <circle class="fil10" cx="8744" cy="2282" r="44"/>
   <circle class="fil9" cx="6807" cy="2140" r="43"/>
   <circle class="fil9" cx="7092" cy="4284" r="43"/>
   <circle class="fil9" cx="8943" cy="4299" r="43"/>
   <polygon class="fil1" points="7326,2057 7055,2057 7055,2370 8686,4004 8962,4004 8962,3698 "/>
   <path class="fil8" d="M7326 2030l-271 0 -27 0 0 27 0 312 0 11 8 8 1630 1634 8 8 11 0 276 0 27 0 0 -27 0 -307 0 -11 -8 -8 -1636 -1640 -8 -8 -11 0zm-243 55l232 0 1620 1624 0 268 -238 0 -1614 -1618 0 -274z"/>
   <circle class="fil10" cx="8785" cy="3800" r="44"/>
   <circle class="fil10" cx="7252" cy="2282" r="44"/>
   <polygon class="fil7" points="6572,4800 6575,4800 6575,4791 6585,4800 7306,4797 7309,5099 9347,4800 9326,4827 9351,4805 9370,7751 9369,7750 9370,7753 8801,7751 8803,7687 7485,7540 6572,7634 6572,7603 "/>
   <path class="fil6" d="M6531 4756l775 -3 44 0 0 44 2 252 2042 -300 19 2941 1 107c0,0 -32,0 -64,0l-550 -2 -45 0 2 -45 1 -24 -1273 -141 -957 98 0 -2883 3 -44zm732 85l-647 3 0 2742 865 -89 5 -1 4 1 1318 146 40 4 -1 41 -1 19 474 2 -12 -101 17 21 -18 -2726 -297 264 236 -307 -1931 284 -50 7 0 -50 -2 -259z"/>
   <polygon class="fil7" points="6599,4815 7323,4812 7327,5302 8946,5153 9342,7595 9357,7726 8797,7724 8808,7383 6599,7609 "/>
   <polygon class="fil11" points="6599,7578 6602,4806 7011,5188 7005,7140 "/>
   <rect class="fil12" x="7014" y="5181" width="1907" height="1947"/>
   <polygon class="fil1" points="7601,5181 7658,5181 7658,7128 7601,7128 "/>
   <polygon class="fil1" points="7931,5181 7994,5181 7994,7128 7931,7128 "/>
   <polygon class="fil1" points="8268,5181 8326,5181 8326,7128 8268,7128 "/>
   <polygon class="fil1" points="8604,5181 8659,5181 8659,7128 8604,7128 "/>
   <polygon class="fil1" points="7285,5181 7342,5181 7342,7128 7285,7128 "/>
   <polygon class="fil11" points="8650,5181 8921,5181 8921,5493 7290,7128 7014,7128 7014,6821 "/>
   <polygon class="fil11" points="9358,7724 9339,4820 8921,5191 8880,7143 "/>
   <polygon class="fil13" points="9101,5068 8948,5204 8905,7191 9052,7516 9101,7455 8859,7161 8852,7153 8853,7143 8893,5191 8893,5179 8902,5171 9101,4995 "/>
   <circle class="fil7" cx="8931" cy="5007" r="32"/>
   <circle class="fil7" cx="9180" cy="5267" r="32"/>
   <circle class="fil7" cx="7010" cy="4989" r="32"/>
   <circle class="fil12 str2" cx="6761" cy="5250" r="32"/>
   <circle class="fil7" cx="7027" cy="7406" r="32"/>
   <circle class="fil7" cx="6778" cy="7145" r="32"/>
   <circle class="fil7" cx="8925" cy="7406" r="32"/>
   <circle class="fil7" cx="9174" cy="7145" r="32"/>
   <circle class="fil7" cx="8643" cy="5486" r="32"/>
   <circle class="fil7" cx="7293" cy="6838" r="32"/>
   <polygon class="fil1" points="9335,4815 6612,5215 7036,5578 8945,5299 "/>
   <circle class="fil7" transform="matrix(-0.0564302 -0.407577 0.407577 -0.0564302 7076.05 5311.11)" r="78"/>
   <circle class="fil7" transform="matrix(-0.0564302 -0.407577 -0.407577 0.0564302 8937 5059.26)" r="78"/>
   <polygon class="fil1" points="9355,7723 6605,7417 7012,6982 8875,7136 "/>
   <circle class="fil7" transform="matrix(-0.0564302 0.407577 0.407577 0.0564302 7076.05 7242.23)" r="78"/>
   <polygon class="fil13" points="6930,5318 6979,5218 6983,7205 6887,7381 6840,7319 7029,7176 7036,7168 7036,7158 7033,5206 7033,5194 7025,5186 6932,5245 "/>
   <polygon class="fil7" points="9696,7756 9696,7753 9687,7753 9696,7743 9695,7021 9998,7020 9704,4981 9731,5001 9710,4977 12655,4966 12654,4967 12657,4966 12654,5535 12590,5533 12439,6850 12530,7764 12499,7764 "/>
   <path class="fil6" d="M9652 7796l-1 -775 0 -44 44 0 252 -1 -294 -2043 2941 -11 107 -1c0,0 0,32 0,64l-3 550 0 45 -45 -2 -24 -1 -145 1273 95 957 -2883 -8 -44 -3zm87 -731l1 647 2742 8 -86 -865 0 -5 1 -4 150 -1318 5 -40 41 2 19 1 3 -474 -101 11 21 -17 -2726 10 263 298 -306 -237 278 1932 7 50 -50 0 -259 1z"/>
   <polygon class="fil7" points="9711,7729 9710,7005 10201,7002 10056,5382 12500,4994 12631,4979 12627,5539 12285,5527 12505,7737 "/>
   <polygon class="fil7" points="12475,7737 9702,7726 10086,7345 12038,7355 "/>
   <rect class="fil14" transform="matrix(0.00129915 -0.452313 0.452313 0.00129915 10078.9 7314.78)" width="4216" height="4304"/>
   <polygon class="fil7" points="10081,6728 10081,6671 12027,6676 12027,6733 "/>
   <polygon class="fil7" points="10082,6398 10082,6334 12028,6340 12028,6403 "/>
   <polygon class="fil7" points="10083,6061 10083,6002 12029,6008 12029,6067 "/>
   <polygon class="fil7" points="10083,5725 10084,5670 12030,5676 12030,5730 "/>
   <polygon class="fil7" points="10080,7044 10080,6987 12027,6992 12026,7049 "/>
   <polygon class="fil15" points="12629,4978 9724,4989 10094,5408 12046,5454 "/>
   <polygon class="fil13" points="9972,5221 10107,5375 12094,5423 12420,5277 12358,5228 12064,5469 12056,5476 12046,5475 10094,5429 10082,5429 10074,5420 9899,5221 "/>
   <circle class="fil7" transform="matrix(0.00118181 -0.411463 0.411463 0.00118181 9909.79 5397.57)" r="78"/>
   <circle class="fil7" transform="matrix(0.00118181 -0.411463 0.411463 0.00118181 10171 5149.27)" r="78"/>
   <circle class="fil7" transform="matrix(-0.00118181 0.411463 0.411463 0.00118181 9887.1 7318.37)" r="78"/>
   <circle class="fil12 str2" transform="matrix(-0.00118181 0.411463 0.411463 0.00118181 10146.9 7568.17)" r="78"/>
   <circle class="fil7" transform="matrix(-0.00118181 0.411463 -0.411463 -0.00118181 12303.2 7308.14)" r="78"/>
   <circle class="fil7" transform="matrix(-0.00118181 0.411463 -0.411463 -0.00118181 12042 7556.45)" r="78"/>
   <circle class="fil7" transform="matrix(0.00118181 -0.411463 -0.411463 -0.00118181 12308.7 5410.21)" r="78"/>
   <circle class="fil7" transform="matrix(0.00118181 -0.411463 -0.411463 -0.00118181 12048.9 5160.41)" r="78"/>
   <polygon class="fil1" points="9719,4993 10112,7717 10476,7293 10203,5384 "/>
   <circle class="fil7" transform="matrix(-0.407737 0.0552593 -0.0552593 -0.407737 10209 7253.02)" r="78"/>
   <circle class="fil7" transform="matrix(-0.407737 0.0552593 0.0552593 0.407737 9962.44 5391.35)" r="78"/>
   <polygon class="fil1" points="12627,4981 12314,7730 11880,7321 12039,5459 "/>
   <polygon class="fil1 str1" points="11823,5434 12067,5420 12084,5702 10698,7264 10449,7278 10433,7002 "/>
   <g>
    <polygon class="fil11" points="10084,5679 10084,5408 10397,5409 12026,7044 12026,7320 11719,7319 "/>
    <circle class="fil7" transform="matrix(0.00118181 -0.411463 0.411463 0.00118181 10388.7 5686.94)" r="78"/>
    <circle class="fil7" transform="matrix(0.00118181 -0.411463 0.411463 0.00118181 11736 7040.84)" r="78"/>
   </g>
   <path class="fil8" d="M10070 5652l1 -271 0 -27 27 0 312 1 11 0 8 8 1630 1635 8 8 0 11 -1 276 0 27 -27 0 -307 -1 -11 0 -8 -8 -1635 -1641 -8 -8 0 -11zm55 -243l-1 232 1619 1625 268 1 1 -238 -1614 -1619 -274 -1z"/>
   <circle class="fil7" transform="matrix(0.407413 0.0576006 0.0576006 -0.407413 12140.1 7258.57)" r="78"/>
   <circle class="fil7" transform="matrix(0.407413 0.0576006 -0.0576006 0.407413 12397.3 5398.34)" r="78"/>
   <polygon class="fil13" points="10243,7366 10143,7340 12130,7341 12306,7394 12243,7419 12101,7315 12094,7312 12084,7312 10131,7310 10119,7310 10111,7315 10170,7366 "/>
   <circle class="fil7" transform="matrix(-0.407737 0.0552593 -0.0552593 -0.407737 10614.3 7115.62)" r="78"/>
   <circle class="fil7" transform="matrix(-0.407737 0.0552593 -0.0552593 -0.407737 11933.4 5583.52)" r="78"/>
   <polygon class="fil7" points="13090,4897 13093,4898 13093,4888 13103,4898 13676,5050 13579,5260 15862,5019 15840,5045 15866,5025 15756,7969 15755,7968 15755,7970 15187,7943 15192,7880 13882,7675 12966,7729 12967,7698 "/>
   <path class="fil6" d="M13051 4852l647 93 44 2 9 195 1510 -157 65 -70 627 8 -16 574 -44 46 -91 2366 -3 107c0,0 -32,-1 -64,-3l-549 -26 -45 -2 4 -45 2 -24 -1266 -197 -359 36 -9 55 -592 -35 -46 -551 72 -43 100 -2286 5 -43zm600 178l-519 -88 -120 2739 868 -50 5 0 4 1 1311 204 40 6 -3 40 -1 19 473 22 -7 -102 16 21 102 -2724 -308 251 249 -296 -1942 199 -50 5 -177 39 61 -286z"/>
   <polygon class="fil7" points="13116,4914 13699,5004 13609,5419 15447,5354 15734,7812 15744,7943 15184,7917 15211,7576 12994,7705 "/>
   <polygon class="fil7" points="12995,7675 13119,4905 13485,5304 13394,7253 "/>
   <rect class="fil14" transform="matrix(0.451879 0.01985 -0.01985 0.451879 13514.7 5297.9)" width="4216" height="4304"/>
   <polygon class="fil7" points="14465,5400 14517,5423 13710,7195 13658,7171 "/>
   <polygon class="fil7" points="14746,5394 14805,5418 14093,7229 14034,7206 "/>
   <polygon class="fil7" points="15072,5406 15127,5427 14435,7247 14380,7226 "/>
   <polygon class="fil7" points="15333,5399 15385,5414 14842,7284 14790,7268 "/>
   <polygon class="fil7" points="14092,5364 14145,5384 13451,7203 13398,7183 "/>
   <polygon class="fil15" points="15745,7942 15853,5039 15419,5392 15293,7340 "/>
   <polygon class="fil13" points="15611,5277 15452,5406 15322,7389 15455,7720 15506,7661 15277,7357 15271,7349 15272,7339 15398,5390 15399,5378 15408,5371 15614,5204 "/>
   <circle class="fil7" transform="matrix(0.411068 0.0180573 -0.0180573 0.411068 15437.2 5207.57)" r="78"/>
   <circle class="fil7" transform="matrix(0.411068 0.0180573 -0.0180573 0.411068 15674.6 5478.75)" r="78"/>
   <circle class="fil7" transform="matrix(-0.411068 -0.0180573 -0.0180573 0.411068 13519 5106.12)" r="78"/>
   <circle class="fil12 str2" transform="matrix(-0.411068 -0.0180573 -0.0180573 0.411068 13258.7 5355.43)" r="78"/>
   <circle class="fil7" transform="matrix(-0.411068 -0.0180573 0.0180573 -0.411068 13430.1 7520.63)" r="78"/>
   <circle class="fil7" transform="matrix(-0.411068 -0.0180573 0.0180573 -0.411068 13192.7 7249.45)" r="78"/>
   <circle class="fil7" transform="matrix(0.411068 0.0180573 0.0180573 -0.411068 15326.2 7603.92)" r="78"/>
   <circle class="fil7" transform="matrix(0.411068 0.0180573 0.0180573 -0.411068 15586.5 7354.6)" r="78"/>
   <polygon class="fil13" points="13456,5460 13487,5361 13405,7346 13345,7520 13322,7456 13431,7319 13435,7311 13436,7301 13517,5350 13518,5338 13513,5330 13460,5387 "/>
   <polygon class="fil16" points="15849,5034 13111,5314 13520,5695 15439,5501 "/>
   <circle class="fil7" transform="matrix(-0.0384891 -0.40966 0.40966 -0.0384891 13571.1 5430.38)" r="78"/>
   <circle class="fil7" transform="matrix(-0.0384891 -0.40966 -0.40966 0.0384891 15441.3 5260.44)" r="78"/>
   <polygon class="fil1" points="15742,7940 13008,7514 13434,7097 15289,7333 "/>
   <polygon class="fil1 str1" points="15322,7118 15326,7362 15044,7367 13540,5919 13536,5669 13813,5664 "/>
   <g>
    <g>
     <polygon class="fil11" points="15421,4998 15796,5014 15777,5447 13416,7615 13032,7599 13051,7173 "/>
     <circle class="fil7" transform="matrix(0.570853 0.0250763 -0.0250763 0.570853 15392 5420.49)" r="78"/>
     <circle class="fil7" transform="matrix(0.570853 0.0250763 -0.0250763 0.570853 13436.6 7212.78)" r="78"/>
    </g>
    <path class="fil8" d="M15459 4980l376 17 38 2 -2 38 -19 433 -1 16 -12 11 -2362 2168 -12 11 -16 -1 -383 -17 -38 -2 2 -38 19 -425 1 -16 12 -11 2370 -2176 12 -11 16 1zm334 91l-322 -14 -2347 2154 -16 372 330 14 2339 -2147 17 -379z"/>
   </g>
   <circle class="fil7" transform="matrix(-0.0742625 0.404707 0.404707 0.0742625 13431.4 7393.99)" r="78"/>
   <circle class="fil7" transform="matrix(-0.0742625 0.404707 -0.404707 -0.0742625 15334.4 7692.92)" r="78"/>
   <circle class="fil7" transform="matrix(-0.0384891 -0.40966 0.40966 -0.0384891 13691.7 5841.03)" r="78"/>
   <circle class="fil7" transform="matrix(-0.0384891 -0.40966 0.40966 -0.0384891 15168.4 7221.88)" r="78"/>
   <polygon class="fil14" points="12641,10971 12642,10248 12152,10245 12297,8625 9853,8237 9722,8222 9725,8782 10067,8770 9827,9127 9865,9668 9847,10980 "/>
   <polygon class="fil7" points="12656,10998 12656,10996 12665,10996 12656,10986 12657,10264 12355,10263 12648,8224 12621,8244 12643,8220 9697,8209 9698,8210 9695,8209 9699,8778 9760,8775 9824,9235 9956,9212 9830,9534 10154,9778 9913,10093 9822,11007 9853,11006 "/>
   <path class="fil6" d="M12700 11039l1 -775 0 -44 -44 0 -252 -1 294 -2043 -2941 -11 -107 -1c0,0 0,32 0,64l3 550 0 45 45 -2 24 -1 145 1273 -95 957 2883 -8 44 -3zm-87 -731l-1 647 -2742 8 86 -865 0 -5 -1 -4 -150 -1318 -5 -40 -41 2 -19 1 -3 -474 101 11 -21 -17 2726 10 -263 298 306 -237 -278 1932 -7 50 50 0 259 1z"/>
   <polygon class="fil7" points="9878,10979 12650,10969 12266,10587 10315,10598 "/>
   <rect class="fil14" transform="matrix(-0.00129915 -0.452313 -0.452313 0.00129915 12273.6 10557.6)" width="4216" height="4304"/>
   <polygon class="fil7" points="12272,9970 12272,9913 10325,9919 10325,9976 "/>
   <polygon class="fil7" points="12271,9641 12271,9577 10324,9583 10324,9646 "/>
   <polygon class="fil7" points="12270,9304 12270,9245 10323,9251 10323,9310 "/>
   <polygon class="fil7" points="12269,8967 12269,8913 10322,8919 10322,8973 "/>
   <polygon class="fil7" points="12273,10286 12273,10229 10326,10235 10326,10292 "/>
   <polygon class="fil15" points="9724,8221 12628,8232 12258,8651 10306,8697 "/>
   <polygon class="fil13" points="12381,8464 12245,8617 10259,8666 9933,8519 9994,8471 10289,8712 10297,8718 10307,8718 12259,8672 12271,8672 12279,8663 12454,8464 "/>
   <circle class="fil7" transform="matrix(-0.00118181 -0.411463 -0.411463 0.00118181 12442.7 8640.39)" r="78"/>
   <circle class="fil7" transform="matrix(-0.00118181 -0.411463 -0.411463 0.00118181 12181.5 8392.09)" r="78"/>
   <circle class="fil7" transform="matrix(0.00118181 0.411463 -0.411463 0.00118181 12465.4 10561.2)" r="78"/>
   <circle class="fil12 str2" transform="matrix(0.00118181 0.411463 -0.411463 0.00118181 12205.6 10811)" r="78"/>
   <circle class="fil7" transform="matrix(0.00118181 0.411463 0.411463 -0.00118181 10049.3 10551)" r="78"/>
   <circle class="fil7" transform="matrix(0.00118181 0.411463 0.411463 -0.00118181 10310.5 10799.3)" r="78"/>
   <circle class="fil7" transform="matrix(-0.00118181 -0.411463 0.411463 -0.00118181 10043.8 8653.03)" r="78"/>
   <circle class="fil7" transform="matrix(-0.00118181 -0.411463 0.411463 -0.00118181 10303.6 8403.23)" r="78"/>
   <polygon class="fil11" points="12152,8933 12363,8921 12444,9157 12202,9182 12264,9350 12213,9438 12406,9620 12055,9706 "/>
   <polygon class="fil1" points="12633,8236 12494,9068 12328,8987 12435,9147 12288,9148 12136,9144 12198,9321 12090,9472 12392,9609 12241,10960 11877,10536 12150,8627 "/>
   <circle class="fil7" transform="matrix(0.407737 0.0552593 0.0552593 -0.407737 12143.6 10495.8)" r="78"/>
   <circle class="fil7" transform="matrix(0.407737 0.0552593 -0.0552593 0.407737 12390.1 8634.17)" r="78"/>
   <polygon class="fil1" points="9718,8223 9817,8891 9858,8841 9839,9190 10113,8958 9878,9465 10344,9804 9932,10037 10039,10973 10473,10564 10313,8702 "/>
   <polygon class="fil1 str1" points="10530,8677 10285,8663 10269,8945 11654,10507 11903,10521 11920,10244 "/>
   <g>
    <polygon class="fil11" points="12269,8922 12268,8651 11956,8652 10326,10287 10327,10563 10634,10562 "/>
    <circle class="fil7" transform="matrix(-0.00118181 -0.411463 -0.411463 0.00118181 11963.8 8929.75)" r="78"/>
    <circle class="fil7" transform="matrix(-0.00118181 -0.411463 -0.411463 0.00118181 10616.5 10283.7)" r="78"/>
   </g>
   <path class="fil8" d="M12283 8895l-1 -271 0 -27 -27 0 -312 1 -11 0 -8 8 -1630 1635 -8 8 0 11 1 276 0 27 27 0 307 -1 11 0 8 -8 1635 -1641 8 -8 0 -11zm-55 -243l1 232 -1619 1625 -268 1 -1 -238 1614 -1619 274 -1z"/>
   <circle class="fil7" transform="matrix(-0.407413 0.0576006 -0.0576006 -0.407413 10212.4 10501.4)" r="78"/>
   <circle class="fil7" transform="matrix(-0.407413 0.0576006 0.0576006 0.407413 9955.24 8641.16)" r="78"/>
   <polygon class="fil13" points="12109,10609 12210,10583 10222,10584 10047,10636 10109,10662 10251,10558 10259,10554 10269,10554 12221,10553 12233,10553 12242,10558 12183,10608 "/>
   <circle class="fil7" transform="matrix(0.407737 0.0552593 0.0552593 -0.407737 11738.2 10358.4)" r="78"/>
   <circle class="fil7" transform="matrix(0.407737 0.0552593 0.0552593 -0.407737 10419.1 8826.34)" r="78"/>
  </g>
 </g>
</svg>
