<?xml version="1.0" encoding="UTF-8"?>
<!DOCTYPE svg PUBLIC "-//W3C//DTD SVG 1.1//EN" "http://www.w3.org/Graphics/SVG/1.1/DTD/svg11.dtd">
<!-- Creator: CorelDRAW X6 -->
<svg xmlns="http://www.w3.org/2000/svg" xml:space="preserve" width="225.213mm" height="134.959mm" version="1.1" style="shape-rendering:geometricPrecision; text-rendering:geometricPrecision; image-rendering:optimizeQuality; fill-rule:evenodd; clip-rule:evenodd"
viewBox="0 0 22521 13496"
 xmlns:xlink="http://www.w3.org/1999/xlink">
 <defs>
  <style type="text/css">
   <![CDATA[
    .str13 {stroke:#4F2114;stroke-width:7.62}
    .str2 {stroke:#F8817D;stroke-width:7.62}
    .str6 {stroke:#0D6860;stroke-width:20}
    .str11 {stroke:#1A2326;stroke-width:20}
    .str10 {stroke:#5B432B;stroke-width:20}
    .str3 {stroke:#75311E;stroke-width:20}
    .str4 {stroke:#84CBC5;stroke-width:20}
    .str12 {stroke:#D6CFC9;stroke-width:20}
    .str8 {stroke:#E1685F;stroke-width:20}
    .str5 {stroke:#E8B892;stroke-width:20}
    .str7 {stroke:#EFBC4F;stroke-width:20}
    .str1 {stroke:#F8817D;stroke-width:20}
    .str0 {stroke:#1A2326;stroke-width:25}
    .str9 {stroke:#84CBC5;stroke-width:25}
    .str14 {stroke:#4A6882;stroke-width:75}
    .fil34 {fill:#081F21}
    .fil13 {fill:#12665F}
    .fil3 {fill:#156E67}
    .fil28 {fill:#173859}
    .fil14 {fill:#18746D}
    .fil11 {fill:#1A2326}
    .fil0 {fill:#1E7D77}
    .fil27 {fill:#33363B}
    .fil23 {fill:#4A6882}
    .fil7 {fill:#4C4A4E}
    .fil21 {fill:#4D4D4D}
    .fil25 {fill:#4F2114}
    .fil12 {fill:#59A1A0}
    .fil19 {fill:#5B432B}
    .fil31 {fill:#627C99}
    .fil30 {fill:#66809E}
    .fil29 {fill:#6E89A7}
    .fil10 {fill:#75311E}
    .fil2 {fill:#84CBC5}
    .fil32 {fill:#A1A197}
    .fil26 {fill:#ACADA3}
    .fil24 {fill:#B1897D}
    .fil18 {fill:#BAA08B}
    .fil22 {fill:#BEBFB1}
    .fil4 {fill:#D85F4C}
    .fil16 {fill:#D9AE50}
    .fil33 {fill:#D9C8C1}
    .fil6 {fill:#DEB492}
    .fil17 {fill:#E1685F}
    .fil8 {fill:#E8B892}
    .fil15 {fill:#EFBC4F}
    .fil5 {fill:#EFE3A7}
    .fil9 {fill:#F8817D}
    .fil1 {fill:#FEFFFF}
    .fil20 {fill:#FFC7B0}
   ]]>
  </style>
 </defs>
 <g id="Слой_x0020_1">
  <metadata id="CorelCorpID_0Corel-Layer"/>
  <rect class="fil0" x="-5" y="-1" width="22500" height="13500"/>
  <polygon class="fil1" points="13420,6737 14431,6737 14431,8280 13420,8280 "/>
  <path class="fil2" d="M14540 6233l-627 279 -60 387 40 358 93 -179c55,-106 39,-238 115,-404 83,-181 221,-441 438,-441l1 0z"/>
  <polygon class="fil3" points="15050,10256 15033,6203 15280,6199 15297,10251 "/>
  <path class="fil4" d="M13095 8366l607 -409c0,-9 0,-18 0,-27 0,-214 31,-195 -74,-349 -76,-112 -79,-206 -65,-269 42,-195 176,-391 286,-542l-11 -129 123 -166 -28 -221 -205 32c-222,153 -837,1335 -1034,1658 -254,417 -16,423 400,423l1 -1zm866 -7l-47 -317 38 -711 427 -997 176 -81c238,0 212,60 470,-46 56,-23 166,56 79,188 -9,14 21,152 -23,214 -81,114 189,1524 116,1641 -94,152 -380,129 -547,129 -207,0 -499,-69 -688,-20l-1 0zm602 -361l264 -25c2,-7 -9,-894 -141,-554 -47,121 -116,588 -122,579l-1 0z"/>
  <path class="fil5" d="M13407 4666l920 -50 113 887 38 738c-214,56 -482,530 -622,729 -6,-283 -28,-442 49,-708l-481 -269 -281 -780 264 -546 0 -1z"/>
  <path class="fil6" d="M13474 5365c-114,-42 -82,-129 -8,-180 123,-85 197,-19 305,-38 108,-101 182,-188 175,-148 -1,4 -10,16 -24,34 -11,14 -30,26 -45,44 -60,69 -103,140 -151,209 -55,78 -122,127 -252,79z"/>
  <path class="fil7 str0" d="M13488 5329c-117,-31 -94,-120 -26,-178 114,-97 194,-38 300,-67 18,-5 54,-22 85,-39 12,-7 62,-34 55,-23 -5,8 -26,18 -44,35 -136,123 -142,333 -369,273l-1 -1z"/>
  <polygon class="fil8" points="14435,5549 14065,5549 14062,6664 14146,6550 14348,6425 14435,6063 "/>
  <path class="fil9 str1" d="M13947 7487c11,-418 121,-958 387,-1170 38,-30 155,-66 199,-82 0,2 -182,223 -171,523 1,30 -254,-158 -80,87 1,2 -139,149 -152,199 -13,49 -157,435 -184,443l1 0z"/>
  <path class="fil9 str2" d="M13570 7466c1,-6 -4,-22 -6,-45 -32,-313 283,-511 285,-667 0,-24 9,-155 4,-219 -1,-16 14,-85 12,-90 -1,1 -95,265 -246,373 -15,11 173,65 -12,72 -1,0 -6,30 -13,63 -22,102 -38,164 -45,239 -6,64 -12,183 10,243 5,14 10,25 10,31l1 0z"/>
  <path class="fil10 str3" d="M13510 4993c57,-99 140,-37 145,-43 13,-14 -60,-33 -115,-19 -105,26 -80,149 -30,62z"/>
  <path class="fil11" d="M13524 4728c27,18 53,71 75,136 30,91 188,251 317,185 29,-15 51,-27 72,-32 78,-16 129,-17 140,69 7,57 -50,139 -58,201 -5,40 41,124 6,143 -19,10 -43,-2 -42,-5 -2,11 58,61 10,87 -24,13 -56,-5 -64,-26 -2,-4 -20,48 -6,95 12,40 46,77 131,75 34,-1 59,-47 58,-50 -3,-1 -18,95 9,165 16,43 62,44 96,100 83,137 -169,543 421,359 262,-82 302,-585 46,-582 -96,1 -167,-168 -152,-293 27,-221 187,-349 13,-744 -76,-173 -287,-281 -461,-330 -221,-62 -462,-44 -621,78 -99,76 -136,136 -149,187 -43,161 32,115 -95,297 -41,59 -88,125 -126,201 -72,145 -110,327 -6,570 117,274 230,193 167,703 -25,203 125,308 347,68 113,-121 94,19 126,142 18,67 126,53 67,-11 -3,-4 -6,-6 -7,-7 0,0 2,2 4,5 50,62 -37,60 -37,21 1,-196 117,-221 116,-328 -1,-127 -19,-234 -119,-234 -375,0 -139,-151 -259,-150 -70,1 -79,-17 -68,-40 9,-18 29,-39 47,-60 27,-33 64,-59 57,-55 -60,37 -119,52 -144,52 -74,0 -19,-137 -76,-149 -242,-49 103,-147 30,-382 -87,-279 124,-161 135,-462l0 1z"/>
  <path class="fil2 str4" d="M13944 7642c10,15 42,19 68,14 144,-29 -136,-120 -68,-14z"/>
  <path class="fil2 str4" d="M14032 7831c-144,-27 68,121 44,31 -3,-13 -31,-29 -44,-31z"/>
  <polygon class="fil3" points="-1,12083 15297,12083 15297,12196 -1,12196 "/>
  <path class="fil12" d="M13034 11316c61,238 36,352 2,432 -62,149 -100,99 -119,120 -39,45 -1,-12 -8,-74 -2,-21 -10,-39 -24,-49 -47,-35 -103,84 -218,191 -111,103 -309,183 -538,186 -100,2 -135,-36 24,-152 60,-44 370,-341 429,-408 106,-119 29,-161 216,-161 50,0 61,-229 114,-255 29,-14 119,166 120,170l2 0z"/>
  <path class="fil8 str5" d="M12982 11466l-159 -219c70,297 -92,356 -346,438 89,-117 130,-322 40,-571 -156,-430 -549,-963 -648,-1199 -17,-40 -35,-121 -54,-155 -74,-132 -146,-156 -158,-248 -7,-59 44,-114 235,-184 184,-67 858,-241 976,-43 168,280 38,473 -164,492l-392 38c-17,2 7,26 46,64 243,234 290,409 365,737 37,161 47,317 89,469 35,129 98,255 170,381z"/>
  <polygon class="fil13" points="15204,10270 16808,10270 16808,13487 15292,12218 "/>
  <polygon class="fil14" points="11978,12083 15131,12100 16811,13418 16811,13503 13875,13503 "/>
  <path class="fil2" d="M13227 11693c-3,66 -18,114 -34,153 -197,468 -116,136 -126,46 -2,-21 -10,-39 -24,-49 -47,-35 -103,84 -218,191 -111,103 -309,183 -538,186 -100,2 -134,-36 24,-152 60,-44 370,-341 429,-408 106,-120 29,-161 216,-161 50,0 71,-247 124,-273 8,-4 19,7 31,26 83,123 123,294 115,441l1 0z"/>
  <path class="fil5" d="M13119 11358c-3,201 -182,257 -400,327 89,-117 130,-322 40,-571 -156,-430 -549,-963 -648,-1199 -17,-40 -35,-121 -54,-155 -74,-132 -146,-156 -158,-248 -7,-59 44,-114 235,-184 184,-67 858,-241 976,-43 168,280 38,473 -164,492l-392 38c-17,2 7,26 46,64 243,234 290,409 365,737 37,161 36,320 89,469 34,95 66,169 64,273l1 0z"/>
  <polygon class="fil3 str6" points="13555,9969 22479,9969 22479,10388 13555,10388 "/>
  <path class="fil15 str7" d="M14151 9027l-806 -312 -268 103c-391,124 -710,274 -1075,471 291,-53 1205,-265 1024,360 -22,75 -66,124 -58,123 332,-41 567,111 889,165 190,31 343,-5 461,-55 554,-233 144,-444 -167,-853l0 -2z"/>
  <path class="fil16" d="M14069 8937l-822 -268 -262 117c-384,145 -663,294 -1017,511 138,-33 381,-84 612,-82 623,5 1357,-426 2003,436 176,-199 -243,-396 -514,-714z"/>
  <path class="fil4" d="M14518 8334l-993 -27 -547 448c597,186 1399,374 1665,1054 188,-188 -45,-1474 -125,-1474l0 -1z"/>
  <path class="fil8 str5" d="M13600 8044l-28 -93c40,-146 159,81 382,108 13,2 28,5 24,16l0 0 -3 278c-32,-16 -153,71 -232,39 -250,-103 -173,-130 -395,-53 -88,30 -198,115 -198,0l295 -308 156 13 -1 0z"/>
  <path class="fil5" d="M13316 8137c7,-44 88,-78 87,-80 -46,-64 73,-78 73,-80 -8,-203 512,303 333,266 -41,-8 69,11 -39,48 -26,76 -78,1 -165,-22 -72,-19 -140,-45 -207,-74 -33,-14 -89,-16 -83,-59l1 1z"/>
  <path class="fil17 str8" d="M13606 5636c-2,0 -141,128 -146,144 -9,25 21,43 45,36 37,-11 56,-39 67,-74 11,-36 23,-70 35,-105l-1 -1z"/>
  <path class="fil10" d="M13406 5688c11,-10 47,-4 63,-4 39,0 88,-20 119,-45 4,-3 13,-8 17,-9 11,-3 5,-1 1,3 -9,8 -41,42 -67,58 -41,25 -99,46 -126,26 -12,-9 -13,-24 -8,-29l1 0z"/>
  <path class="fil1" d="M13561 5139c-71,22 -119,70 -107,107 12,37 78,54 149,32 71,-22 118,-79 107,-113 -11,-34 -79,-49 -149,-26z"/>
  <path class="fil8" d="M13561 5139c-58,18 -95,51 -106,81 -2,4 -4,14 -2,23 2,10 8,17 8,18 4,6 5,3 9,-3 15,-24 85,-16 130,-30 48,-15 88,-37 111,-60 0,-1 0,-1 -1,-2 -11,-34 -83,-47 -149,-26l0 -1z"/>
  <path class="fil18" d="M13561 5139c-49,15 -87,43 -102,71 31,10 83,7 138,-10 42,-13 78,-32 101,-51 -24,-21 -80,-28 -138,-10l1 0z"/>
  <path class="fil12 str9" d="M14020 5421c25,0 46,21 46,46 0,25 -21,46 -46,46 -25,0 -46,-21 -46,-46 0,-25 21,-46 46,-46z"/>
  <path class="fil19 str10" d="M13550 5238c23,-2 43,7 45,22 1,14 -16,27 -40,30 -23,2 -43,-7 -45,-22 -1,-14 16,-27 40,-30z"/>
  <path class="fil20" d="M8960 883c157,0 524,-159 620,-5 78,127 -101,550 -101,731 0,401 -232,726 -519,726 -286,0 -519,-325 -519,-726 0,-166 -161,-649 -94,-771 95,-174 445,46 613,46l0 -1z"/>
  <path class="fil6" d="M8995 2332c-2,0 -4,0 -5,0l-243 -63c-180,-114 -306,-367 -306,-662 0,-166 -161,-649 -94,-771 36,-65 108,-75 192,-62l101 357c-186,408 0,414 0,445 0,69 18,53 23,73 123,43 -40,28 -40,75 0,43 13,57 13,145 0,221 166,76 166,142 0,177 92,84 92,162 -16,-1 -36,122 102,159l-1 0z"/>
  <path class="fil21" d="M8369 741l-4 -44c-36,116 79,325 228,430 45,32 92,54 140,61 443,68 705,16 862,-412 60,-165 -100,113 -37,-57 27,-73 -69,78 -51,-30 9,-55 -42,85 -48,4 -12,-164 -51,84 -89,-83 -15,-7 -27,63 -48,-31 -16,-76 -22,128 -82,-26 -24,-62 -12,69 -70,-2 -22,-27 -14,121 -97,6 -27,-38 -18,127 -68,-17 -15,-3 -2,141 -69,12 -40,-75 -60,126 -102,-8 -21,0 -5,125 -84,4 -31,27 36,127 -60,44 -50,-44 27,88 -81,-2 -17,8 26,127 -56,28 -18,26 29,109 -71,5 -33,-35 30,197 -82,44 -38,-52 64,134 -26,30 -34,-40 19,104 -31,19 12,14 4,25 27,25l-1 0z"/>
  <path class="fil6" d="M8358 1453c47,-12 103,48 126,136 23,87 4,168 -42,180 -47,12 -103,-48 -126,-136 -23,-87 -4,-168 42,-180z"/>
  <path class="fil21" d="M8349 819c-2,19 -2,48 14,78 60,108 205,267 144,356 -67,99 59,382 -91,278 -3,-2 -105,-333 -107,-507 0,-21 -5,-66 1,-100 9,-50 42,-98 38,-106l1 1z"/>
  <path class="fil22" d="M7939 2763l405 -112 1216 -23 401 135 2 2101 198 1020c27,256 15,348 -113,628l-2297 44c-22,-273 -27,-360 4,-632l183 -148 0 -3012 1 -1z"/>
  <path class="fil23" d="M10133 5701l28 151c27,268 15,365 -113,658l-2297 46c-22,-287 -27,-377 4,-662l183 -155 0 -37 2194 0 1 -1z"/>
  <polygon class="fil20" points="8554,2150 9343,2150 9343,2826 8554,2826 "/>
  <polygon class="fil24" points="9032,2150 9363,2150 9363,2826 9032,2826 "/>
  <path class="fil6" d="M8974 1627l1 2 -3 -1 2 -1zm97 286l23 67 -157 7c-40,-63 -55,-23 -84,-7l48 -321 50 -21 -8 7c25,22 4,179 -10,214 -44,106 132,131 139,55l-1 -1z"/>
  <path class="fil25" d="M8489 1783c-35,7 6,366 38,387 140,89 309,173 414,301 1,1 306,-192 344,-204 24,-8 145,-48 145,-60 -7,-164 7,-312 27,-474 5,-43 -90,93 -97,175 -3,38 -12,129 -44,150 -105,-41 -2,-101 -225,-79 -200,19 -342,-56 -421,104 -38,77 -181,-299 -181,-299l0 -1z"/>
  <polygon class="fil26" points="8937,2819 9089,2819 9089,5675 8937,5675 "/>
  <polygon class="fil26" points="8806,2819 8959,2819 8959,5697 8806,5697 "/>
  <path class="fil27" d="M8885 2821l-498 -256c-97,74 -60,64 8,237 15,36 154,360 157,358 48,-43 339,-236 339,-240 0,-18 12,-101 -6,-100l0 1z"/>
  <path class="fil21" d="M8479 2360c61,85 406,454 408,460 -2,2 -289,176 -291,172 -37,-66 -106,-254 -156,-335 -47,-76 -69,-116 -64,-154 8,-63 63,-102 104,-143l-1 0z"/>
  <polygon class="fil21" points="8483,4520 9642,4520 9642,5823 8483,5823 "/>
  <polygon class="fil13" points="11,12065 7981,12065 7981,13493 8,13506 "/>
  <polygon class="fil14" points="7611,12057 10747,12077 12587,13503 6637,13503 "/>
  <path class="fil28" d="M8272 11834l-436 -35c77,284 -484,194 -35,379 385,159 1303,13 523,-257 -46,-16 -100,-55 -52,-87z"/>
  <path class="fil29" d="M7743 6522c31,1260 31,2605 -30,3842 -6,117 54,1207 48,1207 -66,-1 -111,75 -83,149 32,84 229,134 417,160 225,31 323,94 347,-126 14,-126 -18,-149 -39,-189 -7,-14 355,-3751 360,-3774 13,-64 115,-790 284,-520 151,242 -28,3440 19,4180 5,75 -261,-18 -78,259 60,91 831,-132 831,-138 -11,-442 -157,53 -99,-538 65,-663 380,-4563 341,-4561 -427,27 -758,-227 -944,-560 -43,-77 -104,-258 -210,-186 -35,24 -67,157 -99,288 -94,382 -320,394 -734,451 -151,21 -269,-4 -331,55l0 1z"/>
  <path class="fil30" d="M9006 7224c13,10 26,25 40,47 151,242 -28,3440 19,4180 5,75 -261,-18 -78,259 24,37 18,52 177,21 -61,-818 322,-4232 -159,-4508l1 1z"/>
  <path class="fil31" d="M7743 6522c31,1260 31,2605 -30,3842 -6,117 54,1207 48,1207 -66,-1 -111,75 -83,149 32,84 229,134 416,160l0 -5416 -21 3c-151,21 -269,-4 -331,55l1 0z"/>
  <polygon class="fil11 str11" points="8552,5649 9372,5649 9372,5849 8552,5849 "/>
  <path class="fil28" d="M7787 7062c-146,-71 -442,-161 -445,-180 -49,-401 -157,-1286 -146,-1660 16,-552 -167,-84 -20,-730 84,-371 418,-1644 469,-1681 23,-16 84,-11 220,-66 90,-37 264,-84 310,11 171,352 428,1044 550,1619 88,415 79,901 15,1320 -29,188 -90,354 -244,501 -116,111 -383,312 -544,198 -48,-34 -93,-90 -136,-174 -182,-362 194,-1185 80,-1653 -80,-326 -108,-352 -114,-445 -5,20 -10,43 -18,70 -63,240 -108,414 -96,675 6,130 -121,90 16,182 116,77 -132,20 18,154 25,22 -34,809 -34,915 0,331 54,618 120,943l-1 1z"/>
  <path class="fil20" d="M9564 1453c-47,-12 -103,48 -126,136 -23,87 -4,168 42,180 47,12 103,-48 126,-136 23,-87 4,-168 -42,-180z"/>
  <path class="fil21" d="M9576 868c0,18 -4,42 -19,63 -59,87 -185,242 -135,322 64,101 -55,384 96,280 2,-1 52,-167 82,-326 21,-111 40,-195 -6,-299 -9,-21 -18,-41 -18,-40z"/>
  <path class="fil32" d="M8421 1504c57,44 269,-27 392,2 133,31 177,50 292,7 118,-45 353,38 414,-9 37,100 -81,98 -124,185 -43,86 -108,114 -171,110 -77,-6 -177,-73 -186,-155 -4,-34 -134,-29 -137,0 -9,73 -95,148 -186,155 -63,5 -129,-24 -171,-110 -43,-88 -161,-85 -124,-185l1 0z"/>
  <path class="fil33" d="M9115 1510c59,-18 141,-9 218,0 48,29 80,76 80,129 0,10 -1,19 -3,29 -5,7 -10,14 -14,23 -16,32 -35,57 -57,74 -32,20 -72,33 -115,33 -10,0 -20,-1 -29,-2 -71,-18 -149,-78 -156,-150 0,-3 -1,-5 -3,-7 0,-53 31,-100 79,-128l0 -1z"/>
  <path class="fil33" d="M8585 1512c77,-9 165,-20 228,-5 15,4 29,7 42,10 39,27 64,66 64,109 0,1 0,3 0,4 -10,4 -17,9 -18,15 -4,33 -24,67 -53,94 -35,22 -81,36 -132,36 -60,0 -114,-19 -151,-50 -7,-10 -14,-22 -21,-35 -7,-15 -17,-27 -28,-38 -2,-9 -3,-17 -3,-27 0,-45 28,-86 71,-114l1 1z"/>
  <path class="fil6" d="M8421 1559c57,44 269,-27 392,2 133,31 177,50 292,7 118,-45 353,38 414,-9 37,100 -81,98 -124,185 -43,86 -108,114 -171,110 -77,-6 -177,-73 -186,-155 -4,-34 -134,-29 -137,0 -9,73 -95,148 -186,155 -63,5 -129,-24 -171,-110 -43,-88 -161,-85 -124,-185l1 0z"/>
  <path class="fil34" d="M8421 1530c57,44 269,-27 392,2 133,31 177,50 292,7 118,-45 353,38 414,-9 37,100 -81,98 -124,185 -43,86 -108,114 -171,110 -77,-6 -177,-73 -186,-155 -4,-34 -134,-29 -137,0 -9,73 -95,148 -186,155 -63,5 -129,-24 -171,-110 -43,-88 -161,-85 -124,-185l1 0z"/>
  <path class="fil22 str12" d="M8722 1557c75,0 136,45 136,101 0,56 -61,101 -136,101 -75,0 -136,-45 -136,-101 0,-56 61,-101 136,-101z"/>
  <path class="fil22 str12" d="M9230 1557c75,0 136,45 136,101 0,56 -61,101 -136,101 -75,0 -136,-45 -136,-101 0,-56 61,-101 136,-101z"/>
  <path class="fil25 str13" d="M8613 1645c114,78 210,-41 201,23 -5,35 -131,44 -158,23 -11,-9 -36,-25 -47,-41 -13,-18 -15,-18 5,-5l-1 0z"/>
  <path class="fil25 str13" d="M9136 1645c114,78 210,-41 201,23 -5,35 -131,44 -158,23 -11,-9 -36,-25 -47,-41 -13,-18 -14,-18 5,-5l-1 0z"/>
  <path class="fil20" d="M8771 2057c-25,8 -58,114 -53,117 43,25 240,141 277,122 16,-8 247,-110 252,-117 7,-10 -22,-118 -68,-126 -72,-13 -362,-11 -408,5l0 -1z"/>
  <path class="fil27" d="M9051 2809l483 -259c97,74 60,64 -8,237 -14,37 -154,360 -157,358 -48,-43 -339,-236 -339,-240 0,-18 4,-98 22,-97l-1 1z"/>
  <path class="fil21" d="M9434 2369c-61,85 -406,454 -408,460 2,2 289,176 291,172 37,-66 106,-254 156,-335 54,-88 75,-128 60,-171 -20,-57 -57,-88 -100,-126l1 0z"/>
  <polygon class="fil31" points="8885,2819 9037,2819 9037,5135 8885,5135 "/>
  <path class="fil28" d="M9719 11745l-580 -11c-69,112 0,218 44,323 13,31 5,82 19,114 14,31 106,35 257,42 236,10 -172,-150 344,-45 81,17 1081,48 770,-214 -3,-2 -549,-78 -868,-330 -21,-17 34,103 13,120l1 1z"/>
  <path class="fil20" d="M7422 6914c-23,108 -221,661 -124,658 204,-6 5,136 264,104 69,-9 18,137 339,61 136,-32 -283,-293 -103,-270 47,6 203,265 217,-86 4,-95 -244,-169 -244,-401 0,-36 -299,-61 -349,-65l0 -1z"/>
  <path class="fil6" d="M7422 6914c-3,15 -10,39 -18,68l397 128c-18,-37 -30,-80 -30,-131 0,-36 -299,-61 -349,-65z"/>
  <path class="fil20" d="M10076 7040c-13,135 -168,756 170,617 97,-40 80,118 145,-20 36,-77 244,53 230,-122 -5,-56 59,-101 -11,-342 -60,-205 163,-462 -414,-205 -38,17 -116,37 -120,72z"/>
  <path class="fil6" d="M10076 7040c-1,11 -3,26 -6,43l535 -145c-4,-93 -63,-124 -409,30 -38,17 -116,37 -120,72z"/>
  <path class="fil8" d="M10076 7040c-13,135 -168,756 170,617 97,-40 80,118 145,-20 9,-18 27,-25 50,-27 -15,-17 -36,-36 -78,-19 -338,139 -183,-482 -170,-617 0,-2 1,-4 1,-6 -39,17 -116,37 -119,71l1 1zm411 571c60,3 126,10 133,-64 -48,-3 -96,-8 -112,25 -8,18 -15,30 -21,39z"/>
  <polygon class="fil26" points="9237,3406 9690,3406 9690,3554 9237,3554 "/>
  <path class="fil28" d="M10086 7032c146,-71 499,-130 501,-149 49,-401 157,-1286 146,-1660 -16,-552 167,-84 20,-730 -84,-371 -418,-1644 -469,-1681 -23,-16 -84,-11 -220,-66 -90,-37 -264,-84 -310,11 -171,352 -428,1044 -550,1619 -88,415 -79,901 -15,1320 29,188 90,354 244,501 116,111 383,312 544,198 48,-34 93,-90 136,-174 182,-362 -194,-1185 -80,-1653 80,-326 108,-352 114,-445 5,20 10,43 18,70 63,240 108,414 96,675 -6,130 121,90 -16,182 -116,77 132,20 -18,154 -25,22 8,792 8,897 0,331 -84,605 -150,930l1 1z"/>
  <path class="fil31" d="M10011 6592c-206,30 -280,28 -647,-221 2,260 652,774 647,221z"/>
  <path class="fil23 str14" d="M7835 6558c196,69 270,80 677,-94 -51,255 -787,636 -677,94z"/>
  <polygon class="fil3" points="15050,12232 15033,8678 15280,8674 15297,12228 "/>
  <polygon class="fil3" points="14858,12227 14841,10083 15088,10081 15106,12225 "/>
  <path class="fil8" d="M7274 7462c-9,66 -6,110 22,110 204,-6 5,136 264,104 69,-9 18,137 339,61 46,-11 29,-47 -7,-90 -314,72 -264,-71 -333,-63 -259,32 -60,-109 -264,-104 -11,0 -18,-6 -22,-18l1 0zm562 32c65,58 166,167 177,-114 0,-9 -1,-17 -5,-26 -30,250 -168,26 -212,21 -92,-12 -27,51 40,119z"/>
  <path class="fil8" d="M13981 5268c-14,34 35,88 53,-17 15,-83 -42,-162 -51,-97 -2,13 -9,19 -19,23 -12,5 -30,4 -35,13 -17,30 1,37 14,27 29,-22 56,6 38,50l0 1z"/>
  <path class="fil19" d="M13604 5127c-27,5 -40,9 -56,17 5,-2 10,-4 14,-5l0 0 1 0c34,-11 68,-12 94,-7 24,5 42,21 48,34 -11,10 -25,20 -43,30 -18,10 -40,19 -63,26 -16,5 -63,13 -93,19 -12,2 -24,7 -29,11 11,-5 22,-6 28,-6 27,-2 68,-6 81,-7 6,-1 12,-3 17,-5 24,-7 46,-17 65,-27 20,-11 36,-22 48,-34l3 -3 -1 -3 0 -1 0 0 0 -1 0 0 0 0 0 0c-11,-36 -82,-42 -113,-37l-1 -1z"/>
  <path class="fil33" d="M13584 5239c6,-1 12,4 13,11 1,6 -4,12 -10,13 -6,1 -12,-4 -13,-11 -1,-6 4,-12 10,-13z"/>
  <path class="fil1" d="M8735 1561c58,0 106,40 106,89 0,29 -17,55 -42,71 13,-15 20,-33 20,-52 0,-49 -47,-89 -106,-89 -24,0 -46,7 -63,18 19,-22 50,-36 85,-36l0 -1z"/>
  <path class="fil1" d="M9361 1666c1,-4 1,-8 1,-11 0,-53 -57,-96 -127,-96 -70,0 -127,43 -127,96 0,4 0,8 1,11 8,-48 61,-84 126,-84 65,0 119,37 126,84z"/>
  <polygon class="fil23" points="8885,2930 9037,2930 9037,4544 8961,4799 8885,4544 "/>
 </g>
</svg>
