<?xml version="1.0" encoding="UTF-8"?>
<!DOCTYPE svg PUBLIC "-//W3C//DTD SVG 1.1//EN" "http://www.w3.org/Graphics/SVG/1.1/DTD/svg11.dtd">
<!-- Creator: CorelDRAW X6 -->
<svg xmlns="http://www.w3.org/2000/svg" xml:space="preserve" width="225.213mm" height="134.959mm" version="1.1" style="shape-rendering:geometricPrecision; text-rendering:geometricPrecision; image-rendering:optimizeQuality; fill-rule:evenodd; clip-rule:evenodd"
viewBox="0 0 22521 13496"
 xmlns:xlink="http://www.w3.org/1999/xlink">
 <defs>
  <style type="text/css">
   <![CDATA[
    .str0 {stroke:#1A1824;stroke-width:7.62}
    .str1 {stroke:#08070A;stroke-width:20}
    .str2 {stroke:#B9DBC0;stroke-width:20}
    .fil26 {fill:#08070A}
    .fil23 {fill:#1A1824}
    .fil7 {fill:#1E7D77}
    .fil15 {fill:#2D2E3B}
    .fil46 {fill:#2D8972}
    .fil20 {fill:#2E3138}
    .fil8 {fill:#3B3C41}
    .fil31 {fill:#3E4A41}
    .fil14 {fill:#3F404A}
    .fil25 {fill:#436E6D}
    .fil4 {fill:#5B5D66}
    .fil2 {fill:#5C888C}
    .fil24 {fill:#5D888D}
    .fil16 {fill:#5E5110}
    .fil29 {fill:#6A9472}
    .fil32 {fill:#6D997B}
    .fil13 {fill:#6F9D7B}
    .fil0 {fill:#7094A1}
    .fil30 {fill:#77A988}
    .fil6 {fill:#809DA8}
    .fil44 {fill:#82A0AB}
    .fil10 {fill:#848683}
    .fil36 {fill:#857B78}
    .fil22 {fill:#8C770F}
    .fil1 {fill:#8DAEBA}
    .fil41 {fill:#8F7143}
    .fil48 {fill:#92BA8A}
    .fil49 {fill:#95B6C2}
    .fil45 {fill:#9E8E99}
    .fil19 {fill:#A38C1B}
    .fil33 {fill:#A4D39B}
    .fil9 {fill:#B099A8}
    .fil47 {fill:#B2C8D1}
    .fil12 {fill:#B37964}
    .fil28 {fill:#B9DBC0}
    .fil34 {fill:#BEDAE5}
    .fil42 {fill:#C5E4BC}
    .fil3 {fill:#D0B6C8}
    .fil53 {fill:#D4E6ED}
    .fil43 {fill:#E3EFD7}
    .fil17 {fill:#E8B892}
    .fil5 {fill:#F0F0F0}
    .fil27 {fill:#F7E6EC}
    .fil18 {fill:#FDF31F}
    .fil21 {fill:#FFFFCC}
    .fil39 {fill:#1E7D77;fill-rule:nonzero}
    .fil37 {fill:#436E6D;fill-rule:nonzero}
    .fil50 {fill:#6A9176;fill-rule:nonzero}
    .fil51 {fill:#77A988;fill-rule:nonzero}
    .fil40 {fill:#809DA8;fill-rule:nonzero}
    .fil38 {fill:#A4D39B;fill-rule:nonzero}
    .fil35 {fill:#BDD5DE;fill-rule:nonzero}
    .fil52 {fill:#C5E4BC;fill-rule:nonzero}
    .fil11 {fill:#D0B6C8;fill-rule:nonzero}
   ]]>
  </style>
 </defs>
 <g id="Слой_x0020_1">
  <metadata id="CorelCorpID_0Corel-Layer"/>
  <g id="_823521488">
   <g id="_227583488">
    <rect class="fil0" x="6" y="1" width="22500" height="13500"/>
    <path class="fil1" d="M10765 1l11740 0 0 13500 -11740 0 0 -117 -6 121 -10773 0 0 -3888c1140,-35 5508,-83 7581,-435 98,-17 207,-98 294,-116 153,-31 541,-68 948,-184 2424,-689 1956,-3376 1956,-5289l0 -3593 0 1z"/>
    <ellipse class="fil2" cx="4441" cy="3324" rx="1364" ry="1492"/>
    <path class="fil3" d="M3286 850c121,59 1099,592 1105,594 155,43 295,-51 470,-156l316 -190 530 -319c-89,195 -141,421 -160,635 -44,510 32,480 200,863 183,418 129,1090 10,1430 -106,-425 -245,-863 -552,-1074l-141 81 -79 176c0,0 2,3 5,7 111,138 -67,346 -225,346 -269,0 -175,-339 -196,-339 -24,0 28,25 -177,25 -205,0 -330,80 -330,3 0,-77 7,-60 20,-87l-3 -3 0 0 -1 -1c-1912,-1920 970,1859 -793,-1988l1 -3zm1108 2523l0 0 1 2 0 0 2 4 0 1c157,618 67,1868 67,2521l187 12c0,-37 -69,-118 -70,-156 -1,-29 534,95 527,67 -64,-276 -227,-292 -425,-363 -36,-13 -63,-35 -78,-87 -27,-95 -29,-255 -29,-349 0,-557 0,-1133 145,-1593 7,-23 56,-133 55,-133 -230,-3 -259,-11 -280,-11 -5,0 -168,-51 -140,10l1 3 1 3c11,24 22,47 34,70l2 -1z"/>
    <path class="fil4" d="M3292 872l530 319 530 319 -462 296 -498 328c109,-283 91,-843 -101,-1262l1 0z"/>
    <path class="fil5" d="M5602 873l-495 363 -530 319 462 296 659 679c-14,-72 -88,-231 -173,-427 -70,-163 -62,-369 -59,-481 6,-259 61,-541 137,-748l-1 -1z"/>
    <path class="fil6" d="M5601 872l-530 319 -530 319 462 296 498 328c-109,-283 -91,-843 101,-1262l-1 0z"/>
    <ellipse class="fil7" cx="4469" cy="3031" rx="473" ry="331"/>
    <path class="fil8" d="M4210 3245c-140,0 -254,-99 -254,-221 0,-31 7,-60 20,-87 -98,-97 -177,-222 -228,-367 37,20 80,32 126,32 98,0 184,-54 229,-134 106,68 221,11 349,11 128,0 255,58 361,-11 45,80 131,134 229,134 46,0 88,-12 126,-32 -50,141 -126,264 -221,360 15,28 24,60 24,94 0,122 -114,221 -254,221 -269,0 -233,-249 -254,-249 -24,0 17,249 -253,249z"/>
    <path class="fil9" d="M4210 3245c-140,0 -254,-99 -254,-221 0,-5 0,-10 1,-15 10,-49 27,-98 53,-127 64,-71 161,-91 282,-57 63,18 140,-15 210,-21 47,-4 95,34 132,11 102,-63 235,5 325,103 -4,4 -8,8 -12,13 15,28 24,60 24,94 0,122 -114,221 -254,221 -269,0 -233,-249 -254,-249 -24,0 17,249 -253,249l0 -1z"/>
    <path class="fil10" d="M4210 3245c-140,0 -254,-99 -254,-221 0,-5 0,-10 1,-15 10,-49 27,-98 53,-127 64,-71 161,-91 282,-57 35,10 74,4 114,-4 32,52 53,112 59,176 -1,-1 -1,-1 -2,-1 -24,0 17,249 -253,249z"/>
    <path class="fil11" d="M4981 1647c141,-93 171,-167 229,-274 6,-12 18,-27 19,-15 2,24 1,85 0,112 -3,123 -8,290 26,368 4,10 2,16 -5,19l0 0c-9,4 -21,-8 -37,-24 -14,-13 -31,-30 -45,-40 -6,-4 -27,-18 -53,-36 -58,-39 -140,-94 -139,-102l0 -6 5 -3 0 1zm141 -88c-38,46 -86,78 -121,101 15,11 79,48 126,79 26,18 48,32 53,36 14,10 30,25 44,38 -24,-90 -20,-234 -17,-344 0,-14 1,-28 1,-40 -19,35 -50,85 -87,130l1 0z"/>
    <path class="fil12" d="M4997 1662c32,-21 81,-52 118,-97 58,-71 99,-158 99,-157 0,108 -18,332 24,427 8,18 -36,-32 -66,-54 -17,-12 -174,-116 -174,-119l-1 0z"/>
    <path class="fil11" d="M3904 1633c-141,-93 -171,-167 -229,-274 -6,-12 -18,-27 -19,-15 -2,24 -1,85 0,112 3,123 8,290 -26,368 -4,10 -2,16 5,19l0 0c9,4 21,-8 37,-24 14,-13 31,-30 45,-40 6,-4 27,-18 53,-36 58,-39 140,-94 139,-102l0 -6 -5 -3 0 1zm-141 -88c38,46 86,78 121,101 -15,11 -79,48 -126,79 -26,18 -48,32 -53,36 -14,10 -30,25 -44,38 24,-90 20,-234 17,-344 0,-14 -1,-28 -1,-40 19,35 50,85 87,130l-1 0z"/>
    <path class="fil12" d="M3889 1641c-32,-21 -81,-52 -118,-97 -58,-71 -99,-158 -99,-157 0,108 18,332 -24,427 -8,18 36,-32 66,-54 17,-12 174,-116 174,-119l1 0z"/>
    <path class="fil13" d="M3534 9685c-460,-846 -2342,-1587 -1924,-1723 185,-60 551,-56 757,-251 308,-292 377,-898 -97,-1771 -638,-1175 -269,-2029 222,-2465 712,-634 1962,-474 1746,270 -283,978 71,643 167,2385 62,1126 -276,2199 -389,3465 -24,269 -104,480 -159,489 -61,11 -157,-93 -323,-398l0 -1z"/>
    <path class="fil4" d="M4434 1502c759,0 1374,765 1374,1708 0,176 -21,346 -61,505 -173,-697 -696,-1203 -1313,-1203 -617,0 -1140,506 -1313,1203 -40,-160 -61,-329 -61,-505 0,-943 615,-1708 1374,-1708z"/>
    <path class="fil4" d="M5565 2239c153,276 243,610 243,971 0,176 -21,346 -61,505 -134,-540 -478,-966 -914,-1130l0 -346 732 0z"/>
    <path class="fil10" d="M4424 1593c714,0 1311,586 1378,1452 -9,117 -28,230 -55,339 -173,-697 -696,-1203 -1313,-1203 -617,0 -1140,506 -1313,1203 -27,-109 -46,-222 -55,-339 67,-866 643,-1452 1357,-1452l1 0z"/>
    <path class="fil9" d="M5164 1823c356,248 606,680 648,1222 -9,117 -28,230 -55,339 -99,-399 -313,-735 -593,-950l0 -611z"/>
    <path class="fil14" d="M4437 1502c562,0 1047,427 1260,1027 -66,-36 -95,-57 -223,-57 -127,0 -298,110 -377,251 -188,-121 -431,-203 -658,-203 -227,0 -441,68 -629,189 -80,-142 -278,-237 -406,-237 -127,0 -164,17 -230,53 213,-600 701,-1024 1263,-1024l0 1z"/>
    <path class="fil4" d="M3514 2196c-15,133 65,314 199,388 134,74 297,57 401,-33l-600 -355z"/>
    <path class="fil4" d="M3718 2246c1,-1 -104,-10 -100,-21 4,-11 75,8 162,-76 28,-27 69,-58 129,-95 155,-93 400,-151 289,-7 -48,62 -194,109 -267,106 -55,-2 -161,81 -214,92l1 1z"/>
    <path class="fil15" d="M3522 2194c8,2 31,122 204,209 34,17 73,12 118,25 227,65 546,-33 343,-260 -88,-98 -283,-58 -367,23 -63,60 -230,-26 -297,3l-1 0z"/>
    <path class="fil4" d="M5185 2075c58,120 162,346 12,519 -150,173 -374,16 -502,-35l490 -483 0 -1z"/>
    <path class="fil5" d="M4656 2292c-26,151 9,429 19,393 19,-66 108,-177 199,-269 13,-13 75,-87 110,-138 97,-141 -192,47 -297,-20 -26,-17 -25,-2 -31,34z"/>
    <path class="fil10" d="M4894 2394c25,-29 73,-73 99,-111 52,-76 -16,-61 -99,-38l0 148 0 1z"/>
    <path class="fil5" d="M4262 2396c35,94 83,228 41,295 -10,17 -5,5 -14,-14 -51,-97 -551,-266 -556,-272 -9,-10 -1,-17 33,-18 136,-3 253,165 414,-5 63,-66 59,-48 82,15l0 -1z"/>
    <path class="fil10" d="M4081 2545c-157,-72 -345,-136 -348,-140 -9,-10 -1,-17 33,-18 106,-2 201,100 315,63l0 95z"/>
    <path class="fil16" d="M3978 2938c-13,-13 -26,-27 -39,-41 50,-70 133,-116 226,-116 69,0 132,25 181,66 -40,-26 -88,-41 -140,-41 -68,0 -129,25 -174,66 -13,12 -55,65 -54,65l0 1z"/>
    <path class="fil5" d="M4946 2930c13,-13 26,-27 39,-41 -50,-70 -133,-116 -226,-116 -69,0 -132,25 -181,66 40,-26 88,-41 140,-41 68,0 129,25 174,66 13,12 55,65 54,65l0 1z"/>
    <path class="fil17" d="M4448 2965c-5,-11 -10,-29 -28,-51 -11,-14 -39,-34 -64,-53 -26,-19 -46,-38 -48,-47 -8,-42 321,-42 331,-8 4,14 -49,39 -69,53 -33,24 -45,50 -71,84 -42,56 -32,64 -51,21l0 1z"/>
    <path class="fil8" d="M4448 2965c-5,-11 -10,-29 -28,-51 -11,-14 -39,-34 -64,-53 -2,-2 -5,-4 -7,-6 44,-9 115,-12 176,-9 72,4 5,36 -38,119 -20,39 -22,36 -38,-1l-1 1z"/>
    <path class="fil18" d="M4651 2325c-3,26 -4,54 -5,83 13,62 65,110 128,120 30,-37 65,-74 99,-109 9,-9 43,-44 73,-83 -10,-34 -33,-66 -61,-86 -67,19 -147,39 -194,13 -18,17 -32,38 -41,62l1 0z"/>
    <path class="fil19" d="M4821 2473l4 -5c-2,-3 -3,-5 -5,-9 -48,-75 -45,-55 3,-21 8,6 14,10 19,13l6 -6c-5,-8 -14,-18 -23,-31 -26,-37 -58,-38 -15,-34 22,2 95,17 31,2 -89,-22 -31,-9 16,-23 21,-6 -26,-3 -38,-3 -49,0 2,-9 36,-28 26,-14 -57,18 -57,18 -1,7 82,-78 37,-42 -12,10 -62,69 -33,27 1,-1 39,-62 43,-71l-1 0c-1,1 -2,2 -3,4 -2,3 -62,88 -43,50 0,0 9,-26 16,-47 -4,1 -8,1 -12,2 -10,19 -14,25 -18,3 -2,0 -4,1 -6,1 -1,15 -1,30 -1,27l0 -10c-1,-1 -6,-8 -12,-16 -4,0 -9,0 -13,0 10,23 21,49 19,40 -1,-6 -24,-27 -41,-41 -5,-1 -10,-1 -14,-2 8,10 23,27 49,54 10,10 -8,4 -26,8 -59,15 -63,6 30,6 47,0 -181,44 -28,24 47,-6 37,-7 1,21 -97,76 -22,28 26,-4 48,-31 -92,127 -11,40 32,-34 25,-51 11,16 -2,10 -38,99 -8,54 7,-10 30,-58 31,-57 6,8 20,25 32,40l-2 0z"/>
    <ellipse class="fil20" cx="4809" cy="2365" rx="70" ry="96"/>
    <path class="fil21" d="M4814 2281c91,13 21,227 70,104 7,-17 15,-136 -46,-111 0,0 -24,7 -24,7z"/>
    <path class="fil22" d="M4651 2323c-3,26 -4,54 -5,83 13,62 65,110 128,120 3,-3 6,-7 9,-10 -97,-41 -121,-170 -56,-244 -13,-2 -25,-5 -36,-11 -18,17 -32,38 -41,62l1 0z"/>
    <path class="fil23 str0" d="M4801 2326l0 -6c-3,-3 -32,-50 -23,-29 3,6 22,54 20,44 -2,-9 -83,-75 -4,7 6,6 -5,2 -16,5 -37,9 -39,4 19,4 29,0 -114,27 -17,15 30,-4 23,-4 1,13 -61,48 -14,17 16,-2 30,-20 -57,80 -7,25 20,-22 16,-32 7,10 -1,6 -24,62 -5,34 4,-6 19,-36 19,-36 10,13 53,70 19,17 -30,-47 -29,-34 2,-13 32,23 17,8 1,-15 -17,-23 -36,-24 -9,-21 14,1 60,11 19,1 -56,-14 -19,-6 10,-15 13,-4 -16,-2 -24,-2 -31,0 1,-6 22,-17 16,-9 -36,11 -36,11 -1,4 52,-49 23,-26 -8,6 -39,43 -21,17 1,-1 37,-59 25,-42 -1,2 -39,55 -27,31 0,0 22,-61 12,-43 -15,25 -18,39 -21,7 -2,-23 -4,31 -4,27l-1 -1z"/>
    <path class="fil15" d="M5189 2080c-6,2 -26,140 -252,199 -179,47 -427,-42 -268,-220 69,-77 221,-45 287,18 49,47 180,-20 233,2l0 1z"/>
    <path class="fil6" d="M5008 2255c-21,9 -45,17 -71,24 -101,26 -223,10 -282,-41 25,-84 94,-144 175,-144 86,0 159,69 179,162l-1 -1z"/>
    <path class="fil18" d="M4262 2396c10,28 22,60 32,93 -8,53 -65,86 -112,108 -36,-16 -79,-39 -128,-62 -23,-11 -60,-28 -73,-33 -5,-15 -5,-26 -5,-36 0,-11 0,-10 1,-14 62,16 127,10 202,-69 33,-35 48,-46 58,-40 1,1 2,1 3,2 7,8 12,26 22,53l0 -2z"/>
    <path class="fil24" d="M3878 5998c-24,-41 -37,-86 -37,-132 0,-217 286,-393 638,-393 352,0 638,176 638,393 0,46 -13,91 -37,132 -88,-152 -324,-261 -601,-261 -277,0 -513,109 -601,261z"/>
    <path class="fil25" d="M4154 5527c95,-35 206,-54 324,-54 111,0 216,18 307,48l0 265c-91,-31 -196,-48 -307,-48 -118,0 -229,20 -324,54l0 -265z"/>
    <path class="fil21" d="M4096 2485c-5,44 7,83 -8,68 -36,-35 -44,-73 -37,-113 20,-2 39,-4 58,-6 -5,13 -10,30 -12,51l-1 0z"/>
    <ellipse class="fil26 str1" cx="4811" cy="2365" rx="5" ry="75"/>
    <path class="fil27" d="M5008 2256c-21,9 -47,17 -73,24 -101,26 -223,10 -282,-41 2,-8 5,-16 8,-24 62,45 178,59 274,34 23,-6 47,-13 66,-21 3,9 6,18 8,27l-1 1z"/>
    <ellipse class="fil20" cx="4144" cy="2484" rx="70" ry="96"/>
    <path class="fil23 str0" d="M4134 2444l0 -6c-3,-3 -32,-50 -23,-29 3,6 22,54 20,44 -2,-9 -83,-75 -4,7 6,6 -5,2 -16,5 -37,9 -39,4 19,4 29,0 -114,27 -17,15 30,-4 23,-4 1,13 -61,48 -14,17 16,-2 30,-20 -57,80 -7,25 20,-22 16,-32 7,10 -1,6 -24,62 -5,34 4,-6 19,-36 19,-36 10,13 53,70 19,17 -30,-47 -28,-34 2,-13 32,23 17,8 1,-15 -17,-23 -36,-24 -9,-21 14,1 60,11 19,1 -56,-14 -19,-6 10,-15 13,-4 -16,-2 -24,-2 -31,0 1,-6 22,-17 16,-9 -36,11 -36,11 -1,4 52,-49 23,-26 -8,6 -39,43 -21,17 1,-1 37,-59 25,-42 -1,2 -39,55 -27,31 0,0 22,-61 12,-43 -15,25 -18,39 -21,7 -2,-23 -4,31 -4,27l-1 -1z"/>
    <ellipse class="fil26 str1" cx="4147" cy="2485" rx="16" ry="69"/>
    <path class="fil6" d="M4242 2349c1,-2 1,-3 2,-5 -53,-83 -142,-137 -243,-137 -119,0 -222,76 -268,186 6,-2 17,-4 33,-4 136,-3 253,165 414,-6 39,-42 52,-50 63,-35l-1 1z"/>
    <path class="fil22" d="M4262 2394c11,28 22,60 32,93 -2,15 -6,28 -12,41 -21,34 -59,61 -100,71 -6,-3 -12,-6 -19,-9 94,-42 121,-171 56,-243 7,-1 13,-2 20,-4 7,8 12,26 22,52l1 -1z"/>
    <path class="fil27" d="M4242 2350c1,-2 1,-3 2,-5 -9,-14 -19,-27 -29,-39 -9,7 -20,18 -35,34 -161,170 -278,2 -414,6 -3,0 -5,0 -8,0 -10,15 -18,31 -25,48 6,-2 17,-4 33,-4 136,-3 253,165 414,-6 39,-42 52,-50 63,-35l-1 1z"/>
    <path class="fil23" d="M4210 3306c71,137 105,297 271,302 22,1 43,-5 63,-14 -144,-19 -179,-170 -246,-300 0,0 -68,10 -88,12z"/>
    <ellipse class="fil28 str2" cx="4101" cy="2464" rx="9" ry="16"/>
    <ellipse class="fil28 str2" cx="4826" cy="2314" rx="6" ry="16"/>
    <path class="fil29" d="M2678 7268c-550,-720 165,-1912 473,-2107 308,-195 245,-190 394,-259 -435,571 -465,1252 -79,1733 71,88 153,163 243,225 405,276 984,292 1517,46 -100,131 -139,650 -575,1000 -437,350 -1424,81 -1973,-639l0 1z"/>
    <path class="fil30" d="M3196 5875c1,162 33,320 95,467 -62,292 -190,654 -199,1145 -87,-131 -216,-463 -245,-647 -30,-192 -93,-528 21,-703 75,-115 126,-63 228,-166 27,-27 61,-60 99,-95l1 -1z"/>
    <path class="fil31" d="M4549 10914c-44,25 -90,45 -137,59 99,-58 257,-332 262,-433 10,47 14,98 12,148 -5,131 -24,160 -137,226z"/>
    <path class="fil31" d="M4949 11059c-24,44 -54,86 -86,121 54,-101 48,-417 0,-506 33,35 63,77 87,121 63,114 62,150 0,264l-1 0z"/>
    <path class="fil31" d="M5285 10929c8,50 9,101 5,149 -18,-113 -215,-360 -308,-402 47,8 97,23 142,43 120,53 141,81 160,210l1 0z"/>
    <path class="fil23" d="M5800 9785c28,20 54,43 75,68 -64,-45 -279,-66 -343,-41 27,-19 57,-36 89,-49 83,-33 107,-30 179,22z"/>
    <path class="fil1" d="M-14 9617c1140,-35 5508,-83 7581,-435 98,-17 207,-98 294,-116 147,-30 69,-8 180,-41 48,59 121,-11 310,36 23,6 153,133 163,154 76,163 91,304 91,437l0 409c0,11 -184,63 -220,117 -32,48 -308,58 -349,105 -27,32 184,100 153,131 -195,195 -458,304 -718,501 -139,105 -221,317 -415,397 -1151,478 -2863,683 -3995,683 -954,0 -1491,-83 -1886,-88 -1238,-14 -904,1624 -1190,1596l-1 -3887 2 1z"/>
    <path class="fil32" d="M4864 10392c1657,-733 1402,-1060 2418,-1616 863,-472 1067,-1062 977,-1536 -131,-689 -930,-1156 -1139,-626 -274,697 -330,343 -1168,1315 -541,628 -826,1405 -1328,2194 -107,167 -155,326 -127,356 31,34 134,16 367,-87z"/>
    <path class="fil29" d="M3054 10255c-685,-676 -2701,-842 -2340,-1093 159,-111 511,-213 652,-459 210,-368 101,-968 -606,-1667 -951,-941 -845,-1864 -502,-2424 499,-813 1741,-1022 1750,-247 12,1018 254,595 851,2234 385,1060 373,2184 631,3429 55,264 39,489 -10,514 -56,28 -178,-44 -425,-288l-1 1z"/>
    <path class="fil4" d="M2678 7257c-534,-666 -313,-1791 475,-2136 -558,662 -359,1444 -8,1934 262,366 116,692 281,898 1874,2349 -508,-397 -749,-697l1 1z"/>
    <path class="fil33" d="M8215 9185c405,-387 -793,115 -952,62 -2351,-775 -4449,-1067 -7001,275 871,527 2360,370 2979,807 624,441 2106,-21 2650,-236 1,-1 538,54 1146,-88 729,-171 1527,-562 1179,-821l-1 1z"/>
    <path class="fil25" d="M6339 6933c-911,705 -704,868 -1246,1366 -594,545 -395,1228 -264,1317 131,88 -43,227 193,157 197,30 187,87 381,88 194,1 426,-165 427,-333 0,-72 -35,-120 -95,-144 -51,-21 -123,-32 -200,-10 -116,34 -121,-60 -17,-134 795,-569 732,-1347 1011,-2177 40,-120 46,-225 24,-239 -24,-16 -85,10 -213,110l-1 -1z"/>
    <path class="fil6" d="M3891 12067c-103,-106 -85,-229 -32,-401l407 22c-118,-389 -570,-706 -292,-893l205 -221 18 -126c-20,151 833,199 743,99 -427,-93 -240,57 -304,293 -18,51 -161,86 -200,145 -102,155 -129,353 -109,505 40,299 223,183 251,383 173,-246 379,-1 618,-20 -331,166 -454,108 -689,371 -5,-9 -9,-22 -12,-30l-59 -212c-88,-226 -349,-286 -528,-256 -65,124 -27,209 -17,340l0 1z"/>
    <path class="fil31" d="M4286 10914c44,25 90,45 137,59 -99,-58 -257,-332 -262,-433 -10,47 -14,98 -12,148 5,131 24,160 137,226z"/>
    <path class="fil31" d="M3886 11059c24,44 54,86 86,121 -54,-101 -48,-417 0,-506 -33,35 -63,77 -87,121 -63,114 -62,150 0,264l1 0z"/>
    <path class="fil31" d="M3551 10929c-8,50 -9,101 -5,149 18,-113 215,-360 308,-402 -47,8 -97,23 -142,43 -120,53 -141,81 -160,210l-1 0z"/>
    <path class="fil23" d="M3025 9785c-28,20 -54,43 -75,68 64,-45 279,-66 343,-41 -27,-19 -57,-36 -89,-49 -83,-33 -107,-30 -179,22z"/>
    <path class="fil30" d="M7454 11129c-3,50 10,100 50,136 14,13 -171,-23 -292,12 -189,54 -494,199 -643,201 -177,2 -180,-393 -751,-229 -390,112 -174,-75 -387,-198 -177,-102 -452,-186 -531,-402 -50,-138 468,-158 631,-262 78,-50 43,19 145,-79 164,-159 797,-296 1048,-274 473,42 1136,68 1516,378 202,165 -211,347 -476,440 -163,57 -295,53 -308,276l-2 1z"/>
    <path class="fil33" d="M4910 10597c81,-93 480,-120 620,-209 78,-50 43,19 145,-79 164,-159 797,-296 1048,-274 425,38 1004,62 1392,292 -240,324 -696,159 -744,475 -23,150 -28,369 -5,382 3,2 -91,-214 -438,-119 -292,80 -499,92 -582,64 -169,-58 -56,-249 -592,-159 -315,53 -260,-49 -473,-171 -109,-63 -256,-119 -371,-203l0 1z"/>
    <path class="fil34" d="M22528 9617c-1140,-35 -5508,-83 -7581,-435 -98,-17 1491,-4 -73,-671 -1592,-679 -2787,1098 -4535,866 -1183,-157 -2133,-349 -2166,-354 245,42 659,204 967,381 2723,1562 767,2899 -912,4101l14301 0 0 -3888 -1 0z"/>
    <path class="fil30" d="M4988 10550c379,-202 774,-522 1275,-471 91,9 387,74 562,47 136,-21 343,-208 481,-217 476,-32 886,-12 1302,152 -321,245 -1498,554 -1843,681 -236,87 -883,121 -1083,10 -133,-74 -580,-131 -728,-128 -57,-29 25,21 -26,-15 20,-20 40,-40 61,-59l-1 0z"/>
    <path class="fil29" d="M8083 10311c-321,245 -970,305 -1315,432 -236,87 -883,121 -1083,10 -133,-74 -580,-131 -728,-128 -57,-29 25,21 -26,-15 14,-15 29,-30 45,-44 164,2 582,57 710,128 200,111 847,77 1083,-10 135,-50 1290,-383 1315,-374l-1 1z"/>
    <path class="fil29" d="M5108 10555c312,-355 1141,-262 1998,-456 1085,-245 1825,-1183 879,-1073 -183,22 -376,90 -465,165 1552,-14 -370,768 -608,814 -723,140 -1151,-195 -1892,231 -617,355 -1131,327 -1704,72 -1323,-561 -2336,-487 -3023,-804 699,315 2411,-1192 2790,-559 158,-216 188,-133 469,-71 314,69 -85,136 316,57 170,-33 -20,-71 232,-101 264,-254 244,171 203,-287 -149,-30 -257,-50 -368,-73 -475,-99 -242,-153 -666,-211 -1191,-163 -80,727 -1676,142 641,774 -1332,482 -1596,1214 338,387 869,302 1416,304 1433,6 1286,1231 3694,634l1 2z"/>
    <path class="fil25" d="M2486 6933c911,705 704,868 1246,1366 594,545 395,1228 264,1317 -131,88 43,227 -193,157 -197,30 -187,87 -381,88 -194,1 -426,-165 -427,-333 0,-72 35,-120 95,-144 51,-21 123,-32 200,-10 116,34 121,-60 17,-134 -795,-569 -732,-1347 -1011,-2177 -40,-120 -46,-225 -24,-239 24,-16 85,10 213,110l1 -1z"/>
    <path class="fil8" d="M3012 9376c-29,9 -56,22 -80,37 65,-21 250,18 296,56 -17,-23 -38,-45 -61,-64 -60,-50 -81,-53 -155,-29z"/>
    <path class="fil8" d="M2900 9586c-26,23 -49,48 -68,75 60,-51 271,-91 338,-72 -28,-17 -60,-31 -93,-41 -85,-26 -109,-20 -176,38l-1 0z"/>
    <path class="fil8" d="M2968 9795c-18,30 -31,62 -41,93 40,-67 227,-174 296,-177 -32,-7 -67,-10 -101,-9 -89,3 -110,16 -155,93l1 0z"/>
    <path class="fil33" d="M6342 6933c-911,705 -704,868 -1246,1366 -225,206 -336,432 -380,638 51,-71 113,-142 188,-210 542,-498 335,-661 1246,-1366 129,-99 185,-114 213,-110 113,17 -6,409 18,363 42,-180 87,-364 150,-551 40,-120 46,-225 24,-239 -24,-16 -85,10 -213,110l0 -1z"/>
    <path class="fil30" d="M2486 6933c911,705 704,868 1246,1366 224,206 336,432 380,638 -51,-71 -113,-142 -188,-210 -542,-498 -335,-661 -1246,-1366 -128,-99 -185,-114 -213,-110 -113,17 7,409 -18,363 -42,-180 -87,-364 -150,-551 -40,-120 -46,-225 -24,-239 24,-16 85,10 213,110l0 -1z"/>
    <path class="fil30" d="M1027 10915c57,14 183,242 63,350 -14,13 171,-23 292,12 189,54 494,199 643,201 177,2 180,-393 751,-229 390,112 174,-75 387,-198 177,-102 452,-186 531,-402 50,-138 -468,-158 -631,-262 -78,-50 -43,19 -145,-79 -164,-159 -798,-296 -1048,-274 -473,42 -1136,68 -1516,378 -277,226 604,485 672,502l1 1z"/>
    <path class="fil33" d="M3684 10597c-81,-93 -480,-120 -620,-209 -78,-50 -43,19 -145,-79 -164,-159 -798,-296 -1048,-274 -425,38 -1004,62 -1392,292 240,324 696,159 744,475 23,150 28,369 5,382 -3,2 91,-214 438,-119 292,80 499,92 582,64 169,-58 56,-249 592,-159 315,53 260,-49 473,-171 109,-63 256,-119 371,-203l0 1z"/>
    <path class="fil30" d="M3605 10550c-985,-519 -2499,-933 -3620,-489 321,245 1498,554 1843,681 236,87 883,121 1083,10 133,-74 580,-131 728,-128 57,-29 -25,21 26,-15 -20,-20 -40,-40 -61,-59l1 0z"/>
    <path class="fil29" d="M510 10311c321,245 970,305 1315,432 236,87 883,121 1083,10 133,-74 580,-131 728,-128 57,-29 -25,21 26,-15 -14,-15 -29,-30 -45,-44 -164,2 -582,57 -710,128 -200,111 -847,77 -1083,-10 -135,-50 -1290,-383 -1315,-374l1 1z"/>
    <path class="fil14" d="M4341 6259c26,0 52,2 77,5 25,-3 51,-5 77,-5 194,0 429,90 582,256 193,208 608,562 438,906 -156,315 -25,357 -25,546 0,557 -244,1210 -353,1794 -35,237 -90,222 110,455 65,76 105,178 105,290 0,111 -38,213 -103,288 -20,23 -27,40 -27,104 0,59 -55,107 -123,107 -103,0 -93,-74 -136,-74 -80,0 -75,105 -199,63 -64,-22 -90,-97 -64,-150 24,-49 -49,-68 -80,-70 -59,-4 -103,-62 -98,-130 3,-42 24,-78 54,-98 -1,-13 -2,-27 -2,-41 0,-105 35,-201 93,-275 185,-238 109,-263 74,-471 -46,-120 -32,-86 -246,-86 -51,0 -102,0 -154,0 -214,0 -199,-34 -246,86 -34,207 -111,233 74,471 58,74 93,170 93,275 0,14 -1,27 -2,41 30,20 51,56 54,98 5,68 -39,126 -98,130 -31,2 -103,21 -80,70 26,53 0,128 -64,150 -125,42 -119,-63 -199,-63 -43,0 -33,74 -136,74 -68,0 -123,-48 -123,-107 0,-64 -7,-81 -27,-104 -65,-75 -103,-177 -103,-288 0,-112 40,-214 105,-290 200,-234 145,-218 110,-455 -109,-584 -358,-1237 -348,-1794 4,-185 157,-271 46,-577 -183,-506 67,-331 118,-486 54,-161 128,-299 212,-406 165,-211 392,-239 613,-239l1 0z"/>
    <path class="fil25" d="M4787 9967c-60,-234 -41,-292 -293,-292 -51,0 -102,0 -154,0 -264,0 -227,57 -292,316 -12,-58 -3,-86 -3,-278 0,-192 163,-579 365,-579 202,0 365,393 365,579 0,186 20,205 11,254l1 0z"/>
    <path class="fil9" d="M4495 5906c656,0 1187,442 1187,986 0,231 -96,444 -256,612 -502,526 -801,45 -1037,990 -345,-913 -390,-466 -871,-1012 5,36 58,140 29,216 -3,8 -30,62 -41,61 -1,0 4,-6 4,-9 6,-22 16,-83 8,-137 -21,-140 -210,-279 -210,-721 0,-545 532,-986 1187,-986z"/>
    <path class="fil35" d="M4842 5976c150,0 -54,-79 78,-38 164,51 312,131 434,232 222,184 359,440 359,722 0,118 -24,231 -68,336 -46,109 -113,209 -197,298 -205,214 -376,266 -523,311 -210,63 -368,111 -505,665l-25 100 -4 -10c0,-186 -9,-234 64,-410 127,-306 271,-350 451,-405 140,-42 303,-92 495,-293 79,-83 142,-177 184,-278 41,-98 63,-203 63,-312 0,-262 -128,-500 -336,-673 -115,-95 -254,-171 -408,-219 -128,-40 82,40 -63,40 -35,0 -69,1 -103,4l0 -64c34,-2 68,-4 103,-4l1 -2z"/>
    <path class="fil36" d="M4487 5912c48,0 96,2 143,7 -47,113 -81,254 -147,254 -792,0 -1309,1008 -584,1156 235,48 524,-52 546,-7 47,95 -163,139 -293,273 -140,143 38,451 52,479 -42,-24 -167,-207 -375,-309 -197,-97 -248,-196 -319,-277 5,36 63,150 34,226 -7,19 -15,32 -22,41 -20,27 -8,10 -6,1 5,-24 7,-76 -1,-127 -3,-20 -16,-43 -31,-64 -66,-92 -77,-86 -116,-206 -50,-155 -68,-332 -68,-461 0,-545 532,-986 1187,-986z"/>
    <path class="fil6" d="M4270 3402l449 -66c-205,495 -182,1466 -155,2258 4,107 56,258 113,339 93,133 134,157 134,285l-644 -3c0,-116 26,-152 127,-290 56,-77 81,-207 83,-313 18,-785 30,-1804 -106,-2210l-1 0z"/>
    <path class="fil37" d="M4023 5965c-98,-177 -273,-519 -295,-726 -23,-211 46,-408 313,-534 44,-21 92,-35 141,-45 116,-23 243,-20 369,-17 296,7 585,14 688,-332 10,-35 10,-73 1,-113 -18,-82 -73,-169 -152,-245 -80,-77 -185,-142 -304,-177 -102,-31 -214,-39 -328,-14 -43,10 -85,17 -125,22 -260,33 -446,-27 -548,-114 -47,-41 -77,-87 -88,-135 -11,-49 -3,-97 26,-140 51,-75 166,-130 351,-130 80,0 104,7 158,-8l0 21c-55,15 -79,8 -158,8 -622,0 -408,632 379,457 457,-101 882,321 807,574 -171,572 -816,220 -1210,406 -513,243 -202,879 -8,1231l-18 10 1 1zm209 -2686c-55,15 -79,8 -158,8 -622,0 -408,632 379,457 457,-101 882,321 807,574 -171,572 -816,220 -1210,406 -513,243 -202,879 -8,1231l3 -2 15 -8c-3,-6 -7,-12 -10,-18 -93,-171 -260,-500 -280,-692 -21,-194 43,-376 290,-492 36,-17 75,-30 116,-39 116,-26 247,-22 376,-19 311,8 616,15 729,-361 12,-41 12,-87 2,-133 -20,-89 -79,-184 -164,-266 -85,-81 -196,-149 -320,-187 -108,-32 -227,-41 -348,-14 -38,8 -74,15 -109,20 -253,35 -433,-20 -529,-103 -40,-35 -65,-74 -74,-113 -9,-38 -2,-75 20,-108 44,-64 148,-112 318,-112 78,0 103,8 158,-7l0 -21 -3 -1z"/>
    <path class="fil38" d="M3911 5852c-98,-177 -209,-396 -231,-602 -23,-211 46,-408 313,-534 149,-71 331,-66 510,-62 296,7 585,14 688,-332 10,-35 10,-73 1,-113 -18,-81 -73,-169 -152,-245 -80,-77 -185,-142 -304,-177 -102,-30 -214,-39 -328,-14 -325,72 -556,9 -673,-92 -47,-41 -77,-87 -88,-135 -11,-49 -3,-97 26,-140 51,-75 166,-130 351,-130 128,0 139,13 203,-19l0 45c-16,2 -80,15 -203,15 -170,0 -274,48 -318,112 -22,33 -29,70 -20,108 9,39 34,78 74,113 110,94 327,153 638,84 121,-27 240,-18 348,14 125,37 236,106 320,187 85,82 144,177 164,266 10,47 10,92 -2,133 -112,376 -417,369 -729,361 -175,-4 -351,-9 -492,58 -247,117 -311,298 -290,492 21,199 131,413 227,587l-36 20 3 0z"/>
    <path class="fil39" d="M4352 3783c-7,1 -14,2 -21,3 -260,33 -446,-27 -548,-114 -47,-41 -77,-87 -88,-135 -11,-49 -3,-97 26,-140 51,-75 166,-130 351,-130 80,0 104,7 158,-8l0 21c-55,15 -79,8 -158,8 -595,0 -425,577 279,475l1 21 0 -1zm-1 -41l1 21c-704,102 -873,-475 -279,-475 79,0 103,7 158,-8l0 21c-56,15 -80,7 -158,7 -170,0 -274,48 -318,112 -22,33 -29,70 -20,108 9,39 34,78 74,113 96,83 276,138 529,103 4,-1 8,-1 12,-2l1 0z"/>
    <path class="fil40" d="M4387 4639c31,-11 67,-16 94,-21 27,-5 44,-8 66,-10l0 21c-56,7 -110,18 -161,37l1 -27zm161 -11l0 71c-68,8 -92,1 -161,2l0 -36c0,-54 105,-31 161,-37z"/>
    <path class="fil4" d="M4731 3303c-2,0 -3,0 -5,0 -230,-3 -242,-159 -263,-159 -22,0 -31,136 -253,162 71,137 105,297 271,302 166,4 251,-304 250,-304l0 -1z"/>
    <path class="fil10" d="M4627 3290c-135,-38 -147,-146 -164,-146 -18,0 -27,86 -141,134 38,36 95,59 160,59 57,0 108,-18 146,-47l-1 0z"/>
    <path class="fil41" d="M4572 3267c-83,-47 -94,-123 -108,-123 -16,0 -24,66 -103,114 31,21 71,33 113,33 36,0 70,-9 98,-24z"/>
    <path class="fil33" d="M2874 5516c75,-115 51,-85 153,-188 124,-125 400,-362 540,-448 -135,228 -295,557 -338,778 -58,299 -198,672 -207,1186 -87,-131 -216,-463 -245,-647 -30,-192 -18,-507 96,-682l1 1z"/>
    <path class="fil42" d="M3098 5172c135,-108 283,-199 433,-268 -305,248 -701,1254 -666,1599 -57,-154 -97,-325 -116,-496 -25,-224 2,-350 54,-469 50,-117 123,-227 296,-366l-1 0z"/>
    <path class="fil34" d="M5079 5749c24,41 37,86 37,132 0,217 -286,393 -638,393 -352,0 -638,-176 -638,-393 0,-46 13,-91 37,-132 88,152 324,261 601,261 277,0 513,-109 601,-261z"/>
    <path class="fil34" d="M4732 6242c-42,11 -86,20 -132,25l0 -265c43,-5 85,-13 125,-23l7 0 0 263z"/>
    <path class="fil34" d="M4958 6141c-61,42 -136,77 -221,100l0 -265c85,-23 160,-58 221,-100l0 265z"/>
    <path class="fil43" d="M4792 6224c-27,9 -54,17 -83,24l0 -265c29,-7 56,-15 83,-24l0 265z"/>
    <path class="fil1" d="M5079 5749c24,41 37,86 37,132 0,115 -80,218 -207,290l0 -265c76,-43 134,-96 169,-157l1 0z"/>
    <path class="fil44" d="M5079 5749c24,41 37,86 37,132 0,67 -27,130 -75,186l0 -265c15,-17 28,-35 38,-53z"/>
    <path class="fil44" d="M4169 6225c-196,-67 -328,-196 -328,-344 0,-46 13,-91 37,-132 52,90 157,165 291,211l0 265z"/>
    <path class="fil5" d="M4556 10947c-48,16 -98,25 -146,28 109,-36 322,-270 348,-368 0,48 -7,99 -20,147 -33,126 -58,152 -182,192l0 1z"/>
    <path class="fil5" d="M4972 11084c-33,38 -71,72 -110,100 75,-87 136,-397 107,-494 24,41 45,88 59,136 37,125 29,160 -56,258z"/>
    <path class="fil5" d="M5315 10969c-5,34 -15,67 -27,98 11,-77 -66,-279 -117,-325 29,15 58,35 84,57 67,59 75,82 61,170l-1 0z"/>
    <path class="fil5" d="M4280 10947c48,16 98,25 146,28 -109,-36 -322,-270 -348,-368 0,48 7,99 20,147 33,126 58,152 182,192l0 1z"/>
    <path class="fil5" d="M3864 11084c33,38 71,72 110,100 -75,-87 -136,-397 -107,-494 -24,41 -45,88 -59,136 -37,125 -29,160 56,258z"/>
    <path class="fil5" d="M3521 10969c5,34 15,67 27,98 -11,-77 66,-279 117,-325 -29,15 -58,35 -84,57 -67,59 -75,82 -61,170l1 0z"/>
    <path class="fil8" d="M5813 9376c29,9 56,22 80,37 -65,-21 -250,18 -296,56 17,-23 38,-45 61,-64 60,-50 81,-53 155,-29z"/>
    <path class="fil8" d="M5925 9586c26,23 49,48 68,75 -60,-51 -271,-91 -338,-72 28,-17 60,-31 93,-41 85,-26 109,-20 176,38l1 0z"/>
    <path class="fil8" d="M5857 9795c18,30 31,62 41,93 -40,-67 -227,-174 -296,-177 32,-7 67,-10 101,-9 89,3 110,16 155,93l-1 0z"/>
    <path class="fil45" d="M4640 6715c-36,36 -76,66 -118,91 81,-81 166,-385 146,-484 21,43 38,92 48,141 27,128 16,161 -77,253l1 -1z"/>
    <path class="fil45" d="M5080 6620c1,51 -4,101 -14,148 -4,-115 -168,-385 -255,-437 46,14 93,35 136,61 112,67 129,98 133,229l0 -1z"/>
    <path class="fil45" d="M5305 6339c32,39 59,82 79,126 -73,-89 -367,-203 -468,-193 45,-17 95,-29 145,-34 130,-15 162,0 244,101z"/>
    <path class="fil3" d="M4684 6722c-34,38 -72,71 -112,98 76,-86 142,-395 116,-493 24,42 44,89 57,137 35,126 26,160 -61,257l0 1z"/>
    <path class="fil3" d="M5118 6602c3,51 0,101 -9,148 -7,-114 -180,-379 -268,-429 46,13 94,32 138,56 114,64 132,94 140,225l-1 0z"/>
    <path class="fil3" d="M5351 6359c13,32 21,66 25,98 -29,-73 -197,-208 -265,-222 33,-2 68,1 101,7 87,17 106,33 138,116l1 1z"/>
    <path class="fil45" d="M5494 6954c20,36 35,74 46,111 -46,-81 -265,-213 -347,-218 38,-7 80,-10 120,-8 106,6 129,22 181,114l0 1z"/>
    <path class="fil45" d="M4738 7419c-32,25 -67,47 -103,63 72,-58 168,-295 160,-377 13,37 22,77 27,117 11,105 -1,131 -84,197z"/>
    <path class="fil45" d="M5042 7481c-20,23 -43,44 -67,60 45,-53 83,-240 67,-299 15,25 27,54 36,83 22,76 17,97 -35,156l-1 0z"/>
    <path class="fil3" d="M5526 6973c6,27 8,55 7,82 -13,-62 -129,-193 -180,-213 26,3 54,10 80,20 67,26 80,41 94,111l-1 0z"/>
    <path class="fil45" d="M4701 7804c-32,25 -67,47 -103,63 72,-58 168,-295 160,-377 13,37 22,77 27,117 11,105 -1,131 -84,197z"/>
    <path class="fil45" d="M5230 7117c9,25 14,50 16,75 -20,-56 -143,-163 -193,-175 25,0 51,3 76,9 66,16 79,28 101,92l0 -1z"/>
    <path class="fil45" d="M4342 8155c3,41 11,81 23,118 -6,-93 105,-323 171,-372 -36,15 -72,35 -105,59 -85,63 -96,89 -89,194l0 1z"/>
    <path class="fil4" d="M5136 1921c-2,0 -50,-67 -252,-99 -179,-28 -427,21 -268,109 48,26 131,8 200,-16 103,-36 108,-41 224,-17 48,10 95,24 96,23z"/>
    <path class="fil1" d="M1696 9039c-76,-77 -77,-133 -30,-249 30,-73 80,-100 78,-178 115,73 192,180 200,316 -118,128 -167,41 -166,45l-88 -168c-31,93 5,229 5,234l1 0zm-357 304l-90 -130c193,-5 406,-164 436,-31l312 -109c-140,-17 -105,83 -272,25l247 -88c6,-121 -39,-197 -32,-265 6,-62 87,-89 -17,-259 -149,-123 -176,-104 -365,-145 -61,172 -80,225 -96,408 -42,-63 -2,-50 -69,-120l-45 -37c-48,149 -46,465 85,513l-180 108 88 131 -2 -1z"/>
    <path class="fil29" d="M1544 9402c-48,114 4,203 98,320l309 -141c69,272 91,439 242,689l272 461 -142 36c174,210 483,155 623,-46 -302,202 -541,-323 -663,-487 -105,-122 -182,-347 -225,-519 -60,-243 36,-295 -4,-458 209,138 231,42 422,-16 -307,-28 -240,-17 -502,-148 -1,9 -1,20 0,26l19 182c1,201 -183,328 -330,359 -88,-76 -85,-153 -116,-258l-3 0z"/>
    <path class="fil6" d="M1256 9322c6,124 174,124 288,80 32,105 28,182 116,258 147,-31 331,-157 330,-359l-19 -182c0,-7 -1,-18 0,-26 28,14 48,30 63,46 144,154 213,201 441,105 52,-22 113,-61 222,-103l-62 -36c-5,-2 -61,-31 -75,-37 -123,-56 -226,-63 -273,-149 -129,84 -111,124 -293,154l-312 109c-30,-133 -243,26 -436,31l7 110 3 -1z"/>
    <path class="fil34" d="M1696 9039c-1,-5 -37,-141 -5,-234l88 168c-1,-4 48,83 166,-45 -8,-136 -85,-243 -200,-316 -32,77 -127,133 -156,206 -47,116 32,144 108,221l-1 0z"/>
    <path class="fil46" d="M1921 8485c104,170 23,198 17,259 -29,279 175,214 -214,353 144,61 451,-30 565,-178l-6 0 -69 -95c-64,106 -58,167 -199,186 -12,-248 -79,-411 55,-567 -60,44 -91,98 -148,43l-1 -1z"/>
    <path class="fil34" d="M2171 8455c-17,-44 -2,-40 -42,-24 -24,-62 4,-9 -60,11 -133,156 -67,319 -55,567 395,-53 38,-407 157,-554z"/>
    <path class="fil1" d="M2205 8851l80 71c228,-199 70,-415 -86,-599 -90,134 -70,346 6,528z"/>
    <path class="fil1" d="M7204 9039c76,-77 77,-133 30,-249 -30,-73 -80,-100 -78,-178 -115,73 -192,180 -200,316 118,128 167,41 166,45l88 -168c31,93 -5,229 -5,234l-1 0zm357 304l90 -130c-193,-5 -406,-164 -436,-31l-312 -109c140,-17 105,83 272,25l-247 -88c-6,-121 39,-197 32,-265 -6,-62 -87,-89 17,-259 149,-123 176,-104 365,-145 61,172 80,225 96,408 42,-63 2,-50 69,-120l45 -37c48,149 46,465 -85,513l180 108 -88 131 2 -1z"/>
    <path class="fil29" d="M7355 9402c48,114 -4,203 -98,320l-309 -141c-69,272 -91,439 -242,689l-272 461 142 36c-174,210 -499,190 -639,-11 302,202 557,-358 679,-522 105,-122 182,-347 225,-519 60,-243 -36,-295 4,-458 -209,138 -231,42 -422,-16 307,-28 240,-17 502,-148 1,9 1,20 0,26l-19 182c-1,201 183,328 330,359 88,-76 85,-153 116,-258l3 0z"/>
    <path class="fil6" d="M7644 9322c-6,124 -174,124 -288,80 -32,105 -28,182 -116,258 -147,-31 -331,-157 -330,-359l19 -182c0,-7 1,-18 0,-26 -28,14 -48,30 -63,46 -144,154 -213,201 -441,105 -52,-22 -113,-61 -222,-103l62 -36c5,-2 61,-31 75,-37 123,-56 226,-63 273,-149 129,84 111,124 293,154l312 109c30,-133 243,26 436,31l-7 110 -3 -1z"/>
    <path class="fil34" d="M7204 9039c1,-5 37,-141 5,-234l-88 168c1,-4 -48,83 -166,-45 8,-136 85,-243 200,-316 32,77 127,133 156,206 47,116 -32,144 -108,221l1 0z"/>
    <path class="fil46" d="M6978 8485c-104,170 -23,198 -17,259 29,279 -175,214 214,353 -144,61 -451,-30 -565,-178l6 0 69 -95c64,106 58,167 199,186 12,-248 79,-411 -55,-567 60,44 91,98 148,43l1 -1z"/>
    <path class="fil34" d="M6728 8455c17,-44 2,-40 42,-24 24,-62 -4,-9 60,11 133,156 67,319 55,567 -395,-53 -38,-407 -157,-554z"/>
    <path class="fil1" d="M6694 8851l-80 71c-228,-199 -70,-415 86,-599 90,134 70,346 -6,528z"/>
    <path class="fil47" d="M3604 12283c-48,-141 140,-215 287,-217 -11,-131 -48,-216 17,-340 178,-30 440,30 528,256l59 212c3,8 7,20 12,30 25,-28 40,-54 50,-79 93,-235 150,-319 448,-312 68,2 153,18 294,17l-54 68c-4,5 -55,62 -67,74 -112,116 -225,170 -239,287 -181,-37 -179,-90 -395,-43l-397 15c25,162 -283,78 -501,157l-41 -126 -1 1z"/>
    <path class="fil29" d="M5357 3313c-271,-272 -250,-101 -416,-31 -53,23 -165,6 -189,-2 151,152 440,157 605,33z"/>
    <path class="fil7" d="M4880 3190c-37,47 -90,88 -154,117 1,-3 1,-4 1,-4 -2,0 -3,0 -5,0 -146,-2 -222,-111 -367,-44 -9,6 -19,11 -30,16 -13,7 -26,13 -42,15 -22,7 -48,12 -77,15l2 4c-58,-26 -108,-62 -145,-103l0 0 2 1 3 2 2 1 3 2 3 1 3 2 2 1c1,1 2,1 4,2l2 1c1,1 2,1 4,2l2 1c1,1 3,1 4,2l1 1c1,1 3,1 4,2l1 1c1,1 3,1 4,2l1 0c1,1 3,1 4,2l2 1c2,1 3,1 5,1l0 0 0 0 0 0c2,1 3,1 5,2l1 0c2,1 3,1 5,1l1 0c2,0 3,1 5,1l1 0c2,0 3,1 5,1l1 0c2,0 4,1 5,1l1 0c2,0 3,1 5,1l1 0c2,0 4,1 5,1l1 0c2,0 4,1 6,1l1 0c2,0 4,0 5,1l1 0c2,0 4,0 6,1l0 0c2,0 4,0 6,0l0 0c2,0 4,0 6,0l0 0c2,0 4,0 6,0l1 0c2,0 4,0 6,0 270,0 229,-249 253,-249 0,0 1,0 1,0l0 0c0,0 0,0 1,0l0 0 0 0 0 0c17,16 -7,248 252,248 64,0 122,-21 167,-55l1 1z"/>
    <path class="fil48" d="M5358 3314c-79,-79 -153,-141 -209,-149 -47,-7 -76,23 -84,31 8,-5 39,-30 90,-20 69,14 86,94 154,137 -70,53 -164,83 -259,87 112,5 226,-25 309,-87l-1 1z"/>
    <ellipse class="fil49" cx="18073" cy="3324" rx="1364" ry="1492"/>
    <path class="fil3" d="M19228 850c-121,59 -1099,592 -1105,594 -155,43 -295,-51 -470,-156l-316 -190 -530 -319c89,195 141,421 160,635 44,510 -32,480 -200,863 -183,418 -129,1090 -10,1430 106,-425 245,-863 552,-1074l141 81 79 176c0,0 -2,3 -5,7 -111,138 67,346 225,346 269,0 175,-339 196,-339 24,0 -28,25 177,25 205,0 330,80 330,3 0,-77 -7,-60 -20,-87l3 -3 0 0 1 -1c1912,-1920 -970,1859 793,-1988l-1 -3zm-1108 2523l0 0 -1 2 0 0 -2 4 0 1c-157,618 -67,1868 -67,2521l-187 12c0,-37 69,-118 70,-156 1,-29 -534,95 -527,67 64,-276 227,-292 425,-363 36,-13 63,-35 78,-87 27,-95 29,-255 29,-349 0,-557 0,-1133 -145,-1593 -7,-23 -56,-133 -55,-133 230,-3 259,-11 280,-11 5,0 168,-51 140,10l-1 3 -1 3c-11,24 -22,47 -34,70l-2 -1z"/>
    <path class="fil25" d="M19222 872l-530 319 -530 319 462 296 498 328c-109,-283 -91,-843 101,-1262l-1 0z"/>
    <path class="fil5" d="M16912 873l495 363 530 319 -462 296 -659 679c14,-72 88,-231 173,-427 70,-163 62,-369 59,-481 -6,-259 -61,-541 -137,-748l1 -1z"/>
    <path class="fil25" d="M16913 872l530 319 530 319 -462 296 -498 328c109,-283 91,-843 -101,-1262l1 0z"/>
    <ellipse class="fil7" cx="18045" cy="3031" rx="473" ry="331"/>
    <path class="fil29" d="M18304 3245c140,0 254,-99 254,-221 0,-31 -7,-60 -20,-87 98,-97 177,-222 228,-367 -37,20 -80,32 -126,32 -98,0 -184,-54 -229,-134 -106,68 -221,11 -349,11 -128,0 -255,58 -361,-11 -45,80 -131,134 -229,134 -46,0 -88,-12 -126,-32 50,141 126,264 221,360 -15,28 -24,60 -24,94 0,122 114,221 254,221 269,0 233,-249 254,-249 24,0 -17,249 253,249z"/>
    <path class="fil34" d="M18304 3245c140,0 254,-99 254,-221 0,-5 0,-10 -1,-15 -10,-49 -27,-98 -53,-127 -64,-71 -161,-91 -282,-57 -63,18 -140,-15 -210,-21 -47,-4 -95,34 -132,11 -102,-63 -235,5 -325,103 4,4 8,8 12,13 -15,28 -24,60 -24,94 0,122 114,221 254,221 269,0 233,-249 254,-249 24,0 -17,249 253,249l0 -1z"/>
    <path class="fil1" d="M18304 3245c140,0 254,-99 254,-221 0,-5 0,-10 -1,-15 -10,-49 -27,-98 -53,-127 -64,-71 -161,-91 -282,-57 -35,10 -74,4 -114,-4 -32,52 -53,112 -59,176 1,-1 1,-1 2,-1 24,0 -17,249 253,249z"/>
    <path class="fil11" d="M17533 1647c-141,-93 -171,-167 -229,-274 -6,-12 -18,-27 -19,-15 -2,24 -1,85 0,112 3,123 8,290 -26,368 -4,10 -2,16 5,19l0 0c9,4 21,-8 37,-24 14,-13 31,-30 45,-40 6,-4 27,-18 53,-36 58,-39 140,-94 139,-102l0 -6 -5 -3 0 1zm-141 -88c38,46 86,78 121,101 -15,11 -79,48 -126,79 -26,18 -48,32 -53,36 -14,10 -30,25 -44,38 24,-90 20,-234 17,-344 0,-14 -1,-28 -1,-40 19,35 50,85 87,130l-1 0z"/>
    <path class="fil12" d="M17518 1662c-32,-21 -81,-52 -118,-97 -58,-71 -99,-158 -99,-157 0,108 18,332 -24,427 -8,18 36,-32 66,-54 17,-12 174,-116 174,-119l1 0z"/>
    <path class="fil11" d="M18610 1633c141,-93 171,-167 229,-274 6,-12 18,-27 19,-15 2,24 1,85 0,112 -3,123 -8,290 26,368 4,10 2,16 -5,19l0 0c-9,4 -21,-8 -37,-24 -14,-13 -31,-30 -45,-40 -6,-4 -27,-18 -53,-36 -58,-39 -140,-94 -139,-102l0 -6 5 -3 0 1zm141 -88c-38,46 -86,78 -121,101 15,11 79,48 126,79 26,18 48,32 53,36 14,10 30,25 44,38 -24,-90 -20,-234 -17,-344 0,-14 1,-28 1,-40 -19,35 -50,85 -87,130l1 0z"/>
    <path class="fil12" d="M18625 1641c32,-21 81,-52 118,-97 58,-71 99,-158 99,-157 0,108 -18,332 24,427 8,18 -36,-32 -66,-54 -17,-12 -174,-116 -174,-119l-1 0z"/>
    <path class="fil13" d="M18980 9685c460,-846 2342,-1587 1924,-1723 -185,-60 -551,-56 -757,-251 -308,-292 -377,-898 97,-1771 638,-1175 269,-2029 -222,-2465 -712,-634 -1962,-474 -1746,270 283,978 -71,643 -167,2385 -62,1126 276,2199 389,3465 24,269 104,480 159,489 61,11 157,-93 323,-398l0 -1z"/>
    <path class="fil4" d="M18080 1502c-759,0 -1374,765 -1374,1708 0,176 21,346 61,505 173,-697 696,-1203 1313,-1203 617,0 1140,506 1313,1203 40,-160 61,-329 61,-505 0,-943 -615,-1708 -1374,-1708z"/>
    <path class="fil4" d="M16949 2239c-153,276 -243,610 -243,971 0,176 21,346 61,505 134,-540 478,-966 914,-1130l0 -346 -732 0z"/>
    <path class="fil29" d="M18090 1593c-714,0 -1311,586 -1378,1452 9,117 28,230 55,339 173,-697 696,-1203 1313,-1203 617,0 1140,506 1313,1203 27,-109 46,-222 55,-339 -67,-866 -643,-1452 -1357,-1452l-1 0z"/>
    <path class="fil33" d="M17350 1823c-356,248 -606,680 -648,1222 9,117 28,230 55,339 99,-399 313,-735 593,-950l0 -611z"/>
    <path class="fil25" d="M18078 1492c-562,0 -1047,427 -1260,1027 66,-36 95,-57 223,-57 127,0 298,110 377,251 188,-121 431,-203 658,-203 227,0 441,68 629,189 80,-142 278,-237 406,-237 127,0 164,17 230,53 -213,-600 -701,-1024 -1263,-1024l0 1z"/>
    <path class="fil14" d="M19000 2196c15,133 -65,314 -199,388 -134,74 -297,57 -401,-33l600 -355z"/>
    <path class="fil4" d="M18797 2246c-1,-1 104,-10 100,-21 -4,-11 -75,8 -162,-76 -28,-27 -69,-58 -129,-95 -155,-93 -400,-151 -289,-7 48,62 194,109 267,106 55,-2 161,81 214,92l-1 1z"/>
    <path class="fil14" d="M18992 2194c-8,2 -31,122 -204,209 -34,17 -73,12 -118,25 -227,65 -546,-33 -343,-260 88,-98 283,-58 367,23 63,60 230,-26 297,3l1 0z"/>
    <path class="fil14" d="M17329 2075c-58,120 -162,346 -12,519 150,173 374,16 502,-35l-490 -483 0 -1z"/>
    <path class="fil5" d="M17858 2292c26,151 -9,429 -19,393 -19,-66 -108,-177 -199,-269 -13,-13 -75,-87 -110,-138 -97,-141 192,47 297,-20 26,-17 25,-2 31,34z"/>
    <path class="fil10" d="M17620 2394c-25,-29 -73,-73 -99,-111 -52,-76 16,-61 99,-38l0 148 0 1z"/>
    <path class="fil5" d="M18252 2396c-35,94 -83,228 -41,295 10,17 5,5 14,-14 51,-97 551,-266 556,-272 9,-10 1,-17 -33,-18 -136,-3 -253,165 -414,-5 -63,-66 -59,-48 -82,15l0 -1z"/>
    <path class="fil10" d="M18433 2545c157,-72 345,-136 348,-140 9,-10 1,-17 -33,-18 -106,-2 -201,100 -315,63l0 95z"/>
    <path class="fil7" d="M18536 2938c13,-13 26,-27 39,-41 -50,-70 -133,-116 -226,-116 -69,0 -132,25 -181,66 40,-26 88,-41 140,-41 68,0 129,25 174,66 13,12 55,65 54,65l0 1z"/>
    <path class="fil5" d="M17568 2930c-13,-13 -26,-27 -39,-41 50,-70 133,-116 226,-116 69,0 132,25 181,66 -40,-26 -88,-41 -140,-41 -68,0 -129,25 -174,66 -13,12 -55,65 -54,65l0 1z"/>
    <path class="fil17" d="M18066 2965c5,-11 10,-29 28,-51 11,-14 39,-34 64,-53 26,-19 46,-38 48,-47 8,-42 -321,-42 -331,-8 -4,14 49,39 69,53 33,24 45,50 71,84 42,56 32,64 51,21l0 1z"/>
    <path class="fil8" d="M18066 2965c5,-11 10,-29 28,-51 11,-14 39,-34 64,-53 2,-2 5,-4 7,-6 -44,-9 -115,-12 -176,-9 -72,4 -5,36 38,119 20,39 22,36 38,-1l1 1z"/>
    <path class="fil18" d="M17864 2325c3,26 4,54 5,83 -13,62 -65,110 -128,120 -30,-37 -65,-74 -99,-109 -9,-9 -43,-44 -73,-83 10,-34 33,-66 61,-86 67,19 147,39 194,13 18,17 32,38 41,62l-1 0z"/>
    <path class="fil19" d="M17694 2473l-4 -5c2,-3 3,-5 5,-9 48,-75 45,-55 -3,-21 -8,6 -14,10 -19,13l-6 -6c5,-8 14,-18 23,-31 26,-37 58,-38 15,-34 -22,2 -95,17 -31,2 89,-22 31,-9 -16,-23 -21,-6 26,-3 38,-3 49,0 -2,-9 -36,-28 -26,-14 57,18 57,18 1,7 -82,-78 -37,-42 12,10 62,69 33,27 -1,-1 -39,-62 -43,-71l1 0c1,1 2,2 3,4 2,3 62,88 43,50 0,0 -9,-26 -16,-47 4,1 8,1 12,2 10,19 14,25 18,3 2,0 4,1 6,1 1,15 1,30 1,27l0 -10c1,-1 6,-8 12,-16 4,0 9,0 13,0 -10,23 -21,49 -19,40 1,-6 24,-27 41,-41 5,-1 10,-1 14,-2 -8,10 -23,27 -49,54 -10,10 8,4 26,8 59,15 63,6 -30,6 -47,0 181,44 28,24 -47,-6 -37,-7 -1,21 97,76 22,28 -26,-4 -48,-31 92,127 11,40 -32,-34 -25,-51 -11,16 2,10 38,99 8,54 -7,-10 -30,-58 -31,-57 -6,8 -20,25 -32,40l2 0z"/>
    <ellipse class="fil20" cx="17705" cy="2365" rx="70" ry="96"/>
    <path class="fil21" d="M17700 2281c-91,13 -21,227 -70,104 -7,-17 -15,-136 46,-111 0,0 24,7 24,7z"/>
    <path class="fil22" d="M17863 2323c3,26 4,54 5,83 -13,62 -65,110 -128,120 -3,-3 -6,-7 -9,-10 97,-41 121,-170 56,-244 13,-2 25,-5 36,-11 18,17 32,38 41,62l-1 0z"/>
    <path class="fil23 str0" d="M17713 2326l0 -6c3,-3 32,-50 23,-29 -3,6 -22,54 -20,44 2,-9 83,-75 4,7 -6,6 5,2 16,5 37,9 39,4 -19,4 -29,0 114,27 17,15 -30,-4 -23,-4 -1,13 61,48 14,17 -16,-2 -30,-20 57,80 7,25 -20,-22 -16,-32 -7,10 1,6 24,62 5,34 -4,-6 -19,-36 -19,-36 -10,13 -53,70 -19,17 30,-47 29,-34 -2,-13 -32,23 -17,8 -1,-15 17,-23 36,-24 9,-21 -14,1 -60,11 -19,1 56,-14 19,-6 -10,-15 -13,-4 16,-2 24,-2 31,0 -1,-6 -22,-17 -16,-9 36,11 36,11 1,4 -52,-49 -23,-26 8,6 39,43 21,17 -1,-1 -37,-59 -25,-42 1,2 39,55 27,31 0,0 -22,-61 -12,-43 15,25 18,39 21,7 2,-23 4,31 4,27l1 -1z"/>
    <path class="fil14" d="M17325 2080c6,2 26,140 252,199 179,47 427,-42 268,-220 -69,-77 -221,-45 -287,18 -49,47 -180,-20 -233,2l0 1z"/>
    <path class="fil48" d="M17506 2255c21,9 45,17 71,24 101,26 223,10 282,-41 -25,-84 -94,-144 -175,-144 -86,0 -159,69 -179,162l1 -1z"/>
    <path class="fil18" d="M18252 2396c-10,28 -22,60 -32,93 8,53 65,86 112,108 36,-16 79,-39 128,-62 23,-11 60,-28 73,-33 5,-15 5,-26 5,-36 0,-11 0,-10 -1,-14 -62,16 -127,10 -202,-69 -33,-35 -48,-46 -58,-40 -1,1 -2,1 -3,2 -7,8 -12,26 -22,53l0 -2z"/>
    <path class="fil50" d="M18555 5842c98,-177 209,-396 231,-602 23,-211 -46,-408 -313,-534 -44,-21 -92,-35 -141,-45 -116,-23 -243,-20 -369,-17 -296,7 -585,14 -688,-332 -10,-35 -10,-73 -1,-113 18,-82 73,-169 152,-245 80,-77 185,-142 304,-177 102,-31 214,-39 328,-14 43,10 85,17 125,22 260,33 446,-27 548,-114 47,-41 77,-87 88,-135 11,-49 3,-97 -26,-140 -51,-75 -166,-130 -351,-130 -80,0 -104,7 -158,-8l0 21c55,15 79,8 158,8 622,0 408,632 -379,457 -457,-101 -882,321 -807,574 171,572 816,220 1210,406 513,243 266,756 72,1107l18 10 -1 1zm-273 -2562c55,15 79,8 158,8 622,0 408,632 -379,457 -457,-101 -882,321 -807,574 171,572 816,220 1210,406 513,243 266,756 72,1107l-3 -2 -15 -8c3,-6 7,-12 10,-18 93,-171 196,-377 217,-569 21,-194 -43,-376 -290,-492 -36,-17 -75,-30 -116,-39 -116,-26 -247,-22 -376,-19 -311,8 -616,15 -729,-361 -12,-41 -12,-87 -2,-133 20,-89 79,-184 164,-266 85,-81 196,-149 320,-187 108,-32 227,-41 348,-14 38,8 74,15 109,20 253,35 433,-20 529,-103 40,-35 65,-74 74,-113 9,-38 2,-75 -20,-108 -44,-64 -148,-112 -318,-112 -78,0 -103,8 -158,-7l0 -21 2 0z"/>
    <path class="fil51" d="M18603 5852c98,-177 209,-396 231,-602 23,-211 -46,-408 -313,-534 -149,-71 -331,-66 -510,-62 -296,7 -585,14 -688,-332 -10,-35 -10,-73 -1,-113 18,-81 73,-169 152,-245 80,-77 185,-142 304,-177 102,-30 214,-39 328,-14 325,72 556,9 673,-92 47,-41 77,-87 88,-135 11,-49 3,-97 -26,-140 -51,-75 -166,-130 -351,-130 -128,0 -139,13 -203,-19l0 45c16,2 80,15 203,15 170,0 274,48 318,112 22,33 29,70 20,108 -9,39 -34,78 -74,113 -110,94 -327,153 -638,84 -121,-27 -240,-18 -348,14 -125,37 -236,106 -320,187 -85,82 -144,177 -164,266 -10,47 -10,92 2,133 112,376 417,369 729,361 175,-4 351,-9 492,58 247,117 311,298 290,492 -21,199 -131,413 -227,587l36 20 -3 0z"/>
    <path class="fil4" d="M18636 5998c24,-41 37,-86 37,-132 0,-217 -286,-393 -638,-393 -352,0 -638,176 -638,393 0,46 13,91 37,132 88,-152 324,-261 601,-261 277,0 513,109 601,261z"/>
    <path class="fil36" d="M18360 5527c-95,-35 -206,-54 -324,-54 -111,0 -216,18 -307,48l0 265c91,-31 196,-48 307,-48 118,0 229,20 324,54l0 -265z"/>
    <path class="fil21" d="M18418 2485c5,44 -7,83 8,68 36,-35 44,-73 37,-113 -20,-2 -39,-4 -58,-6 5,13 10,30 12,51l1 0z"/>
    <ellipse class="fil26 str1" cx="17703" cy="2365" rx="5" ry="75"/>
    <path class="fil27" d="M17506 2256c21,9 47,17 73,24 101,26 223,10 282,-41 -2,-8 -5,-16 -8,-24 -62,45 -178,59 -274,34 -23,-6 -47,-13 -66,-21 -3,9 -6,18 -8,27l1 1z"/>
    <ellipse class="fil20" cx="18370" cy="2484" rx="70" ry="96"/>
    <path class="fil23 str0" d="M18380 2444l0 -6c3,-3 32,-50 23,-29 -3,6 -22,54 -20,44 2,-9 83,-75 4,7 -6,6 5,2 16,5 37,9 39,4 -19,4 -29,0 114,27 17,15 -30,-4 -23,-4 -1,13 61,48 14,17 -16,-2 -30,-20 57,80 7,25 -20,-22 -16,-32 -7,10 1,6 24,62 5,34 -4,-6 -19,-36 -19,-36 -10,13 -53,70 -19,17 30,-47 28,-34 -2,-13 -32,23 -17,8 -1,-15 17,-23 36,-24 9,-21 -14,1 -60,11 -19,1 56,-14 19,-6 -10,-15 -13,-4 16,-2 24,-2 31,0 -1,-6 -22,-17 -16,-9 36,11 36,11 1,4 -52,-49 -23,-26 8,6 39,43 21,17 -1,-1 -37,-59 -25,-42 1,2 39,55 27,31 0,0 -22,-61 -12,-43 15,25 18,39 21,7 2,-23 4,31 4,27l1 -1z"/>
    <ellipse class="fil26 str1" cx="18367" cy="2485" rx="16" ry="69"/>
    <path class="fil48" d="M18273 2349c-1,-2 -1,-3 -2,-5 53,-83 142,-137 243,-137 119,0 222,76 268,186 -6,-2 -17,-4 -33,-4 -136,-3 -253,165 -414,-6 -39,-42 -52,-50 -63,-35l1 1z"/>
    <path class="fil22" d="M18252 2394c-11,28 -22,60 -32,93 2,15 6,28 12,41 21,34 59,61 100,71 6,-3 12,-6 19,-9 -94,-42 -121,-171 -56,-243 -7,-1 -13,-2 -20,-4 -7,8 -12,26 -22,52l-1 -1z"/>
    <path class="fil27" d="M18273 2350c-1,-2 -1,-3 -2,-5 9,-14 19,-27 29,-39 9,7 20,18 35,34 161,170 278,2 414,6 3,0 5,0 8,0 10,15 18,31 25,48 -6,-2 -17,-4 -33,-4 -136,-3 -253,165 -414,-6 -39,-42 -52,-50 -63,-35l1 1z"/>
    <path class="fil23" d="M18304 3306c-71,137 -105,297 -271,302 -22,1 -43,-5 -63,-14 144,-19 179,-170 246,-300 0,0 68,10 88,12z"/>
    <ellipse class="fil28 str2" cx="18413" cy="2464" rx="9" ry="16"/>
    <ellipse class="fil28 str2" cx="17688" cy="2314" rx="6" ry="16"/>
    <path class="fil29" d="M19836 7268c550,-720 -165,-1912 -473,-2107 -308,-195 -245,-190 -394,-259 435,571 465,1252 79,1733 -71,88 -153,163 -243,225 -405,276 -984,292 -1517,46 100,131 139,650 575,1000 437,350 1424,81 1973,-639l0 1z"/>
    <path class="fil30" d="M19318 5875c-1,162 -33,320 -95,467 62,292 190,654 199,1145 87,-131 216,-463 245,-647 30,-192 93,-528 -21,-703 -75,-115 -126,-63 -228,-166 -27,-27 -61,-60 -99,-95l-1 -1z"/>
    <path class="fil31" d="M17965 10914c44,25 90,45 137,59 -99,-58 -257,-332 -262,-433 -10,47 -14,98 -12,148 5,131 24,160 137,226z"/>
    <path class="fil31" d="M17565 11059c24,44 54,86 86,121 -54,-101 -48,-417 0,-506 -33,35 -63,77 -87,121 -63,114 -62,150 0,264l1 0z"/>
    <path class="fil31" d="M17230 10929c-8,50 -9,101 -5,149 18,-113 215,-360 308,-402 -47,8 -97,23 -142,43 -120,53 -141,81 -160,210l-1 0z"/>
    <path class="fil23" d="M16714 9785c-28,20 -54,43 -75,68 64,-45 279,-66 343,-41 -27,-19 -57,-36 -89,-49 -83,-33 -107,-30 -179,22z"/>
    <path class="fil1" d="M22528 9617c-1140,-35 -5508,-83 -7581,-435 -98,-17 -207,-98 -294,-116 -147,-30 -69,-8 -180,-41 -48,59 -121,-11 -310,36 -23,6 217,155 207,176 -55,119 702,275 694,375 -3,37 -4,109 -4,110l0 409c0,11 -967,-7 -931,47 32,48 308,58 349,105 27,32 -184,100 -153,131 195,195 458,304 718,501 139,105 221,317 415,397 228,94 389,-351 652,-277 1066,299 1941,1022 3344,960 953,-42 1491,-83 1886,-88 1238,-14 904,1624 1190,1596l1 -3887 -3 1z"/>
    <path class="fil32" d="M17650 10392c-1657,-733 -1402,-1060 -2418,-1616 -863,-472 -1067,-1062 -977,-1536 131,-689 930,-1156 1139,-626 274,697 330,343 1168,1315 541,628 826,1405 1328,2194 107,167 155,326 127,356 -31,34 -134,16 -367,-87z"/>
    <path class="fil29" d="M19470 10255c685,-676 2701,-842 2340,-1093 -159,-111 -511,-213 -652,-459 -210,-368 -101,-968 606,-1667 951,-941 845,-1864 502,-2424 -499,-813 -1741,-1022 -1750,-247 -12,1018 -254,595 -851,2234 -385,1060 -373,2184 -631,3429 -55,264 -39,489 10,514 56,28 178,-44 425,-288l1 1z"/>
    <path class="fil25" d="M19836 7257c534,-666 313,-1791 -475,-2136 558,662 359,1444 8,1934 -262,366 -116,692 -281,898 -1874,2349 508,-397 749,-697l-1 1z"/>
    <path class="fil33" d="M14299 9185c-405,-387 793,115 952,62 2351,-775 4449,-1067 7001,275 -871,527 -2360,370 -2979,807 -624,441 -2106,-21 -2650,-236 -1,-1 -538,54 -1146,-88 -729,-171 -1527,-562 -1179,-821l1 1z"/>
    <path class="fil25" d="M16175 6933c911,705 704,868 1246,1366 594,545 395,1228 264,1317 -131,88 43,227 -193,157 -197,30 -187,87 -381,88 -194,1 -426,-165 -427,-333 0,-72 35,-120 95,-144 51,-21 123,-32 200,-10 116,34 121,-60 17,-134 -795,-569 -732,-1347 -1011,-2177 -40,-120 -46,-225 -24,-239 24,-16 85,10 213,110l1 -1z"/>
    <path class="fil6" d="M18623 12067c103,-106 85,-229 32,-401l-407 22c118,-389 570,-706 292,-893l-205 -221 -18 -126c20,151 -833,199 -743,99 427,-93 240,57 304,293 18,51 161,86 200,145 102,155 129,353 109,505 -40,299 -223,183 -251,383 -173,-246 -379,-1 -618,-20 331,166 454,108 689,371 5,-9 9,-22 12,-30l59 -212c88,-226 349,-286 528,-256 65,124 27,209 17,340l0 1z"/>
    <path class="fil31" d="M18228 10914c-44,25 -90,45 -137,59 99,-58 257,-332 262,-433 10,47 14,98 12,148 -5,131 -24,160 -137,226z"/>
    <path class="fil31" d="M18628 11059c-24,44 -54,86 -86,121 54,-101 48,-417 0,-506 33,35 63,77 87,121 63,114 62,150 0,264l-1 0z"/>
    <path class="fil31" d="M18963 10929c8,50 9,101 5,149 -18,-113 -215,-360 -308,-402 47,8 97,23 142,43 120,53 141,81 160,210l1 0z"/>
    <path class="fil23" d="M19489 9785c28,20 54,43 75,68 -64,-45 -279,-66 -343,-41 27,-19 57,-36 89,-49 83,-33 107,-30 179,22z"/>
    <path class="fil30" d="M15061 11129c3,50 -10,100 -50,136 -14,13 171,-23 292,12 189,54 494,199 643,201 177,2 180,-393 751,-229 390,112 174,-75 387,-198 177,-102 452,-186 531,-402 50,-138 -468,-158 -631,-262 -78,-50 -43,19 -145,-79 -164,-159 -797,-296 -1048,-274 -473,42 -1136,68 -1516,378 -202,165 211,347 476,440 163,57 295,53 308,276l2 1z"/>
    <path class="fil33" d="M17604 10597c-81,-93 -480,-120 -620,-209 -78,-50 -43,19 -145,-79 -164,-159 -797,-296 -1048,-274 -425,38 -1004,62 -1392,292 240,324 696,159 744,475 23,150 28,369 5,382 -3,2 91,-214 438,-119 292,80 499,92 582,64 169,-58 56,-249 592,-159 315,53 260,-49 473,-171 109,-63 256,-119 371,-203l0 1z"/>
    <path class="fil30" d="M17526 10550c-379,-202 -774,-522 -1275,-471 -91,9 -387,74 -562,47 -136,-21 -343,-208 -481,-217 -476,-32 -886,-12 -1302,152 321,245 1498,554 1843,681 236,87 883,121 1083,10 133,-74 580,-131 728,-128 57,-29 -25,21 26,-15 -20,-20 -40,-40 -61,-59l1 0z"/>
    <path class="fil29" d="M14431 10311c321,245 970,305 1315,432 236,87 883,121 1083,10 133,-74 580,-131 728,-128 57,-29 -25,21 26,-15 -14,-15 -29,-30 -45,-44 -164,2 -582,57 -710,128 -200,111 -847,77 -1083,-10 -135,-50 -1290,-383 -1315,-374l1 1z"/>
    <path class="fil29" d="M17406 10555c-312,-355 -1141,-262 -1998,-456 -1085,-245 -1825,-1183 -879,-1073 183,22 376,90 465,165 -1552,-14 370,768 608,814 723,140 1151,-195 1892,231 617,355 1131,327 1704,72 1323,-561 2336,-487 3023,-804 -699,315 -2411,-1192 -2790,-559 -158,-216 -188,-133 -469,-71 -314,69 85,136 -316,57 -170,-33 20,-71 -232,-101 -264,-254 -244,171 -203,-287 149,-30 257,-50 368,-73 475,-99 242,-153 666,-211 1191,-163 80,727 1676,142 -641,774 1332,482 1596,1214 -338,387 -869,302 -1416,304 -1433,6 -1286,1231 -3694,634l-1 2z"/>
    <path class="fil25" d="M20028 6933c-911,705 -704,868 -1246,1366 -594,545 -395,1228 -264,1317 131,88 -43,227 193,157 197,30 187,87 381,88 194,1 426,-165 427,-333 0,-72 -35,-120 -95,-144 -51,-21 -123,-32 -200,-10 -116,34 -121,-60 -17,-134 795,-569 732,-1347 1011,-2177 40,-120 46,-225 24,-239 -24,-16 -85,10 -213,110l-1 -1z"/>
    <path class="fil8" d="M19502 9376c29,9 56,22 80,37 -65,-21 -250,18 -296,56 17,-23 38,-45 61,-64 60,-50 81,-53 155,-29z"/>
    <path class="fil8" d="M19614 9586c26,23 49,48 68,75 -60,-51 -271,-91 -338,-72 28,-17 60,-31 93,-41 85,-26 109,-20 176,38l1 0z"/>
    <path class="fil8" d="M19546 9795c18,30 31,62 41,93 -40,-67 -227,-174 -296,-177 32,-7 67,-10 101,-9 89,3 110,16 155,93l-1 0z"/>
    <path class="fil33" d="M16172 6933c911,705 704,868 1246,1366 225,206 336,432 380,638 -51,-71 -113,-142 -188,-210 -542,-498 -335,-661 -1246,-1366 -129,-99 -185,-114 -213,-110 -113,17 6,409 -18,363 -42,-180 -87,-364 -150,-551 -40,-120 -46,-225 -24,-239 24,-16 85,10 213,110l0 -1z"/>
    <path class="fil30" d="M20028 6933c-911,705 -704,868 -1246,1366 -224,206 -336,432 -380,638 51,-71 113,-142 188,-210 542,-498 335,-661 1246,-1366 128,-99 185,-114 213,-110 113,17 -7,409 18,363 42,-180 87,-364 150,-551 40,-120 46,-225 24,-239 -24,-16 -85,10 -213,110l0 -1z"/>
    <path class="fil30" d="M21487 10915c-57,14 -183,242 -63,350 14,13 -171,-23 -292,12 -189,54 -494,199 -643,201 -177,2 -180,-393 -751,-229 -390,112 -174,-75 -387,-198 -177,-102 -452,-186 -531,-402 -50,-138 468,-158 631,-262 78,-50 43,19 145,-79 164,-159 798,-296 1048,-274 473,42 1136,68 1516,378 277,226 -604,485 -672,502l-1 1z"/>
    <path class="fil33" d="M18830 10597c81,-93 480,-120 620,-209 78,-50 43,19 145,-79 164,-159 798,-296 1048,-274 425,38 1004,62 1392,292 -240,324 -696,159 -744,475 -23,150 -28,369 -5,382 3,2 -91,-214 -438,-119 -292,80 -499,92 -582,64 -169,-58 -56,-249 -592,-159 -315,53 -260,-49 -473,-171 -109,-63 -256,-119 -371,-203l0 1z"/>
    <path class="fil30" d="M18909 10550c985,-519 2499,-933 3620,-489 -321,245 -1498,554 -1843,681 -236,87 -883,121 -1083,10 -133,-74 -580,-131 -728,-128 -57,-29 25,21 -26,-15 20,-20 40,-40 61,-59l-1 0z"/>
    <path class="fil29" d="M22004 10311c-321,245 -970,305 -1315,432 -236,87 -883,121 -1083,10 -133,-74 -580,-131 -728,-128 -57,-29 25,21 -26,-15 14,-15 29,-30 45,-44 164,2 582,57 710,128 200,111 847,77 1083,-10 135,-50 1290,-383 1315,-374l-1 1z"/>
    <path class="fil4" d="M18173 6259c-26,0 -52,2 -77,5 -25,-3 -51,-5 -77,-5 -194,0 -429,90 -582,256 -193,208 -608,562 -438,906 156,315 25,357 25,546 0,557 244,1210 353,1794 35,237 90,222 -110,455 -65,76 -105,178 -105,290 0,111 38,213 103,288 20,23 27,40 27,104 0,59 55,107 123,107 103,0 93,-74 136,-74 80,0 75,105 199,63 64,-22 90,-97 64,-150 -24,-49 49,-68 80,-70 59,-4 103,-62 98,-130 -3,-42 -24,-78 -54,-98 1,-13 2,-27 2,-41 0,-105 -35,-201 -93,-275 -185,-238 -109,-263 -74,-471 46,-120 32,-86 246,-86 51,0 102,0 154,0 214,0 199,-34 246,86 34,207 111,233 -74,471 -58,74 -93,170 -93,275 0,14 1,27 2,41 -30,20 -51,56 -54,98 -5,68 39,126 98,130 31,2 103,21 80,70 -26,53 0,128 64,150 125,42 119,-63 199,-63 43,0 33,74 136,74 68,0 123,-48 123,-107 0,-64 7,-81 27,-104 65,-75 103,-177 103,-288 0,-112 -40,-214 -105,-290 -200,-234 -145,-218 -110,-455 109,-584 358,-1237 348,-1794 -4,-185 -157,-271 -46,-577 183,-506 -67,-331 -118,-486 -54,-161 -128,-299 -212,-406 -165,-211 -392,-239 -613,-239l-1 0z"/>
    <path class="fil25" d="M17727 9967c60,-234 41,-292 293,-292 51,0 102,0 154,0 264,0 227,57 292,316 12,-58 3,-86 3,-278 0,-192 -163,-579 -365,-579 -202,0 -365,393 -365,579 0,186 -20,205 -11,254l-1 0z"/>
    <path class="fil34" d="M18019 5906c-656,0 -1187,442 -1187,986 0,231 96,444 256,612 502,526 826,112 1030,1088 345,-913 397,-564 878,-1110 -5,36 -58,140 -29,216 3,8 30,62 41,61 1,0 -4,-6 -4,-9 -6,-22 -16,-83 -8,-137 21,-140 210,-279 210,-721 0,-545 -532,-986 -1187,-986z"/>
    <path class="fil52" d="M17672 5976c-150,0 54,-79 -78,-38 -164,51 -312,131 -434,232 -222,184 -359,440 -359,722 0,118 24,231 68,336 46,109 113,209 197,298 205,214 376,266 523,311 210,63 368,111 505,665l25 100 4 -10c0,-186 9,-234 -64,-410 -127,-306 -271,-350 -451,-405 -140,-42 -303,-92 -495,-293 -79,-83 -142,-177 -184,-278 -41,-98 -63,-203 -63,-312 0,-262 128,-500 336,-673 115,-95 254,-171 408,-219 128,-40 -82,40 63,40 35,0 69,1 103,4l0 -64c-34,-2 -68,-4 -103,-4l-1 -2z"/>
    <path class="fil1" d="M18027 5912c-48,0 -96,2 -143,7 47,113 81,254 147,254 792,0 1309,1008 584,1156 -235,48 -524,-52 -546,-7 -47,95 163,139 293,273 140,143 -38,451 -52,479 42,-24 167,-207 375,-309 197,-97 248,-196 319,-277 -5,36 -63,150 -34,226 7,19 15,32 22,41 20,27 8,10 6,1 -5,-24 -7,-76 1,-127 3,-20 16,-43 31,-64 66,-92 77,-86 116,-206 50,-155 68,-332 68,-461 0,-545 -532,-986 -1187,-986z"/>
    <path class="fil25" d="M18244 3402l-449 -66c205,495 182,1466 155,2258 -4,107 -56,258 -113,339 -93,133 -134,157 -134,285l644 -3c0,-116 -26,-152 -127,-290 -56,-77 -81,-207 -83,-313 -18,-785 -30,-1804 106,-2210l1 0z"/>
    <path class="fil39" d="M18162 3783c7,1 14,2 21,3 260,33 446,-27 548,-114 47,-41 77,-87 88,-135 11,-49 3,-97 -26,-140 -51,-75 -166,-130 -351,-130 -80,0 -104,7 -158,-8l0 21c55,15 79,8 158,8 595,0 425,577 -279,475l-1 21 0 -1zm1 -41l-1 21c704,102 873,-475 279,-475 -79,0 -103,7 -158,-8l0 21c56,15 80,7 158,7 170,0 274,48 318,112 22,33 29,70 20,108 -9,39 -34,78 -74,113 -96,83 -276,138 -529,103 -4,-1 -8,-1 -12,-2l-1 0z"/>
    <path class="fil37" d="M18128 4639c-31,-11 -67,-16 -94,-21 -27,-5 -44,-8 -66,-10l0 21c56,7 110,18 161,37l-1 -27zm-161 -11l0 71c68,8 92,1 161,2l0 -36c0,-54 -105,-31 -161,-37z"/>
    <path class="fil4" d="M17783 3303c2,0 3,0 5,0 230,-3 242,-159 263,-159 22,0 31,136 253,162 -71,137 -105,297 -271,302 -166,4 -251,-304 -250,-304l0 -1z"/>
    <path class="fil10" d="M17887 3290c135,-38 147,-146 164,-146 18,0 27,86 141,134 -38,36 -95,59 -160,59 -57,0 -108,-18 -146,-47l1 0z"/>
    <path class="fil41" d="M17943 3267c83,-47 94,-123 108,-123 16,0 24,66 103,114 -31,21 -71,33 -113,33 -36,0 -70,-9 -98,-24z"/>
    <path class="fil33" d="M19640 5516c-75,-115 -51,-85 -153,-188 -124,-125 -400,-362 -540,-448 135,228 295,557 338,778 58,299 198,672 207,1186 87,-131 216,-463 245,-647 30,-192 18,-507 -96,-682l-1 1z"/>
    <path class="fil42" d="M19416 5172c-135,-108 -283,-199 -433,-268 305,248 701,1254 666,1599 57,-154 97,-325 116,-496 25,-224 -2,-350 -54,-469 -50,-117 -123,-227 -296,-366l1 0z"/>
    <path class="fil45" d="M17435 5749c-24,41 -37,86 -37,132 0,217 286,393 638,393 352,0 638,-176 638,-393 0,-46 -13,-91 -37,-132 -88,152 -324,261 -601,261 -277,0 -513,-109 -601,-261z"/>
    <path class="fil3" d="M17782 6242c42,11 86,20 132,25l0 -265c-43,-5 -85,-13 -125,-23l-7 0 0 263z"/>
    <path class="fil3" d="M17556 6141c61,42 136,77 221,100l0 -265c-85,-23 -160,-58 -221,-100l0 265z"/>
    <path class="fil43" d="M17722 6224c27,9 54,17 83,24l0 -265c-29,-7 -56,-15 -83,-24l0 265z"/>
    <path class="fil9" d="M17435 5749c-24,41 -37,86 -37,132 0,115 80,218 207,290l0 -265c-76,-43 -134,-96 -169,-157l-1 0z"/>
    <path class="fil45" d="M17435 5749c-24,41 -37,86 -37,132 0,67 27,130 75,186l0 -265c-15,-17 -28,-35 -38,-53z"/>
    <path class="fil4" d="M18345 6225c196,-67 328,-196 328,-344 0,-46 -13,-91 -37,-132 -52,90 -157,165 -291,211l0 265z"/>
    <path class="fil5" d="M17959 10947c48,16 98,25 146,28 -109,-36 -322,-270 -348,-368 0,48 7,99 20,147 33,126 58,152 182,192l0 1z"/>
    <path class="fil5" d="M17542 11084c33,38 71,72 110,100 -75,-87 -136,-397 -107,-494 -24,41 -45,88 -59,136 -37,125 -29,160 56,258z"/>
    <path class="fil5" d="M17199 10969c5,34 15,67 27,98 -11,-77 66,-279 117,-325 -29,15 -58,35 -84,57 -67,59 -75,82 -61,170l1 0z"/>
    <path class="fil5" d="M18234 10947c-48,16 -98,25 -146,28 109,-36 322,-270 348,-368 0,48 -7,99 -20,147 -33,126 -58,152 -182,192l0 1z"/>
    <path class="fil5" d="M18651 11084c-33,38 -71,72 -110,100 75,-87 136,-397 107,-494 24,41 45,88 59,136 37,125 29,160 -56,258z"/>
    <path class="fil5" d="M18994 10969c-5,34 -15,67 -27,98 11,-77 -66,-279 -117,-325 29,15 58,35 84,57 67,59 75,82 61,170l-1 0z"/>
    <path class="fil8" d="M16701 9376c-29,9 -56,22 -80,37 65,-21 250,18 296,56 -17,-23 -38,-45 -61,-64 -60,-50 -81,-53 -155,-29z"/>
    <path class="fil8" d="M16589 9586c-26,23 -49,48 -68,75 60,-51 271,-91 338,-72 -28,-17 -60,-31 -93,-41 -85,-26 -109,-20 -176,38l-1 0z"/>
    <path class="fil8" d="M16657 9795c-18,30 -31,62 -41,93 40,-67 227,-174 296,-177 -32,-7 -67,-10 -101,-9 -89,3 -110,16 -155,93l1 0z"/>
    <path class="fil45" d="M17874 6715c36,36 76,66 118,91 -81,-81 -166,-385 -146,-484 -21,43 -38,92 -48,141 -27,128 -16,161 77,253l-1 -1z"/>
    <path class="fil45" d="M17434 6620c-1,51 4,101 14,148 4,-115 168,-385 255,-437 -46,14 -93,35 -136,61 -112,67 -129,98 -133,229l0 -1z"/>
    <path class="fil45" d="M17209 6339c-32,39 -59,82 -79,126 73,-89 367,-203 468,-193 -45,-17 -95,-29 -145,-34 -130,-15 -162,0 -244,101z"/>
    <path class="fil3" d="M17830 6722c34,38 72,71 112,98 -76,-86 -142,-395 -116,-493 -24,42 -44,89 -57,137 -35,126 -26,160 61,257l0 1z"/>
    <path class="fil3" d="M17396 6602c-3,51 0,101 9,148 7,-114 180,-379 268,-429 -46,13 -94,32 -138,56 -114,64 -132,94 -140,225l1 0z"/>
    <path class="fil3" d="M17163 6359c-13,32 -21,66 -25,98 29,-73 197,-208 265,-222 -33,-2 -68,1 -101,7 -87,17 -106,33 -138,116l-1 1z"/>
    <path class="fil45" d="M17020 6954c-20,36 -35,74 -46,111 46,-81 265,-213 347,-218 -38,-7 -80,-10 -120,-8 -106,6 -129,22 -181,114l0 1z"/>
    <path class="fil45" d="M17776 7419c32,25 67,47 103,63 -72,-58 -168,-295 -160,-377 -13,37 -22,77 -27,117 -11,105 1,131 84,197z"/>
    <path class="fil45" d="M17472 7481c20,23 43,44 67,60 -45,-53 -83,-240 -67,-299 -15,25 -27,54 -36,83 -22,76 -17,97 35,156l1 0z"/>
    <path class="fil3" d="M16988 6973c-6,27 -8,55 -7,82 13,-62 129,-193 180,-213 -26,3 -54,10 -80,20 -67,26 -80,41 -94,111l1 0z"/>
    <path class="fil45" d="M17813 7804c32,25 67,47 103,63 -72,-58 -168,-295 -160,-377 -13,37 -22,77 -27,117 -11,105 1,131 84,197z"/>
    <path class="fil45" d="M17284 7117c-9,25 -14,50 -16,75 20,-56 143,-163 193,-175 -25,0 -51,3 -76,9 -66,16 -79,28 -101,92l0 -1z"/>
    <path class="fil45" d="M18172 8155c-3,41 -11,81 -23,118 6,-93 -105,-323 -171,-372 36,15 72,35 105,59 85,63 96,89 89,194l0 1z"/>
    <path class="fil4" d="M17379 1921c2,0 50,-67 252,-99 179,-28 427,21 268,109 -48,26 -131,8 -200,-16 -103,-36 -108,-41 -224,-17 -48,10 -95,24 -96,23z"/>
    <path class="fil1" d="M20818 9039c76,-77 77,-133 30,-249 -30,-73 -80,-100 -78,-178 -115,73 -192,180 -200,316 118,128 167,41 166,45l88 -168c31,93 -5,229 -5,234l-1 0zm357 304l90 -130c-193,-5 -406,-164 -436,-31l-312 -109c140,-17 105,83 272,25l-247 -88c-6,-121 39,-197 32,-265 -6,-62 -87,-89 17,-259 149,-123 176,-104 365,-145 61,172 80,225 96,408 42,-63 2,-50 69,-120l45 -37c48,149 46,465 -85,513l180 108 -88 131 2 -1z"/>
    <path class="fil29" d="M20970 9402c48,114 -4,203 -98,320l-309 -141c-69,272 -91,439 -242,689l-272 461 142 36c-174,210 -483,155 -623,-46 302,202 541,-323 663,-487 105,-122 182,-347 225,-519 60,-243 -36,-295 4,-458 -209,138 -231,42 -422,-16 307,-28 240,-17 502,-148 1,9 1,20 0,26l-19 182c-1,201 183,328 330,359 88,-76 85,-153 116,-258l3 0z"/>
    <path class="fil6" d="M21258 9322c-6,124 -174,124 -288,80 -32,105 -28,182 -116,258 -147,-31 -331,-157 -330,-359l19 -182c0,-7 1,-18 0,-26 -28,14 -48,30 -63,46 -144,154 -213,201 -441,105 -52,-22 -113,-61 -222,-103l62 -36c5,-2 61,-31 75,-37 123,-56 226,-63 273,-149 129,84 111,124 293,154l312 109c30,-133 243,26 436,31l-7 110 -3 -1z"/>
    <path class="fil34" d="M20818 9039c1,-5 37,-141 5,-234l-88 168c1,-4 -48,83 -166,-45 8,-136 85,-243 200,-316 32,77 127,133 156,206 47,116 -32,144 -108,221l1 0z"/>
    <path class="fil46" d="M20593 8485c-104,170 -23,198 -17,259 29,279 -175,214 214,353 -144,61 -451,-30 -565,-178l6 0 69 -95c64,106 58,167 199,186 12,-248 79,-411 -55,-567 60,44 91,98 148,43l1 -1z"/>
    <path class="fil34" d="M20343 8455c17,-44 2,-40 42,-24 24,-62 -4,-9 60,11 133,156 67,319 55,567 -395,-53 -38,-407 -157,-554z"/>
    <path class="fil1" d="M20309 8851l-80 71c-228,-199 -70,-415 86,-599 90,134 70,346 -6,528z"/>
    <path class="fil1" d="M15311 9039c-76,-77 -77,-133 -30,-249 30,-73 80,-100 78,-178 115,73 192,180 200,316 -118,128 -167,41 -166,45l-88 -168c-31,93 5,229 5,234l1 0zm-357 304l-90 -130c193,-5 406,-164 436,-31l312 -109c-140,-17 -105,83 -272,25l247 -88c6,-121 -39,-197 -32,-265 6,-62 87,-89 -17,-259 -149,-123 -176,-104 -365,-145 -61,172 -80,225 -96,408 -42,-63 -2,-50 -69,-120l-45 -37c-48,149 -46,465 85,513l-180 108 88 131 -2 -1z"/>
    <path class="fil29" d="M15159 9402c-48,114 4,203 98,320l309 -141c69,272 91,439 242,689l272 461 -142 36c174,210 499,190 639,-11 -302,202 -557,-358 -679,-522 -105,-122 -182,-347 -225,-519 -60,-243 36,-295 -4,-458 209,138 231,42 422,-16 -307,-28 -240,-17 -502,-148 -1,9 -1,20 0,26l19 182c1,201 -183,328 -330,359 -88,-76 -85,-153 -116,-258l-3 0z"/>
    <path class="fil6" d="M14871 9322c6,124 174,124 288,80 32,105 28,182 116,258 147,-31 331,-157 330,-359l-19 -182c0,-7 -1,-18 0,-26 28,14 48,30 63,46 144,154 213,201 441,105 52,-22 113,-61 222,-103l-62 -36c-5,-2 -61,-31 -75,-37 -123,-56 -226,-63 -273,-149 -129,84 -111,124 -293,154l-312 109c-30,-133 -243,26 -436,31l7 110 3 -1z"/>
    <path class="fil34" d="M15311 9039c-1,-5 -37,-141 -5,-234l88 168c-1,-4 48,83 166,-45 -8,-136 -85,-243 -200,-316 -32,77 -127,133 -156,206 -47,116 32,144 108,221l-1 0z"/>
    <path class="fil46" d="M15536 8485c104,170 23,198 17,259 -29,279 175,214 -214,353 144,61 451,-30 565,-178l-6 0 -69 -95c-64,106 -58,167 -199,186 -12,-248 -79,-411 55,-567 -60,44 -91,98 -148,43l-1 -1z"/>
    <path class="fil34" d="M15786 8455c-17,-44 -2,-40 -42,-24 -24,-62 4,-9 -60,11 -133,156 -67,319 -55,567 395,-53 38,-407 157,-554z"/>
    <path class="fil1" d="M15820 8851l80 71c228,-199 70,-415 -86,-599 -90,134 -70,346 6,528z"/>
    <path class="fil1" d="M18294 12406c51,119 27,182 -76,292 -65,69 -133,77 -166,165 -96,-133 -135,-286 -85,-442 188,-91 205,28 206,23l24 227c76,-90 96,-258 97,-264l0 -1zm533 -183l43 185c-218,-80 -526,5 -501,-157l-397 -15c149,80 154,-47 316,92l-315 -10c-60,132 -43,238 -80,310 -34,66 -136,61 -95,298 112,203 151,194 345,322 144,-166 188,-217 287,-414 19,89 -20,57 24,165l34 61c119,-146 256,-500 131,-611l249 -41 -41 -185z"/>
    <path class="fil47" d="M18910 12283c48,-141 -140,-215 -287,-217 11,-131 48,-216 -17,-340 -178,-30 -440,30 -528,256l-59 212c-3,8 -7,20 -12,30 -25,-28 -40,-54 -50,-79 -93,-235 -150,-319 -448,-312 -68,2 -153,18 -294,17l54 68c4,5 55,62 67,74 112,116 225,170 239,287 181,-37 179,-90 395,-43l397 15c-25,162 283,78 501,157l41 -126 1 1z"/>
    <path class="fil53" d="M18294 12406c-2,6 -21,174 -97,264l-24 -227c-1,5 -17,-114 -206,-23 -50,156 -11,309 85,442 69,-72 200,-93 266,-162 104,-109 28,-175 -23,-295l-1 1z"/>
    <path class="fil29" d="M17798 12927c-41,-236 61,-232 95,-298 156,-300 -101,-317 395,-300 -135,-131 -518,-165 -711,-49l6 3 36 137c118,-90 138,-161 305,-120 -95,283 -93,495 -311,610 87,-23 145,-70 185,18l0 -1z"/>
    <path class="fil1" d="M17505 12850c0,57 -16,46 36,46 0,80 -9,8 72,14 218,-115 216,-328 311,-610 -466,-115 -222,438 -419,551l0 -1z"/>
    <path class="fil47" d="M17641 12393l-59 -115c-343,122 -261,433 -167,708 159,-110 231,-356 226,-593z"/>
    <path class="fil29" d="M17157 3313c271,-272 250,-101 416,-31 53,23 165,6 189,-2 -151,152 -440,157 -605,33z"/>
    <path class="fil7" d="M17634 3190c37,47 90,88 154,117 -1,-3 -1,-4 -1,-4 2,0 3,0 5,0 146,-2 222,-111 367,-44 9,6 19,11 30,16 13,7 26,13 42,15 22,7 48,12 77,15l-2 4c58,-26 108,-62 145,-103l0 0 -2 1 -3 2 -2 1 -3 2 -3 1 -3 2 -2 1c-1,1 -2,1 -4,2l-2 1c-1,1 -2,1 -4,2l-2 1c-1,1 -3,1 -4,2l-1 1c-1,1 -3,1 -4,2l-1 1c-1,1 -3,1 -4,2l-1 0c-1,1 -3,1 -4,2l-2 1c-2,1 -3,1 -5,1l0 0 0 0 0 0c-2,1 -3,1 -5,2l-1 0c-2,1 -3,1 -5,1l-1 0c-2,0 -3,1 -5,1l-1 0c-2,0 -3,1 -5,1l-1 0c-2,0 -4,1 -5,1l-1 0c-2,0 -3,1 -5,1l-1 0c-2,0 -4,1 -5,1l-1 0c-2,0 -4,1 -6,1l-1 0c-2,0 -4,0 -5,1l-1 0c-2,0 -4,0 -6,1l0 0c-2,0 -4,0 -6,0l0 0c-2,0 -4,0 -6,0l0 0c-2,0 -4,0 -6,0l-1 0c-2,0 -4,0 -6,0 -270,0 -229,-249 -253,-249 0,0 -1,0 -1,0l0 0c0,0 0,0 -1,0l0 0 0 0 0 0c-17,16 7,248 -252,248 -64,0 -122,-21 -167,-55l-1 1z"/>
    <path class="fil48" d="M17156 3314c79,-79 153,-141 209,-149 47,-7 76,23 84,31 -8,-5 -39,-30 -90,-20 -69,14 -86,94 -154,137 70,53 164,83 259,87 -112,5 -226,-25 -309,-87l1 1z"/>
    <path class="fil33" d="M15564 12884c652,-760 -1389,344 -1681,278 -3432,-766 -6525,-1017 -9809,337l11475 0c228,-238 275,-460 16,-615l-1 0z"/>
    <path class="fil30" d="M15564 12884c77,-89 116,-152 125,-195 -259,81 -501,206 -619,327 252,-27 453,-38 611,-34 -28,-35 -67,-68 -118,-98l1 0zm-6064 -338c-1307,-54 -2747,108 -4005,461 -205,119 -434,241 -714,361 -102,44 -205,87 -308,131l1429 0c1680,-367 1910,77 3486,-864 52,-31 97,-61 112,-90l0 1z"/>
    <path class="fil0" d="M15621 13499c486,-576 448,-1064 -494,-858 -322,71 -653,226 -798,375 1223,-132 1257,135 881,483l410 0 1 0zm-10459 0c1375,-300 3520,-96 3335,-1065 -577,-58 -1265,-255 -1813,-199 -1207,123 -1518,651 -2643,1134 -102,44 -205,87 -308,131l1429 0 0 -1z"/>
    <path class="fil1" d="M13740 12801c122,-150 113,-249 9,-448 -65,-125 -160,-164 -170,-303 -191,151 -309,353 -300,597 232,207 304,43 303,51l127 -315c72,160 32,407 32,417l-1 1zm689 477l137 -248c-344,26 -750,-220 -780,22l-573 -139c246,-54 201,129 489,-4l-454 -113c-32,-214 35,-358 11,-476 -22,-109 -170,-143 -16,-464 243,-245 295,-217 624,-321 139,296 182,386 242,708 63,-119 -6,-90 102,-226l74 -74c111,257 163,818 -60,927l339 160 -133 249 -2 -1z"/>
    <path class="fil29" d="M14073 13420c14,27 25,53 33,79l-46 0c4,-25 8,-51 13,-79zm-914 79c-18,-72 -29,-147 -15,-246 -348,282 -403,115 -752,45 541,-104 424,-72 866,-352 4,15 5,35 5,47l-1 327c6,65 23,125 48,179l-150 0 -1 0z"/>
    <path class="fil6" d="M14572 13227c12,221 -288,251 -499,193 -5,27 -10,54 -13,79l-751 0c-25,-54 -42,-114 -48,-179l1 -327c-1,-12 -1,-32 -5,-47 -47,30 -79,62 -104,93 -228,298 -343,395 -766,264 -96,-30 -212,-88 -413,-144l104 -75c8,-5 103,-66 126,-79 208,-121 391,-152 459,-314 244,127 220,201 548,221l573 139c30,-241 436,4 780,-22l7 197 1 1z"/>
    <path class="fil34" d="M13740 12801c0,-10 40,-257 -32,-417l-127 315c1,-8 -71,156 -303,-51 -9,-243 109,-446 300,-597 70,131 249,214 314,338 104,198 -31,262 -153,412l1 0z"/>
    <path class="fil46" d="M13241 11856c-155,321 -7,356 16,464 101,492 -273,412 443,589 -246,133 -808,26 -1036,-218l10 -1 107 -181c133,177 132,286 387,295 -22,-442 67,-745 -197,-998 115,68 178,158 271,49l-1 1z"/>
    <path class="fil34" d="M12792 11848c23,-82 -4,-72 70,-51 32,-114 -10,-15 108,9 265,253 176,556 197,998 -712,-24 -139,-716 -376,-957l1 1z"/>
    <path class="fil1" d="M12801 12556l-130 141c-440,-313 -198,-725 48,-1080 183,222 186,602 82,939z"/>
   </g>
  </g>
 </g>
</svg>
