<?xml version="1.0" encoding="UTF-8"?>
<!DOCTYPE svg PUBLIC "-//W3C//DTD SVG 1.1//EN" "http://www.w3.org/Graphics/SVG/1.1/DTD/svg11.dtd">
<!-- Creator: CorelDRAW X6 -->
<svg xmlns="http://www.w3.org/2000/svg" xml:space="preserve" width="225.213mm" height="134.959mm" version="1.1" style="shape-rendering:geometricPrecision; text-rendering:geometricPrecision; image-rendering:optimizeQuality; fill-rule:evenodd; clip-rule:evenodd"
viewBox="0 0 22521 13496"
 xmlns:xlink="http://www.w3.org/1999/xlink">
 <defs>
  <style type="text/css">
   <![CDATA[
    .fil7 {fill:#04848F}
    .fil18 {fill:#0A6F99}
    .fil0 {fill:#122D31}
    .fil1 {fill:#3A4758}
    .fil2 {fill:#406360}
    .fil11 {fill:#4D7571}
    .fil12 {fill:#5D827A}
    .fil10 {fill:#717178}
    .fil6 {fill:#85CDCC}
    .fil19 {fill:#95969A}
    .fil22 {fill:#B2E7F8}
    .fil15 {fill:#B8B8B8}
    .fil13 {fill:#C26B1F}
    .fil20 {fill:#E67E22}
    .fil3 {fill:#F6F6F6}
    .fil21 {fill:#F7E6A3}
    .fil16 {fill:#F8F8F8}
    .fil5 {fill:#FDFDFF}
    .fil4 {fill:#FFA800}
    .fil24 {fill:#04848F;fill-rule:nonzero}
    .fil9 {fill:#406360;fill-rule:nonzero}
    .fil23 {fill:#85CDCC;fill-rule:nonzero}
    .fil17 {fill:#95969A;fill-rule:nonzero}
    .fil8 {fill:#E67E22;fill-rule:nonzero}
    .fil14 {fill:#FFA800;fill-rule:nonzero}
   ]]>
  </style>
 </defs>
 <g id="Слой_x0020_1">
  <metadata id="CorelCorpID_0Corel-Layer"/>
  <polygon class="fil0" points="5,13551 22505,13551 22505,25 5,25 "/>
  <polygon class="fil1" points="6011,10873 7668,10873 7668,10176 6011,10176 "/>
  <polygon class="fil2" points="5103,10878 7071,10878 7071,10261 5103,10261 "/>
  <polygon class="fil3" points="6019,3732 6587,3732 6926,9796 6857,10752 6347,10772 5812,10429 5699,9803 "/>
  <polygon class="fil4" points="6905,9419 6918,9662 5740,9662 5740,9419 "/>
  <polygon class="fil4" points="6873,8850 6886,9094 5740,9094 5740,9032 5749,8850 "/>
  <path class="fil5" d="M6212 9215c0,-247 -200,-447 -446,-447 -246,0 -446,200 -446,447 0,247 200,447 446,447 246,0 446,-200 446,-447z"/>
  <path class="fil6" d="M6004 9269c0,2 0,4 0,5 0,132 -107,238 -238,238 -131,0 -238,-107 -238,-238 0,-2 0,-4 0,-5l476 0z"/>
  <polygon class="fil4" points="6905,9933 6918,10177 5740,10177 5740,9933 "/>
  <polygon class="fil2" points="7644,10867 9580,10867 9580,10112 7644,10112 "/>
  <path class="fil6" d="M6573 8468l733 0c78,0 142,122 142,274l0 1582c0,152 -64,274 -142,274l-733 0c-78,0 -142,-122 -142,-274l0 -1582c0,-152 64,-274 142,-274z"/>
  <path class="fil7" d="M7066 8468l239 0c78,0 142,64 142,142l0 1845c0,79 -64,142 -142,142l-239 0c-78,0 -142,-64 -142,-142l0 -1845c0,-79 64,-142 142,-142z"/>
  <path class="fil8" d="M7643 9654l0 565c0,153 -63,293 -163,395 -101,101 -241,164 -394,164l-844 0c-153,0 -293,-63 -394,-164 -101,-101 -163,-241 -163,-395l0 -565 195 0 0 565c0,100 41,191 107,257 66,66 157,107 256,107l844 0c99,0 191,-41 256,-107 66,-66 107,-157 107,-257l0 -565 195 0 -2 0z"/>
  <polygon class="fil4" points="6842,8301 6855,8545 5765,8545 5778,8301 "/>
  <polygon class="fil4" points="6812,7750 6825,7994 5794,7994 5807,7750 "/>
  <polygon class="fil4" points="6779,7170 6793,7414 5824,7414 5838,7170 "/>
  <polygon class="fil4" points="6748,6606 6762,6850 5854,6850 5867,6606 "/>
  <polygon class="fil4" points="6714,6005 6728,6249 5886,6249 5899,6005 "/>
  <polygon class="fil4" points="6685,5482 6699,5726 5914,5726 5927,5482 "/>
  <polygon class="fil4" points="6656,4954 6669,5198 5942,5198 5955,4954 "/>
  <polygon class="fil4" points="6628,4473 6642,4717 5968,4717 5980,4473 "/>
  <polygon class="fil4" points="6602,3999 6616,4243 5992,4243 6006,3999 "/>
  <path class="fil9" d="M9257 8285l0 -416c0,-49 20,-94 53,-127 33,-33 77,-53 127,-53l1052 0c49,0 94,20 127,53 33,33 53,78 53,127l0 777 -52 0 0 -777c0,-35 -15,-67 -37,-90 -23,-23 -55,-37 -90,-37l-1052 0c-35,0 -67,15 -90,37 -23,23 -37,55 -37,90l0 416 -52 0z"/>
  <path class="fil9" d="M7418 8109l0 -416c0,-49 20,-94 53,-127 33,-33 77,-53 127,-53l1052 0c49,0 94,20 127,53 33,33 53,78 53,127l0 777 -52 0 0 -777c0,-35 -15,-67 -37,-90 -23,-23 -55,-37 -90,-37l-1052 0c-35,0 -67,15 -90,37 -23,23 -37,55 -37,90l0 416 -52 0z"/>
  <polygon class="fil10" points="8676,9949 9264,9949 9264,5885 8676,5885 "/>
  <path class="fil11" d="M8548 5284c-15,140 97,229 63,536l124 -97c154,-94 463,-41 498,-366 20,-183 -118,-348 -306,-369 -189,-20 -358,111 -378,295l0 1z"/>
  <path class="fil12" d="M8984 5393c-70,11 -99,78 -254,102l64 48c67,63 82,223 245,196 92,-15 155,-104 140,-200 -16,-96 -102,-162 -195,-147z"/>
  <polygon class="fil13" points="8537,5916 9404,5916 9404,5672 8537,5672 "/>
  <polygon class="fil1" points="9888,9948 10283,9948 10283,5275 9888,5275 "/>
  <path class="fil2" d="M11287 3541c-191,71 -236,276 -659,434l207 99c223,141 356,580 803,414 252,-94 377,-382 281,-643 -97,-261 -380,-396 -632,-303z"/>
  <path class="fil12" d="M10280 3997c-91,184 16,364 -185,768l219 -69c259,-51 655,179 868,-248 119,-241 16,-537 -233,-661 -249,-124 -548,-29 -668,212l0 -1z"/>
  <path class="fil11" d="M10179 5180c-96,0 -149,-82 -360,-82l75 -78c76,-98 62,-313 285,-313 126,0 228,106 228,237 0,131 -102,237 -228,237z"/>
  <path class="fil2" d="M11159 3654c22,108 126,148 173,385l69 -101c93,-107 335,-140 285,-391 -28,-142 -170,-232 -315,-202 -146,29 -241,168 -212,309z"/>
  <path class="fil2" d="M12279 3136c0,-116 -94,-210 -210,-210 -116,0 -210,94 -210,210 0,116 94,210 210,210 116,0 210,-94 210,-210z"/>
  <path class="fil2" d="M12604 3014c0,-41 -34,-75 -75,-75 -41,0 -75,34 -75,75 0,41 34,75 75,75 41,0 75,-34 75,-75z"/>
  <polygon class="fil13" points="9771,5275 10400,5275 10400,5031 9771,5031 "/>
  <polygon class="fil1" points="8032,10110 9580,10110 9580,9430 8032,9430 "/>
  <path class="fil14" d="M7445 9725c1,-153 63,-292 163,-393 101,-101 241,-163 394,-163l844 0c153,0 293,63 394,163 100,100 163,239 163,393l-195 0c-1,-99 -41,-189 -107,-255 -66,-66 -157,-107 -256,-107l-844 0c-99,0 -191,41 -256,107 -66,66 -106,155 -107,255l-195 0 2 0z"/>
  <polygon class="fil15" points="9594,10878 11328,10878 11328,9273 9594,9273 "/>
  <path class="fil16" d="M13025 10723l-1734 0 0 -1454 -57 -74 -64 -61 466 -325 466 -325 466 325 454 323c0,0 3,1451 3,1591l1 0z"/>
  <polygon class="fil16" points="12054,9870 12353,9870 12353,9305 12054,9305 "/>
  <path class="fil17" d="M12092 9831l222 0 0 -488 -222 0 0 488zm261 78l-299 0 -38 0 0 -38 0 -565 0 -38 38 0 299 0 38 0 0 38 0 565 0 38 -38 0z"/>
  <path class="fil8" d="M11959 10301c0,255 128,383 382,383l637 0 0 -1392 -254 0 0 371 -382 0c-254,0 -382,128 -382,383l0 255 -1 1zm764 128l-382 0c-85,0 -128,-43 -128,-128l0 -255c0,-85 43,-128 128,-128l382 0 0 511zm581 255l-188 0 0 -752 188 0 0 752zm0 -837l-188 0 0 -188 188 0 0 188zm955 273l102 0 0 564 188 0 0 -564 102 0 0 -188 -102 0 0 -273 -188 0 0 273 -102 0 0 188zm682 564l-188 0 0 -752 188 0 0 752zm0 -837l-188 0 0 -188 188 0 0 188zm290 837l0 -1025 -188 0 0 1025 188 0zm290 0l0 -1025 -188 0 0 1025 188 0zm1159 0l0 -564 282 0c63,0 94,31 94,94l188 0c0,-188 -94,-282 -282,-282l-469 0 0 752 188 0 -1 0zm663 375l87 0 0 0c124,0 222,-73 294,-220l77 -155 375 -752 -210 0 -257 521 -259 -521 -210 0 360 721 -55 112c-47,70 -87,106 -118,106l-85 0 0 188z"/>
  <path class="fil14" d="M14156 10450c0,155 -77,233 -233,234l-465 0 0 -188 465 0c31,0 46,-16 46,-46 0,-32 -16,-48 -46,-48l-283 0c-156,-1 -233,-81 -233,-239 0,-153 77,-230 233,-230l465 0 0 188 -465 0c-29,0 -45,16 -46,46 1,32 16,47 46,47l283 0c156,0 233,79 233,236zm2233 -65l0 -188c0,-188 -96,-282 -286,-282l-194 0c-191,0 -286,94 -286,282l0 188 0 17c0,188 94,282 282,282l451 0 0 -188 -451 0c-63,0 -94,-31 -94,-94l0 -17 580 0 -1 0zm-580 -188c0,-63 31,-94 94,-94l204 0c63,0 94,31 94,94l-392 0z"/>
  <polygon class="fil13" points="9477,9314 11445,9314 11445,9150 9477,9150 "/>
  <polygon class="fil7" points="9799,9847 10154,9847 10154,9491 9799,9491 "/>
  <polygon class="fil18" points="9799,10410 10154,10410 10154,10055 9799,10055 "/>
  <polygon class="fil6" points="10302,9847 10656,9847 10656,9491 10302,9491 "/>
  <polygon class="fil7" points="10302,10410 10656,10410 10656,10055 10302,10055 "/>
  <polygon class="fil7" points="10787,9847 11142,9847 11142,9491 10787,9491 "/>
  <polygon class="fil18" points="10787,10410 11142,10410 11142,10055 10787,10055 "/>
  <polygon class="fil19" points="12098,8330 12563,8656 13247,9132 13024,9132 12563,8811 12098,8486 11631,8811 11195,9120 11043,9069 11631,8656 "/>
  <polygon class="fil15" points="11481,9882 11780,9882 11780,9317 11481,9317 "/>
  <path class="fil17" d="M11520 9843l222 0 0 -488 -222 0 0 488zm261 78l-299 0 -38 0 0 -38 0 -565 0 -38 38 0 299 0 38 0 0 38 0 565 0 38 -38 0z"/>
  <polygon class="fil20" points="12651,9882 12950,9882 12950,9317 12651,9317 "/>
  <path class="fil14" d="M12682 9851l237 0 0 -503 -237 0 0 503zm268 62l-299 0 -31 0 0 -31 0 -565 0 -31 31 0 299 0 31 0 0 31 0 565 0 31 -31 0z"/>
  <polygon class="fil19" points="9340,10879 17333,10879 17333,10674 9340,10674 "/>
  <path class="fil15" d="M8655 9691l789 0c85,0 153,69 153,153l0 885c0,85 -68,153 -153,153l-789 0c-85,0 -153,-69 -153,-153l0 -885c0,-85 68,-153 153,-153z"/>
  <polygon class="fil21" points="9096,9735 9526,9735 9526,9563 9096,9563 "/>
  <path class="fil21" d="M9438 10413l0 199c0,57 -46,103 -103,103l-531 0c-57,0 -103,-47 -103,-103l0 -199 737 0z"/>
  <path class="fil12" d="M6629 2533c-91,184 15,364 -185,768l219 -69c259,-51 655,179 868,-248 119,-241 16,-537 -233,-661 -249,-124 -548,-29 -668,212l0 -1z"/>
  <path class="fil12" d="M6539 3616c-52,0 -81,-45 -196,-45l41 -42c41,-53 34,-170 155,-170 68,0 124,58 124,129 0,71 -56,129 -124,129l0 -1z"/>
  <polygon class="fil22" points="6803,8489 7076,8489 7076,8317 6803,8317 "/>
  <path class="fil23" d="M7094 7252l2276 0c57,0 108,23 145,60 37,37 60,89 60,145l8 1697 -104 0 -8 -1697c0,-28 -12,-53 -30,-71 -18,-18 -44,-30 -71,-30l-2276 0c-28,0 -53,12 -72,30 -18,18 -30,44 -30,71l0 872 -104 0 0 -872c0,-57 23,-108 60,-145 37,-37 88,-60 145,-60l1 0z"/>
  <path class="fil24" d="M9302 8167l0 416c0,49 -20,94 -53,127 -33,33 -77,53 -127,53l-1533 0c-49,0 -94,-20 -127,-53 -33,-33 -53,-78 -53,-127l0 -416 52 0 0 416c0,35 15,67 37,90 23,23 55,37 90,37l1533 0c35,0 67,-15 90,-37 23,-23 37,-55 37,-90l0 -416 52 0z"/>
  <polygon class="fil20" points="10461,8503 10862,8828 11263,9153 10461,9153 9659,9153 10060,8828 "/>
  <path class="fil15" d="M7598 8030c0,-86 -70,-156 -156,-156 -86,0 -156,70 -156,156 0,86 70,156 156,156 86,0 156,-70 156,-156z"/>
  <polygon class="fil5" points="7410,7890 7475,7890 7475,7793 7410,7793 "/>
  <path class="fil12" d="M7637 2078c-191,71 -236,276 -659,434l207 99c223,141 356,580 803,414 252,-94 377,-382 281,-643 -97,-261 -380,-396 -632,-303z"/>
  <path class="fil12" d="M7509 2192c22,108 126,148 173,385l69 -101c93,-107 335,-140 285,-391 -28,-142 -170,-232 -315,-202 -146,29 -241,168 -212,309z"/>
  <path class="fil12" d="M8629 1673c0,-116 -94,-210 -210,-210 -116,0 -210,94 -210,210 0,116 94,210 210,210 116,0 210,-94 210,-210z"/>
  <path class="fil12" d="M8953 1550c0,-41 -34,-75 -75,-75 -41,0 -75,34 -75,75 0,41 34,75 75,75 41,0 75,-34 75,-75z"/>
  <path class="fil2" d="M8898 4594c-15,140 97,229 63,536l124 -97c154,-94 463,-41 498,-366 20,-183 -118,-348 -306,-369 -189,-20 -358,111 -378,295l0 1z"/>
  <path class="fil2" d="M12252 3962c0,-116 -94,-210 -210,-210 -116,0 -210,94 -210,210 0,116 94,210 210,210 116,0 210,-94 210,-210z"/>
  <path class="fil2" d="M12455 2784c0,-41 -34,-75 -75,-75 -41,0 -75,34 -75,75 0,41 34,75 75,75 41,0 75,-34 75,-75z"/>
  <path class="fil2" d="M12686 2655c0,-19 -16,-35 -35,-35 -19,0 -35,16 -35,35 0,19 16,35 35,35 19,0 35,-16 35,-35z"/>
  <path class="fil11" d="M9711 4862c0,-41 -34,-75 -75,-75 -41,0 -75,34 -75,75 0,41 34,75 75,75 41,0 75,-34 75,-75z"/>
  <path class="fil6" d="M9681 8727c0,-86 -70,-156 -156,-156 -86,0 -156,70 -156,156 0,86 70,156 156,156 86,0 156,-70 156,-156z"/>
  <polygon class="fil5" points="9476,8587 9581,8587 9581,8490 9476,8490 "/>
 </g>
</svg>
