<?xml version="1.0" encoding="UTF-8" standalone="no"?>
<!-- Creator: CorelDRAW X6 -->

<svg
   xmlns:dc="http://purl.org/dc/elements/1.1/"
   xmlns:cc="http://creativecommons.org/ns#"
   xmlns:rdf="http://www.w3.org/1999/02/22-rdf-syntax-ns#"
   xmlns:svg="http://www.w3.org/2000/svg"
   xmlns="http://www.w3.org/2000/svg"
   xmlns:sodipodi="http://sodipodi.sourceforge.net/DTD/sodipodi-0.dtd"
   xmlns:inkscape="http://www.inkscape.org/namespaces/inkscape"
   xml:space="preserve"
   width="225.213mm"
   height="134.959mm"
   version="1.1"
   style="shape-rendering:geometricPrecision; text-rendering:geometricPrecision; image-rendering:optimizeQuality; fill-rule:evenodd; clip-rule:evenodd"
   viewBox="0 0 22521 13496"
   id="svg2"
   inkscape:version="0.91 r13725"
   sodipodi:docname="fen.svg"><metadata
     id="metadata190"><rdf:RDF><cc:Work
         rdf:about=""><dc:format>image/svg+xml</dc:format><dc:type
           rdf:resource="http://purl.org/dc/dcmitype/StillImage" /><dc:title></dc:title></cc:Work></rdf:RDF></metadata><sodipodi:namedview
     pagecolor="#ffffff"
     bordercolor="#666666"
     borderopacity="1"
     objecttolerance="10"
     gridtolerance="10"
     guidetolerance="10"
     inkscape:pageopacity="0"
     inkscape:pageshadow="2"
     inkscape:window-width="1280"
     inkscape:window-height="969"
     id="namedview188"
     showgrid="false"
     inkscape:zoom="0.49351614"
     inkscape:cx="403.05196"
     inkscape:cy="239.10059"
     inkscape:window-x="0"
     inkscape:window-y="0"
     inkscape:window-maximized="1"
     inkscape:current-layer="svg2" /><defs
     id="defs4"><style
       type="text/css"
       id="style6"><![CDATA[
    .fil1 {fill:none}
    .fil19 {fill:none;fill-rule:nonzero}
    .fil4 {fill:#1F807C}
    .fil13 {fill:#2D787E}
    .fil0 {fill:#472230}
    .fil5 {fill:#47B2AC}
    .fil9 {fill:#4E2904}
    .fil11 {fill:#774218}
    .fil6 {fill:#915227}
    .fil7 {fill:#AC5F29}
    .fil14 {fill:#DF372A}
    .fil15 {fill:#DF574B}
    .fil10 {fill:#E3BFB5}
    .fil3 {fill:#F0802A}
    .fil8 {fill:#FBFDFF}
    .fil12 {fill:white}
    .fil18 {fill:#1F807C;fill-rule:nonzero}
    .fil2 {fill:#290D00;fill-rule:nonzero}
    .fil21 {fill:#472230;fill-rule:nonzero}
    .fil17 {fill:#47B2AC;fill-rule:nonzero}
    .fil16 {fill:#DF372A;fill-rule:nonzero}
    .fil20 {fill:white;fill-rule:nonzero}
   ]]></style></defs><g
     id="Слой_x0020_1"><metadata
       id="CorelCorpID_0Corel-Layer" /><rect
       class="fil0"
       x="2"
       y="-1"
       width="22500"
       height="13500"
       id="rect10" /><path
       class="fil1"
       d="M7168 6595c283,-116 672,15 947,117 329,122 -1005,-123 -749,-57 204,52 786,341 384,176 -176,-73 -1549,-286 -400,13 663,172 498,221 -52,92 -63,-15 -1375,-248 -1027,-81 137,66 780,76 1263,239 226,77 77,78 -72,53 -286,-47 -917,-167 -1019,-168 -3,0 -971,-73 -623,67 110,44 1113,51 1622,213 271,86 64,68 -81,53 -544,-57 -1743,-316 -2038,-114 198,148 1142,15 1519,193 3,30 -2125,-189 -1760,-37 173,73 1791,168 2143,168"
       id="path12" /><path
       class="fil2"
       d="M7162 6579c145,-59 317,-56 487,-24 168,31 335,90 474,141 50,19 68,35 63,52 -14,36 -356,-15 -605,-52 -30,-4 -57,-10 -84,-15 112,43 247,104 328,144 30,15 53,27 66,35 76,48 79,65 -16,38 -18,-5 -58,-20 -129,-49 -88,-36 -481,-108 -700,-133 -38,-4 -71,-7 -95,-8 60,24 187,62 407,119 223,58 354,102 408,131 33,18 44,35 35,51 -7,12 -28,19 -61,19 -73,0 -230,-24 -443,-73 -40,-9 -568,-104 -871,-133 -68,-7 -125,-9 -162,-8 -17,1 -35,-9 -31,-5 5,7 20,17 49,30 53,25 192,43 369,65l0 0c261,33 604,76 891,173 64,22 100,38 115,50 18,14 19,27 8,40 -6,7 -18,10 -33,12 -35,3 -103,-3 -170,-14 -91,-15 -210,-36 -337,-59 -287,-51 -611,-108 -679,-109l-1 0 -4 0c-58,-4 -656,-46 -676,3 -1,3 18,12 64,30 35,14 182,25 378,40 368,27 910,67 1243,173 194,62 194,90 112,100 -38,5 -127,-3 -201,-12 -131,-14 -298,-39 -481,-67 -562,-84 -1275,-192 -1520,-65 107,54 352,60 619,66 320,8 672,16 873,111l9 4 1 10c2,13 -6,20 -22,22 -39,4 -250,-11 -516,-31 -519,-39 -1248,-93 -1265,-51 -1,3 11,0 32,8 70,30 392,63 769,93 528,41 1162,74 1368,74l0 35c-205,0 -841,-33 -1370,-74 -380,-30 -705,-64 -780,-95 -44,-19 -59,-37 -52,-56 27,-66 771,-10 1301,29 176,13 328,25 420,30 -200,-60 -496,-68 -769,-73 -296,-8 -564,-14 -664,-88l-20 -15 21 -14c230,-157 982,-44 1570,45 183,28 351,53 480,67 72,8 159,16 193,12 10,-1 -42,-6 -119,-30 -329,-105 -868,-144 -1235,-171 -198,-14 -347,-25 -389,-42 -70,-28 -94,-54 -84,-77 29,-73 651,-29 711,-24l4 0 0 0c74,2 397,59 684,110 129,23 252,45 337,59 57,9 112,15 147,14 -18,-8 -45,-19 -84,-32 -285,-96 -626,-139 -884,-171l0 0c-181,-23 -322,-41 -380,-68 -34,-16 -53,-30 -62,-41 -25,-33 -1,-49 58,-52 39,-3 97,1 167,8 306,29 836,124 876,133 210,49 363,73 434,73 6,0 12,0 16,0 -3,0 -4,-1 -7,-3 -52,-27 -180,-71 -400,-128 -245,-63 -376,-104 -429,-128 -77,-35 -70,-53 -6,-61 25,-3 74,0 137,7 172,19 452,68 610,106 -106,-46 -225,-95 -296,-113 -35,-9 -49,-19 -46,-32l0 0c5,-20 121,-3 269,19 237,35 563,84 566,76 2,-5 -15,4 -42,-6 -137,-51 -302,-109 -468,-139 -164,-30 -329,-35 -466,22l-14 -33 -1 0zm193 68c-3,0 -3,1 -4,2l0 0c-1,4 1,2 4,-2zm412 345c2,-3 -3,-1 -8,0 5,0 8,0 8,0z"
       id="path14" /><path
       class="fil3"
       d="M8169 4656c8,30 13,68 13,112 3,494 -259,1014 147,1439 104,110 256,160 492,61 428,-182 308,-670 144,-745 -136,-63 -25,68 -14,138 36,247 -373,199 -432,-444 -10,-114 -34,-227 -72,-323 -159,-394 -498,-494 -498,-492 8,13 210,219 220,253l0 1z"
       id="path16" /><path
       class="fil4"
       d="M4851 5524c-14,-14 -202,-317 -222,-349 -179,-279 -568,-1197 -437,-1441 78,-145 212,3 284,60 145,115 384,270 764,255 193,-8 356,39 270,116 -127,114 -185,78 -321,257 -63,84 -111,155 -148,219 -132,225 -137,350 -264,544 -28,41 111,345 74,340z"
       id="path18" /><path
       class="fil5"
       d="M5222 4381c-11,13 -22,26 -34,41 -63,84 -111,155 -148,219 -126,215 -136,339 -248,519 -168,-172 -345,-721 -376,-924 -9,-62 -4,-94 74,-72 159,43 220,107 395,166 50,16 108,32 181,47 76,15 118,13 156,5l-1 -1z"
       id="path20" /><path
       class="fil6"
       d="M7277 5934l44 -66c-114,209 -4,407 -188,693 -281,437 412,259 346,-52 -16,-76 27,-213 106,-372 88,-176 135,-336 -75,-356 -108,-10 -233,-50 -233,153l-1 -1z"
       id="path22" /><path
       class="fil1"
       d="M8006 6681c509,208 -97,-177 192,-101 2,1 412,205 213,-5 -131,-138 348,133 187,-56 -110,-129 330,156 171,-45 -15,-19 205,105 217,2 5,-46 326,-57 383,-65"
       id="path24" /><path
       class="fil2"
       d="M8012 6664c140,57 186,71 188,65 1,-3 -22,-30 -46,-57 -31,-35 -63,-73 -57,-98 6,-23 35,-31 103,-13l0 0c2,1 3,2 7,3 28,14 220,106 241,86 3,-3 -10,-21 -52,-64 -30,-31 -34,-51 -20,-63 17,-16 68,0 122,18 52,17 109,35 117,29 1,-1 -8,-12 -32,-41 -25,-29 -27,-47 -14,-58 17,-14 62,4 111,24 48,19 101,41 109,35l0 0c7,-6 -59,-52 -31,-73l0 0c9,-8 24,-2 46,7 29,11 74,29 112,33 27,3 50,-2 52,-25l0 0c16,-90 405,-58 405,-46 -108,16 -341,-29 -382,86 -8,24 -46,24 -79,20 -33,-4 -71,-16 -100,-28 14,26 12,43 -1,53l0 0c-24,19 -87,-7 -144,-30 -22,-9 -43,-18 -57,-23 0,0 1,1 1,1 41,48 46,75 28,90 -24,20 -90,-2 -151,-22 -44,-14 -84,-28 -85,-26 -3,3 10,0 22,13 59,63 69,97 51,115 -39,37 -250,-65 -280,-80 -1,0 0,0 0,0l0 0 0 0 0 0c-43,-12 -59,-14 -60,-13 -2,7 24,36 49,65 31,35 62,70 52,94 -10,25 -70,22 -235,-46l14 -33 -3 0zm181 -67c0,0 1,0 0,0l0 0zm400 -98c-2,2 0,2 4,2 -3,-1 -4,-2 -4,-2z"
       id="path26" /><path
       class="fil2"
       d="M8013 6663c70,29 117,46 145,57 29,10 41,12 41,9l0 0c1,-1 -5,-8 -14,-19 -8,-10 -20,-24 -32,-37l0 0 0 0c-31,-36 -64,-73 -57,-99 3,-12 12,-19 29,-23 16,-3 41,0 74,8l1 0c2,1 3,1 6,3l1 1c14,7 68,33 122,56 54,22 106,41 117,31 1,-1 -2,-6 -9,-15 -8,-10 -22,-25 -42,-47l0 0c-15,-16 -24,-29 -26,-39 -3,-11 -1,-19 6,-25 18,-17 68,0 122,18l0 0c26,8 53,18 75,24 21,6 37,8 41,6l0 0c0,0 -2,-3 -7,-8 -5,-7 -14,-16 -25,-30 -13,-14 -19,-26 -21,-36 -3,-10 1,-18 8,-24 8,-8 24,-7 44,-1 19,5 43,14 68,24 25,9 50,20 69,27 19,7 34,11 38,8l0 0 0 0c1,-1 -1,-3 -3,-5 -3,-3 -5,-6 -8,-10 -5,-5 -10,-11 -14,-17l0 0c-11,-14 -19,-30 -6,-41l0 0 1 -1c5,-4 12,-4 19,-3 8,2 17,5 28,9l0 0 0 0c29,11 74,29 111,33 14,2 26,1 35,-3 9,-3 15,-10 16,-21l0 -1 0 0c10,-49 128,-62 233,-62 36,0 71,2 100,4 29,3 52,5 63,8 7,2 10,3 10,5l0 1 -1 0c-30,4 -69,4 -111,4 -111,-1 -241,-1 -270,81 -4,13 -16,19 -31,21 -14,3 -32,2 -48,-1 -17,-2 -35,-6 -52,-11 -16,-5 -32,-10 -46,-15 6,13 8,23 8,31 0,9 -4,16 -10,21l-1 1 0 0c-12,8 -34,7 -59,0 -26,-7 -56,-19 -84,-30l0 0 0 0 0 0c-20,-8 -40,-16 -53,-21 19,23 30,41 35,56 4,15 1,26 -8,34 -12,10 -35,10 -63,4 -27,-6 -59,-16 -90,-26 -22,-8 -43,-14 -58,-19 -14,-4 -24,-8 -25,-8 1,0 1,0 2,1 4,1 12,3 19,11 30,31 47,56 55,74 8,19 5,33 -4,42 -19,19 -83,3 -144,-20 -62,-23 -122,-52 -138,-59l0 0 -1 0 0 0 0 0c-21,-6 -35,-9 -45,-11 -8,-2 -13,-3 -13,-3 -1,3 5,12 14,24 9,12 22,26 35,41 15,18 31,35 41,52 10,16 15,31 11,43 -5,14 -23,19 -61,13 -37,-6 -93,-25 -176,-58l-1 0 0 -1 14 -33 0 -1 1 0 -2 -3zm145 58c-29,-10 -75,-28 -145,-56l-13 31c82,34 138,52 174,57 36,6 53,1 58,-12 4,-11 -1,-25 -10,-41 -10,-16 -25,-34 -41,-52 -13,-14 -25,-29 -35,-41 -9,-12 -16,-22 -14,-25 0,-2 5,-2 15,1 9,2 24,6 46,11l0 0 0 0 0 0 1 0 0 0c0,0 0,0 0,0 17,8 76,36 136,59 61,23 123,39 143,21 9,-8 11,-21 3,-40 -8,-19 -24,-43 -54,-74 -7,-8 -14,-9 -19,-11 -2,-1 -3,-1 -3,-2 -1,-1 -1,-2 0,-3 1,-1 12,2 28,7 16,5 37,12 58,19 30,10 63,20 90,26 27,5 49,6 61,-4 8,-8 12,-18 8,-32 -4,-14 -15,-34 -35,-57l-1 -1 -1 -1 -3 -3 4 2c14,6 35,14 57,23l0 0 0 0 0 0c29,12 58,24 84,30 25,7 47,8 58,-1l1 -1 0 0c5,-4 8,-11 9,-19 0,-8 -3,-19 -9,-32l-1 -3 3 1c14,6 31,12 48,16 17,5 35,9 52,11l0 0c16,2 34,3 48,1 14,-3 25,-8 30,-19 30,-84 161,-83 272,-83 41,0 79,0 109,-3 -1,-1 -3,-2 -8,-3 -12,-3 -35,-6 -63,-8 -29,-3 -63,-4 -100,-4 -106,0 -223,13 -231,61l0 0c-2,12 -8,19 -18,23 -9,3 -22,4 -36,3 -38,-4 -84,-22 -112,-34l0 0 0 0c-11,-4 -20,-8 -28,-9 -7,-2 -13,-1 -17,2l0 0 -1 1c-13,9 -5,25 6,38 5,6 10,12 14,17 3,4 7,8 9,10 3,3 4,6 3,8l0 0 0 0c-4,3 -19,-1 -40,-8 -20,-7 -46,-17 -70,-27 -24,-10 -48,-19 -68,-24 -19,-5 -35,-6 -42,1 -6,5 -8,13 -7,21 2,9 8,21 21,35 12,14 20,24 25,30 5,7 8,10 7,11l0 0c-4,3 -21,1 -43,-5 -22,-6 -49,-15 -75,-24l0 0c-54,-18 -104,-34 -121,-19 -6,6 -8,14 -5,24 3,10 11,23 26,38l0 0c20,22 34,37 42,47 8,11 11,17 9,19 -11,10 -64,-8 -119,-30 -54,-23 -109,-49 -122,-56l-1 -1c-3,-1 -3,-2 -5,-3l-1 0c-34,-9 -58,-12 -74,-9 -16,3 -24,10 -27,21 -7,24 25,62 57,97l0 0 0 0c12,14 24,27 32,37 8,11 14,19 14,20l0 0c-2,3 -14,2 -44,-8l3 7zm340 -181l0 0m-1 2l0 0m95 -43c0,0 0,0 0,0l0 0zm-2 2c-1,-1 0,-2 1,-3l0 0c0,0 1,0 3,0l0 0c1,0 2,1 3,2l7 3 -7 -1c-1,0 -2,0 -3,0 -2,0 -3,0 -3,-1l0 0 -1 0z"
       id="path28" /><path
       class="fil7"
       d="M7913 4382c394,145 326,682 226,1044 -102,372 -95,423 -14,647 121,335 35,737 75,836 55,133 -136,288 -155,214 -9,-38 -18,-7 -41,17 -27,28 -78,46 -109,-19 -2,-3 -8,18 -28,30 -37,22 -95,30 -79,-95 -69,99 -141,-17 -71,-112 35,-49 100,-62 139,-93 134,-106 103,-666 -114,-706 -568,-103 -323,-567 -372,215 -20,330 -79,604 -75,950 1,79 26,167 4,240 -7,22 -18,42 -35,60 -57,60 -139,70 -153,41 -28,-56 -133,48 -187,14 -73,-47 10,-61 -54,-19 -164,107 -124,-41 -133,-25 -42,78 -111,3 -89,-57 34,-92 -57,34 -72,-41 -24,-121 48,-164 135,-186 166,-41 193,-133 168,-463 -23,-296 -82,-595 -112,-900 -92,42 -181,89 -265,120 -509,188 -868,38 -1293,-297 -69,-55 -74,-34 -71,-76 16,-199 704,-308 715,-393 157,-1201 488,-1523 2054,-943l2 -1z"
       id="path30" /><path
       class="fil3"
       d="M7371 6361c-20,330 -79,604 -75,950 1,79 26,167 4,240 -7,22 -18,42 -35,60 -57,60 -139,70 -153,41 -28,-56 -133,48 -187,14 -73,-47 10,-61 -54,-19 -164,107 -124,-41 -133,-25 -42,78 -111,3 -89,-57 34,-92 -57,34 -72,-41 -24,-121 48,-164 135,-186 166,-41 193,-133 168,-463 -23,-296 -82,-595 -112,-900 -92,42 -181,89 -265,120 -441,163 -769,72 -1125,-173 21,-150 50,-293 84,-428 185,-69 383,-121 393,-165 96,-433 329,-729 645,-962 750,167 905,1395 867,1998l1 -2z"
       id="path32" /><path
       class="fil3"
       d="M5553 5949l19 -28c0,1 0,147 -3,324 -4,225 49,671 -173,821 -35,24 -82,30 -209,83 -113,48 -224,194 -119,225 53,15 27,-69 24,78 -2,81 99,68 90,-9 8,68 83,147 120,25 14,0 33,61 76,72 67,17 57,-53 103,-60 114,-16 269,-41 241,-151 35,-30 68,-91 92,-199 54,-234 134,-503 204,-731 53,-177 132,-432 -67,-548 -359,-209 -378,101 -397,99l0 1z"
       id="path34" /><path
       class="fil4"
       d="M6699 5450c314,-300 887,-1356 693,-1716 -78,-145 -212,3 -284,60 -145,115 -384,270 -764,255 -193,-8 -356,39 -270,116 127,114 185,78 321,257 63,84 111,155 148,219 132,225 41,356 169,551 28,41 -51,264 -14,258l1 1z"
       id="path36" /><path
       class="fil5"
       d="M6362 4381c11,13 22,26 34,41 63,84 111,155 148,219 126,215 136,339 248,519 168,-172 345,-721 376,-924 9,-62 4,-94 -74,-72 -159,43 -220,107 -395,166 -50,16 -108,32 -181,47 -76,15 -118,13 -156,5l1 -1z"
       id="path38" /><ellipse
       class="fil3"
       cx="5765"
       cy="5094"
       rx="1022"
       ry="962"
       id="ellipse40" /><path
       class="fil7"
       d="M5387 5627l906 -183c42,-8 84,1 117,23 33,22 58,57 67,99 14,67 28,89 42,85 156,-31 236,-529 258,-628l3 -7 0 8 8 141c24,682 -730,1069 -369,1478 -312,-98 -537,-195 -836,-323 -718,-387 -726,-670 -787,-912l-3 -7 5 6c75,79 327,510 463,498 14,-3 19,-29 5,-95 -8,-42 1,-84 23,-117 22,-33 57,-58 99,-67l-1 0z"
       id="path42" /><ellipse
       class="fil3"
       cx="5718"
       cy="5754"
       rx="192"
       ry="19"
       id="ellipse44" /><ellipse
       class="fil8"
       cx="5173"
       cy="4878"
       rx="312"
       ry="343"
       id="ellipse46" /><ellipse
       class="fil5"
       cx="5165"
       cy="4882"
       rx="247"
       ry="272"
       id="ellipse48" /><ellipse
       class="fil9"
       cx="5167"
       cy="4885"
       rx="203"
       ry="223"
       id="ellipse50" /><ellipse
       class="fil8"
       cx="5022"
       cy="4953"
       rx="57"
       ry="62"
       id="ellipse52" /><ellipse
       class="fil8"
       cx="6260"
       cy="4913"
       rx="312"
       ry="343"
       id="ellipse54" /><ellipse
       class="fil5"
       cx="6266"
       cy="4918"
       rx="247"
       ry="272"
       id="ellipse56" /><ellipse
       class="fil9"
       cx="6263"
       cy="4920"
       rx="203"
       ry="223"
       id="ellipse58" /><path
       class="fil10"
       d="M5133 7179c-90,63 -153,169 -65,194 53,15 27,-69 24,78 -2,81 99,68 90,-9 8,68 83,147 120,25 14,0 33,61 76,72 67,17 57,-53 103,-60 114,-16 269,-41 241,-151 3,-3 7,-6 9,-9 -110,-104 -258,-167 -420,-167 -62,0 -122,9 -178,26l0 2z"
       id="path60" /><path
       class="fil10"
       d="M6714 7336c-87,22 -160,65 -135,186 15,75 106,-50 72,41 -23,61 46,135 89,57 8,-16 -30,133 133,25 63,-42 -19,-28 54,19 53,34 159,-69 187,-14 14,29 96,19 153,-41 17,-18 28,-38 35,-60 5,-18 8,-37 8,-57 -112,-115 -267,-187 -440,-187 -30,0 -61,3 -90,7 -19,9 -41,16 -65,23l1 -1z"
       id="path62" /><path
       class="fil11"
       d="M8202 6917c46,132 -139,280 -157,207 -9,-38 -18,-7 -41,17 -27,28 -78,46 -109,-19 -2,-3 -8,18 -28,30 -37,22 -95,30 -79,-95 -69,99 -141,-17 -71,-112 35,-49 100,-62 139,-93 2,-1 3,-3 4,-4 18,-2 35,-3 52,-3 104,0 203,26 288,72l1 1z"
       id="path64" /><path
       class="fil12"
       d="M8449 6294c94,41 214,41 371,-25 428,-182 308,-670 144,-745 -136,-63 -47,64 -33,133 37,175 -187,193 -308,-56 -6,43 -1,88 14,124 28,66 17,93 -46,98 -47,3 -96,24 -57,77 111,150 -201,68 -106,154 41,37 109,48 65,105 -56,73 -232,25 -42,136z"
       id="path66" /><path
       class="fil13"
       d="M5765 3887c612,0 1107,661 1107,1040 0,378 -61,351 -150,501 35,-97 64,14 64,-305 0,-320 -458,-962 -1022,-962 -564,0 -1022,431 -1022,962 0,108 19,212 54,309 -89,-150 -139,-322 -139,-505 0,-574 496,-1040 1107,-1040z"
       id="path68" /><ellipse
       class="fil8"
       cx="6123"
       cy="4998"
       rx="57"
       ry="62"
       id="ellipse70" /><ellipse
       class="fil8"
       cx="6331"
       cy="4775"
       rx="154"
       ry="170"
       id="ellipse72" /><path
       class="fil7"
       d="M6075 5595c-18,87 -93,150 -178,150 -101,0 -159,-67 -177,-155 -19,89 -91,155 -177,155 -84,0 -154,-62 -176,-146 -33,-129 112,-268 195,-349 139,-134 165,-149 296,-7 76,82 242,228 216,351l1 0z"
       id="path74" /><path
       class="fil14"
       d="M5790 5697c-22,11 -46,17 -73,17 -21,0 -41,-4 -60,-11 35,-28 59,-69 69,-117 9,45 32,83 63,111z"
       id="path76" /><ellipse
       class="fil10"
       cx="5896"
       cy="5564"
       rx="177"
       ry="195"
       id="ellipse78" /><ellipse
       class="fil10"
       cx="5541"
       cy="5564"
       rx="177"
       ry="195"
       id="ellipse80" /><path
       class="fil9"
       d="M5557 5370c-3,54 56,111 90,144 63,61 74,68 134,3 32,-35 99,-94 99,-147l-324 0 1 0z"
       id="path82" /><ellipse
       class="fil7"
       cx="5081"
       cy="5280"
       rx="290"
       ry="185"
       id="ellipse84" /><ellipse
       class="fil8"
       cx="5231"
       cy="4748"
       rx="154"
       ry="170"
       id="ellipse86" /><ellipse
       class="fil7"
       cx="6299"
       cy="5266"
       rx="290"
       ry="185"
       id="ellipse88" /><ellipse
       class="fil15"
       cx="5031"
       cy="5359"
       rx="114"
       ry="126"
       id="ellipse90" /><path
       class="fil16"
       d="M4912 5340c11,-13 25,-28 39,-44 59,-67 134,-152 161,-144 55,16 -50,134 -62,148 -59,70 -139,164 -142,200 0,6 3,9 9,9l0 0c3,0 2,-5 11,-14 56,-52 232,-216 261,-208l0 0c8,3 11,8 8,20 -4,15 -32,48 -63,85 -23,27 -48,57 -65,80 -19,26 -39,45 -40,47 -3,-26 48,-86 92,-138 30,-35 57,-67 61,-79 0,-1 6,0 3,-1l0 0c-20,-6 -191,154 -246,204 -12,11 -19,18 -23,18l0 0c-18,-1 -25,-11 -24,-26 3,-41 84,-138 145,-209 3,-4 98,-113 69,-122 -17,-5 -89,76 -144,139 -37,42 -68,78 -79,78 6,3 8,-23 28,-44l0 -1z"
       id="path92" /><ellipse
       class="fil15"
       cx="6291"
       cy="5322"
       rx="114"
       ry="126"
       id="ellipse94" /><path
       class="fil16"
       d="M6171 5302c11,-13 25,-28 39,-44 59,-67 134,-152 161,-144 54,16 -50,134 -62,148 -59,70 -139,164 -142,200 0,6 3,9 9,9l0 0c3,0 2,-5 11,-14 56,-52 232,-216 261,-208l0 0c8,3 11,8 8,20 -4,15 -32,48 -63,85 -23,27 -48,57 -65,80 -19,26 -39,45 -40,47 -3,-26 48,-86 92,-138 30,-35 57,-67 61,-79 0,-1 6,0 3,-1l0 0c-20,-6 -191,154 -246,204 -12,11 -19,18 -23,18l0 0c-18,-2 -25,-11 -25,-26 3,-41 84,-138 145,-209 3,-4 98,-113 69,-122 -17,-5 -89,76 -144,139 -37,42 -68,78 -79,78 6,3 8,-23 28,-44l0 -1z"
       id="path96" /><path
       class="fil9"
       d="M5472 4497c247,42 282,40 529,-3 373,-63 468,36 795,44 58,2 57,2 57,40l0 112c0,57 1,41 -58,49 -65,10 -55,24 -51,143 8,229 -85,379 -443,388 -631,14 -349,-574 -571,-574 -235,0 99,534 -560,574 -432,26 -463,-159 -454,-388 4,-119 15,-133 -51,-143 -59,-8 -58,8 -58,-49l0 -112c0,-38 -1,-38 57,-40 335,-8 425,-107 808,-42l1 1zm-307 57c155,-14 352,32 365,193 9,114 21,401 -344,411 -325,9 -354,-101 -354,-280 0,-179 0,-293 334,-324l-1 1zm1135 0c-155,-14 -352,32 -365,193 -9,114 -21,401 344,411 325,9 354,-101 354,-280 0,-179 0,-293 -334,-324l1 1z"
       id="path98" /><path
       class="fil17"
       d="M5136 8488l-8 -26 -123 0 -8 26 -54 0 96 -345 -39 -139 237 0 135 484 -237 0zm-69 -248l-35 122 68 0 -35 -122 1 0zm609 -183l0 432 -244 0 0 -432 -104 0 0 -52 452 0 0 52 -104 0z"
       id="path100" /><path
       class="fil18"
       d="M6788 8055l0 433 -244 0 0 -250 -71 54 -62 -46 0 242 -244 0 0 -426 -28 -21 0 -64 334 252 334 -252 0 64 -19 14zm407 126l0 307 -223 0 0 -307 -133 -176 65 0 179 238 179 -238 65 0 -133 176 2 0zm912 27c0,25 -4,50 -14,73 -9,23 -21,44 -38,62 -16,18 -35,33 -57,45 -22,12 -46,19 -71,22l0 80 -242 0 0 -484 242 0c26,0 51,6 73,18 22,12 41,27 57,46 16,19 28,41 36,65 8,24 14,49 14,73zm-68 41c0,-30 -7,-51 -21,-63 -14,-12 -35,-18 -63,-18 -4,0 -9,0 -14,0 -4,0 -9,0 -14,0l0 187c14,-3 27,-7 40,-13 14,-6 25,-14 35,-22 10,-9 19,-19 25,-31 7,-12 10,-26 10,-41l1 1zm101 240l0 -484 244 0 0 432 72 0 0 52 -316 0zm541 0l-8 -26 -123 0 -8 26 -54 0 96 -345 -39 -139 237 0 135 484 -237 0zm-69 -248l-35 122 68 0 -35 -122 1 0zm769 135c-12,19 -25,37 -41,52 -16,15 -33,29 -52,40 -19,11 -39,19 -61,24 -21,6 -43,8 -66,8 -35,0 -68,-7 -99,-19 -31,-14 -58,-31 -81,-54 -23,-23 -41,-50 -55,-80 -14,-30 -20,-63 -20,-99 0,-35 7,-68 19,-100 14,-31 31,-57 54,-80 23,-23 50,-41 81,-54 31,-14 64,-19 100,-19 23,0 45,3 66,8 21,6 41,14 61,25 19,11 36,24 52,40 16,16 30,33 41,52l-48 47c-13,-15 -27,-26 -44,-35 -17,-8 -35,-13 -55,-13 -18,0 -35,3 -50,10 -15,7 -29,16 -41,27 -12,12 -20,25 -27,41 -7,15 -10,32 -10,50 0,18 3,34 10,50 7,16 16,30 27,41 12,12 25,20 41,27 16,7 32,10 50,10 19,0 38,-4 55,-13 17,-8 31,-19 44,-35l48 47 1 1zm273 -14l0 76 94 0 0 52 -334 0 0 -484 334 0 0 52 -94 0 0 22 95 0 0 282 -95 0 0 1z"
       id="path102" /><path
       class="fil19"
       d="M15749 6546c283,-116 672,15 947,117 329,122 -1005,-123 -749,-57 204,52 786,341 384,176 -176,-73 -1549,-286 -400,13 663,172 498,221 -52,92 -63,-15 -1375,-248 -1027,-81 137,66 780,76 1263,239 226,77 77,78 -72,53 -286,-47 -917,-167 -1019,-168 -3,0 -971,-73 -623,67 110,44 1113,51 1622,213 271,86 64,68 -81,53 -544,-57 -1743,-316 -2038,-114 199,148 1142,15 1519,193 3,30 -2125,-189 -1760,-37 173,73 1791,168 2143,168"
       id="path104" /><path
       class="fil20"
       d="M15745 6536c144,-59 314,-55 483,-24 168,31 334,90 472,141 46,17 63,31 59,43 -12,31 -351,-20 -598,-57 -62,-9 -117,-20 -158,-29 119,40 299,120 399,169 30,15 53,27 65,35 52,33 54,45 -11,26 -18,-5 -58,-20 -128,-49 -88,-36 -482,-109 -702,-133 -61,-7 -107,-9 -130,-7 -2,0 6,2 14,5 52,24 182,63 425,127 223,58 353,102 406,130 29,15 39,30 32,42 -5,10 -25,15 -55,15 -73,0 -229,-24 -441,-73 -40,-9 -568,-104 -872,-133 -68,-7 -126,-9 -163,-8 -24,2 -38,3 -36,6 6,8 22,18 52,32 54,26 193,44 372,66l0 0c260,33 603,76 890,173 63,21 98,37 112,49 14,11 15,21 7,30 -5,5 -15,8 -29,10 -35,3 -101,-3 -168,-14 -90,-15 -210,-36 -337,-59 -287,-51 -611,-109 -680,-110l-1 0 -4 0c-58,-4 -661,-46 -682,7 -3,7 17,19 68,39 36,14 183,25 379,40 368,27 910,67 1242,173 172,55 178,79 113,86 -37,4 -126,-3 -199,-12 -131,-14 -297,-39 -481,-67 -571,-86 -1298,-196 -1535,-58 103,60 356,66 634,73 319,8 672,16 870,111l6 3 1 6c1,8 -4,14 -16,14 -39,4 -249,-11 -514,-31 -521,-39 -1253,-93 -1272,-47 -1,2 10,7 35,18 71,30 394,63 771,94 528,41 1163,74 1368,74l0 23c-205,0 -840,-33 -1369,-74 -379,-30 -704,-64 -778,-95 -40,-16 -54,-32 -47,-46 25,-61 767,-6 1294,33 210,16 387,29 468,31 -200,-74 -521,-82 -816,-90 -295,-7 -562,-14 -660,-86l-13 -9 13 -8c227,-155 979,-42 1565,46 183,28 351,53 480,67 73,8 160,16 194,12 8,-1 -19,-12 -117,-43 -329,-105 -870,-144 -1237,-171 -199,-14 -346,-25 -386,-41 -66,-26 -89,-49 -81,-68 27,-68 644,-24 704,-20l4 0 0 0c73,1 396,58 683,110 129,23 251,45 337,59 65,11 129,17 162,14 3,0 6,-1 8,-1 -14,-10 -46,-24 -104,-44 -285,-96 -627,-139 -886,-172l0 0c-180,-23 -321,-41 -378,-68 -33,-16 -52,-29 -60,-39 -19,-26 3,-39 53,-41 38,-3 96,1 166,8 305,29 835,124 875,133 210,49 364,73 436,73 22,0 34,-1 35,-3 0,0 -8,-3 -24,-12 -52,-28 -181,-71 -401,-128 -244,-63 -375,-104 -428,-128 -61,-27 -57,-42 -8,-48 25,-3 73,0 135,7 209,23 574,90 689,128 -120,-56 -284,-125 -373,-148 -30,-8 -43,-16 -41,-25l0 0c3,-14 117,3 261,25 239,36 568,85 574,72 1,-2 -14,-3 -46,-14 -137,-51 -302,-109 -469,-140 -166,-30 -331,-35 -470,22l-8 -20zm186 62c-3,0 -5,0 -5,1l0 0c-1,3 2,1 5,-1zm292 499c1,-1 0,-1 -1,1 0,0 1,0 1,-1z"
       id="path106" /><path
       class="fil12"
       d="M16750 4607c8,30 13,68 13,112 3,494 -259,1014 147,1439 104,110 256,160 492,61 428,-182 308,-670 144,-745 -136,-63 -25,68 -14,138 36,247 -373,199 -432,-444 -10,-114 -34,-227 -72,-323 -159,-394 -498,-494 -498,-492 8,13 210,219 220,253l0 1z"
       id="path108" /><path
       class="fil12"
       d="M13431 5476c-14,-14 -202,-317 -222,-349 -179,-279 -568,-1197 -437,-1441 78,-145 212,3 284,60 145,115 384,270 764,255 193,-8 356,39 270,116 -127,114 -185,78 -321,257 -63,84 -111,155 -148,219 -132,225 -137,350 -264,544 -28,41 112,345 74,340z"
       id="path110" /><path
       class="fil1"
       d="M16587 6632c509,209 -97,-177 192,-101 2,1 412,205 213,-5 -131,-138 348,133 187,-56 -110,-129 330,156 171,-45 -15,-19 205,105 217,2 5,-46 326,-57 383,-65"
       id="path112" /><path
       class="fil20"
       d="M16594 6615c140,57 186,71 188,65 1,-3 -22,-30 -46,-57 -31,-35 -63,-73 -57,-98 6,-23 35,-31 103,-13l0 0c2,1 3,2 7,3 28,14 220,106 241,86 3,-3 -10,-21 -52,-64 -30,-31 -34,-51 -20,-63 17,-16 68,0 122,18 52,17 109,35 117,29 1,-1 -8,-12 -32,-41 -25,-29 -27,-47 -14,-58 17,-14 62,4 111,24 48,19 101,41 109,35l0 0c7,-6 -59,-52 -31,-73l0 0c9,-8 24,-2 46,7 29,11 74,29 112,33 27,3 50,-2 52,-25l0 0c16,-90 405,-58 405,-46 -108,16 -341,-29 -382,86 -8,24 -46,24 -79,20 -33,-4 -71,-16 -100,-28 14,26 12,43 -1,53l0 0c-24,19 -87,-7 -144,-30 -22,-9 -43,-18 -57,-23 0,0 1,1 1,1 41,48 46,75 28,90 -24,20 -90,-2 -151,-22 -44,-14 -84,-28 -85,-26 -3,3 10,0 22,13 59,63 69,97 51,115 -39,37 -250,-65 -280,-80 -1,0 0,0 0,0l0 0 0 0 0 0c-43,-12 -59,-14 -60,-13 -2,7 24,36 49,65 31,35 61,70 52,94 -10,25 -70,22 -235,-46l14 -33 -3 0zm181 -67c0,0 1,0 0,0l0 0zm400 -98c-2,2 0,2 4,2 -3,-1 -4,-2 -4,-2z"
       id="path114" /><path
       class="fil20"
       d="M16595 6610c70,29 116,46 145,57 25,8 35,12 35,12 0,-1 -5,-5 -13,-14 -8,-11 -20,-24 -32,-37l0 0 0 0 0 0c-32,-37 -65,-75 -58,-103 3,-14 14,-23 33,-26 17,-3 41,0 76,8l2 0c3,1 4,2 7,3l1 1c14,7 68,33 122,56 52,22 103,40 112,32 1,-1 -4,-2 -9,-9 -8,-10 -21,-25 -41,-46l0 0c-15,-16 -25,-30 -28,-41 -3,-13 -1,-23 8,-30 19,-19 71,-2 127,17l0 0c26,8 53,18 75,24 20,5 35,8 37,7l0 0c3,-2 -4,2 -8,-2 -5,-7 -14,-16 -25,-30 -13,-15 -20,-28 -23,-38 -3,-12 1,-21 8,-28 10,-8 27,-8 48,-2 19,5 43,15 68,24 24,9 49,20 69,27 14,4 24,8 30,9 -2,-3 -5,-5 -8,-8 -5,-5 -10,-11 -15,-17l0 0c-12,-15 -19,-31 -8,-44l0 -1 4 -3c6,-5 14,-6 23,-3 8,2 18,5 29,10l0 0 0 0c29,11 73,29 111,33 13,2 25,1 33,-3 8,-3 13,-8 14,-18l1 -6 1 0c17,-48 132,-61 237,-61 36,0 72,2 101,4 29,3 52,5 64,8 9,2 14,5 14,10l0 4 -4 1c-30,4 -69,4 -111,4 -109,-1 -238,-1 -266,78 -5,14 -19,21 -35,25 -15,3 -33,2 -50,0l0 0c-17,-2 -35,-6 -52,-11 -13,-3 -25,-8 -36,-12 3,8 5,17 4,23 0,10 -5,19 -12,24l-4 3 0 -1c-14,7 -35,5 -60,-2 -26,-7 -57,-19 -85,-30l0 0 0 0 0 0 -37 -15c14,18 21,32 24,44 5,17 1,30 -10,39 -14,11 -37,11 -66,5 -28,-6 -60,-16 -90,-26 -19,-7 -38,-13 -53,-18 27,30 43,52 51,71 8,21 6,36 -5,46 -21,20 -86,4 -150,-19 -61,-23 -122,-52 -137,-59l-7 0 1 -2c-19,-5 -31,-8 -40,-9 -6,-1 -7,-8 -8,-6 0,2 5,9 14,19 9,12 22,26 35,41 16,18 31,35 41,52 11,18 17,34 11,47 -6,15 -25,22 -66,15 -37,-6 -94,-24 -177,-58l-5 -3 2 -5 14 -33 2 -5 5 3 -1 -2zm142 67c-29,-9 -73,-27 -141,-54l-9 23c79,32 133,49 169,56 34,6 49,2 53,-8 4,-9 -1,-23 -10,-37 -10,-16 -25,-33 -41,-51 -13,-14 -25,-30 -35,-41 -10,-14 -17,-24 -15,-30 1,-4 8,-5 20,-3 9,2 24,6 46,12l0 0 0 0 7 2 -1 2c21,10 76,36 132,57 60,22 120,38 138,22 8,-7 9,-19 3,-35 -8,-18 -24,-42 -53,-73 -6,-7 -13,-8 -17,-9 -3,-1 -4,-1 -6,-3 -3,-3 -3,-6 1,-9 3,-3 15,0 33,6 16,5 37,12 59,19 30,10 63,20 90,26 25,5 46,6 57,-3 7,-6 9,-15 6,-27 -4,-14 -14,-32 -35,-56l0 0 -1 -1 0 0 0 0 -3 -3 -6 -1c-1,0 -2,0 -3,0 -3,0 -5,0 -7,-3l0 0c-3,-3 -3,-6 2,-9l0 0c0,0 1,-1 1,-1l-3 -3 15 6 33 13 -1 0 35 14 0 0 0 0 0 0c29,12 58,24 84,30 25,7 44,8 54,0l1 -1c4,-3 7,-8 7,-15 0,-8 -3,-18 -8,-30l-7 -13 14 5c14,5 31,11 48,16 17,5 35,9 51,11l0 0c16,2 33,3 46,1 13,-3 23,-7 26,-17 30,-86 164,-86 276,-85 27,0 53,0 76,-1 -11,-2 -24,-3 -38,-4 -29,-3 -63,-4 -100,-4 -104,0 -219,12 -226,57l0 0c0,2 -1,3 -1,4l0 2 0 0c-3,10 -10,17 -19,21 -10,4 -24,4 -38,3 -38,-4 -84,-22 -113,-34l0 0 0 0c-11,-4 -19,-8 -27,-9 -6,-1 -10,-1 -14,1l-1 1c-9,8 -3,20 7,32l0 0c5,6 10,12 14,16 3,4 7,8 9,10 3,5 5,8 3,12l0 1 -3 2c-5,4 -22,0 -44,-8 -20,-7 -46,-18 -70,-27 -25,-10 -48,-19 -67,-24 -18,-5 -31,-6 -38,0 -5,4 -7,9 -5,17 2,8 8,19 20,34 12,14 20,24 25,30 8,9 8,15 6,18l0 0c-6,5 -24,2 -47,-4 -22,-6 -49,-15 -75,-24l0 0c-52,-17 -101,-33 -116,-19 -5,5 -7,11 -4,19 3,9 11,22 25,36l0 0c20,22 35,37 42,47 10,13 13,21 8,25 -13,12 -68,-7 -123,-30 -54,-23 -109,-49 -123,-56l-1 -1c-2,-1 -3,-2 -4,-2l-1 0c-34,-9 -57,-11 -73,-9 -14,3 -21,8 -24,18 -6,23 25,58 56,93l0 0 0 0 0 0c12,14 24,27 32,37 10,12 16,21 14,24l0 0c-3,6 -17,5 -50,-6l0 1zm628 -199c0,0 1,0 1,0l0 0c1,-1 0,0 -1,0zm-23 -65c0,0 -1,0 -1,1m1 -1l0 0 0 0z"
       id="path116" /><path
       class="fil12"
       d="M16493 4334c394,145 326,682 226,1044 -102,372 -95,423 -14,647 121,335 35,737 75,836 55,133 -136,288 -155,214 -9,-38 -18,-7 -41,17 -27,28 -78,46 -109,-19 -2,-3 -8,18 -28,30 -37,22 -95,30 -79,-95 -69,99 -141,-17 -71,-112 35,-49 100,-62 139,-93 134,-106 103,-666 -114,-706 -568,-103 -323,-567 -372,215 -20,330 -79,604 -75,950 1,79 26,167 4,240 -7,22 -18,42 -35,60 -57,60 -139,70 -153,41 -28,-56 -133,48 -187,14 -73,-47 10,-61 -54,-19 -163,107 -124,-41 -133,-25 -42,78 -112,3 -89,-57 34,-92 -57,34 -72,-41 -24,-121 48,-164 135,-186 166,-41 193,-133 168,-463 -23,-296 -82,-595 -111,-900 -92,42 -181,89 -265,120 -509,188 -868,38 -1293,-297 -69,-55 -74,-34 -71,-76 16,-199 704,-309 715,-393 157,-1201 488,-1523 2054,-943l2 -1z"
       id="path118" /><path
       class="fil12"
       d="M15952 6312c-20,330 -79,604 -75,950 1,79 26,167 4,240 -7,22 -18,42 -35,60 -57,60 -139,70 -153,41 -28,-56 -133,48 -187,14 -73,-47 10,-61 -54,-19 -163,107 -124,-41 -133,-25 -42,78 -112,3 -89,-57 34,-92 -57,34 -72,-41 -24,-121 48,-164 135,-186 166,-41 193,-133 168,-463 -23,-296 -82,-595 -111,-900 -92,42 -181,89 -265,120 -441,163 -769,72 -1125,-173 21,-150 49,-293 84,-428 185,-69 383,-121 393,-165 96,-433 329,-729 645,-962 750,167 905,1395 867,1998l1 -2z"
       id="path120" /><path
       class="fil12"
       d="M14134 5900l19 -28c0,1 0,147 -3,324 -4,225 49,671 -173,821 -35,24 -82,30 -209,83 -113,48 -224,194 -119,225 53,15 27,-69 24,79 -2,81 99,68 90,-9 8,68 83,147 120,25 14,0 33,61 76,72 67,17 57,-53 103,-60 114,-16 269,-41 241,-151 35,-30 68,-91 92,-199 54,-234 134,-503 204,-731 53,-177 132,-432 -67,-548 -359,-209 -378,101 -397,99z"
       id="path122" /><path
       class="fil12"
       d="M15279 5401c314,-300 887,-1356 693,-1716 -78,-145 -212,3 -284,60 -145,115 -384,270 -764,255 -193,-8 -355,39 -270,116 127,114 185,78 321,257 63,84 111,155 148,219 132,225 41,356 169,551 28,41 -51,264 -14,258l1 1z"
       id="path124" /><ellipse
       class="fil12"
       cx="14340"
       cy="5052"
       rx="1022"
       ry="962"
       id="ellipse126" /><path
       class="fil12"
       d="M13970 5579l906 -183c42,-8 84,1 117,23 33,22 58,57 67,99 14,67 28,89 42,85 156,-31 236,-529 258,-628l3 -7 0 8 8 141c24,682 -730,1069 -369,1478 -312,-98 -537,-195 -836,-323 -718,-387 -794,-817 -855,-1059l3 -2 68 147c75,79 327,510 463,498 14,-3 19,-29 5,-95 -8,-42 1,-84 23,-117 22,-33 57,-58 99,-67l-1 1z"
       id="path128" /><path
       class="fil0"
       d="M14327 5589c105,-11 190,-8 192,2 1,6 -24,14 -63,20 -33,6 -69,-5 -127,2 -47,6 -90,24 -124,25 -41,1 -67,-2 -67,-8 -1,-10 84,-30 189,-41l0 1z"
       id="path130" /><ellipse
       class="fil8"
       cx="13759"
       cy="4829"
       rx="312"
       ry="343"
       id="ellipse132" /><ellipse
       class="fil0"
       cx="13764"
       cy="4848"
       rx="274"
       ry="302"
       id="ellipse134" /><ellipse
       class="fil8"
       cx="13609"
       cy="4904"
       rx="57"
       ry="62"
       id="ellipse136" /><ellipse
       class="fil8"
       cx="14871"
       cy="4864"
       rx="312"
       ry="343"
       id="ellipse138" /><ellipse
       class="fil0"
       cx="14875"
       cy="4869"
       rx="276"
       ry="304"
       id="ellipse140" /><ellipse
       class="fil0"
       cx="14894"
       cy="4872"
       rx="222"
       ry="245"
       id="ellipse142" /><path
       class="fil12"
       d="M13713 7130c-90,63 -153,169 -65,194 53,15 27,-69 24,79 -2,81 99,68 90,-9 8,68 83,147 120,25 14,0 33,61 76,72 67,17 57,-53 103,-60 114,-16 269,-41 241,-151 3,-3 7,-6 9,-9 -110,-104 -258,-167 -420,-167 -62,0 -122,9 -178,26l0 1z"
       id="path144" /><path
       class="fil12"
       d="M15295 7287c-87,22 -160,65 -135,186 15,75 106,-50 72,41 -23,61 46,135 89,57 8,-16 -30,133 133,25 63,-42 -19,-28 54,19 53,34 159,-69 187,-14 14,29 96,19 153,-41 17,-18 28,-38 35,-60 5,-18 8,-37 8,-57 -111,-115 -267,-187 -440,-187 -30,0 -61,3 -90,7 -19,9 -41,16 -65,23l1 -1z"
       id="path146" /><path
       class="fil12"
       d="M16784 6868c46,132 -139,280 -157,207 -9,-38 -18,-7 -41,17 -27,28 -78,46 -109,-19 -2,-3 -8,18 -28,30 -37,22 -95,30 -79,-95 -69,99 -141,-17 -71,-112 35,-49 100,-62 139,-93 2,-1 3,-3 4,-4 18,-2 35,-3 52,-3 104,0 203,26 288,72l1 1z"
       id="path148" /><path
       class="fil12"
       d="M17030 6245c94,41 214,41 371,-25 428,-182 308,-670 144,-745 -136,-63 -47,64 -33,133 37,175 -187,193 -308,-56 -6,43 -1,88 14,124 28,66 17,93 -46,98 -47,3 -96,24 -57,77 111,150 -201,68 -106,154 41,37 109,48 65,105 -56,73 -232,25 -42,136z"
       id="path150" /><path
       class="fil21"
       d="M16898 6195c38,37 85,68 147,89 25,8 53,16 84,21l-27 68c-29,-5 -55,-13 -80,-21 -73,-24 -131,-62 -177,-107l-2 -2 -1 -2c-77,-98 -85,-141 -55,-166 19,-15 45,-13 77,-9 30,3 68,7 91,-7 14,-8 13,-14 8,-22 -4,-7 -10,-15 -16,-24 -11,-14 -22,-30 -31,-49 -25,-50 -15,-77 15,-92 24,-12 55,-4 90,3 28,7 58,14 74,9l0 0c7,-2 8,-14 -1,-48l0 0c-6,-24 -6,-44 -1,-60 4,-14 12,-24 21,-32 9,-8 19,-13 31,-16l0 0c26,-7 60,-3 90,7 22,7 34,8 37,5 6,-6 8,-25 8,-55 -1,-26 3,-53 10,-80 8,-26 18,-53 32,-78l58 -102 9 117c2,26 6,51 11,73l-41 106c-3,-5 -46,-93 -48,-98 -2,41 30,151 11,170 -25,25 -60,27 -109,12 -19,-6 -37,-9 -50,-6l0 0c-1,0 -2,0 -2,1 -1,3 -1,10 3,19l0 0c23,88 -3,124 -51,137l0 0c-34,9 -73,0 -109,-8l-17 -4c6,9 12,18 19,26 8,10 14,19 20,30 26,43 31,83 -34,121 -44,26 -106,2 -146,-3 -15,-2 -10,11 -14,14 -7,5 23,9 65,63l-1 0zm66 -256c-1,0 -1,0 -1,0 -4,2 -3,2 1,0z"
       id="path152" /><path
       class="fil12"
       d="M14346 3838c612,0 1107,661 1107,1040 0,378 -61,351 -150,501 35,-97 64,14 64,-305 0,-320 -458,-962 -1022,-962 -564,0 -1022,431 -1022,962 0,108 19,212 54,309 -89,-150 -139,-322 -139,-505 0,-574 496,-1040 1107,-1040z"
       id="path154" /><ellipse
       class="fil8"
       cx="14733"
       cy="4949"
       rx="57"
       ry="62"
       id="ellipse156" /><ellipse
       class="fil8"
       cx="14941"
       cy="4726"
       rx="154"
       ry="170"
       id="ellipse158" /><path
       class="fil0"
       d="M14667 5439c-14,87 -87,154 -173,157 -101,4 -161,-60 -183,-149 -15,90 -85,159 -171,162 -84,3 -156,-56 -181,-139 -37,-128 96,-272 177,-356 134,-139 173,-155 310,-19 79,79 240,219 220,343l1 0z"
       id="path160" /><ellipse
       class="fil12"
       transform="matrix(0.232101 -0.0239059 0.0239059 0.232101 14132 5448.64)"
       rx="785"
       ry="864"
       id="ellipse162" /><path
       class="fil0"
       d="M14418 5560c-28,17 -60,29 -95,32 -28,3 -56,0 -82,-7 42,-42 70,-101 77,-165 19,58 54,107 100,139z"
       id="path164" /><ellipse
       class="fil12"
       transform="matrix(0.232101 -0.0239059 0.0239059 0.232101 14496.8 5413.64)"
       rx="785"
       ry="864"
       id="ellipse166" /><path
       class="fil0"
       d="M14130 5245c3,54 67,104 105,134 69,54 81,59 134,-11 28,-38 89,-104 84,-156l-323 33z"
       id="path168" /><ellipse
       class="fil12"
       cx="13723"
       cy="5189"
       rx="290"
       ry="185"
       id="ellipse170" /><ellipse
       class="fil8"
       cx="13816"
       cy="4699"
       rx="154"
       ry="170"
       id="ellipse172" /><ellipse
       class="fil12"
       cx="14889"
       cy="5161"
       rx="290"
       ry="185"
       id="ellipse174" /><path
       class="fil21"
       d="M13539 5291c11,-13 24,-28 39,-44 59,-67 134,-152 161,-144 54,16 -50,134 -62,148 -59,70 -139,164 -142,200 0,6 3,9 9,9l0 0c3,0 2,-5 11,-14 56,-52 232,-216 261,-208l0 0c8,3 11,8 8,20 -4,15 -32,48 -63,85 -23,27 -48,57 -65,80 -19,26 -39,45 -40,47 -3,-26 48,-86 92,-138 30,-35 57,-67 61,-79 0,-1 6,0 3,-1l0 0c-20,-6 -191,154 -246,204 -12,11 -19,18 -23,18l0 0c-18,-2 -25,-11 -24,-26 3,-41 84,-138 145,-209 3,-4 98,-113 69,-122 -17,-5 -89,76 -144,139 -37,42 -68,78 -79,78 6,3 8,-23 28,-44l0 -1z"
       id="path176" /><path
       class="fil21"
       d="M14762 5198c11,-13 25,-28 39,-44 59,-67 134,-152 161,-144 54,16 -50,134 -62,148 -59,70 -139,164 -142,200 0,6 3,9 9,9l0 0c3,0 2,-5 11,-14 56,-52 232,-216 261,-208l0 0c8,3 11,8 8,20 -4,15 -32,48 -63,85 -23,27 -48,57 -65,80 -19,26 -39,45 -40,47 -3,-26 48,-86 92,-138 30,-35 57,-67 61,-79 0,-1 6,0 3,-1l0 0c-20,-6 -191,154 -246,204 -12,11 -19,18 -23,18l0 0c-18,-2 -25,-11 -24,-26 3,-41 84,-138 145,-209 3,-4 98,-113 69,-122 -17,-5 -89,76 -144,139 -37,42 -68,78 -79,78 6,3 8,-23 28,-44l0 -1z"
       id="path178" /><path
       class="fil0"
       d="M14069 4448c247,42 282,40 529,-2 373,-63 468,36 795,44 58,2 57,2 57,40l0 111c0,57 1,41 -58,49 -65,10 -55,24 -51,143 8,229 -85,379 -443,388 -631,14 -349,-574 -571,-574 -235,0 99,534 -560,574 -432,26 -462,-159 -454,-388 4,-119 15,-133 -51,-143 -59,-8 -58,8 -58,-49l0 -111c0,-38 -1,-38 57,-40 335,-8 425,-107 808,-42l1 0zm-307 57c155,-14 352,32 365,193 9,114 21,401 -344,411 -325,9 -354,-101 -354,-280 0,-179 0,-293 334,-324l-1 1zm1135 0c-155,-14 -352,32 -365,193 -9,114 -21,401 344,411 325,9 354,-101 354,-280 0,-179 0,-293 -334,-324l1 1z"
       id="path180" /><path
       class="fil20"
       d="M13718 8439l-8 -26 -123 0 -8 26 -54 0 96 -345 -39 -139 237 0 135 484 -237 0zm-69 -248l-35 122 68 0 -35 -122 1 0zm609 -183l0 432 -244 0 0 -432 -104 0 0 -52 452 0 0 52 -104 0zm1112 -2l0 433 -244 0 0 -250 -71 54 -62 -46 0 242 -244 0 0 -426 -28 -21 0 -64 334 252 334 -252 0 64 -19 14zm407 126l0 307 -223 0 0 -307 -133 -176 65 0 179 238 179 -238 65 0 -133 176 2 0zm912 27c0,25 -4,50 -14,73 -9,23 -21,44 -38,62 -16,18 -35,33 -57,45 -22,12 -46,19 -71,22l0 80 -242 0 0 -484 242 0c26,0 51,6 73,18 22,12 41,27 57,46 16,19 28,41 36,65 8,24 14,49 14,73zm-68 41c0,-30 -7,-51 -21,-63 -14,-12 -35,-18 -63,-18 -4,0 -9,0 -14,0 -4,0 -9,0 -14,0l0 187c14,-3 27,-7 40,-13 14,-6 25,-14 35,-22 10,-9 19,-19 25,-31 7,-12 10,-26 10,-41l1 1zm101 240l0 -484 244 0 0 432 72 0 0 52 -316 0zm541 0l-8 -26 -123 0 -8 26 -54 0 96 -345 -39 -139 237 0 135 484 -237 0zm-69 -248l-35 122 68 0 -35 -122 1 0zm769 135c-12,19 -25,37 -41,52 -16,15 -33,29 -52,40 -19,11 -39,19 -61,24 -21,6 -43,8 -66,8 -35,0 -68,-7 -99,-19 -31,-14 -58,-31 -81,-54 -23,-23 -41,-50 -55,-80 -14,-30 -20,-63 -20,-99 0,-35 7,-68 19,-100 14,-31 31,-57 54,-80 23,-23 50,-41 81,-54 31,-14 64,-19 100,-19 23,0 45,3 66,8 21,6 41,14 61,25 19,11 36,24 52,40 16,16 30,33 41,52l-48 47c-13,-15 -27,-26 -44,-35 -17,-8 -35,-13 -55,-13 -18,0 -35,3 -50,10 -15,7 -29,16 -41,27 -12,12 -20,25 -27,41 -7,15 -10,32 -10,50 0,18 3,34 10,50 7,16 16,30 27,41 12,12 25,20 41,27 16,7 32,10 50,10 19,0 38,-4 55,-13 17,-8 31,-19 44,-35l48 47 1 1zm273 -14l0 76 94 0 0 52 -334 0 0 -484 334 0 0 52 -94 0 0 22 95 0 0 282 -95 0 0 1z"
       id="path182" /><path
       class="fil0"
       d="M13217 4689c-107,-156 -210,-482 -230,-612 -7,-45 -3,-67 53,-52 114,31 157,77 282,118 35,12 78,23 129,34 4,1 8,2 13,3 -150,125 -246,307 -247,509z"
       id="path184" /><path
       class="fil0"
       d="M15437 4689c107,-156 210,-482 230,-612 7,-45 3,-67 -53,-52 -114,31 -157,77 -282,118 -35,12 -78,23 -129,34 -4,1 -8,2 -13,3 150,125 246,307 247,509z"
       id="path186" /></g></svg>