<?xml version="1.0" encoding="UTF-8"?>
<!DOCTYPE svg PUBLIC "-//W3C//DTD SVG 1.1//EN" "http://www.w3.org/Graphics/SVG/1.1/DTD/svg11.dtd">
<!-- Creator: CorelDRAW X6 -->
<svg xmlns="http://www.w3.org/2000/svg" xml:space="preserve" width="225.213mm" height="134.959mm" version="1.1" style="shape-rendering:geometricPrecision; text-rendering:geometricPrecision; image-rendering:optimizeQuality; fill-rule:evenodd; clip-rule:evenodd"
viewBox="0 0 22521 13496"
 xmlns:xlink="http://www.w3.org/1999/xlink">
 <defs>
  <style type="text/css">
   <![CDATA[
    .str0 {stroke:#D4E5E9;stroke-width:7.62}
    .str1 {stroke:#36BB9C;stroke-width:20}
    .str2 {stroke:white;stroke-width:20}
    .fil1 {fill:#194A51}
    .fil5 {fill:#1B5958}
    .fil0 {fill:#1E5953}
    .fil6 {fill:#36AD91}
    .fil3 {fill:#36BB9C}
    .fil7 {fill:#F9F3E7}
    .fil4 {fill:white}
    .fil2 {fill:#028777;fill-rule:nonzero}
   ]]>
  </style>
 </defs>
 <g id="Слой_x0020_1">
  <metadata id="CorelCorpID_0Corel-Layer"/>
  <g id="_907006384">
   <g id="_833648768">
    <rect class="fil0" x="-4" y="2" width="22500" height="13500"/>
    <path class="fil1" d="M8487 2131l-1543 124 -74 86 -140 363c3,148 -8,494 19,638 100,526 624,875 1172,779 507,-89 855,-528 825,-1011l9 -471 -156 -240 -111 -269 -1 1z"/>
    <path class="fil2" d="M7742 1730c285,0 543,111 729,291 187,180 302,428 302,701 0,274 -115,522 -302,701 -187,180 -444,291 -729,291 -285,0 -543,-111 -729,-291 -187,-180 -302,-428 -302,-701 0,-274 115,-522 302,-701 187,-180 444,-291 729,-291zm695 323c-178,-171 -424,-277 -695,-277 -272,0 -517,106 -695,277 -178,171 -288,408 -288,669 0,261 110,498 288,669 178,171 424,277 695,277 272,0 517,-106 695,-277 178,-171 288,-408 288,-669 0,-261 -110,-498 -288,-669z"/>
    <ellipse class="fil3" cx="7742" cy="2636" rx="1007" ry="969"/>
    <path class="fil4" d="M7238 2348c-120,109 -210,213 -233,324 -18,91 3,191 103,290 148,146 244,178 314,149 134,-56 184,-314 198,-542 1,-22 2,-43 3,-64 5,-126 185,-95 188,-4 1,22 2,45 3,68 13,228 64,486 198,542 70,29 166,-3 314,-149 101,-99 121,-200 103,-290 -22,-111 -113,-216 -233,-324 -276,-251 -364,-208 -383,-32l-194 0c-19,-177 -107,-219 -383,32l2 0z"/>
    <rect class="fil4" x="7648" y="2115" width="127" height="269"/>
    <path class="fil1" d="M11029 2131l-1543 124 -74 86 -140 363c3,148 -8,494 19,638 100,526 624,875 1172,779 507,-89 855,-528 825,-1011l9 -471 -156 -240 -111 -269 -1 1z"/>
    <path class="fil1" d="M13317 2131l-1543 124 -74 86 -140 363c3,148 -8,494 19,638 100,526 624,875 1172,779 507,-89 855,-528 825,-1011l9 -471 -156 -240 -111 -269 -1 1z"/>
    <path class="fil1" d="M15875 2131l-1543 124 -74 86 -140 363c3,148 -8,494 19,638 100,526 624,875 1172,779 507,-89 855,-528 825,-1011l9 -471 -156 -240 -111 -269 -1 1z"/>
    <path class="fil2" d="M10284 1730c285,0 543,111 729,291 187,180 302,428 302,701 0,274 -115,522 -302,701 -187,180 -444,291 -729,291 -285,0 -543,-111 -729,-291 -187,-180 -302,-428 -302,-701 0,-274 115,-522 302,-701 187,-180 444,-291 729,-291zm695 323c-178,-171 -424,-277 -695,-277 -272,0 -517,106 -695,277 -178,171 -288,408 -288,669 0,261 110,498 288,669 178,171 424,277 695,277 272,0 517,-106 695,-277 178,-171 288,-408 288,-669 0,-261 -110,-498 -288,-669z"/>
    <ellipse class="fil3" cx="10284" cy="2636" rx="1007" ry="969"/>
    <path class="fil4" d="M10162 2274c-85,9 -160,28 -222,65 -99,58 -177,158 -187,326 -15,247 33,356 118,393 81,35 191,8 289,-34 286,-122 225,-123 225,-402 0,-286 86,-379 -222,-348l-1 0zm375 512c34,-27 66,-52 97,-77 160,-132 259,-241 206,-318 -41,-60 -168,-88 -275,-102 -204,-27 -166,606 -28,498l0 -1z"/>
    <path class="fil2" d="M12571 1730c285,0 543,111 729,291 187,180 302,428 302,701 0,274 -115,522 -302,701 -187,180 -444,291 -729,291 -285,0 -543,-111 -729,-291 -187,-180 -302,-428 -302,-701 0,-274 115,-522 302,-701 187,-180 444,-291 729,-291zm695 323c-178,-171 -424,-277 -695,-277 -272,0 -517,106 -695,277 -178,171 -288,408 -288,669 0,261 110,498 288,669 178,171 424,277 695,277 272,0 517,-106 695,-277 178,-171 288,-408 288,-669 0,-261 -110,-498 -288,-669z"/>
    <ellipse class="fil3" cx="12571" cy="2636" rx="1007" ry="969"/>
    <path class="fil2" d="M15113 1730c285,0 543,111 729,291 187,180 302,428 302,701 0,274 -115,522 -302,701 -187,180 -444,291 -729,291 -285,0 -543,-111 -729,-291 -187,-180 -302,-428 -302,-701 0,-274 115,-522 302,-701 187,-180 444,-291 729,-291zm695 323c-178,-171 -424,-277 -695,-277 -272,0 -517,106 -695,277 -178,171 -288,408 -288,669 0,261 110,498 288,669 178,171 424,277 695,277 272,0 517,-106 695,-277 178,-171 288,-408 288,-669 0,-261 -110,-498 -288,-669z"/>
    <ellipse class="fil3" cx="15113" cy="2636" rx="1007" ry="969"/>
    <path class="fil4" d="M13081 2529c-70,-164 -173,-248 -280,-276 -114,-31 -185,61 -200,171 -11,83 18,161 74,217 124,125 491,85 406,-112z"/>
    <path class="fil4" d="M15033 2630c-14,27 -40,51 -81,67 -82,31 -230,91 -315,102 -133,16 -115,172 -56,264 209,330 899,214 1058,-190 76,-193 56,-394 -8,-532 -81,-174 -237,-247 -382,-81 -85,98 -123,144 -209,56l-103 -105c-4,-6 -8,-11 -12,-12l-22 -23c-35,32 -70,63 -105,95 81,83 292,249 235,360l0 -1z"/>
    <path class="fil4" d="M12907 2305c-1,-1 -2,-2 -3,-2 1,1 2,2 3,2zm-514 -182l133 6 -4 89c38,-10 75,-16 109,-15 59,1 53,4 7,60 -23,29 -42,62 -53,99 -51,162 43,333 211,382 41,12 82,16 123,12 147,-13 174,-126 174,23 -1,181 -84,306 -162,342 -238,113 -559,-35 -688,-203 -80,-105 -127,-262 -111,-353 18,-102 -39,-201 -76,-303l126 -42 22 62 16 -7 -13 -117 133 -13 11 107c7,-1 38,-7 36,-8l6 -122 0 1zm449 134c-2,-1 -3,-2 -5,-3 2,1 4,2 5,3zm-23 -12c-2,-1 -4,-2 -6,-3 2,1 4,2 6,3zm-23 -11c-2,-1 -4,-2 -6,-3 2,1 4,2 6,3zm-24 -9c-2,-1 -5,-2 -7,-2 2,1 5,2 7,2zm-24 -7c-2,-1 -5,-1 -7,-2 2,1 5,1 7,2zm-32 -7c6,1 12,2 0,0z"/>
    <rect class="fil5" x="-1" y="12407" width="22496" height="1095"/>
    <rect class="fil1" x="-1" y="11983" width="22496" height="1095"/>
    <ellipse class="fil6" cx="535" cy="12501" rx="347" ry="334"/>
    <path class="fil4" d="M361 12401c-41,37 -73,74 -80,112 -6,31 1,66 36,100 51,50 84,61 108,51 46,-19 64,-108 68,-187 0,-8 1,-15 1,-22 2,-43 64,-33 65,-1 0,8 1,15 1,23 4,79 22,168 68,187 24,10 57,-1 108,-51 35,-34 42,-69 36,-100 -8,-38 -39,-74 -80,-112 -95,-87 -125,-72 -132,-11l-67 0c-7,-61 -37,-76 -132,11z"/>
    <rect class="fil4" x="502" y="12321" width="43.76" height="92.86"/>
    <ellipse class="fil6" cx="1412" cy="12501" rx="347" ry="334"/>
    <path class="fil4" d="M1370 12376c-29,3 -55,10 -77,22 -34,20 -61,55 -64,112 -5,85 11,123 41,136 28,12 66,3 100,-12 99,-42 78,-43 78,-139 0,-99 30,-131 -77,-120l-1 1zm129 177c12,-9 23,-18 33,-27 55,-46 89,-83 71,-110 -14,-21 -58,-30 -95,-35 -70,-9 -57,209 -10,172l1 0z"/>
    <ellipse class="fil6" cx="2201" cy="12501" rx="347" ry="334"/>
    <ellipse class="fil6" cx="3077" cy="12501" rx="347" ry="334"/>
    <path class="fil4" d="M2376 12464c-24,-56 -60,-86 -96,-95 -39,-11 -64,21 -69,59 -4,29 6,56 26,75 43,43 169,29 140,-39l-1 0z"/>
    <path class="fil4" d="M3050 12499c-5,9 -14,18 -28,23 -28,11 -79,32 -109,35 -46,6 -40,59 -19,91 72,114 310,74 365,-66 26,-67 19,-136 -3,-183 -28,-60 -82,-85 -132,-28 -29,34 -42,50 -72,19l-35 -36c-1,-2 -3,-4 -4,-4l-8 -8c-12,11 -24,22 -36,33 28,29 101,86 81,124z"/>
    <path class="fil4" d="M2316 12386c0,0 -1,-1 -1,-1 0,0 1,1 1,1zm-177 -63l46 2 -2 31c13,-4 26,-5 37,-5 20,0 18,1 2,21 -8,10 -14,21 -18,34 -18,56 15,115 73,132 14,4 28,5 42,4 51,-5 60,-44 60,8 0,62 -29,105 -56,118 -82,39 -193,-12 -237,-70 -28,-36 -44,-91 -38,-122 6,-35 -14,-69 -26,-105l44 -14 8 21 6 -3 -4 -40 46 -4 4 37c2,0 13,-3 12,-3l2 -42 -1 0zm155 46c-1,0 -1,-1 -2,-1 1,0 1,1 2,1zm-8 -4c-1,0 -1,-1 -2,-1 1,0 1,1 2,1zm-8 -4c-1,0 -1,-1 -2,-1 1,0 1,1 2,1zm-8 -3c-1,0 -2,-1 -2,-1 1,0 2,1 2,1zm-8 -3c-1,0 -2,0 -3,-1 1,0 2,0 3,1zm-11 -2c2,0 4,1 0,0z"/>
    <ellipse class="fil6" cx="3937" cy="12557" rx="347" ry="334"/>
    <ellipse class="fil6" cx="4813" cy="12557" rx="347" ry="334"/>
    <ellipse class="fil6" cx="5602" cy="12557" rx="347" ry="334"/>
    <ellipse class="fil6" cx="6479" cy="12557" rx="347" ry="334"/>
    <path class="fil4" d="M4760 12748c-25,-4 -47,-78 -67,-143 -10,-34 -20,-66 -29,-82 -7,-13 -10,-32 -8,-49 2,-17 9,-33 24,-40 70,-33 56,71 158,2 27,-18 67,-30 92,-14 12,8 27,27 28,51 4,90 -29,113 -51,151 -12,21 -23,45 -28,83 -3,22 -18,38 -33,40 -13,2 -26,-6 -29,-30 -3,-23 -30,-66 -27,2 1,19 -15,32 -31,30l1 -1z"/>
    <path class="fil4" d="M5366 12551c36,47 80,77 126,93 11,4 46,9 58,11 -44,-29 -63,-62 -66,-106 -4,-54 46,-98 102,-98 56,0 102,44 102,98 0,34 -16,86 -46,106 46,-9 105,-30 147,-53 40,-22 88,-36 37,-80 -62,-53 -233,-119 -339,-70 -22,10 -143,71 -122,98l1 1z"/>
    <ellipse class="fil4 str0" cx="5588" cy="12554" rx="73" ry="70"/>
    <path class="fil4" d="M6498 12336c-91,-11 -160,87 -80,180 29,33 -50,150 5,201 32,29 140,39 135,27 -2,-4 -29,-8 -49,-11 -56,-11 -2,-29 30,-28 69,2 122,41 120,-54 -3,-91 -173,-126 -156,-301l-4 -13 -1 -1z"/>
    <path class="fil4" d="M3826 12581c6,11 10,28 15,47 7,29 -17,178 94,160 35,-6 66,-52 76,-75 17,-36 101,-112 33,-148 -5,-2 -6,-5 -1,-24 94,-312 -365,-216 -217,41l0 -1zm183 -30c-21,-13 -55,1 -58,31 -4,35 24,66 38,71 37,13 10,38 -17,38 -40,0 -73,-41 -73,-91 0,-50 33,-91 73,-91 24,0 36,12 45,35 1,2 2,5 3,7 -3,-1 11,12 -9,-1l-2 1z"/>
    <ellipse class="fil6" cx="7349" cy="12552" rx="347" ry="334"/>
    <ellipse class="fil6" cx="8225" cy="12552" rx="347" ry="334"/>
    <path class="fil4" d="M8164 12629c19,9 41,11 54,-6 15,-18 52,11 92,11 17,0 18,27 5,50 -24,41 -30,24 -34,65 -2,26 -3,56 -4,65l-111 -3 1 -46c-4,-22 -2,-50 -19,-74 -63,-91 -60,-153 7,-239 38,-49 -21,-103 -7,-121 6,-8 69,-15 108,0 32,12 29,55 40,88 26,80 74,59 55,167 -9,48 -86,16 -94,8 -52,-50 -46,10 -66,9 -31,-1 -51,-17 -63,-37 1,3 1,5 2,7 6,18 -15,32 32,55l2 1z"/>
    <ellipse class="fil6" cx="9015" cy="12552" rx="347" ry="334"/>
    <path class="fil4" d="M8999 12621c3,-7 -50,-170 35,-190 56,-13 118,-38 152,33 7,15 59,20 67,85 6,53 -5,94 -46,115 -13,7 -8,19 -29,35 -15,12 -46,1 -56,-32 -12,-42 -68,-69 -91,-29 -5,8 -30,21 -35,-17l3 -1 0 1z"/>
    <ellipse class="fil6" cx="9891" cy="12552" rx="347" ry="334"/>
    <ellipse class="fil4" cx="7497" cy="12544" rx="120" ry="89"/>
    <path class="fil4" d="M7167 12436c125,0 115,71 190,63 38,-4 75,-34 118,-52 49,-20 103,-25 140,31 4,6 7,12 9,19 4,10 7,20 6,31 -4,107 -170,122 -188,48 -11,13 30,56 -51,72 -37,7 -22,78 -39,111 -6,12 -14,17 -24,9 -36,-27 2,-105 -55,-118 -85,-20 -47,-96 -57,-82 -35,51 -154,23 -159,-42 -3,-43 38,-90 110,-90z"/>
    <ellipse class="fil4" cx="7163" cy="12529" rx="104" ry="90"/>
    <path class="fil4" d="M9022 12619c-3,-7 50,-169 -35,-188 -56,-13 -118,-38 -152,33 -7,15 -59,20 -67,84 -6,53 5,93 47,114 13,7 8,19 29,35 15,12 46,1 56,-32 12,-41 68,-69 91,-29 5,8 30,20 35,-17l-3 -1 -1 1z"/>
    <rect class="fil4" x="8988" y="12634" width="43.76" height="153.1"/>
    <rect class="fil4" transform="matrix(0.000139997 -0.183585 0.100493 3.73892E-005 8942 12654.8)" width="229" height="1323"/>
    <ellipse class="fil3 str1" cx="7500" cy="12603" rx="65" ry="51"/>
    <ellipse class="fil4 str2" cx="7530" cy="12591" rx="47" ry="37"/>
    <path class="fil7" d="M9990 12479c-19,2 -36,7 -50,17 -23,15 -40,41 -42,84 -3,64 8,92 27,102 18,9 43,2 66,-9 65,-32 51,-32 51,-104 0,-74 19,-98 -50,-90l-2 0zm85 132c8,-7 15,-14 22,-20 36,-34 59,-62 47,-82 -9,-15 -38,-23 -62,-26 -46,-7 -38,157 -6,129l-1 -1z"/>
    <path class="fil7" d="M9784 12479c19,2 36,7 50,17 23,15 40,41 42,84 3,64 -8,92 -27,102 -18,9 -43,2 -66,-9 -65,-32 -51,-32 -51,-104 0,-74 -19,-98 50,-90l2 0zm-85 132c-8,-7 -15,-14 -22,-20 -36,-34 -59,-62 -47,-82 9,-15 38,-23 62,-26 46,-7 38,157 6,129l1 -1z"/>
    <rect class="fil7" x="9860" y="12433" width="46.98" height="187.33"/>
    <path class="fil1" d="M8487 5065l-1543 124 -74 86 -140 363c3,148 -8,494 19,638 100,526 624,875 1172,779 507,-89 855,-528 825,-1011l9 -471 -156 -240 -111 -269 -1 1z"/>
    <path class="fil2" d="M7742 4664c285,0 543,111 729,291 187,180 302,428 302,701 0,274 -115,522 -302,701 -187,180 -444,291 -729,291 -285,0 -543,-111 -729,-291 -187,-180 -302,-428 -302,-701 0,-274 115,-522 302,-701 187,-180 444,-291 729,-291zm695 323c-178,-171 -424,-277 -695,-277 -272,0 -517,106 -695,277 -178,171 -288,408 -288,669 0,261 110,498 288,669 178,171 424,277 695,277 272,0 517,-106 695,-277 178,-171 288,-408 288,-669 0,-261 -110,-498 -288,-669z"/>
    <ellipse class="fil3" cx="7742" cy="5570" rx="1007" ry="969"/>
    <path class="fil1" d="M11029 5065l-1543 124 -74 86 -140 363c3,148 -8,494 19,638 100,526 624,875 1172,779 507,-89 855,-528 825,-1011l9 -471 -156 -240 -111 -269 -1 1z"/>
    <path class="fil1" d="M13317 5065l-1543 124 -74 86 -140 363c3,148 -8,494 19,638 100,526 624,875 1172,779 507,-89 855,-528 825,-1011l9 -471 -156 -240 -111 -269 -1 1z"/>
    <path class="fil1" d="M15875 5065l-1543 124 -74 86 -140 363c3,148 -8,494 19,638 100,526 624,875 1172,779 507,-89 855,-528 825,-1011l9 -471 -156 -240 -111 -269 -1 1z"/>
    <path class="fil2" d="M10284 4664c285,0 543,111 729,291 187,180 302,428 302,701 0,274 -115,522 -302,701 -187,180 -444,291 -729,291 -285,0 -543,-111 -729,-291 -187,-180 -302,-428 -302,-701 0,-274 115,-522 302,-701 187,-180 444,-291 729,-291zm695 323c-178,-171 -424,-277 -695,-277 -272,0 -517,106 -695,277 -178,171 -288,408 -288,669 0,261 110,498 288,669 178,171 424,277 695,277 272,0 517,-106 695,-277 178,-171 288,-408 288,-669 0,-261 -110,-498 -288,-669z"/>
    <ellipse class="fil3" cx="10284" cy="5570" rx="1007" ry="969"/>
    <path class="fil2" d="M12571 4664c285,0 543,111 729,291 187,180 302,428 302,701 0,274 -115,522 -302,701 -187,180 -444,291 -729,291 -285,0 -543,-111 -729,-291 -187,-180 -302,-428 -302,-701 0,-274 115,-522 302,-701 187,-180 444,-291 729,-291zm695 323c-178,-171 -424,-277 -695,-277 -272,0 -517,106 -695,277 -178,171 -288,408 -288,669 0,261 110,498 288,669 178,171 424,277 695,277 272,0 517,-106 695,-277 178,-171 288,-408 288,-669 0,-261 -110,-498 -288,-669z"/>
    <ellipse class="fil3" cx="12571" cy="5570" rx="1007" ry="969"/>
    <path class="fil2" d="M15113 4664c285,0 543,111 729,291 187,180 302,428 302,701 0,274 -115,522 -302,701 -187,180 -444,291 -729,291 -285,0 -543,-111 -729,-291 -187,-180 -302,-428 -302,-701 0,-274 115,-522 302,-701 187,-180 444,-291 729,-291zm695 323c-178,-171 -424,-277 -695,-277 -272,0 -517,106 -695,277 -178,171 -288,408 -288,669 0,261 110,498 288,669 178,171 424,277 695,277 272,0 517,-106 695,-277 178,-171 288,-408 288,-669 0,-261 -110,-498 -288,-669z"/>
    <ellipse class="fil3" cx="15113" cy="5570" rx="1007" ry="969"/>
    <path class="fil1" d="M8487 8048l-1543 124 -74 86 -140 363c3,148 -8,494 19,638 100,526 624,875 1172,779 507,-89 855,-528 825,-1011l9 -471 -156 -240 -111 -269 -1 1z"/>
    <path class="fil2" d="M7742 7647c285,0 543,111 729,291 187,180 302,428 302,701 0,274 -115,522 -302,701 -187,180 -444,291 -729,291 -285,0 -543,-111 -729,-291 -187,-180 -302,-428 -302,-701 0,-274 115,-522 302,-701 187,-180 444,-291 729,-291zm695 323c-178,-171 -424,-277 -695,-277 -272,0 -517,106 -695,277 -178,171 -288,408 -288,669 0,261 110,498 288,669 178,171 424,277 695,277 272,0 517,-106 695,-277 178,-171 288,-408 288,-669 0,-261 -110,-498 -288,-669z"/>
    <ellipse class="fil3" cx="7742" cy="8553" rx="1007" ry="969"/>
    <path class="fil1" d="M11029 8048l-1543 124 -74 86 -140 363c3,148 -8,494 19,638 100,526 624,875 1172,779 507,-89 855,-528 825,-1011l9 -471 -156 -240 -111 -269 -1 1z"/>
    <path class="fil1" d="M13317 8048l-1543 124 -74 86 -140 363c3,148 -8,494 19,638 100,526 624,875 1172,779 507,-89 855,-528 825,-1011l9 -471 -156 -240 -111 -269 -1 1z"/>
    <path class="fil1" d="M15875 8048l-1543 124 -74 86 -140 363c3,148 -8,494 19,638 100,526 624,875 1172,779 507,-89 855,-528 825,-1011l9 -471 -156 -240 -111 -269 -1 1z"/>
    <path class="fil2" d="M10284 7647c285,0 543,111 729,291 187,180 302,428 302,701 0,274 -115,522 -302,701 -187,180 -444,291 -729,291 -285,0 -543,-111 -729,-291 -187,-180 -302,-428 -302,-701 0,-274 115,-522 302,-701 187,-180 444,-291 729,-291zm695 323c-178,-171 -424,-277 -695,-277 -272,0 -517,106 -695,277 -178,171 -288,408 -288,669 0,261 110,498 288,669 178,171 424,277 695,277 272,0 517,-106 695,-277 178,-171 288,-408 288,-669 0,-261 -110,-498 -288,-669z"/>
    <ellipse class="fil3" cx="10284" cy="8553" rx="1007" ry="969"/>
    <path class="fil2" d="M12571 7647c285,0 543,111 729,291 187,180 302,428 302,701 0,274 -115,522 -302,701 -187,180 -444,291 -729,291 -285,0 -543,-111 -729,-291 -187,-180 -302,-428 -302,-701 0,-274 115,-522 302,-701 187,-180 444,-291 729,-291zm695 323c-178,-171 -424,-277 -695,-277 -272,0 -517,106 -695,277 -178,171 -288,408 -288,669 0,261 110,498 288,669 178,171 424,277 695,277 272,0 517,-106 695,-277 178,-171 288,-408 288,-669 0,-261 -110,-498 -288,-669z"/>
    <ellipse class="fil3" cx="12571" cy="8553" rx="1007" ry="969"/>
    <path class="fil2" d="M15113 7647c285,0 543,111 729,291 187,180 302,428 302,701 0,274 -115,522 -302,701 -187,180 -444,291 -729,291 -285,0 -543,-111 -729,-291 -187,-180 -302,-428 -302,-701 0,-274 115,-522 302,-701 187,-180 444,-291 729,-291zm695 323c-178,-171 -424,-277 -695,-277 -272,0 -517,106 -695,277 -178,171 -288,408 -288,669 0,261 110,498 288,669 178,171 424,277 695,277 272,0 517,-106 695,-277 178,-171 288,-408 288,-669 0,-261 -110,-498 -288,-669z"/>
    <ellipse class="fil3" cx="15113" cy="8553" rx="1007" ry="969"/>
    <path class="fil4" d="M10147 6101c-73,-10 -137,-228 -193,-416 -30,-99 -57,-190 -83,-239 -20,-38 -30,-92 -25,-143 6,-50 27,-96 71,-117 204,-94 163,204 459,5 77,-52 194,-86 266,-40 36,23 79,79 82,149 12,260 -83,326 -148,438 -35,60 -67,129 -81,240 -8,65 -52,109 -95,116 -39,6 -77,-19 -85,-86 -9,-67 -87,-191 -78,5 2,55 -44,93 -90,87l0 1z"/>
    <path class="fil4" d="M11904 5614c106,136 231,223 366,269 33,12 133,25 167,32 -128,-84 -183,-181 -192,-307 -11,-157 133,-285 297,-285 164,0 297,128 297,285 0,99 -47,248 -133,308 133,-27 303,-87 428,-154 117,-63 254,-106 108,-231 -180,-154 -675,-345 -983,-202 -64,30 -414,207 -354,284l-1 1z"/>
    <ellipse class="fil4 str0" cx="12546" cy="5587" rx="212" ry="204"/>
    <path class="fil4" d="M15108 4938c-264,-33 -463,252 -231,521 83,97 -145,435 15,583 91,85 406,112 390,78 -6,-12 -83,-22 -143,-33 -162,-30 -5,-85 86,-82 201,7 355,119 347,-155 -8,-263 -502,-365 -451,-874l-13 -38z"/>
    <path class="fil4" d="M10122 8705c56,27 118,33 157,-16 43,-53 150,33 267,33 51,0 52,79 14,146 -68,120 -88,70 -98,188 -6,74 -10,163 -11,190l-322 -9 4 -133c-11,-64 -7,-145 -55,-214 -184,-263 -174,-445 20,-692 111,-141 -62,-298 -19,-351 19,-23 201,-44 314,-1 94,36 84,159 116,255 76,231 215,170 159,483 -25,139 -248,46 -272,23 -151,-144 -133,29 -192,28 -90,-3 -148,-49 -181,-108 2,8 4,15 6,20 19,52 -43,94 94,159l-1 -1z"/>
    <path class="fil4" d="M12543 8651c8,-20 -145,-494 102,-551 163,-38 342,-111 442,96 21,44 172,59 194,247 18,154 -15,272 -135,334 -39,20 -25,54 -83,102 -44,35 -134,2 -162,-93 -35,-120 -197,-201 -264,-84 -14,24 -86,60 -103,-49l9 -2z"/>
    <ellipse class="fil4" cx="8189" cy="8508" rx="348" ry="258"/>
    <path class="fil4" d="M7233 8195c361,0 334,205 551,184 111,-11 217,-98 341,-150 141,-58 298,-72 406,91 12,18 20,36 26,54 12,28 19,58 18,90 -11,312 -494,355 -544,139 -32,37 87,164 -147,209 -107,21 -65,225 -114,322 -18,35 -40,50 -71,26 -103,-78 5,-304 -158,-343 -246,-59 -136,-279 -164,-237 -100,148 -446,68 -461,-122 -10,-124 109,-262 318,-262l-1 -1z"/>
    <ellipse class="fil4" cx="7221" cy="8464" rx="302" ry="262"/>
    <path class="fil4" d="M7438 5625c18,32 29,80 42,136 19,84 -50,516 274,464 100,-16 190,-151 221,-218 49,-104 294,-326 95,-430 -14,-7 -19,-15 -2,-71 273,-905 -1057,-627 -630,118l0 1zm532 -86c-60,-39 -158,4 -169,90 -13,101 69,193 111,207 107,37 30,111 -50,111 -117,0 -212,-118 -212,-264 0,-146 95,-264 212,-264 69,0 105,36 129,102 2,7 5,14 7,22 -9,-2 32,36 -28,-3l0 -1z"/>
    <path class="fil4" d="M12610 8645c-8,-20 145,-489 -102,-546 -163,-38 -342,-110 -442,95 -21,44 -172,59 -194,244 -18,153 15,270 135,331 39,20 25,54 83,101 44,35 134,2 162,-93 35,-119 197,-199 264,-83 14,24 86,59 103,-48l-9 -1z"/>
    <rect class="fil4" x="12511" y="8686" width="127" height="444"/>
    <rect class="fil4" transform="matrix(0.00040584 -0.532197 0.291319 0.000108388 12378.3 8747.12)" width="229" height="1323"/>
    <ellipse class="fil3 str1" cx="8199" cy="8679" rx="189" ry="149"/>
    <ellipse class="fil4 str2" cx="8284" cy="8644" rx="138" ry="109"/>
    <path class="fil4" d="M15415 8345c-56,6 -105,21 -146,49 -65,44 -116,119 -123,244 -10,185 22,267 77,295 53,26 126,6 190,-26 189,-92 148,-93 148,-301 0,-215 56,-284 -146,-261zm247 384c22,-20 44,-39 64,-58 105,-99 170,-181 136,-239 -27,-45 -111,-66 -181,-77 -134,-20 -109,455 -18,373l-1 1z"/>
    <path class="fil4" d="M14818 8345c56,6 105,21 146,49 65,44 116,119 123,244 10,185 -22,267 -77,295 -53,26 -126,6 -190,-26 -189,-92 -148,-93 -148,-301 0,-215 -56,-284 146,-261zm-247 384c-22,-20 -44,-39 -64,-58 -105,-99 -170,-181 -136,-239 27,-45 111,-66 181,-77 134,-20 109,455 18,373l1 1z"/>
    <rect class="fil4" x="15038" y="8209" width="136" height="543"/>
    <ellipse class="fil6" cx="10807" cy="12561" rx="347" ry="334"/>
    <path class="fil4" d="M10633 12461c-41,37 -73,74 -80,112 -6,31 1,66 36,100 51,50 84,61 108,51 46,-19 64,-108 68,-187 0,-8 1,-15 1,-22 2,-43 64,-33 65,-1 0,8 1,15 1,23 4,79 22,168 68,187 24,10 57,-1 108,-51 35,-34 42,-69 36,-100 -8,-38 -39,-74 -80,-112 -95,-87 -125,-72 -132,-11l-67 0c-7,-61 -37,-76 -132,11z"/>
    <rect class="fil4" x="10775" y="12381" width="43.76" height="92.86"/>
    <ellipse class="fil6" cx="11684" cy="12561" rx="347" ry="334"/>
    <path class="fil4" d="M11642 12436c-29,3 -55,10 -77,22 -34,20 -61,55 -64,112 -5,85 11,123 41,136 28,12 66,3 100,-12 99,-42 78,-43 78,-139 0,-99 30,-131 -77,-120l-1 1zm129 177c12,-9 23,-18 33,-27 55,-46 89,-83 71,-110 -14,-21 -58,-30 -95,-35 -70,-9 -57,209 -10,172l1 0z"/>
    <ellipse class="fil6" cx="12473" cy="12561" rx="347" ry="334"/>
    <ellipse class="fil6" cx="13350" cy="12561" rx="347" ry="334"/>
    <path class="fil4" d="M12649 12524c-24,-56 -60,-86 -96,-95 -39,-11 -64,21 -69,59 -4,29 6,56 26,75 43,43 169,29 140,-39l-1 0z"/>
    <path class="fil4" d="M13322 12559c-5,9 -14,18 -28,23 -28,11 -79,32 -109,35 -46,6 -40,59 -19,91 72,114 310,74 365,-66 26,-67 19,-136 -3,-183 -28,-60 -82,-85 -132,-28 -29,34 -42,50 -72,19l-35 -36c-1,-2 -3,-4 -4,-4l-8 -8c-12,11 -24,22 -36,33 28,29 101,86 81,124z"/>
    <path class="fil4" d="M12589 12446c0,0 -1,-1 -1,-1 0,0 1,1 1,1zm-177 -63l46 2 -2 31c13,-4 26,-5 37,-5 20,0 18,1 2,21 -8,10 -14,21 -18,34 -18,56 15,115 73,132 14,4 28,5 42,4 51,-5 60,-44 60,8 0,62 -29,105 -56,118 -82,39 -193,-12 -237,-70 -28,-36 -44,-91 -38,-122 6,-35 -14,-69 -26,-105l44 -14 8 21 6 -3 -4 -40 46 -4 4 37c2,0 13,-3 12,-3l2 -42 -1 0zm155 46c-1,0 -1,-1 -2,-1 1,0 1,1 2,1zm-8 -4c-1,0 -1,-1 -2,-1 1,0 1,1 2,1zm-8 -4c-1,0 -1,-1 -2,-1 1,0 1,1 2,1zm-8 -3c-1,0 -2,-1 -2,-1 1,0 2,1 2,1zm-8 -3c-1,0 -2,0 -3,-1 1,0 2,0 3,1zm-11 -2c2,0 4,1 0,0z"/>
    <ellipse class="fil6" cx="14209" cy="12617" rx="347" ry="334"/>
    <ellipse class="fil6" cx="15086" cy="12617" rx="347" ry="334"/>
    <ellipse class="fil6" cx="15875" cy="12617" rx="347" ry="334"/>
    <ellipse class="fil6" cx="16752" cy="12617" rx="347" ry="334"/>
    <path class="fil4" d="M15033 12808c-25,-4 -47,-78 -67,-143 -10,-34 -20,-66 -29,-82 -7,-13 -10,-32 -8,-49 2,-17 9,-33 24,-40 70,-33 56,71 158,2 27,-18 67,-30 92,-14 12,8 27,27 28,51 4,90 -29,113 -51,151 -12,21 -23,45 -28,83 -3,22 -18,38 -33,40 -13,2 -26,-6 -29,-30 -3,-23 -30,-66 -27,2 1,19 -15,32 -31,30l1 -1z"/>
    <path class="fil4" d="M15639 12611c36,47 80,77 126,93 11,4 46,9 58,11 -44,-29 -63,-62 -66,-106 -4,-54 46,-98 102,-98 56,0 102,44 102,98 0,34 -16,86 -46,106 46,-9 105,-30 147,-53 40,-22 88,-36 37,-80 -62,-53 -233,-119 -339,-70 -22,10 -143,71 -122,98l1 1z"/>
    <ellipse class="fil4 str0" cx="15860" cy="12614" rx="73" ry="70"/>
    <path class="fil4" d="M16770 12396c-91,-11 -160,87 -80,180 29,33 -50,150 5,201 32,29 140,39 135,27 -2,-4 -29,-8 -49,-11 -56,-11 -2,-29 30,-28 69,2 122,41 120,-54 -3,-91 -173,-126 -156,-301l-4 -13 -1 -1z"/>
    <path class="fil4" d="M14098 12641c6,11 10,28 15,47 7,29 -17,178 94,160 35,-6 66,-52 76,-75 17,-36 101,-112 33,-148 -5,-2 -6,-5 -1,-24 94,-312 -365,-216 -217,41l0 -1zm183 -30c-21,-13 -55,1 -58,31 -4,35 24,66 38,71 37,13 10,38 -17,38 -40,0 -73,-41 -73,-91 0,-50 33,-91 73,-91 24,0 36,12 45,35 1,2 2,5 3,7 -3,-1 11,12 -9,-1l-2 1z"/>
    <ellipse class="fil6" cx="17621" cy="12612" rx="347" ry="334"/>
    <ellipse class="fil6" cx="18498" cy="12612" rx="347" ry="334"/>
    <path class="fil4" d="M18436 12689c19,9 41,11 54,-6 15,-18 52,11 92,11 17,0 18,27 5,50 -24,41 -30,24 -34,65 -2,26 -3,56 -4,65l-111 -3 1 -46c-4,-22 -2,-50 -19,-74 -63,-91 -60,-153 7,-239 38,-49 -21,-103 -7,-121 6,-8 69,-15 108,0 32,12 29,55 40,88 26,80 74,59 55,167 -9,48 -86,16 -94,8 -52,-50 -46,10 -66,9 -31,-1 -51,-17 -63,-37 1,3 1,5 2,7 6,18 -15,32 32,55l2 1z"/>
    <ellipse class="fil6" cx="19287" cy="12612" rx="347" ry="334"/>
    <path class="fil4" d="M19271 12681c3,-7 -50,-170 35,-190 56,-13 118,-38 152,33 7,15 59,20 67,85 6,53 -5,94 -46,115 -13,7 -8,19 -29,35 -15,12 -46,1 -56,-32 -12,-42 -68,-69 -91,-29 -5,8 -30,21 -35,-17l3 -1 0 1z"/>
    <ellipse class="fil6" cx="20164" cy="12612" rx="347" ry="334"/>
    <ellipse class="fil4" cx="17769" cy="12604" rx="120" ry="89"/>
    <path class="fil4" d="M17439 12496c125,0 115,71 190,63 38,-4 75,-34 118,-52 49,-20 103,-25 140,31 4,6 7,12 9,19 4,10 7,20 6,31 -4,107 -170,122 -188,48 -11,13 30,56 -51,72 -37,7 -22,78 -39,111 -6,12 -14,17 -24,9 -36,-27 2,-105 -55,-118 -85,-20 -47,-96 -57,-82 -35,51 -154,23 -159,-42 -3,-43 38,-90 110,-90z"/>
    <ellipse class="fil4" cx="17435" cy="12589" rx="104" ry="90"/>
    <path class="fil4" d="M19294 12679c-3,-7 50,-169 -35,-188 -56,-13 -118,-38 -152,33 -7,15 -59,20 -67,84 -6,53 5,93 47,114 13,7 8,19 29,35 15,12 46,1 56,-32 12,-41 68,-69 91,-29 5,8 30,20 35,-17l-3 -1 -1 1z"/>
    <rect class="fil4" x="19260" y="12694" width="43.76" height="153.1"/>
    <rect class="fil4" transform="matrix(0.000139997 -0.183585 0.100493 3.73892E-005 19214.3 12714.8)" width="229" height="1323"/>
    <ellipse class="fil3 str1" cx="17773" cy="12663" rx="65" ry="51"/>
    <ellipse class="fil4 str2" cx="17802" cy="12651" rx="47" ry="37"/>
    <path class="fil7" d="M20262 12539c-19,2 -36,7 -50,17 -23,15 -40,41 -42,84 -3,64 8,92 27,102 18,9 43,2 66,-9 65,-32 51,-32 51,-104 0,-74 19,-98 -50,-90l-2 0zm85 132c8,-7 15,-14 22,-20 36,-34 59,-62 47,-82 -9,-15 -38,-23 -62,-26 -46,-7 -38,157 -6,129l-1 -1z"/>
    <path class="fil7" d="M20056 12539c19,2 36,7 50,17 23,15 40,41 42,84 3,64 -8,92 -27,102 -18,9 -43,2 -66,-9 -65,-32 -51,-32 -51,-104 0,-74 -19,-98 50,-90l2 0zm-85 132c-8,-7 -15,-14 -22,-20 -36,-34 -59,-62 -47,-82 9,-15 38,-23 62,-26 46,-7 38,157 6,129l1 -1z"/>
    <rect class="fil7" x="20132" y="12493" width="46.98" height="187.33"/>
    <ellipse class="fil6" cx="21065" cy="12617" rx="347" ry="334"/>
    <ellipse class="fil6" cx="21854" cy="12617" rx="347" ry="334"/>
    <path class="fil4" d="M21012 12808c-25,-4 -47,-78 -67,-143 -10,-34 -20,-66 -29,-82 -7,-13 -10,-32 -8,-49 2,-17 9,-33 24,-40 70,-33 56,71 158,2 27,-18 67,-30 92,-14 12,8 27,27 28,51 4,90 -29,113 -51,151 -12,21 -23,45 -28,83 -3,22 -18,38 -33,40 -13,2 -26,-6 -29,-30 -3,-23 -30,-66 -27,2 1,19 -15,32 -31,30l1 -1z"/>
    <path class="fil4" d="M21618 12611c36,47 80,77 126,93 11,4 46,9 58,11 -44,-29 -63,-62 -66,-106 -4,-54 46,-98 102,-98 56,0 102,44 102,98 0,34 -16,86 -46,106 46,-9 105,-30 147,-53 40,-22 88,-36 37,-80 -62,-53 -233,-119 -339,-70 -22,10 -143,71 -122,98l1 1z"/>
    <ellipse class="fil4 str0" cx="21840" cy="12614" rx="73" ry="70"/>
   </g>
  </g>
 </g>
</svg>
