<?xml version="1.0" encoding="UTF-8"?>
<!DOCTYPE svg PUBLIC "-//W3C//DTD SVG 1.1//EN" "http://www.w3.org/Graphics/SVG/1.1/DTD/svg11.dtd">
<!-- Creator: CorelDRAW X6 -->
<svg xmlns="http://www.w3.org/2000/svg" xml:space="preserve" width="225.213mm" height="134.959mm" version="1.1" style="shape-rendering:geometricPrecision; text-rendering:geometricPrecision; image-rendering:optimizeQuality; fill-rule:evenodd; clip-rule:evenodd"
viewBox="0 0 22521 13496"
 xmlns:xlink="http://www.w3.org/1999/xlink">
 <defs>
  <style type="text/css">
   <![CDATA[
    .str1 {stroke:#E1C36B;stroke-width:7.62}
    .str0 {stroke:#CFCEC9;stroke-width:20}
    .fil1 {fill:none}
    .fil16 {fill:none;fill-rule:nonzero}
    .fil0 {fill:#1E1521}
    .fil9 {fill:#203842}
    .fil17 {fill:#3D3B3D}
    .fil5 {fill:#8A6926}
    .fil13 {fill:#B13119}
    .fil6 {fill:#C7A649}
    .fil11 {fill:#C7BCBC}
    .fil2 {fill:#CFCEC9}
    .fil12 {fill:#EBECD8}
    .fil8 {fill:#ECB963}
    .fil7 {fill:white}
    .fil3 {fill:#203842;fill-rule:nonzero}
    .fil10 {fill:#8A6926;fill-rule:nonzero}
    .fil14 {fill:#C29435;fill-rule:nonzero}
    .fil15 {fill:#C7A649;fill-rule:nonzero}
    .fil4 {fill:#CFCEC9;fill-rule:nonzero}
   ]]>
  </style>
 </defs>
 <g id="Слой_x0020_1">
  <metadata id="CorelCorpID_0Corel-Layer"/>
  <rect class="fil0" x="-26" y="11" width="22500" height="13500"/>
  <circle class="fil1 str0" cx="5900" cy="6663" r="1725"/>
  <path class="fil2" d="M6942 8055c-290,215 -649,343 -1037,343 -298,0 -578,-75 -823,-207 8,-16 20,-34 36,-55 52,-69 191,-141 160,-190 -49,-75 72,-115 42,-185 -27,-64 -92,-61 -171,-215 -154,-299 15,-302 -105,-486 -74,-114 -3,-215 -36,-348l34 -32c241,-179 540,-285 862,-287 330,2 636,113 880,300l15 19c39,24 61,105 73,189 60,451 -173,483 -173,858 0,138 170,288 243,295l1 0z"/>
  <path class="fil3" d="M6969 8094c-152,112 -320,201 -503,262 -177,58 -365,90 -561,90 -150,0 -296,-19 -436,-54 -144,-36 -282,-90 -409,-159 -23,-12 -31,-40 -19,-63 0,-1 1,-2 1,-2 4,-9 10,-18 16,-27 7,-10 15,-22 23,-32 23,-30 57,-58 89,-85 35,-29 73,-48 70,-52 -44,-66 -11,-110 19,-153 11,-16 23,-31 19,-39 -7,-17 -21,-28 -38,-44 -35,-31 -80,-70 -132,-169 -90,-173 -78,-256 -69,-327 6,-45 11,-84 -35,-154 -52,-79 -45,-149 -38,-224 4,-44 9,-90 -3,-138 -4,-17 2,-33 13,-44l0 0 34 -32c2,-2 3,-3 6,-5 126,-93 268,-167 419,-218 147,-49 305,-76 469,-78l0 0 0 0c168,2 329,30 479,81 156,53 300,132 428,228 3,3 6,6 9,9l10 12c24,18 42,46 56,81 15,39 25,87 31,136 36,263 -24,391 -85,520 -44,94 -88,187 -88,344 0,48 28,101 65,146 48,58 106,100 137,103 25,3 44,25 41,51 -2,14 -9,26 -19,33l1 2 2 2zm-532 173c148,-49 286,-118 413,-202 -37,-24 -78,-59 -111,-99 -49,-59 -86,-132 -86,-204 0,-177 49,-281 98,-384 55,-116 109,-232 78,-468 -6,-43 -15,-84 -26,-115 -8,-20 -17,-36 -25,-41l0 0c-4,-3 -8,-6 -11,-10l-11 -15c-119,-90 -253,-162 -398,-211 -141,-48 -293,-75 -449,-76 -153,1 -302,27 -440,72 -142,48 -274,117 -393,203l-14 13c9,52 4,98 0,142 -6,58 -10,112 24,165 65,99 58,153 49,218 -8,57 -17,124 59,272 43,83 81,116 110,141 27,23 48,41 63,77 24,57 -3,93 -30,130 -12,17 -25,35 -17,48 42,65 -21,117 -89,173 -28,23 -57,48 -73,70 -2,3 -5,6 -7,10 108,54 223,98 344,127 132,33 271,51 414,51 186,0 365,-31 532,-85l-1 -2 -1 0z"/>
  <path class="fil4 str1" d="M5902 4873c492,0 937,199 1258,521 323,323 521,767 521,1258 0,492 -199,937 -521,1258 -323,323 -767,521 -1258,521 -492,0 -937,-199 -1258,-521 -323,-323 -521,-767 -521,-1258 0,-492 199,-937 521,-1258 323,-323 767,-521 1258,-521zm1200 580c-307,-307 -732,-498 -1200,-498 -469,0 -894,190 -1200,498 -307,307 -498,732 -498,1200 0,469 190,894 498,1200 307,307 732,498 1200,498 469,0 894,-190 1200,-498 307,-307 498,-732 498,-1200 0,-469 -190,-894 -498,-1200z"/>
  <path class="fil5" d="M5907 5443c480,3 906,236 1171,595 -144,194 -240,424 -275,674 -248,-194 -558,-311 -897,-313 -338,2 -649,119 -897,313 -34,-250 -132,-480 -275,-674 266,-359 691,-592 1171,-595l2 0z"/>
  <path class="fil6" d="M5909 5448c183,2 357,36 520,99l-24 391 -33 545c-145,-49 -300,-77 -461,-78 -150,1 -295,24 -432,67l-32 -502 -28 -434c153,-56 319,-86 491,-88l-1 1z"/>
  <path class="fil7" d="M6943 8060c-125,388 -250,776 -375,1164 -357,-241 -209,-766 -148,-1151 35,-220 71,-461 97,-683 16,-138 60,-280 58,-391 -3,-140 -24,-253 -73,-315 -157,-204 -366,-244 -376,-262l202 44c167,51 322,132 457,235l15 19c40,24 61,105 73,189 60,451 -173,483 -173,858 0,138 170,288 243,295l0 -2z"/>
  <path class="fil3" d="M6987 8076l-374 1162c-8,24 -34,37 -58,30 -4,-2 -8,-3 -11,-6l0 0c-339,-229 -260,-677 -194,-1054 10,-53 19,-105 24,-143 17,-106 34,-220 51,-340 17,-115 31,-230 44,-342 6,-58 18,-115 29,-171 16,-78 31,-153 29,-214 -2,-67 -7,-127 -19,-178 -10,-47 -25,-85 -44,-111 -112,-146 -254,-202 -319,-229 -31,-12 -51,-20 -60,-39 -12,-23 -3,-51 19,-63 10,-6 23,-7 33,-4l202 44c2,0 2,1 3,1l0 0c85,27 168,60 247,100 79,41 155,89 226,142 3,3 6,6 9,9l10 12c24,18 42,46 56,81 15,39 25,87 31,136 36,263 -24,391 -85,520 -44,94 -88,187 -88,344 0,48 28,101 65,146 48,58 106,100 137,103 25,3 44,25 41,51 -1,3 -2,7 -2,10l-2 2 -1 2zm-442 1071l341 -1057c-47,-23 -102,-66 -146,-119 -49,-59 -86,-132 -86,-204 0,-177 49,-281 98,-384 55,-116 109,-232 78,-468 -6,-43 -15,-84 -26,-115 -8,-20 -17,-36 -25,-41l0 0c-4,-3 -8,-6 -11,-10l-11 -15c-65,-49 -134,-93 -207,-131 -31,-16 -64,-31 -97,-45 31,27 60,59 89,97 29,37 49,87 62,147 12,57 19,122 20,195 2,71 -15,151 -31,234 -10,54 -22,111 -28,164 -13,111 -28,228 -44,344 -16,111 -34,228 -52,341 -9,54 -17,99 -24,145 -58,328 -127,714 104,922l-1 1 -1 0z"/>
  <path class="fil3" d="M5907 5402c242,2 471,60 674,163 210,106 391,261 531,449 10,15 10,36 -1,50 -70,95 -129,199 -174,311 -44,109 -76,224 -92,344 -3,23 -24,38 -46,36 -7,-1 -15,-4 -20,-9l0 0c-123,-96 -261,-173 -411,-225 -145,-51 -300,-78 -461,-79 -161,1 -316,29 -461,79 -149,52 -288,129 -411,225 -18,14 -44,10 -58,-7 -5,-6 -8,-15 -9,-23 -17,-119 -48,-234 -92,-342 -45,-112 -105,-215 -174,-311 -11,-15 -10,-36 1,-50 139,-187 321,-342 530,-449 202,-103 432,-161 674,-163l0 0 0 0 -1 0zm636 236c-191,-98 -407,-153 -636,-154 -228,2 -445,57 -636,154 -190,97 -355,234 -484,401 67,94 123,196 167,304 38,94 67,194 86,296 115,-82 242,-148 379,-196 153,-53 317,-83 488,-84l0 0 0 0c171,2 336,31 488,84 136,48 264,114 379,196 19,-103 48,-202 86,-296 44,-108 100,-210 167,-304 -129,-167 -294,-304 -484,-401l-2 0zm568 425c-2,3 -5,6 -8,8m8 -8l0 0 0 0z"/>
  <path class="fil8" d="M5954 6517c461,0 684,111 595,603 -53,298 -227,608 -565,626 -336,19 -529,-315 -595,-624 -104,-484 96,-605 565,-605z"/>
  <path class="fil3" d="M5954 6470c241,0 422,31 534,129 115,101 154,265 106,529 -31,171 -99,346 -214,473 -98,107 -228,181 -394,190 -166,10 -299,-59 -403,-168 -123,-129 -202,-315 -240,-493 -56,-260 -27,-424 81,-527 106,-100 282,-134 528,-134l1 1 0 1zm473 198c-92,-81 -254,-106 -473,-106 -223,0 -380,27 -466,108 -83,78 -102,216 -54,440 36,164 106,334 217,449 85,90 196,146 331,139 139,-8 248,-70 330,-160 102,-113 165,-272 192,-428 41,-228 12,-365 -78,-444l0 2z"/>
  <polygon class="fil9" points="6112,6446 6371,6481 6724,6662 6360,6552 6249,6520 6112,6520 "/>
  <path class="fil2" d="M6151 6313c0,111 -90,201 -201,201l0 0c-111,0 -201,-90 -201,-201l-23 -343 -33 -510c69,-10 139,-16 211,-17 102,1 201,11 296,31l-30 479 -22 358 1 1 0 1z"/>
  <path class="fil3" d="M6198 6313c0,68 -28,130 -73,174 -44,44 -106,73 -174,73 -68,0 -130,-28 -174,-73 -44,-44 -72,-106 -73,-174l-22 -340 -33 -510c-2,-24 16,-44 39,-48l0 0c36,-5 71,-10 108,-12 35,-3 71,-4 109,-4l0 0 0 0c52,0 104,3 154,9 52,6 102,14 153,24 23,5 38,27 36,49l-30 478 -22 357 0 0 2 -1 1 -1zm-138 109c28,-28 45,-66 45,-109l0 0c0,-1 0,-2 0,-3l22 -358 27 -439c-34,-6 -69,-11 -104,-15 -48,-5 -97,-8 -144,-9 -33,0 -67,2 -102,4 -20,2 -39,3 -60,6l31 467 22 340c0,2 1,3 1,6 0,43 17,81 45,109 28,28 66,45 109,45 43,0 81,-17 109,-45l1 1 -2 -1z"/>
  <path class="fil7" d="M6045 6217c0,52 -44,95 -95,95l0 0c-52,0 -95,-44 -95,-95l-10 -164 -16 -346c32,-5 66,-8 100,-8 48,0 96,6 141,15l-14 332 -10 171 -1 0z"/>
  <path class="fil10" d="M6091 6217c0,39 -16,74 -42,100 -26,26 -61,42 -100,42 -39,0 -74,-16 -100,-42 -26,-26 -42,-61 -42,-100l-10 -160c0,-1 0,-2 0,-3l-16 -344c-1,-24 16,-44 39,-48l0 0c17,-3 36,-4 53,-6 17,-2 35,-2 53,-2l0 0 0 0c26,0 51,2 76,4 25,3 51,6 75,12 23,5 39,27 36,50l-14 329 0 1 0 0 -10 168 0 0 2 0 1 -1zm-106 35c9,-9 15,-21 15,-35l0 0c0,-1 0,-2 0,-3l10 -171 0 0 12 -290c-10,-2 -18,-3 -27,-3 -23,-2 -44,-3 -66,-3 -15,0 -31,1 -47,2l-6 1 14 302 0 2 10 160c0,2 1,3 1,6 0,14 6,26 15,35 9,9 21,15 35,15 14,0 26,-6 35,-15l1 0 -2 -2z"/>
  <path class="fil3" d="M5693 6657c65,0 85,37 99,61 3,4 3,8 4,8 6,4 15,15 19,24 2,6 3,12 3,18 0,9 -3,16 -10,22 -5,4 -11,7 -21,8 -3,0 -7,2 -12,6 -8,5 -19,12 -41,20 -27,10 -56,8 -84,0 -27,-7 -52,-20 -77,-33 -6,-3 -12,-6 -17,-10 -19,-10 -37,-19 -50,-24 -10,-3 -15,-14 -11,-24 2,-6 8,-11 15,-12l72 -13c12,-6 25,-14 38,-23 24,-16 48,-31 72,-31l-1 2 1 1zm66 79c-10,-17 -24,-43 -66,-43 -13,0 -32,12 -52,25 -15,10 -29,19 -44,25 -2,1 -3,2 -5,2l-19 3 2 2c6,3 11,6 17,10 23,11 46,24 69,31 22,6 43,8 60,1 18,-6 27,-13 35,-17 9,-5 15,-9 24,-10 -2,-3 -3,-4 -3,-5 -7,-4 -11,-12 -17,-22l1 0 0 -1z"/>
  <path class="fil11" d="M5693 6674c3,0 6,0 8,1 19,10 32,31 32,56 0,36 -29,64 -64,64 -36,0 -64,-29 -64,-64 0,-5 1,-10 2,-14 31,-17 60,-42 85,-42l0 -1z"/>
  <path class="fil3" d="M5693 6646c1,0 3,0 6,0 2,0 3,0 6,1 5,1 10,2 14,5 14,8 24,19 32,32 8,14 13,30 13,47 0,26 -10,49 -27,65l0 0 0 0 0 0c-17,17 -40,27 -65,27 -26,0 -49,-10 -65,-27l0 0c-17,-17 -27,-40 -27,-65 0,-3 0,-6 1,-10 1,-3 1,-6 2,-10 2,-9 8,-16 15,-19 5,-3 13,-8 21,-13 1,0 2,-1 2,-1 26,-17 51,-31 77,-31l-1 0 -3 0zm6 69c-2,-3 -4,-6 -8,-10 -10,1 -27,11 -44,23 -1,1 -1,1 -2,1 -3,2 -6,4 -10,6 1,8 4,15 10,21 6,6 15,10 24,10 10,0 18,-3 24,-10l0 0c6,-6 10,-15 10,-24 0,-6 -2,-12 -4,-17l-1 0z"/>
  <path class="fil3" d="M5642 6511l180 23c16,2 30,10 40,23 9,10 15,25 14,40l0 0c0,2 0,3 -1,6l0 0c-2,16 -10,29 -21,38 -11,10 -26,15 -42,13 -1,0 -2,0 -3,0l0 0c-31,-3 -48,-10 -65,-16 -19,-7 -38,-15 -104,-15 -39,1 -64,11 -91,23 -15,6 -31,14 -52,20 -19,6 -40,-4 -47,-24 -5,-16 2,-33 15,-43l2 -1c44,-31 94,-69 160,-85 4,-2 10,-2 14,-1l0 0 1 -2 -2 0z"/>
  <path class="fil3" d="M6090 6748c-1,7 -2,16 -1,26 1,10 2,23 4,37 13,81 10,137 6,219 -1,12 -2,24 -2,37 10,13 21,32 26,52 6,22 6,44 -6,66 -11,21 -31,27 -57,35 -7,2 -15,5 -23,8 -16,6 -35,-2 -40,-18 -1,-2 -2,-4 -2,-6l0 0 -10 -60c-10,-57 -7,-99 -4,-144 2,-28 3,-57 3,-90l0 0c-1,-18 -2,-36 -3,-53 -2,-17 -3,-36 -6,-54 -5,-36 -7,-61 -6,-84 2,-24 6,-44 15,-61 0,-1 1,-2 1,-2 64,-123 119,-127 221,-135 20,-2 43,-3 69,-6 4,-1 10,0 14,2 32,8 62,18 90,30 28,12 54,27 78,44 14,10 17,30 7,44 -8,11 -23,16 -36,11l0 0 -10 -3c-51,-17 -78,-26 -139,-27 -52,1 -99,10 -133,36 -27,20 -45,51 -51,98l-1 1 -1 -1zm-45 353c-1,-1 -2,-2 -2,-2 1,11 2,23 4,36l4 25c6,-2 10,-2 10,-3 3,-5 2,-13 1,-21 -4,-17 -14,-31 -19,-36l0 0 1 1 0 -1zm-15 -377l0 2c3,-16 6,-30 11,-43 -1,2 -2,3 -2,4 0,1 -1,1 -1,2 -5,10 -8,21 -9,36l0 -1z"/>
  <path class="fil3" d="M5936 7156c4,17 11,29 21,36 4,3 9,5 13,6 3,0 7,-1 10,-3 7,-4 14,-15 19,-30l57 19c-10,29 -25,48 -43,60 -15,10 -31,14 -48,13 -16,-2 -31,-7 -44,-18 -19,-15 -35,-38 -42,-69l57 -15 1 0 -1 0z"/>
  <path class="fil3" d="M5834 7341c9,-4 17,-9 24,-13 37,-23 65,-38 99,4 15,17 30,7 44,-2 16,-10 31,-21 51,-21 20,0 32,10 48,24 13,11 30,26 57,31 1,0 2,0 3,1 18,3 26,10 23,30 0,2 0,2 -1,3 -3,13 -10,18 -19,19 -3,1 -6,2 -10,1 -1,0 -2,0 -3,-1 -1,0 -1,0 -2,0l-1 0c-4,-1 -9,-1 -13,-2 -26,-3 -72,-10 -79,-10 -10,0 -23,3 -36,5 -14,3 -27,6 -44,6 -15,1 -28,-2 -41,-4 -10,-2 -19,-3 -27,-3 -9,0 -17,2 -27,3 -9,2 -19,3 -31,4 -1,0 -2,0 -2,0l-44 3 0 0 0 0 -15 2c-15,2 -27,-10 -29,-24 -1,-10 5,-22 15,-26 6,-3 31,-17 58,-31l0 -1 3 0z"/>
  <path class="fil12" d="M6024 7382c31,-5 68,-10 68,5 0,50 -59,76 -114,77 -57,2 -119,-29 -119,-71 0,-15 37,-11 68,-9 16,3 32,7 48,6 17,-1 33,-5 49,-8z"/>
  <path class="fil3" d="M6018 7346l4 -1c16,-2 33,-5 48,-5 35,0 58,11 58,48 0,37 -19,65 -48,84 -28,19 -66,29 -102,30l-1 0 -3 0 0 0 0 0c-33,0 -69,-10 -97,-24 -33,-19 -56,-47 -57,-82l0 -1 0 -1 0 0 0 0c0,-34 24,-46 58,-48 16,-1 34,1 51,3 1,0 2,0 3,1 5,1 10,2 13,2 10,2 20,3 27,3l0 0c10,0 21,-3 32,-5 4,-1 9,-2 10,-2 1,0 1,0 2,0l0 0 -1 -1 2 0zm-41 81c11,0 23,-2 33,-4 -10,2 -22,3 -34,4l-1 0 -1 0 0 0 2 0 0 0 1 0z"/>
  <path class="fil3" d="M5798 6680c3,6 6,13 7,20l0 0 0 0c2,7 2,15 2,21 0,3 0,8 -1,12 -1,4 -2,8 -2,12 -3,13 -15,22 -29,20 -5,-1 -10,-3 -14,-6 -3,-2 -6,-5 -8,-8 -2,-2 -2,-3 -3,-5l-1 -2 0 0 -2 -2c-1,-1 -1,-2 -2,-3l0 0c-1,-2 -2,-5 -3,-9 -4,-14 -11,-34 -42,-34 -10,0 -30,11 -48,24 -10,6 -22,14 -32,19 8,7 10,19 6,29 -4,11 -16,17 -27,16l0 0 -56 -9c-3,-1 -6,-2 -10,-3 -9,-4 -17,-10 -24,-13 -7,-3 -15,-7 -20,-9 -14,-4 -21,-19 -16,-32 2,-7 7,-12 14,-15l0 0 96 -45c1,0 1,-1 2,-1 7,-3 17,-8 27,-13 1,0 2,-1 2,-1 64,-31 130,-64 181,37l0 0 0 0 -1 -2 1 2z"/>
  <polygon class="fil9" points="6015,6800 6062,6800 6062,7095 6015,7095 "/>
  <path class="fil3" d="M6239 6694c-43,0 -57,26 -66,43 -5,10 -10,17 -17,22l0 0c-1,1 -2,2 -3,5 10,2 16,5 24,10 6,4 16,10 35,17 19,7 39,5 60,-1 23,-6 47,-18 69,-31 5,-3 10,-6 17,-9l3 -2 -19 -3c-2,0 -3,-1 -5,-2 -15,-6 -31,-16 -44,-25 -20,-13 -39,-25 -52,-25l1 -1 0 1zm-99 24c13,-24 35,-61 99,-61 24,0 48,15 72,31 13,8 26,17 38,23l72 13c6,1 12,6 15,12 3,10 -2,20 -11,24 -14,5 -31,15 -51,24 -5,3 -10,6 -17,10 -24,13 -51,25 -77,33 -28,8 -57,10 -84,0 -22,-8 -32,-15 -41,-20 -5,-3 -8,-5 -12,-6 -9,-1 -16,-3 -21,-8l0 0c-7,-6 -10,-14 -10,-22 0,-6 2,-12 3,-18 4,-10 13,-20 19,-24l0 0 0 0c1,-1 2,-3 4,-8l0 -2 1 -1z"/>
  <path class="fil13" d="M6185 6779l56 54c6,24 -2,64 -8,100 -7,44 -12,85 13,90 31,6 16,-73 15,-92 -3,-44 -3,-78 44,-107 14,-9 117,-49 44,-68 -46,-12 -153,18 -164,22l0 2z"/>
  <path class="fil11" d="M6239 6674c-3,0 -6,0 -8,1 -19,10 -32,31 -32,56 0,36 29,64 64,64 36,0 64,-29 64,-64 0,-5 -1,-10 -2,-14 -31,-17 -60,-42 -85,-42l0 -1z"/>
  <path class="fil3" d="M6233 6646c3,0 5,0 6,0 27,0 52,16 78,32 7,4 15,10 21,13 7,3 13,10 15,19 1,3 2,6 2,10l0 1c1,3 1,7 1,10 0,25 -10,49 -27,65l0 0 0 0 0 0c-17,17 -40,27 -65,27 -26,0 -49,-10 -65,-27l0 0 0 0c-17,-17 -27,-40 -27,-65 0,-17 4,-33 13,-47 8,-14 19,-24 32,-33 3,-3 9,-4 14,-5 2,0 3,0 6,-1l-1 1 -2 0zm7 59c-3,3 -6,6 -8,10 -3,5 -4,10 -4,17 0,10 3,18 10,24l0 0c6,6 15,10 24,10 10,0 18,-3 24,-10l0 0c5,-5 9,-12 10,-21 -3,-2 -7,-4 -10,-6 -18,-11 -36,-23 -45,-23l1 -1 0 -1z"/>
  <path class="fil3" d="M6127 6700c2,-6 4,-13 7,-19 52,-102 119,-68 183,-36 10,5 19,10 27,13 1,0 1,1 2,1l95 44c6,3 11,8 15,15 5,14 -2,28 -16,33 -6,2 -13,5 -20,9 -7,3 -15,8 -24,13 -3,2 -6,3 -10,3l-56 9 0 0c-11,2 -23,-4 -27,-16 -4,-10 -2,-22 6,-29 -11,-6 -23,-13 -32,-19 -19,-12 -37,-24 -48,-24 -31,0 -37,21 -42,35l0 0c-2,3 -2,7 -3,9l0 0c-1,1 -1,2 -2,3 0,1 0,0 -1,2l0 0 0 0c0,0 0,1 -1,2l0 0c-1,2 -2,3 -2,4 -2,3 -5,6 -8,8l0 0 0 0c-4,3 -9,5 -14,6 -13,2 -25,-6 -29,-20 -1,-4 -2,-8 -2,-12 -1,-4 -1,-9 -1,-12 0,-6 1,-14 3,-21l-2 -1 -1 0z"/>
  <path class="fil14" d="M3977 5493c-14,-2 -27,-1 -41,3 -14,3 -27,10 -38,20 -15,12 -24,28 -29,47 -4,19 -3,37 4,56 4,10 10,20 19,30 9,10 19,17 31,25 11,7 23,14 36,19 13,6 25,10 37,13 21,5 39,7 56,7 17,-1 33,-4 50,-12 15,-7 27,-18 37,-31 10,-15 15,-29 13,-44 -2,-17 -6,-31 -14,-44 -8,-12 -17,-23 -27,-31 -2,-2 -2,-7 2,-17 3,-10 6,-20 10,-31 4,-10 9,-20 13,-29 4,-9 7,-11 8,-10 10,10 17,19 23,30 6,10 10,23 13,35 5,19 7,37 6,54 0,17 -2,34 -6,50 -3,16 -9,31 -15,44 -6,15 -13,28 -20,41 -17,31 -40,54 -67,66 -27,12 -57,17 -89,14 -17,-2 -33,-5 -49,-10 -16,-5 -31,-13 -44,-23 -13,-10 -24,-21 -35,-34 -10,-13 -18,-28 -23,-45 -3,-10 -5,-19 -6,-29 -1,-9 -2,-18 -1,-27 1,-9 2,-17 4,-27 2,-10 4,-19 7,-30 3,-11 6,-23 11,-33 4,-10 10,-23 15,-35 10,-23 27,-44 48,-62 22,-18 48,-29 78,-32 2,0 2,5 0,14 -2,9 -3,19 -7,30 -3,13 -7,27 -11,43l0 -6 -1 2 1 1zm349 -381c11,-4 24,-6 36,-3 11,2 23,6 33,11 10,6 20,14 29,23 9,10 17,19 23,31 3,6 6,13 7,20 2,7 2,15 3,21 0,6 0,13 -1,19 -1,6 -2,10 -2,15 -2,10 -6,22 -13,34 -6,12 -14,24 -23,34 -10,10 -19,19 -31,25 -11,6 -24,10 -36,7 -8,-1 -14,-2 -17,-3 -3,-2 -5,-3 -6,-5 -1,-2 -1,-3 1,-6l28 -62c9,4 17,7 24,9 6,2 13,2 19,1 6,-1 10,-4 14,-10 3,-7 3,-15 2,-23 -2,-9 -9,-19 -21,-31 -8,-7 -17,-14 -28,-20 -11,-6 -23,-10 -36,-13 -12,-2 -24,-2 -37,0 -12,2 -23,8 -31,18 -10,10 -17,22 -22,32 -5,10 -9,19 -10,23 15,12 30,24 44,36 15,11 27,23 38,31 11,10 21,17 29,24 8,6 12,10 14,11 1,1 -2,5 -7,14 -5,9 -11,17 -18,27 -6,10 -13,19 -19,27 -6,8 -9,12 -9,12 -1,0 -3,-2 -10,-7 -6,-5 -13,-11 -23,-19 -9,-8 -19,-17 -31,-27 -11,-10 -23,-20 -36,-31 -28,-24 -59,-51 -94,-82 -12,-2 -23,-3 -33,-3 -9,-2 -17,-2 -24,-3 -7,-1 -12,-2 -15,-2 -1,0 0,-3 3,-9 3,-6 7,-12 12,-20 5,-8 10,-17 17,-25 6,-10 12,-18 18,-25 6,-8 10,-15 14,-19 3,-5 6,-8 6,-9l0 -1c5,-8 10,-16 13,-23 3,-6 8,-13 11,-19 3,-6 7,-10 10,-15 7,-10 16,-17 26,-24 10,-7 20,-12 31,-15 10,-3 22,-3 32,-1 10,3 21,10 31,19 7,9 11,18 13,27 1,9 2,15 2,18 1,6 1,13 0,18 -1,3 -1,6 -2,10 5,-6 10,-13 16,-19 5,-5 10,-10 17,-15 6,-5 13,-9 19,-10l-2 2 3 0zm-85 71c-1,-10 -4,-18 -10,-25 -5,-7 -11,-13 -19,-17 -8,-4 -17,-6 -26,-6 -10,0 -19,3 -27,10 -7,5 -14,10 -19,18 -5,6 -9,12 -11,16 10,9 23,19 37,31 15,12 31,26 49,40 2,-3 5,-8 8,-13 3,-5 6,-10 9,-17 3,-6 5,-12 7,-19 2,-6 3,-12 2,-17l0 -1 1 1zm314 -445c0,0 6,6 15,18 10,11 23,27 37,44 15,18 31,37 48,58 17,21 34,40 48,59 15,18 27,34 38,47 10,13 17,20 18,23 1,1 -3,5 -10,12 -6,7 -15,15 -23,24 -9,9 -17,16 -24,23 -7,6 -10,10 -10,10 -1,0 -3,-3 -10,-10 -6,-6 -12,-15 -21,-26 -8,-10 -17,-23 -28,-36 -10,-13 -21,-27 -31,-40 -12,9 -21,19 -27,31 -6,12 -10,26 -10,40 -1,15 2,30 8,44 6,16 16,31 29,46 1,1 -3,5 -10,12 -6,7 -15,15 -23,24 -10,10 -21,22 -32,34 -3,-3 -6,-7 -9,-11 -3,-4 -6,-9 -9,-14 -3,-5 -6,-11 -9,-18 -3,-10 -6,-23 -7,-37 -2,-15 -2,-29 0,-42 1,-6 2,-13 3,-19 2,-6 3,-10 5,-15 2,-5 4,-10 7,-15 -2,2 -6,2 -10,3 -3,1 -7,2 -11,2 -4,1 -10,1 -17,0 -10,0 -19,-3 -30,-8 -10,-5 -19,-12 -27,-22 -8,-10 -15,-20 -18,-33 -3,-13 -4,-27 -2,-44 2,-15 10,-30 20,-44 11,-15 23,-28 36,-40 15,-15 31,-28 47,-41 5,-4 10,-9 16,-14 6,-5 10,-10 15,-14 6,-5 10,-10 16,-15l2 0 -1 3zm4 214c6,-2 13,-6 20,-10 6,-4 11,-8 15,-10 -8,-10 -16,-20 -23,-30 -7,-10 -14,-18 -19,-25l-18 -23 -13 -17c-3,-5 -8,-10 -11,-15 -3,-5 -7,-9 -10,-12 -3,3 -8,7 -13,12 -5,5 -10,9 -13,13 -6,6 -10,13 -10,22 -2,9 -1,17 1,26 2,9 4,17 9,25 4,9 9,15 14,21 10,11 23,19 37,23 15,4 27,4 37,0l0 -1 -1 1zm90 -282c0,-1 6,-4 19,-10 13,-6 29,-15 48,-24 19,-10 38,-19 59,-30 20,-10 37,-19 52,-27 10,-5 21,-10 33,-17 12,-6 25,-13 38,-19 13,-6 27,-13 39,-19 13,-6 24,-12 35,-17 10,-5 18,-9 24,-11 6,-3 10,-4 10,-4l1 2c1,5 1,10 2,16 0,6 1,11 1,17 0,6 0,10 0,16 0,5 -1,9 -1,10 -1,2 -2,2 -5,1 -6,-3 -14,-6 -22,-9 -8,-2 -17,-2 -26,-1 -3,1 -6,2 -11,4 -5,2 -11,5 -18,9 -7,3 -15,7 -23,11 -8,4 -17,9 -25,13 5,10 12,22 20,37 9,16 18,33 27,52 10,19 20,38 31,58 10,19 19,37 28,53 9,17 16,31 22,41 6,11 10,18 10,20 0,1 -2,2 -5,5 -3,3 -9,6 -15,10 -6,4 -12,9 -19,13 -7,4 -13,9 -19,12 -6,3 -10,6 -15,10 -4,3 -6,3 -6,3l-140 -274c-17,9 -33,17 -48,24 -15,8 -23,13 -27,16 -6,6 -11,13 -15,21 -3,8 -6,15 -6,23 -1,3 -2,4 -3,3 -2,-2 -5,-3 -10,-6 -4,-3 -8,-6 -13,-10 -4,-3 -9,-7 -14,-10 -4,-3 -9,-7 -12,-10 0,-1 -1,-1 -2,-1l1 -2 0 1zm456 -202c9,-5 19,-10 29,-16 10,-6 21,-10 31,-15 10,-5 23,-10 33,-13 11,-3 23,-6 32,-8 6,-1 12,1 20,4 8,3 14,7 19,10 4,3 10,10 21,19 10,10 21,21 34,34 13,13 27,27 41,43 15,15 30,31 44,45 15,15 28,29 40,43 13,13 23,24 31,33 3,3 6,5 10,5 3,0 8,0 11,-2 3,-1 7,-3 10,-5 3,-2 6,-4 9,-6l10 16c-2,2 -6,5 -14,10 -7,4 -15,10 -24,14 -10,5 -18,10 -27,15 -9,4 -16,8 -22,10 -10,3 -19,4 -27,2 -8,-2 -16,-7 -25,-17 -10,-11 -19,-22 -27,-31 -8,-9 -15,-17 -23,-24 -7,-7 -14,-15 -21,-21 -7,-6 -15,-15 -23,-23 -6,16 -11,31 -17,47 -5,16 -10,31 -18,46 -7,15 -15,30 -24,44 -10,15 -22,28 -36,42 2,-6 2,-12 3,-17 1,-5 0,-10 -1,-14 -3,-8 -6,-16 -10,-23 -3,-7 -6,-15 -10,-23 -15,-24 -23,-49 -23,-73 -1,-24 5,-49 17,-74 3,-7 9,-16 15,-26 6,-10 12,-17 18,-23 -6,-10 -15,-18 -26,-24 -10,-6 -21,-10 -31,-7 -3,1 -7,2 -11,3 -4,2 -9,4 -12,6 -4,2 -8,4 -10,6 -3,2 -6,3 -7,3 0,-1 -1,-2 -2,-3 -2,-2 -3,-3 -4,-5 -2,-2 -3,-3 -4,-5 -2,-2 -2,-3 -2,-3l1 0 1 0zm149 188c4,-10 8,-17 11,-24 3,-7 6,-14 10,-20 3,-6 5,-12 7,-19 2,-6 4,-13 6,-20 -7,-9 -15,-17 -22,-26 -6,-7 -13,-15 -19,-22 -7,-7 -13,-13 -18,-18 -5,12 -9,22 -10,28 -1,6 -2,12 -2,15 -1,12 0,23 3,32 3,10 6,17 10,25 4,8 9,15 13,23 4,8 9,16 11,25l-1 0 0 2zm572 -340c0,1 1,9 3,24 2,15 3,35 6,58 2,23 4,48 7,75 3,27 5,52 7,76 2,24 4,44 6,60 2,17 2,26 3,29 0,1 -5,2 -15,5 -10,2 -20,4 -32,6 -11,2 -23,4 -32,6 -10,2 -15,2 -15,2 -1,-1 -2,-5 -2,-14 -1,-9 -2,-19 -3,-32 -1,-14 -2,-28 -3,-44 -2,-17 -3,-33 -3,-51 -15,1 -29,4 -41,10 -12,6 -23,16 -31,27 -9,11 -15,26 -18,42 -3,17 -4,35 -2,54 0,1 -5,2 -15,5 -10,2 -20,5 -32,7 -14,3 -30,6 -46,10 0,-4 -1,-10 -1,-15 0,-5 0,-10 1,-17 1,-6 2,-12 3,-19 3,-10 7,-23 15,-36 7,-13 15,-24 23,-35 4,-5 9,-10 13,-14 4,-3 9,-7 13,-10 4,-3 10,-6 14,-9 -3,0 -6,-2 -10,-3 -3,-2 -6,-3 -10,-5 -4,-2 -9,-5 -15,-10 -8,-6 -15,-13 -20,-23 -6,-10 -10,-21 -10,-33 -2,-12 -1,-24 3,-37 3,-13 11,-25 23,-37 10,-10 24,-19 42,-25 17,-6 35,-10 52,-15 20,-3 40,-6 62,-8 6,-1 14,-2 21,-2 7,-1 15,-2 20,-3 7,-1 15,-2 22,-3l1 1 -1 2zm-116 180c6,2 15,3 23,3 8,0 15,0 19,0 -1,-13 -2,-26 -3,-37 -1,-11 -2,-23 -2,-31l-2 -30 -2 -21c-1,-6 -1,-12 -2,-19 -1,-6 -2,-11 -2,-17 -5,1 -10,2 -17,3 -7,1 -13,2 -18,3 -8,2 -15,6 -21,11 -6,6 -10,14 -14,22 -3,8 -6,17 -7,26 -2,10 -2,17 -1,24 2,15 8,29 17,39 10,11 20,19 31,21l1 2 -2 1zm811 -85c0,1 -2,8 -4,23 -3,15 -6,34 -11,57 -5,23 -10,48 -15,73 -6,27 -10,51 -15,75 -5,24 -9,44 -12,60 -3,17 -6,26 -6,28 0,1 -5,1 -15,0 -10,-1 -21,-2 -32,-3 -11,-2 -23,-3 -33,-4 -10,-2 -15,-2 -15,-3 0,-1 2,-8 4,-20 3,-12 6,-28 10,-47 4,-19 9,-38 14,-60 5,-21 10,-41 14,-59 -10,3 -24,7 -39,11 -15,4 -31,10 -46,14 -16,5 -31,10 -44,13 -14,4 -24,7 -31,10 -5,26 -10,47 -13,65 -3,17 -6,27 -6,29 0,1 -5,1 -15,0 -10,-1 -21,-2 -32,-3 -11,-2 -23,-3 -33,-4 -10,-2 -15,-2 -15,-2 0,-1 1,-4 2,-12 2,-7 4,-17 6,-29 3,-11 6,-25 10,-40 3,-15 7,-31 10,-46 9,-36 18,-78 30,-123 -4,-11 -9,-22 -12,-31 -3,-9 -6,-16 -9,-23 -3,-7 -4,-11 -4,-14 0,-1 2,-1 5,-1 3,0 9,0 15,0 6,0 13,1 21,2 8,1 15,2 23,3 19,3 40,5 65,9 0,1 -2,6 -3,19 -2,12 -6,28 -10,47 -4,19 -9,40 -13,64 -5,23 -10,46 -15,69 10,-3 23,-6 37,-10 15,-3 29,-8 44,-12 15,-4 30,-9 44,-12 15,-3 26,-7 36,-10 2,-6 3,-13 4,-18 2,-5 3,-10 3,-13l3 -10c-4,-11 -9,-22 -12,-31 -3,-9 -6,-16 -9,-23 -3,-7 -4,-11 -4,-14 0,-1 2,-1 5,-1 3,0 9,0 15,0 6,0 13,1 20,2 8,1 15,2 23,3 19,3 40,5 65,9l-1 0 0 -2zm369 452c-4,3 -10,5 -21,7 -10,2 -25,5 -46,8 -10,2 -19,2 -27,1 -8,-2 -15,-3 -20,-6 -6,-3 -10,-6 -15,-10 -4,-3 -8,-8 -10,-12 -3,-3 -6,-14 -12,-30 -6,-16 -11,-34 -18,-54 -6,-20 -12,-40 -18,-58 -6,-19 -10,-33 -13,-43 -6,16 -13,31 -19,46 -6,15 -12,28 -17,40 -5,12 -10,22 -12,30 -3,8 -5,12 -6,14 0,1 -5,0 -15,-3 -10,-3 -20,-6 -31,-10 -11,-3 -22,-7 -31,-10 -10,-3 -15,-5 -15,-6 0,-1 2,-4 4,-11 3,-7 7,-16 11,-27 5,-10 10,-24 17,-37 6,-15 13,-29 19,-44 15,-34 32,-72 52,-115 -2,-13 -4,-24 -6,-34 -2,-9 -3,-17 -3,-24 -1,-7 -2,-12 -2,-15 0,-1 2,-1 5,0 3,1 8,2 14,3 6,2 12,3 20,6 7,2 15,4 23,7 18,6 39,13 62,21 0,1 -2,3 -4,10 -3,6 -6,15 -10,26 -4,10 -10,23 -15,37 -6,15 -12,29 -19,44 10,-5 23,-10 37,-18 15,-6 30,-13 44,-19 15,-6 27,-11 39,-16 11,-5 19,-8 23,-10 3,-2 9,-2 14,-2 5,0 10,0 15,1 5,1 10,2 14,3 4,2 7,3 10,5 2,2 4,5 7,9 3,4 4,8 6,12 2,4 2,8 3,11 1,3 0,6 -2,7 -2,2 -5,3 -10,6 -5,2 -10,5 -17,8 -6,3 -12,6 -18,8 -6,2 -10,4 -13,4 -6,2 -10,2 -11,1 -2,-1 -3,-3 -6,-10 -3,-6 -6,-10 -10,-17 -4,-6 -8,-9 -11,-10 -2,-1 -5,0 -10,2 -5,2 -10,4 -17,7 -6,3 -12,5 -18,8 -6,3 -10,5 -12,6 -3,2 -3,3 -3,7 1,3 3,10 6,17 2,3 3,10 7,21 3,10 9,24 14,40 5,15 10,31 17,49 6,17 12,34 17,48 6,15 10,27 15,37 4,10 7,16 10,17 2,2 4,3 8,3 3,0 7,0 11,0 4,-1 8,-1 11,-2 3,-1 7,-2 10,-2 1,2 2,3 2,6 0,2 0,3 1,5l1 4z"/>
  <path class="fil14" d="M7020 5030c-28,-23 -45,-49 -52,-78 -7,-29 -6,-59 3,-90 4,-17 10,-31 19,-46 8,-15 18,-27 31,-38 11,-10 25,-20 40,-27 15,-7 31,-12 49,-15 10,-2 20,-2 29,-1 9,1 18,2 26,4 9,2 17,6 25,10 9,3 17,8 27,12 10,5 21,10 31,17 10,6 20,14 31,21 13,10 24,21 35,35 10,14 18,29 24,45 6,17 10,33 10,51 1,17 -2,35 -7,51 -5,15 -13,31 -22,44 -10,14 -20,26 -32,37 -12,10 -26,19 -40,26 -15,6 -30,10 -46,10 -19,1 -37,0 -54,-3 -17,-3 -33,-9 -48,-15 -15,-6 -29,-15 -41,-23 -13,-9 -25,-18 -37,-27l-1 1 0 -1zm213 -48c6,-10 14,-23 21,-36 7,-13 13,-26 17,-39 4,-14 6,-27 6,-41 0,-14 -4,-27 -11,-42 -10,-17 -23,-30 -40,-37 -17,-8 -36,-10 -56,-6 -10,2 -22,6 -32,13 -10,7 -21,15 -31,24 -10,10 -18,20 -26,31 -8,11 -15,23 -20,35 -9,19 -15,37 -17,53 -3,17 -2,33 2,51 4,16 12,31 24,43 12,12 26,19 41,21 15,2 28,0 40,-4 12,-4 24,-10 34,-17 10,-7 19,-16 27,-25 8,-10 15,-18 20,-27l0 2 2 1zm490 275c0,0 -6,6 -17,16 -11,10 -25,24 -43,39 -17,16 -36,32 -57,51 -20,18 -39,36 -57,51 -18,16 -33,30 -45,40 -12,10 -19,17 -22,19 -1,1 -5,-2 -12,-9 -8,-6 -16,-14 -24,-22 -9,-8 -17,-16 -24,-23 -7,-7 -10,-10 -10,-10 0,0 3,-2 7,-6 4,-4 10,-10 18,-16 7,-6 17,-14 26,-23 10,-9 20,-17 31,-27 -4,-5 -11,-13 -21,-24 -10,-10 -19,-22 -31,-34 -10,-11 -19,-23 -28,-32 -9,-10 -14,-16 -17,-19l-1 -1c-19,18 -36,33 -49,44 -13,11 -20,18 -23,19 -1,1 -5,-2 -12,-9 -8,-6 -16,-14 -24,-22 -9,-8 -17,-16 -24,-23 -7,-7 -10,-10 -10,-10 0,-1 3,-3 9,-9 6,-5 13,-11 23,-19 10,-8 19,-17 31,-27 11,-10 24,-20 36,-31 28,-24 60,-52 97,-82 3,-12 6,-23 9,-32 2,-9 5,-17 7,-24 2,-7 3,-11 4,-14 0,-1 2,0 4,2 3,2 6,5 11,9 5,3 10,9 16,14 6,5 11,10 17,16 14,13 30,28 48,45 0,0 -5,5 -15,14 -10,9 -22,19 -36,32 -15,13 -31,27 -48,44 -18,17 -36,31 -52,47 4,4 10,12 19,23 9,10 17,21 27,32 10,11 19,23 28,32 10,10 16,19 22,24l65 -57c10,-10 21,-17 31,-25 3,-12 6,-23 9,-32 2,-9 5,-17 7,-24 2,-7 3,-11 4,-14 0,-1 2,0 4,2 3,2 6,5 11,9 5,3 10,9 16,14 6,5 11,10 17,16 14,13 30,28 48,45l-2 2 -1 -1zm72 132c7,8 14,17 22,25 7,10 15,19 22,28 7,10 13,20 19,31 6,10 10,21 14,31 2,6 2,12 -1,20 -2,8 -4,15 -7,21 -2,4 -7,12 -15,24 -7,11 -16,24 -27,40 -10,15 -22,31 -34,49 -12,17 -24,35 -36,52 -11,17 -23,33 -34,48 -10,15 -19,27 -26,37 -3,3 -3,7 -3,10 1,3 2,8 3,11 2,3 4,6 7,10 3,3 6,5 8,7l-14 14c-2,-2 -6,-5 -12,-11 -6,-6 -12,-13 -19,-22 -6,-8 -13,-16 -19,-24 -6,-8 -10,-15 -13,-19 -5,-10 -8,-18 -7,-26 0,-8 4,-17 12,-28 10,-12 17,-23 24,-32 7,-10 14,-18 19,-27 6,-8 11,-17 17,-24 5,-8 10,-17 17,-27 -17,-3 -33,-5 -49,-7 -16,-2 -32,-5 -48,-9 -16,-3 -32,-10 -48,-16 -16,-6 -31,-16 -48,-27 6,0 12,0 17,-1 5,-1 10,-2 13,-3 7,-5 15,-10 21,-14 6,-4 13,-10 19,-15 22,-19 44,-31 68,-37 24,-5 49,-4 77,2 8,2 17,6 28,10 10,4 19,9 26,14 8,-8 15,-18 19,-31 4,-11 5,-23 2,-31 -2,-3 -3,-7 -6,-10 -3,-3 -6,-7 -9,-10 -3,-3 -6,-7 -9,-10 -3,-3 -4,-5 -5,-6 1,0 2,-1 3,-2 2,-2 3,-3 4,-5 2,-2 3,-3 4,-5 2,-2 2,-2 3,-2l-1 1 1 -3zm-157 182c10,2 19,4 27,6 8,2 15,3 22,5 6,2 13,2 19,3 6,1 13,2 21,2 7,-9 15,-17 22,-26 6,-7 12,-15 17,-24 6,-8 10,-15 15,-21 -13,-3 -23,-4 -30,-3 -7,1 -12,1 -15,2 -12,2 -23,4 -31,9 -9,4 -16,10 -23,15 -7,6 -14,10 -20,17 -6,6 -14,11 -23,16l-1 -1 -1 0z"/>
  <circle class="fil0 str0" cx="11167" cy="6663" r="1725"/>
  <path class="fil4" d="M12236 8094c-152,112 -320,201 -503,262 -177,58 -365,90 -561,90 -150,0 -296,-19 -436,-54 -144,-36 -282,-90 -409,-159 -23,-12 -31,-40 -19,-63 0,-1 1,-2 1,-2 4,-9 10,-18 16,-27 7,-10 15,-22 23,-32 23,-30 57,-58 89,-85 35,-29 73,-48 70,-52 -44,-66 -11,-110 19,-153 11,-16 23,-31 19,-39 -7,-17 -21,-28 -38,-44 -35,-31 -80,-70 -132,-169 -90,-173 -78,-256 -69,-327 6,-45 11,-84 -35,-154 -52,-79 -45,-149 -38,-224 4,-44 9,-90 -3,-138 -4,-17 2,-33 13,-44l0 0 34 -32c2,-2 3,-3 6,-5 126,-93 268,-167 419,-218 147,-49 305,-76 469,-78l0 0 0 0c168,2 329,30 479,81 156,53 300,132 428,228 3,3 6,6 9,9l10 12c24,18 42,46 56,81 15,39 25,87 31,136 36,263 -24,391 -85,520 -44,94 -88,187 -88,344 0,48 28,101 65,146 48,58 106,100 137,103 25,3 44,25 41,51 -2,14 -9,26 -19,33l1 2 2 2zm-532 173c148,-49 286,-118 413,-202 -37,-24 -78,-59 -111,-99 -49,-59 -86,-132 -86,-204 0,-177 49,-281 98,-384 55,-116 109,-232 78,-468 -6,-43 -15,-84 -26,-115 -8,-20 -17,-36 -25,-41l0 0c-4,-3 -8,-6 -11,-10l-11 -15c-119,-90 -253,-162 -398,-211 -141,-48 -293,-75 -449,-76 -153,1 -302,27 -440,72 -142,48 -274,117 -393,203l-14 13c9,52 4,98 0,142 -6,58 -10,112 24,165 65,99 58,153 49,218 -8,57 -17,124 59,272 43,83 81,116 110,141 27,23 48,41 63,77 24,57 -3,93 -30,130 -12,17 -25,35 -17,48 42,65 -21,117 -89,173 -28,23 -57,48 -73,70 -2,3 -5,6 -7,10 108,54 223,98 344,127 132,33 271,51 414,51 186,0 365,-31 532,-85l-1 -2 -1 0z"/>
  <path class="fil4" d="M11169 4873c492,0 937,199 1258,521 323,323 521,767 521,1258 0,492 -199,937 -521,1258 -323,323 -767,521 -1258,521 -492,0 -937,-199 -1258,-521 -323,-323 -521,-767 -521,-1258 0,-492 199,-937 521,-1258 323,-323 767,-521 1258,-521zm1200 580c-307,-307 -732,-498 -1200,-498 -469,0 -894,190 -1200,498 -307,307 -498,732 -498,1200 0,469 190,894 498,1200 307,307 732,498 1200,498 469,0 894,-190 1200,-498 307,-307 498,-732 498,-1200 0,-469 -190,-894 -498,-1200z"/>
  <rect class="fil0" x="11666" y="7969" width="486" height="445"/>
  <path class="fil4" d="M12253 8076l-374 1162c-8,24 -34,37 -58,30 -4,-2 -8,-3 -11,-6l0 0c-339,-229 -260,-677 -194,-1054 10,-53 19,-105 24,-143 17,-106 34,-220 51,-340 17,-115 31,-230 44,-342 6,-58 18,-115 29,-171 16,-78 31,-153 29,-214 -2,-67 -7,-127 -19,-178 -10,-47 -25,-85 -44,-111 -112,-146 -254,-202 -319,-229 -31,-12 -51,-20 -60,-39 -12,-23 -3,-51 19,-63 10,-6 23,-7 33,-4l202 44c2,0 2,1 3,1l0 0c85,27 168,60 247,100 79,41 155,89 226,142 3,3 6,6 9,9l10 12c24,18 42,46 56,81 15,39 25,87 31,136 36,263 -24,391 -85,520 -44,94 -88,187 -88,344 0,48 28,101 65,146 48,58 106,100 137,103 25,3 44,25 41,51 -1,3 -2,7 -2,10l-2 2 -1 2zm-442 1071l341 -1057c-47,-23 -102,-66 -146,-119 -49,-59 -86,-132 -86,-204 0,-177 49,-281 98,-384 55,-116 109,-232 78,-468 -6,-43 -15,-84 -26,-115 -8,-20 -17,-36 -25,-41l0 0c-4,-3 -8,-6 -11,-10l-11 -15c-65,-49 -134,-93 -207,-131 -31,-16 -64,-31 -97,-45 31,27 60,59 89,97 29,37 49,87 62,147 12,57 19,122 20,195 2,71 -15,151 -31,234 -10,54 -22,111 -28,164 -13,111 -28,228 -44,344 -16,111 -34,228 -52,341 -9,54 -17,99 -24,145 -58,328 -127,714 104,922l-1 1 -1 0z"/>
  <polygon class="fil9" points="11380,6446 11638,6481 11781,6624 11626,6552 11516,6520 11380,6520 "/>
  <path class="fil3" d="M10906 6403l180 23c16,2 30,10 40,23 9,10 15,25 14,40l0 0c0,2 0,3 -1,6l0 0c-2,16 -10,29 -21,38 -11,10 -26,15 -42,13 -1,0 -2,0 -3,0l0 0c-31,-3 -48,-10 -65,-16 -19,-7 -38,-15 -104,-15 -40,1 -64,11 -91,23 -15,6 -31,14 -52,20 -19,6 -117,184 -123,165 -32,19 6,-79 40,-139 24,-44 45,-87 51,-91l2 -1c44,-31 94,-69 160,-85 4,-2 10,-2 14,-1l0 0 -1 -2 -1 -1z"/>
  <path class="fil4" d="M11173 5402c242,2 471,60 674,163 210,106 391,261 531,449 10,15 10,36 -1,50 -70,95 -129,199 -174,311 -44,109 -76,224 -92,344 -3,23 -24,38 -46,36 -7,-1 -15,-4 -20,-9l0 0c-123,-96 -261,-173 -411,-225 -145,-51 -300,-78 -461,-79 -161,1 -316,29 -461,79 -149,52 -288,129 -411,225 -18,14 -44,10 -58,-7 -5,-6 -8,-15 -9,-23 -17,-119 -48,-234 -92,-342 -45,-112 -105,-215 -174,-311 -11,-15 -10,-36 1,-50 139,-187 321,-342 530,-449 202,-103 432,-161 674,-163l0 0 0 0 -1 0zm636 236c-191,-98 -407,-153 -636,-154 -228,2 -445,57 -636,154 -190,97 -355,234 -484,401 67,94 123,196 167,304 38,94 67,194 86,296 115,-82 242,-148 379,-196 153,-53 317,-83 488,-84l0 0 0 0c171,2 336,31 488,84 136,48 264,114 379,196 19,-103 48,-202 86,-296 44,-108 100,-210 167,-304 -129,-167 -295,-304 -484,-401l-2 0zm568 425c-2,3 -5,6 -8,8m8 -8l0 0 0 0z"/>
  <path class="fil8" d="M11221 6517c461,0 684,111 595,603 -53,298 -227,608 -565,626 -336,19 -529,-315 -595,-624 -104,-484 96,-605 565,-605z"/>
  <path class="fil3" d="M11221 6470c241,0 422,31 534,129 115,101 154,265 106,529 -31,171 -99,346 -214,473 -98,107 -228,181 -394,190 -166,10 -299,-59 -403,-168 -123,-129 -202,-315 -240,-493 -56,-260 -27,-424 81,-527 106,-100 282,-134 528,-134l1 1 0 1zm473 198c-92,-81 -254,-106 -473,-106 -223,0 -380,27 -466,108 -83,78 -102,216 -54,440 36,164 106,334 217,449 85,90 196,146 331,139 139,-8 248,-70 330,-160 102,-113 165,-272 192,-428 41,-228 12,-365 -78,-444l0 2z"/>
  <path class="fil5" d="M11418 6313c0,111 -90,201 -201,201l0 0c-111,0 -201,-90 -201,-201l-23 -343 -33 -510c69,-10 139,-16 211,-17 102,1 201,11 296,31l-30 479 -22 358 1 1 0 1z"/>
  <path class="fil15" d="M11359 6217c0,39 -16,74 -42,100 -26,26 -61,42 -100,42 -39,0 -74,-16 -100,-42 -26,-26 -42,-61 -42,-100l-10 -160c0,-1 0,-2 0,-3l-16 -344c-1,-24 16,-44 39,-48l0 0c17,-3 36,-4 53,-6 17,-2 35,-2 53,-2l0 0 0 0c26,0 51,2 76,4 25,3 51,6 75,12 23,5 39,27 36,50l-14 329 0 1 0 0 -10 168 0 0 2 0 1 -1zm-106 35c9,-9 15,-21 15,-35l0 0c0,-1 0,-2 0,-3l10 -171 0 0 12 -290c-10,-2 -18,-3 -27,-3 -23,-2 -44,-3 -66,-3 -15,0 -31,1 -47,2l-6 1 14 302 0 2 10 160c0,2 1,3 1,6 0,14 6,26 15,35 9,9 21,15 35,15 14,0 26,-6 35,-15l1 0 -2 -2z"/>
  <path class="fil3" d="M10959 6657c65,0 85,37 99,61 3,4 3,8 4,8 6,4 15,15 19,24 2,6 3,12 3,18 0,9 -3,16 -10,22 -5,4 -11,7 -21,8 -3,0 -7,2 -12,6 -8,5 -19,12 -41,20 -27,10 -56,8 -84,0 -27,-7 -52,-20 -77,-33 -6,-3 -12,-6 -17,-10 -19,-10 -37,-19 -50,-24 -10,-3 -15,-14 -11,-24 2,-6 8,-11 15,-12l72 -13c12,-6 25,-14 38,-23 24,-16 48,-31 72,-31l-1 2 1 1zm66 79c-10,-17 -24,-43 -66,-43 -13,0 -32,12 -52,25 -15,10 -29,19 -44,25 -2,1 -3,2 -5,2l-19 3 2 2c6,3 11,6 17,10 23,11 46,24 69,31 22,6 43,8 60,1 18,-6 27,-13 35,-17 9,-5 15,-9 24,-10 -2,-3 -3,-4 -3,-5 -7,-4 -11,-12 -17,-22l1 0 0 -1z"/>
  <path class="fil11" d="M10959 6674c3,0 6,0 8,1 19,10 32,31 32,56 0,36 -29,64 -64,64 -36,0 -64,-29 -64,-64 0,-5 1,-10 2,-14 31,-17 60,-42 85,-42l0 -1z"/>
  <path class="fil3" d="M10959 6646c1,0 3,0 6,0 2,0 3,0 6,1 5,1 10,2 14,5 14,8 24,19 32,32 8,14 13,30 13,47 0,26 -10,49 -27,65l0 0 0 0 0 0c-17,17 -40,27 -65,27 -26,0 -49,-10 -65,-27l0 0c-17,-17 -27,-40 -27,-65 0,-3 0,-6 1,-10 1,-3 1,-6 2,-10 2,-9 8,-16 15,-19 5,-3 13,-8 21,-13 1,0 2,-1 2,-1 26,-17 51,-31 77,-31l-1 0 -3 0zm6 69c-2,-3 -4,-6 -8,-10 -10,1 -27,11 -44,23 -1,1 -1,1 -2,1 -3,2 -6,4 -10,6 1,8 4,15 10,21 6,6 15,10 24,10 10,0 18,-3 24,-10l0 0c6,-6 10,-15 10,-24 0,-6 -2,-12 -4,-17l-1 0z"/>
  <path class="fil4" d="M11464 6328c0,68 -28,130 -73,174 -44,44 -106,73 -174,73 -68,0 -130,-28 -174,-73 -44,-44 -72,-106 -73,-174l-22 -340 -33 -510c-2,-24 16,-44 39,-48l0 0c36,-5 71,-10 108,-12 35,-3 71,-4 109,-4l0 0 0 0c52,0 104,3 154,9 52,6 102,14 153,24 23,5 38,27 36,49l-30 478 -22 357 0 0 2 -1 1 -1zm-138 109c28,-28 45,-66 45,-109l0 0c0,-1 0,-2 0,-3l22 -358 27 -439c-34,-6 -69,-11 -104,-15 -48,-5 -97,-8 -144,-9 -33,0 -67,2 -102,4 -20,2 -40,3 -60,6l31 467 22 340c0,2 1,3 1,6 0,43 17,81 45,109 28,28 66,45 109,45 43,0 81,-17 109,-45l1 1 -2 -1z"/>
  <path class="fil3" d="M11357 6748c-1,7 -2,16 -1,26 1,10 2,23 4,37 13,81 10,137 6,219 -1,12 -2,24 -2,37 10,13 21,32 26,52 6,22 6,44 -6,66 -11,21 -31,27 -57,35 -7,2 -15,5 -23,8 -16,6 -35,-2 -40,-18 -1,-2 -2,-4 -2,-6l0 0 -10 -60c-10,-57 -7,-99 -4,-144 2,-28 3,-57 3,-90l0 0c-1,-18 -2,-36 -3,-53 -2,-17 -3,-36 -6,-54 -5,-36 -7,-61 -6,-84 2,-24 6,-44 15,-61 0,-1 1,-2 1,-2 64,-123 119,-127 221,-135 20,-2 43,-3 69,-6 4,-1 10,0 14,2 32,8 62,18 90,30 28,12 54,27 78,44 14,10 17,30 7,44 -8,11 -23,16 -36,11l0 0 -10 -3c-51,-17 -78,-26 -139,-27 -52,1 -99,10 -133,36 -27,20 -45,51 -51,98l-1 1 -1 -1zm-45 353c-1,-1 -2,-2 -2,-2 1,11 2,23 4,36l4 25c6,-2 10,-2 10,-3 3,-5 2,-13 1,-21 -4,-17 -14,-31 -19,-36l0 0 1 1 0 -1zm-15 -377l0 2c3,-16 6,-30 11,-43 -1,2 -2,3 -2,4 0,1 -1,1 -1,2 -5,10 -8,21 -9,36l0 -1z"/>
  <path class="fil3" d="M11203 7156c4,17 11,29 21,36 4,3 9,5 13,6 3,0 7,-1 10,-3 7,-4 14,-15 19,-30l57 19c-10,29 -25,48 -43,60 -15,10 -31,14 -48,13 -16,-2 -31,-7 -44,-18 -19,-15 -35,-38 -42,-69l57 -15 1 0 -1 0z"/>
  <path class="fil3" d="M11101 7341c9,-4 17,-9 24,-13 37,-23 65,-38 99,4 15,17 30,7 44,-2 16,-10 31,-21 51,-21 20,0 32,10 48,24 13,11 30,26 57,31 1,0 2,0 3,1 18,3 26,10 23,30 0,2 0,2 -1,3 -3,13 -10,18 -19,19 -3,1 -6,2 -10,1 -1,0 -2,0 -3,-1 -1,0 -1,0 -2,0l-1 0c-4,-1 -9,-1 -13,-2 -26,-3 -72,-10 -79,-10 -10,0 -23,3 -36,5 -14,3 -27,6 -44,6 -15,1 -28,-2 -41,-4 -10,-2 -19,-3 -27,-3 -9,0 -17,2 -27,3 -9,2 -19,3 -31,4 -1,0 -2,0 -2,0l-44 3 0 0 0 0 -15 2c-15,2 -27,-10 -29,-24 -1,-10 5,-22 15,-26 6,-3 31,-17 58,-31l0 -1 3 0z"/>
  <path class="fil12" d="M11291 7382c31,-5 68,-10 68,5 0,50 -59,76 -114,77 -57,2 -119,-29 -119,-71 0,-15 37,-11 68,-9 16,3 32,7 48,6 17,-1 33,-5 49,-8z"/>
  <path class="fil3" d="M11285 7346l4 -1c16,-2 33,-5 48,-5 35,0 58,11 58,48 0,37 -19,65 -48,84 -28,19 -66,29 -102,30l-1 0 -3 0 0 0 0 0c-33,0 -69,-10 -97,-24 -33,-19 -56,-47 -57,-82l0 -1 0 -1 0 0 0 0c0,-34 24,-46 58,-48 16,-1 34,1 51,3 1,0 2,0 3,1 5,1 10,2 13,2 10,2 20,3 27,3l0 0c10,0 21,-3 32,-5 4,-1 9,-2 10,-2 1,0 1,0 2,0l0 0 -1 -1 2 0zm-41 81c11,0 23,-2 33,-4 -10,2 -22,3 -34,4l-1 0 -1 0 0 0 2 0 0 0 1 0z"/>
  <path class="fil3" d="M11065 6680c3,6 6,13 7,20l0 0 0 0c2,7 2,15 2,21 0,3 0,8 -1,12 -1,4 -2,8 -2,12 -3,13 -15,22 -29,20 -5,-1 -10,-3 -14,-6 -3,-2 -6,-5 -8,-8 -2,-2 -2,-3 -3,-5l-1 -2 0 0 -2 -2c-1,-1 -1,-2 -2,-3l0 0c-1,-2 -2,-5 -3,-9 -4,-14 -11,-34 -42,-34 -10,0 -30,11 -48,24 -10,6 -22,14 -32,19 8,7 10,19 6,29 -4,11 -16,17 -27,16l0 0 -56 -9c-3,-1 -6,-2 -10,-3 -9,-4 -17,-10 -24,-13 -7,-3 -15,-7 -20,-9 -14,-4 -21,-19 -16,-32 2,-7 7,-12 14,-15l0 0 96 -45c1,0 1,-1 2,-1 7,-3 17,-8 27,-13 1,0 2,-1 2,-1 64,-31 130,-64 181,37l0 0 0 0 -1 -2 1 2z"/>
  <polygon class="fil9" points="11281,6800 11329,6800 11329,7095 11281,7095 "/>
  <path class="fil3" d="M11505 6694c-43,0 -57,26 -66,43 -5,10 -10,17 -17,22l0 0c-1,1 -2,2 -3,5 10,2 16,5 24,10 6,4 16,10 35,17 19,7 39,5 60,-1 23,-6 47,-18 69,-31 5,-3 10,-6 17,-9l3 -2 -19 -3c-2,0 -3,-1 -5,-2 -15,-6 -31,-16 -44,-25 -20,-13 -40,-25 -52,-25l1 -1 0 1zm-99 24c13,-24 35,-61 99,-61 24,0 48,15 72,31 13,8 26,17 38,23l72 13c6,1 12,6 15,12 3,10 -2,20 -11,24 -14,5 -31,15 -51,24 -5,3 -10,6 -17,10 -24,13 -51,25 -77,33 -28,8 -57,10 -84,0 -22,-8 -32,-15 -41,-20 -5,-3 -8,-5 -12,-6 -9,-1 -16,-3 -21,-8l0 0c-7,-6 -10,-14 -10,-22 0,-6 2,-12 3,-18 4,-10 13,-20 19,-24l0 0 0 0c1,-1 2,-3 4,-8l0 -2 1 -1z"/>
  <path class="fil11" d="M11505 6674c-3,0 -6,0 -8,1 -19,10 -32,31 -32,56 0,36 29,64 64,64 36,0 64,-29 64,-64 0,-5 -1,-10 -2,-14 -31,-17 -60,-42 -85,-42l0 -1z"/>
  <path class="fil3" d="M11500 6646c3,0 5,0 6,0 27,0 52,16 78,32 7,4 15,10 21,13 7,3 13,10 15,19 1,3 2,6 2,10l0 1c1,3 1,7 1,10 0,25 -10,49 -27,65l0 0 0 0 0 0c-17,17 -40,27 -65,27 -26,0 -49,-10 -65,-27l0 0 0 0c-17,-17 -27,-40 -27,-65 0,-17 4,-33 13,-47 8,-14 19,-24 32,-33 3,-3 9,-4 14,-5 2,0 3,0 6,-1l-1 1 -2 0zm7 59c-3,3 -6,6 -8,10 -3,5 -4,10 -4,17 0,10 3,18 10,24l0 0c6,6 15,10 24,10 10,0 18,-3 24,-10l0 0c5,-5 9,-12 10,-21 -3,-2 -7,-4 -10,-6 -18,-11 -36,-23 -45,-23l1 -1 0 -1z"/>
  <path class="fil3" d="M11393 6700c2,-6 4,-13 7,-19 52,-102 119,-68 183,-36 10,5 19,10 27,13 1,0 1,1 2,1l95 44c6,3 11,8 15,15 5,14 -2,28 -16,33 -6,2 -13,5 -20,9 -7,3 -15,8 -24,13 -3,2 -6,3 -10,3l-56 9 0 0c-11,2 -23,-4 -27,-16 -4,-10 -2,-22 6,-29 -11,-6 -23,-13 -32,-19 -19,-12 -37,-24 -48,-24 -31,0 -37,21 -42,35l0 0c-2,3 -2,7 -3,9l0 0c-1,1 -1,2 -2,3 0,1 0,0 -1,2l0 0 0 0c0,0 0,1 -1,2l0 0c-1,2 -2,3 -2,4 -2,3 -5,6 -8,8l0 0 0 0c-4,3 -9,5 -14,6 -13,2 -25,-6 -29,-20 -1,-4 -2,-8 -2,-12 -1,-4 -1,-9 -1,-12 0,-6 1,-14 3,-21l-2 -1 -1 0z"/>
  <path class="fil14" d="M9244 5493c-14,-2 -27,-1 -41,3 -14,3 -27,10 -38,20 -15,12 -24,28 -29,47 -4,19 -3,37 4,56 4,10 10,20 19,30 9,10 19,17 31,25 11,7 23,14 36,19 13,6 25,10 37,13 21,5 39,7 56,7 17,-1 33,-4 50,-12 15,-7 27,-18 37,-31 10,-15 15,-29 13,-44 -2,-17 -6,-31 -14,-44 -8,-12 -17,-23 -27,-31 -2,-2 -2,-7 2,-17 3,-10 6,-20 10,-31 4,-10 9,-20 13,-29 4,-9 7,-11 8,-10 10,10 17,19 23,30 6,10 10,23 13,35 5,19 7,37 6,54 0,17 -2,34 -6,50 -3,16 -9,31 -15,44 -6,15 -13,28 -20,41 -17,31 -39,54 -67,66 -27,12 -57,17 -89,14 -17,-2 -33,-5 -49,-10 -16,-5 -31,-13 -44,-23 -13,-10 -24,-21 -35,-34 -10,-13 -18,-28 -23,-45 -3,-10 -5,-19 -6,-29 -1,-9 -2,-18 -1,-27 1,-9 2,-17 4,-27 2,-10 4,-19 7,-30 3,-11 6,-23 11,-33 4,-10 10,-23 15,-35 10,-23 27,-44 48,-62 22,-18 48,-29 78,-32 2,0 2,5 0,14 -2,9 -3,19 -7,30 -3,13 -7,27 -11,43l0 -6 -1 2 1 1zm349 -381c11,-4 24,-6 36,-3 11,2 23,6 33,11 10,6 20,14 29,23 9,10 17,19 23,31 3,6 6,13 7,20 2,7 2,15 3,21 0,6 0,13 -1,19 -1,6 -2,10 -2,15 -2,10 -6,22 -13,34 -6,12 -14,24 -23,34 -10,10 -19,19 -31,25 -11,6 -24,10 -36,7 -8,-1 -14,-2 -17,-3 -3,-2 -5,-3 -6,-5 -1,-2 -1,-3 1,-6l28 -62c9,4 17,7 24,9 6,2 13,2 19,1 6,-1 10,-4 14,-10 3,-7 3,-15 2,-23 -2,-9 -9,-19 -21,-31 -8,-7 -17,-14 -28,-20 -11,-6 -23,-10 -36,-13 -12,-2 -24,-2 -37,0 -12,2 -23,8 -31,18 -10,10 -17,22 -22,32 -5,10 -9,19 -10,23 15,12 30,24 44,36 15,11 27,23 38,31 11,10 21,17 29,24 8,6 12,10 14,11 1,1 -2,5 -7,14 -5,9 -11,17 -18,27 -6,10 -13,19 -19,27 -6,8 -9,12 -9,12 -1,0 -3,-2 -10,-7 -6,-5 -13,-11 -23,-19 -9,-8 -19,-17 -31,-27 -11,-10 -23,-20 -36,-31 -28,-24 -59,-51 -94,-82 -12,-2 -23,-3 -33,-3 -9,-2 -17,-2 -24,-3 -7,-1 -12,-2 -15,-2 -1,0 0,-3 3,-9 3,-6 7,-12 12,-20 5,-8 10,-17 17,-25 6,-10 12,-18 18,-25 6,-8 10,-15 14,-19 3,-5 6,-8 6,-9l0 -1c5,-8 10,-16 13,-23 3,-6 8,-13 11,-19 3,-6 7,-10 10,-15 7,-10 16,-17 26,-24 10,-7 20,-12 31,-15 10,-3 22,-3 32,-1 10,3 21,10 31,19 7,9 11,18 13,27 1,9 2,15 2,18 1,6 1,13 0,18 -1,3 -1,6 -2,10 5,-6 10,-13 16,-19 5,-5 10,-10 17,-15 6,-5 13,-9 19,-10l-2 2 3 0zm-85 71c-1,-10 -4,-18 -10,-25 -5,-7 -11,-13 -19,-17 -8,-4 -17,-6 -26,-6 -10,0 -19,3 -27,10 -7,5 -14,10 -19,18 -5,6 -9,12 -11,16 10,9 23,19 37,31 15,12 31,26 49,40 2,-3 5,-8 8,-13 3,-5 6,-10 9,-17 3,-6 5,-12 7,-19 2,-6 3,-12 2,-17l0 -1 1 1zm314 -445c0,0 6,6 15,18 10,11 23,27 37,44 15,18 31,37 48,58 17,21 34,40 48,59 15,18 27,34 38,47 10,13 17,20 18,23 1,1 -3,5 -10,12 -6,7 -15,15 -23,24 -9,9 -17,16 -24,23 -7,6 -10,10 -10,10 -1,0 -3,-3 -10,-10 -6,-6 -12,-15 -21,-26 -8,-10 -17,-23 -28,-36 -10,-13 -21,-27 -31,-40 -12,9 -21,19 -27,31 -6,12 -10,26 -10,40 -1,15 2,30 8,44 6,16 16,31 29,46 1,1 -3,5 -10,12 -6,7 -15,15 -23,24 -10,10 -21,22 -32,34 -3,-3 -6,-7 -9,-11 -3,-4 -6,-9 -9,-14 -3,-5 -6,-11 -9,-18 -3,-10 -6,-23 -7,-37 -2,-15 -2,-29 0,-42 1,-6 2,-13 3,-19 2,-6 3,-10 5,-15 2,-5 4,-10 7,-15 -2,2 -6,2 -10,3 -3,1 -7,2 -11,2 -4,1 -10,1 -17,0 -10,0 -19,-3 -30,-8 -10,-5 -19,-12 -27,-22 -8,-10 -15,-20 -18,-33 -3,-13 -4,-27 -2,-44 2,-15 10,-30 20,-44 11,-15 23,-28 36,-40 15,-15 31,-28 47,-41 5,-4 10,-9 16,-14 6,-5 10,-10 15,-14 6,-5 10,-10 16,-15l2 0 -1 3zm4 214c6,-2 13,-6 20,-10 6,-4 11,-8 15,-10 -8,-10 -16,-20 -23,-30 -7,-10 -14,-18 -19,-25l-18 -23 -13 -17c-3,-5 -8,-10 -11,-15 -3,-5 -7,-9 -10,-12 -3,3 -8,7 -13,12 -5,5 -10,9 -13,13 -6,6 -10,13 -10,22 -2,9 -1,17 1,26 2,9 4,17 9,25 4,9 9,15 14,21 10,11 23,19 37,23 15,4 27,4 37,0l0 -1 -1 1zm90 -282c0,-1 6,-4 19,-10 13,-6 29,-15 48,-24 19,-10 38,-19 59,-30 20,-10 37,-19 52,-27 10,-5 21,-10 33,-17 12,-6 25,-13 38,-19 13,-6 27,-13 39,-19 13,-6 24,-12 35,-17 10,-5 18,-9 24,-11 6,-3 10,-4 10,-4l1 2c1,5 1,10 2,16 0,6 1,11 1,17 0,6 0,10 0,16 0,5 -1,9 -1,10 -1,2 -2,2 -5,1 -6,-3 -14,-6 -22,-9 -8,-2 -17,-2 -26,-1 -3,1 -6,2 -11,4 -5,2 -11,5 -18,9 -7,3 -15,7 -23,11 -8,4 -17,9 -25,13 5,10 12,22 20,37 9,16 18,33 27,52 10,19 20,38 31,58 10,19 19,37 28,53 9,17 16,31 22,41 6,11 10,18 10,20 0,1 -2,2 -5,5 -3,3 -9,6 -15,10 -6,4 -12,9 -19,13 -7,4 -13,9 -19,12 -6,3 -10,6 -15,10 -4,3 -6,3 -6,3l-140 -274c-17,9 -33,17 -48,24 -15,8 -23,13 -27,16 -6,6 -11,13 -15,21 -3,8 -6,15 -6,23 -1,3 -2,4 -3,3 -2,-2 -5,-3 -10,-6 -4,-3 -8,-6 -13,-10 -4,-3 -9,-7 -14,-10 -4,-3 -9,-7 -12,-10 0,-1 -1,-1 -2,-1l1 -2 0 1zm456 -202c9,-5 19,-10 29,-16 10,-6 21,-10 31,-15 10,-5 23,-10 33,-13 11,-3 23,-6 32,-8 6,-1 12,1 20,4 8,3 14,7 19,10 4,3 10,10 21,19 10,10 21,21 34,34 13,13 27,27 41,43 15,15 30,31 44,45 15,15 28,29 40,43 13,13 23,24 31,33 3,3 6,5 10,5 3,0 8,0 11,-2 3,-1 7,-3 10,-5 3,-2 6,-4 9,-6l10 16c-2,2 -6,5 -14,10 -7,4 -15,10 -24,14 -10,5 -18,10 -27,15 -9,4 -16,8 -22,10 -10,3 -19,4 -27,2 -8,-2 -16,-7 -25,-17 -10,-11 -19,-22 -27,-31 -8,-9 -15,-17 -23,-24 -7,-7 -14,-15 -21,-21 -7,-6 -15,-15 -23,-23 -6,16 -11,31 -17,47 -5,16 -10,31 -18,46 -7,15 -15,30 -24,44 -10,15 -22,28 -36,42 2,-6 2,-12 3,-17 1,-5 0,-10 -1,-14 -3,-8 -6,-16 -10,-23 -3,-7 -6,-15 -10,-23 -15,-24 -23,-49 -23,-73 -1,-24 5,-49 17,-74 3,-7 9,-16 15,-26 6,-10 12,-17 18,-23 -6,-10 -15,-18 -26,-24 -10,-6 -21,-10 -31,-7 -3,1 -7,2 -11,3 -4,2 -9,4 -12,6 -4,2 -8,4 -10,6 -3,2 -6,3 -7,3 0,-1 -1,-2 -2,-3 -2,-2 -3,-3 -4,-5 -2,-2 -3,-3 -4,-5 -2,-2 -2,-3 -2,-3l1 0 1 0zm149 188c4,-10 8,-17 11,-24 3,-7 6,-14 10,-20 3,-6 5,-12 7,-19 2,-6 4,-13 6,-20 -7,-9 -15,-17 -22,-26 -6,-7 -13,-15 -19,-22 -7,-7 -13,-13 -18,-18 -5,12 -9,22 -10,28 -1,6 -2,12 -2,15 -1,12 0,23 3,32 3,10 6,17 10,25 4,8 9,15 13,23 4,8 9,16 11,25l-1 0 0 2zm572 -340c0,1 1,9 3,24 2,15 3,35 6,58 2,23 4,48 7,75 3,27 5,52 7,76 2,24 4,44 6,60 2,17 2,26 3,29 0,1 -5,2 -15,5 -10,2 -20,4 -32,6 -11,2 -23,4 -32,6 -10,2 -15,2 -15,2 -1,-1 -2,-5 -2,-14 -1,-9 -2,-19 -3,-32 -1,-14 -2,-28 -3,-44 -2,-17 -3,-33 -3,-51 -15,1 -29,4 -41,10 -12,6 -23,16 -31,27 -9,11 -15,26 -18,42 -3,17 -4,35 -2,54 0,1 -5,2 -15,5 -10,2 -20,5 -32,7 -14,3 -30,6 -46,10 0,-4 -1,-10 -1,-15 0,-5 0,-10 1,-17 1,-6 2,-12 3,-19 3,-10 7,-23 15,-36 7,-13 15,-24 23,-35 4,-5 9,-10 13,-14 4,-3 9,-7 13,-10 4,-3 10,-6 14,-9 -3,0 -6,-2 -10,-3 -3,-2 -6,-3 -10,-5 -4,-2 -9,-5 -15,-10 -8,-6 -15,-13 -20,-23 -6,-10 -10,-21 -10,-33 -2,-12 -1,-24 3,-37 3,-13 11,-25 23,-37 10,-10 24,-19 42,-25 17,-6 35,-10 52,-15 20,-3 40,-6 62,-8 6,-1 14,-2 21,-2 7,-1 15,-2 20,-3 7,-1 15,-2 22,-3l1 1 -1 2zm-116 180c6,2 15,3 23,3 8,0 15,0 19,0 -1,-13 -2,-26 -3,-37 -1,-11 -2,-23 -2,-31l-2 -30 -2 -21c-1,-6 -1,-12 -2,-19 -1,-6 -2,-11 -2,-17 -5,1 -10,2 -17,3 -7,1 -13,2 -18,3 -8,2 -15,6 -21,11 -6,6 -10,14 -14,22 -3,8 -6,17 -7,26 -2,10 -2,17 -1,24 2,15 8,29 17,39 10,11 20,19 31,21l1 2 -2 1zm811 -85c0,1 -2,8 -4,23 -3,15 -6,34 -11,57 -5,23 -10,48 -15,73 -6,27 -10,51 -15,75 -5,24 -9,44 -12,60 -3,17 -6,26 -6,28 0,1 -5,1 -15,0 -10,-1 -21,-2 -32,-3 -11,-2 -23,-3 -33,-4 -10,-2 -15,-2 -15,-3 0,-1 2,-8 4,-20 3,-12 6,-28 10,-47 4,-19 9,-38 14,-60 5,-21 10,-41 14,-59 -10,3 -24,7 -39,11 -15,4 -31,10 -46,14 -16,5 -31,10 -44,13 -14,4 -24,7 -31,10 -5,26 -10,47 -13,65 -3,17 -6,27 -6,29 0,1 -5,1 -15,0 -10,-1 -21,-2 -32,-3 -11,-2 -23,-3 -33,-4 -10,-2 -15,-2 -15,-2 0,-1 1,-4 2,-12 2,-7 4,-17 6,-29 3,-11 6,-25 10,-40 3,-15 7,-31 10,-46 9,-36 18,-78 30,-123 -4,-11 -9,-22 -12,-31 -3,-9 -6,-16 -9,-23 -3,-7 -4,-11 -4,-14 0,-1 2,-1 5,-1 3,0 9,0 15,0 6,0 13,1 21,2 8,1 15,2 23,3 19,3 40,5 65,9 0,1 -2,6 -3,19 -2,12 -6,28 -10,47 -4,19 -9,40 -13,64 -5,23 -10,46 -15,69 10,-3 23,-6 37,-10 15,-3 29,-8 44,-12 15,-4 30,-9 44,-12 15,-3 26,-7 36,-10 2,-6 3,-13 4,-18 2,-5 3,-10 3,-13l3 -10c-4,-11 -9,-22 -12,-31 -3,-9 -6,-16 -9,-23 -3,-7 -4,-11 -4,-14 0,-1 2,-1 5,-1 3,0 9,0 15,0 6,0 13,1 20,2 8,1 15,2 23,3 19,3 40,5 65,9l-1 0 0 -2zm369 452c-4,3 -10,5 -21,7 -10,2 -25,5 -46,8 -10,2 -19,2 -27,1 -8,-2 -15,-3 -20,-6 -6,-3 -10,-6 -15,-10 -4,-3 -8,-8 -10,-12 -3,-3 -6,-14 -12,-30 -6,-16 -11,-34 -18,-54 -6,-20 -12,-40 -18,-58 -6,-19 -10,-33 -13,-43 -6,16 -13,31 -19,46 -6,15 -12,28 -17,40 -5,12 -10,22 -12,30 -3,8 -5,12 -6,14 0,1 -5,0 -15,-3 -10,-3 -20,-6 -31,-10 -11,-3 -22,-7 -31,-10 -10,-3 -15,-5 -15,-6 0,-1 2,-4 4,-11 3,-7 7,-16 11,-27 5,-10 10,-24 17,-37 6,-15 13,-29 19,-44 15,-34 32,-72 52,-115 -2,-13 -4,-24 -6,-34 -2,-9 -3,-17 -3,-24 -1,-7 -2,-12 -2,-15 0,-1 2,-1 5,0 3,1 8,2 14,3 6,2 12,3 20,6 7,2 15,4 23,7 18,6 39,13 62,21 0,1 -2,3 -4,10 -3,6 -6,15 -10,26 -4,10 -10,23 -15,37 -6,15 -12,29 -19,44 10,-5 23,-10 37,-18 15,-6 30,-13 44,-19 15,-6 27,-11 39,-16 11,-5 19,-8 23,-10 3,-2 9,-2 14,-2 5,0 10,0 15,1 5,1 10,2 14,3 4,2 7,3 10,5 2,2 4,5 7,9 3,4 4,8 6,12 2,4 2,8 3,11 1,3 0,6 -2,7 -2,2 -5,3 -10,6 -5,2 -10,5 -17,8 -6,3 -12,6 -18,8 -6,2 -10,4 -13,4 -6,2 -10,2 -11,1 -2,-1 -3,-3 -6,-10 -3,-6 -6,-10 -10,-17 -4,-6 -8,-9 -11,-10 -2,-1 -5,0 -10,2 -5,2 -10,4 -17,7 -6,3 -12,5 -18,8 -6,3 -10,5 -12,6 -3,2 -3,3 -3,7 1,3 3,10 6,17 2,3 3,10 7,21 3,10 9,24 14,40 5,15 10,31 17,49 6,17 12,34 17,48 6,15 10,27 15,37 4,10 7,16 10,17 2,2 4,3 8,3 3,0 7,0 11,0 4,-1 8,-1 11,-2 3,-1 7,-2 10,-2 1,2 2,3 2,6 0,2 0,3 1,5l1 4z"/>
  <path class="fil14" d="M12286 5030c-28,-23 -45,-49 -52,-78 -7,-29 -6,-59 3,-90 4,-17 10,-31 19,-46 8,-15 18,-27 31,-38 11,-10 25,-20 40,-27 15,-7 31,-12 49,-15 10,-2 20,-2 29,-1 9,1 18,2 26,4 9,2 17,6 25,10 9,3 17,8 27,12 10,5 21,10 31,17 10,6 20,14 31,21 13,10 24,21 35,35 10,14 18,29 24,45 6,17 10,33 10,51 1,17 -2,35 -7,51 -5,15 -13,31 -22,44 -10,14 -20,26 -32,37 -12,10 -26,19 -40,26 -15,6 -30,10 -46,10 -19,1 -37,0 -54,-3 -17,-3 -33,-9 -48,-15 -15,-6 -29,-15 -41,-23 -13,-9 -25,-18 -37,-27l-1 1 0 -1zm213 -48c6,-10 14,-23 21,-36 7,-13 13,-26 17,-39 4,-14 6,-27 6,-41 0,-14 -4,-27 -11,-42 -10,-17 -23,-30 -40,-37 -17,-8 -36,-10 -56,-6 -10,2 -22,6 -32,13 -10,7 -21,15 -31,24 -10,10 -18,20 -26,31 -8,11 -15,23 -20,35 -9,19 -15,37 -17,53 -3,17 -2,33 2,51 4,16 12,31 24,43 12,12 26,19 41,21 15,2 28,0 40,-4 12,-4 24,-10 34,-17 10,-7 19,-16 27,-25 8,-10 15,-18 20,-27l0 2 2 1zm490 275c0,0 -6,6 -17,16 -11,10 -25,24 -43,39 -17,16 -36,32 -57,51 -20,18 -39,36 -57,51 -18,16 -33,30 -45,40 -12,10 -19,17 -22,19 -1,1 -5,-2 -12,-9 -8,-6 -16,-14 -24,-22 -9,-8 -17,-16 -24,-23 -7,-7 -10,-10 -10,-10 0,0 3,-2 7,-6 4,-4 10,-10 18,-16 7,-6 17,-14 26,-23 10,-9 20,-17 31,-27 -4,-5 -11,-13 -21,-24 -10,-10 -19,-22 -31,-34 -10,-11 -19,-23 -28,-32 -9,-10 -14,-16 -17,-19l-1 -1c-19,18 -36,33 -49,44 -13,11 -20,18 -23,19 -1,1 -5,-2 -12,-9 -8,-6 -16,-14 -24,-22 -9,-8 -17,-16 -24,-23 -7,-7 -10,-10 -10,-10 0,-1 3,-3 9,-9 6,-5 13,-11 23,-19 10,-8 19,-17 31,-27 11,-10 24,-20 36,-31 28,-24 60,-52 97,-82 3,-12 6,-23 9,-32 2,-9 5,-17 7,-24 2,-7 3,-11 4,-14 0,-1 2,0 4,2 3,2 6,5 11,9 5,3 10,9 16,14 6,5 11,10 17,16 14,13 30,28 48,45 0,0 -5,5 -15,14 -10,9 -22,19 -36,32 -15,13 -31,27 -48,44 -18,17 -36,31 -52,47 4,4 10,12 19,23 9,10 17,21 27,32 10,11 19,23 28,32 10,10 16,19 22,24l65 -57c10,-10 21,-17 31,-25 3,-12 6,-23 9,-32 2,-9 5,-17 7,-24 2,-7 3,-11 4,-14 0,-1 2,0 4,2 3,2 6,5 11,9 5,3 10,9 16,14 6,5 11,10 17,16 14,13 30,28 48,45l-2 2 -1 -1zm72 132c7,8 14,17 22,25 7,10 15,19 22,28 7,10 13,20 19,31 6,10 10,21 14,31 2,6 2,12 -1,20 -2,8 -4,15 -7,21 -2,4 -7,12 -15,24 -7,11 -16,24 -27,40 -10,15 -22,31 -34,49 -12,17 -24,35 -36,52 -11,17 -23,33 -34,48 -10,15 -19,27 -26,37 -3,3 -3,7 -3,10 1,3 2,8 3,11 2,3 4,6 7,10 3,3 6,5 8,7l-14 14c-2,-2 -6,-5 -12,-11 -6,-6 -12,-13 -19,-22 -6,-8 -13,-16 -19,-24 -6,-8 -10,-15 -13,-19 -5,-10 -8,-18 -7,-26 0,-8 4,-17 12,-28 10,-12 17,-23 24,-32 7,-10 14,-18 19,-27 6,-8 11,-17 17,-24 5,-8 10,-17 17,-27 -17,-3 -33,-5 -49,-7 -16,-2 -32,-5 -48,-9 -16,-3 -32,-10 -48,-16 -16,-6 -31,-16 -48,-27 6,0 12,0 17,-1 5,-1 10,-2 13,-3 7,-5 15,-10 21,-14 6,-4 13,-10 19,-15 22,-19 44,-31 68,-37 24,-5 49,-4 77,2 8,2 17,6 28,10 10,4 19,9 26,14 8,-8 15,-18 19,-31 4,-11 5,-23 2,-31 -2,-3 -3,-7 -6,-10 -3,-3 -6,-7 -9,-10 -3,-3 -6,-7 -9,-10 -3,-3 -4,-5 -5,-6 1,0 2,-1 3,-2 2,-2 3,-3 4,-5 2,-2 3,-3 4,-5 2,-2 2,-2 3,-2l-1 1 1 -3zm-157 182c10,2 19,4 27,6 8,2 15,3 22,5 6,2 13,2 19,3 6,1 13,2 21,2 7,-9 15,-17 22,-26 6,-7 12,-15 17,-24 6,-8 10,-15 15,-21 -13,-3 -23,-4 -30,-3 -7,1 -12,1 -15,2 -12,2 -23,4 -31,9 -9,4 -16,10 -23,15 -7,6 -14,10 -20,17 -6,6 -14,11 -23,16l-1 -1 -1 0z"/>
  <circle class="fil16 str0" cx="16507" cy="6663" r="1725"/>
  <path class="fil17" d="M17549 8055c-290,215 -649,343 -1037,343 -298,0 -578,-75 -823,-207 8,-16 20,-34 36,-55 52,-69 191,-141 160,-190 -49,-75 72,-115 42,-185 -27,-64 -92,-61 -171,-215 -154,-299 15,-302 -105,-486 -74,-114 -3,-215 -36,-348l34 -32c241,-179 540,-285 862,-287 330,2 636,113 880,300l15 19c40,24 61,105 73,189 60,451 -173,483 -173,858 0,138 170,288 243,295l1 0z"/>
  <path class="fil3" d="M17576 8094c-152,112 -320,201 -503,262 -177,58 -365,90 -561,90 -150,0 -296,-19 -436,-54 -144,-36 -282,-90 -409,-159 -23,-12 -31,-40 -19,-63 0,-1 1,-2 1,-2 4,-9 10,-18 16,-27 7,-10 15,-22 23,-32 23,-30 57,-58 89,-85 35,-29 73,-48 70,-52 -44,-66 -11,-110 19,-153 11,-16 23,-31 19,-39 -7,-17 -21,-28 -38,-44 -35,-31 -80,-70 -132,-169 -90,-173 -78,-256 -69,-327 6,-45 11,-84 -35,-154 -52,-79 -45,-149 -38,-224 4,-44 9,-90 -3,-138 -4,-17 2,-33 13,-44l0 0 34 -32c2,-2 3,-3 6,-5 126,-93 268,-167 419,-218 147,-49 305,-76 469,-78l0 0 0 0c168,2 329,30 479,81 156,53 300,132 428,228 3,3 6,6 9,9l10 12c24,18 42,46 56,81 15,39 25,87 31,136 36,263 -24,391 -85,520 -44,94 -88,187 -88,344 0,48 28,101 65,146 48,58 106,100 137,103 25,3 44,25 41,51 -2,14 -9,26 -19,33l1 2 2 2zm-532 173c148,-49 286,-118 413,-202 -37,-24 -78,-59 -111,-99 -49,-59 -86,-132 -86,-204 0,-177 49,-281 98,-384 55,-116 109,-232 78,-468 -6,-43 -15,-84 -26,-115 -8,-20 -17,-36 -25,-41l0 0c-4,-3 -8,-6 -11,-10l-11 -15c-119,-90 -253,-162 -398,-211 -141,-48 -293,-75 -449,-76 -153,1 -302,27 -440,72 -142,48 -274,117 -393,203l-14 13c9,52 4,98 0,142 -6,58 -10,112 24,165 65,99 58,153 49,218 -8,57 -17,124 59,272 43,83 81,116 110,141 27,23 48,41 63,77 24,57 -3,93 -30,130 -12,17 -25,35 -17,48 42,65 -21,117 -89,173 -28,23 -57,48 -73,70 -2,3 -5,6 -7,10 108,54 223,98 344,127 132,33 271,51 414,51 186,0 365,-31 532,-85l-1 -2 -1 0z"/>
  <path class="fil4 str1" d="M16508 4873c492,0 937,199 1258,521 323,323 521,767 521,1258 0,492 -199,937 -521,1258 -323,323 -767,521 -1258,521 -492,0 -937,-199 -1258,-521 -323,-323 -521,-767 -521,-1258 0,-492 199,-937 521,-1258 323,-323 767,-521 1258,-521zm1200 580c-307,-307 -732,-498 -1200,-498 -469,0 -894,190 -1200,498 -307,307 -498,732 -498,1200 0,469 190,894 498,1200 307,307 732,498 1200,498 469,0 894,-190 1200,-498 307,-307 498,-732 498,-1200 0,-469 -190,-894 -498,-1200z"/>
  <path class="fil5" d="M16512 5443c480,3 906,236 1171,595 -144,194 -240,424 -275,674 -248,-194 -559,-311 -897,-313 -338,2 -649,119 -897,313 -34,-250 -132,-480 -275,-674 266,-359 691,-592 1171,-595l2 0z"/>
  <path class="fil6" d="M16516 5448c183,2 357,36 520,99l-24 391 -33 545c-145,-49 -300,-77 -461,-78 -150,1 -295,24 -432,67l-32 -502 -28 -434c153,-56 319,-86 491,-88l-1 1z"/>
  <path class="fil7" d="M17550 8060c-125,388 -250,776 -375,1164 -357,-241 -209,-766 -148,-1151 35,-220 71,-461 97,-683 16,-138 60,-280 58,-391 -3,-140 -24,-253 -73,-315 -157,-204 -366,-244 -376,-262l202 44c167,51 322,132 457,235l15 19c39,24 61,105 73,189 60,451 -173,483 -173,858 0,138 170,288 243,295l0 -2z"/>
  <path class="fil3" d="M17593 8076l-374 1162c-8,24 -34,37 -58,30 -4,-2 -8,-3 -11,-6l0 0c-339,-229 -260,-677 -194,-1054 10,-53 19,-105 24,-143 17,-106 34,-220 51,-340 17,-115 31,-230 44,-342 6,-58 18,-115 29,-171 16,-78 31,-153 29,-214 -2,-67 -7,-127 -19,-178 -10,-47 -25,-85 -44,-111 -112,-146 -254,-202 -319,-229 -31,-12 -51,-20 -60,-39 -12,-23 -3,-51 19,-63 10,-6 23,-7 33,-4l202 44c2,0 2,1 3,1l0 0c85,27 168,60 247,100 79,41 155,89 226,142 3,3 6,6 9,9l10 12c24,18 42,46 56,81 15,39 25,87 31,136 36,263 -24,391 -85,520 -44,94 -88,187 -88,344 0,48 28,101 65,146 48,58 106,100 137,103 25,3 44,25 41,51 -1,3 -2,7 -2,10l-2 2 -1 2zm-442 1071l341 -1057c-47,-23 -102,-66 -146,-119 -49,-59 -86,-132 -86,-204 0,-177 49,-281 98,-384 55,-116 109,-232 78,-468 -6,-43 -15,-84 -26,-115 -8,-20 -17,-36 -25,-41l0 0c-4,-3 -8,-6 -11,-10l-11 -15c-65,-49 -134,-93 -207,-131 -31,-16 -64,-31 -97,-45 31,27 60,59 89,97 29,37 49,87 62,147 12,57 19,122 20,195 2,71 -15,151 -31,234 -10,54 -22,111 -28,164 -13,111 -28,228 -44,344 -16,111 -34,228 -52,341 -9,54 -17,99 -24,145 -58,328 -127,714 104,922l-1 1 -1 0z"/>
  <polygon class="fil9" points="16719,6446 16978,6481 17330,6662 16967,6552 16856,6520 16719,6520 "/>
  <path class="fil15" d="M16512 5395c242,2 471,60 674,163 210,106 391,261 531,449 10,15 10,36 -1,50 -70,95 -129,199 -174,311 -44,109 -76,224 -92,344 -3,23 -24,38 -46,36 -7,-1 -15,-4 -20,-9l0 0c-123,-96 -261,-173 -411,-225 -145,-51 -300,-78 -461,-79 -161,1 -316,29 -461,79 -149,52 -288,129 -411,225 -18,14 -44,10 -58,-7 -5,-6 -8,-15 -9,-23 -17,-119 -48,-234 -92,-342 -45,-112 -105,-215 -174,-311 -11,-15 -10,-36 1,-50 139,-187 321,-342 530,-449 202,-103 432,-161 674,-163l0 0 0 0 -1 0zm636 236c-191,-98 -407,-153 -636,-154 -228,2 -445,57 -636,154 -190,97 -355,234 -484,401 67,94 123,196 167,304 38,94 67,194 86,296 115,-82 242,-148 379,-196 153,-53 317,-83 488,-84l0 0 0 0c171,2 336,31 488,84 136,48 264,114 379,196 19,-103 48,-202 86,-296 44,-108 100,-210 167,-304 -129,-167 -295,-304 -484,-401l-2 0zm568 425c-2,3 -5,6 -8,8m8 -8l0 0 0 0z"/>
  <path class="fil8" d="M16560 6517c461,0 684,111 595,603 -53,298 -227,608 -565,626 -336,19 -529,-315 -595,-624 -104,-484 96,-605 565,-605z"/>
  <path class="fil3" d="M16560 6470c241,0 422,31 534,129 115,101 154,265 106,529 -31,171 -99,346 -214,473 -98,107 -228,181 -394,190 -166,10 -299,-59 -403,-168 -123,-129 -202,-315 -240,-493 -56,-260 -27,-424 81,-527 106,-100 282,-134 528,-134l1 1 0 1zm473 198c-92,-81 -254,-106 -473,-106 -223,0 -380,27 -466,108 -83,78 -102,216 -54,440 36,164 106,334 217,449 85,90 196,146 331,139 139,-8 248,-70 330,-160 102,-113 165,-272 192,-428 41,-228 12,-365 -78,-444l0 2z"/>
  <path class="fil2" d="M16758 6313c0,111 -90,201 -201,201l0 0c-111,0 -200,-90 -200,-201l-23 -343 -33 -510c69,-10 139,-16 211,-17 102,1 201,11 296,31l-30 479 -22 358 1 1 0 1z"/>
  <path class="fil3" d="M16804 6313c0,68 -28,130 -73,174 -44,44 -106,73 -174,73 -68,0 -130,-28 -174,-73 -44,-44 -72,-106 -73,-174l-22 -340 -33 -510c-2,-24 16,-44 39,-48l0 0c36,-5 71,-10 108,-12 35,-3 71,-4 109,-4l0 0 0 0c52,0 104,3 154,9 52,6 102,14 153,24 23,5 38,27 36,49l-30 478 -22 357 0 0 2 -1 1 -1zm-138 109c28,-28 45,-66 45,-109l0 0c0,-1 0,-2 0,-3l22 -358 27 -439c-34,-6 -69,-11 -104,-15 -48,-5 -97,-8 -144,-9 -33,0 -67,2 -102,4 -20,2 -40,3 -60,6l31 467 22 340c0,2 1,3 1,6 0,43 17,81 45,109 28,28 66,45 109,45 43,0 81,-17 109,-45l1 1 -2 -1z"/>
  <path class="fil7" d="M16652 6217c0,52 -44,95 -95,95l0 0c-52,0 -95,-44 -95,-95l-10 -164 -16 -346c32,-5 66,-8 100,-8 48,0 96,6 141,15l-14 332 -10 171 -1 0z"/>
  <path class="fil10" d="M16698 6217c0,39 -16,74 -42,100 -26,26 -61,42 -100,42 -39,0 -74,-16 -100,-42 -26,-26 -42,-61 -42,-100l-10 -160c0,-1 0,-2 0,-3l-16 -344c-1,-24 16,-44 39,-48l0 0c17,-3 36,-4 53,-6 17,-2 35,-2 53,-2l0 0 0 0c26,0 51,2 76,4 25,3 51,6 75,12 23,5 39,27 36,50l-14 329 0 1 0 0 -10 168 0 0 2 0 1 -1zm-106 35c9,-9 15,-21 15,-35l0 0c0,-1 0,-2 0,-3l10 -171 0 0 12 -290c-10,-2 -18,-3 -27,-3 -23,-2 -44,-3 -66,-3 -15,0 -31,1 -47,2l-6 1 14 302 0 2 10 160c0,2 1,3 1,6 0,14 6,26 15,35 9,9 21,15 35,15 14,0 26,-6 35,-15l1 0 -2 -2z"/>
  <path class="fil3" d="M16299 6657c65,0 85,37 99,61 3,4 3,8 4,8 6,4 15,15 19,24 2,6 3,12 3,18 0,9 -3,16 -10,22 -5,4 -11,7 -21,8 -3,0 -7,2 -12,6 -8,5 -19,12 -41,20 -27,10 -56,8 -84,0 -27,-7 -52,-20 -77,-33 -6,-3 -12,-6 -17,-10 -19,-10 -37,-19 -50,-24 -10,-3 -15,-14 -11,-24 2,-6 8,-11 15,-12l72 -13c12,-6 25,-14 38,-23 24,-16 48,-31 72,-31l-1 2 1 1zm66 79c-10,-17 -24,-43 -66,-43 -13,0 -32,12 -52,25 -15,10 -29,19 -44,25 -2,1 -3,2 -5,2l-19 3 2 2c6,3 11,6 17,10 23,11 46,24 69,31 22,6 43,8 60,1 18,-6 27,-13 35,-17 9,-5 15,-9 24,-10 -2,-3 -3,-4 -3,-5 -7,-4 -11,-12 -17,-22l1 0 0 -1z"/>
  <path class="fil11" d="M16299 6674c3,0 6,0 8,1 19,10 32,31 32,56 0,36 -29,64 -64,64 -36,0 -64,-29 -64,-64 0,-5 1,-10 2,-14 31,-17 60,-42 85,-42l0 -1z"/>
  <path class="fil3" d="M16299 6646c1,0 3,0 6,0 2,0 3,0 6,1 5,1 10,2 14,5 14,8 24,19 32,32 8,14 13,30 13,47 0,26 -10,49 -27,65l0 0 0 0 0 0c-17,17 -40,27 -65,27 -26,0 -49,-10 -65,-27l0 0c-17,-17 -27,-40 -27,-65 0,-3 0,-6 1,-10 1,-3 1,-6 2,-10 2,-9 8,-16 15,-19 5,-3 13,-8 21,-13 1,0 2,-1 2,-1 26,-17 51,-31 77,-31l-1 0 -3 0zm6 69c-2,-3 -4,-6 -8,-10 -10,1 -27,11 -44,23 -1,1 -1,1 -2,1 -3,2 -6,4 -10,6 1,8 4,15 10,21 6,6 15,10 24,10 10,0 18,-3 24,-10l0 0c6,-6 10,-15 10,-24 0,-6 -2,-12 -4,-17l-1 0z"/>
  <path class="fil3" d="M16248 6511l180 23c16,2 30,10 40,23 9,10 15,25 14,40l0 0c0,2 0,3 -1,6l0 0c-2,16 -10,29 -21,38 -11,10 -26,15 -42,13 -1,0 -2,0 -3,0l0 0c-31,-3 -48,-10 -65,-16 -19,-7 -38,-15 -104,-15 -40,1 -64,11 -91,23 -15,6 -31,14 -52,20 -19,6 -40,-4 -47,-24 -5,-16 2,-33 15,-43l2 -1c44,-31 94,-69 160,-85 4,-2 10,-2 14,-1l0 0 1 -2 -2 0z"/>
  <path class="fil3" d="M16696 6748c-1,7 -2,16 -1,26 1,10 2,23 4,37 13,81 10,137 6,219 -1,12 -2,24 -2,37 10,13 21,32 26,52 6,22 6,44 -6,66 -11,21 -31,27 -57,35 -7,2 -15,5 -23,8 -16,6 -35,-2 -40,-18 -1,-2 -2,-4 -2,-6l0 0 -10 -60c-10,-57 -7,-99 -4,-144 2,-28 3,-57 3,-90l0 0c-1,-18 -2,-36 -3,-53 -2,-17 -3,-36 -6,-54 -5,-36 -7,-61 -6,-84 2,-24 6,-44 15,-61 0,-1 1,-2 1,-2 64,-123 119,-127 221,-135 20,-2 43,-3 69,-6 4,-1 10,0 14,2 32,8 62,18 90,30 28,12 54,27 78,44 14,10 17,30 7,44 -8,11 -23,16 -36,11l0 0 -10 -3c-51,-17 -78,-26 -139,-27 -52,1 -99,10 -133,36 -27,20 -45,51 -51,98l-1 1 -1 -1zm-45 353c-1,-1 -2,-2 -2,-2 1,11 2,23 4,36l4 25c6,-2 10,-2 10,-3 3,-5 2,-13 1,-21 -4,-17 -14,-31 -19,-36l0 0 1 1 0 -1zm-15 -377l0 2c3,-16 6,-30 11,-43 -1,2 -2,3 -2,4 0,1 -1,1 -1,2 -5,10 -8,21 -9,36l0 -1z"/>
  <path class="fil3" d="M16542 7156c4,17 11,29 21,36 4,3 9,5 13,6 3,0 7,-1 10,-3 7,-4 14,-15 19,-30l57 19c-10,29 -25,48 -43,60 -15,10 -31,14 -48,13 -16,-2 -31,-7 -44,-18 -19,-15 -35,-38 -42,-69l57 -15 1 0 -1 0z"/>
  <path class="fil3" d="M16441 7341c9,-4 17,-9 24,-13 37,-23 65,-38 99,4 15,17 30,7 44,-2 16,-10 31,-21 51,-21 20,0 32,10 48,24 13,11 30,26 57,31 1,0 2,0 3,1 18,3 26,10 23,30 0,2 0,2 -1,3 -3,13 -10,18 -19,19 -3,1 -6,2 -10,1 -1,0 -2,0 -3,-1 -1,0 -1,0 -2,0l-1 0c-4,-1 -9,-1 -13,-2 -26,-3 -72,-10 -79,-10 -10,0 -23,3 -36,5 -14,3 -27,6 -44,6 -15,1 -28,-2 -41,-4 -10,-2 -19,-3 -27,-3 -9,0 -17,2 -27,3 -9,2 -19,3 -31,4 -1,0 -2,0 -2,0l-44 3 0 0 0 0 -15 2c-15,2 -27,-10 -29,-24 -1,-10 5,-22 15,-26 6,-3 31,-17 58,-31l0 -1 3 0z"/>
  <path class="fil12" d="M16630 7382c31,-5 68,-10 68,5 0,50 -59,76 -114,77 -57,2 -119,-29 -119,-71 0,-15 37,-11 68,-9 16,3 32,7 48,6 17,-1 33,-5 49,-8z"/>
  <path class="fil3" d="M16625 7346l4 -1c16,-2 33,-5 48,-5 35,0 58,11 58,48 0,37 -19,65 -48,84 -28,19 -66,29 -102,30l-1 0 -3 0 0 0 0 0c-33,0 -69,-10 -97,-24 -33,-19 -56,-47 -57,-82l0 -1 0 -1 0 0 0 0c0,-34 24,-46 58,-48 16,-1 34,1 51,3 1,0 2,0 3,1 5,1 10,2 13,2 10,2 20,3 27,3l0 0c10,0 21,-3 32,-5 4,-1 9,-2 10,-2 1,0 1,0 2,0l0 0 -1 -1 2 0zm-41 81c11,0 23,-2 33,-4 -10,2 -22,3 -34,4l-1 0 -1 0 0 0 2 0 0 0 1 0z"/>
  <path class="fil3" d="M16404 6680c3,6 6,13 7,20l0 0 0 0c2,7 2,15 2,21 0,3 0,8 -1,12 -1,4 -2,8 -2,12 -3,13 -15,22 -29,20 -5,-1 -10,-3 -14,-6 -3,-2 -6,-5 -8,-8 -2,-2 -2,-3 -3,-5l-1 -2 0 0 -2 -2c-1,-1 -1,-2 -2,-3l0 0c-1,-2 -2,-5 -3,-9 -4,-14 -11,-34 -42,-34 -10,0 -30,11 -48,24 -10,6 -22,14 -32,19 8,7 10,19 6,29 -4,11 -16,17 -27,16l0 0 -56 -9c-3,-1 -6,-2 -10,-3 -9,-4 -17,-10 -24,-13 -7,-3 -15,-7 -20,-9 -14,-4 -21,-19 -16,-32 2,-7 7,-12 14,-15l0 0 96 -45c1,0 1,-1 2,-1 7,-3 17,-8 27,-13 1,0 2,-1 2,-1 64,-31 130,-64 181,37l0 0 0 0 -1 -2 1 2z"/>
  <polygon class="fil9" points="16621,6800 16668,6800 16668,7095 16621,7095 "/>
  <path class="fil3" d="M16845 6694c-43,0 -57,26 -66,43 -5,10 -10,17 -17,22l0 0c-1,1 -2,2 -3,5 10,2 16,5 24,10 6,4 16,10 35,17 19,7 39,5 60,-1 23,-6 47,-18 69,-31 5,-3 10,-6 17,-9l3 -2 -19 -3c-2,0 -3,-1 -5,-2 -15,-6 -31,-16 -44,-25 -20,-13 -40,-25 -52,-25l1 -1 0 1zm-99 24c13,-24 35,-61 99,-61 24,0 48,15 72,31 13,8 26,17 38,23l72 13c6,1 12,6 15,12 3,10 -2,20 -11,24 -14,5 -31,15 -51,24 -5,3 -10,6 -17,10 -24,13 -51,25 -77,33 -28,8 -57,10 -84,0 -22,-8 -32,-15 -41,-20 -5,-3 -8,-5 -12,-6 -9,-1 -16,-3 -21,-8l0 0c-7,-6 -10,-14 -10,-22 0,-6 2,-12 3,-18 4,-10 13,-20 19,-24l0 0 0 0c1,-1 2,-3 4,-8l0 -2 1 -1z"/>
  <path class="fil13" d="M16791 6779l56 54c6,24 -2,64 -8,100 -7,44 -12,85 13,90 31,6 16,-73 15,-92 -3,-44 -3,-78 44,-107 14,-9 117,-49 44,-68 -46,-12 -153,18 -164,22l0 2z"/>
  <path class="fil11" d="M16845 6674c-3,0 -6,0 -8,1 -19,10 -32,31 -32,56 0,36 29,64 64,64 36,0 64,-29 64,-64 0,-5 -1,-10 -2,-14 -31,-17 -60,-42 -85,-42l0 -1z"/>
  <path class="fil3" d="M16839 6646c3,0 5,0 6,0 27,0 52,16 78,32 7,4 15,10 21,13 7,3 13,10 15,19 1,3 2,6 2,10l0 1c1,3 1,7 1,10 0,25 -10,49 -27,65l0 0 0 0 0 0c-17,17 -40,27 -65,27 -26,0 -49,-10 -65,-27l0 0 0 0c-17,-17 -27,-40 -27,-65 0,-17 4,-33 13,-47 8,-14 19,-24 32,-33 3,-3 9,-4 14,-5 2,0 3,0 6,-1l-1 1 -2 0zm7 59c-3,3 -6,6 -8,10 -3,5 -4,10 -4,17 0,10 3,18 10,24l0 0c6,6 15,10 24,10 10,0 18,-3 24,-10l0 0c5,-5 9,-12 10,-21 -3,-2 -7,-4 -10,-6 -18,-11 -36,-23 -45,-23l1 -1 0 -1z"/>
  <path class="fil3" d="M16733 6700c2,-6 4,-13 7,-19 52,-102 119,-68 183,-36 10,5 19,10 27,13 1,0 1,1 2,1l95 44c6,3 11,8 15,15 5,14 -2,28 -16,33 -6,2 -13,5 -20,9 -7,3 -15,8 -24,13 -3,2 -6,3 -10,3l-56 9 0 0c-11,2 -23,-4 -27,-16 -4,-10 -2,-22 6,-29 -11,-6 -23,-13 -32,-19 -19,-12 -37,-24 -48,-24 -31,0 -37,21 -42,35l0 0c-2,3 -2,7 -3,9l0 0c-1,1 -1,2 -2,3 0,1 0,0 -1,2l0 0 0 0c0,0 0,1 -1,2l0 0c-1,2 -2,3 -2,4 -2,3 -5,6 -8,8l0 0 0 0c-4,3 -9,5 -14,6 -13,2 -25,-6 -29,-20 -1,-4 -2,-8 -2,-12 -1,-4 -1,-9 -1,-12 0,-6 1,-14 3,-21l-2 -1 -1 0z"/>
  <path class="fil14" d="M14583 5493c-14,-2 -27,-1 -41,3 -14,3 -27,10 -38,20 -15,12 -24,28 -29,47 -4,19 -3,37 4,56 4,10 10,20 19,30 9,10 19,17 31,25 11,7 23,14 36,19 13,6 25,10 37,13 21,5 39,7 56,7 17,-1 33,-4 50,-12 15,-7 27,-18 37,-31 10,-15 15,-29 13,-44 -2,-17 -6,-31 -14,-44 -8,-12 -17,-23 -27,-31 -2,-2 -2,-7 2,-17 3,-10 6,-20 10,-31 4,-10 9,-20 13,-29 4,-9 7,-11 8,-10 10,10 17,19 23,30 6,10 10,23 13,35 5,19 7,37 6,54 0,17 -2,34 -6,50 -3,16 -9,31 -15,44 -6,15 -13,28 -20,41 -17,31 -39,54 -67,66 -27,12 -57,17 -89,14 -17,-2 -33,-5 -49,-10 -16,-5 -31,-13 -44,-23 -13,-10 -24,-21 -35,-34 -10,-13 -18,-28 -23,-45 -3,-10 -5,-19 -6,-29 -1,-9 -2,-18 -1,-27 1,-9 2,-17 4,-27 2,-10 4,-19 7,-30 3,-11 6,-23 11,-33 4,-10 10,-23 15,-35 10,-23 27,-44 48,-62 22,-18 48,-29 78,-32 2,0 2,5 0,14 -2,9 -3,19 -7,30 -3,13 -7,27 -11,43l0 -6 -1 2 1 1zm349 -381c11,-4 24,-6 36,-3 11,2 23,6 33,11 10,6 20,14 29,23 9,10 17,19 23,31 3,6 6,13 7,20 2,7 2,15 3,21 0,6 0,13 -1,19 -1,6 -2,10 -2,15 -2,10 -6,22 -13,34 -6,12 -14,24 -23,34 -10,10 -19,19 -31,25 -11,6 -24,10 -36,7 -8,-1 -14,-2 -17,-3 -3,-2 -5,-3 -6,-5 -1,-2 -1,-3 1,-6l28 -62c9,4 17,7 24,9 6,2 13,2 19,1 6,-1 10,-4 14,-10 3,-7 3,-15 2,-23 -2,-9 -9,-19 -21,-31 -8,-7 -17,-14 -28,-20 -11,-6 -23,-10 -36,-13 -12,-2 -24,-2 -37,0 -12,2 -23,8 -31,18 -10,10 -17,22 -22,32 -5,10 -9,19 -10,23 15,12 30,24 44,36 15,11 27,23 38,31 11,10 21,17 29,24 8,6 12,10 14,11 1,1 -2,5 -7,14 -5,9 -11,17 -18,27 -6,10 -13,19 -19,27 -6,8 -9,12 -9,12 -1,0 -3,-2 -10,-7 -6,-5 -13,-11 -23,-19 -9,-8 -19,-17 -31,-27 -11,-10 -23,-20 -36,-31 -28,-24 -59,-51 -94,-82 -12,-2 -23,-3 -33,-3 -9,-2 -17,-2 -24,-3 -7,-1 -12,-2 -15,-2 -1,0 0,-3 3,-9 3,-6 7,-12 12,-20 5,-8 10,-17 17,-25 6,-10 12,-18 18,-25 6,-8 10,-15 14,-19 3,-5 6,-8 6,-9l0 -1c5,-8 10,-16 13,-23 3,-6 8,-13 11,-19 3,-6 7,-10 10,-15 7,-10 16,-17 26,-24 10,-7 20,-12 31,-15 10,-3 22,-3 32,-1 10,3 21,10 31,19 7,9 11,18 13,27 1,9 2,15 2,18 1,6 1,13 0,18 -1,3 -1,6 -2,10 5,-6 10,-13 16,-19 5,-5 10,-10 17,-15 6,-5 13,-9 19,-10l-2 2 3 0zm-85 71c-1,-10 -4,-18 -10,-25 -5,-7 -11,-13 -19,-17 -8,-4 -17,-6 -26,-6 -10,0 -19,3 -27,10 -7,5 -14,10 -19,18 -5,6 -9,12 -11,16 10,9 23,19 37,31 15,12 31,26 49,40 2,-3 5,-8 8,-13 3,-5 6,-10 9,-17 3,-6 5,-12 7,-19 2,-6 3,-12 2,-17l0 -1 1 1zm314 -445c0,0 6,6 15,18 10,11 23,27 37,44 15,18 31,37 48,58 17,21 34,40 48,59 15,18 27,34 38,47 10,13 17,20 18,23 1,1 -3,5 -10,12 -6,7 -15,15 -23,24 -9,9 -17,16 -24,23 -7,6 -10,10 -10,10 -1,0 -3,-3 -10,-10 -6,-6 -12,-15 -21,-26 -8,-10 -17,-23 -28,-36 -10,-13 -21,-27 -31,-40 -12,9 -21,19 -27,31 -6,12 -10,26 -10,40 -1,15 2,30 8,44 6,16 16,31 29,46 1,1 -3,5 -10,12 -6,7 -15,15 -23,24 -10,10 -21,22 -32,34 -3,-3 -6,-7 -9,-11 -3,-4 -6,-9 -9,-14 -3,-5 -6,-11 -9,-18 -3,-10 -6,-23 -7,-37 -2,-15 -2,-29 0,-42 1,-6 2,-13 3,-19 2,-6 3,-10 5,-15 2,-5 4,-10 7,-15 -2,2 -6,2 -10,3 -3,1 -7,2 -11,2 -4,1 -10,1 -17,0 -10,0 -19,-3 -30,-8 -10,-5 -19,-12 -27,-22 -8,-10 -15,-20 -18,-33 -3,-13 -4,-27 -2,-44 2,-15 10,-30 20,-44 11,-15 23,-28 36,-40 15,-15 31,-28 47,-41 5,-4 10,-9 16,-14 6,-5 10,-10 15,-14 6,-5 10,-10 16,-15l2 0 -1 3zm4 214c6,-2 13,-6 20,-10 6,-4 11,-8 15,-10 -8,-10 -16,-20 -23,-30 -7,-10 -14,-18 -19,-25l-18 -23 -13 -17c-3,-5 -8,-10 -11,-15 -3,-5 -7,-9 -10,-12 -3,3 -8,7 -13,12 -5,5 -10,9 -13,13 -6,6 -10,13 -10,22 -2,9 -1,17 1,26 2,9 4,17 9,25 4,9 9,15 14,21 10,11 23,19 37,23 15,4 27,4 37,0l0 -1 -1 1zm90 -282c0,-1 6,-4 19,-10 13,-6 29,-15 48,-24 19,-10 38,-19 59,-30 20,-10 37,-19 52,-27 10,-5 21,-10 33,-17 12,-6 25,-13 38,-19 13,-6 27,-13 39,-19 13,-6 24,-12 35,-17 10,-5 18,-9 24,-11 6,-3 10,-4 10,-4l1 2c1,5 1,10 2,16 0,6 1,11 1,17 0,6 0,10 0,16 0,5 -1,9 -1,10 -1,2 -2,2 -5,1 -6,-3 -14,-6 -22,-9 -8,-2 -17,-2 -26,-1 -3,1 -6,2 -11,4 -5,2 -11,5 -18,9 -7,3 -15,7 -23,11 -8,4 -17,9 -25,13 5,10 12,22 20,37 9,16 18,33 27,52 10,19 20,38 31,58 10,19 19,37 28,53 9,17 16,31 22,41 6,11 10,18 10,20 0,1 -2,2 -5,5 -3,3 -9,6 -15,10 -6,4 -12,9 -19,13 -7,4 -13,9 -19,12 -6,3 -10,6 -15,10 -4,3 -6,3 -6,3l-140 -274c-17,9 -33,17 -48,24 -15,8 -23,13 -27,16 -6,6 -11,13 -15,21 -3,8 -6,15 -6,23 -1,3 -2,4 -3,3 -2,-2 -5,-3 -10,-6 -4,-3 -8,-6 -13,-10 -4,-3 -9,-7 -14,-10 -4,-3 -9,-7 -12,-10 0,-1 -1,-1 -2,-1l1 -2 0 1zm456 -202c9,-5 19,-10 29,-16 10,-6 21,-10 31,-15 10,-5 23,-10 33,-13 11,-3 23,-6 32,-8 6,-1 12,1 20,4 8,3 14,7 19,10 4,3 10,10 21,19 10,10 21,21 34,34 13,13 27,27 41,43 15,15 30,31 44,45 15,15 28,29 40,43 13,13 23,24 31,33 3,3 6,5 10,5 3,0 8,0 11,-2 3,-1 7,-3 10,-5 3,-2 6,-4 9,-6l10 16c-2,2 -6,5 -14,10 -7,4 -15,10 -24,14 -10,5 -18,10 -27,15 -9,4 -16,8 -22,10 -10,3 -19,4 -27,2 -8,-2 -16,-7 -25,-17 -10,-11 -19,-22 -27,-31 -8,-9 -15,-17 -23,-24 -7,-7 -14,-15 -21,-21 -7,-6 -15,-15 -23,-23 -6,16 -11,31 -17,47 -5,16 -10,31 -18,46 -7,15 -15,30 -24,44 -10,15 -22,28 -36,42 2,-6 2,-12 3,-17 1,-5 0,-10 -1,-14 -3,-8 -6,-16 -10,-23 -3,-7 -6,-15 -10,-23 -15,-24 -23,-49 -23,-73 -1,-24 5,-49 17,-74 3,-7 9,-16 15,-26 6,-10 12,-17 18,-23 -6,-10 -15,-18 -26,-24 -10,-6 -21,-10 -31,-7 -3,1 -7,2 -11,3 -4,2 -9,4 -12,6 -4,2 -8,4 -10,6 -3,2 -6,3 -7,3 0,-1 -1,-2 -2,-3 -2,-2 -3,-3 -4,-5 -2,-2 -3,-3 -4,-5 -2,-2 -2,-3 -2,-3l1 0 1 0zm149 188c4,-10 8,-17 11,-24 3,-7 6,-14 10,-20 3,-6 5,-12 7,-19 2,-6 4,-13 6,-20 -7,-9 -15,-17 -22,-26 -6,-7 -13,-15 -19,-22 -7,-7 -13,-13 -18,-18 -5,12 -9,22 -10,28 -1,6 -2,12 -2,15 -1,12 0,23 3,32 3,10 6,17 10,25 4,8 9,15 13,23 4,8 9,16 11,25l-1 0 0 2zm572 -340c0,1 1,9 3,24 2,15 3,35 6,58 2,23 4,48 7,75 3,27 5,52 7,76 2,24 4,44 6,60 2,17 2,26 3,29 0,1 -5,2 -15,5 -10,2 -20,4 -32,6 -11,2 -23,4 -32,6 -10,2 -15,2 -15,2 -1,-1 -2,-5 -2,-14 -1,-9 -2,-19 -3,-32 -1,-14 -2,-28 -3,-44 -2,-17 -3,-33 -3,-51 -15,1 -29,4 -41,10 -12,6 -23,16 -31,27 -9,11 -15,26 -18,42 -3,17 -4,35 -2,54 0,1 -5,2 -15,5 -10,2 -20,5 -32,7 -14,3 -30,6 -46,10 0,-4 -1,-10 -1,-15 0,-5 0,-10 1,-17 1,-6 2,-12 3,-19 3,-10 7,-23 15,-36 7,-13 15,-24 23,-35 4,-5 9,-10 13,-14 4,-3 9,-7 13,-10 4,-3 10,-6 14,-9 -3,0 -6,-2 -10,-3 -3,-2 -6,-3 -10,-5 -4,-2 -9,-5 -15,-10 -8,-6 -15,-13 -20,-23 -6,-10 -10,-21 -10,-33 -2,-12 -1,-24 3,-37 3,-13 11,-25 23,-37 10,-10 24,-19 42,-25 17,-6 35,-10 52,-15 20,-3 40,-6 62,-8 6,-1 14,-2 21,-2 7,-1 15,-2 20,-3 7,-1 15,-2 22,-3l1 1 -1 2zm-116 180c6,2 15,3 23,3 8,0 15,0 19,0 -1,-13 -2,-26 -3,-37 -1,-11 -2,-23 -2,-31l-2 -30 -2 -21c-1,-6 -1,-12 -2,-19 -1,-6 -2,-11 -2,-17 -5,1 -10,2 -17,3 -7,1 -13,2 -18,3 -8,2 -15,6 -21,11 -6,6 -10,14 -14,22 -3,8 -6,17 -7,26 -2,10 -2,17 -1,24 2,15 8,29 17,39 10,11 20,19 31,21l1 2 -2 1zm811 -85c0,1 -2,8 -4,23 -3,15 -6,34 -11,57 -5,23 -10,48 -15,73 -6,27 -10,51 -15,75 -5,24 -9,44 -12,60 -3,17 -6,26 -6,28 0,1 -5,1 -15,0 -10,-1 -21,-2 -32,-3 -11,-2 -23,-3 -33,-4 -10,-2 -15,-2 -15,-3 0,-1 2,-8 4,-20 3,-12 6,-28 10,-47 4,-19 9,-38 14,-60 5,-21 10,-41 14,-59 -10,3 -24,7 -39,11 -15,4 -31,10 -46,14 -16,5 -31,10 -44,13 -14,4 -24,7 -31,10 -5,26 -10,47 -13,65 -3,17 -6,27 -6,29 0,1 -5,1 -15,0 -10,-1 -21,-2 -32,-3 -11,-2 -23,-3 -33,-4 -10,-2 -15,-2 -15,-2 0,-1 1,-4 2,-12 2,-7 4,-17 6,-29 3,-11 6,-25 10,-40 3,-15 7,-31 10,-46 9,-36 18,-78 30,-123 -4,-11 -9,-22 -12,-31 -3,-9 -6,-16 -9,-23 -3,-7 -4,-11 -4,-14 0,-1 2,-1 5,-1 3,0 9,0 15,0 6,0 13,1 21,2 8,1 15,2 23,3 19,3 40,5 65,9 0,1 -2,6 -3,19 -2,12 -6,28 -10,47 -4,19 -9,40 -13,64 -5,23 -10,46 -15,69 10,-3 23,-6 37,-10 15,-3 29,-8 44,-12 15,-4 30,-9 44,-12 15,-3 26,-7 36,-10 2,-6 3,-13 4,-18 2,-5 3,-10 3,-13l3 -10c-4,-11 -9,-22 -12,-31 -3,-9 -6,-16 -9,-23 -3,-7 -4,-11 -4,-14 0,-1 2,-1 5,-1 3,0 9,0 15,0 6,0 13,1 20,2 8,1 15,2 23,3 19,3 40,5 65,9l-1 0 0 -2zm369 452c-4,3 -10,5 -21,7 -10,2 -25,5 -46,8 -10,2 -19,2 -27,1 -8,-2 -15,-3 -20,-6 -6,-3 -10,-6 -15,-10 -4,-3 -8,-8 -10,-12 -3,-3 -6,-14 -12,-30 -6,-16 -11,-34 -18,-54 -6,-20 -12,-40 -18,-58 -6,-19 -10,-33 -13,-43 -6,16 -13,31 -19,46 -6,15 -12,28 -17,40 -5,12 -10,22 -12,30 -3,8 -5,12 -6,14 0,1 -5,0 -15,-3 -10,-3 -20,-6 -31,-10 -11,-3 -22,-7 -31,-10 -10,-3 -15,-5 -15,-6 0,-1 2,-4 4,-11 3,-7 7,-16 11,-27 5,-10 10,-24 17,-37 6,-15 13,-29 19,-44 15,-34 32,-72 52,-115 -2,-13 -4,-24 -6,-34 -2,-9 -3,-17 -3,-24 -1,-7 -2,-12 -2,-15 0,-1 2,-1 5,0 3,1 8,2 14,3 6,2 12,3 20,6 7,2 15,4 23,7 18,6 39,13 62,21 0,1 -2,3 -4,10 -3,6 -6,15 -10,26 -4,10 -10,23 -15,37 -6,15 -12,29 -19,44 10,-5 23,-10 37,-18 15,-6 30,-13 44,-19 15,-6 27,-11 39,-16 11,-5 19,-8 23,-10 3,-2 9,-2 14,-2 5,0 10,0 15,1 5,1 10,2 14,3 4,2 7,3 10,5 2,2 4,5 7,9 3,4 4,8 6,12 2,4 2,8 3,11 1,3 0,6 -2,7 -2,2 -5,3 -10,6 -5,2 -10,5 -17,8 -6,3 -12,6 -18,8 -6,2 -10,4 -13,4 -6,2 -10,2 -11,1 -2,-1 -3,-3 -6,-10 -3,-6 -6,-10 -10,-17 -4,-6 -8,-9 -11,-10 -2,-1 -5,0 -10,2 -5,2 -10,4 -17,7 -6,3 -12,5 -18,8 -6,3 -10,5 -12,6 -3,2 -3,3 -3,7 1,3 3,10 6,17 2,3 3,10 7,21 3,10 9,24 14,40 5,15 10,31 17,49 6,17 12,34 17,48 6,15 10,27 15,37 4,10 7,16 10,17 2,2 4,3 8,3 3,0 7,0 11,0 4,-1 8,-1 11,-2 3,-1 7,-2 10,-2 1,2 2,3 2,6 0,2 0,3 1,5l1 4z"/>
  <path class="fil14" d="M17627 5030c-28,-23 -45,-49 -52,-78 -7,-29 -6,-59 3,-90 4,-17 10,-31 19,-46 8,-15 18,-27 31,-38 11,-10 25,-20 40,-27 15,-7 31,-12 49,-15 10,-2 20,-2 29,-1 9,1 18,2 26,4 9,2 17,6 25,10 9,3 17,8 27,12 10,5 21,10 31,17 10,6 20,14 31,21 13,10 24,21 35,35 10,14 18,29 24,45 6,17 10,33 10,51 1,17 -2,35 -7,51 -5,15 -13,31 -22,44 -10,14 -20,26 -32,37 -12,10 -26,19 -40,26 -15,6 -30,10 -46,10 -19,1 -37,0 -54,-3 -17,-3 -33,-9 -48,-15 -15,-6 -29,-15 -41,-23 -13,-9 -25,-18 -37,-27l-1 1 0 -1zm213 -48c6,-10 14,-23 21,-36 7,-13 13,-26 17,-39 4,-14 6,-27 6,-41 0,-14 -4,-27 -11,-42 -10,-17 -23,-30 -40,-37 -17,-8 -36,-10 -56,-6 -10,2 -22,6 -32,13 -10,7 -21,15 -31,24 -10,10 -18,20 -26,31 -8,11 -15,23 -20,35 -9,19 -15,37 -17,53 -3,17 -2,33 2,51 4,16 12,31 24,43 12,12 26,19 41,21 15,2 28,0 40,-4 12,-4 24,-10 34,-17 10,-7 19,-16 27,-25 8,-10 15,-18 20,-27l0 2 2 1zm490 275c0,0 -6,6 -17,16 -11,10 -25,24 -43,39 -17,16 -36,32 -57,51 -20,18 -39,36 -57,51 -18,16 -33,30 -45,40 -12,10 -19,17 -22,19 -1,1 -5,-2 -12,-9 -8,-6 -16,-14 -24,-22 -9,-8 -17,-16 -24,-23 -7,-7 -10,-10 -10,-10 0,0 3,-2 7,-6 4,-4 10,-10 18,-16 7,-6 17,-14 26,-23 10,-9 20,-17 31,-27 -4,-5 -11,-13 -21,-24 -10,-10 -19,-22 -31,-34 -10,-11 -19,-23 -28,-32 -9,-10 -14,-16 -17,-19l-1 -1c-19,18 -36,33 -49,44 -13,11 -20,18 -23,19 -1,1 -5,-2 -12,-9 -8,-6 -16,-14 -24,-22 -9,-8 -17,-16 -24,-23 -7,-7 -10,-10 -10,-10 0,-1 3,-3 9,-9 6,-5 13,-11 23,-19 10,-8 19,-17 31,-27 11,-10 24,-20 36,-31 28,-24 60,-52 97,-82 3,-12 6,-23 9,-32 2,-9 5,-17 7,-24 2,-7 3,-11 4,-14 0,-1 2,0 4,2 3,2 6,5 11,9 5,3 10,9 16,14 6,5 11,10 17,16 14,13 30,28 48,45 0,0 -5,5 -15,14 -10,9 -22,19 -36,32 -15,13 -31,27 -48,44 -18,17 -36,31 -52,47 4,4 10,12 19,23 9,10 17,21 27,32 10,11 19,23 28,32 10,10 16,19 22,24l65 -57c10,-10 21,-17 31,-25 3,-12 6,-23 9,-32 2,-9 5,-17 7,-24 2,-7 3,-11 4,-14 0,-1 2,0 4,2 3,2 6,5 11,9 5,3 10,9 16,14 6,5 11,10 17,16 14,13 30,28 48,45l-2 2 -1 -1zm72 132c7,8 14,17 22,25 7,10 15,19 22,28 7,10 13,20 19,31 6,10 10,21 14,31 2,6 2,12 -1,20 -2,8 -4,15 -7,21 -2,4 -7,12 -15,24 -7,11 -16,24 -27,40 -10,15 -22,31 -34,49 -12,17 -24,35 -36,52 -11,17 -23,33 -34,48 -10,15 -19,27 -26,37 -3,3 -3,7 -3,10 1,3 2,8 3,11 2,3 4,6 7,10 3,3 6,5 8,7l-14 14c-2,-2 -6,-5 -12,-11 -6,-6 -12,-13 -19,-22 -6,-8 -13,-16 -19,-24 -6,-8 -10,-15 -13,-19 -5,-10 -8,-18 -7,-26 0,-8 4,-17 12,-28 10,-12 17,-23 24,-32 7,-10 14,-18 19,-27 6,-8 11,-17 17,-24 5,-8 10,-17 17,-27 -17,-3 -33,-5 -49,-7 -16,-2 -32,-5 -48,-9 -16,-3 -32,-10 -48,-16 -16,-6 -31,-16 -48,-27 6,0 12,0 17,-1 5,-1 10,-2 13,-3 7,-5 15,-10 21,-14 6,-4 13,-10 19,-15 22,-19 44,-31 68,-37 24,-5 49,-4 77,2 8,2 17,6 28,10 10,4 19,9 26,14 8,-8 15,-18 19,-31 4,-11 5,-23 2,-31 -2,-3 -3,-7 -6,-10 -3,-3 -6,-7 -9,-10 -3,-3 -6,-7 -9,-10 -3,-3 -4,-5 -5,-6 1,0 2,-1 3,-2 2,-2 3,-3 4,-5 2,-2 3,-3 4,-5 2,-2 2,-2 3,-2l-1 1 1 -3zm-157 182c10,2 19,4 27,6 8,2 15,3 22,5 6,2 13,2 19,3 6,1 13,2 21,2 7,-9 15,-17 22,-26 6,-7 12,-15 17,-24 6,-8 10,-15 15,-21 -13,-3 -23,-4 -30,-3 -7,1 -12,1 -15,2 -12,2 -23,4 -31,9 -9,4 -16,10 -23,15 -7,6 -14,10 -20,17 -6,6 -14,11 -23,16l-1 -1 -1 0z"/>
 </g>
</svg>
