<?xml version="1.0" encoding="UTF-8"?>
<!DOCTYPE svg PUBLIC "-//W3C//DTD SVG 1.1//EN" "http://www.w3.org/Graphics/SVG/1.1/DTD/svg11.dtd">
<!-- Creator: CorelDRAW X6 -->
<svg xmlns="http://www.w3.org/2000/svg" xml:space="preserve" width="225.213mm" height="134.959mm" version="1.1" style="shape-rendering:geometricPrecision; text-rendering:geometricPrecision; image-rendering:optimizeQuality; fill-rule:evenodd; clip-rule:evenodd"
viewBox="0 0 22521 13496"
 xmlns:xlink="http://www.w3.org/1999/xlink">
 <defs>
  <style type="text/css">
   <![CDATA[
    .fil0 {fill:#1C1F2C}
    .fil1 {fill:#EFEFEF}
    .fil3 {fill:#1C1F2C;fill-rule:nonzero}
    .fil2 {fill:#EFEFEF;fill-rule:nonzero}
   ]]>
  </style>
 </defs>
 <g id="Слой_x0020_1">
  <metadata id="CorelCorpID_0Corel-Layer"/>
  <rect class="fil0" x="20" y="-28" width="22500" height="13500"/>
  <polygon class="fil1" points="11238,-28 22520,-28 22520,13472 11238,13472 "/>
  <rect class="fil0" x="125" y="1382" width="11107" height="11107"/>
  <rect class="fil1" x="11233" y="1382" width="11107" height="11107"/>
  <path class="fil2" d="M6540 4297c0,152 -436,135 -512,196l159 382c-85,31 -51,-30 -139,-102 -141,-117 -696,128 -849,199 -152,72 -269,132 -352,181 -251,147 -143,186 116,152 143,-17 308,-53 383,-53l93 0c75,0 134,8 174,26 16,-8 33,-12 52,-12l54 0c0,44 67,66 199,66l13 27c-17,9 -30,14 -40,14 0,17 50,53 148,106l27 93 0 93c-20,74 -73,161 -157,259 -199,230 -1123,1043 -1377,1209l0 -13 40 -54 0 -12 -229 173 0 27c54,-45 95,-68 120,-68 -292,241 -545,423 -759,547l-27 -13c-75,50 -152,90 -227,119 -77,-39 -118,-64 -119,-80 195,-157 292,-242 292,-253l0 -40 -12 0c-46,0 -135,53 -267,161 -17,0 -27,-9 -27,-27 354,-283 813,-618 1348,-1040 106,-83 203,-163 293,-241 261,-227 1008,-838 147,-657 -144,30 -309,81 -494,150l-13 0 0 -27c37,0 77,-22 119,-66l0 -13c-114,17 -190,27 -227,27 -25,-2 -47,-28 -66,-82 -272,0 -221,-308 -100,-480 115,-163 302,-308 506,-427 235,-139 490,-244 674,-308 232,-80 434,-139 613,-163 185,-27 248,-39 420,22l2 0 0 3zm-1566 717l27 0c17,0 190,-80 522,-241l0 -27c-63,0 -246,89 -548,267zm-453 306l0 40 40 0 0 -13c0,-18 -9,-27 -27,-27l-14 0 0 -1zm-119 106l0 54c4,17 26,36 66,52l0 -13c-26,-39 -39,-70 -39,-94l-27 0zm119 0l0 14c51,62 109,93 174,93l12 0 0 -26c-86,-54 -139,-82 -159,-82l-27 0 -1 0 0 1zm-840 1962l0 27 66 0c260,-180 443,-317 548,-415l-14 0c-12,0 -208,129 -587,387l-14 0 0 1 0 1zm-227 333c3,17 11,27 27,27 103,-27 419,-258 947,-693l-27 0c-212,140 -478,331 -800,573 -75,62 -124,93 -147,93l0 1zm800 -415l14 0c40,-17 63,-34 68,-52l-13 0c-40,17 -63,35 -68,52l-1 0z"/>
  <path class="fil1" d="M6390 6443c-51,338 -319,264 -402,537 -19,63 -23,138 14,218 51,110 106,126 106,126 0,0 -2,3 -4,7 -6,9 -21,26 -46,39 -29,16 -80,30 -118,54 -51,30 -82,101 -18,136 43,36 136,68 190,73 110,11 227,-20 351,-12 199,14 514,115 799,119 322,6 348,-134 565,-222 129,-53 190,-105 186,-166 -14,-206 -414,-340 -732,-440 -163,-51 -312,-65 -367,-144 -30,-44 -31,-107 12,-208 49,-114 88,-181 114,-258 17,-49 26,-99 28,-174 1,-34 4,-69 6,-72 105,-5 188,-96 188,-209 0,-184 -149,-190 -290,-240 -50,-17 -96,-37 -128,-57 -62,-38 -73,-61 -26,-111 110,-118 202,-195 286,-279 107,-108 157,-157 172,-249 7,-47 28,-201 -42,-208 -47,-6 -114,17 -181,46 -157,70 -214,108 -312,114 -23,1 -25,-43 -6,-77 12,-21 23,-45 13,-54 -64,-73 -77,-54 -74,-110 1,-21 12,-51 12,-102 0,-163 -82,-218 -237,-238 -96,-12 -201,3 -272,43 -82,47 -144,132 -164,200 -26,87 -6,190 71,293 3,5 7,9 10,14 -66,20 -162,100 -110,139 27,21 86,46 138,85 47,35 88,82 93,148 8,107 -45,213 -69,317 -54,241 91,302 174,516 54,141 92,304 76,410l-1 -1 -2 -2z"/>
  <path class="fil0" d="M6915 6134l3 -7 -8 -3c0,2 -2,3 -3,3 -1,4 1,6 5,6l5 1 -1 1 0 -1zm9 -24c10,-25 21,-50 27,-60l-8 -2c-5,-1 -7,-3 -11,-5l-6 2c-7,-2 -24,-6 -49,-12 -45,-6 -69,-10 -74,-11l-18 -6c0,3 -2,3 -3,3 -16,-7 -23,-12 -22,-16 7,-17 12,-23 18,-22l3 1 -4 5 3 1c6,-2 9,-4 10,-7l1 -6 -6 -1 1 -6c1,-4 3,-7 5,-10l17 -17 -1 6 6 1 1 -6 -3 -6c6,-3 9,-4 12,-4l1 -3 -8 -2 2 -8c25,-29 37,-47 38,-52l5 3c4,1 6,-1 6,-5l-6 -1 1 -3c1,-4 3,-7 5,-10 11,-7 17,-16 18,-26 3,0 3,2 3,3 7,-2 17,-12 26,-29 19,-20 50,-63 92,-127 16,-22 29,-43 42,-62 -11,-8 -21,-17 -31,-26 -10,-8 -20,-17 -29,-25 -54,77 -106,148 -155,212 -17,28 -29,42 -36,44 -1,4 1,6 5,6 -3,16 -10,29 -21,41 -40,62 -65,95 -75,99l-3 33c-1,4 -3,6 -6,5l-6 -1c2,-9 0,-14 -6,-16l-3 -1c-10,9 -18,21 -26,35l6 1c8,-3 13,-7 14,-15l11 3 5 4c-7,7 -11,13 -12,17l2 6 -12 15 -1 3c6,1 12,5 17,12 5,1 11,0 17,-3 6,2 29,7 68,18l37 1c26,7 50,12 73,17l30 6 6 -2 -1 3c4,1 8,2 12,3l-1 1 0 2zm-181 -219l3 1 -1 3c-1,4 -3,6 -7,5l-2 -6 6 -2 1 0zm59 62l5 3c-7,14 -13,21 -17,20l1 -3c1,-3 5,-9 12,-20zm-124 90l-1 3c0,4 2,6 5,7l2 -8 -6 -1 0 -1zm39 44l13 6 87 17 -1 6 -104 -19 1 -3 4 -6 -1 0 1 0zm111 24l11 3 -1 6 -11 -3 1 -6z"/>
  <path class="fil3" d="M17372 4297c0,152 -436,135 -512,196l159 382c-85,31 -51,-30 -139,-102 -141,-117 -696,128 -849,199 -152,72 -269,132 -352,181 -251,147 -143,186 116,152 143,-17 308,-53 383,-53l93 0c75,0 134,8 174,26 16,-8 33,-12 52,-12l54 0c0,44 67,66 199,66l13 27c-17,9 -30,14 -40,14 0,17 50,53 148,106l27 93 0 93c-20,74 -73,161 -157,259 -199,230 -1123,1043 -1377,1209l0 -13 40 -54 0 -12 -229 173 0 27c54,-45 95,-68 120,-68 -292,241 -545,423 -759,547l-27 -13c-75,50 -152,90 -227,119 -77,-39 -118,-64 -119,-80 195,-157 292,-242 292,-253l0 -40 -12 0c-46,0 -135,53 -267,161 -17,0 -27,-9 -27,-27 354,-283 813,-618 1348,-1040 106,-83 203,-163 293,-241 261,-227 1008,-838 147,-657 -144,30 -309,81 -494,150l-13 0 0 -27c37,0 77,-22 119,-66l0 -13c-114,17 -190,27 -227,27 -25,-2 -47,-28 -66,-82 -272,0 -221,-308 -100,-480 115,-163 302,-308 506,-427 235,-139 490,-244 674,-308 232,-80 434,-139 613,-163 185,-27 248,-39 420,22l2 0 0 3zm-1566 717l27 0c17,0 190,-80 522,-241l0 -27c-63,0 -246,89 -548,267zm-453 306l0 40 40 0 0 -13c0,-18 -9,-27 -27,-27l-14 0 0 -1zm-119 106l0 54c4,17 26,36 66,52l0 -13c-26,-39 -39,-70 -39,-94l-27 0zm119 0l0 14c51,62 109,93 174,93l12 0 0 -26c-86,-54 -139,-82 -159,-82l-27 0 -1 0 0 1zm-840 1962l0 27 66 0c260,-180 443,-317 548,-415l-14 0c-12,0 -208,129 -587,387l-14 0 0 1 0 1zm-227 333c3,17 11,27 27,27 103,-27 419,-258 947,-693l-27 0c-212,140 -478,331 -800,573 -75,62 -124,93 -147,93l0 1zm800 -415l14 0c40,-17 63,-34 68,-52l-13 0c-40,17 -63,35 -68,52l-1 0z"/>
  <path class="fil0" d="M17221 6443c-51,338 -319,264 -402,537 -19,63 -23,138 14,218 51,110 106,126 106,126 0,0 -2,3 -4,7 -6,9 -21,26 -46,39 -29,16 -80,30 -118,54 -51,30 -82,101 -18,136 43,36 136,68 190,73 110,11 227,-20 351,-12 199,14 514,115 799,119 322,6 348,-134 565,-222 129,-53 190,-105 186,-166 -14,-206 -414,-340 -732,-440 -163,-51 -312,-65 -367,-144 -30,-44 -31,-107 12,-208 49,-114 88,-181 114,-258 17,-49 26,-99 28,-174 1,-34 4,-69 6,-72 105,-5 188,-96 188,-209 0,-184 -149,-190 -290,-240 -50,-17 -96,-37 -128,-57 -62,-38 -73,-61 -26,-111 110,-118 202,-195 286,-279 107,-108 157,-157 172,-249 7,-47 28,-201 -42,-208 -47,-6 -114,17 -181,46 -157,70 -214,108 -312,114 -23,1 -25,-43 -6,-77 12,-21 23,-45 13,-54 -64,-73 -77,-54 -74,-110 1,-21 12,-51 12,-102 0,-163 -82,-218 -237,-238 -96,-12 -201,3 -272,43 -82,47 -144,132 -164,200 -26,87 -6,190 71,293 3,5 7,9 10,14 -66,20 -162,100 -110,139 27,21 86,46 138,85 47,35 88,82 93,148 8,107 -45,213 -69,317 -54,241 91,302 174,516 54,141 92,304 76,410l-1 -1 -2 -2z"/>
  <path class="fil1" d="M17747 6134l3 -7 -8 -3c0,2 -2,3 -3,3 -1,4 1,6 5,6l5 1 -1 1 0 -1zm9 -24c10,-25 21,-50 27,-60l-8 -2c-5,-1 -7,-3 -11,-5l-6 2c-7,-2 -24,-6 -49,-12 -45,-6 -69,-10 -74,-11l-18 -6c0,3 -2,3 -3,3 -16,-7 -23,-12 -22,-16 7,-17 12,-23 18,-22l3 1 -4 5 3 1c6,-2 9,-4 10,-7l1 -6 -6 -1 1 -6c1,-4 3,-7 5,-10l17 -17 -1 6 6 1 1 -6 -3 -6c6,-3 9,-4 12,-4l1 -3 -8 -2 2 -8c25,-29 37,-47 38,-52l5 3c4,1 6,-1 6,-5l-6 -1 1 -3c1,-4 3,-7 5,-10 11,-7 17,-16 18,-26 3,0 3,2 3,3 7,-2 17,-12 26,-29 19,-20 50,-63 92,-127 16,-22 29,-43 42,-62 -11,-8 -21,-17 -31,-26 -10,-8 -20,-17 -29,-25 -54,77 -106,148 -155,212 -17,28 -29,42 -36,44 -1,4 1,6 5,6 -3,16 -10,29 -21,41 -40,62 -65,95 -75,99l-3 33c-1,4 -3,6 -6,5l-6 -1c2,-9 0,-14 -6,-16l-3 -1c-10,9 -18,21 -26,35l6 1c8,-3 13,-7 14,-15l11 3 5 4c-7,7 -11,13 -12,17l2 6 -12 15 -1 3c6,1 12,5 17,12 5,1 11,0 17,-3 6,2 29,7 68,18l37 1c26,7 50,12 73,17l30 6 6 -2 -1 3c4,1 8,2 12,3l-1 1 0 2zm-181 -219l3 1 -1 3c-1,4 -3,6 -7,5l-2 -6 6 -2 1 0zm59 62l5 3c-7,14 -13,21 -17,20l1 -3c1,-3 5,-9 12,-20zm-124 90l-1 3c0,4 2,6 5,7l2 -8 -6 -1 0 -1zm39 44l13 6 87 17 -1 6 -104 -19 1 -3 4 -6 -1 0 1 0zm111 24l11 3 -1 6 -11 -3 1 -6z"/>
 </g>
</svg>
