<?xml version="1.0" encoding="UTF-8"?>
<!DOCTYPE svg PUBLIC "-//W3C//DTD SVG 1.1//EN" "http://www.w3.org/Graphics/SVG/1.1/DTD/svg11.dtd">
<!-- Creator: CorelDRAW X6 -->
<svg xmlns="http://www.w3.org/2000/svg" xml:space="preserve" width="225.213mm" height="134.959mm" version="1.1" style="shape-rendering:geometricPrecision; text-rendering:geometricPrecision; image-rendering:optimizeQuality; fill-rule:evenodd; clip-rule:evenodd"
viewBox="0 0 22521 13496"
 xmlns:xlink="http://www.w3.org/1999/xlink">
 <defs>
  <style type="text/css">
   <![CDATA[
    .str0 {stroke:#531300;stroke-width:7.62}
    .fil12 {fill:#1F230C}
    .fil10 {fill:#531300}
    .fil8 {fill:#624233}
    .fil1 {fill:#632911}
    .fil6 {fill:#6D8C36}
    .fil4 {fill:#6E6E6E}
    .fil0 {fill:#6F7D38}
    .fil7 {fill:#85B237}
    .fil5 {fill:#914E24}
    .fil3 {fill:#AC8C66}
    .fil2 {fill:#C37209}
    .fil11 {fill:#CFD3C4}
    .fil13 {fill:#D7D7D7}
    .fil9 {fill:white}
    .fil16 {fill:#1F230C;fill-rule:nonzero}
    .fil14 {fill:#343912;fill-rule:nonzero}
    .fil15 {fill:#575D27;fill-rule:nonzero}
   ]]>
  </style>
 </defs>
 <g id="Слой_x0020_1">
  <metadata id="CorelCorpID_0Corel-Layer"/>
  <g id="_917723152">
   <g id="_833638560">
    <rect class="fil0" x="-3" y="4" width="22500" height="13500"/>
    <path class="fil1" d="M7353 4851c-192,277 -334,314 -639,154 -160,-84 -45,-573 -141,-833 -124,-336 -399,-261 -608,-711 -177,-383 -329,-1071 51,-750 146,124 634,170 885,192 1113,94 945,-728 2689,-728 305,0 943,104 1203,263 339,207 1037,510 1432,-5 120,-157 223,-539 384,-414 217,169 142,239 198,466 11,46 -153,1075 -166,1100 -107,212 87,872 -141,983 -518,252 -461,180 -973,105 -166,-24 -341,486 -1099,477 -372,-4 -681,-28 -1042,-37 -280,-7 -973,120 -1178,23 -442,-210 -160,-143 -373,-351 -118,-115 -419,-24 -483,68l1 -2z"/>
    <path class="fil2" d="M8028 3675c-22,43 -358,-11 -351,29 36,210 407,372 496,309 129,-92 148,-147 335,-97 174,46 529,63 581,-203 21,-108 -66,-191 -190,-261 -91,-51 -272,-131 -357,-134 -49,-2 88,133 -50,85 -56,-19 -271,-86 -328,-80 -55,6 93,118 43,132 -71,20 -308,-21 -361,19 -50,37 212,145 183,201l-1 0z"/>
    <path class="fil3" d="M9141 6859l117 132c-212,-98 -258,-537 -548,-665 -3,-1 -527,-445 -540,-461 -1,-1 -151,-332 -39,-426 562,-472 494,-29 868,-345 167,-141 368,-257 579,-257 216,0 460,80 657,271 93,90 494,171 593,251 385,311 447,546 256,682 -577,410 -1195,1046 -1970,828 0,-17 11,-12 28,-11l-1 1z"/>
    <path class="fil2" d="M7415 4730c212,-124 95,-327 554,-77 391,212 169,396 187,942 8,229 -311,114 -43,455 220,280 -546,418 -749,372 -333,-76 -851,106 -570,-753 55,-169 494,-764 620,-940l1 1z"/>
    <path class="fil2" d="M11213 4964c-47,234 -147,313 149,688 408,516 -703,893 115,1060 487,99 447,133 737,-220 -64,-228 317,-1169 175,-1589 -28,-84 -931,-1172 -1176,61z"/>
    <path class="fil4" d="M13103 6908c35,2 74,-2 107,-7 21,-4 25,-6 42,-11 23,-7 29,-3 36,-27 -84,22 -100,21 -162,35l-23 11 0 -1z"/>
    <path class="fil4" d="M13006 5664c32,5 45,27 81,38 -10,-17 -51,-42 -69,-50 -19,9 -6,4 -12,12z"/>
    <path class="fil5" d="M7431 7514c67,16 150,2 200,-27 -18,-66 -77,-87 -69,-156 21,-11 51,-21 72,-33 21,-12 42,-29 71,-36 139,-32 152,164 124,271 -67,256 -100,64 -155,9 -59,15 -101,28 -171,22 -54,-5 -120,-24 -165,6 -56,38 -42,109 -45,144 -4,45 -20,125 -66,124 -7,-7 -9,-12 -15,-17l-51 -51c-15,-17 -46,-49 -74,-57 -45,-13 -69,1 -91,28 -89,108 -91,146 -40,286 24,67 54,120 89,178 75,125 155,168 304,229 65,27 169,7 236,-9 98,-23 116,-34 186,-80 29,-19 58,-35 78,-58 49,-56 102,-77 132,-134 134,-258 -90,-618 -109,-727 -7,-39 -8,-81 -15,-121 -6,-33 -24,-75 -25,-106 -4,-64 7,-62 40,-95 29,-30 115,-109 131,-131 15,-21 1,-23 28,-37l35 -15c8,-5 5,-3 9,-7 -21,-34 -124,-136 -170,-158 -26,-12 -52,-21 -51,-52 24,-18 95,-22 135,-22 61,0 77,17 125,28 -8,-22 -33,-53 -48,-74 -44,-62 -35,-31 -62,-54 -52,-46 -86,-47 -166,-70 -60,-18 -120,-37 -168,-68 -150,-98 -297,-185 -486,-223 -61,-12 -156,-15 -222,-14 -65,0 -125,40 -170,67 -52,31 -97,69 -97,139 -1,110 24,104 117,119 140,22 158,38 260,98 81,48 43,9 148,89 24,18 44,33 65,50 163,137 149,192 316,272 64,30 72,20 73,42 -117,47 -267,-113 -303,-159 -44,-56 -184,-180 -256,-216 -126,-62 -164,-113 -337,-135 -69,-9 -154,-6 -211,20 -90,41 -31,230 1,259 196,176 319,211 481,464 33,51 149,120 208,144l177 60 -3 -6z"/>
    <path class="fil2" d="M7834 7504c-2,11 -4,21 -6,30 -67,256 -100,64 -155,9 -59,15 -101,28 -171,22 -54,-5 -120,-24 -165,6 -56,38 -42,108 -45,144 -4,45 -20,125 -66,124 -7,-7 -9,-12 -15,-17l-51 -51c-15,-17 -46,-49 -74,-57 -46,-13 -69,1 -91,28 -89,108 -91,146 -40,286 24,67 54,120 89,178 75,125 155,168 304,229 65,27 169,7 236,-9 98,-23 116,-34 186,-80 29,-19 58,-35 78,-58 49,-56 102,-77 132,-134 110,-212 -22,-494 -83,-648l-61 0 -2 -2z"/>
    <path class="fil5" d="M6384 6747c-72,57 -78,44 -143,85 -56,36 -74,51 -101,124 -25,68 -23,129 -19,211 3,55 48,116 73,151 58,80 163,155 254,203 48,25 258,131 312,145 34,9 152,10 199,-26 21,-17 49,-28 58,-58 4,-15 10,-87 9,-103 -7,-66 -46,-113 -75,-157 -33,-49 -64,-88 -99,-127 -69,-75 -162,-137 -250,-208 -21,-17 -43,-36 -62,-54 -39,-37 -78,-47 -121,-110 -15,-22 -20,-54 -34,-76l-1 0z"/>
    <path class="fil1" d="M9256 6549c4,93 2,167 -60,236l-21 28c18,12 28,26 71,54 80,53 156,99 250,127 76,23 116,40 204,45 202,11 462,-3 629,-121 36,-26 98,-87 123,-128 22,-35 112,-300 107,-330 -2,-10 -18,-39 -23,-44 -29,-26 -83,23 -122,49 -29,20 -14,17 -30,36 -11,12 -53,39 -72,53 -25,18 -41,41 -67,58 -27,18 -53,26 -84,42 -38,19 -50,21 -96,30 -167,32 -280,51 -447,6 -76,-20 -125,-28 -197,-54 -59,-21 -108,-68 -165,-87z"/>
    <path class="fil6" d="M8004 7248c67,-5 113,-32 176,-47 208,-48 385,-90 574,-185 143,-72 203,-130 325,-213 80,-55 117,-109 118,-210 0,-37 0,-71 -23,-84 -174,-102 -158,-79 -272,27 -61,57 -173,153 -242,191 -74,41 -217,100 -301,131 -36,13 -126,48 -151,64 -5,43 9,103 -23,132 -32,13 -40,-63 -70,-84 -24,26 -48,94 -65,132 -26,58 -36,73 -46,146z"/>
    <path class="fil7" d="M8025 6533c25,38 66,66 113,144 22,36 65,136 72,185 31,-8 71,-31 104,-45 106,-44 217,-84 314,-138 68,-37 119,-86 173,-129 45,-35 77,-72 116,-110 18,-17 32,-22 38,-37 -49,18 -181,-77 -234,-94 -105,-33 -176,-94 -229,-108l-84 112c-50,72 -146,139 -232,170 -26,10 -51,16 -75,25l-76 24 0 1z"/>
    <path class="fil8" d="M9702 5861c-64,9 -206,29 -265,53 -66,28 -83,40 -115,101 -13,26 -30,45 -16,81 13,33 79,80 125,91 81,20 113,14 182,-12 115,-44 229,-44 207,-220 -4,-32 -71,-101 -118,-94z"/>
    <path class="fil8" d="M9987 5844c-53,10 -88,33 -118,75 -18,26 -16,46 -15,82 1,95 74,88 189,108l184 14c67,-2 98,-22 116,-76 68,-196 -226,-228 -356,-203z"/>
    <path class="fil5" d="M9643 6513c21,23 162,98 184,103 27,6 59,12 86,15 96,13 392,-28 333,-136 -15,-27 -29,-24 -69,-25 -267,-6 -258,-16 -534,43z"/>
    <path class="fil9" d="M8786 4796c44,-20 60,-86 -1,-134 -24,-19 -44,-24 -82,-25 -22,-1 -73,3 -90,12 -46,24 -20,122 8,147 22,20 51,-1 69,-15 38,-30 38,-91 96,15z"/>
    <path class="fil9" d="M10626 4663c7,25 44,34 67,32 20,-2 15,-11 30,5 20,24 -21,73 70,65 33,-38 15,-103 -21,-125 -37,-23 -121,-1 -146,22l0 1z"/>
    <path class="fil9" d="M7247 7762c45,-182 -99,-283 -123,-172 14,10 54,62 66,79 11,16 21,29 30,46 5,9 7,14 11,24l16 23z"/>
    <path class="fil9" d="M7673 7314c27,26 50,48 72,78 20,28 25,48 38,72l17 21c9,-37 3,-122 -14,-154 -31,-58 -89,-27 -113,-17z"/>
    <path class="fil10 str0" d="M9881 6242c5,54 1,89 3,140l23 -2c3,-32 -30,-96 92,-174l24 -21c-84,2 -103,10 -142,57z"/>
    <path class="fil10 str0" d="M9720 6212c59,32 120,87 91,179l36 -5c2,-30 -18,-99 -26,-130 -18,-67 -60,-62 -93,-49 -9,4 -5,0 -9,5l1 0z"/>
    <path class="fil11" d="M8794 4927c37,11 117,15 148,-7 1,-32 4,-71 -7,-101l-25 41c-24,37 -66,64 -116,67z"/>
    <path class="fil8" d="M9771 5852c4,7 53,52 64,64l35 -36c12,-12 24,-26 38,-32 -42,-6 -95,0 -136,5l-1 -1z"/>
    <path class="fil11" d="M10594 4853c-87,-76 -35,-44 -75,-98 -13,13 -20,65 -11,86 11,28 56,18 86,12z"/>
    <path class="fil9" d="M8495 4767c2,-47 6,-72 17,-114 -19,6 -34,28 -39,51 -6,28 10,47 22,63z"/>
    <path class="fil12" d="M7247 7762l-16 -23c-4,-9 -6,-15 -11,-24 -9,-16 -18,-30 -30,-46 -12,-17 -52,-69 -66,-79 23,-111 168,-10 123,172zm426 -448c23,-10 82,-42 113,17 17,32 23,117 14,154l-17 -21c-14,-24 -18,-44 -38,-72 -22,-30 -44,-51 -72,-78zm-1289 -567c13,23 19,54 34,76 43,64 82,73 121,110 19,18 41,37 62,54 87,71 181,133 250,208 36,39 67,78 99,127 29,44 68,92 75,157 2,16 -4,89 -9,103 -9,29 -37,41 -58,58 -46,37 -165,35 -199,26 -53,-14 -264,-120 -312,-145 -91,-49 -196,-123 -254,-203 -25,-35 -70,-97 -73,-151 -5,-81 -7,-143 19,-211 28,-74 45,-89 101,-124 65,-41 71,-28 143,-85l1 0zm1620 502c10,-73 20,-88 46,-146 17,-38 41,-106 65,-132 31,21 39,97 70,84 32,-28 18,-89 23,-132 25,-16 115,-51 151,-64 84,-31 227,-90 301,-131 69,-38 181,-134 242,-191 113,-106 98,-129 272,-27 22,13 23,48 23,84 -1,100 -38,155 -118,210 -122,84 -182,142 -325,213 -189,95 -366,137 -574,185 -63,15 -109,42 -176,47zm1639 -735c277,-59 268,-50 534,-43 39,1 54,-2 69,25 59,108 -237,149 -333,136 -27,-4 -59,-9 -86,-15 -22,-5 -163,-80 -184,-103zm-387 36c57,19 106,66 165,87 73,26 121,34 197,54 167,44 280,25 447,-6 46,-9 58,-11 96,-30 31,-15 57,-24 84,-42 26,-17 43,-40 67,-58 20,-15 62,-41 72,-53 16,-18 1,-15 30,-36 39,-27 93,-75 122,-49 5,5 21,34 23,44 6,30 -85,295 -107,330 -25,41 -87,102 -123,128 -167,118 -427,131 -629,121 -88,-5 -128,-22 -204,-45 -94,-28 -170,-74 -250,-127 -43,-28 -53,-42 -71,-54l21 -28c62,-69 64,-143 60,-236zm-1146 157c-49,-11 -64,-27 -125,-28 -40,0 -111,3 -135,22 -1,31 26,40 51,52 47,22 149,125 170,158 -4,5 -1,3 -9,7l-35 15c-27,14 -13,16 -28,37 -16,22 -102,102 -131,131 -33,34 -43,31 -40,95 2,31 20,73 25,106 7,40 8,82 15,121 19,109 243,470 109,727 -30,58 -83,79 -132,134 -20,23 -49,39 -78,58 -70,46 -88,57 -186,80 -67,16 -171,36 -236,9 -149,-62 -228,-104 -304,-229 -35,-58 -64,-111 -89,-178 -51,-139 -49,-178 40,-286 23,-27 46,-41 91,-28 28,8 59,40 74,57l51 51c6,5 8,10 15,17 47,2 62,-78 66,-124 3,-36 -11,-106 45,-144 45,-30 111,-11 165,-6 70,6 112,-7 171,-22 55,55 89,246 155,-9 28,-107 14,-303 -124,-271 -29,7 -49,24 -71,36 -21,12 -51,22 -72,33 -8,69 51,89 69,156 -49,29 -133,42 -200,27l-177 -60c-59,-24 -175,-93 -208,-144 -162,-253 -286,-288 -481,-464 -32,-29 -92,-218 -1,-259 58,-26 142,-29 211,-20 173,22 211,72 337,135 72,36 212,160 256,216 36,46 186,206 303,159 -1,-22 -10,-12 -73,-42 -168,-80 -154,-134 -316,-272 -21,-18 -42,-33 -65,-50 -105,-79 -66,-41 -148,-89 -103,-60 -120,-76 -260,-98 -93,-15 -117,-8 -117,-119 0,-70 45,-108 97,-139 45,-27 104,-67 170,-67 66,0 161,2 222,14 189,39 336,126 486,223 48,31 108,50 168,68 79,23 114,25 166,70 27,24 18,-7 62,54 14,20 40,52 48,74l3 6zm-9 -196c25,-10 49,-16 75,-25 86,-32 181,-98 232,-170l84 -112c53,14 124,75 229,108 53,17 185,112 234,94 -5,15 -20,20 -38,37 -39,38 -71,75 -116,110 -54,43 -106,91 -173,129 -97,54 -208,94 -314,138 -33,14 -74,37 -104,45 -7,-50 -50,-149 -72,-185 -47,-77 -88,-105 -113,-144l76 -24 0 -1zm1710 -118c29,-92 -32,-147 -91,-179 4,-6 -1,-2 9,-5 33,-13 75,-18 93,49 8,31 28,100 26,130l-36 5 -1 0zm70 -149c40,-47 58,-55 142,-57l-24 21c-122,78 -89,142 -92,174l-23 2c-2,-51 2,-86 -3,-140zm-180 -380c47,-6 114,62 118,94 22,176 -92,176 -207,220 -69,26 -100,32 -182,12 -47,-12 -113,-58 -125,-91 -14,-36 3,-55 16,-81 32,-61 49,-74 115,-101 58,-24 200,-44 265,-53zm286 -18c131,-24 424,8 356,203 -19,54 -49,74 -116,76l-184 -14c-115,-20 -188,-14 -189,-108 0,-36 -3,-56 15,-82 30,-43 66,-66 118,-75zm-216 9c42,-4 94,-10 136,-5 -14,6 -26,20 -38,32l-35 36c-11,-12 -60,-56 -64,-64l1 1zm-3909 -2616c-44,2 -44,-20 -75,0 -7,41 51,91 70,109 22,20 85,63 97,82 -28,15 -66,5 -84,25 -19,32 25,52 49,63 25,12 60,29 84,37 -11,17 -31,19 -17,51 20,47 101,72 130,99l-29 15c-4,50 61,71 91,100 63,59 148,112 224,158 48,29 100,41 131,59 -19,35 -153,224 -106,278 34,17 97,-57 145,-69 -20,36 -46,61 -62,104 -116,297 -60,565 -126,734 -17,43 -36,78 -55,116 -12,25 -61,102 -35,128 23,23 95,-41 135,-63 35,-20 109,-58 151,-66 -24,37 -194,208 -235,248 -69,68 -88,147 30,80 46,-26 194,-106 237,-87l-77 72c-14,12 -25,23 -39,36 -16,14 -28,23 -43,38 -27,28 -51,49 -74,77 -16,19 -68,66 -41,95 39,26 176,-73 255,-65 -5,53 -79,147 -111,194 -17,25 -21,43 -35,70 -67,132 18,222 18,368 0,103 -12,122 -42,206 -11,30 -30,53 -45,81 -17,31 -20,57 -45,81 -24,24 -39,32 -77,49 -30,13 -54,29 -79,46 -55,37 -80,68 -107,144 -27,76 -24,134 -40,212 -14,69 -23,144 -39,211 -34,142 20,308 83,400 71,103 138,178 239,259 108,88 228,306 314,441 116,183 83,165 138,364 55,197 89,367 227,523 63,71 172,170 300,202 65,16 162,22 221,-2 72,-29 95,-70 137,-114 55,-57 56,-78 86,-166 83,-244 373,-936 725,-670 179,135 126,309 487,309 515,0 1026,-905 1183,-1304 71,-181 135,-350 212,-460 13,-18 23,-29 38,-48 36,-44 17,-53 126,-140 93,-75 215,-143 329,-199 112,-55 160,-34 366,-162 36,-22 68,-50 100,-76 72,-58 211,-197 253,-275 46,-84 95,-141 94,-259 -1,-189 -58,-308 -161,-449 -51,-70 -79,-111 -146,-161 -41,-30 -130,-108 -130,-179 0,-126 75,-154 135,-306 28,-72 28,-207 -102,-204 -30,1 -60,21 -80,33 -36,22 -64,85 -99,123 -88,96 -112,150 -245,197 -61,22 -122,28 -195,28 -57,0 -132,-17 -186,-27 -30,-6 -58,-7 -87,-18 -155,-61 -173,56 -104,130l115 101c68,52 208,102 292,140 68,31 235,112 275,158 62,72 112,199 94,330 -11,76 -32,105 -71,146 -134,141 -499,385 -694,385 -94,0 -187,-13 -280,-21 -12,-18 -25,-27 -29,-47 103,-38 190,-31 284,-86 83,-48 175,-27 174,-226 0,-123 -60,-162 -134,-225 -40,-34 -97,-72 -132,-104 -41,-38 -167,-150 -224,-128 -4,36 26,50 50,66 25,17 42,33 65,51 48,38 80,75 120,113 -258,17 -443,-3 -696,74 -28,9 -62,29 -74,31 12,-15 29,-48 43,-67l95 -141c17,-23 42,-42 39,-81 -30,-3 -43,22 -58,38 -18,19 -29,27 -47,53l-84 117c-39,58 -133,179 -135,265 -4,123 84,191 178,222 45,15 107,38 157,44 65,8 193,-18 188,18 -3,19 -12,40 -27,47 -78,38 -189,34 -276,34 -102,0 -280,-77 -383,-108 -109,-32 -263,-92 -349,-144 -45,-27 -101,-75 -139,-108 -22,-19 -41,-37 -64,-57l-107 -140c-66,-84 -103,-156 -103,-277 0,-80 50,-179 91,-208 141,-96 217,-46 349,-94 36,-13 53,-42 88,-63 31,-18 70,-38 63,-88 -10,-64 -216,-41 -262,-39 -163,6 -296,-84 -376,-184 -39,-49 -79,-181 -197,-100 -81,55 -150,171 -109,316 11,39 71,123 34,167 -14,16 -38,38 -56,55 -71,71 -53,16 -167,170 -29,39 -58,96 -74,152 -44,155 -46,243 55,332 134,118 260,75 309,139 16,21 31,59 13,88 -4,7 -47,57 -51,60 -24,20 -132,49 -176,49 -217,0 -308,-155 -633,-225 -92,-20 -263,-1 -276,-15 -5,-9 -4,4 -1,-8 2,-6 69,-93 99,-201 20,-70 -26,-165 -26,-289 0,-74 9,-135 32,-202l52 -139c13,-34 118,-200 143,-239 24,-37 58,-71 87,-104 98,-108 165,-205 297,-281 171,-99 274,-91 521,-244 72,-45 171,-107 205,-178 46,-97 -2,-233 -59,-291 -85,-86 -135,-92 -287,-70 -64,9 -96,21 -144,47 -21,11 -42,26 -56,39 -22,19 -21,28 -49,47 -40,28 -64,60 -97,94 -73,73 -112,126 -168,214 -76,119 -146,239 -206,372 -31,67 -76,220 -126,261 -124,101 -149,-10 -184,-117 -33,-98 -78,-211 -77,-326 0,-88 18,-217 44,-293 36,-103 192,-312 261,-412 32,-47 131,-133 113,-217 -9,-41 -40,-73 -83,-83 -36,-8 -117,12 -145,24 -80,35 -322,239 -379,295 -50,49 -104,151 -153,189 -37,-16 -268,-166 -303,-195l-92 -83c31,-1 36,2 58,-8 8,-57 -62,-53 -146,-111 -17,-12 -13,-6 -21,-22 24,-6 41,-10 57,-22l1 -28c-24,-17 -94,-40 -129,-57 -13,-6 -11,-5 -19,-12 146,-32 67,-57 2,-112 -32,-27 -65,-48 -91,-78 35,-4 48,6 70,-16 11,-23 -67,-102 -81,-125 -13,-20 -23,-44 -35,-71 -17,-37 -13,-47 -20,-86 -11,-55 -58,1 -15,111 11,27 19,49 33,72 15,24 31,41 43,65l-1 -1z"/>
    <path class="fil2" d="M10367 3436c-144,271 109,456 215,379 128,-93 203,-169 390,-119 174,46 457,191 507,-74 71,-377 -871,-638 -1112,-185l0 -1z"/>
    <path class="fil12" d="M13103 6908l23 -11c62,-14 78,-13 162,-35 -10,-38 -51,-54 -99,-102 -30,-29 -55,-78 -83,-119 -120,-177 -228,-778 -100,-978 6,-9 -6,-3 12,-12 18,8 59,33 69,50 64,23 135,82 213,93 -12,-48 -89,-149 -123,-246l-52 -181c41,3 76,4 115,-6 31,-8 81,-9 101,-24 11,-55 -196,-193 -354,-389 -493,-612 -289,-732 -423,-1111 -80,-227 -341,-292 -402,-351 -60,-59 -146,-134 -206,-197 -102,-108 -164,-167 -281,-257 -32,-24 -40,-35 -82,-54 -35,-16 -67,-40 -98,-15 -27,42 55,106 82,132 20,19 95,95 104,118 -22,1 -86,0 -103,5 -37,10 -31,46 -12,64 38,35 137,67 263,170 26,21 102,84 113,104 -51,-4 -150,-25 -182,10 -35,36 42,90 77,115 22,16 43,25 62,44 20,19 32,35 49,57 24,30 72,89 88,121l-324 -107c-121,-38 -241,-59 -377,-30 -33,7 -52,17 -79,26 -111,34 -102,20 -230,98 -70,43 -189,141 -224,208 -32,61 -3,124 55,136 68,14 125,-9 181,-30 53,-20 106,-36 163,-53 159,-47 174,-66 355,-12 159,47 273,154 377,277 223,264 389,893 351,1233 -75,672 -388,826 -734,947 -851,297 -1173,830 -870,1692 13,36 19,43 38,68 29,38 77,86 131,87 46,1 55,-12 72,-41 66,-110 -32,-350 -23,-608 36,-1020 1167,-866 1786,-869 71,0 141,-1 211,-3 62,-2 154,-15 206,-13l2 -1z"/>
    <path class="fil12" d="M8699 2259c-79,2 -302,2 -372,27 -49,17 -24,57 7,72 -114,8 -321,-19 -338,8 -11,52 38,69 73,88 -74,9 -218,-22 -190,76 -56,-1 -305,128 -408,130 -125,3 -310,53 -478,56 -160,2 -73,13 -257,-3 -131,-11 -223,-27 -345,-63 -57,-17 -161,-40 -212,-60 -30,-11 -80,-25 -109,1 11,18 28,12 72,31 187,81 107,132 309,220 186,81 232,28 504,130 141,53 189,127 295,127 94,0 159,-52 201,-101 80,-97 241,-201 339,-275l124 -102c7,-8 11,-15 19,-21 9,-6 15,-6 26,-14 11,-51 -14,-52 -31,-82l82 -3c38,0 215,18 232,0 6,-9 2,10 5,-12 5,-35 -43,-47 -71,-54 -37,-11 -79,-15 -106,-34 113,5 182,12 292,2 12,-1 26,-1 38,-3 24,-4 19,-1 28,-14 14,-34 -27,-45 -50,-61 30,-19 238,-18 290,-18 36,0 131,14 132,-27 1,-38 -68,-41 -84,-72l224 -1c30,0 63,7 84,-12 -16,-24 -70,-21 -106,-24l-175 -7c-178,0 -52,81 -44,96l0 -1z"/>
    <path class="fil12" d="M13476 8525c-81,-171 -182,-352 -295,-499l-118 -145c77,18 426,190 474,197 45,6 65,-40 44,-75 -11,-19 -111,-113 -134,-133 -122,-110 -448,-411 -577,-479 28,-3 397,31 470,35 43,2 87,2 82,-47 -3,-30 -40,-46 -67,-61 -59,-33 -376,-199 -428,-200 -30,-1 -90,16 -58,52 6,7 156,69 174,78 29,13 152,67 166,86 -79,1 -387,-35 -477,-47 -33,-5 -90,-23 -111,2 -30,36 4,65 33,77 255,111 551,388 734,559l-190 -79c-61,-26 -120,-51 -187,-80 -32,-14 -64,-27 -95,-40 -35,-15 -81,-23 -77,34 2,32 89,100 129,141 133,135 246,289 339,461 20,37 81,144 90,180 -50,-22 -317,-351 -446,-340 -18,23 -28,38 -23,76 6,48 196,397 226,463 43,93 80,180 118,280 19,50 36,97 51,145 12,39 24,80 26,124 0,8 0,17 2,24 4,14 -2,5 8,14 33,8 26,-34 23,-63 -21,-186 -55,-312 -128,-486 -55,-132 -112,-230 -176,-352 -16,-30 -47,-80 -57,-111 34,13 120,90 147,116 48,45 88,87 133,133 27,27 104,103 149,118 49,16 69,-16 63,-62 -3,-24 -27,-75 -37,-95l0 -1z"/>
    <path class="fil12" d="M10637 3466c-163,28 -277,160 -339,282 -35,69 -62,150 -93,219 -17,37 -36,67 -53,103 -99,213 -162,379 -107,626 10,44 20,83 29,127 8,37 16,100 63,94 45,-6 33,-83 27,-123 -6,-42 -17,-87 -26,-129 -41,-193 13,-373 98,-500 109,-162 227,-127 408,-216 37,-18 74,-28 113,-42 74,-27 239,-125 257,-211 40,-192 -204,-259 -377,-228l0 -2z"/>
    <path class="fil12" d="M8541 3638c-83,15 -133,35 -175,94 -36,50 -64,147 -21,209 86,121 292,119 403,135 66,9 147,30 201,65 57,36 78,87 108,158 61,143 81,290 51,463 -6,36 -15,90 18,107 45,23 67,-16 69,-54 2,-43 14,-74 15,-116 1,-45 0,-91 -2,-136 -3,-86 -20,-157 -21,-242 -1,-106 -55,-343 -108,-432 -58,-96 -125,-140 -208,-189 -31,-19 -57,-28 -96,-39 -55,-15 -178,-34 -235,-23l1 0z"/>
    <path class="fil12" d="M10054 2081c-4,76 -69,149 -68,188 1,108 226,-25 348,-65 56,-18 137,-48 198,-57 -10,23 -29,39 -45,60 -48,62 -115,206 -23,204 27,-1 242,-84 326,-91 -17,28 -50,54 -59,96 -13,56 20,90 76,76 59,-15 198,-58 259,-55 -18,16 -115,133 -107,178 15,92 169,28 218,14 45,-12 371,-102 412,-107 21,-2 52,-1 43,-21 -12,-18 -50,-5 -67,-3 -28,4 -51,3 -79,3 -45,0 -97,7 -140,14 -45,7 -89,12 -133,22 -43,10 -92,24 -135,30 14,-38 85,-110 115,-130 29,-19 58,-23 82,-38 35,-22 21,-71 -19,-76 -36,-4 -254,38 -313,50 -33,6 -73,19 -103,22 17,-30 71,-87 97,-107 12,-10 65,-96 -93,-62 -137,30 -212,58 -327,88 20,-78 192,-204 165,-255 -34,-34 -87,-5 -143,8 -55,13 -100,25 -154,42 -91,28 -255,98 -287,106 13,-59 44,-93 26,-166 -17,-72 -77,-41 -134,-23 -100,33 -206,64 -298,104 -29,13 -142,52 -94,92 23,20 121,-28 147,-38 41,-17 273,-95 310,-102l-1 -1z"/>
    <path class="fil12" d="M12528 2799c-50,30 -29,19 -77,65 -105,101 -218,138 -359,209 -28,14 -72,38 -89,57 -22,25 -27,71 -10,109 15,33 51,48 85,61 151,57 310,-7 396,-132 29,-41 124,-256 122,-306 -1,-42 -25,-90 -68,-64l0 1z"/>
    <path class="fil12" d="M8794 4927c49,-4 91,-31 116,-67l25 -41c11,30 8,68 7,101 -31,22 -111,18 -148,7zm-8 -131c-58,-106 -58,-44 -96,-15 -18,14 -47,35 -69,15 -27,-25 -54,-123 -8,-147 17,-9 68,-13 90,-12 38,2 58,6 82,25 61,48 45,114 1,134zm-292 -28c-11,-16 -28,-35 -22,-63 5,-23 20,-45 39,-51 -11,42 -15,67 -17,114zm196 -198c-38,5 -74,10 -112,16 -35,5 -69,17 -107,23 -125,21 -98,8 -48,128 29,69 66,120 108,153 79,63 305,118 420,83 84,-25 63,-57 35,-182 -13,-56 -59,-140 -92,-168 -49,-42 -122,-63 -204,-53z"/>
    <path class="fil12" d="M11485 2626c-6,31 6,43 20,64 15,21 38,21 64,22 167,8 296,12 451,-63 213,-103 242,-165 334,-365 33,-72 -16,-114 -44,-54 -20,43 -72,130 -109,152 -161,97 -216,130 -430,178 -50,11 -93,24 -141,37 -54,14 -103,1 -146,29l1 0z"/>
    <path class="fil12" d="M10594 4853c-31,6 -76,16 -86,-12 -8,-21 -1,-73 11,-86 39,54 -12,22 75,98zm33 -190c26,-23 109,-45 146,-22 36,22 54,87 21,125 -91,7 -51,-41 -70,-65 -14,-16 -9,-7 -30,-5 -24,2 -60,-7 -67,-32l0 -1zm203 -39c27,20 24,56 23,90 -11,-16 -19,-68 -23,-90zm-105 -85c-156,24 -194,71 -242,202 -23,64 -51,119 26,148 112,42 254,9 353,-65 54,-40 171,-186 89,-237 -36,-22 -167,-58 -227,-48l1 0z"/>
    <path class="fil12" d="M12902 2320c-4,46 -36,120 -54,157 -28,58 -86,110 -73,133 39,31 105,-18 145,-28 -32,66 -165,116 -132,160 13,18 34,12 60,13 -26,40 -177,147 -159,183 35,31 63,7 110,20 -4,19 -120,93 -107,133 20,32 50,22 95,27 -19,40 -14,-11 -63,117 -18,48 -28,88 -39,142 -29,143 -17,135 -28,245l-11 59c0,24 0,11 6,17 26,21 31,-40 34,-63 5,-32 13,-65 19,-97 14,-80 50,-299 93,-359 14,-20 48,-34 40,-72 -8,-36 -43,-28 -77,-41 23,-50 150,-87 70,-141 -26,-17 -37,-14 -73,-18 5,-8 39,-37 46,-44l102 -99c13,-13 50,-36 29,-59 -16,-16 -42,-3 -69,-1 14,-20 60,-58 81,-81 16,-18 62,-87 28,-124 -31,-21 -42,42 -121,59 9,-27 126,-221 82,-312 -45,-10 -16,21 -78,58 -1,-37 16,-132 -6,-154 -24,11 -25,115 -29,146 -14,99 43,44 79,23l0 1z"/>
    <path class="fil12" d="M8498 3306c-10,41 22,60 35,85 -108,-11 -206,-43 -300,-62 -18,-4 -66,-7 -86,-1 -66,18 49,81 75,134 -115,-15 -74,-17 -207,-13 -45,1 -167,0 -198,20 -3,32 57,61 103,98l117 91c-53,1 -430,-21 -406,50 5,14 101,31 170,69 33,18 80,49 104,78 9,11 15,27 30,18 17,-28 -74,-89 -99,-105 -34,-22 -68,-40 -108,-53 -7,-2 -15,-4 -19,-6l-19 -11c84,-31 378,11 419,-18 4,-28 -60,-50 -119,-96l-123 -97c158,-25 334,-16 472,50 28,13 105,47 136,33 16,-43 -79,-36 -165,-85 -60,-35 -95,-84 -135,-129 27,-4 310,55 368,72 85,24 83,58 106,30 12,-14 -1,-23 -15,-31 -19,-11 -23,-12 -39,-26 -18,-16 -51,-44 -60,-71 101,1 308,108 398,165 30,19 88,59 127,67 -27,-52 -176,-134 -246,-169 -50,-25 -250,-117 -313,-87l-3 0z"/>
    <path class="fil12" d="M10671 4462c19,14 86,2 114,5 27,3 70,15 99,22 47,11 142,46 148,99 9,82 -110,252 -189,305 -75,50 -335,100 -396,18 -41,-55 32,-220 66,-273 7,-11 70,-110 15,-76 -30,18 -110,116 -128,150 -17,32 -31,75 -46,110 -19,44 -52,57 -43,110 27,18 124,48 166,59 64,17 144,21 216,14 81,-7 117,-13 176,-51 97,-63 154,-151 194,-264 13,-38 7,-61 4,-102 -3,-42 -16,-55 -43,-73 -49,-33 -94,-51 -162,-64 -38,-7 -176,-35 -190,11l-1 0z"/>
    <path class="fil12" d="M9840 2889c12,-51 94,-203 25,-168 -3,2 -20,14 -24,17 -44,32 -270,217 -264,258 27,2 203,-198 274,-229 -5,29 -25,75 -36,101 -8,18 -37,75 -35,86 3,27 -2,6 7,15 12,8 91,-68 133,-97 33,-23 117,-88 147,-100 -11,37 -89,176 -67,214 15,14 44,-16 89,-40 32,-17 63,-31 95,-45 48,-21 157,-66 210,-73 -43,56 -216,160 -204,213 25,5 108,-31 176,-44 112,-22 499,-33 574,56 -4,-92 -287,-105 -356,-105 -195,0 -165,15 -314,37 14,-25 120,-105 158,-142 12,-11 62,-51 24,-60 -50,-12 -361,118 -414,154 4,-78 96,-184 85,-230 -29,-7 -51,20 -72,36 -24,17 -46,32 -71,50l-140 98 0 -2z"/>
    <path class="fil12" d="M8327 4613c48,-53 199,-47 296,-57 49,-5 86,-1 99,-19 -8,-31 -98,-26 -144,-27 -71,-1 -248,-4 -276,73 -22,61 17,114 25,139 33,102 53,168 124,223 47,37 36,35 106,70 70,35 218,67 287,48 20,-5 42,-15 64,-22 15,-5 65,-15 43,-36 -17,-16 -125,6 -152,8 -81,8 -147,-9 -214,-46 -147,-81 -136,-217 -230,-293 -18,-14 -28,-32 -27,-62l-1 1z"/>
    <path class="fil12" d="M12490 1955c-10,-12 -13,-28 -18,-44 -43,-122 -74,75 -85,114 -4,14 -11,30 -8,43 4,21 1,8 8,15 23,13 27,-34 35,-59 9,-27 12,-51 22,-79 16,57 3,102 21,116 40,30 74,-112 74,-120 9,64 -8,107 13,123 37,28 77,-97 92,-134 24,64 30,126 36,140 38,9 35,-9 51,-35 4,33 -10,52 7,69 61,47 53,-190 -6,-177 -27,15 -13,17 -25,43 -37,-31 -15,-127 -70,-134 -19,4 -28,58 -37,86l-15 28c-5,-26 -5,-44 -14,-72 -9,-28 -11,-46 -45,-44 -24,31 -17,84 -35,121l-1 0z"/>
    <path class="fil13" d="M10852 4715c1,-35 4,-70 -23,-90 4,22 12,74 23,90z"/>
    <path class="fil14" d="M16369 10645c-16,0 -28,-5 -37,-15 -9,-10 -14,-22 -14,-36l0 -1227c0,-56 20,-104 59,-144 39,-39 87,-59 144,-59 56,0 104,20 144,59 39,39 59,87 59,144l0 1263c0,10 -5,15 -15,15 -10,0 -15,-5 -15,-15l0 -1263c0,-48 -17,-89 -51,-123 -34,-34 -75,-51 -123,-51 -49,0 -91,17 -125,51 -34,34 -51,75 -51,123l0 1227c0,14 8,21 23,21 14,0 21,-7 21,-21l0 -643c0,-14 5,-26 15,-36 10,-10 22,-15 36,-15l159 0c10,0 15,5 15,15 0,10 -5,15 -15,15l-159 0c-14,0 -21,7 -21,21l0 643c0,14 -5,26 -15,36 -10,10 -22,15 -36,15l2 0z"/>
    <path class="fil14" d="M16149 10478c0,47 -17,86 -50,118 -33,32 -72,49 -117,49 -47,0 -86,-16 -118,-49 -32,-32 -49,-72 -49,-118l0 -563c0,-10 5,-15 15,-15 10,0 15,5 15,15l0 563c0,38 13,70 40,97 27,27 59,40 97,40 38,0 70,-13 97,-40 27,-27 40,-59 40,-97l0 -1110c0,-48 -17,-89 -51,-123 -34,-34 -75,-51 -123,-51l-152 0c-16,0 -23,7 -23,21l0 1415c0,10 -4,15 -13,15 -10,0 -15,-5 -15,-15l0 -1415c0,-14 5,-26 14,-36 9,-10 22,-15 37,-15l152 0c56,0 104,20 144,59 39,39 59,87 59,144l0 1110 1 1z"/>
    <path class="fil14" d="M15561 9165c10,0 15,5 15,15l0 1425c0,11 -4,21 -12,29 -8,8 -17,12 -29,12 -8,0 -16,-3 -23,-8 -7,-6 -12,-13 -15,-21l-351 -1413c-1,-6 -5,-8 -11,-8 -7,0 -11,4 -11,11l0 1389c0,14 7,21 21,21 16,0 23,-7 23,-21l0 -679c0,-10 4,-15 13,-15 10,0 15,5 15,15l0 679c0,14 -5,26 -14,36 -9,10 -22,15 -37,15 -14,0 -26,-5 -36,-15 -10,-10 -15,-22 -15,-36l0 -1389c0,-11 4,-21 12,-29 8,-8 17,-12 29,-12 20,0 32,10 38,30l351 1415c1,4 5,6 11,6 7,0 11,-4 11,-11l0 -1425c0,-10 5,-15 15,-15l0 -1z"/>
    <path class="fil14" d="M14572 10645c-16,0 -28,-5 -37,-15 -9,-10 -14,-22 -14,-36l0 -1227c0,-56 20,-104 59,-144 39,-39 87,-59 144,-59 56,0 104,20 144,59 39,39 59,87 59,144l0 1263c0,10 -5,15 -15,15 -10,0 -15,-5 -15,-15l0 -1263c0,-48 -17,-89 -51,-123 -34,-34 -75,-51 -123,-51 -49,0 -91,17 -125,51 -34,34 -51,75 -51,123l0 1227c0,14 8,21 23,21 14,0 21,-7 21,-21l0 -643c0,-14 5,-26 15,-36 10,-10 22,-15 36,-15l159 0c10,0 15,5 15,15 0,10 -5,15 -15,15l-159 0c-14,0 -21,7 -21,21l0 643c0,14 -5,26 -15,36 -10,10 -22,15 -36,15l2 0z"/>
    <path class="fil14" d="M14149 9165c56,0 104,20 144,59 39,39 59,87 59,144l0 395c0,47 -16,86 -49,118 -32,32 -72,49 -118,49 -45,0 -84,-16 -117,-49 -33,-32 -50,-72 -50,-118l0 -395c0,-10 5,-15 15,-15 10,0 15,5 15,15l0 395c0,38 13,70 40,97 27,27 59,40 97,40 38,0 71,-13 98,-40 27,-27 41,-59 41,-97l0 -395c0,-48 -17,-89 -51,-123 -34,-34 -75,-51 -125,-51 -48,0 -89,17 -123,51 -34,34 -51,75 -51,123l0 1263c0,10 -5,15 -15,15 -10,0 -15,-5 -15,-15l0 -1263c0,-56 20,-104 59,-144 39,-39 87,-59 144,-59l2 0z"/>
    <path class="fil14" d="M13377 10478c0,47 -17,86 -50,118 -33,32 -72,49 -117,49 -47,0 -86,-16 -118,-49 -32,-32 -49,-72 -49,-118l0 -563c0,-10 5,-15 15,-15 10,0 15,5 15,15l0 563c0,38 13,70 40,97 27,27 59,40 97,40 38,0 71,-13 97,-40 27,-27 40,-59 40,-97l0 -1110c0,-48 -17,-89 -51,-123 -34,-34 -75,-51 -123,-51l-152 0c-16,0 -23,7 -23,21l0 1415c0,10 -4,15 -13,15 -10,0 -15,-5 -15,-15l0 -1415c0,-14 5,-26 14,-36 9,-10 21,-15 37,-15l152 0c56,0 104,20 144,59 39,39 59,87 59,144l0 1110 1 1z"/>
    <path class="fil14" d="M12446 9858c-14,0 -26,-5 -36,-15 -10,-10 -15,-22 -15,-36l0 -440c0,-56 20,-104 59,-144 39,-39 87,-59 144,-59l190 0c10,0 15,5 15,15 0,10 -5,15 -15,15l-190 0c-48,0 -89,17 -123,51 -34,34 -51,75 -51,123l0 440c0,14 7,21 21,21l188 0c14,0 26,5 36,15 10,10 15,22 15,36 0,14 -5,26 -15,36 -10,10 -22,15 -36,15l-188 0c-14,0 -21,8 -21,23l0 489c0,48 17,89 51,123 34,34 75,51 123,51l190 0c10,0 15,5 15,15 0,10 -5,15 -15,15l-190 0c-56,0 -104,-20 -144,-59 -39,-39 -59,-87 -59,-144l0 -489c0,-16 5,-28 15,-38 10,-10 22,-15 36,-15l188 0c14,0 21,-7 21,-21 0,-14 -7,-21 -21,-21l-188 0 0 -2z"/>
    <path class="fil14" d="M12226 10626c3,8 0,15 -8,19 -8,1 -15,-1 -19,-8l-258 -666 -2 -2c-1,0 -2,0 -3,-1 -1,-1 -2,-1 -3,-1 -7,0 -11,4 -11,11l0 618c0,14 -5,26 -15,36 -10,10 -22,15 -36,15 -14,0 -26,-5 -36,-15 -10,-10 -15,-22 -15,-36l0 -1227c0,-56 20,-104 59,-144 39,-39 87,-59 144,-59 56,0 104,20 144,59 39,39 59,87 59,144l0 395c0,47 -16,86 -49,118 -32,32 -72,49 -118,49 -45,0 -84,-16 -117,-49 -33,-32 -50,-72 -50,-118l0 -395c0,-10 5,-15 15,-15 10,0 15,5 15,15l0 395c0,38 13,70 40,97 27,27 59,40 97,40 38,0 70,-13 97,-40 27,-27 40,-59 40,-97l0 -395c0,-48 -17,-89 -51,-123 -34,-34 -75,-51 -123,-51 -48,0 -89,17 -123,51 -34,34 -51,75 -51,123l0 1227c0,14 7,21 21,21 14,0 21,-7 21,-21l0 -618c0,-11 4,-21 12,-29 8,-8 17,-12 29,-12 18,0 30,7 34,21l260 668 1 0z"/>
    <path class="fil15" d="M16347 10637c-16,0 -28,-5 -37,-15 -9,-10 -14,-22 -14,-36l0 -1227c0,-56 20,-104 59,-144 39,-39 87,-59 144,-59 56,0 104,20 144,59 39,39 59,87 59,144l0 1263c0,10 -5,15 -15,15 -10,0 -15,-5 -15,-15l0 -1263c0,-48 -17,-89 -51,-123 -34,-34 -75,-51 -123,-51 -49,0 -91,17 -125,51 -34,34 -51,75 -51,123l0 1227c0,14 8,21 23,21 14,0 21,-7 21,-21l0 -643c0,-14 5,-26 15,-36 10,-10 22,-15 36,-15l159 0c10,0 15,5 15,15 0,10 -5,15 -15,15l-159 0c-14,0 -21,7 -21,21l0 643c0,14 -5,26 -15,36 -10,10 -22,15 -36,15l2 0z"/>
    <path class="fil15" d="M16127 10470c0,47 -17,86 -50,118 -33,32 -72,49 -117,49 -47,0 -86,-16 -118,-49 -32,-32 -49,-72 -49,-118l0 -563c0,-10 5,-15 15,-15 10,0 15,5 15,15l0 563c0,38 13,70 40,97 27,27 59,40 97,40 38,0 70,-13 97,-40 27,-27 40,-59 40,-97l0 -1110c0,-48 -17,-89 -51,-123 -34,-34 -75,-51 -123,-51l-152 0c-16,0 -23,7 -23,21l0 1415c0,10 -4,15 -13,15 -10,0 -15,-5 -15,-15l0 -1415c0,-14 5,-26 14,-36 9,-10 22,-15 37,-15l152 0c56,0 104,20 144,59 39,39 59,87 59,144l0 1110 1 1z"/>
    <path class="fil15" d="M15539 9157c10,0 15,5 15,15l0 1425c0,11 -4,21 -12,29 -8,8 -17,12 -29,12 -8,0 -16,-3 -23,-8 -7,-6 -12,-13 -15,-21l-351 -1413c-1,-6 -5,-8 -11,-8 -7,0 -11,4 -11,11l0 1389c0,14 7,21 21,21 16,0 23,-7 23,-21l0 -679c0,-10 4,-15 13,-15 10,0 15,5 15,15l0 679c0,14 -5,26 -14,36 -9,10 -22,15 -37,15 -14,0 -26,-5 -36,-15 -10,-10 -15,-22 -15,-36l0 -1389c0,-11 4,-21 12,-29 8,-8 17,-12 29,-12 20,0 32,10 38,30l351 1415c1,4 5,6 11,6 7,0 11,-4 11,-11l0 -1425c0,-10 5,-15 15,-15l0 -1z"/>
    <path class="fil15" d="M14550 10637c-16,0 -28,-5 -37,-15 -9,-10 -14,-22 -14,-36l0 -1227c0,-56 20,-104 59,-144 39,-39 87,-59 144,-59 56,0 104,20 144,59 39,39 59,87 59,144l0 1263c0,10 -5,15 -15,15 -10,0 -15,-5 -15,-15l0 -1263c0,-48 -17,-89 -51,-123 -34,-34 -75,-51 -123,-51 -49,0 -91,17 -125,51 -34,34 -51,75 -51,123l0 1227c0,14 8,21 23,21 14,0 21,-7 21,-21l0 -643c0,-14 5,-26 15,-36 10,-10 22,-15 36,-15l159 0c10,0 15,5 15,15 0,10 -5,15 -15,15l-159 0c-14,0 -21,7 -21,21l0 643c0,14 -5,26 -15,36 -10,10 -22,15 -36,15l2 0z"/>
    <path class="fil15" d="M14127 9157c56,0 104,20 144,59 39,39 59,87 59,144l0 395c0,47 -16,86 -49,118 -32,32 -72,49 -118,49 -45,0 -84,-16 -117,-49 -33,-32 -50,-72 -50,-118l0 -395c0,-10 5,-15 15,-15 10,0 15,5 15,15l0 395c0,38 13,70 40,97 27,27 59,40 97,40 38,0 71,-13 98,-40 27,-27 41,-59 41,-97l0 -395c0,-48 -17,-89 -51,-123 -34,-34 -75,-51 -125,-51 -48,0 -89,17 -123,51 -34,34 -51,75 -51,123l0 1263c0,10 -5,15 -15,15 -10,0 -15,-5 -15,-15l0 -1263c0,-56 20,-104 59,-144 39,-39 87,-59 144,-59l2 0z"/>
    <path class="fil16" d="M13355 10470c0,47 -17,86 -50,118 -33,32 -72,49 -117,49 -47,0 -86,-16 -118,-49 -32,-32 -49,-72 -49,-118l0 -563c0,-10 5,-15 15,-15 10,0 15,5 15,15l0 563c0,38 13,70 40,97 27,27 59,40 97,40 38,0 70,-13 97,-40 27,-27 40,-59 40,-97l0 -1110c0,-48 -17,-89 -51,-123 -34,-34 -75,-51 -123,-51l-152 0c-16,0 -23,7 -23,21l0 1415c0,10 -4,15 -13,15 -10,0 -15,-5 -15,-15l0 -1415c0,-14 5,-26 14,-36 9,-10 21,-15 37,-15l152 0c56,0 104,20 144,59 39,39 59,87 59,144l0 1110 1 1z"/>
    <path class="fil16" d="M12424 9851c-14,0 -26,-5 -36,-15 -10,-10 -15,-22 -15,-36l0 -440c0,-56 20,-104 59,-144 39,-39 87,-59 144,-59l190 0c10,0 15,5 15,15 0,10 -5,15 -15,15l-190 0c-48,0 -89,17 -123,51 -34,34 -51,75 -51,123l0 440c0,14 7,21 21,21l188 0c14,0 26,5 36,15 10,10 15,22 15,36 0,14 -5,26 -15,36 -10,10 -22,15 -36,15l-188 0c-14,0 -21,8 -21,23l0 489c0,48 17,89 51,123 34,34 75,51 123,51l190 0c10,0 15,5 15,15 0,10 -5,15 -15,15l-190 0c-56,0 -104,-20 -144,-59 -39,-39 -59,-87 -59,-144l0 -489c0,-16 5,-28 15,-38 10,-10 22,-15 36,-15l188 0c14,0 21,-7 21,-21 0,-14 -7,-21 -21,-21l-188 0 0 -2z"/>
    <path class="fil16" d="M12204 10618c3,8 0,15 -8,19 -8,1 -15,-1 -19,-8l-258 -666 -2 -2c-1,0 -2,0 -3,-1 -1,-1 -2,-1 -3,-1 -7,0 -11,4 -11,11l0 618c0,14 -5,26 -15,36 -10,10 -22,15 -36,15 -14,0 -26,-5 -36,-15 -10,-10 -15,-22 -15,-36l0 -1227c0,-56 20,-104 59,-144 39,-39 87,-59 144,-59 56,0 104,20 144,59 39,39 59,87 59,144l0 395c0,47 -16,86 -49,118 -32,32 -72,49 -118,49 -45,0 -84,-16 -117,-49 -33,-32 -50,-72 -50,-118l0 -395c0,-10 5,-15 15,-15 10,0 15,5 15,15l0 395c0,38 13,70 40,97 27,27 59,40 97,40 38,0 70,-13 97,-40 27,-27 40,-59 40,-97l0 -395c0,-48 -17,-89 -51,-123 -34,-34 -75,-51 -123,-51 -48,0 -89,17 -123,51 -34,34 -51,75 -51,123l0 1227c0,14 7,21 21,21 14,0 21,-7 21,-21l0 -618c0,-11 4,-21 12,-29 8,-8 17,-12 29,-12 18,0 30,7 34,21l260 668 1 0z"/>
    <path class="fil16" d="M12395 9849c-14,0 -26,-5 -36,-15 -10,-10 -15,-22 -15,-36l0 -440c0,-56 20,-104 59,-144 39,-39 87,-59 144,-59l190 0c10,0 15,5 15,15 0,10 -5,15 -15,15l-190 0c-48,0 -89,17 -123,51 -34,34 -51,75 -51,123l0 440c0,14 7,21 21,21l188 0c14,0 26,5 36,15 10,10 15,22 15,36 0,14 -5,26 -15,36 -10,10 -22,15 -36,15l-188 0c-14,0 -21,8 -21,23l0 489c0,48 17,89 51,123 34,34 75,51 123,51l190 0c10,0 15,5 15,15 0,10 -5,15 -15,15l-190 0c-56,0 -104,-20 -144,-59 -39,-39 -59,-87 -59,-144l0 -489c0,-16 5,-28 15,-38 10,-10 22,-15 36,-15l188 0c14,0 21,-7 21,-21 0,-14 -7,-21 -21,-21l-188 0 0 -2z"/>
    <path class="fil16" d="M12182 10618c3,8 0,15 -8,19 -8,1 -15,-1 -19,-8l-258 -666 -2 -2c-1,0 -2,0 -3,-1 -1,-1 -2,-1 -3,-1 -7,0 -11,4 -11,11l0 618c0,14 -5,26 -15,36 -10,10 -22,15 -36,15 -14,0 -26,-5 -36,-15 -10,-10 -15,-22 -15,-36l0 -1227c0,-56 20,-104 59,-144 39,-39 87,-59 144,-59 56,0 104,20 144,59 39,39 59,87 59,144l0 395c0,47 -16,86 -49,118 -32,32 -72,49 -118,49 -45,0 -84,-16 -117,-49 -33,-32 -50,-72 -50,-118l0 -395c0,-10 5,-15 15,-15 10,0 15,5 15,15l0 395c0,38 13,70 40,97 27,27 59,40 97,40 38,0 70,-13 97,-40 27,-27 40,-59 40,-97l0 -395c0,-48 -17,-89 -51,-123 -34,-34 -75,-51 -123,-51 -48,0 -89,17 -123,51 -34,34 -51,75 -51,123l0 1227c0,14 7,21 21,21 14,0 21,-7 21,-21l0 -618c0,-11 4,-21 12,-29 8,-8 17,-12 29,-12 18,0 30,7 34,21l260 668 1 0z"/>
    <path class="fil16" d="M13327 10470c0,47 -17,86 -50,118 -33,32 -72,49 -117,49 -47,0 -86,-16 -118,-49 -32,-32 -49,-72 -49,-118l0 -563c0,-10 5,-15 15,-15 10,0 15,5 15,15l0 563c0,38 13,70 40,97 27,27 59,40 97,40 38,0 71,-13 97,-40 27,-27 40,-59 40,-97l0 -1110c0,-48 -17,-89 -51,-123 -34,-34 -75,-51 -123,-51l-152 0c-16,0 -23,7 -23,21l0 1415c0,10 -4,15 -13,15 -10,0 -15,-5 -15,-15l0 -1415c0,-14 5,-26 14,-36 9,-10 22,-15 37,-15l152 0c56,0 104,20 144,59 39,39 59,87 59,144l0 1110 1 1z"/>
   </g>
  </g>
 </g>
</svg>
