<?xml version="1.0" encoding="UTF-8"?>
<!DOCTYPE svg PUBLIC "-//W3C//DTD SVG 1.1//EN" "http://www.w3.org/Graphics/SVG/1.1/DTD/svg11.dtd">
<!-- Creator: CorelDRAW X6 -->
<svg xmlns="http://www.w3.org/2000/svg" xml:space="preserve" width="225.213mm" height="134.959mm" version="1.1" style="shape-rendering:geometricPrecision; text-rendering:geometricPrecision; image-rendering:optimizeQuality; fill-rule:evenodd; clip-rule:evenodd"
viewBox="0 0 22521 13496"
 xmlns:xlink="http://www.w3.org/1999/xlink">
 <defs>
  <style type="text/css">
   <![CDATA[
    .fil11 {fill:#1F230C}
    .fil7 {fill:#624233}
    .fil1 {fill:#6E2C0A}
    .fil0 {fill:#7F8F3E}
    .fil2 {fill:#AC8C66}
    .fil3 {fill:#C37209}
    .fil9 {fill:#CDD4C4}
    .fil8 {fill:#EBEBEB}
    .fil10 {fill:white}
    .fil6 {fill:#1F230C;fill-rule:nonzero}
    .fil4 {fill:#343912;fill-rule:nonzero}
    .fil5 {fill:#575D27;fill-rule:nonzero}
   ]]>
  </style>
 </defs>
 <g id="Слой_x0020_1">
  <metadata id="CorelCorpID_0Corel-Layer"/>
  <g id="_884136128">
   <g id="_838683808">
    <rect class="fil0" x="-12" y="-24" width="22500" height="13500"/>
    <g id="_1093611472">
     <path class="fil1" d="M8257 4932l296 64c-250,0 -357,-652 -258,-847 79,-154 164,-379 300,-501 84,-75 130,-303 524,-461 787,-316 434,-507 1736,-703 655,-99 349,-204 1143,-74 289,47 -811,113 360,217 363,32 -926,189 302,189 677,0 1026,1516 2295,2015 191,75 337,127 330,129 -242,57 -571,1752 -1194,1880 -1146,237 -745,1341 -2246,877 -276,-85 -531,-756 -1058,-1098 -845,-548 -230,-429 -1291,-766 -1061,-338 -254,-1252 -1239,-919l0 -2z"/>
     <path class="fil2" d="M11739 3746c1153,0 317,-232 1203,-607 498,-211 86,836 617,1520 459,591 247,1109 -6,1066 -133,-22 -219,-260 -304,-506 -49,-51 -421,-608 -981,-801 -328,-113 -33,-583 -529,-674l0 2z"/>
     <path class="fil3" d="M11157 4747l-64 2138c-337,0 -729,577 -37,746 263,64 419,281 956,270 460,-10 243,-221 692,-392 218,-83 630,-557 653,-921 28,-429 -193,-883 -449,-1051 -25,-17 -476,-494 -695,-633 -251,-160 -879,-705 -1051,-221 -13,35 -5,25 -5,64z"/>
     <path class="fil2" d="M7983 5653c-135,-245 42,-411 216,-517 280,-170 440,-654 812,-701 105,-13 237,-55 388,11 146,64 319,790 536,858 505,158 715,363 1126,619 321,200 98,829 -183,937 -616,235 -897,386 -1514,174 -233,-80 -436,-452 -702,-497 -101,-17 -47,-373 -325,-497 -394,-176 -260,-68 -293,-348 -3,-24 -55,-28 -61,-38l0 -1z"/>
     <path class="fil4" d="M11949 10762c-16,0 -29,-5 -38,-15 -9,-10 -14,-23 -14,-37l0 -1269c0,-58 20,-108 61,-149 41,-41 90,-61 149,-61 58,0 108,20 149,61 41,41 61,90 61,149l0 1306c0,10 -5,15 -15,15 -10,0 -15,-5 -15,-15l0 -1306c0,-50 -18,-92 -53,-127 -35,-35 -77,-53 -127,-53 -51,0 -94,18 -129,53 -35,35 -53,77 -53,127l0 1269c0,15 8,22 24,22 15,0 22,-7 22,-22l0 -665c0,-15 5,-27 15,-37 10,-10 23,-15 37,-15l164 0c10,0 15,5 15,15 0,10 -5,15 -15,15l-164 0c-15,0 -22,7 -22,22l0 665c0,15 -5,27 -15,37 -10,10 -23,15 -37,15z"/>
     <path class="fil4" d="M11722 10589c0,48 -17,89 -51,123 -34,34 -75,50 -121,50 -48,0 -89,-17 -123,-50 -34,-34 -50,-74 -50,-123l0 -582c0,-10 5,-15 15,-15 10,0 15,5 15,15l0 582c0,39 14,73 42,101 28,28 61,42 101,42 39,0 73,-14 101,-42 28,-28 42,-61 42,-101l0 -1149c0,-50 -18,-92 -53,-127 -35,-35 -77,-53 -127,-53l-158 0c-16,0 -24,7 -24,22l0 1464c0,10 -4,15 -13,15 -10,0 -15,-5 -15,-15l0 -1464c0,-15 5,-27 14,-37 9,-10 22,-15 38,-15l158 0c58,0 108,20 149,61 41,41 61,90 61,149l0 1149 -1 0z"/>
     <path class="fil4" d="M11113 9231c10,0 15,5 15,15l0 1474c0,12 -4,22 -12,30 -8,8 -18,12 -30,12 -9,0 -17,-3 -24,-9 -7,-6 -12,-13 -15,-22l-363 -1461c-1,-6 -5,-9 -11,-9 -7,0 -11,4 -11,11l0 1437c0,15 7,22 22,22 16,0 24,-7 24,-22l0 -702c0,-10 4,-15 13,-15 10,0 15,5 15,15l0 702c0,15 -5,27 -14,37 -9,10 -22,15 -38,15 -15,0 -27,-5 -37,-15 -10,-10 -15,-23 -15,-37l0 -1437c0,-12 4,-22 12,-30 8,-8 18,-12 30,-12 20,0 34,10 39,31l363 1464c1,4 5,7 11,7 7,0 11,-4 11,-11l0 -1474c0,-10 5,-15 15,-15l0 -1z"/>
     <path class="fil4" d="M10090 10762c-16,0 -29,-5 -38,-15 -9,-10 -14,-23 -14,-37l0 -1269c0,-58 20,-108 61,-149 41,-41 90,-61 149,-61 58,0 108,20 149,61 41,41 61,90 61,149l0 1306c0,10 -5,15 -15,15 -10,0 -15,-5 -15,-15l0 -1306c0,-50 -18,-92 -53,-127 -35,-35 -77,-53 -127,-53 -51,0 -94,18 -129,53 -35,35 -53,77 -53,127l0 1269c0,15 8,22 24,22 15,0 22,-7 22,-22l0 -665c0,-15 5,-27 15,-37 10,-10 23,-15 37,-15l164 0c10,0 15,5 15,15 0,10 -5,15 -15,15l-164 0c-15,0 -22,7 -22,22l0 665c0,15 -5,27 -15,37 -10,10 -23,15 -37,15z"/>
     <path class="fil4" d="M9652 9231c58,0 108,20 149,61 41,41 61,90 61,149l0 409c0,48 -17,89 -50,123 -34,34 -74,50 -123,50 -47,0 -87,-17 -121,-50 -34,-34 -51,-74 -51,-123l0 -409c0,-10 5,-15 15,-15 10,0 15,5 15,15l0 409c0,39 14,73 42,101 28,28 61,42 101,42 39,0 73,-14 102,-42 28,-28 43,-61 43,-101l0 -409c0,-50 -18,-92 -53,-127 -35,-35 -78,-53 -129,-53 -50,0 -92,18 -127,53 -35,35 -53,77 -53,127l0 1306c0,10 -5,15 -15,15 -10,0 -15,-5 -15,-15l0 -1306c0,-58 20,-108 61,-149 41,-41 90,-61 149,-61l-1 0z"/>
     <path class="fil4" d="M8854 10589c0,48 -17,89 -51,123 -34,34 -75,50 -121,50 -48,0 -89,-17 -123,-50 -34,-34 -50,-74 -50,-123l0 -582c0,-10 5,-15 15,-15 10,0 15,5 15,15l0 582c0,39 14,73 42,101 28,28 61,42 101,42 39,0 73,-14 101,-42 28,-28 42,-61 42,-101l0 -1149c0,-50 -18,-92 -53,-127 -35,-35 -77,-53 -127,-53l-158 0c-16,0 -24,7 -24,22l0 1464c0,10 -4,15 -13,15 -10,0 -15,-5 -15,-15l0 -1464c0,-15 5,-27 14,-37 9,-10 22,-15 38,-15l158 0c58,0 108,20 149,61 41,41 61,90 61,149l0 1149 -1 0z"/>
     <path class="fil4" d="M7891 9948c-15,0 -27,-5 -37,-15 -10,-10 -15,-23 -15,-37l0 -455c0,-58 20,-108 61,-149 41,-41 90,-61 149,-61l197 0c10,0 15,5 15,15 0,10 -5,15 -15,15l-197 0c-50,0 -92,18 -127,53 -35,35 -53,77 -53,127l0 455c0,15 7,22 22,22l195 0c15,0 27,5 37,15 10,10 15,23 15,37 0,15 -5,27 -15,37 -10,10 -23,15 -37,15l-195 0c-15,0 -22,8 -22,24l0 505c0,50 18,92 53,127 35,35 77,53 127,53l197 0c10,0 15,5 15,15 0,10 -5,15 -15,15l-197 0c-58,0 -108,-20 -149,-61 -41,-41 -61,-90 -61,-149l0 -505c0,-16 5,-29 15,-39 10,-10 23,-15 37,-15l195 0c15,0 22,-7 22,-22 0,-15 -7,-22 -22,-22l-195 0z"/>
     <path class="fil4" d="M7663 10743c3,9 0,15 -9,20 -9,1 -15,-1 -20,-9l-267 -689 -2 -2c-1,0 -3,0 -3,-1 -1,-1 -2,-1 -3,-1 -7,0 -11,4 -11,11l0 639c0,15 -5,27 -15,37 -10,10 -23,15 -37,15 -15,0 -27,-5 -37,-15 -10,-10 -15,-23 -15,-37l0 -1269c0,-58 20,-108 61,-149 41,-41 90,-61 149,-61 58,0 108,20 149,61 41,41 61,90 61,149l0 409c0,48 -17,89 -50,123 -34,34 -74,50 -123,50 -47,0 -87,-17 -121,-50 -34,-34 -51,-74 -51,-123l0 -409c0,-10 5,-15 15,-15 10,0 15,5 15,15l0 409c0,39 14,73 42,101 28,28 61,42 101,42 39,0 73,-14 101,-42 28,-28 42,-61 42,-101l0 -409c0,-50 -18,-92 -53,-127 -35,-35 -77,-53 -127,-53 -50,0 -92,18 -127,53 -35,35 -53,77 -53,127l0 1269c0,15 7,22 22,22 15,0 22,-7 22,-22l0 -639c0,-12 4,-22 12,-30 8,-8 18,-12 30,-12 19,0 31,7 35,22l269 691 -2 0z"/>
     <path class="fil5" d="M11926 10755c-16,0 -29,-5 -38,-15 -9,-10 -14,-23 -14,-37l0 -1269c0,-58 20,-108 61,-149 41,-41 90,-61 149,-61 58,0 108,20 149,61 41,41 61,90 61,149l0 1306c0,10 -5,15 -15,15 -10,0 -15,-5 -15,-15l0 -1306c0,-50 -18,-92 -53,-127 -35,-35 -77,-53 -127,-53 -51,0 -94,18 -129,53 -35,35 -53,77 -53,127l0 1269c0,15 8,22 24,22 15,0 22,-7 22,-22l0 -665c0,-15 5,-27 15,-37 10,-10 23,-15 37,-15l164 0c10,0 15,5 15,15 0,10 -5,15 -15,15l-164 0c-15,0 -22,7 -22,22l0 665c0,15 -5,27 -15,37 -10,10 -23,15 -37,15z"/>
     <path class="fil5" d="M11699 10582c0,48 -17,89 -51,123 -34,34 -75,50 -121,50 -48,0 -89,-17 -123,-50 -34,-34 -50,-74 -50,-123l0 -582c0,-10 5,-15 15,-15 10,0 15,5 15,15l0 582c0,39 14,73 42,101 28,28 61,42 101,42 39,0 73,-14 101,-42 28,-28 42,-61 42,-101l0 -1149c0,-50 -18,-92 -53,-127 -35,-35 -77,-53 -127,-53l-158 0c-16,0 -24,7 -24,22l0 1464c0,10 -4,15 -13,15 -10,0 -15,-5 -15,-15l0 -1464c0,-15 5,-27 14,-37 9,-10 22,-15 38,-15l158 0c58,0 108,20 149,61 41,41 61,90 61,149l0 1149 -1 0z"/>
     <path class="fil5" d="M11091 9223c10,0 15,5 15,15l0 1474c0,12 -4,22 -12,30 -8,8 -18,12 -30,12 -9,0 -17,-3 -24,-9 -7,-6 -12,-13 -15,-22l-363 -1461c-1,-6 -5,-9 -11,-9 -7,0 -11,4 -11,11l0 1437c0,15 7,22 22,22 16,0 24,-7 24,-22l0 -702c0,-10 4,-15 13,-15 10,0 15,5 15,15l0 702c0,15 -5,27 -14,37 -9,10 -22,15 -38,15 -15,0 -27,-5 -37,-15 -10,-10 -15,-23 -15,-37l0 -1437c0,-12 4,-22 12,-30 8,-8 18,-12 30,-12 20,0 34,10 39,31l363 1464c1,4 5,7 11,7 7,0 11,-4 11,-11l0 -1474c0,-10 5,-15 15,-15l0 -1z"/>
     <path class="fil5" d="M10067 10755c-16,0 -29,-5 -38,-15 -9,-10 -14,-23 -14,-37l0 -1269c0,-58 20,-108 61,-149 41,-41 90,-61 149,-61 58,0 108,20 149,61 41,41 61,90 61,149l0 1306c0,10 -5,15 -15,15 -10,0 -15,-5 -15,-15l0 -1306c0,-50 -18,-92 -53,-127 -35,-35 -77,-53 -127,-53 -51,0 -94,18 -129,53 -35,35 -53,77 -53,127l0 1269c0,15 8,22 24,22 15,0 22,-7 22,-22l0 -665c0,-15 5,-27 15,-37 10,-10 23,-15 37,-15l164 0c10,0 15,5 15,15 0,10 -5,15 -15,15l-164 0c-15,0 -22,7 -22,22l0 665c0,15 -5,27 -15,37 -10,10 -23,15 -37,15z"/>
     <path class="fil5" d="M9629 9223c58,0 108,20 149,61 41,41 61,90 61,149l0 409c0,48 -17,89 -50,123 -34,34 -74,50 -123,50 -47,0 -87,-17 -121,-50 -34,-34 -51,-74 -51,-123l0 -409c0,-10 5,-15 15,-15 10,0 15,5 15,15l0 409c0,39 14,73 42,101 28,28 61,42 101,42 39,0 73,-14 102,-42 28,-28 43,-61 43,-101l0 -409c0,-50 -18,-92 -53,-127 -35,-35 -78,-53 -129,-53 -50,0 -92,18 -127,53 -35,35 -53,77 -53,127l0 1306c0,10 -5,15 -15,15 -10,0 -15,-5 -15,-15l0 -1306c0,-58 20,-108 61,-149 41,-41 90,-61 149,-61l-1 0z"/>
     <path class="fil6" d="M8831 10582c0,48 -17,89 -51,123 -34,34 -75,50 -121,50 -48,0 -89,-17 -123,-50 -34,-34 -50,-74 -50,-123l0 -582c0,-10 5,-15 15,-15 10,0 15,5 15,15l0 582c0,39 14,73 42,101 28,28 61,42 101,42 39,0 73,-14 101,-42 28,-28 42,-61 42,-101l0 -1149c0,-50 -18,-92 -53,-127 -35,-35 -77,-53 -127,-53l-158 0c-16,0 -24,7 -24,22l0 1464c0,10 -4,15 -13,15 -10,0 -15,-5 -15,-15l0 -1464c0,-15 5,-27 14,-37 9,-10 22,-15 38,-15l158 0c58,0 108,20 149,61 41,41 61,90 61,149l0 1149 -1 0z"/>
     <path class="fil6" d="M7868 9941c-15,0 -27,-5 -37,-15 -10,-10 -15,-23 -15,-37l0 -455c0,-58 20,-108 61,-149 41,-41 90,-61 149,-61l197 0c10,0 15,5 15,15 0,10 -5,15 -15,15l-197 0c-50,0 -92,18 -127,53 -35,35 -53,77 -53,127l0 455c0,15 7,22 22,22l195 0c15,0 27,5 37,15 10,10 15,23 15,37 0,15 -5,27 -15,37 -10,10 -23,15 -37,15l-195 0c-15,0 -22,8 -22,24l0 505c0,50 18,92 53,127 35,35 77,53 127,53l197 0c10,0 15,5 15,15 0,10 -5,15 -15,15l-197 0c-58,0 -108,-20 -149,-61 -41,-41 -61,-90 -61,-149l0 -505c0,-16 5,-29 15,-39 10,-10 23,-15 37,-15l195 0c15,0 22,-7 22,-22 0,-15 -7,-22 -22,-22l-195 0z"/>
     <path class="fil6" d="M7641 10735c3,9 0,15 -9,20 -9,1 -15,-1 -20,-9l-267 -689 -2 -2c-1,0 -3,0 -3,-1 -1,-1 -2,-1 -3,-1 -7,0 -11,4 -11,11l0 639c0,15 -5,27 -15,37 -10,10 -23,15 -37,15 -15,0 -27,-5 -37,-15 -10,-10 -15,-23 -15,-37l0 -1269c0,-58 20,-108 61,-149 41,-41 90,-61 149,-61 58,0 108,20 149,61 41,41 61,90 61,149l0 409c0,48 -17,89 -50,123 -34,34 -74,50 -123,50 -47,0 -87,-17 -121,-50 -34,-34 -51,-74 -51,-123l0 -409c0,-10 5,-15 15,-15 10,0 15,5 15,15l0 409c0,39 14,73 42,101 28,28 61,42 101,42 39,0 73,-14 101,-42 28,-28 42,-61 42,-101l0 -409c0,-50 -18,-92 -53,-127 -35,-35 -77,-53 -127,-53 -50,0 -92,18 -127,53 -35,35 -53,77 -53,127l0 1269c0,15 7,22 22,22 15,0 22,-7 22,-22l0 -639c0,-12 4,-22 12,-30 8,-8 18,-12 30,-12 19,0 31,7 35,22l269 691 -2 0z"/>
     <path class="fil6" d="M7838 9939c-15,0 -27,-5 -37,-15 -10,-10 -15,-23 -15,-37l0 -455c0,-58 20,-108 61,-149 41,-41 90,-61 149,-61l197 0c10,0 15,5 15,15 0,10 -5,15 -15,15l-197 0c-50,0 -92,18 -127,53 -35,35 -53,77 -53,127l0 455c0,15 7,22 22,22l195 0c15,0 27,5 37,15 10,10 15,23 15,37 0,15 -5,27 -15,37 -10,10 -23,15 -37,15l-195 0c-15,0 -22,8 -22,24l0 505c0,50 18,92 53,127 35,35 77,53 127,53l197 0c10,0 15,5 15,15 0,10 -5,15 -15,15l-197 0c-58,0 -108,-20 -149,-61 -41,-41 -61,-90 -61,-149l0 -505c0,-16 5,-29 15,-39 10,-10 23,-15 37,-15l195 0c15,0 22,-7 22,-22 0,-15 -7,-22 -22,-22l-195 0z"/>
     <path class="fil6" d="M7618 10735c3,9 0,15 -9,20 -9,1 -15,-1 -20,-9l-267 -689 -2 -2c-1,0 -3,0 -3,-1 -1,-1 -2,-1 -3,-1 -7,0 -11,4 -11,11l0 639c0,15 -5,27 -15,37 -10,10 -23,15 -37,15 -15,0 -27,-5 -37,-15 -10,-10 -15,-23 -15,-37l0 -1269c0,-58 20,-108 61,-149 41,-41 90,-61 149,-61 58,0 108,20 149,61 41,41 61,90 61,149l0 409c0,48 -17,89 -50,123 -34,34 -74,50 -123,50 -47,0 -87,-17 -121,-50 -34,-34 -51,-74 -51,-123l0 -409c0,-10 5,-15 15,-15 10,0 15,5 15,15l0 409c0,39 14,73 42,101 28,28 61,42 101,42 39,0 73,-14 101,-42 28,-28 42,-61 42,-101l0 -409c0,-50 -18,-92 -53,-127 -35,-35 -77,-53 -127,-53 -50,0 -92,18 -127,53 -35,35 -53,77 -53,127l0 1269c0,15 7,22 22,22 15,0 22,-7 22,-22l0 -639c0,-12 4,-22 12,-30 8,-8 18,-12 30,-12 19,0 31,7 35,22l269 691 -2 0z"/>
     <path class="fil6" d="M8802 10582c0,48 -17,89 -51,123 -34,34 -75,50 -121,50 -48,0 -89,-17 -123,-50 -34,-34 -50,-74 -50,-123l0 -582c0,-10 5,-15 15,-15 10,0 15,5 15,15l0 582c0,39 14,73 42,101 28,28 61,42 101,42 39,0 73,-14 101,-42 28,-28 42,-61 42,-101l0 -1149c0,-50 -18,-92 -53,-127 -35,-35 -77,-53 -127,-53l-158 0c-16,0 -24,7 -24,22l0 1464c0,10 -4,15 -13,15 -10,0 -15,-5 -15,-15l0 -1464c0,-15 5,-27 14,-37 9,-10 22,-15 38,-15l158 0c58,0 108,20 149,61 41,41 61,90 61,149l0 1149 -1 0z"/>
     <path class="fil7" d="M8305 6019c13,-6 11,-17 42,-45 23,-21 35,-13 63,-25 -1,-1 10,-15 -38,0 -27,8 -68,37 -66,70l-1 0z"/>
     <path class="fil8" d="M9945 4831c-3,-28 -1,-54 -9,-65 -2,3 -10,-4 -5,36 2,17 3,19 14,29z"/>
     <path class="fil7" d="M8680 6784c-69,9 -79,18 -112,48 -15,13 -36,21 -48,53 -31,83 29,184 77,236l62 68c8,8 25,25 34,33 47,40 95,85 141,123 30,26 158,103 194,128 14,9 23,21 37,30l80 54c15,8 30,10 46,17 16,7 30,14 47,20 37,13 58,25 104,31 88,11 150,18 243,18 72,0 183,-4 163,-94 -6,-26 -11,-26 -23,-40l-113 -151c-30,-50 -50,-68 -85,-112 -36,-47 -142,-185 -178,-215 -98,-81 -129,-92 -257,-136 -34,-11 -70,-17 -103,-27 -89,-26 -234,-93 -308,-84l-1 0z"/>
     <path class="fil1" d="M7986 6162c-94,48 -91,99 -108,181 -10,49 -3,84 3,134 14,112 33,277 55,380 19,87 66,246 101,334 7,19 15,34 22,49 22,44 35,90 82,140 13,14 23,24 35,36 14,15 24,26 37,38 41,36 104,118 123,169 7,18 19,37 23,48 3,8 4,117 133,73 46,-16 89,-67 101,-113 6,-22 17,-34 18,-59 1,-23 -9,-36 -12,-61 -15,-100 -126,-262 -188,-322 -21,-20 -80,-93 -96,-122 -10,-19 -81,-256 -87,-278 -10,-39 -19,-79 -26,-121 -6,-41 -9,-87 -23,-124 -14,-38 -26,-70 -33,-112 -7,-43 -23,-75 -37,-111 -18,-45 -74,-186 -124,-161l1 2z"/>
     <path class="fil7" d="M8437 5406c-54,5 -79,19 -111,46 -23,19 -61,55 -79,80 -33,44 -107,139 -88,223 8,38 46,65 81,74 29,7 314,-27 355,113 16,57 -17,86 84,59 40,-11 77,-41 96,-63 43,-53 53,-179 13,-254 -49,-92 -55,-117 -129,-185 -28,-26 -52,-47 -98,-61 -33,-10 -90,-34 -124,-31l0 -1z"/>
     <path class="fil2" d="M9016 6726c-8,-20 -20,-21 -37,-33 -77,-59 -171,-173 -216,-261 -26,-51 -55,-148 -54,-218 1,-27 24,-100 10,-115 -10,-11 -35,0 -52,1 -19,2 -54,-3 -69,3 -50,18 -23,182 -15,232 16,94 75,200 145,261 103,90 37,51 179,97 30,10 78,29 108,34l1 -1z"/>
     <path class="fil3" d="M7972 4653c22,-5 23,-8 44,-1 16,31 -11,38 -43,100 -12,23 -19,25 -31,49 -12,23 -24,28 -31,51 18,-9 63,-44 82,-28 28,23 -38,95 -46,134 17,-7 25,-19 43,-6 17,17 0,34 -12,51 -20,29 -69,125 -78,163 8,4 18,5 24,12 7,9 6,17 3,28l-44 91c-4,8 -15,38 -18,48 25,-25 44,-60 68,-85 49,-53 67,-94 107,-131 11,-10 29,-26 36,-44 12,-28 -20,-22 -8,-53 3,-7 9,-15 17,-20 7,-5 6,-4 14,-7l16 -6c-35,-81 -23,-153 17,-218 -14,-22 -51,-44 -61,-54 -15,-15 -39,-65 -4,-80 30,-3 5,59 89,69 2,-38 -53,-50 -82,-150l-6 -16c0,-1 -1,-2 -2,-3l-3 -5c-19,12 -34,39 -48,54 -18,18 -32,34 -45,58l2 -1z"/>
     <path class="fil9" d="M10583 4880c-130,-1 -104,29 -193,66 -72,30 -110,55 -211,42 -69,-9 -150,-24 -193,-61 -16,-14 -40,-63 -76,-42 -24,14 -10,81 5,101 22,31 111,85 153,102 66,25 150,38 226,20 64,-15 139,-52 165,-91 65,-96 106,-111 122,-136l2 -1z"/>
     <path class="fil2" d="M8612 6643c9,-49 -81,-103 -115,-296 -41,-234 18,-264 -57,-228 -104,50 -161,212 -60,349 30,41 62,84 94,116 27,28 73,85 139,60l-1 -1z"/>
     <path class="fil9" d="M10393 4818c30,-10 60,-32 89,-47 31,-17 70,-32 60,-77 -15,-18 -133,-70 -161,-65 -6,31 51,58 29,146 -5,19 -13,27 -17,44l0 -1z"/>
     <path class="fil10" d="M10108 4746c13,-43 3,-57 32,-84 20,-18 44,-30 80,-37l14 -35c-48,-1 -141,46 -143,95 -1,18 1,51 18,62l-1 -1z"/>
     <path class="fil10" d="M10071 4879c-7,-15 -18,-24 -27,-42 -14,-28 -28,-79 -30,-110 -2,-33 11,-38 11,-64 -10,1 -15,4 -24,15 -7,9 -9,16 -11,31 -6,50 21,154 81,169l0 1z"/>
     <path class="fil10" d="M10392 4873c51,-13 122,-45 160,-79 23,-21 34,-30 35,-53l-94 69c-25,15 -89,46 -100,63l-1 0z"/>
     <path class="fil7" d="M7990 5941c48,17 63,3 98,58 11,17 8,23 28,26 -4,-32 -25,-54 -42,-70 -18,-17 -23,-36 -83,-33l-1 20 0 -1z"/>
     <path class="fil10" d="M8204 4966c2,-5 2,-1 2,-9 0,-7 -6,-19 -6,-43 0,-24 7,-42 7,-57 -36,-8 -40,56 -27,85 8,19 5,23 24,23l0 1z"/>
     <path class="fil10" d="M10163 4718c25,-13 52,-31 62,-57 -35,1 -64,21 -62,57z"/>
     <path class="fil11" d="M8680 6784c74,-10 219,57 308,84 33,10 69,16 103,27 128,44 159,55 257,136 37,30 142,168 178,215 34,45 55,62 85,112l113 151c12,15 17,15 23,40 20,90 -91,94 -163,94 -93,0 -155,-7 -243,-18 -45,-6 -66,-18 -104,-31 -17,-6 -31,-13 -47,-20 -16,-7 -31,-9 -46,-17l-80 -54c-14,-9 -23,-21 -37,-30 -36,-25 -164,-102 -194,-128 -45,-38 -94,-83 -141,-123 -9,-8 -26,-24 -34,-33l-62 -68c-48,-52 -108,-153 -77,-236 12,-32 33,-39 48,-53 34,-30 43,-39 112,-48l1 0zm-694 -622c50,-25 106,115 124,161 14,36 30,68 37,111 7,42 19,74 33,112 14,37 17,83 23,124 6,42 16,82 26,121 5,21 77,259 87,278 16,29 75,102 96,122 63,60 173,222 188,322 4,25 13,38 12,61 -1,25 -12,38 -18,59 -12,46 -55,97 -101,113 -129,44 -130,-65 -133,-73 -4,-11 -16,-31 -23,-48 -20,-51 -82,-134 -123,-169 -14,-12 -23,-23 -37,-38 -12,-12 -22,-22 -35,-36 -47,-50 -60,-96 -82,-140 -7,-14 -15,-30 -22,-49 -35,-88 -82,-247 -101,-334 -22,-103 -41,-268 -55,-380 -6,-50 -14,-85 -3,-134 17,-81 14,-133 108,-181l-1 -2zm1030 563c-29,-4 -77,-24 -108,-34 -142,-46 -76,-7 -179,-97 -70,-61 -129,-167 -145,-261 -9,-50 -35,-214 15,-232 15,-5 50,-1 69,-3 17,-2 42,-12 52,-1 14,14 -10,88 -10,115 -1,70 27,167 54,218 45,88 138,203 216,261 16,12 29,14 37,33l-1 1zm-404 -83c-66,25 -111,-32 -139,-60 -31,-32 -64,-75 -94,-116 -101,-137 -44,-299 60,-349 75,-36 16,-6 57,228 34,194 125,247 115,296l1 1zm-308 -624c-2,-33 39,-62 66,-70 48,-15 37,-1 38,0 -27,12 -39,5 -63,25 -31,28 -28,38 -42,45l1 0zm-189 5c-21,-3 -18,-9 -28,-26 -35,-54 -50,-41 -98,-58l1 -20c60,-3 65,16 83,33 17,16 38,39 42,70l0 1zm321 -617c34,-3 91,21 124,31 46,14 70,35 98,61 74,69 80,94 129,185 40,75 30,201 -13,254 -18,23 -56,52 -96,63 -100,27 -67,-3 -84,-59 -40,-140 -326,-106 -355,-113 -36,-9 -73,-36 -81,-74 -19,-84 56,-179 88,-223 18,-25 56,-61 79,-80 32,-26 57,-41 111,-46l0 1zm2146 -526c-16,26 -57,41 -122,136 -27,39 -101,75 -165,91 -76,18 -161,6 -226,-20 -43,-16 -131,-71 -153,-102 -14,-20 -29,-86 -5,-101 36,-21 60,28 76,42 43,38 123,52 193,61 101,13 138,-12 211,-42 89,-37 62,-67 193,-66l-2 1zm-2379 86c-19,0 -16,-4 -24,-23 -13,-29 -9,-93 27,-85 0,15 -7,33 -7,57 0,24 6,36 6,43 0,8 0,4 -2,9l0 -1zm1742 -135c-11,-10 -12,-12 -14,-29 -5,-40 3,-32 5,-36 8,10 7,37 9,65zm447 42c11,-17 76,-49 100,-63l94 -69c-1,23 -12,32 -35,53 -38,34 -109,67 -160,79l1 0zm-321 5c-60,-15 -86,-119 -81,-169 2,-15 4,-22 11,-31 9,-12 15,-14 24,-15 0,26 -13,31 -11,64 2,31 16,82 30,110 9,18 20,27 27,42l0 -1zm92 -161c-2,-36 27,-56 62,-57 -10,26 -37,44 -62,57zm-2076 294c-8,6 -15,14 -17,20 -12,31 20,25 8,53 -8,17 -26,34 -36,44 -40,37 -58,78 -107,131 -24,25 -43,60 -68,85 3,-10 14,-40 18,-48l44 -91c4,-12 5,-19 -3,-28 -6,-7 -16,-8 -24,-12 9,-38 58,-133 78,-163 12,-17 29,-34 12,-51 -18,-13 -26,-1 -43,6 8,-39 73,-111 46,-134 -19,-16 -64,18 -82,28 7,-24 19,-29 31,-51 12,-23 19,-26 31,-49 32,-61 59,-69 43,-100 -21,-6 -22,-3 -44,1 13,-23 27,-40 45,-58 15,-15 29,-42 48,-54l3 5c0,1 1,2 2,3l6 16c29,101 84,113 82,150 -83,-10 -59,-72 -89,-69 -35,15 -11,65 4,80 10,10 46,31 61,54 -40,65 -53,136 -17,218l-16 6c-8,3 -7,2 -14,7l-2 1zm2395 -241c-28,15 -59,37 -89,47 4,-16 12,-24 17,-44 22,-89 -35,-115 -29,-146 28,-5 146,48 161,65 10,45 -29,61 -60,77l0 1zm-374 -24c-17,-10 -18,-43 -18,-62 2,-49 94,-97 143,-95l-14 35c-35,8 -60,19 -80,37 -29,27 -18,41 -32,84l1 1zm-259 -2016c7,-42 64,-105 94,-136 14,-15 32,-29 32,-48 -31,-13 -53,17 -91,47 -41,32 -87,59 -130,88 -18,12 -29,20 -45,30 -35,21 -108,87 -126,96 -29,14 -206,159 -249,195 -15,12 -26,25 -40,34 3,-46 -26,-51 -52,-22 -32,36 -70,69 -105,104 -30,31 -92,111 -118,150 -8,13 -15,17 -24,31 -6,10 -10,20 -18,32 -9,12 -15,15 -25,30 -16,23 -24,50 -49,64 6,-41 66,-194 48,-216 -30,-24 -44,9 -53,26 -13,22 -26,39 -40,60 -26,39 -61,75 -79,118 -19,45 -59,79 -73,124 -16,51 -42,89 -62,135 0,-35 -3,-73 -2,-107 1,-29 17,-74 -13,-88 -24,-3 -76,98 -86,119 -22,46 -50,86 -70,135 -10,24 -19,49 -29,71 -11,24 -17,53 -27,78 -13,32 -46,131 -60,150 -1,-22 4,-56 -6,-74 -33,-9 -39,36 -56,83 -12,35 -24,81 -28,119 -41,-67 -54,90 -65,108 -12,-14 -13,-21 -33,-25 -22,11 -60,80 -72,109 -17,42 -26,103 -30,151 -34,17 -36,20 -57,46 -15,18 -164,162 -113,188 27,5 26,-6 46,-14 -10,30 -19,27 -31,51 -23,48 -81,107 -59,166 37,10 43,-22 73,-40 -12,45 -72,139 -45,171l7 7c1,1 2,2 2,3 -5,21 -16,38 -24,58 -27,73 -12,107 -17,133 -8,37 -37,72 -50,109 -19,56 -40,120 -70,168 -21,32 -41,60 -62,97 -19,33 -36,71 -51,108 -15,39 -99,191 -90,228 18,2 39,-25 46,-34 -13,24 -26,46 -40,75 -6,13 -14,28 -20,39 -8,17 -8,26 -18,45 -10,20 -90,140 -61,166 15,12 35,-30 55,-43 -16,52 -127,250 -105,332 34,10 30,-22 48,-43l-18 100c-6,40 -24,120 -25,157 -2,78 -23,79 -22,163l-12 113c-2,31 -14,19 -13,45 1,19 5,38 5,60 0,23 -6,34 -7,54 -1,20 2,41 -2,61 -15,74 -1,129 -29,230 -2,9 -3,7 -5,16 -4,23 -5,46 -9,70 -8,41 -23,82 -38,121 -9,24 -8,38 -19,61 -9,19 -17,35 -25,55 -22,54 -26,66 57,57 44,-5 26,2 63,-15 -19,89 -142,218 -47,218 27,0 33,-13 58,-20 14,-4 19,-2 34,-3 15,-2 20,-6 34,-9 0,0 -31,47 -49,93 -26,69 -50,136 -85,200 -7,12 -34,95 -32,108 40,30 32,13 76,4 50,-11 49,-10 87,-29 -8,35 -31,87 -44,121 -12,31 -43,96 -24,121 12,10 13,4 33,5 57,2 9,22 89,-12 -8,22 -23,20 -44,65l-54 109c-8,17 -6,26 -13,42 -5,11 -14,23 -20,35 -9,17 -5,28 -12,47 -5,13 -14,23 -18,37 -5,19 -1,25 -9,46 -19,52 -37,107 -64,154 -5,9 -45,63 -33,75 24,11 59,-23 75,-32 21,-12 37,-33 61,-52 21,-17 45,-34 62,-51 24,-24 36,-37 56,-57 21,-21 31,-40 53,-60 37,-35 130,-151 142,-197 -17,12 -51,61 -67,80l-69 82c-12,14 -24,22 -38,38 -32,37 -68,88 -110,113 9,-35 35,-77 49,-111 33,-79 57,-112 89,-196 9,-25 23,-47 34,-79 37,-108 36,-83 66,-159 6,-16 8,-24 16,-38 8,-14 17,-22 11,-38 -21,-2 -38,22 -48,34 -26,32 -61,47 -94,74 -10,8 -41,25 -55,30 12,-29 57,-77 78,-116l43 -99c5,-14 11,-19 17,-33 9,-20 17,-50 25,-71 23,-58 31,-97 36,-158 3,-40 25,-29 6,-75 -24,-3 -25,6 -34,23 -6,12 -15,27 -23,40 -51,76 -15,46 -102,140 -18,19 -39,49 -64,61 24,-106 180,-353 154,-446l-29 -5c-4,6 -9,13 -12,16 -32,30 -100,87 -140,94 20,-36 42,-68 60,-111 17,-41 33,-85 48,-128 6,-17 23,-60 -16,-55 -12,2 -41,28 -53,37 -33,25 -70,46 -111,65 21,-58 146,-185 116,-325 -5,-24 -8,-42 -5,-66 3,-23 -7,-35 -5,-65l7 0c-1,-43 -15,-89 -12,-129 3,-47 -7,-98 -7,-151 0,-183 -4,-359 31,-540 5,-26 24,-65 17,-88 -24,0 -18,15 -32,34 -12,17 -14,17 -26,40 -3,-35 36,-153 49,-183 15,-34 71,-131 67,-168 -18,0 -25,12 -36,23 -8,8 -23,23 -30,30 0,-27 25,-67 36,-87 30,-54 52,-114 83,-169 6,-11 70,-90 25,-80 -17,4 -27,25 -40,32 5,-46 54,-123 71,-164 31,-75 56,-135 101,-196 22,-30 28,-33 48,-70 9,-17 15,-23 24,-39 9,-17 13,-23 23,-36 13,-19 11,-18 27,-32 20,-18 33,-53 56,-68 -25,93 -77,126 -93,294l-42 213c-17,56 -3,49 -32,98 -13,21 -59,157 -70,190 -22,65 -42,132 -53,203 -11,71 -32,142 -44,216 -12,75 -7,164 -19,236 -8,48 -2,78 -2,125 0,43 0,87 -1,130 -1,121 45,236 49,268 4,31 4,27 13,54 36,107 39,85 59,134 6,15 14,30 20,43 27,57 62,109 111,148 25,20 37,45 66,64 17,11 19,16 33,30l178 144c14,11 24,11 38,25 75,76 7,147 -35,216 -17,28 -27,61 -40,90 -20,45 -15,101 -15,152 0,75 60,135 99,164 647,467 410,-1154 1733,-52 149,124 334,236 566,258 533,77 690,-190 1189,-285 977,-186 2058,202 2028,-1102 -1,-26 -8,-35 -3,-62 7,-41 35,-173 51,-206 17,-34 29,-57 46,-83 58,-87 108,-91 133,-123 14,-18 14,-16 40,-22 60,-13 108,-25 170,-27 40,-1 46,-48 -21,-45 -113,5 -224,16 -322,66 -106,54 -146,81 -228,157 -60,56 -69,67 -136,119 -73,58 -138,121 -219,171 -35,22 -132,75 -168,88 -438,154 -2009,663 -2044,-208 -5,-117 96,-224 200,-205 1012,356 778,-795 612,-884 -17,-9 -35,-9 -51,-16 -23,-10 -49,-48 -52,-80 7,-30 81,-48 -13,-148 -32,-34 -129,-92 -133,-103 -4,-50 56,-58 26,-113 -12,-23 -100,-74 -130,-105 -37,-37 16,-127 -90,-224 -9,-8 -36,-28 -42,-37 -22,-29 -36,-91 -15,-130 16,-28 120,-146 147,-171 38,-34 147,-104 165,-149 17,-41 16,-99 -20,-118 -67,-36 -178,77 -243,30 -31,-22 -40,-78 -16,-111 37,-51 150,-104 164,-154 32,-110 -90,-130 -181,-119 -82,10 -171,58 -213,102 -58,62 -75,167 -122,192 -77,41 -160,-20 -230,-53 -33,-15 -68,-42 -99,-56 -49,-23 -95,-64 -144,-94 -19,-12 -28,-22 -49,-31 -18,-8 -41,-14 -61,-18 -35,-7 -97,8 -101,-53 -6,-90 104,-183 152,-243 28,-35 77,-55 59,-83 -47,-5 -178,110 -203,133 -87,81 -90,130 -141,195 -33,-30 -8,-120 14,-154 18,-28 87,-87 52,-134 -24,1 -35,30 -49,44 -34,35 -62,64 -89,104 -8,11 -31,51 -41,58l-2 -7c-1,-7 -2,1 0,-10 0,-1 5,-17 6,-19 22,-63 88,-154 139,-188 21,-14 33,-24 55,-37 31,-18 171,-80 196,-85 21,28 26,16 58,4 67,-25 149,-47 223,-50 -14,16 -33,18 -25,45 40,18 204,-16 260,10 -22,12 -67,14 -84,33 -17,42 113,21 132,21 95,1 177,42 269,57 23,4 52,8 75,10 13,1 27,0 39,2 12,2 24,6 31,2 -34,-10 -62,-25 -99,-35 -37,-9 -72,-15 -108,-26 -37,-10 -70,-18 -106,-28 -49,-14 -70,-9 -119,-15 15,0 26,-11 31,-23 -12,-57 -208,-32 -263,-35 27,-16 72,-27 92,-39l-1 -21c-37,-13 -266,35 -310,47 -8,-12 -5,-23 -26,-17l-120 44c-48,21 -97,46 -147,66 -56,22 -104,43 -136,78 -20,22 -34,33 -51,54 -19,22 -31,29 -49,60 -42,70 -82,132 -104,214 -7,26 -21,58 -53,55 -13,-1 -20,-10 -31,-20 -17,-16 -10,-12 -21,-33 -16,-29 -21,-48 -26,-82 -7,-45 2,-63 3,-103 1,-40 8,-53 22,-87 29,-73 127,-196 187,-240 153,-111 64,-56 264,-168 23,-13 41,-25 67,-38 21,-11 52,-25 75,-34l224 -94c41,-33 105,-39 151,-67l69 -39c5,-95 -253,-17 -305,-8 -45,8 -105,29 -157,38 -61,11 -109,27 -174,27 -89,0 -141,43 -194,98 -16,17 -25,42 -59,38 -8,-43 42,-85 30,-135 -34,-11 -75,44 -93,67 -24,32 -38,40 -72,95 -28,45 -46,102 -77,145 -9,13 -15,20 -22,32 -25,39 -73,144 -95,186 -26,51 -120,170 -159,226 -10,14 -18,17 -28,30 -32,43 -124,216 -155,78 -7,-33 -3,-70 -38,-74 -42,6 -64,158 -81,194 -8,-20 -24,-101 -53,-92 -26,8 -47,145 -47,178l0 45c-6,-16 -30,-87 -44,-90 -22,4 -21,18 -23,40 -2,19 -4,39 -6,60 -4,34 -6,87 -14,117 -9,-9 -43,-81 -52,-16 -6,45 -11,172 -2,222 4,21 -1,35 17,40 17,-13 6,-64 6,-107 0,-40 -1,-79 1,-119 4,4 3,2 6,9 14,24 6,80 44,71 7,-13 11,-39 11,-57 0,-58 10,-121 16,-179 12,25 21,61 30,90 18,55 43,56 43,-28 0,-67 -4,-144 19,-208 13,23 15,46 22,73 6,25 15,57 52,47 12,-21 12,-83 19,-115 8,-36 20,-73 32,-107 1,1 1,1 1,3 3,26 23,74 44,86 43,27 70,-18 113,8 31,18 38,49 54,84 17,37 38,53 55,83 54,91 210,258 210,361 0,125 -89,122 -46,254 10,31 47,72 69,86 27,17 70,43 103,56 41,16 78,24 115,40 134,59 169,59 310,84 21,4 39,13 63,16 145,24 235,30 355,110 34,23 63,41 93,66 30,25 51,49 75,80 73,93 -51,121 -47,225 3,83 144,98 202,114 90,25 262,121 221,243 -27,79 -145,89 -158,157 -10,51 31,73 3,132 -16,33 -57,51 -88,71 -106,67 -231,93 -360,108 -51,6 -96,5 -147,13 -158,26 -274,19 -434,4 -51,-5 -239,3 -309,0l-59 -5c-166,-7 -270,-2 -411,-75 -22,-11 -47,-15 -69,-27 -98,-55 -147,-91 -221,-168 -64,-67 -122,-148 -149,-240 -27,-91 -23,-158 7,-246 24,-73 76,-69 103,-189 7,-30 10,-56 7,-88 -4,-43 -25,-107 -46,-146 -13,-24 -23,-41 -36,-65 -38,-71 -82,-104 -115,-173 -12,-24 -26,-45 -33,-68 -31,-94 7,-148 38,-228 5,-13 9,-24 15,-35 4,-7 7,-11 8,-19 5,-31 -21,-38 -39,-4 -24,44 -41,68 -56,120 -4,14 -12,27 -18,41 -24,56 -27,91 -26,153 -39,-6 -96,-28 -147,-36 -74,-11 -98,-3 -167,7 -77,11 -133,46 -197,79 -20,10 -40,28 -59,35 18,-63 156,-170 207,-222 13,-14 30,-33 43,-45 17,-14 33,-24 48,-40 43,-46 86,-85 124,-136 30,-41 102,-179 113,-234 11,-55 8,-105 17,-159 19,-114 88,-271 134,-381 17,-42 29,-86 47,-129 50,-124 107,-239 158,-361 16,-37 45,-80 58,-113 3,25 -5,60 5,79 17,15 41,-48 48,-64 24,-54 52,-102 82,-153 7,-12 13,-24 22,-37 8,-13 17,-21 24,-31 -2,35 -37,101 -25,129 19,8 22,-9 34,-27 9,-13 18,-26 26,-41 21,-39 85,-122 112,-156 12,-14 20,-19 32,-35 15,-22 13,-24 38,-36 -3,26 -26,66 -10,90 23,0 33,-32 44,-49 15,-23 70,-77 91,-93 110,-77 91,-74 222,-151 12,-7 17,-11 27,-19 12,-10 21,-12 16,-30 -18,-1 -34,17 -49,27 -32,20 -69,36 -102,57l-137 102c-11,10 -77,77 -77,77 2,-22 27,-48 21,-71 -24,-6 -62,38 -79,52l-92 109c-24,35 -64,86 -82,120 2,-26 31,-98 23,-115 -26,-4 -45,36 -61,55 -24,29 -74,115 -91,152 -9,20 -29,67 -40,81 -2,-24 3,-56 -5,-75 -27,-2 -28,27 -41,49 -10,18 -22,40 -32,60 -20,41 -38,84 -64,124l-192 365c-19,42 -41,86 -59,129 -19,43 -42,86 -66,122 -53,79 -82,105 -181,101 -96,-4 -94,-118 -75,-190 17,-65 17,-75 47,-138l25 -66c8,-19 10,-5 18,-28 5,-13 6,-23 12,-38l75 -201c23,-67 31,-102 69,-166l50 -92c14,-22 13,-46 33,-62 1,35 2,74 -5,107 -23,111 3,162 58,71 17,-29 31,-42 44,-73 12,-30 26,-47 39,-74 14,-31 17,-53 36,-81 14,-22 35,-49 45,-68 18,-35 26,-45 45,-73 1,3 -12,81 -13,99 -1,26 -22,96 24,88 16,-3 61,-87 78,-108 9,-12 20,-22 28,-35 8,-12 13,-25 22,-37 11,-14 18,-17 28,-35l143 -192c6,-7 10,-9 15,-15 -5,36 -30,51 -23,90 44,40 62,-23 81,-48l69 -86c55,-65 180,-155 254,-214 30,-24 61,-44 91,-68 34,-28 42,-41 83,-72 12,-9 49,-53 91,-70 -13,33 -60,75 -48,120 41,15 90,-47 132,-80 43,-33 75,-68 120,-102l188 -142c12,-8 59,-33 57,-51 -16,0 -89,57 -109,70 -74,50 -149,101 -216,156 -29,24 -70,68 -103,85l1 4z"/>
     <path class="fil11" d="M12799 3524c-74,12 -97,25 -153,79 -72,69 -21,131 -177,292 -82,84 -156,150 -243,226 -26,23 -93,62 -102,133 -20,160 114,181 217,252 33,23 116,63 154,80 14,6 30,10 43,16l117 59c29,15 46,29 69,48l61 56c22,19 43,35 64,53 77,68 56,64 111,124 43,46 104,154 138,213 45,78 47,74 93,141 55,80 42,75 86,149 14,24 32,49 41,71 19,44 71,161 101,192 10,10 18,21 28,30 49,45 128,25 150,-34 26,-72 13,-135 -2,-206 -14,-64 -43,-116 -69,-165 -14,-28 -31,-48 -43,-74 -22,-48 -86,-151 -123,-228 -77,-160 -135,-220 -235,-351 -141,-183 -78,-283 -101,-368l3 -223c0,-43 6,-70 10,-109 6,-67 2,-164 -5,-229 -9,-77 -35,-114 -68,-166 -21,-33 -20,-43 -61,-56 -43,-14 -57,-14 -103,-6l-1 1z"/>
     <path class="fil11" d="M13211 8647c60,68 154,149 234,193 43,24 68,34 118,54 40,16 76,36 124,47 155,38 93,-93 55,-180 -41,-95 -203,-270 -226,-465 -8,-69 -6,-100 62,-108 95,-12 189,32 271,73 23,11 95,56 117,52 -6,-20 -47,-32 -64,-43 -23,-14 -40,-28 -63,-42 -88,-53 -220,-117 -324,-71 -51,23 -51,94 -42,160 15,111 72,217 121,298 37,60 137,210 138,278 -68,-10 -114,-39 -163,-57 -61,-22 -164,-81 -209,-122 -58,-52 -256,-249 -293,-256 -81,-14 -41,104 -24,142l104 227c10,21 26,49 28,77 -42,-25 -82,-54 -121,-85 -41,-32 -72,-63 -111,-94 -18,-14 -35,-35 -54,-51l-112 -97c-25,-19 -42,-28 -68,-4 -23,40 160,309 174,375 -48,-10 -103,-44 -144,-64 -170,-80 -172,-63 -343,-181 -21,-15 -38,-40 -70,-34 -46,24 45,137 53,185 -14,-7 -32,-14 -46,-21 -67,-35 -149,-85 -203,-137 -41,-39 -52,-54 -82,-38 -8,25 6,45 17,65 19,35 66,160 73,189 -80,-9 -233,-141 -271,-180 -17,-17 -43,-56 -69,-36 -22,17 -2,65 6,87l45 178c-61,-14 -86,-28 -133,-53 -44,-24 -67,-55 -100,-84 -28,-24 -37,-40 -52,-40 -31,0 -25,36 -19,62 11,45 23,104 27,152 -27,-9 -55,-30 -88,-41 -34,-12 -62,-19 -94,-36 -28,-14 -60,-28 -85,-44 -19,-13 -63,-44 -91,-36 -30,21 33,83 48,193 -31,-11 -180,-128 -214,-155 -19,-15 -40,-50 -73,-47 -17,25 1,33 16,49 14,15 24,26 42,41l232 178c53,38 77,24 61,-24l-44 -154c35,13 78,42 116,57 46,18 81,28 122,50 23,12 93,68 107,6 5,-23 -18,-118 -22,-150 52,30 23,56 219,124 133,46 65,-89 55,-135 -5,-22 -9,-48 -14,-71 51,30 132,118 229,152 193,68 66,-102 50,-178 42,22 207,138 269,145 93,11 0,-109 -10,-150 13,5 137,86 216,115 33,12 85,36 111,52 44,27 239,114 213,18 -18,-67 -161,-298 -164,-315l93 84c61,58 225,203 298,234 144,61 24,-155 5,-193 -25,-50 -100,-202 -104,-250l141 125 -1 5z"/>
     <path class="fil11" d="M10727 2491c14,-6 23,-12 36,-18l120 -52c56,-22 107,-40 167,-58 62,-19 108,-38 178,-48 60,-9 125,-34 190,-37 -31,36 -99,47 -136,74 -20,15 -38,32 -62,43 -16,7 -63,30 -68,42 7,11 8,12 26,12 12,0 24,-2 33,-4 21,-5 43,-9 65,-15 132,-38 261,-54 397,-68 91,-10 185,-25 275,-32 50,-4 99,-4 150,-9 43,-4 105,-10 150,-5 -27,24 -258,98 -313,115 -54,17 -101,37 -160,54 -42,12 -80,28 -119,44 -22,8 -28,2 -30,25 32,20 209,-19 255,-20 44,-1 84,-11 130,-12 145,-4 290,0 435,0 66,0 140,-6 203,9 20,5 49,-2 69,6 -6,12 5,0 -6,6 -17,10 -163,38 -186,45 -38,11 -67,8 -104,17 -35,9 -67,17 -101,25 -77,19 -308,70 -377,115 14,36 94,20 129,20 50,0 100,0 151,0 49,0 94,-8 142,-10 108,-4 356,-12 442,4 109,20 132,6 259,46 -15,18 -48,11 -70,14 -28,5 -45,5 -74,5 -125,0 -247,2 -370,27 -11,2 -21,8 -32,9 -19,3 -23,-3 -39,5 9,19 66,21 100,28 35,7 82,1 117,7 71,13 151,29 224,35 62,4 29,4 73,12 38,7 40,-6 66,23 -44,4 -124,19 -165,36l-51 20c-1,25 25,30 48,34 17,3 17,7 31,10 16,3 23,1 40,6 53,16 84,27 139,32 46,4 242,60 254,88 -46,34 -208,6 -253,22l-3 21c18,8 24,0 47,13 40,22 85,39 126,58 54,26 126,45 162,81 27,27 40,29 73,49 42,25 32,29 61,61 48,53 64,81 95,147 68,143 162,232 289,318 62,42 126,82 197,109 8,3 13,5 22,8 3,1 10,3 13,5 1,0 2,1 3,1l5 3c1,0 2,1 3,2 -26,17 -151,61 -189,67 -25,4 -119,-8 -85,38 0,0 72,46 79,51 57,36 107,59 172,87l189 71c-46,18 -212,-21 -147,68 28,39 56,70 95,101 124,99 302,154 460,192 27,7 58,7 81,20 8,5 24,19 26,-6 1,-12 -8,-20 -19,-26 -37,-20 -91,-32 -133,-43 -107,-30 -240,-82 -333,-139 -35,-21 -113,-76 -125,-111 63,-3 194,-3 233,-38 2,-42 -45,-39 -116,-60 -88,-27 -173,-58 -255,-97 -31,-15 -99,-43 -115,-66 37,-6 267,-88 275,-98 31,-39 -65,-43 -141,-73 -37,-15 -64,-31 -98,-48 -28,-14 -71,-45 -96,-55 -37,-13 -21,12 -56,-19 -15,-14 -28,-23 -40,-35 -29,-27 -51,-47 -76,-74 -71,-77 -116,-216 -168,-280 -12,-15 -24,-22 -37,-38 -16,-21 -13,-26 -34,-41 -31,-21 -71,-35 -92,-58 -19,-20 -20,-20 -43,-32l-156 -71c-33,-14 -78,-28 -102,-48 42,-3 94,3 134,-2 18,-2 33,-9 55,-11 25,-2 36,-7 34,-34 -12,-28 -224,-88 -265,-91 -43,-3 -78,-11 -119,-24 -13,-4 -57,-14 -59,-14 28,-18 186,-40 185,-75 -10,-22 -12,-17 -36,-21 -20,-4 -23,-15 -38,-20l-214 -29c-34,-4 -70,-6 -103,-16l209 -26c40,-4 177,-4 170,-62 -187,-77 -483,-68 -698,-64 -83,2 -157,16 -242,11l147 -48c60,-16 173,-51 231,-62 25,-5 144,-33 159,-41 21,-12 55,-16 55,-42 -6,-4 -12,-6 -23,-6 8,-43 -25,-29 -63,-33 -45,-4 -28,-11 -96,-11l-544 0c-37,0 -66,5 -100,6 17,-6 24,-15 44,-25l154 -68c25,-12 122,-58 144,-74 12,-9 41,-26 25,-42 -26,-25 -612,34 -723,51 -50,8 -88,15 -135,24 -47,9 -83,10 -130,25 -28,9 -99,31 -129,29 24,-19 61,-35 87,-55 34,-27 48,-34 93,-53 35,-15 59,-33 93,-49 17,-8 35,-12 51,-20 19,-9 43,-16 47,-28 -16,-9 -59,12 -101,23 -38,9 -78,16 -116,22l-221 51c-119,39 -235,78 -348,130 -16,8 -36,15 -37,33l-2 -1z"/>
     <path class="fil11" d="M8898 8783c4,-39 52,-83 68,-136 16,-52 46,-91 48,-152 -41,6 -25,11 -60,44 -40,36 -120,135 -163,154 4,-19 10,-30 15,-47 10,-32 9,-59 20,-90 9,-24 16,-27 4,-41l-61 101c-44,68 -95,119 -145,181 -14,18 -72,68 -77,80 53,-8 223,-237 257,-291 -6,37 -12,61 -26,97 -14,34 -47,61 -35,83 16,-5 3,3 15,-11 39,-42 15,-26 84,-88 34,-30 66,-65 100,-94 -11,47 -38,96 -62,132 -13,20 -25,54 -33,64 -8,10 -16,9 -27,23 -6,8 -12,21 -17,29 -2,4 -48,43 -5,55 44,13 87,-31 132,-58 22,-14 39,-35 57,-42 -9,33 -21,57 -40,76 -52,54 -69,128 23,65 43,-29 29,-23 61,-48 12,-10 24,-13 36,-22 25,-17 66,-58 82,-82l43 -70c8,-22 17,-64 27,-81 4,50 -36,108 -46,154 -12,51 2,26 -29,72 -28,42 -31,56 -47,100 0,0 -37,49 10,60 24,6 82,-37 98,-49l58 -42c-6,32 -12,43 -21,70 -7,22 -30,45 -12,64 20,21 77,-36 102,-57 17,-15 23,-30 40,-48 26,-27 16,-14 31,-53 9,-23 31,-110 51,-121 1,1 1,2 2,3 8,24 -9,61 -17,82 -7,19 -26,63 -25,81 47,7 67,-11 89,-33 14,-15 15,-17 28,-35l52 -74 32 -94c7,-17 7,-31 12,-45 21,41 8,163 -9,212 -6,19 -16,42 -16,63 26,3 33,-23 45,-38 14,-19 20,-27 30,-53 9,-22 15,-39 23,-62 6,-16 11,-50 19,-62 2,4 1,-2 3,10 5,25 1,54 1,79 0,37 -7,49 -8,79 -1,37 -26,134 -17,154 21,3 20,-20 47,-60 77,-115 78,-199 98,-222 6,24 5,150 2,179 -3,25 -59,172 -7,136 34,-23 68,-98 84,-135 24,-57 47,-120 62,-185 20,48 -7,263 12,293 14,-1 18,-8 24,-22l31 -95c23,-86 12,-85 18,-154 16,39 28,94 34,140 3,26 8,49 14,73 6,24 9,49 26,58 15,-8 27,-57 34,-75l25 -84c25,20 118,165 143,209 70,125 51,16 53,-62 1,-30 15,-89 1,-112 -15,30 -15,157 -18,199 -15,-18 -28,-48 -42,-70 -16,-25 -30,-43 -46,-67 -17,-26 -71,-121 -103,-119 -18,42 -18,109 -46,147 -19,-29 -22,-104 -32,-145 -4,-16 -36,-126 -39,-131 -12,15 -31,214 -62,251 -1,-46 2,-294 -14,-314 -21,5 -23,58 -35,99 -18,65 -42,128 -69,190 -19,43 -33,48 -50,77 1,-23 14,-56 19,-82 6,-36 8,-159 1,-194 -4,-21 -4,-21 -5,-45 -2,-34 -7,-30 -21,-29 -9,24 -10,55 -19,81 -8,25 -18,49 -24,72 -9,32 -41,106 -68,128 5,-61 16,-115 16,-177 0,-25 -6,-164 -14,-175 -27,3 -15,37 -22,66 -13,60 -30,153 -70,192 4,-22 9,-49 14,-69 13,-57 -5,-169 -12,-226 -30,0 -35,34 -50,64 -33,65 -36,99 -47,125 -14,31 -48,62 -49,64l-17 32c3,-17 18,-36 24,-60 11,-46 4,-114 4,-163 0,-35 8,-55 -24,-64 -24,64 -54,131 -76,200 -33,106 -18,85 -69,140 -10,11 -18,28 -27,40 -3,-14 29,-115 34,-142 4,-21 9,-26 14,-43 6,-21 0,-33 10,-53 10,-22 6,-27 13,-46 8,-21 17,-8 17,-44 0,-25 -4,-33 -23,-37 -27,27 -45,109 -67,149 -10,18 -10,32 -20,51l-56 87 -78 62c12,-40 33,-57 48,-88l70 -205c2,-18 1,-114 -6,-129 -38,6 -73,84 -89,116 -5,10 -5,16 -9,25 -24,46 -91,150 -140,163 9,-24 24,-36 38,-76 10,-30 23,-52 32,-77l33 -79c4,-36 32,-63 -11,-73 -23,18 -27,56 -46,78 -16,19 -23,53 -44,77 -21,23 -97,104 -127,115l-2 2z"/>
     <path class="fil11" d="M12610 5056c-64,4 -72,12 -100,13 -29,0 -26,1 -50,9 -19,6 -33,-1 -53,6 -34,11 -39,46 1,64l260 88c22,8 19,10 36,22 16,11 78,35 112,63 -65,4 -149,-11 -156,23 -7,33 25,41 47,50 32,12 37,25 60,41 25,17 18,-2 66,38 52,44 184,153 211,197 -43,-6 -155,-44 -171,-40 -22,6 -24,29 -19,52 6,12 161,102 203,144 54,55 119,120 176,176 60,60 99,136 152,199 71,84 68,131 101,163 12,12 30,35 47,42 -5,-41 -69,-169 -89,-205 -37,-66 -75,-119 -118,-179 -33,-46 -164,-171 -218,-226 -36,-37 -69,-55 -81,-69 44,3 57,30 121,30 38,0 55,-26 31,-49 -15,-15 -14,-2 -28,-23 -12,-17 -3,-12 -26,-24 -29,-16 -118,-114 -156,-150l-113 -93c-48,-38 -49,-20 -65,-40 45,-2 2,11 84,11 32,0 64,19 88,7 28,-22 10,-41 -13,-55 -21,-13 -28,-28 -53,-43l-155 -83c-42,-23 5,-11 -97,-46 -31,-11 -118,-35 -141,-50 19,-2 31,0 48,-6 54,-16 84,-3 111,-10 11,-3 14,-8 26,-10 21,-4 51,-4 38,-35 -6,-14 -83,-39 -105,-51 -59,-34 -79,-31 -109,-45 -37,-17 -9,-25 -103,-52 -24,-7 -103,-56 -103,-13 0,33 123,59 150,79 21,15 18,23 48,32 38,11 79,25 105,48z"/>
     <path class="fil11" d="M10959 3372c18,2 211,-46 247,-54 85,-19 157,-57 250,-56 -14,12 -96,40 -121,50 -23,9 -30,21 -56,32 -30,13 -29,30 -11,50 19,11 287,-6 340,4 -4,0 -63,19 -77,23 -24,6 -97,30 -102,55 -6,37 48,33 115,45 25,5 73,7 91,13 25,8 46,20 77,28 56,14 109,25 156,52l-20 13c-27,12 -48,24 -79,34 -37,11 -87,18 -80,66 32,26 64,28 110,44 85,30 215,87 297,130 15,8 24,12 32,1 13,-18 -35,-32 -70,-55 -110,-74 -156,-84 -282,-133 18,-13 49,-20 70,-31 42,-22 134,-50 92,-93 -16,-17 -115,-50 -144,-61 -28,-11 -55,-12 -84,-21 -24,-8 -49,-22 -73,-27 -32,-6 -58,-5 -92,-13 31,-5 92,-27 129,-38 14,-4 17,-8 32,-10 2,0 62,5 44,-35 -12,-27 -150,-39 -178,-39 -48,-1 -126,4 -170,-3 37,-17 75,-32 114,-47 24,-9 35,-19 56,-28 10,-4 20,-7 31,-11 11,-5 16,-11 27,-16 17,-7 48,-12 31,-43 -10,-18 -48,-14 -71,-12 -27,2 -26,12 -71,12l-145 21 -330 89c-42,12 -116,21 -84,63l-1 1z"/>
    </g>
   </g>
  </g>
 </g>
</svg>
