<?xml version="1.0" encoding="UTF-8"?>
<!DOCTYPE svg PUBLIC "-//W3C//DTD SVG 1.1//EN" "http://www.w3.org/Graphics/SVG/1.1/DTD/svg11.dtd">
<!-- Creator: CorelDRAW X6 -->
<svg xmlns="http://www.w3.org/2000/svg" xml:space="preserve" width="225.213mm" height="134.959mm" version="1.1" style="shape-rendering:geometricPrecision; text-rendering:geometricPrecision; image-rendering:optimizeQuality; fill-rule:evenodd; clip-rule:evenodd"
viewBox="0 0 22521 13496"
 xmlns:xlink="http://www.w3.org/1999/xlink">
 <defs>
  <style type="text/css">
   <![CDATA[
    .fil55 {fill:#1F230C}
    .fil41 {fill:#373737}
    .fil80 {fill:#3A3A3A}
    .fil57 {fill:#3E3E3E}
    .fil81 {fill:#424242}
    .fil85 {fill:#464646}
    .fil46 {fill:#494F23}
    .fil84 {fill:#4A4A4A}
    .fil13 {fill:#4F4F4F}
    .fil83 {fill:#535353}
    .fil76 {fill:#565656}
    .fil16 {fill:#595959}
    .fil7 {fill:#5C5C5C}
    .fil32 {fill:#5D5D5D}
    .fil75 {fill:#606060}
    .fil53 {fill:#624233}
    .fil70 {fill:#626262}
    .fil1 {fill:#632911}
    .fil35 {fill:#636363}
    .fil79 {fill:#646464}
    .fil30 {fill:#656565}
    .fil82 {fill:#666666}
    .fil33 {fill:#676767}
    .fil58 {fill:#686868}
    .fil45 {fill:dimgray}
    .fil19 {fill:#6C6C6C}
    .fil61 {fill:#6E6E6E}
    .fil24 {fill:#6F6F6F}
    .fil25 {fill:#717171}
    .fil44 {fill:#737373}
    .fil56 {fill:#747474}
    .fil47 {fill:#757575}
    .fil67 {fill:#777777}
    .fil18 {fill:#787878}
    .fil40 {fill:#797979}
    .fil21 {fill:#7C7C7C}
    .fil17 {fill:#7D7D7D}
    .fil48 {fill:#7E7E7E}
    .fil0 {fill:#7F8F3E}
    .fil23 {fill:gray}
    .fil43 {fill:#818181}
    .fil9 {fill:#828282}
    .fil36 {fill:#838383}
    .fil27 {fill:#848484}
    .fil11 {fill:#858585}
    .fil72 {fill:#868686}
    .fil39 {fill:#898989}
    .fil77 {fill:#8A8A8A}
    .fil34 {fill:#8B8B8B}
    .fil37 {fill:#8D8D8D}
    .fil28 {fill:#8E8E8E}
    .fil38 {fill:#8F8F8F}
    .fil3 {fill:#914E24}
    .fil65 {fill:#939393}
    .fil14 {fill:#949494}
    .fil31 {fill:#959595}
    .fil15 {fill:#969696}
    .fil29 {fill:#989898}
    .fil26 {fill:#9A9A9A}
    .fil42 {fill:#9D9D9D}
    .fil59 {fill:#9E9E9E}
    .fil60 {fill:#A1A1A1}
    .fil74 {fill:#A3A3A3}
    .fil63 {fill:#A4A4A4}
    .fil22 {fill:#A5A5A5}
    .fil20 {fill:#A6A6A6}
    .fil71 {fill:#A7A7A7}
    .fil66 {fill:#AAAAAA}
    .fil12 {fill:#AC8C66}
    .fil68 {fill:#ADADAD}
    .fil8 {fill:#B2B2B2}
    .fil78 {fill:#BFBFBF}
    .fil2 {fill:#C37209}
    .fil62 {fill:#C3C3C3}
    .fil64 {fill:#C8C8C8}
    .fil73 {fill:#CBCBCB}
    .fil10 {fill:#CDD4C4}
    .fil69 {fill:#D0D0D0}
    .fil49 {fill:#FAFAFA}
    .fil50 {fill:#FBFBFB}
    .fil51 {fill:#FCFCFC}
    .fil52 {fill:#FDFDFD}
    .fil54 {fill:#FEFEFE}
    .fil6 {fill:#1F230C;fill-rule:nonzero}
    .fil4 {fill:#343912;fill-rule:nonzero}
    .fil5 {fill:#575D27;fill-rule:nonzero}
   ]]>
  </style>
 </defs>
 <g id="Слой_x0020_1">
  <metadata id="CorelCorpID_0Corel-Layer"/>
  <g id="_922809792">
   <g id="_817730064">
    <rect class="fil0" x="5" y="-15" width="22500" height="13500"/>
    <g id="_1099879280">
     <path class="fil1" d="M8777 4046c-334,-33 24,-107 -205,-266 -3,-2 101,-384 118,-395 282,-186 209,-886 674,-791 463,94 706,305 1410,153 377,-81 1424,388 1989,380 612,-9 537,258 1489,-58 583,-194 453,136 519,515 72,416 46,607 46,1452 0,467 -164,300 -507,109 -166,-93 -498,-513 -733,-418 -319,130 -369,106 -682,267 -362,186 -1098,522 -1466,253 -294,-215 -180,-17 -486,-358 -193,-215 -1184,-519 -1565,-501 -107,5 -473,-329 -600,-342l-1 0z"/>
     <path class="fil2" d="M9363 5368c3,40 45,61 76,81 42,28 45,50 51,110 5,55 -5,96 -5,144 -4,5 -3,2 -7,10 -1,1 -2,6 -3,8 -1,4 -4,12 -5,17 58,310 104,-161 42,621 17,119 -15,173 -8,236 1,7 1,12 4,19 3,8 4,6 8,11 10,45 58,150 81,184 66,96 120,128 203,200 60,52 165,129 242,156 51,17 369,229 393,261 39,53 86,137 43,198 -20,29 -44,42 -68,68 -21,24 -44,36 -80,51 -162,70 -263,78 -435,24 -22,-7 -38,-23 -96,-41 -33,-10 -74,-15 -102,-29 -208,419 -1396,-870 -1333,-1487 -2,-54 -6,-171 0,-220 14,-107 -289,29 -225,-51 779,-970 -36,-512 687,-1281 19,-21 34,-36 56,-54 152,-121 228,-227 355,-315 179,-123 88,-76 280,-159 32,-14 44,-24 80,-28 136,-14 105,-35 303,-35 458,27 311,-237 357,-216 25,51 151,186 72,288 -22,28 -277,-22 -270,16 95,522 -160,1239 65,1349 899,435 -69,391 -762,-138l1 2z"/>
     <path class="fil3" d="M10491 5405c-192,167 -785,-138 -785,-285 -29,-89 128,-278 143,-382 14,-91 71,-146 148,-187 75,-40 164,-81 274,-54 39,-74 144,-90 263,-48 106,37 167,81 207,126 46,52 56,131 89,174 34,43 55,9 100,71 18,25 32,59 12,88 -148,214 298,348 -451,499l0 -2z"/>
     <path class="fil4" d="M13771 10772c-16,0 -29,-5 -38,-15 -9,-10 -14,-23 -14,-37l0 -1269c0,-58 20,-108 61,-149 41,-41 90,-61 149,-61 58,0 108,20 149,61 41,41 61,90 61,149l0 1306c0,10 -5,15 -15,15 -10,0 -15,-5 -15,-15l0 -1306c0,-50 -18,-92 -53,-127 -35,-35 -77,-53 -127,-53 -51,0 -94,18 -129,53 -35,35 -53,77 -53,127l0 1269c0,15 8,22 24,22 15,0 22,-7 22,-22l0 -665c0,-15 5,-27 15,-37 10,-10 23,-15 37,-15l164 0c10,0 15,5 15,15 0,10 -5,15 -15,15l-164 0c-15,0 -22,7 -22,22l0 665c0,15 -5,27 -15,37 -10,10 -23,15 -37,15z"/>
     <path class="fil4" d="M13544 10599c0,48 -17,89 -51,123 -34,34 -75,50 -121,50 -48,0 -89,-17 -123,-50 -34,-34 -50,-74 -50,-123l0 -582c0,-10 5,-15 15,-15 10,0 15,5 15,15l0 582c0,39 14,73 42,101 28,28 61,42 101,42 39,0 73,-14 101,-42 28,-28 42,-61 42,-101l0 -1149c0,-50 -18,-92 -53,-127 -35,-35 -77,-53 -127,-53l-158 0c-16,0 -24,7 -24,22l0 1464c0,10 -4,15 -13,15 -10,0 -15,-5 -15,-15l0 -1464c0,-15 5,-27 14,-37 9,-10 22,-15 38,-15l158 0c58,0 108,20 149,61 41,41 61,90 61,149l0 1149 -1 0z"/>
     <path class="fil4" d="M12935 9240c10,0 15,5 15,15l0 1474c0,12 -4,22 -12,30 -8,8 -18,12 -30,12 -9,0 -17,-3 -24,-9 -7,-6 -12,-13 -15,-22l-363 -1461c-1,-6 -5,-9 -11,-9 -7,0 -11,4 -11,11l0 1437c0,15 7,22 22,22 16,0 24,-7 24,-22l0 -702c0,-10 4,-15 13,-15 10,0 15,5 15,15l0 702c0,15 -5,27 -14,37 -9,10 -22,15 -38,15 -15,0 -27,-5 -37,-15 -10,-10 -15,-23 -15,-37l0 -1437c0,-12 4,-22 12,-30 8,-8 18,-12 30,-12 20,0 34,10 39,31l363 1464c1,4 5,7 11,7 7,0 11,-4 11,-11l0 -1474c0,-10 5,-15 15,-15l0 -1z"/>
     <path class="fil4" d="M11912 10772c-16,0 -29,-5 -38,-15 -9,-10 -14,-23 -14,-37l0 -1269c0,-58 20,-108 61,-149 41,-41 90,-61 149,-61 58,0 108,20 149,61 41,41 61,90 61,149l0 1306c0,10 -5,15 -15,15 -10,0 -15,-5 -15,-15l0 -1306c0,-50 -18,-92 -53,-127 -35,-35 -77,-53 -127,-53 -51,0 -94,18 -129,53 -35,35 -53,77 -53,127l0 1269c0,15 8,22 24,22 15,0 22,-7 22,-22l0 -665c0,-15 5,-27 15,-37 10,-10 23,-15 37,-15l164 0c10,0 15,5 15,15 0,10 -5,15 -15,15l-164 0c-15,0 -22,7 -22,22l0 665c0,15 -5,27 -15,37 -10,10 -23,15 -37,15z"/>
     <path class="fil4" d="M11474 9240c58,0 108,20 149,61 41,41 61,90 61,149l0 409c0,48 -17,89 -50,123 -34,34 -74,50 -123,50 -47,0 -87,-17 -121,-50 -34,-34 -51,-74 -51,-123l0 -409c0,-10 5,-15 15,-15 10,0 15,5 15,15l0 409c0,39 14,73 42,101 28,28 61,42 101,42 39,0 73,-14 102,-42 28,-28 43,-61 43,-101l0 -409c0,-50 -18,-92 -53,-127 -35,-35 -78,-53 -129,-53 -50,0 -92,18 -127,53 -35,35 -53,77 -53,127l0 1306c0,10 -5,15 -15,15 -10,0 -15,-5 -15,-15l0 -1306c0,-58 20,-108 61,-149 41,-41 90,-61 149,-61l-1 0z"/>
     <path class="fil4" d="M10675 10599c0,48 -17,89 -51,123 -34,34 -75,50 -121,50 -48,0 -89,-17 -123,-50 -34,-34 -50,-74 -50,-123l0 -582c0,-10 5,-15 15,-15 10,0 15,5 15,15l0 582c0,39 14,73 42,101 28,28 61,42 101,42 39,0 73,-14 101,-42 28,-28 42,-61 42,-101l0 -1149c0,-50 -18,-92 -53,-127 -35,-35 -77,-53 -127,-53l-158 0c-16,0 -24,7 -24,22l0 1464c0,10 -4,15 -13,15 -10,0 -15,-5 -15,-15l0 -1464c0,-15 5,-27 14,-37 9,-10 22,-15 38,-15l158 0c58,0 108,20 149,61 41,41 61,90 61,149l0 1149 -1 0z"/>
     <path class="fil4" d="M9713 9958c-15,0 -27,-5 -37,-15 -10,-10 -15,-23 -15,-37l0 -455c0,-58 20,-108 61,-149 41,-41 90,-61 149,-61l197 0c10,0 15,5 15,15 0,10 -5,15 -15,15l-197 0c-50,0 -92,18 -127,53 -35,35 -53,77 -53,127l0 455c0,15 7,22 22,22l195 0c15,0 27,5 37,15 10,10 15,23 15,37 0,15 -5,27 -15,37 -10,10 -23,15 -37,15l-195 0c-15,0 -22,8 -22,24l0 505c0,50 18,92 53,127 35,35 77,53 127,53l197 0c10,0 15,5 15,15 0,10 -5,15 -15,15l-197 0c-58,0 -108,-20 -149,-61 -41,-41 -61,-90 -61,-149l0 -505c0,-16 5,-29 15,-39 10,-10 23,-15 37,-15l195 0c15,0 22,-7 22,-22 0,-15 -7,-22 -22,-22l-195 0z"/>
     <path class="fil4" d="M9485 10752c3,9 0,15 -9,20 -9,1 -15,-1 -20,-9l-267 -689 -2 -2c-1,0 -3,0 -3,-1 -1,-1 -2,-1 -3,-1 -7,0 -11,4 -11,11l0 639c0,15 -5,27 -15,37 -10,10 -23,15 -37,15 -15,0 -27,-5 -37,-15 -10,-10 -15,-23 -15,-37l0 -1269c0,-58 20,-108 61,-149 41,-41 90,-61 149,-61 58,0 108,20 149,61 41,41 61,90 61,149l0 409c0,48 -17,89 -50,123 -34,34 -74,50 -123,50 -47,0 -87,-17 -121,-50 -34,-34 -51,-74 -51,-123l0 -409c0,-10 5,-15 15,-15 10,0 15,5 15,15l0 409c0,39 14,73 42,101 28,28 61,42 101,42 39,0 73,-14 101,-42 28,-28 42,-61 42,-101l0 -409c0,-50 -18,-92 -53,-127 -35,-35 -77,-53 -127,-53 -50,0 -92,18 -127,53 -35,35 -53,77 -53,127l0 1269c0,15 7,22 22,22 15,0 22,-7 22,-22l0 -639c0,-12 4,-22 12,-30 8,-8 18,-12 30,-12 19,0 31,7 35,22l269 691 -2 0z"/>
     <path class="fil5" d="M13748 10764c-16,0 -29,-5 -38,-15 -9,-10 -14,-23 -14,-37l0 -1269c0,-58 20,-108 61,-149 41,-41 90,-61 149,-61 58,0 108,20 149,61 41,41 61,90 61,149l0 1306c0,10 -5,15 -15,15 -10,0 -15,-5 -15,-15l0 -1306c0,-50 -18,-92 -53,-127 -35,-35 -77,-53 -127,-53 -51,0 -94,18 -129,53 -35,35 -53,77 -53,127l0 1269c0,15 8,22 24,22 15,0 22,-7 22,-22l0 -665c0,-15 5,-27 15,-37 10,-10 23,-15 37,-15l164 0c10,0 15,5 15,15 0,10 -5,15 -15,15l-164 0c-15,0 -22,7 -22,22l0 665c0,15 -5,27 -15,37 -10,10 -23,15 -37,15z"/>
     <path class="fil5" d="M13521 10591c0,48 -17,89 -51,123 -34,34 -75,50 -121,50 -48,0 -89,-17 -123,-50 -34,-34 -50,-74 -50,-123l0 -582c0,-10 5,-15 15,-15 10,0 15,5 15,15l0 582c0,39 14,73 42,101 28,28 61,42 101,42 39,0 73,-14 101,-42 28,-28 42,-61 42,-101l0 -1149c0,-50 -18,-92 -53,-127 -35,-35 -77,-53 -127,-53l-158 0c-16,0 -24,7 -24,22l0 1464c0,10 -4,15 -13,15 -10,0 -15,-5 -15,-15l0 -1464c0,-15 5,-27 14,-37 9,-10 22,-15 38,-15l158 0c58,0 108,20 149,61 41,41 61,90 61,149l0 1149 -1 0z"/>
     <path class="fil5" d="M12913 9233c10,0 15,5 15,15l0 1474c0,12 -4,22 -12,30 -8,8 -18,12 -30,12 -9,0 -17,-3 -24,-9 -7,-6 -12,-13 -15,-22l-363 -1461c-1,-6 -5,-9 -11,-9 -7,0 -11,4 -11,11l0 1437c0,15 7,22 22,22 16,0 24,-7 24,-22l0 -702c0,-10 4,-15 13,-15 10,0 15,5 15,15l0 702c0,15 -5,27 -14,37 -9,10 -22,15 -38,15 -15,0 -27,-5 -37,-15 -10,-10 -15,-23 -15,-37l0 -1437c0,-12 4,-22 12,-30 8,-8 18,-12 30,-12 20,0 34,10 39,31l363 1464c1,4 5,7 11,7 7,0 11,-4 11,-11l0 -1474c0,-10 5,-15 15,-15l0 -1z"/>
     <path class="fil5" d="M11889 10764c-16,0 -29,-5 -38,-15 -9,-10 -14,-23 -14,-37l0 -1269c0,-58 20,-108 61,-149 41,-41 90,-61 149,-61 58,0 108,20 149,61 41,41 61,90 61,149l0 1306c0,10 -5,15 -15,15 -10,0 -15,-5 -15,-15l0 -1306c0,-50 -18,-92 -53,-127 -35,-35 -77,-53 -127,-53 -51,0 -94,18 -129,53 -35,35 -53,77 -53,127l0 1269c0,15 8,22 24,22 15,0 22,-7 22,-22l0 -665c0,-15 5,-27 15,-37 10,-10 23,-15 37,-15l164 0c10,0 15,5 15,15 0,10 -5,15 -15,15l-164 0c-15,0 -22,7 -22,22l0 665c0,15 -5,27 -15,37 -10,10 -23,15 -37,15z"/>
     <path class="fil5" d="M11451 9233c58,0 108,20 149,61 41,41 61,90 61,149l0 409c0,48 -17,89 -50,123 -34,34 -74,50 -123,50 -47,0 -87,-17 -121,-50 -34,-34 -51,-74 -51,-123l0 -409c0,-10 5,-15 15,-15 10,0 15,5 15,15l0 409c0,39 14,73 42,101 28,28 61,42 101,42 39,0 73,-14 102,-42 28,-28 43,-61 43,-101l0 -409c0,-50 -18,-92 -53,-127 -35,-35 -78,-53 -129,-53 -50,0 -92,18 -127,53 -35,35 -53,77 -53,127l0 1306c0,10 -5,15 -15,15 -10,0 -15,-5 -15,-15l0 -1306c0,-58 20,-108 61,-149 41,-41 90,-61 149,-61l-1 0z"/>
     <path class="fil6" d="M10653 10591c0,48 -17,89 -51,123 -34,34 -75,50 -121,50 -48,0 -89,-17 -123,-50 -34,-34 -50,-74 -50,-123l0 -582c0,-10 5,-15 15,-15 10,0 15,5 15,15l0 582c0,39 14,73 42,101 28,28 61,42 101,42 39,0 73,-14 101,-42 28,-28 42,-61 42,-101l0 -1149c0,-50 -18,-92 -53,-127 -35,-35 -77,-53 -127,-53l-158 0c-16,0 -24,7 -24,22l0 1464c0,10 -4,15 -13,15 -10,0 -15,-5 -15,-15l0 -1464c0,-15 5,-27 14,-37 9,-10 22,-15 38,-15l158 0c58,0 108,20 149,61 41,41 61,90 61,149l0 1149 -1 0z"/>
     <path class="fil6" d="M9690 9950c-15,0 -27,-5 -37,-15 -10,-10 -15,-23 -15,-37l0 -455c0,-58 20,-108 61,-149 41,-41 90,-61 149,-61l197 0c10,0 15,5 15,15 0,10 -5,15 -15,15l-197 0c-50,0 -92,18 -127,53 -35,35 -53,77 -53,127l0 455c0,15 7,22 22,22l195 0c15,0 27,5 37,15 10,10 15,23 15,37 0,15 -5,27 -15,37 -10,10 -23,15 -37,15l-195 0c-15,0 -22,8 -22,24l0 505c0,50 18,92 53,127 35,35 77,53 127,53l197 0c10,0 15,5 15,15 0,10 -5,15 -15,15l-197 0c-58,0 -108,-20 -149,-61 -41,-41 -61,-90 -61,-149l0 -505c0,-16 5,-29 15,-39 10,-10 23,-15 37,-15l195 0c15,0 22,-7 22,-22 0,-15 -7,-22 -22,-22l-195 0z"/>
     <path class="fil6" d="M9463 10744c3,9 0,15 -9,20 -9,1 -15,-1 -20,-9l-267 -689 -2 -2c-1,0 -3,0 -3,-1 -1,-1 -2,-1 -3,-1 -7,0 -11,4 -11,11l0 639c0,15 -5,27 -15,37 -10,10 -23,15 -37,15 -15,0 -27,-5 -37,-15 -10,-10 -15,-23 -15,-37l0 -1269c0,-58 20,-108 61,-149 41,-41 90,-61 149,-61 58,0 108,20 149,61 41,41 61,90 61,149l0 409c0,48 -17,89 -50,123 -34,34 -74,50 -123,50 -47,0 -87,-17 -121,-50 -34,-34 -51,-74 -51,-123l0 -409c0,-10 5,-15 15,-15 10,0 15,5 15,15l0 409c0,39 14,73 42,101 28,28 61,42 101,42 39,0 73,-14 101,-42 28,-28 42,-61 42,-101l0 -409c0,-50 -18,-92 -53,-127 -35,-35 -77,-53 -127,-53 -50,0 -92,18 -127,53 -35,35 -53,77 -53,127l0 1269c0,15 7,22 22,22 15,0 22,-7 22,-22l0 -639c0,-12 4,-22 12,-30 8,-8 18,-12 30,-12 19,0 31,7 35,22l269 691 -2 0z"/>
     <path class="fil6" d="M9660 9948c-15,0 -27,-5 -37,-15 -10,-10 -15,-23 -15,-37l0 -455c0,-58 20,-108 61,-149 41,-41 90,-61 149,-61l197 0c10,0 15,5 15,15 0,10 -5,15 -15,15l-197 0c-50,0 -92,18 -127,53 -35,35 -53,77 -53,127l0 455c0,15 7,22 22,22l195 0c15,0 27,5 37,15 10,10 15,23 15,37 0,15 -5,27 -15,37 -10,10 -23,15 -37,15l-195 0c-15,0 -22,8 -22,24l0 505c0,50 18,92 53,127 35,35 77,53 127,53l197 0c10,0 15,5 15,15 0,10 -5,15 -15,15l-197 0c-58,0 -108,-20 -149,-61 -41,-41 -61,-90 -61,-149l0 -505c0,-16 5,-29 15,-39 10,-10 23,-15 37,-15l195 0c15,0 22,-7 22,-22 0,-15 -7,-22 -22,-22l-195 0z"/>
     <path class="fil6" d="M9440 10744c3,9 0,15 -9,20 -9,1 -15,-1 -20,-9l-267 -689 -2 -2c-1,0 -3,0 -3,-1 -1,-1 -2,-1 -3,-1 -7,0 -11,4 -11,11l0 639c0,15 -5,27 -15,37 -10,10 -23,15 -37,15 -15,0 -27,-5 -37,-15 -10,-10 -15,-23 -15,-37l0 -1269c0,-58 20,-108 61,-149 41,-41 90,-61 149,-61 58,0 108,20 149,61 41,41 61,90 61,149l0 409c0,48 -17,89 -50,123 -34,34 -74,50 -123,50 -47,0 -87,-17 -121,-50 -34,-34 -51,-74 -51,-123l0 -409c0,-10 5,-15 15,-15 10,0 15,5 15,15l0 409c0,39 14,73 42,101 28,28 61,42 101,42 39,0 73,-14 101,-42 28,-28 42,-61 42,-101l0 -409c0,-50 -18,-92 -53,-127 -35,-35 -77,-53 -127,-53 -50,0 -92,18 -127,53 -35,35 -53,77 -53,127l0 1269c0,15 7,22 22,22 15,0 22,-7 22,-22l0 -639c0,-12 4,-22 12,-30 8,-8 18,-12 30,-12 19,0 31,7 35,22l269 691 -2 0z"/>
     <path class="fil6" d="M10624 10591c0,48 -17,89 -51,123 -34,34 -75,50 -121,50 -48,0 -89,-17 -123,-50 -34,-34 -50,-74 -50,-123l0 -582c0,-10 5,-15 15,-15 10,0 15,5 15,15l0 582c0,39 14,73 42,101 28,28 61,42 101,42 39,0 73,-14 101,-42 28,-28 42,-61 42,-101l0 -1149c0,-50 -18,-92 -53,-127 -35,-35 -77,-53 -127,-53l-158 0c-16,0 -24,7 -24,22l0 1464c0,10 -4,15 -13,15 -10,0 -15,-5 -15,-15l0 -1464c0,-15 5,-27 14,-37 9,-10 22,-15 38,-15l158 0c58,0 108,20 149,61 41,41 61,90 61,149l0 1149 -1 0z"/>
     <path class="fil7" d="M8361 8422c8,-6 6,11 9,-16l-13 8c8,4 9,-5 4,9l0 -1z"/>
     <path class="fil7" d="M13129 5106c1,-10 -2,-8 8,-8l-13 -5 6 13 -1 0z"/>
     <path class="fil8" d="M11999 5582l14 -3 -8 -8c-8,4 -5,-8 -6,11z"/>
     <path class="fil8" d="M7537 8817c17,-6 6,0 10,-10l1 -3 -11 4 1 9 -1 0z"/>
     <path class="fil9" d="M11043 2757c-1,-6 -2,-13 -4,-19 -3,-7 -5,-8 -7,-12 1,7 1,13 4,20 2,7 5,8 7,11z"/>
     <path class="fil9" d="M10601 4041c-4,-3 -3,-3 -12,-7 -9,-4 16,3 -10,-2 5,4 2,3 12,7 9,4 -16,-3 10,2z"/>
     <path class="fil10" d="M11341 7615c5,5 -5,5 17,9l-7 -26 0 19 -10 -3 0 1z"/>
     <polygon class="fil11" points="9991,4617 9978,4607 9974,4614 "/>
     <path class="fil12" d="M12116 6427l0 -18 18 -6 -22 2c-3,13 -2,3 0,14l4 8z"/>
     <path class="fil13" d="M10485 5256l9 -4c-6,-5 7,-6 -19,-8l9 11 1 1z"/>
     <path class="fil14" d="M10514 2710c5,-10 -6,-10 10,-6 -8,-7 4,-5 -17,-10 4,27 0,8 8,15l-1 1z"/>
     <path class="fil14" d="M10339 4957l9 -7c0,-10 3,-8 -6,-8 -8,0 -6,-2 -6,6 7,4 7,-6 3,9z"/>
     <path class="fil15" d="M12269 4904l25 -2c-6,-6 11,-8 -14,-5 -9,1 -7,3 -10,7l-1 0z"/>
     <path class="fil10" d="M11493 7587l4 -12 -14 -3c7,9 5,6 10,15z"/>
     <path class="fil10" d="M11927 7496c-12,1 -9,4 -10,-8l-6 19c30,-3 5,2 16,-11z"/>
     <polygon class="fil16" points="7524,8424 7514,8420 7501,8432 "/>
     <path class="fil17" d="M11449 2920c8,13 -12,5 15,14 -6,-24 -3,-10 -11,-16l-4 2z"/>
     <path class="fil17" d="M14826 3741c1,-10 -2,-8 7,-7 -9,-13 13,-5 -13,-11 0,6 -3,5 6,18z"/>
     <path class="fil18" d="M8943 2829c14,-6 5,10 13,-13 -27,3 -9,2 -16,8l4 5 -1 0z"/>
     <path class="fil18" d="M14810 3836c-1,-7 -1,-14 -3,-21 -6,-22 -1,-3 -6,-12 1,7 1,14 3,21 2,8 5,9 7,12l-1 0z"/>
     <path class="fil10" d="M12280 7364l10 1c0,-1 2,-2 2,-3 2,-29 13,12 -5,-9 -3,3 -3,7 -6,10l-1 1z"/>
     <path class="fil19" d="M14712 3274c0,-9 -2,-6 9,-7 -9,-5 15,-9 -20,-5 6,19 1,4 11,11l0 1z"/>
     <path class="fil19" d="M8736 3235l-4 -3 -8 11c23,-3 6,1 12,-8z"/>
     <path class="fil20" d="M13135 5113c6,-11 -8,-9 11,-7 -4,-9 7,-4 -9,-8 -10,0 -7,-2 -8,8 -1,9 -3,7 5,7l1 0z"/>
     <path class="fil20" d="M8416 8859c0,0 12,-4 14,-5 -6,-5 23,-17 -14,-3l0 9 0 -1z"/>
     <path class="fil10" d="M12038 7492l-2 -22c-22,-2 -4,-2 -11,6l13 16z"/>
     <path class="fil21" d="M11398 2762c-1,-7 -2,-13 -4,-20 -7,-23 1,0 -7,-12 1,8 1,12 3,20 2,8 5,8 7,11l1 1z"/>
     <path class="fil21" d="M10656 5465c14,-2 6,0 16,-3 8,-2 8,-4 12,-7 -9,2 -6,0 -15,3 -33,10 0,-1 -13,7z"/>
     <polygon class="fil21" points="11929,4911 11915,4911 11923,4922 "/>
     <polygon class="fil21" points="11216,2769 11229,2777 11220,2765 "/>
     <path class="fil22" d="M14797 3241c1,1 3,1 4,3 1,2 3,2 4,2 12,3 5,2 17,3 -6,-26 0,-3 -9,-13 -6,12 2,3 -16,5z"/>
     <path class="fil22" d="M7514 8420l9 3c13,-5 4,1 7,-9l-1 -3 -16 9 1 0z"/>
     <path class="fil23" d="M13681 3136c4,0 17,-1 22,-2 17,-4 13,-5 16,-7 -6,1 -14,1 -21,2 -29,6 -8,2 -17,7z"/>
     <path class="fil23" d="M14277 6647c3,-4 3,-3 7,-12 4,-10 -3,18 2,-11 -1,1 -2,1 -3,4 0,2 -2,3 -2,4 -4,11 -2,1 -4,15z"/>
     <path class="fil23" d="M7892 5650c7,-9 -1,8 7,-11 4,-10 1,-2 3,-16l-10 27z"/>
     <path class="fil23" d="M10784 3911c-5,-4 -2,-3 -11,-8 -8,-4 14,3 -10,-3 4,4 3,3 11,8 8,4 -9,-2 10,3z"/>
     <path class="fil24" d="M8858 9338c6,-1 19,-1 25,-3 17,-4 -21,7 9,-3l9 -5c-5,0 -21,1 -26,2 -16,4 -13,5 -16,7l-1 2z"/>
     <path class="fil24" d="M14810 3663c9,10 -12,3 12,9 -4,-23 1,-7 -9,-13l-3 4z"/>
     <path class="fil25" d="M8866 3018l3 4c21,-9 9,3 19,-18 -9,2 -5,-1 -13,4 -7,5 -5,4 -9,9l0 1z"/>
     <path class="fil25" d="M7537 8817l-1 -9 -11 14c28,-2 4,1 12,-5z"/>
     <path class="fil10" d="M11265 7522l-4 -15c5,-4 -3,-2 14,-5 -1,-1 -3,-2 -3,-3 -1,0 -3,-2 -4,-2 -7,-3 -1,-1 -12,-2 1,11 -2,4 2,17 7,21 -2,1 8,11l-1 -1z"/>
     <polygon class="fil26" points="12284,4990 12284,4973 12272,4974 12272,4981 "/>
     <path class="fil27" d="M11027 2681c-3,-12 -10,-19 1,-19 -8,-11 8,-4 -13,-12 0,22 -2,17 12,30l0 1z"/>
     <path class="fil10" d="M9497 7549c-11,-8 12,0 -16,-8 -7,-2 -9,-1 -16,-2 4,3 -3,2 16,8 10,3 7,1 16,2z"/>
     <path class="fil27" d="M11402 5879c9,-2 5,0 15,-3 1,-1 3,-1 5,-2l8 -5c-16,2 -18,0 -28,9l0 1z"/>
     <path class="fil27" d="M13863 4183l13 17 2 -7c-8,-15 -3,-5 -11,-10l-4 0z"/>
     <path class="fil28" d="M10208 3629c-16,-11 -22,-9 -44,-12 15,12 23,9 44,12z"/>
     <path class="fil10" d="M7923 6966c-1,-10 0,-8 -3,-16 -3,-8 -5,-8 -7,-12 2,12 -1,3 3,15 7,22 1,3 7,12l0 1z"/>
     <path class="fil29" d="M11116 6089l-5 -4c-4,4 -6,-8 -9,15 -2,15 1,4 5,11l8 -22 1 0z"/>
     <path class="fil29" d="M8799 3037l4 -7 -3 -3c-9,0 -6,-2 -6,7 0,7 -2,5 5,4l0 -1z"/>
     <path class="fil30" d="M12827 5192l21 -15 -27 2c-5,25 -3,5 6,13z"/>
     <path class="fil30" d="M7509 9216l-3 -5c-9,11 -5,-14 -8,15l11 -10z"/>
     <path class="fil31" d="M8945 8661c8,9 14,14 41,-2l-41 2z"/>
     <path class="fil10" d="M12018 7344l-3 -26c-17,1 -4,-1 -11,8l13 18 1 0z"/>
     <path class="fil32" d="M10803 5100l2 -7c-4,-5 -10,-14 -12,-16 -12,-13 0,-3 -14,-11 3,19 0,11 24,34z"/>
     <path class="fil32" d="M14799 3470c5,6 2,6 16,11 -1,-20 2,-10 -11,-21 4,16 3,6 -4,9l-1 1z"/>
     <path class="fil33" d="M10612 5199c-3,0 -23,1 -25,1 -26,-3 -9,3 -15,-8l-12 12c24,3 32,6 52,-5z"/>
     <path class="fil33" d="M7942 5483c8,-1 6,-3 7,5 7,-8 7,13 7,-16 -24,4 -5,-1 -13,11l-1 0z"/>
     <path class="fil34" d="M12768 5110c9,-14 8,-29 10,-51 -26,5 -8,0 -15,10 12,6 5,-5 6,14 0,6 -2,17 -2,27l1 0z"/>
     <path class="fil34" d="M12063 6045c10,19 2,13 22,18 -3,-20 1,-11 -13,-22 -3,9 6,10 -9,4z"/>
     <path class="fil34" d="M8893 2826c8,12 5,8 15,-5 -7,-3 -9,7 -2,-8l-13 13z"/>
     <path class="fil34" d="M11517 4538l14 1c-4,-10 0,-6 -8,-11l-6 10z"/>
     <path class="fil35" d="M10655 2703c6,4 -8,6 20,8 2,-10 4,-13 2,-25 -5,-24 -3,-9 -9,-17l3 27c-6,9 12,9 -16,6l0 1z"/>
     <path class="fil35" d="M8718 9021l6 6c16,-9 1,3 11,-7 4,-4 4,-7 7,-11 -7,1 -8,0 -13,3 -8,4 -6,4 -11,9z"/>
     <path class="fil35" d="M15045 5862c1,-13 -2,-10 10,-9 -11,-12 14,-9 -15,-10 -1,13 -2,-5 0,10l4 9 1 0z"/>
     <path class="fil36" d="M12787 3879c15,-2 22,-1 35,-2 4,0 17,-2 21,-2 16,-4 9,-3 13,-5 -15,0 -23,0 -38,2 -6,1 -13,1 -17,2 -15,4 -9,4 -13,6l-1 -1z"/>
     <path class="fil36" d="M12140 4815c1,1 4,1 4,3 1,2 3,2 4,3 1,1 5,4 6,5 0,-7 2,-2 -1,-14 -6,-23 1,-1 -7,-11l-6 15 0 -1z"/>
     <path class="fil36" d="M13983 8126c8,-11 -1,11 8,-15 2,-6 3,-12 4,-18 -12,13 -9,13 -12,33z"/>
     <path class="fil37" d="M8575 3760c-6,-6 -7,6 -8,-21 0,-7 2,-17 3,-24 -10,9 -11,29 -8,45 2,9 4,10 7,14l6 -13 0 -1z"/>
     <path class="fil37" d="M9708 3562c8,-1 16,-2 23,-4l16 -6c1,-2 3,-2 4,-2 -8,1 -17,1 -25,3 -19,4 -12,4 -19,10l1 -1z"/>
     <path class="fil37" d="M11209 4524l13 -2c-4,-10 0,-6 -8,-11l-5 12 0 1z"/>
     <path class="fil37" d="M10414 3879l-28 -10c3,2 4,4 12,7 8,3 6,1 16,3z"/>
     <path class="fil10" d="M11744 7618c19,-9 13,-38 10,-58 -9,0 -6,0 -14,2l-6 4 17 0c-3,30 5,31 -7,52z"/>
     <path class="fil38" d="M13590 6686c3,-4 4,-2 8,-11 3,-8 3,-12 4,-19 -3,4 -2,-1 -8,16 -2,6 -2,9 -3,15l-1 -1z"/>
     <path class="fil39" d="M10802 5270l58 -2c-7,-7 10,-4 -16,-8 -15,-2 -30,3 -42,10z"/>
     <path class="fil39" d="M13636 5799c-1,-4 -4,-13 -5,-17 -1,-2 -2,-6 -3,-8 -4,-8 -3,-6 -7,-10 1,7 2,15 5,22 8,18 3,6 10,12l0 1z"/>
     <path class="fil39" d="M11006 2751c10,13 -10,4 12,12 -3,-20 1,-9 -9,-19l-4 7 1 0z"/>
     <path class="fil39" d="M10256 9008c-4,-2 1,-3 -17,-8 -8,-2 -8,-1 -16,-2 4,2 0,3 16,8 13,4 2,0 16,2l1 0z"/>
     <path class="fil39" d="M12336 5041l-12 0 3 13c10,-7 7,11 9,-13z"/>
     <path class="fil10" d="M12061 6565c9,-10 2,4 4,-9 0,-1 -1,-11 -1,-14 -11,8 -6,5 -3,22l0 1z"/>
     <path class="fil39" d="M11417 4685c-7,-3 -6,0 -13,-5l5 13c11,3 8,5 8,-7l0 -1z"/>
     <path class="fil40" d="M15062 5989c-2,-31 -2,-58 -12,-75 0,13 2,27 3,40 1,19 1,23 9,35z"/>
     <path class="fil40" d="M13813 9013c-1,-10 -2,-19 -4,-29 -1,-3 -2,-9 -3,-12 -5,-15 -3,-7 -6,-12 1,9 2,22 3,29 1,4 2,10 3,14 4,10 2,5 7,10z"/>
     <path class="fil40" d="M10679 3915c-2,-5 -4,-16 -6,-22l-8 -15c1,8 1,17 3,24 9,25 -1,3 10,13l1 0z"/>
     <path class="fil40" d="M12809 4764l0 -5 -16 4c8,6 7,6 15,1l1 0z"/>
     <path class="fil41" d="M8893 2826c-7,5 -4,3 -11,10 -5,5 0,-1 -6,9 21,-2 24,-2 38,-11 1,-1 3,-1 3,-3 1,-2 2,-2 3,-3l-6 -6 -7 0c-10,12 -7,16 -15,5l1 -1z"/>
     <path class="fil41" d="M9978 4607l13 10c7,-9 14,-17 21,-28 -7,2 -14,4 -20,8 -12,6 -8,6 -13,11l-1 -1z"/>
     <path class="fil41" d="M9138 4367c27,-7 12,4 22,-17 -19,5 -14,-1 -22,17z"/>
     <path class="fil12" d="M11794 6412c4,3 0,2 12,6 18,6 -7,0 10,1 10,-24 7,-51 10,-79 -14,26 -4,31 -13,74l-19 -2z"/>
     <path class="fil42" d="M9562 3810c-16,0 -21,6 -20,-5 -11,6 -7,-3 -13,14 11,-1 12,0 23,-2 20,-5 2,0 11,-6l-1 -1z"/>
     <path class="fil43" d="M12203 5041c-10,-7 -9,-1 -8,-36l-6 -106 2 157 12 -15z"/>
     <path class="fil43" d="M10040 4324c-1,-5 -2,-12 -4,-18 -10,-27 1,-2 -9,-15 1,6 1,13 3,19 9,25 0,4 10,13l0 1z"/>
     <path class="fil43" d="M10729 2626c-1,-7 -1,-13 -4,-20 -3,-7 -5,-8 -7,-11 1,7 1,13 4,20 2,7 5,9 7,12l0 -1z"/>
     <path class="fil43" d="M8804 3215l10 3 -6 -6c-1,-1 -3,2 -4,3z"/>
     <path class="fil10" d="M11632 7522c-43,6 -87,4 -130,-1 6,5 0,8 31,9 18,1 70,4 86,-1 23,-7 2,0 13,-7z"/>
     <path class="fil44" d="M10791 5186l-6 -3 -12 11c20,-4 9,1 18,-9l0 1z"/>
     <path class="fil12" d="M12064 6423c14,6 7,-13 10,20 1,6 -1,24 0,32 0,20 1,36 -2,57 12,-12 8,-26 7,-57 -1,-56 -4,-53 16,-73 -24,-1 -7,-6 -21,5 -13,11 -4,7 -10,16z"/>
     <path class="fil45" d="M14214 7793l4 9c4,-6 5,10 8,-18 2,-18 -5,-16 -5,-16 -8,20 -3,6 -6,25l-1 0z"/>
     <path class="fil10" d="M11796 7592c-13,-1 -8,2 -16,-8l6 19 9 -10 1 -1z"/>
     <path class="fil46" d="M11411 6572l5 23c20,5 29,6 47,-1 3,-21 2,-39 1,-60 0,-24 4,-29 -9,-49l4 106c-50,4 -31,3 -49,-18l1 -1z"/>
     <path class="fil10" d="M11236 7552c9,9 -11,6 11,8 2,-16 5,-33 -6,-43 1,17 7,29 -4,35l-1 0z"/>
     <path class="fil47" d="M11028 5008c2,-4 1,4 6,-12 2,-7 3,-13 4,-20 -8,12 0,-13 -8,16 -2,7 -1,9 -2,16z"/>
     <polygon class="fil47" points="13809,8463 13822,8464 13815,8452 "/>
     <path class="fil46" d="M11815 6599c21,-20 9,-88 6,-118l-35 -7c4,4 -4,4 15,9 10,3 8,1 15,1 1,43 1,73 -1,115z"/>
     <path class="fil10" d="M11459 7647c-4,-2 2,-2 -13,-7 -6,-2 -7,-1 -13,-2 -9,-1 -22,-1 -32,-1 3,2 0,3 13,7 7,2 8,1 14,2 9,1 22,1 32,1l-1 0z"/>
     <path class="fil48" d="M13193 6614c3,-5 2,5 7,-16 2,-7 2,-14 3,-21 -5,8 -1,-9 -8,16 -2,7 -2,14 -3,21l1 0z"/>
     <path class="fil48" d="M14768 3505l9 -1c-11,-12 15,-6 -16,-11 0,25 -2,5 7,12z"/>
     <path class="fil48" d="M7875 5706c12,-12 9,-13 13,-33 -9,12 1,-12 -9,15 -2,6 -3,12 -4,18z"/>
     <path class="fil48" d="M10057 4419l15 -5c-4,-20 -2,-10 -10,-15l3 10c-1,1 -2,3 -3,4 0,0 -3,5 -3,3 0,-1 -2,3 -3,3l1 0z"/>
     <path class="fil48" d="M13512 4499c4,-7 2,-7 7,-12l-13 5c-3,10 -4,7 6,7z"/>
     <path class="fil46" d="M11240 6579l6 -6c-27,-78 6,-98 -48,-104 4,21 2,54 10,71 7,14 8,9 19,18 17,15 1,3 13,20l0 1z"/>
     <path class="fil12" d="M11075 6450c14,-6 9,1 16,-9 1,-27 14,-33 -19,-40l3 49z"/>
     <path class="fil12" d="M12116 6427l2 79c29,-20 41,-64 42,-106l-26 3 -18 6 0 18z"/>
     <path class="fil10" d="M11780 7584c8,10 2,7 16,8 27,-7 43,-28 65,-37l-12 -38c-14,9 -20,23 -34,34 -21,18 -31,2 -34,33l-1 0z"/>
     <path class="fil49" d="M10815 5118c-9,52 -17,36 -30,65l6 3 59 -23c-5,-20 -18,-43 -32,-49l-3 4z"/>
     <path class="fil49" d="M10320 5024l11 -21c0,-1 1,-2 2,-3l6 -43c4,-14 4,-4 -3,-9l-42 25c6,19 18,33 26,51z"/>
     <path class="fil46" d="M11702 6604c17,-21 9,-109 8,-143l-32 -11c0,112 -22,141 25,153l-1 1z"/>
     <path class="fil50" d="M13146 5107c-19,-3 -5,-4 -11,7l12 79c20,-12 48,-39 57,-63 -19,-7 -38,-20 -59,-23l1 0z"/>
     <path class="fil12" d="M11156 6451l-38 -15c-7,53 4,75 38,92l0 -77z"/>
     <path class="fil12" d="M12280 7376l-3 -2c-52,33 -171,204 -166,305 23,-16 78,-104 101,-137 32,-47 60,-107 67,-165l1 -1z"/>
     <path class="fil51" d="M10572 5191c7,11 -11,4 15,8 2,0 22,-1 25,-1 65,-10 119,-47 114,-119 -21,-4 -15,4 -38,9 -13,3 -28,3 -43,4 -8,29 -56,87 -73,98l0 1z"/>
     <path class="fil10" d="M11917 7488c1,12 -2,9 10,8 5,-15 71,-60 89,-73l2 -79 -13 -18c-12,10 -18,23 -29,36 -12,16 -20,19 -31,32 -21,26 -31,48 -28,93l0 1z"/>
     <path class="fil10" d="M11608 7641l-9 -69c-23,-2 -47,-6 -65,3 -8,17 -7,50 -6,75l80 -9z"/>
     <path class="fil12" d="M12061 6565c-3,-18 -7,-15 3,-22l7 -11c2,-20 2,-36 2,-57 0,-8 1,-26 0,-32 -3,-34 5,-14 -10,-20 -7,13 -19,15 -34,26l1 128c23,-1 17,3 30,-12l1 0z"/>
     <path class="fil10" d="M11744 7618c12,-21 4,-22 7,-52l-17 0c-23,2 -46,14 -62,23l0 45 72 -16z"/>
     <path class="fil10" d="M11203 7500l-2 29 34 23c12,-6 6,-18 4,-35l-5 -26 -14 -4c-20,5 -3,-5 -18,13l1 0z"/>
     <path class="fil10" d="M11072 7179c-139,124 62,307 79,313 3,-48 3,-47 -10,-88 -8,-22 -11,-58 -23,-77 -48,-78 -32,-51 -46,-147l0 -1z"/>
     <path class="fil52" d="M12768 5110c0,-9 2,-21 2,-27 -1,-19 6,-9 -6,-14 -38,20 -86,85 -52,146 19,33 88,89 141,52 -59,-46 -74,-67 -84,-157l-1 0z"/>
     <path class="fil10" d="M12075 7369c37,-29 53,-62 82,-103 32,-44 -20,-110 -42,-122 -7,38 -27,63 -37,100 -11,41 -3,81 -3,124l0 1z"/>
     <path class="fil10" d="M11265 7522l-2 53c28,13 44,33 79,41l10 3 0 -19 1 -67c-22,-9 -50,-26 -78,-30 -17,3 -9,1 -14,5l4 15 0 -1z"/>
     <path class="fil46" d="M11815 6599c3,-43 2,-72 1,-115 -7,0 -5,2 -15,-1 -19,-6 -11,-6 -15,-9 -17,7 -10,5 -13,31 -5,41 -17,77 -15,112l56 0 1 -17 0 -1z"/>
     <path class="fil10" d="M11401 7638c10,1 23,1 32,1 6,0 7,0 13,2 15,4 10,4 13,7l28 0 6 -61c-6,-9 -3,-6 -10,-15 -57,-18 -86,17 -110,57l28 8 0 1z"/>
     <path class="fil46" d="M11413 6474c-10,11 -4,1 -10,19l8 79c18,21 -1,22 49,18l-4 -106 -5 -15 -37 5 -1 0z"/>
     <path class="fil53" d="M11430 5870l-8 5c-1,1 -3,1 -5,2 -10,3 -6,1 -15,3 -62,11 -128,50 -170,79 -46,31 -116,57 -120,128l5 4c12,-12 20,-25 32,-37 34,-33 84,-66 129,-85 46,-20 202,-42 256,-28 44,74 -93,49 -152,55 -120,11 -215,89 -269,191 -42,79 -47,62 4,162 30,-7 37,9 50,-18 22,-44 54,-100 137,-89 87,11 104,117 116,185 32,-2 76,-2 96,-18 134,-106 25,-177 72,-252 42,-4 38,36 44,74 19,120 -27,178 163,186l19 2c9,-43 -1,-49 13,-74 26,-71 84,-118 167,-99 76,18 74,141 152,83 10,-70 -17,-103 -43,-150 -67,-120 -208,-139 -311,-165 -32,-8 -53,2 -79,-15l2 -30c40,-24 142,1 195,13 72,16 116,53 154,68 15,6 6,5 9,-4 -33,-74 -159,-146 -263,-175 -134,-36 -246,-34 -379,4l-1 -5z"/>
     <path class="fil3" d="M12809 4759l0 5c66,-19 116,-16 184,-3 55,10 106,42 150,66l90 72c34,32 0,-11 55,55 25,29 55,66 51,104 -26,1 -33,-16 -51,-26 -21,-11 -29,-8 -50,-24 -37,-28 -47,-38 -99,-53 -55,-16 -182,-69 -237,-58 -91,19 -133,48 -200,104 -32,26 -53,44 -82,69 -38,32 -66,44 -70,77 47,-1 53,-17 79,-37 19,-15 46,-30 64,-46 41,-34 77,-65 124,-96 106,-69 238,-11 334,47 87,52 259,129 133,231 -69,55 -206,176 -284,82 -49,5 -88,10 -141,10 -47,0 -106,-3 -151,2 3,93 93,136 185,148 173,22 261,-5 388,-98 42,-30 56,-45 88,-79 91,-101 75,-103 112,-218 29,-89 70,-168 54,-272 -14,-91 -71,-146 -148,-187 -75,-40 -164,-81 -274,-54 -59,14 -180,41 -226,87 -7,7 -2,0 -7,9 22,15 37,8 48,26 -11,20 -38,22 -60,30 -22,8 -42,17 -59,27z"/>
     <path class="fil1" d="M11502 7522c43,5 87,6 130,1 83,-20 159,-74 202,-120 72,-78 157,-250 22,-316 -44,-21 -77,-28 -132,-30 -243,-7 -83,148 -168,151 -19,-37 -10,-85 -15,-131 -58,-52 -136,-49 -215,-11 -51,25 -112,93 -115,174 -2,59 9,78 27,121 31,73 73,118 151,137 38,9 72,24 114,25l-1 -1z"/>
     <path class="fil53" d="M11622 8140c37,34 139,25 189,10 150,-44 98,-33 231,-109 24,-14 49,-24 71,-39 120,-79 107,-80 193,-147 82,-63 196,-243 229,-336 20,-57 43,-130 1,-177 -13,-15 -41,-45 -67,-49 -34,-5 -66,16 -78,36 -57,95 -72,119 -119,222 -39,84 -81,132 -139,196 -41,46 -135,124 -187,158 -33,21 -79,67 -123,102 -49,38 -42,52 -127,98 -13,7 -23,13 -38,19 -18,7 -24,6 -37,16l1 0z"/>
     <path class="fil12" d="M12038 7492l-13 -16c-90,54 -132,140 -255,181 -100,34 -275,50 -383,23 -94,-23 -143,-73 -212,-118 -121,-79 -178,-160 -205,-335 -25,1 -118,27 -137,38 4,23 33,63 44,93 12,31 25,73 39,98 58,102 109,142 188,220 52,51 185,127 257,151 85,29 151,25 243,20 82,-5 147,-38 203,-70 28,-16 59,-30 89,-47 33,-19 48,-37 77,-59 112,-84 64,-119 66,-180l-1 1z"/>
     <path class="fil53" d="M10729 7397c-26,4 -39,37 -53,57 -16,25 -30,43 -30,79 -1,67 26,117 54,165 23,40 110,156 145,185 49,41 202,173 243,196 67,37 160,95 228,100 81,6 134,7 187,-29 -42,-32 -204,-32 -288,-93 -45,-33 -49,-44 -106,-87 -39,-29 -138,-160 -171,-211 -26,-40 -49,-66 -74,-114l-135 -247 0 -1z"/>
     <path class="fil54" d="M10574 5068c-19,-15 -54,-21 -63,-45 -10,-26 5,-65 -25,-73 -63,-18 -107,31 -112,83 -16,163 185,148 200,35z"/>
     <path class="fil54" d="M12848 5176l-21 15c20,16 19,26 49,41 98,52 162,-15 157,-92 -2,-41 -10,-45 -36,-60 -21,-13 -42,-29 -74,-17 -58,22 12,104 -75,113z"/>
     <path class="fil55" d="M7477 8899c4,-3 -1,-2 12,-7 6,-2 9,-2 15,-3 91,-49 176,-101 268,-147 74,-37 204,-101 292,-120l13 1c-8,17 4,-2 -12,6l-183 143c-62,51 -120,96 -177,147 -16,14 -27,27 -42,41 -16,14 -28,26 -43,40 -26,26 -54,53 -79,83 -20,23 -141,157 -107,207 34,18 96,-30 125,-47 37,-21 80,-43 117,-61 81,-40 161,-76 241,-115l372 -168c36,-15 89,-39 128,-49 37,-13 8,-2 14,3 -2,2 -13,5 -14,5 -79,56 -276,228 -342,298 -22,23 -96,101 -76,140 72,66 310,-71 378,-104 73,-36 287,-153 342,-173 5,-5 3,-5 11,-9 6,-3 6,-2 13,-3 -3,4 -3,7 -7,11 -10,11 5,-1 -11,7 -19,12 -42,34 -62,51l-174 166c-42,49 -192,206 -157,278 34,9 44,0 69,-16 116,-73 332,-156 458,-167 4,-2 1,-4 16,-7 5,-1 21,-2 26,-2l249 -31c43,-5 86,-8 128,-14 27,-4 115,-6 89,-37 -13,-14 -49,-8 -71,-8 -207,-1 -509,48 -699,118 -74,27 -182,86 -199,92 24,-54 69,-101 101,-143 38,-49 81,-83 122,-124 41,-40 87,-77 132,-114 21,-17 47,-39 65,-56 14,-13 56,-45 33,-74 -29,-37 -173,46 -203,61 -139,69 -476,263 -593,268 20,-72 286,-280 365,-344 26,-21 125,-88 102,-128 -33,-31 -98,0 -137,14 -189,68 -558,244 -745,338 -31,15 -90,53 -115,61 -5,6 5,4 -14,9l-11 10c3,-29 -1,-4 8,-15 9,-18 1,-4 10,-11 23,-46 111,-136 150,-173 29,-28 53,-53 83,-79 98,-86 163,-137 268,-218 44,-34 183,-125 136,-165 -76,-63 -590,239 -606,242 -4,10 7,4 -10,10 -8,6 16,3 -12,5l11 -14 11 -4c2,-14 22,-28 34,-39l281 -263c140,-117 153,-141 309,-240 80,-51 -7,-125 -335,10 -53,22 -104,44 -155,69 -31,16 -126,70 -150,73 -4,10 6,4 -7,9l-23 8 14 -12 16 -9c14,-30 478,-388 576,-461 67,-50 79,-41 75,-72 -43,-27 -213,109 -241,130 -121,90 -315,242 -426,338 -36,31 -69,58 -106,88 -51,40 -101,67 -73,102 60,75 462,-258 764,-282l-48 38c-17,12 -30,21 -48,35 -33,26 -60,51 -92,75 -64,50 -114,104 -175,155 -79,67 -178,166 -258,239 -16,14 -29,26 -43,40 -17,17 -22,28 -13,56 16,6 35,6 55,5l-3 3z"/>
     <path class="fil55" d="M14814 3236c10,10 3,-13 9,13 -13,-1 -6,0 -17,-3 -1,0 -3,0 -4,-2 -1,-2 -3,-2 -4,-3 -74,-1 -137,-42 -156,-22 -34,37 114,116 161,242 14,11 10,0 11,21 -14,-5 -10,-6 -16,-11 -21,-15 -39,-27 -60,-42 -22,-16 -35,-44 -60,-31 -19,19 5,44 18,67 26,45 108,170 117,195 10,6 5,-10 9,13 -25,-6 -3,1 -12,-9 -47,-11 -37,23 -30,57 6,28 15,57 20,83 6,9 0,-10 6,12 2,7 2,14 3,21 15,95 72,208 77,311 4,78 -18,99 -7,109 41,27 45,-85 46,-114 4,-101 -83,-285 -99,-400 -9,-13 -6,-12 -6,-18 26,6 4,-2 13,11 20,28 49,71 70,51 34,-31 -119,-247 -135,-281 -9,-7 -7,13 -7,-12 31,5 5,-2 16,11 15,13 29,22 45,35 50,40 69,18 49,-28 -52,-117 -64,-142 -159,-236 -10,-7 -5,8 -11,-11 34,-4 11,0 20,5 20,2 50,8 72,13 24,5 56,19 74,2 17,-21 -18,-67 -30,-82 -53,-67 -190,-134 -234,-124 -2,28 19,32 47,44 54,23 145,61 164,117l0 -4z"/>
     <path class="fil12" d="M11037 4976c-1,7 -2,13 -4,20 -5,16 -4,8 -6,12 -2,24 -12,54 -18,78 -13,52 -29,116 -90,42 -94,-113 -105,-151 -165,-227 -29,-37 -31,-37 -54,-34 -9,48 18,63 38,87 21,25 37,40 62,64 17,16 41,47 58,67 15,19 45,53 40,87 -13,77 -312,106 -403,80l-9 4c18,27 117,46 155,44 47,-2 118,-17 162,-30 12,-6 27,-12 42,-10 26,4 9,1 16,8 28,9 36,39 19,70 -12,22 -33,39 -53,52 -28,19 -104,58 -142,64 -3,2 -4,4 -12,7 -10,3 -2,1 -16,3 -103,35 -130,51 -205,110 -29,23 -64,40 -93,64 -29,24 -49,51 -80,77 -14,12 -31,22 -44,34 -52,45 -72,84 -110,126 -35,39 -42,37 -68,89 -98,194 -156,242 -122,484 19,134 3,120 75,238 48,80 98,98 166,148 33,25 55,48 86,71 57,40 148,76 212,108 203,101 373,5 565,-56 18,-6 37,-17 55,-24 36,-15 79,-26 118,-39 72,-24 215,-49 238,-76 56,-62 -86,-136 -139,-151 -99,-28 -140,-53 -207,-107 -27,-22 -55,-50 -72,-85 -31,-63 10,-105 16,-122 -37,-74 -32,-188 2,-265 35,-79 17,-43 58,-105 10,-15 15,-34 26,-53l104 -137c50,-57 80,-138 110,-209 12,-29 21,-108 36,-121 46,51 -42,218 -65,259 -11,20 -21,39 -32,56l-112 142 4 5c30,-12 53,-36 90,-55 101,-52 219,-77 335,-89 153,-15 353,59 438,129 9,1 6,3 7,-7 -8,-25 -18,-44 -24,-71 -6,-26 -10,-51 -17,-78 -14,-55 -8,-122 -7,-175 1,-20 -1,-7 6,-11l8 8c11,132 37,297 102,409 39,67 96,196 98,283 1,39 -10,80 -3,108 35,136 -128,253 -206,295 -116,62 -166,40 -271,111 -29,20 -49,33 -42,84 13,27 226,95 299,144 64,43 139,59 205,87 151,65 211,69 374,67 59,-1 178,-44 227,-72 68,-38 125,-70 177,-116 31,-28 35,-48 57,-89 55,-103 152,-214 161,-276 1,-7 1,-14 3,-21 7,-25 3,-8 8,-16 4,-42 17,-87 20,-128 22,-240 -6,-285 -117,-473 -28,-47 -33,-45 -74,-72 -34,-23 -54,-41 -88,-64 -113,-74 -146,-91 -260,-184 -77,-62 -176,-141 -216,-234l-47 -99c-27,-59 -45,-166 -65,-234 -28,23 -41,20 -55,-18 -8,-23 -16,-54 -17,-80l-12 -9c-12,27 -55,97 -78,107 -52,-7 -34,-59 -34,-114 0,-46 -8,-108 -5,-148 -1,-1 -5,-4 -6,-5 -1,-1 -3,-1 -4,-3 -1,-2 -3,-2 -4,-3 -2,23 -44,142 -91,140 -15,-18 -20,-57 -28,-82 -8,-25 -23,-54 -29,-78l-14 -2c-1,121 -70,289 -109,37 -28,48 1,143 -20,195 -38,5 -68,-26 -84,-48 -20,-29 -17,-61 -27,-98 -6,-22 -51,-112 -73,-180 -14,-12 -2,11 -9,-6 -1,-2 -3,-2 -4,-3 -3,29 -17,56 -30,79 -13,24 -26,52 -58,53 -4,-7 -34,-257 -34,-283l-14 -1c-11,29 -36,65 -52,99 -14,30 -26,80 -61,83 -32,-22 -40,-107 -41,-154l-13 -16c-7,32 -31,74 -47,98 -23,34 -47,74 -75,75l-6 -200 -13 2c-21,77 -58,153 -89,223 -29,65 -61,161 -82,229l-2 1z"/>
     <path class="fil2" d="M12879 4708l-1 -12c-64,-22 25,-62 41,-81 12,-15 -2,-6 21,-21 7,-5 15,-9 23,-14l247 -151c80,-42 164,-52 270,-44 45,3 92,13 134,27 40,14 98,30 96,56 -22,5 -75,0 -103,1 -33,2 -56,12 -87,17 -4,6 -3,5 -7,12 30,12 74,40 104,57l98 64c34,23 51,54 84,78 49,35 191,136 229,173 52,51 88,36 97,67 8,30 -10,41 -36,40 -55,-1 -92,-2 -143,14 -61,19 -163,72 -216,108 -148,101 -25,223 -5,267 9,20 20,30 18,60 -3,40 -45,61 -76,81 -42,28 -45,50 -51,110 -5,55 5,96 5,144 4,5 3,2 7,10 1,1 2,6 3,8 1,4 4,12 5,17 3,22 27,78 39,91 22,23 182,97 243,134 30,18 51,33 54,80 3,44 -7,78 -38,91 -74,32 -123,-49 -208,-40 -29,51 -29,46 -38,117 -6,46 -11,93 -17,140 -17,119 -61,181 -68,244 -1,7 -1,12 -4,19 -3,8 -4,6 -8,11 -10,45 -58,150 -81,184 -66,96 -120,128 -203,200 -60,52 -165,129 -242,155 -51,17 -141,70 -165,102 -39,53 -86,137 -43,198 20,29 44,42 68,68 21,24 44,36 80,51 563,241 939,-297 1150,-731 15,-30 33,-56 47,-84 27,-54 54,-125 76,-182 3,-14 0,-5 4,-15 0,-1 2,-2 2,-4 0,-2 2,-2 3,-4 71,-176 57,-175 91,-341 6,-28 15,-57 22,-88 7,-32 14,-58 45,-63 62,-8 86,61 111,100 48,74 39,99 89,131 56,35 94,-37 95,-91 2,-54 6,-171 0,-220 -14,-107 -76,-215 -139,-294 -21,-26 -27,-34 -57,-53 -80,-51 -97,-78 -158,-167 -12,-18 -14,-10 -24,-33 -19,-45 -10,-47 -47,-110 -25,-43 -173,-299 -40,-279 17,3 53,28 73,37 24,11 48,16 75,30 74,39 86,86 142,63 12,-32 -17,-50 -34,-66l-120 -100c-36,-30 -162,-128 -141,-181 19,-49 124,-5 168,-5 -14,-17 -38,-36 -55,-58 -49,-64 -54,-64 -104,-116 -19,-21 -34,-36 -56,-54 -152,-121 -228,-227 -355,-315 -179,-123 -88,-76 -280,-159 -32,-14 -44,-24 -80,-28 -136,-14 -105,-35 -303,-35l-210 13c-137,17 -201,52 -295,144 -82,80 -142,145 -188,257 -11,28 -19,52 -31,79 -61,143 -34,69 -26,123 5,30 -19,92 -21,143 31,-11 60,-52 85,-23 36,47 -82,133 -21,195 22,-9 29,-30 45,-51 55,-71 121,-169 200,-214 29,-16 53,-77 138,-86l-2 2z"/>
     <path class="fil55" d="M11528 7650c-1,-25 -2,-58 6,-75 18,-9 42,-4 65,-3l9 69 -80 9zm206 -84l6 -4c8,-2 5,-2 14,-2 3,20 9,49 -10,58l-72 16 0 -45c16,-9 39,-21 62,-23zm-274 81c-9,-1 -23,-1 -32,-1 -6,0 -7,0 -14,-2 -14,-4 -10,-4 -13,-7l-28 -8c24,-40 53,-74 110,-57l14 3 -4 12 -6 61 -28 0 1 -1zm-731 -251l135 247c25,49 48,74 74,114 33,51 132,182 171,212 57,43 62,54 106,87 83,61 245,62 288,93 -53,36 -106,35 -187,29 -68,-5 -160,-62 -228,-100 -41,-23 -194,-155 -243,-196 -34,-29 -121,-145 -145,-185 -28,-48 -55,-98 -54,-165 0,-36 14,-54 30,-79 13,-20 27,-53 53,-57zm1067 196l-9 10 -6 -19c3,-31 13,-15 34,-33 14,-11 20,-25 34,-34l12 38c-21,9 -38,30 -65,37l0 1zm-593 -92l5 -22 14 8 14 4 5 26c11,9 8,27 6,43 -22,-1 -2,1 -11,-8l-34 -23 2 -29 -1 1zm71 2c28,4 56,21 78,30l-1 67 7 26c-23,-5 -12,-4 -17,-9 -35,-8 -51,-28 -79,-41l2 -53c-9,-10 -1,10 -8,-11 -4,-12 -1,-5 -2,-17 11,1 5,-1 12,2 1,0 3,2 4,2 1,0 2,2 3,3l1 1zm348 638c13,-10 20,-9 37,-16 15,-6 26,-13 38,-19 85,-46 78,-60 127,-98 44,-35 90,-81 123,-102 53,-34 146,-112 187,-158 58,-64 100,-112 139,-196 47,-103 62,-126 119,-222 11,-19 44,-40 78,-36 26,3 53,34 67,49 42,47 19,120 -1,177 -33,94 -147,273 -229,336 -86,66 -73,68 -193,147 -22,15 -48,25 -71,39 -133,76 -81,65 -231,109 -50,15 -152,24 -189,-10l-1 0zm305 -644c-10,13 14,9 -16,11l6 -19c-2,-46 7,-68 28,-93 11,-13 18,-17 31,-32 10,-14 17,-26 29,-36 7,-9 -7,-6 11,-8l3 26 -2 79c-18,13 -83,57 -89,73l-1 -1zm353 -120c-8,59 -36,118 -67,165 -22,33 -78,121 -101,137 -5,-101 114,-272 166,-305l3 -9c3,-4 3,-8 6,-10 18,22 7,-20 5,9 0,0 -1,2 -2,3 -5,18 0,6 -10,11l0 -1zm-1208 -197c14,97 -2,69 46,147 11,19 15,54 23,77 14,41 13,41 10,88 -17,-6 -218,-188 -79,-313l0 1zm952 297c7,-8 -10,-8 11,-6l2 22c-2,61 47,96 -66,180 -29,22 -44,40 -77,59 -30,17 -61,31 -89,47 -56,32 -121,65 -203,70 -92,6 -159,9 -243,-20 -72,-25 -205,-100 -257,-151 -79,-78 -130,-118 -188,-220 -14,-25 -26,-67 -39,-98 -12,-29 -40,-70 -44,-93 20,-11 113,-37 137,-38 28,175 84,256 205,335 69,45 118,95 212,118 108,27 283,10 383,-23 122,-41 165,-127 255,-181l1 -1zm50 -108c0,-43 -8,-83 3,-124 10,-37 30,-62 37,-100 22,12 74,78 42,122 -30,41 -45,74 -82,103l0 -1zm-688 128c-79,-18 -121,-64 -151,-137 -18,-43 -30,-62 -27,-121 3,-81 64,-149 115,-174 79,-38 158,-40 215,11 5,46 -4,94 15,131 85,-3 -74,-158 168,-151 55,2 87,9 132,30 136,65 51,238 -22,316 -155,156 -269,133 -446,95l1 0zm398 -1023l35 7c3,31 14,98 -6,118l-1 17 -56 0c-2,-35 11,-71 15,-112 3,-26 -4,-24 13,-31l0 1zm-84 130c-47,-13 -25,-41 -25,-153l32 11c1,33 9,122 -8,143l1 -1zm-456 -31c9,8 5,-11 8,13 -27,-2 -3,1 -13,-7 -12,-18 4,-5 -13,-20 -11,-9 -12,-4 -19,-18 -8,-17 -7,-50 -10,-71 54,6 21,26 48,104l-1 -1zm168 -99l37 -5 5 15c13,20 9,25 9,49 0,21 2,39 -1,60 -19,7 -28,6 -47,1l-5 -23 -8 -79 -5 -17 15 -2 0 1zm-257 53c-34,-17 -45,-39 -38,-92l38 15 0 77zm368 63c1,-58 5,-77 -4,-136l30 -11c-1,36 -7,63 -8,121 0,26 4,23 -19,26l1 0zm610 -188l26 -3c0,43 -12,87 -42,106l-2 -79 -4 -8c-1,-11 -2,-1 0,-14l22 -2zm-1042 40l-4 23 -12 -15 -3 -49c34,7 20,13 19,40l0 1zm980 91l-7 11c0,2 1,12 1,14 -2,13 4,-1 -4,9 -13,15 -7,11 -30,12l-1 -128c15,-11 27,-13 34,-26 5,-9 -3,-5 10,-16 14,-12 -3,-6 21,-5 -20,20 -17,17 -16,73 1,30 5,45 -7,57l-1 -1zm-956 -443l-8 22c-5,-7 -7,3 -5,-11 3,-24 6,-11 9,-15 3,-71 74,-97 120,-128 42,-29 109,-68 170,-79 10,-10 12,-8 28,-9 134,-38 245,-40 379,-4 104,28 230,101 263,175 14,11 9,2 13,22 -20,-5 -12,1 -22,-18 -38,-16 -83,-52 -154,-68 -53,-12 -155,-37 -195,-13l-2 30c27,17 47,7 79,15 103,26 244,44 311,165 26,47 53,80 43,150 -78,58 -75,-65 -152,-83 -83,-19 -141,28 -167,99 -2,28 0,55 -10,79 -17,0 8,6 -10,-1 -12,-4 -8,-3 -12,-6 -190,-8 -143,-66 -163,-186 -6,-38 -2,-79 -44,-74 -47,75 62,147 -72,252 -21,17 -65,16 -97,18 -13,-68 -30,-174 -116,-185 -83,-11 -115,46 -137,89 -14,27 -21,11 -50,18 -51,-99 -46,-83 -4,-162 54,-102 149,-179 269,-191 59,-6 196,19 152,-54 -53,-13 -210,8 -256,28 -45,20 -95,52 -129,85 -12,12 -20,26 -32,37l1 3zm1732 -913c87,-8 16,-91 75,-113 33,-12 54,4 74,17 26,16 34,19 36,60 4,77 -59,144 -157,92 -30,-16 -29,-26 -49,-41 -9,-9 -11,12 -6,-13l27 -2zm-2236 22c-20,11 -28,8 -52,5l12 -12c18,-11 65,-70 73,-98 15,-1 30,0 43,-4 23,-6 17,-13 38,-9 5,71 -49,108 -114,119l0 -1zm2151 -130c6,-10 -11,-4 15,-10 -2,21 -2,37 -10,51 10,90 26,111 84,157 -53,37 -121,-19 -141,-52 -35,-60 14,-126 52,-146zm374 30c16,4 5,0 9,8 21,2 40,15 59,23 -10,24 -38,51 -58,63l-12 -79c-8,0 -6,2 -5,-7l-6 -13 13 5zm-2332 -5l13 22c13,6 27,29 32,49l-59 23c-9,10 3,5 -18,9l12 -11c13,-29 21,-13 30,-65l-12 -18c-24,-23 -21,-15 -24,-34 14,8 2,-3 14,11 2,2 8,11 12,16l0 -2zm-231 -25c-15,112 -216,128 -200,-35 5,-51 49,-101 112,-83 30,9 15,48 25,73 9,24 44,30 63,45zm-235 -111l-6 43 -3 35c-17,-6 -4,0 -10,-11 -8,-18 -21,-32 -26,-51l42 -25c0,-8 -2,-6 6,-6l11 -8 -5 15 -9 7 0 1zm688 51c1,-7 0,-9 2,-16 8,-29 0,-4 8,-16 21,-68 53,-165 82,-229 31,-70 68,-145 89,-223l5 -12c7,5 4,0 8,11l6 200c28,-1 53,-41 75,-75 16,-24 40,-66 47,-98l5 -19c3,5 4,2 7,13 2,9 1,14 1,22 1,47 8,133 41,154 35,-3 47,-54 61,-83 16,-34 41,-70 52,-99l6 -10c8,5 4,1 8,11 1,26 31,276 34,283 32,0 44,-29 58,-53 13,-23 26,-50 30,-79 3,-22 -1,-4 8,-12l4 21c22,68 67,158 73,180 10,37 7,70 27,98 16,23 46,54 84,48 20,-52 -8,-147 20,-195 39,252 108,84 109,-37 3,-29 1,-8 8,-16l6 18c6,24 21,53 29,78 8,25 13,63 28,82 48,1 89,-118 91,-140l6 -15c9,10 1,-13 7,11 3,13 1,7 1,14 -2,40 5,102 5,148 0,55 -17,107 34,114 23,-10 66,-80 78,-107l0 -7c4,-7 -1,-7 5,-10l7 10 0 17c1,26 9,57 17,80 14,38 27,41 55,18 20,68 37,176 65,234l47 99c40,93 139,172 216,234 115,93 147,110 260,184 34,22 53,41 88,64 41,27 46,25 74,72 112,188 139,234 117,473 -4,41 -16,86 -20,128 -1,7 -1,14 -3,21 -6,20 -5,11 -7,16 -10,62 -106,173 -162,276 -22,42 -26,62 -57,89 -52,46 -109,78 -177,116 -48,27 -167,71 -227,72 -163,2 -223,-2 -374,-67 -66,-29 -141,-44 -205,-87 -73,-49 -286,-117 -299,-144 -7,-51 13,-64 42,-84 105,-71 154,-49 271,-111 78,-42 241,-159 206,-295 -7,-28 4,-69 3,-108 -2,-87 -59,-216 -98,-283 -66,-112 -91,-277 -102,-409l-14 3c-1,54 -7,120 7,175 7,27 11,52 17,78 6,27 17,46 24,71 6,8 9,-14 6,18 -23,-5 -4,1 -12,-11 -84,-70 -284,-144 -438,-129 -116,11 -233,37 -335,89 -37,19 -61,43 -90,55 -8,19 -1,13 -20,18 2,-7 -1,-4 4,-11 9,-13 3,-5 12,-11l112 -142c12,-18 21,-36 32,-56 23,-41 111,-208 65,-259 -15,12 -24,92 -36,121 -30,71 -60,152 -110,209l-104 137c-11,18 -16,38 -26,53 -41,62 -23,26 -58,105 -34,77 -39,191 -2,265 -6,16 -47,58 -16,122 17,35 45,63 72,85 67,54 108,79 207,107 53,15 195,89 139,151 -24,26 -167,52 -238,76 -39,13 -82,25 -118,39 -18,7 -37,18 -55,24 -193,61 -362,157 -565,56 -64,-32 -155,-67 -212,-108 -31,-22 -54,-46 -86,-71 -67,-50 -117,-69 -166,-148 -71,-118 -56,-104 -75,-238 -34,-242 24,-290 122,-484 26,-52 33,-50 68,-89 38,-42 57,-80 110,-126 14,-12 30,-22 44,-34 31,-26 51,-53 80,-77 29,-24 64,-41 93,-64 75,-60 101,-75 205,-110 13,-8 -20,4 13,-7 10,-3 6,-1 15,-3 38,-7 114,-45 142,-64 20,-14 41,-30 53,-52 16,-31 8,-61 -19,-70l-58 2c-44,13 -114,28 -162,30 -38,2 -137,-18 -155,-44l-9 -11c26,1 13,3 19,8 90,26 390,-3 403,-80 6,-34 -24,-68 -40,-87 -17,-21 -42,-51 -58,-67 -25,-24 -41,-40 -62,-64 -21,-24 -47,-39 -38,-87 24,-3 25,-3 54,34 60,77 71,115 165,227 61,74 78,10 90,-42 6,-24 16,-54 18,-78l1 -4zm1781 -245c-8,6 -7,5 -15,-1l16 -4c16,-10 37,-19 59,-27 22,-8 49,-11 60,-30 -11,-18 -26,-11 -48,-26 5,-9 -1,-1 7,-9 46,-46 168,-73 226,-87 110,-26 199,14 274,54 76,41 134,96 148,187 16,104 -25,183 -54,272 -37,115 -21,117 -112,218 -32,35 -46,49 -88,79 -127,93 -215,120 -388,98 -92,-12 -182,-55 -185,-148 45,-4 104,-1 151,-2 54,0 92,-6 141,-10 78,94 215,-27 284,-82 126,-102 -46,-179 -133,-231 -96,-58 -227,-116 -334,-47 -47,31 -84,62 -124,96 -18,15 -46,31 -64,46 -25,20 -31,36 -79,37 3,-33 32,-45 70,-77 30,-25 50,-43 82,-69 68,-55 109,-84 200,-104 55,-12 182,42 237,58 52,15 62,25 99,53 21,15 29,12 50,24 18,10 25,27 51,26 3,-38 -27,-75 -51,-104 -55,-66 -22,-23 -55,-55l-90 -72c-44,-24 -95,-56 -150,-66 -68,-12 -118,-16 -184,3l-1 0zm69 -68c9,4 7,-2 11,5l-10 7c-84,9 -109,69 -138,86 -79,45 -144,142 -200,214 -16,20 -23,42 -45,51 -61,-62 57,-148 21,-195 -25,-29 -54,12 -85,23 3,-51 26,-113 21,-143 -8,-54 -35,21 26,-123 11,-27 19,-51 31,-79 46,-112 105,-177 188,-257 94,-92 158,-126 295,-144l210 -13c198,0 168,21 303,35 36,4 49,14 80,28 192,83 102,36 280,159 127,88 203,194 355,315 22,18 37,33 56,54 49,52 54,52 104,116 17,22 41,41 55,58 -45,-1 -149,-44 -168,5 -21,53 105,152 141,181l120 100c17,16 46,34 34,66 -56,22 -67,-24 -142,-63 -27,-14 -51,-19 -75,-30 -20,-9 -56,-34 -73,-37 -133,-20 15,237 40,279 37,63 28,65 47,110 10,23 12,15 24,33 60,89 78,116 158,167 30,19 36,27 57,53 64,79 125,187 139,294 7,49 2,166 0,220 -2,54 -40,127 -95,91 -50,-32 -42,-56 -89,-131 -25,-39 -49,-108 -111,-100 -32,4 -39,30 -45,63 -7,31 -16,60 -22,88 -35,166 -21,165 -91,341 -6,29 2,1 -2,11 -4,9 -4,8 -7,12 -22,57 -49,128 -76,182 -14,28 -32,54 -47,84 -211,434 -587,972 -1150,731 -36,-15 -59,-27 -80,-51 -24,-26 -48,-40 -68,-68 -43,-62 4,-145 43,-198 24,-32 114,-85 165,-102 78,-26 182,-104 242,-156 83,-71 138,-104 203,-200 23,-33 71,-139 81,-184 1,-6 1,-8 3,-15 6,-17 6,-11 8,-16 7,-63 52,-125 68,-244 7,-47 12,-94 17,-140 9,-72 10,-66 38,-117 85,-9 134,71 208,40 30,-13 40,-47 38,-91 -3,-47 -24,-61 -54,-80 -61,-37 -220,-111 -243,-134 -12,-12 -36,-69 -39,-91 -8,-6 -2,6 -10,-12 -3,-7 -4,-15 -5,-22 0,-49 -10,-89 -5,-144 6,-61 9,-82 51,-110 31,-20 73,-41 76,-81 2,-30 -9,-40 -18,-60 -20,-44 -143,-166 5,-267 53,-36 155,-89 216,-108 51,-16 88,-15 143,-14 26,0 45,-11 36,-40 -9,-31 -45,-16 -97,-67 -38,-37 -180,-138 -229,-173 -33,-24 -50,-55 -84,-78l-98 -64c-29,-17 -73,-45 -104,-57 -11,0 -9,3 -6,-7l13 -5c31,-4 55,-15 87,-17 28,-2 81,4 103,-1 2,-27 -56,-43 -96,-56 -42,-15 -89,-24 -134,-27 -106,-8 -190,2 -270,44l-247 151c-8,5 -16,9 -23,14 -23,15 -8,6 -21,21 -16,19 -105,59 -41,81l3 -1zm-3739 -329c8,-18 3,-12 22,-17 -10,21 5,10 -22,17zm5001 -363c19,9 19,7 27,23 -24,-4 -22,-1 -27,-23zm-5263 -1160c6,-10 1,-4 6,-9 6,-7 4,-4 11,-10l13 -13c7,-26 41,-65 60,-85 83,-86 135,-66 205,-55 58,9 66,6 119,24 149,51 276,111 382,194 76,58 145,44 229,26 85,-18 317,-39 321,-40 237,-60 364,-3 292,-167 -8,-7 -4,12 -8,-15 21,5 10,2 17,10 58,7 98,40 145,63 31,15 35,30 58,47 43,32 41,41 68,33 11,-35 -49,-110 -66,-221 -2,-3 -4,-5 -7,-12 -2,-7 -3,-13 -4,-20l-21 -73c22,11 76,53 99,71 130,99 128,123 212,197 17,15 22,24 36,25 31,2 3,-42 0,-59 -2,-3 -4,-4 -7,-11 -2,-7 -3,-13 -4,-20 -2,-17 -9,-28 -5,-45 -14,-13 -12,-8 -12,-30 21,8 5,1 13,12 52,45 123,95 181,135 20,14 42,36 66,33 15,-43 -77,-112 -92,-212 30,24 132,162 159,203 10,16 138,210 175,173 14,-14 -12,-41 -31,-76 -34,-62 -85,-201 -86,-267 -3,-4 -4,7 -8,-16 -1,-11 0,-11 1,-21l13 19c4,21 34,56 48,81 16,29 29,57 45,85 23,41 65,79 106,150 40,69 18,47 36,95 31,79 79,227 76,308 -30,-17 -64,-60 -90,-85 -118,-115 -79,-59 -150,-112 -17,-13 -138,-108 -154,-92 -9,18 26,43 42,57 14,12 39,44 51,58 32,38 67,78 100,115 125,141 132,241 157,271 33,-3 115,-124 169,-155 115,-66 325,-174 459,-185 115,-9 140,-31 295,-26 -15,18 -52,39 -73,49 -28,14 -51,22 -78,38 -100,57 -177,130 -229,236 -21,42 -70,114 -61,169 29,2 19,-5 39,-28 29,-33 60,-77 91,-98 29,-20 133,-89 162,-93 -11,53 -132,249 -157,370 -7,31 -1,54 -3,85 -1,29 -8,56 9,75 21,-2 17,-1 23,-20 22,-60 9,-26 39,-82 29,-54 107,-138 158,-166 77,-43 272,-118 354,-133 89,-15 191,-32 284,-34 52,-2 112,-4 163,-1 46,2 211,68 235,89 63,56 94,118 132,193 19,38 33,76 52,110 12,20 16,38 26,57 22,42 80,124 85,149 17,9 11,4 17,19 8,5 3,-4 11,10 1,1 3,1 3,3 0,2 2,2 3,3 5,8 2,0 6,10l-13 -10 -13 -17c-11,3 -12,-7 -15,-13 -16,-7 -27,-25 -44,-37 -16,-12 -31,-25 -50,-34 -66,-35 -79,-31 -116,-46 -24,-10 -25,-19 -59,-25 -59,-10 -134,-34 -186,-55 -128,-52 -258,-72 -387,-105 -53,-14 -101,2 -150,0 -4,2 3,2 -13,5 -4,1 -17,2 -21,2 -13,1 -20,1 -35,2 -43,7 -165,55 -194,75 -81,54 -195,218 -216,324 -9,47 -29,194 -25,239 -1,19 -2,54 -12,70l-3 440 0 14c-2,24 2,6 -9,13l-3 -13 -1 -8c-4,-27 -13,-116 -29,-130l-25 2c-3,22 -17,53 -29,74 -9,16 -33,48 -37,63l-12 15 -2 -157c1,-23 -7,-164 -36,-166 -22,-1 -28,52 -41,89 -12,34 -29,62 -42,89 -7,-7 -2,2 -10,-14 -1,-3 -4,-11 -5,-16 -14,-48 -34,-91 -54,-139 -9,-21 -10,-43 -37,-41 -10,17 -11,85 -14,110 -5,39 -16,68 -21,100l-5 11 -9 -11c-3,-22 -12,-55 -18,-80 -11,-41 -14,-54 -38,-58 -35,28 -27,166 -31,222 -44,-22 -47,-48 -58,-106 -8,-45 -62,-131 -87,-226 -6,-22 -10,-42 -14,-65 -10,-65 -3,-51 -25,-55 -18,27 6,176 -61,236 -7,-79 -13,-163 -28,-240 -9,-45 -7,-54 -26,-64 -18,8 -106,190 -112,209 0,12 3,10 -8,7l-6 -13c-5,-36 -14,-69 -18,-108 -3,-31 3,-85 -24,-102 -16,7 -12,4 -18,25 -19,66 -42,126 -90,175 -7,-79 1,-139 -22,-214 -42,1 -47,35 -61,66 -12,26 -27,54 -40,80 -34,66 -53,99 -92,154 -35,49 -73,126 -100,146 -77,59 -121,-1 -156,-41 -21,-24 -40,-44 -60,-66 -139,-147 -299,-31 -444,32 -228,99 -154,79 -119,165 12,29 19,56 31,84 13,31 21,60 34,87 33,69 54,114 5,163 -67,67 -162,-25 -233,-72 -34,-22 -41,-36 -66,-54 -61,-44 -90,-173 -90,-259 -1,-156 46,-263 134,-328l4 -7c5,-5 2,-4 13,-11 6,-3 13,-5 20,-8 20,0 81,-29 106,-38 44,-16 59,-25 113,-29 47,-4 238,-3 262,-18 21,-19 -12,-52 -27,-63 -70,-53 -86,-27 -132,-56 -22,-14 -38,-20 -64,-30 -105,-38 -106,-65 -165,-124 -17,-16 -33,-25 -37,-58 54,-3 103,12 152,21 139,25 72,-1 206,45 44,15 162,56 200,38 -7,-29 0,7 -31,-39 -14,-21 -23,-19 -39,-35 -12,-13 -18,-26 -32,-41 -11,-12 -19,-24 -30,-38 -12,-16 -21,-24 -32,-42 -26,-42 -72,-101 -80,-127 -6,-6 -7,10 -8,-17l12 8c39,6 148,67 190,86 26,5 1,-2 10,2 9,4 8,4 12,7 37,15 152,70 165,16 10,-41 -27,-45 -48,-67 -16,-17 -36,-48 -39,-74 -11,-10 -1,12 -10,-13 -3,-7 -3,-16 -3,-24 7,-14 0,-12 23,-7 7,1 22,8 28,10 14,5 32,13 46,19 24,6 1,-2 10,3 9,5 7,4 11,8 51,19 197,102 236,133 64,52 88,74 136,142 10,15 24,47 34,57 5,-7 11,-8 6,-38 -12,-62 -101,-190 -134,-213 -105,-76 -215,-150 -347,-187 -145,-41 -125,53 -100,150 8,0 6,-2 5,7l6 14 -15 -5 -7 -9c-20,-3 -76,-33 -96,-43 -31,-15 -60,-26 -94,-39 -10,-1 -8,0 -16,-3 -7,-3 -8,-5 -12,-7 -76,-15 -157,-58 -152,63 4,87 38,128 48,193l6 12c-10,1 -2,4 -16,0 -19,-5 -5,-2 -12,-7 -75,-3 -209,-59 -259,1 -6,35 18,122 25,161 9,12 -1,-13 9,15 2,5 3,13 4,18l22 74c7,5 5,-5 10,15l-15 5 -311 110c-35,11 -80,15 -92,47 17,58 82,-18 49,166 -11,64 -42,123 -76,155l-114 121c-139,195 -220,398 -260,608 -109,573 -21,826 274,1246 38,54 57,80 98,122 37,36 91,58 123,96 44,52 55,59 124,95 82,42 151,65 236,95 27,10 53,24 77,32 44,15 102,12 110,110 3,35 -2,67 -18,93 -90,143 -262,120 -424,109 -214,-15 -214,-48 -357,-76 -9,-1 -6,1 -16,-2 -19,-6 -12,-5 -16,-8 -284,-55 -417,-276 -582,-478 -60,-73 -83,-127 -129,-221 -42,-84 -67,-162 -104,-252 -35,-87 -73,-161 -91,-259 -8,-42 -39,-428 -38,-491 3,-204 -23,-283 27,-490 38,-156 118,-359 202,-499 14,-24 26,-28 40,-49 11,-17 22,-38 33,-56 46,-75 203,-217 277,-252 69,-32 219,-55 277,-74 211,-67 133,-88 214,-137 52,-31 83,-105 108,-158 16,-33 30,-20 27,-52 -24,-20 -57,-10 -98,-18 -31,-6 -63,11 -95,15l-25 6c3,-22 -1,-2 8,-12 13,-19 29,-35 46,-52 18,-18 27,-32 44,-50 24,-26 96,-57 109,-81l4 -24 16 -3c15,-11 12,-8 9,-31 -46,-23 -128,-6 -183,-11 -9,6 9,1 -11,6 -11,3 -12,2 -23,2 6,-17 2,-8 13,-14l115 -97c46,-23 98,-41 146,-64 36,-18 119,-44 167,-44 116,0 144,15 194,17 22,3 28,1 44,12 57,3 279,61 347,85 21,7 114,50 116,9 1,-21 3,7 -1,-8 -7,-25 -65,-52 -87,-61 -35,-13 -94,-37 -132,-39 -5,-1 -13,-2 -18,-4 -2,-1 -7,-3 -8,-3l-8 -5c-123,-17 -244,-61 -369,-67 -29,-1 -21,-2 -40,-9 -29,-11 -45,6 -80,7 -61,2 -124,15 -176,17 -1,1 -3,1 -4,2l-16 6c-8,2 -16,3 -23,4 -26,2 -45,11 -71,17 -50,11 -25,2 -65,24 -37,21 -203,94 -239,116 -36,22 -70,44 -105,67 -39,26 -65,51 -100,78 -71,57 -243,189 -332,198 -7,-129 96,-248 146,-322 78,-115 128,-148 215,-251 19,-23 40,-40 60,-61 16,-18 35,-42 52,-63 65,-83 155,-158 244,-217 25,-17 41,-35 64,-51 29,-20 55,-23 55,-63 -84,5 -492,213 -556,258 -24,17 -43,19 -67,37 -184,142 -212,162 -358,348 -27,35 -57,81 -79,126 -25,51 -50,84 -76,128 -52,85 -126,335 -166,441 -24,64 -131,282 -37,296 46,7 109,-45 154,-39 15,52 -4,70 -26,101 -98,141 -20,40 -124,138 -167,158 -307,285 -432,479 -18,28 -111,132 -127,197 -3,14 -14,41 -13,51 1,21 18,34 41,25 10,-4 23,-24 33,-31 50,-40 123,-78 145,-108 8,-12 -11,-7 13,-11 1,29 0,8 -7,16l-47 135c-2,14 1,6 -3,16 -8,20 0,2 -7,11l-4 23c-3,19 -1,20 -13,33 -7,93 -93,284 -89,440 2,83 -17,168 -17,251 0,57 44,69 66,36 17,-26 17,-70 37,-95 7,103 -2,220 1,325 3,98 27,182 40,275 2,3 5,4 7,12 3,8 1,6 3,16 10,25 19,41 27,70 7,25 11,55 30,64 64,30 53,-84 58,-125 5,-51 19,-106 31,-157 15,-66 36,-79 65,-123 87,-6 164,90 175,153 10,55 -12,94 -17,139 -4,40 2,115 6,157 5,58 23,76 40,120 26,67 21,59 65,97 101,89 40,38 142,104 53,34 30,13 42,37 24,49 25,80 -2,130 -55,99 -113,102 -181,144 -18,11 -33,23 -50,33 -173,106 -122,100 -179,145l-133 108c-17,16 -24,26 -40,44 -13,15 -34,31 -14,51 20,20 113,-22 169,-32 111,-19 135,15 179,22l14 4c-1,18 1,2 -9,9 -11,15 -20,23 -35,42 -23,30 -249,207 -210,301 30,8 47,-9 66,-21 39,-24 149,-63 193,-71l13 -8c-3,27 -1,10 -9,16 -11,27 -28,55 -39,85 -9,23 -2,30 -12,50 -9,17 -19,12 -9,37 32,38 317,-112 440,-110 -2,12 -3,23 -7,36 -18,49 -12,-16 -20,91 -3,37 -26,95 -17,120 50,67 179,-60 248,-70l41 -2c29,-10 102,-25 135,-23 -22,36 -95,73 -113,107 -9,17 -9,21 -19,38 -20,35 -11,57 -20,84 -4,14 -11,21 -7,39 27,8 48,-8 74,-18 58,-22 170,-38 238,-54 133,-32 137,-27 270,-28l172 21c27,6 54,12 82,17 88,18 244,122 424,155 8,1 7,0 16,2 18,5 13,5 17,8 106,17 102,35 263,43 -28,34 -195,138 -243,163 -16,9 -32,10 -48,20l-13 8c-7,4 -6,2 -11,5 -13,8 -9,-1 -14,17 28,53 239,9 296,-2 640,-125 1313,-865 2026,-926 288,-25 578,58 866,315 250,223 380,478 431,462 5,-117 -11,-160 -30,-279 -41,-261 21,-282 29,-364l2 -9 5 -11 8 11 1 13c5,20 10,48 22,59 20,17 38,4 45,-16 25,-65 42,-195 58,-267 10,-43 27,-87 34,-126 3,-19 1,-20 12,-33l25 -103c23,47 -34,419 57,344 14,-11 22,-86 27,-110 15,-77 27,-151 46,-227 18,-74 59,-182 64,-204 3,-19 -2,-4 6,-25 0,0 7,-2 5,16 -2,28 -4,12 -8,18 1,30 -9,77 -10,113 -2,48 -1,75 53,67 58,-32 25,-433 109,-670 55,-153 143,-239 244,-342 27,-28 75,-74 102,-92 24,29 14,112 42,167 41,7 84,-61 106,-93 33,-49 100,-219 117,-281 4,-13 31,-145 39,-152 21,21 3,66 42,52 18,-9 14,-30 16,-63 1,-25 3,-49 3,-75 0,-52 1,-106 -1,-157 -2,-63 -12,-32 -11,-141 0,-49 -7,-102 -6,-147 -9,-12 -8,-16 -9,-35 -1,-13 -2,-27 -3,-40l-5 -52 -4 -9c-2,-16 -1,3 0,-10 29,1 4,-2 15,10 4,15 46,47 62,69 23,30 26,74 65,63 9,-26 -23,-114 -35,-146 -10,-27 -10,-51 -18,-76l-43 -146 -88 -190c-42,-78 -75,-170 -116,-256 -75,-159 -73,-77 -94,-278 -14,-129 -42,-341 -129,-436 -28,-31 -58,-58 -91,-92 -32,-32 -63,-57 -100,-89 -90,-76 -112,-105 -190,-182 -20,-20 -29,-24 -46,-48 -46,-63 -138,-128 -202,-170 -43,-28 -94,-77 -159,-123 -99,-70 -149,-107 -133,-223 7,-50 21,-48 73,-111 41,-50 42,-50 101,-88 44,-29 65,-53 98,-86 51,-50 168,-115 241,-136 46,-13 115,-19 155,-33 28,-10 37,-36 15,-55 -17,-14 -51,-10 -77,-10 -460,2 -514,103 -626,113 -3,2 1,4 -16,7 -5,1 -18,2 -22,2 -40,4 -43,12 -84,-1 -38,-12 -41,-5 -69,-30 10,-25 33,-17 30,-56 -46,-28 -160,-44 -224,-45 21,-24 76,-32 116,-37 30,-3 31,-10 57,-15 21,-4 39,-4 62,-11 5,-36 -22,-46 -48,-58 -89,-40 -172,-52 -274,-50 -147,2 -320,76 -354,61 2,-19 36,-88 50,-103 34,-34 68,-58 66,-82 -29,-10 -68,8 -96,15l-186 34c-80,19 -210,70 -251,80 -58,13 -120,31 -177,42 -88,16 -320,52 -401,21 -130,-50 -207,-268 -221,-207 -5,21 5,32 14,57l61 172c8,5 5,-8 10,16 -30,-6 -7,0 -17,-11 -81,-29 -224,-199 -282,-275 -31,-41 -64,-105 -85,-87 -27,35 3,123 10,164 7,12 -1,-11 7,12 2,7 3,13 4,20 11,55 47,115 55,155 8,6 5,-8 11,16 -26,-9 -7,0 -15,-14 -41,-38 -97,-139 -137,-189 -26,-33 -48,-60 -75,-92 -24,-29 -61,-90 -80,-73 -29,47 48,158 57,194 9,0 7,-2 7,6l9 13 -13 -8c-8,1 -5,2 -5,-7 -13,-3 -6,0 -20,-9l-106 -77c-22,-17 -36,-30 -56,-49 -17,-15 -34,-45 -59,-44 -4,21 38,119 40,161 10,10 5,-1 9,19 -23,-9 -3,1 -12,-12 -9,-3 -116,-116 -163,-153 -31,-24 -62,-45 -94,-69 -72,-54 -101,-100 -90,-10 5,43 13,109 9,150 6,8 5,-7 9,17 2,12 0,15 -2,25 -28,-3 -14,-4 -20,-8 -31,-18 -74,-34 -102,-51 -32,-19 -66,-43 -111,-42 -37,43 -1,72 1,139 -58,-4 -65,-18 -101,-43 -29,-20 -58,-37 -87,-54 -33,-19 -58,-35 -89,-53 -79,-45 -261,-64 -339,-85 -249,-67 -472,-84 -704,26 -137,65 -151,127 -213,211 -10,14 -53,69 -34,92l7 19z"/>
     <path class="fil55" d="M8914 2821l6 6 18 -3c7,-6 -11,-5 16,-8 -7,23 1,6 -13,13 -37,38 -64,56 -97,99 -18,24 -70,94 -70,131 36,-3 59,-30 90,-40 4,-5 2,-5 9,-9 7,-5 4,-2 13,-4 -10,20 2,8 -19,18l-102 109c-17,20 -72,109 -73,140 22,1 89,-44 110,-57 1,-1 3,-4 4,-3l6 6c-30,34 -57,56 -87,99 -22,32 -46,76 -67,116 -34,63 -91,199 -90,281 -1,7 -3,18 -3,24 1,28 2,15 8,21 4,-40 28,-131 40,-173 26,-88 90,-216 146,-283 42,-50 95,-85 88,-119 -38,-3 -81,36 -113,50 -6,8 10,5 -12,8l8 -11c13,-52 67,-106 98,-137 20,-20 36,-37 57,-58 12,-12 59,-39 40,-61 -27,-22 -102,45 -124,54l-4 7 -13 6 8 -10c0,-9 -2,-7 6,-7 6,-14 74,-104 88,-119 32,-36 98,-77 100,-112 -28,0 -55,13 -73,26l1 0z"/>
     <path class="fil12" d="M11524 6591c22,-2 18,1 19,-26 0,-58 7,-85 8,-121l-30 11c9,59 5,77 4,136l-1 0z"/>
     <path class="fil56" d="M12339 4587c11,-16 12,-51 12,-70l-4 8c-3,8 -1,-1 -3,9l-5 53z"/>
     <path class="fil57" d="M14140 4004c5,22 2,19 27,23 -7,-16 -8,-14 -27,-23z"/>
     <path class="fil58" d="M11400 2650c-1,-31 -2,-9 7,-18l-13 -19c-1,10 -3,11 -1,21 3,23 4,12 8,16l-1 0z"/>
     <path class="fil59" d="M11178 5928l-4 -5c-9,6 -4,-1 -12,11 -5,7 -2,5 -4,11 19,-5 12,1 20,-18l0 1z"/>
     <path class="fil60" d="M11350 4550l13 16c0,-8 1,-13 -1,-22 -3,-11 -4,-8 -7,-13l-5 19z"/>
     <path class="fil61" d="M10320 5024c6,11 -7,6 10,11l3 -35c-1,1 -2,3 -2,3l-11 21z"/>
     <path class="fil62" d="M13847 4170c4,7 5,16 15,13l4 0c-6,-15 -1,-10 -17,-19l-2 6z"/>
     <path class="fil63" d="M9715 3879c1,-1 2,-2 3,-3l15 -20c0,-2 2,-2 3,-3l-16 3 -4 24 -1 -1z"/>
     <path class="fil64" d="M7506 9211l3 5c19,-4 9,-3 14,-9l-7 -7c-9,7 -1,-7 -10,11z"/>
     <path class="fil65" d="M11745 2928c9,11 -13,5 17,11 -6,-24 -3,-10 -10,-16l-6 5 -1 0z"/>
     <path class="fil66" d="M11978 4794l14 2 -6 -18c-7,8 -5,-13 -8,16z"/>
     <path class="fil67" d="M10262 4130c7,5 -7,1 12,7 14,4 5,1 16,0l-6 -12c-6,11 1,7 -21,5l-1 0z"/>
     <path class="fil68" d="M10604 3961l7 9c12,0 9,3 9,-9 0,-9 2,-7 -5,-7 -6,11 7,9 -11,7z"/>
     <polygon class="fil69" points="13823,8476 13822,8464 13809,8463 13808,8472 "/>
     <path class="fil12" d="M11075 6450l12 15 4 -23c-8,9 -2,3 -16,9l0 -1z"/>
     <path class="fil70" d="M12040 5914c9,12 -11,6 12,11 3,-32 0,-9 -6,-18 -1,10 2,8 -7,7l1 0z"/>
     <path class="fil71" d="M11653 4690c1,1 3,1 4,3 7,18 -6,-6 9,6l-4 -21c-9,7 -5,-11 -8,12l-1 0z"/>
     <path class="fil72" d="M10451 3614c-6,-5 2,-4 -14,-9 -6,-2 -14,-2 -20,-3l8 5c1,1 6,3 8,3 5,2 13,3 18,4z"/>
     <path class="fil73" d="M12323 5033l1 8 12 0 0 -14c-7,5 -3,2 -14,6l1 0z"/>
     <path class="fil10" d="M11240 6579c10,8 -14,5 13,7 -3,-25 1,-6 -8,-13l-6 6 1 0z"/>
     <path class="fil10" d="M11203 7500c15,-18 -2,-9 18,-13l-14 -8 -5 22 1 -1z"/>
     <polygon class="fil74" points="10815,5118 10818,5115 10805,5093 10803,5100 "/>
     <path class="fil10" d="M8342 8162c10,-7 7,9 9,-9l-14 -4 6 13 -1 0z"/>
     <path class="fil10" d="M12280 7376c10,-4 4,8 10,-11l-10 -1 -3 9 3 2 0 1z"/>
     <path class="fil75" d="M10384 3955c-1,-14 -2,-7 5,-9l-12 -8c1,27 2,11 8,17l-1 0z"/>
     <path class="fil46" d="M11404 6493c5,-18 -1,-8 10,-19l-15 2 5 17z"/>
     <path class="fil76" d="M9533 4068c-12,0 -17,4 -17,-5 -9,9 -5,-11 -8,12l25 -6 0 -1z"/>
     <path class="fil77" d="M7477 8899c15,-2 1,2 15,-3 20,-7 3,-1 12,-7 -7,1 -9,1 -15,3 -13,5 -8,4 -12,7z"/>
     <path class="fil78" d="M11210 2762c0,9 -3,7 5,7l4 -4c0,-8 2,-6 -7,-6l-3 3 1 0z"/>
     <path class="fil79" d="M12879 4708l10 -7c-4,-7 -3,-1 -11,-5l1 12z"/>
     <path class="fil80" d="M13877 4194l-2 7 13 10c-4,-10 0,-3 -6,-10 0,-1 -2,-1 -3,-3 0,-2 -2,-2 -3,-3l1 -1z"/>
     <path class="fil81" d="M12272 4974l12 -1 -7 -10c-6,3 -1,3 -5,10l0 1z"/>
     <path class="fil82" d="M8065 8629c16,-8 5,10 12,-6l-13 -1 1 8 0 -1z"/>
     <path class="fil83" d="M10611 3970l15 5 -6 -14c0,12 3,9 -9,9z"/>
     <path class="fil84" d="M10349 4950l5 -15 -11 8c9,0 7,-2 6,8l0 -1z"/>
     <path class="fil85" d="M8799 3037c-7,1 -6,3 -5,-4l-8 10 13 -6z"/>
    </g>
   </g>
  </g>
 </g>
</svg>
