<?xml version="1.0" encoding="UTF-8"?>
<!DOCTYPE svg PUBLIC "-//W3C//DTD SVG 1.1//EN" "http://www.w3.org/Graphics/SVG/1.1/DTD/svg11.dtd">
<!-- Creator: CorelDRAW X6 -->
<svg xmlns="http://www.w3.org/2000/svg" xml:space="preserve" width="225.213mm" height="134.959mm" version="1.1" style="shape-rendering:geometricPrecision; text-rendering:geometricPrecision; image-rendering:optimizeQuality; fill-rule:evenodd; clip-rule:evenodd"
viewBox="0 0 22521 13496"
 xmlns:xlink="http://www.w3.org/1999/xlink">
 <defs>
  <style type="text/css">
   <![CDATA[
    .fil13 {fill:#2F0801}
    .fil14 {fill:#343912}
    .fil12 {fill:#36100A}
    .fil15 {fill:#43381E}
    .fil16 {fill:#4A4F23}
    .fil7 {fill:#531300}
    .fil11 {fill:#571502}
    .fil0 {fill:#575D27}
    .fil2 {fill:#614233}
    .fil6 {fill:#702C09}
    .fil10 {fill:#914E24}
    .fil3 {fill:#AB8B66}
    .fil8 {fill:#BA946D}
    .fil4 {fill:#C37109}
    .fil9 {fill:#CFD3C4}
    .fil5 {fill:#ED9B27}
    .fil1 {fill:#343912;fill-rule:nonzero}
   ]]>
  </style>
 </defs>
 <g id="Слой_x0020_1">
  <metadata id="CorelCorpID_0Corel-Layer"/>
  <g id="_917538960">
   <g id="_231431136">
    <rect class="fil0" x="17" width="22500" height="13500"/>
    <path class="fil1" d="M7881 11674c0,53 -12,98 -37,133 -28,40 -66,60 -115,60 -49,0 -87,-20 -115,-60 -25,-36 -37,-80 -37,-133 0,-53 12,-97 37,-133 28,-40 66,-60 115,-60 49,0 87,20 115,60 24,35 37,80 37,133zm-45 0c0,-39 -9,-74 -27,-103 -20,-33 -47,-50 -80,-50 -33,0 -60,16 -80,50 -18,30 -27,64 -27,103 0,39 9,74 27,104 20,33 47,50 80,50 33,0 60,-17 80,-50 18,-30 27,-64 27,-104zm561 78c0,32 -11,60 -34,83 -24,24 -52,36 -85,36 -49,0 -85,-22 -107,-65 -16,-32 -24,-73 -24,-123 0,-52 14,-97 43,-134 32,-41 75,-62 130,-62l46 0 0 42 -36 0c-47,0 -82,16 -106,49 -19,26 -30,59 -31,99 32,-22 62,-32 89,-32 30,0 57,9 79,28 24,21 36,47 36,79zm-43 -1c0,-20 -7,-36 -22,-48 -14,-11 -31,-17 -51,-17 -17,0 -33,5 -49,14 -16,9 -28,20 -35,33 1,24 9,45 23,63 16,21 36,31 59,31 21,0 39,-8 54,-23 14,-15 22,-33 22,-53l-1 0zm438 105l-47 0 0 -308 -39 36 -23 -24 65 -62 44 0 0 357 0 1zm713 -90c0,25 -10,48 -31,68 -23,22 -54,34 -91,34 -38,0 -68,-11 -91,-33 -20,-19 -31,-42 -31,-69 0,-25 9,-46 26,-65 9,-10 28,-24 57,-43 -46,-30 -70,-59 -70,-87 0,-30 11,-52 33,-68 19,-14 45,-21 76,-21 31,0 56,7 76,21 22,16 32,38 32,68 0,29 -23,58 -69,87 29,19 48,33 57,43 17,19 26,40 26,65zm-55 -195c0,-17 -7,-30 -22,-40 -13,-8 -27,-12 -45,-12 -17,0 -32,4 -45,12 -15,10 -22,23 -22,40 0,22 22,44 67,67 45,-23 67,-45 67,-67zm13 195c0,-29 -27,-58 -80,-87 -53,29 -80,58 -80,87 0,14 7,28 20,42 16,16 36,24 60,24 24,0 44,-8 60,-23 14,-13 20,-27 20,-42l0 -1zm743 17l-64 0 0 73 -44 0 0 -73 -177 0c18,-86 38,-183 59,-291l44 0c-8,51 -24,135 -47,250l122 0 0 -124 44 0 0 124 64 0 0 41 -1 0zm526 73l-47 0 0 -308 -39 36 -23 -24 65 -62 44 0 0 357 0 1zm587 -183c0,53 -12,98 -37,133 -28,40 -66,60 -115,60 -49,0 -87,-20 -115,-60 -25,-36 -37,-80 -37,-133 0,-53 12,-97 37,-133 28,-40 66,-60 115,-60 49,0 87,20 115,60 24,35 37,80 37,133zm-45 0c0,-39 -9,-74 -27,-103 -20,-33 -47,-50 -80,-50 -33,0 -60,16 -80,50 -18,30 -27,64 -27,103 0,39 9,74 27,104 20,33 47,50 80,50 33,0 60,-17 80,-50 18,-30 27,-64 27,-104zm759 0c0,53 -12,98 -37,133 -28,40 -66,60 -115,60 -49,0 -87,-20 -115,-60 -25,-36 -37,-80 -37,-133 0,-53 12,-97 37,-133 28,-40 66,-60 115,-60 49,0 87,20 115,60 24,35 37,80 37,133zm-45 0c0,-39 -9,-74 -27,-103 -20,-33 -47,-50 -80,-50 -33,0 -60,16 -80,50 -18,30 -27,64 -27,103 0,39 9,74 27,104 20,33 47,50 80,50 33,0 60,-17 80,-50 18,-30 27,-64 27,-104zm561 -4c0,52 -14,97 -42,135 -31,42 -71,63 -122,63 -23,0 -44,-2 -64,-6l0 -43c24,4 42,6 54,6 40,0 72,-15 95,-46 20,-27 31,-62 32,-104 -32,22 -62,33 -89,33 -34,0 -62,-11 -83,-32 -21,-22 -32,-49 -32,-83 0,-34 13,-61 38,-82 24,-19 52,-29 87,-29 43,0 76,22 99,65 18,34 27,75 27,123zm-50 -51c-1,-21 -9,-42 -23,-61 -15,-21 -33,-32 -53,-32 -21,0 -40,6 -55,17 -17,13 -26,29 -26,50 0,20 7,37 21,52 14,14 31,21 52,21 16,0 32,-5 48,-13 16,-9 28,-20 36,-33l0 -1zm620 55c0,53 -12,98 -37,133 -28,40 -66,60 -115,60 -49,0 -87,-20 -115,-60 -25,-36 -37,-80 -37,-133 0,-53 12,-97 37,-133 28,-40 66,-60 115,-60 49,0 87,20 115,60 24,35 37,80 37,133zm-45 0c0,-39 -9,-74 -27,-103 -20,-33 -47,-50 -80,-50 -33,0 -60,16 -80,50 -18,30 -27,64 -27,103 0,39 9,74 27,104 20,33 47,50 80,50 33,0 60,-17 80,-50 18,-30 27,-64 27,-104zm384 78c0,32 -11,60 -34,83 -24,24 -52,36 -85,36 -49,0 -85,-22 -107,-65 -16,-32 -24,-73 -24,-123 0,-52 14,-97 43,-134 32,-41 75,-62 130,-62l46 0 0 42 -36 0c-47,0 -82,16 -106,49 -19,26 -30,59 -31,99 32,-22 62,-32 89,-32 30,0 57,9 79,28 24,21 36,47 36,79zm-43 -1c0,-20 -7,-36 -22,-48 -14,-11 -31,-17 -51,-17 -17,0 -33,5 -49,14 -16,9 -28,20 -35,33 1,24 9,45 23,63 16,21 36,31 59,31 21,0 39,-8 54,-23 14,-15 22,-33 22,-53l-1 0zm563 -215c-24,28 -48,57 -73,85 -31,37 -54,69 -69,98 -20,39 -31,77 -31,114 0,9 1,16 2,23l-49 0c-1,-8 -2,-16 -2,-23 0,-39 9,-78 28,-117 14,-29 36,-61 64,-97 23,-28 46,-56 69,-83l-175 0 0 -44 235 0 0 44 1 0zm499 229c0,25 -10,48 -31,68 -23,22 -54,34 -91,34 -38,0 -68,-11 -91,-33 -20,-19 -31,-42 -31,-69 0,-25 9,-46 26,-65 9,-10 28,-24 57,-43 -46,-30 -70,-59 -70,-87 0,-30 11,-52 33,-68 19,-14 45,-21 76,-21 31,0 56,7 76,21 22,16 32,38 32,68 0,29 -23,58 -69,87 29,19 48,33 57,43 17,19 26,40 26,65zm-55 -195c0,-17 -7,-30 -22,-40 -13,-8 -27,-12 -45,-12 -17,0 -32,4 -45,12 -15,10 -22,23 -22,40 0,22 22,44 67,67 45,-23 67,-45 67,-67zm13 195c0,-29 -27,-58 -80,-87 -53,29 -80,58 -80,87 0,14 7,28 20,42 16,16 36,24 60,24 24,0 44,-8 60,-23 14,-13 20,-27 20,-42l0 -1z"/>
    <path class="fil2" d="M18275 1596c23,12 42,2 58,-16 35,-39 14,-15 54,-34 -23,-43 -40,-7 -53,15 -17,29 -36,22 -59,35z"/>
    <path class="fil3" d="M18338 1613c21,-4 45,-12 55,-27l-17 -15c-19,8 -30,25 -38,42z"/>
    <path class="fil4" d="M18073 5771l-1 1c-6,6 16,71 18,81 23,113 22,164 34,275 7,60 18,120 24,180 6,63 8,127 17,190 31,208 118,445 169,653 71,291 42,766 -270,906 -94,42 -192,82 -286,126 -102,47 -146,114 -211,200 -73,97 -118,128 -210,200 -108,84 -22,201 22,290 55,111 84,153 171,240 152,153 260,284 481,342 226,59 485,76 694,-46 95,-55 314,-332 391,-431 136,-172 212,-325 294,-528 116,-289 218,-690 231,-1003 5,-125 -8,-271 -9,-400 -1,-140 -14,-246 -28,-384 -12,-124 -54,-205 -90,-321 -63,-200 -132,-401 -241,-581 -108,-180 -248,-348 -257,-567 -6,-141 15,-208 -94,-315 -89,-87 -124,-113 -198,-220 -17,13 -67,156 -243,41 -53,-34 -82,-194 -108,-258 -19,-48 -81,-182 5,-195 32,-5 39,-8 65,-27 121,-89 -18,-219 -14,-257 45,-9 77,77 87,113 10,35 -19,182 63,145 79,-35 -34,-268 -73,-314 -181,-210 -557,-48 -453,184 115,259 100,337 284,584 154,207 309,229 491,377 88,72 109,193 133,297 16,69 6,122 28,191 21,64 43,89 73,145 51,96 118,177 146,285 33,123 41,240 -58,337 -94,93 -239,57 -342,27 -117,-34 -192,-72 -287,-149 -173,-140 -308,-240 -451,-415l3 1z"/>
    <path class="fil5" d="M19016 5143c-1,-108 3,-171 -93,-264 -89,-87 -124,-113 -198,-220 -17,13 -67,156 -243,41 -53,-34 -82,-194 -108,-258 -19,-48 -81,-182 5,-195 32,-5 39,-8 65,-27 121,-89 -18,-219 -14,-257 45,-9 77,77 87,113 10,35 -19,182 63,145 79,-35 -34,-268 -73,-314 -181,-210 -557,-48 -453,184 115,259 100,337 284,584 154,207 309,229 491,377 33,27 57,61 75,99 38,0 75,-3 111,-9l1 1z"/>
    <path class="fil6" d="M16713 2674c57,-16 93,-7 116,46 18,43 37,82 13,129 -44,87 -127,118 -223,95 -67,-16 -204,-72 -129,-162 36,-43 166,-93 222,-109l1 1zm585 5887c149,-82 181,-156 283,-277 113,-135 191,-146 340,-218 156,-75 227,-74 314,-244 76,-147 88,-311 80,-474 -7,-139 -64,-318 -102,-455 -41,-146 -91,-306 -103,-457 -7,-87 -14,-164 -27,-250 -13,-84 -15,-168 -27,-252 -15,-107 -79,-335 -124,-434 -66,-144 -139,-214 -176,-382 -79,-357 25,-413 -39,-768 -16,-88 -40,-127 -71,-208 -26,-68 -48,-140 -73,-206 -23,-59 -64,-127 -94,-185 -97,-194 -187,-195 -257,-301 -46,-69 -64,-121 -76,-204 -23,-160 18,-258 -161,-397 -116,-90 -190,-233 -173,-384 8,-74 53,-134 83,-201 -42,34 -125,105 -147,151 -20,43 -20,65 -74,73 -48,7 -75,-1 -118,29 -117,80 -189,214 -259,334 -67,115 -174,318 -4,397 211,98 415,-45 478,-51 100,-10 182,126 254,182 30,23 54,38 80,67 103,117 161,244 201,393 23,87 25,180 25,269 1,84 8,192 18,276 21,186 17,321 101,494 78,162 118,150 226,363 62,124 122,306 152,442 27,124 34,408 40,548 16,354 -16,503 -63,825 -16,111 -127,446 -180,556 -16,34 -38,64 -55,97 -37,68 -60,124 -102,193 -37,60 -88,117 -121,173 -29,49 -72,162 -77,218 -4,49 0,98 -2,147 -2,55 -8,81 32,123l-2 -2z"/>
    <path class="fil3" d="M16713 2674c8,-2 71,1 78,-1 -24,-12 -93,-98 -55,-234 -3,1 -60,47 -63,48 -48,7 -75,-1 -118,29 -117,80 -189,214 -259,334 -67,115 -174,318 -4,397 211,98 415,-45 478,-51 50,-5 96,27 138,67 3,-93 74,-70 83,-169 7,-81 -134,-220 -136,-291 -46,45 -163,158 -235,140 -67,-16 -204,-72 -129,-162 36,-43 166,-93 222,-109l0 2z"/>
    <path class="fil7" d="M18561 3426c-186,21 -213,235 -103,356 56,62 92,86 129,166 42,92 61,136 53,242 -14,184 -81,190 115,433 51,63 68,103 134,160 53,46 108,90 141,153 80,149 -17,242 100,489 57,119 153,249 222,367 129,221 212,570 251,632 37,58 95,127 170,120 179,-17 129,-319 145,-440 27,-207 56,-317 26,-534 -18,-132 -88,-326 -134,-455 -49,-136 -88,-303 -170,-419 -43,-61 -73,-120 -114,-180 -111,-161 -139,-162 -227,-361 -31,-70 -49,-144 -84,-210 -72,-133 -143,-233 -244,-345 -93,-103 -268,-190 -408,-174l-2 0z"/>
    <path class="fil2" d="M16800 8780c-171,28 -297,425 -367,564 -53,106 -105,194 -166,295 -51,85 -149,231 -135,330 13,99 136,197 218,245 204,119 532,177 758,93 82,-30 219,-158 44,-145 -127,9 -315,-95 -430,-147 -56,-25 -106,-49 -163,-70 -93,-33 -275,-89 -262,-195 8,-68 68,-101 131,-106 128,-9 245,64 358,110 106,43 269,92 359,-5 53,-57 38,-111 23,-179 -60,-271 -68,-264 -173,-522 -28,-69 -31,-116 -49,-184 -18,-67 -78,-94 -144,-84l-2 0z"/>
    <path class="fil8" d="M14663 10870l-1 -34c-88,46 -95,89 -129,83 -5,-26 1,-32 5,-56 -63,34 -129,169 -159,234 -62,135 -103,345 -21,474 26,41 49,79 85,113 73,68 213,87 306,63 52,-13 402,-117 423,-161 26,-57 -21,-100 -41,-149 -75,-187 -47,-317 12,-495 27,-82 58,-83 93,-104 -45,-26 -120,-6 -172,-8 -39,-2 -25,-9 -48,-20 -65,-31 -155,53 -199,37 -6,-34 8,-27 18,-57 -87,17 -126,90 -173,79l1 1z"/>
    <path class="fil6" d="M19179 11277c25,-19 61,27 74,48 21,34 14,78 10,116 69,11 201,-19 196,-109 -2,-33 -39,-67 -61,-90 -33,-35 -89,-26 -92,-61 82,-27 147,78 180,125 95,-29 5,-201 -70,-224 -88,-27 -230,-27 -328,-47 -267,-55 -266,-63 -218,-290 17,-82 62,-238 70,-303 7,-57 11,-110 23,-167 32,-155 144,-936 110,-1006 -101,-34 -143,162 -161,231 -94,360 -93,242 -142,659 -7,59 -6,124 -13,186 -8,70 -5,127 -10,194 -10,127 -13,255 -15,383 -1,64 -6,128 -4,193 2,84 -1,93 37,167 55,108 152,124 263,138 43,5 140,25 172,-7 16,-16 24,-55 17,-76 -11,-34 -42,-27 -38,-58l0 -2z"/>
    <path class="fil9" d="M17851 1840c-35,30 -22,44 -85,61 -23,6 -44,6 -66,11 -27,6 -30,18 -57,11 -18,-52 25,-69 52,-103 32,-40 69,-45 120,-37 -35,-35 -78,-100 -125,-111 -196,-44 -232,123 -181,232 17,37 35,41 21,86 -9,31 -16,62 -32,90 -30,54 -64,103 -70,167 -7,71 0,145 28,211 45,105 164,197 279,205 164,11 230,-28 318,-160 36,-53 62,-157 -38,-136 -28,6 -124,61 -198,15 -66,-41 -68,-106 -60,-176 10,-96 7,-112 -73,-163 -54,-34 -94,-104 46,-101 62,1 168,-11 122,-102l-1 0z"/>
    <path class="fil10" d="M17225 1809c9,22 58,28 -67,79 10,17 9,-4 12,23l-95 59c20,12 23,4 36,22 -11,22 -25,15 -42,31 -25,24 -62,110 -80,143 -35,65 -75,146 -74,222 1,71 38,159 104,191 98,48 170,-17 255,-6 5,26 -9,23 -19,48 35,-3 88,-30 119,-11 13,21 -19,53 -23,95 84,-35 177,-38 177,-83 0,-20 -42,-54 -56,-73 -18,-26 -34,-55 -46,-86 -40,-102 -40,-218 6,-320 10,-23 48,-65 31,-87 -29,-26 -72,49 -136,38 -56,-52 -15,-164 11,-223 50,-116 106,-145 115,-172 -38,-6 -79,36 -110,56 -22,14 -92,44 -119,54l1 0z"/>
    <path class="fil3" d="M17696 1616c24,34 98,6 125,46 40,59 -33,61 24,133 50,63 77,59 86,92 13,51 -27,87 -46,127 -58,119 136,139 206,138 31,0 134,-11 165,-16 43,-7 79,-39 105,-73 5,-6 65,-100 67,-105 23,-56 3,-105 1,-159 -2,-44 20,-112 -17,-143 -45,-38 -119,-2 -147,-20 -52,-33 -7,-79 -96,-81 -77,-2 -79,15 -141,36 -46,16 -306,-6 -329,24l-3 1z"/>
    <path class="fil6" d="M17894 1897c0,-78 -64,-142 -142,-142 -78,0 -142,64 -142,142 0,78 64,142 142,142 78,0 142,-64 142,-142z"/>
    <path class="fil10" d="M15586 10720c27,25 22,-2 60,55 36,52 94,158 122,213 92,180 319,334 527,365 90,13 315,4 316,-123 -40,-34 -100,-32 -150,-41 -52,-10 -104,-23 -152,-47 -233,-116 -381,-247 -507,-472 -37,-67 -32,-92 -33,-166 -41,32 -106,182 -184,217l1 -1z"/>
    <path class="fil7" d="M17244 2658c0,28 -51,119 -46,190 9,121 73,311 163,442 127,186 363,193 579,98 57,-25 153,-193 183,-241 -90,26 -143,73 -252,82 -89,7 -178,-46 -202,-132 -26,-94 67,-184 -42,-249 -67,-39 -95,-11 -158,-93 -21,-28 -12,-38 -6,-69 -79,8 -120,43 -131,32 -11,-13 -9,-43 -15,-62l-74 -11 1 13z"/>
    <path class="fil10" d="M15835 10418c144,-20 192,110 287,186 88,71 167,156 269,209 141,73 195,113 365,114 158,0 214,-106 236,-248 -66,14 -91,28 -165,30 -211,5 -279,-10 -459,-117 -110,-65 -275,-213 -330,-335 -11,-24 -14,-53 -23,-72 -16,16 -28,40 -41,59 -33,46 -103,118 -138,174l-1 0z"/>
    <path class="fil10" d="M15319 10849c46,104 45,186 57,298 13,125 53,149 109,246 38,66 111,143 181,174 59,26 243,77 281,6 -6,-31 -54,-52 -79,-76 -70,-66 -179,-178 -226,-256 -88,-146 -161,-235 -147,-408 2,-24 14,-37 18,-60 -63,20 -125,57 -192,76l-2 0z"/>
    <path class="fil11" d="M18704 3412c235,87 275,136 427,340 32,43 70,128 102,160 1,-50 -3,-103 -3,-154 0,-128 28,-273 -60,-386 -76,-99 -125,-30 -209,-5 -37,11 -87,20 -125,26 -43,7 -114,4 -133,18l1 1z"/>
    <path class="fil6" d="M18665 2715c-105,-21 -140,235 -115,338 20,80 26,97 78,161 58,71 68,75 162,82 31,2 77,9 93,-23 49,-97 -204,-92 -242,-352 -15,-104 13,-141 23,-206l1 0z"/>
    <path class="fil3" d="M18564 1846c-12,17 -13,55 -27,81 -17,32 -28,32 -55,51 -19,13 -41,33 -58,48 -30,28 -26,36 -47,65 -38,55 -73,62 -130,88 -20,9 -54,22 -69,37 -26,26 -16,63 27,57 72,-10 161,-10 198,-16 130,-23 123,-120 183,-252 17,-38 35,-161 -22,-160l0 1z"/>
    <path class="fil6" d="M18017 4027c1,-98 26,-138 105,-191 86,-57 144,-48 242,-53 -77,-85 -319,-39 -413,3 -50,22 -126,90 -97,152 16,35 50,37 83,45 43,10 58,40 81,44l-1 0z"/>
    <path class="fil10" d="M18984 2966c-61,33 -65,103 -46,168 8,26 19,59 47,70 26,10 85,10 111,2 148,-48 -51,-273 -111,-240l-1 0z"/>
    <path class="fil10" d="M19116 2946c12,-31 -22,-121 -34,-155 -9,-24 -68,-125 -92,-99 -27,29 14,126 30,156 12,24 26,39 38,63 13,25 29,45 58,34l0 1z"/>
    <path class="fil3" d="M18506 1919c60,-39 31,-236 -46,-247 -1,101 -30,90 9,200 10,29 6,37 38,46l-1 1z"/>
    <path class="fil2" d="M18261 1583c61,12 65,-46 68,-54 8,-20 10,-8 20,-23 -57,-10 -97,15 -88,77z"/>
    <path class="fil9" d="M17709 1876c31,23 44,13 78,4 -26,-28 -37,-14 -35,-69 -38,0 -46,33 -43,65z"/>
    <path class="fil12" d="M14663 10870c47,10 86,-62 173,-79 -10,30 -24,23 -18,57 44,16 134,-68 199,-37 24,11 9,18 48,20 52,2 127,-18 172,8 -35,21 -66,22 -93,104 -59,178 -87,308 -12,495 19,49 67,92 41,149 -21,45 -371,148 -423,161 -94,24 -234,5 -306,-63 -36,-34 -59,-72 -85,-113 -82,-129 -42,-339 21,-474 30,-65 96,-199 159,-234 -4,24 -10,30 -5,56 34,6 41,-37 129,-83l1 34 -1 -1zm657 -21c68,-18 130,-55 192,-76 -4,23 -16,36 -18,60 -14,173 59,262 147,408 47,78 156,190 226,256 26,24 73,45 79,76 -38,70 -222,20 -281,-6 -70,-31 -143,-108 -181,-174 -56,-97 -95,-121 -109,-246 -12,-112 -11,-195 -57,-298l2 0zm267 -129c79,-35 143,-185 184,-217 1,74 -4,99 33,166 126,225 274,356 507,472 48,24 99,37 152,47 50,10 111,8 150,41 -1,128 -226,137 -316,123 -208,-31 -435,-185 -527,-365 -28,-55 -86,-160 -122,-213 -38,-57 -33,-30 -60,-55l-1 1zm249 -302c35,-56 105,-128 138,-174 14,-19 25,-43 41,-59 9,19 12,48 23,72 55,122 220,269 330,335 180,107 248,122 459,117 74,-2 99,-16 165,-30 -22,142 -78,248 -236,248 -170,-1 -224,-41 -365,-114 -102,-53 -180,-138 -269,-209 -95,-76 -142,-207 -287,-186l1 0zm965 -1638c66,-11 126,16 144,84 18,69 21,115 49,184 105,258 113,251 173,522 15,68 30,122 -23,179 -90,97 -254,48 -359,5 -112,-46 -230,-119 -358,-110 -63,4 -123,38 -131,106 -13,107 169,162 262,195 58,21 108,45 163,70 115,51 303,156 430,147 175,-13 38,115 -44,145 -226,84 -554,26 -758,-93 -82,-48 -205,-145 -218,-245 -13,-100 84,-245 135,-330 61,-101 113,-189 166,-295 69,-139 196,-536 367,-564l2 0zm2380 2497c-4,31 27,24 38,58 7,21 -1,60 -17,76 -32,32 -129,12 -172,7 -111,-14 -208,-30 -263,-138 -38,-74 -36,-84 -37,-167 -1,-65 3,-128 4,-193 2,-128 4,-255 15,-383 5,-67 3,-123 10,-194 7,-62 6,-126 13,-186 49,-417 48,-300 142,-659 18,-68 60,-265 161,-231 34,70 -78,852 -110,1006 -12,57 -15,110 -23,167 -8,65 -53,222 -70,303 -48,227 -49,234 218,290 98,20 240,20 328,47 75,23 165,195 70,224 -33,-47 -98,-152 -180,-125 3,34 59,26 92,61 22,23 59,58 61,90 5,91 -127,121 -196,109 4,-38 10,-81 -10,-116 -13,-21 -49,-67 -74,-48l0 2zm-1106 -5506c143,175 278,276 451,415 95,77 170,115 287,149 104,30 248,66 342,-27 98,-97 90,-214 58,-337 -29,-108 -95,-189 -146,-285 -30,-56 -52,-82 -73,-145 -23,-69 -13,-122 -28,-191 -24,-104 -45,-225 -133,-297 -182,-148 -336,-170 -491,-377 -184,-247 -168,-325 -284,-584 -103,-232 273,-395 453,-184 39,45 151,279 73,314 -82,37 -53,-110 -63,-145 -10,-36 -42,-122 -87,-113 -4,38 135,168 14,257 -27,20 -33,22 -65,27 -86,13 -24,147 -5,195 26,64 55,224 108,258 176,115 225,-28 243,-41 74,107 109,133 198,220 109,108 88,175 94,315 9,219 149,387 257,567 109,180 178,381 241,581 36,116 78,196 90,321 13,138 27,244 28,384 1,129 14,275 9,400 -13,313 -114,714 -231,1003 -82,203 -158,356 -294,528 -78,98 -297,375 -391,431 -208,122 -467,105 -694,46 -221,-58 -329,-188 -481,-342 -87,-88 -117,-130 -171,-240 -44,-89 -130,-206 -22,-290 93,-72 137,-103 210,-200 65,-86 110,-152 211,-200 94,-44 192,-83 286,-126 312,-140 341,-615 270,-906 -51,-208 -138,-444 -169,-653 -9,-63 -11,-127 -17,-190 -6,-60 -17,-120 -24,-180 -12,-112 -11,-162 -34,-275 -2,-10 -24,-75 -18,-81l1 -1 -3 -1zm-56 -1744c-22,-4 -38,-35 -81,-44 -33,-7 -66,-10 -83,-45 -30,-63 47,-130 97,-152 95,-42 336,-88 413,-3 -98,5 -156,-4 -242,53 -79,52 -104,93 -105,191l1 0zm543 -601c141,-16 315,71 408,174 101,112 172,212 244,345 35,66 53,140 84,210 89,199 116,201 227,361 41,60 71,119 114,180 82,116 121,283 170,419 46,129 116,322 134,455 30,216 1,327 -26,534 -16,121 35,423 -145,440 -75,7 -134,-61 -170,-120 -39,-62 -122,-411 -251,-632 -69,-118 -166,-247 -222,-367 -117,-247 -20,-340 -100,-489 -34,-63 -89,-107 -141,-153 -66,-58 -83,-97 -134,-160 -195,-243 -129,-249 -115,-433 8,-106 -12,-150 -53,-242 -36,-80 -73,-104 -129,-166 -109,-121 -83,-335 103,-356l2 0zm144 -14c20,-14 90,-11 133,-18 38,-6 88,-16 125,-26 84,-24 132,-94 209,5 87,113 60,258 60,386 0,51 4,104 3,154 -32,-32 -70,-117 -102,-160 -152,-204 -192,-253 -427,-340l-1 -1zm280 -445c61,-33 260,192 111,240 -26,8 -86,8 -111,-2 -28,-10 -39,-43 -47,-70 -18,-64 -14,-135 46,-168l1 0zm132 -20c-29,11 -45,-9 -58,-34 -12,-24 -26,-40 -38,-63 -15,-30 -57,-128 -30,-156 25,-26 83,75 92,99 12,34 46,123 34,155l0 -1zm-450 -231c-10,65 -38,102 -23,206 37,259 291,255 242,352 -17,33 -63,26 -93,23 -94,-6 -105,-10 -162,-82 -51,-64 -58,-81 -78,-161 -26,-103 10,-359 115,-338l-1 0zm-1281 520c-88,-132 -54,-276 -63,-396 -5,-71 -62,-134 -61,-162l45 -2c6,19 4,49 15,62 12,11 51,-24 129,-32 -6,31 -15,42 6,69 62,81 90,53 156,93 108,64 15,154 41,249 24,87 111,139 199,132 107,-9 159,-56 248,-82 -29,48 -207,168 -263,192 -214,95 -328,64 -453,-122l1 -1zm-86 5326c-40,-42 -34,-68 -32,-123 2,-49 -2,-98 2,-147 5,-56 48,-169 77,-218 33,-56 84,-113 121,-173 42,-69 65,-124 102,-193 18,-33 39,-63 55,-97 53,-110 163,-445 180,-556 47,-322 79,-471 63,-825 -6,-140 -13,-424 -40,-548 -30,-135 -90,-318 -152,-442 -107,-213 -147,-201 -226,-363 -84,-173 -80,-308 -101,-494 -9,-84 -17,-191 -18,-276 -1,-89 -2,-182 -25,-269 -40,-149 -98,-276 -201,-393 -26,-29 -50,-44 -80,-67 -72,-55 -154,-192 -254,-182 -63,6 -267,150 -478,51 -170,-79 -63,-282 4,-397 70,-120 142,-254 259,-334 43,-30 70,-22 118,-29 54,-8 54,-30 74,-73 22,-47 105,-117 147,-151 -30,67 -75,127 -83,201 -16,150 58,294 173,384 178,139 138,237 161,397 12,82 30,134 76,204 70,106 160,107 257,301 29,58 70,126 94,185 26,66 47,138 73,206 31,80 55,119 71,208 64,356 -40,411 39,768 37,168 111,238 176,382 45,99 109,326 124,434 12,85 14,169 27,252 13,86 20,164 27,250 12,150 63,311 103,457 38,137 95,316 102,455 8,163 -4,327 -80,474 -88,171 -158,169 -314,244 -150,72 -227,83 -340,218 -102,121 -134,195 -283,277l2 2zm1265 -6715c57,-2 39,122 22,160 -61,132 -53,229 -183,252 -36,6 -125,6 -198,16 -43,6 -53,-31 -27,-57 15,-16 49,-28 69,-37 57,-26 93,-33 130,-88 20,-29 16,-38 47,-65 17,-16 40,-35 58,-48 27,-19 38,-19 55,-51 14,-25 15,-63 27,-81l0 -1zm-854 30c-3,-32 6,-64 43,-65 -2,56 8,41 35,69 -34,9 -46,19 -78,-4zm797 42c-31,-9 -27,-17 -38,-46 -38,-110 -10,-99 -9,-200 78,10 106,208 46,247l1 -1zm-655 -79c46,91 -60,103 -122,102 -140,-3 -99,67 -46,101 80,51 82,67 73,163 -7,71 -6,136 60,176 74,46 170,-9 198,-15 100,-21 74,83 38,136 -88,132 -154,171 -318,160 -114,-8 -234,-99 -279,-205 -28,-66 -34,-140 -28,-211 6,-65 40,-113 70,-167 15,-28 22,-60 32,-90 13,-45 -4,-50 -21,-86 -51,-108 -15,-276 181,-232 48,11 90,76 125,111 -51,-9 -88,-3 -120,37 -27,34 -70,51 -52,103 28,8 30,-5 57,-11 22,-5 44,-5 66,-11 63,-17 50,-31 85,-61l1 0zm-630 -31c27,-11 97,-40 119,-54 30,-20 71,-62 110,-56 -9,27 -66,56 -115,172 -25,59 -67,171 -11,223 63,11 107,-65 136,-38 17,21 -21,64 -31,87 -46,102 -46,218 -6,320 12,31 28,60 46,86 14,19 56,54 56,73 0,45 -93,48 -177,83 4,-42 36,-74 23,-95 -31,-18 -83,8 -119,11 10,-26 24,-22 19,-48 -85,-11 -157,53 -255,6 -66,-32 -103,-120 -104,-191 -1,-75 39,-157 74,-222 18,-33 55,-119 80,-143 17,-16 31,-9 42,-31 -13,-18 -17,-10 -36,-22l95 -59c-3,-28 -2,-7 -12,-23 125,-51 77,-57 67,-79l-1 0zm475 -193c23,-31 283,-9 329,-24 62,-21 64,-38 141,-36 90,2 44,47 96,81 28,18 102,-17 147,20 36,30 15,98 17,143 2,54 23,102 -1,159 -2,5 -62,99 -67,105 -26,33 -62,65 -105,73 -30,5 -134,16 -165,16 -70,1 -264,-19 -206,-138 19,-40 60,-76 46,-127 -9,-32 -36,-28 -86,-92 -57,-72 16,-74 -24,-133 -27,-40 -100,-12 -125,-46l3 -1zm642 -4c4,-10 11,-19 17,-27 9,-11 19,-17 34,-4l4 4c-10,15 -34,22 -55,27zm-63 -17c23,-14 42,-6 59,-35 12,-22 30,-58 53,-15 -12,-1 -19,-5 -54,34 -16,18 -35,28 -58,16zm-15 -13c-9,-62 31,-87 88,-77 -10,16 -12,4 -20,23 -4,8 -7,65 -68,54zm-1059 226c4,28 6,8 16,29l-88 45c4,28 1,6 12,26 -29,13 -92,40 -95,73l31 12c-84,84 -125,176 -201,259 -40,44 -79,66 -110,119 -115,196 -160,-32 -389,296 -58,84 -125,197 -165,290 -52,121 -73,247 66,313 110,52 265,47 376,-1 183,-80 162,-45 291,75 111,104 129,117 203,254 152,281 106,476 135,778 26,277 29,471 222,693 161,185 245,381 292,621 30,149 22,277 32,425 9,149 13,298 7,447 -6,139 -30,269 -50,405 -10,67 -15,130 -34,195 -233,832 -467,688 -853,1202 -151,201 -330,490 -409,733 -19,58 -30,119 -54,175 -45,107 -101,198 -161,296 -60,99 -113,194 -155,301 -129,330 -129,302 -342,572 -150,190 -122,231 -349,335 -74,34 -90,44 -174,33 -68,-9 -135,-11 -202,-19 -85,-10 -110,-19 -192,18 8,-21 23,-32 10,-47 -29,-29 -141,50 -173,67 10,-16 16,-17 15,-36 -40,-14 -111,50 -144,69 7,-28 18,-32 16,-63 -135,56 -219,242 -264,373 -52,152 -44,380 55,512 56,74 105,98 195,119 109,25 171,9 274,-22 77,-23 166,-48 239,-80 220,-95 326,-32 549,-12 97,9 214,7 311,-1 166,-14 313,-104 455,-184 103,-58 295,-177 375,-260 141,-147 161,-222 237,-403 32,-77 49,-159 76,-239 25,-75 60,-152 100,-220 53,-89 67,-107 147,-172 109,-89 137,0 159,91 19,82 34,188 44,272 30,274 67,518 191,768 31,63 91,155 89,223 -2,81 -68,186 16,256 95,79 339,143 462,177 81,23 156,54 239,76 88,23 181,34 272,49 91,15 194,36 286,32 95,-4 183,-7 214,-107 51,8 87,5 111,-47 38,-83 -9,-102 -8,-139 2,-56 9,-82 -38,-126 -70,-66 -307,-110 -400,-118 -87,-8 -187,7 -216,-135 117,1 331,39 442,4 50,-15 28,-29 81,-21 38,6 66,3 100,-11 65,-28 105,-47 114,-125 65,-34 78,-66 57,-143 -12,-44 -55,-101 -93,-125 -49,-31 -290,-47 -368,-63 -235,-48 -224,-42 -198,-205 28,-176 86,-349 122,-523 12,-57 37,-116 47,-170 10,-56 17,-130 25,-189l67 -583c10,-100 25,-268 75,-355 16,25 12,90 61,69 30,-32 29,-200 66,-253 7,22 45,147 84,98 11,-14 4,-49 4,-68 -1,-69 19,-167 41,-232 34,15 55,44 72,-23 11,-42 6,-80 20,-128 191,-644 345,-954 395,-1370 47,-388 -33,-764 15,-1185 7,-64 12,-129 8,-197 -10,-176 -56,-313 -111,-478 -94,-281 -166,-403 -178,-710 -4,-97 9,-192 6,-289 -6,-174 -29,-337 -89,-500 -40,-111 -142,-281 -234,-355 -131,-105 -187,-217 -212,-382 -20,-131 -61,-329 -195,-393 -66,-32 -170,-48 -228,6 -85,78 -156,52 -135,-67 14,-84 35,-163 45,-250 13,-106 1,-162 -26,-262 -12,-43 -7,-94 -19,-128 -12,-34 -46,-49 -63,-84 -20,-40 -13,-62 -46,-101 -23,-27 -54,-48 -82,-71 1,-27 19,-105 -69,-129 -42,-11 -51,0 -84,15 -17,8 -70,6 -96,10 -69,11 -89,38 -148,61 -12,5 -163,7 -193,9 -94,6 -91,-3 -193,17 -100,20 -216,67 -298,128 -39,29 -111,40 -138,75l-5 3z"/>
    <path class="fil13" d="M15099 10829c47,-3 103,-12 138,9 -35,21 -66,22 -93,104 -59,178 -87,308 -12,495 13,32 38,62 46,95 34,45 74,86 118,121 104,-3 198,27 336,39 97,9 214,7 311,-1 166,-14 313,-104 455,-184 103,-58 295,-177 375,-260 141,-147 161,-222 237,-403 23,-55 38,-112 55,-169 -24,3 -49,5 -74,8 -23,140 -79,244 -235,244 -170,-1 -224,-41 -365,-114 -102,-53 -180,-138 -269,-209 -95,-76 -142,-207 -287,-186 5,-8 11,-17 18,-26 -15,7 -31,13 -49,19 -8,11 -17,22 -26,33 -150,190 -122,231 -349,335 -74,34 -90,44 -174,33 -47,-6 -94,-9 -142,-13 -5,10 -10,20 -15,30l1 0zm1654 -120c67,-7 137,-15 205,-23 -43,11 -71,20 -131,22 -27,1 -52,1 -74,1zm-1433 140c68,-18 130,-55 192,-76 -4,23 -16,36 -18,60 -14,173 59,262 147,408 47,78 156,190 226,256 26,24 73,45 79,76 -38,70 -222,20 -281,-6 -70,-31 -143,-108 -181,-174 -56,-97 -95,-121 -109,-246 -12,-112 -11,-195 -57,-298l2 0zm267 -129c79,-35 143,-185 184,-217 1,74 -4,99 33,166 126,225 274,356 507,472 48,24 99,37 152,47 50,10 111,8 150,41 -1,128 -226,137 -316,123 -208,-31 -435,-185 -527,-365 -28,-55 -86,-160 -122,-213 -38,-57 -33,-30 -60,-55l-1 1z"/>
    <path class="fil12" d="M16713 2674c-56,15 -186,66 -222,109 -76,89 62,145 129,162 96,23 178,-7 223,-95 24,-47 5,-86 -13,-129 -23,-54 -59,-62 -116,-46l-1 -1z"/>
    <path class="fil1" d="M8205 8321c3,10 0,18 -10,23 -10,2 -18,-2 -23,-10l-310 -800 -3 -3c-2,0 -3,0 -4,-1 -1,-1 -2,-1 -4,-1 -8,0 -13,4 -13,13l0 742c0,17 -6,31 -18,43 -12,12 -26,18 -43,18 -17,0 -31,-6 -43,-18 -12,-12 -18,-26 -18,-43l0 -1473c0,-68 24,-125 71,-173 47,-47 105,-71 173,-71 68,0 125,24 173,71 47,47 71,105 71,173l0 475c0,56 -19,103 -58,142 -39,39 -86,58 -142,58 -54,0 -101,-19 -141,-58 -40,-39 -60,-86 -60,-142l0 -475c0,-12 6,-18 18,-18 12,0 18,6 18,18l0 475c0,46 16,85 48,117 32,32 71,48 117,48 46,0 85,-16 117,-48 32,-32 48,-71 48,-117l0 -475c0,-58 -20,-107 -61,-147 -41,-41 -90,-61 -147,-61 -58,0 -107,20 -147,61 -41,41 -61,90 -61,147l0 1473c0,17 8,25 25,25 17,0 25,-8 25,-25l0 -742c0,-14 5,-25 14,-34 9,-9 21,-14 34,-14 22,0 36,8 41,25l312 803 1 -1zm264 -922c-17,0 -31,-6 -43,-18 -12,-12 -18,-26 -18,-43l0 -528c0,-68 24,-125 71,-173 47,-47 105,-71 173,-71l229 0c12,0 18,6 18,18 0,12 -6,18 -18,18l-229 0c-58,0 -107,20 -147,61 -41,41 -61,90 -61,147l0 528c0,17 8,25 25,25l226 0c17,0 31,6 43,18 12,12 18,26 18,43 0,17 -6,31 -18,43 -12,12 -26,18 -43,18l-226 0c-17,0 -25,9 -25,28l0 587c0,58 20,107 61,147 41,41 90,61 147,61l229 0c12,0 18,6 18,18 0,12 -6,18 -18,18l-229 0c-68,0 -125,-24 -173,-71 -47,-47 -71,-105 -71,-173l0 -587c0,-19 6,-34 18,-46 12,-12 26,-18 43,-18l226 0c17,0 25,-8 25,-25 0,-17 -8,-25 -25,-25l-226 0zm1118 744c0,56 -20,103 -60,142 -40,39 -87,58 -141,58 -56,0 -103,-19 -142,-58 -39,-39 -58,-86 -58,-142l0 -676c0,-12 6,-18 18,-18 12,0 18,6 18,18l0 676c0,46 16,85 48,117 32,32 71,48 117,48 46,0 85,-16 117,-48 32,-32 48,-71 48,-117l0 -1334c0,-58 -20,-107 -61,-147 -41,-41 -90,-61 -147,-61l-183 0c-19,0 -28,8 -28,25l0 1699c0,12 -5,18 -15,18 -12,0 -18,-6 -18,-18l0 -1699c0,-17 6,-31 17,-43 11,-12 26,-18 44,-18l183 0c68,0 125,24 173,71 47,47 71,105 71,173l0 1334 -1 0zm927 -1577c68,0 125,24 173,71 47,47 71,105 71,173l0 475c0,56 -19,103 -58,142 -39,39 -86,58 -142,58 -54,0 -101,-19 -141,-58 -40,-39 -60,-86 -60,-142l0 -475c0,-12 6,-18 18,-18 12,0 18,6 18,18l0 475c0,46 16,85 48,117 32,32 71,48 117,48 46,0 85,-16 118,-48 33,-32 50,-71 50,-117l0 -475c0,-58 -20,-107 -61,-147 -41,-41 -91,-61 -150,-61 -58,0 -107,20 -147,61 -41,41 -61,90 -61,147l0 1516c0,12 -6,18 -18,18 -12,0 -18,-6 -18,-18l0 -1516c0,-68 24,-125 71,-173 47,-47 105,-71 173,-71l-1 0zm508 1778c-19,0 -33,-6 -44,-18 -11,-12 -17,-26 -17,-43l0 -1473c0,-68 24,-125 71,-173 47,-47 105,-71 173,-71 68,0 125,24 173,71 47,47 71,105 71,173l0 1516c0,12 -6,18 -18,18 -12,0 -18,-6 -18,-18l0 -1516c0,-58 -20,-107 -61,-147 -41,-41 -90,-61 -147,-61 -59,0 -109,20 -150,61 -41,41 -61,90 -61,147l0 1473c0,17 9,25 28,25 17,0 25,-8 25,-25l0 -772c0,-17 6,-31 18,-43 12,-12 26,-18 43,-18l191 0c12,0 18,6 18,18 0,12 -6,18 -18,18l-191 0c-17,0 -25,8 -25,25l0 772c0,17 -6,31 -18,43 -12,12 -26,18 -43,18zm1189 -1778c12,0 18,6 18,18l0 1712c0,14 -5,25 -14,34 -9,9 -21,14 -34,14 -10,0 -19,-3 -28,-10 -8,-7 -14,-15 -18,-25l-422 -1697c-2,-7 -6,-10 -13,-10 -8,0 -13,4 -13,13l0 1669c0,17 8,25 25,25 19,0 28,-8 28,-25l0 -815c0,-12 5,-18 15,-18 12,0 18,6 18,18l0 815c0,17 -6,31 -17,43 -11,12 -26,18 -44,18 -17,0 -31,-6 -43,-18 -12,-12 -18,-26 -18,-43l0 -1669c0,-14 5,-25 14,-34 9,-9 21,-14 34,-14 24,0 39,12 46,36l422 1699c2,5 6,8 13,8 8,0 13,-4 13,-13l0 -1712c0,-12 6,-18 18,-18l0 -1zm706 1577c0,56 -20,103 -60,142 -40,39 -87,58 -141,58 -56,0 -103,-19 -142,-58 -39,-39 -58,-86 -58,-142l0 -676c0,-12 6,-18 18,-18 12,0 18,6 18,18l0 676c0,46 16,85 48,117 32,32 71,48 117,48 46,0 85,-16 117,-48 32,-32 48,-71 48,-117l0 -1334c0,-58 -20,-107 -61,-147 -41,-41 -90,-61 -147,-61l-183 0c-19,0 -28,8 -28,25l0 1699c0,12 -5,18 -15,18 -12,0 -18,-6 -18,-18l0 -1699c0,-17 6,-31 17,-43 11,-12 26,-18 44,-18l183 0c68,0 125,24 173,71 47,47 71,105 71,173l0 1334 -1 0zm264 201c-19,0 -33,-6 -44,-18 -11,-12 -17,-26 -17,-43l0 -1473c0,-68 24,-125 71,-173 47,-47 105,-71 173,-71 68,0 125,24 173,71 47,47 71,105 71,173l0 1516c0,12 -6,18 -18,18 -12,0 -18,-6 -18,-18l0 -1516c0,-58 -20,-107 -61,-147 -41,-41 -90,-61 -147,-61 -59,0 -109,20 -150,61 -41,41 -61,90 -61,147l0 1473c0,17 9,25 28,25 17,0 25,-8 25,-25l0 -772c0,-17 6,-31 18,-43 12,-12 26,-18 43,-18l191 0c12,0 18,6 18,18 0,12 -6,18 -18,18l-191 0c-17,0 -25,8 -25,25l0 772c0,17 -6,31 -18,43 -12,12 -26,18 -43,18z"/>
    <path class="fil1" d="M8179 8313c3,10 0,18 -10,23 -10,2 -18,-2 -23,-10l-310 -800 -3 -3c-2,0 -3,0 -4,-1 -1,-1 -2,-1 -4,-1 -8,0 -13,4 -13,13l0 742c0,17 -6,31 -18,43 -12,12 -26,18 -43,18 -17,0 -31,-6 -43,-18 -12,-12 -18,-26 -18,-43l0 -1473c0,-68 24,-125 71,-173 47,-47 105,-71 173,-71 68,0 125,24 173,71 47,47 71,105 71,173l0 475c0,56 -19,103 -58,142 -39,39 -86,58 -142,58 -54,0 -101,-19 -141,-58 -40,-39 -60,-86 -60,-142l0 -475c0,-12 6,-18 18,-18 12,0 18,6 18,18l0 475c0,46 16,85 48,117 32,32 71,48 117,48 46,0 85,-16 117,-48 32,-32 48,-71 48,-117l0 -475c0,-58 -20,-107 -61,-147 -41,-41 -90,-61 -147,-61 -58,0 -107,20 -147,61 -41,41 -61,90 -61,147l0 1473c0,17 8,25 25,25 17,0 25,-8 25,-25l0 -742c0,-14 5,-25 14,-34 9,-9 21,-14 34,-14 22,0 36,8 41,25l312 803 1 -1zm264 -922c-17,0 -31,-6 -43,-18 -12,-12 -18,-26 -18,-43l0 -528c0,-68 24,-125 71,-173 47,-47 105,-71 173,-71l229 0c12,0 18,6 18,18 0,12 -6,18 -18,18l-229 0c-58,0 -107,20 -147,61 -41,41 -61,90 -61,147l0 528c0,17 8,25 25,25l226 0c17,0 31,6 43,18 12,12 18,26 18,43 0,17 -6,31 -18,43 -12,12 -26,18 -43,18l-226 0c-17,0 -25,9 -25,28l0 587c0,58 20,107 61,147 41,41 90,61 147,61l229 0c12,0 18,6 18,18 0,12 -6,18 -18,18l-229 0c-68,0 -125,-24 -173,-71 -47,-47 -71,-105 -71,-173l0 -587c0,-19 6,-34 18,-46 12,-12 26,-18 43,-18l226 0c17,0 25,-8 25,-25 0,-17 -8,-25 -25,-25l-226 0zm1118 744c0,56 -20,103 -60,142 -40,39 -87,58 -141,58 -56,0 -103,-19 -142,-58 -39,-39 -58,-86 -58,-142l0 -676c0,-12 6,-18 18,-18 12,0 18,6 18,18l0 676c0,46 16,85 48,117 32,32 71,48 117,48 46,0 85,-16 117,-48 32,-32 48,-71 48,-117l0 -1334c0,-58 -20,-107 -61,-147 -41,-41 -90,-61 -147,-61l-183 0c-19,0 -28,8 -28,25l0 1699c0,12 -5,18 -15,18 -12,0 -18,-6 -18,-18l0 -1699c0,-17 6,-31 17,-43 11,-12 26,-18 44,-18l183 0c68,0 125,24 173,71 47,47 71,105 71,173l0 1334 -1 0zm927 -1577c68,0 125,24 173,71 47,47 71,105 71,173l0 475c0,56 -19,103 -58,142 -39,39 -86,58 -142,58 -54,0 -101,-19 -141,-58 -40,-39 -60,-86 -60,-142l0 -475c0,-12 6,-18 18,-18 12,0 18,6 18,18l0 475c0,46 16,85 48,117 32,32 71,48 117,48 46,0 85,-16 118,-48 33,-32 50,-71 50,-117l0 -475c0,-58 -20,-107 -61,-147 -41,-41 -91,-61 -150,-61 -58,0 -107,20 -147,61 -41,41 -61,90 -61,147l0 1516c0,12 -6,18 -18,18 -12,0 -18,-6 -18,-18l0 -1516c0,-68 24,-125 71,-173 47,-47 105,-71 173,-71l-1 0zm508 1778c-19,0 -33,-6 -44,-18 -11,-12 -17,-26 -17,-43l0 -1473c0,-68 24,-125 71,-173 47,-47 105,-71 173,-71 68,0 125,24 173,71 47,47 71,105 71,173l0 1516c0,12 -6,18 -18,18 -12,0 -18,-6 -18,-18l0 -1516c0,-58 -20,-107 -61,-147 -41,-41 -90,-61 -147,-61 -59,0 -109,20 -150,61 -41,41 -61,90 -61,147l0 1473c0,17 9,25 28,25 17,0 25,-8 25,-25l0 -772c0,-17 6,-31 18,-43 12,-12 26,-18 43,-18l191 0c12,0 18,6 18,18 0,12 -6,18 -18,18l-191 0c-17,0 -25,8 -25,25l0 772c0,17 -6,31 -18,43 -12,12 -26,18 -43,18zm1189 -1778c12,0 18,6 18,18l0 1712c0,14 -5,25 -14,34 -9,9 -21,14 -34,14 -10,0 -19,-3 -28,-10 -8,-7 -14,-15 -18,-25l-422 -1697c-2,-7 -6,-10 -13,-10 -8,0 -13,4 -13,13l0 1669c0,17 8,25 25,25 19,0 28,-8 28,-25l0 -815c0,-12 5,-18 15,-18 12,0 18,6 18,18l0 815c0,17 -6,31 -17,43 -11,12 -26,18 -44,18 -17,0 -31,-6 -43,-18 -12,-12 -18,-26 -18,-43l0 -1669c0,-14 5,-25 14,-34 9,-9 21,-14 34,-14 24,0 39,12 46,36l422 1699c2,5 6,8 13,8 8,0 13,-4 13,-13l0 -1712c0,-12 6,-18 18,-18l0 -1zm706 1577c0,56 -20,103 -60,142 -40,39 -87,58 -141,58 -56,0 -103,-19 -142,-58 -39,-39 -58,-86 -58,-142l0 -676c0,-12 6,-18 18,-18 12,0 18,6 18,18l0 676c0,46 16,85 48,117 32,32 71,48 117,48 46,0 85,-16 117,-48 32,-32 48,-71 48,-117l0 -1334c0,-58 -20,-107 -61,-147 -41,-41 -90,-61 -147,-61l-183 0c-19,0 -28,8 -28,25l0 1699c0,12 -5,18 -15,18 -12,0 -18,-6 -18,-18l0 -1699c0,-17 6,-31 17,-43 11,-12 26,-18 44,-18l183 0c68,0 125,24 173,71 47,47 71,105 71,173l0 1334 -1 0zm264 201c-19,0 -33,-6 -44,-18 -11,-12 -17,-26 -17,-43l0 -1473c0,-68 24,-125 71,-173 47,-47 105,-71 173,-71 68,0 125,24 173,71 47,47 71,105 71,173l0 1516c0,12 -6,18 -18,18 -12,0 -18,-6 -18,-18l0 -1516c0,-58 -20,-107 -61,-147 -41,-41 -90,-61 -147,-61 -59,0 -109,20 -150,61 -41,41 -61,90 -61,147l0 1473c0,17 9,25 28,25 17,0 25,-8 25,-25l0 -772c0,-17 6,-31 18,-43 12,-12 26,-18 43,-18l191 0c12,0 18,6 18,18 0,12 -6,18 -18,18l-191 0c-17,0 -25,8 -25,25l0 772c0,17 -6,31 -18,43 -12,12 -26,18 -43,18z"/>
    <polygon class="fil14" points="7712,8340 7826,8340 7826,11883 7712,11883 "/>
    <polygon class="fil14" points="8139,8340 8223,8340 8223,11883 8139,11883 "/>
    <polygon class="fil14" points="8254,8340 8338,8340 8338,11883 8254,11883 "/>
    <polygon class="fil14" points="8377,8340 8461,8340 8461,11883 8377,11883 "/>
    <polygon class="fil14" points="8589,8340 8801,8340 8801,11883 8589,11883 "/>
    <polygon class="fil14" points="8836,8328 8899,8328 8899,11903 8836,11903 "/>
    <polygon class="fil14" points="9079,8340 9132,8340 9132,11883 9079,11883 "/>
    <polygon class="fil14" points="9242,8340 9295,8340 9295,11883 9242,11883 "/>
    <polygon class="fil14" points="9361,8340 9414,8340 9414,11883 9361,11883 "/>
    <polygon class="fil14" points="9449,8340 9661,8340 9661,11883 9449,11883 "/>
    <polygon class="fil14" points="9687,8340 9771,8340 9771,11883 9687,11883 "/>
    <polygon class="fil14" points="9996,8340 10049,8340 10049,11883 9996,11883 "/>
    <polygon class="fil14" points="10247,8335 10300,8335 10300,11879 10247,11879 "/>
    <polygon class="fil14" points="10909,8340 10992,8340 10992,11883 10909,11883 "/>
    <polygon class="fil14" points="11023,8340 11107,8340 11107,11883 11023,11883 "/>
    <polygon class="fil14" points="10578,8340 10631,8340 10631,11883 10578,11883 "/>
    <polygon class="fil14" points="10697,8340 10750,8340 10750,11883 10697,11883 "/>
    <polygon class="fil14" points="10781,8340 10834,8340 10834,11883 10781,11883 "/>
    <polygon class="fil14" points="11630,8290 11683,8290 11683,11875 11630,11875 "/>
    <polygon class="fil14" points="11722,8290 11775,8290 11775,11875 11722,11875 "/>
    <polygon class="fil14" points="12406,8290 12459,8290 12459,11875 12406,11875 "/>
    <path class="fil15" d="M20927 1l-852 201c0,0 559,221 1237,196 604,-23 1104,-128 1202,-245l0 -85c-17,-22 -46,-45 -86,-68l-1502 0 1 1z"/>
    <path class="fil16" d="M21504 447l-1008 744c0,0 601,-16 1215,-306 335,-158 621,-329 803,-471l0 -337c-237,-3 -638,96 -1010,370z"/>
    <path class="fil15" d="M21957 1301l-906 1358c0,0 729,-286 1353,-912 38,-38 74,-75 110,-113l0 -936c-192,150 -389,351 -558,604l1 -1z"/>
    <path class="fil16" d="M21755 1209l-726 1462c0,0 687,-376 1226,-1077 93,-121 180,-241 259,-357l0 -765 -25 -157c-246,182 -531,485 -735,895l1 -1z"/>
    <path class="fil16" d="M20680 1l-618 224c0,0 581,155 1252,52 440,-68 818,-174 1021,-276l-1654 0 -1 0z"/>
   </g>
  </g>
 </g>
</svg>
