<?xml version="1.0" encoding="UTF-8"?>
<!DOCTYPE svg PUBLIC "-//W3C//DTD SVG 1.1//EN" "http://www.w3.org/Graphics/SVG/1.1/DTD/svg11.dtd">
<!-- Creator: CorelDRAW X6 -->
<svg xmlns="http://www.w3.org/2000/svg" xml:space="preserve" width="225.213mm" height="134.959mm" version="1.1" style="shape-rendering:geometricPrecision; text-rendering:geometricPrecision; image-rendering:optimizeQuality; fill-rule:evenodd; clip-rule:evenodd"
viewBox="0 0 22521 13496"
 xmlns:xlink="http://www.w3.org/1999/xlink">
 <defs>
  <style type="text/css">
   <![CDATA[
    .fil6 {fill:#36100A}
    .fil1 {fill:#43381E}
    .fil0 {fill:#4A4F23}
    .fil10 {fill:#575D27}
    .fil4 {fill:#614233}
    .fil2 {fill:#702C09}
    .fil3 {fill:#914E24}
    .fil9 {fill:#AB8B66}
    .fil7 {fill:#C37109}
    .fil8 {fill:#CFD3C4}
    .fil5 {fill:#43381E;fill-rule:nonzero}
   ]]>
  </style>
 </defs>
 <g id="Слой_x0020_1">
  <metadata id="CorelCorpID_0Corel-Layer"/>
  <g id="_917718128">
   <g id="_818327136">
    <rect class="fil0" x="22" y="2" width="22500" height="13500"/>
    <path class="fil1" d="M10210 11094l-642 70c0,0 108,-166 360,-335 252,-169 461,-316 548,-260 87,56 83,487 -266,525z"/>
    <path class="fil2" d="M5455 10862c-334,-90 -796,108 -1066,6 -66,-25 -94,-38 -95,-138 -1,-35 49,-92 148,-147 124,-70 514,-26 599,-188 12,-23 -61,35 -57,2 3,-26 31,-123 30,-155 -3,-68 3,-179 7,-251 4,-78 87,-129 73,-178 -9,-31 -99,79 -97,43 3,-58 160,-195 152,-239 -6,-32 -119,68 -121,35 -9,-131 35,-274 145,-447 92,-144 168,-270 218,-430 66,-213 439,-796 624,-892 426,-220 557,-707 786,-715 603,-22 922,104 1214,673 134,260 169,295 335,515 225,297 -154,1071 -449,1201 -4,2 -455,552 -534,600 -468,288 -645,725 -1167,280 -110,-94 -53,-631 -12,-738 58,-151 389,-720 -15,-720 -38,66 -59,137 -133,277 -248,468 -352,782 -343,1326 2,121 -107,316 -243,280l1 0z"/>
    <path class="fil3" d="M11007 8048l33 13c-241,0 -261,35 -423,179 -301,267 -48,873 218,873 172,0 326,-9 349,-74 21,-60 -84,-167 -84,-347 0,-452 594,-645 -93,-645l0 1z"/>
    <path class="fil4" d="M10082 8108c18,19 -257,93 -148,506 87,330 382,454 409,492 9,13 409,45 304,-59 -1,-1 -263,-273 -262,-310 6,-213 66,-442 266,-548 49,-26 410,-110 121,-174 -114,-25 -630,-13 -652,92 -3,16 -27,3 -38,0l0 1z"/>
    <path class="fil3" d="M3528 8438c12,16 -23,254 7,166 37,-13 23,99 23,135 0,230 29,-34 43,129 6,63 -17,134 36,170 41,27 15,80 54,138 35,52 49,95 58,156 5,33 148,183 251,297 54,60 88,121 105,128 25,11 98,74 153,78 177,13 109,-82 178,-119 57,-31 81,45 179,-39 58,-50 68,-86 83,-128 16,-45 39,-103 9,-185 -55,-150 -129,-82 -127,-115 1,-10 12,-23 41,-45 40,-30 -86,-90 -117,-170 -48,-121 -272,-183 -376,-234 -232,-113 -183,-274 -531,-373 0,0 -101,-29 -69,11z"/>
    <path class="fil5" d="M4914 3201c3,10 0,18 -10,23 -10,2 -18,-2 -23,-10l-310 -800 -3 -3c-2,0 -3,0 -4,-1 -1,-1 -2,-1 -4,-1 -8,0 -13,4 -13,13l0 742c0,17 -6,31 -18,43 -12,12 -26,18 -43,18 -17,0 -31,-6 -43,-18 -12,-12 -18,-26 -18,-43l0 -1473c0,-68 24,-125 71,-173 47,-47 105,-71 173,-71 68,0 125,24 173,71 47,47 71,105 71,173l0 475c0,56 -19,103 -58,142 -39,39 -86,58 -142,58 -54,0 -101,-19 -141,-58 -40,-39 -60,-86 -60,-142l0 -475c0,-12 6,-18 18,-18 12,0 18,6 18,18l0 475c0,46 16,85 48,117 32,32 71,48 117,48 46,0 85,-16 117,-48 32,-32 48,-71 48,-117l0 -475c0,-58 -20,-107 -61,-147 -41,-41 -90,-61 -147,-61 -58,0 -107,20 -147,61 -41,41 -61,90 -61,147l0 1473c0,17 8,25 25,25 17,0 25,-8 25,-25l0 -742c0,-14 5,-25 14,-34 9,-9 21,-14 34,-14 22,0 36,8 41,25l312 803 1 -1zm264 -922c-17,0 -31,-6 -43,-18 -12,-12 -18,-26 -18,-43l0 -528c0,-68 24,-125 71,-173 47,-47 105,-71 173,-71l229 0c12,0 18,6 18,18 0,12 -6,18 -18,18l-229 0c-58,0 -107,20 -147,61 -41,41 -61,90 -61,147l0 528c0,17 8,25 25,25l226 0c17,0 31,6 43,18 12,12 18,26 18,43 0,17 -6,31 -18,43 -12,12 -26,18 -43,18l-226 0c-17,0 -25,9 -25,28l0 587c0,58 20,107 61,147 41,41 90,61 147,61l229 0c12,0 18,6 18,18 0,12 -6,18 -18,18l-229 0c-68,0 -125,-24 -173,-71 -47,-47 -71,-105 -71,-173l0 -587c0,-19 6,-34 18,-46 12,-12 26,-18 43,-18l226 0c17,0 25,-8 25,-25 0,-17 -8,-25 -25,-25l-226 0zm1118 744c0,56 -20,103 -60,142 -40,39 -87,58 -141,58 -56,0 -103,-19 -142,-58 -39,-39 -58,-86 -58,-142l0 -676c0,-12 6,-18 18,-18 12,0 18,6 18,18l0 676c0,46 16,85 48,117 32,32 71,48 117,48 46,0 85,-16 117,-48 32,-32 48,-71 48,-117l0 -1333c0,-58 -20,-107 -61,-147 -41,-41 -90,-61 -147,-61l-183 0c-19,0 -28,8 -28,25l0 1699c0,12 -5,18 -15,18 -12,0 -18,-6 -18,-18l0 -1699c0,-17 6,-31 17,-43 11,-12 26,-18 44,-18l183 0c68,0 125,24 173,71 47,47 71,105 71,173l0 1333 -1 0zm927 -1577c68,0 125,24 173,71 47,47 71,105 71,173l0 475c0,56 -19,103 -58,142 -39,39 -86,58 -142,58 -54,0 -101,-19 -141,-58 -40,-39 -60,-86 -60,-142l0 -475c0,-12 6,-18 18,-18 12,0 18,6 18,18l0 475c0,46 16,85 48,117 32,32 71,48 117,48 46,0 85,-16 118,-48 33,-32 50,-71 50,-117l0 -475c0,-58 -20,-107 -61,-147 -41,-41 -91,-61 -150,-61 -58,0 -107,20 -147,61 -41,41 -61,90 -61,147l0 1516c0,12 -6,18 -18,18 -12,0 -18,-6 -18,-18l0 -1516c0,-68 24,-125 71,-173 47,-47 105,-71 173,-71l-1 0zm508 1778c-19,0 -33,-6 -44,-18 -11,-12 -17,-26 -17,-43l0 -1473c0,-68 24,-125 71,-173 47,-47 105,-71 173,-71 68,0 125,24 173,71 47,47 71,105 71,173l0 1516c0,12 -6,18 -18,18 -12,0 -18,-6 -18,-18l0 -1516c0,-58 -20,-107 -61,-147 -41,-41 -90,-61 -147,-61 -59,0 -109,20 -150,61 -41,41 -61,90 -61,147l0 1473c0,17 9,25 28,25 17,0 25,-8 25,-25l0 -772c0,-17 6,-31 18,-43 12,-12 26,-18 43,-18l191 0c12,0 18,6 18,18 0,12 -6,18 -18,18l-191 0c-17,0 -25,8 -25,25l0 772c0,17 -6,31 -18,43 -12,12 -26,18 -43,18zm1189 -1778c12,0 18,6 18,18l0 1712c0,14 -5,25 -14,34 -9,9 -21,14 -34,14 -10,0 -19,-3 -28,-10 -8,-7 -14,-15 -18,-25l-422 -1697c-2,-7 -6,-10 -13,-10 -8,0 -13,4 -13,13l0 1669c0,17 8,25 25,25 19,0 28,-8 28,-25l0 -815c0,-12 5,-18 15,-18 12,0 18,6 18,18l0 815c0,17 -6,31 -17,43 -11,12 -26,18 -44,18 -17,0 -31,-6 -43,-18 -12,-12 -18,-26 -18,-43l0 -1669c0,-14 5,-25 14,-34 9,-9 21,-14 34,-14 24,0 39,12 46,36l422 1699c2,5 6,8 13,8 8,0 13,-4 13,-13l0 -1712c0,-12 6,-18 18,-18l0 -1zm706 1577c0,56 -20,103 -60,142 -40,39 -87,58 -141,58 -56,0 -103,-19 -142,-58 -39,-39 -58,-86 -58,-142l0 -676c0,-12 6,-18 18,-18 12,0 18,6 18,18l0 676c0,46 16,85 48,117 32,32 71,48 117,48 46,0 85,-16 117,-48 32,-32 48,-71 48,-117l0 -1333c0,-58 -20,-107 -61,-147 -41,-41 -90,-61 -147,-61l-183 0c-19,0 -28,8 -28,25l0 1699c0,12 -5,18 -15,18 -12,0 -18,-6 -18,-18l0 -1699c0,-17 6,-31 17,-43 11,-12 26,-18 44,-18l183 0c68,0 125,24 173,71 47,47 71,105 71,173l0 1333 -1 0zm264 201c-19,0 -33,-6 -44,-18 -11,-12 -17,-26 -17,-43l0 -1473c0,-68 24,-125 71,-173 47,-47 105,-71 173,-71 68,0 125,24 173,71 47,47 71,105 71,173l0 1516c0,12 -6,18 -18,18 -12,0 -18,-6 -18,-18l0 -1516c0,-58 -20,-107 -61,-147 -41,-41 -90,-61 -147,-61 -59,0 -109,20 -150,61 -41,41 -61,90 -61,147l0 1473c0,17 9,25 28,25 17,0 25,-8 25,-25l0 -772c0,-17 6,-31 18,-43 12,-12 26,-18 43,-18l191 0c12,0 18,6 18,18 0,12 -6,18 -18,18l-191 0c-17,0 -25,8 -25,25l0 772c0,17 -6,31 -18,43 -12,12 -26,18 -43,18z"/>
    <path class="fil5" d="M4888 3192c3,10 0,18 -10,23 -10,2 -18,-2 -23,-10l-310 -800 -3 -3c-2,0 -3,0 -4,-1 -1,-1 -2,-1 -4,-1 -8,0 -13,4 -13,13l0 742c0,17 -6,31 -18,43 -12,12 -26,18 -43,18 -17,0 -31,-6 -43,-18 -12,-12 -18,-26 -18,-43l0 -1473c0,-68 24,-125 71,-173 47,-47 105,-71 173,-71 68,0 125,24 173,71 47,47 71,105 71,173l0 475c0,56 -19,103 -58,142 -39,39 -86,58 -142,58 -54,0 -101,-19 -141,-58 -40,-39 -60,-86 -60,-142l0 -475c0,-12 6,-18 18,-18 12,0 18,6 18,18l0 475c0,46 16,85 48,117 32,32 71,48 117,48 46,0 85,-16 117,-48 32,-32 48,-71 48,-117l0 -475c0,-58 -20,-107 -61,-147 -41,-41 -90,-61 -147,-61 -58,0 -107,20 -147,61 -41,41 -61,90 -61,147l0 1473c0,17 8,25 25,25 17,0 25,-8 25,-25l0 -742c0,-14 5,-25 14,-34 9,-9 21,-14 34,-14 22,0 36,8 41,25l312 803 1 -1zm264 -922c-17,0 -31,-6 -43,-18 -12,-12 -18,-26 -18,-43l0 -528c0,-68 24,-125 71,-173 47,-47 105,-71 173,-71l229 0c12,0 18,6 18,18 0,12 -6,18 -18,18l-229 0c-58,0 -107,20 -147,61 -41,41 -61,90 -61,147l0 528c0,17 8,25 25,25l226 0c17,0 31,6 43,18 12,12 18,26 18,43 0,17 -6,31 -18,43 -12,12 -26,18 -43,18l-226 0c-17,0 -25,9 -25,28l0 587c0,58 20,107 61,147 41,41 90,61 147,61l229 0c12,0 18,6 18,18 0,12 -6,18 -18,18l-229 0c-68,0 -125,-24 -173,-71 -47,-47 -71,-105 -71,-173l0 -587c0,-19 6,-34 18,-46 12,-12 26,-18 43,-18l226 0c17,0 25,-8 25,-25 0,-17 -8,-25 -25,-25l-226 0zm1118 744c0,56 -20,103 -60,142 -40,39 -87,58 -141,58 -56,0 -103,-19 -142,-58 -39,-39 -58,-86 -58,-142l0 -676c0,-12 6,-18 18,-18 12,0 18,6 18,18l0 676c0,46 16,85 48,117 32,32 71,48 117,48 46,0 85,-16 117,-48 32,-32 48,-71 48,-117l0 -1334c0,-58 -20,-107 -61,-147 -41,-41 -90,-61 -147,-61l-183 0c-19,0 -28,8 -28,25l0 1699c0,12 -5,18 -15,18 -12,0 -18,-6 -18,-18l0 -1699c0,-17 6,-31 17,-43 11,-12 26,-18 44,-18l183 0c68,0 125,24 173,71 47,47 71,105 71,173l0 1334 -1 0zm927 -1577c68,0 125,24 173,71 47,47 71,105 71,173l0 475c0,56 -19,103 -58,142 -39,39 -86,58 -142,58 -54,0 -101,-19 -141,-58 -40,-39 -60,-86 -60,-142l0 -475c0,-12 6,-18 18,-18 12,0 18,6 18,18l0 475c0,46 16,85 48,117 32,32 71,48 117,48 46,0 85,-16 118,-48 33,-32 50,-71 50,-117l0 -475c0,-58 -20,-107 -61,-147 -41,-41 -91,-61 -150,-61 -58,0 -107,20 -147,61 -41,41 -61,90 -61,147l0 1516c0,12 -6,18 -18,18 -12,0 -18,-6 -18,-18l0 -1516c0,-68 24,-125 71,-173 47,-47 105,-71 173,-71l-1 0zm508 1778c-19,0 -33,-6 -44,-18 -11,-12 -17,-26 -17,-43l0 -1473c0,-68 24,-125 71,-173 47,-47 105,-71 173,-71 68,0 125,24 173,71 47,47 71,105 71,173l0 1516c0,12 -6,18 -18,18 -12,0 -18,-6 -18,-18l0 -1516c0,-58 -20,-107 -61,-147 -41,-41 -90,-61 -147,-61 -59,0 -109,20 -150,61 -41,41 -61,90 -61,147l0 1473c0,17 9,25 28,25 17,0 25,-8 25,-25l0 -772c0,-17 6,-31 18,-43 12,-12 26,-18 43,-18l191 0c12,0 18,6 18,18 0,12 -6,18 -18,18l-191 0c-17,0 -25,8 -25,25l0 772c0,17 -6,31 -18,43 -12,12 -26,18 -43,18zm1189 -1778c12,0 18,6 18,18l0 1712c0,14 -5,25 -14,34 -9,9 -21,14 -34,14 -10,0 -19,-3 -28,-10 -8,-7 -14,-15 -18,-25l-422 -1697c-2,-7 -6,-10 -13,-10 -8,0 -13,4 -13,13l0 1669c0,17 8,25 25,25 19,0 28,-8 28,-25l0 -815c0,-12 5,-18 15,-18 12,0 18,6 18,18l0 815c0,17 -6,31 -17,43 -11,12 -26,18 -44,18 -17,0 -31,-6 -43,-18 -12,-12 -18,-26 -18,-43l0 -1669c0,-14 5,-25 14,-34 9,-9 21,-14 34,-14 24,0 39,12 46,36l422 1699c2,5 6,8 13,8 8,0 13,-4 13,-13l0 -1712c0,-12 6,-18 18,-18l0 -1zm706 1577c0,56 -20,103 -60,142 -40,39 -87,58 -141,58 -56,0 -103,-19 -142,-58 -39,-39 -58,-86 -58,-142l0 -676c0,-12 6,-18 18,-18 12,0 18,6 18,18l0 676c0,46 16,85 48,117 32,32 71,48 117,48 46,0 85,-16 117,-48 32,-32 48,-71 48,-117l0 -1334c0,-58 -20,-107 -61,-147 -41,-41 -90,-61 -147,-61l-183 0c-19,0 -28,8 -28,25l0 1699c0,12 -5,18 -15,18 -12,0 -18,-6 -18,-18l0 -1699c0,-17 6,-31 17,-43 11,-12 26,-18 44,-18l183 0c68,0 125,24 173,71 47,47 71,105 71,173l0 1334 -1 0zm264 201c-19,0 -33,-6 -44,-18 -11,-12 -17,-26 -17,-43l0 -1473c0,-68 24,-125 71,-173 47,-47 105,-71 173,-71 68,0 125,24 173,71 47,47 71,105 71,173l0 1516c0,12 -6,18 -18,18 -12,0 -18,-6 -18,-18l0 -1516c0,-58 -20,-107 -61,-147 -41,-41 -90,-61 -147,-61 -59,0 -109,20 -150,61 -41,41 -61,90 -61,147l0 1473c0,17 9,25 28,25 17,0 25,-8 25,-25l0 -772c0,-17 6,-31 18,-43 12,-12 26,-18 43,-18l191 0c12,0 18,6 18,18 0,12 -6,18 -18,18l-191 0c-17,0 -25,8 -25,25l0 772c0,17 -6,31 -18,43 -12,12 -26,18 -43,18z"/>
    <polygon class="fil1" points="4420,3213 4535,3213 4535,6537 4420,6537 "/>
    <polygon class="fil1" points="4848,3213 4932,3213 4932,6273 4848,6273 "/>
    <polygon class="fil1" points="4963,3213 5046,3213 5046,6273 4963,6273 "/>
    <polygon class="fil1" points="5086,3213 5170,3213 5170,6273 5086,6273 "/>
    <polygon class="fil1" points="5298,3213 5509,3213 5509,6273 5298,6273 "/>
    <polygon class="fil1" points="5544,3203 5608,3203 5608,6291 5544,6291 "/>
    <polygon class="fil1" points="5787,3213 5840,3213 5840,6273 5787,6273 "/>
    <polygon class="fil1" points="5950,3213 6003,3213 6003,6273 5950,6273 "/>
    <polygon class="fil1" points="6070,3213 6122,3213 6122,6273 6070,6273 "/>
    <polygon class="fil1" points="6158,3213 6369,3213 6369,6273 6158,6273 "/>
    <polygon class="fil1" points="6396,3213 6480,3213 6480,6273 6396,6273 "/>
    <polygon class="fil1" points="6705,3213 6757,3213 6757,6273 6705,6273 "/>
    <polygon class="fil1" points="6955,3209 7008,3209 7008,6269 6955,6269 "/>
    <polygon class="fil1" points="7617,3213 7701,3213 7701,6273 7617,6273 "/>
    <polygon class="fil1" points="7732,3213 7816,3213 7816,6273 7732,6273 "/>
    <polygon class="fil1" points="7287,3213 7340,3213 7340,6273 7287,6273 "/>
    <polygon class="fil1" points="7406,3213 7459,3213 7459,6273 7406,6273 "/>
    <polygon class="fil1" points="8338,3170 8391,3170 8391,7816 8338,7816 "/>
    <polygon class="fil1" points="8431,3170 8484,3170 8484,7816 8431,7816 "/>
    <polygon class="fil1" points="9114,3170 9167,3170 9167,7816 9114,7816 "/>
    <path class="fil1" d="M7190 6023c60,34 64,34 140,53 106,26 455,61 508,87 -24,6 -93,19 -107,32 6,22 70,33 112,45 21,7 101,27 119,42 -29,0 -66,-4 -91,3 6,18 23,18 55,25 42,9 122,29 158,50 13,8 14,11 22,18 -25,2 -70,-14 -91,-3 7,23 70,33 125,81 18,16 36,30 57,47 25,20 12,3 21,32 8,25 49,61 70,88 16,21 28,36 45,58 63,82 93,79 111,95 -3,-9 -38,-35 -56,-52l-157 -193c13,8 10,12 29,11 -1,-19 -27,-30 -43,-43 -42,-32 -83,-74 -129,-96l-29 -18 69 7c0,-37 -51,-53 -85,-66 -45,-17 -103,-24 -121,-36 22,0 87,10 100,1 -12,-26 -237,-75 -276,-96l127 -31c-7,-22 -145,-37 -166,-41 -57,-11 -126,-23 -181,-29 -63,-7 -206,-25 -264,-47 -22,-8 -55,-34 -71,-28l-1 4z"/>
    <polygon class="fil1" points="7489,3213 7542,3213 7542,6273 7489,6273 "/>
    <path class="fil6" d="M4688 6825c-12,-28 -6,-84 -28,-101 -15,11 -22,82 -31,106 -35,-42 -36,-109 -54,-120 -17,23 29,102 43,150 6,22 -2,11 11,21 16,-9 7,-6 17,-52l15 -54c4,25 6,68 26,84 25,-10 26,-75 58,-122 4,40 -5,114 6,143 18,-10 13,-72 13,-102 0,-23 4,-58 -9,-76 -26,7 -44,86 -67,124l0 -1z"/>
    <path class="fil7" d="M5128 6876l106 -13c-152,0 -279,-12 -426,-36 -84,-14 -179,-61 -278,-39 -148,33 -510,-5 -631,70 -2,1 339,-370 541,-352 122,11 335,-231 561,-262 35,-5 245,-252 159,-74 -1,-3 336,-197 288,-134 -77,101 -140,136 109,8 61,-31 272,-108 346,-108 -28,7 -107,60 -105,87 1,10 219,-73 248,-76 61,-7 623,-32 840,31 335,96 701,47 979,255 226,170 202,82 394,358 8,11 271,286 317,343 109,134 181,133 258,336 127,335 297,170 297,645 0,185 -232,518 -448,589 -232,76 -383,276 -495,183 -71,-59 -102,-349 -204,-496 -281,-405 -690,-884 -1201,-931 -91,-8 -168,-36 -235,-180 -39,-82 -483,-391 -634,-391 -186,0 -212,51 -373,134 -91,47 -314,29 -411,55l-2 -2z"/>
    <path class="fil2" d="M3569 7627c-286,20 -110,-182 -58,-310 30,-74 173,-98 245,-286 93,-244 568,-219 554,-278 -19,-85 103,80 60,21 -21,-29 -10,-42 -1,-37 9,6 26,15 47,25 8,4 2,-40 10,-36 19,9 37,39 60,50 9,4 8,-25 16,-20 19,12 39,23 59,33 7,4 -8,-45 -2,-40 42,34 25,-23 39,-16 10,6 27,35 39,39 13,5 20,-15 28,-7 23,22 22,48 24,25 3,-37 8,-52 34,-48 8,1 13,-29 24,-26 8,3 -2,27 8,29 7,2 11,57 18,59 14,4 98,-32 115,-29 7,1 13,11 19,12 18,4 43,-63 57,-60 12,3 1,70 5,80 5,11 53,-46 79,-50 26,-4 -24,61 4,63 15,1 58,-58 75,-55 17,3 -80,118 -64,123 9,2 46,-28 89,-43 55,-20 120,-26 133,-22 12,4 -62,50 -50,54 25,9 196,-22 223,-12 15,6 -42,-3 -28,3 24,11 109,25 135,37 18,8 -46,19 -29,28 13,7 56,8 71,14 30,12 -26,6 0,21 18,10 42,1 66,14 13,7 27,15 41,24 61,39 104,128 123,155 45,65 254,210 215,378 -147,632 -493,898 -1056,1136 -90,38 -420,86 -493,38 -185,-121 -180,93 -442,-137 -97,-85 -173,-250 -285,-290 -51,-19 -209,-66 -243,-181 -39,-133 52,-342 91,-466 8,-26 -26,-13 -55,-11l0 -1z"/>
    <path class="fil8" d="M4214 7517c-19,-2 -22,-23 -29,-14 -3,4 -4,27 -16,28 -10,1 -31,-22 -37,-19 -13,6 -2,30 -18,34 -8,2 -25,3 -39,8 -10,4 -18,12 -26,13 -21,3 -29,-6 -38,11 -3,6 10,31 6,38 -7,10 -32,2 -32,13 0,4 20,30 19,35 -1,6 -42,12 -43,17 -3,14 34,29 38,42 2,6 -32,13 -31,19 1,11 27,16 36,27 4,5 -16,18 -15,24 2,9 33,1 39,9 6,7 16,11 22,5 25,-25 51,-143 129,-152 85,-10 95,-27 128,-13 11,5 12,23 38,33 12,4 73,84 88,89 53,19 40,-98 0,-133 -36,-32 -38,-51 -92,-97 -23,-20 -46,1 -76,-14 -24,-12 -32,0 -55,-3l4 0z"/>
    <path class="fil9" d="M4416 8634c-14,30 -192,-28 -192,-271 0,-283 66,-274 277,-370 68,-31 126,-12 233,12 32,7 63,-46 98,-36 165,44 356,171 427,232 97,85 -205,448 -358,477 -83,16 -256,81 -392,25 -40,-16 -74,8 -127,-81l34 13 0 -1z"/>
    <path class="fil8" d="M5116 7466c19,-2 34,6 40,15 5,6 2,13 15,19 38,18 110,6 137,58 10,19 -1,41 4,65 11,57 21,123 -16,168 -30,36 -61,-145 -158,-156 -85,-10 -69,-8 -102,6 -11,5 -38,4 -64,14 -12,4 -73,84 -88,89 -53,19 -35,-92 -7,-137 26,-40 32,-16 86,-61 43,-36 103,-73 153,-78l0 -2z"/>
    <path class="fil8" d="M5361 8193c-6,24 -185,222 -192,235 -27,47 -283,205 -300,262 -5,17 54,-9 97,-2 87,13 261,-21 288,-38 74,-43 25,-108 54,-175 8,-18 49,-75 69,-88 13,-8 25,-27 35,-52 2,-5 -15,-8 -13,-14 3,-11 -2,-19 1,-31 2,-9 37,-20 39,-29 3,-9 -33,-6 -32,-16 2,-13 25,-21 27,-34 11,-64 0,-131 -31,-139 -11,-3 -21,9 -25,34 -8,49 -1,18 -18,85l1 2z"/>
    <path class="fil4" d="M4576 8446c36,-74 81,-113 204,-59 26,11 57,49 79,83 25,39 36,74 -31,87 -159,31 -121,23 -272,16 -9,0 -31,-33 -19,-75 7,-24 30,-33 39,-52z"/>
    <path class="fil9" d="M3234 7164l-19 -79c170,-84 393,-96 574,-72 25,9 69,-7 17,49 -23,25 -61,94 -89,225 -13,62 -28,372 -57,464 -11,37 -17,363 -49,364 -16,0 5,-136 -15,-171 -13,-24 -51,98 -68,78 -16,-19 8,-153 -5,-185 -12,-30 -45,3 -62,-1 -23,-5 -75,38 -152,21l64 -153 -22 -31 -32 -7 29 -192 -114 -309 0 -1z"/>
    <path class="fil6" d="M4721 8695c8,-22 48,-99 88,-99 5,8 5,5 5,23 21,-13 26,-8 30,-39 -52,1 -98,28 -109,72 -12,46 -12,15 -13,42l-1 1z"/>
    <path class="fil6" d="M4212 7946c-1,-25 -7,-26 -1,-58 -21,7 -20,8 -15,29 5,21 3,18 16,29z"/>
    <path class="fil6" d="M4644 8219l-5 -6c-1,-2 -4,-7 -5,-9 -11,-16 3,-8 -14,-12l-10 27c-7,-11 -8,-14 -21,-19 -9,24 8,5 1,51 -3,21 3,8 3,38l-20 -7c-2,18 4,21 7,39l-28 -11 14 29 26 -12 -5 -23c6,-3 7,2 16,-13 5,-8 -4,-1 5,-9 0,0 2,-1 2,-1l5 -2c1,0 2,-1 3,-1l-16 -50c35,18 11,8 31,-3 4,14 4,20 19,25l7 -27c15,46 14,1 31,32 3,5 5,11 9,18 25,0 27,-6 38,-20l-4 44 19 5 1 31c8,4 10,3 17,3 8,0 -3,0 9,0l12 0c10,19 11,34 34,39 -1,-4 -22,-38 -25,-43 -14,-22 1,-1 -17,-14l-19 -20 3 -37c-13,4 -11,7 -21,22l10 -56c-24,8 -17,12 -33,26 6,-20 18,-32 8,-51 -25,13 -17,34 -30,55l-14 -77c-22,11 -2,16 -19,38 -3,-14 -9,-40 -22,-46l1 49 -3 -2z"/>
    <path class="fil9" d="M11422 8176c39,5 92,-10 121,1 1,22 -3,23 -20,30 -13,6 -21,9 -35,14 -13,5 -22,8 -36,14 -17,7 -26,8 -30,23 25,6 60,2 78,16 5,43 -104,56 -123,92 32,3 73,-6 99,4 0,45 -69,44 -130,86 34,6 55,-1 74,20 17,41 -111,73 -119,122 -5,28 6,16 13,36 10,32 -25,44 -36,62 29,34 40,16 49,31 9,47 -28,59 -48,87 -20,29 4,21 35,80 27,52 83,120 119,156 27,26 54,26 80,56 9,10 18,27 32,36 22,13 68,-1 141,67 6,6 61,66 64,71 -12,-38 -27,-74 -25,-124 3,-78 9,-60 73,-79 1,-1 1,-4 1,-4l8 -29c9,-17 56,-32 81,-55 -2,-1 -3,-3 -9,-5 -5,-2 -5,-2 -10,-4 -77,-31 43,-85 64,-104l-6 -4c-22,-10 -77,-10 -33,-75 25,-37 10,-17 8,-57 -3,-65 54,-95 109,-118 23,-10 22,-19 48,-29 25,-10 37,-8 52,-24 -9,-24 -27,-42 2,-67 21,-17 48,-19 68,-31 88,-54 -6,-24 136,-63 -1,-1 -3,-3 -3,-2 -1,1 -2,-2 -3,-2 -10,-6 0,-1 -10,-5l-140 -49c-28,-10 -50,-16 -83,-21 -40,-6 -66,-2 -56,-42 -44,-12 -105,-28 -144,-46 -17,-8 -53,-18 -68,-26 -30,-16 2,-27 -54,-45 -40,-13 -214,-33 -260,-19 -12,4 -62,19 -72,25l-2 0z"/>
    <path class="fil3" d="M12452 8521l73 33c-106,0 -422,371 -340,550 93,203 179,216 349,315 141,82 273,-93 358,-169 44,-40 18,-459 -76,-542 -84,-74 43,-108 -268,-140 -49,-5 -67,-43 -96,-46l0 -1z"/>
    <path class="fil4" d="M9117 7848c61,239 -426,782 -910,805 -309,15 -429,320 145,519 82,29 519,-83 613,-110 -1,-5 -221,-190 226,-143 37,4 946,509 703,-78 -57,-137 -44,-485 104,-621 146,-134 -121,-99 -215,-249 -7,-12 -598,-212 -655,-133 -14,19 -27,-52 -11,11l0 -1z"/>
    <path class="fil6" d="M6223 9386c-17,51 -56,112 -84,154 -20,29 -92,116 -81,152 33,11 99,-42 125,-63 16,-13 19,-23 37,-32 2,51 -39,133 -56,176 -16,39 -55,134 -53,178 22,-11 4,-11 44,-45 1,54 -40,111 -54,156 -8,26 -9,66 -17,87 -9,21 -24,46 -36,72 -12,24 -69,113 -87,125 -14,9 -17,9 -29,20 -21,20 -73,65 -107,44 -9,-8 -4,0 -8,-13 0,0 -3,-18 -3,-18 -2,-13 -4,-26 -6,-40 1,-1 3,-2 4,-1l11 -3c35,-14 11,-66 24,-120 53,18 21,-4 36,-99 14,-90 33,-337 71,-397 14,15 2,16 28,17 6,-24 4,-70 5,-100 2,-62 36,-197 51,-258 16,-68 31,-96 54,-153 10,-26 20,-48 27,-77 7,-27 26,-52 51,-56 32,27 12,69 10,111 -1,36 -2,34 -14,64 -17,43 -23,72 -48,105 -9,11 -31,33 -33,44 -17,71 121,-21 138,-28l0 -2zm5054 -690c11,-18 46,-30 36,-62 -6,-20 -17,-8 -13,-36 8,-49 136,-81 119,-122 -19,-21 -40,-14 -74,-20 61,-42 130,-41 130,-86 -26,-10 -67,-1 -99,-4 19,-35 128,-48 123,-92 -18,-14 -53,-10 -78,-16 4,-14 13,-16 30,-23 14,-6 23,-9 36,-14 15,-5 23,-8 35,-14 17,-8 21,-8 20,-30 -29,-11 -83,4 -121,-1 10,-6 60,-21 72,-25 46,-14 220,6 260,19 56,18 24,29 54,45 15,8 51,19 68,26 39,17 101,33 144,46 -9,40 17,35 56,42 32,5 55,11 83,21l140 49c10,4 0,-1 10,5 1,0 3,3 3,2 1,-1 2,2 3,2 -143,39 -48,9 -136,63 -20,12 -47,14 -68,31 -29,25 -11,43 -2,67 -15,16 -27,14 -52,24 -25,10 -25,19 -48,29 -55,24 -113,53 -109,118 2,40 17,20 -8,57 -44,65 11,65 33,75l6 4c-21,19 -141,72 -64,104 5,2 5,2 10,4 6,3 7,4 9,5 -25,23 -72,38 -81,55l-8 29c0,-1 -1,3 -1,4 -63,19 -70,1 -73,79 -2,50 12,85 25,124 -3,-5 -57,-65 -64,-71 -72,-68 -119,-53 -141,-67 -14,-8 -23,-26 -32,-36 -26,-29 -52,-29 -80,-56 -37,-35 -92,-103 -119,-156 -31,-59 -56,-50 -35,-80 19,-28 57,-40 48,-87 -9,-15 -20,2 -49,-31l2 0zm-1538 -86l-36 3c-17,47 23,103 26,150 -36,15 -40,22 -22,63 8,19 29,52 39,63 -5,3 1,0 -9,3 -9,3 -5,-1 -13,4 -27,18 6,55 18,71 10,14 54,70 54,82 -59,6 -90,-6 -135,-24 -50,-21 -93,-1 -145,-22 -69,-29 -92,-27 -126,-41 -33,-13 -45,-51 -94,-72 -38,-16 -81,-26 -120,-43 -75,-32 -146,-117 -239,-92 -52,14 -19,86 -11,121 -30,-7 -106,-58 -129,-40 -30,24 11,99 17,130 -20,-7 -25,-22 -45,-8 -20,23 60,75 84,119 -121,-10 -261,18 -377,51 -35,10 -78,34 -112,14 6,-54 117,-129 35,-193 -21,-16 -43,-16 -71,-24 -16,-23 -14,-35 3,-51 15,-13 32,-24 50,-36 31,-21 82,-49 73,-98 -60,-56 -189,47 -250,10 10,-23 30,-41 8,-78 -26,-43 -81,2 -153,25 -34,11 -46,20 -71,37 -22,14 -44,25 -64,40 -45,33 -69,68 -113,103 -105,82 -73,94 -135,185 -15,22 -30,39 -46,62 -48,65 -100,104 -146,174 -15,23 -33,34 -53,55 -15,16 -44,33 -31,67 43,16 102,-45 135,-54 35,16 31,32 24,74 -17,99 -185,247 -269,313 -21,16 -39,45 -55,62 -19,20 -48,34 -43,74 42,6 55,-9 77,-27 40,-32 144,-135 185,-140 4,61 -36,70 -61,115 -7,13 -18,52 -15,69 3,24 25,24 44,45 18,45 -135,173 -166,199 -34,29 -71,49 -107,78 -15,12 -36,30 -50,40 -60,45 -134,57 -211,68 -104,16 -400,90 -473,77 -76,-14 -186,-88 -198,-170 -20,-129 -12,-198 24,-324 15,-52 12,-105 26,-160 12,-48 28,-103 38,-148 11,-55 20,-98 35,-149 15,-53 19,-102 31,-153 11,-47 28,-92 39,-141 20,-82 46,-251 -13,-316 -24,-26 -81,-57 -133,-50 -82,10 -186,73 -216,153l-66 208c-7,41 -11,37 -28,67 -35,62 -37,139 -72,203 -46,85 -31,18 -95,184 -20,51 -24,91 -41,144 -7,23 -15,45 -21,69 -22,96 21,17 -45,140 -48,89 -91,120 -115,165 -10,18 -14,48 -23,68 -10,23 -25,42 -20,68 23,7 24,2 45,-4 -12,46 -43,90 -62,130 -57,117 -34,63 -90,104 -18,13 -37,28 -49,45 -21,30 -20,22 -37,62 -18,46 -26,117 -5,167 11,26 28,33 44,50 24,26 27,21 63,36 68,29 178,15 251,-6 26,-8 59,-8 89,-11 73,-7 95,-3 183,-14 59,-8 120,-6 180,-14 164,-21 378,-41 541,-48 56,-2 115,-18 171,-23 180,-16 357,-42 540,-52 124,-7 253,-6 375,-15 60,-4 130,-2 188,-9 304,-35 612,-45 918,-63 125,-7 253,-10 377,-15 124,-5 247,-17 369,-23 125,-6 250,-14 374,-17 63,-2 126,-3 188,-8 29,-3 61,-5 92,-6 23,0 78,7 89,-10 -27,-18 -667,9 -751,13 -122,7 -244,16 -366,21 -124,6 -250,8 -374,15 -124,7 -248,8 -372,17 -118,9 -242,20 -362,23 -125,3 -250,9 -374,14 -120,5 -253,21 -371,20 6,-13 2,-5 10,-16 4,-5 5,-7 10,-13 33,-47 73,-84 99,-135 51,-95 -6,-13 70,-115l75 -114c68,-92 139,-165 193,-276 30,-62 97,-113 127,-202 1,-4 5,-14 6,-16 2,-4 3,-5 6,-9 7,-8 0,-2 9,-8 8,28 23,61 35,91 11,26 18,81 32,98l17 1c24,-30 22,-289 50,-358 19,31 10,87 21,121 38,9 33,-33 41,-92 16,-118 21,-176 88,-273 9,-13 22,-29 28,-40 -1,29 -26,118 -4,140 26,16 39,-59 58,-89 54,-85 175,-161 266,-207 99,-50 178,-32 268,-26 56,4 70,27 117,41 35,11 87,36 117,22 10,-36 -10,-39 -7,-66 54,-2 101,7 153,15 23,4 94,20 115,14 16,-4 12,-11 23,-21 55,12 105,29 162,39 89,15 107,7 147,-48 79,-1 45,9 86,33 60,35 269,10 335,11 83,1 35,5 103,-17 87,-28 108,-17 193,15 32,12 81,25 60,-28 50,-4 95,16 148,13 41,-2 98,-27 141,-6 20,10 35,18 59,23 38,8 44,1 66,-12 36,-20 264,-33 305,-23 12,3 20,9 30,11 23,5 67,6 111,16 63,14 72,12 117,45 39,28 124,123 116,8 32,10 59,37 76,57l155 170c12,13 20,24 32,36 28,29 42,38 70,61 37,31 86,138 145,113 33,-14 31,-63 29,-108 30,17 86,89 104,123 12,22 8,38 36,41 32,-6 41,-101 43,-108 12,-5 21,10 29,18l138 151c72,80 96,44 71,-53 -9,-36 -10,-82 -10,-121 53,13 148,84 186,65 4,-17 3,-39 5,-59 2,-18 8,-40 11,-57 27,14 29,48 69,42 11,-16 26,-36 28,-58 7,-96 -33,-95 46,-129 29,-12 52,-73 70,-106 21,-40 10,-26 16,-74 16,-121 -7,-91 -21,-128 -3,-8 2,-4 -4,-16 -23,24 -27,76 -37,109 -7,21 -17,22 -36,40l-37 45c-69,96 -148,66 -198,109 -16,13 -8,15 -25,25 -41,24 -91,8 -131,-1 7,-15 17,-20 17,-36 0,-17 -11,-25 -29,-29 -29,-6 -80,0 -92,-25 -15,-30 16,-62 -29,-89 -30,-18 -46,-17 -75,-41 -4,-64 61,-143 65,-182 4,-39 -17,-34 -21,-63 10,-18 27,-29 40,-52 16,-29 10,-44 7,-75 127,-75 87,-64 129,-99 10,-8 20,-15 28,-22 14,-12 34,-39 20,-66 90,-42 126,4 157,-35 18,2 35,8 52,14 12,4 16,6 29,8 18,2 20,3 31,-5 11,-19 -11,-25 -27,-36 -15,-10 -24,-19 -41,-31 -29,-20 -68,-31 -102,-47l-165 -52c-21,-4 -42,-10 -56,-20 -35,-26 -222,-89 -266,-99 -41,-9 -24,-1 -49,-24 -23,-21 -70,-35 -105,-44 -45,-11 -68,-22 -107,-37 -82,-30 -12,-32 -91,-58 -51,-17 -206,-31 -263,-23l-243 50c-47,12 -194,48 -187,108 22,16 33,12 65,16 -36,17 -102,25 -98,77 31,25 60,18 103,19 -25,25 -133,62 -115,109 9,24 28,11 29,48 -6,17 -84,58 -31,107 18,17 37,21 21,56 -10,22 -22,41 -22,70 1,32 17,39 20,72 2,30 -5,61 -1,90 16,117 186,116 -112,109 -141,-3 -173,-140 -205,-184 -49,-67 -85,-98 -101,-187 -6,-34 -22,-42 -20,-82 5,-73 9,-103 35,-161 23,-51 33,-93 64,-130 28,-33 60,-67 73,-121l44 -5c10,-34 0,-34 -8,-61 20,0 35,2 51,-5 8,-32 -18,-27 -37,-45 66,-3 121,38 186,32 1,0 13,-2 13,-2 28,-5 -13,3 8,-2 1,0 3,-1 3,-1 1,0 2,-1 3,-1 -14,-13 -35,-20 -55,-27 -54,-17 -168,-54 -211,-19 0,19 0,19 13,32l-6 4c-4,2 -5,3 -9,5 -10,6 -4,0 -11,9 3,27 24,21 29,52 -42,4 -78,14 -119,22 -74,15 -98,-31 -207,54 -12,9 -25,20 -24,43 2,27 17,23 25,45 -27,21 -63,33 -83,56 -35,42 13,68 33,88 -17,36 -82,53 -82,104 0,22 13,27 25,40 -6,68 -83,97 -26,153 29,29 75,93 90,130 14,34 21,44 42,66 8,8 17,19 24,30 28,47 32,49 89,74 16,7 75,25 82,29 -32,15 -82,-10 -111,-18 -40,-11 -86,-10 -130,-10 -21,0 -46,3 -66,-1 -34,-8 -14,-20 -51,-23 -45,-3 -51,-33 -87,-55 -14,-9 -31,-17 -41,-27 -16,-17 -13,-23 -33,-39 -53,-42 -79,-112 -98,-182 -16,-59 -38,-60 -51,-92 16,-19 49,-34 37,-69 -12,-36 -39,-34 -55,-57 17,-22 57,-43 67,-67 23,-52 -40,-48 -65,-68 2,-26 24,-46 37,-68 10,-17 27,-55 37,-66 20,-22 89,-30 81,-72 -3,-15 -19,-18 -29,-29 86,-24 67,-46 157,-74 44,-13 124,-16 144,-27 28,-15 11,-15 25,-33 1,1 1,1 1,3 0,1 1,2 1,3l2 7c2,9 2,11 5,18 39,13 160,-10 214,-14 61,-4 163,6 211,-23l-16 -8c-6,-2 -17,-2 -24,-2 -17,-1 -33,-1 -50,-1 -35,1 -69,1 -104,1 -63,1 -135,21 -189,20 15,-17 56,-24 64,-37 18,-31 -48,-10 -61,-7 -25,7 -54,16 -79,20 -78,12 -135,-4 -251,51 -43,21 -89,54 -135,68 -43,13 -125,25 -151,47 -24,21 -20,36 -29,70 -7,28 -22,43 -33,71 -10,27 -10,51 -25,75 -14,22 -33,33 -34,64 -1,26 14,65 11,85 -3,18 -11,11 -15,33 -2,14 0,37 -1,53l-3 8z"/>
    <path class="fil8" d="M4137 8080c-5,24 -45,186 -44,200 3,38 76,153 116,245 10,23 64,32 86,69 22,36 12,101 8,111 -6,16 -95,-53 -131,-64 -85,-26 -273,-143 -291,-170 -48,-71 8,-144 10,-218 1,-20 36,-93 46,-114 36,-76 82,-138 111,-124 10,5 44,35 37,59 -14,47 66,-62 52,5l0 1z"/>
    <path class="fil6" d="M4721 8695c1,-27 1,4 13,-42 11,-44 57,-71 109,-72 -3,31 -9,26 -30,39 0,-19 0,-16 -5,-23 -40,0 -80,76 -88,99l1 -1zm-1095 -1258c11,-4 28,-34 35,-45 32,73 -2,157 -37,220 -15,28 -34,28 -42,52 -20,58 -40,37 -98,87 -27,23 -88,60 -87,100 57,5 52,-33 113,-1 -4,15 -23,37 -34,56 -12,21 -33,36 -34,61 10,11 2,7 22,10 -13,31 0,30 33,31 -13,13 -25,14 -21,38 28,9 32,-5 60,3 3,22 -38,60 -54,79 -10,13 -23,23 -27,42 -7,38 9,31 34,26 -13,32 -12,39 30,36 -11,14 -23,23 -31,46 -9,22 -15,43 -12,68l22 14c-26,53 -7,64 28,90 -8,47 -38,182 -14,223 22,-2 10,-8 22,-25l1 103c0,28 6,50 7,77 1,22 -8,67 19,70 7,-12 7,-27 10,-44 1,1 2,1 2,3 0,2 1,2 2,3 11,27 -3,-12 3,7 1,4 2,11 3,15l12 97c6,32 -2,106 25,119 18,-10 8,-20 18,-40 6,9 22,53 28,66 10,23 12,51 23,72 14,28 26,24 30,65 8,86 39,121 101,193 21,24 79,87 109,88 -15,-35 -72,-76 -98,-108 -131,-160 -66,-134 -98,-208 -13,-30 -24,-26 -35,-69l-54 -153c-14,0 -19,0 -20,12l-34 -222c-23,-4 -7,0 -15,1 -27,5 10,9 -8,2 -7,-19 -9,-168 -10,-203 -26,4 -10,1 -26,16 -3,-55 4,-107 18,-155 83,29 -15,115 83,134 38,7 83,11 114,35 5,4 4,4 8,7 -12,19 -36,35 -44,54l22 3c8,-1 16,-3 24,-5 53,-11 98,-8 147,9 75,27 107,18 150,80 20,28 20,47 34,79 13,30 32,35 59,54 32,23 37,74 72,99 10,7 27,10 35,21 -13,3 -123,-17 -89,23 11,12 9,-3 17,13 -46,2 -148,-2 -74,63 -40,7 -77,-4 -102,16 -2,26 12,35 24,47 -35,10 -57,6 -82,26 -5,44 18,37 46,53 -8,9 -105,75 23,100 -19,43 -57,126 15,156 17,7 44,15 56,8 0,-24 -12,-15 -34,-35 -68,-63 24,-114 -1,-151 -11,-16 -44,-14 -62,-24 13,-35 70,-32 66,-76 -23,-15 -28,-7 -52,-15 27,-11 57,-6 80,-21 4,-32 -9,-29 -25,-44 36,-4 109,5 111,-38 -11,-19 -17,-13 -35,-26 22,-4 43,-3 65,-7 35,-7 30,-17 46,-26 10,-6 12,-1 27,-9 11,-5 3,-10 26,-6 147,22 143,-61 223,20l23 35c0,1 1,3 1,4 9,29 64,19 78,63 20,61 -42,52 -50,84 6,5 1,3 11,5 7,2 5,1 13,2 56,3 60,11 91,55 13,18 21,14 19,40 -9,-8 -30,-24 -47,-24 8,34 78,46 51,110 -9,22 -17,3 -7,43 -32,29 -14,15 -11,50l-26 12c2,12 7,29 4,40l-8 6c-4,2 -8,4 -11,7 1,35 22,35 -43,79 -80,54 -129,26 -172,29 -28,2 -13,16 -42,69 -39,69 -147,53 -204,25 -96,-49 -91,-57 -141,-139 -11,-17 -20,-47 -31,-62 -22,-15 24,8 -11,-3 -32,-10 -41,-60 -78,-64 -2,17 10,21 22,33 10,10 18,18 28,30l52 66c34,59 49,104 106,133 77,40 180,88 257,9 17,-17 26,-44 38,-65 8,-13 1,-4 9,-12 76,6 133,3 194,-47 60,-49 25,-34 44,-69 14,-27 18,0 6,-48 28,-25 32,-5 20,-57l20 -9c-1,-16 -3,-17 -9,-28 39,-46 4,-170 -66,-214l-20 -11c-7,-4 -4,-1 -9,-7 26,-21 27,-54 10,-85 -21,-39 -49,-23 -76,-49 8,-45 9,-50 -14,-86 -6,-10 -16,-24 -23,-32 -11,-13 -20,-19 -29,-30 -23,-28 -62,-110 -74,-149 60,-33 71,-102 158,-75 53,17 49,9 100,0 36,-6 74,-7 110,-12 42,-6 60,-18 106,-12 41,6 70,0 83,39 21,62 -18,161 -17,217 13,1 23,-2 32,-6l-10 131c-2,21 18,19 27,4 12,-19 3,-18 24,-28 0,33 -3,75 -4,110 -1,34 -15,76 -11,103 15,0 15,1 20,-12 19,183 -29,309 -27,429 29,3 91,-44 114,-53 -7,17 -27,42 -39,61 -33,49 -66,103 -102,150 -8,11 -19,18 -15,37 32,1 70,-37 100,-47 -12,48 -82,141 -79,185 24,0 9,-1 19,-6 6,-3 0,-2 8,-5 7,-2 4,-2 8,-1 22,81 -39,209 -29,245 25,-11 40,-101 46,-129 6,-29 8,-52 7,-83 0,-13 -1,-28 -5,-40l-18 -28c13,-32 90,-167 78,-193 -26,2 -34,45 -90,63 17,-36 65,-101 89,-137l70 -101c11,-14 23,-17 21,-36 -24,1 -108,75 -151,85 11,-20 7,-17 11,-42l48 -124c10,-28 21,-53 33,-80 19,-42 9,-61 21,-93 30,-12 38,0 48,-46 20,-102 46,-114 98,-200 30,-50 150,-199 165,-232l65 -129c43,-97 102,-192 92,-304 -4,-46 -3,-84 9,-132 5,-18 11,-26 -1,-38 -26,-22 -80,79 -93,106 -9,-4 -11,-7 -24,-5l-22 45c-10,-11 -12,-18 -34,-15 -10,15 -11,24 -14,45 -27,-7 -33,-12 -48,9 -14,19 -14,35 -11,61l-66 -16c0,7 20,-17 20,-17 6,-10 10,-10 27,-17 0,-20 -18,-7 2,-20 8,-5 2,1 8,-6l6 -16c7,-15 14,-8 24,-21 14,-18 1,-7 4,-16 2,-6 19,-15 24,-27 -12,-6 -18,-2 -28,-10 13,-6 23,-13 29,-26 -16,-7 -10,1 -27,-3 16,-8 48,-18 54,-37 -15,-9 -26,-5 -45,-6 15,-15 39,-27 49,-43l-23 -9c13,-13 23,-21 28,-38l-37 11 24 -34c-5,-9 6,10 -4,-4 -7,-10 -3,3 -6,-11 11,-8 14,-8 19,-23l-47 18 17 5 -20 22c3,3 3,2 8,5l10 6c-13,9 -15,11 -20,26l17 2c1,0 2,0 3,0 10,1 4,-1 9,2 -11,12 -26,20 -30,32 12,7 13,2 29,0 -14,12 -38,23 -44,40l47 4c-18,18 -48,20 -59,41 10,6 17,4 27,9 -8,5 -26,15 -29,27l25 4 -20 13c-14,7 -11,4 -20,14l22 9 -37 15c2,13 6,8 7,19 -14,4 -30,9 -30,21 0,12 11,-7 -23,31 -10,11 -13,5 -24,22 2,22 18,37 21,70 -30,-8 -39,-27 -72,-19l-4 40c-23,2 -95,-5 -112,15 -8,9 -5,9 -7,20l-3 16c-71,5 -57,11 -68,29l-68 5c-16,6 -1,32 -88,29 31,-40 96,-67 134,-100 15,-13 23,-25 38,-39 25,-24 68,-37 97,-56 32,-22 53,-46 83,-70 52,-43 121,-98 131,-175 5,-40 19,-29 23,-54 5,-28 -11,-38 0,-68 8,-21 26,-31 31,-46 13,-38 -15,-28 -35,-39 13,-24 33,-23 31,-55 -16,-8 -51,-10 -63,-17 -13,-25 22,-79 -17,-96 -49,-22 -87,73 -157,88 -23,5 -91,12 -113,10 22,-8 26,-15 39,-25 40,-29 77,-20 12,-102 -52,-66 -183,42 -223,66 -14,-20 -24,-20 -25,-58 -1,-28 3,-53 12,-76 29,-72 121,-131 201,-140 57,-7 108,12 98,72 -18,14 -61,23 -68,39 -16,32 18,63 43,65 -3,-31 -24,-21 -24,-55 27,-22 61,-13 70,-51 10,-40 -17,-65 -40,-78 -84,-46 -210,28 -265,84 -8,8 -5,6 -14,13 -17,14 -33,29 -46,49 -36,56 -41,137 -9,192 -57,2 -52,22 -75,24 -38,3 -96,-32 -182,-20 -34,5 -56,16 -84,22 21,-115 -103,-1 -111,5 -63,42 -174,51 -229,-4 7,-25 10,12 13,-27 -125,-57 -31,73 24,80 -29,3 -53,-4 -81,-10 -44,-9 -31,-31 -65,-28 -15,47 17,129 45,170 13,19 22,20 34,42 19,36 42,55 96,56 48,0 82,-27 82,-74 0,-84 53,-108 117,-143 34,-19 40,-33 83,-48 151,-52 239,14 277,-2 15,-7 7,-12 25,-19 37,-14 78,10 111,26 41,20 78,43 126,59l134 55c0,46 -54,32 -63,59 0,22 8,28 26,32 11,3 14,1 24,2l24 5c19,7 -3,23 -7,28 -13,17 -3,14 -5,35 -30,13 -37,20 -38,56 -1,34 -25,42 -42,59 -32,30 -10,43 -27,68 -5,7 -14,14 -23,27 -7,10 -13,18 -20,30 -25,41 -64,65 -98,96 -28,25 -91,72 -133,63 1,-15 22,-47 30,-63 47,46 91,-75 91,-90 1,-52 -30,-68 -50,-104 -8,-16 -7,-25 -23,-29 -27,42 45,75 50,126 -32,-18 -53,-1 -80,13 -24,12 -50,19 -76,28 -60,21 -108,-21 -172,-25 -6,-48 1,-54 22,-84 13,-19 31,-70 1,-75 -11,19 6,17 -34,82 -28,45 -4,62 -11,98 -5,24 -4,57 30,54 26,-2 9,-4 23,-12 1,-1 -5,-11 20,-2 3,1 17,10 20,12 18,11 22,11 29,34 -30,-14 -28,-44 -68,-33 -33,42 31,41 41,75 -58,-1 -60,-18 -104,-28 -54,-12 -49,-18 -82,-48 -36,-33 -64,-65 -90,-108 -10,-16 -15,-34 -22,-45 -17,-25 -55,-33 -66,-65 -13,-36 -5,-78 -47,-82 -22,-2 -92,-5 -107,12 -8,9 -20,34 -19,49 2,19 18,30 31,37 -33,41 -2,56 40,68 7,61 86,58 104,120 -18,1 -37,-1 -50,-7 -17,-8 -24,-17 -37,-27 -21,-17 -63,-16 -91,-30 -3,-32 27,-50 -31,-63 -23,-5 -69,-13 -85,-22 14,-12 25,-13 24,-36 -14,-13 -30,-10 -48,-15 -27,-8 -7,0 -17,-10 15,-8 23,-12 36,-22 50,-41 22,-37 -19,-62 -23,-14 -34,-12 -58,-19 7,-50 15,-70 -37,-98 -31,-17 -82,-23 -108,-39 14,-59 102,-77 14,-110l-33 -12c-14,-9 -4,-1 -11,-10 57,-21 57,-48 92,-65 65,-32 22,-37 25,-68 12,-28 34,-25 32,-58 -54,-16 -102,-19 -145,-57 -16,-14 -28,-19 -34,-38 25,-33 27,-4 55,-70 27,-64 19,-15 31,-99 10,-69 -3,-54 -12,-95 -6,-30 8,-23 -14,-59 -22,-35 -14,0 -17,-41 -19,-2 -23,-4 -37,-9 6,-21 12,-15 16,-37 -34,15 -67,69 -74,110l-4 -7z"/>
    <path class="fil9" d="M5973 6755l-120 -95c-159,-8 -283,147 -443,236l-107 147c108,-35 177,-5 238,77 38,51 189,263 249,338 24,30 148,331 179,320 107,-39 86,-92 83,-225 -1,-33 -5,-104 74,-40l69 -213 -216 -215 -7 -329 1 -1z"/>
    <path class="fil6" d="M5928 5955c16,-8 25,-11 21,-34 -80,-23 -341,81 -427,121 -22,10 -42,21 -63,32 -21,12 -39,26 -57,35 65,-100 132,-115 132,-142 -59,-20 -311,158 -347,172 8,-25 30,-51 27,-73 -20,-2 -34,18 -49,29 -35,26 -111,85 -147,103 1,-19 12,-45 4,-57 -3,-3 0,-13 -25,6l-72 59c-136,102 -383,252 -544,326 -40,18 -78,38 -114,58 -30,16 -100,39 -111,67 20,-5 58,-24 77,-33 26,-12 52,-25 74,-38 20,8 -16,11 20,11 29,0 52,-28 74,-40 18,-10 82,-45 100,-48 -11,4 -64,51 -64,69 53,10 220,-142 368,-130 -21,27 -88,44 -74,84 28,5 154,-67 203,-75 -13,22 -33,27 -21,52 32,17 104,-31 140,-42 37,-12 131,-29 172,-22 -17,21 -59,37 -54,76 42,27 153,-34 266,-13 -9,12 -74,47 -46,69 32,15 90,-11 125,-17 46,-8 94,-7 142,-7 13,2 8,12 12,24 18,5 39,6 55,13 11,5 43,17 50,22 36,24 27,38 32,71 3,16 6,10 11,28l-16 23c12,17 46,21 47,45 1,20 -2,44 21,61 1,0 2,1 3,2l-12 17 13 13c20,24 10,23 13,41 0,1 0,2 1,3l3 6c9,18 16,28 15,54 -4,86 4,55 16,110 3,15 1,27 7,39 -15,8 -31,22 -37,36 15,39 72,46 122,54 -25,21 -86,21 -103,45 7,20 35,23 57,29 -20,7 -25,1 -33,16 11,21 93,13 118,27 -22,12 -44,5 -50,27 8,9 7,5 16,9l11 5c-21,9 -47,23 -69,35 -1,60 20,115 4,176 -13,52 -33,100 -73,130 -24,18 -57,96 -61,137 -4,37 11,55 20,79 6,17 0,45 -4,59 -5,16 -6,2 -1,24 -33,-9 -39,0 -26,30 -12,0 -19,2 -26,9 -16,15 16,9 -26,10 0,34 1,12 -7,30 -5,11 -5,21 -11,29 -9,14 -37,19 -13,46 28,15 76,-16 124,-4 42,10 146,69 194,90 43,19 80,3 115,-14 65,-31 126,-84 117,-159 -10,-82 -4,-189 30,-252 33,-61 53,-133 104,-179 21,-19 51,-49 74,-66 26,-20 62,-43 82,-62 24,-24 41,-49 57,-83 16,-34 41,-57 65,-80 39,-38 32,-35 37,-102 4,-50 -16,-88 -14,-123 28,-3 58,-2 79,-11 9,-45 -95,-166 -92,-191 39,-3 152,3 176,-17 3,-30 -17,-27 -45,-36 -50,-16 -129,-52 -153,-98 52,-3 102,-5 153,-7 39,-1 116,4 138,-19 -2,-34 -100,-58 -114,-115 62,-19 297,5 326,-20 -2,-29 -58,-34 -104,-83 -7,-8 -17,-20 -17,-33 2,-30 303,-19 326,-31 -1,-35 -43,-37 -72,-48 -32,-12 -64,-23 -72,-48 23,-29 117,-27 161,-28 34,-1 113,5 144,-1 16,-3 15,-12 21,-23 0,-1 1,-2 2,-3 139,-5 277,35 377,32 -42,-43 -301,-63 -382,-58 -30,2 -28,1 -36,25 -87,9 -263,-18 -311,43 -9,55 50,70 89,89 -44,5 -101,3 -148,6 -29,2 -112,3 -126,28 -22,45 58,97 77,116 -65,7 -242,-4 -280,22 -8,67 53,78 81,117 -56,3 -227,6 -266,19 -11,42 68,96 103,114 19,10 37,15 51,26 -41,3 -104,-2 -135,14 -4,31 80,150 97,188 -31,5 -51,3 -76,14 -5,35 19,83 18,123 -61,-44 -111,-128 -148,-194 -71,-125 -124,-108 -195,-152 -68,-42 -75,-132 -173,-170 -117,-46 -37,-5 -109,-62 -36,-29 -65,-44 -108,-68 50,-25 210,-4 251,-20 -1,-38 -99,-47 -127,-73l20 -8c88,-23 326,-14 371,-39 7,-58 -142,-40 -160,-88 74,-34 481,-5 506,-26 16,-33 -72,-40 -100,-46 -52,-11 -72,-20 -112,-43 105,-17 237,-8 345,-8 42,0 91,9 103,-12 -10,-28 -82,-30 -106,-41 34,-21 337,-7 405,-12 -5,-4 -2,-3 -9,-6 -6,-3 -4,-2 -11,-3 -56,-14 -400,-27 -411,13 1,17 -3,9 7,22l15 15c-67,2 -336,-7 -370,18 -4,51 85,63 123,78l13 8c-89,4 -376,-10 -425,30 -7,66 82,62 122,86 -79,8 -311,15 -357,49 0,27 10,34 30,45 14,7 37,18 50,22 -47,5 -200,-4 -218,34 -2,22 110,69 129,90 -23,-2 -59,-7 -81,-13 -33,-9 -35,-19 -62,-33 -56,-30 -70,-26 -113,-81 -49,-63 -61,-45 -125,-69 -84,-33 -116,-19 -160,-33 4,-26 11,-6 16,-32 -33,-35 -107,-7 -155,-10 11,-11 22,-13 26,-31 -12,-26 -47,-23 -81,-23 -34,0 -69,0 -101,-2 14,-32 59,-49 91,-61 21,-8 27,-4 29,-27 -33,-11 -82,-3 -118,0 -28,3 -91,17 -110,16 11,-3 27,-17 26,-31 -39,-9 -128,33 -168,40 20,-31 62,-63 91,-85 13,-10 12,-12 23,-22 8,-8 17,-13 26,-19 17,-12 35,-28 54,-38 -8,25 -39,55 -33,75 18,7 21,-5 36,-16 62,-45 200,-137 265,-154 -12,24 -98,107 -78,131 15,14 87,-47 116,-62 44,-24 83,-41 130,-60 55,-22 232,-88 288,-87 -57,19 -123,47 -173,81 -19,12 -40,23 -36,48 22,9 116,-45 145,-57 51,-21 101,-39 161,-51 121,-24 268,-34 397,-34 16,4 -2,14 23,21l277 6c78,5 243,35 296,33 -48,-48 -405,-59 -483,-61 -19,-23 -15,-21 -54,-23 -127,-6 -258,4 -383,21 -43,6 -99,22 -134,25l-3 -5z"/>
    <path class="fil6" d="M8656 7081c-26,6 -57,3 -78,13 3,38 120,68 157,89 -1,1 -3,0 -3,2 -2,6 -31,1 -41,30 13,23 106,58 131,86l-25 7c1,47 124,88 161,117 -19,1 -52,-5 -45,17 8,26 96,47 122,84l-27 8c-9,24 -13,46 0,70 12,24 11,43 27,64 84,115 -66,115 -50,250 14,120 195,30 249,18 183,-39 273,21 306,17 53,-5 117,33 134,35 -28,3 -84,-3 -103,10l-16 26c-153,-44 -167,31 -180,33 -44,0 -88,2 -129,11 -51,11 -75,19 -54,68 -50,-1 -92,-10 -123,16 -7,34 -1,31 12,57 -29,0 -64,-5 -88,8 -16,49 30,74 47,105 -53,4 -82,-5 -80,29 17,12 127,8 144,0 6,-33 0,-15 -38,-52 -16,-15 -33,-30 -41,-57l151 4c24,-1 30,-2 30,-25 -20,-15 -51,-10 -89,-27 -16,-7 -16,-6 -19,-23 45,-21 155,16 209,-4 13,-50 -65,-27 -93,-59 57,-41 236,-9 258,-20 7,-35 -32,-27 -61,-35 19,-24 82,-23 115,-12 14,5 34,15 52,16 36,2 19,-23 14,-38 79,-7 246,36 283,11 -5,-10 -3,-10 -21,-15l-101 -14c-5,-46 -17,-31 -81,-61 -23,-11 -18,-18 -45,-27 -53,-18 -109,-40 -153,-73 -31,-23 -61,-34 -94,-55l-92 -57c-48,-33 -134,-72 -180,-117 -27,-27 -67,-25 -85,-63l36 -9c3,-28 -27,-44 -48,-57 -10,-6 -21,-12 -32,-18 -13,-7 -24,-10 -35,-22l45 -3c3,-30 -56,-53 -80,-64 -38,-17 -63,-31 -89,-56l33 -6c-1,-19 -12,-23 -25,-32 -12,-8 -26,-17 -38,-25 -29,-18 -68,-33 -76,-48 20,-4 62,-7 72,-21 -7,-15 -67,-31 -83,-37 -28,-11 -64,-31 -85,-38 1,-1 3,-4 4,-3l15 -7c19,-5 40,1 48,-23 -19,-26 -93,-44 -137,-81 -12,-10 -24,-28 -42,-26 6,39 106,81 149,108l1 1z"/>
    <path class="fil6" d="M5413 7317c26,20 50,10 72,23 -15,10 -21,5 -31,23 7,19 12,12 29,23l-28 18c2,31 12,11 15,34 0,1 -1,8 1,16 32,9 57,10 66,40 -10,15 -26,14 -30,30 -4,13 8,25 12,42 -10,19 -23,20 -26,46 -4,26 7,40 0,68 -7,29 -41,95 -20,125 33,0 82,-98 167,-73 37,11 8,14 45,41 -8,14 -22,4 3,43 12,18 9,30 12,54 -26,1 -42,3 -54,21 5,24 24,17 40,41 -1,1 -2,1 -3,2 -1,3 -12,4 -17,14 -5,11 4,16 8,31 -21,4 -37,11 -29,37 4,13 8,9 8,24 0,21 -9,3 -4,31 52,3 41,-31 55,-47 6,-7 10,-5 20,-15 5,-22 -2,-30 12,-43 14,-13 22,-7 24,-29 3,-29 -6,-16 8,-47 10,-22 6,-22 8,-46 33,-26 29,-15 17,-56 23,-38 10,-6 16,-52 6,-49 9,4 2,-65 4,-3 11,-4 17,-14 -12,-23 -29,-12 -45,-41 44,1 50,6 65,-7l6 -5c13,7 37,12 47,8 -1,-21 -14,-22 -33,-33 -53,-34 -66,-50 -143,-74 21,-15 79,-18 110,8 23,19 37,29 71,30 88,4 -14,-53 -39,-67 -19,-11 -78,-38 -99,-41 34,0 82,27 104,19 6,-54 -140,-71 -170,-79 -35,-9 -10,-6 -28,-21 -18,-16 -57,-12 -80,-24 9,-31 35,-9 36,-51 -14,-12 -28,-14 -44,-26 11,-16 12,-4 12,-27 -40,-15 -94,-12 -133,7 -83,39 -42,46 -47,70 -1,3 -5,-3 -4,18l-1 -4z"/>
    <path class="fil6" d="M7191 7616c-16,2 -31,4 -47,5 -11,1 -31,1 -38,10 -14,34 46,80 66,95 17,12 34,23 52,34 20,13 40,21 47,41 -61,3 -125,-41 -168,-25 -7,23 0,30 6,51 -35,-11 -132,-95 -168,-68 -16,22 5,52 17,69 40,57 84,115 116,178 -62,-19 -202,-158 -267,-132 -22,61 106,217 127,253 -16,-12 -32,-21 -51,-35 -18,-14 -34,-25 -51,-39 -18,-15 -82,-75 -115,-60 -5,33 146,205 166,272 -25,-10 -89,-66 -114,-85 -29,-22 -84,-78 -126,-63 -21,53 91,219 111,260 -73,-41 -134,-110 -190,-163 -16,-15 -40,-57 -68,-51 -16,37 126,316 151,358 -36,-12 -110,-63 -139,-84l-94 -72c-95,-78 19,169 23,189 -34,-17 -78,-56 -106,-80 -19,-17 -73,-86 -96,-84 -13,22 23,94 31,122 12,40 31,95 36,134 -16,-9 -97,-132 -119,-164 -13,-19 -3,-15 -24,-20 5,28 110,187 133,214 51,60 52,49 57,49 1,0 3,-1 3,-1 17,-4 -12,-47 -17,-60 -22,-52 -53,-158 -63,-210l101 86c14,10 96,78 108,69l4 -11c2,-17 -9,-26 -17,-41 -26,-50 -52,-111 -63,-165 24,12 123,92 165,117 43,26 94,47 132,80 13,12 29,35 44,17 13,-16 -45,-62 -59,-79 -46,-55 -72,-129 -103,-194 -12,-25 -37,-78 -43,-104 44,36 83,83 133,123 23,18 47,36 73,54 22,15 58,50 86,42 8,-30 -26,-51 -42,-73 -44,-63 -109,-160 -124,-237 28,9 102,72 126,91 28,23 76,68 111,79l15 2c36,-6 -9,-60 -17,-73l-124 -193c16,7 45,33 60,45 20,16 175,134 195,114 15,-15 -28,-39 -53,-67 -47,-50 -134,-173 -147,-238 36,10 111,60 143,81 27,17 115,83 144,73 7,-31 -51,-111 -69,-139 -21,-35 -77,-96 -85,-129 38,11 186,123 210,90 7,-17 -7,-20 -21,-33 -12,-11 -19,-21 -25,-38 54,6 97,41 163,27 34,-75 -131,-112 -158,-176 30,-14 65,2 93,-24 0,-36 -59,-79 -79,-106 -13,-18 -23,-38 -32,-63 -10,-29 -6,-67 -13,-87 -48,10 -6,116 6,139 16,31 82,94 82,106l-1 -3z"/>
    <path class="fil6" d="M8518 7191c-53,-4 -270,-76 -300,-53 -31,24 10,70 20,84 -108,-10 -100,-7 -197,-7 -36,0 -119,-8 -142,9 2,38 111,46 173,79 -84,17 -202,11 -261,64 -18,16 -16,40 3,51 45,25 176,-11 213,-13 -52,33 -101,58 -147,94 -18,14 -120,99 -96,137 25,32 112,-15 139,-20 -44,37 -127,68 -223,154 -38,34 -59,57 -94,95 -110,117 -92,164 39,93 31,-17 65,-35 93,-52 -31,37 -63,61 -90,96 -16,20 -83,84 -63,124 40,54 153,-34 193,-47 -6,9 -110,113 -152,167 -19,25 -128,163 -98,208 34,33 119,-103 184,-141 -39,111 -69,130 -118,302 -32,112 -36,153 -51,260 -3,23 -13,81 4,102 17,-49 25,-134 37,-193 14,-65 28,-122 46,-184 44,-150 70,-178 115,-291 7,-18 12,-28 -1,-41 -31,-16 -159,134 -188,149 25,-77 108,-181 154,-227 17,-16 29,-32 46,-49 17,-17 31,-30 48,-46 6,-6 133,-116 68,-104 -4,1 -16,8 -18,9l-97 56c-40,24 -90,60 -147,57 -6,-36 80,-120 100,-140 21,-22 39,-40 61,-61 11,-11 18,-19 29,-30 21,-22 26,-26 15,-36 -22,-16 -198,111 -251,118 11,-29 81,-103 102,-125 94,-100 210,-164 329,-234 12,-7 66,-33 49,-50 -22,-22 -154,65 -235,68 17,-81 194,-174 268,-215 27,-15 28,-13 31,-23 9,-35 -65,-7 -111,2 -31,6 -141,26 -171,8 11,-32 101,-48 140,-53 29,-4 56,-7 85,-10 26,-2 67,4 85,-14 -1,-23 -34,-30 -73,-43l-90 -34 200 0c27,2 86,19 103,5 14,-23 -43,-44 -45,-90 101,4 303,91 342,58 -3,-29 -60,-51 -94,-93 22,7 58,32 77,45 38,26 51,47 78,51 -3,-32 -42,-56 -66,-72 -25,-16 -57,-38 -88,-52 -53,-23 -75,-12 -31,32l72 67 -3 -1z"/>
    <path class="fil6" d="M4449 6807c-44,-20 -63,-91 -91,-82 -12,26 -2,71 1,101 -18,-10 -34,-27 -49,-41 -54,-50 -53,-55 -51,28l-176 -27c-49,-10 -49,6 -82,1 -36,-6 -59,-11 -97,-5 -11,17 1,11 -9,24 -34,2 -69,-4 -100,2 0,23 18,29 32,36 -19,11 -57,13 -81,18 -33,8 -66,11 -71,31 13,11 17,8 36,13l29 12c6,4 4,4 7,7 -60,58 -72,47 -140,44 -56,-2 -206,-9 -258,8 -35,11 -12,17 -57,38 -67,30 -53,19 -84,56 -10,12 -17,13 -18,27 27,7 58,9 79,-7 18,-14 42,-17 66,-24 50,-15 68,-54 135,-45 78,10 34,-14 164,17 46,11 35,-14 64,-20 26,-5 67,2 95,0 13,-10 23,-31 33,-47 16,-26 19,-11 32,-27 16,-20 -9,24 6,-12 0,-1 1,-2 1,-3l89 -16c0,-29 -6,-9 -19,-29l101 -12c20,-23 0,-25 51,-31 26,-3 55,-1 81,-3 32,-2 48,-11 78,-6 41,7 32,-9 31,-49 35,21 86,87 106,80 4,-10 -12,-81 -10,-109 23,17 58,83 93,79l4 -56c19,30 24,78 62,85 -1,-24 -15,-19 -37,-71 -9,-21 -16,-67 -40,-74 -14,21 -2,51 -4,91l-2 -2z"/>
    <path class="fil6" d="M4860 6842c6,-39 53,-103 51,-127 -29,1 -119,115 -136,141 10,-5 39,-33 49,-42 13,-13 31,-36 47,-46 -9,27 -44,82 -29,111 26,2 33,-28 58,-69 19,-30 41,-54 56,-80 15,22 -25,97 -17,132 2,9 1,5 5,12 18,-7 3,7 14,-15 11,-22 9,-26 33,-53 10,-11 51,-46 66,-52 -8,20 -21,36 -33,53l-27 41c-4,21 0,9 3,13 24,18 95,-80 125,-89 -12,56 -81,90 -82,128 38,4 73,-33 99,-46 -11,22 -41,32 -39,58 25,2 49,-22 80,-27 -5,11 -22,25 -7,33 9,4 28,-7 40,-10 -9,18 -16,12 -13,34 25,3 33,-19 65,-24 -8,16 -14,12 -14,36 20,-1 22,-8 37,-17 1,1 2,1 2,3 0,2 2,2 2,3 1,1 2,2 2,3l5 5c1,1 2,1 2,2l7 5c-14,10 -20,12 -20,30 13,7 3,0 21,3l9 3c-12,23 -29,25 -30,45 28,5 50,-37 73,-57l118 -107c29,-29 66,-54 99,-81 16,-13 37,-22 54,-36l47 -44c-54,0 -170,87 -256,81 -45,-4 -64,2 -105,2 -60,0 -90,-5 -142,15 -42,16 -62,44 -100,60 13,-23 75,-76 53,-107 -18,-16 -73,43 -103,66 12,-22 49,-63 42,-91 -40,-2 -89,59 -110,75 3,-33 23,-73 15,-107 -22,-2 -46,34 -66,61 -11,15 -46,60 -52,75l2 -2z"/>
    <path class="fil6" d="M4558 7170c-6,-5 -3,-1 -8,-8l-14 -40c-6,-21 -6,-45 -25,-47 -7,17 -3,40 -5,58 -2,20 -8,36 -12,55l-18 -21c-5,-9 -8,-14 -13,-23 -14,-26 -16,-38 -34,-45 -37,26 -17,100 -16,144 -51,-17 -79,-95 -118,-92 -1,44 56,147 56,186 -6,-8 -10,-9 -18,-18 -8,-8 -10,-14 -20,-26 -16,-20 -26,-25 -44,-42 -18,-17 -73,-71 -100,-69l4 59c-15,-11 -10,-15 -22,-23 6,22 12,44 38,51l-8 -72c38,13 107,94 135,129 11,14 29,37 56,36 4,-38 -46,-134 -55,-183 29,18 73,85 106,80 15,-32 -10,-91 8,-140 26,27 41,99 83,105 -12,-41 -13,-4 7,-92 12,26 14,58 43,61 24,-32 11,-93 51,-121 18,30 8,120 36,138 24,-13 -6,-1 29,-31 13,-11 16,-20 29,-29 -5,24 -24,49 -22,73 21,-3 16,-10 30,-25 10,-11 16,-16 27,-27 12,-11 45,-39 60,-47 -3,15 -7,26 -13,41 -1,4 -7,18 -7,20 -13,73 83,-48 105,-61 -8,26 -36,61 -33,84 25,5 39,-16 53,-30 4,-4 39,-37 43,-43 -1,37 -38,88 -31,124 47,0 56,-66 91,-86 0,48 -37,78 -21,93 21,13 58,-63 81,-64 4,33 -1,48 18,67 24,4 38,3 44,-16 -15,-8 -13,1 -34,-2 -8,-22 -5,-51 -17,-68 -27,-3 -38,19 -58,31 4,-26 10,-34 1,-60 -24,-4 -33,15 -45,30 -9,12 -27,28 -34,39 3,-32 34,-75 22,-107l-6 -1c-21,2 -36,31 -74,55 8,-16 27,-48 15,-66 -24,-13 -79,60 -98,73 5,-23 26,-54 13,-78 -31,1 -64,47 -93,63 5,-23 28,-61 22,-80 -20,4 -31,36 -66,74 -12,13 -12,17 -25,26 -18,-37 -6,-102 -32,-133 -47,8 -58,88 -66,120l-1 1z"/>
    <path class="fil6" d="M12778 8877c-17,-8 -98,-102 -88,-3 -26,-8 -63,-43 -89,-19 -13,27 22,58 29,91 -44,-7 -108,-55 -147,-42 -17,39 37,74 51,110 -21,-2 -43,-11 -63,-1 -11,19 -1,27 10,38 25,25 70,75 73,110 -46,4 -122,-60 -143,-36 -14,19 31,61 61,102 10,13 18,28 33,14 11,-16 -9,-22 -22,-34 -9,-8 -22,-27 -27,-40 25,8 107,59 129,15 21,-43 -36,-104 -52,-124 4,-3 1,-1 10,-4 6,-2 25,-6 30,-14 7,-42 -20,-60 -35,-86 30,7 59,31 95,31 54,1 31,-49 22,-81 27,8 64,44 80,-1 26,13 32,34 71,24 15,-30 29,-108 12,-145 -36,-1 -17,20 -40,94l0 1z"/>
    <path class="fil6" d="M3294 7692c28,1 39,-12 62,-17 -4,8 -7,15 -12,21 -21,26 -45,43 17,28 -10,25 -61,115 -53,138 25,-5 40,-59 51,-83 9,-19 41,-81 40,-93 -15,-2 -16,6 -33,13 7,-23 23,-51 24,-67 -28,6 -37,27 -68,33 15,-43 40,-77 56,-119 9,-24 40,-117 30,-145l-32 -58c-12,-17 -28,-29 -42,-48l-73 -107c-6,-8 -41,-56 -43,-16 -1,13 48,120 51,129 20,56 36,172 40,232 6,84 -20,119 -16,158l1 1z"/>
    <path class="fil6" d="M4967 10396c14,5 35,5 53,5 -13,31 -175,118 -234,124 -98,10 -241,10 -328,38 -65,21 -58,37 -80,55 -32,26 -94,48 -101,129 -5,59 12,70 66,116 50,43 62,41 143,41 58,0 300,4 329,-8 -6,-13 -5,-11 -23,-13 -53,-4 -271,-1 -352,-1 -51,0 -141,-67 -142,-117 -1,-64 39,-102 91,-127 26,-13 6,-3 21,-25 44,-64 308,-47 436,-86 58,-18 207,-91 202,-145l-55 0c7,-20 34,-41 58,-62 23,-19 45,-39 48,-57 -23,6 -26,13 -40,27 -25,26 -94,62 -93,106l1 0z"/>
    <path class="fil6" d="M4196 7917c-5,-21 -6,-22 15,-29 -5,32 0,33 1,58 -13,-11 -11,-8 -16,-29zm232 4c-8,-16 -120,-77 -143,-89 -68,-34 -122,0 -129,71 -4,51 15,38 39,73 50,71 197,18 233,-55z"/>
    <path class="fil6" d="M3918 7021c-21,20 24,60 34,72 25,26 23,52 59,57 108,16 95,-44 178,-60 27,-5 84,-15 52,-48 -19,-20 -317,-28 -324,-21l1 0z"/>
    <path class="fil6" d="M4918 7571c-22,-10 1,-7 -24,-10 -34,53 -99,91 -113,141 28,-6 7,-3 32,-28 26,-26 9,11 59,-59 22,-31 6,-11 31,-8 39,-31 65,-78 118,-91 20,-4 13,5 31,-9 76,-62 16,-28 101,-26 -10,8 -33,40 18,32 67,-10 0,-2 77,17 19,5 31,11 42,21 -15,7 -19,-2 -36,9 2,15 -2,11 14,17 9,3 20,4 28,5 -1,1 -3,0 -4,2 -1,2 -3,1 -4,2 -20,8 -11,0 -21,10 7,22 30,10 44,63 -6,6 -12,7 -16,18 10,11 25,11 40,18 -8,7 -8,5 -23,9 -5,18 -4,7 0,26l-24 5c3,19 7,15 17,27 -13,6 -13,0 -27,10 -1,18 5,21 8,36 -16,3 -20,2 -28,17 16,8 37,-2 48,-11l-8 -30c25,-11 30,-2 29,-27 -1,-11 -5,10 11,-31 6,-14 7,-5 15,-14 21,-23 -13,-27 -21,-46 -10,-25 -5,-37 -23,-57 11,-14 13,-3 12,-22 -1,-20 -1,0 -4,-13 -5,-21 8,-30 -40,-52 -35,-15 -26,-20 -50,-27 -33,-9 -48,6 -65,-5 14,-8 23,-9 27,-26 -19,-5 -29,-3 -49,-1 -2,-7 7,7 6,-21 -21,2 -50,11 -66,20 -12,7 -17,14 -26,19 -29,17 -17,6 -57,33 -18,12 -13,5 -33,12 -18,7 -42,30 -48,43l2 2z"/>
    <path class="fil6" d="M4169 7524c-27,-4 -20,-21 -41,-21 -23,-1 -14,24 -14,39l-58 0 -9 25 -41 -3c-6,27 1,23 5,46 -57,1 -47,7 -28,50 -17,4 -30,8 -41,18 2,23 17,24 33,41 -22,29 -43,24 17,54 0,1 -2,1 -2,3 0,2 -1,2 -2,3 -1,1 -5,8 -6,8 -7,14 -6,3 -3,21l54 5c-4,11 -10,17 -9,32l31 -4 4 19c13,-8 28,-26 30,-40 -22,-7 -22,1 -42,3 5,-8 7,-9 8,-23l-60 -3c8,-19 15,-7 26,-29 -6,-7 0,-2 -8,-7 -4,-2 -8,-4 -13,-5 -13,-4 -13,-2 -25,-10 8,-13 18,-6 29,-23 -11,-22 -29,-20 -42,-41 15,-5 34,-9 44,-17 -4,-28 -11,-11 -18,-37l47 -8c0,-25 -7,-16 -14,-39 50,2 31,1 54,-24l52 -1c5,-21 2,-23 -1,-40 23,6 12,25 52,20l12 -26c7,9 14,20 30,19 20,0 7,2 20,-12 5,-5 1,-3 7,-7 19,30 45,23 99,25 1,3 2,3 2,5l5 10c16,34 44,58 75,82 14,11 32,32 41,45 7,9 12,19 17,28 11,19 5,20 22,22 22,-44 -123,-141 -138,-181 -9,-24 -7,-26 -38,-28 -22,-2 -44,5 -63,-6 -17,-10 -14,-26 -36,-30l-12 33c-25,-10 -20,-21 -35,-30 -23,-15 -15,23 -17,40l0 -1z"/>
    <path class="fil6" d="M11006 8039c0,-34 -9,-2 -18,-36 17,9 45,37 62,50 40,32 26,25 85,32 43,4 173,32 200,-5 -8,-9 -12,-11 -27,-14l-122 -7c-107,-12 -89,-9 -129,-44 -14,-13 -76,-73 -105,-67 -34,8 -2,40 5,54 13,22 18,40 49,38l0 -1z"/>
    <path class="fil6" d="M5596 7089c1,14 -14,68 77,56 44,-6 56,-57 25,-81 -26,-20 -70,-28 -112,-19 -17,3 -38,14 -41,27 -5,25 34,15 50,17l1 0z"/>
    <path class="fil6" d="M4223 7783l1 -13c-1,-8 -28,-56 16,-102 35,-36 89,-11 110,16 30,38 25,70 41,121 9,29 47,86 70,95 1,-1 1,-4 1,-4l2 -11c-2,-25 -37,-35 -56,-102 -16,-60 -15,-91 -55,-125 -77,-67 -151,-5 -158,60 -2,22 1,58 26,64l2 1z"/>
    <path class="fil6" d="M5507 7016c42,23 53,11 86,-5 20,-9 95,-6 68,-46 -18,-25 -74,-14 -100,-8 -31,7 -62,22 -54,58l0 1z"/>
    <path class="fil6" d="M3604 7296c-10,9 -32,35 -30,57 20,-2 25,-12 40,-21 -6,8 -24,29 -25,40 -5,39 30,5 45,-5 12,-9 33,-18 40,-32 -26,4 -34,13 -55,21 10,-23 33,-31 31,-56l-44 17c9,-21 17,-20 26,-35l-57 11c16,-28 43,-32 51,-63 -24,4 -52,35 -67,54 -40,51 32,15 45,12z"/>
    <path class="fil6" d="M12928 8914c14,-16 3,-21 4,-37 2,-22 14,-12 6,-43 -10,1 -22,10 -38,15 -26,-20 -23,-31 -39,-46 -23,-22 -35,5 -13,36 12,17 25,31 38,48 11,15 19,48 43,28l-1 -1z"/>
    <path class="fil10" d="M10216 11004c-268,38 -528,32 -660,167 0,0 45,-236 297,-404 252,-169 527,-260 614,-205 87,56 96,393 -251,443l0 -1z"/>
    <path class="fil1" d="M10697 10534l461 -50c0,0 -77,119 -258,241 -181,121 -331,227 -394,187 -63,-40 -60,-350 191,-377l0 -1z"/>
    <path class="fil10" d="M10693 10599c192,-27 379,-23 474,-120 0,0 -32,169 -213,291 -181,121 -379,187 -441,147 -63,-40 -69,-282 181,-318l-1 0z"/>
    <path class="fil1" d="M10865 11251c192,-27 379,-23 474,-120 0,0 -32,169 -213,291 -181,121 -379,187 -441,147 -63,-40 -69,-282 181,-318l-1 0z"/>
   </g>
  </g>
 </g>
</svg>
