<?xml version="1.0" encoding="UTF-8"?>
<!DOCTYPE svg PUBLIC "-//W3C//DTD SVG 1.1//EN" "http://www.w3.org/Graphics/SVG/1.1/DTD/svg11.dtd">
<!-- Creator: CorelDRAW X6 -->
<svg xmlns="http://www.w3.org/2000/svg" xml:space="preserve" width="225.213mm" height="134.959mm" version="1.1" style="shape-rendering:geometricPrecision; text-rendering:geometricPrecision; image-rendering:optimizeQuality; fill-rule:evenodd; clip-rule:evenodd"
viewBox="0 0 22521 13496"
 xmlns:xlink="http://www.w3.org/1999/xlink">
 <defs>
  <style type="text/css">
   <![CDATA[
    .str1 {stroke:#498D98;stroke-width:7.62}
    .str0 {stroke:#528E98;stroke-width:7.62}
    .fil4 {fill:#0C0E17}
    .fil6 {fill:#203842}
    .fil13 {fill:#293538}
    .fil12 {fill:#498D98}
    .fil7 {fill:#528E98}
    .fil0 {fill:#535663}
    .fil10 {fill:#596E85}
    .fil8 {fill:#649AB5}
    .fil14 {fill:#69A1BD}
    .fil11 {fill:#828C8E}
    .fil9 {fill:#E3F2C7}
    .fil18 {fill:#F24F3E}
    .fil15 {fill:#F3F5F5}
    .fil17 {fill:white}
    .fil16 {fill:#203842;fill-rule:nonzero}
    .fil2 {fill:#528E98;fill-rule:nonzero}
    .fil5 {fill:#649AB5;fill-rule:nonzero}
    .fil1 {fill:#F24F3E;fill-rule:nonzero}
    .fil3 {fill:#FFCF0F;fill-rule:nonzero}
   ]]>
  </style>
 </defs>
 <g id="Слой_x0020_1">
  <metadata id="CorelCorpID_0Corel-Layer"/>
  <rect class="fil0" x="-5" y="-2" width="22500" height="13500"/>
  <g id="_926693488">
   <path class="fil1" d="M11894 7010c63,38 113,20 118,2 4,-15 23,23 33,15 11,-8 15,-17 15,-28 0,-12 -4,-21 -13,-26 -8,-5 -41,-21 -96,-45 -45,-20 -76,-43 -97,-70 -20,-27 -29,-60 -29,-99 0,-56 20,-103 58,-139 38,-37 88,-55 149,-55 58,0 135,29 220,76l-77 148c-40,34 -46,46 -50,45 -51,-30 -51,-118 -84,-118 -31,0 -46,13 -46,37 0,12 6,22 17,31 11,9 32,19 62,29 55,20 97,43 122,71 25,28 38,62 38,104 0,115 -88,250 -216,250 -67,0 -135,-70 -211,-117l7 -66 80 -45 -1 -1 -1 0zm450 -425l186 0 0 25 0 31 0 322c0,20 4,37 14,49 9,13 21,20 38,20 36,0 62,-27 54,-79l-46 -302 46 -66 186 0 0 340c0,87 -20,147 -46,204 -28,57 -115,119 -191,119 -85,0 -145,-80 -182,-126 -38,-46 -45,-106 -56,-176l-47 -292 47 -70 -1 0 -1 1zm799 0l0 75c1,-1 54,-92 143,-92 55,0 101,29 135,86 34,57 51,133 51,230 0,93 -19,175 -49,234 -33,65 -99,135 -173,139 -57,3 -66,-97 -102,-162l-3 0 0 319 -55 69 -130 -69 -51 -757 51 -72 186 0 -2 0 -1 0zm143 292c0,-97 -24,-145 -73,-145 -46,0 -70,49 -70,147 0,101 23,151 70,151 49,0 73,-51 73,-152l0 -1zm557 135l150 0c-29,131 -104,243 -223,243 -75,0 -113,-92 -157,-148 -44,-56 -105,-128 -105,-228 0,-93 46,-187 97,-231 54,-47 111,-82 182,-82 44,0 85,13 125,41 40,28 69,63 88,108 19,45 29,115 31,212l-54 69 -256 -69c3,88 2,153 48,153 8,0 18,-4 28,-11 8,-5 3,-2 11,-7 3,-2 37,-46 37,-47l0 -2 -1 0zm-121 -189l135 0c-2,-41 -6,-71 -17,-92 -11,-20 -27,-29 -49,-29 -24,0 -42,10 -54,29 -11,20 -16,50 -16,92l1 0 0 1zm593 -238l0 98 2 0c45,-77 91,-115 139,-115 7,0 17,2 30,4l0 182c-1,3 -54,67 -54,67 -11,-1 2,-73 -8,-73 -68,0 -102,45 -102,132l0 292 -54 69 -132 -69 -47 -518 47 -69 178 0z"/>
   <path class="fil2" d="M11937 8233l-35 0 0 -76 -52 76 -52 -76 0 76 -35 0 0 -138 35 0 52 76 52 -76 35 0 0 138zm156 0l0 -87c0,-35 -17,-52 -52,-52l-80 0 0 35 80 0c12,0 17,6 17,17l0 0 -60 0c-29,0 -43,14 -43,42 0,29 14,44 43,44l95 0 0 1zm-104 -43c0,-6 3,-8 9,-8l60 0 0 17 -60 0c-6,0 -9,-3 -9,-9zm122 0c0,28 14,43 43,43l86 0 0 -35 -86 0c-6,0 -8,-3 -8,-8 0,-6 3,-9 8,-9l52 0c29,0 43,-15 43,-44 0,-28 -14,-42 -43,-42l-86 0 0 35 86 0c5,0 8,3 8,8 0,6 -3,9 -8,9l-52 0c-29,0 -43,14 -43,43zm294 43l0 -87c0,-35 -17,-52 -52,-52l-80 0 0 35 80 0c12,0 17,6 17,17l0 0 -60 0c-29,0 -43,14 -43,42 0,29 14,44 43,44l95 0 0 1zm-104 -43c0,-6 3,-8 9,-8l60 0 0 17 -60 0c-6,0 -9,-3 -9,-9zm216 -43l-60 0 0 35 60 0c6,0 9,3 9,10 0,5 -3,8 -9,8l-95 0 0 35 95 0c29,0 43,-14 43,-42 0,-10 -4,-19 -12,-27 8,-7 12,-16 12,-25 0,-29 -15,-44 -43,-44l-95 0 0 35 95 0c6,0 9,3 9,10 0,5 -3,8 -9,8l0 -2 0 -1zm199 87l-35 0 0 -15c-18,12 -35,18 -52,18 -35,0 -52,-17 -52,-52l0 -89 35 0 0 89c0,11 6,17 17,17 23,-3 40,-14 52,-32l0 -74 35 0 0 138 0 1zm156 0l-35 0 0 -52 -69 0 0 52 -35 0 0 -138 35 0 0 52 69 0 0 -52 35 0 0 138zm314 17c0,35 -18,52 -53,52l-51 0 0 -35 52 0c12,0 17,-6 17,-17l0 -17 -52 0c-35,0 -52,-17 -52,-52l0 -35c0,-35 17,-52 52,-52l87 0 0 155zm-35 -121l-52 0c-12,0 -17,6 -17,17l0 35c0,12 6,17 17,17l52 0 0 -69zm195 49l0 -35c0,-35 -18,-52 -53,-52l-36 0c-35,0 -53,17 -53,52l0 35 0 3c0,35 17,52 52,52l83 0 0 -35 -83 0c-12,0 -17,-6 -17,-17l0 -3 106 0 -1 0 1 0zm-106 -35c0,-12 6,-17 17,-17l38 0c12,0 17,6 17,17l-71 0zm264 -14l-52 0 0 104 -35 0 0 -104 -52 0 0 -35 138 0 0 35 1 0zm156 104l-87 0c-35,0 -52,-17 -52,-52l0 -35c0,-35 17,-52 52,-52l87 0 0 35 -87 0c-12,0 -17,6 -17,17l0 35c0,12 6,17 17,17l87 0 0 35zm173 0l-49 0 -54 -52 -17 0 0 52 -35 0 0 -138 35 0 0 52 17 0 55 -52 49 0 -71 69 71 69 -1 0zm147 0l-35 0 0 -15c-18,12 -35,18 -52,18 -35,0 -52,-17 -52,-52l0 -89 35 0 0 89c0,11 6,17 17,17 23,-3 40,-14 52,-32l0 -74 35 0 0 138 0 1zm67 -69l-48 69 42 0 27 -38 27 38 42 0 -48 -69 48 -69 -42 0 -27 39 -27 -39 -42 0 48 69zm411 69l-49 0 -54 -52 -17 0 0 52 -35 0 0 -138 35 0 0 52 17 0 55 -52 49 0 -71 69 71 69 -1 0zm147 -49c0,35 -17,52 -52,52l-35 0c-35,0 -52,-17 -52,-52l0 -41c0,-35 17,-52 52,-52l35 0c35,0 52,17 52,52l0 41zm-35 0l0 -41c0,-12 -6,-17 -17,-17l-35 0c-12,0 -17,6 -17,17l0 41c0,12 6,17 17,17l35 0c12,0 17,-6 17,-17zm156 49l0 -104 -35 0c-10,0 -15,6 -17,17l-17 87 -33 0 16 -87c4,-35 22,-52 52,-52l69 0 0 138 -35 0 0 1zm54 -94c0,-29 14,-44 43,-44l95 0 0 138 -35 0 0 -52 -15 0 -43 52 -45 0 43 -52c-29,0 -43,-14 -43,-42l1 0 -1 0zm104 -10l-60 0c-6,0 -9,3 -9,10 0,5 3,8 9,8l60 0 0 -17 0 -1zm190 104l-87 0c-35,0 -52,-17 -52,-52l0 -35c0,-35 17,-52 52,-52l87 0 0 35 -87 0c-12,0 -17,6 -17,17l0 35c0,12 6,17 17,17l87 0 0 35zm156 -49c0,35 -17,52 -52,52l-35 0c-35,0 -52,-17 -52,-52l0 -41c0,-35 17,-52 52,-52l35 0c35,0 52,17 52,52l0 41zm-35 0l0 -41c0,-12 -6,-17 -17,-17l-35 0c-12,0 -17,6 -17,17l0 41c0,12 6,17 17,17l35 0c12,0 17,-6 17,-17zm208 49l-49 0 -54 -52 -17 0 0 52 -35 0 0 -138 35 0 0 52 17 0 55 -52 49 0 -71 69 71 69 -1 0z"/>
   <path class="fil3" d="M11816 6036c-8,6 -12,14 -12,25l0 0c0,8 4,19 13,27 3,3 7,6 13,11 14,10 38,21 70,26 -27,32 -63,63 -105,88 -77,47 -170,81 -252,99l-55 12 39 41c8,9 43,30 89,44 4,2 10,2 15,4 -69,43 -149,63 -230,64 -166,4 -270,-89 -285,-88 -85,4 -323,86 -335,97 84,-56 40,4 217,11 127,6 270,54 403,45 119,-3 241,-41 332,-129l58 -58 -82 3c-23,1 -45,-2 -65,-6 63,-21 127,-49 183,-84 71,-44 130,-99 159,-164l26 -58 -63 14c-26,6 -46,4 -63,-1 13,-11 29,-22 46,-34 92,-67 206,-150 158,-252 -47,-101 -234,-86 -317,-80l-10 1c9,-13 23,-28 45,-41l60 -38 -68 -20c-87,-25 -165,-30 -247,-19 -53,7 -105,23 -163,44 13,-15 28,-34 46,-54l63 -67 -91 14c-152,23 -271,66 -359,133 -28,21 -51,43 -72,67 -29,34 -117,109 -183,147 25,-6 147,29 174,26 26,-46 76,-156 119,-189 63,-47 144,-81 244,-105 -19,25 -30,45 -38,58 -4,8 -6,14 -8,19 -6,19 -1,34 12,42l2 1c4,2 7,4 12,4l9 2 8 -4c86,-38 161,-64 234,-75 53,-7 105,-7 159,2 -22,25 -31,49 -36,62l-54 41 75 11 20 3 2 0 2 0c2,0 0,0 2,0 2,0 4,1 9,1 9,0 20,-1 33,-2 70,-6 226,-18 255,43 25,54 -65,120 -139,173 -32,23 -62,45 -80,65l2 -1 6 1z"/>
   <path class="fil3" d="M11825 6048c-2,2 -3,3 -4,4l0 0c-1,2 -2,4 -2,6l0 2c0,2 1,4 2,7 2,3 3,6 6,8 2,2 3,3 4,4 2,2 4,3 6,4 6,4 16,11 29,15 10,4 21,6 33,8l28 4 -18 22c-13,17 -29,32 -46,47 -19,15 -39,30 -62,44 -38,23 -80,44 -121,60 -46,18 -93,32 -137,41l-28 6 20 21c4,4 15,12 33,21l0 0c13,6 30,13 49,19l0 0c3,1 5,2 6,2 2,0 4,1 6,2l37 9 -32 20c-34,21 -71,37 -110,48 -41,12 -84,18 -127,19 -132,4 -225,-53 -269,-79 -11,-6 -14,-11 -15,-11 -32,2 -88,15 -144,31 -30,9 -60,18 -88,27 22,7 55,15 113,19 55,2 111,13 169,22 78,14 157,28 233,23l1 0c61,-2 122,-13 180,-35 52,-20 100,-49 141,-89l30 -29 -42 2c-12,1 -23,0 -34,-2 -13,-2 -24,-4 -35,-6l-55 -13 54 -17c32,-11 64,-23 97,-37 29,-13 58,-28 84,-45 37,-22 69,-47 96,-75 24,-25 44,-53 57,-81l13 -29 -32 7c-13,3 -25,4 -37,4 -13,0 -24,-2 -34,-5l-28 -9 23 -19c13,-11 29,-21 45,-33l1 -1c88,-63 196,-143 153,-233 -43,-91 -222,-77 -302,-71l0 0 -10 1 -33 3 20 -28c5,-7 12,-15 20,-23 8,-7 18,-15 29,-23l30 -20 -35 -11c-42,-13 -82,-20 -122,-23 -39,-3 -79,-2 -118,4 -26,4 -52,10 -79,16 -27,7 -54,16 -81,27l-52 20 34 -44c6,-9 14,-18 22,-27l0 0c7,-8 15,-18 25,-28l32 -35 -46 7c-75,12 -141,28 -200,49 -58,21 -109,48 -152,80 -13,10 -25,20 -37,31 -12,11 -23,22 -33,34 -16,20 -51,52 -90,83l0 0c-19,15 -38,29 -57,42 15,3 31,6 46,10 28,6 56,12 71,13 4,-9 11,-20 16,-32 28,-54 66,-127 103,-155 32,-24 70,-45 111,-63 41,-18 88,-32 139,-44l41 -10 -25 34c-8,11 -15,21 -21,30 -6,11 -12,20 -15,26 -2,4 -3,6 -4,9 -2,2 -2,5 -3,6 -2,6 -2,11 -1,15 1,4 3,6 6,9l2 1 0 0c1,1 2,1 3,2 1,0 2,1 3,1l0 0 4 1 4 -2 0 0c44,-20 84,-36 122,-48 39,-13 78,-22 115,-28 28,-4 54,-6 81,-5 28,0 55,3 83,8l28 5 -19 21c-11,12 -17,23 -22,32l0 0c-5,10 -8,18 -11,24l-2 4 -4 3 -23 19 38 5 20 3 0 0 1 0 1 0c2,0 3,0 4,0l3 0 0 0c1,0 2,0 4,0l0 0c7,0 18,-1 31,-2l1 0c36,-3 92,-7 145,-4 56,4 108,19 125,55 16,35 -2,71 -35,105 -29,31 -71,62 -108,88 -15,12 -31,22 -45,33 -13,11 -25,20 -34,29l-1 1 -1 1 2 2 2 2zm-32 -9c3,-6 7,-11 13,-15 11,-11 22,-21 37,-32 13,-11 29,-22 46,-34 37,-27 76,-55 105,-84 24,-25 38,-49 29,-70 -11,-23 -53,-34 -99,-37 -50,-4 -105,1 -140,4l-1 0c-13,1 -23,2 -34,2l0 0c-2,0 -4,0 -6,0 -3,0 -4,0 -4,0 -1,0 -2,0 -2,0l-1 0 -2 0 -1 0 -2 0 0 0 -20 -3 -75 -11 -37 -5 29 -23 49 -38c2,-6 6,-15 11,-24l0 0c3,-5 6,-11 10,-17 -18,-2 -35,-4 -52,-4 -25,0 -51,2 -77,5 -36,5 -72,14 -110,27 -38,13 -79,28 -120,47l0 0 -8 4 -4 2 -4 -1 -9 -2 0 0c-3,-1 -6,-2 -10,-2 -3,-1 -6,-2 -8,-4l0 0 -2 -1 -1 -1c-10,-6 -16,-15 -20,-27 -3,-10 -2,-21 2,-33 1,-2 2,-6 4,-10 2,-3 3,-6 5,-11 4,-7 9,-16 15,-27 -34,10 -65,20 -94,32 -40,17 -75,37 -105,59 -30,23 -66,93 -93,144 -8,15 -15,29 -21,40l-4 6 -7 1c-15,2 -52,-5 -88,-13 -37,-7 -75,-15 -85,-13l-109 25 97 -54c29,-16 63,-40 92,-64l0 0c38,-29 71,-61 87,-80 11,-13 23,-25 36,-37 13,-12 26,-22 40,-33 46,-34 99,-63 161,-85 61,-22 130,-39 206,-51l91 -14 45 -6 -31 33 -63 67c-3,3 -6,6 -9,10 11,-3 20,-6 30,-9 28,-7 55,-13 82,-17 41,-6 83,-8 124,-5 41,3 84,11 129,23l68 20 33 10 -29 19 -60 38c-5,3 -10,6 -13,10 96,-6 255,-8 301,91 54,113 -66,200 -164,272l-1 1 -13 10c5,-1 11,-2 18,-3l63 -14 30 -6 -13 28 -26 58c-15,32 -37,63 -63,91 -29,29 -63,56 -101,80 -28,17 -58,33 -88,46 -11,5 -22,10 -34,15l77 -2 40 -2 -29 28 -58 58c-45,43 -97,75 -152,97 -61,23 -126,36 -190,37l0 0c-80,5 -161,-9 -241,-23 -57,-10 -113,-20 -164,-22 -84,-4 -122,-20 -144,-29 -6,-2 -11,-4 -15,-5 -23,8 -41,15 -46,18l-3 2 -19 -25c0,0 1,-1 1,-1l0 0c36,-23 51,-29 67,-27 36,-13 80,-28 125,-40 58,-16 115,-30 150,-32 8,-1 18,5 33,15 41,24 129,78 252,74 40,-1 80,-6 120,-18 24,-6 48,-15 71,-27 -12,-4 -23,-9 -32,-13l0 0c-21,-11 -37,-21 -42,-28l-39 -41 -20 -20 28 -6 55 -12c42,-9 88,-23 131,-40 41,-16 80,-36 116,-57 21,-13 40,-27 58,-41 9,-7 18,-15 25,-23 -4,-2 -9,-3 -13,-4 -15,-6 -28,-13 -37,-19 -3,-2 -6,-4 -8,-6 -3,-2 -5,-4 -6,-6 -5,-5 -10,-11 -12,-17 -1,-2 -2,-3 -2,-4l-3 0 0 -15c0,-8 2,-15 4,-21l0 0 -1 -2 -4 2zm-16 -332l0 0z"/>
   <path class="fil4" d="M8013 7513c-147,29 -258,160 -258,316 0,178 144,323 323,323 178,0 323,-144 323,-323 0,-137 -86,-255 -206,-301 5,-28 3,-62 -9,-101 -13,-40 -104,-200 -179,-299 -50,-66 -64,-84 -29,-97 83,-28 331,244 443,315 311,195 525,97 1279,71 -6,35 -9,71 -9,106 0,347 281,627 627,627 347,0 627,-281 627,-627 0,-347 -281,-627 -627,-627 -319,0 -216,58 -335,-195 -42,-89 -95,-187 -146,-281 114,-7 211,-16 281,-27l281 0 0 11c0,15 12,27 27,27l0 0c15,0 27,-12 27,-27l0 -11 2 0 0 11c0,15 12,27 27,27l0 0c15,0 27,-12 27,-27l0 -11 2 0 0 11c0,15 12,27 27,27l0 0c15,0 27,-12 27,-27l0 -11c230,-10 458,61 522,-15 24,-29 -89,-100 -132,-216 -48,-133 11,-327 4,-323 -13,7 -24,15 -36,21 -132,80 -198,133 -357,227 -2,-13 -13,-24 -27,-24l0 0c-15,0 -27,12 -27,27l0 6 -2 1 0 -7c0,-15 -12,-27 -27,-27l0 0c-15,0 -27,12 -27,27l0 16 -2 0 0 -17c0,-15 -12,-27 -27,-27l0 0c-11,0 -20,6 -24,15 3,-52 2,-109 2,-171 0,-126 11,-128 93,-126 46,1 75,5 98,-36 41,-70 0,-677 -64,-885 264,-218 586,-363 745,-556 215,-261 -37,-337 -295,-324 -491,23 -829,307 -962,466 -104,-57 -698,-404 -951,-523 -92,-43 -132,-71 -187,37 -338,669 97,1228 -84,1438 -122,142 -621,37 -1477,37 -152,-9 -187,37 -113,195l97 238c221,508 -114,528 576,560 306,14 692,21 1063,19 -195,152 -413,264 -668,311 -231,43 -474,88 -705,122 -129,20 -150,84 1,194 94,69 206,135 250,164 80,49 165,178 189,260 2,5 3,11 5,15l-1 -1 -1 0zm2386 -1395l0 0 0 -1 0 1zm-1539 619c144,-78 287,-174 416,-293 138,-3 268,-6 387,-12 29,45 65,98 105,164 63,99 96,215 109,332 2,17 3,31 4,45 -447,-192 -720,-242 -1021,-234l1 -2zm1552 -2038c32,-32 65,-63 99,-92 76,-67 155,-134 231,-196 221,-180 408,-315 -49,-243 -255,40 -568,253 -619,306 -2,2 -3,3 -4,4l28 15c144,79 243,144 315,208l0 -1 0 -2z"/>
   <path class="fil5" d="M8030 7595c-55,11 -103,41 -137,83 -33,41 -54,93 -54,151 0,66 27,125 70,169 43,43 103,70 169,70 66,0 125,-27 169,-70 43,-43 70,-103 70,-169 0,-50 -15,-97 -41,-135 -28,-39 -66,-71 -110,-88l-65 -25 -69 14 -1 0 -1 -1zm-268 -23c38,-46 86,-84 139,-110 -11,-21 -25,-43 -41,-64 -28,-38 -58,-71 -86,-88l-19 -12 0 0c10,6 20,13 0,0 -54,-32 -150,-92 -237,-156 -58,-42 -97,-81 -118,-118 -21,-36 -28,-70 -21,-102 6,-37 28,-65 61,-88 28,-19 67,-32 113,-39 228,-34 460,-77 681,-118l21 -4c119,-22 231,-60 336,-109 23,-11 45,-22 66,-34 -97,-1 -191,-2 -284,-3 -181,-3 -352,-8 -502,-15 -534,-25 -538,-47 -562,-274 -8,-74 -20,-181 -88,-336l-1 -2 -97 -238 0 0c-48,-105 -56,-179 -22,-236 37,-61 106,-80 213,-75l0 0 1018 0c558,-11 329,-20 379,-961 11,-205 41,-370 91,-466 88,-175 152,-145 282,-82 6,3 -19,-9 16,7 195,92 588,316 810,443 33,20 63,37 88,49 89,-95 230,-211 415,-300 156,-76 345,-133 560,-144 106,-5 214,4 295,32 55,20 102,49 132,90l0 0c35,46 47,104 31,171 -13,49 -42,105 -93,168 -101,122 -254,221 -418,328 -98,63 -200,130 -298,206 27,115 48,288 59,448 15,205 12,399 -18,449 -47,80 -92,80 -163,78l-11 0c-15,0 2,-32 -11,-16 0,0 -1,1 -1,1l0 6c1,7 4,22 4,51 0,80 0,25 0,44l0 28c7,1 14,2 21,4 9,-2 19,-4 28,-4l0 0c13,0 24,2 36,6 61,-37 109,-69 155,-100 37,-23 175,-140 281,-221 75,-57 133,-89 131,-88 -6,7 -43,42 -97,106 -36,43 -80,169 -71,184l1 1c17,29 68,-22 62,12 -10,49 -33,172 -4,254 17,46 53,88 80,120 56,66 54,63 -6,130 -2,2 55,63 123,109 49,33 117,55 117,55 0,11 -422,-49 -539,-59 -58,-5 -122,-11 -187,-12 -2,2 -3,4 -5,5 -20,20 -48,32 -80,32l0 0c-10,0 -20,-2 -28,-4 -9,2 -19,4 -28,4l0 0c-10,0 -19,-2 -28,-4 -9,2 -18,4 -28,4l0 0c-31,0 -58,-13 -80,-32 -2,-2 -3,-3 -4,-4l-45 0 -3 6 0 -6 -173 0c-32,4 -72,9 -119,13 -11,1 -21,2 -31,3 5,9 10,19 15,28 27,50 50,98 71,142 25,54 41,94 53,123 10,24 -2,28 6,32 4,2 15,-3 53,-5 38,-2 88,-4 147,-4 197,0 375,80 503,208 129,129 208,307 208,503 0,197 -80,375 -208,503 -129,129 -307,208 -503,208 -197,0 -375,-80 -503,-208 -129,-129 -208,-307 -208,-503 0,-6 0,-13 0,-19 -156,7 -292,17 -408,26 -388,29 -572,43 -823,-113 -45,-28 -103,-80 -165,-134l-6 -6c31,55 55,102 62,124 7,24 13,48 14,71l0 3c54,30 99,73 134,123 45,66 71,145 71,230 0,113 -46,214 -119,288 -74,74 -175,119 -288,119 -113,0 -214,-46 -288,-119 -74,-74 -119,-175 -119,-288 0,-97 35,-187 92,-257l-1 2 5 0zm346 -44l3 -15c2,-6 2,-15 1,-24 -1,-11 -4,-22 -7,-37 -5,-16 -32,-66 -66,-124 -30,-51 -66,-105 -98,-147 -30,-39 -49,-64 -59,-91 -28,-75 -6,-112 71,-137 100,-33 242,92 371,205 56,49 109,97 144,118 204,127 371,114 722,88 137,-11 299,-22 510,-29l104 -4 -18 102c-2,15 -4,29 -6,46 -2,15 -2,31 -2,46 0,150 61,285 159,383 98,98 233,159 383,159 150,0 285,-61 383,-159 98,-98 159,-233 159,-383 0,-150 -61,-285 -159,-383 -98,-98 -233,-159 -383,-159 -65,0 -108,2 -139,4 -71,4 -105,5 -145,-18 -43,-25 -55,-56 -80,-117l-5 -13c5,26 9,53 13,80 2,10 2,19 3,27 1,5 1,14 2,25l4 133 -122 -53c-218,-94 -393,-153 -550,-187 -156,-34 -293,-45 -437,-41l-349 8 307 -167c72,-39 144,-83 214,-132 64,-46 126,-96 184,-148l23 -22 32 -1c68,-2 136,-3 202,-5 62,-2 122,-4 182,-6l47 -2 1 1 125 -8c60,-4 113,-8 156,-12 42,-4 82,-9 118,-14l6 -1 6 0c399,0 61,-340 233,-564l88 -891 -7 -23 11 -9 4 -41 -32 32 -59 -53c-32,-28 -71,-58 -120,-90 -50,-33 -109,-68 -178,-105l-18 -10 -9 -5 -2 -1 -97 -54 0 0c-28,-15 -63,-36 -103,-58 -220,-126 -608,-347 -799,-437 -23,-11 1,0 -17,-8 -30,-14 -45,-21 -59,6 -38,76 -63,217 -72,399 -9,183 -2,405 27,640 4,32 7,58 10,79 4,29 7,55 11,78l181 1168 77 -1 -195 152c-103,80 -211,149 -327,205 -117,55 -242,97 -378,122l-21 4c-228,42 -465,87 -687,120 -4,1 -7,2 -11,2 12,11 28,24 49,40 80,58 174,116 226,147 9,5 6,4 0,0l0 0 20 12c48,29 96,80 134,132 41,58 75,123 91,176l0 0c0,1 1,2 2,5l0 0c2,6 1,3 2,5l15 44 4 0 -3 0zm2290 -1218l24 0 29 0 2 0 29 0 24 0 2 0 29 0 31 0c88,-3 174,4 252,12 53,4 101,9 136,11 -30,-37 -63,-83 -83,-140 -21,-59 -26,-125 -23,-185 -10,6 -20,13 -29,20 -59,39 -120,80 -214,135l-12 6 0 1 -2 1 -101 59 -4 -41 -20 4 -2 0 -29 5 -39 113 -1 -1 0 1zm619 17c2,-1 2,-2 3,-2 17,-20 10,-11 -3,2zm-534 -629c4,0 10,0 14,0 6,0 9,0 11,0 10,0 9,11 13,6 12,-21 8,-175 -4,-351 -7,-105 -20,-212 -33,-304l0 649 0 1 0 -1zm0 -907c112,-91 232,-170 348,-245 154,-100 296,-192 379,-294 34,-41 54,-75 60,-101 4,-14 2,-23 -2,-30l0 0c-9,-12 -28,-23 -53,-32 -60,-21 -144,-28 -231,-23 -20,1 -39,2 -58,4 84,11 123,44 131,95 14,88 -97,178 -229,284 -11,9 -22,19 -34,28 -35,29 -72,60 -113,94 -36,30 -74,63 -116,101 -19,16 -34,30 -48,44 -13,12 -24,23 -36,33l0 44 0 1 1 -2zm-1374 1571l-255 -842 -5 0 -346 0 -11 0 -72 0 -28 0 -1072 0 -5 0c-43,-2 -63,-6 -63,-5 -2,3 9,29 32,80l2 4 97 238 0 0c78,178 91,300 100,384 11,97 11,105 401,123 152,7 321,12 497,15 183,3 374,4 562,3l167 -1 -2 -1 2 2zm-1264 792c-11,-6 -31,-20 0,0l0 0zm-88 144c-15,-10 -8,-5 0,0l0 0zm2818 -2856c37,-31 75,-63 115,-97 11,-10 23,-19 34,-28 90,-73 169,-120 168,-127 -3,-20 -46,38 -185,60 -89,14 -190,54 -282,99 -79,38 -149,80 -202,116 39,23 75,45 106,66 29,20 55,38 80,55 163,-152 48,-45 165,-146l1 0zm-1265 2085c-56,50 -114,96 -172,137 63,7 129,18 197,32 132,29 275,74 442,139 -4,-20 -10,-38 -15,-57 -15,-49 -37,-97 -63,-139 -29,-45 -49,-78 -57,-88 -7,-12 -15,-23 -22,-34 -44,2 -89,4 -139,5 -55,2 -113,3 -172,4l1 1z"/>
   <circle class="fil6" cx="8077" cy="7828" r="323"/>
   <ellipse class="fil7" transform="matrix(-0.219858 0.0524698 0.0396445 0.334037 9088.2 4985.25)" rx="1191" ry="3294"/>
   <path class="fil7 str0" d="M11138 5711c-38,-10 -281,223 -163,483 119,259 426,280 460,262 15,-8 123,-98 63,-156 -51,-48 -151,63 -285,17 -61,-21 -139,-84 -166,-153 -37,-92 -2,-223 47,-286 85,-109 528,-43 44,-166l0 -1z"/>
   <polygon class="fil6" points="10984,5821 10551,6102 9833,6216 9833,6395 11117,6393 "/>
   <path class="fil8" d="M8901 3849c-7,2 -15,5 -21,9 122,117 248,514 307,1004 69,576 20,1074 -109,1154 29,28 58,40 86,33 145,-35 204,-555 130,-1164 -72,-608 -248,-1072 -392,-1038l1 1 -1 1z"/>
   <path class="fil9" d="M9234 5436c-639,0 -1266,0 -1914,0 -152,-9 -187,37 -113,195l97 238c221,508 -114,528 576,560 806,38 2176,20 2349,-59 190,-87 175,-245 175,-460 0,-126 11,-128 93,-126 46,1 75,5 98,-36 45,-78 -11,-821 -87,-940 -63,-99 -182,-192 -409,-316 -200,-110 -1076,-617 -1120,-608 251,340 317,1260 255,1552l-1 1 0 -1z"/>
   <path class="fil10" d="M9963 7006c-915,-410 -1126,-231 -2128,-158 836,847 745,594 1970,567l156 -408 1 0z"/>
   <path class="fil8" d="M10476 4565c-68,29 -314,313 -531,605 -211,284 -395,576 -419,649 -27,80 -27,97 60,92 97,-6 340,-602 471,-756 14,-17 269,-310 386,-475 45,-63 34,-113 33,-113l0 -1z"/>
   <path class="fil8" d="M8184 6962l18 23c123,0 1138,-316 766,-324 -85,-2 -330,173 -424,212 -101,41 -254,67 -360,89l0 -1 0 1z"/>
   <path class="fil11" d="M10419 4963c-272,272 -443,532 -672,922 -50,85 -135,145 -4,370 77,131 172,300 241,446 120,254 16,195 335,195 347,0 627,281 627,627 0,347 -281,627 -627,627 -347,0 -627,-281 -627,-627 0,-96 21,-186 59,-267 97,-205 147,-177 128,-332 -14,-117 -46,-233 -109,-332 -292,-460 -261,-378 -457,-186 -401,394 -968,556 -1231,603 -142,26 -152,14 -74,116 75,98 166,259 179,299 60,193 -126,248 -177,71 -23,-81 -108,-210 -189,-260 -45,-28 -156,-95 -250,-164 -151,-110 -130,-173 -1,-194 226,-34 654,-114 705,-122 1047,-195 1463,-1470 2237,-2151 76,-67 155,-134 231,-196 221,-180 408,-315 -49,-243 -200,32 -444,167 -557,259l-63 51c-2,1 -49,-27 -53,-30 -3,-3 45,-54 76,-84 165,-160 470,-362 883,-382 258,-13 510,63 295,324 -182,221 -580,379 -858,658l-1 1 3 1z"/>
   <path class="fil7" d="M10974 5864c-26,13 -57,181 -3,310 55,129 147,245 173,231 12,-6 15,-37 11,-82 -6,-55 -94,-97 -120,-178 -20,-62 15,-182 11,-193 -23,-63 -56,-96 -71,-88l-2 0z"/>
   <path class="fil12 str1" d="M10434 6064l0 0c18,0 32,76 32,169l0 29c0,94 -14,169 -32,169l0 0c-18,0 -32,-76 -32,-169l0 -29c0,-94 14,-169 32,-169z"/>
   <path class="fil13" d="M10509 6064l0 0c24,0 44,76 44,169l0 29c0,94 -20,169 -44,169l0 0c-24,0 -44,-76 -44,-169l0 -29c0,-94 20,-169 44,-169z"/>
   <path class="fil14" d="M10586 6064l0 0c15,0 27,76 27,169l0 29c0,94 -12,169 -27,169l0 0c-15,0 -27,-76 -27,-169l0 -29c0,-94 12,-169 27,-169z"/>
   <circle class="fil7" cx="10322" cy="7557" r="529"/>
   <circle class="fil15" cx="10318" cy="7537" r="113"/>
   <path class="fil16" d="M10318 6893c-176,0 -335,71 -450,187 -115,115 -187,274 -187,450 0,176 71,335 187,450 115,115 274,187 450,187 176,0 335,-71 450,-187 115,-115 187,-274 187,-450 0,-176 -71,-335 -187,-450 -115,-115 -274,-187 -450,-187zm-357 281c92,-92 217,-147 357,-147 139,0 265,56 357,147 92,92 147,217 147,357 0,139 -56,265 -147,357 -92,92 -217,147 -357,147 -139,0 -265,-56 -357,-147 -92,-92 -147,-217 -147,-357 0,-139 56,-265 147,-357z"/>
   <path class="fil17" d="M11405 5731c211,0 382,151 382,337 0,108 -141,152 -231,214 -65,45 -63,122 -151,122 -211,0 -382,-151 -382,-337 0,-187 171,-337 382,-337z"/>
   <path class="fil18" d="M11818 6055c-2,1 39,43 114,27 -55,122 -239,206 -385,239 10,10 74,46 152,43 -173,169 -487,126 -600,16 173,-1 315,-72 381,-153 -16,-4 -5,-3 -30,-2 -76,4 -98,-15 -100,-18 65,-103 259,-30 304,-267 -38,-55 -96,-73 -169,-75 -82,-2 -156,49 -233,60 -1,-15 26,-67 92,-97 -24,-2 -284,-24 -398,94 -1,-21 41,-113 54,-131 72,-113 217,-190 424,-223 -77,82 -97,131 -92,132 166,-74 293,-102 448,-56 -65,41 -70,89 -73,92l20 3c2,0 6,1 10,1 38,0 256,-34 298,55 48,102 -156,198 -214,261l1 -2 -2 1z"/>
   <path class="fil3" d="M11817 7051c63,38 109,56 138,56 15,0 28,-4 38,-12 11,-8 15,-17 15,-28 0,-12 -4,-21 -13,-26 -9,-5 -41,-21 -96,-45 -45,-20 -76,-43 -97,-70 -20,-27 -29,-60 -29,-99 0,-56 20,-103 58,-139 38,-37 88,-55 149,-55 58,0 130,23 216,71l-71 132c-55,-34 -101,-51 -136,-51 -31,0 -46,13 -46,37 0,12 6,22 17,31 11,9 32,19 62,29 55,20 97,43 122,71 25,28 38,62 38,104 0,60 -20,109 -60,147 -40,38 -91,58 -153,58 -67,0 -139,-23 -216,-71l63 -138 -2 -2 0 -3zm475 -398l186 0 0 378c0,20 4,37 14,49 9,13 21,20 38,20 36,0 54,-27 54,-79l0 -367 186 0 0 340c0,87 -20,152 -61,198 -41,46 -99,69 -175,69 -85,0 -147,-23 -184,-71 -38,-46 -56,-105 -56,-176l0 -362 -1 0zm799 0l0 75 3 0c41,-61 88,-92 139,-92 55,0 101,29 135,86 34,57 51,133 51,230 0,93 -18,168 -52,225 -35,57 -80,86 -133,86 -57,0 -104,-33 -139,-98l-3 0 0 319 -186 0 0 -829 186 0 -1 0 0 -1zm143 292c0,-97 -24,-145 -73,-145 -46,0 -70,49 -70,147 0,101 23,151 70,151 49,0 73,-51 73,-152l0 -1zm570 116l156 0c-29,131 -105,198 -224,198 -75,0 -133,-28 -177,-85 -44,-56 -65,-135 -65,-234 0,-93 21,-167 65,-223 44,-56 101,-84 173,-84 44,0 85,13 125,41 40,28 69,63 88,108 19,45 29,115 31,212l-310 0c3,88 27,130 72,130 15,0 29,-6 42,-17 13,-12 20,-27 22,-45l1 -1 0 -1zm-135 -170l135 0c-2,-41 -6,-71 -17,-92 -11,-20 -27,-29 -49,-29 -24,0 -42,10 -54,29 -11,20 -16,50 -16,92l1 0 0 1zm593 -238l0 98 2 0c45,-77 91,-115 139,-115 7,0 17,2 30,4l0 182c-23,-4 -44,-6 -63,-6 -68,0 -102,45 -102,132l0 292 -186 0 0 -588 178 0 1 1z"/>
   <path class="fil2" d="M12151 7887l-140 0 -49 -105c-11,-24 -20,-40 -27,-46 -6,-6 -15,-10 -27,-10l0 160 -125 0 0 -404 125 0 0 155c11,-1 20,-4 25,-12 6,-7 15,-28 28,-62 10,-25 19,-43 28,-54 10,-11 25,-19 46,-23 21,-4 55,-7 101,-7l0 85 -6 0c-21,0 -37,4 -47,12 -11,8 -19,21 -25,39 -6,19 -14,32 -21,41 -7,9 -18,16 -31,21 18,6 34,16 47,30 13,15 28,37 43,67l55 110 0 2 2 -1zm29 -202c0,-66 19,-118 55,-154 37,-37 88,-55 154,-55 67,0 119,18 156,54 37,37 55,87 55,152 0,47 -8,86 -23,116 -15,30 -39,54 -69,71 -30,17 -67,25 -113,25 -46,0 -84,-7 -114,-21 -29,-15 -54,-38 -72,-69 -19,-31 -28,-71 -28,-118l-1 0zm125 0c0,41 7,71 23,88 15,18 37,27 63,27 27,0 47,-9 63,-26 15,-18 22,-49 22,-94 0,-38 -7,-66 -23,-84 -15,-18 -37,-27 -63,-27 -25,0 -46,9 -61,27 -15,18 -23,47 -23,88l-1 1zm732 201l-125 0 0 -305 -97 0 0 124c0,51 -3,88 -8,113 -5,23 -19,41 -38,53 -20,11 -52,17 -97,17 -13,0 -29,-2 -46,-4l0 -82 19 0c17,0 29,-4 36,-11 6,-7 11,-21 11,-41l0 -267 347 0 0 404 1 0 -2 0zm439 0l0 -404 -208 0c-38,0 -68,3 -88,10 -21,6 -37,20 -49,37 -13,18 -19,40 -19,66 0,22 4,41 14,58 10,16 23,29 39,40 11,6 25,12 44,16 -15,5 -26,10 -32,15 -4,3 -11,11 -20,21 -9,11 -15,20 -18,25l-61 117 141 0 66 -123c8,-16 16,-27 23,-31 9,-6 20,-10 30,-10l11 0 0 164 125 0 2 0 -1 -1zm-125 -239l-53 0c-6,0 -17,-2 -33,-6 -8,-2 -15,-6 -20,-13 -5,-6 -8,-15 -8,-23 0,-13 4,-23 13,-30 8,-7 23,-11 46,-11l55 0 0 82 0 1zm477 75l109 33c-7,30 -20,56 -35,77 -15,21 -36,37 -59,46 -23,11 -54,15 -89,15 -44,0 -80,-6 -108,-20 -28,-13 -52,-36 -71,-67 -20,-32 -30,-73 -30,-123 0,-66 18,-118 54,-154 36,-36 86,-54 151,-54 51,0 91,11 120,31 29,21 51,53 65,95l-110 24c-4,-13 -8,-21 -12,-27 -7,-10 -15,-17 -26,-22 -11,-5 -21,-7 -34,-7 -28,0 -50,11 -65,34 -11,17 -17,44 -17,80 0,45 6,75 21,92 13,16 32,25 58,25 23,0 42,-6 54,-20 13,-13 21,-32 27,-58l-1 -1zm537 165l-140 0 -49 -105c-11,-24 -20,-40 -27,-46 -6,-6 -15,-10 -27,-10l0 160 -125 0 0 -404 125 0 0 155c11,-1 20,-4 25,-12 6,-7 15,-28 28,-62 10,-25 19,-43 28,-54 10,-11 25,-19 46,-23 21,-4 55,-7 101,-7l0 85 -6 0c-21,0 -37,4 -47,12 -11,8 -19,21 -25,39 -6,19 -14,32 -21,41 -7,9 -18,16 -31,21 18,6 34,16 47,30 13,15 28,37 43,67l55 110 0 2 2 -1zm293 -66l-141 0 -20 66 -127 0 152 -404 137 0 152 404 -130 0 -20 -66 -2 0 -1 0zm-27 -88l-45 -145 -45 145 88 0 1 0z"/>
  </g>
 </g>
</svg>
