<?xml version="1.0" encoding="UTF-8"?>
<!DOCTYPE svg PUBLIC "-//W3C//DTD SVG 1.1//EN" "http://www.w3.org/Graphics/SVG/1.1/DTD/svg11.dtd">
<!-- Creator: CorelDRAW X6 -->
<svg xmlns="http://www.w3.org/2000/svg" xml:space="preserve" width="225.213mm" height="134.959mm" version="1.1" style="shape-rendering:geometricPrecision; text-rendering:geometricPrecision; image-rendering:optimizeQuality; fill-rule:evenodd; clip-rule:evenodd"
viewBox="0 0 22521 13496"
 xmlns:xlink="http://www.w3.org/1999/xlink">
 <defs>
  <style type="text/css">
   <![CDATA[
    .fil15 {fill:none}
    .fil18 {fill:#3B7D6B}
    .fil5 {fill:#64AD99}
    .fil22 {fill:#7A5407}
    .fil26 {fill:#7A5D52}
    .fil6 {fill:#7BC8BE}
    .fil1 {fill:#856558}
    .fil17 {fill:#86BEB1}
    .fil20 {fill:#9C7321}
    .fil25 {fill:#9E7968}
    .fil12 {fill:#A2DCD0}
    .fil7 {fill:#ACE0DC}
    .fil21 {fill:#B3852E}
    .fil11 {fill:#B4F0EB}
    .fil8 {fill:#C59334}
    .fil23 {fill:#CCAA7D}
    .fil14 {fill:#D4B894}
    .fil3 {fill:#E3E0C1}
    .fil4 {fill:#E6CCAA}
    .fil9 {fill:#F3AF30}
    .fil24 {fill:#F3B02E}
    .fil16 {fill:#F4F8F9}
    .fil0 {fill:#F5F1C9}
    .fil10 {fill:#F8DB42}
    .fil27 {fill:#86BEB1;fill-rule:nonzero}
    .fil2 {fill:#CAC395;fill-rule:nonzero}
    .fil13 {fill:#F4F8F9;fill-rule:nonzero}
    .fil19 {fill:#F8DB42;fill-rule:nonzero}
   ]]>
  </style>
 </defs>
 <g id="Слой_x0020_1">
  <metadata id="CorelCorpID_0Corel-Layer"/>
  <rect class="fil0" x="25" y="8" width="22454" height="13500"/>
  <g id="_926692432">
   <path class="fil1" d="M13411 5327c9,5 19,12 28,18m-9 472c-4,0 -10,1 -14,1m1040 2052l-3 0c10,-265 -143,-528 -464,-713 6,-22 13,-44 18,-66 28,-117 93,-611 7,-780 -39,-116 -209,-220 -462,-295 48,-35 125,-59 239,-62 68,-2 117,-28 139,-64 12,-19 17,-40 15,-62 -2,-22 -11,-43 -27,-65 -43,-55 -140,-103 -300,-109 -52,-2 -91,-25 -109,-56 -7,-13 -11,-26 -10,-39 1,-13 6,-28 16,-41 30,-39 102,-72 230,-73 93,0 166,-41 200,-92 13,-21 22,-44 22,-67 0,-23 -7,-47 -24,-68 -64,-82 -383,-136 -378,-134 2,5 -12,31 -5,38 18,20 56,48 104,48 140,-1 218,30 249,71 11,14 16,30 16,45 0,15 -5,31 -15,47 -28,42 -89,75 -169,75 -141,1 -223,39 -259,88 -15,20 -22,40 -23,62 -1,22 4,42 14,61 23,41 74,73 140,74 148,5 235,47 272,94 12,15 18,30 20,45 1,13 -2,27 -9,39 -16,26 -54,45 -108,46 -140,4 -230,39 -282,87 -93,-26 -196,-48 -308,-66 14,-1 29,-2 44,-3 75,-2 128,-31 154,-73 8,-13 14,-28 17,-43 2,-10 2,-21 1,-31 0,-2 -1,-4 -1,-6 -4,-23 -13,-46 -30,-68l0 0c-46,-58 -147,-109 -315,-116 -45,-2 -78,-21 -92,-46 -5,-9 -8,-19 -7,-30 1,-10 4,-21 13,-30 27,-36 93,-65 214,-65 88,0 160,-35 201,-82 4,-5 9,-11 13,-16l2 -4c16,-24 24,-50 24,-77 0,-28 -9,-55 -28,-80 -87,-111 -216,-65 -300,-100 -135,-58 -14,-82 125,-80 57,1 101,-33 101,-76 0,-155 0,30 -227,32 -71,1 -202,-34 -150,114 19,54 103,93 156,93 134,-1 206,27 235,64 8,11 13,22 12,33 0,12 -4,24 -13,36 -3,4 -5,8 -9,12 -16,18 -40,34 -70,44 -22,7 -47,12 -74,12 -148,1 -235,43 -274,95 -17,22 -26,48 -28,72 -2,25 4,49 17,71 26,47 83,82 156,84 253,9 383,180 174,186 -103,3 -181,22 -237,52 -153,-17 -317,-26 -489,-26 -57,0 -115,1 -170,3 5,-265 222,-490 210,-735 -8,-165 -12,-224 -76,-359 4,2 9,4 13,4 13,2 27,4 40,5 30,5 72,7 116,5 547,-8 268,-326 15,-545 88,-131 144,-286 156,-453 7,-48 7,-100 -2,-153l0 0 0 -4c2,-111 -26,-224 -100,-339 -155,-299 -468,-502 -828,-502 -140,0 -273,30 -392,86 -126,-38 -261,-57 -400,-57 -91,0 -178,9 -265,25 -236,28 -561,152 -800,105 -191,-38 -145,-193 -232,-193 -186,1 -192,664 -160,1157 -78,-19 -120,-13 -91,54 49,112 159,89 -62,73 -92,-6 -104,46 -67,108 63,105 188,117 132,124 -239,32 -77,169 151,187 5,34 13,68 21,101 -40,17 -88,34 -143,51 -378,115 -1410,260 -1618,706 -151,322 82,456 389,373 447,-122 1102,-565 1208,-626 100,-58 200,-114 292,-163 239,443 706,744 1245,744 369,0 704,-141 955,-372 13,59 39,100 138,119 34,6 61,0 82,-16 -91,258 -808,545 -1084,706 -282,164 -195,342 -143,634 -264,0 -510,160 -413,469 -87,109 -153,235 -176,352 -34,176 11,380 192,579 509,942 3764,1581 3806,-264l-2 -4z"/>
   <path class="fil2" d="M14336 7980l4 -114c4,-112 -27,-225 -95,-330 -67,-104 -171,-200 -311,-281l-77 -45 24 -85c4,-12 6,-22 9,-31 4,-16 7,-27 8,-31 16,-67 46,-268 48,-452 1,-106 -6,-202 -31,-250l-3 -5 -4 -10c-11,-31 -46,-65 -100,-101 -70,-45 -168,-86 -286,-122l-28 -8 -13 -4c-43,-12 -91,-23 -141,-34 -52,-11 -103,-21 -155,-30l-150 -24 -5 3 -34 -4c-76,-8 -154,-14 -234,-19 -75,-4 -156,-6 -243,-6 -44,0 -72,0 -83,0 -26,1 -54,1 -83,3l-120 4 3 -120c3,-132 46,-246 93,-356 -152,201 -523,387 -816,533 -106,53 -201,100 -264,136 -172,100 -147,220 -111,398 9,42 18,87 23,118l23 134 -135 0c-50,0 -100,7 -146,22 -53,17 -99,43 -130,78 -28,32 -45,74 -45,124 365,721 -4836,725 1361,1768 369,88 761,123 1115,83 343,-39 649,-147 857,-347 150,-144 250,-340 277,-594l-1 0zm-1750 1371c-3045,641 -6234,-1297 -2838,-2201 365,-97 693,-176 776,-174 23,-174 148,-274 309,-326 25,-8 51,-14 78,-20 -55,-269 -89,-451 222,-631 74,-43 169,-91 276,-143 224,-112 500,-249 651,-375 -12,-6 -22,-14 -32,-22 -114,87 -239,159 -376,212 -172,67 -359,104 -553,104 -285,0 -553,-79 -782,-216 -204,-122 -377,-291 -505,-490 -13,7 -27,15 -41,23 -55,30 -105,59 -152,86 -16,9 -45,28 -83,52 -222,141 -757,478 -1151,586 -108,30 -210,36 -295,20 -81,-14 -149,-48 -199,-100 -53,-55 -84,-127 -85,-215 -1,-69 17,-148 57,-236 190,-405 912,-578 1398,-693 84,-20 161,-39 222,-55 -35,-15 -65,-32 -87,-50l0 0c-32,-26 -55,-57 -65,-91 -14,-48 -8,-92 23,-133 -10,-12 -19,-25 -28,-39 -25,-43 -39,-87 -35,-128 2,-25 9,-48 22,-70 13,-22 31,-40 55,-54 17,-10 37,-18 59,-22 -4,-60 27,-100 86,-126 4,-2 7,-3 11,-4 -4,-98 -8,-201 -8,-304 -1,-196 9,-387 37,-529 36,-188 110,-314 239,-323 1,0 5,0 12,0l1 0c107,0 134,54 168,124 13,26 30,59 86,71 135,27 320,-14 491,-54 96,-22 187,-42 271,-52 44,-8 90,-14 137,-19 50,-4 98,-7 143,-7 74,0 146,5 219,16 58,8 117,21 173,35 57,-23 115,-42 175,-56 73,-16 148,-24 225,-24 198,0 383,56 542,152 163,99 297,240 385,409 41,65 70,131 89,195 18,64 26,127 26,190 4,30 7,59 7,89 0,33 -2,64 -6,91 -7,91 -25,177 -53,258 -19,55 -42,108 -70,158 115,108 222,230 256,341 30,98 22,183 -46,244 21,-1 41,1 60,2 13,1 24,2 29,2 77,-1 111,-34 126,-49 186,-183 271,118 178,239 6,4 41,26 48,30 6,-39 22,-137 100,-123 70,13 43,135 128,129 48,-4 122,-7 195,10 109,26 198,102 198,219 0,23 -4,47 -11,69 -6,21 -16,41 -30,61 -30,44 -74,83 -129,109 -42,20 -91,32 -144,35 27,6 52,13 74,22 77,28 133,68 168,113l0 0c14,19 26,38 34,57 9,22 14,44 17,66 3,23 1,47 -4,69l0 0c-5,22 -14,44 -28,64 -23,37 -58,68 -104,89 -4,2 -8,4 -13,5 5,4 12,7 17,11 95,60 161,131 190,209 41,83 54,214 53,351 -2,193 -32,405 -50,491 1602,1061 -538,2037 -1535,2247l-2 1zm976 -4092c-4,-2 -7,-4 -10,-4 -1,23 -4,45 -11,65l-2 5c4,-1 7,-3 11,-4 52,-18 117,-29 196,-29 9,0 17,-1 24,-2 -28,-5 -63,-9 -106,-9 -39,0 -74,-9 -103,-22l1 -1zm-192 305c-2,-12 9,-48 22,-60 -1,0 -93,23 -126,20 15,6 91,33 105,40zm244 240c-30,-1 -56,-6 -83,-13 0,5 0,10 0,15 0,12 -2,22 -3,30 -1,6 -3,13 -4,20 21,-10 43,-19 67,-26 27,-8 57,-15 88,-20 -20,-3 -41,-4 -65,-5l0 -1zm-539 -246l0 0 0 0 0 0zm-222 -465c-31,-91 -25,-152 4,-194 -56,13 -123,20 -204,22l0 0 -5 0c1,5 3,12 4,17 12,59 14,119 19,207 7,152 -51,283 -110,418 -30,68 -61,137 -80,206 18,0 30,0 39,0 83,0 168,3 254,7 74,4 145,9 215,16 10,-4 21,-8 31,-13 -35,-6 -67,-17 -95,-32 -47,-25 -84,-62 -108,-104 -12,-20 -20,-41 -25,-65l-1 0c-5,-22 -7,-46 -6,-69 2,-24 6,-48 15,-71 8,-21 20,-42 36,-63 34,-45 86,-83 159,-109 16,-5 33,-11 51,-14 -29,-8 -57,-20 -83,-35 -48,-29 -90,-71 -108,-124l-2 -2zm-412 27c-3,-58 -6,-101 -13,-139 -8,-41 -22,-82 -50,-140l-122 -256 265 100 0 0c4,1 4,1 8,1 3,0 4,0 18,2l5 1c12,2 25,4 40,4 17,1 35,1 53,0l2 0c160,-3 208,-22 200,-47 -25,-83 -144,-200 -258,-300l-76 -66 56 -83c39,-58 71,-122 94,-190 22,-66 38,-135 42,-207l1 -10c3,-20 4,-39 4,-57 0,-18 -2,-38 -5,-59l0 0 0 0 -1 -8 0 -4 -1 -5 0 -6c1,-45 -4,-91 -18,-136 -13,-46 -34,-92 -65,-140l-4 -5 -2 -4c-70,-134 -175,-246 -302,-323 -123,-74 -268,-117 -424,-117 -61,0 -120,6 -177,19 -58,13 -115,32 -167,57l-39 18 -41 -13c-58,-17 -119,-30 -182,-39 -60,-9 -122,-13 -187,-13 -44,0 -85,2 -123,5 -39,4 -80,10 -121,17l-8 1c-74,9 -161,28 -249,48 -195,44 -404,91 -586,56 -129,-26 -186,-86 -220,-144 -5,23 -12,55 -19,92 -25,129 -34,304 -33,487 1,135 6,278 15,411l10 154 -15 -4c-4,19 -18,42 -43,71 -29,34 -50,42 -79,41 27,16 45,36 51,83 5,38 1,66 -14,88 15,3 30,4 47,5l90 7 14 89c2,9 4,25 9,47 3,15 6,31 10,47l22 94 -90 38c-23,10 -48,19 -72,28l0 0c-26,9 -53,18 -83,27 -86,26 -187,50 -303,78 -443,105 -1102,262 -1245,568 -26,55 -37,100 -37,136 0,27 8,47 22,60 16,17 43,29 76,35 54,10 121,4 196,-15 361,-99 876,-423 1090,-559 42,-27 74,-47 91,-57 56,-32 109,-62 154,-88 46,-26 92,-51 141,-77l100 -54 54 100c111,207 277,381 479,501 194,117 421,183 665,183 167,0 326,-31 472,-88 152,-59 289,-146 407,-254l143 -132 44 190c3,11 4,18 5,19 4,4 17,9 40,13l230 -177 6 -5z"/>
   <path class="fil3" d="M11377 7045c1557,0 2819,500 2819,1118 0,618 -1262,1118 -2819,1118 -1557,0 -2819,-500 -2819,-1118 0,-618 1262,-1118 2819,-1118z"/>
   <path class="fil4" d="M8631 7990c23,0 42,26 42,59 0,32 -19,59 -42,59 -23,0 -42,-26 -42,-59 0,-32 19,-59 42,-59z"/>
   <path class="fil4" d="M8760 7990c23,0 42,26 42,59 0,32 -19,59 -42,59 -23,0 -42,-26 -42,-59 0,-32 19,-59 42,-59z"/>
   <path class="fil4" d="M8887 7990c23,0 42,26 42,59 0,32 -19,59 -42,59 -23,0 -42,-26 -42,-59 0,-32 19,-59 42,-59z"/>
   <path class="fil4" d="M9028 7990c23,0 42,26 42,59 0,32 -19,59 -42,59 -23,0 -42,-26 -42,-59 0,-32 19,-59 42,-59z"/>
   <path class="fil4" d="M9157 7990c23,0 42,26 42,59 0,32 -19,59 -42,59 -23,0 -42,-26 -42,-59 0,-32 19,-59 42,-59z"/>
   <path class="fil4" d="M8566 8249c-5,-29 -8,-57 -8,-86 0,-7 0,-14 1,-22 6,-4 13,-7 21,-7 23,0 42,26 42,59 0,32 -19,59 -42,59 -4,0 -9,-1 -13,-3l0 -1z"/>
   <path class="fil4" d="M8709 8134c23,0 42,26 42,59 0,32 -19,59 -42,59 -23,0 -42,-26 -42,-59 0,-32 19,-59 42,-59z"/>
   <path class="fil4" d="M8836 8134c23,0 42,26 42,59 0,32 -19,59 -42,59 -23,0 -42,-26 -42,-59 0,-32 19,-59 42,-59z"/>
   <path class="fil4" d="M8977 8134c23,0 42,26 42,59 0,32 -19,59 -42,59 -23,0 -42,-26 -42,-59 0,-32 19,-59 42,-59z"/>
   <path class="fil4" d="M9106 8134c23,0 42,26 42,59 0,32 -19,59 -42,59 -23,0 -42,-26 -42,-59 0,-32 19,-59 42,-59z"/>
   <path class="fil4" d="M8667 8274c23,0 42,26 42,59 0,32 -19,59 -42,59 -23,0 -42,-26 -42,-59 0,-32 19,-59 42,-59z"/>
   <path class="fil4" d="M8796 8274c23,0 42,26 42,59 0,32 -19,59 -42,59 -23,0 -42,-26 -42,-59 0,-32 19,-59 42,-59z"/>
   <path class="fil4" d="M8924 8274c23,0 42,26 42,59 0,32 -19,59 -42,59 -23,0 -42,-26 -42,-59 0,-32 19,-59 42,-59z"/>
   <path class="fil4" d="M9065 8274c23,0 42,26 42,59 0,32 -19,59 -42,59 -23,0 -42,-26 -42,-59 0,-32 19,-59 42,-59z"/>
   <path class="fil4" d="M8657 8457c-8,-12 -15,-23 -22,-34 11,7 19,19 22,34z"/>
   <path class="fil4" d="M8745 8417c23,0 42,26 42,59 0,32 -19,59 -42,59 -23,0 -42,-26 -42,-59 0,-32 19,-59 42,-59z"/>
   <path class="fil4" d="M8874 8417c23,0 42,26 42,59 0,32 -19,59 -42,59 -23,0 -42,-26 -42,-59 0,-32 19,-59 42,-59z"/>
   <path class="fil4" d="M9014 8417c23,0 42,26 42,59 0,32 -19,59 -42,59 -23,0 -42,-26 -42,-59 0,-32 19,-59 42,-59z"/>
   <path class="fil4" d="M9143 8417c23,0 42,26 42,59 0,32 -19,59 -42,59 -23,0 -42,-26 -42,-59 0,-32 19,-59 42,-59z"/>
   <path class="fil4" d="M9171 8266c23,0 42,26 42,59 0,32 -19,59 -42,59 -23,0 -42,-26 -42,-59 0,-32 19,-59 42,-59z"/>
   <path class="fil4" d="M9311 8266c23,0 42,26 42,59 0,32 -19,59 -42,59 -23,0 -42,-26 -42,-59 0,-32 19,-59 42,-59z"/>
   <path class="fil4" d="M9440 8266c23,0 42,26 42,59 0,32 -19,59 -42,59 -23,0 -42,-26 -42,-59 0,-32 19,-59 42,-59z"/>
   <path class="fil4" d="M9569 8266c23,0 42,26 42,59 0,32 -19,59 -42,59 -23,0 -42,-26 -42,-59 0,-32 19,-59 42,-59z"/>
   <path class="fil4" d="M9709 8266c23,0 42,26 42,59 0,32 -19,59 -42,59 -23,0 -42,-26 -42,-59 0,-32 19,-59 42,-59z"/>
   <path class="fil4" d="M9838 8266c23,0 42,26 42,59 0,32 -19,59 -42,59 -23,0 -42,-26 -42,-59 0,-32 19,-59 42,-59z"/>
   <path class="fil4" d="M9957 8266c23,0 42,26 42,59 0,32 -19,59 -42,59 -23,0 -42,-26 -42,-59 0,-32 19,-59 42,-59z"/>
   <path class="fil4" d="M10097 8266c23,0 42,26 42,59 0,32 -19,59 -42,59 -23,0 -42,-26 -42,-59 0,-32 19,-59 42,-59z"/>
   <path class="fil4" d="M10226 8266c23,0 42,26 42,59 0,32 -19,59 -42,59 -23,0 -42,-26 -42,-59 0,-32 19,-59 42,-59z"/>
   <path class="fil4" d="M10354 8266c23,0 42,26 42,59 0,32 -19,59 -42,59 -23,0 -42,-26 -42,-59 0,-32 19,-59 42,-59z"/>
   <path class="fil4" d="M10494 8266c23,0 42,26 42,59 0,32 -19,59 -42,59 -23,0 -42,-26 -42,-59 0,-32 19,-59 42,-59z"/>
   <path class="fil4" d="M9260 8409c23,0 42,26 42,59 0,32 -19,59 -42,59 -23,0 -42,-26 -42,-59 0,-32 19,-59 42,-59z"/>
   <path class="fil4" d="M9389 8409c23,0 42,26 42,59 0,32 -19,59 -42,59 -23,0 -42,-26 -42,-59 0,-32 19,-59 42,-59z"/>
   <path class="fil4" d="M9518 8409c23,0 42,26 42,59 0,32 -19,59 -42,59 -23,0 -42,-26 -42,-59 0,-32 19,-59 42,-59z"/>
   <path class="fil4" d="M9657 8409c23,0 42,26 42,59 0,32 -19,59 -42,59 -23,0 -42,-26 -42,-59 0,-32 19,-59 42,-59z"/>
   <path class="fil4" d="M9787 8409c23,0 42,26 42,59 0,32 -19,59 -42,59 -23,0 -42,-26 -42,-59 0,-32 19,-59 42,-59z"/>
   <path class="fil4" d="M9906 8409c23,0 42,26 42,59 0,32 -19,59 -42,59 -23,0 -42,-26 -42,-59 0,-32 19,-59 42,-59z"/>
   <path class="fil4" d="M10047 8409c23,0 42,26 42,59 0,32 -19,59 -42,59 -23,0 -42,-26 -42,-59 0,-32 19,-59 42,-59z"/>
   <path class="fil4" d="M10175 8409c23,0 42,26 42,59 0,32 -19,59 -42,59 -23,0 -42,-26 -42,-59 0,-32 19,-59 42,-59z"/>
   <path class="fil4" d="M10303 8409c23,0 42,26 42,59 0,32 -19,59 -42,59 -23,0 -42,-26 -42,-59 0,-32 19,-59 42,-59z"/>
   <path class="fil4" d="M10443 8409c23,0 42,26 42,59 0,32 -19,59 -42,59 -23,0 -42,-26 -42,-59 0,-32 19,-59 42,-59z"/>
   <path class="fil4" d="M10572 8409c23,0 42,26 42,59 0,32 -19,59 -42,59 -23,0 -42,-26 -42,-59 0,-32 19,-59 42,-59z"/>
   <path class="fil4" d="M8851 8660c-19,-15 -37,-30 -54,-46 -1,-4 -1,-7 -1,-11 0,-32 19,-59 42,-59 23,0 42,26 42,59 0,27 -13,49 -30,57l1 0z"/>
   <path class="fil4" d="M8958 8545c23,0 42,26 42,59 0,32 -19,59 -42,59 -23,0 -42,-26 -42,-59 0,-32 19,-59 42,-59z"/>
   <path class="fil4" d="M9099 8545c23,0 42,26 42,59 0,32 -19,59 -42,59 -23,0 -42,-26 -42,-59 0,-32 19,-59 42,-59z"/>
   <path class="fil4" d="M9228 8545c23,0 42,26 42,59 0,32 -19,59 -42,59 -23,0 -42,-26 -42,-59 0,-32 19,-59 42,-59z"/>
   <path class="fil4" d="M9355 8545c23,0 42,26 42,59 0,32 -19,59 -42,59 -23,0 -42,-26 -42,-59 0,-32 19,-59 42,-59z"/>
   <path class="fil4" d="M9496 8545c23,0 42,26 42,59 0,32 -19,59 -42,59 -23,0 -42,-26 -42,-59 0,-32 19,-59 42,-59z"/>
   <path class="fil4" d="M9625 8545c23,0 42,26 42,59 0,32 -19,59 -42,59 -23,0 -42,-26 -42,-59 0,-32 19,-59 42,-59z"/>
   <path class="fil4" d="M8948 8730c-19,-13 -38,-26 -56,-39 4,-3 10,-4 14,-4 20,0 36,18 41,42z"/>
   <path class="fil4" d="M9064 8802c-19,-11 -38,-22 -56,-32 -2,-7 -3,-14 -3,-22 0,-32 19,-59 42,-59 23,0 42,26 42,59 0,25 -11,46 -27,55l1 0z"/>
   <path class="fil4" d="M9177 8688c23,0 42,26 42,59 0,32 -19,59 -42,59 -23,0 -42,-26 -42,-59 0,-32 19,-59 42,-59z"/>
   <path class="fil4" d="M9304 8688c23,0 42,26 42,59 0,32 -19,59 -42,59 -23,0 -42,-26 -42,-59 0,-32 19,-59 42,-59z"/>
   <path class="fil4" d="M9445 8688c23,0 42,26 42,59 0,32 -19,59 -42,59 -23,0 -42,-26 -42,-59 0,-32 19,-59 42,-59z"/>
   <path class="fil4" d="M9574 8688c23,0 42,26 42,59 0,32 -19,59 -42,59 -23,0 -42,-26 -42,-59 0,-32 19,-59 42,-59z"/>
   <path class="fil4" d="M9174 8860c-19,-9 -37,-19 -55,-28 5,-3 11,-4 17,-4 17,0 31,13 38,32z"/>
   <path class="fil4" d="M9300 8919c-27,-12 -53,-23 -78,-35 1,-31 20,-56 42,-56 23,0 42,26 42,59 0,12 -3,23 -7,32l1 -1z"/>
   <path class="fil4" d="M9392 8828c23,0 42,26 42,59 0,32 -19,59 -42,59 -23,0 -42,-26 -42,-59 0,-32 19,-59 42,-59z"/>
   <path class="fil4" d="M9533 8828c23,0 42,26 42,59 0,32 -19,59 -42,59 -23,0 -42,-26 -42,-59 0,-32 19,-59 42,-59z"/>
   <path class="fil4" d="M9520 9004c-22,-7 -42,-15 -63,-22 7,-6 15,-11 24,-11 17,0 31,13 39,33z"/>
   <path class="fil4" d="M9651 9047c-28,-9 -56,-17 -83,-26 4,-28 21,-49 42,-49 23,0 42,26 42,59 0,6 -1,12 -2,17l0 -1z"/>
   <path class="fil4" d="M9639 8820c23,0 42,26 42,59 0,32 -19,59 -42,59 -23,0 -42,-26 -42,-59 0,-32 19,-59 42,-59z"/>
   <path class="fil4" d="M9779 8820c23,0 42,26 42,59 0,32 -19,59 -42,59 -23,0 -42,-26 -42,-59 0,-32 19,-59 42,-59z"/>
   <path class="fil4" d="M9908 8820c23,0 42,26 42,59 0,32 -19,59 -42,59 -23,0 -42,-26 -42,-59 0,-32 19,-59 42,-59z"/>
   <path class="fil4" d="M10036 8820c23,0 42,26 42,59 0,32 -19,59 -42,59 -23,0 -42,-26 -42,-59 0,-32 19,-59 42,-59z"/>
   <path class="fil4" d="M10177 8820c23,0 42,26 42,59 0,32 -19,59 -42,59 -23,0 -42,-26 -42,-59 0,-32 19,-59 42,-59z"/>
   <path class="fil4" d="M10306 8820c23,0 42,26 42,59 0,32 -19,59 -42,59 -23,0 -42,-26 -42,-59 0,-32 19,-59 42,-59z"/>
   <path class="fil4" d="M10425 8820c23,0 42,26 42,59 0,32 -19,59 -42,59 -23,0 -42,-26 -42,-59 0,-32 19,-59 42,-59z"/>
   <path class="fil4" d="M10565 8820c23,0 42,26 42,59 0,32 -19,59 -42,59 -23,0 -42,-26 -42,-59 0,-32 19,-59 42,-59z"/>
   <path class="fil4" d="M10694 8820c23,0 42,26 42,59 0,32 -19,59 -42,59 -23,0 -42,-26 -42,-59 0,-32 19,-59 42,-59z"/>
   <path class="fil4" d="M10822 8820c23,0 42,26 42,59 0,32 -19,59 -42,59 -23,0 -42,-26 -42,-59 0,-32 19,-59 42,-59z"/>
   <path class="fil4" d="M10962 8820c23,0 42,26 42,59 0,32 -19,59 -42,59 -23,0 -42,-26 -42,-59 0,-32 19,-59 42,-59z"/>
   <path class="fil4" d="M9747 9076c-17,-4 -34,-10 -51,-14 -6,-10 -10,-23 -10,-39 0,-32 19,-59 42,-59 23,0 42,26 42,59 0,23 -10,43 -24,53l1 0z"/>
   <path class="fil4" d="M9857 8963c23,0 42,26 42,59 0,32 -19,59 -42,59 -23,0 -42,-26 -42,-59 0,-32 19,-59 42,-59z"/>
   <path class="fil4" d="M9985 8963c23,0 42,26 42,59 0,32 -19,59 -42,59 -23,0 -42,-26 -42,-59 0,-32 19,-59 42,-59z"/>
   <path class="fil4" d="M10126 8963c23,0 42,26 42,59 0,32 -19,59 -42,59 -23,0 -42,-26 -42,-59 0,-32 19,-59 42,-59z"/>
   <path class="fil4" d="M10255 8963c23,0 42,26 42,59 0,32 -19,59 -42,59 -23,0 -42,-26 -42,-59 0,-32 19,-59 42,-59z"/>
   <path class="fil4" d="M10374 8963c23,0 42,26 42,59 0,32 -19,59 -42,59 -23,0 -42,-26 -42,-59 0,-32 19,-59 42,-59z"/>
   <path class="fil4" d="M10514 8963c23,0 42,26 42,59 0,32 -19,59 -42,59 -23,0 -42,-26 -42,-59 0,-32 19,-59 42,-59z"/>
   <path class="fil4" d="M10643 8963c23,0 42,26 42,59 0,32 -19,59 -42,59 -23,0 -42,-26 -42,-59 0,-32 19,-59 42,-59z"/>
   <path class="fil4" d="M10771 8963c23,0 42,26 42,59 0,32 -19,59 -42,59 -23,0 -42,-26 -42,-59 0,-32 19,-59 42,-59z"/>
   <path class="fil4" d="M10911 8963c23,0 42,26 42,59 0,32 -19,59 -42,59 -23,0 -42,-26 -42,-59 0,-32 19,-59 42,-59z"/>
   <path class="fil4" d="M11040 8963c23,0 42,26 42,59 0,32 -19,59 -42,59 -23,0 -42,-26 -42,-59 0,-32 19,-59 42,-59z"/>
   <path class="fil4" d="M9370 7378c26,-11 53,-21 80,-30l0 2c0,32 -19,59 -42,59 -16,0 -30,-13 -37,-30l-1 0z"/>
   <path class="fil4" d="M9484 7334c23,-8 48,-17 73,-25 7,11 12,24 12,40 0,32 -19,59 -42,59 -23,0 -42,-26 -42,-59 0,-5 1,-10 2,-15l-2 0z"/>
   <path class="fil4" d="M9666 7291c23,0 42,26 42,59 0,32 -19,59 -42,59 -23,0 -42,-26 -42,-59 0,-32 19,-59 42,-59z"/>
   <path class="fil4" d="M9795 7291c23,0 42,26 42,59 0,32 -19,59 -42,59 -23,0 -42,-26 -42,-59 0,-32 19,-59 42,-59z"/>
   <path class="fil4" d="M9923 7291c23,0 42,26 42,59 0,32 -19,59 -42,59 -23,0 -42,-26 -42,-59 0,-32 19,-59 42,-59z"/>
   <path class="fil4" d="M10064 7291c23,0 42,26 42,59 0,32 -19,59 -42,59 -23,0 -42,-26 -42,-59 0,-32 19,-59 42,-59z"/>
   <path class="fil4" d="M10192 7291c23,0 42,26 42,59 0,32 -19,59 -42,59 -23,0 -42,-26 -42,-59 0,-32 19,-59 42,-59z"/>
   <path class="fil4" d="M9053 7530c24,-14 49,-28 75,-41 0,2 0,3 0,4 0,32 -19,59 -42,59 -13,0 -25,-8 -33,-22l0 -1z"/>
   <path class="fil4" d="M9193 7456c14,-7 29,-13 43,-21 19,6 32,30 32,57 0,32 -19,59 -42,59 -23,0 -42,-26 -42,-59 0,-14 4,-27 9,-37z"/>
   <path class="fil4" d="M9355 7434c23,0 42,26 42,59 0,32 -19,59 -42,59 -23,0 -42,-26 -42,-59 0,-32 19,-59 42,-59z"/>
   <path class="fil4" d="M9474 7434c23,0 42,26 42,59 0,32 -19,59 -42,59 -23,0 -42,-26 -42,-59 0,-32 19,-59 42,-59z"/>
   <path class="fil4" d="M9615 7434c23,0 42,26 42,59 0,32 -19,59 -42,59 -23,0 -42,-26 -42,-59 0,-32 19,-59 42,-59z"/>
   <path class="fil4" d="M9744 7434c23,0 42,26 42,59 0,32 -19,59 -42,59 -23,0 -42,-26 -42,-59 0,-32 19,-59 42,-59z"/>
   <path class="fil4" d="M9872 7434c23,0 42,26 42,59 0,32 -19,59 -42,59 -23,0 -42,-26 -42,-59 0,-32 19,-59 42,-59z"/>
   <path class="fil4" d="M10013 7434c23,0 42,26 42,59 0,32 -19,59 -42,59 -23,0 -42,-26 -42,-59 0,-32 19,-59 42,-59z"/>
   <path class="fil4" d="M10141 7434c23,0 42,26 42,59 0,32 -19,59 -42,59 -23,0 -42,-26 -42,-59 0,-32 19,-59 42,-59z"/>
   <path class="fil4" d="M8876 7647c23,-18 48,-35 74,-53 6,10 10,23 10,39 0,32 -19,59 -42,59 -20,0 -37,-19 -41,-45z"/>
   <path class="fil4" d="M9047 7573c23,0 42,26 42,59 0,32 -19,59 -42,59 -23,0 -42,-26 -42,-59 0,-32 19,-59 42,-59z"/>
   <path class="fil4" d="M9174 7573c23,0 42,26 42,59 0,32 -19,59 -42,59 -23,0 -42,-26 -42,-59 0,-32 19,-59 42,-59z"/>
   <path class="fil4" d="M9314 7573c23,0 42,26 42,59 0,32 -19,59 -42,59 -23,0 -42,-26 -42,-59 0,-32 19,-59 42,-59z"/>
   <path class="fil4" d="M9443 7573c23,0 42,26 42,59 0,32 -19,59 -42,59 -23,0 -42,-26 -42,-59 0,-32 19,-59 42,-59z"/>
   <path class="fil4" d="M9562 7573c23,0 42,26 42,59 0,32 -19,59 -42,59 -23,0 -42,-26 -42,-59 0,-32 19,-59 42,-59z"/>
   <path class="fil4" d="M9703 7573c23,0 42,26 42,59 0,32 -19,59 -42,59 -23,0 -42,-26 -42,-59 0,-32 19,-59 42,-59z"/>
   <path class="fil4" d="M9832 7573c23,0 42,26 42,59 0,32 -19,59 -42,59 -23,0 -42,-26 -42,-59 0,-32 19,-59 42,-59z"/>
   <path class="fil4" d="M9960 7573c23,0 42,26 42,59 0,32 -19,59 -42,59 -23,0 -42,-26 -42,-59 0,-32 19,-59 42,-59z"/>
   <path class="fil4" d="M10100 7573c23,0 42,26 42,59 0,32 -19,59 -42,59 -23,0 -42,-26 -42,-59 0,-32 19,-59 42,-59z"/>
   <path class="fil4" d="M8866 7717c23,0 42,26 42,59 0,32 -19,59 -42,59 -23,0 -42,-26 -42,-59 0,-32 19,-59 42,-59z"/>
   <path class="fil4" d="M8996 7717c23,0 42,26 42,59 0,32 -19,59 -42,59 -23,0 -42,-26 -42,-59 0,-32 19,-59 42,-59z"/>
   <path class="fil4" d="M9123 7717c23,0 42,26 42,59 0,32 -19,59 -42,59 -23,0 -42,-26 -42,-59 0,-32 19,-59 42,-59z"/>
   <path class="fil4" d="M9264 7717c23,0 42,26 42,59 0,32 -19,59 -42,59 -23,0 -42,-26 -42,-59 0,-32 19,-59 42,-59z"/>
   <path class="fil4" d="M9392 7717c23,0 42,26 42,59 0,32 -19,59 -42,59 -23,0 -42,-26 -42,-59 0,-32 19,-59 42,-59z"/>
   <path class="fil4" d="M9511 7717c23,0 42,26 42,59 0,32 -19,59 -42,59 -23,0 -42,-26 -42,-59 0,-32 19,-59 42,-59z"/>
   <path class="fil4" d="M9652 7717c23,0 42,26 42,59 0,32 -19,59 -42,59 -23,0 -42,-26 -42,-59 0,-32 19,-59 42,-59z"/>
   <path class="fil4" d="M9781 7717c23,0 42,26 42,59 0,32 -19,59 -42,59 -23,0 -42,-26 -42,-59 0,-32 19,-59 42,-59z"/>
   <path class="fil4" d="M9908 7717c23,0 42,26 42,59 0,32 -19,59 -42,59 -23,0 -42,-26 -42,-59 0,-32 19,-59 42,-59z"/>
   <path class="fil4" d="M10049 7717c23,0 42,26 42,59 0,32 -19,59 -42,59 -23,0 -42,-26 -42,-59 0,-32 19,-59 42,-59z"/>
   <path class="fil4" d="M10178 7717c23,0 42,26 42,59 0,32 -19,59 -42,59 -23,0 -42,-26 -42,-59 0,-32 19,-59 42,-59z"/>
   <path class="fil4" d="M10206 7565c23,0 42,26 42,59 0,32 -19,59 -42,59 -23,0 -42,-26 -42,-59 0,-32 19,-59 42,-59z"/>
   <path class="fil4" d="M10347 7565c23,0 42,26 42,59 0,32 -19,59 -42,59 -23,0 -42,-26 -42,-59 0,-32 19,-59 42,-59z"/>
   <path class="fil4" d="M10476 7565c23,0 42,26 42,59 0,32 -19,59 -42,59 -23,0 -42,-26 -42,-59 0,-32 19,-59 42,-59z"/>
   <path class="fil4" d="M10603 7565c23,0 42,26 42,59 0,32 -19,59 -42,59 -23,0 -42,-26 -42,-59 0,-32 19,-59 42,-59z"/>
   <path class="fil4" d="M10744 7565c23,0 42,26 42,59 0,32 -19,59 -42,59 -23,0 -42,-26 -42,-59 0,-32 19,-59 42,-59z"/>
   <path class="fil4" d="M10873 7565c23,0 42,26 42,59 0,32 -19,59 -42,59 -23,0 -42,-26 -42,-59 0,-32 19,-59 42,-59z"/>
   <path class="fil4" d="M10992 7565c23,0 42,26 42,59 0,32 -19,59 -42,59 -23,0 -42,-26 -42,-59 0,-32 19,-59 42,-59z"/>
   <path class="fil4" d="M11133 7565c23,0 42,26 42,59 0,32 -19,59 -42,59 -23,0 -42,-26 -42,-59 0,-32 19,-59 42,-59z"/>
   <path class="fil4" d="M11262 7565c23,0 42,26 42,59 0,32 -19,59 -42,59 -23,0 -42,-26 -42,-59 0,-32 19,-59 42,-59z"/>
   <path class="fil4" d="M11389 7565c23,0 42,26 42,59 0,32 -19,59 -42,59 -23,0 -42,-26 -42,-59 0,-32 19,-59 42,-59z"/>
   <path class="fil4" d="M11530 7565c23,0 42,26 42,59 0,32 -19,59 -42,59 -23,0 -42,-26 -42,-59 0,-32 19,-59 42,-59z"/>
   <path class="fil4" d="M10296 7709c23,0 42,26 42,59 0,32 -19,59 -42,59 -23,0 -42,-26 -42,-59 0,-32 19,-59 42,-59z"/>
   <path class="fil4" d="M10425 7709c23,0 42,26 42,59 0,32 -19,59 -42,59 -23,0 -42,-26 -42,-59 0,-32 19,-59 42,-59z"/>
   <path class="fil4" d="M10552 7709c23,0 42,26 42,59 0,32 -19,59 -42,59 -23,0 -42,-26 -42,-59 0,-32 19,-59 42,-59z"/>
   <path class="fil4" d="M10693 7709c23,0 42,26 42,59 0,32 -19,59 -42,59 -23,0 -42,-26 -42,-59 0,-32 19,-59 42,-59z"/>
   <path class="fil4" d="M10822 7709c23,0 42,26 42,59 0,32 -19,59 -42,59 -23,0 -42,-26 -42,-59 0,-32 19,-59 42,-59z"/>
   <path class="fil4" d="M10941 7709c23,0 42,26 42,59 0,32 -19,59 -42,59 -23,0 -42,-26 -42,-59 0,-32 19,-59 42,-59z"/>
   <path class="fil4" d="M11081 7709c23,0 42,26 42,59 0,32 -19,59 -42,59 -23,0 -42,-26 -42,-59 0,-32 19,-59 42,-59z"/>
   <path class="fil4" d="M11211 7709c23,0 42,26 42,59 0,32 -19,59 -42,59 -23,0 -42,-26 -42,-59 0,-32 19,-59 42,-59z"/>
   <path class="fil4" d="M11338 7709c23,0 42,26 42,59 0,32 -19,59 -42,59 -23,0 -42,-26 -42,-59 0,-32 19,-59 42,-59z"/>
   <path class="fil4" d="M11479 7709c23,0 42,26 42,59 0,32 -19,59 -42,59 -23,0 -42,-26 -42,-59 0,-32 19,-59 42,-59z"/>
   <path class="fil4" d="M11608 7709c23,0 42,26 42,59 0,32 -19,59 -42,59 -23,0 -42,-26 -42,-59 0,-32 19,-59 42,-59z"/>
   <path class="fil4" d="M9208 7845c23,0 42,26 42,59 0,32 -19,59 -42,59 -23,0 -42,-26 -42,-59 0,-32 19,-59 42,-59z"/>
   <path class="fil4" d="M9348 7845c23,0 42,26 42,59 0,32 -19,59 -42,59 -23,0 -42,-26 -42,-59 0,-32 19,-59 42,-59z"/>
   <path class="fil4" d="M9477 7845c23,0 42,26 42,59 0,32 -19,59 -42,59 -23,0 -42,-26 -42,-59 0,-32 19,-59 42,-59z"/>
   <path class="fil4" d="M9605 7845c23,0 42,26 42,59 0,32 -19,59 -42,59 -23,0 -42,-26 -42,-59 0,-32 19,-59 42,-59z"/>
   <path class="fil4" d="M9745 7845c23,0 42,26 42,59 0,32 -19,59 -42,59 -23,0 -42,-26 -42,-59 0,-32 19,-59 42,-59z"/>
   <path class="fil4" d="M9874 7845c23,0 42,26 42,59 0,32 -19,59 -42,59 -23,0 -42,-26 -42,-59 0,-32 19,-59 42,-59z"/>
   <path class="fil4" d="M9994 7845c23,0 42,26 42,59 0,32 -19,59 -42,59 -23,0 -42,-26 -42,-59 0,-32 19,-59 42,-59z"/>
   <path class="fil4" d="M10134 7845c23,0 42,26 42,59 0,32 -19,59 -42,59 -23,0 -42,-26 -42,-59 0,-32 19,-59 42,-59z"/>
   <path class="fil4" d="M10263 7845c23,0 42,26 42,59 0,32 -19,59 -42,59 -23,0 -42,-26 -42,-59 0,-32 19,-59 42,-59z"/>
   <path class="fil4" d="M10391 7845c23,0 42,26 42,59 0,32 -19,59 -42,59 -23,0 -42,-26 -42,-59 0,-32 19,-59 42,-59z"/>
   <path class="fil4" d="M10531 7845c23,0 42,26 42,59 0,32 -19,59 -42,59 -23,0 -42,-26 -42,-59 0,-32 19,-59 42,-59z"/>
   <path class="fil4" d="M10660 7845c23,0 42,26 42,59 0,32 -19,59 -42,59 -23,0 -42,-26 -42,-59 0,-32 19,-59 42,-59z"/>
   <path class="fil4" d="M9157 7989c23,0 42,26 42,59 0,32 -19,59 -42,59 -23,0 -42,-26 -42,-59 0,-32 19,-59 42,-59z"/>
   <path class="fil4" d="M9297 7989c23,0 42,26 42,59 0,32 -19,59 -42,59 -23,0 -42,-26 -42,-59 0,-32 19,-59 42,-59z"/>
   <path class="fil4" d="M9426 7989c23,0 42,26 42,59 0,32 -19,59 -42,59 -23,0 -42,-26 -42,-59 0,-32 19,-59 42,-59z"/>
   <path class="fil4" d="M9554 7989c23,0 42,26 42,59 0,32 -19,59 -42,59 -23,0 -42,-26 -42,-59 0,-32 19,-59 42,-59z"/>
   <path class="fil4" d="M9694 7989c23,0 42,26 42,59 0,32 -19,59 -42,59 -23,0 -42,-26 -42,-59 0,-32 19,-59 42,-59z"/>
   <path class="fil4" d="M9823 7989c23,0 42,26 42,59 0,32 -19,59 -42,59 -23,0 -42,-26 -42,-59 0,-32 19,-59 42,-59z"/>
   <path class="fil4" d="M9943 7989c23,0 42,26 42,59 0,32 -19,59 -42,59 -23,0 -42,-26 -42,-59 0,-32 19,-59 42,-59z"/>
   <path class="fil4" d="M10083 7989c23,0 42,26 42,59 0,32 -19,59 -42,59 -23,0 -42,-26 -42,-59 0,-32 19,-59 42,-59z"/>
   <path class="fil4" d="M10212 7989c23,0 42,26 42,59 0,32 -19,59 -42,59 -23,0 -42,-26 -42,-59 0,-32 19,-59 42,-59z"/>
   <path class="fil4" d="M10340 7989c23,0 42,26 42,59 0,32 -19,59 -42,59 -23,0 -42,-26 -42,-59 0,-32 19,-59 42,-59z"/>
   <path class="fil4" d="M10480 7989c23,0 42,26 42,59 0,32 -19,59 -42,59 -23,0 -42,-26 -42,-59 0,-32 19,-59 42,-59z"/>
   <path class="fil4" d="M10609 7989c23,0 42,26 42,59 0,32 -19,59 -42,59 -23,0 -42,-26 -42,-59 0,-32 19,-59 42,-59z"/>
   <path class="fil4" d="M9245 8128c23,0 42,26 42,59 0,32 -19,59 -42,59 -23,0 -42,-26 -42,-59 0,-32 19,-59 42,-59z"/>
   <path class="fil4" d="M9386 8128c23,0 42,26 42,59 0,32 -19,59 -42,59 -23,0 -42,-26 -42,-59 0,-32 19,-59 42,-59z"/>
   <path class="fil4" d="M9514 8128c23,0 42,26 42,59 0,32 -19,59 -42,59 -23,0 -42,-26 -42,-59 0,-32 19,-59 42,-59z"/>
   <path class="fil4" d="M9642 8128c23,0 42,26 42,59 0,32 -19,59 -42,59 -23,0 -42,-26 -42,-59 0,-32 19,-59 42,-59z"/>
   <path class="fil4" d="M9782 8128c23,0 42,26 42,59 0,32 -19,59 -42,59 -23,0 -42,-26 -42,-59 0,-32 19,-59 42,-59z"/>
   <path class="fil4" d="M9911 8128c23,0 42,26 42,59 0,32 -19,59 -42,59 -23,0 -42,-26 -42,-59 0,-32 19,-59 42,-59z"/>
   <path class="fil4" d="M10030 8128c23,0 42,26 42,59 0,32 -19,59 -42,59 -23,0 -42,-26 -42,-59 0,-32 19,-59 42,-59z"/>
   <path class="fil4" d="M10171 8128c23,0 42,26 42,59 0,32 -19,59 -42,59 -23,0 -42,-26 -42,-59 0,-32 19,-59 42,-59z"/>
   <path class="fil4" d="M10300 8128c23,0 42,26 42,59 0,32 -19,59 -42,59 -23,0 -42,-26 -42,-59 0,-32 19,-59 42,-59z"/>
   <path class="fil4" d="M10428 8128c23,0 42,26 42,59 0,32 -19,59 -42,59 -23,0 -42,-26 -42,-59 0,-32 19,-59 42,-59z"/>
   <path class="fil4" d="M10569 8128c23,0 42,26 42,59 0,32 -19,59 -42,59 -23,0 -42,-26 -42,-59 0,-32 19,-59 42,-59z"/>
   <path class="fil4" d="M9335 8271c23,0 42,26 42,59 0,32 -19,59 -42,59 -23,0 -42,-26 -42,-59 0,-32 19,-59 42,-59z"/>
   <path class="fil4" d="M9463 8271c23,0 42,26 42,59 0,32 -19,59 -42,59 -23,0 -42,-26 -42,-59 0,-32 19,-59 42,-59z"/>
   <path class="fil4" d="M9591 8271c23,0 42,26 42,59 0,32 -19,59 -42,59 -23,0 -42,-26 -42,-59 0,-32 19,-59 42,-59z"/>
   <path class="fil4" d="M9731 8271c23,0 42,26 42,59 0,32 -19,59 -42,59 -23,0 -42,-26 -42,-59 0,-32 19,-59 42,-59z"/>
   <path class="fil4" d="M9860 8271c23,0 42,26 42,59 0,32 -19,59 -42,59 -23,0 -42,-26 -42,-59 0,-32 19,-59 42,-59z"/>
   <path class="fil4" d="M9979 8271c23,0 42,26 42,59 0,32 -19,59 -42,59 -23,0 -42,-26 -42,-59 0,-32 19,-59 42,-59z"/>
   <path class="fil4" d="M10120 8271c23,0 42,26 42,59 0,32 -19,59 -42,59 -23,0 -42,-26 -42,-59 0,-32 19,-59 42,-59z"/>
   <path class="fil4" d="M10249 8271c23,0 42,26 42,59 0,32 -19,59 -42,59 -23,0 -42,-26 -42,-59 0,-32 19,-59 42,-59z"/>
   <path class="fil4" d="M10377 8271c23,0 42,26 42,59 0,32 -19,59 -42,59 -23,0 -42,-26 -42,-59 0,-32 19,-59 42,-59z"/>
   <path class="fil4" d="M10517 8271c23,0 42,26 42,59 0,32 -19,59 -42,59 -23,0 -42,-26 -42,-59 0,-32 19,-59 42,-59z"/>
   <path class="fil4" d="M10647 8271c23,0 42,26 42,59 0,32 -19,59 -42,59 -23,0 -42,-26 -42,-59 0,-32 19,-59 42,-59z"/>
   <path class="fil4" d="M10674 8120c23,0 42,26 42,59 0,32 -19,59 -42,59 -23,0 -42,-26 -42,-59 0,-32 19,-59 42,-59z"/>
   <path class="fil4" d="M10815 8120c23,0 42,26 42,59 0,32 -19,59 -42,59 -23,0 -42,-26 -42,-59 0,-32 19,-59 42,-59z"/>
   <path class="fil4" d="M10944 8120c23,0 42,26 42,59 0,32 -19,59 -42,59 -23,0 -42,-26 -42,-59 0,-32 19,-59 42,-59z"/>
   <path class="fil4" d="M11072 8120c23,0 42,26 42,59 0,32 -19,59 -42,59 -23,0 -42,-26 -42,-59 0,-32 19,-59 42,-59z"/>
   <path class="fil4" d="M11212 8120c23,0 42,26 42,59 0,32 -19,59 -42,59 -23,0 -42,-26 -42,-59 0,-32 19,-59 42,-59z"/>
   <path class="fil4" d="M11341 8120c23,0 42,26 42,59 0,32 -19,59 -42,59 -23,0 -42,-26 -42,-59 0,-32 19,-59 42,-59z"/>
   <path class="fil4" d="M11460 8120c23,0 42,26 42,59 0,32 -19,59 -42,59 -23,0 -42,-26 -42,-59 0,-32 19,-59 42,-59z"/>
   <path class="fil4" d="M11601 8120c23,0 42,26 42,59 0,32 -19,59 -42,59 -23,0 -42,-26 -42,-59 0,-32 19,-59 42,-59z"/>
   <path class="fil4" d="M11730 8120c23,0 42,26 42,59 0,32 -19,59 -42,59 -23,0 -42,-26 -42,-59 0,-32 19,-59 42,-59z"/>
   <path class="fil4" d="M11857 8120c23,0 42,26 42,59 0,32 -19,59 -42,59 -23,0 -42,-26 -42,-59 0,-32 19,-59 42,-59z"/>
   <path class="fil4" d="M11998 8120c23,0 42,26 42,59 0,32 -19,59 -42,59 -23,0 -42,-26 -42,-59 0,-32 19,-59 42,-59z"/>
   <path class="fil4" d="M10764 8264c23,0 42,26 42,59 0,32 -19,59 -42,59 -23,0 -42,-26 -42,-59 0,-32 19,-59 42,-59z"/>
   <path class="fil4" d="M10893 8264c23,0 42,26 42,59 0,32 -19,59 -42,59 -23,0 -42,-26 -42,-59 0,-32 19,-59 42,-59z"/>
   <path class="fil4" d="M11020 8264c23,0 42,26 42,59 0,32 -19,59 -42,59 -23,0 -42,-26 -42,-59 0,-32 19,-59 42,-59z"/>
   <path class="fil4" d="M11161 8264c23,0 42,26 42,59 0,32 -19,59 -42,59 -23,0 -42,-26 -42,-59 0,-32 19,-59 42,-59z"/>
   <path class="fil4" d="M11290 8264c23,0 42,26 42,59 0,32 -19,59 -42,59 -23,0 -42,-26 -42,-59 0,-32 19,-59 42,-59z"/>
   <path class="fil4" d="M11409 8264c23,0 42,26 42,59 0,32 -19,59 -42,59 -23,0 -42,-26 -42,-59 0,-32 19,-59 42,-59z"/>
   <path class="fil4" d="M11550 8264c23,0 42,26 42,59 0,32 -19,59 -42,59 -23,0 -42,-26 -42,-59 0,-32 19,-59 42,-59z"/>
   <path class="fil4" d="M11679 8264c23,0 42,26 42,59 0,32 -19,59 -42,59 -23,0 -42,-26 -42,-59 0,-32 19,-59 42,-59z"/>
   <path class="fil4" d="M11806 8264c23,0 42,26 42,59 0,32 -19,59 -42,59 -23,0 -42,-26 -42,-59 0,-32 19,-59 42,-59z"/>
   <path class="fil4" d="M11947 8264c23,0 42,26 42,59 0,32 -19,59 -42,59 -23,0 -42,-26 -42,-59 0,-32 19,-59 42,-59z"/>
   <path class="fil4" d="M12076 8264c23,0 42,26 42,59 0,32 -19,59 -42,59 -23,0 -42,-26 -42,-59 0,-32 19,-59 42,-59z"/>
   <path class="fil4" d="M10289 7131c13,-2 26,-4 39,-6 -7,6 -15,10 -24,10 -5,0 -11,-2 -15,-4z"/>
   <path class="fil4" d="M10401 7113c23,-4 47,-7 70,-10 -7,19 -22,31 -38,31 -13,0 -25,-8 -33,-22l1 0z"/>
   <path class="fil4" d="M10513 7098c27,-4 54,-6 81,-10 -4,27 -22,47 -41,47 -18,0 -33,-15 -39,-37z"/>
   <path class="fil4" d="M10651 7083c28,-3 57,-5 85,-8l0 2c0,32 -19,59 -42,59 -22,0 -40,-23 -42,-53l-1 0z"/>
   <path class="fil4" d="M10779 7070c28,-3 56,-4 84,-6 1,4 1,8 1,13 0,32 -19,59 -42,59 -23,0 -42,-26 -42,-59 0,-2 0,-4 0,-6l-1 0z"/>
   <path class="fil4" d="M10908 7060c27,-2 54,-4 81,-4 2,6 3,13 3,21 0,32 -19,59 -42,59 -23,0 -42,-26 -42,-59 0,-5 1,-11 2,-16l-1 0z"/>
   <path class="fil4" d="M11051 7052c25,-1 51,-2 77,-3 3,8 4,17 4,27 0,32 -19,59 -42,59 -23,0 -42,-26 -42,-59 0,-8 1,-16 4,-24l-1 0z"/>
   <path class="fil4" d="M11182 7048c24,-1 49,-1 74,-2 4,9 6,19 6,30 0,32 -19,59 -42,59 -23,0 -42,-26 -42,-59 0,-11 2,-20 5,-29l-1 0z"/>
   <path class="fil4" d="M11298 7045c26,0 52,-1 78,-1 3,7 4,15 4,23 0,32 -19,59 -42,59 -23,0 -42,-26 -42,-59 0,-8 1,-16 4,-23l-1 1z"/>
   <path class="fil4" d="M11427 7045c26,0 52,1 79,1 2,7 4,14 4,22 0,32 -19,59 -42,59 -23,0 -42,-26 -42,-59 0,-8 1,-16 4,-23l-2 0z"/>
   <path class="fil4" d="M11554 7047c27,1 54,2 80,3 2,6 2,13 2,19 0,32 -19,59 -42,59 -23,0 -42,-26 -42,-59 0,-7 1,-14 3,-22z"/>
   <path class="fil4" d="M11693 7052c28,1 55,3 83,4 1,4 1,8 1,13 0,32 -19,59 -42,59 -23,0 -42,-26 -42,-59 0,-5 1,-12 2,-16l-1 -1z"/>
   <path class="fil4" d="M11821 7059c29,2 57,4 84,6 0,1 0,3 0,4 0,32 -19,59 -42,59 -23,0 -42,-26 -42,-59 0,-4 0,-6 1,-10l-1 0z"/>
   <path class="fil4" d="M11940 7067c29,3 57,4 85,7 -3,30 -21,53 -42,53 -23,0 -42,-26 -42,-59l0 -1 -1 0z"/>
   <path class="fil4" d="M12080 7080c28,3 55,5 82,9 -6,22 -22,39 -39,39 -21,0 -38,-21 -42,-48z"/>
   <path class="fil4" d="M12213 7095c24,3 48,6 72,9 -8,14 -20,23 -34,23 -17,0 -31,-13 -38,-32z"/>
   <path class="fil4" d="M12352 7113c16,3 31,4 47,7 -6,4 -13,6 -20,6 -11,0 -20,-5 -27,-13z"/>
   <path class="fil4" d="M10249 7145c23,0 42,26 42,59 0,32 -19,59 -42,59 -23,0 -42,-26 -42,-59 0,-32 19,-59 42,-59z"/>
   <path class="fil4" d="M10389 7145c23,0 42,26 42,59 0,32 -19,59 -42,59 -23,0 -42,-26 -42,-59 0,-32 19,-59 42,-59z"/>
   <path class="fil4" d="M10518 7145c23,0 42,26 42,59 0,32 -19,59 -42,59 -23,0 -42,-26 -42,-59 0,-32 19,-59 42,-59z"/>
   <path class="fil4" d="M10646 7145c23,0 42,26 42,59 0,32 -19,59 -42,59 -23,0 -42,-26 -42,-59 0,-32 19,-59 42,-59z"/>
   <path class="fil4" d="M10786 7145c23,0 42,26 42,59 0,32 -19,59 -42,59 -23,0 -42,-26 -42,-59 0,-32 19,-59 42,-59z"/>
   <path class="fil4" d="M10916 7145c23,0 42,26 42,59 0,32 -19,59 -42,59 -23,0 -42,-26 -42,-59 0,-32 19,-59 42,-59z"/>
   <path class="fil4" d="M11035 7145c23,0 42,26 42,59 0,32 -19,59 -42,59 -23,0 -42,-26 -42,-59 0,-32 19,-59 42,-59z"/>
   <path class="fil4" d="M11175 7145c23,0 42,26 42,59 0,32 -19,59 -42,59 -23,0 -42,-26 -42,-59 0,-32 19,-59 42,-59z"/>
   <path class="fil4" d="M11304 7145c23,0 42,26 42,59 0,32 -19,59 -42,59 -23,0 -42,-26 -42,-59 0,-32 19,-59 42,-59z"/>
   <path class="fil4" d="M11432 7145c23,0 42,26 42,59 0,32 -19,59 -42,59 -23,0 -42,-26 -42,-59 0,-32 19,-59 42,-59z"/>
   <path class="fil4" d="M11572 7145c23,0 42,26 42,59 0,32 -19,59 -42,59 -23,0 -42,-26 -42,-59 0,-32 19,-59 42,-59z"/>
   <path class="fil4" d="M11701 7145c23,0 42,26 42,59 0,32 -19,59 -42,59 -23,0 -42,-26 -42,-59 0,-32 19,-59 42,-59z"/>
   <path class="fil4" d="M10198 7288c23,0 42,26 42,59 0,32 -19,59 -42,59 -23,0 -42,-26 -42,-59 0,-32 19,-59 42,-59z"/>
   <path class="fil4" d="M10338 7288c23,0 42,26 42,59 0,32 -19,59 -42,59 -23,0 -42,-26 -42,-59 0,-32 19,-59 42,-59z"/>
   <path class="fil4" d="M10467 7288c23,0 42,26 42,59 0,32 -19,59 -42,59 -23,0 -42,-26 -42,-59 0,-32 19,-59 42,-59z"/>
   <path class="fil4" d="M10595 7288c23,0 42,26 42,59 0,32 -19,59 -42,59 -23,0 -42,-26 -42,-59 0,-32 19,-59 42,-59z"/>
   <path class="fil4" d="M10735 7288c23,0 42,26 42,59 0,32 -19,59 -42,59 -23,0 -42,-26 -42,-59 0,-32 19,-59 42,-59z"/>
   <path class="fil4" d="M10864 7288c23,0 42,26 42,59 0,32 -19,59 -42,59 -23,0 -42,-26 -42,-59 0,-32 19,-59 42,-59z"/>
   <path class="fil4" d="M10984 7288c23,0 42,26 42,59 0,32 -19,59 -42,59 -23,0 -42,-26 -42,-59 0,-32 19,-59 42,-59z"/>
   <path class="fil4" d="M11124 7288c23,0 42,26 42,59 0,32 -19,59 -42,59 -23,0 -42,-26 -42,-59 0,-32 19,-59 42,-59z"/>
   <path class="fil4" d="M11253 7288c23,0 42,26 42,59 0,32 -19,59 -42,59 -23,0 -42,-26 -42,-59 0,-32 19,-59 42,-59z"/>
   <path class="fil4" d="M11381 7288c23,0 42,26 42,59 0,32 -19,59 -42,59 -23,0 -42,-26 -42,-59 0,-32 19,-59 42,-59z"/>
   <path class="fil4" d="M11521 7288c23,0 42,26 42,59 0,32 -19,59 -42,59 -23,0 -42,-26 -42,-59 0,-32 19,-59 42,-59z"/>
   <path class="fil4" d="M11650 7288c23,0 42,26 42,59 0,32 -19,59 -42,59 -23,0 -42,-26 -42,-59 0,-32 19,-59 42,-59z"/>
   <path class="fil4" d="M10286 7428c23,0 42,26 42,59 0,32 -19,59 -42,59 -23,0 -42,-26 -42,-59 0,-32 19,-59 42,-59z"/>
   <path class="fil4" d="M10426 7428c23,0 42,26 42,59 0,32 -19,59 -42,59 -23,0 -42,-26 -42,-59 0,-32 19,-59 42,-59z"/>
   <path class="fil4" d="M10555 7428c23,0 42,26 42,59 0,32 -19,59 -42,59 -23,0 -42,-26 -42,-59 0,-32 19,-59 42,-59z"/>
   <path class="fil4" d="M10683 7428c23,0 42,26 42,59 0,32 -19,59 -42,59 -23,0 -42,-26 -42,-59 0,-32 19,-59 42,-59z"/>
   <path class="fil4" d="M10823 7428c23,0 42,26 42,59 0,32 -19,59 -42,59 -23,0 -42,-26 -42,-59 0,-32 19,-59 42,-59z"/>
   <path class="fil4" d="M10952 7428c23,0 42,26 42,59 0,32 -19,59 -42,59 -23,0 -42,-26 -42,-59 0,-32 19,-59 42,-59z"/>
   <path class="fil4" d="M11072 7428c23,0 42,26 42,59 0,32 -19,59 -42,59 -23,0 -42,-26 -42,-59 0,-32 19,-59 42,-59z"/>
   <path class="fil4" d="M11212 7428c23,0 42,26 42,59 0,32 -19,59 -42,59 -23,0 -42,-26 -42,-59 0,-32 19,-59 42,-59z"/>
   <path class="fil4" d="M11341 7428c23,0 42,26 42,59 0,32 -19,59 -42,59 -23,0 -42,-26 -42,-59 0,-32 19,-59 42,-59z"/>
   <path class="fil4" d="M11469 7428c23,0 42,26 42,59 0,32 -19,59 -42,59 -23,0 -42,-26 -42,-59 0,-32 19,-59 42,-59z"/>
   <path class="fil4" d="M11609 7428c23,0 42,26 42,59 0,32 -19,59 -42,59 -23,0 -42,-26 -42,-59 0,-32 19,-59 42,-59z"/>
   <path class="fil4" d="M10375 7572c23,0 42,26 42,59 0,32 -19,59 -42,59 -23,0 -42,-26 -42,-59 0,-32 19,-59 42,-59z"/>
   <path class="fil4" d="M10504 7572c23,0 42,26 42,59 0,32 -19,59 -42,59 -23,0 -42,-26 -42,-59 0,-32 19,-59 42,-59z"/>
   <path class="fil4" d="M10632 7572c23,0 42,26 42,59 0,32 -19,59 -42,59 -23,0 -42,-26 -42,-59 0,-32 19,-59 42,-59z"/>
   <path class="fil4" d="M10772 7572c23,0 42,26 42,59 0,32 -19,59 -42,59 -23,0 -42,-26 -42,-59 0,-32 19,-59 42,-59z"/>
   <path class="fil4" d="M10901 7572c23,0 42,26 42,59 0,32 -19,59 -42,59 -23,0 -42,-26 -42,-59 0,-32 19,-59 42,-59z"/>
   <path class="fil4" d="M11020 7572c23,0 42,26 42,59 0,32 -19,59 -42,59 -23,0 -42,-26 -42,-59 0,-32 19,-59 42,-59z"/>
   <path class="fil4" d="M11161 7572c23,0 42,26 42,59 0,32 -19,59 -42,59 -23,0 -42,-26 -42,-59 0,-32 19,-59 42,-59z"/>
   <path class="fil4" d="M11290 7572c23,0 42,26 42,59 0,32 -19,59 -42,59 -23,0 -42,-26 -42,-59 0,-32 19,-59 42,-59z"/>
   <path class="fil4" d="M11418 7572c23,0 42,26 42,59 0,32 -19,59 -42,59 -23,0 -42,-26 -42,-59 0,-32 19,-59 42,-59z"/>
   <path class="fil4" d="M11558 7572c23,0 42,26 42,59 0,32 -19,59 -42,59 -23,0 -42,-26 -42,-59 0,-32 19,-59 42,-59z"/>
   <path class="fil4" d="M11687 7572c23,0 42,26 42,59 0,32 -19,59 -42,59 -23,0 -42,-26 -42,-59 0,-32 19,-59 42,-59z"/>
   <path class="fil4" d="M11715 7420c23,0 42,26 42,59 0,32 -19,59 -42,59 -23,0 -42,-26 -42,-59 0,-32 19,-59 42,-59z"/>
   <path class="fil4" d="M11856 7420c23,0 42,26 42,59 0,32 -19,59 -42,59 -23,0 -42,-26 -42,-59 0,-32 19,-59 42,-59z"/>
   <path class="fil4" d="M11985 7420c23,0 42,26 42,59 0,32 -19,59 -42,59 -23,0 -42,-26 -42,-59 0,-32 19,-59 42,-59z"/>
   <path class="fil4" d="M12113 7420c23,0 42,26 42,59 0,32 -19,59 -42,59 -23,0 -42,-26 -42,-59 0,-32 19,-59 42,-59z"/>
   <path class="fil4" d="M12253 7420c23,0 42,26 42,59 0,32 -19,59 -42,59 -23,0 -42,-26 -42,-59 0,-32 19,-59 42,-59z"/>
   <path class="fil4" d="M12382 7420c23,0 42,26 42,59 0,32 -19,59 -42,59 -23,0 -42,-26 -42,-59 0,-32 19,-59 42,-59z"/>
   <path class="fil4" d="M12501 7420c23,0 42,26 42,59 0,32 -19,59 -42,59 -23,0 -42,-26 -42,-59 0,-32 19,-59 42,-59z"/>
   <path class="fil4" d="M12642 7420c23,0 42,26 42,59 0,32 -19,59 -42,59 -23,0 -42,-26 -42,-59 0,-32 19,-59 42,-59z"/>
   <path class="fil4" d="M12771 7420c23,0 42,26 42,59 0,32 -19,59 -42,59 -23,0 -42,-26 -42,-59 0,-32 19,-59 42,-59z"/>
   <path class="fil4" d="M12898 7420c23,0 42,26 42,59 0,32 -19,59 -42,59 -23,0 -42,-26 -42,-59 0,-32 19,-59 42,-59z"/>
   <path class="fil4" d="M13039 7420c23,0 42,26 42,59 0,32 -19,59 -42,59 -23,0 -42,-26 -42,-59 0,-32 19,-59 42,-59z"/>
   <path class="fil4" d="M11805 7564c23,0 42,26 42,59 0,32 -19,59 -42,59 -23,0 -42,-26 -42,-59 0,-32 19,-59 42,-59z"/>
   <path class="fil4" d="M11934 7564c23,0 42,26 42,59 0,32 -19,59 -42,59 -23,0 -42,-26 -42,-59 0,-32 19,-59 42,-59z"/>
   <path class="fil4" d="M12062 7564c23,0 42,26 42,59 0,32 -19,59 -42,59 -23,0 -42,-26 -42,-59 0,-32 19,-59 42,-59z"/>
   <path class="fil4" d="M12202 7564c23,0 42,26 42,59 0,32 -19,59 -42,59 -23,0 -42,-26 -42,-59 0,-32 19,-59 42,-59z"/>
   <path class="fil4" d="M12331 7564c23,0 42,26 42,59 0,32 -19,59 -42,59 -23,0 -42,-26 -42,-59 0,-32 19,-59 42,-59z"/>
   <path class="fil4" d="M12450 7564c23,0 42,26 42,59 0,32 -19,59 -42,59 -23,0 -42,-26 -42,-59 0,-32 19,-59 42,-59z"/>
   <path class="fil4" d="M12591 7564c23,0 42,26 42,59 0,32 -19,59 -42,59 -23,0 -42,-26 -42,-59 0,-32 19,-59 42,-59z"/>
   <path class="fil4" d="M12720 7564c23,0 42,26 42,59 0,32 -19,59 -42,59 -23,0 -42,-26 -42,-59 0,-32 19,-59 42,-59z"/>
   <path class="fil4" d="M12847 7564c23,0 42,26 42,59 0,32 -19,59 -42,59 -23,0 -42,-26 -42,-59 0,-32 19,-59 42,-59z"/>
   <path class="fil4" d="M12988 7564c23,0 42,26 42,59 0,32 -19,59 -42,59 -23,0 -42,-26 -42,-59 0,-32 19,-59 42,-59z"/>
   <path class="fil4" d="M13117 7564c23,0 42,26 42,59 0,32 -19,59 -42,59 -23,0 -42,-26 -42,-59 0,-32 19,-59 42,-59z"/>
   <path class="fil4" d="M9970 9132c-23,-5 -47,-11 -69,-16 8,-11 19,-18 30,-18 17,0 32,14 39,35l0 -1z"/>
   <path class="fil4" d="M9515 8398c23,0 42,26 42,59 0,32 -19,59 -42,59 -23,0 -42,-26 -42,-59 0,-32 19,-59 42,-59z"/>
   <path class="fil4" d="M9655 8398c23,0 42,26 42,59 0,32 -19,59 -42,59 -23,0 -42,-26 -42,-59 0,-32 19,-59 42,-59z"/>
   <path class="fil4" d="M9784 8398c23,0 42,26 42,59 0,32 -19,59 -42,59 -23,0 -42,-26 -42,-59 0,-32 19,-59 42,-59z"/>
   <path class="fil4" d="M9911 8398c23,0 42,26 42,59 0,32 -19,59 -42,59 -23,0 -42,-26 -42,-59 0,-32 19,-59 42,-59z"/>
   <path class="fil4" d="M10052 8398c23,0 42,26 42,59 0,32 -19,59 -42,59 -23,0 -42,-26 -42,-59 0,-32 19,-59 42,-59z"/>
   <path class="fil4" d="M10181 8398c23,0 42,26 42,59 0,32 -19,59 -42,59 -23,0 -42,-26 -42,-59 0,-32 19,-59 42,-59z"/>
   <path class="fil4" d="M10300 8398c23,0 42,26 42,59 0,32 -19,59 -42,59 -23,0 -42,-26 -42,-59 0,-32 19,-59 42,-59z"/>
   <path class="fil4" d="M10440 8398c23,0 42,26 42,59 0,32 -19,59 -42,59 -23,0 -42,-26 -42,-59 0,-32 19,-59 42,-59z"/>
   <path class="fil4" d="M10569 8398c23,0 42,26 42,59 0,32 -19,59 -42,59 -23,0 -42,-26 -42,-59 0,-32 19,-59 42,-59z"/>
   <path class="fil4" d="M10698 8398c23,0 42,26 42,59 0,32 -19,59 -42,59 -23,0 -42,-26 -42,-59 0,-32 19,-59 42,-59z"/>
   <path class="fil4" d="M10838 8398c23,0 42,26 42,59 0,32 -19,59 -42,59 -23,0 -42,-26 -42,-59 0,-32 19,-59 42,-59z"/>
   <path class="fil4" d="M10967 8398c23,0 42,26 42,59 0,32 -19,59 -42,59 -23,0 -42,-26 -42,-59 0,-32 19,-59 42,-59z"/>
   <path class="fil4" d="M9464 8541c23,0 42,26 42,59 0,32 -19,59 -42,59 -23,0 -42,-26 -42,-59 0,-32 19,-59 42,-59z"/>
   <path class="fil4" d="M9604 8541c23,0 42,26 42,59 0,32 -19,59 -42,59 -23,0 -42,-26 -42,-59 0,-32 19,-59 42,-59z"/>
   <path class="fil4" d="M9733 8541c23,0 42,26 42,59 0,32 -19,59 -42,59 -23,0 -42,-26 -42,-59 0,-32 19,-59 42,-59z"/>
   <path class="fil4" d="M9860 8541c23,0 42,26 42,59 0,32 -19,59 -42,59 -23,0 -42,-26 -42,-59 0,-32 19,-59 42,-59z"/>
   <path class="fil4" d="M10001 8541c23,0 42,26 42,59 0,32 -19,59 -42,59 -23,0 -42,-26 -42,-59 0,-32 19,-59 42,-59z"/>
   <path class="fil4" d="M10130 8541c23,0 42,26 42,59 0,32 -19,59 -42,59 -23,0 -42,-26 -42,-59 0,-32 19,-59 42,-59z"/>
   <path class="fil4" d="M10249 8541c23,0 42,26 42,59 0,32 -19,59 -42,59 -23,0 -42,-26 -42,-59 0,-32 19,-59 42,-59z"/>
   <path class="fil4" d="M10389 8541c23,0 42,26 42,59 0,32 -19,59 -42,59 -23,0 -42,-26 -42,-59 0,-32 19,-59 42,-59z"/>
   <path class="fil4" d="M10518 8541c23,0 42,26 42,59 0,32 -19,59 -42,59 -23,0 -42,-26 -42,-59 0,-32 19,-59 42,-59z"/>
   <path class="fil4" d="M10647 8541c23,0 42,26 42,59 0,32 -19,59 -42,59 -23,0 -42,-26 -42,-59 0,-32 19,-59 42,-59z"/>
   <path class="fil4" d="M10786 8541c23,0 42,26 42,59 0,32 -19,59 -42,59 -23,0 -42,-26 -42,-59 0,-32 19,-59 42,-59z"/>
   <path class="fil4" d="M10916 8541c23,0 42,26 42,59 0,32 -19,59 -42,59 -23,0 -42,-26 -42,-59 0,-32 19,-59 42,-59z"/>
   <path class="fil4" d="M9552 8681c23,0 42,26 42,59 0,32 -19,59 -42,59 -23,0 -42,-26 -42,-59 0,-32 19,-59 42,-59z"/>
   <path class="fil4" d="M9691 8681c23,0 42,26 42,59 0,32 -19,59 -42,59 -23,0 -42,-26 -42,-59 0,-32 19,-59 42,-59z"/>
   <path class="fil4" d="M9821 8681c23,0 42,26 42,59 0,32 -19,59 -42,59 -23,0 -42,-26 -42,-59 0,-32 19,-59 42,-59z"/>
   <path class="fil4" d="M9948 8681c23,0 42,26 42,59 0,32 -19,59 -42,59 -23,0 -42,-26 -42,-59 0,-32 19,-59 42,-59z"/>
   <path class="fil4" d="M10089 8681c23,0 42,26 42,59 0,32 -19,59 -42,59 -23,0 -42,-26 -42,-59 0,-32 19,-59 42,-59z"/>
   <path class="fil4" d="M10218 8681c23,0 42,26 42,59 0,32 -19,59 -42,59 -23,0 -42,-26 -42,-59 0,-32 19,-59 42,-59z"/>
   <path class="fil4" d="M10337 8681c23,0 42,26 42,59 0,32 -19,59 -42,59 -23,0 -42,-26 -42,-59 0,-32 19,-59 42,-59z"/>
   <path class="fil4" d="M10477 8681c23,0 42,26 42,59 0,32 -19,59 -42,59 -23,0 -42,-26 -42,-59 0,-32 19,-59 42,-59z"/>
   <path class="fil4" d="M10606 8681c23,0 42,26 42,59 0,32 -19,59 -42,59 -23,0 -42,-26 -42,-59 0,-32 19,-59 42,-59z"/>
   <path class="fil4" d="M10734 8681c23,0 42,26 42,59 0,32 -19,59 -42,59 -23,0 -42,-26 -42,-59 0,-32 19,-59 42,-59z"/>
   <path class="fil4" d="M10874 8681c23,0 42,26 42,59 0,32 -19,59 -42,59 -23,0 -42,-26 -42,-59 0,-32 19,-59 42,-59z"/>
   <path class="fil4" d="M9640 8824c23,0 42,26 42,59 0,32 -19,59 -42,59 -23,0 -42,-26 -42,-59 0,-32 19,-59 42,-59z"/>
   <path class="fil4" d="M9769 8824c23,0 42,26 42,59 0,32 -19,59 -42,59 -23,0 -42,-26 -42,-59 0,-32 19,-59 42,-59z"/>
   <path class="fil4" d="M9898 8824c23,0 42,26 42,59 0,32 -19,59 -42,59 -23,0 -42,-26 -42,-59 0,-32 19,-59 42,-59z"/>
   <path class="fil4" d="M10038 8824c23,0 42,26 42,59 0,32 -19,59 -42,59 -23,0 -42,-26 -42,-59 0,-32 19,-59 42,-59z"/>
   <path class="fil4" d="M10167 8824c23,0 42,26 42,59 0,32 -19,59 -42,59 -23,0 -42,-26 -42,-59 0,-32 19,-59 42,-59z"/>
   <path class="fil4" d="M10286 8824c23,0 42,26 42,59 0,32 -19,59 -42,59 -23,0 -42,-26 -42,-59 0,-32 19,-59 42,-59z"/>
   <path class="fil4" d="M10426 8824c23,0 42,26 42,59 0,32 -19,59 -42,59 -23,0 -42,-26 -42,-59 0,-32 19,-59 42,-59z"/>
   <path class="fil4" d="M10555 8824c23,0 42,26 42,59 0,32 -19,59 -42,59 -23,0 -42,-26 -42,-59 0,-32 19,-59 42,-59z"/>
   <path class="fil4" d="M10683 8824c23,0 42,26 42,59 0,32 -19,59 -42,59 -23,0 -42,-26 -42,-59 0,-32 19,-59 42,-59z"/>
   <path class="fil4" d="M10823 8824c23,0 42,26 42,59 0,32 -19,59 -42,59 -23,0 -42,-26 -42,-59 0,-32 19,-59 42,-59z"/>
   <path class="fil4" d="M10952 8824c23,0 42,26 42,59 0,32 -19,59 -42,59 -23,0 -42,-26 -42,-59 0,-32 19,-59 42,-59z"/>
   <path class="fil4" d="M10981 8673c23,0 42,26 42,59 0,32 -19,59 -42,59 -23,0 -42,-26 -42,-59 0,-32 19,-59 42,-59z"/>
   <path class="fil4" d="M11121 8673c23,0 42,26 42,59 0,32 -19,59 -42,59 -23,0 -42,-26 -42,-59 0,-32 19,-59 42,-59z"/>
   <path class="fil4" d="M11250 8673c23,0 42,26 42,59 0,32 -19,59 -42,59 -23,0 -42,-26 -42,-59 0,-32 19,-59 42,-59z"/>
   <path class="fil4" d="M11378 8673c23,0 42,26 42,59 0,32 -19,59 -42,59 -23,0 -42,-26 -42,-59 0,-32 19,-59 42,-59z"/>
   <path class="fil4" d="M11518 8673c23,0 42,26 42,59 0,32 -19,59 -42,59 -23,0 -42,-26 -42,-59 0,-32 19,-59 42,-59z"/>
   <path class="fil4" d="M11647 8673c23,0 42,26 42,59 0,32 -19,59 -42,59 -23,0 -42,-26 -42,-59 0,-32 19,-59 42,-59z"/>
   <path class="fil4" d="M11767 8673c23,0 42,26 42,59 0,32 -19,59 -42,59 -23,0 -42,-26 -42,-59 0,-32 19,-59 42,-59z"/>
   <path class="fil4" d="M11907 8673c23,0 42,26 42,59 0,32 -19,59 -42,59 -23,0 -42,-26 -42,-59 0,-32 19,-59 42,-59z"/>
   <path class="fil4" d="M12037 8673c23,0 42,26 42,59 0,32 -19,59 -42,59 -23,0 -42,-26 -42,-59 0,-32 19,-59 42,-59z"/>
   <path class="fil4" d="M12164 8673c23,0 42,26 42,59 0,32 -19,59 -42,59 -23,0 -42,-26 -42,-59 0,-32 19,-59 42,-59z"/>
   <path class="fil4" d="M12304 8673c23,0 42,26 42,59 0,32 -19,59 -42,59 -23,0 -42,-26 -42,-59 0,-32 19,-59 42,-59z"/>
   <path class="fil4" d="M11070 8816c23,0 42,26 42,59 0,32 -19,59 -42,59 -23,0 -42,-26 -42,-59 0,-32 19,-59 42,-59z"/>
   <path class="fil4" d="M11199 8816c23,0 42,26 42,59 0,32 -19,59 -42,59 -23,0 -42,-26 -42,-59 0,-32 19,-59 42,-59z"/>
   <path class="fil4" d="M11327 8816c23,0 42,26 42,59 0,32 -19,59 -42,59 -23,0 -42,-26 -42,-59 0,-32 19,-59 42,-59z"/>
   <path class="fil4" d="M11467 8816c23,0 42,26 42,59 0,32 -19,59 -42,59 -23,0 -42,-26 -42,-59 0,-32 19,-59 42,-59z"/>
   <path class="fil4" d="M11596 8816c23,0 42,26 42,59 0,32 -19,59 -42,59 -23,0 -42,-26 -42,-59 0,-32 19,-59 42,-59z"/>
   <path class="fil4" d="M11715 8816c23,0 42,26 42,59 0,32 -19,59 -42,59 -23,0 -42,-26 -42,-59 0,-32 19,-59 42,-59z"/>
   <path class="fil4" d="M11856 8816c23,0 42,26 42,59 0,32 -19,59 -42,59 -23,0 -42,-26 -42,-59 0,-32 19,-59 42,-59z"/>
   <path class="fil4" d="M11985 8816c23,0 42,26 42,59 0,32 -19,59 -42,59 -23,0 -42,-26 -42,-59 0,-32 19,-59 42,-59z"/>
   <path class="fil4" d="M12113 8816c23,0 42,26 42,59 0,32 -19,59 -42,59 -23,0 -42,-26 -42,-59 0,-32 19,-59 42,-59z"/>
   <path class="fil4" d="M12254 8816c23,0 42,26 42,59 0,32 -19,59 -42,59 -23,0 -42,-26 -42,-59 0,-32 19,-59 42,-59z"/>
   <path class="fil4" d="M12382 8816c23,0 42,26 42,59 0,32 -19,59 -42,59 -23,0 -42,-26 -42,-59 0,-32 19,-59 42,-59z"/>
   <path class="fil4" d="M9982 8952c23,0 42,26 42,59 0,32 -19,59 -42,59 -23,0 -42,-26 -42,-59 0,-32 19,-59 42,-59z"/>
   <path class="fil4" d="M10123 8952c23,0 42,26 42,59 0,32 -19,59 -42,59 -23,0 -42,-26 -42,-59 0,-32 19,-59 42,-59z"/>
   <path class="fil4" d="M10252 8952c23,0 42,26 42,59 0,32 -19,59 -42,59 -23,0 -42,-26 -42,-59 0,-32 19,-59 42,-59z"/>
   <path class="fil4" d="M10379 8952c23,0 42,26 42,59 0,32 -19,59 -42,59 -23,0 -42,-26 -42,-59 0,-32 19,-59 42,-59z"/>
   <path class="fil4" d="M10520 8952c23,0 42,26 42,59 0,32 -19,59 -42,59 -23,0 -42,-26 -42,-59 0,-32 19,-59 42,-59z"/>
   <path class="fil4" d="M10649 8952c23,0 42,26 42,59 0,32 -19,59 -42,59 -23,0 -42,-26 -42,-59 0,-32 19,-59 42,-59z"/>
   <path class="fil4" d="M10768 8952c23,0 42,26 42,59 0,32 -19,59 -42,59 -23,0 -42,-26 -42,-59 0,-32 19,-59 42,-59z"/>
   <path class="fil4" d="M10908 8952c23,0 42,26 42,59 0,32 -19,59 -42,59 -23,0 -42,-26 -42,-59 0,-32 19,-59 42,-59z"/>
   <path class="fil4" d="M11038 8952c23,0 42,26 42,59 0,32 -19,59 -42,59 -23,0 -42,-26 -42,-59 0,-32 19,-59 42,-59z"/>
   <path class="fil4" d="M11165 8952c23,0 42,26 42,59 0,32 -19,59 -42,59 -23,0 -42,-26 -42,-59 0,-32 19,-59 42,-59z"/>
   <path class="fil4" d="M11306 8952c23,0 42,26 42,59 0,32 -19,59 -42,59 -23,0 -42,-26 -42,-59 0,-32 19,-59 42,-59z"/>
   <path class="fil4" d="M11435 8952c23,0 42,26 42,59 0,32 -19,59 -42,59 -23,0 -42,-26 -42,-59 0,-32 19,-59 42,-59z"/>
   <path class="fil4" d="M9970 9132c-24,-5 -48,-11 -71,-17 8,-13 19,-20 31,-20 18,0 33,15 39,37z"/>
   <path class="fil4" d="M10114 9163c-29,-5 -57,-12 -84,-17 4,-29 21,-50 42,-50 23,0 42,26 42,59 0,3 0,5 0,8z"/>
   <path class="fil4" d="M10237 9186c-26,-4 -51,-9 -77,-14 -1,-5 -2,-12 -2,-17 0,-32 19,-59 42,-59 23,0 42,26 42,59 0,12 -3,22 -6,31l1 0z"/>
   <path class="fil4" d="M10351 9205c-18,-3 -35,-5 -52,-8 -8,-11 -13,-25 -13,-42 0,-32 19,-59 42,-59 23,0 42,26 42,59 0,22 -8,39 -21,50l1 0z"/>
   <path class="fil4" d="M10469 9095c23,0 42,26 42,59 0,32 -19,59 -42,59 -23,0 -42,-26 -42,-59 0,-32 19,-59 42,-59z"/>
   <path class="fil4" d="M10598 9095c23,0 42,26 42,59 0,32 -19,59 -42,59 -23,0 -42,-26 -42,-59 0,-32 19,-59 42,-59z"/>
   <path class="fil4" d="M10717 9095c23,0 42,26 42,59 0,32 -19,59 -42,59 -23,0 -42,-26 -42,-59 0,-32 19,-59 42,-59z"/>
   <path class="fil4" d="M10857 9095c23,0 42,26 42,59 0,32 -19,59 -42,59 -23,0 -42,-26 -42,-59 0,-32 19,-59 42,-59z"/>
   <path class="fil4" d="M10986 9095c23,0 42,26 42,59 0,32 -19,59 -42,59 -23,0 -42,-26 -42,-59 0,-32 19,-59 42,-59z"/>
   <path class="fil4" d="M11115 9095c23,0 42,26 42,59 0,32 -19,59 -42,59 -23,0 -42,-26 -42,-59 0,-32 19,-59 42,-59z"/>
   <path class="fil4" d="M11255 9095c23,0 42,26 42,59 0,32 -19,59 -42,59 -23,0 -42,-26 -42,-59 0,-32 19,-59 42,-59z"/>
   <path class="fil4" d="M11384 9095c23,0 42,26 42,59 0,32 -19,59 -42,59 -23,0 -42,-26 -42,-59 0,-32 19,-59 42,-59z"/>
   <path class="fil4" d="M10714 9250c-17,-2 -35,-4 -52,-5 7,-6 15,-10 23,-10 11,0 21,5 29,15z"/>
   <path class="fil4" d="M10840 9261c-22,-2 -45,-4 -67,-5 8,-13 20,-21 32,-21 14,0 28,10 35,26z"/>
   <path class="fil4" d="M10985 9270c-25,-2 -51,-3 -76,-4 7,-18 22,-30 38,-30 17,0 32,14 39,35z"/>
   <path class="fil4" d="M11115 9276c-27,-1 -54,-2 -81,-4 6,-22 22,-38 39,-38 19,0 35,17 40,41l1 0z"/>
   <path class="fil4" d="M11244 9280c-28,-1 -55,-1 -83,-2 5,-25 22,-43 41,-43 20,0 37,19 41,45z"/>
   <path class="fil4" d="M11384 9281l-7 0c-25,0 -50,0 -76,0 4,-26 22,-46 41,-46 21,0 38,20 41,46l1 0z"/>
   <path class="fil4" d="M11491 9280c-28,1 -57,1 -84,1 2,-30 20,-54 42,-54 22,0 40,23 42,53z"/>
   <path class="fil4" d="M11631 9276c-28,1 -56,2 -84,3 3,-30 21,-52 42,-52 22,0 39,22 42,49z"/>
   <path class="fil4" d="M11759 9271c-28,2 -55,3 -83,4 4,-27 21,-48 42,-48 20,0 36,19 41,44l-1 0z"/>
   <path class="fil4" d="M11885 9263c-26,2 -53,4 -80,5 5,-24 22,-41 40,-41 18,0 32,14 39,36z"/>
   <path class="fil4" d="M12021 9252c-24,2 -48,4 -72,6 7,-19 22,-30 38,-30 14,0 27,10 35,24l-1 0z"/>
   <path class="fil4" d="M12141 9240c-19,2 -38,4 -57,6 8,-12 19,-19 30,-19 10,0 19,4 26,13z"/>
   <path class="fil4" d="M12240 9228c-6,1 -13,2 -19,3 4,-2 8,-3 13,-3 2,0 4,0 5,1l0 -1z"/>
   <path class="fil4" d="M10555 7698c23,0 42,26 42,59 0,32 -19,59 -42,59 -23,0 -42,-26 -42,-59 0,-32 19,-59 42,-59z"/>
   <path class="fil4" d="M10696 7698c23,0 42,26 42,59 0,32 -19,59 -42,59 -23,0 -42,-26 -42,-59 0,-32 19,-59 42,-59z"/>
   <path class="fil4" d="M10825 7698c23,0 42,26 42,59 0,32 -19,59 -42,59 -23,0 -42,-26 -42,-59 0,-32 19,-59 42,-59z"/>
   <path class="fil4" d="M10952 7698c23,0 42,26 42,59 0,32 -19,59 -42,59 -23,0 -42,-26 -42,-59 0,-32 19,-59 42,-59z"/>
   <path class="fil4" d="M11093 7698c23,0 42,26 42,59 0,32 -19,59 -42,59 -23,0 -42,-26 -42,-59 0,-32 19,-59 42,-59z"/>
   <path class="fil4" d="M11222 7698c23,0 42,26 42,59 0,32 -19,59 -42,59 -23,0 -42,-26 -42,-59 0,-32 19,-59 42,-59z"/>
   <path class="fil4" d="M11342 7698c23,0 42,26 42,59 0,32 -19,59 -42,59 -23,0 -42,-26 -42,-59 0,-32 19,-59 42,-59z"/>
   <path class="fil4" d="M11481 7698c23,0 42,26 42,59 0,32 -19,59 -42,59 -23,0 -42,-26 -42,-59 0,-32 19,-59 42,-59z"/>
   <path class="fil4" d="M11611 7698c23,0 42,26 42,59 0,32 -19,59 -42,59 -23,0 -42,-26 -42,-59 0,-32 19,-59 42,-59z"/>
   <path class="fil4" d="M11738 7698c23,0 42,26 42,59 0,32 -19,59 -42,59 -23,0 -42,-26 -42,-59 0,-32 19,-59 42,-59z"/>
   <path class="fil4" d="M11879 7698c23,0 42,26 42,59 0,32 -19,59 -42,59 -23,0 -42,-26 -42,-59 0,-32 19,-59 42,-59z"/>
   <path class="fil4" d="M12008 7698c23,0 42,26 42,59 0,32 -19,59 -42,59 -23,0 -42,-26 -42,-59 0,-32 19,-59 42,-59z"/>
   <path class="fil4" d="M10504 7842c23,0 42,26 42,59 0,32 -19,59 -42,59 -23,0 -42,-26 -42,-59 0,-32 19,-59 42,-59z"/>
   <path class="fil4" d="M10645 7842c23,0 42,26 42,59 0,32 -19,59 -42,59 -23,0 -42,-26 -42,-59 0,-32 19,-59 42,-59z"/>
   <path class="fil4" d="M10774 7842c23,0 42,26 42,59 0,32 -19,59 -42,59 -23,0 -42,-26 -42,-59 0,-32 19,-59 42,-59z"/>
   <path class="fil4" d="M10901 7842c23,0 42,26 42,59 0,32 -19,59 -42,59 -23,0 -42,-26 -42,-59 0,-32 19,-59 42,-59z"/>
   <path class="fil4" d="M11042 7842c23,0 42,26 42,59 0,32 -19,59 -42,59 -23,0 -42,-26 -42,-59 0,-32 19,-59 42,-59z"/>
   <path class="fil4" d="M11171 7842c23,0 42,26 42,59 0,32 -19,59 -42,59 -23,0 -42,-26 -42,-59 0,-32 19,-59 42,-59z"/>
   <path class="fil4" d="M11290 7842c23,0 42,26 42,59 0,32 -19,59 -42,59 -23,0 -42,-26 -42,-59 0,-32 19,-59 42,-59z"/>
   <path class="fil4" d="M11430 7842c23,0 42,26 42,59 0,32 -19,59 -42,59 -23,0 -42,-26 -42,-59 0,-32 19,-59 42,-59z"/>
   <path class="fil4" d="M11559 7842c23,0 42,26 42,59 0,32 -19,59 -42,59 -23,0 -42,-26 -42,-59 0,-32 19,-59 42,-59z"/>
   <path class="fil4" d="M11687 7842c23,0 42,26 42,59 0,32 -19,59 -42,59 -23,0 -42,-26 -42,-59 0,-32 19,-59 42,-59z"/>
   <path class="fil4" d="M11828 7842c23,0 42,26 42,59 0,32 -19,59 -42,59 -23,0 -42,-26 -42,-59 0,-32 19,-59 42,-59z"/>
   <path class="fil4" d="M11957 7842c23,0 42,26 42,59 0,32 -19,59 -42,59 -23,0 -42,-26 -42,-59 0,-32 19,-59 42,-59z"/>
   <path class="fil4" d="M10592 7981c23,0 42,26 42,59 0,32 -19,59 -42,59 -23,0 -42,-26 -42,-59 0,-32 19,-59 42,-59z"/>
   <path class="fil4" d="M10733 7981c23,0 42,26 42,59 0,32 -19,59 -42,59 -23,0 -42,-26 -42,-59 0,-32 19,-59 42,-59z"/>
   <path class="fil4" d="M10862 7981c23,0 42,26 42,59 0,32 -19,59 -42,59 -23,0 -42,-26 -42,-59 0,-32 19,-59 42,-59z"/>
   <path class="fil4" d="M10989 7981c23,0 42,26 42,59 0,32 -19,59 -42,59 -23,0 -42,-26 -42,-59 0,-32 19,-59 42,-59z"/>
   <path class="fil4" d="M11130 7981c23,0 42,26 42,59 0,32 -19,59 -42,59 -23,0 -42,-26 -42,-59 0,-32 19,-59 42,-59z"/>
   <path class="fil4" d="M11259 7981c23,0 42,26 42,59 0,32 -19,59 -42,59 -23,0 -42,-26 -42,-59 0,-32 19,-59 42,-59z"/>
   <path class="fil4" d="M11378 7981c23,0 42,26 42,59 0,32 -19,59 -42,59 -23,0 -42,-26 -42,-59 0,-32 19,-59 42,-59z"/>
   <path class="fil4" d="M11518 7981c23,0 42,26 42,59 0,32 -19,59 -42,59 -23,0 -42,-26 -42,-59 0,-32 19,-59 42,-59z"/>
   <path class="fil4" d="M11647 7981c23,0 42,26 42,59 0,32 -19,59 -42,59 -23,0 -42,-26 -42,-59 0,-32 19,-59 42,-59z"/>
   <path class="fil4" d="M11776 7981c23,0 42,26 42,59 0,32 -19,59 -42,59 -23,0 -42,-26 -42,-59 0,-32 19,-59 42,-59z"/>
   <path class="fil4" d="M11915 7981c23,0 42,26 42,59 0,32 -19,59 -42,59 -23,0 -42,-26 -42,-59 0,-32 19,-59 42,-59z"/>
   <path class="fil4" d="M10682 8124c23,0 42,26 42,59 0,32 -19,59 -42,59 -23,0 -42,-26 -42,-59 0,-32 19,-59 42,-59z"/>
   <path class="fil4" d="M10811 8124c23,0 42,26 42,59 0,32 -19,59 -42,59 -23,0 -42,-26 -42,-59 0,-32 19,-59 42,-59z"/>
   <path class="fil4" d="M10938 8124c23,0 42,26 42,59 0,32 -19,59 -42,59 -23,0 -42,-26 -42,-59 0,-32 19,-59 42,-59z"/>
   <path class="fil4" d="M11079 8124c23,0 42,26 42,59 0,32 -19,59 -42,59 -23,0 -42,-26 -42,-59 0,-32 19,-59 42,-59z"/>
   <path class="fil4" d="M11208 8124c23,0 42,26 42,59 0,32 -19,59 -42,59 -23,0 -42,-26 -42,-59 0,-32 19,-59 42,-59z"/>
   <path class="fil4" d="M11327 8124c23,0 42,26 42,59 0,32 -19,59 -42,59 -23,0 -42,-26 -42,-59 0,-32 19,-59 42,-59z"/>
   <path class="fil4" d="M11467 8124c23,0 42,26 42,59 0,32 -19,59 -42,59 -23,0 -42,-26 -42,-59 0,-32 19,-59 42,-59z"/>
   <path class="fil4" d="M11596 8124c23,0 42,26 42,59 0,32 -19,59 -42,59 -23,0 -42,-26 -42,-59 0,-32 19,-59 42,-59z"/>
   <path class="fil4" d="M11724 8124c23,0 42,26 42,59 0,32 -19,59 -42,59 -23,0 -42,-26 -42,-59 0,-32 19,-59 42,-59z"/>
   <path class="fil4" d="M11864 8124c23,0 42,26 42,59 0,32 -19,59 -42,59 -23,0 -42,-26 -42,-59 0,-32 19,-59 42,-59z"/>
   <path class="fil4" d="M11993 8124c23,0 42,26 42,59 0,32 -19,59 -42,59 -23,0 -42,-26 -42,-59 0,-32 19,-59 42,-59z"/>
   <path class="fil4" d="M12022 7973c23,0 42,26 42,59 0,32 -19,59 -42,59 -23,0 -42,-26 -42,-59 0,-32 19,-59 42,-59z"/>
   <path class="fil4" d="M12162 7973c23,0 42,26 42,59 0,32 -19,59 -42,59 -23,0 -42,-26 -42,-59 0,-32 19,-59 42,-59z"/>
   <path class="fil4" d="M12291 7973c23,0 42,26 42,59 0,32 -19,59 -42,59 -23,0 -42,-26 -42,-59 0,-32 19,-59 42,-59z"/>
   <path class="fil4" d="M12419 7973c23,0 42,26 42,59 0,32 -19,59 -42,59 -23,0 -42,-26 -42,-59 0,-32 19,-59 42,-59z"/>
   <path class="fil4" d="M12559 7973c23,0 42,26 42,59 0,32 -19,59 -42,59 -23,0 -42,-26 -42,-59 0,-32 19,-59 42,-59z"/>
   <path class="fil4" d="M12688 7973c23,0 42,26 42,59 0,32 -19,59 -42,59 -23,0 -42,-26 -42,-59 0,-32 19,-59 42,-59z"/>
   <path class="fil4" d="M12808 7973c23,0 42,26 42,59 0,32 -19,59 -42,59 -23,0 -42,-26 -42,-59 0,-32 19,-59 42,-59z"/>
   <path class="fil4" d="M12948 7973c23,0 42,26 42,59 0,32 -19,59 -42,59 -23,0 -42,-26 -42,-59 0,-32 19,-59 42,-59z"/>
   <path class="fil4" d="M13077 7973c23,0 42,26 42,59 0,32 -19,59 -42,59 -23,0 -42,-26 -42,-59 0,-32 19,-59 42,-59z"/>
   <path class="fil4" d="M13205 7973c23,0 42,26 42,59 0,32 -19,59 -42,59 -23,0 -42,-26 -42,-59 0,-32 19,-59 42,-59z"/>
   <path class="fil4" d="M13345 7973c23,0 42,26 42,59 0,32 -19,59 -42,59 -23,0 -42,-26 -42,-59 0,-32 19,-59 42,-59z"/>
   <path class="fil4" d="M12111 8117c23,0 42,26 42,59 0,32 -19,59 -42,59 -23,0 -42,-26 -42,-59 0,-32 19,-59 42,-59z"/>
   <path class="fil4" d="M12240 8117c23,0 42,26 42,59 0,32 -19,59 -42,59 -23,0 -42,-26 -42,-59 0,-32 19,-59 42,-59z"/>
   <path class="fil4" d="M12368 8117c23,0 42,26 42,59 0,32 -19,59 -42,59 -23,0 -42,-26 -42,-59 0,-32 19,-59 42,-59z"/>
   <path class="fil4" d="M12508 8117c23,0 42,26 42,59 0,32 -19,59 -42,59 -23,0 -42,-26 -42,-59 0,-32 19,-59 42,-59z"/>
   <path class="fil4" d="M12637 8117c23,0 42,26 42,59 0,32 -19,59 -42,59 -23,0 -42,-26 -42,-59 0,-32 19,-59 42,-59z"/>
   <path class="fil4" d="M12757 8117c23,0 42,26 42,59 0,32 -19,59 -42,59 -23,0 -42,-26 -42,-59 0,-32 19,-59 42,-59z"/>
   <path class="fil4" d="M12897 8117c23,0 42,26 42,59 0,32 -19,59 -42,59 -23,0 -42,-26 -42,-59 0,-32 19,-59 42,-59z"/>
   <path class="fil4" d="M13026 8117c23,0 42,26 42,59 0,32 -19,59 -42,59 -23,0 -42,-26 -42,-59 0,-32 19,-59 42,-59z"/>
   <path class="fil4" d="M13154 8117c23,0 42,26 42,59 0,32 -19,59 -42,59 -23,0 -42,-26 -42,-59 0,-32 19,-59 42,-59z"/>
   <path class="fil4" d="M13294 8117c23,0 42,26 42,59 0,32 -19,59 -42,59 -23,0 -42,-26 -42,-59 0,-32 19,-59 42,-59z"/>
   <path class="fil4" d="M13423 8117c23,0 42,26 42,59 0,32 -19,59 -42,59 -23,0 -42,-26 -42,-59 0,-32 19,-59 42,-59z"/>
   <path class="fil4" d="M11023 8252c23,0 42,26 42,59 0,32 -19,59 -42,59 -23,0 -42,-26 -42,-59 0,-32 19,-59 42,-59z"/>
   <path class="fil4" d="M11164 8252c23,0 42,26 42,59 0,32 -19,59 -42,59 -23,0 -42,-26 -42,-59 0,-32 19,-59 42,-59z"/>
   <path class="fil4" d="M11293 8252c23,0 42,26 42,59 0,32 -19,59 -42,59 -23,0 -42,-26 -42,-59 0,-32 19,-59 42,-59z"/>
   <path class="fil4" d="M11420 8252c23,0 42,26 42,59 0,32 -19,59 -42,59 -23,0 -42,-26 -42,-59 0,-32 19,-59 42,-59z"/>
   <path class="fil4" d="M11561 8252c23,0 42,26 42,59 0,32 -19,59 -42,59 -23,0 -42,-26 -42,-59 0,-32 19,-59 42,-59z"/>
   <path class="fil4" d="M11690 8252c23,0 42,26 42,59 0,32 -19,59 -42,59 -23,0 -42,-26 -42,-59 0,-32 19,-59 42,-59z"/>
   <path class="fil4" d="M11809 8252c23,0 42,26 42,59 0,32 -19,59 -42,59 -23,0 -42,-26 -42,-59 0,-32 19,-59 42,-59z"/>
   <path class="fil4" d="M11950 8252c23,0 42,26 42,59 0,32 -19,59 -42,59 -23,0 -42,-26 -42,-59 0,-32 19,-59 42,-59z"/>
   <path class="fil4" d="M12079 8252c23,0 42,26 42,59 0,32 -19,59 -42,59 -23,0 -42,-26 -42,-59 0,-32 19,-59 42,-59z"/>
   <path class="fil4" d="M12206 8252c23,0 42,26 42,59 0,32 -19,59 -42,59 -23,0 -42,-26 -42,-59 0,-32 19,-59 42,-59z"/>
   <path class="fil4" d="M12347 8252c23,0 42,26 42,59 0,32 -19,59 -42,59 -23,0 -42,-26 -42,-59 0,-32 19,-59 42,-59z"/>
   <path class="fil4" d="M12476 8252c23,0 42,26 42,59 0,32 -19,59 -42,59 -23,0 -42,-26 -42,-59 0,-32 19,-59 42,-59z"/>
   <path class="fil4" d="M10972 8396c23,0 42,26 42,59 0,32 -19,59 -42,59 -23,0 -42,-26 -42,-59 0,-32 19,-59 42,-59z"/>
   <path class="fil4" d="M11113 8396c23,0 42,26 42,59 0,32 -19,59 -42,59 -23,0 -42,-26 -42,-59 0,-32 19,-59 42,-59z"/>
   <path class="fil4" d="M11242 8396c23,0 42,26 42,59 0,32 -19,59 -42,59 -23,0 -42,-26 -42,-59 0,-32 19,-59 42,-59z"/>
   <path class="fil4" d="M11369 8396c23,0 42,26 42,59 0,32 -19,59 -42,59 -23,0 -42,-26 -42,-59 0,-32 19,-59 42,-59z"/>
   <path class="fil4" d="M11510 8396c23,0 42,26 42,59 0,32 -19,59 -42,59 -23,0 -42,-26 -42,-59 0,-32 19,-59 42,-59z"/>
   <path class="fil4" d="M11639 8396c23,0 42,26 42,59 0,32 -19,59 -42,59 -23,0 -42,-26 -42,-59 0,-32 19,-59 42,-59z"/>
   <path class="fil4" d="M11759 8396c23,0 42,26 42,59 0,32 -19,59 -42,59 -23,0 -42,-26 -42,-59 0,-32 19,-59 42,-59z"/>
   <path class="fil4" d="M11898 8396c23,0 42,26 42,59 0,32 -19,59 -42,59 -23,0 -42,-26 -42,-59 0,-32 19,-59 42,-59z"/>
   <path class="fil4" d="M12028 8396c23,0 42,26 42,59 0,32 -19,59 -42,59 -23,0 -42,-26 -42,-59 0,-32 19,-59 42,-59z"/>
   <path class="fil4" d="M12155 8396c23,0 42,26 42,59 0,32 -19,59 -42,59 -23,0 -42,-26 -42,-59 0,-32 19,-59 42,-59z"/>
   <path class="fil4" d="M12296 8396c23,0 42,26 42,59 0,32 -19,59 -42,59 -23,0 -42,-26 -42,-59 0,-32 19,-59 42,-59z"/>
   <path class="fil4" d="M12425 8396c23,0 42,26 42,59 0,32 -19,59 -42,59 -23,0 -42,-26 -42,-59 0,-32 19,-59 42,-59z"/>
   <path class="fil4" d="M11060 8536c23,0 42,26 42,59 0,32 -19,59 -42,59 -23,0 -42,-26 -42,-59 0,-32 19,-59 42,-59z"/>
   <path class="fil4" d="M11201 8536c23,0 42,26 42,59 0,32 -19,59 -42,59 -23,0 -42,-26 -42,-59 0,-32 19,-59 42,-59z"/>
   <path class="fil4" d="M11330 8536c23,0 42,26 42,59 0,32 -19,59 -42,59 -23,0 -42,-26 -42,-59 0,-32 19,-59 42,-59z"/>
   <path class="fil4" d="M11457 8536c23,0 42,26 42,59 0,32 -19,59 -42,59 -23,0 -42,-26 -42,-59 0,-32 19,-59 42,-59z"/>
   <path class="fil4" d="M11598 8536c23,0 42,26 42,59 0,32 -19,59 -42,59 -23,0 -42,-26 -42,-59 0,-32 19,-59 42,-59z"/>
   <path class="fil4" d="M11727 8536c23,0 42,26 42,59 0,32 -19,59 -42,59 -23,0 -42,-26 -42,-59 0,-32 19,-59 42,-59z"/>
   <path class="fil4" d="M11846 8536c23,0 42,26 42,59 0,32 -19,59 -42,59 -23,0 -42,-26 -42,-59 0,-32 19,-59 42,-59z"/>
   <path class="fil4" d="M11986 8536c23,0 42,26 42,59 0,32 -19,59 -42,59 -23,0 -42,-26 -42,-59 0,-32 19,-59 42,-59z"/>
   <path class="fil4" d="M12115 8536c23,0 42,26 42,59 0,32 -19,59 -42,59 -23,0 -42,-26 -42,-59 0,-32 19,-59 42,-59z"/>
   <path class="fil4" d="M12243 8536c23,0 42,26 42,59 0,32 -19,59 -42,59 -23,0 -42,-26 -42,-59 0,-32 19,-59 42,-59z"/>
   <path class="fil4" d="M12384 8536c23,0 42,26 42,59 0,32 -19,59 -42,59 -23,0 -42,-26 -42,-59 0,-32 19,-59 42,-59z"/>
   <path class="fil4" d="M11150 8679c23,0 42,26 42,59 0,32 -19,59 -42,59 -23,0 -42,-26 -42,-59 0,-32 19,-59 42,-59z"/>
   <path class="fil4" d="M11279 8679c23,0 42,26 42,59 0,32 -19,59 -42,59 -23,0 -42,-26 -42,-59 0,-32 19,-59 42,-59z"/>
   <path class="fil4" d="M11406 8679c23,0 42,26 42,59 0,32 -19,59 -42,59 -23,0 -42,-26 -42,-59 0,-32 19,-59 42,-59z"/>
   <path class="fil4" d="M11547 8679c23,0 42,26 42,59 0,32 -19,59 -42,59 -23,0 -42,-26 -42,-59 0,-32 19,-59 42,-59z"/>
   <path class="fil4" d="M11676 8679c23,0 42,26 42,59 0,32 -19,59 -42,59 -23,0 -42,-26 -42,-59 0,-32 19,-59 42,-59z"/>
   <path class="fil4" d="M11795 8679c23,0 42,26 42,59 0,32 -19,59 -42,59 -23,0 -42,-26 -42,-59 0,-32 19,-59 42,-59z"/>
   <path class="fil4" d="M11935 8679c23,0 42,26 42,59 0,32 -19,59 -42,59 -23,0 -42,-26 -42,-59 0,-32 19,-59 42,-59z"/>
   <path class="fil4" d="M12064 8679c23,0 42,26 42,59 0,32 -19,59 -42,59 -23,0 -42,-26 -42,-59 0,-32 19,-59 42,-59z"/>
   <path class="fil4" d="M12192 8679c23,0 42,26 42,59 0,32 -19,59 -42,59 -23,0 -42,-26 -42,-59 0,-32 19,-59 42,-59z"/>
   <path class="fil4" d="M12332 8679c23,0 42,26 42,59 0,32 -19,59 -42,59 -23,0 -42,-26 -42,-59 0,-32 19,-59 42,-59z"/>
   <path class="fil4" d="M12462 8679c23,0 42,26 42,59 0,32 -19,59 -42,59 -23,0 -42,-26 -42,-59 0,-32 19,-59 42,-59z"/>
   <path class="fil4" d="M12490 8528c23,0 42,26 42,59 0,32 -19,59 -42,59 -23,0 -42,-26 -42,-59 0,-32 19,-59 42,-59z"/>
   <path class="fil4" d="M12630 8528c23,0 42,26 42,59 0,32 -19,59 -42,59 -23,0 -42,-26 -42,-59 0,-32 19,-59 42,-59z"/>
   <path class="fil4" d="M12759 8528c23,0 42,26 42,59 0,32 -19,59 -42,59 -23,0 -42,-26 -42,-59 0,-32 19,-59 42,-59z"/>
   <path class="fil4" d="M12887 8528c23,0 42,26 42,59 0,32 -19,59 -42,59 -23,0 -42,-26 -42,-59 0,-32 19,-59 42,-59z"/>
   <path class="fil4" d="M13027 8528c23,0 42,26 42,59 0,32 -19,59 -42,59 -23,0 -42,-26 -42,-59 0,-32 19,-59 42,-59z"/>
   <path class="fil4" d="M13157 8528c23,0 42,26 42,59 0,32 -19,59 -42,59 -23,0 -42,-26 -42,-59 0,-32 19,-59 42,-59z"/>
   <path class="fil4" d="M13276 8528c23,0 42,26 42,59 0,32 -19,59 -42,59 -23,0 -42,-26 -42,-59 0,-32 19,-59 42,-59z"/>
   <path class="fil4" d="M13416 8528c23,0 42,26 42,59 0,32 -19,59 -42,59 -23,0 -42,-26 -42,-59 0,-32 19,-59 42,-59z"/>
   <path class="fil4" d="M13545 8528c23,0 42,26 42,59 0,32 -19,59 -42,59 -23,0 -42,-26 -42,-59 0,-32 19,-59 42,-59z"/>
   <path class="fil4" d="M13673 8528c23,0 42,26 42,59 0,32 -19,59 -42,59 -23,0 -42,-26 -42,-59 0,-32 19,-59 42,-59z"/>
   <path class="fil4" d="M13813 8528c23,0 42,26 42,59 0,32 -19,59 -42,59 -23,0 -42,-26 -42,-59 0,-32 19,-59 42,-59z"/>
   <path class="fil4" d="M12579 8671c23,0 42,26 42,59 0,32 -19,59 -42,59 -23,0 -42,-26 -42,-59 0,-32 19,-59 42,-59z"/>
   <path class="fil4" d="M12708 8671c23,0 42,26 42,59 0,32 -19,59 -42,59 -23,0 -42,-26 -42,-59 0,-32 19,-59 42,-59z"/>
   <path class="fil4" d="M12836 8671c23,0 42,26 42,59 0,32 -19,59 -42,59 -23,0 -42,-26 -42,-59 0,-32 19,-59 42,-59z"/>
   <path class="fil4" d="M12976 8671c23,0 42,26 42,59 0,32 -19,59 -42,59 -23,0 -42,-26 -42,-59 0,-32 19,-59 42,-59z"/>
   <path class="fil4" d="M13105 8671c23,0 42,26 42,59 0,32 -19,59 -42,59 -23,0 -42,-26 -42,-59 0,-32 19,-59 42,-59z"/>
   <path class="fil4" d="M13225 8671c23,0 42,26 42,59 0,32 -19,59 -42,59 -23,0 -42,-26 -42,-59 0,-32 19,-59 42,-59z"/>
   <path class="fil4" d="M13365 8671c23,0 42,26 42,59 0,32 -19,59 -42,59 -23,0 -42,-26 -42,-59 0,-32 19,-59 42,-59z"/>
   <path class="fil4" d="M13494 8671c23,0 42,26 42,59 0,32 -19,59 -42,59 -23,0 -42,-26 -42,-59 0,-32 19,-59 42,-59z"/>
   <path class="fil4" d="M13622 8671c23,0 42,26 42,59 0,32 -19,59 -42,59 -23,0 -42,-26 -42,-59 0,-32 19,-59 42,-59z"/>
   <path class="fil4" d="M13805 8731c-22,15 -46,30 -69,44 -10,-11 -15,-27 -15,-46 0,-32 19,-59 42,-59 23,0 42,26 42,59l0 2z"/>
   <path class="fil4" d="M13888 8671c-11,8 -21,16 -31,24 7,-13 19,-22 31,-24z"/>
   <path class="fil4" d="M11549 7047c28,1 57,2 84,3 0,3 0,4 0,7 0,32 -19,59 -42,59 -23,0 -42,-26 -42,-59 0,-4 0,-7 1,-10l-1 0z"/>
   <path class="fil4" d="M11689 7052c29,1 56,3 85,4l0 1c0,32 -19,59 -42,59 -23,0 -42,-26 -42,-59 0,-2 0,-4 0,-5l-1 0z"/>
   <path class="fil4" d="M11818 7059c29,2 57,4 84,6 -3,29 -21,52 -42,52 -23,0 -42,-26 -42,-57l0 -1z"/>
   <path class="fil4" d="M11946 7068c28,3 55,4 83,7 -5,24 -22,41 -40,41 -21,0 -39,-21 -42,-48z"/>
   <path class="fil4" d="M12089 7081c25,3 50,5 74,8 -7,16 -21,27 -36,27 -17,0 -32,-14 -39,-35z"/>
   <path class="fil4" d="M12226 7096c19,3 39,4 57,7 -7,7 -16,12 -26,12 -13,0 -24,-7 -31,-20l0 1z"/>
   <path class="fil4" d="M11540 7141c23,0 42,26 42,59 0,32 -19,59 -42,59 -23,0 -42,-26 -42,-59 0,-32 19,-59 42,-59z"/>
   <path class="fil4" d="M11681 7141c23,0 42,26 42,59 0,32 -19,59 -42,59 -23,0 -42,-26 -42,-59 0,-32 19,-59 42,-59z"/>
   <path class="fil4" d="M11809 7141c23,0 42,26 42,59 0,32 -19,59 -42,59 -23,0 -42,-26 -42,-59 0,-32 19,-59 42,-59z"/>
   <path class="fil4" d="M11937 7141c23,0 42,26 42,59 0,32 -19,59 -42,59 -23,0 -42,-26 -42,-59 0,-32 19,-59 42,-59z"/>
   <path class="fil4" d="M12077 7141c23,0 42,26 42,59 0,32 -19,59 -42,59 -23,0 -42,-26 -42,-59 0,-32 19,-59 42,-59z"/>
   <path class="fil4" d="M12206 7141c23,0 42,26 42,59 0,32 -19,59 -42,59 -23,0 -42,-26 -42,-59 0,-32 19,-59 42,-59z"/>
   <path class="fil4" d="M12325 7141c23,0 42,26 42,59 0,32 -19,59 -42,59 -23,0 -42,-26 -42,-59 0,-32 19,-59 42,-59z"/>
   <path class="fil4" d="M12466 7141c23,0 42,26 42,59 0,32 -19,59 -42,59 -23,0 -42,-26 -42,-59 0,-32 19,-59 42,-59z"/>
   <path class="fil4" d="M12573 7150c18,4 36,7 54,10 7,11 12,24 12,40 0,32 -19,59 -42,59 -23,0 -42,-26 -42,-59 0,-22 8,-39 21,-50l-2 0z"/>
   <path class="fil4" d="M12685 7173c27,5 53,12 79,17 1,4 1,7 1,11 0,32 -19,59 -42,59 -23,0 -42,-26 -42,-59 0,-10 2,-20 5,-28l-1 0z"/>
   <path class="fil4" d="M12820 7202c28,6 55,13 82,20 -6,22 -22,37 -39,37 -23,0 -42,-25 -42,-57z"/>
   <path class="fil4" d="M12959 7237c18,4 36,10 54,14 -6,4 -13,7 -21,7 -13,0 -25,-9 -33,-22z"/>
   <path class="fil4" d="M11628 7281c23,0 42,26 42,59 0,32 -19,59 -42,59 -23,0 -42,-26 -42,-59 0,-32 19,-59 42,-59z"/>
   <path class="fil4" d="M11768 7281c23,0 42,26 42,59 0,32 -19,59 -42,59 -23,0 -42,-26 -42,-59 0,-32 19,-59 42,-59z"/>
   <path class="fil4" d="M11898 7281c23,0 42,26 42,59 0,32 -19,59 -42,59 -23,0 -42,-26 -42,-59 0,-32 19,-59 42,-59z"/>
   <path class="fil4" d="M12025 7281c23,0 42,26 42,59 0,32 -19,59 -42,59 -23,0 -42,-26 -42,-59 0,-32 19,-59 42,-59z"/>
   <path class="fil4" d="M12165 7281c23,0 42,26 42,59 0,32 -19,59 -42,59 -23,0 -42,-26 -42,-59 0,-32 19,-59 42,-59z"/>
   <path class="fil4" d="M12294 7281c23,0 42,26 42,59 0,32 -19,59 -42,59 -23,0 -42,-26 -42,-59 0,-32 19,-59 42,-59z"/>
   <path class="fil4" d="M12413 7281c23,0 42,26 42,59 0,32 -19,59 -42,59 -23,0 -42,-26 -42,-59 0,-32 19,-59 42,-59z"/>
   <path class="fil4" d="M12554 7281c23,0 42,26 42,59 0,32 -19,59 -42,59 -23,0 -42,-26 -42,-59 0,-32 19,-59 42,-59z"/>
   <path class="fil4" d="M12683 7281c23,0 42,26 42,59 0,32 -19,59 -42,59 -23,0 -42,-26 -42,-59 0,-32 19,-59 42,-59z"/>
   <path class="fil4" d="M12810 7281c23,0 42,26 42,59 0,32 -19,59 -42,59 -23,0 -42,-26 -42,-59 0,-32 19,-59 42,-59z"/>
   <path class="fil4" d="M12951 7281c23,0 42,26 42,59 0,32 -19,59 -42,59 -23,0 -42,-26 -42,-59 0,-32 19,-59 42,-59z"/>
   <path class="fil4" d="M11717 7425c23,0 42,26 42,59 0,32 -19,59 -42,59 -23,0 -42,-26 -42,-59 0,-32 19,-59 42,-59z"/>
   <path class="fil4" d="M11846 7425c23,0 42,26 42,59 0,32 -19,59 -42,59 -23,0 -42,-26 -42,-59 0,-32 19,-59 42,-59z"/>
   <path class="fil4" d="M11974 7425c23,0 42,26 42,59 0,32 -19,59 -42,59 -23,0 -42,-26 -42,-59 0,-32 19,-59 42,-59z"/>
   <path class="fil4" d="M12115 7425c23,0 42,26 42,59 0,32 -19,59 -42,59 -23,0 -42,-26 -42,-59 0,-32 19,-59 42,-59z"/>
   <path class="fil4" d="M12243 7425c23,0 42,26 42,59 0,32 -19,59 -42,59 -23,0 -42,-26 -42,-59 0,-32 19,-59 42,-59z"/>
   <path class="fil4" d="M12362 7425c23,0 42,26 42,59 0,32 -19,59 -42,59 -23,0 -42,-26 -42,-59 0,-32 19,-59 42,-59z"/>
   <path class="fil4" d="M12503 7425c23,0 42,26 42,59 0,32 -19,59 -42,59 -23,0 -42,-26 -42,-59 0,-32 19,-59 42,-59z"/>
   <path class="fil4" d="M12632 7425c23,0 42,26 42,59 0,32 -19,59 -42,59 -23,0 -42,-26 -42,-59 0,-32 19,-59 42,-59z"/>
   <path class="fil4" d="M12759 7425c23,0 42,26 42,59 0,32 -19,59 -42,59 -23,0 -42,-26 -42,-59 0,-32 19,-59 42,-59z"/>
   <path class="fil4" d="M12900 7425c23,0 42,26 42,59 0,32 -19,59 -42,59 -23,0 -42,-26 -42,-59 0,-32 19,-59 42,-59z"/>
   <path class="fil4" d="M13029 7425c23,0 42,26 42,59 0,32 -19,59 -42,59 -23,0 -42,-26 -42,-59 0,-32 19,-59 42,-59z"/>
   <path class="fil4" d="M13057 7273c23,0 42,26 42,59 0,32 -19,59 -42,59 -23,0 -42,-26 -42,-59 0,-32 19,-59 42,-59z"/>
   <path class="fil4" d="M13163 7298c26,8 52,17 77,26 0,3 0,5 0,8 0,32 -19,59 -42,59 -23,0 -42,-26 -42,-59 0,-13 3,-24 8,-34l-1 0z"/>
   <path class="fil4" d="M13285 7340c26,9 51,19 75,29 -8,13 -20,22 -33,22 -22,0 -39,-22 -42,-51z"/>
   <path class="fil4" d="M13147 7417c23,0 42,26 42,59 0,32 -19,59 -42,59 -23,0 -42,-26 -42,-59 0,-32 19,-59 42,-59z"/>
   <path class="fil4" d="M13276 7417c23,0 42,26 42,59 0,32 -19,59 -42,59 -23,0 -42,-26 -42,-59 0,-32 19,-59 42,-59z"/>
   <path class="fil4" d="M13403 7417c23,0 42,26 42,59 0,32 -19,59 -42,59 -23,0 -42,-26 -42,-59 0,-32 19,-59 42,-59z"/>
   <path class="fil4" d="M13514 7434c24,12 48,23 73,35 0,3 0,4 0,7 0,32 -19,59 -42,59 -23,0 -42,-26 -42,-59 0,-16 4,-31 13,-42l-1 0z"/>
   <path class="fil4" d="M13632 7492c22,12 42,22 63,34 -6,5 -13,8 -22,8 -20,0 -36,-18 -41,-42z"/>
   <path class="fil4" d="M12059 7553c23,0 42,26 42,59 0,32 -19,59 -42,59 -23,0 -42,-26 -42,-59 0,-32 19,-59 42,-59z"/>
   <path class="fil4" d="M12199 7553c23,0 42,26 42,59 0,32 -19,59 -42,59 -23,0 -42,-26 -42,-59 0,-32 19,-59 42,-59z"/>
   <path class="fil4" d="M12328 7553c23,0 42,26 42,59 0,32 -19,59 -42,59 -23,0 -42,-26 -42,-59 0,-32 19,-59 42,-59z"/>
   <path class="fil4" d="M12456 7553c23,0 42,26 42,59 0,32 -19,59 -42,59 -23,0 -42,-26 -42,-59 0,-32 19,-59 42,-59z"/>
   <path class="fil4" d="M12596 7553c23,0 42,26 42,59 0,32 -19,59 -42,59 -23,0 -42,-26 -42,-59 0,-32 19,-59 42,-59z"/>
   <path class="fil4" d="M12725 7553c23,0 42,26 42,59 0,32 -19,59 -42,59 -23,0 -42,-26 -42,-59 0,-32 19,-59 42,-59z"/>
   <path class="fil4" d="M12845 7553c23,0 42,26 42,59 0,32 -19,59 -42,59 -23,0 -42,-26 -42,-59 0,-32 19,-59 42,-59z"/>
   <path class="fil4" d="M12985 7553c23,0 42,26 42,59 0,32 -19,59 -42,59 -23,0 -42,-26 -42,-59 0,-32 19,-59 42,-59z"/>
   <path class="fil4" d="M13114 7553c23,0 42,26 42,59 0,32 -19,59 -42,59 -23,0 -42,-26 -42,-59 0,-32 19,-59 42,-59z"/>
   <path class="fil4" d="M13242 7553c23,0 42,26 42,59 0,32 -19,59 -42,59 -23,0 -42,-26 -42,-59 0,-32 19,-59 42,-59z"/>
   <path class="fil4" d="M13382 7553c23,0 42,26 42,59 0,32 -19,59 -42,59 -23,0 -42,-26 -42,-59 0,-32 19,-59 42,-59z"/>
   <path class="fil4" d="M13511 7553c23,0 42,26 42,59 0,32 -19,59 -42,59 -23,0 -42,-26 -42,-59 0,-32 19,-59 42,-59z"/>
   <path class="fil4" d="M12008 7696c23,0 42,26 42,59 0,32 -19,59 -42,59 -23,0 -42,-26 -42,-59 0,-32 19,-59 42,-59z"/>
   <path class="fil4" d="M12148 7696c23,0 42,26 42,59 0,32 -19,59 -42,59 -23,0 -42,-26 -42,-59 0,-32 19,-59 42,-59z"/>
   <path class="fil4" d="M12277 7696c23,0 42,26 42,59 0,32 -19,59 -42,59 -23,0 -42,-26 -42,-59 0,-32 19,-59 42,-59z"/>
   <path class="fil4" d="M12405 7696c23,0 42,26 42,59 0,32 -19,59 -42,59 -23,0 -42,-26 -42,-59 0,-32 19,-59 42,-59z"/>
   <path class="fil4" d="M12545 7696c23,0 42,26 42,59 0,32 -19,59 -42,59 -23,0 -42,-26 -42,-59 0,-32 19,-59 42,-59z"/>
   <path class="fil4" d="M12674 7696c23,0 42,26 42,59 0,32 -19,59 -42,59 -23,0 -42,-26 -42,-59 0,-32 19,-59 42,-59z"/>
   <path class="fil4" d="M12793 7696c23,0 42,26 42,59 0,32 -19,59 -42,59 -23,0 -42,-26 -42,-59 0,-32 19,-59 42,-59z"/>
   <path class="fil4" d="M12934 7696c23,0 42,26 42,59 0,32 -19,59 -42,59 -23,0 -42,-26 -42,-59 0,-32 19,-59 42,-59z"/>
   <path class="fil4" d="M13063 7696c23,0 42,26 42,59 0,32 -19,59 -42,59 -23,0 -42,-26 -42,-59 0,-32 19,-59 42,-59z"/>
   <path class="fil4" d="M13191 7696c23,0 42,26 42,59 0,32 -19,59 -42,59 -23,0 -42,-26 -42,-59 0,-32 19,-59 42,-59z"/>
   <path class="fil4" d="M13331 7696c23,0 42,26 42,59 0,32 -19,59 -42,59 -23,0 -42,-26 -42,-59 0,-32 19,-59 42,-59z"/>
   <path class="fil4" d="M13460 7696c23,0 42,26 42,59 0,32 -19,59 -42,59 -23,0 -42,-26 -42,-59 0,-32 19,-59 42,-59z"/>
   <path class="fil4" d="M12096 7835c23,0 42,26 42,59 0,32 -19,59 -42,59 -23,0 -42,-26 -42,-59 0,-32 19,-59 42,-59z"/>
   <path class="fil4" d="M12237 7835c23,0 42,26 42,59 0,32 -19,59 -42,59 -23,0 -42,-26 -42,-59 0,-32 19,-59 42,-59z"/>
   <path class="fil4" d="M12365 7835c23,0 42,26 42,59 0,32 -19,59 -42,59 -23,0 -42,-26 -42,-59 0,-32 19,-59 42,-59z"/>
   <path class="fil4" d="M12493 7835c23,0 42,26 42,59 0,32 -19,59 -42,59 -23,0 -42,-26 -42,-59 0,-32 19,-59 42,-59z"/>
   <path class="fil4" d="M12633 7835c23,0 42,26 42,59 0,32 -19,59 -42,59 -23,0 -42,-26 -42,-59 0,-32 19,-59 42,-59z"/>
   <path class="fil4" d="M12762 7835c23,0 42,26 42,59 0,32 -19,59 -42,59 -23,0 -42,-26 -42,-59 0,-32 19,-59 42,-59z"/>
   <path class="fil4" d="M12881 7835c23,0 42,26 42,59 0,32 -19,59 -42,59 -23,0 -42,-26 -42,-59 0,-32 19,-59 42,-59z"/>
   <path class="fil4" d="M13022 7835c23,0 42,26 42,59 0,32 -19,59 -42,59 -23,0 -42,-26 -42,-59 0,-32 19,-59 42,-59z"/>
   <path class="fil4" d="M13151 7835c23,0 42,26 42,59 0,32 -19,59 -42,59 -23,0 -42,-26 -42,-59 0,-32 19,-59 42,-59z"/>
   <path class="fil4" d="M13279 7835c23,0 42,26 42,59 0,32 -19,59 -42,59 -23,0 -42,-26 -42,-59 0,-32 19,-59 42,-59z"/>
   <path class="fil4" d="M13419 7835c23,0 42,26 42,59 0,32 -19,59 -42,59 -23,0 -42,-26 -42,-59 0,-32 19,-59 42,-59z"/>
   <path class="fil4" d="M12185 7979c23,0 42,26 42,59 0,32 -19,59 -42,59 -23,0 -42,-26 -42,-59 0,-32 19,-59 42,-59z"/>
   <path class="fil4" d="M12314 7979c23,0 42,26 42,59 0,32 -19,59 -42,59 -23,0 -42,-26 -42,-59 0,-32 19,-59 42,-59z"/>
   <path class="fil4" d="M12442 7979c23,0 42,26 42,59 0,32 -19,59 -42,59 -23,0 -42,-26 -42,-59 0,-32 19,-59 42,-59z"/>
   <path class="fil4" d="M12582 7979c23,0 42,26 42,59 0,32 -19,59 -42,59 -23,0 -42,-26 -42,-59 0,-32 19,-59 42,-59z"/>
   <path class="fil4" d="M12711 7979c23,0 42,26 42,59 0,32 -19,59 -42,59 -23,0 -42,-26 -42,-59 0,-32 19,-59 42,-59z"/>
   <path class="fil4" d="M12830 7979c23,0 42,26 42,59 0,32 -19,59 -42,59 -23,0 -42,-26 -42,-59 0,-32 19,-59 42,-59z"/>
   <path class="fil4" d="M12971 7979c23,0 42,26 42,59 0,32 -19,59 -42,59 -23,0 -42,-26 -42,-59 0,-32 19,-59 42,-59z"/>
   <path class="fil4" d="M13100 7979c23,0 42,26 42,59 0,32 -19,59 -42,59 -23,0 -42,-26 -42,-59 0,-32 19,-59 42,-59z"/>
   <path class="fil4" d="M13227 7979c23,0 42,26 42,59 0,32 -19,59 -42,59 -23,0 -42,-26 -42,-59 0,-32 19,-59 42,-59z"/>
   <path class="fil4" d="M13368 7979c23,0 42,26 42,59 0,32 -19,59 -42,59 -23,0 -42,-26 -42,-59 0,-32 19,-59 42,-59z"/>
   <path class="fil4" d="M13497 7979c23,0 42,26 42,59 0,32 -19,59 -42,59 -23,0 -42,-26 -42,-59 0,-32 19,-59 42,-59z"/>
   <path class="fil4" d="M13525 7827c23,0 42,26 42,59 0,32 -19,59 -42,59 -23,0 -42,-26 -42,-59 0,-32 19,-59 42,-59z"/>
   <path class="fil4" d="M13666 7827c23,0 42,26 42,59 0,32 -19,59 -42,59 -23,0 -42,-26 -42,-59 0,-32 19,-59 42,-59z"/>
   <path class="fil4" d="M13795 7827c23,0 42,26 42,59 0,32 -19,59 -42,59 -23,0 -42,-26 -42,-59 0,-32 19,-59 42,-59z"/>
   <path class="fil4" d="M13922 7827c23,0 42,26 42,59 0,32 -19,59 -42,59 -23,0 -42,-26 -42,-59 0,-32 19,-59 42,-59z"/>
   <path class="fil4" d="M14067 7828c13,18 27,35 39,53 0,2 0,4 0,5 0,32 -19,59 -42,59 -23,0 -42,-26 -42,-59 0,-32 19,-59 42,-59 1,0 3,0 4,0l0 1z"/>
   <path class="fil4" d="M13615 7971c23,0 42,26 42,59 0,32 -19,59 -42,59 -23,0 -42,-26 -42,-59 0,-32 19,-59 42,-59z"/>
   <path class="fil4" d="M13744 7971c23,0 42,26 42,59 0,32 -19,59 -42,59 -23,0 -42,-26 -42,-59 0,-32 19,-59 42,-59z"/>
   <path class="fil4" d="M13871 7971c23,0 42,26 42,59 0,32 -19,59 -42,59 -23,0 -42,-26 -42,-59 0,-32 19,-59 42,-59z"/>
   <path class="fil4" d="M14012 7971c23,0 42,26 42,59 0,32 -19,59 -42,59 -23,0 -42,-26 -42,-59 0,-32 19,-59 42,-59z"/>
   <path class="fil4" d="M14156 7975c11,24 19,49 25,74 -5,23 -22,40 -40,40 -23,0 -42,-26 -42,-59 0,-32 19,-59 42,-59 5,0 10,1 15,4z"/>
   <path class="fil5" d="M14482 7869l-3855 144c281,1003 3811,1778 3855,-144z"/>
   <path class="fil6" d="M13286 6874l-2068 49c-264,-98 -669,300 -734,630 -52,267 80,599 588,876 866,472 1649,639 2611,293 1040,-374 1080,-1369 8,-1707 -135,-43 -274,-90 -405,-143l-1 1z"/>
   <path class="fil5" d="M12156 7575c589,48 1055,241 1039,432 -15,192 -506,308 -1095,262 -589,-48 -1055,-241 -1039,-432 15,-192 506,-308 1095,-262z"/>
   <path class="fil7" d="M11151 6309l-113 41c0,554 249,1314 758,1620 878,527 1992,139 2238,-881 31,-130 109,-728 -29,-824 -20,-13 -54,187 -83,187 -655,0 -1083,161 -1759,-82 -71,-25 -1039,-336 -1014,-63l1 1z"/>
   <path class="fil5" d="M13394 7736c42,29 51,95 27,167 -93,62 -193,112 -297,151 -23,-52 -8,-136 44,-213 66,-98 168,-144 226,-105z"/>
   <path class="fil8" d="M10960 2859l-1231 1577c-57,-204 -176,-1659 100,-1660 87,0 41,154 232,193 274,55 664,-119 899,-110z"/>
   <path class="fil9" d="M11125 2838c779,0 1412,632 1412,1412 0,779 -632,1412 -1412,1412 -779,0 -1412,-632 -1412,-1412 0,-779 632,-1412 1412,-1412z"/>
   <path class="fil10" d="M11916 2811c515,0 933,418 933,933 0,515 -418,933 -933,933 -515,0 -933,-418 -933,-933 0,-515 418,-933 933,-933z"/>
   <path class="fil11" d="M11608 7827c9,9 18,17 28,25 10,-12 21,-26 31,-44 16,-28 23,-57 23,-86 0,-39 -13,-76 -32,-109 -40,-66 -143,-145 -218,-83 -16,13 -19,27 -27,27l97 -5c50,0 91,41 116,82 16,27 27,58 27,90 0,22 -5,46 -18,66 -10,16 -19,28 -27,38l0 1z"/>
   <path class="fil12" d="M10904 7418l15 -190c-78,190 238,582 467,350 72,-73 150,-72 231,64 65,109 65,239 -183,219 -195,-16 -586,-226 -631,-452l100 10z"/>
   <path class="fil11" d="M11214 7151l39 -29c28,-191 -278,-259 -429,-338 274,-112 560,-47 673,243 36,93 -2,211 -71,258 -58,40 -143,20 -187,11 -41,-9 -23,-145 -24,-145l-1 0z"/>
   <path class="fil5" d="M11214 7151l39 -29c10,-68 -22,-121 -76,-164 25,-12 52,-18 81,-18 112,0 203,95 203,213 0,56 -21,106 -53,143 -57,26 -128,9 -169,0 -41,-9 -23,-145 -24,-145z"/>
   <path class="fil12" d="M10710 6872c-308,294 444,1068 237,567 -28,-67 -30,-115 -17,-150 48,-127 62,-222 174,-317 13,-11 89,-46 155,-40 65,5 119,52 116,48 -158,-146 -397,-365 -665,-109l1 0z"/>
   <path class="fil5" d="M12543 5883c832,0 1507,213 1507,478 0,264 -674,478 -1507,478 -832,0 -1507,-213 -1507,-478 0,-264 674,-478 1507,-478z"/>
   <path class="fil13" d="M13479 6131c-1,-31 7,-62 24,-91 41,-68 139,-122 314,-126 55,-1 91,-20 108,-46 7,-12 11,-25 9,-39 -2,-14 -8,-30 -20,-45 -37,-48 -124,-89 -272,-94 -66,-3 -117,-34 -140,-74 -11,-19 -16,-39 -14,-61 1,-21 9,-42 23,-62 37,-48 118,-87 259,-88 79,0 141,-33 169,-75 10,-15 15,-30 15,-47 0,-15 -5,-30 -16,-45 -31,-40 -109,-72 -249,-71 -47,0 -86,-28 -104,-48 -6,-7 -9,-12 -11,-17 -15,-6 66,31 114,27 153,-1 241,37 280,85 16,22 24,45 24,68 0,23 -7,46 -22,67 -34,51 -107,92 -200,92 -127,1 -199,33 -230,73 -10,13 -15,27 -16,41 -1,13 3,27 10,39 17,30 56,54 109,56 161,6 257,54 300,109 16,21 25,43 27,65 2,22 -3,43 -15,62 -22,36 -71,62 -139,64 -160,4 -247,50 -282,108 -13,22 -20,47 -19,71 1,24 8,49 20,72 32,59 135,85 182,106 -3,4 -81,6 -152,-34 -57,-32 -87,-75 -88,-143l2 1z"/>
   <path class="fil13" d="M13170 6326c-103,0 -190,-59 -231,-135 -17,-30 -26,-64 -27,-98 -1,-35 8,-69 27,-101 45,-73 147,-131 330,-135 48,-1 79,-16 92,-37 5,-8 7,-17 6,-27 -1,-11 -6,-22 -15,-34l0 0c-34,-44 -117,-82 -257,-87 -74,-3 -129,-38 -156,-84 -13,-22 -19,-47 -17,-71 2,-24 11,-49 28,-72 39,-52 126,-94 274,-95 73,0 128,-30 152,-67 8,-12 12,-24 13,-36 0,-11 -4,-22 -12,-33 -29,-37 -101,-65 -235,-64 -53,0 -137,-39 -156,-93 -52,-148 80,-113 150,-114 93,-1 207,-20 207,-109 8,11 20,27 20,76 0,43 -44,77 -101,76 -140,-2 -259,22 -125,80 83,37 213,-11 300,100 19,25 28,52 28,80 0,27 -9,54 -24,77 -37,56 -116,100 -215,101 -121,1 -187,30 -214,65 -8,10 -12,21 -13,30 -1,10 2,20 7,30 14,25 48,45 92,46 167,6 269,57 315,116l0 0c19,23 29,49 31,74 3,26 -4,52 -18,74 -26,41 -80,71 -154,73 -152,4 -234,46 -266,99 -12,19 -17,39 -16,60 1,22 7,43 18,63 30,54 91,96 165,96l0 76 -2 0z"/>
   <path class="fil14" d="M13999 6484c-171,204 -758,354 -1455,354 -698,0 -1284,-151 -1455,-354 171,-204 758,-354 1455,-354 698,0 1284,151 1455,354z"/>
   <path class="fil15" d="M13008 5327c146,-74 310,-83 457,18m158 414c-42,34 -104,54 -167,57 -69,4 -122,-4 -163,-21m64 -504c-39,-18 -76,-37 -109,-57m39 -845c161,-47 371,-34 609,75 36,16 67,34 95,51m-101 536c-50,7 -101,3 -148,-18m-79 -311c64,-23 143,-18 155,-3"/>
   <path class="fil15" d="M13353 6667c-158,-53 -263,-127 -323,-208m1222 -361c19,-2 38,-4 57,-9m-167 -469c0,15 2,29 4,41m197 87c9,-5 17,-12 24,-19"/>
   <path class="fil16" d="M13007 6908c299,0 542,174 542,388 0,214 -242,388 -542,388 -299,0 -542,-174 -542,-388 0,-214 242,-388 542,-388z"/>
   <path class="fil16" d="M13720 6872c139,0 252,81 252,180 0,100 -113,180 -252,180 -139,0 -252,-81 -252,-180 0,-100 113,-180 252,-180z"/>
   <path class="fil17" d="M13217 6957c132,0 239,96 239,214 0,118 -107,214 -239,214 -132,0 -239,-96 -239,-214 0,-118 107,-214 239,-214z"/>
   <path class="fil18" d="M13221 7021c84,0 153,62 153,137 0,76 -69,137 -153,137 -84,0 -153,-62 -153,-137 0,-76 69,-137 153,-137z"/>
   <path class="fil16" d="M13279 7063c45,0 82,32 82,73 0,40 -37,73 -82,73 -45,0 -82,-32 -82,-73 0,-40 37,-73 82,-73z"/>
   <path class="fil17" d="M13625 6904c-73,0 -131,53 -131,117 0,65 59,117 131,117 73,0 131,-53 131,-117 0,-65 -59,-117 -131,-117z"/>
   <path class="fil18" d="M13622 6938c-47,0 -84,34 -84,75 0,41 38,75 84,75 47,0 84,-34 84,-75 0,-41 -38,-75 -84,-75z"/>
   <path class="fil16" d="M13590 6961c-24,0 -45,18 -45,40 0,22 20,40 45,40 24,0 45,-18 45,-40 0,-22 -20,-40 -45,-40z"/>
   <path class="fil10" d="M12004 5061c-50,-76 -312,-251 -579,-439 -271,-191 -579,-336 -551,-760 22,-330 236,-634 297,-674 428,-148 1050,1011 1290,1426 42,73 -14,149 3,214 -114,187 -41,621 -248,582 -202,-38 -96,-171 -213,-349l1 0z"/>
   <path class="fil8" d="M12065 4883c-226,-215 -719,-343 -894,-573 -13,-16 -24,-33 -36,-49 383,-241 946,-267 1274,83 57,62 20,148 51,208 -81,152 -50,361 -164,509 -8,11 17,61 19,96 1,23 0,162 -94,50 -48,-58 -58,-230 -156,-324z"/>
   <path class="fil10" d="M9578 3987c49,112 159,89 -62,73 -92,-6 -99,43 -67,108 70,145 280,135 132,124 -380,-26 251,455 551,-30 109,-177 221,-232 161,-232 -293,1 -265,9 -570,-81 -110,-32 -180,-42 -144,39z"/>
   <path class="fil19" d="M10279 4699c-43,-70 -345,-424 -171,-404 -22,-153 67,-297 247,-271 59,13 119,42 172,86 127,107 217,304 151,586 -17,71 -71,135 -135,174 -136,63 -224,-37 -262,-171l-1 1zm-98 -439l39 445 143 11 2 5c4,19 12,30 20,35 6,4 16,5 28,4 16,-2 34,-9 51,-19 32,-20 59,-49 66,-79 51,-215 -11,-360 -100,-435 -34,-29 -72,-47 -108,-55 -32,-7 -63,-6 -88,4 -29,12 -49,39 -53,83z"/>
   <path class="fil20" d="M10291 4740l-187 -467c0,-303 501,-221 518,217 13,331 -279,456 -332,250z"/>
   <path class="fil21" d="M10254 4635l-215 -236c-69,-222 315,-134 405,46 39,78 60,284 -167,288 -12,0 -26,-62 -23,-98z"/>
   <path class="fil22" d="M9608 4629c-378,115 -1410,260 -1618,706 -151,322 82,456 389,373 447,-122 1102,-565 1208,-626 265,-153 527,-293 656,-335 211,-66 45,-290 -110,-357 -162,-70 -58,97 -526,239l1 -1z"/>
   <path class="fil10" d="M12041 4734c-233,-196 -700,-202 -870,-424 -778,-1022 820,-1820 1474,-1122 548,584 -212,1081 -160,1735 38,476 -430,-178 -444,-189l-1 0z"/>
   <path class="fil10" d="M11895 2987c427,0 774,346 774,774 0,427 -346,774 -774,774 -427,0 -774,-346 -774,-774 0,-427 346,-774 774,-774z"/>
   <path class="fil23" d="M12469 4718l-995 -230c6,11 751,298 830,617 50,203 15,423 -289,568 -352,167 -602,338 -761,431 -341,198 -226,404 -16,467 216,65 555,10 794,113 374,161 1254,41 1121,-106 -103,-114 -580,-201 -709,-428 -222,-390 154,-677 140,-999 -9,-192 -13,-240 -113,-432l-1 -1z"/>
   <path class="fil14" d="M12412 6089c-15,-37 -26,-72 -32,-107 -11,39 -77,145 -113,166 -85,51 84,174 -74,148 -93,-16 -109,-63 -117,-65 0,0 -36,17 7,60 143,143 343,6 239,-50 -69,-38 42,-90 89,-152z"/>
   <path class="fil24" d="M12238 4649c-70,-108 -319,8 -455,-43 -227,-87 -492,-137 -613,-296 -3,-4 -5,-7 -8,-11 391,-426 1123,-491 1525,-37 -97,216 4,-95 24,153 39,502 -454,265 -474,234l1 -1z"/>
   <path class="fil24" d="M11570 4533c101,55 776,227 980,267 136,27 528,-7 430,-219 -36,-76 -221,-260 -291,-320 0,0 -95,152 -325,254 -280,123 -541,83 -795,17l1 1z"/>
   <path class="fil10" d="M12520 4797c201,30 362,-4 436,-69 39,-35 54,-83 24,-146 -28,-59 -202,-235 -286,-316 -83,76 -171,278 -203,344 -48,104 -73,154 28,187l1 0z"/>
   <path class="fil20" d="M8270 5446l381 -317c104,-140 -366,-90 -491,198 -28,64 34,180 109,120l0 -1z"/>
   <path class="fil16" d="M13394 7736c9,6 16,14 22,23l0 41 -59 0 0 -78c13,2 26,6 37,13z"/>
   <path class="fil16" d="M13278 7739c22,-11 44,-17 64,-18l0 93 -64 0 0 -75z"/>
   <path class="fil16" d="M13201 7798c21,-22 42,-39 64,-52l0 87 -64 0 0 -35z"/>
   <path class="fil24" d="M10996 3707c3,-4 5,-7 8,-12 425,-567 544,-155 622,-237 66,-71 51,-162 -11,-216 -81,-71 -295,-62 -448,133 -74,95 -159,231 -172,332l1 0z"/>
   <path class="fil16" d="M11764 3819c76,289 -30,568 -238,622 -207,55 -437,-135 -513,-425 -76,-289 30,-568 238,-622 207,-55 437,135 513,425z"/>
   <path class="fil25" d="M11769 4034c34,127 -32,256 -146,286 -115,30 -234,-49 -268,-177 -34,-127 32,-256 146,-286 115,-30 234,49 268,177z"/>
   <path class="fil26" d="M11709 4055c22,82 -21,164 -94,183 -74,20 -151,-31 -172,-113 -22,-82 21,-164 94,-183 74,-20 151,31 172,113z"/>
   <path class="fil16" d="M11683 4122c12,43 -11,87 -49,97 -39,10 -80,-17 -91,-60 -12,-43 11,-87 49,-97 39,-10 80,17 91,60z"/>
   <path class="fil16" d="M12334 3742c33,196 174,337 316,313 141,-23 229,-203 195,-399 -33,-196 -174,-337 -316,-313 -141,23 -229,203 -196,399z"/>
   <path class="fil25" d="M12419 3922c14,87 90,147 168,134 78,-13 129,-94 115,-181 -14,-87 -90,-147 -168,-134 -78,13 -129,94 -115,181z"/>
   <path class="fil26" d="M12461 3918c9,56 57,94 108,86 50,-8 83,-60 74,-117 -9,-56 -57,-94 -108,-86 -50,8 -83,60 -74,117z"/>
   <path class="fil16" d="M12495 3952c5,30 30,50 57,46 26,-4 44,-32 39,-62 -5,-30 -30,-50 -57,-46 -26,4 -44,32 -39,62z"/>
   <path class="fil10" d="M12407 3181c-130,209 57,95 192,105 100,8 -22,-76 -108,-113 -47,-20 -60,-31 -84,7l0 1z"/>
   <path class="fil9" d="M12464 3351c80,-28 160,-4 202,3 76,11 18,-100 -122,-115 -163,-16 -200,154 -80,112z"/>
   <path class="fil14" d="M12714 6276l-279 -143c-118,31 12,179 -61,280 -139,193 -862,-102 -449,94 65,30 459,119 508,-7 45,-115 -100,-303 251,-159 25,10 42,-31 30,-65z"/>
   <path class="fil15" d="M13170 6288c-244,0 -378,-382 100,-394 207,-5 199,-248 -174,-261 -180,-6 -222,-245 128,-247 237,-1 331,-278 -83,-275 -79,1 -132,-95 -75,-43m9 15c-75,0 -77,-127 -11,-126 50,1 260,8 260,-48 0,-54 -14,-50 -17,-63"/>
   <path class="fil15" d="M13726 6288c-244,0 -378,-382 100,-394 207,-5 199,-248 -174,-261 -180,-6 -222,-245 128,-247 237,-1 331,-278 -83,-275 -79,1 -132,-95 -75,-43"/>
   <path class="fil27" d="M10954 7348c-23,-140 93,-372 248,-396 124,-20 227,78 248,196 28,162 -230,229 -230,59 0,-69 39,-83 36,-89 -40,13 -58,49 -57,89 0,23 7,48 20,70 13,22 32,41 56,53 45,22 108,18 181,-40 7,-6 13,-13 20,-19 26,-32 33,-74 26,-118 -7,-42 -29,-86 -58,-124 -14,-18 -31,-35 -49,-50 -11,-9 -22,-17 -34,-24 -48,-29 -103,-44 -161,-35 -172,27 -301,274 -275,434 24,145 93,228 221,274 64,23 60,28 14,-8 -91,-73 -182,-150 -203,-272l-1 1z"/>
  </g>
 </g>
</svg>
