<?xml version="1.0" encoding="UTF-8"?>
<!DOCTYPE svg PUBLIC "-//W3C//DTD SVG 1.1//EN" "http://www.w3.org/Graphics/SVG/1.1/DTD/svg11.dtd">
<!-- Creator: CorelDRAW X6 -->
<svg xmlns="http://www.w3.org/2000/svg" xml:space="preserve" width="225.213mm" height="134.959mm" version="1.1" style="shape-rendering:geometricPrecision; text-rendering:geometricPrecision; image-rendering:optimizeQuality; fill-rule:evenodd; clip-rule:evenodd"
viewBox="0 0 22521 13496"
 xmlns:xlink="http://www.w3.org/1999/xlink">
 <defs>
  <style type="text/css">
   <![CDATA[
    .fil10 {fill:none}
    .fil12 {fill:none;fill-rule:nonzero}
    .fil2 {fill:#41546E}
    .fil0 {fill:#445975}
    .fil17 {fill:#524E52}
    .fil15 {fill:#784E2B}
    .fil16 {fill:#805D41}
    .fil8 {fill:#AB6E3F}
    .fil9 {fill:#AB9074}
    .fil18 {fill:#B37342}
    .fil6 {fill:#C76620}
    .fil14 {fill:#CACFBE}
    .fil5 {fill:#CC801D}
    .fil3 {fill:white}
    .fil1 {fill:#41546E;fill-rule:nonzero}
    .fil13 {fill:#524E52;fill-rule:nonzero}
    .fil11 {fill:#784E2B;fill-rule:nonzero}
    .fil7 {fill:#AB6E3F;fill-rule:nonzero}
    .fil4 {fill:white;fill-rule:nonzero}
   ]]>
  </style>
 </defs>
 <g id="Слой_x0020_1">
  <metadata id="CorelCorpID_0Corel-Layer"/>
  <g id="_886167616">
   <g id="_817712528">
    <rect class="fil0" x="2" y="-4" width="22500" height="13500"/>
    <g id="_776759248">
     <path class="fil1" d="M8786 4019c-134,-36 -69,-341 145,-256 11,3 22,7 33,11l-72 -102c-105,-149 124,-323 236,-166 47,66 109,155 168,239l57 81c53,-65 110,-128 170,-188 101,-102 210,-195 322,-275 77,-55 148,-99 215,-133 65,-32 126,-55 183,-70 85,-46 241,-100 407,-145 168,-45 351,-83 485,-93 207,-16 272,56 267,160 -3,70 -60,133 -114,180 -52,45 -96,104 -132,165 -31,53 -55,106 -71,153 4,5 10,12 20,23l0 0c25,27 51,57 78,89 14,16 27,31 38,45 143,2 356,9 543,27 267,26 491,91 490,235 -1,56 -23,100 -60,134 -27,25 -59,42 -94,56 -99,37 -203,91 -282,166 -55,52 -98,115 -118,189 5,68 -3,136 -27,202 -4,10 -8,19 -12,29 64,15 128,40 192,77 240,135 456,392 641,710 344,592 575,1325 672,2016 23,164 35,315 35,444 0,13 0,27 -1,42 27,-2 53,-4 79,-6 28,-2 59,-2 92,-3l0 0 3 0 3 0 3 0 0 0 0 0 0 0 9 0 9 0 0 0 0 0 0 0 3 0 10 0 3 0 2 0 0 0 0 0 9 0 0 0 3 0 0 0 9 0 0 0 9 0 0 0 7 0 0 0 3 0 11 0 1 0 11 0 0 0 4 0 0 0 12 1 0 0 12 1 0 0 2 0 2 0 1 0 0 0 13 1 0 0 14 1 0 0c20,1 42,3 66,6l0 0c22,2 44,5 67,8l2 0 2 0 0 0 2 0 0 0 2 0 0 0 2 0 0 0 10 1 0 0 10 1 0 0 2 0 0 0 2 0 2 0 2 0 0 0 9 2 0 0 9 2 0 0 2 0 2 0 2 0 0 0 2 0 0 0 2 0 1 0 8 2 0 0 8 2 0 0 2 0 0 0 2 0 0 0 2 0 0 0 2 0 2 0 2 0 0 0 15 3 1 0 2 0 0 0 2 0 0 0 2 0c50,10 98,22 143,36 45,13 90,29 134,47l0 0 2 1 7 3 1 0 7 3 0 0 9 4 1 0 8 3 1 0 8 3 1 0 9 4 1 0 12 5 0 0 2 1 2 1 9 4 1 0 2 1 0 0 9 4 0 0 2 1 1 0 11 5 1 0 6 3 0 0 6 3 1 0 10 5 1 0 2 1 0 0 11 6 0 0c31,17 62,36 91,56 28,19 56,40 82,63l2 1 0 0 7 6 1 1 4 4 1 0 4 4 1 1 5 5 0 0 5 5 1 1 6 6 1 1 5 5 1 1 5 5 1 1 6 6 1 1 6 6 1 1 6 6 1 1 5 5 1 1 6 7 1 1 6 7 0 1 3 4 1 1 6 7 1 1 6 7 1 1 2 2 0 0 0 0 1 2c34,44 63,91 87,142 22,49 39,101 49,156 1,7 3,19 5,35 2,17 4,29 4,35l0 1 0 0 1 8 0 1c0,5 1,14 1,27l0 1 0 9 0 1c0,3 0,7 0,13l0 0 0 0 0 0c0,4 0,9 0,14l0 0 0 8 0 1c0,6 0,11 0,14l0 14 0 0 0 8 0 2 -1 12 0 1c-1,7 0,-4 -1,14l0 1 -1 9 0 0c-1,12 -1,10 -1,14 -1,4 0,-1 -2,14 -4,33 -10,65 -18,97 -8,34 -18,66 -29,96l0 0 -3 9 0 1 -4 9 0 1 -4 11 0 0c-3,7 -6,16 -10,25l-3 6 0 0c-8,19 -3,8 -6,15 -1,3 -3,8 -7,15l-1 3c-2,5 -5,10 -8,16 -3,5 -5,11 -8,16 -8,16 -15,29 -22,40 -7,12 -15,25 -23,39l0 0 -3 5 0 0 -1 2 0 0c-96,149 -189,244 -334,342l0 0 0 0 -8 5 -1 1 -8 5 -1 0 -7 4 -1 0 -7 4 0 0 -8 5 -1 0 -8 5 -1 0 -8 5 -1 0 -8 5 -1 0 -7 4 0 0 -7 4 -1 0 -9 5 -1 0 -9 5 -1 0 -2 1 0 0 -10 5 0 0c-45,23 -92,44 -141,61 -46,16 -95,30 -146,40l-2 0 0 0 -2 0c-6,1 -17,3 -31,5l-2 0 0 0 -5 1 0 0 -2 0c-9,1 -19,3 -28,4l0 0 -6 1 -1 0 -6 1 -1 0 -11 1 -1 0c-18,2 4,0 -12,1l0 0 -7 1 -1 0 -7 1c-2,0 -2,0 -13,1l-11 1 -1 0 -7 0 -1 0 -7 0 0 0c-40,1 -78,0 -115,-3 -36,-3 -74,-8 -114,-17l0 0 -8 -2 -1 0 -8 -2 -1 0 -10 -2 -1 0 -10 -2 -1 0 -8 -2 -1 0 -8 -2 0 0c-8,-2 -16,-4 -25,-7l-2 -1 -1 0 -11 -3 0 0 -14 -4 0 0 -13 -4 -2 -1 -1 0 -7 -2 0 0 -2 -1c-20,-7 -39,-14 -55,-21l0 0c-18,-7 -36,-16 -54,-25l0 0 -8 -4 -1 0 -8 -4 -1 0 -9 -5 -1 0 -9 -5 -1 0c-9,-5 -15,-8 -20,-11l-12 -7 0 0 -10 -6 -1 0 -6 -4 0 0 -6 -4 0 0 -2 -2 0 0c-3,-2 -7,-4 -14,-9 -9,-6 3,2 -13,-9l0 0 -8 -5 0 0 -16 -11c-7,-5 -12,-8 -16,-11l-1 0 0 0 0 0 -2 -1 0 0 -2 -2 -2 -2 -4 -3c-4,-3 -9,-7 -15,-11 -9,-7 -16,-12 -17,-13l0 0 -17 -14 0 0 -3 -3 0 0 0 0 -1 -1 -1 -1 0 0 -1 -1 0 0 -1 -1 -1 -1 -3 -3 -1 -1 0 0 -1 -1 0 0 0 0 -1 0 0 0 -1 -1 0 0 -1 -1 0 0 -1 -1 -1 -1 0 0 0 0 0 0 0 0 -2 -2 0 0 -1 -1 0 0 -1 -1 -1 -1 0 0 -1 -1 0 0 -1 -1 0 -1 -4 -4 0 0 -1 -1 0 -1 -1 -1 0 0 -3 -3 0 0 -1 -1 -2 -1 0 0 0 0 -5 -4 0 0 0 0 -1 -1 0 0 -2 -2 -1 -1 0 0 0 0 0 0 -1 -1 -3 -3 0 0 0 0 -1 -1 -1 -1 0 0 0 0 -27 -24 0 -2c-23,-24 -43,-49 -61,-75 -22,-32 -40,-64 -51,-96l0 0 -1 -2 0 0 -1 -2 -1 -2 -1 -2 0 -1 -1 -4 -1 -3 -1 -4 0 -2 0 -2 0 0c-8,-31 -10,-60 -7,-88 4,-32 15,-62 34,-89 21,-30 49,-53 82,-70 29,-14 61,-24 97,-28l2 0 1 0 3 0 1 0 4 0 2 0 5 0 2 0 2 0 1 0 4 0 1 0 2 0 1 0 3 0 2 0 6 0 1 0 2 0 0 0 2 0 1 0 5 0 1 0 2 0 1 0 8 0 0 0 1 0 2 0 1 0 0 0 7 0 5 0 0 0 0 0 3 0 1 0 5 0 0 0 1 0 0 0 0 0 5 0 1 0 5 0 0 0 0 0 0 0 2 0 1 0 8 1 1 0 8 1 0 0 2 0 2 0 1 0 7 1 0 0 2 0 0 0c8,1 11,1 12,1l0 0c-1,0 -2,0 0,0l1 0 0 0 1 0 9 1 0 0 1 0 2 0 1 0 0 0 0 0 5 1 3 0 0 0 2 0 2 0 1 0 0 0c12,2 20,4 24,5 13,3 22,5 26,6l0 0 5 1 0 0 5 1 0 0 5 1 1 0 0 0 5 1 1 0 5 1 1 0 0 0 10 3 1 0 10 3 1 0 5 1 0 0 5 2 5 2 1 0 0 0 0 0 5 1 0 0 5 2 1 0 1 0 0 0 9 3 0 0 5 2 1 0 5 2 0 0 5 2 5 2 4 1 0 0 3 1 0 0 1 0 4 1 5 2 0 0 5 2 0 0 0 0 5 2 0 0 5 2 1 0 0 0 5 2 0 0 5 2 2 1 0 0 3 1 0 0 5 2 3 1 0 0 2 1 5 2 0 0 4 2 0 0 1 0 5 2 1 0 0 0 8 3 1 1 0 0 5 2 0 0 2 1 0 0 4 2 5 2 0 0 3 1 0 0 3 1 0 0 5 2 1 0 6 3 1 0 9 4 1 0 5 2 0 0 5 2 1 0 1 0 0 0 4 2 0 0 5 2 2 1 0 0 3 1 0 0 5 2 0 0 3 1 1 0 2 1 5 2 5 2 1 0 1 0 0 0 1 0 0 0 9 4 0 0 0 0 5 2 0 0 5 2 0 0 1 1 1 0 1 1 8 4 0 0 3 1 2 1 0 0 5 3 4 2 0 0 11 6 0 0c2,1 4,2 7,4l0 0c6,3 7,3 8,4l3 1 0 0 0 0 5 2c4,2 -2,-1 7,3l1 0 7 3 0 0 7 2 1 0 0 0c2,1 0,0 7,2l7 2 0 0 2 0 0 0c8,2 4,1 7,2l0 0c6,2 -5,-2 6,1l3 1 0 0c4,1 4,1 4,1l0 0 8 2 1 0c14,3 27,4 40,5 12,1 24,0 36,-1l5 0 3 0 0 0 3 0 0 0 5 -1 0 0 2 0 0 0 4 -1 0 0 2 0 0 0 5 -1 0 0 2 0 0 0 4 -1 0 0 2 0 0 0 5 -1 0 0 3 -1 0 0 2 0 0 0 4 -1 0 0 3 -1 0 0 3 -1 0 0 2 -1 0 0 4 -1 0 0 3 -1 0 0 3 -1 4 -1 0 0 3 -1c-1,0 0,0 6,-3l0 0 4 -1 0 0 2 -1 0 0 7 -3 0 0 2 -1 0 0 5 -2 0 0 3 -2 0 0 1 0 0 0c7,-3 4,-2 7,-3l0 0 2 -1 0 0 1 0 0 0 1 0 0 0 1 -1 8 -4c14,-8 28,-17 41,-28l0 0c16,-12 30,-26 44,-41l0 0 3 -4 0 0 4 -4 0 0 2 -3 0 0 4 -5 0 0 3 -3 0 0 2 -2 0 0 3 -5 0 0 2 -3 0 0 3 -4 0 0 3 -4 0 0 1 -2 0 0 2 -4 0 0 1 -1 0 0 4 -6 0 0 2 -4 0 0 1 -2 0 0 3 -6 0 0 2 -3 0 0 2 -5 0 0 2 -4 0 0 1 -3 2 -3 0 0 2 -5 0 0 1 -2 0 0 2 -5 0 0 2 -4 0 0 1 -3 0 0 2 -6 0 0 1 -2 0 0 2 -4 0 0c1,-2 0,1 1,-5l0 -1 0 0 2 -7 0 0 1 -3 0 0 0 -1 0 0 2 -7 0 0 1 -3 0 0 0 -2 0 0c1,-5 2,-8 2,-10l0 0 0 -1 0 0c3,-16 4,-32 3,-47 -1,-14 -3,-28 -7,-42l0 0 0 -2 0 0 -1 -2 0 0 -1 -4 -1 -2 0 0c-3,-9 0,0 -1,-3l0 0 -1 -3 0 0 -1 -3 0 0 -1 -4 0 0 0 0 0 0 -2 -5 0 0 0 -1 0 0 -3 -5 0 0 -1 -1 0 0 -2 -3 0 0 -2 -4 0 0 -1 -1 0 0 -2 -4 0 0 -2 -4 0 0 -2 -3 0 0c-1,-1 0,1 -2,-3l-2 -2 0 0 -2 -3 0 0c-5,-7 1,1 -3,-4l0 0 -1 -2 0 0 -7 -7 -1 -1 0 0 -4 -4 -4 -4 0 0 0 0 0 0 -5 -4c-9,-8 3,2 -4,-4l0 0 0 0c-4,-3 -7,-6 -11,-9 -3,-2 -6,-4 -9,-7l-2 -1 -1 0 0 0 0 0 -1 -1 0 0 0 0 0 0 0 0 -2 -1 0 0 0 0c-9,-6 -19,-12 -31,-17 -13,-7 -26,-12 -39,-17l0 0 -3 -1 0 0 -7 -3 0 0c4,1 7,3 -9,-3l0 0 0 0 -2 -1 0 0 -8 -3 0 0 0 0 0 0 0 0 0 0 -3 -1 0 0 -5 -1 -1 0 0 0 -10 -3 0 0 0 0 0 0 -10 -3 0 0 -1 0 0 0 0 0 -10 -3 0 0 0 0 0 0 -1 0 0 0 -7 -2 0 0 0 0 -1 0 -6 -1 0 0 -2 0 -3 0 -6 -1 0 0 -5 -1 -5 -1 0 0c-5,-1 -10,-2 -16,-3 -5,-1 -12,-2 -22,-4l-1 0 0 0 0 0 -2 0 0 0 -8 -1 0 0 -1 0 -1 0 0 0 0 0 -10 -2 -6 -1 0 0 0 0 -4 -1 -1 0 0 0 -1 0 0 0 -2 0 -8 -1 0 0 -1 0 0 0 0 0 0 0 -10 -1 0 0 0 0 -1 0 0 0 -16 -2c-317,-33 -498,-41 -724,191 -67,69 -143,132 -229,190 -259,175 -648,302 -1062,360 -392,55 -811,47 -1166,-43 -117,-18 -224,-26 -321,-29 -98,-3 -191,1 -277,7 -23,2 -67,8 -123,15 -321,44 -985,136 -1023,-153 -9,-67 -1,-118 18,-156 -32,-31 -58,-77 -72,-146 -15,-74 9,-136 49,-186 44,-55 112,-93 155,-109l0 0c10,-4 20,-7 30,-9 -41,-63 -52,-143 31,-256 122,-165 253,-136 365,-102 -51,-52 -99,-110 -138,-170 -65,-101 -108,-211 -111,-323 -3,-121 39,-238 147,-339 72,-67 173,-126 311,-172 36,-12 101,-32 176,-50 38,-9 80,-18 124,-26 3,-7 5,-14 8,-21 7,-22 10,-46 11,-69l0 0 0 0 0 0 0 -7 0 0 0 -5 0 -4 0 0 0 -1 0 -4 0 0 0 -3 0 0 0 -1 0 -5 0 0 0 -5 0 0 0 -1 0 -1 0 -1 0 -1 0 0 0 0 0 -1 0 -1 0 0 0 -1 -1 -8c-1,-15 -3,-30 -6,-43 -3,-18 -8,-36 -13,-56l0 0 0 0 0 0 0 0 0 -1 -2 -5 0 0 -1 -3 0 -1 0 -1 0 0 0 -1 0 -1 0 0 -2 -6 0 0 0 -1 0 -1 0 -1 0 0 -3 -9 0 0 -5 -14c-1,-2 -1,-3 -5,-15l0 -1 0 0 -4 -10 0 0 0 -1 0 -1 0 -1 0 0 0 -1 0 -1 0 0 -1 -4 0 0 -1 -1 0 -1 0 0 -1 -2 0 -1 0 0 -2 -4 0 0 -3 -6 0 -1 0 0 0 0 0 -1 0 -1 0 0 0 0 0 -1 -1 -2 0 -1 0 0 0 0 0 0 0 0c-10,-24 -19,-45 -28,-63l0 0c-10,-21 -22,-43 -35,-66l0 0 -3 -6 0 0 0 0 0 -1 0 0 -7 -12 0 -1 0 -1 0 -1 0 0 0 0 0 0 -3 -6 0 0 0 -1 0 -1 0 -1 0 -1 0 0 -4 -7 0 0 0 0 0 -1 0 0 0 0 0 0 0 0 0 -1 0 -1 0 -1 0 0 -8 -13 -7 -11 -16 -25 0 0 0 0 0 -1 0 0 0 -1 0 -1 0 0 0 -1 0 -1 0 -1 0 0 0 -1 0 -1 0 0 0 0 0 -1 0 -1 0 -1 0 -1 0 0 0 0 0 -1 0 0 0 -1 0 -1 0 0 -6 -8 0 0 0 -1 0 -1 0 0 0 0 0 0 0 -1 0 0 -5 -8 0 0 0 -1 0 0 0 0 0 0 -1 -1 0 -1 0 0 0 0 0 0 -3 -4 0 0 0 0 -1 -1 0 0 0 0c-13,-19 -11,-16 -14,-21l0 0c-14,-19 -11,-16 -15,-21l0 0 -1 -1 0 0 0 0 -1 -1 -1 -1 0 0 -2 -3 0 0 0 0 -1 -1 0 0 -1 -1 0 0 0 0 0 0 0 0 0 0 0 -1 0 0 -1 -1 0 0 -6 -8 0 0 0 0 -1 0 0 -1 0 0 0 -1 -1 -1 0 -1 0 0 -1 -1 0 -1 0 -1 0 0 -1 -1 0 -1 0 -1 0 0 -1 -1 0 -1 0 0 -1 -1 -9 -12 0 0 -1 -1 0 0c-10,-13 -20,-26 -31,-38 -9,-11 -20,-24 -32,-37l0 -1 -1 -1 0 -1 0 0 -6 -7 0 0 -5 -6 0 0 -1 -1 -1 -1 0 -1 0 -1 0 0 0 0 0 0 -1 -1 -1 -1 0 -1 0 0 0 0 0 0 -6 -7 0 0 -6 -6c-30,-33 -57,-61 -82,-84 -24,-23 -51,-46 -78,-67l0 0 0 0 0 0 0 0 0 0 -1 -1 0 0 0 0 0 0 0 0 0 0 -1 -1 -1 -1 0 0 -7 -6 0 0 -1 0 -1 -1 -1 0 0 0 -1 -1 -1 0 -1 0 -1 -1 -1 0 0 0 -6 -4 0 0 0 0 0 0 0 0 -1 0 0 0 -3 -2 0 0 -1 0 0 0 -1 0 -1 0 0 0 0 0 0 0 -4 -3 0 0 -1 0 0 0 0 0 -10 -7c-10,-7 -4,-3 -9,-6l0 0c-64,-40 -116,-80 -158,-119 -48,-45 -83,-90 -108,-135l0 0 0 -1 0 -1 0 -1 0 0 0 0 0 0 0 -1 0 0 0 -1 0 -1 -1 -3 -1 -1 -1 -3 0 -1 -2 -4 -1 -2 -2 -4 -31 -66 6 -7c-25,-113 12,-217 94,-309 73,-82 184,-153 317,-214 24,-11 50,-22 75,-32 -75,-88 -156,-198 -221,-316 -84,-151 -145,-317 -148,-471 0,-25 1,-51 3,-77 2,-23 5,-45 9,-67 0,-31 4,-59 12,-86 2,-9 5,-17 8,-25 -19,0 -38,-1 -57,-1 -56,-1 -110,-3 -153,-2 -199,1 -229,-258 -81,-347 28,-17 54,-27 54,-28l-3 39zm1505 -154c143,23 253,113 305,155 7,6 10,8 11,9 22,14 3,32 -29,46l-33 53 104 66c-45,72 -100,78 -168,35 -11,-7 -21,-15 -34,-26 -37,-30 -113,-92 -194,-105l37 -233 1 0zm250 223l-20 25 24 15 33 -53c-11,5 -24,9 -37,13zm-20 25l20 -25c-15,4 -31,7 -45,9l25 16zm-487 -343c-74,27 -145,53 -197,73l-49 -132c-33,30 -66,61 -98,93 -90,91 -173,189 -244,290l-21 31 -8 12 -5 7 0 0 -5 8 -15 23 -11 18c-2,3 -8,13 -18,30l0 0c-5,8 -10,18 -16,29l-20 37 -19 41c-9,20 -17,38 -24,56 -8,19 -14,37 -20,53l-4 12 -7 12c-5,8 -8,16 -11,24 -2,8 -4,18 -3,28l1 14 -2 12c-4,20 -7,39 -8,56 -2,18 -2,35 -2,52 2,111 51,240 118,360 94,170 220,320 304,389l167 138 -207 65c-82,26 -159,54 -226,85 -104,48 -188,101 -239,157 -34,38 -48,76 -37,112 2,6 4,11 5,15l2 4 0 0 1 3 0 0 0 1 0 0 0 1 0 0 0 0 0 0 0 0 0 0 0 0 0 1 0 1c13,23 33,49 62,76 31,29 72,60 122,92l0 0c12,8 12,7 14,9l14 9 1 0 0 0 1 0 0 0 5 4 1 0 1 0 1 0 1 0 1 0 0 0 1 0 1 0 0 0 2 2 0 0 1 0 1 1 1 0 1 0 1 0 0 0 7 5 1 0 1 0 1 0 1 1 1 0 1 0 0 1 0 0 1 1 1 1 1 1 0 0 9 7 1 0 1 1 1 1 0 0 1 1 0 0 0 0 0 0 1 1 0 0 0 0 0 0 1 1 0 0c28,22 59,49 93,82 34,32 65,64 95,96l6 7 0 0 6 7 0 0 0 0 0 0 0 1 1 1 0 1 0 0 0 0 0 0 0 1 1 1 0 1 0 1 0 0 0 0 6 7 0 0 6 7 0 0 0 1 1 1 0 1c11,12 22,26 35,42 11,14 23,28 34,43l0 0 1 1 0 1 10 12 1 1 0 1 0 0 1 1 0 1 0 1 0 0 1 1 0 1 0 1 0 0 1 1 0 1 1 1 0 1 0 0 1 1 0 1 1 1 1 0 0 1 0 0 0 0 6 8 1 1 0 0 0 0 1 1 0 0 0 0 0 0 0 1 0 1 0 1 0 0 0 0 2 3 0 0 0 1 0 0 0 0 1 1 0 1 0 0c14,19 14,19 17,23l0 0c14,20 14,20 17,24l0 0 0 0 1 1 0 1 0 0 0 0 3 5 0 0 0 1 0 0 0 1 0 0 0 0 0 1 0 0 0 1 0 0 5 8 0 0 0 1 0 0 0 0 0 0 0 1 0 1 0 0 6 9 0 0 0 1 0 0 0 0 0 1 0 0 0 1 0 0 0 0 0 1 1 2 0 0 0 1 0 1 0 1 0 1 0 0 0 1 0 1 0 1 0 0 0 1 0 1 0 0 0 1 0 0c2,2 8,12 18,28 2,3 8,13 17,28l0 0 0 1 1 2 0 0 0 1 0 0 0 0 0 0 0 0 0 1 0 1 0 1 0 0 4 7 0 0 0 1 0 0 0 1 0 1 0 1 0 0 5 8 1 1 0 0 0 0 0 0 0 0 33 55 -2 2c7,14 15,28 22,43l0 0c14,28 26,53 35,76l0 0 0 0 1 2 0 1 0 0 0 0 0 1 0 1 0 1 0 1 0 1 0 0 0 1 3 6 0 1 3 6 0 1 1 2 0 1 0 0 1 1 0 1 0 0 0 0 2 4 0 0 0 1 0 0 0 1 0 1 0 1 0 1 0 1 4 12 0 0 0 1 6 18c4,12 6,17 7,19l0 1 4 11 0 1 0 1 0 1 0 1 0 0 2 8 0 0 0 0 0 0 0 0 0 0 0 1 0 1 0 0 0 0 2 5 0 1 2 5 0 1 0 0 0 1 0 1 0 1 0 0c7,25 13,50 18,77 5,27 8,52 10,76l0 0 0 1 0 0 0 1 0 0 0 1 0 0 9 124 -13 0c-3,24 -8,47 -15,69 -12,40 -30,79 -55,116l-9 14 -13 11 -12 11 -26 22 -33 5c-53,8 -106,19 -155,31 -72,17 -127,34 -156,43 -104,35 -177,76 -225,121 -53,50 -74,105 -72,160 2,64 31,134 74,202 67,104 166,197 259,258l163 108 -172 94c-14,7 -23,13 -32,18 -56,32 -111,64 -183,73 -52,7 -96,-7 -145,-22 -44,-13 -97,-30 -126,10 -6,8 14,25 28,38 61,52 110,95 75,189 -38,102 -114,107 -204,112 -25,1 -53,3 -72,9l0 0c-14,5 -36,16 -49,31 11,11 40,10 61,10l0 0c65,-2 115,-4 159,59 56,80 37,137 -32,185l0 0c-26,18 -53,25 -84,32 -21,5 -52,13 -51,25 7,53 513,-17 758,-50 63,-9 112,-15 138,-17 90,-7 190,-10 300,-7 110,3 228,12 352,31l2 0 10 2c326,84 717,91 1086,40 381,-53 734,-167 963,-322 71,-48 135,-101 191,-158 55,-57 102,-118 142,-185l33 -56 65 -2 1 0 0 0 2 0 1 0 0 0 1 0 0 0 1 0 0 0 0 0 2 0 2 0 0 0 2 0 0 0 2 0 2 0 0 0 0 0 1 0 2 0 2 0 2 0 1 0 1 0c39,-2 81,-7 124,-11l5 -1 0 0 1 0 0 0 2 0 0 0 2 0 0 0 1 0 1 0 4 0 2 0 2 0 0 0 1 0 0 0 1 0 0 0 2 0 1 0 2 0 0 0 1 0 2 0 0 0 0 0 1 0 1 0 0 0 1 0 0 -3 97 -5 2 0 7 0 0 0 0 0 6 0c2,0 9,0 19,-1 4,0 10,0 19,-1l22 -1 1 0 0 0 1 0 1 0 4 0 0 0 0 0 2 0 2 0 7 0 0 0 0 0 6 0 2 0 2 0 12 0 2 0 0 0 0 0 11 0 2 0 2 0 1 0 1 0 0 0 0 0 0 0 7 0 1 0 1 0 0 0 1 0 4 0 2 0 1 0 1 0 0 0 1 0 2 0 0 0 16 0 0 0 1 0 0 0 15 0 3 0 0 0 1 0 0 0 0 0 1 0 3 0 5 0 1 0 0 0 0 0 1 0 3 0 3 0 3 0 0 0c25,0 49,1 72,2 30,1 57,3 78,5l0 0 2 0 0 0 9 1 0 0 1 0 1 0 19 2 19 2 0 0 1 0 1 0 0 0 10 1 1 0 1 0 0 0 1 0 0 0 8 1 2 0 0 0 1 0 0 0 1 0 10 1 2 0 0 0 5 1 1 0 0 0 0 0 5 1 1 0 0 0 0 0 2 0 0 0 0 0 9 1 0 0 2 0 0 0 0 0 1 0 1 0c7,1 15,3 26,5 8,2 17,3 26,5l1 0 0 0 6 1 1 0 6 1 0 0 1 0 6 1 1 0 5 1 0 0 0 0 2 1 10 2 1 0 1 0 0 0 1 0 0 0 10 3 1 0 1 0 1 0 0 0 10 3 1 0 1 0 0 0 1 0 0 0 10 3 0 0 1 0 1 0 1 0 5 1 1 0 5 2 0 0 0 0 1 0 2 1 1 0 6 2 0 0 2 1 0 0 1 0 0 0 0 0c23,7 -6,-2 10,4l2 1 1 0 0 0 0 0 0 0 1 0 0 0 0 0 9 3 1 0 4 1 0 0c22,8 43,17 61,26 18,9 36,20 54,31l0 0 2 1 0 0 0 0 2 1 0 0 0 0 0 0 1 1 0 0 0 0 1 0 0 0 1 1c7,5 14,10 22,16 7,5 14,11 20,16l0 0 0 0 0 0c12,10 5,4 10,8 1,1 4,3 9,8l0 0 1 1 0 0c2,2 5,5 9,8 3,3 6,6 8,8l0 0 1 1c3,3 8,9 15,18l0 0 1 2 0 0c8,9 5,5 7,8l0 0c3,4 5,7 7,8l0 0 2 2 6 8 0 0c1,2 3,5 6,9l0 0 2 4 1 2 3 5 1 2 3 6 1 2 2 4 1 2 3 5 1 2 3 5 1 2 3 5 1 2 2 5 1 2 2 5 0 2 2 4 1 1 1 4 0 1 2 4 0 1 2 4 0 1c4,11 3,6 4,10l0 1 1 4 0 1 1 4 0 2 1 4 0 2 1 4 0 0c9,31 14,64 15,98 1,33 -1,66 -7,99l0 0 0 1 0 0c-2,9 -3,15 -4,20l0 0 0 2 0 0c-1,4 0,1 -3,10l0 1 -2 7 0 1 -1 2 0 1 -2 7 0 2 -2 7 0 1 -1 2 -3 9 0 1 -2 7 0 1 -1 3 0 1 -2 6 -1 2 -3 6 0 1 -2 4 0 1 -2 6 -1 2 -3 6 0 1 -2 5 -1 2 -3 5 0 1 -3 5 -1 2 -3 6 0 1 -2 5 -1 1 -3 4 -1 1 -4 7 -1 1 -2 4 0 1 -2 4 -1 1 -5 7 -1 1 -2 4 0 1 -2 4 -1 1 -3 4 0 1 -3 4 -1 1 -4 6 -1 1 -3 5 -1 1 -3 5 -1 1 -4 5 -1 1 -4 5 -1 1 -4 5 -1 1 -3 4 -1 1 -4 5 -1 1 -4 5 0 0c-22,25 -47,48 -74,70l0 0c-24,19 -50,36 -79,52l41 41 -233 22 0 0 -5 1 -1 0 -4 0 -1 0 -4 0 0 0 0 0c-25,2 -49,3 -74,2 -25,-1 -49,-4 -74,-9l-2 0 0 0 -8 -2 -1 0c-8,-2 -10,-2 -11,-2l0 0 -3 -1c-6,-1 2,0 -11,-3l0 0c-8,-2 -9,-2 -11,-3l0 0 -2 0 0 0c-2,-1 -6,-2 -12,-4 -1,0 -3,-1 -12,-4l0 0 -1 0 -12 -4 0 0c-3,-1 -7,-3 -12,-5l-1 0c-2,-1 -2,-1 -13,-5l-10 -4 0 0 0 0 -3 -1 0 0 -12 -6 0 0c-4,-2 -8,-4 -13,-6l0 0 -11 -5 0 0 -4 -2 -5 -2 0 0 -2 -1 -3 -1 0 0 -7 -4 0 0 0 0 -2 -1 0 0 -5 -2 0 0 -4 -2 0 0 -9 -4 0 0 -1 -1 0 0 0 0 0 0 -1 0 0 0 -3 -2 -5 -2 -1 0 0 0 -3 -2 0 0 -5 -2 0 0 -2 -1 0 0 -2 -1 -5 -2 0 0 -4 -2 0 0 -1 0 0 0 -4 -2 0 0 -5 -2 0 0 -8 -3 0 0 -6 -3 -1 0 -5 -2 0 0 -2 -1 0 0 -2 -1 0 0 -5 -2 -4 -2 0 0 -1 0 0 0 -4 -2 0 0 -1 -1 -8 -3 0 0 -1 0 -5 -2 0 0 0 0 -4 -2 0 0 -5 -2 -2 -1 0 0 -3 -1 -5 -2 0 0 -3 -1 0 0 -2 -1 -5 -2 0 0 -4 -1 0 0 -1 0 -5 -2 0 0 -5 -2 0 0 0 0 -4 -1 0 0 -5 -2 -4 -1 -1 0 0 0 -4 -1 0 0 -5 -2 -5 -2 0 0 -4 -1 0 0 -5 -2 0 0 -9 -3 0 0 0 0 -5 -2 0 0 -4 -1 0 0 -5 -1 -5 -1 0 0 -5 -1 0 0 -8 -2 0 0 -10 -3 0 0 0 0 -3 -1 0 0 -5 -1 -1 0 -5 -1 0 0 -4 -1 0 0 -5 -1 0 0c-11,-3 -18,-4 -20,-5 -10,-2 -17,-4 -20,-4l0 0 -2 0 0 0 0 0 0 0 -2 0 -5 -1 0 0 -1 0 -1 0 0 0 -7 -1 0 0 0 0 0 0 -1 0c-11,-2 6,1 -8,-1l0 0 -2 0 0 0 -6 -1 0 0 -2 0 0 0 -8 -1 0 0 -7 -1 0 0 0 0 0 0 0 0 0 0 0 0 0 0 -4 0 0 0 -3 0 0 0 -4 0 0 0 -3 0 0 0 0 0 -4 0 0 0 0 0 -3 0 0 0 -1 0 0 0 -4 0 0 0 -2 0 0 0 -4 0 0 0 -2 0 0 0 0 0 0 0 -4 0 0 0 -2 0 0 0 -1 0 0 0 -4 0 0 0 -3 0 0 0 -2 0 0 0 -3 0 0 0 -3 0 0 0 0 0 -2 0c4,9 10,18 17,29 12,17 28,36 49,56l1 1 0 0 1 1 2 2 0 0 0 0 0 0 1 1 0 0 0 0 1 1 1 1 1 1 0 0 0 0 0 0 1 1 0 0 0 0 1 1 1 1 0 0 0 0 1 1 0 0 1 1 3 2 0 0 0 0 1 1 0 0 1 1 6 5 0 0 3 3 0 0 0 0 0 0 1 1 0 0 4 3 0 0 1 1 0 1 1 0 1 1 1 1 0 0 0 0 0 0 2 2 0 0 0 0 1 0 1 1 1 0 0 0 1 0 0 0 1 1 0 0 1 1 0 0 1 1 0 0 1 1 0 0 0 0 0 0 3 3 0 0 0 0 1 1 4 3 0 0c2,1 4,3 15,11l0 0 14 11c3,2 7,5 11,8l4 3 2 2 2 1 0 0 2 2 1 0 0 0 0 0c5,4 9,7 12,9l12 8 0 0 7 5 0 0c8,5 -6,-4 11,7l11 7 0 0 2 1 0 0 5 3 0 0 6 4 0 0 9 5 0 0c1,1 1,1 9,5 8,4 13,7 16,9l0 0 8 4 0 0 8 4 7 4 0 0 6 3 0 0c14,7 28,13 43,19l0 0c16,7 30,12 42,17l2 1 0 0 6 2 0 0 2 1c9,3 7,2 10,3l0 0c8,3 8,3 10,3l0 0 10 3 0 0 2 1c5,2 12,3 18,5l0 0 7 2 0 0 8 2 0 0 7 2 0 0 8 2 0 0 8 2 0 0 7 1 0 0c27,5 56,9 87,12 31,3 61,3 88,3l0 0 6 0 0 0 6 0 0 0 11 -1c4,0 -1,0 8,-1l6 0 0 0 7 -1 0 0c10,-1 11,-1 10,-1l8 -1 0 0 5 -1 0 0 6 -1 0 0c7,-1 14,-2 21,-3l2 0 0 0 4 -1 0 0 2 0c4,-1 12,-2 24,-5l2 0 0 0 2 0c37,-8 75,-18 113,-32 37,-13 74,-29 110,-48l0 0 9 -5 0 0 0 0 0 0 8 -4 0 0 8 -4 0 0 7 -4 0 0 5 -3 0 0 7 -4 0 0 7 -4 0 0 7 -4 0 0 8 -5 0 0 5 -3 0 0 6 -4 0 0 8 -5 0 0 6 -4c39,-26 74,-54 106,-83 33,-30 65,-63 93,-97l0 0 1 -2c8,-10 6,-7 8,-10 5,-7 6,-7 7,-8l1 -2 1 -2 1 -2 1 -2 0 0 7 -9 0 0 7 -9 0 0 3 -4 0 0 0 -1 1 -1 1 -2 0 0 6 -8 0 0 5 -8 1 -2 0 0 3 -4 0 0 1 -2 0 0 5 -8 6 -10 0 0 1 -1 0 0 3 -5 0 0c6,-9 12,-19 19,-31 7,-13 13,-23 17,-31 2,-4 4,-8 6,-12 2,-3 4,-7 6,-12l1 -3 5 -11c7,-16 1,-2 5,-11l0 0 3 -6c2,-5 5,-11 8,-19l0 0 4 -10 0 0 3 -8 0 0 3 -8 0 0c9,-25 16,-50 22,-73 6,-24 10,-48 14,-72 1,-7 0,2 1,-10 1,-11 1,-6 1,-10l0 0 1 -8 0 0c1,-8 -1,6 0,-9l0 0 1 -11 0 0 0 -7 0 0 0 -10 0 -10 0 0 0 -7 0 -10 0 0 0 -9 0 0 0 -8 0 0c0,-2 -1,-9 -1,-19l0 0 -1 -8 0 0c-1,-14 -2,-22 -2,-25 0,-4 -2,-12 -4,-25 -6,-35 -17,-69 -31,-100 -14,-32 -33,-62 -56,-91l0 0 0 0 0 -1 -1 -1 0 0 -2 -3 0 0 -5 -6 0 0 -4 -5 0 0 -2 -3 0 0 -6 -7 0 0 -5 -5 0 0 -4 -4 0 0 -3 -4 0 0 -6 -6 0 0 -5 -5 -4 -4 -5 -4 0 0 -5 -5 0 0 -5 -4 0 0 -4 -4 0 0 -4 -4 0 0 -3 -2 0 0 -7 -6 0 0 -2 -1c-19,-16 -40,-32 -62,-47 -22,-15 -46,-30 -71,-43l0 0 -10 -6 0 0 -2 -1 0 0 -9 -5 0 0 -4 -2 0 0 -6 -3 -9 -5 -2 -1 0 0 -8 -4 0 0 -1 0 0 0 -10 -5 0 0 -2 -1 0 0 -10 -5 0 0 -8 -4 0 0 -7 -3 0 0 -7 -3 0 0 -9 -4 0 0 -6 -2 0 0 -7 -3 -2 -1 0 0c-35,-14 -73,-27 -114,-39 -41,-12 -83,-23 -124,-31l-2 0 0 0 -2 0 0 0 -1 0 0 0 -15 -3 0 0 -2 0 -2 0 -2 0 0 0 -2 0 0 0 -2 0 0 0 -2 0 0 0 -8 -1 0 0 -7 -1 0 0 -2 0 0 0 -2 0 0 0 -2 0 -2 0 -2 0 0 0 -9 -2 0 0 -9 -1 0 0 -2 0 -2 0 -2 0 0 0 -2 0 0 0 -9 -1 0 0 -9 -1 0 0 -2 0 0 0 -2 0 0 0 -2 0 0 0 -2 0 -2 0c-19,-3 -39,-5 -59,-7l0 0c-17,-2 -37,-4 -59,-5l0 0 -13 -1 0 0 -13 -1 0 0 -1 0 -1 0 0 0 0 0 0 0 -12 -1 0 0 -12 -1 0 0 -4 0 0 0 -10 0 0 0 -10 0 -3 0 0 0 -7 0 0 0 -9 0 0 0 -9 0 0 0 -2 0 0 0 -9 0 -1 0 0 0 0 0 -1 0 -10 0 -2 0 0 0 0 0 0 0 0 0 -9 0 -8 0 0 0 0 0 0 0 0 0 -2 0 -3 0 -2 0c-25,0 -53,1 -82,3 -28,1 -55,4 -81,6l-1 0 0 0 -2 0 0 0 -1 0 0 0 -13 1 0 0 -2 0 -2 0 -2 0 -10 1 0 0 -1 0 0 0 -2 0 -6 1 0 0 -2 0 -11 1 0 0 -6 1 0 0 0 0 -4 0 -1 0 0 0 -1 0 -1 0 0 0 0 0 0 0 -10 1 0 0 -13 2 -1 0 -1 0 0 0 0 0 -4 1 0 0 0 0 -1 0 0 0 0 0 0 0 0 0 0 0 0 0 -1 0 -1 0 0 0 0 0 -4 1 0 0 0 0 0 0 0 0 0 0 -1 0 0 0 0 0 0 0 -1 0 0 0 -1 0 0 0 0 0 -1 0 0 0 0 0 0 0 -2 0 0 0 0 0 0 0 0 0 0 0 0 0 0 0 0 0 0 0 -1 0 -1 0 0 0 -149 23 14 -150c2,-25 4,-52 5,-81 1,-23 2,-51 2,-85 0,-121 -11,-260 -32,-412 -21,-153 -53,-320 -95,-494l-2 -8 -1 -9c0,-5 -1,-10 -1,-13l0 0c-1,-5 -1,-10 -2,-15 -6,-37 -13,-72 -22,-105 -9,-32 -20,-63 -33,-93l-3 -7 -2 -9c-117,-412 -281,-835 -480,-1177 -165,-284 -352,-510 -552,-623 -47,-27 -95,-44 -142,-55 -50,-11 -99,-13 -148,-8l-372 38 283 -244c48,-41 78,-83 93,-124 15,-40 17,-82 10,-125l-73 -453 167 214c29,-43 63,-81 100,-117 87,-82 193,-144 297,-189 -51,5 -128,14 -212,5 -205,-20 -444,-26 -578,-27l-56 -1 -35 -42c-27,-33 -50,-61 -70,-84 -22,-26 -47,-54 -73,-83l0 0c-6,-6 -4,-4 -32,-35 -13,-14 -23,-25 -31,-34l-43 -46 14 -61c18,-80 58,-181 115,-278 28,-48 60,-95 96,-138 -103,16 -224,43 -339,74 -161,43 -305,93 -365,129l-17 10 -18 4c-45,10 -93,27 -145,53 -43,21 -88,48 -137,81 37,-13 68,-23 87,-28l58 228c-20,5 -75,24 -139,48l31 4zm1133 -697c1,-18 0,-11 -1,5 1,-1 1,-3 1,-5zm2906 5360l0 0m-434 1305l0 0c-2,0 -3,0 0,0zm-596 -557l0 0c0,0 0,0 0,0l0 0zm688 172l0 0c3,-1 1,0 0,0z"/>
     <ellipse class="fil2" cx="10651" cy="9462" rx="2804" ry="338"/>
     <path class="fil3" d="M8557 4038c108,31 195,97 282,154m1212 -218c153,25 272,159 277,149m-754 -399c114,-43 298,-111 348,-124m141 -336c135,-81 600,-211 859,-232 215,-17 138,71 67,133 -134,117 -229,312 -257,439 21,23 43,46 65,70 52,57 101,115 147,171 272,3 972,23 971,144 0,41 -33,63 -77,80 -200,76 -421,214 -475,447l-4 -6c20,126 -16,248 -143,357 117,-12 239,9 359,77 476,269 866,1089 1088,1870 31,71 52,148 64,228 2,12 3,24 4,35 84,353 130,684 130,934 0,61 -3,120 -8,177l0 0 0 0 0 0 0 0 0 0 0 0 0 0 0 0 0 0 0 0 0 0 0 0 0 0 0 0 0 0 0 0 0 0 0 0 0 0 0 0 0 0 0 0 0 0 0 0 0 0 0 0 0 0 0 0 0 0 0 0 0 0 0 0 0 0 0 0 0 0 0 0 0 0 0 0 0 0 0 0 0 0 0 0 0 0 0 0 0 0 0 0 0 0 0 0 0 0 0 0 0 0 0 0 0 0 0 0 0 0 0 0 0 0 0 0 0 0 0 0 0 0 0 0 0 0 0 0 0 0 0 0 0 0 0 0 0 0 0 0 0 0c9,-1 18,-3 27,-4l1 0 0 0 2 0 0 0c7,-1 15,-2 22,-3l2 0 6 -1 2 0 2 0 11 -1 2 0 2 0 2 0 14 -1 2 0 2 0 2 0c57,-6 116,-9 174,-9l3 0 3 0 3 0 0 0c6,0 12,0 17,0l0 0 3 0 10 0 3 0 0 0 10 0 3 0c6,0 12,0 18,0l7 0 3 0c7,0 14,0 21,1l4 0c8,0 17,1 25,1l2 0 1 0 1 0c9,1 18,1 27,2 42,3 84,8 126,13l2 0 2 0 2 0 2 0 2 0c6,1 13,2 19,3l2 0 2 0 2 0 2 0c6,1 13,2 19,3l2 0 2 0 2 0 2 0 2 0c6,1 11,2 17,3l2 0 2 0 2 0 2 0 2 0 2 0 15 3 2 0 2 0 2 0c90,19 177,44 258,76l2 1c5,2 9,4 14,6l9 4c5,2 10,4 15,7l9 4 12 5 2 1 0 0 11 5 2 1 9 4 2 1 11 5c4,2 8,4 11,6l10 5 2 1 10 6c56,31 107,66 153,105l2 1 7 6c3,3 6,5 9,8 3,3 7,6 10,10l6 6c4,4 7,7 11,11l6 6c4,4 7,8 11,12l5 5c4,4 8,9 12,13l3 4c4,5 8,9 12,14l3 3 0 0c56,72 95,153 111,245 4,20 6,40 8,60l0 0 1 8c1,8 1,16 1,24l0 9c0,8 0,16 0,24l0 8c0,8 0,16 -1,24l0 8c0,8 -1,16 -2,24l-1 9c-1,8 -2,16 -3,23 -7,57 -21,114 -41,170 -2,6 -5,13 -7,19l-4 11c-3,7 -6,15 -9,22l-3 6c-4,9 -8,18 -12,26l-1 3c-4,9 -9,19 -14,28 -12,24 -26,47 -40,70l-3 5 -1 2c-4,7 -9,13 -13,20l-1 2 -4 5 -1 2c-4,6 -8,12 -12,18l-1 2 0 1 -4 6c-5,7 -11,14 -16,21l-1 2 -1 2 -1 2 0 0c-6,7 -12,15 -18,22l-1 2c-64,77 -140,146 -224,203l0 0c-5,3 -10,7 -15,10 -4,3 -9,6 -13,8 -5,3 -10,6 -15,9 -5,3 -10,6 -16,9 -5,3 -9,5 -14,8 -6,3 -12,6 -17,9l-2 1 -10 5c-80,42 -166,73 -255,91l-2 0 -2 0c-9,2 -18,3 -28,5l-2 0 -5 1 -2 0c-8,1 -17,2 -25,3 -4,0 -8,1 -11,1 -7,1 -14,2 -22,2 -5,0 -10,1 -14,1 -7,1 -14,1 -21,1 -5,0 -10,0 -15,1 -66,2 -134,-3 -202,-17 -6,-1 -11,-2 -17,-4 -6,-1 -13,-3 -19,-5 -5,-1 -11,-3 -16,-4 -7,-2 -14,-4 -22,-6l-2 -1 -11 -3c-8,-2 -16,-5 -24,-8l-2 -1 -7 -2 -2 -1c-32,-12 -65,-25 -97,-41 -5,-3 -11,-5 -16,-8 -6,-3 -13,-6 -19,-10 -6,-3 -12,-6 -18,-10 -7,-4 -14,-8 -20,-12 -4,-2 -8,-5 -12,-7l-2 -2c-8,-5 -16,-10 -24,-15l-8 -5c-10,-6 -19,-13 -29,-20l0 0 -2 -2 -2 -2 -2 -2c-6,-4 -12,-8 -17,-13 -11,-8 -21,-16 -32,-25l-4 -3 -1 -1 -1 -1 0 0 -1 -1 -3 -3 -1 -1 -1 -1 0 0 -1 -1 -1 -1 -1 -1 -1 -1 -1 -1 -1 -1 0 0 -2 -2 -1 -1 -1 -1 -1 -1 0 0 -1 -1 -1 -1 -4 -4 -1 -1 -1 -1 -3 -3 -1 -1 0 0 -6 -5 0 0 -1 -1 -2 -2 -1 -1 -1 -1 -1 -1 0 0 -1 -1 -1 -1 -1 -1 -1 -1 -1 -1 -1 -1 0 0 -1 -1 -1 -1 -1 -1 -1 -1 -1 -1 -1 -1 0 0 -1 -1 -2 -2 -1 -1 -1 -1c-49,-49 -83,-98 -98,-141l-1 -2 -1 -2 -1 -2c-1,-3 -2,-6 -3,-9l0 -2c-8,-31 -5,-59 10,-80 20,-28 54,-44 98,-49l2 0 3 0 4 0 5 0 2 0 4 0 2 0 3 0 6 0 2 0 2 0 5 0 2 0 8 0 1 0 1 0c3,0 5,0 8,0l1 0 0 0c3,0 6,0 9,1l0 0 0 0c3,0 6,0 9,1l0 0 2 0c5,0 11,1 16,2l2 0 1 0 7 1 2 0 0 0c3,0 6,1 10,1l1 0 0 0 9 1 1 0 1 0 0 0 5 1 3 0 2 0 1 0c15,3 31,6 46,10l5 1 5 1 5 1 1 0 5 1 5 1 0 0c7,2 14,4 20,6l5 1 5 2 5 2 1 0 5 1 5 2 1 0 10 3 5 2 5 2 5 2 5 2 0 0 5 2 1 0 4 1 5 2 5 2 0 0 5 2 5 2 1 0 5 2 5 2 2 1 3 1 5 2 3 1 2 1 5 2 4 2 1 0 5 2 1 0 8 3 1 1 5 2 2 1 4 2 5 2 3 1 3 1 5 2 1 0 6 3 9 4 0 0 5 2 5 2 1 0 4 2 5 2 2 1 3 1 5 2 3 2 2 1 5 2 5 2 1 0 2 1 9 4 1 0 5 2 5 3 2 1 1 1 8 4 3 1 2 1 5 3 4 2 11 6c7,3 14,7 20,10l0 0 0 0c7,3 13,6 20,8l1 0c6,3 13,5 19,7l1 0c6,2 13,4 19,6l2 0c6,2 12,3 18,5l3 1c6,1 11,2 17,4l0 0c40,7 78,9 116,5l0 0c3,0 5,-1 8,-1 3,0 7,-1 10,-1 3,0 6,-1 9,-1 3,-1 7,-1 10,-2 3,-1 6,-1 9,-2 3,-1 6,-1 9,-2 3,-1 6,-1 9,-2 3,-1 6,-2 9,-2 3,-1 6,-2 9,-3 3,-1 6,-2 9,-3 3,-1 6,-2 9,-3 3,-1 6,-2 9,-3 3,-1 6,-2 9,-4l7 -3c3,-1 7,-3 10,-5l5 -2 2 -1c3,-1 6,-3 9,-5l2 -1 2 -1 1 0 1 -1 0 0c48,-26 91,-60 127,-100 3,-3 6,-7 9,-10l3 -4c3,-3 5,-6 8,-9l4 -5c2,-3 5,-6 7,-9l4 -6c2,-3 4,-5 5,-8 2,-2 3,-5 5,-7l5 -7c2,-3 3,-5 5,-8l4 -7c2,-3 3,-6 5,-9l3 -6c2,-4 4,-7 5,-11l2 -5c2,-4 3,-7 5,-11l2 -4c2,-4 3,-8 5,-13l1 -3c2,-5 3,-9 5,-14l1 -2c2,-5 3,-9 4,-14l1 -2c1,-5 3,-10 4,-14l0 -2c1,-5 2,-10 3,-15l0 -1c9,-48 8,-97 -5,-143 -1,-3 -2,-5 -2,-8 -1,-3 -2,-5 -3,-8 -1,-3 -2,-5 -3,-8 -1,-3 -2,-5 -3,-8 -1,-2 -2,-5 -3,-7 -1,-3 -3,-6 -4,-9l-3 -5c-2,-3 -4,-7 -6,-10l-2 -4c-2,-4 -4,-7 -7,-11l-2 -4c-3,-4 -5,-8 -8,-12l-2 -2c-3,-4 -6,-8 -10,-12l-1 -2c-4,-4 -7,-8 -11,-13l-1 -1c-4,-4 -8,-8 -12,-12l-1 -1c-4,-4 -9,-8 -14,-12l0 0c-10,-8 -21,-17 -32,-24l0 0 0 0 0 0 -1 0 0 0 -1 -1 0 0 0 0 0 0 0 0 0 0 0 0 0 0 0 0 0 0 0 0 0 0 0 0 0 0 0 0 0 0c-28,-18 -59,-34 -93,-47l-4 -1 -9 -3 0 0 0 0 -2 -1c-3,-1 -6,-2 -9,-3l-1 0 0 0 -2 -1 -9 -3 0 0c-3,-1 -7,-2 -10,-3l-1 0 -1 0 -10 -3 -1 0 -1 0 -10 -3 -1 0 -1 0 -10 -3 -1 0 -1 0 -10 -2 0 0c-4,-1 -8,-2 -12,-3l0 0c-4,-1 -8,-2 -12,-3l0 0c-16,-3 -32,-6 -48,-9l-1 0 -1 0 -2 0 -9 -1 0 0 -1 0 0 0 -11 -2 0 0 -1 0 0 0 -10 -1 -1 0 -1 0 -2 0 -8 -1 -1 0 -1 0 -10 -1 -1 0 -1 0c-12,-1 -24,-3 -35,-4l-1 0 -10 -1 -2 0 0 0c-50,-4 -98,-6 -142,-7l-3 0 -3 0 -3 0 0 0 -2 0 -5 0 -3 0 0 0 -2 0 -3 0 -15 0 -1 0 -16 0 -2 0 -1 0 -1 0 -2 0 -5 0 -1 0 -1 0 -7 0 -2 0 -1 0 -2 0 -2 0 -12 0 0 0 -12 0 -2 0 -2 0 0 0 -2 0 -11 0 -2 0 0 0 -6 0 -1 0 -1 0 -2 0 -22 1c-11,0 -22,1 -34,1l0 0 -7 0 -1 0 -2 0 -2 0 0 0 -2 0 -2 0 -1 0 -1 0 -2 0 -2 0 0 0 -2 0 -2 0 -1 0 -1 0 -2 0 -2 0 0 0 -2 0 -2 0 -1 0 -1 0 -2 0 -2 0 0 0 -2 0 -2 0 -1 0 -1 0 -2 0 -2 0 0 0 -2 0 -2 0 -2 0 -1 0 -2 0 -2 0 0 0 -2 0 -2 0 -2 0 -1 0 -2 0 -2 0 -1 0 -2 0 -2 0 -2 0 0 0 -2 0 -2 0 -1 0 -1 0 -2 0 -2 0 0 0 -2 0 -2 0 -1 0 -1 0 -2 0 -2 0 0 0 -2 0 -2 0 -1 0 -1 0 -2 0 -2 0 0 0 -2 0 -2 0 -1 0 -1 0 -2 0 -2 0 0 0 -2 0 -2 0 -1 0 -1 0 -2 0 -2 0c-46,5 -92,10 -136,12l0 0 -2 0 -2 0 -2 0 -2 0 -1 0 -1 0 -2 0 -2 0 0 0 -2 0 -2 0 0 0 -2 0 -2 0 -1 0 -1 0 -2 0 -1 0c-89,151 -212,276 -369,382 -480,323 -1447,478 -2144,299 -242,-36 -448,-36 -625,-23 -144,11 -994,172 -1021,-35 -25,-186 226,-134 187,-191 -23,-33 -208,48 -242,-119 -17,-82 78,-142 128,-159 82,-29 186,0 205,-51 19,-51 -196,-109 -88,-256 114,-155 264,-24 351,-36 62,-8 116,-46 174,-78 -310,-206 -682,-725 -8,-952 54,-18 190,-58 331,-79l12 -11c36,-55 53,-117 56,-184l0 -1c0,-5 0,-10 0,-15l0 -6 0 -1 0 -1c0,-3 0,-7 0,-10l0 -1c0,-4 0,-7 -1,-11l0 -1 0 -1 0 -1 0 -1 0 -1 0 -1 0 -1 0 -1 0 -1 0 -1 0 0c-3,-42 -11,-86 -24,-131l0 -1 0 -1 0 -1c-1,-4 -2,-7 -3,-11l0 0 0 -1 0 -1 0 -1 -2 -8 0 -1 0 -1 0 -1 -4 -11c-4,-11 -7,-22 -12,-33l0 -1 -4 -12 0 -1 0 -1 0 -1 0 -1 0 -1 -2 -4 0 -1 0 -1 0 -1 0 -1 0 -1 0 -1c-2,-4 -3,-9 -5,-13l0 -1 0 -1 0 -1 0 -1 0 -1 0 -1 0 -1 0 -1 0 -1 0 -1c-20,-47 -43,-94 -69,-141l-4 -6 0 -1 0 -1 0 -1 -7 -12 0 -1 0 -1 0 -1 0 0 -4 -7 0 -1 0 -1 0 -1 0 -1 -5 -8 0 -1 0 -1 0 -1 0 -1 0 -1 0 -1 0 0c-11,-18 -22,-36 -33,-53l0 -1 0 -1 0 -1 0 -1 0 -1 0 -1 0 -1 0 -1 0 -1 0 -1 0 -1 0 -1 0 -1 0 -1 0 -1 0 -1 0 -1 0 -1 -6 -9 0 -1 0 -1 0 -1 0 -1 -6 -9 0 -1 0 -1 0 -1 0 -1 0 -1 -3 -5 0 -1 0 -1 0 -1c-10,-15 -21,-30 -32,-45l-1 -1 -1 -1 -1 -1 -2 -3 -1 -1 -1 -1 0 -1 -1 -1 -1 -1 -1 -1 0 -1 -6 -8 -1 -1 0 -1 -1 -1 -1 -1 -1 -1 -1 -1 -1 -1 -1 -1 -1 -1 -1 -1 -1 -1 -1 -1 -1 -1 -1 -1 -1 -1 -1 -1 -10 -12 -1 -1c-22,-28 -44,-55 -66,-80l0 -1 -1 -1 0 -1c-4,-5 -8,-10 -13,-14l-1 -1 0 -1 0 -1 0 -1 0 -1 -1 -1 0 -1 0 -1 0 -1c-4,-5 -8,-9 -12,-14 -60,-65 -119,-122 -174,-164l-1 -1 -1 -1 -1 -1 -1 -1 -1 -1 -1 -1 -1 -1 -9 -7 -1 -1 -1 -1 -1 -1 -1 -1 -1 0 -1 -1 -1 0 -1 0 -1 -1 -7 -5 -1 0 -1 0 -1 0 -1 0 -3 -2 -1 0 -1 0 -1 0 -1 0 -1 0 -5 -4 -1 0 -1 0c-8,-5 -16,-11 -23,-15 -116,-73 -189,-144 -225,-211l0 -1 0 -1 0 -1 0 -1 0 -1c-1,-2 -2,-4 -3,-6 -1,-3 -3,-5 -4,-8l0 0c-102,-223 187,-411 568,-530 -161,-133 -459,-526 -464,-838 -1,-43 3,-87 12,-132 -2,-47 11,-84 31,-117 13,-40 30,-80 49,-121 -120,4 -279,-5 -388,-4l-19 -81c57,2 165,4 267,4l0 0c70,0 138,-1 183,-5 12,-21 24,-43 37,-64 -36,-19 -74,-41 -112,-63 -97,-56 -198,-114 -289,-143l16 -50c96,31 200,91 299,148 39,22 77,45 114,64 3,-5 7,-10 10,-15l-330 -468 43 -30c95,134 255,362 318,452 150,-214 354,-417 564,-568 143,-103 264,-163 372,-186l3 69z"/>
     <path class="fil4" d="M8565 4011c-134,-36 -69,-341 145,-256 11,3 22,7 33,11l-72 -102c-105,-149 124,-323 236,-166 47,66 109,155 168,239l57 81c53,-65 110,-128 170,-188 101,-102 210,-195 322,-275 77,-55 148,-99 215,-133 65,-32 126,-55 183,-70 85,-46 241,-100 407,-145 168,-45 351,-83 485,-93 207,-16 272,56 267,160 -3,70 -60,133 -114,180 -52,45 -96,104 -132,165 -31,53 -55,106 -71,153 4,5 10,12 20,23l0 0c25,27 51,57 78,89 14,16 27,31 38,45 143,2 356,9 543,27 268,26 491,91 490,235 -1,56 -23,100 -60,134 -27,25 -59,42 -94,56 -99,37 -203,91 -282,166 -55,52 -98,115 -118,189 5,68 -3,136 -27,202 -4,10 -8,19 -12,29 64,15 128,40 192,77 240,135 456,392 641,710 344,592 575,1325 672,2016 23,164 35,315 35,444 0,13 0,27 -1,42 27,-2 53,-4 79,-6 28,-2 59,-2 92,-3l0 0 3 0 3 0 3 0 0 0 0 0 0 0 9 0 9 0 0 0 0 0 0 0 3 0 10 0 3 0 2 0 0 0 0 0 9 0 0 0 3 0 0 0 9 0 0 0 9 0 0 0 7 0 0 0 3 0 11 0 1 0 11 0 0 0 4 0 0 0 12 1 0 0 12 1 0 0 2 0 2 0 1 0 0 0 13 1 0 0 14 1 0 0c20,1 42,3 66,6l0 0c22,2 44,5 67,8l2 0 2 0 0 0 2 0 0 0 2 0 0 0 2 0 0 0 10 1 0 0 10 1 0 0 2 0 0 0 2 0 2 0 2 0 0 0 9 2 0 0 9 2 0 0 2 0 2 0 2 0 0 0 2 0 0 0 2 0 1 0 8 2 0 0 8 2 0 0 2 0 0 0 2 0 0 0 2 0 0 0 2 0 2 0 2 0 0 0 15 3 1 0 2 0 0 0 2 0 0 0 2 0c50,10 98,22 143,36 45,13 90,29 134,47l0 0 2 1 7 3 1 0 7 3 0 0 9 4 1 0 8 3 1 0 8 3 1 0 9 4 1 0 12 5 0 0 2 1 2 1 9 4 1 0 2 1 0 0 9 4 0 0 2 1 1 0 11 5 1 0 6 3 0 0 6 3 1 0 10 5 1 0 2 1 0 0 10 6 0 0c31,17 62,36 91,56 28,19 56,40 82,63l2 1 0 0 7 6 1 1 4 4 1 0 4 4 1 1 5 5 0 0 5 5 1 1 6 6 1 1 5 5 1 1 5 5 1 1 6 6 1 1 6 6 1 1 6 6 1 1 5 5 1 1 6 7 1 1 6 7 0 1 3 4 1 1 6 7 1 1 6 7 1 1 2 2 0 0 0 0 1 2c34,44 63,91 87,142 22,49 39,101 49,156 1,7 3,19 5,35 2,17 4,29 4,35l0 1 0 0 1 8 0 1c0,5 1,14 1,27l0 1 0 9 0 1c0,3 0,7 0,13l0 0 0 0 0 0c0,4 0,9 0,14l0 0 0 8 0 1c0,6 0,11 0,14l0 14 0 0 0 8 0 2 -1 12 0 1c-1,7 0,-4 -1,14l0 1 -1 9 0 0c-1,12 -1,10 -1,14 -1,4 0,-1 -2,14 -4,33 -10,65 -18,97 -8,34 -18,66 -29,96l0 0 -3 9 0 1 -4 9 0 1 -4 11 0 0c-3,7 -6,16 -10,25l-3 6 0 0c-8,19 -3,8 -6,15 -1,3 -3,8 -7,15l-1 3c-2,5 -5,10 -8,16 -3,5 -5,11 -8,16 -8,16 -15,29 -22,40 -7,12 -14,25 -23,39l0 0 -3 5 0 0 -1 2 0 0c-96,149 -189,244 -334,342l0 0 0 0 -8 5 -1 1 -8 5 -1 0 -7 4 -1 0 -7 4 0 0 -8 5 -1 0 -8 5 -1 0 -8 5 -1 0 -8 5 -1 0 -7 4 0 0 -7 4 -1 0 -9 5 -1 0 -9 5 -1 0 -2 1 0 0 -10 5 0 0c-45,23 -92,44 -141,61 -46,16 -95,30 -146,40l-2 0 0 0 -2 0c-6,1 -17,3 -31,5l-2 0 0 0 -5 1 0 0 -2 0c-9,1 -19,3 -28,4l0 0 -6 1 -1 0 -6 1 -1 0 -11 1 -1 0c-18,2 4,0 -12,1l0 0 -7 1 -1 0 -7 1c-2,0 -2,0 -13,1l-11 1 -1 0 -7 0 -1 0 -7 0 0 0c-40,1 -78,0 -115,-3 -36,-3 -74,-8 -114,-17l0 0 -8 -2 -1 0 -8 -2 -1 0 -10 -2 -1 0 -10 -2 -1 0 -8 -2 -1 0 -8 -2 0 0c-8,-2 -16,-4 -25,-7l-2 -1 -1 0 -11 -3 0 0 -14 -4 0 0 -13 -4 -2 -1 -1 0 -7 -2 0 0 -2 -1c-20,-7 -39,-14 -55,-21l0 0c-18,-7 -36,-16 -54,-25l0 0 -8 -4 -1 0 -8 -4 -1 0 -9 -5 -1 0 -9 -5 -1 0c-9,-5 -15,-8 -20,-11l-12 -7 0 0 -10 -6 -1 0 -6 -4 0 0 -6 -4 0 0 -2 -2 0 0c-3,-2 -7,-4 -14,-9 -9,-6 3,2 -13,-9l0 0 -8 -5 0 0 -16 -11c-7,-5 -12,-8 -16,-11l-1 0 0 0 0 0 -2 -1 0 0 -2 -2 -2 -2 -4 -3c-4,-3 -9,-7 -15,-11 -9,-7 -16,-12 -17,-13l0 0 -17 -14 0 0 -3 -3 0 0 0 0 -1 -1 -1 -1 0 0 -1 -1 0 0 -1 -1 -1 -1 -3 -3 -1 -1 0 0 -1 -1 0 0 0 0 -1 0 0 0 -1 -1 0 0 -1 -1 0 0 -1 -1 -1 -1 0 0 0 0 0 0 0 0 -2 -2 0 0 -1 -1 0 0 -1 -1 -1 -1 0 0 -1 -1 0 0 -1 -1 0 -1 -4 -4 0 0 -1 -1 0 -1 -1 -1 0 0 -3 -3 0 0 -1 -1 -2 -1 0 0 0 0 -5 -4 0 0 0 0 -1 -1 0 0 -2 -2 -1 -1 0 0 0 0 0 0 -1 -1 -3 -3 0 0 0 0 -1 -1 -1 -1 0 0 0 0 -27 -24 0 -2c-23,-24 -43,-49 -61,-75 -22,-32 -40,-64 -51,-96l0 0 -1 -2 0 0 -1 -2 -1 -2 -1 -2 0 -1 -1 -4 -1 -3 -1 -4 0 -2 0 -2 0 0c-8,-31 -10,-60 -7,-88 4,-32 15,-62 34,-89 21,-30 49,-53 82,-70 29,-14 61,-24 97,-28l2 0 1 0 3 0 1 0 4 0 2 0 5 0 2 0 2 0 1 0 4 0 1 0 2 0 1 0 3 0 2 0 6 0 1 0 2 0 0 0 2 0 1 0 5 0 1 0 2 0 1 0 8 0 0 0 1 0 2 0 1 0 0 0 7 0 5 0 0 0 0 0 3 0 1 0 5 0 0 0 1 0 0 0 0 0 5 0 1 0 5 0 0 0 0 0 0 0 2 0 1 0 8 1 1 0 8 1 0 0 2 0 2 0 1 0 7 1 0 0 2 0 0 0c8,1 11,1 12,1l0 0c-1,0 -2,0 0,0l1 0 0 0 1 0 9 1 0 0 1 0 2 0 1 0 0 0 0 0 5 1 3 0 0 0 2 0 2 0 1 0 0 0c12,2 20,4 24,5 13,3 22,5 26,6l0 0 5 1 0 0 5 1 0 0 5 1 1 0 0 0 5 1 1 0 5 1 1 0 0 0 10 3 1 0 10 3 1 0 5 1 0 0 5 2 5 2 1 0 0 0 0 0 5 1 0 0 5 2 1 0 1 0 0 0 9 3 0 0 5 2 1 0 5 2 0 0 5 2 5 2 4 1 0 0 3 1 0 0 1 0 4 1 5 2 0 0 5 2 0 0 0 0 5 2 0 0 5 2 1 0 0 0 5 2 0 0 5 2 2 1 0 0 3 1 0 0 5 2 3 1 0 0 2 1 5 2 0 0 4 2 0 0 1 0 5 2 1 0 0 0 8 3 1 1 0 0 5 2 0 0 2 1 0 0 4 2 5 2 0 0 3 1 0 0 3 1 0 0 5 2 1 0 6 3 1 0 9 4 1 0 5 2 0 0 5 2 1 0 1 0 0 0 4 2 0 0 5 2 2 1 0 0 3 1 0 0 5 2 0 0 3 1 1 0 2 1 5 2 5 2 1 0 1 0 0 0 1 0 0 0 9 4 0 0 0 0 5 2 0 0 5 2 0 0 1 1 1 0 1 1 8 4 0 0 3 1 2 1 0 0 5 3 4 2 0 0 11 6 0 0c2,1 4,2 7,4l0 0c6,3 7,3 8,4l3 1 0 0 0 0 5 2c4,2 -2,-1 7,3l1 0 7 3 0 0 7 2 1 0 0 0c2,1 0,0 7,2l7 2 0 0 2 0 0 0c8,2 4,1 7,2l0 0c6,2 -5,-2 6,1l3 1 0 0c5,1 4,1 4,1l0 0 8 2 1 0c14,3 27,4 40,5 12,1 24,0 36,-1l5 0 3 0 0 0 3 0 0 0 5 -1 0 0 2 0 0 0 4 -1 0 0 2 0 0 0 5 -1 0 0 2 0 0 0 4 -1 0 0 2 0 0 0 5 -1 0 0 3 -1 0 0 2 0 0 0 4 -1 0 0 3 -1 0 0 3 -1 0 0 2 -1 0 0 4 -1 0 0 3 -1 0 0 3 -1 4 -1 0 0 3 -1c-1,0 0,0 6,-3l0 0 4 -1 0 0 2 -1 0 0 7 -3 0 0 2 -1 0 0 5 -2 0 0 3 -2 0 0 1 0 0 0c7,-3 4,-2 7,-3l0 0 2 -1 0 0 1 0 0 0 1 0 0 0 1 -1 8 -4c14,-8 28,-17 41,-28l0 0c16,-12 30,-26 44,-41l0 0 3 -4 0 0 4 -4 0 0 2 -3 0 0 4 -5 0 0 3 -3 0 0 2 -2 0 0 3 -5 0 0 2 -3 0 0 3 -4 0 0 3 -4 0 0 1 -2 0 0 2 -4 0 0 1 -1 0 0 4 -6 0 0 2 -4 0 0 1 -2 0 0 3 -6 0 0 2 -3 0 0 2 -5 0 0 2 -4 0 0 1 -3 2 -3 0 0 2 -5 0 0 1 -2 0 0 2 -5 0 0 2 -4 0 0 1 -3 0 0 2 -6 0 0 1 -2 0 0 2 -4 0 0c1,-2 0,1 1,-5l0 -1 0 0 2 -7 0 0 1 -3 0 0 0 -1 0 0 2 -7 0 0 1 -3 0 0 0 -2 0 0c1,-5 2,-8 2,-10l0 0 0 -1 0 0c3,-16 4,-32 3,-47 -1,-14 -3,-28 -7,-42l0 0 0 -2 0 0 -1 -2 0 0 -1 -4 -1 -2 0 0c-3,-9 0,0 -1,-3l0 0 -1 -3 0 0 -1 -3 0 0 -1 -4 0 0 0 0 0 0 -2 -5 0 0 0 -1 0 0 -3 -5 0 0 -1 -1 0 0 -2 -3 0 0 -2 -4 0 0 -1 -1 0 0 -2 -4 0 0 -2 -4 0 0 -2 -3 0 0c-1,-1 0,1 -2,-3l-2 -2 0 0 -2 -3 0 0c-5,-7 1,1 -3,-4l0 0 -1 -2 0 0 -7 -7 -1 -1 0 0 -4 -4 -4 -4 0 0 0 0 0 0 -5 -4c-9,-8 3,2 -4,-4l0 0 0 0c-4,-3 -7,-6 -11,-9 -3,-2 -6,-4 -9,-7l-2 -1 -1 0 0 0 0 0 -1 -1 0 0 0 0 0 0 0 0 -2 -1 0 0 0 0c-9,-6 -19,-12 -31,-17 -13,-7 -26,-12 -39,-17l0 0 -3 -1 0 0 -7 -3 0 0c4,1 7,3 -9,-3l0 0 0 0 -2 -1 0 0 -8 -3 0 0 0 0 0 0 0 0 0 0 -3 -1 0 0 -5 -1 -1 0 0 0 -10 -3 0 0 0 0 0 0 -10 -3 0 0 -1 0 0 0 0 0 -10 -3 0 0 0 0 0 0 -1 0 0 0 -7 -2 0 0 0 0 -1 0 -6 -1 0 0 -2 0 -3 0 -6 -1 0 0 -5 -1 -5 -1 0 0c-5,-1 -10,-2 -16,-3 -5,-1 -12,-2 -22,-4l-1 0 0 0 0 0 -2 0 0 0 -8 -1 0 0 -1 0 -1 0 0 0 0 0 -10 -2 -6 -1 0 0 0 0 -4 -1 -1 0 0 0 -1 0 0 0 -2 0 -8 -1 0 0 -1 0 0 0 0 0 0 0 -10 -1 0 0 0 0 -1 0 0 0 -16 -2c-317,-33 -498,-41 -724,191 -67,69 -143,132 -229,190 -259,175 -648,302 -1062,360 -392,55 -811,47 -1166,-43 -117,-18 -224,-26 -321,-29 -98,-3 -191,1 -277,7 -23,2 -67,8 -123,15 -321,44 -985,136 -1023,-153 -9,-67 -1,-118 18,-156 -32,-31 -58,-77 -72,-146 -15,-74 9,-136 49,-186 44,-55 112,-93 155,-109l0 0c10,-4 20,-7 30,-9 -41,-63 -52,-143 31,-256 122,-165 253,-136 365,-102 -51,-52 -99,-110 -138,-170 -65,-101 -108,-211 -111,-323 -3,-121 39,-238 147,-339 72,-67 173,-126 311,-172 36,-12 101,-32 176,-50 38,-9 80,-18 124,-26 3,-7 5,-14 8,-21 7,-22 10,-46 11,-69l0 0 0 0 0 0 0 -7 0 0 0 -5 0 -4 0 0 0 -1 0 -4 0 0 0 -3 0 0 0 -1 0 -5 0 0 0 -5 0 0 0 -1 0 -1 0 -1 0 -1 0 0 0 0 0 -1 0 -1 0 0 0 -1 -1 -8c-1,-15 -3,-30 -6,-43 -3,-18 -8,-36 -13,-56l0 0 0 0 0 0 0 0 0 -1 -2 -5 0 0 -1 -3 0 -1 0 -1 0 0 0 -1 0 -1 0 0 -2 -6 0 0 0 -1 0 -1 0 -1 0 0 -3 -9 0 0 -5 -14c-1,-2 -1,-3 -5,-15l0 -1 0 0 -4 -10 0 0 0 -1 0 -1 0 -1 0 0 0 -1 0 -1 0 0 -1 -4 0 0 -1 -1 0 -1 0 0 -1 -2 0 -1 0 0 -2 -4 0 0 -3 -6 0 -1 0 0 0 0 0 -1 0 -1 0 0 0 0 0 -1 -1 -2 0 -1 0 0 0 0 0 0 0 0c-10,-24 -19,-45 -28,-63l0 0c-10,-21 -22,-43 -35,-66l0 0 -3 -6 0 0 0 0 0 -1 0 0 -7 -12 0 -1 0 -1 0 -1 0 0 0 0 0 0 -3 -6 0 0 0 -1 0 -1 0 -1 0 -1 0 0 -4 -7 0 0 0 0 0 -1 0 0 0 0 0 0 0 0 0 -1 0 -1 0 -1 0 0 -8 -13 -7 -11 -16 -25 0 0 0 0 0 -1 0 0 0 -1 0 -1 0 0 0 -1 0 -1 0 -1 0 0 0 -1 0 -1 0 0 0 0 0 -1 0 -1 0 -1 0 -1 0 0 0 0 0 -1 0 0 0 -1 0 -1 0 0 -6 -8 0 0 0 -1 0 -1 0 0 0 0 0 0 0 -1 0 0 -5 -8 0 0 0 -1 0 0 0 0 0 0 -1 -1 0 -1 0 0 0 0 0 0 -3 -4 0 0 0 0 -1 -1 0 0 0 0c-13,-19 -11,-16 -14,-21l0 0c-14,-19 -11,-16 -15,-21l0 0 0 -1 0 0 0 0 -1 -1 -1 -1 0 0 -2 -3 0 0 0 0 -1 -1 0 0 -1 -1 0 0 0 0 0 0 0 0 0 0 0 -1 0 0 -1 -1 0 0 -6 -8 0 0 0 0 -1 0 0 -1 0 0 0 -1 -1 -1 0 -1 0 0 -1 -1 0 -1 0 -1 0 0 -1 -1 0 -1 0 -1 0 0 -1 -1 0 -1 0 0 -1 -1 -9 -12 0 0 -1 -1 0 0c-10,-13 -20,-26 -31,-38 -9,-11 -20,-24 -32,-37l0 -1 -1 -1 0 -1 0 0 -6 -7 0 0 -5 -6 0 0 0 -1 -1 -1 0 -1 0 -1 0 0 0 0 0 0 -1 -1 -1 -1 0 -1 0 0 0 0 0 0 -6 -7 0 0 -6 -6c-30,-33 -57,-61 -82,-84 -24,-23 -51,-46 -78,-67l0 0 0 0 0 0 0 0 0 0 -1 -1 0 0 0 0 0 0 0 0 0 0 -1 -1 -1 -1 0 0 -7 -6 0 0 -1 0 -1 -1 -1 0 0 0 -1 -1 -1 0 -1 0 -1 -1 -1 0 0 0 -6 -4 0 0 0 0 0 0 0 0 -1 0 0 0 -3 -2 0 0 -1 0 0 0 -1 0 -1 0 0 0 0 0 0 0 -4 -3 0 0 -1 0 0 0 0 0 -10 -7c-10,-7 -4,-3 -9,-6l0 0c-64,-40 -116,-80 -158,-119 -48,-45 -83,-90 -108,-135l0 0 0 -1 0 -1 0 -1 0 0 0 0 0 0 0 -1 0 0 0 -1 0 -1 -1 -3 -1 -1 -1 -3 0 -1 -2 -4 -1 -2 -2 -4 -31 -66 6 -7c-25,-113 12,-217 94,-309 73,-82 184,-153 317,-214 24,-11 50,-22 75,-32 -75,-88 -156,-198 -221,-316 -84,-151 -145,-317 -148,-471 0,-25 1,-51 3,-77 2,-23 5,-45 9,-67 0,-31 4,-59 12,-86 2,-9 5,-17 8,-25 -19,0 -38,-1 -57,-1 -56,-1 -110,-3 -153,-2 -199,1 -229,-258 -81,-347 28,-17 54,-27 54,-28l-4 39zm1505 -154c143,23 253,113 305,155 7,6 10,8 11,9 22,14 3,32 -29,46l-33 53 104 66c-45,72 -100,78 -168,35 -11,-7 -21,-15 -34,-26 -37,-30 -113,-92 -194,-105l37 -233 1 0zm250 223l-20 25 24 15 33 -53c-11,5 -24,9 -37,13zm-20 25l20 -25c-15,4 -31,7 -45,9l25 16zm-487 -343c-74,27 -145,53 -197,73l-49 -132c-33,30 -66,61 -98,93 -90,91 -173,189 -244,290l-21 31 -8 12 -5 7 0 0 -5 8 -15 23 -11 18c-2,3 -8,13 -18,30l0 0c-5,8 -10,18 -16,29l-20 37 -19 41c-9,20 -17,38 -24,56 -8,19 -14,37 -20,53l-4 12 -7 12c-5,8 -8,16 -11,24 -2,8 -4,18 -3,28l1 14 -2 12c-4,20 -7,39 -8,56 -2,18 -2,35 -2,52 2,111 51,240 118,360 94,170 220,320 304,389l167 138 -207 65c-82,26 -159,54 -226,85 -104,48 -188,101 -239,157 -34,38 -48,76 -37,112 2,6 4,11 6,15l2 4 0 0 1 3 0 0 0 1 0 0 0 1 0 0 0 0 0 0 0 0 0 0 0 0 0 1 0 1c13,23 33,49 62,76 31,29 72,60 122,92l0 0c12,8 12,7 14,9l14 9 1 0 0 0 1 0 0 0 5 4 1 0 1 0 1 0 1 0 1 0 0 0 1 0 1 0 0 0 2 2 0 0 1 0 1 1 1 0 1 0 1 0 0 0 7 5 1 0 1 0 1 0 1 1 1 0 1 0 0 1 0 0 1 1 1 1 1 1 0 0 9 7 1 0 1 1 1 1 0 0 1 1 0 0 0 0 0 0 1 1 0 0 0 0 0 0 1 1 0 0c28,22 59,49 93,82 34,32 65,64 95,96l6 7 0 0 6 7 0 0 0 0 0 0 0 1 1 1 0 1 0 0 0 0 0 0 1 1 1 1 0 1 0 1 0 0 0 0 6 7 0 0 6 7 0 0 0 1 1 1 0 1c11,12 22,26 35,42 11,14 23,28 34,43l0 0 1 1 0 1 10 12 1 1 0 1 0 0 1 1 0 1 0 1 0 0 1 1 0 1 0 1 0 0 1 1 0 1 1 1 0 1 0 0 1 1 0 1 1 1 1 0 1 1 0 0 0 0 6 8 1 1 0 0 0 0 0 1 0 0 0 0 0 0 0 1 0 1 1 1 0 0 0 0 2 3 0 0 0 1 0 0 0 0 1 1 0 1 0 0c14,19 14,19 17,23l0 0c14,20 14,20 17,24l0 0 0 0 1 1 0 1 0 0 0 0 3 5 0 0 0 1 0 0 0 1 0 0 0 0 0 1 0 0 0 1 0 0 5 8 0 0 0 1 0 0 0 0 0 0 0 1 0 1 0 0 6 9 0 0 0 1 0 0 0 0 0 1 0 0 0 1 0 0 0 0 0 1 1 2 0 0 0 1 0 1 0 1 0 1 0 0 0 1 0 1 0 1 0 0 0 1 0 1 0 0 0 1 0 0c2,2 8,12 18,28 2,3 8,13 17,28l0 0 0 1 1 2 0 0 0 1 0 0 0 0 0 0 0 0 0 1 0 1 0 1 0 0 4 7 0 0 0 1 0 0 0 1 0 1 0 1 0 0 5 8 1 1 0 0 0 0 0 0 0 0 33 55 -2 2c7,14 15,28 22,43l0 0c14,28 25,53 35,76l0 0 0 0 1 2 0 1 0 0 0 0 0 1 0 1 0 1 0 1 0 1 0 0 0 1 3 6 0 1 3 6 0 1 1 2 0 1 0 0 1 1 0 1 0 0 0 0 2 4 0 0 0 1 0 0 0 1 0 1 0 1 0 1 0 1 4 12 0 0 0 1 6 18c4,12 6,17 6,19l0 1 4 11 0 1 0 1 0 1 0 1 0 0 2 8 0 0 0 0 0 0 0 0 0 0 0 1 0 1 0 0 0 0 2 5 0 1 2 5 0 1 0 0 0 1 0 1 0 1 0 0c7,25 13,50 18,77 5,27 8,52 10,76l0 0 0 1 0 0 0 1 0 0 0 1 0 0 9 124 -13 0c-3,24 -8,47 -15,69 -12,40 -30,79 -55,116l-9 14 -13 11 -12 11 -26 22 -33 5c-53,8 -106,19 -155,31 -72,17 -127,34 -156,43 -104,35 -177,76 -225,121 -53,50 -74,105 -72,160 2,64 31,134 74,202 67,104 166,197 259,258l163 108 -172 94c-14,7 -23,13 -32,18 -56,32 -111,64 -183,73 -52,7 -96,-7 -145,-22 -44,-13 -97,-30 -126,10 -6,8 14,25 28,38 61,52 110,95 75,189 -38,102 -114,107 -204,112 -25,1 -53,3 -72,9l0 0c-14,5 -36,16 -49,31 11,11 40,10 61,10l0 0c65,-2 115,-4 159,59 56,80 37,137 -32,185l0 0c-26,18 -53,25 -84,32 -21,5 -52,13 -51,25 7,53 513,-17 758,-50 63,-9 111,-15 138,-17 90,-7 190,-10 300,-7 110,3 228,12 352,31l2 0 10 2c326,84 717,91 1086,40 381,-53 734,-167 963,-322 71,-48 135,-101 191,-158 55,-57 102,-118 142,-185l33 -56 65 -2 1 0 0 0 2 0 1 0 0 0 1 0 0 0 1 0 0 0 0 0 2 0 2 0 0 0 2 0 0 0 2 0 2 0 0 0 0 0 1 0 2 0 2 0 2 0 1 0 1 0c39,-2 81,-7 124,-11l5 -1 0 0 1 0 0 0 2 0 0 0 2 0 0 0 1 0 1 0 4 0 2 0 2 0 0 0 1 0 0 0 1 0 0 0 2 0 1 0 2 0 0 0 1 0 2 0 0 0 0 0 1 0 1 0 0 0 1 0 0 -3 97 -5 2 0 7 0 0 0 0 0 6 0c2,0 9,0 19,-1 4,0 10,0 19,-1l22 -1 1 0 0 0 1 0 1 0 4 0 0 0 0 0 2 0 2 0 7 0 0 0 0 0 6 0 2 0 2 0 12 0 2 0 0 0 0 0 11 0 2 0 2 0 1 0 1 0 0 0 0 0 0 0 7 0 1 0 1 0 0 0 1 0 4 0 2 0 1 0 1 0 0 0 1 0 2 0 0 0 16 0 0 0 1 0 0 0 15 0 3 0 0 0 1 0 0 0 0 0 1 0 3 0 5 0 1 0 0 0 0 0 1 0 3 0 3 0 3 0 0 0c25,0 49,1 72,2 30,1 57,3 78,5l0 0 2 0 0 0 9 1 0 0 1 0 1 0 19 2 19 2 0 0 1 0 1 0 0 0 10 1 1 0 1 0 0 0 1 0 0 0 8 1 2 0 0 0 1 0 0 0 1 0 10 1 2 0 0 0 5 1 1 0 0 0 0 0 5 1 1 0 0 0 0 0 2 0 0 0 0 0 9 1 0 0 2 0 0 0 0 0 1 0 1 0c7,1 15,3 26,5 8,2 17,3 26,5l1 0 0 0 6 1 1 0 6 1 0 0 1 0 6 1 1 0 5 1 0 0 0 0 2 1 10 2 1 0 1 0 0 0 1 0 0 0 10 3 1 0 1 0 1 0 0 0 10 3 1 0 1 0 0 0 1 0 0 0 10 3 0 0 1 0 1 0 1 0 5 1 1 0 5 2 0 0 0 0 1 0 2 1 1 0 6 2 0 0 2 1 0 0 1 0 0 0 0 0c23,7 -6,-2 10,4l2 1 1 0 0 0 0 0 0 0 1 0 0 0 0 0 9 3 1 0 4 1 0 0c22,8 43,17 61,26 18,9 36,20 54,31l0 0 2 1 0 0 0 0 2 1 0 0 0 0 0 0 1 1 0 0 0 0 1 0 0 0 1 1c7,5 14,10 22,16 7,5 14,11 20,16l0 0 0 0 0 0c12,10 5,4 10,8 1,1 4,3 9,8l0 0 1 1 0 0c2,2 5,5 9,8 3,3 6,6 8,8l0 0 1 1c3,3 8,9 15,18l0 0 1 2 0 0c8,9 5,5 7,8l0 0c3,4 5,7 7,8l0 0 2 2 6 8 0 0c1,2 3,5 6,9l0 0 2 4 1 2 3 5 1 2 3 6 1 2 2 4 1 2 3 5 1 2 3 5 1 2 3 5 1 2 2 5 1 2 2 5 0 2 2 4 1 1 1 4 0 1 2 4 0 1 2 4 0 1c4,11 3,6 4,10l0 1 1 4 0 1 1 4 0 2 1 4 0 2 1 4 0 0c9,31 14,64 15,98 1,33 -1,66 -7,99l0 0 0 1 0 0c-2,9 -3,15 -4,20l0 0 0 2 0 0c-1,4 0,1 -3,10l0 1 -2 7 0 1 -1 2 0 1 -2 7 0 2 -2 7 0 1 -1 2 -3 9 0 1 -2 7 0 1 -1 3 0 1 -2 6 -1 2 -3 6 0 1 -2 4 0 1 -2 6 -1 2 -3 6 0 1 -2 5 -1 2 -3 5 0 1 -3 5 -1 2 -3 6 0 1 -2 5 -1 1 -3 4 -1 1 -4 7 -1 1 -2 4 0 1 -2 4 -1 1 -5 7 -1 1 -2 4 0 1 -2 4 -1 1 -3 4 0 1 -3 4 -1 1 -4 6 -1 1 -3 5 -1 1 -3 5 -1 1 -4 5 -1 1 -4 5 -1 1 -4 5 -1 1 -3 4 -1 1 -4 5 -1 1 -4 5 0 0c-22,25 -47,48 -74,70l0 0c-24,19 -50,36 -79,52l41 41 -233 22 0 0 -5 1 -1 0 -4 0 -1 0 -4 0 0 0 0 0c-25,2 -49,3 -74,2 -25,-1 -49,-4 -74,-9l-2 0 0 0 -8 -2 -1 0c-8,-2 -10,-2 -11,-2l0 0 -3 -1c-6,-1 2,0 -11,-3l0 0c-8,-2 -9,-2 -11,-3l0 0 -2 0 0 0c-2,-1 -6,-2 -12,-4 -1,0 -3,-1 -12,-4l0 0 -1 0 -12 -4 0 0c-3,-1 -7,-3 -12,-5l-1 0c-2,-1 -2,-1 -13,-5l-10 -4 0 0 0 0 -3 -1 0 0 -12 -6 0 0c-4,-2 -8,-4 -13,-6l0 0 -11 -5 0 0 -4 -2 -5 -2 0 0 -2 -1 -3 -1 0 0 -7 -4 0 0 0 0 -2 -1 0 0 -5 -2 0 0 -4 -2 0 0 -9 -4 0 0 -1 -1 0 0 0 0 0 0 -1 0 0 0 -3 -2 -5 -2 -1 0 0 0 -3 -2 0 0 -5 -2 0 0 -2 -1 0 0 -2 -1 -5 -2 0 0 -4 -2 0 0 -1 0 0 0 -4 -2 0 0 -5 -2 0 0 -8 -3 0 0 -6 -3 -1 0 -5 -2 0 0 -2 -1 0 0 -2 -1 0 0 -5 -2 -4 -2 0 0 -1 0 0 0 -4 -2 0 0 -1 -1 -8 -3 0 0 -1 0 -5 -2 0 0 0 0 -4 -2 0 0 -5 -2 -2 -1 0 0 -3 -1 -5 -2 0 0 -3 -1 0 0 -2 -1 -5 -2 0 0 -4 -1 0 0 -1 0 -5 -2 0 0 -5 -2 0 0 0 0 -4 -1 0 0 -5 -2 -4 -1 -1 0 0 0 -4 -1 0 0 -5 -2 -5 -2 0 0 -4 -1 0 0 -5 -2 0 0 -9 -3 0 0 0 0 -5 -2 0 0 -4 -1 0 0 -5 -1 -5 -1 0 0 -5 -1 0 0 -8 -2 0 0 -10 -3 0 0 0 0 -3 -1 0 0 -5 -1 0 0 -5 -1 0 0 -4 -1 0 0 -5 -1 0 0c-11,-3 -18,-4 -20,-5 -10,-2 -17,-4 -20,-4l0 0 -2 0 0 0 0 0 0 0 -2 0 -5 -1 0 0 -1 0 -1 0 0 0 -7 -1 0 0 0 0 0 0 -1 0c-11,-2 6,1 -8,-1l0 0 -2 0 0 0 -6 -1 0 0 -2 0 0 0 -8 -1 0 0 -7 -1 0 0 0 0 0 0 0 0 0 0 0 0 0 0 -4 0 0 0 -3 0 0 0 -4 0 0 0 -3 0 0 0 0 0 -4 0 0 0 0 0 -3 0 0 0 -1 0 0 0 -4 0 0 0 -2 0 0 0 -4 0 0 0 -2 0 0 0 0 0 0 0 -4 0 0 0 -2 0 0 0 -1 0 0 0 -4 0 0 0 -3 0 0 0 -2 0 0 0 -3 0 0 0 -3 0 0 0 0 0 -2 0c4,9 10,18 17,29 12,17 28,36 49,56l1 1 0 0 1 1 2 2 0 0 0 0 0 0 1 1 0 0 0 0 1 1 1 1 1 1 0 0 0 0 0 0 1 1 0 0 0 0 1 1 1 1 0 0 0 0 1 1 0 0 1 1 3 2 0 0 0 0 1 1 0 0 1 1 6 5 0 0 3 3 0 0 0 0 0 0 1 1 0 0 4 3 0 0 1 1 0 1 1 0 1 1 1 1 0 0 0 0 0 0 2 2 0 0 0 0 1 0 1 1 1 0 0 0 1 0 0 0 1 1 0 0 1 1 0 0 1 1 0 0 1 1 0 0 0 0 0 0 3 3 0 0 0 0 1 1 4 3 0 0c2,1 4,3 15,11l0 0 14 11c3,2 7,5 11,8l4 3 2 2 2 1 0 0 2 2 1 0 0 0 0 0c5,4 9,7 12,9l12 8 0 0 7 5 0 0c8,5 -6,-4 11,7l11 7 0 0 2 1 0 0 5 3 0 0 6 4 0 0 9 5 0 0c1,1 1,1 9,5 8,4 13,7 16,9l0 0 8 4 0 0 8 4 7 4 0 0 6 3 0 0c14,7 28,13 43,19l0 0c16,7 30,12 42,17l2 1 0 0 6 2 0 0 2 1c9,3 7,2 10,3l0 0c8,3 8,3 10,3l0 0 10 3 0 0 2 1c5,2 12,3 18,5l0 0 7 2 0 0 8 2 0 0 7 2 0 0 8 2 0 0 8 2 0 0 7 1 0 0c27,5 56,9 87,12 31,3 61,3 88,3l0 0 6 0 0 0 6 0 0 0 11 -1c4,0 -1,0 8,-1l6 0 0 0 7 -1 0 0c10,-1 11,-1 10,-1l8 -1 0 0 5 -1 0 0 6 -1 0 0c7,-1 14,-2 21,-3l2 0 0 0 4 -1 0 0 2 0c4,-1 12,-2 24,-5l2 0 0 0 2 0c37,-8 75,-18 113,-32 37,-13 74,-29 110,-48l0 0 9 -5 0 0 0 0 0 0 8 -4 0 0 8 -4 0 0 7 -4 0 0 5 -3 0 0 7 -4 0 0 7 -4 0 0 7 -4 0 0 8 -5 0 0 5 -3 0 0 6 -4 0 0 8 -5 0 0 6 -4c39,-26 74,-54 106,-83 33,-30 65,-63 93,-97l0 0 1 -2c8,-10 6,-7 8,-10 5,-7 6,-7 7,-8l1 -2 1 -2 1 -2 1 -2 0 0 7 -9 0 0 7 -9 0 0 3 -4 0 0 0 -1 1 -1 1 -2 0 0 6 -8 0 0 5 -8 1 -2 0 0 3 -4 0 0 1 -2 0 0 5 -8 6 -10 0 0 1 -1 0 0 3 -5 0 0c6,-9 12,-19 19,-31 7,-13 13,-23 17,-31 2,-4 4,-8 6,-12 2,-3 4,-7 6,-12l1 -3 5 -11c7,-16 1,-2 5,-11l0 0 3 -6c2,-5 5,-11 8,-19l0 0 4 -10 0 0 3 -8 0 0 3 -8 0 0c9,-25 16,-50 22,-73 6,-24 10,-48 14,-72 1,-7 0,2 1,-10 1,-11 1,-6 1,-10l0 0 1 -8 0 0c1,-8 -1,6 0,-9l0 0 1 -11 0 0 0 -7 0 0 0 -10 0 -10 0 0 0 -7 0 -10 0 0 0 -9 0 0 0 -8 0 0c0,-2 -1,-9 -1,-19l0 0 -1 -8 0 0c-1,-14 -2,-22 -2,-25 0,-4 -2,-12 -4,-25 -6,-35 -17,-69 -31,-100 -14,-32 -33,-62 -56,-91l0 0 0 0 0 -1 -1 -1 0 0 -2 -3 0 0 -5 -6 0 0 -4 -5 0 0 -2 -3 0 0 -6 -7 0 0 -5 -5 0 0 -4 -4 0 0 -3 -4 0 0 -6 -6 0 0 -5 -5 -4 -4 -5 -4 0 0 -5 -5 0 0 -5 -4 0 0 -4 -4 0 0 -4 -4 0 0 -3 -2 0 0 -7 -6 0 0 -2 -1c-19,-16 -40,-32 -62,-47 -22,-15 -46,-30 -71,-43l0 0 -10 -6 0 0 -2 -1 0 0 -9 -5 0 0 -4 -2 0 0 -6 -3 -9 -5 -2 -1 0 0 -8 -4 0 0 -1 0 0 0 -10 -5 0 0 -2 -1 0 0 -10 -5 0 0 -8 -4 0 0 -7 -3 0 0 -7 -3 0 0 -9 -4 0 0 -6 -2 0 0 -7 -3 -2 -1 0 0c-35,-14 -73,-27 -114,-39 -41,-12 -83,-23 -124,-31l-2 0 0 0 -2 0 0 0 -1 0 0 0 -15 -3 0 0 -2 0 -2 0 -2 0 0 0 -2 0 0 0 -2 0 0 0 -2 0 0 0 -8 -1 0 0 -7 -1 0 0 -2 0 0 0 -2 0 0 0 -2 0 -2 0 -2 0 0 0 -9 -2 0 0 -9 -1 0 0 -2 0 -2 0 -2 0 0 0 -2 0 0 0 -9 -1 0 0 -9 -1 0 0 -2 0 0 0 -2 0 0 0 -2 0 0 0 -2 0 -2 0c-19,-3 -39,-5 -59,-7l0 0c-17,-2 -37,-4 -59,-5l0 0 -13 -1 0 0 -13 -1 0 0 -1 0 -1 0 0 0 0 0 0 0 -12 -1 0 0 -12 -1 0 0 -4 0 0 0 -10 0 0 0 -10 0 -3 0 0 0 -7 0 0 0 -9 0 0 0 -9 0 0 0 -2 0 0 0 -9 0 -1 0 0 0 0 0 -1 0 -10 0 -2 0 0 0 0 0 0 0 0 0 -9 0 -8 0 0 0 0 0 0 0 0 0 -2 0 -3 0 -2 0c-25,0 -53,1 -82,3 -28,1 -55,4 -81,6l-1 0 0 0 -2 0 0 0 -1 0 0 0 -13 1 0 0 -2 0 -2 0 -2 0 -10 1 0 0 -1 0 0 0 -2 0 -6 1 0 0 -2 0 -11 1 0 0 -6 1 0 0 0 0 -4 0 -1 0 0 0 -1 0 -1 0 0 0 0 0 0 0 -10 1 0 0 -13 2 -1 0 -1 0 0 0 0 0 -4 1 0 0 0 0 -1 0 0 0 0 0 0 0 0 0 0 0 0 0 -1 0 -1 0 0 0 0 0 -4 1 0 0 0 0 0 0 0 0 0 0 -1 0 0 0 0 0 0 0 -1 0 0 0 -1 0 0 0 0 0 -1 0 0 0 0 0 0 0 -2 0 0 0 0 0 0 0 0 0 0 0 0 0 0 0 0 0 0 0 -1 0 -1 0 0 0 -149 23 14 -150c2,-25 4,-52 5,-81 1,-23 2,-51 2,-85 0,-121 -11,-260 -32,-412 -21,-153 -53,-320 -95,-494l-2 -8 -1 -9c0,-5 -1,-10 -1,-13l0 0c-1,-5 -1,-10 -2,-15 -6,-37 -13,-72 -22,-105 -9,-32 -20,-63 -33,-93l-3 -7 -2 -9c-117,-412 -281,-835 -480,-1177 -165,-284 -352,-510 -552,-623 -47,-27 -95,-44 -142,-55 -50,-11 -99,-13 -148,-8l-372 38 283 -244c48,-41 78,-83 93,-124 15,-40 17,-82 10,-125l-73 -453 167 214c29,-43 63,-81 100,-117 87,-82 193,-144 297,-189 -51,5 -128,14 -212,5 -205,-20 -444,-26 -578,-27l-56 -1 -35 -42c-27,-33 -50,-61 -70,-84 -22,-26 -47,-54 -73,-83l0 0c-6,-6 -4,-4 -32,-35 -13,-14 -23,-25 -31,-34l-43 -46 14 -61c18,-80 58,-181 115,-278 28,-48 60,-95 96,-138 -103,16 -224,43 -339,74 -161,43 -305,93 -365,129l-17 10 -18 4c-45,10 -93,27 -145,53 -43,21 -88,48 -137,81 37,-13 68,-23 87,-28l58 228c-20,5 -75,24 -139,48l28 4zm1133 -697c1,-18 0,-11 -1,5 1,-1 1,-3 1,-5zm2906 5360l0 0m-434 1305l0 0c-2,0 -3,0 0,0zm-596 -557l0 0c0,0 0,0 0,0l0 0zm688 172l0 0c3,-1 1,0 0,0z"/>
     <g>
      <path class="fil5" d="M10755 3728l-300 -183 -425 -254c56,-76 602,-236 892,-258 215,-17 138,71 67,133 -214,187 -326,571 -235,563l1 -1z"/>
      <path class="fil5" d="M11363 4518l-523 -672c55,0 1076,-2 1075,145 0,41 -33,63 -77,80 -200,76 -421,214 -475,447z"/>
      <path class="fil6" d="M10500 3907l-306 -172 -435 -238c53,-78 593,-259 882,-292 214,-25 141,66 72,130 -207,195 -304,583 -213,572z"/>
      <path class="fil6" d="M11130 4652l-257 -240 -366 -334c70,-63 637,-111 926,-75 214,27 121,97 39,144 -247,140 -434,494 -342,505z"/>
      <path class="fil7" d="M8810 3566c112,159 317,449 343,487l0 0c12,17 24,31 34,42 16,18 26,29 22,47 -7,26 -34,24 -104,5l-2 -1 -2 -1c-48,-24 -99,-54 -152,-84 -97,-56 -198,-114 -289,-143l16 -50c96,31 200,91 299,148 51,29 101,58 147,82 -3,-5 -7,-9 -11,-14l0 0 -343 -487 43 -30 -1 -1zm349 562c2,-7 -1,-2 -5,1 2,3 3,4 5,-1z"/>
      <path class="fil8" d="M9434 5528c-94,0 -540,-503 -547,-885 -6,-385 387,-893 805,-1193 495,-356 719,-202 1105,224 201,222 371,462 426,539 161,229 221,469 -20,665 -467,382 -930,848 -1579,768 -69,-9 -258,-10 -191,-120l1 2z"/>
      <path class="fil9" d="M9468 4207c84,8 202,28 323,61 225,61 494,237 547,418 9,30 -52,-22 -67,-8 -132,122 -312,369 -457,342 -337,-62 58,-370 -585,-228 -13,3 -31,-13 -45,-10 -139,32 -224,-91 -249,-203 -3,-14 -23,-67 -23,-82 0,-271 351,-308 556,-289l0 -1z"/>
      <path class="fil10" d="M8952 4368c-73,117 75,586 362,412 375,-227 315,562 784,93 255,-255 199,-235 284,114"/>
      <path class="fil11" d="M9292 4745c199,-121 292,-4 383,112 21,26 42,53 64,75 66,66 152,88 329,-88 33,-33 44,-44 54,-54 98,-100 144,-146 194,-126 29,11 33,40 39,89 14,102 33,163 67,224 -45,-3 -60,-85 -130,-192 -22,-34 -47,1 -111,63 -23,23 -48,48 -54,55 -227,227 -348,187 -447,88 -25,-25 -47,-54 -70,-82 -69,-87 -138,-175 -275,-92 -73,44 -139,52 -198,37 -56,-14 -103,-50 -140,-97 -35,-44 -62,-99 -80,-153 -32,-100 -18,-160 15,-213 -4,44 -28,91 16,192 62,143 191,255 344,163l0 -1z"/>
      <path class="fil12" d="M8557 4038c158,46 269,164 405,224"/>
      <path class="fil7" d="M8572 4188c102,4 369,8 469,-2l8 83c-120,11 -326,-1 -458,0l-18 -81 -1 0z"/>
      <path class="fil12" d="M9507 3750c84,-31 354,-133 416,-149"/>
      <path class="fil12" d="M10051 3974c153,25 272,159 277,149"/>
      <path class="fil13" d="M10160 3854c349,113 341,377 232,309 -10,-7 -23,-17 -41,-31 -44,-36 -122,-100 -218,-144 -204,-94 -177,-200 26,-134l1 0z"/>
      <path class="fil9" d="M9017 6239c285,179 833,881 537,1214 945,-142 1706,-1511 1096,-2028 -333,-282 -2646,179 -1633,814z"/>
      <path class="fil14" d="M9040 6255c14,9 28,20 42,31 137,-124 299,-304 456,-480 159,-178 313,-350 427,-450 -29,3 -57,6 -86,10 -112,105 -244,253 -380,405 -160,179 -325,363 -459,484zm216 195c10,11 21,23 31,35 61,-87 201,-238 353,-403 258,-279 548,-593 554,-742 -17,0 -34,1 -52,2 -8,129 -289,434 -540,705 -144,155 -277,300 -346,403zm97 115c11,14 22,28 32,42 10,-5 21,-12 32,-19 137,-88 319,-304 489,-505 181,-215 348,-412 413,-410 14,1 21,26 19,86 -6,130 -347,411 -633,646 -111,92 -215,177 -288,246 10,14 19,28 28,42 71,-65 177,-153 293,-248 294,-242 645,-531 652,-684 4,-96 -21,-138 -69,-140 -91,-4 -265,203 -455,428 -168,198 -347,411 -477,495 -13,8 -24,15 -36,20l0 1zm126 182c9,15 17,29 26,44 93,-50 212,-131 333,-211 211,-142 426,-286 473,-265 7,3 3,25 -18,72 -6,15 -151,120 -316,240 -142,103 -299,217 -403,306 6,15 12,29 17,44 99,-77 266,-198 416,-307 171,-124 321,-233 333,-261 35,-81 28,-124 -9,-141 -74,-32 -300,120 -523,270 -121,82 -242,162 -330,211l1 -2zm124 262c5,15 9,29 13,44 53,-20 120,-50 204,-91 123,-60 218,-80 268,-72 14,2 21,6 22,10 1,8 -6,22 -25,42 -56,60 -196,143 -447,233 1,19 2,37 1,55 271,-95 422,-186 484,-252 30,-32 42,-61 38,-86 -5,-28 -27,-47 -65,-53 -59,-10 -165,11 -299,76 -85,41 -148,72 -194,93l0 1zm-820 -998c7,16 17,32 28,48 154,-182 490,-570 548,-526 35,27 -144,255 -309,466 -46,59 -91,117 -131,170 13,10 26,21 41,31 39,-52 85,-110 131,-169 181,-231 376,-481 300,-540 -90,-70 -440,323 -607,519l-1 1z"/>
      <path class="fil15" d="M9861 9080l667 367c-251,-78 -66,8 -232,-24 -292,-56 -536,-58 -741,-43 -144,11 -994,172 -1021,-35 -25,-186 226,-134 187,-191 -23,-33 -208,48 -242,-119 -17,-82 78,-142 128,-159 82,-29 186,0 205,-51 19,-51 -196,-109 -88,-256 114,-155 264,-24 351,-36 118,-15 208,-140 354,-122 412,51 555,297 434,685 -10,33 -28,16 0,-17l-2 1z"/>
      <path class="fil8" d="M9395 8330l45 -165c-457,-400 -460,-230 29,-651 855,-736 749,-531 862,-1768 30,-332 651,-1135 1246,-800 750,423 1287,2214 1287,3067 0,513 -183,853 -538,1092 -847,570 -3212,618 -2930,-775l-1 0z"/>
      <path class="fil5" d="M9529 8488c23,-144 -73,-174 -55,-187 4,-3 12,48 139,38 264,-21 -42,-358 -40,-357 244,220 563,-172 178,-303 -2,-1 218,21 221,-117 5,-270 -601,-101 -732,-57 -978,329 244,1273 289,983z"/>
      <path class="fil5" d="M13026 8697c114,-2 488,-17 674,111 369,252 -49,846 -489,624 -243,-123 -548,-208 -627,-96 -46,65 22,184 156,292 757,612 1688,-149 1567,-838 -87,-494 -828,-696 -1424,-604 -175,27 -300,58 -383,97 -229,106 -138,392 64,433 131,26 308,-15 462,-18l0 -1z"/>
      <path class="fil16" d="M13045 8696c34,-1 82,-2 137,-1 10,-45 16,-97 23,-152 17,-138 38,-303 109,-374 -54,-4 -108,-6 -162,-5 -49,104 -66,242 -81,363 -9,71 -17,135 -26,170l0 -1zm267 5c44,3 89,8 133,16 1,-50 26,-139 52,-232 27,-98 56,-200 60,-282 -44,-9 -89,-17 -134,-23 0,2 0,5 0,8 -2,68 -30,166 -56,261 -25,91 -50,180 -55,252zm172 23c44,9 87,21 126,36l9 -16c65,-112 191,-331 328,-404 -45,-24 -92,-46 -142,-66 -136,112 -242,296 -303,402 -18,31 -1,40 -16,46l-3 1 1 1zm212 80c1,1 3,2 4,3 71,48 112,109 131,174 111,-69 266,-130 480,30 7,-54 8,-108 4,-162 -143,-86 -264,-95 -367,-70 94,-76 186,-158 247,-236 -28,-35 -60,-68 -95,-98 -76,109 -254,245 -392,349l-12 9 0 1zm143 304c-11,79 -49,157 -107,221 38,8 82,17 134,26 112,19 187,67 232,124 30,-36 57,-74 82,-113 -43,-45 -100,-84 -173,-112 55,6 105,15 142,26 24,7 48,13 70,17 22,-42 40,-85 55,-129 -26,-2 -55,-8 -86,-17 -83,-26 -224,-40 -350,-43l1 0zm-233 321c-48,26 -102,43 -158,48 65,47 140,110 216,186l0 0 12 12c21,21 48,48 78,77 42,-21 83,-44 122,-71 -38,-35 -77,-75 -104,-101l-12 -12 0 0c-52,-52 -103,-98 -153,-139l-1 0zm-274 43c-40,-8 -80,-21 -121,-42 -109,-55 -231,-103 -339,-128 0,17 -7,34 -18,52 -23,38 -61,80 -97,122 -28,32 -56,63 -79,95 19,19 40,38 63,56 13,11 27,21 40,31 19,-27 48,-59 78,-92 40,-45 82,-92 111,-141 8,-13 15,-27 22,-40 -2,22 -6,46 -11,69 -20,98 -69,201 -191,211 52,38 105,69 158,95 22,-13 41,-29 58,-47 3,28 7,54 12,78 50,19 100,34 150,44 -18,-50 -30,-121 -34,-220l0 0c0,0 0,0 0,0 7,-27 24,-97 35,-172 28,76 94,186 211,335 12,16 5,45 -13,73 51,-2 101,-8 150,-18 9,-49 1,-98 -31,-139 -73,-93 -123,-166 -155,-222l1 0zm-506 -180c-54,-10 -103,-13 -144,-8 -19,38 -46,79 -91,110 -7,5 -13,9 -18,13 8,36 30,77 65,120 9,-7 19,-14 30,-21 94,-65 133,-147 158,-213l0 -1zm152 -1120c-32,3 -64,7 -96,12 -73,11 -137,23 -193,36 -54,149 -85,362 -102,497 42,6 88,6 136,3 19,-153 56,-393 117,-510 -8,131 -16,352 19,498 45,-5 90,-9 133,-12 -40,-120 -22,-402 -14,-524zm155 1434l0 7 0 0c0,-1 -1,-15 -1,-7l1 0z"/>
      <path class="fil16" d="M12837 8193l0 26c-59,120 -94,353 -113,503 -48,3 -94,3 -136,-3 17,-136 48,-348 102,-497 44,-10 93,-20 147,-29zm-380 114c-170,118 -84,362 98,406l0 -15c-46,-93 -77,-253 -98,-391zm380 -22l0 250c-5,-86 -3,-175 0,-250z"/>
      <path class="fil17" d="M9478 4546c12,-110 440,-135 236,-262 -251,-157 -720,-64 -564,57 88,69 88,35 135,134 17,37 35,79 54,112 65,110 127,65 139,-41z"/>
      <path class="fil11" d="M10216 4108c-13,-3 -35,-6 -58,5 -45,22 -100,68 -144,104 50,15 108,31 151,33 26,1 45,-11 55,-19 70,103 -332,36 -402,21 64,-38 421,-266 398,-144z"/>
      <path class="fil11" d="M9250 3903c5,13 15,33 37,45 43,25 113,44 167,59 -16,-50 -36,-106 -59,-143 -14,-22 -34,-31 -47,-35 45,-116 218,253 245,320 -68,-31 -458,-196 -344,-246l1 0z"/>
      <path class="fil13" d="M9621 3741c-221,-95 -331,38 -248,52 8,1 19,2 33,2 37,1 103,4 169,23 141,42 174,-22 45,-77l1 0z"/>
      <path class="fil9" d="M10081 8017c112,-217 -352,-554 -332,-336 5,60 177,40 283,175 43,55 59,95 49,161z"/>
      <path class="fil9" d="M9873 8394c122,-211 -325,-570 -316,-352 2,60 175,48 274,189 40,57 54,98 42,163z"/>
      <path class="fil9" d="M9694 8709c160,-183 -209,-622 -242,-406 -9,60 163,81 233,238 28,63 34,106 9,168z"/>
      <path class="fil11" d="M11152 4766c-187,-53 -529,-148 -574,-160l0 0c-20,-5 -38,-13 -51,-18 -22,-9 -37,-15 -51,-5 -22,15 -11,40 30,100l1 2 2 2c39,37 84,76 130,115 85,72 174,148 231,224l41 -31c-61,-80 -152,-158 -239,-232 -45,-38 -88,-75 -126,-111 5,2 11,4 17,5l0 0 573 160 14 -50 2 -1zm-646 -141c6,-4 2,1 0,5 -4,-1 -5,-2 0,-5z"/>
      <path class="fil11" d="M10645 5206c-38,-95 -131,-345 -155,-442l-81 20c29,117 110,307 153,432l83 -10z"/>
      <path class="fil18" d="M12028 6879c-142,70 -430,265 -537,231 -215,-69 -209,-144 -41,-360 198,-254 536,-374 821,-287 275,83 416,314 457,582 20,133 -9,205 -141,-9 -97,-157 -359,-255 -558,-156l-1 -1z"/>
     </g>
    </g>
   </g>
  </g>
 </g>
</svg>
