<?xml version="1.0" encoding="UTF-8"?>
<!DOCTYPE svg PUBLIC "-//W3C//DTD SVG 1.1//EN" "http://www.w3.org/Graphics/SVG/1.1/DTD/svg11.dtd">
<!-- Creator: CorelDRAW X6 -->
<svg xmlns="http://www.w3.org/2000/svg" xml:space="preserve" width="225.213mm" height="134.959mm" version="1.1" style="shape-rendering:geometricPrecision; text-rendering:geometricPrecision; image-rendering:optimizeQuality; fill-rule:evenodd; clip-rule:evenodd"
viewBox="0 0 22521 13496"
 xmlns:xlink="http://www.w3.org/1999/xlink">
 <defs>
  <style type="text/css">
   <![CDATA[
    .str0 {stroke:black;stroke-width:20}
    .str1 {stroke:#DFCB8E;stroke-width:20}
    .fil18 {fill:none}
    .fil48 {fill:#267969}
    .fil53 {fill:#298070}
    .fil47 {fill:#2B8174}
    .fil0 {fill:#2F3B45}
    .fil39 {fill:#359280}
    .fil59 {fill:#3DAA95}
    .fil37 {fill:#3FAA96}
    .fil11 {fill:#42A996}
    .fil34 {fill:#514C46}
    .fil15 {fill:#524B41}
    .fil45 {fill:#5A5247}
    .fil56 {fill:#5B5444}
    .fil13 {fill:#5D574B}
    .fil38 {fill:#5E564B}
    .fil57 {fill:#749B86}
    .fil12 {fill:#779E89}
    .fil4 {fill:#7A362F}
    .fil50 {fill:#7B6965}
    .fil14 {fill:#7D6B67}
    .fil25 {fill:#7EAA93}
    .fil21 {fill:#8A9E8E}
    .fil49 {fill:#8F7D78}
    .fil54 {fill:#91AA95}
    .fil43 {fill:#94A996}
    .fil46 {fill:#95B19B}
    .fil20 {fill:#96B29C}
    .fil58 {fill:#9F4207}
    .fil3 {fill:#A23634}
    .fil51 {fill:#A3997C}
    .fil40 {fill:#A3C1A9}
    .fil1 {fill:#B74238}
    .fil33 {fill:#B8A46C}
    .fil9 {fill:#B90E16}
    .fil10 {fill:#B90F16}
    .fil31 {fill:#B91017}
    .fil28 {fill:#BCAD82}
    .fil41 {fill:#BCD8BF}
    .fil23 {fill:#BCDABE}
    .fil32 {fill:#BE3522}
    .fil24 {fill:#C8B789}
    .fil6 {fill:#CC9308}
    .fil36 {fill:#DA9D0A}
    .fil8 {fill:#DAA00F}
    .fil52 {fill:#DEA61F}
    .fil30 {fill:#DF372A}
    .fil2 {fill:#DF574B}
    .fil27 {fill:#DFCB8E}
    .fil35 {fill:#E0AB2B}
    .fil5 {fill:#E2382B}
    .fil17 {fill:#E8D593}
    .fil7 {fill:#EEAC0A}
    .fil26 {fill:#F1ECD6}
    .fil44 {fill:#F2F0E4}
    .fil19 {fill:#F9E59E}
    .fil22 {fill:#FEFADF}
    .fil42 {fill:black;fill-rule:nonzero}
    .fil55 {fill:#3DAA95;fill-rule:nonzero}
    .fil29 {fill:#7D6B67;fill-rule:nonzero}
    .fil16 {fill:#C8B789;fill-rule:nonzero}
   ]]>
  </style>
 </defs>
 <g id="Слой_x0020_1">
  <metadata id="CorelCorpID_0Corel-Layer"/>
  <g id="_878525536">
   <rect class="fil0" x="12" width="22500" height="13500"/>
   <polygon class="fil1" points="5668,9625 7398,9625 7398,12282 5668,12282 "/>
   <path class="fil1" d="M6531 9434c306,0 607,76 862,193l-1730 -1c254,-117 562,-191 868,-191l0 -1z"/>
   <polygon class="fil2" points="6418,9625 7398,9625 7398,12282 6418,12282 "/>
   <polygon class="fil3" points="6483,9625 7398,9625 7398,12282 6483,12282 "/>
   <path class="fil2" d="M6567 10983c31,0 55,25 55,55 0,31 -25,55 -55,55 -31,0 -55,-25 -55,-55 0,-31 25,-55 55,-55z"/>
   <path class="fil3" d="M6554 11012c6,0 10,4 10,10 0,5 -4,10 -10,10 -6,0 -10,-4 -10,-10 0,-5 4,-10 10,-10z"/>
   <path class="fil3" d="M6585 11012c6,0 10,4 10,10 0,5 -4,10 -10,10 -6,0 -10,-4 -10,-10 0,-5 4,-10 10,-10z"/>
   <path class="fil3" d="M6554 11041c6,0 10,4 10,10 0,5 -4,10 -10,10 -6,0 -10,-4 -10,-10 0,-5 4,-10 10,-10z"/>
   <path class="fil3" d="M6585 11041c6,0 10,4 10,10 0,5 -4,10 -10,10 -6,0 -10,-4 -10,-10 0,-5 4,-10 10,-10z"/>
   <path class="fil2" d="M6567 11698c31,0 55,25 55,55 0,31 -25,55 -55,55 -31,0 -55,-25 -55,-55 0,-31 25,-55 55,-55z"/>
   <path class="fil3" d="M6554 11727c6,0 10,4 10,10 0,5 -4,10 -10,10 -6,0 -10,-4 -10,-10 0,-5 4,-10 10,-10z"/>
   <path class="fil3" d="M6585 11727c6,0 10,4 10,10 0,5 -4,10 -10,10 -6,0 -10,-4 -10,-10 0,-5 4,-10 10,-10z"/>
   <path class="fil3" d="M6554 11755c6,0 10,4 10,10 0,5 -4,10 -10,10 -6,0 -10,-4 -10,-10 0,-5 4,-10 10,-10z"/>
   <path class="fil3" d="M6585 11755c6,0 10,4 10,10 0,5 -4,10 -10,10 -6,0 -10,-4 -10,-10 0,-5 4,-10 10,-10z"/>
   <path class="fil4" d="M6550 10452c188,-164 865,-756 314,-906 -82,-22 -193,-36 -315,-36 -137,0 -260,17 -343,44 -459,149 178,720 345,897l-1 1z"/>
   <path class="fil3" d="M7046 9877c106,-171 112,-333 -159,-402 -88,-22 -206,-36 -337,-36 -147,0 -278,17 -367,44 -202,61 -205,194 -128,341 -37,-118 -9,-219 148,-270 84,-27 206,-44 343,-44 122,0 233,14 315,36 218,59 244,188 184,331l1 0z"/>
   <path class="fil5" d="M6015 9609l36 83c-50,187 228,482 404,660l94 104 -589 149c-21,-418 -68,-593 54,-996l1 0z"/>
   <path class="fil5" d="M7106 9609l-36 83c50,187 -228,482 -404,660l-123 102 618 152c21,-418 68,-593 -54,-996l-1 -1z"/>
   <path class="fil6" d="M15221 3684l135 0c21,0 38,17 38,38l0 160c0,21 -17,38 -38,38l-135 0c-21,0 -38,-17 -38,-38l0 -160c0,-21 17,-38 38,-38z"/>
   <path class="fil7" d="M15934 3461c110,217 129,445 3,691 -215,-30 -395,-99 -530,-241l-2 -223c131,-144 313,-210 529,-228l0 1z"/>
   <path class="fil7" d="M14637 3461c-110,217 -129,445 -3,691 215,-30 395,-99 530,-241l2 -223c-131,-144 -313,-210 -529,-228l0 1z"/>
   <path class="fil8" d="M9972 3714l118 0c18,0 33,15 33,33l0 140c0,18 -15,33 -33,33l-118 0c-18,0 -33,-15 -33,-33l0 -140c0,-18 15,-33 33,-33z"/>
   <path class="fil9" d="M10807 3583c-7,70 -35,145 -34,223 1,171 150,373 -92,325 -190,-38 -438,-113 -535,-216l-2 -196c88,-97 306,-193 492,-223 97,-16 187,-63 171,88l0 -1z"/>
   <path class="fil10" d="M9252 3583c7,70 35,145 34,223 -1,171 -150,373 92,325 190,-38 438,-113 535,-216l2 -196c-88,-97 -306,-193 -492,-223 -97,-16 -187,-63 -171,88l0 -1z"/>
   <path class="fil11" d="M12602 3684l135 0c21,0 38,17 38,38l0 160c0,21 -17,38 -38,38l-135 0c-21,0 -38,-17 -38,-38l0 -160c0,-21 17,-38 38,-38z"/>
   <path class="fil12" d="M13315 3461c1,3 4,685 3,691 -215,-30 -395,-99 -530,-241l-2 -223c131,-144 313,-210 529,-228l0 1z"/>
   <path class="fil12" d="M12022 3461c-1,3 -4,685 -3,691 215,-30 395,-99 530,-241l2 -223c-131,-144 -313,-210 -529,-228l0 1z"/>
   <path class="fil13" d="M14765 1183c113,0 201,12 285,27 226,39 257,36 483,-2 81,-14 166,-25 274,-25 172,0 168,59 451,65 53,1 52,2 52,36l0 102c0,52 1,37 -53,45 -60,9 -50,22 -46,130 8,209 -181,378 -404,378 -158,0 -294,-114 -373,-257 -104,-187 -31,-291 -148,-292 -116,0 -44,105 -148,292 -79,143 -216,257 -373,257 -223,0 -412,-169 -404,-378 4,-109 14,-121 -46,-130 -54,-8 -53,8 -53,-45l0 -102c0,-34 -1,-35 52,-36 283,-6 279,-65 451,-65z"/>
   <path class="fil0" d="M14768 1255c144,0 354,-17 354,184 0,173 -142,417 -354,417 -177,0 -321,-134 -321,-300 0,-166 144,-300 321,-300l0 -1z"/>
   <path class="fil0" d="M15811 1258c-144,0 -354,-17 -354,184 0,173 142,417 354,417 177,0 321,-134 321,-300 0,-166 -144,-300 -321,-300l0 -1z"/>
   <path class="fil14" d="M15166 2752c-318,240 -732,66 -792,-225 233,203 293,185 553,-65 225,-216 541,63 239,290z"/>
   <path class="fil14" d="M15405 2752c318,240 732,66 792,-225 -233,203 -293,185 -553,-65 -225,-216 -541,63 -239,290z"/>
   <path class="fil15" d="M12249 2490l836 0c39,0 74,16 99,41 25,25 41,61 41,99 0,61 9,83 22,83 24,0 62,-69 89,-117 4,-8 9,-15 12,-22l222 -386 3 -6 -1 7 -54 325 -22 130 0 0c-9,54 -17,93 -25,123 -9,30 -18,50 -32,68 -26,33 -282,215 -495,366 -126,89 -236,168 -276,199l-1 1 -1 -1c-72,-58 -220,-160 -368,-262 -181,-125 -363,-250 -409,-297 -25,-26 -29,-54 -38,-121 -3,-25 -8,-56 -14,-94l-18 -111 -54 -325 -1 -7 3 6 228 398c4,6 7,13 11,20 26,46 60,107 81,107 13,0 21,-22 21,-83 0,-39 16,-74 41,-99 25,-25 61,-41 99,-41l1 -1z"/>
   <path class="fil16" d="M8198 1292l0 2593c0,32 -13,61 -34,82l0 0c-21,21 -50,34 -82,34l-2416 0c-32,0 -61,-13 -82,-34 -21,-21 -34,-50 -34,-82l0 -2593c0,-17 4,-34 11,-49 7,-14 16,-27 27,-37l1 -1 0 0c2,-2 4,-4 7,-6 51,-41 127,-60 196,-77 13,-3 26,-6 33,-8 166,-43 339,-75 518,-97 175,-21 356,-33 541,-33 215,0 424,15 626,44 207,30 405,74 592,131 27,8 52,28 70,51l0 0c18,24 29,53 29,81l-3 1zm-96 2593l0 -2593c0,-8 -4,-17 -10,-25l0 0c-6,-8 -13,-14 -20,-16 -182,-55 -375,-98 -578,-127 -196,-28 -401,-43 -612,-43 -181,0 -358,11 -529,32 -176,22 -346,54 -506,95 -14,4 -24,6 -34,8 -56,14 -120,29 -154,55l-1 1 -6 5c-2,2 -4,5 -6,7 -1,2 -2,5 -2,9l0 2593c0,6 2,11 6,15 4,4 9,6 15,6l2416 0c6,0 11,-2 15,-6l0 0c4,-4 6,-9 6,-15l0 -1z"/>
   <path class="fil17" d="M8121 1319l0 2534c0,37 -30,67 -67,67l-2361 0c-37,0 -67,-30 -67,-67l0 -2534c0,-21 9,-39 24,-51 1,-1 2,-2 3,-3 49,-39 137,-56 206,-74 315,-81 661,-126 1023,-126 422,0 822,61 1177,169 34,10 63,50 63,85l-1 0z"/>
   <polygon class="fil18 str0" points="6802,3436 6802,3384 7081,3384 7081,3436 "/>
   <path class="fil18 str0" d="M6802 2348l0 -263c99,-30 203,-24 311,35 -20,118 -60,216 -140,288l-123 -2c-19,-18 -35,-38 -49,-59l1 1z"/>
   <path class="fil19" d="M8121 1319l0 2534c0,37 -29,67 -65,67l-1218 0 0 -2675c0,-37 29,-67 65,-67l955 0c69,17 136,36 202,56 33,10 61,50 61,85z"/>
   <path class="fil20" d="M8123 1319l0 2534c0,37 -30,67 -67,67l-1037 0 894 -2727c50,13 99,27 147,41 34,10 63,50 63,85z"/>
   <path class="fil21" d="M8121 3394l0 462c0,28 -17,52 -42,62l-465 0 0 -525 507 0 0 1z"/>
   <polygon class="fil22" points="8121,3388 8121,3542 7614,3542 7614,3388 "/>
   <polygon class="fil23" points="8121,3239 8121,3386 7928,3386 7613,3386 7771,3197 7928,3007 8086,3197 "/>
   <path class="fil18 str0" d="M6907 2616c31,0 56,25 56,56 0,31 -25,56 -56,56 -31,0 -56,-25 -56,-56 0,-31 25,-56 56,-56z"/>
   <path class="fil18 str0" d="M6894 2645c6,0 10,4 10,10 0,5 -4,10 -10,10 -6,0 -10,-4 -10,-10 0,-5 4,-10 10,-10z"/>
   <path class="fil18 str0" d="M6925 2645c6,0 10,4 10,10 0,5 -4,10 -10,10 -6,0 -10,-4 -10,-10 0,-5 4,-10 10,-10z"/>
   <path class="fil18 str0" d="M6894 2674c6,0 10,4 10,10 0,5 -4,10 -10,10 -6,0 -10,-4 -10,-10 0,-5 4,-10 10,-10z"/>
   <path class="fil18 str0" d="M6925 2674c6,0 10,4 10,10 0,5 -4,10 -10,10 -6,0 -10,-4 -10,-10 0,-5 4,-10 10,-10z"/>
   <path class="fil18 str0" d="M6907 3333c31,0 56,25 56,56 0,31 -25,56 -56,56 -31,0 -56,-25 -56,-56 0,-31 25,-56 56,-56z"/>
   <path class="fil18 str0" d="M6894 3362c6,0 10,4 10,10 0,5 -4,10 -10,10 -6,0 -10,-4 -10,-10 0,-5 4,-10 10,-10z"/>
   <path class="fil18 str0" d="M6925 3362c6,0 10,4 10,10 0,5 -4,10 -10,10 -6,0 -10,-4 -10,-10 0,-5 4,-10 10,-10z"/>
   <path class="fil18 str0" d="M6894 3391c6,0 10,4 10,10 0,5 -4,10 -10,10 -6,0 -10,-4 -10,-10 0,-5 4,-10 10,-10z"/>
   <path class="fil18 str0" d="M6925 3391c6,0 10,4 10,10 0,5 -4,10 -10,10 -6,0 -10,-4 -10,-10 0,-5 4,-10 10,-10z"/>
   <path class="fil14" d="M6890 2082c189,-164 868,-759 315,-910 -82,-22 -194,-36 -317,-36 -138,0 -261,17 -345,45 -461,150 179,723 346,901l1 0z"/>
   <path class="fil24" d="M7388 1505c106,-172 113,-335 -159,-404 -88,-22 -207,-36 -339,-36 -147,0 -279,17 -369,45 -202,62 -206,194 -128,342 -38,-118 -9,-219 149,-271 84,-27 207,-45 345,-45 123,0 234,14 317,36 219,60 245,189 184,333z"/>
   <path class="fil25" d="M6711 2112c121,-58 247,-65 381,7 -20,118 -60,216 -140,288l-123 -2c-77,-74 -112,-175 -118,-294l0 1z"/>
   <path class="fil22" d="M6353 1236l36 83c-50,188 229,483 406,663l95 105 -591 150c-21,-420 -68,-596 54,-1000l0 -1z"/>
   <path class="fil22" d="M7449 1236l-36 83c50,188 -229,483 -406,663l-124 102 620 152c21,-420 68,-596 -54,-1000z"/>
   <polygon class="fil19" points="7611,9625 9341,9625 9341,12282 7611,12282 "/>
   <path class="fil19" d="M8480 9434c306,0 607,76 862,193l-1730 -1c254,-117 562,-191 868,-191l0 -1z"/>
   <polygon class="fil26" points="8360,9625 9341,9625 9341,12282 8360,12282 "/>
   <polygon class="fil27" points="8425,9625 9341,9625 9341,12282 8425,12282 "/>
   <path class="fil26" d="M8510 10983c31,0 55,25 55,55 0,31 -25,55 -55,55 -31,0 -55,-25 -55,-55 0,-31 25,-55 55,-55z"/>
   <path class="fil27 str1" d="M8497 11012c6,0 10,4 10,10 0,5 -4,10 -10,10 -6,0 -10,-4 -10,-10 0,-5 4,-10 10,-10z"/>
   <path class="fil27 str1" d="M8527 11012c6,0 10,4 10,10 0,5 -4,10 -10,10 -6,0 -10,-4 -10,-10 0,-5 4,-10 10,-10z"/>
   <path class="fil27 str1" d="M8497 11041c6,0 10,4 10,10 0,5 -4,10 -10,10 -6,0 -10,-4 -10,-10 0,-5 4,-10 10,-10z"/>
   <path class="fil27 str1" d="M8527 11041c6,0 10,4 10,10 0,5 -4,10 -10,10 -6,0 -10,-4 -10,-10 0,-5 4,-10 10,-10z"/>
   <path class="fil26" d="M8510 11698c31,0 55,25 55,55 0,31 -25,55 -55,55 -31,0 -55,-25 -55,-55 0,-31 25,-55 55,-55z"/>
   <path class="fil27" d="M8497 11727c6,0 10,4 10,10 0,5 -4,10 -10,10 -6,0 -10,-4 -10,-10 0,-5 4,-10 10,-10z"/>
   <path class="fil27" d="M8527 11727c6,0 10,4 10,10 0,5 -4,10 -10,10 -6,0 -10,-4 -10,-10 0,-5 4,-10 10,-10z"/>
   <path class="fil27" d="M8497 11755c6,0 10,4 10,10 0,5 -4,10 -10,10 -6,0 -10,-4 -10,-10 0,-5 4,-10 10,-10z"/>
   <path class="fil27" d="M8527 11755c6,0 10,4 10,10 0,5 -4,10 -10,10 -6,0 -10,-4 -10,-10 0,-5 4,-10 10,-10z"/>
   <path class="fil28" d="M8493 10452c188,-164 865,-756 314,-906 -82,-22 -193,-36 -315,-36 -137,0 -260,17 -343,44 -459,149 178,720 345,897l-1 1z"/>
   <path class="fil27" d="M8988 9877c106,-171 112,-333 -159,-402 -88,-22 -206,-36 -337,-36 -147,0 -278,17 -367,44 -202,61 -205,194 -128,341 -37,-118 -9,-219 148,-270 84,-27 206,-44 343,-44 122,0 233,14 315,36 218,59 244,188 184,331l1 0z"/>
   <path class="fil22" d="M7957 9609l36 83c-50,187 228,482 404,660l94 104 -589 149c-21,-418 -68,-593 54,-996l1 0z"/>
   <path class="fil22" d="M9049 9609l-36 83c50,187 -228,482 -404,660l-123 102 618 152c21,-418 68,-593 -54,-996l-1 -1z"/>
   <path class="fil29" d="M8198 4662l0 2593c0,32 -13,61 -34,82l0 0c-21,21 -50,34 -82,34l-2416 0c-32,0 -61,-13 -82,-34 -21,-21 -34,-50 -34,-82l0 -2593c0,-17 4,-34 11,-49 7,-14 16,-27 27,-37l1 -1 0 0c2,-2 4,-4 7,-6 51,-41 127,-60 196,-77 13,-3 26,-6 33,-8 166,-43 339,-75 518,-97 175,-21 356,-33 541,-33 215,0 424,15 626,44 207,30 405,74 592,131 27,8 52,28 70,51l0 0c18,24 29,53 29,81l-3 1zm-96 2593l0 -2593c0,-8 -4,-17 -10,-25l0 0c-6,-8 -13,-14 -20,-16 -182,-55 -375,-98 -578,-127 -196,-28 -401,-43 -612,-43 -181,0 -358,11 -529,32 -176,22 -346,54 -506,95 -14,4 -24,6 -34,8 -56,14 -120,29 -154,55l-1 1 -6 5c-2,2 -4,5 -6,7 -1,2 -2,5 -2,9l0 2593c0,6 2,11 6,15 4,4 9,6 15,6l2416 0c6,0 11,-2 15,-6l0 0c4,-4 6,-9 6,-15l0 -1z"/>
   <path class="fil30" d="M8121 4682l0 2534c0,37 -30,67 -67,67l-2361 0c-37,0 -67,-30 -67,-67l0 -2534c0,-21 9,-39 24,-51 1,-1 2,-2 3,-3 49,-39 137,-56 206,-74 315,-81 661,-126 1023,-126 422,0 822,61 1177,169 34,10 63,50 63,85l-1 0z"/>
   <path class="fil15" d="M6812 7283l-1119 0c-37,0 -67,-30 -67,-67l0 -2534c0,-21 9,-39 24,-51 1,-1 2,-2 3,-3 49,-39 137,-56 206,-74 18,-5 36,-9 54,-14l899 2743z"/>
   <path class="fil31" d="M8121 4682l0 2534c0,37 -30,67 -67,67l-1251 0 0 -2675c0,-37 30,-67 67,-67l981 0c71,17 140,36 207,56 34,10 63,50 63,85z"/>
   <path class="fil32" d="M8114 4682l0 2534c0,37 -30,67 -67,67l-1055 0 0 -2675c0,-37 30,-67 67,-67l785 0c71,17 140,36 207,56 34,10 63,50 63,85z"/>
   <path class="fil15" d="M8121 4682l0 2534c0,37 -30,67 -67,67l-1037 0 894 -2727c50,13 99,27 147,41 34,10 63,50 63,85z"/>
   <path class="fil13" d="M8121 6753l0 462c0,28 -17,52 -42,62l-465 0 0 -525 507 0 0 1z"/>
   <polygon class="fil15" points="8121,6750 8121,6904 7614,6904 7614,6750 "/>
   <polygon class="fil14" points="8121,6601 8121,6749 7928,6749 7613,6749 7771,6559 7928,6370 8086,6559 "/>
   <path class="fil33" d="M6907 5978c31,0 56,25 56,56 0,31 -25,56 -56,56 -31,0 -56,-25 -56,-56 0,-31 25,-56 56,-56z"/>
   <path class="fil30" d="M6894 6007c6,0 10,4 10,10 0,5 -4,10 -10,10 -6,0 -10,-4 -10,-10 0,-5 4,-10 10,-10z"/>
   <path class="fil30" d="M6925 6007c6,0 10,4 10,10 0,5 -4,10 -10,10 -6,0 -10,-4 -10,-10 0,-5 4,-10 10,-10z"/>
   <path class="fil30" d="M6894 6036c6,0 10,4 10,10 0,5 -4,10 -10,10 -6,0 -10,-4 -10,-10 0,-5 4,-10 10,-10z"/>
   <path class="fil30" d="M6925 6036c6,0 10,4 10,10 0,5 -4,10 -10,10 -6,0 -10,-4 -10,-10 0,-5 4,-10 10,-10z"/>
   <path class="fil33" d="M6907 6696c31,0 56,25 56,56 0,31 -25,56 -56,56 -31,0 -56,-25 -56,-56 0,-31 25,-56 56,-56z"/>
   <path class="fil30" d="M6894 6725c6,0 10,4 10,10 0,5 -4,10 -10,10 -6,0 -10,-4 -10,-10 0,-5 4,-10 10,-10z"/>
   <path class="fil30" d="M6925 6725c6,0 10,4 10,10 0,5 -4,10 -10,10 -6,0 -10,-4 -10,-10 0,-5 4,-10 10,-10z"/>
   <path class="fil30" d="M6894 6754c6,0 10,4 10,10 0,5 -4,10 -10,10 -6,0 -10,-4 -10,-10 0,-5 4,-10 10,-10z"/>
   <path class="fil30" d="M6925 6754c6,0 10,4 10,10 0,5 -4,10 -10,10 -6,0 -10,-4 -10,-10 0,-5 4,-10 10,-10z"/>
   <path class="fil14" d="M6890 5445c189,-164 868,-759 315,-910 -82,-22 -194,-36 -317,-36 -138,0 -261,17 -345,45 -461,150 179,723 346,901l1 0z"/>
   <path class="fil34" d="M7388 4867c106,-172 113,-335 -159,-404 -88,-22 -207,-36 -339,-36 -147,0 -279,17 -369,45 -202,62 -206,194 -128,342 -38,-118 -9,-219 149,-271 84,-27 207,-45 345,-45 123,0 234,14 317,36 219,60 245,189 184,333z"/>
   <path class="fil35" d="M6353 4598l36 83c-50,188 229,483 406,663l95 105 -591 150c-21,-420 -68,-596 54,-1000l0 -1z"/>
   <path class="fil36" d="M7449 4598l-36 83c50,188 -229,483 -406,663l-124 102 620 152c21,-420 68,-596 -54,-1000z"/>
   <path class="fil37" d="M6821 2403l150 0c150,448 194,973 203,1522l-568 0c11,-576 65,-1138 216,-1522l-1 0z"/>
   <path class="fil22" d="M6627 3436c1,-17 3,-35 4,-52l428 0 0 52 -432 0z"/>
   <path class="fil2" d="M11252 5824l196 0c252,753 274,1670 267,2608 0,276 28,162 -183,410l-190 223 -190 -223c-228,-267 -182,-125 -182,-433 -12,-947 35,-1951 283,-2585l-1 0z"/>
   <g id="_905119440">
    <path class="fil1" d="M11252 5824l87 0 0 126 -132 0c14,-43 29,-85 45,-126z"/>
    <path class="fil1" d="M11126 6245c10,-46 21,-90 33,-134l180 0 0 134 -213 0z"/>
    <path class="fil1" d="M11067 6557c7,-45 15,-90 23,-134l249 0 0 134 -272 0z"/>
    <path class="fil1" d="M11028 6852c5,-45 10,-90 16,-134l295 0 0 134 -311 0z"/>
    <path class="fil1" d="M11000 7147c3,-45 7,-89 11,-134l328 0 0 134 -339 0z"/>
    <path class="fil1" d="M10982 7459c2,-45 4,-89 7,-134l350 0 0 134 -357 0z"/>
    <path class="fil1" d="M10972 7732c1,-45 2,-89 4,-134l363 0 0 134 -367 0z"/>
    <path class="fil1" d="M10967 8027c0,-45 1,-89 1,-134l370 0 0 134 -372 0 1 0z"/>
    <path class="fil1" d="M10968 8338c0,-44 -1,-89 -1,-134l372 0 0 134 -371 0z"/>
    <path class="fil1" d="M10971 8634c-10,-26 -6,-58 -4,-134l372 0 0 134 -367 0 -1 0z"/>
    <path class="fil1" d="M11225 8929l-74 -87c-15,-17 -28,-33 -41,-47l229 0 0 134 -114 0z"/>
   </g>
   <path class="fil1" d="M11108 5444c158,-76 323,-85 498,10 -26,154 -78,283 -182,377l-160 -2c-101,-97 -146,-229 -155,-384l-1 -1z"/>
   <path class="fil14" d="M9632 5824l196 0c252,753 274,1670 267,2608 0,276 28,162 -183,410l-190 223 -190 -223c-228,-267 -182,-125 -182,-433 -12,-947 35,-1951 283,-2585l-1 0z"/>
   <path class="fil23" d="M9379 7174c2,-23 3,-45 5,-68l560 0 0 68 -565 0z"/>
   <path class="fil38" d="M9489 5444c158,-76 323,-85 498,10 -26,154 -78,283 -182,377l-160 -2c-101,-97 -146,-229 -155,-384l-1 -1z"/>
   <path class="fil39" d="M12401 1162c256,44 292,41 547,-2 385,-65 484,38 823,46 60,1 59,2 59,41l0 116c0,59 1,42 -60,51 -68,10 -57,25 -52,148 9,237 -88,393 -459,401 -653,15 -361,-594 -591,-594 -243,0 102,552 -580,594 -447,27 -479,-164 -470,-401 5,-123 16,-138 -52,-148 -61,-9 -60,9 -60,-51l0 -116c0,-39 -1,-40 59,-41 347,-8 439,-111 836,-43l0 -1z"/>
   <path class="fil0" d="M12084 1221c160,-15 364,33 377,200 9,118 22,415 -356,426 -336,9 -367,-105 -367,-290 0,-185 0,-303 345,-335l1 -1z"/>
   <path class="fil0" d="M13258 1221c-160,-15 -364,33 -377,200 -9,118 -22,415 356,426 336,9 367,-105 367,-290 0,-185 0,-303 -345,-335l-1 -1z"/>
   <path class="fil14" d="M14370 5824l196 0c252,753 274,1670 267,2608 0,276 28,162 -183,410l-190 223 -190 -223c-228,-267 -182,-125 -182,-433 -12,-947 35,-1951 283,-2585l-1 0z"/>
   <g id="_905113360">
    <path class="fil40" d="M14579 5866c14,42 26,85 39,128l-334 89c14,-52 30,-102 46,-151l249 -66z"/>
    <path class="fil40" d="M14659 6151c10,43 20,87 29,130l-478 127c9,-50 19,-99 30,-146l419 -112 0 1z"/>
    <path class="fil40" d="M14722 6456c8,44 15,88 21,133l-585 156c6,-49 13,-96 20,-144l544 -145z"/>
    <path class="fil40" d="M14765 6750c5,44 11,89 15,134l-655 175c4,-48 8,-95 13,-142l627 -167z"/>
    <path class="fil40" d="M14795 7048c4,45 7,90 10,136l-702 187c3,-47 5,-94 8,-141l683 -182 1 0z"/>
    <path class="fil40" d="M14816 7365c2,45 4,91 6,137l-732 195c1,-47 3,-93 5,-140l721 -192z"/>
    <path class="fil40" d="M14827 7644c1,46 2,91 3,137l-745 199c0,-46 1,-93 2,-139l740 -197z"/>
    <path class="fil40" d="M14833 7948c0,46 1,92 1,138l-749 200c0,-46 0,-92 0,-138l748 -199 0 -1z"/>
    <path class="fil40" d="M14834 8270c0,46 0,92 -1,138l-749 200c-3,-27 1,-66 2,-139l748 -199z"/>
    <path class="fil40" d="M14834 8576c-1,75 -15,81 -92,163l-457 122 -16 -19c-33,-39 -60,-69 -83,-93l648 -173z"/>
    <polygon class="fil40" points="14552,8956 14459,9065 14401,8997 "/>
   </g>
   <path class="fil14" d="M14226 5444c158,-76 323,-85 498,10 -26,154 -78,283 -182,377l-160 -2c-101,-97 -146,-229 -155,-384l-1 -1z"/>
   <g id="_905112304">
    <path class="fil41" d="M14562 5394c53,10 107,30 162,59 -3,18 -6,36 -10,54l-151 -113 -1 0z"/>
    <path class="fil41" d="M14226 5444c29,-14 58,-25 87,-34l347 259c-19,41 -43,79 -72,113l-355 -265c-3,-24 -6,-48 -7,-73z"/>
   </g>
   <path class="fil42" d="M15929 5818l196 0 5 0 1 4c126,377 195,795 231,1236 36,441 40,905 36,1374l0 0c0,35 0,62 1,85 1,69 1,100 -11,127 -10,23 -29,42 -62,77 -27,28 -63,66 -113,124l-190 223 -5 6 -5 -6 -190 -223c-54,-63 -92,-103 -119,-132l0 0c-33,-35 -51,-53 -60,-74 -10,-24 -9,-50 -7,-106 1,-31 2,-70 2,-125l0 0c-6,-474 3,-961 44,-1410 41,-449 115,-859 240,-1177l2 -4 4 0 0 1zm191 13l-187 0c-123,316 -196,723 -237,1170 -41,448 -50,936 -44,1409l0 0c0,54 -1,94 -3,125 -2,54 -3,79 6,101 8,19 25,37 57,71l0 0c28,29 66,69 120,132l186 218 186 -218c50,-59 86,-97 113,-125 33,-34 50,-53 60,-74 11,-25 11,-55 10,-122 0,-24 -1,-53 -1,-85l0 0c3,-469 0,-932 -36,-1373 -36,-439 -104,-854 -229,-1229l-1 0z"/>
   <path class="fil43" d="M14174 10122l591 0c23,0 42,19 42,42l0 287c0,23 -19,42 -42,42l-591 0c-23,0 -42,-19 -42,-42l0 -287c0,-23 19,-42 42,-42z"/>
   <path class="fil38" d="M14088 10267l762 0c23,0 42,19 42,42l0 287c0,23 -19,42 -42,42l-762 0c-23,0 -42,-19 -42,-42l0 -287c0,-23 19,-42 42,-42z"/>
   <path class="fil43" d="M14174 11707l591 0c23,0 42,-19 42,-42l0 -287c0,-23 -19,-42 -42,-42l-591 0c-23,0 -42,19 -42,42l0 287c0,23 19,42 42,42z"/>
   <path class="fil38" d="M14088 11562l762 0c23,0 42,-19 42,-42l0 -287c0,-23 -19,-42 -42,-42l-762 0c-23,0 -42,19 -42,42l0 287c0,23 19,42 42,42z"/>
   <path class="fil23" d="M14490 10311c329,0 596,267 596,596 0,329 -267,596 -596,596 -329,0 -596,-267 -596,-596 0,-329 267,-596 596,-596z"/>
   <path class="fil44" d="M14482 10404c282,0 510,229 510,510 0,282 -229,510 -510,510 -282,0 -510,-229 -510,-510 0,-282 229,-510 510,-510z"/>
   <path class="fil38" d="M14728 10650l0 0c6,5 7,15 2,22l-236 274c-5,6 -15,7 -22,2l0 0c-6,-6 -7,-15 -2,-22l236 -274c5,-6 15,-7 22,-2z"/>
   <path class="fil38" d="M14482 10846c37,0 67,30 67,67 0,37 -30,67 -67,67 -37,0 -67,-30 -67,-67 0,-37 30,-67 67,-67z"/>
   <path class="fil38" d="M14321 10749l0 0c9,-9 24,-10 33,-1l173 161 -44 0 0 22 -160 -149c-9,-9 -10,-24 -1,-33l-1 0z"/>
   <path class="fil2" d="M14482 10868c25,0 45,20 45,45 0,25 -20,45 -45,45 -25,0 -45,-20 -45,-45 0,-25 20,-45 45,-45z"/>
   <path class="fil2" d="M14481 10948l0 0c6,0 10,5 10,10l0 269c0,6 -5,10 -10,10l0 0c-6,0 -10,-5 -10,-10l0 -269c0,-6 5,-10 10,-10z"/>
   <path class="fil14" d="M14486 10423l0 0c9,0 17,8 17,17l0 96c0,9 -8,17 -17,17l0 0c-9,0 -17,-8 -17,-17l0 -96c0,-9 8,-17 17,-17z"/>
   <path class="fil14" d="M14486 11263l0 0c9,0 17,8 17,17l0 96c0,9 -8,17 -17,17l0 0c-9,0 -17,-8 -17,-17l0 -96c0,-9 8,-17 17,-17z"/>
   <path class="fil14" d="M13995 10906l0 0c0,-9 8,-17 18,-17l96 3c9,0 17,8 17,18l0 0c0,9 -8,17 -18,17l-96 -3c-9,0 -17,-8 -17,-18z"/>
   <path class="fil14" d="M14824 10906l0 0c0,-9 8,-17 18,-17l96 3c9,0 17,8 17,18l0 0c0,9 -8,17 -18,17l-96 -3c-9,0 -17,-8 -17,-18z"/>
   <path class="fil14" d="M9049 1323l0 0c54,0 99,44 99,99l0 15c0,54 -44,99 -99,99l0 0c-54,0 -99,-44 -99,-99l0 -15c0,-54 44,-99 99,-99z"/>
   <path class="fil14" d="M10996 1323l0 0c-54,0 -99,44 -99,99l0 15c0,54 44,99 99,99l0 0c54,0 99,-44 99,-99l0 -15c0,-54 -44,-99 -99,-99z"/>
   <path class="fil9" d="M9489 1138c203,0 367,163 367,364 0,14 -1,29 -2,42 -34,-166 -182,-291 -359,-291 -188,0 -343,141 -365,322 -5,-24 -8,-49 -8,-74 0,-201 164,-364 367,-364l0 1z"/>
   <polygon class="fil14" points="9861,1579 10185,1579 10185,1615 9861,1615 "/>
   <path class="fil14" d="M10023 1318c98,0 177,88 177,196 0,23 -4,45 -10,66 -24,-76 -90,-130 -167,-130 -77,0 -142,54 -167,130 -7,-21 -10,-43 -10,-66 0,-108 79,-196 177,-196z"/>
   <path class="fil9" d="M10555 1138c-203,0 -367,163 -367,364 0,14 1,29 2,42 34,-166 182,-291 359,-291 188,0 343,141 365,322 5,-24 8,-49 8,-74 0,-201 -164,-364 -367,-364l0 1z"/>
   <path class="fil45" d="M10018 2594c43,-124 -10,-255 -118,-292 -182,-62 -667,382 -384,753 -123,-662 350,-19 502,-461z"/>
   <path class="fil45" d="M10041 2594c-43,-124 10,-255 118,-292 182,-62 667,382 384,753 123,-662 -350,-19 -502,-461z"/>
   <polygon class="fil37" points="9677,9625 11407,9625 11407,12282 9677,12282 "/>
   <polygon class="fil23" points="10427,9625 11407,9625 11407,12282 10427,12282 "/>
   <polygon class="fil39" points="10492,9625 11407,9625 11407,12282 10492,12282 "/>
   <path class="fil37" d="M10546 9434c306,0 607,76 862,193l-1730 -1c254,-117 562,-191 868,-191l0 -1z"/>
   <path class="fil46" d="M10576 10983c31,0 55,25 55,55 0,31 -25,55 -55,55 -31,0 -55,-25 -55,-55 0,-31 25,-55 55,-55z"/>
   <path class="fil47" d="M10563 11012c6,0 10,4 10,10 0,5 -4,10 -10,10 -6,0 -10,-4 -10,-10 0,-5 4,-10 10,-10z"/>
   <path class="fil47" d="M10593 11012c6,0 10,4 10,10 0,5 -4,10 -10,10 -6,0 -10,-4 -10,-10 0,-5 4,-10 10,-10z"/>
   <path class="fil47" d="M10563 11041c6,0 10,4 10,10 0,5 -4,10 -10,10 -6,0 -10,-4 -10,-10 0,-5 4,-10 10,-10z"/>
   <path class="fil47" d="M10593 11041c6,0 10,4 10,10 0,5 -4,10 -10,10 -6,0 -10,-4 -10,-10 0,-5 4,-10 10,-10z"/>
   <path class="fil46" d="M10576 11698c31,0 55,25 55,55 0,31 -25,55 -55,55 -31,0 -55,-25 -55,-55 0,-31 25,-55 55,-55z"/>
   <path class="fil48" d="M10563 11727c6,0 10,4 10,10 0,5 -4,10 -10,10 -6,0 -10,-4 -10,-10 0,-5 4,-10 10,-10z"/>
   <path class="fil48" d="M10593 11727c6,0 10,4 10,10 0,5 -4,10 -10,10 -6,0 -10,-4 -10,-10 0,-5 4,-10 10,-10z"/>
   <path class="fil48" d="M10563 11755c6,0 10,4 10,10 0,5 -4,10 -10,10 -6,0 -10,-4 -10,-10 0,-5 4,-10 10,-10z"/>
   <path class="fil48" d="M10593 11755c6,0 10,4 10,10 0,5 -4,10 -10,10 -6,0 -10,-4 -10,-10 0,-5 4,-10 10,-10z"/>
   <path class="fil48" d="M10559 10452c188,-164 865,-756 314,-906 -82,-22 -193,-36 -315,-36 -137,0 -260,17 -343,44 -459,149 178,720 345,897l-1 1z"/>
   <path class="fil46" d="M11055 9877c106,-171 112,-333 -159,-402 -88,-22 -206,-36 -337,-36 -147,0 -278,17 -367,44 -202,61 -205,194 -128,341 -37,-118 -9,-219 148,-270 84,-27 206,-44 343,-44 122,0 233,14 315,36 218,59 244,188 184,331l1 0z"/>
   <path class="fil23" d="M10024 9609l36 83c-50,187 228,482 404,660l94 104 -589 149c-21,-418 -68,-593 54,-996l1 0z"/>
   <path class="fil23" d="M11115 9609l-36 83c50,187 -228,482 -404,660l-123 102 618 152c21,-418 68,-593 -54,-996l-1 -1z"/>
   <polygon class="fil49" points="11619,9625 13349,9625 13349,12282 11619,12282 "/>
   <polygon class="fil28" points="12369,9625 13349,9625 13349,12282 12369,12282 "/>
   <polygon class="fil50" points="12434,9625 13349,9625 13349,12282 12434,12282 "/>
   <path class="fil49" d="M12473 9437c306,0 617,72 872,188l-1725 1c254,-117 547,-190 853,-190l0 1z"/>
   <path class="fil51" d="M12518 10983c31,0 55,25 55,55 0,31 -25,55 -55,55 -31,0 -55,-25 -55,-55 0,-31 25,-55 55,-55z"/>
   <path class="fil49" d="M12505 11012c6,0 10,4 10,10 0,5 -4,10 -10,10 -6,0 -10,-4 -10,-10 0,-5 4,-10 10,-10z"/>
   <path class="fil49" d="M12536 11012c6,0 10,4 10,10 0,5 -4,10 -10,10 -6,0 -10,-4 -10,-10 0,-5 4,-10 10,-10z"/>
   <path class="fil49" d="M12505 11041c6,0 10,4 10,10 0,5 -4,10 -10,10 -6,0 -10,-4 -10,-10 0,-5 4,-10 10,-10z"/>
   <path class="fil49" d="M12536 11041c6,0 10,4 10,10 0,5 -4,10 -10,10 -6,0 -10,-4 -10,-10 0,-5 4,-10 10,-10z"/>
   <path class="fil51" d="M12518 11698c31,0 55,25 55,55 0,31 -25,55 -55,55 -31,0 -55,-25 -55,-55 0,-31 25,-55 55,-55z"/>
   <path class="fil49" d="M12505 11727c6,0 10,4 10,10 0,5 -4,10 -10,10 -6,0 -10,-4 -10,-10 0,-5 4,-10 10,-10z"/>
   <path class="fil49" d="M12536 11727c6,0 10,4 10,10 0,5 -4,10 -10,10 -6,0 -10,-4 -10,-10 0,-5 4,-10 10,-10z"/>
   <path class="fil49" d="M12505 11755c6,0 10,4 10,10 0,5 -4,10 -10,10 -6,0 -10,-4 -10,-10 0,-5 4,-10 10,-10z"/>
   <path class="fil49" d="M12536 11755c6,0 10,4 10,10 0,5 -4,10 -10,10 -6,0 -10,-4 -10,-10 0,-5 4,-10 10,-10z"/>
   <path class="fil38" d="M12501 10452c188,-164 865,-756 314,-906 -82,-22 -193,-36 -315,-36 -137,0 -260,17 -343,44 -459,149 178,720 345,897l-1 1z"/>
   <path class="fil51" d="M12997 9877c106,-171 112,-333 -159,-402 -88,-22 -206,-36 -337,-36 -147,0 -278,17 -367,44 -202,61 -205,194 -128,341 -37,-118 -9,-219 148,-270 84,-27 206,-44 343,-44 122,0 233,14 315,36 218,59 244,188 184,331l1 0z"/>
   <path class="fil28" d="M11966 9609l36 83c-50,187 228,482 404,660l94 104 -589 149c-21,-418 -68,-593 54,-996l1 0z"/>
   <path class="fil28" d="M13057 9609l-36 83c50,187 -228,482 -404,660l-123 102 618 152c21,-418 68,-593 -54,-996l-1 -1z"/>
   <path class="fil29" d="M9492 1254c-100,0 -191,40 -257,106 -66,65 -106,155 -106,255 0,100 41,190 106,255 66,65 156,106 257,106 100,0 191,-40 257,-106 66,-65 106,-155 106,-255 0,-100 -41,-190 -106,-255 -66,-65 -156,-106 -257,-106zm-276 86c71,-70 168,-114 276,-114 108,0 205,43 276,114 71,70 114,167 114,274 0,107 -44,204 -114,274 -71,70 -168,114 -276,114 -108,0 -205,-43 -276,-114 -71,-70 -114,-167 -114,-274 0,-107 44,-204 114,-274z"/>
   <path class="fil29" d="M10554 1254c-100,0 -191,40 -257,106 -66,65 -106,155 -106,255 0,100 41,190 106,255 66,65 156,106 257,106 100,0 191,-40 257,-106 66,-65 106,-155 106,-255 0,-100 -41,-190 -106,-255 -66,-65 -156,-106 -257,-106zm-276 86c71,-70 168,-114 276,-114 108,0 205,43 276,114 71,70 114,167 114,274 0,107 -44,204 -114,274 -71,70 -168,114 -276,114 -108,0 -205,-43 -276,-114 -71,-70 -114,-167 -114,-274 0,-107 44,-204 114,-274z"/>
   <path class="fil52" d="M9993 3714c-1,0 -2,0 -2,0 -1,0 -2,0 -2,0l5 0 -1 0z"/>
   <path class="fil52" d="M10354 3985c20,0 37,17 37,37 0,10 -4,19 -10,25 -22,-8 -43,-17 -64,-26 0,-20 17,-36 37,-36z"/>
   <path class="fil52" d="M10497 3985c20,0 37,17 37,37 0,20 -17,37 -37,37 -20,0 -37,-17 -37,-37 0,-20 17,-37 37,-37z"/>
   <path class="fil52" d="M10518 4077c16,0 29,10 34,24 -19,-5 -38,-10 -57,-16 6,-5 14,-8 23,-8z"/>
   <path class="fil52" d="M10145 3843c1,3 1,5 1,8 0,3 0,5 -1,8l0 -16z"/>
   <path class="fil52" d="M10227 3814c20,0 37,17 37,37 0,20 -17,37 -37,37 -20,0 -37,-17 -37,-37 0,-20 17,-37 37,-37z"/>
   <path class="fil52" d="M10364 3814c20,0 37,17 37,37 0,20 -17,37 -37,37 -20,0 -37,-17 -37,-37 0,-20 17,-37 37,-37z"/>
   <path class="fil52" d="M10507 3814c20,0 37,17 37,37 0,20 -17,37 -37,37 -20,0 -37,-17 -37,-37 0,-20 17,-37 37,-37z"/>
   <path class="fil52" d="M10165 3906c20,0 37,17 37,37 0,5 -1,11 -3,15 -20,-14 -38,-29 -53,-44l0 -3c6,-3 12,-5 19,-5z"/>
   <path class="fil52" d="M10283 3906c20,0 37,17 37,37 0,20 -17,37 -37,37 -20,0 -37,-17 -37,-37 0,-20 17,-37 37,-37z"/>
   <path class="fil52" d="M10419 3906c20,0 37,17 37,37 0,20 -17,37 -37,37 -20,0 -37,-17 -37,-37 0,-20 17,-37 37,-37z"/>
   <path class="fil52" d="M10563 3906c20,0 37,17 37,37 0,20 -17,37 -37,37 -20,0 -37,-17 -37,-37 0,-20 17,-37 37,-37z"/>
   <path class="fil52" d="M10242 3640c19,1 35,17 35,37 0,20 -17,37 -37,37 -20,0 -37,-17 -37,-37 0,-4 1,-8 2,-12 12,-8 24,-17 37,-25z"/>
   <path class="fil52" d="M10376 3640c20,0 37,17 37,37 0,20 -17,37 -37,37 -20,0 -37,-17 -37,-37 0,-20 17,-37 37,-37z"/>
   <path class="fil52" d="M10520 3640c20,0 37,17 37,37 0,20 -17,37 -37,37 -20,0 -37,-17 -37,-37 0,-20 17,-37 37,-37z"/>
   <path class="fil52" d="M10144 3732c20,1 35,17 35,37 0,20 -15,36 -35,37l-1 -74 1 0z"/>
   <path class="fil52" d="M10261 3732c20,0 37,17 37,37 0,20 -17,37 -37,37 -20,0 -37,-17 -37,-37 0,-20 17,-37 37,-37z"/>
   <path class="fil52" d="M10397 3732c20,0 37,17 37,37 0,20 -17,37 -37,37 -20,0 -37,-17 -37,-37 0,-20 17,-37 37,-37z"/>
   <path class="fil52" d="M10540 3732c20,0 37,17 37,37 0,20 -17,37 -37,37 -20,0 -37,-17 -37,-37 0,-20 17,-37 37,-37z"/>
   <path class="fil52" d="M10566 3509c-2,19 -18,33 -37,33 -12,0 -23,-6 -30,-16 22,-7 45,-13 67,-18l0 1z"/>
   <path class="fil52" d="M10341 3587c1,3 1,7 1,10 0,20 -17,37 -37,37 -12,0 -22,-6 -29,-14 20,-11 42,-22 65,-33z"/>
   <path class="fil52" d="M10442 3561c20,0 37,17 37,37 0,20 -17,37 -37,37 -20,0 -37,-17 -37,-37 0,-20 17,-37 37,-37z"/>
   <path class="fil52" d="M10585 3561c20,0 37,17 37,37 0,20 -17,37 -37,37 -20,0 -37,-17 -37,-37 0,-20 17,-37 37,-37z"/>
   <path class="fil52" d="M10702 3572c20,0 37,17 37,37 0,20 -17,37 -37,37 -20,0 -37,-17 -37,-37 0,-20 17,-37 37,-37z"/>
   <path class="fil52" d="M10798 3638c-9,-7 -15,-17 -15,-29 0,-16 10,-30 24,-35 0,3 0,6 -1,9 -2,18 -5,36 -9,55l1 0z"/>
   <path class="fil52" d="M10664 3490c7,7 12,16 12,27 0,20 -17,37 -37,37 -20,0 -37,-17 -37,-37 0,-6 1,-11 4,-16 10,-2 20,-4 29,-5 10,-2 19,-3 29,-5l0 -1z"/>
   <path class="fil52" d="M10758 3480c20,0 37,17 37,37 0,20 -17,37 -37,37 -20,0 -37,-17 -37,-37 0,-20 17,-37 37,-37z"/>
   <path class="fil52" d="M10628 3651c20,0 37,17 37,37 0,20 -17,37 -37,37 -20,0 -37,-17 -37,-37 0,-20 17,-37 37,-37z"/>
   <path class="fil52" d="M10746 3651c20,0 37,17 37,37 0,20 -17,37 -37,37 -20,0 -37,-17 -37,-37 0,-20 17,-37 37,-37z"/>
   <path class="fil52" d="M10688 3743c20,0 37,17 37,37 0,20 -17,37 -37,37 -20,0 -37,-17 -37,-37 0,-20 17,-37 37,-37z"/>
   <path class="fil52" d="M10773 3795c-2,-5 -3,-10 -3,-15 0,-7 2,-14 6,-20 -1,12 -2,23 -2,35l-1 0z"/>
   <path class="fil52" d="M10685 3917c20,0 37,17 37,37 0,20 -17,37 -37,37 -20,0 -37,-17 -37,-37 0,-20 17,-37 37,-37z"/>
   <path class="fil52" d="M10807 3991c-1,0 -2,0 -3,0 -20,0 -37,-17 -37,-37 0,-15 9,-28 23,-34 6,24 12,48 17,71z"/>
   <path class="fil52" d="M10623 3825c20,0 37,17 37,37 0,20 -17,37 -37,37 -20,0 -37,-17 -37,-37 0,-20 17,-37 37,-37z"/>
   <path class="fil52" d="M10741 3825c16,0 30,11 35,25 1,4 1,9 2,13 -1,20 -17,36 -37,36 -20,0 -37,-17 -37,-37 0,-20 17,-37 37,-37z"/>
   <path class="fil52" d="M10611 3996c20,0 37,17 37,37 0,20 -17,37 -37,37 -20,0 -37,-17 -37,-37 0,-20 17,-37 37,-37z"/>
   <path class="fil52" d="M10730 3996c20,0 37,17 37,37 0,20 -17,37 -37,37 -20,0 -37,-17 -37,-37 0,-20 17,-37 37,-37z"/>
   <path class="fil52" d="M10671 4088c20,0 37,17 37,37 0,3 0,7 -1,10 -8,-1 -17,-3 -26,-4 -15,-3 -31,-6 -46,-10 2,-18 18,-32 37,-32l-1 -1z"/>
   <path class="fil52" d="M10790 4088c10,0 19,4 26,10 -7,22 -25,36 -60,39 -1,-4 -2,-8 -2,-12 0,-20 17,-37 37,-37l-1 0z"/>
   <path class="fil52" d="M9589 3814c20,0 37,17 37,37 0,20 -17,37 -37,37 -20,0 -37,-17 -37,-37 0,-20 17,-37 37,-37z"/>
   <path class="fil52" d="M9707 3814c20,0 37,17 37,37 0,20 -17,37 -37,37 -20,0 -37,-17 -37,-37 0,-20 17,-37 37,-37z"/>
   <path class="fil52" d="M9844 3814c20,0 37,17 37,37 0,20 -17,37 -37,37 -20,0 -37,-17 -37,-37 0,-20 17,-37 37,-37z"/>
   <path class="fil52" d="M9631 3906c20,0 37,17 37,37 0,20 -17,37 -37,37 -20,0 -37,-17 -37,-37 0,-20 17,-37 37,-37z"/>
   <path class="fil52" d="M9749 3906c20,0 37,17 37,37 0,20 -17,37 -37,37 -20,0 -37,-17 -37,-37 0,-20 17,-37 37,-37z"/>
   <path class="fil52" d="M9885 3906c10,0 19,4 26,11 -16,16 -35,31 -57,46 -4,-6 -6,-13 -6,-20 0,-20 17,-37 37,-37z"/>
   <path class="fil52" d="M9561 3985c20,0 37,17 37,37 0,20 -17,37 -37,37 -20,0 -37,-17 -37,-37 0,-20 17,-37 37,-37z"/>
   <path class="fil52" d="M9679 3985c20,0 37,17 37,37 0,4 -1,8 -2,11 -18,7 -36,14 -54,20 -11,-6 -18,-18 -18,-32 0,-20 17,-37 37,-37l0 1z"/>
   <path class="fil52" d="M9816 3985l1 0c-10,6 -21,11 -32,17 7,-10 18,-17 31,-17z"/>
   <path class="fil52" d="M9269 3925c3,5 5,11 5,18 0,13 -7,24 -17,31 4,-16 8,-32 12,-48l0 -1z"/>
   <path class="fil52" d="M9373 3906c20,0 37,17 37,37 0,20 -17,37 -37,37 -20,0 -37,-17 -37,-37 0,-20 17,-37 37,-37z"/>
   <path class="fil52" d="M9516 3906c20,0 37,17 37,37 0,20 -17,37 -37,37 -20,0 -37,-17 -37,-37 0,-20 17,-37 37,-37z"/>
   <path class="fil52" d="M9310 3814c20,0 37,17 37,37 0,20 -17,37 -37,37 -13,0 -24,-6 -30,-16 3,-16 5,-33 6,-49 6,-6 15,-9 24,-9z"/>
   <path class="fil52" d="M9454 3814c20,0 37,17 37,37 0,20 -17,37 -37,37 -20,0 -37,-17 -37,-37 0,-20 17,-37 37,-37z"/>
   <path class="fil52" d="M9299 3985c20,0 37,17 37,37 0,20 -17,37 -37,37 -20,0 -37,-17 -37,-37 0,-20 17,-37 37,-37z"/>
   <path class="fil52" d="M9443 3985c20,0 37,17 37,37 0,20 -17,37 -37,37 -20,0 -37,-17 -37,-37 0,-20 17,-37 37,-37z"/>
   <path class="fil52" d="M9241 4082c11,6 19,18 19,32 0,3 0,5 -1,8 -11,-10 -16,-23 -18,-40z"/>
   <path class="fil52" d="M9359 4077c20,0 37,17 37,37 0,5 -1,9 -2,13 -5,1 -10,2 -15,3 -18,4 -34,6 -48,7 -5,-6 -8,-14 -8,-23 0,-20 17,-37 37,-37l-1 0z"/>
   <path class="fil52" d="M9502 4077c13,0 24,7 31,16 -23,6 -45,12 -67,17 2,-19 17,-34 37,-34l-1 1z"/>
   <path class="fil52" d="M9608 3542c-6,-1 -11,-2 -16,-5 5,2 11,4 16,5z"/>
   <path class="fil52" d="M9653 3561c2,0 3,0 5,0 6,2 12,5 17,7 9,7 15,17 15,30 0,20 -17,37 -37,37 -20,0 -37,-17 -37,-37 0,-20 17,-37 37,-37z"/>
   <path class="fil52" d="M9794 3626c-6,5 -14,8 -23,8 -20,0 -37,-17 -37,-37 0,-1 0,-2 0,-3 21,10 41,21 60,32z"/>
   <path class="fil52" d="M9583 3640c20,0 37,17 37,37 0,20 -17,37 -37,37 -20,0 -37,-17 -37,-37 0,-20 17,-37 37,-37z"/>
   <path class="fil52" d="M9702 3640c20,0 37,17 37,37 0,20 -17,37 -37,37 -20,0 -37,-17 -37,-37 0,-20 17,-37 37,-37z"/>
   <path class="fil52" d="M9875 3680c-2,19 -18,33 -37,33 -20,0 -37,-17 -37,-37 0,-15 9,-28 21,-34 19,12 37,24 52,37l1 1z"/>
   <path class="fil52" d="M9625 3732c20,0 37,17 37,37 0,20 -17,37 -37,37 -20,0 -37,-17 -37,-37 0,-20 17,-37 37,-37z"/>
   <path class="fil52" d="M9743 3732c20,0 37,17 37,37 0,20 -17,37 -37,37 -20,0 -37,-17 -37,-37 0,-20 17,-37 37,-37z"/>
   <path class="fil52" d="M9880 3732c17,0 31,11 35,27l0 21c-5,15 -19,26 -35,26 -20,0 -37,-17 -37,-37 0,-20 17,-37 37,-37z"/>
   <path class="fil52" d="M9259 3561c20,0 37,17 37,37 0,20 -16,36 -35,37 -3,-17 -6,-35 -8,-52 -1,-8 -1,-15 -2,-21 3,-1 5,-1 8,-1z"/>
   <path class="fil52" d="M9395 3561c20,0 37,17 37,37 0,20 -17,37 -37,37 -20,0 -37,-17 -37,-37 0,-20 17,-37 37,-37z"/>
   <path class="fil52" d="M9539 3561c20,0 37,17 37,37 0,20 -17,37 -37,37 -20,0 -37,-17 -37,-37 0,-20 17,-37 37,-37z"/>
   <path class="fil52" d="M9362 3483c5,6 8,14 8,23 0,20 -17,37 -37,37 -20,0 -37,-17 -37,-37 0,-12 6,-23 15,-30 15,0 32,3 51,7z"/>
   <path class="fil52" d="M9512 3514c-4,17 -18,29 -36,29 -20,0 -37,-17 -37,-37 0,-3 0,-5 1,-8 24,4 48,10 72,16z"/>
   <path class="fil52" d="M9322 3640c20,0 37,17 37,37 0,20 -17,37 -37,37 -20,0 -37,-17 -37,-37 0,-20 17,-37 37,-37z"/>
   <path class="fil52" d="M9465 3640c20,0 37,17 37,37 0,20 -17,37 -37,37 -20,0 -37,-17 -37,-37 0,-20 17,-37 37,-37z"/>
   <path class="fil52" d="M9381 3732c20,0 37,17 37,37 0,20 -17,37 -37,37 -20,0 -37,-17 -37,-37 0,-20 17,-37 37,-37z"/>
   <path class="fil52" d="M9525 3732c20,0 37,17 37,37 0,20 -17,37 -37,37 -20,0 -37,-17 -37,-37 0,-20 17,-37 37,-37z"/>
   <path class="fil53" d="M12788 3876l100 0 0 104 -24 0c-26,-21 -51,-43 -75,-68l0 -36 -1 0z"/>
   <polygon class="fil11" points="12891,3876 13002,3876 13002,3980 12891,3980 "/>
   <polygon class="fil53" points="13003,3876 13114,3876 13114,3980 13003,3980 "/>
   <path class="fil18" d="M12868 3983l20 0 0 15c-7,-5 -14,-10 -20,-15z"/>
   <path class="fil53" d="M12891 3983l111 0 0 81c-39,-18 -76,-39 -111,-64l0 -17z"/>
   <path class="fil18" d="M13003 3983l111 0 0 104 -59 0c-17,-7 -34,-14 -51,-22l0 -82 -1 0z"/>
   <polygon class="fil11" points="12787,3769 12888,3769 12888,3873 12788,3873 "/>
   <polygon class="fil53" points="12891,3769 13002,3769 13002,3873 12891,3873 "/>
   <polygon class="fil18" points="13003,3769 13114,3769 13114,3873 13003,3873 "/>
   <path class="fil11" d="M12888 3600l0 63 -75 0c24,-23 49,-44 75,-63z"/>
   <path class="fil53" d="M12955 3559l47 0 0 104 -111 0 0 -65c20,-14 41,-27 63,-39l1 0z"/>
   <polygon class="fil18" points="13003,3559 13114,3559 13114,3662 13003,3662 "/>
   <path class="fil53" d="M12809 3666l79 0 0 104 -101 0 -1 -80c7,-8 15,-16 22,-23l1 -1z"/>
   <polygon class="fil18" points="12891,3666 13002,3666 13002,3770 12891,3770 "/>
   <polygon class="fil53" points="13003,3666 13114,3666 13114,3770 13003,3770 "/>
   <path class="fil18" d="M13002 3535l0 20 -41 0c13,-7 27,-14 41,-20z"/>
   <path class="fil53" d="M13114 3496l0 60 -111 0 0 -21c35,-16 72,-29 111,-39z"/>
   <path class="fil53" d="M13060 4089l54 0 0 19c-18,-6 -36,-12 -54,-19z"/>
   <polygon class="fil53" points="13117,3559 13228,3559 13228,3662 13117,3662 "/>
   <path class="fil18" d="M13231 3559l85 0c0,30 0,66 1,104l-86 0 0 -104z"/>
   <polygon class="fil11" points="13117,3666 13228,3666 13228,3770 13117,3770 "/>
   <path class="fil53" d="M13231 3666l86 0c0,33 0,68 1,104l-87 0 0 -104z"/>
   <path class="fil11" d="M13228 3471l0 84 -111 0 0 -60c36,-10 72,-17 111,-23l0 -1z"/>
   <path class="fil53" d="M13316 3555l-85 0 0 -84c28,-4 56,-7 84,-10 0,1 1,38 1,94z"/>
   <polygon class="fil18" points="13117,3876 13228,3876 13228,3980 13117,3980 "/>
   <path class="fil53" d="M13231 3876l87 0c0,36 0,71 0,104l-87 0 0 -104z"/>
   <polygon class="fil53" points="13117,3983 13228,3983 13228,4087 13117,4087 "/>
   <path class="fil11" d="M13231 3983l87 0c0,40 0,76 0,104l-88 0 0 -104 1 0z"/>
   <polygon class="fil53" points="13117,3769 13228,3769 13228,3873 13117,3873 "/>
   <path class="fil18" d="M13231 3769l87 0c0,35 0,70 0,104l-87 0 0 -104z"/>
   <path class="fil18" d="M13117 4089l111 0 0 48c-38,-8 -75,-17 -111,-28l0 -20z"/>
   <path class="fil53" d="M13231 4089l88 0c0,38 0,63 0,64 -30,-4 -59,-9 -88,-15l0 -49z"/>
   <path class="fil53" d="M12019 3876l25 0 0 104 -26 0c0,-32 0,-68 0,-104l1 0z"/>
   <polygon class="fil18" points="12048,3876 12158,3876 12158,3980 12048,3980 "/>
   <polygon class="fil53" points="12160,3876 12270,3876 12270,3980 12160,3980 "/>
   <path class="fil11" d="M12019 3983l26 0 0 104 -26 0c0,-28 0,-64 0,-104z"/>
   <polygon class="fil53" points="12048,3983 12158,3983 12158,4087 12048,4087 "/>
   <polygon class="fil11" points="12160,3983 12270,3983 12270,4087 12160,4087 "/>
   <path class="fil11" d="M12020 3769l25 0 0 104 -25 0c0,-34 0,-69 0,-104z"/>
   <polygon class="fil53" points="12048,3769 12158,3769 12158,3873 12048,3873 "/>
   <polygon class="fil11" points="12160,3769 12270,3769 12270,3873 12160,3873 "/>
   <path class="fil18" d="M12021 3559l24 0 0 104 -24 0c0,-38 0,-74 1,-104l-1 0z"/>
   <polygon class="fil53" points="12048,3559 12158,3559 12158,3662 12048,3662 "/>
   <polygon class="fil18" points="12160,3559 12270,3559 12270,3662 12160,3662 "/>
   <path class="fil53" d="M12020 3666l24 0 0 104 -25 0c0,-36 0,-71 1,-104z"/>
   <polygon class="fil18" points="12048,3666 12158,3666 12158,3770 12048,3770 "/>
   <polygon class="fil53" points="12160,3666 12270,3666 12270,3770 12160,3770 "/>
   <path class="fil53" d="M12044 3463l0 92 -24 0c0,-56 1,-93 1,-94 8,1 15,1 23,2z"/>
   <path class="fil11" d="M12158 3480l0 75 -111 0 0 -92c38,4 75,9 111,16l0 1z"/>
   <path class="fil53" d="M12270 3510l0 45 -111 0 0 -75c38,8 75,18 111,30z"/>
   <path class="fil53" d="M12018 4089l26 0 0 60c-9,1 -17,3 -26,4 0,-1 0,-25 0,-64z"/>
   <path class="fil18" d="M12048 4089l111 0 0 37c-36,9 -73,16 -111,22l0 -59z"/>
   <path class="fil53" d="M12160 4089l111 0 0 3c-35,13 -72,24 -111,34l0 -37z"/>
   <polygon class="fil53" points="12273,3559 12382,3559 12384,3559 12384,3662 12273,3662 "/>
   <path class="fil11" d="M12498 3638l0 25 -111 0 0 -101c39,22 76,47 111,77l0 -1z"/>
   <path class="fil53" d="M12525 3662l-25 0 0 -23c9,7 17,15 25,23z"/>
   <polygon class="fil12" points="12273,3666 12384,3666 12384,3770 12273,3770 "/>
   <polygon class="fil53" points="12387,3666 12498,3666 12498,3770 12387,3770 "/>
   <path class="fil18" d="M12500 3666l28 0c8,8 15,15 22,23l-1 80 -50 0 0 -104 1 1z"/>
   <path class="fil18" d="M12376 3555l-103 0 0 -44c36,12 70,27 103,44z"/>
   <polygon class="fil18" points="12273,3876 12384,3876 12384,3980 12273,3980 "/>
   <path class="fil53" d="M12387 3876l111 0 0 84c-8,7 -16,13 -24,20l-86 0 0 -104 -1 0z"/>
   <path class="fil11" d="M12500 3876l49 0 0 36c-16,17 -32,32 -49,47l0 -83z"/>
   <path class="fil53" d="M12273 3983l111 0 0 56c-32,18 -66,34 -102,48l-9 0 0 -104z"/>
   <path class="fil18" d="M12387 3983l82 0c-26,20 -53,38 -82,54l0 -54z"/>
   <polygon class="fil53" points="12273,3769 12384,3769 12384,3873 12273,3873 "/>
   <polygon class="fil18" points="12387,3769 12498,3769 12498,3873 12387,3873 "/>
   <polygon class="fil53" points="12500,3769 12550,3769 12549,3873 12500,3873 "/>
   <polygon class="fil18" points="12273,4089 12277,4089 12273,4090 "/>
   <path class="fil47" d="M15875 5751l53 0 0 66c-20,-20 -37,-42 -53,-66z"/>
   <path class="fil54" d="M15929 5751l111 0 0 79 -100 -2c-3,-3 -7,-7 -10,-10l0 -67 -1 0z"/>
   <path class="fil47" d="M16043 5751l111 0 0 23c-16,20 -34,39 -54,57l-57 -1 0 -79z"/>
   <path class="fil47" d="M15791 6296l0 50 -10 0c3,-17 7,-34 10,-50z"/>
   <path class="fil55" d="M15813 6296l0 50 0 21 -21 0 -10 0 -26 0 5 -25 5 -25c2,-11 4,-20 5,-25l42 -194 0 198z"/>
   <path class="fil47" d="M15803 6242l102 0 0 104 -111 0 0 -66c3,-13 6,-25 8,-38l1 0z"/>
   <path class="fil55" d="M15803 6221l102 0 21 0 0 21 0 104 0 21 -21 0 -110 0 -21 0 0 -21 0 -66 0 -2 1 -2c2,-10 5,-23 8,-36l1 -2 4 -17 17 0 -2 0zm81 43l-64 0c-1,6 -3,12 -4,19l0 42 68 0 0 -61z"/>
   <polygon class="fil47" points="15907,6242 16018,6242 16018,6346 15907,6346 "/>
   <path class="fil55" d="M15907 6221l110 0 21 0 0 21 0 104 0 21 -21 0 -110 0 -21 0 0 -21 0 -104 0 -21 21 0zm89 43l-68 0 0 61 68 0 0 -61z"/>
   <path class="fil47" d="M15780 6349l11 0 0 104 -31 0c6,-35 13,-70 20,-104z"/>
   <path class="fil55" d="M15780 6328l11 0 21 0 0 21 0 104 0 21 -21 0 -31 0 -25 0 4 -25c3,-16 6,-33 10,-53 4,-21 7,-37 10,-52l3 -17 17 0 1 1z"/>
   <polygon class="fil47" points="15795,6349 15905,6349 15905,6453 15795,6453 "/>
   <path class="fil55" d="M15795 6328l110 0 21 0 0 21 0 104 0 21 -21 0 -110 0 -21 0 0 -21 0 -104 0 -21 21 0zm89 43l-68 0 0 61 68 0 0 -61z"/>
   <polygon class="fil47" points="15907,6349 16018,6349 16018,6453 15907,6453 "/>
   <path class="fil55" d="M15907 6328l110 0 21 0 0 21 0 104 0 21 -21 0 -110 0 -21 0 0 -21 0 -104 0 -21 21 0zm89 43l-68 0 0 61 68 0 0 -61z"/>
   <path class="fil47" d="M15829 6135l76 0 0 104 -101 0c8,-35 16,-70 25,-104z"/>
   <path class="fil55" d="M15829 6114l76 0 21 0 0 21 0 104 0 21 -21 0 -101 0 -27 0 6 -26c4,-17 8,-34 12,-53 4,-17 9,-35 13,-52l4 -16 16 0 1 1zm55 43l-38 0c-3,12 -6,23 -9,35 -2,8 -4,17 -6,26l53 0 0 -61z"/>
   <polygon class="fil47" points="15907,6135 16018,6135 16018,6239 15907,6239 "/>
   <path class="fil55" d="M15907 6114l110 0 21 0 0 21 0 104 0 21 -21 0 -110 0 -21 0 0 -21 0 -104 0 -21 21 0zm89 43l-68 0 0 61 68 0 0 -61z"/>
   <path class="fil47" d="M15892 5925l14 0 0 104 -47 0c11,-35 21,-70 33,-104z"/>
   <path class="fil55" d="M15892 5904l14 0 21 0 0 21 0 104 0 21 -21 0 -46 0 -28 0 8 -27c6,-19 11,-37 16,-53 5,-17 11,-34 17,-52l5 -14 15 0 -1 0z"/>
   <polygon class="fil47" points="15907,5925 16018,5925 16018,6029 15907,6029 "/>
   <path class="fil55" d="M15907 5904l110 0 21 0 0 21 0 104 0 21 -21 0 -110 0 -21 0 0 -21 0 -104 0 -21 21 0zm89 43l-68 0 0 61 68 0 0 -61z"/>
   <path class="fil47" d="M15858 6032l47 0 0 104 -76 0c9,-35 19,-70 29,-104z"/>
   <path class="fil55" d="M15858 6011l47 0 21 0 0 21 0 104 0 21 -21 0 -76 0 -27 0 7 -27c5,-19 10,-37 14,-53 5,-19 10,-36 15,-52l5 -15 16 0 -1 1zm26 43l-10 0c-4,12 -7,24 -10,36 -2,9 -5,17 -7,25l27 0 0 -61z"/>
   <polygon class="fil47" points="15907,6032 16018,6032 16018,6136 15907,6136 "/>
   <path class="fil55" d="M15907 6011l110 0 21 0 0 21 0 104 0 21 -21 0 -110 0 -21 0 0 -21 0 -104 0 -21 21 0zm89 43l-68 0 0 61 68 0 0 -61z"/>
   <path class="fil47" d="M15905 5886l0 36 -12 0c4,-12 8,-24 12,-36z"/>
   <path class="fil55" d="M15927 5886l0 36 0 21 -21 0 -12 0 -30 0 10 -28c1,-4 4,-10 6,-18l0 0 6 -18 41 -117 0 124z"/>
   <path class="fil47" d="M16018 5824l0 98 -111 0 0 -40c7,-19 14,-39 22,-58l89 0z"/>
   <path class="fil55" d="M16039 5824l0 98 0 21 -21 0 -110 0 -21 0 0 -21 0 -40 0 -3 1 -4c4,-10 7,-20 11,-29l0 0c4,-11 8,-21 11,-29l5 -13 14 0 89 0 21 0 0 21 0 -1zm-43 76l0 -55 -53 0c-2,5 -4,10 -6,15l0 0c-3,9 -6,17 -9,25l0 15 68 0z"/>
   <path class="fil47" d="M15743 6562l49 0 0 104 -64 0c5,-35 10,-70 15,-104z"/>
   <path class="fil55" d="M15743 6541l49 0 21 0 0 21 0 104 0 21 -21 0 -64 0 -24 0 3 -24c3,-20 5,-37 7,-52 2,-13 5,-31 8,-52l3 -18 18 0zm28 43l-9 0c-1,10 -3,21 -5,33 -1,10 -3,19 -4,28l19 0 0 -61 -1 0z"/>
   <polygon class="fil47" points="15795,6562 15905,6562 15905,6666 15795,6666 "/>
   <path class="fil55" d="M15795 6541l110 0 21 0 0 21 0 104 0 21 -21 0 -110 0 -21 0 0 -21 0 -104 0 -21 21 0zm89 43l-68 0 0 61 68 0 0 -61z"/>
   <polygon class="fil47" points="15907,6562 16018,6562 16018,6666 15907,6666 "/>
   <path class="fil55" d="M15907 6541l110 0 21 0 0 21 0 104 0 21 -21 0 -110 0 -21 0 0 -21 0 -104 0 -21 21 0zm89 43l-68 0 0 61 68 0 0 -61z"/>
   <path class="fil47" d="M15727 6670l65 0 0 104 -78 0c4,-35 9,-70 13,-104z"/>
   <path class="fil55" d="M15727 6648l65 0 21 0 0 21 0 104 0 21 -21 0 -78 0 -24 0 3 -24c2,-12 4,-30 7,-52 2,-18 5,-36 7,-52l3 -18 18 0 -1 0zm43 43l-25 0c-2,11 -3,22 -4,33 -1,7 -2,17 -4,28l33 0 0 -61z"/>
   <polygon class="fil47" points="15795,6670 15905,6670 15905,6773 15795,6773 "/>
   <path class="fil55" d="M15795 6648l110 0 21 0 0 21 0 104 0 21 -21 0 -110 0 -21 0 0 -21 0 -104 0 -21 21 0zm89 43l-68 0 0 61 68 0 0 -61z"/>
   <polygon class="fil47" points="15907,6670 16018,6670 16018,6773 15907,6773 "/>
   <path class="fil55" d="M15907 6648l110 0 21 0 0 21 0 104 0 21 -21 0 -110 0 -21 0 0 -21 0 -104 0 -21 21 0zm89 43l-68 0 0 61 68 0 0 -61z"/>
   <path class="fil47" d="M15760 6455l31 0 0 104 -48 0c6,-35 11,-70 17,-104z"/>
   <path class="fil55" d="M15760 6434l31 0 21 0 0 21 0 104 0 21 -21 0 -49 0 -25 0 4 -25c3,-20 6,-38 9,-52 3,-19 6,-37 9,-52l3 -18 18 0 0 1zm10 104l0 -14 -2 14 2 0z"/>
   <polygon class="fil47" points="15795,6455 15905,6455 15905,6559 15795,6559 "/>
   <path class="fil55" d="M15795 6434l110 0 21 0 0 21 0 104 0 21 -21 0 -110 0 -21 0 0 -21 0 -104 0 -21 21 0zm89 43l-68 0 0 61 68 0 0 -61z"/>
   <polygon class="fil47" points="15907,6455 16018,6455 16018,6559 15907,6559 "/>
   <path class="fil55" d="M15907 6434l110 0 21 0 0 21 0 104 0 21 -21 0 -110 0 -21 0 0 -21 0 -104 0 -21 21 0zm89 43l-68 0 0 61 68 0 0 -61z"/>
   <polygon class="fil47" points="16021,5925 16131,5925 16131,6029 16021,6029 "/>
   <path class="fil55" d="M16021 5904l110 0 21 0 0 21 0 104 0 21 -21 0 -110 0 -21 0 0 -21 0 -104 0 -21 21 0zm89 43l-68 0 0 61 68 0 0 -61z"/>
   <path class="fil47" d="M16134 5925l22 0c10,34 20,69 30,104l-52 0 0 -104z"/>
   <path class="fil55" d="M16134 5904l22 0 16 0 5 15c5,18 10,35 15,52 4,14 9,32 15,52l7 27 -28 0 -52 0 -21 0 0 -21 0 -104 0 -21 21 0zm24 104l-3 -10 0 10 3 0z"/>
   <polygon class="fil47" points="16021,6032 16131,6032 16131,6136 16021,6136 "/>
   <path class="fil55" d="M16021 6011l110 0 21 0 0 21 0 104 0 21 -21 0 -110 0 -21 0 0 -21 0 -104 0 -21 21 0zm89 43l-68 0 0 61 68 0 0 -61z"/>
   <path class="fil47" d="M16134 6032l53 0c9,34 18,69 27,104l-80 0 0 -104z"/>
   <path class="fil55" d="M16134 6011l53 0 16 0 4 16c3,13 8,30 14,52 5,19 9,36 13,52l6 26 -27 0 -80 0 -21 0 0 -21 0 -104 0 -21 21 0 1 0zm37 43l-15 0 0 61 31 0c-2,-9 -4,-17 -7,-26 -2,-10 -6,-21 -9,-36l0 1z"/>
   <path class="fil47" d="M16131 5844l0 77 -111 0 0 -98 104 0c2,7 4,13 7,20l0 1z"/>
   <path class="fil55" d="M16152 5844l0 77 0 21 -21 0 -110 0 -21 0 0 -21 0 -98 0 -21 21 0 104 0 15 0 5 15 7 20 1 3 0 3 -1 1zm-43 56l0 -53 -1 -2 -67 0 0 55 68 0z"/>
   <path class="fil47" d="M16156 5921l-21 0 0 -67c7,22 14,45 21,67z"/>
   <path class="fil55" d="M16156 5943l-21 0 -21 0 0 -21 0 -67 0 -134 41 128c4,13 8,24 11,34 4,12 7,23 10,34l8 27 -29 0 1 -1z"/>
   <polygon class="fil47" points="16021,6242 16131,6242 16131,6346 16021,6346 "/>
   <path class="fil55" d="M16021 6221l110 0 21 0 0 21 0 104 0 21 -21 0 -110 0 -21 0 0 -21 0 -104 0 -21 21 0zm89 43l-68 0 0 61 68 0 0 -61z"/>
   <path class="fil47" d="M16134 6242l104 0c2,10 4,19 6,29l0 75 -111 0 0 -104 1 0z"/>
   <path class="fil55" d="M16134 6221l104 0 17 0 4 17 6 29 1 2 0 2 0 75 0 21 -21 0 -110 0 -21 0 0 -21 0 -104 0 -21 21 0 -1 0zm87 43l-66 0 0 61 68 0 0 -51 -2 -10z"/>
   <path class="fil47" d="M16260 6346l-14 0 0 -67c5,22 9,45 14,67z"/>
   <path class="fil55" d="M16260 6367l-14 0 -21 0 0 -21 0 -67 0 -202 42 197c2,8 4,19 7,34 4,18 6,28 7,34l5 25 -26 0z"/>
   <polygon class="fil47" points="16021,6349 16131,6349 16131,6453 16021,6453 "/>
   <path class="fil55" d="M16021 6328l110 0 21 0 0 21 0 104 0 21 -21 0 -110 0 -21 0 0 -21 0 -104 0 -21 21 0zm89 43l-68 0 0 61 68 0 0 -61z"/>
   <polygon class="fil47" points="16134,6349 16245,6349 16245,6453 16134,6453 "/>
   <path class="fil55" d="M16134 6328l110 0 21 0 0 21 0 104 0 21 -21 0 -110 0 -21 0 0 -21 0 -104 0 -21 21 0zm89 43l-68 0 0 61 68 0 0 -61z"/>
   <path class="fil47" d="M16247 6349l14 0c7,34 13,69 19,104l-33 0 0 -104z"/>
   <path class="fil55" d="M16247 6328l14 0 17 0 3 17c3,14 6,32 10,52 4,22 7,39 9,52l4 25 -25 0 -33 0 -21 0 0 -21 0 -104 0 -21 21 0 1 0z"/>
   <polygon class="fil47" points="16021,6135 16131,6135 16131,6239 16021,6239 "/>
   <path class="fil55" d="M16021 6114l110 0 21 0 0 21 0 104 0 21 -21 0 -110 0 -21 0 0 -21 0 -104 0 -21 21 0zm89 43l-68 0 0 61 68 0 0 -61z"/>
   <path class="fil47" d="M16134 6135l79 0c8,34 16,69 24,104l-104 0 0 -104 1 0z"/>
   <path class="fil55" d="M16134 6114l79 0 17 0 4 16c4,17 8,34 12,52 4,19 8,36 12,53l6 26 -26 0 -103 0 -21 0 0 -21 0 -104 0 -21 21 0 -1 -1zm63 43l-41 0 0 61 56 0c-2,-9 -4,-18 -6,-27 -3,-12 -5,-23 -8,-35l-1 1z"/>
   <polygon class="fil47" points="16021,6562 16131,6562 16131,6666 16021,6666 "/>
   <path class="fil55" d="M16021 6541l110 0 21 0 0 21 0 104 0 21 -21 0 -110 0 -21 0 0 -21 0 -104 0 -21 21 0zm89 43l-68 0 0 61 68 0 0 -61z"/>
   <polygon class="fil47" points="16134,6562 16245,6562 16245,6666 16134,6666 "/>
   <path class="fil55" d="M16134 6541l110 0 21 0 0 21 0 104 0 21 -21 0 -110 0 -21 0 0 -21 0 -104 0 -21 21 0zm89 43l-68 0 0 61 68 0 0 -61z"/>
   <path class="fil47" d="M16247 6562l51 0c5,34 10,69 15,104l-66 0 0 -104z"/>
   <path class="fil55" d="M16247 6541l51 0 18 0 3 18c2,15 5,32 8,52 2,16 5,33 7,52l3 24 -24 0 -66 0 -21 0 0 -21 0 -104 0 -21 21 0zm33 43l-12 0 0 61 21 0c-1,-9 -3,-18 -4,-28 -1,-10 -3,-21 -5,-33z"/>
   <polygon class="fil47" points="16021,6670 16131,6670 16131,6773 16021,6773 "/>
   <path class="fil55" d="M16021 6648l110 0 21 0 0 21 0 104 0 21 -21 0 -110 0 -21 0 0 -21 0 -104 0 -21 21 0zm89 43l-68 0 0 61 68 0 0 -61z"/>
   <polygon class="fil47" points="16134,6670 16245,6670 16245,6773 16134,6773 "/>
   <path class="fil55" d="M16134 6648l110 0 21 0 0 21 0 104 0 21 -21 0 -110 0 -21 0 0 -21 0 -104 0 -21 21 0zm89 43l-68 0 0 61 68 0 0 -61z"/>
   <path class="fil47" d="M16247 6670l67 0c5,34 9,69 13,104l-80 0 0 -104z"/>
   <path class="fil55" d="M16247 6648l67 0 19 0 3 18c2,16 4,33 7,52 3,23 5,40 7,52l3 24 -24 0 -80 0 -21 0 0 -21 0 -104 0 -21 21 0 -2 0zm48 43l-27 0 0 61 35 0c-1,-12 -3,-21 -3,-28 -1,-10 -3,-21 -4,-33l-1 0z"/>
   <polygon class="fil47" points="16021,6455 16131,6455 16131,6559 16021,6559 "/>
   <path class="fil55" d="M16021 6434l110 0 21 0 0 21 0 104 0 21 -21 0 -110 0 -21 0 0 -21 0 -104 0 -21 21 0zm89 43l-68 0 0 61 68 0 0 -61z"/>
   <polygon class="fil47" points="16134,6455 16245,6455 16245,6559 16134,6559 "/>
   <path class="fil55" d="M16134 6434l110 0 21 0 0 21 0 104 0 21 -21 0 -110 0 -21 0 0 -21 0 -104 0 -21 21 0zm89 43l-68 0 0 61 68 0 0 -61z"/>
   <path class="fil47" d="M16247 6455l34 0c6,34 12,69 17,104l-51 0 0 -104z"/>
   <path class="fil55" d="M16247 6434l34 0 18 0 3 18c3,15 5,32 9,52 3,16 5,33 8,52l4 25 -25 0 -51 0 -21 0 0 -21 0 -104 0 -21 21 0 0 -1zm22 76l0 -2 0 29 5 0 -4 -27 -1 0z"/>
   <polygon class="fil47" points="15681,7205 15791,7205 15791,7309 15681,7309 "/>
   <path class="fil55" d="M15681 7184l111 0 21 0 0 21 0 104 0 21 -21 0 -111 0 -21 0 0 -21 0 -104 0 -21 21 0zm89 43l-68 0 0 61 68 0 0 -61z"/>
   <polygon class="fil47" points="15795,7205 15905,7205 15905,7309 15795,7309 "/>
   <path class="fil55" d="M15795 7184l110 0 21 0 0 21 0 104 0 21 -21 0 -110 0 -21 0 0 -21 0 -104 0 -21 21 0zm89 43l-68 0 0 61 68 0 0 -61z"/>
   <polygon class="fil47" points="15907,7205 16018,7205 16018,7309 15907,7309 "/>
   <path class="fil55" d="M15907 7184l110 0 21 0 0 21 0 104 0 21 -21 0 -110 0 -21 0 0 -21 0 -104 0 -21 21 0zm89 43l-68 0 0 61 68 0 0 -61z"/>
   <polygon class="fil47" points="15681,7313 15791,7313 15791,7416 15681,7416 "/>
   <path class="fil55" d="M15681 7291l111 0 21 0 0 21 0 104 0 21 -21 0 -111 0 -21 0 0 -21 0 -104 0 -21 21 0zm89 43l-68 0 0 61 68 0 0 -61z"/>
   <polygon class="fil47" points="15795,7313 15905,7313 15905,7416 15795,7416 "/>
   <path class="fil55" d="M15795 7291l110 0 21 0 0 21 0 104 0 21 -21 0 -110 0 -21 0 0 -21 0 -104 0 -21 21 0zm89 43l-68 0 0 61 68 0 0 -61z"/>
   <polygon class="fil47" points="15907,7313 16018,7313 16018,7416 15907,7416 "/>
   <path class="fil55" d="M15907 7291l110 0 21 0 0 21 0 104 0 21 -21 0 -110 0 -21 0 0 -21 0 -104 0 -21 21 0zm89 43l-68 0 0 61 68 0 0 -61z"/>
   <polygon class="fil47" points="15681,7098 15791,7098 15791,7202 15681,7202 "/>
   <path class="fil55" d="M15681 7077l111 0 21 0 0 21 0 104 0 21 -21 0 -111 0 -21 0 0 -21 0 -104 0 -21 21 0zm89 43l-68 0 0 61 68 0 0 -61z"/>
   <polygon class="fil47" points="15795,7098 15905,7098 15905,7202 15795,7202 "/>
   <path class="fil55" d="M15795 7077l110 0 21 0 0 21 0 104 0 21 -21 0 -110 0 -21 0 0 -21 0 -104 0 -21 21 0zm89 43l-68 0 0 61 68 0 0 -61z"/>
   <polygon class="fil47" points="15907,7098 16018,7098 16018,7202 15907,7202 "/>
   <path class="fil55" d="M15907 7077l110 0 21 0 0 21 0 104 0 21 -21 0 -110 0 -21 0 0 -21 0 -104 0 -21 21 0zm89 43l-68 0 0 61 68 0 0 -61z"/>
   <path class="fil47" d="M15700 6888l91 0 0 104 -102 0c3,-35 7,-69 10,-104l1 0z"/>
   <path class="fil55" d="M15700 6867l91 0 21 0 0 21 0 104 0 21 -21 0 -102 0 -23 0 2 -23c2,-19 3,-36 5,-52 2,-18 4,-35 5,-52l2 -19 19 0 1 0zm70 43l-51 0c-1,11 -2,22 -3,33l-3 29 57 0 0 -61 0 -1z"/>
   <polygon class="fil47" points="15795,6888 15905,6888 15905,6992 15795,6992 "/>
   <path class="fil55" d="M15795 6867l110 0 21 0 0 21 0 104 0 21 -21 0 -110 0 -21 0 0 -21 0 -104 0 -21 21 0zm89 43l-68 0 0 61 68 0 0 -61z"/>
   <polygon class="fil47" points="15907,6888 16018,6888 16018,6992 15907,6992 "/>
   <path class="fil55" d="M15907 6867l110 0 21 0 0 21 0 104 0 21 -21 0 -110 0 -21 0 0 -21 0 -104 0 -21 21 0zm89 43l-68 0 0 61 68 0 0 -61z"/>
   <path class="fil47" d="M15690 6995l102 0 0 104 -111 0 0 -3c3,-34 6,-67 9,-100l0 -1z"/>
   <path class="fil55" d="M15690 6974l102 0 21 0 0 21 0 104 0 21 -21 0 -111 0 -21 0 0 -21 0 -3 0 -2c2,-19 3,-35 4,-51 0,-5 2,-23 5,-50l2 -19 19 0zm81 43l-61 0 -3 31 -3 31 67 0 0 -61 0 -1z"/>
   <polygon class="fil47" points="15795,6995 15905,6995 15905,7099 15795,7099 "/>
   <path class="fil55" d="M15795 6974l110 0 21 0 0 21 0 104 0 21 -21 0 -110 0 -21 0 0 -21 0 -104 0 -21 21 0zm89 43l-68 0 0 61 68 0 0 -61z"/>
   <polygon class="fil47" points="15907,6995 16018,6995 16018,7099 15907,7099 "/>
   <path class="fil55" d="M15907 6974l110 0 21 0 0 21 0 104 0 21 -21 0 -110 0 -21 0 0 -21 0 -104 0 -21 21 0zm89 43l-68 0 0 61 68 0 0 -61z"/>
   <path class="fil47" d="M15712 6781l79 0 0 104 -91 0c4,-35 8,-70 12,-104z"/>
   <path class="fil55" d="M15712 6760l79 0 21 0 0 21 0 104 0 21 -21 0 -91 0 -24 0 2 -23c2,-19 4,-36 6,-52 2,-19 4,-36 6,-52l2 -19 19 0 1 0zm58 43l-39 0c-1,12 -3,23 -4,33 -1,10 -2,19 -3,29l46 0 0 -61 0 -1z"/>
   <polygon class="fil47" points="15795,6781 15905,6781 15905,6885 15795,6885 "/>
   <path class="fil55" d="M15795 6760l110 0 21 0 0 21 0 104 0 21 -21 0 -110 0 -21 0 0 -21 0 -104 0 -21 21 0zm89 43l-68 0 0 61 68 0 0 -61z"/>
   <polygon class="fil47" points="15907,6781 16018,6781 16018,6885 15907,6885 "/>
   <path class="fil55" d="M15907 6760l110 0 21 0 0 21 0 104 0 21 -21 0 -110 0 -21 0 0 -21 0 -104 0 -21 21 0zm89 43l-68 0 0 61 68 0 0 -61z"/>
   <polygon class="fil47" points="15681,7526 15791,7526 15791,7629 15681,7629 "/>
   <path class="fil55" d="M15681 7504l111 0 21 0 0 21 0 104 0 21 -21 0 -111 0 -21 0 0 -21 0 -104 0 -21 21 0zm89 43l-68 0 0 61 68 0 0 -61z"/>
   <polygon class="fil47" points="15795,7526 15905,7526 15905,7629 15795,7629 "/>
   <path class="fil55" d="M15795 7504l110 0 21 0 0 21 0 104 0 21 -21 0 -110 0 -21 0 0 -21 0 -104 0 -21 21 0zm89 43l-68 0 0 61 68 0 0 -61z"/>
   <polygon class="fil47" points="15907,7526 16018,7526 16018,7629 15907,7629 "/>
   <path class="fil55" d="M15907 7504l110 0 21 0 0 21 0 104 0 21 -21 0 -110 0 -21 0 0 -21 0 -104 0 -21 21 0zm89 43l-68 0 0 61 68 0 0 -61z"/>
   <polygon class="fil47" points="15681,7633 15791,7633 15791,7737 15681,7737 "/>
   <path class="fil55" d="M15681 7611l111 0 21 0 0 21 0 104 0 21 -21 0 -111 0 -21 0 0 -21 0 -104 0 -21 21 0zm89 43l-68 0 0 61 68 0 0 -61z"/>
   <polygon class="fil47" points="15795,7633 15905,7633 15905,7737 15795,7737 "/>
   <path class="fil55" d="M15795 7611l110 0 21 0 0 21 0 104 0 21 -21 0 -110 0 -21 0 0 -21 0 -104 0 -21 21 0zm89 43l-68 0 0 61 68 0 0 -61z"/>
   <polygon class="fil47" points="15907,7633 16018,7633 16018,7737 15907,7737 "/>
   <path class="fil55" d="M15907 7611l110 0 21 0 0 21 0 104 0 21 -21 0 -110 0 -21 0 0 -21 0 -104 0 -21 21 0zm89 43l-68 0 0 61 68 0 0 -61z"/>
   <polygon class="fil47" points="15681,7418 15791,7418 15791,7522 15681,7522 "/>
   <path class="fil55" d="M15681 7397l111 0 21 0 0 21 0 104 0 21 -21 0 -111 0 -21 0 0 -21 0 -104 0 -21 21 0zm89 43l-68 0 0 61 68 0 0 -61z"/>
   <polygon class="fil47" points="15795,7418 15905,7418 15905,7522 15795,7522 "/>
   <path class="fil55" d="M15795 7397l110 0 21 0 0 21 0 104 0 21 -21 0 -110 0 -21 0 0 -21 0 -104 0 -21 21 0zm89 43l-68 0 0 61 68 0 0 -61z"/>
   <polygon class="fil47" points="15907,7418 16018,7418 16018,7522 15907,7522 "/>
   <path class="fil55" d="M15907 7397l110 0 21 0 0 21 0 104 0 21 -21 0 -110 0 -21 0 0 -21 0 -104 0 -21 21 0zm89 43l-68 0 0 61 68 0 0 -61z"/>
   <polygon class="fil47" points="16021,6888 16131,6888 16131,6992 16021,6992 "/>
   <path class="fil55" d="M16021 6867l110 0 21 0 0 21 0 104 0 21 -21 0 -110 0 -21 0 0 -21 0 -104 0 -21 21 0zm89 43l-68 0 0 61 68 0 0 -61z"/>
   <polygon class="fil47" points="16134,6888 16245,6888 16245,6992 16134,6992 "/>
   <path class="fil55" d="M16134 6867l110 0 21 0 0 21 0 104 0 21 -21 0 -110 0 -21 0 0 -21 0 -104 0 -21 21 0zm89 43l-68 0 0 61 68 0 0 -61z"/>
   <path class="fil47" d="M16247 6888l93 0c4,34 7,69 10,104l-103 0 0 -104z"/>
   <path class="fil55" d="M16247 6867l93 0 19 0 2 19c2,16 3,33 5,52 2,22 4,41 5,52l2 23 -23 0 -103 0 -21 0 0 -21 0 -104 0 -21 21 0zm74 43l-52 0 0 61 58 0c-1,-12 -2,-21 -3,-29 -1,-10 -2,-21 -3,-33l0 1z"/>
   <polygon class="fil47" points="16021,6995 16131,6995 16131,7099 16021,7099 "/>
   <path class="fil55" d="M16021 6974l110 0 21 0 0 21 0 104 0 21 -21 0 -110 0 -21 0 0 -21 0 -104 0 -21 21 0zm89 43l-68 0 0 61 68 0 0 -61z"/>
   <polygon class="fil47" points="16134,6995 16245,6995 16245,7099 16134,7099 "/>
   <path class="fil55" d="M16134 6974l110 0 21 0 0 21 0 104 0 21 -21 0 -110 0 -21 0 0 -21 0 -104 0 -21 21 0zm89 43l-68 0 0 61 68 0 0 -61z"/>
   <path class="fil47" d="M16247 6995l103 0c3,29 5,58 7,86l0 17 -111 0 0 -104 1 1z"/>
   <path class="fil55" d="M16247 6974l103 0 19 0 2 19c1,13 2,28 4,43 1,13 2,28 4,43l0 2 0 17 0 21 -21 0 -110 0 -21 0 0 -21 0 -104 0 -21 21 0 -1 1zm84 43l-62 0 0 61 68 0c-1,-12 -2,-24 -3,-38l-2 -24 -1 1z"/>
   <polygon class="fil47" points="16021,6781 16131,6781 16131,6885 16021,6885 "/>
   <path class="fil55" d="M16021 6760l110 0 21 0 0 21 0 104 0 21 -21 0 -110 0 -21 0 0 -21 0 -104 0 -21 21 0zm89 43l-68 0 0 61 68 0 0 -61z"/>
   <polygon class="fil47" points="16134,6781 16245,6781 16245,6885 16134,6885 "/>
   <path class="fil55" d="M16134 6760l110 0 21 0 0 21 0 104 0 21 -21 0 -110 0 -21 0 0 -21 0 -104 0 -21 21 0zm89 43l-68 0 0 61 68 0 0 -61z"/>
   <path class="fil47" d="M16247 6781l81 0c4,34 8,69 12,104l-93 0 0 -104z"/>
   <path class="fil55" d="M16247 6760l81 0 19 0 2 19c2,16 4,33 6,52 2,16 4,33 6,52l2 23 -23 0 -93 0 -21 0 0 -21 0 -104 0 -21 21 0zm62 43l-41 0 0 61 48 0 -3 -28c-1,-10 -2,-21 -4,-33z"/>
   <polygon class="fil47" points="16021,7205 16131,7205 16131,7309 16021,7309 "/>
   <path class="fil55" d="M16021 7184l110 0 21 0 0 21 0 104 0 21 -21 0 -110 0 -21 0 0 -21 0 -104 0 -21 21 0zm89 43l-68 0 0 61 68 0 0 -61z"/>
   <polygon class="fil47" points="16134,7205 16245,7205 16245,7309 16134,7309 "/>
   <path class="fil55" d="M16134 7184l110 0 21 0 0 21 0 104 0 21 -21 0 -110 0 -21 0 0 -21 0 -104 0 -21 21 0zm89 43l-68 0 0 61 68 0 0 -61z"/>
   <polygon class="fil47" points="16247,7205 16357,7205 16357,7309 16247,7309 "/>
   <path class="fil55" d="M16247 7184l110 0 21 0 0 21 0 104 0 21 -21 0 -110 0 -21 0 0 -21 0 -104 0 -21 21 0zm89 43l-68 0 0 61 68 0 0 -61z"/>
   <polygon class="fil47" points="16021,7313 16131,7313 16131,7416 16021,7416 "/>
   <path class="fil55" d="M16021 7291l110 0 21 0 0 21 0 104 0 21 -21 0 -110 0 -21 0 0 -21 0 -104 0 -21 21 0zm89 43l-68 0 0 61 68 0 0 -61z"/>
   <polygon class="fil47" points="16134,7313 16245,7313 16245,7416 16134,7416 "/>
   <path class="fil55" d="M16134 7291l110 0 21 0 0 21 0 104 0 21 -21 0 -110 0 -21 0 0 -21 0 -104 0 -21 21 0zm89 43l-68 0 0 61 68 0 0 -61z"/>
   <polygon class="fil47" points="16247,7313 16357,7313 16357,7416 16247,7416 "/>
   <path class="fil55" d="M16247 7291l110 0 21 0 0 21 0 104 0 21 -21 0 -110 0 -21 0 0 -21 0 -104 0 -21 21 0zm89 43l-68 0 0 61 68 0 0 -61z"/>
   <polygon class="fil47" points="16021,7098 16131,7098 16131,7202 16021,7202 "/>
   <path class="fil55" d="M16021 7077l110 0 21 0 0 21 0 104 0 21 -21 0 -110 0 -21 0 0 -21 0 -104 0 -21 21 0zm89 43l-68 0 0 61 68 0 0 -61z"/>
   <polygon class="fil47" points="16134,7098 16245,7098 16245,7202 16134,7202 "/>
   <path class="fil55" d="M16134 7077l110 0 21 0 0 21 0 104 0 21 -21 0 -110 0 -21 0 0 -21 0 -104 0 -21 21 0zm89 43l-68 0 0 61 68 0 0 -61z"/>
   <polygon class="fil47" points="16247,7098 16357,7098 16357,7202 16247,7202 "/>
   <path class="fil55" d="M16247 7077l110 0 21 0 0 21 0 104 0 21 -21 0 -110 0 -21 0 0 -21 0 -104 0 -21 21 0zm89 43l-68 0 0 61 68 0 0 -61z"/>
   <polygon class="fil47" points="16021,7526 16131,7526 16131,7629 16021,7629 "/>
   <path class="fil55" d="M16021 7504l110 0 21 0 0 21 0 104 0 21 -21 0 -110 0 -21 0 0 -21 0 -104 0 -21 21 0zm89 43l-68 0 0 61 68 0 0 -61z"/>
   <polygon class="fil47" points="16134,7526 16245,7526 16245,7629 16134,7629 "/>
   <path class="fil55" d="M16134 7504l110 0 21 0 0 21 0 104 0 21 -21 0 -110 0 -21 0 0 -21 0 -104 0 -21 21 0zm89 43l-68 0 0 61 68 0 0 -61z"/>
   <polygon class="fil47" points="16247,7526 16357,7526 16357,7629 16247,7629 "/>
   <path class="fil55" d="M16247 7504l110 0 21 0 0 21 0 104 0 21 -21 0 -110 0 -21 0 0 -21 0 -104 0 -21 21 0zm89 43l-68 0 0 61 68 0 0 -61z"/>
   <polygon class="fil47" points="16021,7633 16131,7633 16131,7737 16021,7737 "/>
   <path class="fil55" d="M16021 7611l110 0 21 0 0 21 0 104 0 21 -21 0 -110 0 -21 0 0 -21 0 -104 0 -21 21 0zm89 43l-68 0 0 61 68 0 0 -61z"/>
   <polygon class="fil47" points="16134,7633 16245,7633 16245,7737 16134,7737 "/>
   <path class="fil55" d="M16134 7611l110 0 21 0 0 21 0 104 0 21 -21 0 -110 0 -21 0 0 -21 0 -104 0 -21 21 0zm89 43l-68 0 0 61 68 0 0 -61z"/>
   <polygon class="fil47" points="16247,7633 16357,7633 16357,7737 16247,7737 "/>
   <path class="fil55" d="M16247 7611l110 0 21 0 0 21 0 104 0 21 -21 0 -110 0 -21 0 0 -21 0 -104 0 -21 21 0zm89 43l-68 0 0 61 68 0 0 -61z"/>
   <polygon class="fil47" points="16021,7418 16131,7418 16131,7522 16021,7522 "/>
   <path class="fil55" d="M16021 7397l110 0 21 0 0 21 0 104 0 21 -21 0 -110 0 -21 0 0 -21 0 -104 0 -21 21 0zm89 43l-68 0 0 61 68 0 0 -61z"/>
   <polygon class="fil47" points="16134,7418 16245,7418 16245,7522 16134,7522 "/>
   <path class="fil55" d="M16134 7397l110 0 21 0 0 21 0 104 0 21 -21 0 -110 0 -21 0 0 -21 0 -104 0 -21 21 0zm89 43l-68 0 0 61 68 0 0 -61z"/>
   <polygon class="fil47" points="16247,7418 16357,7418 16357,7522 16247,7522 "/>
   <path class="fil55" d="M16247 7397l110 0 21 0 0 21 0 104 0 21 -21 0 -110 0 -21 0 0 -21 0 -104 0 -21 21 0zm89 43l-68 0 0 61 68 0 0 -61z"/>
   <path class="fil47" d="M15673 7205l6 0 0 104 -13 0c2,-35 4,-69 7,-104z"/>
   <path class="fil55" d="M15673 7184l6 0 21 0 0 21 0 104 0 21 -21 0 -13 0 -23 0 1 -23c1,-18 2,-36 3,-52 1,-18 2,-36 3,-52l1 -20 20 0 2 1z"/>
   <path class="fil47" d="M15666 7313l13 0 0 104 -18 0c2,-35 4,-69 6,-104l-1 0z"/>
   <path class="fil55" d="M15666 7291l13 0 21 0 0 21 0 104 0 21 -21 0 -18 0 -22 0 1 -22c1,-18 2,-36 3,-52l0 0c1,-19 2,-35 3,-52l1 -20 20 0 -1 0z"/>
   <path class="fil47" d="M15679 7125l0 77 -6 0c2,-26 4,-52 6,-77z"/>
   <path class="fil55" d="M15700 7125l0 77 0 21 -21 0 -6 0 -23 0 2 -23c1,-14 2,-27 3,-39 1,-14 2,-27 3,-39l42 2 0 1z"/>
   <path class="fil47" d="M15655 7526l23 0 0 104 -27 0c1,-35 2,-69 4,-104z"/>
   <path class="fil55" d="M15655 7504l23 0 21 0 0 21 0 104 0 21 -21 0 -27 0 -22 0 1 -22c1,-18 1,-35 2,-52 1,-18 1,-35 2,-52l1 -20 20 0z"/>
   <path class="fil47" d="M15651 7633l27 0 0 104 -30 0c1,-35 2,-69 3,-104z"/>
   <path class="fil55" d="M15652 7611l27 0 21 0 0 21 0 104 0 21 -21 0 -30 0 -22 0 0 -22c0,-18 1,-35 1,-52 1,-18 1,-35 2,-52l1 -21 20 0 1 1z"/>
   <path class="fil47" d="M15660 7418l18 0 0 104 -23 0c1,-35 3,-69 5,-104z"/>
   <path class="fil55" d="M15660 7397l18 0 21 0 0 21 0 104 0 21 -21 0 -23 0 -22 0 1 -22c1,-18 1,-35 2,-52 1,-18 2,-35 2,-52l1 -20 20 0 1 0z"/>
   <path class="fil47" d="M16361 7205l5 0c2,34 4,69 6,104l-11 0 0 -104z"/>
   <path class="fil55" d="M16361 7184l5 0 20 0 1 20c1,16 2,33 3,52 1,17 2,34 3,53l1 22 -22 0 -11 0 -21 0 0 -21 0 -104 0 -21 21 0 0 -1z"/>
   <path class="fil47" d="M16361 7313l12 0c2,34 4,69 5,104l-17 0 0 -104z"/>
   <path class="fil55" d="M16361 7291l12 0 20 0 1 20c1,17 2,34 3,52 1,17 2,34 2,52l1 22 -22 0 -17 0 -21 0 0 -21 0 -104 0 -21 21 0z"/>
   <path class="fil47" d="M16366 7202l-5 0 0 -71c2,23 3,47 5,71z"/>
   <path class="fil55" d="M16366 7223l-5 0 -21 0 0 -21 0 -70 42 -2c1,10 2,22 3,35 1,11 2,23 2,35l1 23 -23 0 1 0z"/>
   <path class="fil47" d="M16361 7526l21 0c1,35 2,69 3,104l-25 0 0 -104 1 0z"/>
   <path class="fil55" d="M16361 7504l21 0 20 0 1 21c1,17 1,34 2,52 1,17 1,34 2,52l1 22 -22 0 -25 0 -21 0 0 -21 0 -104 0 -21 21 0 0 -1z"/>
   <path class="fil47" d="M16361 7633l25 0c1,35 2,69 3,104l-27 0 0 -104 -1 0z"/>
   <path class="fil55" d="M16361 7611l25 0 21 0 1 21c0,17 1,34 1,52 0,17 1,34 1,52l0 22 -22 0 -27 0 -21 0 0 -21 0 -104 0 -21 21 0 0 -1z"/>
   <path class="fil47" d="M16361 7418l17 0c2,35 3,69 4,104l-21 0 0 -104z"/>
   <path class="fil55" d="M16361 7397l17 0 20 0 1 20c1,17 2,34 2,52 1,17 1,34 2,52l1 22 -22 0 -21 0 -21 0 0 -21 0 -104 0 -21 21 0z"/>
   <polygon class="fil47" points="16018,9064 16018,9019 15979,9019 "/>
   <polygon class="fil55" points="16039,9019 16039,9064 16017,9102 15963,9033 15933,8998 15979,8998 16018,8998 16039,8998 "/>
   <path class="fil47" d="M15886 8910l20 0 0 -104 -109 0c10,11 20,23 31,36l58 68z"/>
   <path class="fil55" d="M15905 8931l-20 0 -10 0 -6 -7 -58 -68 0 0c-6,-7 -11,-13 -16,-18l-15 -17 -31 -35 47 0 109 0 21 0 0 21 0 104 0 21 -21 0 0 -1zm-21 -56l0 -48 -41 0 1 1 0 0 40 47z"/>
   <polygon class="fil47" points="15907,8910 16018,8910 16018,8806 15907,8806 "/>
   <path class="fil55" d="M15928 8889l68 0 0 -61 -68 0 0 61zm89 43l-110 0 -21 0 0 -21 0 -104 0 -21 21 0 110 0 21 0 0 21 0 104 0 21 -21 0z"/>
   <path class="fil47" d="M15791 8800l0 -101 -94 0c22,23 52,54 94,101z"/>
   <path class="fil55" d="M15770 8745l0 -25 -23 0c7,8 15,16 23,25zm43 -46l0 101 0 56 -37 -42c-33,-38 -60,-65 -80,-87l-13 -14 -34 -36 50 0 94 0 21 0 0 21 -1 1z"/>
   <polygon class="fil47" points="15795,8803 15905,8803 15905,8699 15795,8699 "/>
   <path class="fil55" d="M15816 8782l68 0 0 -61 -68 0 0 61zm89 43l-110 0 -7 -17 -14 -5 0 -104 0 -21 21 0 110 0 21 0 0 21 0 104 0 21 -21 0 0 1z"/>
   <polygon class="fil47" points="15907,8803 16018,8803 16018,8699 15907,8699 "/>
   <path class="fil55" d="M15928 8782l68 0 0 -61 -68 0 0 61zm89 43l-110 0 -21 0 0 -21 0 -104 0 -21 21 0 110 0 21 0 0 21 0 104 0 21 -21 0z"/>
   <polygon class="fil47" points="15905,8933 15905,8913 15889,8913 "/>
   <polygon class="fil55" points="15927,8913 15927,8933 15927,8990 15889,8947 15872,8927 15843,8892 15889,8892 15905,8892 15927,8892 "/>
   <polygon class="fil47" points="15977,9017 16018,9017 16018,8913 15907,8913 15907,8935 "/>
   <path class="fil55" d="M15987 8996l9 0 0 -61 -62 0 52 61 1 0zm31 43l-40 0 -10 0 -6 -7 -70 -82 -5 -6 0 -8 0 -22 0 -21 21 0 110 0 21 0 0 21 0 104 0 21 -21 0z"/>
   <polygon class="fil47" points="16057,9019 16021,9019 16021,9062 "/>
   <polygon class="fil55" points="16021,8998 16057,8998 16103,8998 16073,9033 16016,9101 15999,9062 15999,9019 15999,8998 "/>
   <polygon class="fil47" points="16021,8910 16131,8910 16131,8806 16021,8806 "/>
   <path class="fil55" d="M16042 8889l68 0 0 -61 -68 0 0 61zm89 43l-110 0 -21 0 0 -21 0 -104 0 -21 21 0 110 0 21 0 0 21 0 104 0 21 -21 0z"/>
   <path class="fil47" d="M16134 8910l16 0 58 -68c11,-13 21,-25 31,-36l-105 0 0 104z"/>
   <path class="fil55" d="M16150 8931l-16 0 -21 0 0 -21 0 -104 0 -21 21 0 105 0 47 0 -31 35 -15 17c-4,5 -9,11 -16,18l0 0 -58 68 -6 7 -10 0 0 1zm6 -61l36 -43 0 0 1 -1 -37 0 0 43 0 1z"/>
   <polygon class="fil47" points="16021,8803 16131,8803 16131,8699 16021,8699 "/>
   <path class="fil55" d="M16042 8782l68 0 0 -61 -68 0 0 61zm89 43l-110 0 -21 0 0 -21 0 -104 0 -21 21 0 110 0 21 0 0 21 0 104 0 21 -21 0z"/>
   <polygon class="fil47" points="16134,8803 16242,8803 16245,8800 16245,8699 16134,8699 "/>
   <path class="fil55" d="M16156 8782l68 0 0 -61 -68 0 0 61zm86 43l-108 0 -21 0 0 -21 0 -104 0 -21 21 0 110 0 21 0 0 21 0 101 0 8 -6 6 -3 3 -6 7 -9 0 1 0z"/>
   <path class="fil47" d="M16338 8699l-92 0 0 99c41,-46 70,-76 92,-99z"/>
   <path class="fil55" d="M16289 8720l-21 0 0 22c7,-8 15,-16 21,-22zm-42 -43l92 0 49 0 -34 36c-5,5 -11,12 -18,19 -19,20 -42,45 -73,79l-37 42 0 -56 0 -99 0 -21 21 0z"/>
   <polygon class="fil47" points="16021,9017 16059,9017 16131,8932 16131,8913 16021,8913 "/>
   <path class="fil55" d="M16042 8996l7 0 52 -61 -59 0 0 61zm17 43l-38 0 -21 0 0 -21 0 -104 0 -21 21 0 110 0 21 0 0 21 0 19 0 8 -5 6 -72 85 -6 7 -10 0z"/>
   <polygon class="fil47" points="16147,8913 16134,8913 16134,8928 "/>
   <polygon class="fil55" points="16134,8892 16147,8892 16193,8892 16163,8927 16151,8942 16113,8986 16113,8928 16113,8913 16113,8892 "/>
   <polygon class="fil47" points="15681,8267 15791,8267 15791,8163 15681,8163 "/>
   <path class="fil55" d="M15702 8246l68 0 0 -61 -68 0 0 61zm89 43l-111 0 -21 0 0 -21 0 -104 0 -21 21 0 111 0 21 0 0 21 0 104 0 21 -21 0z"/>
   <polygon class="fil47" points="15795,8267 15905,8267 15905,8163 15795,8163 "/>
   <path class="fil55" d="M15816 8246l68 0 0 -61 -68 0 0 61zm89 43l-110 0 -21 0 0 -21 0 -104 0 -21 21 0 110 0 21 0 0 21 0 104 0 21 -21 0z"/>
   <polygon class="fil47" points="15907,8267 16018,8267 16018,8163 15907,8163 "/>
   <path class="fil55" d="M15928 8246l68 0 0 -61 -68 0 0 61zm89 43l-110 0 -21 0 0 -21 0 -104 0 -21 21 0 110 0 21 0 0 21 0 104 0 21 -21 0z"/>
   <polygon class="fil47" points="15681,8160 15791,8160 15791,8056 15681,8056 "/>
   <path class="fil55" d="M15702 8138l68 0 0 -61 -68 0 0 61zm89 43l-111 0 -21 0 0 -21 0 -104 0 -21 21 0 111 0 21 0 0 21 0 104 0 21 -21 0z"/>
   <polygon class="fil47" points="15795,8160 15905,8160 15905,8056 15795,8056 "/>
   <path class="fil55" d="M15816 8138l68 0 0 -61 -68 0 0 61zm89 43l-110 0 -21 0 0 -21 0 -104 0 -21 21 0 110 0 21 0 0 21 0 104 0 21 -21 0z"/>
   <polygon class="fil47" points="15907,8160 16018,8160 16018,8056 15907,8056 "/>
   <path class="fil55" d="M15928 8138l68 0 0 -61 -68 0 0 61zm89 43l-110 0 -21 0 0 -21 0 -104 0 -21 21 0 110 0 21 0 0 21 0 104 0 21 -21 0z"/>
   <polygon class="fil47" points="15681,8374 15791,8374 15791,8270 15681,8270 "/>
   <path class="fil55" d="M15702 8353l68 0 0 -61 -68 0 0 61zm89 43l-111 0 -21 0 0 -21 0 -104 0 -21 21 0 111 0 21 0 0 21 0 104 0 21 -21 0z"/>
   <polygon class="fil47" points="15795,8374 15905,8374 15905,8270 15795,8270 "/>
   <path class="fil55" d="M15816 8353l68 0 0 -61 -68 0 0 61zm89 43l-110 0 -21 0 0 -21 0 -104 0 -21 21 0 110 0 21 0 0 21 0 104 0 21 -21 0z"/>
   <polygon class="fil47" points="15907,8374 16018,8374 16018,8270 15907,8270 "/>
   <path class="fil55" d="M15928 8353l68 0 0 -61 -68 0 0 61zm89 43l-110 0 -21 0 0 -21 0 -104 0 -21 21 0 110 0 21 0 0 21 0 104 0 21 -21 0z"/>
   <polygon class="fil47" points="15681,8584 15791,8584 15791,8480 15681,8480 "/>
   <path class="fil55" d="M15702 8563l68 0 0 -61 -68 0 0 61zm89 43l-111 0 -21 0 0 -21 0 -104 0 -21 21 0 111 0 21 0 0 21 0 104 0 21 -21 0z"/>
   <polygon class="fil47" points="15795,8584 15905,8584 15905,8480 15795,8480 "/>
   <path class="fil55" d="M15816 8563l68 0 0 -61 -68 0 0 61zm89 43l-110 0 -21 0 0 -21 0 -104 0 -21 21 0 110 0 21 0 0 21 0 104 0 21 -21 0z"/>
   <polygon class="fil47" points="15907,8584 16018,8584 16018,8480 15907,8480 "/>
   <path class="fil55" d="M15928 8563l68 0 0 -61 -68 0 0 61zm89 43l-110 0 -21 0 0 -21 0 -104 0 -21 21 0 110 0 21 0 0 21 0 104 0 21 -21 0z"/>
   <polygon class="fil47" points="15681,8477 15791,8477 15791,8373 15681,8373 "/>
   <path class="fil55" d="M15702 8456l68 0 0 -61 -68 0 0 61zm89 43l-111 0 -21 0 0 -21 0 -104 0 -21 21 0 111 0 21 0 0 21 0 104 0 21 -21 0z"/>
   <polygon class="fil47" points="15795,8477 15905,8477 15905,8373 15795,8373 "/>
   <path class="fil55" d="M15816 8456l68 0 0 -61 -68 0 0 61zm89 43l-110 0 -21 0 0 -21 0 -104 0 -21 21 0 110 0 21 0 0 21 0 104 0 21 -21 0z"/>
   <polygon class="fil47" points="15907,8477 16018,8477 16018,8373 15907,8373 "/>
   <path class="fil55" d="M15928 8456l68 0 0 -61 -68 0 0 61zm89 43l-110 0 -21 0 0 -21 0 -104 0 -21 21 0 110 0 21 0 0 21 0 104 0 21 -21 0z"/>
   <path class="fil47" d="M15690 8691l101 0 0 -104 -111 0 0 94c3,3 6,7 9,10l1 0z"/>
   <path class="fil55" d="M15702 8670l68 0 0 -61 -68 0 0 61zm89 43l-101 0 -9 0 -6 -7 -9 -10 -6 -6 0 -8 0 -94 0 -21 21 0 111 0 21 0 0 21 0 104 0 21 -21 0 -1 0z"/>
   <polygon class="fil47" points="15795,8691 15905,8691 15905,8588 15795,8588 "/>
   <path class="fil55" d="M15816 8670l68 0 0 -61 -68 0 0 61zm89 43l-110 0 -21 0 0 -21 0 -104 0 -21 21 0 110 0 21 0 0 21 0 104 0 21 -21 0z"/>
   <polygon class="fil47" points="15907,8691 16018,8691 16018,8588 15907,8588 "/>
   <path class="fil55" d="M15928 8670l68 0 0 -61 -68 0 0 61zm89 43l-110 0 -21 0 0 -21 0 -104 0 -21 21 0 110 0 21 0 0 21 0 104 0 21 -21 0z"/>
   <polygon class="fil47" points="15681,7947 15791,7947 15791,7843 15681,7843 "/>
   <path class="fil55" d="M15702 7925l68 0 0 -61 -68 0 0 61zm89 43l-111 0 -21 0 0 -21 0 -104 0 -21 21 0 111 0 21 0 0 21 0 104 0 21 -21 0z"/>
   <polygon class="fil47" points="15795,7947 15905,7947 15905,7843 15795,7843 "/>
   <path class="fil55" d="M15816 7925l68 0 0 -61 -68 0 0 61zm89 43l-110 0 -21 0 0 -21 0 -104 0 -21 21 0 110 0 21 0 0 21 0 104 0 21 -21 0z"/>
   <polygon class="fil47" points="15907,7947 16018,7947 16018,7843 15907,7843 "/>
   <path class="fil55" d="M15928 7925l68 0 0 -61 -68 0 0 61zm89 43l-110 0 -21 0 0 -21 0 -104 0 -21 21 0 110 0 21 0 0 21 0 104 0 21 -21 0z"/>
   <polygon class="fil47" points="15681,7840 15791,7840 15791,7736 15681,7736 "/>
   <path class="fil55" d="M15702 7818l68 0 0 -61 -68 0 0 61zm89 43l-111 0 -21 0 0 -21 0 -104 0 -21 21 0 111 0 21 0 0 21 0 104 0 21 -21 0z"/>
   <polygon class="fil47" points="15795,7840 15905,7840 15905,7736 15795,7736 "/>
   <path class="fil55" d="M15816 7818l68 0 0 -61 -68 0 0 61zm89 43l-110 0 -21 0 0 -21 0 -104 0 -21 21 0 110 0 21 0 0 21 0 104 0 21 -21 0z"/>
   <polygon class="fil47" points="15907,7840 16018,7840 16018,7736 15907,7736 "/>
   <path class="fil55" d="M15928 7818l68 0 0 -61 -68 0 0 61zm89 43l-110 0 -21 0 0 -21 0 -104 0 -21 21 0 110 0 21 0 0 21 0 104 0 21 -21 0z"/>
   <polygon class="fil47" points="15681,8054 15791,8054 15791,7950 15681,7950 "/>
   <path class="fil55" d="M15702 8033l68 0 0 -61 -68 0 0 61zm89 43l-111 0 -21 0 0 -21 0 -104 0 -21 21 0 111 0 21 0 0 21 0 104 0 21 -21 0z"/>
   <polygon class="fil47" points="15795,8054 15905,8054 15905,7950 15795,7950 "/>
   <path class="fil55" d="M15816 8033l68 0 0 -61 -68 0 0 61zm89 43l-110 0 -21 0 0 -21 0 -104 0 -21 21 0 110 0 21 0 0 21 0 104 0 21 -21 0z"/>
   <polygon class="fil47" points="15907,8054 16018,8054 16018,7950 15907,7950 "/>
   <path class="fil55" d="M15928 8033l68 0 0 -61 -68 0 0 61zm89 43l-110 0 -21 0 0 -21 0 -104 0 -21 21 0 110 0 21 0 0 21 0 104 0 21 -21 0z"/>
   <polygon class="fil47" points="16021,8584 16131,8584 16131,8480 16021,8480 "/>
   <path class="fil55" d="M16042 8563l68 0 0 -61 -68 0 0 61zm89 43l-110 0 -21 0 0 -21 0 -104 0 -21 21 0 110 0 21 0 0 21 0 104 0 21 -21 0z"/>
   <polygon class="fil47" points="16134,8584 16245,8584 16245,8480 16134,8480 "/>
   <path class="fil55" d="M16156 8563l68 0 0 -61 -68 0 0 61zm89 43l-110 0 -21 0 0 -21 0 -104 0 -21 21 0 110 0 21 0 0 21 0 104 0 21 -21 0z"/>
   <polygon class="fil47" points="16247,8584 16357,8584 16357,8480 16247,8480 "/>
   <path class="fil55" d="M16268 8563l68 0 0 -61 -68 0 0 61zm89 43l-110 0 -21 0 0 -21 0 -104 0 -21 21 0 110 0 21 0 0 21 0 104 0 21 -21 0z"/>
   <polygon class="fil47" points="16021,8477 16131,8477 16131,8373 16021,8373 "/>
   <path class="fil55" d="M16042 8456l68 0 0 -61 -68 0 0 61zm89 43l-110 0 -21 0 0 -21 0 -104 0 -21 21 0 110 0 21 0 0 21 0 104 0 21 -21 0z"/>
   <polygon class="fil47" points="16134,8477 16245,8477 16245,8373 16134,8373 "/>
   <path class="fil55" d="M16156 8456l68 0 0 -61 -68 0 0 61zm89 43l-110 0 -21 0 0 -21 0 -104 0 -21 21 0 110 0 21 0 0 21 0 104 0 21 -21 0z"/>
   <polygon class="fil47" points="16247,8477 16357,8477 16357,8373 16247,8373 "/>
   <path class="fil55" d="M16268 8456l68 0 0 -61 -68 0 0 61zm89 43l-110 0 -21 0 0 -21 0 -104 0 -21 21 0 110 0 21 0 0 21 0 104 0 21 -21 0z"/>
   <polygon class="fil47" points="16021,8691 16131,8691 16131,8588 16021,8588 "/>
   <path class="fil55" d="M16042 8670l68 0 0 -61 -68 0 0 61zm89 43l-110 0 -21 0 0 -21 0 -104 0 -21 21 0 110 0 21 0 0 21 0 104 0 21 -21 0z"/>
   <polygon class="fil47" points="16134,8691 16245,8691 16245,8588 16134,8588 "/>
   <path class="fil55" d="M16156 8670l68 0 0 -61 -68 0 0 61zm89 43l-110 0 -21 0 0 -21 0 -104 0 -21 21 0 110 0 21 0 0 21 0 104 0 21 -21 0z"/>
   <path class="fil47" d="M16247 8691l99 0c4,-5 8,-9 12,-13l0 -91 -111 0 0 104z"/>
   <path class="fil55" d="M16268 8670l68 0 0 -61 -68 0 0 61zm78 43l-99 0 -21 0 0 -21 0 -104 0 -21 21 0 110 0 21 0 0 21 0 91 0 8 -5 6c-2,3 -4,5 -6,7 -2,2 -4,4 -6,7l-6 7 -9 0 0 -1z"/>
   <polygon class="fil47" points="16021,8267 16131,8267 16131,8163 16021,8163 "/>
   <path class="fil55" d="M16042 8246l68 0 0 -61 -68 0 0 61zm89 43l-110 0 -21 0 0 -21 0 -104 0 -21 21 0 110 0 21 0 0 21 0 104 0 21 -21 0z"/>
   <polygon class="fil47" points="16134,8267 16245,8267 16245,8163 16134,8163 "/>
   <path class="fil55" d="M16156 8246l68 0 0 -61 -68 0 0 61zm89 43l-110 0 -21 0 0 -21 0 -104 0 -21 21 0 110 0 21 0 0 21 0 104 0 21 -21 0z"/>
   <polygon class="fil47" points="16247,8267 16357,8267 16357,8163 16247,8163 "/>
   <path class="fil55" d="M16268 8246l68 0 0 -61 -68 0 0 61zm89 43l-110 0 -21 0 0 -21 0 -104 0 -21 21 0 110 0 21 0 0 21 0 104 0 21 -21 0z"/>
   <polygon class="fil47" points="16021,8160 16131,8160 16131,8056 16021,8056 "/>
   <path class="fil55" d="M16042 8138l68 0 0 -61 -68 0 0 61zm89 43l-110 0 -21 0 0 -21 0 -104 0 -21 21 0 110 0 21 0 0 21 0 104 0 21 -21 0z"/>
   <polygon class="fil47" points="16134,8160 16245,8160 16245,8056 16134,8056 "/>
   <path class="fil55" d="M16156 8138l68 0 0 -61 -68 0 0 61zm89 43l-110 0 -21 0 0 -21 0 -104 0 -21 21 0 110 0 21 0 0 21 0 104 0 21 -21 0z"/>
   <polygon class="fil47" points="16247,8160 16357,8160 16357,8056 16247,8056 "/>
   <path class="fil55" d="M16268 8138l68 0 0 -61 -68 0 0 61zm89 43l-110 0 -21 0 0 -21 0 -104 0 -21 21 0 110 0 21 0 0 21 0 104 0 21 -21 0z"/>
   <polygon class="fil47" points="16021,8374 16131,8374 16131,8270 16021,8270 "/>
   <path class="fil55" d="M16042 8353l68 0 0 -61 -68 0 0 61zm89 43l-110 0 -21 0 0 -21 0 -104 0 -21 21 0 110 0 21 0 0 21 0 104 0 21 -21 0z"/>
   <polygon class="fil47" points="16134,8374 16245,8374 16245,8270 16134,8270 "/>
   <path class="fil55" d="M16156 8353l68 0 0 -61 -68 0 0 61zm89 43l-110 0 -21 0 0 -21 0 -104 0 -21 21 0 110 0 21 0 0 21 0 104 0 21 -21 0z"/>
   <polygon class="fil47" points="16247,8374 16357,8374 16357,8270 16247,8270 "/>
   <path class="fil55" d="M16268 8353l68 0 0 -61 -68 0 0 61zm89 43l-110 0 -21 0 0 -21 0 -104 0 -21 21 0 110 0 21 0 0 21 0 104 0 21 -21 0z"/>
   <polygon class="fil47" points="16021,7947 16131,7947 16131,7843 16021,7843 "/>
   <path class="fil55" d="M16042 7925l68 0 0 -61 -68 0 0 61zm89 43l-110 0 -21 0 0 -21 0 -104 0 -21 21 0 110 0 21 0 0 21 0 104 0 21 -21 0z"/>
   <polygon class="fil47" points="16134,7947 16245,7947 16245,7843 16134,7843 "/>
   <path class="fil55" d="M16156 7925l68 0 0 -61 -68 0 0 61zm89 43l-110 0 -21 0 0 -21 0 -104 0 -21 21 0 110 0 21 0 0 21 0 104 0 21 -21 0z"/>
   <polygon class="fil47" points="16247,7947 16357,7947 16357,7843 16247,7843 "/>
   <path class="fil55" d="M16268 7925l68 0 0 -61 -68 0 0 61zm89 43l-110 0 -21 0 0 -21 0 -104 0 -21 21 0 110 0 21 0 0 21 0 104 0 21 -21 0z"/>
   <polygon class="fil47" points="16021,7840 16131,7840 16131,7736 16021,7736 "/>
   <path class="fil55" d="M16042 7818l68 0 0 -61 -68 0 0 61zm89 43l-110 0 -21 0 0 -21 0 -104 0 -21 21 0 110 0 21 0 0 21 0 104 0 21 -21 0z"/>
   <polygon class="fil47" points="16134,7840 16245,7840 16245,7736 16134,7736 "/>
   <path class="fil55" d="M16156 7818l68 0 0 -61 -68 0 0 61zm89 43l-110 0 -21 0 0 -21 0 -104 0 -21 21 0 110 0 21 0 0 21 0 104 0 21 -21 0z"/>
   <polygon class="fil47" points="16247,7840 16357,7840 16357,7736 16247,7736 "/>
   <path class="fil55" d="M16268 7818l68 0 0 -61 -68 0 0 61zm89 43l-110 0 -21 0 0 -21 0 -104 0 -21 21 0 110 0 21 0 0 21 0 104 0 21 -21 0z"/>
   <polygon class="fil47" points="16021,8054 16131,8054 16131,7950 16021,7950 "/>
   <path class="fil55" d="M16042 8033l68 0 0 -61 -68 0 0 61zm89 43l-110 0 -21 0 0 -21 0 -104 0 -21 21 0 110 0 21 0 0 21 0 104 0 21 -21 0z"/>
   <polygon class="fil47" points="16134,8054 16245,8054 16245,7950 16134,7950 "/>
   <path class="fil55" d="M16156 8033l68 0 0 -61 -68 0 0 61zm89 43l-110 0 -21 0 0 -21 0 -104 0 -21 21 0 110 0 21 0 0 21 0 104 0 21 -21 0z"/>
   <polygon class="fil47" points="16247,8054 16357,8054 16357,7950 16247,7950 "/>
   <path class="fil55" d="M16268 8033l68 0 0 -61 -68 0 0 61zm89 43l-110 0 -21 0 0 -21 0 -104 0 -21 21 0 110 0 21 0 0 21 0 104 0 21 -21 0z"/>
   <path class="fil47" d="M15642 8584l37 0 0 -104 -34 0c-1,48 -3,80 -3,104z"/>
   <path class="fil55" d="M15679 8606l-37 0 -21 0 0 -21c0,-14 1,-31 1,-51 1,-16 1,-34 2,-54l0 -21 21 0 34 0 21 0 0 21 0 104 0 21 -21 0 0 1z"/>
   <path class="fil47" d="M15644 8477l34 0 0 -104 -34 0c0,12 0,24 0,36 0,26 0,48 -1,68l1 0z"/>
   <path class="fil55" d="M15679 8498l-34 0 -22 0 0 -22c0,-10 0,-21 1,-32 0,-7 0,-18 0,-36l0 0 0 -18 0 0 0 -18 0 -21 21 0 34 0 21 0 0 21 0 104 0 21 -21 0 0 1z"/>
   <path class="fil47" d="M15679 8679l0 -91 -37 0c1,42 8,59 37,91z"/>
   <path class="fil55" d="M15700 8588l0 91 0 55 -37 -41c-16,-18 -26,-32 -33,-48 -7,-16 -9,-33 -9,-57l0 -22 21 0 37 0 21 0 0 21 0 1z"/>
   <path class="fil47" d="M15644 8267l35 0 0 -104 -35 0c0,35 0,69 0,104z"/>
   <path class="fil55" d="M15679 8288l-35 0 -21 0 0 -21c0,-17 0,-35 0,-52l0 -52 0 -21 21 0 35 0 21 0 0 21 0 104 0 21 -21 0z"/>
   <path class="fil47" d="M15644 8160l35 0 0 -104 -35 0c0,35 0,69 0,104z"/>
   <path class="fil55" d="M15679 8181l-35 0 -21 0 0 -21c0,-27 0,-55 0,-104l0 -21 21 0 35 0 21 0 0 21 0 104 0 21 -21 0z"/>
   <path class="fil47" d="M15645 8374l34 0 0 -104 -35 0c0,35 1,69 1,104z"/>
   <path class="fil55" d="M15679 8395l-34 0 -21 0 0 -21 0 -5c0,-33 -1,-65 -1,-98l0 -21 21 0 35 0 21 0 0 21 0 104 0 21 -21 0 0 -1z"/>
   <path class="fil47" d="M15645 7947l34 0 0 -104 -32 0c-1,35 -1,69 -2,104z"/>
   <path class="fil55" d="M15679 7968l-34 0 -21 0 0 -22 1 -52c0,-18 1,-35 1,-52l0 -21 21 0 32 0 21 0 0 21 0 104 0 21 -21 0 0 1z"/>
   <path class="fil47" d="M15646 7840l32 0 0 -104 -30 0c-1,35 -2,69 -2,104z"/>
   <path class="fil55" d="M15679 7861l-32 0 -22 0 0 -22c0,-18 1,-35 1,-52 0,-18 1,-35 1,-52l1 -21 21 0 30 0 21 0 0 21 0 104 0 21 -21 0 0 1z"/>
   <path class="fil47" d="M15644 8054l35 0 0 -104 -34 0c0,35 -1,69 -1,104z"/>
   <path class="fil55" d="M15679 8075l-35 0 -21 0 0 -21 0 -3c0,-34 0,-67 1,-101l0 -21 21 0 34 0 21 0 0 21 0 104 0 21 -21 0z"/>
   <path class="fil47" d="M16361 8267l32 0c0,-35 0,-69 0,-104l-32 0 0 104z"/>
   <polygon class="fil55" points="16393,8288 16361,8288 16340,8288 16340,8267 16340,8163 16340,8142 16361,8142 16393,8142 16414,8142 16414,8163 16414,8267 16414,8267 16414,8267 16414,8288 "/>
   <path class="fil47" d="M16361 8160l32 0c0,-35 0,-69 0,-104l-31 0 0 104 -1 0z"/>
   <path class="fil55" d="M16393 8181l-32 0 -21 0 0 -21 0 -104 0 -21 21 0 31 0 21 0 0 21c0,23 0,47 0,70l0 34 0 21 -21 0 1 0z"/>
   <path class="fil47" d="M16361 8374l31 0c0,-35 0,-69 0,-104l-32 0 0 104 1 0z"/>
   <path class="fil55" d="M16392 8395l-31 0 -21 0 0 -21 0 -104 0 -21 21 0 32 0 21 0 0 21 0 9c0,31 0,63 0,94l0 21 -21 0 -1 1z"/>
   <path class="fil47" d="M16361 8584l32 0c1,-25 0,-57 -1,-104l-31 0 0 104z"/>
   <path class="fil55" d="M16393 8606l-32 0 -21 0 0 -21 0 -104 0 -21 21 0 31 0 21 0 0 21c0,12 0,23 0,34 0,30 1,53 0,71l-1 21 -21 0 2 -1z"/>
   <path class="fil47" d="M16361 8477l31 0c0,-14 0,-29 0,-45 0,-20 0,-39 0,-59l-31 0 0 104z"/>
   <path class="fil55" d="M16392 8498l-31 0 -21 0 0 -21 0 -104 0 -21 21 0 31 0 21 0 0 21 0 0 0 0c0,20 0,39 0,59l0 0 0 23c0,7 0,14 0,21l0 22 -22 0 1 0z"/>
   <path class="fil47" d="M16392 8588l-32 0 0 86c23,-27 30,-46 32,-86z"/>
   <path class="fil55" d="M16361 8566l31 0 22 0 -1 22c-1,22 -3,39 -9,54 -6,16 -14,29 -27,45l-38 45 0 -59 0 -86 0 -21 21 0 1 0z"/>
   <path class="fil47" d="M16361 7947l31 0c0,-35 -1,-69 -1,-104l-29 0 0 104 -1 0z"/>
   <path class="fil55" d="M16392 7968l-31 0 -21 0 0 -21 0 -104 0 -21 21 0 29 0 21 0 0 21c0,17 1,34 1,52 0,17 0,34 1,52l0 21 -21 0z"/>
   <path class="fil47" d="M16361 7840l29 0c-1,-35 -1,-69 -2,-104l-27 0 0 104z"/>
   <path class="fil55" d="M16390 7861l-29 0 -21 0 0 -21 0 -104 0 -21 21 0 27 0 21 0 0 21c0,17 1,34 1,52 0,17 1,35 1,52l0 22 -21 0 0 -1z"/>
   <path class="fil47" d="M16361 8054l31 0c0,-35 0,-69 -1,-104l-31 0 0 104 1 0z"/>
   <path class="fil55" d="M16392 8075l-31 0 -21 0 0 -21 0 -104 0 -21 21 0 31 0 21 0 0 21c0,17 0,34 0,52l0 52 0 21 -21 0z"/>
   <g id="_901704048">
    <path class="fil28" d="M11432 5824l-87 0 0 126 132 0c-14,-43 -29,-85 -45,-126z"/>
    <path class="fil28" d="M11558 6245c-10,-46 -21,-90 -33,-134l-180 0 0 134 213 0z"/>
    <path class="fil28" d="M11617 6557c-7,-45 -15,-90 -23,-134l-249 0 0 134 272 0z"/>
    <path class="fil28" d="M11656 6852c-5,-45 -10,-90 -16,-134l-295 0 0 134 311 0z"/>
    <path class="fil28" d="M11683 7147c-3,-45 -7,-89 -11,-134l-328 0 0 134 339 0z"/>
    <path class="fil28" d="M11702 7459c-2,-45 -4,-89 -7,-134l-350 0 0 134 357 0z"/>
    <path class="fil28" d="M11712 7732c-1,-45 -2,-89 -4,-134l-363 0 0 134 367 0z"/>
    <path class="fil28" d="M11716 8027c0,-45 -1,-89 -1,-134l-370 0 0 134 372 0 -1 0z"/>
    <path class="fil28" d="M11716 8338c0,-44 1,-89 1,-134l-372 0 0 134 371 0z"/>
    <path class="fil28" d="M11712 8634c10,-26 6,-58 4,-134l-372 0 0 134 368 0z"/>
    <path class="fil28" d="M11459 8929l74 -87c15,-17 28,-33 41,-47l-229 0 0 134 114 0z"/>
   </g>
   <path class="fil20" d="M12753 5824l196 0c252,753 274,1670 267,2608 0,276 28,162 -183,410l-190 223 -190 -223c-228,-267 -182,-125 -182,-433 -12,-947 35,-1951 283,-2585l-1 0z"/>
   <path class="fil23" d="M12499 7174c2,-23 3,-45 5,-68l560 0 0 68 -565 0z"/>
   <path class="fil21" d="M12609 5444c158,-76 323,-85 498,10 -26,154 -78,283 -182,377l-160 -2c-101,-97 -146,-229 -155,-384l-1 -1z"/>
   <path class="fil56" d="M15788 10122l591 0c23,0 42,19 42,42l0 287c0,23 -19,42 -42,42l-591 0c-23,0 -42,-19 -42,-42l0 -287c0,-23 19,-42 42,-42z"/>
   <path class="fil57" d="M15703 10267l762 0c23,0 42,19 42,42l0 287c0,23 -19,42 -42,42l-762 0c-23,0 -42,-19 -42,-42l0 -287c0,-23 19,-42 42,-42z"/>
   <path class="fil56" d="M15788 11707l591 0c23,0 42,-19 42,-42l0 -287c0,-23 -19,-42 -42,-42l-591 0c-23,0 -42,19 -42,42l0 287c0,23 19,42 42,42z"/>
   <path class="fil57" d="M15703 11562l762 0c23,0 42,-19 42,-42l0 -287c0,-23 -19,-42 -42,-42l-762 0c-23,0 -42,19 -42,42l0 287c0,23 19,42 42,42z"/>
   <path class="fil58" d="M15626 10430l910 0c61,0 112,50 112,112l0 761c0,61 -50,112 -112,112l-910 0c-61,0 -112,-50 -112,-112l0 -761c0,-61 50,-112 112,-112z"/>
   <path class="fil44" d="M15697 10509l774 0c51,0 93,42 93,93l0 632c0,51 -42,93 -93,93l-774 0c-51,0 -93,-42 -93,-93l0 -632c0,-51 42,-93 93,-93z"/>
   <path class="fil38" d="M16342 10650l0 0c6,5 7,15 2,22l-236 274c-5,6 -15,7 -22,2l0 0c-6,-6 -7,-15 -2,-22l236 -274c5,-6 15,-7 22,-2z"/>
   <path class="fil38" d="M16097 10846c37,0 67,30 67,67 0,37 -30,67 -67,67 -37,0 -67,-30 -67,-67 0,-37 30,-67 67,-67z"/>
   <path class="fil38" d="M15935 10749l0 0c9,-9 24,-10 33,-1l173 161 -44 0 0 22 -160 -149c-9,-9 -10,-24 -1,-33l-1 0z"/>
   <path class="fil2" d="M16097 10868c25,0 45,20 45,45 0,25 -20,45 -45,45 -25,0 -45,-20 -45,-45 0,-25 20,-45 45,-45z"/>
   <path class="fil14" d="M16100 11226l0 0c9,0 17,8 17,17l0 35c0,9 -8,17 -17,17l0 0c-9,0 -17,-8 -17,-17l0 -35c0,-9 8,-17 17,-17z"/>
   <path class="fil2" d="M16095 10948l0 0c6,0 10,5 10,10l0 224c0,6 -5,10 -10,10l0 0c-6,0 -10,-5 -10,-10l0 -224c0,-6 5,-10 10,-10z"/>
   <path class="fil14" d="M15609 10906l0 0c0,-9 8,-17 18,-17l96 3c9,0 17,8 17,18l0 0c0,9 -8,17 -18,17l-96 -3c-9,0 -17,-8 -17,-18z"/>
   <path class="fil14" d="M16429 10906l0 0c0,-9 8,-17 18,-17l96 3c9,0 17,8 17,18l0 0c0,9 -8,17 -18,17l-96 -3c-9,0 -17,-8 -17,-18z"/>
   <path class="fil14" d="M16100 10543l0 0c9,0 17,8 17,17l0 35c0,9 -8,17 -17,17l0 0c-9,0 -17,-8 -17,-17l0 -35c0,-9 8,-17 17,-17z"/>
   <path class="fil20" d="M5624 1319l0 2534c0,37 30,67 67,67l1037 0 -894 -2727c-50,13 -99,27 -147,41 -34,10 -63,50 -63,85z"/>
   <path class="fil59" d="M15781 5444c158,-76 323,-85 498,10 -26,154 -78,283 -182,377l-160 -2c-101,-97 -146,-229 -155,-384l-1 -1z"/>
  </g>
 </g>
</svg>
