<?xml version="1.0" encoding="UTF-8"?>
<!DOCTYPE svg PUBLIC "-//W3C//DTD SVG 1.1//EN" "http://www.w3.org/Graphics/SVG/1.1/DTD/svg11.dtd">
<!-- Creator: CorelDRAW X6 -->
<svg xmlns="http://www.w3.org/2000/svg" xml:space="preserve" width="210mm" height="148mm" version="1.1" style="shape-rendering:geometricPrecision; text-rendering:geometricPrecision; image-rendering:optimizeQuality; fill-rule:evenodd; clip-rule:evenodd"
viewBox="0 0 21000 14800"
 xmlns:xlink="http://www.w3.org/1999/xlink">
 <defs>
  <style type="text/css">
   <![CDATA[
    .str1 {stroke:#67BEDB;stroke-width:7.62}
    .str0 {stroke:#2D2E3B;stroke-width:20}
    .fil11 {fill:#00091C}
    .fil2 {fill:#026A6E}
    .fil1 {fill:#16828A}
    .fil21 {fill:#212121}
    .fil0 {fill:#248A91}
    .fil25 {fill:#2D2E3B}
    .fil22 {fill:#32AFB8}
    .fil28 {fill:#359399}
    .fil6 {fill:#442C61}
    .fil7 {fill:#464749}
    .fil14 {fill:#4B3852}
    .fil5 {fill:#513276}
    .fil16 {fill:#56377B}
    .fil24 {fill:#5D9DA6}
    .fil30 {fill:#67BEDB}
    .fil10 {fill:#697049}
    .fil9 {fill:#6E754D}
    .fil4 {fill:#72598F}
    .fil29 {fill:#809DA8}
    .fil15 {fill:#8667AA}
    .fil13 {fill:#8E837E}
    .fil17 {fill:#97AB33}
    .fil20 {fill:#A44D52}
    .fil23 {fill:#B099A8}
    .fil12 {fill:#B2C8D1}
    .fil19 {fill:#C24433}
    .fil8 {fill:#C5DA35}
    .fil26 {fill:#C77165}
    .fil18 {fill:#F2F3ED}
    .fil3 {fill:#464749;fill-rule:nonzero}
    .fil31 {fill:#67BEDB;fill-rule:nonzero}
    .fil27 {fill:#A44D52;fill-rule:nonzero}
   ]]>
  </style>
 </defs>
 <g id="Слой_x0020_1">
  <metadata id="CorelCorpID_0Corel-Layer"/>
  <g id="_229212144">
   <g id="_1099856400">
    <rect class="fil0" x="-173" y="-1" width="22500" height="13500"/>
    <path class="fil1" d="M11637 9186c-2081,0 -11404,19 -11396,5l-239 176 122 80 119 78 0 9 -119 80 -121 81 122 80 110 72 -111 74 -121 81 122 80 122 80c1,1 1,8 1,14l11389 1 0 -991z"/>
    <ellipse class="fil2" cx="9970" cy="10052" rx="4633" ry="728"/>
    <path class="fil3" d="M6567 2789c427,380 648,803 753,1248 107,449 95,917 63,1383 -23,335 -181,752 -355,1210 -426,1125 -949,2505 312,3358l0 0c180,122 647,198 1226,238 714,49 1591,42 2321,-2 430,-26 831,-115 1184,-264 344,-145 642,-346 875,-601 821,-897 346,-2375 -82,-3707 -223,-695 -434,-1350 -448,-1878 -4,-150 20,-257 54,-332 -190,12 -517,7 -1059,-65 -682,-91 -1217,-268 -1782,-455 -253,-84 -512,-169 -779,-246 -445,-128 -941,-239 -1363,-255 -320,-12 -595,29 -765,158 -56,43 -99,89 -126,133 -17,28 -28,54 -31,76l2 1zm607 1283c-101,-426 -314,-830 -731,-1192l-21 -19 -4 -28c-8,-61 10,-130 52,-198 36,-59 92,-119 163,-174 201,-153 508,-202 860,-188 435,17 944,130 1399,261 286,82 538,166 785,247 560,185 1090,360 1755,449 940,126 1234,101 1265,92 1,0 -44,48 -70,120 -38,100 -62,243 -60,331 13,505 221,1151 441,1835 441,1371 930,2892 50,3853 -248,271 -563,484 -927,637 -369,155 -795,171 -1241,198 -729,-23 -1578,-81 -2313,26 -603,-42 -1033,-145 -1237,-284l0 0c-1358,-919 -894,-2286 -450,-3461 169,-447 324,-854 345,-1167 31,-454 42,-908 -60,-1338l-1 0z"/>
    <path class="fil4" d="M10420 9961l1119 277 -1351 1248c-1,1 -15,-14 -14,-16l47 -148 47 -148 -151 33 -138 31 42 -134 47 -148 -151 33 -148 33 -6 -6 46 -145 47 -148 -151 33 -147 33 -10 -11 875 -819 -3 2z"/>
    <path class="fil5" d="M10474 11221l-286 264c-1,1 -15,-14 -14,-16l47 -148 47 -148 -151 33 -138 31 42 -134 47 -148 -151 33 -148 33 -6 -6 46 -145 47 -148 -151 33 -147 33 -10 -11 210 -197 719 638 -3 3z"/>
    <path class="fil6" d="M7273 9290l643 706 -875 819c-1,1 -15,-14 -14,-16l47 -148 47 -148 -151 33 -138 31 42 -134 47 -148 -151 33 -148 33 -6 -6 46 -145 47 -148 -151 33 -147 33 -10 -11 875 -819 -3 2z"/>
    <path class="fil7" d="M6492 2823c861,747 879,1672 816,2592 -79,1146 -1835,3400 -10,4635 426,289 2257,330 3594,249 867,-52 1625,-359 2110,-889 1285,-1403 -471,-4108 -510,-5637 -11,-437 217,-437 190,-436 -6,0 -246,102 -1260,-33 -972,-130 -1651,-439 -2550,-699 -803,-232 -1771,-405 -2193,-85 -129,98 -198,215 -186,303l-1 0z"/>
    <path class="fil2" d="M15215 9154l0 -1 -144 -54 -133 -50 108 -89 120 -98 -145 -54 -142 -54 -1 -9 117 -96 120 -98 -145 -54 -141 -53 -2 -15 369 -65c32,-268 95,-544 174,-789 -299,124 -84,-4 -909,424 -825,429 -2316,1504 -2858,2278 2,29 -2,41 -1,42 12,24 -1,-134 393,-326 627,-305 1956,-430 2986,-623 -1,-2 -5,-20 -3,-21l120 -98 119 -98 -2 1z"/>
    <path class="fil8" d="M14620 9373l238 -63 1 -15 309 127c149,-194 373,-702 426,-841 -10,6 -104,-28 -1001,216 -897,244 -2582,980 -3276,1622 -5,28 -11,40 -10,41 6,26 28,-132 453,-236 388,-95 2864,124 2562,-526 -39,-83 474,-213 299,-326l-1 1z"/>
    <path class="fil9" d="M15020 10199l0 -1 -129 -83 -119 -77 125 -64 138 -71 -130 -84 -128 -82 0 -9 135 -69 138 -71 -130 -84 -127 -82 1 -15 375 14c88,-255 208,-511 337,-734 -319,58 -81,-22 -978,222 -897,244 -2582,980 -3276,1622 -5,28 -11,40 -10,41 6,26 28,-132 453,-236 677,-166 2003,-6 3050,23 -1,-2 0,-20 2,-21l138 -71 137 -70 -2 2z"/>
    <path class="fil10" d="M15020 10199l0 -1 -129 -83 -119 -77 125 -64 138 -71 -130 -84 -128 -82 0 -9 135 -69 138 -71 -130 -84 -122 -79 -310 926c87,4 173,7 256,9 -1,-2 0,-20 2,-21l138 -71 137 -70 -1 1zm-217 -791l365 14c88,-255 208,-511 337,-734 -239,43 -165,9 -493,93l-210 627 1 0z"/>
    <path class="fil7" d="M15029 10200l0 -1 -259 -160c-3,1 -2298,-80 -2894,43 -243,151 -456,303 -616,451 -5,28 -11,40 -10,41 6,26 28,-132 453,-236 677,-166 2003,-6 3050,23 6,0 235,-141 276,-162l0 1z"/>
    <path class="fil11" d="M6606 2856c861,747 859,1686 796,2606 -79,1146 -1835,3400 -10,4635 426,289 2257,330 3594,249 867,-52 1625,-359 2110,-889 1285,-1403 -471,-4108 -510,-5637 -11,-437 135,-499 108,-499 -6,0 -164,165 -1178,29 -972,-130 -1651,-439 -2550,-699 -803,-232 -1771,-405 -2193,-85 -129,98 -178,202 -166,289l-1 1z"/>
    <path class="fil7" d="M7140 3558c177,338 252,697 276,1063 143,87 263,159 323,199 930,610 2070,1371 2758,1603 884,298 1132,295 2044,340 168,8 354,125 371,41 -218,-679 -422,-1320 -435,-1829 -11,-437 135,-499 108,-499 -6,0 -164,165 -1178,29 -972,-130 -1651,-439 -2550,-699 -574,-166 -1233,-302 -1716,-249l-1 1z"/>
    <path class="fil12" d="M7232 6155c-26,80 -54,162 -84,247 1629,-228 2914,-930 3343,-1823 101,-209 451,-430 451,-656 0,-167 96,-330 241,-488 -381,-68 -720,-163 -1054,-268 158,245 244,512 244,790 0,1103 -1357,2019 -3141,2198z"/>
    <path class="fil13" d="M6639 2844c44,39 34,103 74,143 736,725 750,1603 690,2475 -16,231 -100,507 -209,811 1629,-228 2914,-930 3343,-1823 101,-209 451,-430 451,-656 0,-167 96,-330 241,-488 -825,-147 -1455,-421 -2263,-654 -803,-232 -1771,-405 -2193,-85 -129,98 -145,190 -133,277l-1 0z"/>
    <path class="fil14" d="M6586 2872c506,439 2877,1950 3062,2529 571,-314 695,-546 907,-988 101,-209 451,-430 451,-656 0,-167 -559,213 -414,55 -825,-147 -912,-468 -1720,-701 -803,-232 -1373,-724 -1795,-403 -129,98 -502,77 -490,165l-1 -1z"/>
    <path class="fil15" d="M12888 5744l-40 -126c-67,3 -219,-11 -330,-71 -711,-383 -1160,9 -2044,-340 -1294,-512 -2575,-1867 -3846,-2413 13,41 -11,-90 -22,49 534,267 1679,1221 2309,1617 612,385 1147,758 1574,883 911,266 1147,264 2060,309 168,8 323,176 339,92z"/>
    <polygon class="fil16" points="11088,3104 11492,3122 11661,3717 11088,3693 "/>
    <path class="fil17" d="M13021 5650c-218,-679 -422,-1320 -435,-1829 -11,-437 135,-499 108,-499 -6,0 -164,165 -1178,29 -972,-130 -1651,-439 -2550,-699 -803,-232 -1771,-405 -2193,-85 -111,85 -159,180 -167,262 98,147 1032,698 1243,837 930,610 2070,1371 2758,1603 347,117 596,188 826,233 109,21 422,64 547,4 83,-40 68,-169 110,-237 174,-276 46,315 234,324 99,5 207,10 326,16 168,8 354,125 371,41z"/>
    <path class="fil9" d="M12872 5437c-178,-564 -326,-1091 -338,-1523 -11,-437 135,-499 108,-499 -6,0 -164,165 -1178,29 -232,-31 -446,-72 -652,-120 318,118 640,317 942,583 605,532 400,795 426,899 65,260 401,74 538,327 55,101 106,203 152,305l2 -1z"/>
    <path class="fil18" d="M11177 3297c-800,-149 -1421,-416 -2212,-645 -803,-232 -1771,-405 -2193,-85 -63,48 -111,100 -143,151 -81,129 -26,147 86,230 292,218 960,605 1133,718 714,469 1552,1026 2214,1364 435,-412 821,-1010 1115,-1733z"/>
    <path class="fil19" d="M6572 8397c-44,635 138,1239 820,1700 341,231 1579,303 2744,282 76,-204 548,52 585,-179 32,-197 -271,-870 -271,-1080 0,-1503 -1044,-2730 -2020,-2730 -976,0 -1637,850 -1859,2006l1 1z"/>
    <path class="fil20" d="M8708 10352c442,29 941,36 1428,27 26,-69 96,-85 180,-86 128,-122 391,14 490,-155 -81,-269 -355,-882 -355,-1018 0,-271 26,-805 -153,-1285 -51,-138 -125,-211 -195,-329 -240,-407 -643,-690 -685,-716 153,262 792,1098 678,1971 -114,873 -718,1538 -1399,1580l12 11 -1 0z"/>
    <path class="fil21" d="M12354 10003c287,-141 538,-324 741,-546 1285,-1403 -471,-4108 -510,-5637 -11,-437 135,-499 108,-499 -1,0 -11,9 -37,21 -283,543 -502,1299 -621,2177 -65,476 -100,988 -100,1522 0,1128 157,2162 417,2962l2 0z"/>
    <path class="fil7" d="M11998 8244c63,600 179,1181 323,1657 218,-84 292,-114 639,-466 348,-352 649,-1145 349,-1442 -276,-272 -839,-156 -1311,251z"/>
    <circle class="fil15" cx="11305" cy="6082" r="511"/>
    <circle class="fil8" cx="11227" cy="6082" r="511"/>
    <circle class="fil13" cx="11267" cy="6028" r="472"/>
    <circle class="fil2" cx="11151" cy="6069" r="367"/>
    <circle class="fil22" cx="11124" cy="5818" r="116"/>
    <path class="fil4" d="M9956 10413c17,-2 236,27 501,34 109,3 226,2 340,-6 339,-24 651,-135 662,-144 -127,24 -346,-27 -470,-245 -288,-504 -445,-1511 -473,-1780 -40,-382 -61,-784 -61,-1199 0,-747 64,-1527 207,-2147 151,-656 465,-1238 829,-1805l-454 -156 -136 452c-159,417 -339,938 -422,1304 -154,681 -242,1474 -242,2321 0,500 31,981 88,1431 39,311 103,678 176,1019 35,164 126,372 94,556 -45,252 -665,282 -638,365l-1 0z"/>
    <path class="fil23" d="M11358 3332c43,-71 87,-141 132,-211l-454 -156 -85 282 406 85 1 0z"/>
    <path class="fil17" d="M10903 10122c-290,-503 -445,-1511 -473,-1780 -40,-382 -61,-784 -61,-1199 0,-604 42,-1229 133,-1774l-204 -95c-95,563 -148,1185 -148,1838 0,500 31,981 88,1431 39,311 103,678 176,1019 35,164 127,372 94,556 -23,129 -566,261 -484,241 121,-29 524,-117 722,-99 336,31 406,293 157,-139l0 1z"/>
    <path class="fil16" d="M11300 10350c94,-26 154,-49 159,-53 -695,128 -973,-1982 -997,-3271 -11,-619 45,-1220 131,-1759l-207 -81c-96,564 -150,1200 -150,1856 0,500 31,981 88,1431 39,311 103,678 176,1019 35,164 126,372 94,556 -34,194 -410,256 -569,313l1275 -11z"/>
    <path class="fil1" d="M22326 10986c-2081,0 -11404,19 -11396,5l-239 176 122 80 119 78 0 9 -119 80 -121 81 122 80 110 72 -111 74 -121 81 122 80 122 80c1,1 1,8 1,14l11389 1 0 -991z"/>
    <circle class="fil24" cx="11287" cy="5911" r="63"/>
    <path class="fil8" d="M10495 11201c42,-18 836,-706 1013,-795 231,-116 610,-274 822,-372 366,-170 715,-470 812,-576 1285,-1403 -518,-4108 -510,-5637 2,-459 87,-507 63,-497 -35,13 -68,143 -91,287 -246,1559 1307,3414 812,4978 -255,807 -887,1258 -1580,1558 -310,134 -346,131 -415,166 -62,31 -244,250 -312,310 -78,68 -599,573 -614,579l0 -1z"/>
    <path class="fil21" d="M12295 5834c-93,282 -325,369 -329,828 -9,958 -275,1939 -595,2531 -208,385 -366,365 -343,378 1,1 14,-2 42,1 391,-249 810,-622 1225,-1093 159,-180 454,-653 720,-624 280,30 -2,-295 80,-417l-800 0 0 -1604z"/>
    <path class="fil11" d="M10790 6013c-2,17 -4,34 -4,51 0,203 164,367 367,367 203,0 367,-164 367,-367 0,-17 -1,-35 -4,-51 -25,178 -178,316 -363,316 -185,0 -338,-137 -363,-316z"/>
    <circle class="fil24" cx="11147" cy="5831" r="36"/>
    <path class="fil5" d="M7331 10545l-286 264c-1,1 -15,-14 -14,-16l47 -148 47 -148 -151 33 -138 31 42 -134 47 -148 -151 33 -148 33 -6 -6 46 -145 47 -148 -151 33 -147 33 -10 -11 210 -197 719 638 -3 3z"/>
    <polygon class="fil25 str0" points="11416,6336 11422,6386 11429,6436 11381,6415 11334,6394 11375,6365 "/>
    <polygon class="fil25 str0" points="11502,6214 11526,6259 11549,6303 11497,6300 11446,6297 11474,6256 "/>
    <path class="fil26" d="M8398 6927c-430,-114 -825,109 -1078,405 -663,774 41,1336 385,781 118,-191 223,-457 438,-600 249,-166 557,-2 595,-262 16,-111 -59,-249 -340,-324z"/>
    <path class="fil27" d="M8389 6959c-191,-51 -375,-32 -542,31 -196,74 -369,209 -503,364 -253,295 -301,555 -246,730 21,66 56,119 100,156 43,37 95,59 151,63 109,8 232,-54 327,-207 27,-43 54,-92 82,-143 93,-168 195,-354 367,-468 113,-75 235,-86 341,-96 122,-11 221,-20 239,-143 8,-51 -9,-110 -65,-164 -50,-47 -130,-91 -250,-123l-1 0zm-566 -31c179,-67 377,-87 582,-33 132,35 222,84 279,139 75,71 96,151 85,222 -26,174 -148,185 -299,199 -98,9 -211,19 -311,85 -158,105 -256,283 -345,444 -28,50 -55,99 -84,146 -110,177 -256,248 -388,238 -69,-5 -135,-33 -189,-79 -53,-46 -96,-109 -120,-187 -61,-193 -11,-477 259,-792 140,-163 322,-305 530,-383l1 1z"/>
    <path class="fil28" d="M11609 933c1346,0 662,1447 1833,680 148,-97 139,-157 145,-148 41,64 -372,679 -436,760 -416,527 -986,905 -1542,915 -609,11 -1103,-494 -1103,-1103 0,-609 521,-1103 1103,-1103l0 -1z"/>
    <rect class="fil29" transform="matrix(0.358916 0.206899 -0.206899 0.358916 11456.6 2308.73)" width="935" height="1605"/>
    <polygon class="fil22" points="11187,2648 11663,2905 11648,2941 11172,2683 "/>
    <polygon class="fil30" points="11306,2482 11385,2503 11811,2692 11789,2757 11312,2500 "/>
    <circle class="fil22" cx="11608" cy="2113" r="497"/>
    <polygon class="fil30" points="11263,2557 11739,2814 11728,2858 11252,2600 "/>
    <path class="fil12" d="M8306 2614c-591,-110 -1144,-121 -1459,98 583,-90 985,-36 1459,103l0 -201z"/>
    <circle class="fil22" transform="matrix(0.194061 0.0554368 -0.0743744 0.260354 11578.9 2176.99)" r="1199"/>
    <path class="fil31 str1" d="M11672 1837l0 0 4 1c73,21 128,79 157,156 28,74 32,166 6,258l0 0c-26,92 -78,168 -141,216 -65,50 -142,70 -215,49 -73,-21 -128,-79 -157,-156 -28,-74 -32,-166 -6,-258l0 0 0 0c26,-92 78,-168 141,-216 64,-49 139,-69 211,-50zm109 176c-23,-60 -65,-106 -120,-121l0 0c-55,-16 -115,1 -166,40 -54,41 -98,106 -121,187l0 0 0 0c-23,80 -20,160 4,223 23,60 65,106 120,121 55,16 115,-1 166,-40 54,-41 98,-106 121,-187l0 0c23,-80 20,-160 -4,-223z"/>
    <path class="fil2" d="M12704 1720c123,149 299,179 746,-114 148,-97 139,-157 145,-148 40,64 -372,679 -436,760 -379,480 -793,943 -1570,923 -609,-15 -1103,-494 -1103,-1103 0,-609 521,-1103 1103,-1103 107,0 200,9 283,25 -594,6 -1053,569 -1043,1100 15,817 1297,1298 1839,380 73,-124 78,-280 78,-415 0,-106 -14,-208 -41,-305l-1 0z"/>
   </g>
  </g>
 </g>
</svg>
