<?xml version="1.0" encoding="UTF-8"?>
<!DOCTYPE svg PUBLIC "-//W3C//DTD SVG 1.1//EN" "http://www.w3.org/Graphics/SVG/1.1/DTD/svg11.dtd">
<!-- Creator: CorelDRAW X6 -->
<svg xmlns="http://www.w3.org/2000/svg" xml:space="preserve" width="210mm" height="148mm" version="1.1" style="shape-rendering:geometricPrecision; text-rendering:geometricPrecision; image-rendering:optimizeQuality; fill-rule:evenodd; clip-rule:evenodd"
viewBox="0 0 21000 14800"
 xmlns:xlink="http://www.w3.org/1999/xlink">
 <defs>
  <style type="text/css">
   <![CDATA[
    .fil7 {fill:#04848F}
    .fil18 {fill:#0A6F99}
    .fil0 {fill:#122D31}
    .fil1 {fill:#3A4758}
    .fil2 {fill:#406360}
    .fil11 {fill:#4D7571}
    .fil12 {fill:#5D827A}
    .fil10 {fill:#717178}
    .fil6 {fill:#85CDCC}
    .fil19 {fill:#95969A}
    .fil22 {fill:#B2E7F8}
    .fil15 {fill:#B8B8B8}
    .fil13 {fill:#C26B1F}
    .fil20 {fill:#E67E22}
    .fil3 {fill:#F6F6F6}
    .fil21 {fill:#F7E6A3}
    .fil16 {fill:#F8F8F8}
    .fil5 {fill:#FDFDFF}
    .fil4 {fill:#FFA800}
    .fil24 {fill:#04848F;fill-rule:nonzero}
    .fil9 {fill:#406360;fill-rule:nonzero}
    .fil23 {fill:#85CDCC;fill-rule:nonzero}
    .fil17 {fill:#95969A;fill-rule:nonzero}
    .fil8 {fill:#E67E22;fill-rule:nonzero}
    .fil14 {fill:#FFA800;fill-rule:nonzero}
   ]]>
  </style>
 </defs>
 <g id="Слой_x0020_1">
  <metadata id="CorelCorpID_0Corel-Layer"/>
  <g id="_808845872">
   <polygon class="fil0" points="-1109,13513 21391,13513 21391,13 -1109,13 "/>
   <polygon class="fil1" points="3967,11201 5784,11201 5784,10437 3967,10437 "/>
   <polygon class="fil2" points="2971,11206 5129,11206 5129,10531 2971,10531 "/>
   <polygon class="fil3" points="3976,3382 4599,3382 4970,10022 4895,11068 4335,11090 3748,10715 3624,10029 "/>
   <polygon class="fil4" points="4947,9609 4962,9875 3669,9875 3669,9609 "/>
   <polygon class="fil4" points="4912,8986 4927,9253 3669,9253 3669,9185 3679,8986 "/>
   <path class="fil5" d="M4187 9385c0,-270 -219,-489 -489,-489 -270,0 -489,219 -489,489 0,270 219,489 489,489 270,0 489,-219 489,-489z"/>
   <path class="fil6" d="M3959 9444c0,2 0,4 0,6 0,144 -117,261 -261,261 -144,0 -261,-117 -261,-261 0,-2 0,-4 0,-6l522 0z"/>
   <polygon class="fil4" points="4947,10172 4962,10439 3669,10439 3669,10172 "/>
   <polygon class="fil2" points="5758,11194 7882,11194 7882,10367 5758,10367 "/>
   <path class="fil6" d="M4583 8568l804 0c86,0 156,134 156,300l0 1732c0,166 -70,300 -156,300l-804 0c-86,0 -156,-134 -156,-300l0 -1732c0,-166 70,-300 156,-300z"/>
   <path class="fil7" d="M5124 8568l262 0c86,0 156,70 156,156l0 2020c0,86 -70,156 -156,156l-262 0c-86,0 -156,-70 -156,-156l0 -2020c0,-86 70,-156 156,-156z"/>
   <path class="fil8" d="M5757 9866l0 619c0,168 -69,321 -179,432 -111,111 -264,179 -432,179l-926 0c-168,0 -321,-69 -432,-179 -111,-111 -179,-264 -179,-432l0 -619 214 0 0 619c0,109 45,209 117,281 72,72 172,117 281,117l926 0c109,0 209,-45 281,-117 72,-72 117,-172 117,-281l0 -619 214 0 -2 0z"/>
   <polygon class="fil4" points="4878,8385 4893,8652 3697,8652 3711,8385 "/>
   <polygon class="fil4" points="4845,7782 4860,8049 3729,8049 3743,7782 "/>
   <polygon class="fil4" points="4809,7147 4824,7414 3762,7414 3777,7147 "/>
   <polygon class="fil4" points="4775,6529 4790,6796 3795,6796 3809,6529 "/>
   <polygon class="fil4" points="4738,5871 4753,6138 3830,6138 3844,5871 "/>
   <polygon class="fil4" points="4706,5298 4721,5565 3860,5565 3875,5298 "/>
   <polygon class="fil4" points="4674,4720 4689,4987 3891,4987 3905,4720 "/>
   <polygon class="fil4" points="4644,4194 4659,4461 3919,4461 3933,4194 "/>
   <polygon class="fil4" points="4615,3675 4630,3942 3946,3942 3961,3675 "/>
   <path class="fil9" d="M7527 8367l0 -455c0,-54 22,-103 58,-139 36,-36 85,-58 139,-58l1154 0c54,0 103,22 139,58 36,36 58,85 58,139l0 851 -57 0 0 -851c0,-38 -16,-73 -41,-99 -25,-25 -60,-41 -99,-41l-1154 0c-38,0 -73,16 -99,41 -25,25 -41,60 -41,99l0 455 -57 0z"/>
   <path class="fil9" d="M5510 8174l0 -455c0,-54 22,-103 58,-139 36,-36 85,-58 139,-58l1154 0c54,0 103,22 139,58 36,36 58,85 58,139l0 851 -57 0 0 -851c0,-38 -16,-73 -41,-99 -25,-25 -60,-41 -99,-41l-1154 0c-38,0 -73,16 -99,41 -25,25 -41,60 -41,99l0 455 -57 0z"/>
   <polygon class="fil10" points="6890,10189 7535,10189 7535,5740 6890,5740 "/>
   <path class="fil11" d="M6749 5082c-16,153 106,251 69,587l136 -106c169,-103 508,-45 546,-401 22,-200 -129,-381 -336,-404 -207,-22 -393,122 -415,323l0 1z"/>
   <path class="fil12" d="M7228 5201c-77,12 -109,85 -279,112l70 53c73,69 90,244 269,215 101,-16 170,-114 154,-219 -17,-105 -112,-177 -214,-161z"/>
   <polygon class="fil13" points="6737,5773 7688,5773 7688,5506 6737,5506 "/>
   <polygon class="fil1" points="8219,10188 8653,10188 8653,5072 8219,5072 "/>
   <path class="fil2" d="M9754 3173c-210,78 -259,302 -723,475l227 108c245,154 391,635 881,453 276,-103 414,-418 308,-704 -106,-286 -417,-434 -693,-332z"/>
   <path class="fil12" d="M8649 3672c-100,201 17,398 -203,841l240 -76c284,-56 719,196 952,-272 131,-264 17,-588 -256,-724 -273,-136 -601,-32 -733,232l0 -1z"/>
   <path class="fil11" d="M8539 4968c-105,0 -163,-90 -395,-90l82 -85c83,-107 68,-343 313,-343 138,0 250,116 250,259 0,143 -112,259 -250,259z"/>
   <path class="fil2" d="M9614 3297c24,118 138,162 190,422l76 -111c102,-117 368,-153 313,-428 -31,-155 -186,-254 -346,-221 -160,32 -264,184 -233,338z"/>
   <path class="fil2" d="M10842 2730c0,-127 -103,-230 -230,-230 -127,0 -230,103 -230,230 0,127 103,230 230,230 127,0 230,-103 230,-230z"/>
   <path class="fil2" d="M11199 2596c0,-45 -37,-82 -82,-82 -45,0 -82,37 -82,82 0,45 37,82 82,82 45,0 82,-37 82,-82z"/>
   <polygon class="fil13" points="8091,5072 8781,5072 8781,4805 8091,4805 "/>
   <polygon class="fil1" points="6184,10365 7882,10365 7882,9621 6184,9621 "/>
   <path class="fil14" d="M5540 9944c1,-167 69,-320 179,-430 111,-111 264,-179 432,-179l926 0c168,0 321,69 432,179 110,110 179,262 179,430l-214 0c-1,-108 -45,-207 -117,-279 -72,-72 -172,-117 -281,-117l-926 0c-109,0 -209,45 -281,117 -72,72 -116,170 -117,279l-214 0 2 0z"/>
   <polygon class="fil15" points="7897,11206 9799,11206 9799,9449 7897,9449 "/>
   <path class="fil16" d="M11660 11036l-1902 0 0 -1592 -63 -81 -70 -67 511 -356 511 -356 511 356 498 354c0,0 3,1589 3,1742l1 0z"/>
   <polygon class="fil16" points="10595,10103 10923,10103 10923,9484 10595,9484 "/>
   <path class="fil17" d="M10637 10060l243 0 0 -534 -243 0 0 534zm286 85l-328 0 -42 0 0 -42 0 -619 0 -42 42 0 328 0 42 0 0 42 0 619 0 42 -42 0z"/>
   <path class="fil8" d="M10491 10574c0,279 140,419 419,419l699 0 0 -1524 -279 0 0 406 -419 0c-279,0 -419,140 -419,419l0 279 -1 1zm838 140l-419 0c-93,0 -140,-47 -140,-140l0 -279c0,-93 47,-140 140,-140l419 0 0 559zm637 279l-206 0 0 -823 206 0 0 823zm0 -916l-206 0 0 -206 206 0 0 206zm1047 299l112 0 0 617 206 0 0 -617 112 0 0 -206 -112 0 0 -299 -206 0 0 299 -112 0 0 206zm748 617l-206 0 0 -823 206 0 0 823zm0 -916l-206 0 0 -206 206 0 0 206zm318 916l0 -1122 -206 0 0 1122 206 0zm318 0l0 -1122 -206 0 0 1122 206 0zm1271 0l0 -617 309 0c69,0 103,34 103,103l206 0c0,-206 -103,-309 -309,-309l-514 0 0 823 206 0 -1 0zm727 411l95 0 0 0c136,0 244,-80 323,-241l84 -170 411 -823 -230 0 -282 570 -284 -570 -230 0 395 789 -60 123c-52,77 -95,116 -129,116l-93 0 0 206z"/>
   <path class="fil14" d="M12901 10737c0,170 -85,255 -256,256l-510 0 0 -206 510 0c34,0 50,-17 50,-50 0,-35 -17,-52 -50,-52l-310 0c-171,-1 -256,-89 -256,-262 0,-168 85,-252 256,-252l510 0 0 206 -510 0c-32,0 -49,17 -50,50 1,35 18,52 50,52l310 0c171,0 256,86 256,258zm2449 -71l0 -206c0,-206 -105,-309 -314,-309l-213 0c-209,0 -314,103 -314,309l0 206 0 19c0,206 103,309 309,309l495 0 0 -206 -495 0c-69,0 -103,-34 -103,-103l0 -19 636 0 -1 0zm-636 -206c0,-69 34,-103 103,-103l224 0c69,0 103,34 103,103l-430 0z"/>
   <polygon class="fil13" points="7769,9494 9927,9494 9927,9314 7769,9314 "/>
   <polygon class="fil7" points="8122,10077 8511,10077 8511,9688 8122,9688 "/>
   <polygon class="fil18" points="8122,10694 8511,10694 8511,10305 8122,10305 "/>
   <polygon class="fil6" points="8673,10077 9062,10077 9062,9688 8673,9688 "/>
   <polygon class="fil7" points="8673,10694 9062,10694 9062,10305 8673,10305 "/>
   <polygon class="fil7" points="9206,10077 9595,10077 9595,9688 9206,9688 "/>
   <polygon class="fil18" points="9206,10694 9595,10694 9595,10305 9206,10305 "/>
   <polygon class="fil19" points="10643,8417 11154,8773 11904,9295 11659,9295 11154,8943 10643,8587 10131,8943 9653,9281 9486,9226 10131,8773 "/>
   <polygon class="fil15" points="9967,10116 10295,10116 10295,9497 9967,9497 "/>
   <path class="fil17" d="M10009 10073l243 0 0 -534 -243 0 0 534zm286 85l-328 0 -42 0 0 -42 0 -619 0 -42 42 0 328 0 42 0 0 42 0 619 0 42 -42 0z"/>
   <polygon class="fil20" points="11250,10116 11578,10116 11578,9497 11250,9497 "/>
   <path class="fil14" d="M11284 10082l260 0 0 -551 -260 0 0 551zm294 68l-328 0 -34 0 0 -34 0 -619 0 -34 34 0 328 0 34 0 0 34 0 619 0 34 -34 0z"/>
   <polygon class="fil19" points="7618,11207 16386,11207 16386,10983 7618,10983 "/>
   <path class="fil15" d="M6867 9907l865 0c93,0 168,75 168,168l0 969c0,93 -75,168 -168,168l-865 0c-93,0 -168,-75 -168,-168l0 -969c0,-93 75,-168 168,-168z"/>
   <polygon class="fil21" points="7351,9955 7822,9955 7822,9766 7351,9766 "/>
   <path class="fil21" d="M7726 10697l0 218c0,62 -51,113 -113,113l-582 0c-62,0 -113,-51 -113,-113l0 -218 808 0z"/>
   <path class="fil12" d="M4645 2070c-100,201 17,398 -203,841l240 -76c284,-56 719,196 952,-272 131,-264 17,-588 -256,-724 -273,-136 -601,-32 -733,232l0 -1z"/>
   <path class="fil12" d="M4546 3255c-57,0 -89,-49 -215,-49l45 -46c45,-58 37,-186 170,-186 75,0 136,63 136,141 0,78 -61,141 -136,141l0 -1z"/>
   <polygon class="fil22" points="4835,8591 5135,8591 5135,8402 4835,8402 "/>
   <path class="fil23" d="M5155 7236l2496 0c62,0 118,25 159,66 41,41 66,97 66,159l9 1858 -114 0 -9 -1858c0,-31 -13,-58 -33,-78 -20,-20 -48,-33 -78,-33l-2496 0c-31,0 -58,13 -79,33 -20,20 -33,48 -33,78l0 955 -114 0 0 -955c0,-62 25,-118 66,-159 41,-41 97,-66 159,-66l1 0z"/>
   <path class="fil24" d="M7577 8238l0 455c0,54 -22,103 -58,139 -36,36 -85,58 -139,58l-1681 0c-54,0 -103,-22 -139,-58 -36,-36 -58,-85 -58,-139l0 -455 57 0 0 455c0,38 16,73 41,99 25,25 60,41 99,41l1681 0c38,0 73,-16 99,-41 25,-25 41,-60 41,-99l0 -455 57 0z"/>
   <polygon class="fil20" points="8848,8606 9288,8962 9728,9318 8848,9318 7968,9318 8408,8962 "/>
   <path class="fil15" d="M5708 8088c0,-94 -77,-171 -171,-171 -94,0 -171,77 -171,171 0,94 77,171 171,171 94,0 171,-77 171,-171z"/>
   <polygon class="fil5" points="5501,7935 5573,7935 5573,7829 5501,7829 "/>
   <path class="fil12" d="M5750 1572c-210,78 -259,302 -723,475l227 108c245,154 391,635 881,453 276,-103 414,-418 308,-704 -106,-286 -417,-434 -693,-332z"/>
   <path class="fil12" d="M5610 1696c24,118 138,162 190,422l76 -111c102,-117 368,-153 313,-428 -31,-155 -186,-254 -346,-221 -160,32 -264,184 -233,338z"/>
   <path class="fil12" d="M6838 1128c0,-127 -103,-230 -230,-230 -127,0 -230,103 -230,230 0,127 103,230 230,230 127,0 230,-103 230,-230z"/>
   <path class="fil12" d="M7194 994c0,-45 -37,-82 -82,-82 -45,0 -82,37 -82,82 0,45 37,82 82,82 45,0 82,-37 82,-82z"/>
   <path class="fil2" d="M7134 4326c-16,153 106,251 69,587l136 -106c169,-103 508,-45 546,-401 22,-200 -129,-381 -336,-404 -207,-22 -393,122 -415,323l0 1z"/>
   <path class="fil2" d="M10813 3634c0,-127 -103,-230 -230,-230 -127,0 -230,103 -230,230 0,127 103,230 230,230 127,0 230,-103 230,-230z"/>
   <path class="fil2" d="M11035 2344c0,-45 -37,-82 -82,-82 -45,0 -82,37 -82,82 0,45 37,82 82,82 45,0 82,-37 82,-82z"/>
   <path class="fil2" d="M11288 2203c0,-21 -17,-38 -38,-38 -21,0 -38,17 -38,38 0,21 17,38 38,38 21,0 38,-17 38,-38z"/>
   <path class="fil11" d="M8025 4620c0,-45 -37,-82 -82,-82 -45,0 -82,37 -82,82 0,45 37,82 82,82 45,0 82,-37 82,-82z"/>
   <path class="fil6" d="M7992 8851c0,-94 -77,-171 -171,-171 -94,0 -171,77 -171,171 0,94 77,171 171,171 94,0 171,-77 171,-171z"/>
   <polygon class="fil5" points="7768,8698 7883,8698 7883,8592 7768,8592 "/>
  </g>
 </g>
</svg>
