<?xml version="1.0" encoding="UTF-8"?>
<!DOCTYPE svg PUBLIC "-//W3C//DTD SVG 1.1//EN" "http://www.w3.org/Graphics/SVG/1.1/DTD/svg11.dtd">
<!-- Creator: CorelDRAW X6 -->
<svg xmlns="http://www.w3.org/2000/svg" xml:space="preserve" width="210mm" height="148mm" version="1.1" style="shape-rendering:geometricPrecision; text-rendering:geometricPrecision; image-rendering:optimizeQuality; fill-rule:evenodd; clip-rule:evenodd"
viewBox="0 0 21000 14800"
 xmlns:xlink="http://www.w3.org/1999/xlink">
 <defs>
  <style type="text/css">
   <![CDATA[
    .fil11 {fill:none}
    .fil2 {fill:#41546E}
    .fil0 {fill:#445975}
    .fil10 {fill:#524E52}
    .fil8 {fill:#8C591E}
    .fil6 {fill:#A66E2E}
    .fil5 {fill:#B05513}
    .fil7 {fill:#B3752E}
    .fil14 {fill:#BA615D}
    .fil9 {fill:#CACFBE}
    .fil3 {fill:white}
    .fil1 {fill:#41546E;fill-rule:nonzero}
    .fil13 {fill:#66472F;fill-rule:nonzero}
    .fil12 {fill:#8C591E;fill-rule:nonzero}
    .fil4 {fill:white;fill-rule:nonzero}
   ]]>
  </style>
 </defs>
 <g id="Слой_x0020_1">
  <metadata id="CorelCorpID_0Corel-Layer"/>
  <g id="_851032608">
   <rect class="fil0" x="-728" y="-99" width="22500" height="13500"/>
   <g id="_776764816">
    <path class="fil1" d="M10709 6996c56,-6 115,-12 168,-18 16,-2 38,-4 65,-6 -1,-8 -2,-16 -3,-25 -2,-44 10,-90 35,-135 11,-20 24,-40 40,-60 -91,-16 -172,-36 -247,-55l0 0 -2 -1 0 0c-57,-15 -118,-32 -179,-50 -36,-11 -70,-21 -103,-31 -5,6 -10,12 -15,19 -19,24 -39,49 -61,74l0 0c-2,3 -8,10 -18,21 -6,7 -11,14 -17,22l-10 13 -12 8c-68,46 -25,17 -49,33l-17 11c96,31 185,65 266,102 31,14 63,29 94,45 23,11 44,23 64,34l1 -1zm386 155c-50,3 -96,6 -133,9 63,48 116,95 158,137l0 0 0 0 0 0c6,6 11,11 15,15l0 0c6,6 11,11 14,15l0 0 13 14c1,1 5,6 12,14l1 0 1 1 0 0c2,2 6,7 11,13 8,10 10,12 11,13l0 0 1 2 0 0 4 5 0 1 4 5 0 0 1 1 1 1 4 5 1 1 3 5 1 1 1 2 3 5 1 1 3 4 0 0 0 1 1 1 3 5 1 1 3 4 1 1 1 1 0 1 2 4 1 1 2 4 0 1 1 1 1 1 2 4 1 2 2 4 1 2 1 1 0 0 1 3 1 2 1 3 0 0 1 1 1 3 1 3 1 3 1 3 1 3 0 1 0 1 1 2 1 2 1 2 0 2 0 2 1 3 1 3 0 1c1,3 1,6 2,8l1 3 0 1 0 1 0 2 0 5 0 2 0 3 0 1 0 3c0,2 0,6 0,9l0 0c0,4 -1,8 -2,12l-1 3 0 0c-1,2 -2,6 -3,10l0 0c-1,2 -2,6 -4,11l-1 1 0 1 -2 4c-2,4 -4,8 -7,12 -4,6 -8,11 -12,14l-2 2 -3 3c-3,2 -5,5 -8,6l0 0c-4,3 -8,5 -13,8l-1 1 -1 0 -4 2c-3,2 -7,3 -12,5l0 0c-4,1 -9,2 -14,3l-2 0 0 0c-2,0 -6,1 -11,1l0 0c-3,0 -6,0 -10,0l-1 0 -1 0 -2 0c-5,0 -11,-1 -18,-2l-1 0 0 0c-1,0 -2,0 -2,-1l0 0 0 0c-1,0 -2,-1 -4,-1l-2 0 -2 -1 -3 -1 -1 0 -3 -1 -3 -1 -2 -1c-3,-1 -5,-2 -7,-3l0 0c-189,-82 -372,-53 -542,25 -182,83 -355,223 -507,350l-1 1 -38 31 -27 22 -2 1 -8 6 0 0c-11,9 -21,17 -29,24 -10,8 -22,16 -35,26 -222,155 -473,304 -781,391 -308,87 -670,110 -1111,12 -573,-127 -852,-425 -980,-722 -69,-160 -94,-320 -97,-452 -4,-133 15,-242 30,-295 2,-6 4,-13 6,-18 -23,-80 -62,-174 -103,-276 -112,-274 -248,-609 -232,-991 18,-417 198,-776 467,-1046 176,-177 390,-315 623,-406 233,-91 484,-136 735,-125 382,17 760,162 1066,467 49,49 84,65 112,65 8,0 17,-2 27,-6l-3 -10c-9,-31 -16,-64 -22,-99 -13,-71 -18,-154 -14,-255 5,-99 18,-214 44,-353l16 -86c28,11 180,78 332,160 93,50 179,115 256,151 94,-52 193,-93 296,-122 113,-31 229,-46 345,-41 85,4 166,15 242,32 53,12 105,28 155,47 94,-115 192,-192 306,-245 129,-60 271,-88 444,-109l137 -16 -34 133 0 1 0 1c-3,11 -37,140 -47,216 -2,13 -6,50 -11,88 -24,202 -49,414 -169,540l-2 2c6,14 11,28 15,42 7,22 14,44 20,67 207,23 238,355 154,442 110,96 211,180 301,254 139,115 251,208 329,290 72,-2 146,11 199,36 40,19 71,47 89,84 20,42 22,89 -3,140 -17,36 -50,75 -104,118 62,42 113,90 150,138 41,52 69,105 83,152 18,62 14,119 -11,161 -15,25 -36,44 -62,56 -38,17 -72,18 -102,10 -1,2 -2,5 -3,7 -13,26 -31,50 -52,67 -20,17 -44,29 -69,35 -30,6 -60,3 -90,-12 -5,-2 -9,-5 -14,-8 -4,12 -9,23 -16,34 -48,76 -136,102 -308,-7 -26,-16 -55,-29 -85,-39 3,5 5,10 7,15 17,38 26,74 29,107 3,44 -8,84 -31,115 -14,18 -32,33 -53,42 -38,17 -72,18 -102,10 -1,2 -2,5 -3,7 -13,26 -31,50 -52,67 -20,17 -44,29 -69,35 -30,6 -60,3 -90,-12 -5,-2 -9,-5 -14,-8 -4,12 -9,23 -16,34 -48,76 -136,102 -308,-7 -102,-64 -249,-70 -372,-75 -23,-1 -45,-2 -63,-3 -39,3 -89,6 -136,9l1 0zm208 -1802l3 0 5 0c65,-45 132,-85 197,-117 -2,-2 -4,-3 -6,-5 -4,-3 -7,-5 -9,-7 -21,-20 -35,-46 -39,-73 -5,-32 2,-65 23,-91l0 0c3,-4 5,-6 6,-7l0 0c30,-32 72,-41 119,-36l4 0c29,-45 70,-91 118,-125 19,-13 40,-25 61,-34l-1 -3c-11,-33 -25,-65 -39,-95l-42 -87 89 -40c6,-2 11,-5 15,-8 3,-2 5,-3 6,-5 76,-79 98,-260 118,-430 3,-23 5,-46 11,-91 4,-31 11,-68 19,-103 -96,16 -179,39 -252,73 -102,48 -191,123 -278,244l-45 63 -70 -32c-58,-27 -121,-48 -189,-64 -66,-15 -135,-25 -207,-28 -97,-4 -194,8 -288,34 -41,11 -81,25 -121,41 168,98 250,217 270,336 17,97 -8,190 -59,271 81,-17 163,-13 239,9 90,25 172,76 235,147 8,-3 15,-6 23,-8 51,-17 100,-17 138,10l0 0c3,2 6,4 9,7 28,24 43,57 44,92 1,30 -7,61 -26,87l0 0c-3,4 -5,7 -8,10 -15,18 -33,35 -52,52 -4,3 -7,6 -11,9l0 2 -4 1 -5 4 -1 -3zm70 193l-8 0c-18,14 -35,27 -52,42 -126,107 -230,236 -269,368 -2,8 -5,17 -7,25l0 0c-2,9 -4,18 -5,24 -37,228 -339,339 -601,399l4 1 2 1 39 13c52,17 107,34 161,50 53,16 110,32 172,47l0 0 2 1 0 0c120,31 256,66 419,74l275 14 -226 158c-66,46 -117,98 -142,144 -7,14 -12,25 -12,33 9,6 25,11 50,14 4,1 14,1 27,3 15,1 24,2 31,2 25,1 45,2 66,3 146,6 322,13 466,104 49,31 38,79 47,65 0,0 -3,-29 -4,-54 -4,-57 -8,-105 37,-144 42,-36 92,-36 163,22 -15,-48 -15,-89 41,-126l0 0c31,-20 56,-25 78,-19 -15,-15 -32,-30 -50,-44l-240 -184 301 14c66,3 136,8 204,22 73,15 145,39 210,80 49,31 38,79 47,65 0,0 -3,-29 -4,-54 -4,-57 -8,-105 37,-144 42,-36 92,-36 163,22 -15,-48 -15,-89 41,-126l0 0c31,-20 56,-25 78,-19 -50,-51 -121,-99 -212,-131l-151 -53 119 -106 1 -1 0 0c-1,0 -1,1 0,0l0 0 2 -2 33 -31 45 6c3,0 5,1 6,0 54,-33 89,-60 107,-80 -34,-11 -82,-14 -129,-8l-50 6 -32 -38c-67,-78 -186,-177 -338,-303 -121,-100 -263,-218 -421,-360l0 0 0 0c-2,-1 1,1 0,0l-30 -22 -93 20c-70,15 -152,47 -235,93 21,45 -1,69 -51,105l-37 -52 -7 5 8 43c8,7 10,12 2,13 -9,2 -23,4 -44,3l-36 -2 2 -1zm-276 -14c-56,-1 -107,-1 -158,2 -39,13 -79,25 -119,35 -45,12 -88,22 -129,29 -20,4 -37,7 -50,9 -14,2 -29,4 -47,6 -18,2 -35,4 -52,5l-132 100c-9,-11 -17,-24 -25,-36 -7,-12 -15,-25 -22,-39l43 -22c-18,-1 -34,-3 -46,-5 -46,-9 -76,-34 -88,-73l-29 -98 63 -13 0 -2 6 0c-1,-79 18,-157 54,-228 5,-10 10,-19 16,-28 -55,15 -112,23 -169,21 -177,-4 -354,-91 -467,-303 -28,10 -58,17 -92,18 -76,2 -157,-28 -249,-119 -270,-269 -604,-398 -941,-413 -224,-10 -449,30 -658,112 -209,82 -401,206 -558,363 -238,239 -396,555 -413,921 -15,341 113,655 218,912 51,125 97,237 122,341 58,120 158,78 356,-5 100,-42 220,-92 373,-141 339,-108 553,-175 749,-210 183,-32 350,-37 581,-20 15,-21 32,-44 49,-71 21,-31 41,-64 62,-98 19,-32 39,-62 59,-89 22,-30 44,-56 65,-79l11 -11 13 -7c23,-12 46,-23 69,-33l0 0c8,-3 16,-6 24,-9l-1 -7 72 -14 682 -177 -338 190 17 5c5,2 13,4 23,8 12,4 20,7 23,8l19 7c13,-2 28,-4 44,-7l0 0c209,-33 691,-109 721,-295 2,-14 5,-26 7,-37l0 0c3,-12 6,-24 10,-36 22,-74 59,-147 106,-215l-4 -6 4 -2 0 0 3 -2 0 0 4 -3 0 0 0 0 0 1c35,-50 75,-97 119,-142l0 2zm318 -23c15,8 29,16 37,23l-8 -43c-10,6 -19,13 -29,20zm-998 107l0 0 1 -15 0 0 -1 15zm1123 610c9,6 15,11 40,28 34,23 72,50 104,70l-102 158c-47,-30 -80,-53 -109,-73 -3,-2 -6,-4 -38,-26l106 -157 -1 0zm-1503 764l-168 115 0 0 -162 111 202 -295c-13,-2 -26,-5 -39,-7l-35 -6 -10 -1c-14,-2 -31,-5 -52,-8 -11,-2 -29,-4 -54,-7l-41 -5 -7 -1 -36 -4 0 0 -35 -4c-31,-4 -55,-6 -68,-8 -28,-3 -50,-5 -64,-7l-35 -4 -12 -1c-22,-2 -40,-4 -53,-5l-19 -2 -61 -5c-253,-21 -421,-20 -604,12 -189,33 -396,98 -725,203 -137,44 -256,94 -356,136 -218,92 -360,151 -471,81 -1,21 -1,43 0,66 3,112 24,247 82,382 108,250 347,501 847,612 406,90 738,70 1019,-10 282,-79 516,-218 724,-363 8,-6 17,-13 27,-20 11,-9 20,-16 27,-22l3 -3 8 -6 26 -21 38 -31 0 0c162,-135 345,-283 548,-376 148,-68 305,-105 470,-87 -34,-31 -73,-64 -119,-98 -54,-40 -117,-82 -190,-123 -28,-16 -55,-30 -83,-44 -27,-13 -55,-27 -86,-41 -87,-39 -184,-76 -290,-108 -33,-10 -66,-19 -101,-28l-47 32 2 1zm-135 -686l-72 41c-1,11 -3,23 -6,36 -2,9 -5,18 -8,28l25 -14c7,-11 14,-22 21,-32l0 0c15,-22 28,-41 40,-58l0 -1zm1875 -1149l82 20 79 -4c4,-71 0,-130 -45,-143l0 0c-2,0 1,0 -2,0 -2,-1 -2,-1 -3,-1 -18,-3 -38,5 -57,18 -35,24 -64,64 -81,98l0 0 -2 4c9,3 19,5 28,8l1 0zm121 187c-1,-1 0,0 0,0l0 0zm778 811c1,0 0,0 0,0l0 0zm91 554c2,-5 1,-5 -8,3 -16,13 -5,6 8,-3zm-788 366c2,-5 1,-5 -8,3 -16,13 -5,6 8,-3zm-4362 -1786c40,-27 94,-59 152,-93 157,-92 353,-208 365,-266 19,-90 23,-136 8,-147 -30,-20 -111,-16 -249,3 -172,24 -331,99 -457,207 -124,107 -214,245 -249,398 -32,138 -19,266 27,380 39,96 101,185 180,263 -46,-115 -53,-257 -19,-390 36,-139 116,-271 242,-356l0 1zm248 70c-55,32 -106,62 -143,87 -85,56 -139,148 -164,246 -27,108 -19,220 24,300 56,103 80,175 83,221 3,48 -13,83 -42,108 -31,26 -69,33 -110,23 -41,-9 -93,-40 -146,-82 -145,-116 -261,-257 -327,-420 -60,-149 -77,-315 -36,-493 45,-192 157,-365 310,-497 152,-131 346,-222 554,-251 185,-26 305,-25 382,28 92,63 107,168 70,341 -30,139 -266,278 -455,389zm3227 -90l-7 -12c-40,-66 -104,-112 -175,-132 -72,-20 -152,-15 -226,20 -67,32 -117,84 -148,144 -23,45 -35,95 -33,145 22,-1 47,-3 74,-6 10,-1 23,-3 39,-5 17,-3 31,-5 43,-7 36,-7 75,-16 116,-26 38,-10 78,-22 118,-36 53,-18 104,-38 150,-60 17,-8 34,-17 51,-25l-2 0zm220 70c0,1 0,0 0,0l0 0 0 0 0 0 0 0 0 0 0 0 0 0zm-1484 -976c-4,87 0,156 11,214 5,29 11,57 18,82 7,24 15,48 23,72 74,197 207,274 338,277 104,3 208,-39 282,-104 67,-58 108,-135 95,-210 -16,-94 -112,-194 -333,-276 -22,-8 4,1 -8,-3l0 0 -7 -3c-85,-30 -274,-153 -401,-237 -10,69 -16,131 -18,186l0 2z"/>
    <ellipse class="fil2" cx="11545" cy="6962" rx="2853" ry="377"/>
    <path class="fil3" d="M10865 7092c63,-6 132,-13 200,-22 54,-7 203,-14 341,-24m-309 -1611c140,-9 278,1 495,14 22,1 38,-9 19,5m-948 202c-14,-19 -27,-39 -38,-60m1039 704c39,26 89,62 146,99m271 -1469c-16,-75 -41,-147 -74,-216 21,-9 39,-21 51,-34 114,-119 127,-365 154,-574 11,-86 49,-228 49,-228 -329,39 -536,104 -730,375 -127,-58 -271,-94 -431,-101 -218,-9 -437,57 -629,173m-503 433c-85,53 -178,102 -319,-38 -958,-955 -2673,-248 -2731,1047 -24,533 274,983 345,1288m3213 -361c-33,22 -66,44 -98,67 30,-47 65,-95 106,-142 38,-45 72,-87 101,-126 -20,-6 -38,-13 -57,-19 -27,43 -57,91 -88,145 -35,62 -70,119 -103,171 -30,21 -61,42 -91,62 50,-73 104,-158 160,-256 29,-50 56,-95 82,-136 -52,-18 -98,-35 -136,-48 -60,96 -140,211 -243,346 -16,21 -31,41 -45,60 244,42 453,110 626,188 63,29 122,58 176,89 164,92 285,189 365,270l0 0c9,9 18,18 26,27l0 0c8,9 16,17 23,26l1 1c7,8 13,16 19,23l1 2c2,3 5,6 7,9l1 1c2,3 5,7 7,10l1 2c2,3 4,6 6,9l0 1c2,3 4,6 6,9l1 1c2,3 3,5 4,8l1 1c1,3 3,5 4,8l1 1c1,2 2,4 3,6l1 1c1,2 2,4 3,6l0 1c1,2 1,3 1,5l0 2c0,2 1,3 1,5l0 1c0,1 0,3 0,4l0 1c0,1 0,3 0,4l0 1c0,1 -1,2 -1,3l0 1c0,1 -1,2 -2,2l0 0c-1,1 -1,1 -2,1l-1 0c-1,0 -2,1 -3,1l0 0c-1,0 -2,0 -4,0l-1 0c-1,0 -3,0 -5,-1l-1 0c-1,0 -3,-1 -5,-1l-1 0c-2,-1 -4,-1 -6,-2 -436,-189 -832,127 -1148,389 -22,18 -44,35 -66,53l-8 6c-20,16 -40,32 -61,47 -429,300 -970,576 -1817,388 -1239,-275 -996,-1379 -961,-1383 2,4 3,8 5,11 132,296 327,79 847,-87 668,-213 842,-264 1365,-220 0,-10 1,-20 2,-30 39,-51 81,-114 127,-190 36,-60 75,-111 112,-152 37,-20 78,-37 121,-48 -52,29 -129,108 -199,223 -48,80 -92,145 -133,199 33,3 68,6 105,10 8,-12 16,-23 24,-34 155,-197 222,-319 237,-382 3,-13 4,-21 3,-25 13,-2 26,-4 40,-6 2,11 1,25 -3,41 -16,68 -86,197 -245,400 -3,4 -5,7 -8,11 42,4 86,9 133,15 23,3 47,5 72,8 59,-77 128,-176 207,-301 34,-54 67,-103 98,-147 14,4 27,9 41,14 -33,46 -68,99 -106,158 -72,114 -136,207 -193,282 37,4 73,9 109,15 18,-26 38,-53 59,-80 99,-130 177,-241 235,-333 -43,-16 -68,-25 -69,-24 150,-29 829,-98 876,-385 3,-20 8,-41 14,-61 97,-325 523,-624 800,-682 -73,-17 -141,-47 -195,-89 -14,-11 -17,-30 -7,-41 13,-14 59,-5 103,7 3,-7 6,-15 10,-23 41,-80 133,-184 238,-167 5,1 10,2 14,3 132,36 119,159 111,294 16,3 29,4 38,4 9,0 -21,20 -62,25 -17,2 -35,4 -53,5 3,2 6,4 9,7 356,322 639,521 768,672 185,-20 407,65 81,263 -20,12 -43,15 -67,12 -2,1 -3,3 -5,4 312,110 421,383 332,422 -73,33 -154,-120 -178,-105 -21,13 53,113 27,165 -24,47 -68,74 -104,32 -285,-335 67,279 -309,40 -107,-68 -245,-81 -367,-87 164,126 211,291 144,322 -73,33 -154,-120 -178,-105 -21,13 53,113 27,165 -24,47 -68,74 -104,32 -285,-335 67,279 -309,40 -144,-91 -342,-84 -487,-93 -23,-1 -45,-3 -65,-6 -225,-29 -134,-223 63,-361 -174,-9 -316,-45 -440,-77 -119,-30 -236,-66 -339,-100 -32,44 -70,91 -113,142 -13,15 -26,31 -38,46l-1 1zm-2630 -1333c157,-105 529,-286 558,-417 57,-263 -24,-302 -347,-257 -380,53 -704,331 -785,677 -78,334 76,616 329,818 125,100 216,113 74,-152 -104,-193 -50,-522 171,-669zm3970 -157c0,2 0,3 0,5 0,-2 0,-3 0,-5zm0 7c0,2 0,3 0,5 0,-2 0,-3 0,-5zm0 7c0,2 0,3 0,5 0,-2 0,-3 0,-5zm0 7c0,2 0,3 0,5 0,-2 0,-3 0,-5zm0 7c0,2 0,4 0,5 0,-2 0,-4 0,-5zm1 7c0,2 0,3 1,5 0,-2 0,-3 -1,-5zm-336 -18c16,-19 15,-46 -2,-58 -22,-15 -81,9 -137,39 -105,-173 -331,-240 -523,-148 -174,84 -264,271 -227,448 -16,4 -33,7 -51,11 2,6 22,10 56,12l0 1 0 -1c39,1 97,-1 164,-8 27,-3 57,-7 89,-13 76,-14 162,-37 247,-66 105,-36 208,-82 287,-135 1,2 1,4 2,6 -1,-2 -1,-4 -2,-6 38,-26 71,-53 95,-82l2 0zm-93 91c1,2 1,4 2,7 -1,-2 -1,-4 -2,-7zm2 9c1,2 1,5 1,7 0,-2 -1,-5 -1,-7zm2 10c0,2 1,5 1,7 0,-2 -1,-5 -1,-7zm2 10c0,2 1,5 1,7 0,-2 -1,-5 -1,-7zm2 10c0,2 1,5 1,7 0,-2 -1,-5 -1,-7zm1 9c0,2 1,5 1,7 0,-2 0,-5 -1,-7zm-174 380c-2,1 -3,2 -5,3 2,-1 3,-2 5,-3zm-17 11c-2,1 -4,2 -5,3 2,-1 4,-2 5,-3zm-7 4c-2,1 -5,3 -8,4 3,-1 5,-3 8,-4zm-1277 -1167c-23,-128 -19,-306 31,-574 11,1 385,264 501,305 6,2 11,4 17,6 1013,375 -194,1252 -503,433 -19,-51 -35,-107 -46,-171l0 1z"/>
    <path class="fil4" d="M10885 6996c56,-6 115,-12 168,-18 16,-2 38,-4 65,-6 -1,-8 -2,-16 -3,-25 -2,-44 10,-90 35,-135 11,-20 24,-40 40,-60 -91,-16 -172,-36 -247,-55l0 0 -2 -1 0 0c-57,-15 -118,-32 -179,-50 -36,-11 -70,-21 -103,-31 -5,6 -10,12 -15,19 -19,24 -39,49 -61,74l0 0c-2,3 -8,10 -18,21 -6,7 -11,14 -17,22l-10 13 -12 8c-68,46 -25,17 -49,33l-17 11c96,31 185,65 266,102 31,14 63,29 94,45 23,11 44,23 64,34l1 -1zm386 155c-50,3 -96,6 -133,9 63,48 116,95 158,137l0 0 0 0 0 0c6,6 11,11 15,15l0 0c6,6 11,11 14,15l0 0 13 14c1,1 5,6 12,14l1 0 1 1 0 0c2,2 6,7 11,13 8,10 10,12 11,13l0 0 1 2 0 0 4 5 0 1 4 5 0 0 1 1 1 1 4 5 1 1 3 5 1 1 1 2 3 5 1 1 3 4 0 0 0 1 1 1 3 5 1 1 3 4 1 1 1 1 0 1 2 4 1 1 2 4 0 1 1 1 1 1 2 4 1 2 2 4 1 2 1 1 0 0 1 3 1 2 1 3 0 0 1 1 1 3 1 3 1 3 1 3 1 3 0 1 0 1 1 2 1 2 1 2 0 2 0 2 1 3 1 3 0 1c1,3 1,6 2,8l1 3 0 1 0 1 0 2 0 5 0 2 0 3 0 1 0 3c0,2 0,6 0,9l0 0c0,4 -1,8 -2,12l-1 3 0 0c-1,2 -1,6 -3,10l0 0c-1,2 -2,6 -4,11l-1 1 0 1 -2 4c-2,4 -4,8 -7,12 -4,6 -8,11 -12,14l-2 2 -3 3c-3,2 -5,5 -8,6l0 0c-4,3 -8,5 -13,8l-1 1 -1 0 -4 2c-3,2 -7,3 -12,5l0 0c-4,1 -9,2 -14,3l-2 0 0 0c-2,0 -6,1 -11,1l0 0c-3,0 -6,0 -10,0l-1 0 -1 0 -2 0c-5,0 -11,-1 -18,-2l-1 0 0 0c-2,0 -2,0 -2,-1l0 0 0 0c-1,0 -2,-1 -4,-1l-2 0 -2 -1 -3 -1 -1 0 -3 -1 -3 -1 -2 -1c-3,-1 -5,-2 -7,-3l0 0c-189,-82 -372,-53 -542,25 -182,83 -355,223 -507,350l-1 1 -38 31 -27 22 -2 1 -8 6 0 0c-11,9 -21,17 -29,24 -10,8 -22,16 -35,26 -222,155 -473,304 -781,391 -308,87 -670,110 -1111,12 -573,-127 -852,-425 -980,-722 -69,-160 -94,-320 -97,-452 -4,-133 15,-242 30,-295 2,-6 4,-13 6,-18 -23,-80 -62,-174 -103,-276 -112,-274 -248,-609 -232,-991 18,-417 198,-776 467,-1046 176,-177 390,-315 623,-406 233,-91 484,-136 735,-125 382,17 760,162 1066,467 49,49 84,65 112,65 8,0 17,-2 27,-6l-3 -10c-9,-31 -16,-64 -22,-99 -13,-71 -18,-154 -14,-255 5,-99 18,-214 44,-353l16 -86c28,11 180,78 332,160 93,50 179,115 256,151 94,-52 193,-93 296,-122 113,-31 229,-46 345,-41 85,4 166,15 242,32 53,12 105,28 155,47 94,-115 192,-192 306,-245 129,-60 271,-88 444,-109l137 -16 -34 133 0 1 0 1c-3,11 -37,140 -47,216 -2,13 -6,50 -11,88 -24,202 -49,414 -169,540l-2 2c6,14 11,28 15,42 7,22 14,44 20,67 207,23 238,355 154,442 110,96 211,180 301,254 139,115 251,208 329,290 72,-2 146,11 199,36 40,19 71,47 89,84 20,42 22,89 -3,140 -17,36 -50,75 -104,118 62,42 113,90 150,138 41,52 69,105 83,152 18,62 14,119 -11,161 -15,25 -36,44 -63,56 -38,17 -72,18 -102,10 -1,2 -2,5 -3,7 -13,26 -31,50 -52,67 -20,17 -44,29 -69,35 -30,6 -60,3 -90,-12 -5,-2 -9,-5 -14,-8 -4,12 -9,23 -16,34 -48,76 -136,102 -308,-7 -26,-16 -55,-29 -85,-39 3,5 5,10 7,15 17,38 26,74 29,107 3,44 -8,84 -31,115 -14,18 -32,33 -53,42 -38,17 -72,18 -102,10 -1,2 -2,5 -3,7 -13,26 -31,50 -52,67 -20,17 -44,29 -69,35 -30,6 -60,3 -90,-12 -5,-2 -9,-5 -14,-8 -4,12 -9,23 -16,34 -48,76 -136,102 -308,-7 -102,-64 -249,-70 -372,-75 -23,-1 -45,-2 -63,-3 -39,3 -89,6 -136,9l2 0zm208 -1802l3 0 5 0c65,-45 132,-85 197,-117 -2,-2 -4,-3 -7,-5 -4,-3 -7,-5 -9,-7 -21,-20 -35,-46 -39,-73 -5,-32 2,-65 23,-91l0 0c3,-4 5,-6 6,-7l0 0c30,-32 72,-41 119,-36l4 0c29,-45 70,-91 118,-125 19,-13 40,-25 61,-34l-1 -3c-11,-33 -25,-65 -39,-95l-42 -87 89 -40c6,-2 11,-5 15,-8 3,-2 5,-3 6,-5 76,-79 98,-260 118,-430 3,-23 5,-46 11,-91 4,-31 11,-68 19,-103 -96,16 -179,39 -252,73 -102,48 -191,123 -278,244l-45 63 -70 -32c-58,-27 -121,-48 -189,-64 -66,-15 -135,-25 -207,-28 -97,-4 -194,8 -288,34 -41,11 -81,25 -121,41 168,98 250,217 270,336 17,97 -8,190 -59,271 81,-17 163,-13 239,9 90,25 172,76 235,147 8,-3 15,-6 23,-8 51,-17 100,-17 138,10l0 0c3,2 6,4 9,7 28,24 43,57 44,92 1,30 -7,61 -26,87l0 0c-3,4 -5,7 -8,10 -15,18 -33,35 -52,52 -4,3 -7,6 -11,9l0 2 -4 1 -5 4 0 -3zm70 193l-8 0c-18,14 -35,27 -52,42 -126,107 -230,236 -269,368 -2,8 -5,17 -7,25l0 0c-2,9 -4,18 -5,24 -37,228 -339,339 -601,399l4 1 2 1 39 13c52,17 107,34 161,50 53,16 110,32 172,47l0 0 2 1 0 0c120,31 256,66 419,74l275 14 -226 158c-66,46 -117,98 -142,144 -7,14 -12,25 -12,33 9,6 25,11 50,14 4,1 14,1 27,3 15,1 24,2 31,2 25,1 45,2 66,3 146,6 322,13 466,104 49,31 38,79 47,65 0,0 -3,-29 -4,-54 -4,-57 -8,-105 37,-144 42,-36 92,-36 163,22 -15,-48 -15,-89 41,-126l0 0c31,-20 56,-25 78,-19 -15,-15 -32,-30 -50,-44l-240 -184 301 14c66,3 136,8 204,22 73,15 145,39 210,80 49,31 38,79 47,65 0,0 -3,-29 -4,-54 -4,-57 -8,-105 37,-144 42,-36 92,-36 163,22 -15,-48 -15,-89 41,-126l0 0c31,-20 56,-25 78,-19 -50,-51 -121,-99 -212,-131l-151 -53 119 -106 1 -1 0 0c-1,0 -1,1 0,0l0 0 2 -2 33 -31 45 6c3,0 5,1 6,0 54,-33 89,-60 107,-80 -34,-11 -82,-14 -129,-8l-50 6 -32 -38c-67,-78 -186,-177 -338,-303 -121,-100 -263,-218 -421,-360l0 0 0 0c-2,-1 1,1 0,0l-30 -22 -93 20c-70,15 -152,47 -235,93 21,45 -1,69 -51,105l-37 -52 -7 5 8 43c8,7 10,12 2,13 -9,2 -23,4 -44,3l-36 -2 2 -1zm-276 -14c-56,-1 -107,-1 -158,2 -39,13 -79,25 -119,35 -45,12 -88,22 -129,29 -20,4 -37,7 -50,9 -14,2 -29,4 -47,6 -18,2 -35,4 -52,5l-132 100c-9,-11 -17,-24 -25,-36 -7,-12 -15,-25 -22,-39l43 -22c-18,-1 -34,-3 -46,-5 -46,-9 -76,-34 -88,-73l-29 -98 63 -13 0 -2 6 0c-1,-79 18,-157 54,-228 5,-10 10,-19 16,-28 -55,15 -112,23 -169,21 -177,-4 -354,-91 -467,-303 -28,10 -58,17 -92,18 -76,2 -157,-28 -249,-119 -270,-269 -604,-398 -941,-413 -224,-10 -449,30 -658,112 -209,82 -401,206 -558,363 -238,239 -396,555 -413,921 -15,341 113,655 218,912 51,125 97,237 122,341 58,120 158,78 356,-5 100,-42 219,-92 372,-141 339,-108 553,-175 749,-210 183,-32 350,-37 581,-20 15,-21 32,-44 49,-71 21,-31 41,-64 62,-98 19,-32 39,-62 59,-89 22,-30 44,-56 65,-79l11 -11 13 -7c23,-12 46,-23 69,-33l0 0c8,-3 16,-6 24,-9l-1 -7 72 -14 682 -177 -338 190 17 5c5,2 13,4 23,8 12,4 20,7 23,8l19 7c13,-2 28,-4 44,-7l0 0c209,-33 691,-109 721,-295 2,-14 5,-26 7,-37l0 0c3,-12 6,-24 10,-36 22,-74 59,-147 106,-215l-4 -6 4 -2 0 0 3 -2 0 0 4 -3 0 0 0 0 0 1c35,-50 75,-97 119,-142l1 2zm318 -23c15,8 29,16 37,23l-8 -43c-10,6 -19,13 -29,20zm-998 107l0 0 1 -15 0 0 -1 15zm1123 610c9,6 15,11 40,28 34,23 72,50 104,70l-102 158c-47,-30 -80,-53 -109,-73 -3,-2 -6,-4 -38,-26l106 -157 -1 0zm-1503 764l-168 115 0 0 -162 111 202 -295c-13,-2 -26,-5 -39,-7l-35 -6 -10 -1c-14,-2 -31,-5 -52,-8 -11,-2 -29,-4 -54,-7l-41 -5 -7 -1 -36 -4 0 0 -35 -4c-31,-4 -55,-6 -68,-8 -28,-3 -50,-5 -64,-7l-35 -4 -12 -1c-22,-2 -40,-4 -53,-5l-19 -2 -61 -5c-253,-21 -421,-20 -604,12 -189,33 -396,98 -725,203 -137,44 -256,94 -356,136 -218,92 -360,151 -471,81 -1,21 -1,43 0,66 3,112 24,247 82,382 108,250 347,501 847,612 406,90 738,70 1019,-10 282,-79 516,-218 724,-363 8,-6 17,-13 27,-20 11,-9 20,-16 27,-22l3 -3 8 -6 26 -21 38 -31 0 0c162,-135 345,-283 548,-376 148,-68 305,-105 470,-87 -34,-31 -73,-64 -119,-98 -54,-40 -117,-82 -190,-123 -28,-16 -55,-30 -83,-44 -27,-13 -55,-27 -86,-41 -87,-39 -184,-76 -290,-108 -33,-10 -66,-19 -101,-28l-47 32 2 1zm-135 -686l-72 41c-1,11 -3,23 -6,36 -2,9 -5,18 -8,28l25 -14c7,-11 14,-22 21,-32l0 0c15,-22 28,-41 40,-58l0 -1zm1875 -1149l82 20 79 -4c4,-71 0,-130 -45,-143l0 0c-2,0 1,0 -2,0 -2,-1 -2,-1 -3,-1 -18,-3 -38,5 -57,18 -35,24 -64,64 -81,98l0 0 -2 4c9,3 19,5 28,8l1 0zm121 187c-1,-1 0,0 0,0l0 0zm778 811c1,0 0,0 0,0l0 0zm91 554c2,-5 1,-5 -8,3 -16,13 -5,6 8,-3zm-788 366c2,-5 1,-5 -8,3 -16,13 -5,6 8,-3zm-4362 -1786c40,-27 94,-59 152,-93 157,-92 353,-208 365,-266 19,-90 23,-136 8,-147 -30,-20 -111,-16 -249,3 -172,24 -331,99 -457,207 -124,107 -214,245 -249,398 -32,138 -19,266 27,380 39,96 101,185 180,263 -47,-115 -53,-257 -19,-390 36,-139 116,-271 242,-356l0 1zm248 70c-55,32 -106,62 -143,87 -85,56 -139,148 -164,246 -27,108 -19,220 24,300 56,103 80,175 83,221 3,48 -13,83 -42,108 -31,26 -69,33 -110,23 -41,-9 -93,-40 -146,-82 -145,-116 -261,-257 -327,-420 -60,-149 -77,-315 -36,-493 45,-192 157,-365 310,-497 152,-131 346,-222 554,-251 185,-26 305,-25 382,28 92,63 107,168 70,341 -30,139 -266,278 -455,389zm3227 -90l-7 -12c-40,-66 -104,-112 -175,-132 -72,-20 -152,-15 -226,20 -67,32 -117,84 -148,144 -23,45 -35,95 -34,145 22,-1 47,-3 74,-6 10,-1 23,-3 39,-5 17,-3 31,-5 43,-7 36,-7 75,-16 116,-26 38,-10 78,-22 118,-36 53,-18 104,-38 150,-60 17,-8 34,-17 51,-25l-1 0zm220 70c0,1 0,0 0,0l0 0 0 0 0 0 0 0 0 0 0 0 0 0zm-1484 -976c-4,87 0,156 11,214 5,29 11,57 18,82 7,24 15,48 23,72 74,197 207,274 338,277 104,3 208,-39 282,-104 67,-58 108,-135 95,-210 -16,-94 -112,-194 -333,-276 -22,-8 4,1 -8,-3l0 0 -7 -3c-85,-30 -274,-153 -401,-237 -10,69 -16,131 -18,186l0 2z"/>
    <g>
     <path class="fil5" d="M10526 6511l165 -47c-347,-9 -492,130 -676,372 -54,71 236,389 641,284 76,-20 245,-29 409,-50 101,-13 530,-28 604,-54 64,-22 -222,-54 -210,-93 143,-465 -636,-546 -933,-413l0 1z"/>
     <path class="fil5" d="M11490 4310c207,-320 418,-391 770,-433 0,0 -38,142 -49,228 -27,209 -40,455 -154,574 -137,143 -853,75 -566,-370l-1 1z"/>
     <path class="fil6" d="M10045 4711c242,-333 647,-577 1053,-560 1123,48 1496,1521 101,2129 -1048,457 -1438,1259 -2775,1080 -414,-56 -866,388 -1059,-37l-99 -79c84,-286 -378,-819 -349,-1479 57,-1295 1773,-2003 2731,-1047 185,185 288,42 398,-7l-1 0z"/>
     <path class="fil7" d="M10636 6586c-12,8 -25,16 -37,24 -659,427 -1125,892 -2175,751 -110,-15 -224,6 -334,36 13,-54 533,-123 535,-180 3,-91 1088,1 1032,-55 -469,-471 36,-1040 586,-793 53,24 186,14 237,41 34,18 246,10 279,30 45,28 38,55 -124,147l1 -1z"/>
     <path class="fil5" d="M10474 6692c-33,22 -66,44 -98,67 30,-47 65,-95 106,-142 61,-72 111,-137 150,-193 17,1 33,2 48,3 -42,63 -98,137 -168,220 -13,15 -26,31 -38,46l0 -1zm-139 94c-30,21 -61,42 -91,62 50,-73 104,-158 160,-256 39,-67 75,-126 108,-177 13,2 30,3 47,4 -37,54 -77,119 -121,196 -35,62 -70,119 -103,171zm-863 0c-1,-24 0,-47 2,-70 39,-51 81,-114 127,-190 36,-60 75,-111 112,-152 37,-20 78,-37 121,-48 -52,29 -129,108 -199,223 -60,99 -114,177 -163,237zm398 -468c13,-2 26,-4 40,-6 2,11 1,25 -3,41 -16,68 -86,197 -245,400 -30,38 -53,82 -67,123 -12,-7 -24,-15 -35,-23 16,-44 41,-89 71,-129 155,-197 222,-319 237,-382 3,-13 4,-21 3,-25l-1 1zm293 20c14,4 27,9 41,14 -33,46 -68,99 -106,158 -144,227 -255,370 -338,453 -14,-6 -28,-12 -41,-18 81,-77 194,-219 346,-459 34,-54 67,-103 98,-147l0 -1zm152 45c15,2 30,3 46,4 -61,100 -145,222 -256,367 -80,105 -138,194 -176,266 -14,-4 -27,-7 -40,-11 40,-77 100,-172 185,-283 103,-135 183,-249 242,-343l-1 0zm466 78c5,13 -5,29 -34,53 11,-18 23,-35 34,-53z"/>
     <path class="fil5" d="M9920 4586c-23,-128 -19,-306 31,-574 11,1 385,264 501,305 1108,394 -334,1375 -532,268l0 1z"/>
     <path class="fil8" d="M12129 6675c145,19 385,-8 552,98 376,239 24,-375 309,-40 36,42 80,16 104,-32 26,-51 -47,-151 -27,-165 24,-16 105,138 178,105 116,-52 -108,-508 -688,-465 -381,28 -771,454 -428,499z"/>
     <path class="fil5" d="M11341 7041c145,19 385,-8 552,98 376,239 24,-375 309,-40 36,42 80,16 104,-32 26,-51 -47,-151 -27,-165 24,-16 105,138 178,105 116,-52 -108,-508 -688,-465 -381,28 -771,454 -428,499z"/>
     <path class="fil9" d="M10241 6370c6,-3 353,138 723,233 215,55 483,124 884,37 22,-5 46,-9 68,-16 43,-13 24,-45 -34,-69 -32,-13 -38,-69 -20,-75 19,-6 205,101 224,94 94,-31 180,-61 258,-89 1072,-382 642,-453 -208,-1220 -182,-164 -945,265 -1020,719 -47,288 -725,356 -876,385l1 1z"/>
     <path class="fil10" d="M12730 6062c-38,-204 757,-165 255,140 -94,57 -245,-83 -255,-140z"/>
     <path class="fil5" d="M7256 7042c-35,4 -278,1108 961,1383 847,188 1388,-87 1817,-388 154,-108 258,-266 393,-360 281,-197 574,-272 890,-135 162,70 -286,-619 -1414,-751 -899,-105 -973,-88 -1796,174 -526,168 -719,389 -852,76l1 1z"/>
     <path class="fil9" d="M10104 7984c22,-18 44,-35 66,-53 315,-262 711,-578 1148,-389 153,67 -238,-545 -1233,-724 -170,-21 -443,100 -263,109 105,5 147,8 216,29 54,16 91,41 30,50 -95,13 -152,3 -259,26 -156,32 -348,90 69,110 598,29 -384,275 -255,419 4,4 404,-115 468,-115 52,0 -469,622 -34,251 344,-293 -233,479 -27,341 26,-17 51,-36 75,-54l-1 0z"/>
     <path class="fil11" d="M11663 6300c175,118 570,418 787,186"/>
     <path class="fil12" d="M11433 6279c376,118 754,282 1132,124 44,-18 61,-29 71,-25 24,9 -203,112 -190,95l46 -3c-62,85 -35,202 -161,214 -35,3 -140,-12 -226,-35 -207,-56 -672,-342 -672,-370z"/>
     <path class="fil8" d="M10818 5053c204,-98 446,-16 541,183 1,3 3,6 4,9 -111,1 -154,95 -274,152 -85,41 -174,77 -265,104 -74,22 -242,-37 -229,21 0,0 0,2 1,4 -51,-183 39,-384 221,-472l1 -1zm545 191c1,3 2,5 3,8 -1,-3 -2,-5 -3,-8zm4 9c1,2 2,5 3,7 -1,-2 -2,-5 -3,-7zm4 9c1,2 2,5 3,7 -1,-2 -2,-5 -3,-7zm4 9c1,2 2,5 2,7 -1,-2 -2,-5 -2,-7zm3 10c1,2 1,4 2,6 -1,-2 -1,-4 -2,-6zm3 10c1,2 1,5 2,7 -1,-2 -1,-5 -2,-7zm3 9c1,2 1,4 2,6 -1,-2 -1,-4 -2,-6zm3 10c1,2 1,4 2,7 0,-2 -1,-4 -2,-7zm2 9c1,2 1,5 1,7 0,-2 -1,-5 -1,-7zm2 10c0,2 1,5 1,7 0,-2 -1,-5 -1,-7zm2 10c0,2 1,5 1,7 0,-2 -1,-5 -1,-7zm2 10c0,2 1,5 1,7 0,-2 -1,-5 -1,-7zm1 9c0,2 1,5 1,7 0,-2 0,-5 -1,-7zm-174 380c-2,1 -3,2 -5,3 2,-1 3,-2 5,-3zm-17 11c-2,1 -4,2 -5,3 2,-1 4,-2 5,-3zm-7 4c-3,2 -5,3 -8,4 3,-1 5,-3 8,-4zm-536 -96c-14,-19 -27,-39 -38,-60m38 60l0 0 0 0z"/>
     <path class="fil11" d="M10651 5513c404,-100 529,-88 941,-64 22,1 38,-9 19,5"/>
     <path class="fil13" d="M11479 5219c16,-19 15,-46 -2,-58 -40,-28 -207,80 -249,103 -230,125 -361,180 -688,247 4,13 95,17 221,3 211,-23 587,-140 718,-295z"/>
     <path class="fil8" d="M12094 4932c-135,-37 -252,135 -272,213 -19,78 -1,4 -2,7 79,-16 123,44 216,67 66,16 -66,25 2,30 42,3 117,-13 150,-12 10,0 15,-17 15,-7 0,0 0,1 0,3 9,-137 25,-264 -110,-301l1 0zm-273 220c0,2 -1,4 -1,6 0,-2 1,-4 1,-6zm-1 7c0,2 -1,4 -1,5 0,-2 1,-4 1,-5zm-1 7c0,2 -1,4 -1,5 0,-2 1,-4 1,-5zm-1 7c0,2 0,3 -1,5 0,-2 0,-3 1,-5zm-1 7c0,2 0,3 0,5 0,-2 0,-3 0,-5zm-1 7c0,2 0,3 0,5 0,-2 0,-3 0,-5zm-1 7c0,2 0,3 0,5 0,-2 0,-3 0,-5zm0 7c0,2 0,3 0,5 0,-2 0,-3 0,-5zm0 7c0,2 0,3 0,5 0,-2 0,-3 0,-5zm0 7c0,2 0,3 0,5 0,-2 0,-3 0,-5zm0 7c0,2 0,3 0,5 0,-2 0,-3 0,-5zm0 7c0,2 0,4 0,5 0,-2 0,-4 0,-5zm1 7c0,2 0,3 1,5 0,-2 0,-3 -1,-5z"/>
     <path class="fil13" d="M11735 5152c-14,-11 -17,-30 -7,-41 24,-26 158,26 192,36 130,39 275,85 323,83 9,0 -21,20 -62,25 -153,19 -330,-13 -446,-103z"/>
     <path class="fil14" d="M10184 4624c-11,-60 -9,-143 14,-268 5,1 180,123 234,143 518,184 -156,643 -249,125l1 0z"/>
     <path class="fil7" d="M7844 5360c157,-105 529,-286 558,-417 57,-263 -24,-302 -347,-257 -380,53 -705,331 -785,677 -78,334 76,616 329,818 125,100 216,113 74,-152 -104,-193 -50,-522 171,-669z"/>
    </g>
   </g>
  </g>
 </g>
</svg>
