<?xml version="1.0" encoding="UTF-8"?>
<!DOCTYPE svg PUBLIC "-//W3C//DTD SVG 1.1//EN" "http://www.w3.org/Graphics/SVG/1.1/DTD/svg11.dtd">
<!-- Creator: CorelDRAW X6 -->
<svg xmlns="http://www.w3.org/2000/svg" xml:space="preserve" width="210mm" height="148mm" version="1.1" style="shape-rendering:geometricPrecision; text-rendering:geometricPrecision; image-rendering:optimizeQuality; fill-rule:evenodd; clip-rule:evenodd"
viewBox="0 0 21000 14800"
 xmlns:xlink="http://www.w3.org/1999/xlink">
 <defs>
  <style type="text/css">
   <![CDATA[
    .str1 {stroke:#E1C36B;stroke-width:7.62}
    .str0 {stroke:#CFCEC9;stroke-width:20}
    .fil1 {fill:none}
    .fil16 {fill:none;fill-rule:nonzero}
    .fil0 {fill:#1E1521}
    .fil9 {fill:#203842}
    .fil17 {fill:#3D3B3D}
    .fil5 {fill:#8A6926}
    .fil13 {fill:#B13119}
    .fil6 {fill:#C7A649}
    .fil11 {fill:#C7BCBC}
    .fil2 {fill:#CFCEC9}
    .fil12 {fill:#EBECD8}
    .fil8 {fill:#ECB963}
    .fil7 {fill:white}
    .fil3 {fill:#203842;fill-rule:nonzero}
    .fil10 {fill:#8A6926;fill-rule:nonzero}
    .fil14 {fill:#C29435;fill-rule:nonzero}
    .fil15 {fill:#C7A649;fill-rule:nonzero}
    .fil4 {fill:#CFCEC9;fill-rule:nonzero}
   ]]>
  </style>
 </defs>
 <g id="Слой_x0020_1">
  <metadata id="CorelCorpID_0Corel-Layer"/>
  <rect class="fil0" x="-1024" y="-22" width="22500" height="13500"/>
  <circle class="fil1 str0" cx="4905" cy="6237" r="1979"/>
  <path class="fil2" d="M6100 7834c-333,247 -744,394 -1190,394 -342,0 -663,-86 -944,-237 9,-18 23,-39 41,-63 60,-79 219,-162 184,-218 -56,-86 83,-132 48,-212 -31,-73 -105,-70 -196,-247 -177,-343 17,-346 -121,-557 -85,-131 -4,-247 -41,-399l39 -37c277,-205 619,-327 989,-329 379,2 729,130 1009,344l17 22c45,28 70,121 84,217 69,517 -199,554 -199,984 0,158 195,330 279,338z"/>
  <path class="fil3" d="M6131 7878c-174,129 -367,231 -577,300 -203,67 -419,103 -644,103 -172,0 -340,-22 -500,-62 -165,-41 -323,-103 -469,-182 -26,-14 -36,-46 -22,-72 0,-1 1,-2 1,-2 5,-10 12,-21 18,-31 8,-12 17,-25 26,-37 26,-34 65,-66 102,-98 40,-33 84,-55 80,-60 -50,-76 -13,-126 22,-175 13,-18 26,-36 22,-45 -8,-19 -24,-32 -44,-50 -40,-35 -92,-80 -151,-194 -103,-199 -89,-294 -79,-375 7,-52 13,-96 -40,-177 -60,-91 -52,-171 -44,-257 5,-50 10,-103 -3,-158 -5,-19 2,-38 15,-50l0 0 39 -37c2,-2 4,-4 7,-6 145,-107 307,-192 481,-250 169,-56 350,-87 538,-89l0 0 0 0c193,2 377,34 549,93 179,61 344,151 491,262 4,3 7,7 10,10l12 14c27,21 48,53 64,93 17,45 29,100 36,156 41,302 -28,448 -98,596 -50,108 -101,215 -101,395 0,55 32,116 74,167 55,66 122,115 157,118 29,3 50,29 47,58 -2,16 -10,30 -22,38l1 2zm-610 199c170,-56 328,-135 474,-232 -43,-28 -89,-68 -127,-114 -56,-68 -99,-151 -99,-234 0,-203 56,-322 112,-440 63,-133 125,-266 89,-537 -7,-49 -17,-96 -30,-132 -9,-23 -19,-41 -29,-47l0 0c-5,-3 -9,-7 -13,-12l-13 -17c-136,-103 -290,-186 -457,-242 -162,-55 -336,-86 -515,-87 -176,1 -346,31 -505,83 -163,55 -314,134 -451,233l-16 15c10,60 5,112 0,163 -7,66 -12,128 27,189 75,114 66,176 56,250 -9,65 -20,142 68,312 49,95 93,133 126,162 31,26 55,47 72,88 28,65 -3,107 -34,149 -14,20 -29,40 -19,55 48,74 -24,134 -102,199 -32,26 -65,55 -84,80 -2,4 -6,7 -8,11 124,62 256,112 395,146 151,38 311,59 475,59 213,0 419,-35 610,-98l-1 -2z"/>
  <path class="fil4 str1" d="M4907 4184c564,0 1075,228 1443,598 370,370 598,880 598,1443 0,564 -228,1075 -598,1443 -370,370 -880,598 -1443,598 -564,0 -1075,-228 -1443,-598 -370,-370 -598,-880 -598,-1443 0,-564 228,-1075 598,-1443 370,-370 880,-598 1443,-598zm1377 665c-352,-352 -840,-571 -1377,-571 -538,0 -1025,218 -1377,571 -352,352 -571,840 -571,1377 0,538 218,1025 571,1377 352,352 840,571 1377,571 538,0 1025,-218 1377,-571 352,-352 571,-840 571,-1377 0,-538 -218,-1025 -571,-1377z"/>
  <path class="fil5" d="M4912 4838c551,3 1039,271 1343,683 -165,223 -275,486 -315,773 -284,-223 -640,-357 -1029,-359 -388,2 -745,136 -1029,359 -39,-287 -151,-551 -315,-773 305,-412 793,-679 1343,-683l2 0z"/>
  <path class="fil6" d="M4915 4843c210,2 410,41 596,113l-27 448 -38 625c-166,-56 -344,-88 -529,-89 -172,1 -338,28 -495,77l-37 -576 -32 -498c176,-64 366,-99 563,-101z"/>
  <path class="fil7" d="M6101 7839c-143,445 -287,890 -430,1335 -409,-277 -240,-879 -170,-1320 40,-252 81,-529 111,-784 18,-158 69,-321 67,-449 -3,-161 -28,-290 -84,-361 -180,-234 -420,-280 -431,-301l232 51c192,59 369,151 524,270l17 22c46,28 70,121 84,217 69,517 -199,554 -199,984 0,158 195,330 279,338z"/>
  <path class="fil3" d="M6151 7858l-429 1333c-9,28 -39,43 -66,34 -5,-2 -9,-4 -13,-7l0 0c-389,-263 -298,-777 -222,-1209 11,-61 22,-121 28,-164 19,-122 39,-252 59,-390 19,-132 36,-264 51,-392 7,-66 21,-132 33,-196 18,-90 35,-176 33,-246 -2,-77 -8,-146 -22,-204 -12,-54 -29,-97 -51,-127 -128,-167 -291,-232 -366,-263 -36,-14 -58,-23 -69,-45 -14,-26 -4,-58 22,-72 12,-7 26,-8 38,-5l232 51c2,0 2,1 4,1l0 0c98,31 193,69 283,115 91,47 178,102 259,163 4,3 7,7 10,10l12 14c27,21 48,53 64,93 17,45 29,100 36,156 41,302 -28,448 -98,596 -50,108 -101,215 -101,395 0,55 32,116 74,167 55,66 122,115 157,118 29,3 50,29 47,58 -1,4 -2,8 -2,12l-2 2zm-507 1228l391 -1213c-54,-26 -117,-76 -167,-137 -56,-68 -99,-151 -99,-234 0,-203 56,-322 112,-440 63,-133 125,-266 89,-537 -7,-49 -17,-96 -30,-132 -9,-23 -19,-41 -29,-47l0 0c-5,-3 -9,-7 -13,-12l-13 -17c-74,-56 -154,-107 -237,-150 -36,-18 -73,-36 -111,-52 35,31 69,68 102,111 33,43 56,100 71,169 14,65 22,140 23,224 2,82 -17,173 -35,268 -12,62 -25,127 -32,188 -15,127 -32,261 -51,395 -18,127 -39,261 -60,391 -10,62 -19,113 -28,166 -66,376 -146,819 119,1058l-1 1z"/>
  <path class="fil3" d="M4912 4791c278,2 540,69 773,187 241,122 449,299 609,515 12,17 12,41 -1,57 -80,109 -148,228 -200,357 -50,125 -87,257 -105,395 -3,26 -27,44 -53,41 -8,-1 -17,-5 -23,-10l0 0c-141,-110 -299,-199 -471,-258 -166,-58 -344,-90 -529,-91 -185,1 -363,33 -529,91 -171,60 -330,148 -471,258 -21,16 -50,12 -66,-8 -6,-7 -9,-17 -10,-26 -19,-136 -55,-268 -105,-392 -52,-128 -120,-247 -200,-357 -13,-17 -12,-41 1,-57 160,-215 368,-392 608,-515 232,-118 495,-185 773,-187l0 0 0 0 -1 0zm730 271c-219,-112 -467,-175 -730,-177 -262,2 -510,65 -730,177 -218,111 -407,268 -555,460 77,108 141,225 192,349 44,108 77,222 99,339 132,-94 278,-170 435,-225 175,-61 364,-95 560,-96l0 0 0 0c196,2 385,35 560,96 156,55 303,131 435,225 22,-118 55,-232 99,-339 50,-124 115,-241 192,-349 -148,-191 -337,-349 -555,-460l-2 0zm651 487c-2,3 -6,7 -9,9m9 -9l0 0 0 0z"/>
  <path class="fil8" d="M4966 6070c529,0 785,127 683,692 -61,342 -260,697 -648,718 -385,22 -607,-361 -683,-716 -119,-555 110,-694 648,-694z"/>
  <path class="fil3" d="M4966 6016c276,0 484,35 613,148 132,116 177,304 122,607 -36,196 -114,397 -246,543 -112,123 -261,208 -452,218 -190,11 -343,-68 -462,-193 -141,-148 -232,-361 -275,-566 -64,-298 -31,-486 93,-605 122,-115 324,-154 606,-154l1 1zm543 227c-106,-93 -291,-122 -543,-122 -256,0 -436,31 -534,124 -95,90 -117,248 -62,505 41,188 122,383 249,515 98,103 225,168 380,160 160,-9 285,-80 379,-184 117,-130 189,-312 220,-491 47,-262 14,-419 -89,-509z"/>
  <polygon class="fil9" points="5148,5988 5445,6028 5850,6236 5432,6110 5305,6073 5148,6073 "/>
  <path class="fil2" d="M5193 5836c0,127 -103,230 -230,230l0 0c-127,0 -230,-103 -230,-230l-26 -394 -38 -585c79,-12 160,-18 242,-19 117,1 231,13 340,36l-34 549 -25 411 1 1z"/>
  <path class="fil3" d="M5246 5836c0,78 -32,149 -84,200 -51,51 -122,84 -200,84 -78,0 -149,-32 -200,-84 -51,-51 -83,-122 -84,-200l-25 -390 -38 -585c-2,-27 18,-51 45,-55l0 0c41,-6 82,-11 124,-14 40,-3 82,-5 125,-5l0 0 0 0c60,0 119,4 177,10 60,7 117,16 175,28 26,6 44,31 41,56l-34 548 -25 409 0 0 2 -1zm-158 125c32,-32 52,-76 52,-125l0 0c0,-1 0,-2 0,-3l25 -411 31 -504c-39,-7 -79,-13 -119,-17 -55,-6 -111,-9 -165,-10 -38,0 -77,2 -117,5 -23,2 -45,4 -69,7l35 536 25 390c0,2 1,4 1,7 0,49 20,93 52,125 32,32 76,52 125,52 49,0 93,-20 125,-52l1 1z"/>
  <path class="fil7" d="M5071 5725c0,60 -50,109 -109,109l0 0c-60,0 -109,-50 -109,-109l-12 -188 -18 -397c37,-6 76,-9 115,-9 55,0 110,7 162,17l-16 381 -12 196z"/>
  <path class="fil10" d="M5124 5725c0,45 -18,85 -48,115 -30,30 -70,48 -115,48 -45,0 -85,-18 -115,-48 -30,-30 -48,-70 -48,-115l-12 -184c0,-1 0,-2 0,-3l-18 -395c-1,-27 18,-50 45,-55l0 0c20,-3 41,-5 61,-7 19,-2 40,-2 61,-2l0 0 0 0c30,0 59,2 87,5 29,3 58,7 86,14 26,6 45,31 41,57l-16 377 0 1 0 0 -12 193 0 0 2 0zm-122 40c10,-10 17,-24 17,-40l0 0c0,-1 0,-2 0,-3l12 -196 0 0 14 -333c-11,-2 -21,-3 -31,-4 -26,-2 -51,-4 -76,-4 -17,0 -35,1 -54,2l-7 1 16 346 0 2 12 184c0,2 1,4 1,7 0,16 7,30 17,40 10,10 24,17 40,17 16,0 30,-7 40,-17l1 0z"/>
  <path class="fil3" d="M4667 6230c74,0 98,43 113,70 3,5 4,9 5,9 7,5 17,17 22,28 2,7 4,14 4,21 0,10 -4,18 -12,25 -6,5 -13,8 -24,9 -4,0 -8,2 -14,7 -9,6 -22,14 -47,23 -31,12 -64,9 -96,0 -31,-8 -60,-23 -88,-38 -7,-4 -14,-7 -20,-11 -22,-12 -42,-22 -57,-28 -11,-4 -17,-16 -13,-27 2,-7 9,-13 17,-14l83 -15c14,-7 29,-16 44,-26 28,-18 55,-36 83,-36l-1 2zm76 91c-11,-19 -27,-49 -76,-49 -15,0 -37,14 -60,29 -17,11 -33,22 -51,29 -2,1 -3,2 -6,2l-22 4 2 2c7,3 13,7 20,11 26,13 53,27 79,35 25,7 49,9 69,1 21,-7 31,-15 40,-20 10,-6 17,-10 27,-12 -2,-3 -3,-5 -4,-6 -8,-5 -13,-14 -19,-25l1 0z"/>
  <path class="fil11" d="M4667 6250c3,0 7,0 9,1 22,12 37,36 37,64 0,41 -33,73 -73,73 -41,0 -73,-33 -73,-73 0,-6 1,-11 2,-16 35,-20 69,-48 98,-48l0 -1z"/>
  <path class="fil3" d="M4667 6217c1,0 3,0 7,0 2,0 4,0 7,1 6,1 11,2 16,6 16,9 28,22 37,37 9,16 15,34 15,54 0,30 -12,56 -31,75l0 0 0 0 0 0c-19,19 -46,31 -75,31 -30,0 -56,-12 -75,-31l0 0c-19,-19 -31,-46 -31,-75 0,-3 0,-7 1,-12 1,-3 1,-7 2,-12 2,-10 9,-18 17,-22 6,-3 15,-9 24,-15 1,0 2,-1 2,-1 30,-19 58,-36 88,-36l-1 0zm7 79c-2,-4 -5,-7 -9,-11 -12,1 -31,13 -50,26 -1,1 -1,1 -2,1 -4,2 -7,5 -12,7 1,9 5,17 12,24 7,7 17,12 28,12 11,0 21,-4 27,-12l0 0c7,-7 12,-17 12,-27 0,-7 -2,-14 -5,-20z"/>
  <path class="fil3" d="M4608 6063l207 26c18,2 34,12 46,26 10,12 17,29 16,46l0 0c0,2 0,4 -1,7l0 0c-2,18 -12,33 -24,44 -13,11 -30,17 -48,15 -1,0 -2,0 -3,0l0 0c-36,-4 -55,-12 -74,-18 -22,-8 -44,-17 -119,-17 -45,1 -73,13 -104,26 -17,7 -36,16 -60,23 -22,7 -46,-5 -54,-27 -6,-18 2,-38 17,-49l2 -1c50,-36 108,-79 184,-98 5,-2 11,-2 16,-1l0 0 1 -2z"/>
  <path class="fil3" d="M5123 6335c-1,8 -2,18 -1,30 1,12 2,26 5,43 15,93 12,157 7,251 -1,14 -2,28 -2,42 11,15 24,37 30,60 7,25 7,51 -7,76 -13,24 -36,31 -65,40 -8,2 -17,6 -26,9 -18,7 -40,-2 -46,-21 -1,-2 -2,-5 -2,-7l0 0 -12 -69c-12,-65 -8,-114 -5,-165 2,-32 4,-65 3,-103l0 0c-1,-21 -2,-41 -4,-61 -2,-20 -4,-41 -7,-62 -6,-41 -8,-70 -7,-96 2,-28 7,-50 17,-70 0,-1 1,-2 1,-2 73,-141 136,-146 253,-155 23,-2 49,-3 79,-7 5,-1 11,0 16,2 37,9 71,21 103,34 32,14 62,31 89,50 16,12 20,34 8,50 -9,13 -26,18 -41,13l0 0 -12 -4c-58,-19 -90,-30 -160,-31 -60,1 -114,12 -153,41 -31,23 -52,59 -59,112l-1 1zm-52 405c-1,-1 -2,-2 -2,-2 1,13 2,26 5,41l5 29c7,-2 12,-2 12,-3 3,-6 2,-15 1,-24 -5,-19 -16,-36 -22,-41l0 0 1 1zm-17 -433l0 2c3,-18 7,-34 13,-49 -1,2 -2,3 -2,5 0,1 -1,1 -1,2 -6,12 -9,24 -10,41z"/>
  <path class="fil3" d="M4946 6803c5,19 13,33 24,41 5,4 10,6 15,7 4,0 8,-1 12,-3 8,-5 16,-17 22,-34l65 22c-11,33 -29,55 -49,69 -17,12 -36,16 -55,15 -18,-2 -36,-8 -51,-21 -22,-17 -40,-44 -48,-79l65 -17 1 0z"/>
  <path class="fil3" d="M4829 7015c10,-5 19,-10 27,-15 42,-26 74,-44 113,5 17,20 34,8 50,-2 18,-12 36,-24 58,-24 23,0 37,12 55,28 15,13 34,30 65,35 1,0 2,0 3,1 21,4 30,12 26,34 0,2 0,2 -1,4 -3,15 -11,21 -22,22 -3,1 -7,2 -12,1 -1,0 -2,0 -3,-1 -1,0 -1,0 -2,0l-1 0c-5,-1 -10,-1 -15,-2 -30,-4 -83,-11 -91,-11 -12,0 -26,3 -41,6 -16,3 -31,7 -50,7 -17,1 -32,-2 -47,-5 -11,-2 -22,-4 -31,-4 -10,0 -20,2 -31,3 -10,2 -22,3 -35,5 -1,0 -2,0 -2,0l-50 4 0 0 0 0 -17 2c-17,2 -31,-11 -33,-27 -1,-12 6,-25 17,-30 7,-3 35,-19 67,-35l0 -1z"/>
  <path class="fil12" d="M5047 7062c36,-6 78,-12 78,6 0,57 -68,87 -131,88 -65,2 -136,-33 -136,-82 0,-17 42,-13 78,-10 18,3 37,8 55,7 19,-1 38,-6 56,-9z"/>
  <path class="fil3" d="M5040 7020l5 -1c18,-2 38,-6 55,-6 40,0 67,13 67,55 0,42 -22,74 -55,96 -32,22 -76,33 -117,34l-1 0 -3 0 0 0 0 0c-38,0 -79,-11 -111,-28 -38,-22 -64,-54 -65,-94l0 -1 0 -1 0 0 0 0c0,-39 27,-53 66,-55 18,-1 39,1 58,3 1,0 2,0 3,1 6,1 11,2 15,2 12,2 23,4 31,4l0 0c11,0 24,-3 37,-6 5,-1 10,-2 12,-2 1,0 1,0 2,0l0 0 -1 -1zm-47 93c13,0 26,-2 38,-5 -12,2 -25,4 -39,5l-1 0 -1 0 0 0 2 0 0 0z"/>
  <path class="fil3" d="M4788 6257c3,7 7,15 8,23l0 0 0 0c2,8 2,17 2,24 0,4 0,9 -1,14 -1,5 -2,9 -2,14 -3,15 -17,25 -33,23 -6,-1 -12,-3 -16,-7 -4,-2 -7,-6 -9,-9 -2,-2 -2,-4 -3,-6l-1 -2 0 0 -2 -2c-1,-1 -1,-2 -2,-3l0 0c-1,-2 -2,-6 -3,-10 -5,-16 -13,-39 -48,-39 -12,0 -34,13 -55,27 -12,7 -25,16 -37,22 9,8 12,22 7,33 -5,13 -18,20 -31,18l0 0 -64 -10c-4,-1 -7,-2 -11,-4 -10,-5 -19,-11 -27,-15 -8,-4 -17,-8 -23,-10 -16,-5 -24,-22 -18,-37 2,-8 8,-14 16,-17l0 0 110 -52c1,0 1,-1 2,-1 8,-3 20,-9 31,-15 1,0 2,-1 2,-1 73,-36 149,-73 208,42l0 0 0 0 -1 -2z"/>
  <polygon class="fil9" points="5036,6394 5090,6394 5090,6732 5036,6732 "/>
  <path class="fil3" d="M5293 6272c-49,0 -65,30 -76,49 -6,11 -11,19 -19,25l0 0c-1,1 -2,2 -4,6 12,2 18,6 27,12 7,5 18,12 40,20 22,8 45,6 69,-1 26,-7 54,-21 79,-35 6,-3 12,-7 19,-10l3 -2 -22 -4c-2,0 -4,-1 -6,-2 -17,-7 -35,-18 -51,-29 -23,-15 -45,-29 -60,-29l1 -1zm-113 28c15,-27 40,-70 113,-70 27,0 55,17 83,36 15,9 30,19 44,26l83 15c7,1 14,7 17,14 4,11 -2,23 -13,27 -16,6 -36,17 -58,28 -6,3 -12,7 -20,11 -28,15 -58,29 -88,38 -32,9 -65,12 -96,0 -25,-9 -37,-17 -47,-23 -6,-3 -9,-6 -14,-7 -10,-1 -18,-4 -24,-9l0 0c-8,-7 -12,-16 -12,-25 0,-7 2,-14 4,-21 5,-12 15,-23 22,-28l0 0 0 0c1,-1 2,-4 5,-9l0 -2z"/>
  <path class="fil13" d="M5231 6370l64 62c7,28 -2,73 -9,115 -8,51 -14,98 15,103 36,7 18,-84 17,-106 -4,-50 -3,-89 50,-123 16,-10 134,-56 51,-78 -53,-14 -175,21 -188,25l0 2z"/>
  <path class="fil11" d="M5293 6250c-3,0 -7,0 -9,1 -22,12 -37,36 -37,64 0,41 33,73 73,73 41,0 73,-33 73,-73 0,-6 -1,-11 -2,-16 -35,-20 -69,-48 -98,-48l0 -1z"/>
  <path class="fil3" d="M5286 6217c3,0 6,0 7,0 31,0 60,18 89,37 8,5 17,11 24,15 8,4 15,12 17,22 1,3 2,7 2,11l0 1c1,4 1,8 1,12 0,29 -12,56 -31,75l0 0 0 0 0 0c-19,19 -46,31 -75,31 -30,0 -56,-12 -75,-31l0 0 0 0c-19,-19 -31,-46 -31,-75 0,-20 5,-38 15,-54 9,-16 22,-28 37,-38 4,-3 10,-5 16,-6 2,0 4,0 7,-1l-1 1zm8 68c-3,3 -7,7 -9,11 -3,6 -5,12 -5,20 0,11 4,21 12,28l0 0c7,7 17,12 27,12 11,0 21,-4 27,-12l0 0c6,-6 10,-14 11,-24 -4,-2 -8,-5 -12,-7 -21,-13 -41,-26 -52,-26l1 -1z"/>
  <path class="fil3" d="M5165 6280c2,-7 5,-15 8,-22 60,-117 136,-78 210,-41 11,6 22,11 31,15 1,0 1,1 2,1l109 51c7,3 13,9 17,17 6,16 -2,32 -18,38 -7,2 -15,6 -23,10 -8,4 -17,9 -27,15 -3,2 -7,3 -11,4l-64 10 0 0c-13,2 -26,-5 -31,-18 -5,-12 -2,-25 7,-33 -13,-7 -26,-15 -37,-22 -22,-14 -43,-27 -55,-27 -35,0 -43,24 -48,40l0 0c-2,4 -2,8 -3,10l0 0c-1,1 -1,2 -2,3 0,1 0,0 -1,2l0 0 0 0c0,0 0,1 -1,2l0 0c-1,2 -2,3 -2,5 -2,4 -6,7 -9,9l0 0 0 0c-5,3 -10,6 -16,7 -15,2 -29,-7 -33,-23 -1,-5 -2,-9 -2,-14 -1,-5 -1,-10 -1,-14 0,-7 1,-16 3,-24l-2 -1z"/>
  <path class="fil14" d="M2699 4895c-16,-2 -31,-1 -47,3 -16,4 -31,12 -44,23 -17,14 -28,32 -33,54 -5,22 -3,43 5,64 5,12 12,23 22,34 10,11 22,20 35,29 13,8 26,16 41,22 15,7 29,12 43,15 24,6 45,8 64,8 19,-1 38,-5 57,-14 17,-8 31,-21 43,-36 12,-17 17,-33 15,-51 -2,-19 -7,-36 -16,-50 -9,-14 -20,-26 -31,-36 -2,-2 -2,-8 2,-19 3,-11 7,-23 12,-36 5,-12 10,-23 15,-33 5,-10 8,-13 9,-11 11,11 19,22 26,34 7,12 12,26 15,40 6,22 8,42 7,62 0,20 -2,39 -7,57 -4,18 -10,36 -17,51 -7,17 -15,32 -23,47 -20,36 -46,62 -77,76 -31,14 -65,20 -102,16 -20,-2 -38,-6 -56,-12 -18,-6 -35,-15 -50,-26 -15,-11 -28,-24 -40,-39 -12,-15 -21,-32 -26,-52 -3,-12 -6,-22 -7,-33 -1,-10 -2,-21 -1,-31 1,-10 2,-20 5,-31 2,-11 5,-22 8,-34 3,-13 7,-26 13,-38 5,-12 11,-26 17,-40 12,-26 31,-50 55,-71 25,-21 55,-33 89,-37 2,0 2,6 0,16 -2,10 -4,22 -8,34 -3,15 -8,31 -13,49l0 -7 -1 2zm400 -437c13,-5 27,-7 41,-4 13,2 26,7 38,13 12,7 23,16 33,26 10,11 19,22 26,36 4,7 7,15 8,23 2,8 2,17 3,24 0,7 0,15 -1,22 -1,7 -2,12 -2,17 -2,12 -7,25 -15,39 -7,14 -16,27 -26,39 -11,12 -22,22 -36,29 -13,7 -27,11 -41,8 -9,-1 -16,-2 -20,-3 -3,-2 -6,-3 -7,-6 -1,-2 -1,-4 1,-7l32 -71c10,5 19,8 27,10 7,2 15,2 22,1 7,-1 12,-5 16,-12 3,-8 4,-17 2,-26 -2,-10 -10,-22 -24,-35 -9,-8 -20,-16 -32,-23 -13,-7 -26,-12 -41,-15 -14,-2 -28,-2 -42,0 -14,2 -26,9 -36,21 -11,12 -19,25 -25,37 -6,12 -10,22 -12,26 17,14 34,28 50,41 17,13 31,26 44,36 13,11 24,20 33,27 9,7 14,12 16,13 1,1 -2,6 -8,16 -6,10 -13,20 -21,31 -7,12 -15,22 -22,31 -7,9 -10,14 -10,14 -1,0 -4,-2 -11,-8 -7,-6 -15,-13 -26,-22 -10,-9 -22,-19 -35,-31 -13,-12 -26,-23 -41,-35 -32,-28 -68,-59 -108,-94 -14,-2 -26,-3 -38,-4 -10,-2 -20,-2 -28,-4 -8,-1 -14,-2 -17,-2 -1,0 0,-3 3,-10 3,-7 8,-14 14,-23 6,-9 12,-19 20,-29 7,-11 14,-21 21,-29 7,-9 12,-17 16,-22 4,-6 7,-9 7,-10l0 -1c6,-9 11,-18 15,-26 4,-7 9,-15 13,-22 4,-7 8,-12 11,-17 8,-11 18,-20 30,-28 12,-8 23,-14 36,-17 12,-3 25,-3 37,-1 12,3 24,11 35,22 8,10 13,21 15,31 1,10 2,17 2,21 1,7 1,15 0,21 -1,3 -1,7 -2,11 6,-7 12,-15 18,-22 6,-6 12,-12 19,-17 7,-6 15,-10 22,-12l-2 2zm-98 81c-1,-11 -5,-21 -11,-29 -6,-8 -13,-15 -22,-20 -9,-5 -19,-7 -30,-7 -11,0 -22,4 -31,12 -8,6 -16,12 -22,21 -6,7 -10,14 -13,18 12,10 26,22 43,36 17,14 36,30 56,46 2,-4 6,-9 9,-15 3,-6 7,-12 10,-20 3,-7 6,-14 8,-22 2,-7 3,-14 2,-20l0 -1zm360 -511c0,0 7,7 17,21 12,13 26,31 42,50 17,21 35,43 55,67 20,24 39,46 55,68 17,21 31,39 44,54 12,15 19,23 21,26 1,1 -3,6 -11,14 -7,8 -17,17 -26,27 -10,10 -19,18 -27,26 -8,7 -12,12 -12,12 -1,0 -4,-4 -11,-12 -7,-7 -14,-17 -24,-30 -9,-12 -20,-26 -32,-41 -12,-15 -24,-31 -36,-46 -14,10 -24,22 -31,36 -7,14 -12,30 -12,46 -1,17 2,34 9,51 7,18 18,36 33,53 1,1 -3,6 -11,14 -7,8 -17,17 -26,27 -12,12 -24,25 -37,39 -3,-4 -7,-8 -10,-13 -3,-5 -7,-10 -10,-16 -3,-6 -7,-13 -10,-21 -4,-12 -7,-26 -8,-43 -2,-17 -2,-33 0,-48 1,-7 2,-15 4,-22 2,-7 3,-12 6,-17 2,-6 5,-12 8,-17 -2,2 -7,2 -11,3 -3,1 -8,2 -13,2 -5,1 -12,1 -20,0 -11,0 -22,-3 -34,-9 -12,-6 -22,-14 -31,-25 -9,-11 -17,-23 -21,-38 -4,-15 -5,-31 -2,-50 2,-17 11,-34 23,-50 13,-17 26,-32 41,-46 17,-17 35,-32 54,-47 6,-5 12,-10 18,-16 7,-6 12,-11 17,-16 7,-6 12,-12 18,-17l2 0zm5 246c7,-2 15,-7 23,-12 7,-5 13,-9 17,-12 -9,-12 -18,-23 -26,-34 -8,-11 -16,-21 -22,-29l-21 -26 -15 -19c-4,-6 -9,-11 -13,-17 -4,-6 -8,-10 -12,-14 -4,4 -9,8 -15,14 -6,6 -11,10 -15,15 -7,7 -11,15 -12,25 -2,10 -1,20 1,30 2,10 5,20 10,29 5,10 10,17 16,24 12,13 26,22 42,26 17,5 31,5 43,0l0 -1zm103 -324c0,-1 7,-5 22,-12 15,-7 33,-17 55,-28 22,-11 44,-22 68,-34 23,-12 43,-22 60,-31 12,-6 24,-12 38,-19 14,-7 29,-15 44,-22 15,-7 31,-15 45,-22 15,-7 28,-14 40,-19 12,-6 21,-10 28,-13 7,-3 11,-5 11,-5l1 2c1,6 1,12 2,18 0,7 1,13 1,20 0,7 0,12 0,18 0,6 -1,10 -1,12 -1,2 -2,2 -6,1 -7,-4 -16,-7 -25,-10 -9,-2 -19,-2 -30,-1 -3,1 -7,2 -13,5 -6,2 -13,6 -21,10 -8,4 -17,8 -26,13 -9,5 -19,10 -29,15 6,11 14,25 23,43 10,18 21,38 31,60 12,22 23,44 35,66 12,22 22,43 32,61 10,19 18,35 25,47 7,13 11,21 12,23 0,1 -2,2 -6,6 -4,3 -10,7 -17,12 -7,5 -14,10 -22,15 -8,5 -15,10 -22,14 -7,4 -12,7 -17,11 -5,3 -7,4 -7,4l-161 -314c-20,10 -38,19 -55,27 -17,9 -26,15 -31,18 -7,7 -13,15 -17,24 -3,9 -7,17 -7,26 -1,3 -2,5 -3,3 -2,-2 -6,-4 -11,-7 -5,-3 -9,-7 -15,-11 -5,-4 -10,-8 -16,-12 -5,-4 -10,-8 -14,-12 0,-1 -1,-1 -2,-1l1 -2zm523 -232c10,-6 22,-12 33,-18 12,-7 24,-12 36,-17 12,-6 26,-11 38,-15 13,-4 26,-7 37,-9 7,-1 14,1 23,5 9,4 16,8 22,12 5,3 12,11 24,22 11,11 24,24 39,39 15,15 31,31 47,49 17,17 34,35 50,52 17,17 32,33 46,49 15,15 26,28 36,38 3,4 7,6 12,6 4,0 9,0 13,-2 4,-1 8,-3 12,-6 4,-2 7,-5 10,-7l12 18c-2,2 -7,6 -16,11 -8,5 -17,11 -28,16 -11,6 -21,11 -31,17 -10,5 -18,9 -25,11 -12,4 -22,5 -31,2 -9,-2 -18,-8 -29,-20 -12,-13 -22,-25 -31,-35 -9,-10 -17,-19 -26,-28 -8,-8 -16,-17 -24,-24 -8,-7 -17,-17 -26,-26 -7,18 -13,36 -19,54 -6,18 -12,36 -21,53 -8,17 -17,34 -28,50 -11,17 -25,32 -41,48 2,-7 2,-14 3,-20 1,-6 0,-11 -1,-16 -3,-9 -7,-18 -11,-26 -3,-8 -7,-17 -12,-26 -17,-28 -26,-56 -26,-84 -1,-28 6,-56 20,-85 4,-8 10,-18 17,-30 7,-12 14,-20 21,-26 -7,-11 -17,-21 -30,-28 -12,-7 -24,-11 -36,-8 -4,1 -8,2 -13,4 -5,2 -10,5 -14,7 -5,2 -9,5 -12,7 -4,2 -7,4 -8,4 0,-1 -1,-2 -2,-3 -2,-2 -3,-4 -5,-6 -2,-2 -3,-4 -5,-6 -2,-2 -2,-3 -2,-3l1 0zm171 216c5,-11 9,-20 13,-28 4,-8 7,-16 11,-23 3,-7 6,-14 8,-22 2,-7 5,-15 7,-23 -8,-10 -17,-20 -25,-30 -7,-8 -15,-17 -22,-25 -8,-8 -15,-15 -21,-21 -6,14 -10,25 -11,32 -1,7 -2,14 -2,17 -1,14 0,26 3,37 3,11 7,20 12,29 5,9 10,17 15,26 5,9 10,18 13,29l-1 0zm656 -390c0,1 1,10 3,27 2,17 4,40 7,66 2,26 5,55 8,86 3,31 6,60 8,87 2,27 5,50 7,69 2,19 2,30 3,33 0,1 -6,2 -17,6 -12,2 -23,5 -37,7 -13,2 -26,5 -37,7 -12,2 -17,2 -17,2 -1,-1 -2,-6 -2,-16 -1,-10 -2,-22 -3,-37 -1,-16 -2,-32 -4,-51 -2,-19 -3,-38 -4,-58 -17,1 -33,5 -47,12 -14,7 -26,18 -36,31 -10,13 -17,30 -21,48 -4,19 -5,40 -2,62 0,1 -6,2 -17,6 -12,2 -23,6 -37,8 -16,3 -34,7 -53,12 0,-5 -1,-11 -1,-17 0,-6 0,-12 1,-19 1,-7 2,-14 3,-22 3,-12 8,-26 17,-41 8,-15 17,-28 26,-40 5,-6 10,-11 15,-16 5,-4 10,-8 15,-11 5,-3 11,-7 16,-10 -3,0 -7,-2 -11,-3 -3,-2 -7,-3 -12,-6 -5,-2 -10,-6 -17,-12 -9,-7 -17,-15 -23,-26 -7,-12 -11,-24 -12,-38 -2,-14 -1,-28 4,-43 4,-15 13,-29 26,-42 12,-12 27,-22 48,-29 20,-7 40,-12 60,-17 23,-4 46,-7 71,-9 7,-1 16,-2 24,-2 8,-1 17,-2 23,-3 8,-1 17,-2 25,-4l1 1zm-133 206c7,2 17,3 26,3 9,0 17,0 22,0 -1,-15 -2,-30 -3,-43 -1,-13 -2,-26 -2,-36l-2 -34 -2 -24c-1,-7 -1,-14 -2,-22 -1,-7 -2,-13 -2,-19 -6,1 -12,2 -20,3 -8,1 -15,2 -21,4 -9,2 -17,7 -24,13 -7,7 -12,16 -16,25 -4,9 -7,19 -8,30 -2,11 -2,20 -1,28 2,17 9,33 20,45 11,13 23,22 36,24l1 2zm930 -98c0,1 -2,9 -5,26 -3,17 -7,39 -13,65 -6,26 -12,55 -17,84 -7,31 -12,59 -17,86 -6,27 -10,50 -14,69 -4,19 -7,30 -7,32 0,1 -6,1 -17,0 -12,-1 -24,-2 -37,-3 -13,-2 -26,-3 -38,-5 -12,-2 -17,-2 -17,-3 0,-1 2,-9 5,-23 3,-14 7,-32 12,-54 5,-22 10,-44 16,-69 6,-24 11,-47 16,-68 -12,4 -28,8 -45,13 -17,5 -35,11 -53,16 -18,6 -35,11 -50,15 -16,5 -28,8 -36,11 -6,30 -11,54 -15,74 -4,19 -7,31 -7,33 0,1 -6,1 -17,0 -12,-1 -24,-2 -37,-3 -13,-2 -26,-3 -38,-5 -12,-2 -17,-2 -17,-2 0,-1 1,-5 2,-14 2,-8 5,-20 7,-33 3,-13 7,-29 11,-46 4,-17 8,-35 12,-53 10,-41 21,-89 34,-141 -5,-13 -10,-25 -14,-36 -3,-10 -7,-18 -10,-26 -3,-8 -5,-13 -5,-16 0,-1 2,-1 6,-1 4,0 10,0 17,0 7,0 15,1 24,2 9,1 17,2 26,3 22,3 46,6 74,10 0,1 -2,7 -4,22 -2,14 -7,32 -11,54 -5,22 -10,46 -15,73 -6,26 -11,53 -17,79 12,-3 26,-7 42,-12 17,-4 33,-9 50,-14 17,-5 34,-10 50,-14 17,-4 30,-8 41,-12 2,-7 3,-15 5,-21 2,-6 3,-11 4,-15l3 -12c-5,-13 -10,-25 -14,-36 -3,-10 -7,-18 -10,-26 -3,-8 -5,-13 -5,-16 0,-1 2,-1 6,-1 4,0 10,0 17,0 7,0 15,1 23,2 9,1 17,2 26,3 22,3 46,6 74,10l-1 0zm423 518c-5,3 -12,6 -24,8 -12,2 -29,6 -53,9 -12,2 -22,2 -31,1 -9,-2 -17,-4 -23,-7 -7,-3 -12,-7 -17,-12 -5,-4 -9,-9 -12,-14 -3,-4 -7,-16 -14,-34 -7,-18 -13,-39 -21,-62 -7,-23 -14,-46 -21,-67 -7,-22 -12,-38 -15,-49 -7,18 -15,36 -22,53 -7,17 -14,32 -20,46 -6,14 -11,25 -14,34 -3,9 -6,14 -7,16 0,1 -6,0 -17,-3 -11,-3 -23,-7 -36,-11 -13,-4 -25,-8 -36,-12 -11,-4 -17,-6 -17,-7 0,-1 2,-5 5,-13 3,-8 8,-18 13,-31 6,-12 12,-27 20,-43 7,-17 15,-33 22,-50 17,-39 37,-83 60,-132 -2,-15 -5,-27 -7,-39 -2,-10 -3,-19 -4,-28 -1,-8 -2,-14 -2,-17 0,-1 2,-1 6,0 4,1 9,2 16,4 7,2 14,4 23,7 8,2 17,5 26,8 21,7 45,15 71,24 0,1 -2,4 -5,12 -3,7 -7,17 -12,30 -5,12 -11,26 -17,43 -7,17 -14,33 -22,51 12,-6 26,-12 43,-21 17,-7 34,-15 50,-22 17,-7 31,-13 45,-18 13,-6 22,-9 26,-11 4,-2 10,-2 16,-2 6,0 12,0 17,1 6,1 11,2 16,3 5,2 8,3 11,6 2,2 5,6 8,10 3,5 5,9 7,14 2,5 2,9 3,13 1,4 0,7 -2,8 -2,2 -6,3 -12,7 -6,2 -12,6 -20,9 -7,3 -14,7 -21,9 -7,2 -12,5 -15,5 -7,2 -11,2 -13,1 -2,-1 -4,-4 -7,-11 -3,-7 -7,-12 -12,-19 -5,-7 -9,-10 -13,-12 -2,-1 -6,0 -12,2 -6,2 -12,5 -19,8 -7,3 -14,6 -21,9 -7,3 -12,6 -14,7 -3,2 -4,4 -3,8 1,4 3,11 7,20 2,3 4,12 8,24 4,12 10,28 16,46 6,17 12,36 20,56 7,20 14,39 20,55 7,17 12,31 17,43 5,12 8,18 11,20 2,2 5,3 9,3 4,0 8,0 13,0 5,-1 9,-1 13,-2 4,-1 8,-2 11,-2 1,2 2,4 2,7 0,2 0,4 1,6l1 5z"/>
  <path class="fil14" d="M6189 4364c-32,-26 -52,-56 -60,-90 -8,-33 -7,-68 3,-103 5,-19 12,-36 22,-53 9,-17 21,-31 35,-44 13,-12 29,-23 46,-31 17,-8 36,-14 56,-17 12,-2 23,-2 33,-1 10,1 21,2 30,5 10,2 19,7 29,11 10,4 20,9 31,14 12,6 24,12 36,20 12,7 23,16 36,24 15,11 28,24 40,40 12,16 21,33 27,52 7,19 11,38 12,59 1,20 -2,40 -8,58 -6,17 -15,35 -25,50 -11,16 -23,30 -37,42 -14,12 -30,22 -46,30 -17,7 -34,12 -53,12 -22,1 -43,0 -62,-4 -20,-4 -38,-10 -55,-17 -17,-7 -33,-17 -47,-26 -15,-10 -29,-21 -42,-31l-1 1zm244 -55c7,-12 16,-26 24,-41 8,-15 15,-30 20,-45 5,-16 7,-31 7,-47 0,-16 -5,-31 -13,-48 -11,-20 -26,-34 -46,-42 -20,-9 -41,-11 -64,-7 -12,2 -25,7 -37,15 -12,8 -24,17 -35,28 -11,11 -21,23 -30,36 -9,13 -17,26 -23,40 -10,22 -17,42 -20,61 -3,19 -2,38 2,59 5,18 14,35 27,49 14,14 30,22 47,24 17,2 32,0 46,-5 14,-5 27,-12 39,-20 12,-8 22,-18 31,-29 9,-11 17,-21 23,-31l0 2zm562 315c0,0 -7,7 -20,18 -13,12 -29,27 -49,45 -20,18 -41,37 -65,58 -23,21 -45,41 -65,59 -21,18 -38,34 -52,46 -14,12 -22,20 -25,22 -1,1 -6,-2 -14,-10 -9,-7 -18,-16 -28,-25 -10,-9 -19,-18 -27,-26 -8,-8 -12,-12 -12,-12 0,0 3,-2 8,-7 5,-5 12,-11 21,-18 8,-7 19,-16 30,-26 12,-10 23,-20 36,-31 -5,-6 -13,-15 -24,-27 -12,-12 -22,-25 -35,-39 -12,-13 -22,-26 -32,-37 -10,-12 -16,-18 -19,-22l-1 -1c-22,21 -41,38 -56,50 -15,13 -23,21 -26,22 -1,1 -6,-2 -14,-10 -9,-7 -18,-16 -28,-25 -10,-9 -19,-18 -27,-26 -8,-8 -12,-12 -12,-12 0,-1 3,-4 10,-10 7,-6 15,-13 26,-22 11,-9 22,-19 36,-31 13,-12 27,-23 41,-36 32,-28 69,-60 111,-94 3,-14 7,-26 10,-37 2,-10 6,-19 8,-27 2,-8 4,-13 5,-16 0,-1 2,0 5,2 3,2 7,6 13,10 6,4 12,10 18,16 7,6 13,12 20,18 16,15 34,32 55,52 0,0 -6,6 -17,16 -11,10 -25,22 -41,37 -17,15 -36,31 -55,50 -21,19 -41,36 -60,54 5,5 12,14 22,26 10,12 20,24 31,37 12,13 22,26 32,37 11,12 18,22 25,27l75 -65c12,-11 24,-20 35,-29 3,-14 7,-26 10,-37 2,-10 6,-19 8,-27 2,-8 4,-13 5,-16 0,-1 2,0 5,2 3,2 7,6 13,10 6,4 12,10 18,16 7,6 13,12 20,18 16,15 34,32 55,52l-2 2zm83 151c8,9 16,19 25,29 8,11 17,22 25,32 8,12 15,23 22,35 7,12 12,24 16,35 2,7 2,14 -1,23 -2,9 -5,17 -8,24 -2,5 -8,14 -17,27 -8,13 -18,28 -31,46 -12,17 -25,36 -39,56 -14,20 -28,40 -41,60 -13,20 -26,38 -39,55 -12,17 -22,31 -30,43 -3,4 -4,8 -4,12 1,4 2,9 4,13 2,4 5,7 8,11 3,3 7,6 9,8l-16 16c-2,-2 -7,-6 -14,-13 -7,-7 -14,-15 -22,-25 -7,-9 -15,-18 -22,-27 -7,-9 -12,-17 -15,-22 -6,-11 -9,-21 -8,-30 0,-9 5,-20 14,-32 11,-14 20,-26 28,-37 8,-11 16,-21 22,-31 7,-9 13,-19 19,-28 6,-9 12,-20 20,-31 -19,-3 -38,-6 -56,-8 -18,-2 -37,-6 -55,-10 -18,-4 -37,-11 -55,-18 -18,-7 -36,-18 -55,-31 7,0 14,0 20,-1 6,-1 11,-2 15,-4 8,-6 17,-11 24,-16 7,-5 15,-11 22,-17 25,-22 50,-36 78,-42 27,-6 56,-5 88,2 9,2 20,7 32,12 12,5 22,10 30,16 9,-9 17,-21 22,-35 5,-13 6,-26 2,-36 -2,-4 -3,-8 -7,-12 -3,-4 -7,-8 -10,-12 -3,-4 -7,-8 -10,-11 -3,-3 -5,-6 -6,-7 1,0 2,-1 3,-2 2,-2 3,-3 5,-6 2,-2 3,-4 5,-6 2,-2 2,-2 3,-2l-1 1zm-180 209c12,2 22,5 31,7 9,2 17,4 25,6 7,2 15,2 22,4 7,1 15,2 24,2 8,-10 17,-20 25,-30 7,-8 14,-17 20,-27 7,-9 12,-17 17,-24 -15,-3 -26,-5 -34,-4 -8,1 -14,1 -17,2 -14,2 -26,5 -36,10 -10,5 -18,11 -26,17 -8,7 -16,12 -23,20 -7,7 -16,13 -26,18l-1 -1z"/>
  <circle class="fil0 str0" cx="10245" cy="6237" r="1979"/>
  <path class="fil4" d="M11471 7878c-174,129 -367,231 -577,300 -203,67 -419,103 -644,103 -172,0 -340,-22 -500,-62 -165,-41 -323,-103 -469,-182 -26,-14 -36,-46 -22,-72 0,-1 1,-2 1,-2 5,-10 12,-21 18,-31 8,-12 17,-25 26,-37 26,-34 65,-66 102,-98 40,-33 84,-55 80,-60 -50,-76 -13,-126 22,-175 13,-18 26,-36 22,-45 -8,-19 -24,-32 -44,-50 -40,-35 -92,-80 -151,-194 -103,-199 -89,-294 -79,-375 7,-52 13,-96 -40,-177 -60,-91 -52,-171 -44,-257 5,-50 10,-103 -3,-158 -5,-19 2,-38 15,-50l0 0 39 -37c2,-2 4,-4 7,-6 145,-107 307,-192 481,-250 169,-56 350,-87 538,-89l0 0 0 0c193,2 377,34 549,93 179,61 344,151 491,262 4,3 7,7 10,10l12 14c27,21 48,53 64,93 17,45 29,100 36,156 41,302 -28,448 -98,596 -50,108 -101,215 -101,395 0,55 32,116 74,167 55,66 122,115 157,118 29,3 50,29 47,58 -2,16 -10,30 -22,38l1 2zm-610 199c170,-56 328,-135 474,-232 -43,-28 -89,-68 -127,-114 -56,-68 -99,-151 -99,-234 0,-203 56,-322 112,-440 63,-133 125,-266 89,-537 -7,-49 -17,-96 -30,-132 -9,-23 -19,-41 -29,-47l0 0c-5,-3 -9,-7 -13,-12l-13 -17c-136,-103 -290,-186 -457,-242 -162,-55 -336,-86 -515,-87 -176,1 -346,31 -505,83 -163,55 -314,134 -451,233l-16 15c10,60 5,112 0,163 -7,66 -12,128 27,189 75,114 66,176 56,250 -9,65 -20,142 68,312 49,95 93,133 126,162 31,26 55,47 72,88 28,65 -3,107 -34,149 -14,20 -29,40 -19,55 48,74 -24,134 -102,199 -32,26 -65,55 -84,80 -2,4 -6,7 -8,11 124,62 256,112 395,146 151,38 311,59 475,59 213,0 419,-35 610,-98l-1 -2z"/>
  <path class="fil4" d="M10247 4184c564,0 1075,228 1443,598 370,370 598,880 598,1443 0,564 -228,1075 -598,1443 -370,370 -880,598 -1443,598 -564,0 -1075,-228 -1443,-598 -370,-370 -598,-880 -598,-1443 0,-564 228,-1075 598,-1443 370,-370 880,-598 1443,-598zm1377 665c-352,-352 -840,-571 -1377,-571 -538,0 -1025,218 -1377,571 -352,352 -571,840 -571,1377 0,538 218,1025 571,1377 352,352 840,571 1377,571 538,0 1025,-218 1377,-571 352,-352 571,-840 571,-1377 0,-538 -218,-1025 -571,-1377z"/>
  <rect class="fil0" x="10818" y="7735" width="558" height="511"/>
  <path class="fil4" d="M11491 7858l-429 1333c-9,28 -39,43 -66,34 -5,-2 -9,-4 -13,-7l0 0c-389,-263 -298,-777 -222,-1209 11,-61 22,-121 28,-164 19,-122 39,-252 59,-390 19,-132 36,-264 51,-392 7,-66 21,-132 33,-196 18,-90 35,-176 33,-246 -2,-77 -8,-146 -22,-204 -12,-54 -29,-97 -51,-127 -128,-167 -291,-232 -366,-263 -36,-14 -58,-23 -69,-45 -14,-26 -4,-58 22,-72 12,-7 26,-8 38,-5l232 51c2,0 2,1 4,1l0 0c98,31 193,69 283,115 91,47 178,102 259,163 4,3 7,7 10,10l12 14c27,21 48,53 64,93 17,45 29,100 36,156 41,302 -28,448 -98,596 -50,108 -101,215 -101,395 0,55 32,116 74,167 55,66 122,115 157,118 29,3 50,29 47,58 -1,4 -2,8 -2,12l-2 2zm-507 1228l391 -1213c-54,-26 -117,-76 -167,-137 -56,-68 -99,-151 -99,-234 0,-203 56,-322 112,-440 63,-133 125,-266 89,-537 -7,-49 -17,-96 -30,-132 -9,-23 -19,-41 -29,-47l0 0c-5,-3 -9,-7 -13,-12l-13 -17c-74,-56 -154,-107 -237,-150 -36,-18 -73,-36 -111,-52 35,31 69,68 102,111 33,43 56,100 71,169 14,65 22,140 23,224 2,82 -17,173 -35,268 -12,62 -25,127 -32,188 -15,127 -32,261 -51,395 -18,127 -39,261 -60,391 -10,62 -19,113 -28,166 -66,376 -146,819 119,1058l-1 1z"/>
  <polygon class="fil9" points="10489,5988 10786,6028 10949,6192 10772,6110 10645,6073 10489,6073 "/>
  <path class="fil3" d="M9946 5939l207 26c18,2 34,12 46,26 10,12 17,29 16,46l0 0c0,2 0,4 -1,7l0 0c-2,18 -12,33 -24,44 -13,11 -30,17 -48,15 -1,0 -2,0 -3,0l0 0c-36,-4 -55,-12 -74,-18 -22,-8 -44,-17 -119,-17 -46,1 -73,13 -104,26 -17,7 -36,16 -60,23 -22,7 -134,211 -141,189 -37,22 7,-91 46,-160 28,-50 52,-100 59,-104l2 -1c50,-36 108,-79 184,-98 5,-2 11,-2 16,-1l0 0 -1 -2z"/>
  <path class="fil4" d="M10252 4791c278,2 540,69 773,187 241,122 449,299 609,515 12,17 12,41 -1,57 -80,109 -148,228 -200,357 -50,125 -87,257 -105,395 -3,26 -27,44 -53,41 -8,-1 -17,-5 -23,-10l0 0c-141,-110 -299,-199 -471,-258 -166,-58 -344,-90 -529,-91 -185,1 -363,33 -529,91 -171,60 -330,148 -471,258 -21,16 -50,12 -66,-8 -6,-7 -9,-17 -10,-26 -19,-136 -55,-268 -105,-392 -52,-128 -120,-247 -200,-357 -13,-17 -12,-41 1,-57 160,-215 368,-392 608,-515 232,-118 495,-185 773,-187l0 0 0 0 -1 0zm730 271c-219,-112 -467,-175 -730,-177 -262,2 -510,65 -730,177 -218,111 -407,268 -555,460 77,108 141,225 192,349 44,108 77,222 99,339 132,-94 278,-170 435,-225 175,-61 364,-95 560,-96l0 0 0 0c196,2 385,35 560,96 156,55 303,131 435,225 22,-118 55,-232 99,-339 50,-124 115,-241 192,-349 -148,-191 -338,-349 -555,-460l-2 0zm651 487c-2,3 -6,7 -9,9m9 -9l0 0 0 0z"/>
  <path class="fil8" d="M10307 6070c529,0 785,127 683,692 -61,342 -260,697 -648,718 -385,22 -607,-361 -683,-716 -119,-555 110,-694 648,-694z"/>
  <path class="fil3" d="M10307 6016c276,0 484,35 613,148 132,116 177,304 122,607 -36,196 -114,397 -246,543 -112,123 -261,208 -452,218 -190,11 -343,-68 -462,-193 -141,-148 -232,-361 -275,-566 -64,-298 -31,-486 93,-605 122,-115 324,-154 606,-154l1 1zm543 227c-106,-93 -291,-122 -543,-122 -256,0 -436,31 -534,124 -95,90 -117,248 -62,505 41,188 122,383 249,515 98,103 225,168 380,160 160,-9 285,-80 379,-184 117,-130 189,-312 220,-491 47,-262 14,-419 -89,-509z"/>
  <path class="fil5" d="M10533 5836c0,127 -103,230 -230,230l0 0c-127,0 -230,-103 -230,-230l-26 -394 -38 -585c79,-12 160,-18 242,-19 117,1 231,13 340,36l-34 549 -25 411 1 1z"/>
  <path class="fil15" d="M10465 5725c0,45 -18,85 -48,115 -30,30 -70,48 -115,48 -45,0 -85,-18 -115,-48 -30,-30 -48,-70 -48,-115l-12 -184c0,-1 0,-2 0,-3l-18 -395c-1,-27 18,-50 45,-55l0 0c20,-3 41,-5 61,-7 19,-2 40,-2 61,-2l0 0 0 0c30,0 59,2 87,5 29,3 58,7 86,14 26,6 45,31 41,57l-16 377 0 1 0 0 -12 193 0 0 2 0zm-122 40c10,-10 17,-24 17,-40l0 0c0,-1 0,-2 0,-3l12 -196 0 0 14 -333c-11,-2 -21,-3 -31,-4 -26,-2 -51,-4 -76,-4 -17,0 -35,1 -54,2l-7 1 16 346 0 2 12 184c0,2 1,4 1,7 0,16 7,30 17,40 10,10 24,17 40,17 16,0 30,-7 40,-17l1 0z"/>
  <path class="fil3" d="M10007 6230c74,0 98,43 113,70 3,5 4,9 5,9 7,5 17,17 22,28 2,7 4,14 4,21 0,10 -4,18 -12,25 -6,5 -13,8 -24,9 -4,0 -8,2 -14,7 -9,6 -22,14 -47,23 -31,12 -64,9 -96,0 -31,-8 -60,-23 -88,-38 -7,-4 -14,-7 -20,-11 -22,-12 -42,-22 -57,-28 -11,-4 -17,-16 -13,-27 2,-7 9,-13 17,-14l83 -15c14,-7 29,-16 44,-26 28,-18 55,-36 83,-36l-1 2zm76 91c-11,-19 -27,-49 -76,-49 -15,0 -37,14 -60,29 -17,11 -33,22 -51,29 -2,1 -3,2 -6,2l-22 4 2 2c7,3 13,7 20,11 26,13 53,27 79,35 25,7 49,9 69,1 21,-7 31,-15 40,-20 10,-6 17,-10 27,-12 -2,-3 -3,-5 -4,-6 -8,-5 -13,-14 -19,-25l1 0z"/>
  <path class="fil11" d="M10007 6250c3,0 7,0 9,1 22,12 37,36 37,64 0,41 -33,73 -73,73 -41,0 -73,-33 -73,-73 0,-6 1,-11 2,-16 35,-20 69,-48 98,-48l0 -1z"/>
  <path class="fil3" d="M10007 6217c1,0 3,0 7,0 2,0 4,0 7,1 6,1 11,2 16,6 16,9 28,22 37,37 9,16 15,34 15,54 0,30 -12,56 -31,75l0 0 0 0 0 0c-19,19 -46,31 -75,31 -30,0 -56,-12 -75,-31l0 0c-19,-19 -31,-46 -31,-75 0,-3 0,-7 1,-12 1,-3 1,-7 2,-12 2,-10 9,-18 17,-22 6,-3 15,-9 24,-15 1,0 2,-1 2,-1 30,-19 58,-36 88,-36l-1 0zm7 79c-2,-4 -5,-7 -9,-11 -12,1 -31,13 -50,26 -1,1 -1,1 -2,1 -4,2 -7,5 -12,7 1,9 5,17 12,24 7,7 17,12 28,12 11,0 21,-4 27,-12l0 0c7,-7 12,-17 12,-27 0,-7 -2,-14 -5,-20z"/>
  <path class="fil4" d="M10586 5853c0,78 -32,149 -84,200 -51,51 -122,84 -200,84 -78,0 -149,-32 -200,-84 -51,-51 -83,-122 -84,-200l-25 -390 -38 -585c-2,-27 18,-51 45,-55l0 0c41,-6 82,-11 124,-14 40,-3 82,-5 125,-5l0 0 0 0c60,0 119,4 177,10 60,7 117,16 175,28 26,6 44,31 41,56l-34 548 -25 409 0 0 2 -1zm-158 125c32,-32 52,-76 52,-125l0 0c0,-1 0,-2 0,-3l25 -411 31 -504c-39,-7 -79,-13 -119,-17 -55,-6 -111,-9 -165,-10 -38,0 -77,2 -117,5 -23,2 -46,4 -69,7l35 536 25 390c0,2 1,4 1,7 0,49 20,93 52,125 32,32 76,52 125,52 49,0 93,-20 125,-52l1 1z"/>
  <path class="fil3" d="M10463 6335c-1,8 -2,18 -1,30 1,12 2,26 5,43 15,93 12,157 7,251 -1,14 -2,28 -2,42 11,15 24,37 30,60 7,25 7,51 -7,76 -13,24 -36,31 -65,40 -8,2 -17,6 -26,9 -18,7 -40,-2 -46,-21 -1,-2 -2,-5 -2,-7l0 0 -12 -69c-12,-65 -8,-114 -5,-165 2,-32 4,-65 3,-103l0 0c-1,-21 -2,-41 -4,-61 -2,-20 -4,-41 -7,-62 -6,-41 -8,-70 -7,-96 2,-28 7,-50 17,-70 0,-1 1,-2 1,-2 73,-141 136,-146 253,-155 23,-2 49,-3 79,-7 5,-1 11,0 16,2 37,9 71,21 103,34 32,14 62,31 89,50 16,12 20,34 8,50 -9,13 -26,18 -41,13l0 0 -12 -4c-58,-19 -90,-30 -160,-31 -60,1 -114,12 -153,41 -31,23 -52,59 -59,112l-1 1zm-52 405c-1,-1 -2,-2 -2,-2 1,13 2,26 5,41l5 29c7,-2 12,-2 12,-3 3,-6 2,-15 1,-24 -5,-19 -16,-36 -22,-41l0 0 1 1zm-17 -433l0 2c3,-18 7,-34 13,-49 -1,2 -2,3 -2,5 0,1 -1,1 -1,2 -6,12 -9,24 -10,41z"/>
  <path class="fil3" d="M10286 6803c5,19 13,33 24,41 5,4 10,6 15,7 4,0 8,-1 12,-3 8,-5 16,-17 22,-34l65 22c-11,33 -29,55 -49,69 -17,12 -36,16 -55,15 -18,-2 -36,-8 -51,-21 -22,-17 -40,-44 -48,-79l65 -17 1 0z"/>
  <path class="fil3" d="M10169 7015c10,-5 19,-10 27,-15 42,-26 74,-44 113,5 17,20 34,8 50,-2 18,-12 36,-24 58,-24 23,0 37,12 55,28 15,13 34,30 65,35 1,0 2,0 3,1 21,4 30,12 26,34 0,2 0,2 -1,4 -3,15 -11,21 -22,22 -3,1 -7,2 -12,1 -1,0 -2,0 -3,-1 -1,0 -1,0 -2,0l-1 0c-5,-1 -10,-1 -15,-2 -30,-4 -83,-11 -91,-11 -12,0 -26,3 -41,6 -16,3 -31,7 -50,7 -17,1 -32,-2 -47,-5 -11,-2 -22,-4 -31,-4 -10,0 -20,2 -31,3 -10,2 -22,3 -35,5 -1,0 -2,0 -2,0l-50 4 0 0 0 0 -17 2c-17,2 -31,-11 -33,-27 -1,-12 6,-25 17,-30 7,-3 35,-19 67,-35l0 -1z"/>
  <path class="fil12" d="M10387 7062c36,-6 78,-12 78,6 0,57 -68,87 -131,88 -65,2 -136,-33 -136,-82 0,-17 42,-13 78,-10 18,3 37,8 55,7 19,-1 38,-6 56,-9z"/>
  <path class="fil3" d="M10380 7020l5 -1c18,-2 38,-6 55,-6 40,0 67,13 67,55 0,42 -22,74 -55,96 -32,22 -76,33 -117,34l-1 0 -3 0 0 0 0 0c-38,0 -79,-11 -111,-28 -38,-22 -64,-54 -65,-94l0 -1 0 -1 0 0 0 0c0,-39 27,-53 66,-55 18,-1 39,1 58,3 1,0 2,0 3,1 6,1 11,2 15,2 12,2 23,4 31,4l0 0c11,0 24,-3 37,-6 5,-1 10,-2 12,-2 1,0 1,0 2,0l0 0 -1 -1zm-47 93c13,0 26,-2 38,-5 -12,2 -25,4 -39,5l-1 0 -1 0 0 0 2 0 0 0z"/>
  <path class="fil3" d="M10128 6257c3,7 7,15 8,23l0 0 0 0c2,8 2,17 2,24 0,4 0,9 -1,14 -1,5 -2,9 -2,14 -3,15 -17,25 -33,23 -6,-1 -12,-3 -16,-7 -4,-2 -7,-6 -9,-9 -2,-2 -2,-4 -3,-6l-1 -2 0 0 -2 -2c-1,-1 -1,-2 -2,-3l0 0c-1,-2 -2,-6 -3,-10 -5,-16 -13,-39 -48,-39 -12,0 -34,13 -55,27 -12,7 -25,16 -37,22 9,8 12,22 7,33 -5,13 -18,20 -31,18l0 0 -64 -10c-4,-1 -7,-2 -11,-4 -10,-5 -19,-11 -27,-15 -8,-4 -17,-8 -23,-10 -16,-5 -24,-22 -18,-37 2,-8 8,-14 16,-17l0 0 110 -52c1,0 1,-1 2,-1 8,-3 20,-9 31,-15 1,0 2,-1 2,-1 73,-36 149,-73 208,42l0 0 0 0 -1 -2z"/>
  <polygon class="fil9" points="10376,6394 10431,6394 10431,6732 10376,6732 "/>
  <path class="fil3" d="M10633 6272c-49,0 -65,30 -76,49 -6,11 -11,19 -19,25l0 0c-1,1 -2,2 -4,6 12,2 18,6 27,12 7,5 18,12 40,20 22,8 45,6 69,-1 26,-7 54,-21 79,-35 6,-3 12,-7 19,-10l3 -2 -22 -4c-2,0 -4,-1 -6,-2 -17,-7 -35,-18 -51,-29 -23,-15 -46,-29 -60,-29l1 -1zm-113 28c15,-27 40,-70 113,-70 27,0 55,17 83,36 15,9 30,19 44,26l83 15c7,1 14,7 17,14 4,11 -2,23 -13,27 -16,6 -36,17 -58,28 -6,3 -12,7 -20,11 -28,15 -58,29 -88,38 -32,9 -65,12 -96,0 -25,-9 -37,-17 -47,-23 -6,-3 -9,-6 -14,-7 -10,-1 -18,-4 -24,-9l0 0c-8,-7 -12,-16 -12,-25 0,-7 2,-14 4,-21 5,-12 15,-23 22,-28l0 0 0 0c1,-1 2,-4 5,-9l0 -2z"/>
  <path class="fil11" d="M10633 6250c-3,0 -7,0 -9,1 -22,12 -37,36 -37,64 0,41 33,73 73,73 41,0 73,-33 73,-73 0,-6 -1,-11 -2,-16 -35,-20 -69,-48 -98,-48l0 -1z"/>
  <path class="fil3" d="M10627 6217c3,0 6,0 7,0 31,0 60,18 89,37 8,5 17,11 24,15 8,4 15,12 17,22 1,3 2,7 2,11l0 1c1,4 1,8 1,12 0,29 -12,56 -31,75l0 0 0 0 0 0c-19,19 -46,31 -75,31 -30,0 -56,-12 -75,-31l0 0 0 0c-19,-19 -31,-46 -31,-75 0,-20 5,-38 15,-54 9,-16 22,-28 37,-38 4,-3 10,-5 16,-6 2,0 4,0 7,-1l-1 1zm8 68c-3,3 -7,7 -9,11 -3,6 -5,12 -5,20 0,11 4,21 12,28l0 0c7,7 17,12 27,12 11,0 21,-4 27,-12l0 0c6,-6 10,-14 11,-24 -4,-2 -8,-5 -12,-7 -21,-13 -41,-26 -52,-26l1 -1z"/>
  <path class="fil3" d="M10505 6280c2,-7 5,-15 8,-22 60,-117 136,-78 210,-41 11,6 22,11 31,15 1,0 1,1 2,1l109 51c7,3 13,9 17,17 6,16 -2,32 -18,38 -7,2 -15,6 -23,10 -8,4 -17,9 -27,15 -3,2 -7,3 -11,4l-64 10 0 0c-13,2 -26,-5 -31,-18 -5,-12 -2,-25 7,-33 -13,-7 -26,-15 -37,-22 -22,-14 -43,-27 -55,-27 -35,0 -43,24 -48,40l0 0c-2,4 -2,8 -3,10l0 0c-1,1 -1,2 -2,3 0,1 0,0 -1,2l0 0 0 0c0,0 0,1 -1,2l0 0c-1,2 -2,3 -2,5 -2,4 -6,7 -9,9l0 0 0 0c-5,3 -10,6 -16,7 -15,2 -29,-7 -33,-23 -1,-5 -2,-9 -2,-14 -1,-5 -1,-10 -1,-14 0,-7 1,-16 3,-24l-2 -1z"/>
  <path class="fil14" d="M8039 4895c-16,-2 -31,-1 -47,3 -16,4 -31,12 -44,23 -17,14 -28,32 -33,54 -5,22 -3,43 5,64 5,12 12,23 22,34 10,11 22,20 35,29 13,8 26,16 41,22 15,7 29,12 43,15 24,6 45,8 64,8 19,-1 38,-5 57,-14 17,-8 31,-21 43,-36 12,-17 17,-33 15,-51 -2,-19 -7,-36 -16,-50 -9,-14 -20,-26 -31,-36 -2,-2 -2,-8 2,-19 3,-11 7,-23 12,-36 5,-12 10,-23 15,-33 5,-10 8,-13 9,-11 11,11 19,22 26,34 7,12 12,26 15,40 6,22 8,42 7,62 0,20 -2,39 -7,57 -4,18 -10,36 -17,51 -7,17 -15,32 -23,47 -20,36 -45,62 -77,76 -31,14 -65,20 -102,16 -20,-2 -38,-6 -56,-12 -18,-6 -35,-15 -50,-26 -15,-11 -28,-24 -40,-39 -12,-15 -21,-32 -26,-52 -3,-12 -6,-22 -7,-33 -1,-10 -2,-21 -1,-31 1,-10 2,-20 5,-31 2,-11 5,-22 8,-34 3,-13 7,-26 13,-38 5,-12 11,-26 17,-40 12,-26 31,-50 55,-71 25,-21 55,-33 89,-37 2,0 2,6 0,16 -2,10 -4,22 -8,34 -3,15 -8,31 -13,49l0 -7 -1 2zm400 -437c13,-5 27,-7 41,-4 13,2 26,7 38,13 12,7 23,16 33,26 10,11 19,22 26,36 4,7 7,15 8,23 2,8 2,17 3,24 0,7 0,15 -1,22 -1,7 -2,12 -2,17 -2,12 -7,25 -15,39 -7,14 -16,27 -26,39 -11,12 -22,22 -36,29 -13,7 -27,11 -41,8 -9,-1 -16,-2 -20,-3 -3,-2 -6,-3 -7,-6 -1,-2 -1,-4 1,-7l32 -71c10,5 19,8 27,10 7,2 15,2 22,1 7,-1 12,-5 16,-12 3,-8 4,-17 2,-26 -2,-10 -10,-22 -24,-35 -9,-8 -20,-16 -32,-23 -13,-7 -26,-12 -41,-15 -14,-2 -28,-2 -42,0 -14,2 -26,9 -36,21 -11,12 -19,25 -25,37 -6,12 -10,22 -12,26 17,14 34,28 50,41 17,13 31,26 44,36 13,11 24,20 33,27 9,7 14,12 16,13 1,1 -2,6 -8,16 -6,10 -13,20 -21,31 -7,12 -15,22 -22,31 -7,9 -10,14 -10,14 -1,0 -4,-2 -11,-8 -7,-6 -15,-13 -26,-22 -10,-9 -22,-19 -35,-31 -13,-12 -26,-23 -41,-35 -32,-28 -68,-59 -108,-94 -14,-2 -26,-3 -38,-4 -10,-2 -20,-2 -28,-4 -8,-1 -14,-2 -17,-2 -1,0 0,-3 3,-10 3,-7 8,-14 14,-23 6,-9 12,-19 20,-29 7,-11 14,-21 21,-29 7,-9 12,-17 16,-22 4,-6 7,-9 7,-10l0 -1c6,-9 11,-18 15,-26 4,-7 9,-15 13,-22 4,-7 8,-12 11,-17 8,-11 18,-20 30,-28 12,-8 23,-14 36,-17 12,-3 25,-3 37,-1 12,3 24,11 35,22 8,10 13,21 15,31 1,10 2,17 2,21 1,7 1,15 0,21 -1,3 -1,7 -2,11 6,-7 12,-15 18,-22 6,-6 12,-12 19,-17 7,-6 15,-10 22,-12l-2 2zm-98 81c-1,-11 -5,-21 -11,-29 -6,-8 -13,-15 -22,-20 -9,-5 -19,-7 -30,-7 -11,0 -22,4 -31,12 -8,6 -16,12 -22,21 -6,7 -10,14 -13,18 12,10 26,22 43,36 17,14 36,30 56,46 2,-4 6,-9 9,-15 3,-6 7,-12 10,-20 3,-7 6,-14 8,-22 2,-7 3,-14 2,-20l0 -1zm360 -511c0,0 7,7 17,21 12,13 26,31 42,50 17,21 35,43 55,67 20,24 39,46 55,68 17,21 31,39 44,54 12,15 19,23 21,26 1,1 -3,6 -11,14 -7,8 -17,17 -26,27 -10,10 -19,18 -27,26 -8,7 -12,12 -12,12 -1,0 -4,-4 -11,-12 -7,-7 -14,-17 -24,-30 -9,-12 -20,-26 -32,-41 -12,-15 -24,-31 -36,-46 -14,10 -24,22 -31,36 -7,14 -12,30 -12,46 -1,17 2,34 9,51 7,18 18,36 33,53 1,1 -3,6 -11,14 -7,8 -17,17 -26,27 -12,12 -24,25 -37,39 -3,-4 -7,-8 -10,-13 -3,-5 -7,-10 -10,-16 -3,-6 -7,-13 -10,-21 -4,-12 -7,-26 -8,-43 -2,-17 -2,-33 0,-48 1,-7 2,-15 4,-22 2,-7 3,-12 6,-17 2,-6 5,-12 8,-17 -2,2 -7,2 -11,3 -3,1 -8,2 -13,2 -5,1 -12,1 -20,0 -11,0 -22,-3 -34,-9 -12,-6 -22,-14 -31,-25 -9,-11 -17,-23 -21,-38 -4,-15 -5,-31 -2,-50 2,-17 11,-34 23,-50 13,-17 26,-32 41,-46 17,-17 35,-32 54,-47 6,-5 12,-10 18,-16 7,-6 12,-11 17,-16 7,-6 12,-12 18,-17l2 0zm5 246c7,-2 15,-7 23,-12 7,-5 13,-9 17,-12 -9,-12 -18,-23 -26,-34 -8,-11 -16,-21 -22,-29l-21 -26 -15 -19c-4,-6 -9,-11 -13,-17 -4,-6 -8,-10 -12,-14 -4,4 -9,8 -15,14 -6,6 -11,10 -15,15 -7,7 -11,15 -12,25 -2,10 -1,20 1,30 2,10 5,20 10,29 5,10 10,17 16,24 12,13 26,22 42,26 17,5 31,5 43,0l0 -1zm103 -324c0,-1 7,-5 22,-12 15,-7 33,-17 55,-28 22,-11 44,-22 68,-34 23,-12 43,-22 60,-31 12,-6 24,-12 38,-19 14,-7 29,-15 44,-22 15,-7 31,-15 45,-22 15,-7 28,-14 40,-19 12,-6 21,-10 28,-13 7,-3 11,-5 11,-5l1 2c1,6 1,12 2,18 0,7 1,13 1,20 0,7 0,12 0,18 0,6 -1,10 -1,12 -1,2 -2,2 -6,1 -7,-4 -16,-7 -25,-10 -9,-2 -19,-2 -30,-1 -3,1 -7,2 -13,5 -6,2 -13,6 -21,10 -8,4 -17,8 -26,13 -9,5 -19,10 -29,15 6,11 14,25 23,43 10,18 21,38 31,60 12,22 23,44 35,66 12,22 22,43 32,61 10,19 18,35 25,47 7,13 11,21 12,23 0,1 -2,2 -6,6 -4,3 -10,7 -17,12 -7,5 -14,10 -22,15 -8,5 -15,10 -22,14 -7,4 -12,7 -17,11 -5,3 -7,4 -7,4l-161 -314c-20,10 -38,19 -55,27 -17,9 -26,15 -31,18 -7,7 -13,15 -17,24 -3,9 -7,17 -7,26 -1,3 -2,5 -3,3 -2,-2 -6,-4 -11,-7 -5,-3 -9,-7 -15,-11 -5,-4 -10,-8 -16,-12 -5,-4 -10,-8 -14,-12 0,-1 -1,-1 -2,-1l1 -2zm523 -232c10,-6 22,-12 33,-18 12,-7 24,-12 36,-17 12,-6 26,-11 38,-15 13,-4 26,-7 37,-9 7,-1 14,1 23,5 9,4 16,8 22,12 5,3 12,11 24,22 11,11 24,24 39,39 15,15 31,31 47,49 17,17 34,35 50,52 17,17 32,33 46,49 15,15 26,28 36,38 3,4 7,6 12,6 4,0 9,0 13,-2 4,-1 8,-3 12,-6 4,-2 7,-5 10,-7l12 18c-2,2 -7,6 -16,11 -8,5 -17,11 -28,16 -11,6 -21,11 -31,17 -10,5 -18,9 -25,11 -12,4 -22,5 -31,2 -9,-2 -18,-8 -29,-20 -12,-13 -22,-25 -31,-35 -9,-10 -17,-19 -26,-28 -8,-8 -16,-17 -24,-24 -8,-7 -17,-17 -26,-26 -7,18 -13,36 -19,54 -6,18 -12,36 -21,53 -8,17 -17,34 -28,50 -11,17 -25,32 -41,48 2,-7 2,-14 3,-20 1,-6 0,-11 -1,-16 -3,-9 -7,-18 -11,-26 -3,-8 -7,-17 -12,-26 -17,-28 -26,-56 -26,-84 -1,-28 6,-56 20,-85 4,-8 10,-18 17,-30 7,-12 14,-20 21,-26 -7,-11 -17,-21 -30,-28 -12,-7 -24,-11 -36,-8 -4,1 -8,2 -13,4 -5,2 -10,5 -14,7 -5,2 -9,5 -12,7 -4,2 -7,4 -8,4 0,-1 -1,-2 -2,-3 -2,-2 -3,-4 -5,-6 -2,-2 -3,-4 -5,-6 -2,-2 -2,-3 -2,-3l1 0zm171 216c5,-11 9,-20 13,-28 4,-8 7,-16 11,-23 3,-7 6,-14 8,-22 2,-7 5,-15 7,-23 -8,-10 -17,-20 -25,-30 -7,-8 -15,-17 -22,-25 -8,-8 -15,-15 -21,-21 -6,14 -10,25 -11,32 -1,7 -2,14 -2,17 -1,14 0,26 3,37 3,11 7,20 12,29 5,9 10,17 15,26 5,9 10,18 13,29l-1 0zm656 -390c0,1 1,10 3,27 2,17 4,40 7,66 2,26 5,55 8,86 3,31 6,60 8,87 2,27 5,50 7,69 2,19 2,30 3,33 0,1 -6,2 -17,6 -12,2 -23,5 -37,7 -13,2 -26,5 -37,7 -12,2 -17,2 -17,2 -1,-1 -2,-6 -2,-16 -1,-10 -2,-22 -3,-37 -1,-16 -2,-32 -4,-51 -2,-19 -3,-38 -4,-58 -17,1 -33,5 -47,12 -14,7 -26,18 -36,31 -10,13 -17,30 -21,48 -4,19 -5,40 -2,62 0,1 -6,2 -17,6 -12,2 -23,6 -37,8 -16,3 -34,7 -53,12 0,-5 -1,-11 -1,-17 0,-6 0,-12 1,-19 1,-7 2,-14 3,-22 3,-12 8,-26 17,-41 8,-15 17,-28 26,-40 5,-6 10,-11 15,-16 5,-4 10,-8 15,-11 5,-3 11,-7 16,-10 -3,0 -7,-2 -11,-3 -3,-2 -7,-3 -12,-6 -5,-2 -10,-6 -17,-12 -9,-7 -17,-15 -23,-26 -7,-12 -11,-24 -12,-38 -2,-14 -1,-28 4,-43 4,-15 13,-29 26,-42 12,-12 27,-22 48,-29 20,-7 40,-12 60,-17 23,-4 46,-7 71,-9 7,-1 16,-2 24,-2 8,-1 17,-2 23,-3 8,-1 17,-2 25,-4l1 1zm-133 206c7,2 17,3 26,3 9,0 17,0 22,0 -1,-15 -2,-30 -3,-43 -1,-13 -2,-26 -2,-36l-2 -34 -2 -24c-1,-7 -1,-14 -2,-22 -1,-7 -2,-13 -2,-19 -6,1 -12,2 -20,3 -8,1 -15,2 -21,4 -9,2 -17,7 -24,13 -7,7 -12,16 -16,25 -4,9 -7,19 -8,30 -2,11 -2,20 -1,28 2,17 9,33 20,45 11,13 23,22 36,24l1 2zm930 -98c0,1 -2,9 -5,26 -3,17 -7,39 -13,65 -6,26 -12,55 -17,84 -7,31 -12,59 -17,86 -6,27 -10,50 -14,69 -4,19 -7,30 -7,32 0,1 -6,1 -17,0 -12,-1 -24,-2 -37,-3 -13,-2 -26,-3 -38,-5 -12,-2 -17,-2 -17,-3 0,-1 2,-9 5,-23 3,-14 7,-32 12,-54 5,-22 10,-44 16,-69 6,-24 11,-47 16,-68 -12,4 -28,8 -45,13 -17,5 -35,11 -53,16 -18,6 -35,11 -50,15 -16,5 -28,8 -36,11 -6,30 -11,54 -15,74 -4,19 -7,31 -7,33 0,1 -6,1 -17,0 -12,-1 -24,-2 -37,-3 -13,-2 -26,-3 -38,-5 -12,-2 -17,-2 -17,-2 0,-1 1,-5 2,-14 2,-8 5,-20 7,-33 3,-13 7,-29 11,-46 4,-17 8,-35 12,-53 10,-41 21,-89 34,-141 -5,-13 -10,-25 -14,-36 -3,-10 -7,-18 -10,-26 -3,-8 -5,-13 -5,-16 0,-1 2,-1 6,-1 4,0 10,0 17,0 7,0 15,1 24,2 9,1 17,2 26,3 22,3 46,6 74,10 0,1 -2,7 -4,22 -2,14 -7,32 -11,54 -5,22 -10,46 -15,73 -6,26 -11,53 -17,79 12,-3 26,-7 42,-12 17,-4 33,-9 50,-14 17,-5 34,-10 50,-14 17,-4 30,-8 41,-12 2,-7 3,-15 5,-21 2,-6 3,-11 4,-15l3 -12c-5,-13 -10,-25 -14,-36 -3,-10 -7,-18 -10,-26 -3,-8 -5,-13 -5,-16 0,-1 2,-1 6,-1 4,0 10,0 17,0 7,0 15,1 23,2 9,1 17,2 26,3 22,3 46,6 74,10l-1 0zm423 518c-5,3 -12,6 -24,8 -12,2 -29,6 -53,9 -12,2 -22,2 -31,1 -9,-2 -17,-4 -23,-7 -7,-3 -12,-7 -17,-12 -5,-4 -9,-9 -12,-14 -3,-4 -7,-16 -14,-34 -7,-18 -13,-39 -21,-62 -7,-23 -14,-46 -21,-67 -7,-22 -12,-38 -15,-49 -7,18 -15,36 -22,53 -7,17 -14,32 -20,46 -6,14 -11,25 -14,34 -3,9 -6,14 -7,16 0,1 -6,0 -17,-3 -11,-3 -23,-7 -36,-11 -13,-4 -25,-8 -36,-12 -11,-4 -17,-6 -17,-7 0,-1 2,-5 5,-13 3,-8 8,-18 13,-31 6,-12 12,-27 20,-43 7,-17 15,-33 22,-50 17,-39 37,-83 60,-132 -2,-15 -5,-27 -7,-39 -2,-10 -3,-19 -4,-28 -1,-8 -2,-14 -2,-17 0,-1 2,-1 6,0 4,1 9,2 16,4 7,2 14,4 23,7 8,2 17,5 26,8 21,7 45,15 71,24 0,1 -2,4 -5,12 -3,7 -7,17 -12,30 -5,12 -11,26 -17,43 -7,17 -14,33 -22,51 12,-6 26,-12 43,-21 17,-7 34,-15 50,-22 17,-7 31,-13 45,-18 13,-6 22,-9 26,-11 4,-2 10,-2 16,-2 6,0 12,0 17,1 6,1 11,2 16,3 5,2 8,3 11,6 2,2 5,6 8,10 3,5 5,9 7,14 2,5 2,9 3,13 1,4 0,7 -2,8 -2,2 -6,3 -12,7 -6,2 -12,6 -20,9 -7,3 -14,7 -21,9 -7,2 -12,5 -15,5 -7,2 -11,2 -13,1 -2,-1 -4,-4 -7,-11 -3,-7 -7,-12 -12,-19 -5,-7 -9,-10 -13,-12 -2,-1 -6,0 -12,2 -6,2 -12,5 -19,8 -7,3 -14,6 -21,9 -7,3 -12,6 -14,7 -3,2 -4,4 -3,8 1,4 3,11 7,20 2,3 4,12 8,24 4,12 10,28 16,46 6,17 12,36 20,56 7,20 14,39 20,55 7,17 12,31 17,43 5,12 8,18 11,20 2,2 5,3 9,3 4,0 8,0 13,0 5,-1 9,-1 13,-2 4,-1 8,-2 11,-2 1,2 2,4 2,7 0,2 0,4 1,6l1 5z"/>
  <path class="fil14" d="M11529 4364c-32,-26 -52,-56 -60,-90 -8,-33 -7,-68 3,-103 5,-19 12,-36 22,-53 9,-17 21,-31 35,-44 13,-12 29,-23 46,-31 17,-8 36,-14 56,-17 12,-2 23,-2 33,-1 10,1 21,2 30,5 10,2 19,7 29,11 10,4 20,9 31,14 12,6 24,12 36,20 12,7 23,16 36,24 15,11 28,24 40,40 12,16 21,33 27,52 7,19 11,38 12,59 1,20 -2,40 -8,58 -6,17 -15,35 -25,50 -11,16 -23,30 -37,42 -14,12 -30,22 -46,30 -17,7 -34,12 -53,12 -22,1 -43,0 -62,-4 -20,-4 -38,-10 -55,-17 -17,-7 -33,-17 -47,-26 -15,-10 -29,-21 -42,-31l-1 1zm244 -55c7,-12 16,-26 24,-41 8,-15 15,-30 20,-45 5,-16 7,-31 7,-47 0,-16 -5,-31 -13,-48 -11,-20 -26,-34 -46,-42 -20,-9 -41,-11 -64,-7 -12,2 -25,7 -37,15 -12,8 -24,17 -35,28 -11,11 -21,23 -30,36 -9,13 -17,26 -23,40 -10,22 -17,42 -20,61 -3,19 -2,38 2,59 5,18 14,35 27,49 14,14 30,22 47,24 17,2 32,0 46,-5 14,-5 27,-12 39,-20 12,-8 22,-18 31,-29 9,-11 17,-21 23,-31l0 2zm562 315c0,0 -7,7 -20,18 -13,12 -29,27 -49,45 -20,18 -41,37 -65,58 -23,21 -45,41 -65,59 -21,18 -38,34 -52,46 -14,12 -22,20 -25,22 -1,1 -6,-2 -14,-10 -9,-7 -18,-16 -28,-25 -10,-9 -19,-18 -27,-26 -8,-8 -12,-12 -12,-12 0,0 3,-2 8,-7 5,-5 12,-11 21,-18 8,-7 19,-16 30,-26 12,-10 23,-20 36,-31 -5,-6 -13,-15 -24,-27 -12,-12 -22,-25 -35,-39 -12,-13 -22,-26 -32,-37 -10,-12 -16,-18 -19,-22l-1 -1c-22,21 -41,38 -56,50 -15,13 -23,21 -26,22 -1,1 -6,-2 -14,-10 -9,-7 -18,-16 -28,-25 -10,-9 -19,-18 -27,-26 -8,-8 -12,-12 -12,-12 0,-1 3,-4 10,-10 7,-6 15,-13 26,-22 11,-9 22,-19 36,-31 13,-12 27,-23 41,-36 32,-28 69,-60 111,-94 3,-14 7,-26 10,-37 2,-10 6,-19 8,-27 2,-8 4,-13 5,-16 0,-1 2,0 5,2 3,2 7,6 13,10 6,4 12,10 18,16 7,6 13,12 20,18 16,15 34,32 55,52 0,0 -6,6 -17,16 -11,10 -25,22 -41,37 -17,15 -36,31 -55,50 -21,19 -41,36 -60,54 5,5 12,14 22,26 10,12 20,24 31,37 12,13 22,26 32,37 11,12 18,22 25,27l75 -65c12,-11 24,-20 35,-29 3,-14 7,-26 10,-37 2,-10 6,-19 8,-27 2,-8 4,-13 5,-16 0,-1 2,0 5,2 3,2 7,6 13,10 6,4 12,10 18,16 7,6 13,12 20,18 16,15 34,32 55,52l-2 2zm83 151c8,9 16,19 25,29 8,11 17,22 25,32 8,12 15,23 22,35 7,12 12,24 16,35 2,7 2,14 -1,23 -2,9 -5,17 -8,24 -2,5 -8,14 -17,27 -8,13 -18,28 -31,46 -12,17 -25,36 -39,56 -14,20 -28,40 -41,60 -13,20 -26,38 -39,55 -12,17 -22,31 -30,43 -3,4 -4,8 -4,12 1,4 2,9 4,13 2,4 5,7 8,11 3,3 7,6 9,8l-16 16c-2,-2 -7,-6 -14,-13 -7,-7 -14,-15 -22,-25 -7,-9 -15,-18 -22,-27 -7,-9 -12,-17 -15,-22 -6,-11 -9,-21 -8,-30 0,-9 5,-20 14,-32 11,-14 20,-26 28,-37 8,-11 16,-21 22,-31 7,-9 13,-19 19,-28 6,-9 12,-20 20,-31 -19,-3 -38,-6 -56,-8 -18,-2 -37,-6 -55,-10 -18,-4 -37,-11 -55,-18 -18,-7 -36,-18 -55,-31 7,0 14,0 20,-1 6,-1 11,-2 15,-4 8,-6 17,-11 24,-16 7,-5 15,-11 22,-17 25,-22 50,-36 78,-42 27,-6 56,-5 88,2 9,2 20,7 32,12 12,5 22,10 30,16 9,-9 17,-21 22,-35 5,-13 6,-26 2,-36 -2,-4 -3,-8 -7,-12 -3,-4 -7,-8 -10,-12 -3,-4 -7,-8 -10,-11 -3,-3 -5,-6 -6,-7 1,0 2,-1 3,-2 2,-2 3,-3 5,-6 2,-2 3,-4 5,-6 2,-2 2,-2 3,-2l-1 1zm-180 209c12,2 22,5 31,7 9,2 17,4 25,6 7,2 15,2 22,4 7,1 15,2 24,2 8,-10 17,-20 25,-30 7,-8 14,-17 20,-27 7,-9 12,-17 17,-24 -15,-3 -26,-5 -34,-4 -8,1 -14,1 -17,2 -14,2 -26,5 -36,10 -10,5 -18,11 -26,17 -8,7 -16,12 -23,20 -7,7 -16,13 -26,18l-1 -1z"/>
  <circle class="fil16 str0" cx="15596" cy="6237" r="1979"/>
  <path class="fil17" d="M16791 7834c-333,247 -744,394 -1190,394 -342,0 -663,-86 -944,-237 9,-18 23,-39 41,-63 60,-79 219,-162 184,-218 -56,-86 83,-132 48,-212 -31,-73 -105,-70 -196,-247 -177,-343 17,-346 -121,-557 -85,-131 -4,-247 -41,-399l39 -37c277,-205 619,-327 989,-329 379,2 729,130 1009,344l17 22c46,28 70,121 84,217 69,517 -199,554 -199,984 0,158 195,330 279,338z"/>
  <path class="fil3" d="M16822 7878c-174,129 -367,231 -577,300 -203,67 -419,103 -644,103 -172,0 -340,-22 -500,-62 -165,-41 -323,-103 -469,-182 -26,-14 -36,-46 -22,-72 0,-1 1,-2 1,-2 5,-10 12,-21 18,-31 8,-12 17,-25 26,-37 26,-34 65,-66 102,-98 40,-33 84,-55 80,-60 -50,-76 -13,-126 22,-175 13,-18 26,-36 22,-45 -8,-19 -24,-32 -44,-50 -40,-35 -92,-80 -151,-194 -103,-199 -89,-294 -79,-375 7,-52 13,-96 -40,-177 -60,-91 -52,-171 -44,-257 5,-50 10,-103 -3,-158 -5,-19 2,-38 15,-50l0 0 39 -37c2,-2 4,-4 7,-6 145,-107 307,-192 481,-250 169,-56 350,-87 538,-89l0 0 0 0c193,2 377,34 549,93 179,61 344,151 491,262 4,3 7,7 10,10l12 14c27,21 48,53 64,93 17,45 29,100 36,156 41,302 -28,448 -98,596 -50,108 -101,215 -101,395 0,55 32,116 74,167 55,66 122,115 157,118 29,3 50,29 47,58 -2,16 -10,30 -22,38l1 2zm-610 199c170,-56 328,-135 474,-232 -43,-28 -89,-68 -127,-114 -56,-68 -99,-151 -99,-234 0,-203 56,-322 112,-440 63,-133 125,-266 89,-537 -7,-49 -17,-96 -30,-132 -9,-23 -19,-41 -29,-47l0 0c-5,-3 -9,-7 -13,-12l-13 -17c-136,-103 -290,-186 -457,-242 -162,-55 -336,-86 -515,-87 -176,1 -346,31 -505,83 -163,55 -314,134 -451,233l-16 15c10,60 5,112 0,163 -7,66 -12,128 27,189 75,114 66,176 56,250 -9,65 -20,142 68,312 49,95 93,133 126,162 31,26 55,47 72,88 28,65 -3,107 -34,149 -14,20 -29,40 -19,55 48,74 -24,134 -102,199 -32,26 -65,55 -84,80 -2,4 -6,7 -8,11 124,62 256,112 395,146 151,38 311,59 475,59 213,0 419,-35 610,-98l-1 -2z"/>
  <path class="fil4 str1" d="M15597 4184c564,0 1075,228 1443,598 370,370 598,880 598,1443 0,564 -228,1075 -598,1443 -370,370 -880,598 -1443,598 -564,0 -1075,-228 -1443,-598 -370,-370 -598,-880 -598,-1443 0,-564 228,-1075 598,-1443 370,-370 880,-598 1443,-598zm1377 665c-352,-352 -840,-571 -1377,-571 -538,0 -1025,218 -1377,571 -352,352 -571,840 -571,1377 0,538 218,1025 571,1377 352,352 840,571 1377,571 538,0 1025,-218 1377,-571 352,-352 571,-840 571,-1377 0,-538 -218,-1025 -571,-1377z"/>
  <path class="fil5" d="M15602 4838c551,3 1039,271 1343,683 -165,223 -275,486 -315,773 -284,-223 -641,-357 -1029,-359 -388,2 -745,136 -1029,359 -39,-287 -151,-551 -315,-773 305,-412 793,-679 1343,-683l2 0z"/>
  <path class="fil6" d="M15606 4843c210,2 410,41 596,113l-27 448 -38 625c-166,-56 -344,-88 -529,-89 -172,1 -338,28 -495,77l-37 -576 -32 -498c176,-64 366,-99 563,-101z"/>
  <path class="fil7" d="M16792 7839c-143,445 -287,890 -430,1335 -409,-277 -240,-879 -170,-1320 40,-252 81,-529 111,-784 18,-158 69,-321 67,-449 -3,-161 -28,-290 -84,-361 -180,-234 -420,-280 -431,-301l232 51c192,59 369,151 524,270l17 22c45,28 70,121 84,217 69,517 -199,554 -199,984 0,158 195,330 279,338z"/>
  <path class="fil3" d="M16841 7858l-429 1333c-9,28 -39,43 -66,34 -5,-2 -9,-4 -13,-7l0 0c-389,-263 -298,-777 -222,-1209 11,-61 22,-121 28,-164 19,-122 39,-252 59,-390 19,-132 36,-264 51,-392 7,-66 21,-132 33,-196 18,-90 35,-176 33,-246 -2,-77 -8,-146 -22,-204 -12,-54 -29,-97 -51,-127 -128,-167 -291,-232 -366,-263 -36,-14 -58,-23 -69,-45 -14,-26 -4,-58 22,-72 12,-7 26,-8 38,-5l232 51c2,0 2,1 4,1l0 0c98,31 193,69 283,115 91,47 178,102 259,163 4,3 7,7 10,10l12 14c27,21 48,53 64,93 17,45 29,100 36,156 41,302 -28,448 -98,596 -50,108 -101,215 -101,395 0,55 32,116 74,167 55,66 122,115 157,118 29,3 50,29 47,58 -1,4 -2,8 -2,12l-2 2zm-507 1228l391 -1213c-54,-26 -117,-76 -167,-137 -56,-68 -99,-151 -99,-234 0,-203 56,-322 112,-440 63,-133 125,-266 89,-537 -7,-49 -17,-96 -30,-132 -9,-23 -19,-41 -29,-47l0 0c-5,-3 -9,-7 -13,-12l-13 -17c-74,-56 -154,-107 -237,-150 -36,-18 -73,-36 -111,-52 35,31 69,68 102,111 33,43 56,100 71,169 14,65 22,140 23,224 2,82 -17,173 -35,268 -12,62 -25,127 -32,188 -15,127 -32,261 -51,395 -18,127 -39,261 -60,391 -10,62 -19,113 -28,166 -66,376 -146,819 119,1058l-1 1z"/>
  <polygon class="fil9" points="15839,5988 16136,6028 16540,6236 16123,6110 15996,6073 15839,6073 "/>
  <path class="fil15" d="M15602 4783c278,2 540,69 773,187 241,122 449,299 609,515 12,17 12,41 -1,57 -80,109 -148,228 -200,357 -50,125 -87,257 -105,395 -3,26 -27,44 -53,41 -8,-1 -17,-5 -23,-10l0 0c-141,-110 -299,-199 -471,-258 -166,-58 -344,-90 -529,-91 -185,1 -363,33 -529,91 -171,60 -330,148 -471,258 -21,16 -50,12 -66,-8 -6,-7 -9,-17 -10,-26 -19,-136 -55,-268 -105,-392 -52,-128 -120,-247 -200,-357 -13,-17 -12,-41 1,-57 160,-215 368,-392 608,-515 232,-118 495,-185 773,-187l0 0 0 0 -1 0zm730 271c-219,-112 -467,-175 -730,-177 -262,2 -510,65 -730,177 -218,111 -407,268 -555,460 77,108 141,225 192,349 44,108 77,222 99,339 132,-94 278,-170 435,-225 175,-61 364,-95 560,-96l0 0 0 0c196,2 385,35 560,96 156,55 303,131 435,225 22,-118 55,-232 99,-339 50,-124 115,-241 192,-349 -148,-191 -338,-349 -555,-460l-2 0zm651 487c-2,3 -6,7 -9,9m9 -9l0 0 0 0z"/>
  <path class="fil8" d="M15657 6070c529,0 785,127 683,692 -61,342 -260,697 -648,718 -385,22 -607,-361 -683,-716 -119,-555 110,-694 648,-694z"/>
  <path class="fil3" d="M15657 6016c276,0 484,35 613,148 132,116 177,304 122,607 -36,196 -114,397 -246,543 -112,123 -261,208 -452,218 -190,11 -343,-68 -462,-193 -141,-148 -232,-361 -275,-566 -64,-298 -31,-486 93,-605 122,-115 324,-154 606,-154l1 1zm543 227c-106,-93 -291,-122 -543,-122 -256,0 -436,31 -534,124 -95,90 -117,248 -62,505 41,188 122,383 249,515 98,103 225,168 380,160 160,-9 285,-80 379,-184 117,-130 189,-312 220,-491 47,-262 14,-419 -89,-509z"/>
  <path class="fil2" d="M15884 5836c0,127 -103,230 -230,230l0 0c-127,0 -230,-103 -230,-230l-26 -394 -38 -585c79,-12 160,-18 242,-19 117,1 231,13 340,36l-34 549 -25 411 1 1z"/>
  <path class="fil3" d="M15937 5836c0,78 -32,149 -84,200 -51,51 -122,84 -200,84 -78,0 -149,-32 -200,-84 -51,-51 -83,-122 -84,-200l-25 -390 -38 -585c-2,-27 18,-51 45,-55l0 0c41,-6 82,-11 124,-14 40,-3 82,-5 125,-5l0 0 0 0c60,0 119,4 177,10 60,7 117,16 175,28 26,6 44,31 41,56l-34 548 -25 409 0 0 2 -1zm-158 125c32,-32 52,-76 52,-125l0 0c0,-1 0,-2 0,-3l25 -411 31 -504c-39,-7 -79,-13 -119,-17 -55,-6 -111,-9 -165,-10 -38,0 -77,2 -117,5 -23,2 -46,4 -69,7l35 536 25 390c0,2 1,4 1,7 0,49 20,93 52,125 32,32 76,52 125,52 49,0 93,-20 125,-52l1 1z"/>
  <path class="fil7" d="M15762 5725c0,60 -50,109 -109,109l0 0c-60,0 -109,-50 -109,-109l-12 -188 -18 -397c37,-6 76,-9 115,-9 55,0 110,7 162,17l-16 381 -12 196z"/>
  <path class="fil10" d="M15815 5725c0,45 -18,85 -48,115 -30,30 -70,48 -115,48 -45,0 -85,-18 -115,-48 -30,-30 -48,-70 -48,-115l-12 -184c0,-1 0,-2 0,-3l-18 -395c-1,-27 18,-50 45,-55l0 0c20,-3 41,-5 61,-7 19,-2 40,-2 61,-2l0 0 0 0c30,0 59,2 87,5 29,3 58,7 86,14 26,6 45,31 41,57l-16 377 0 1 0 0 -12 193 0 0 2 0zm-122 40c10,-10 17,-24 17,-40l0 0c0,-1 0,-2 0,-3l12 -196 0 0 14 -333c-11,-2 -21,-3 -31,-4 -26,-2 -51,-4 -76,-4 -17,0 -35,1 -54,2l-7 1 16 346 0 2 12 184c0,2 1,4 1,7 0,16 7,30 17,40 10,10 24,17 40,17 16,0 30,-7 40,-17l1 0z"/>
  <path class="fil3" d="M15357 6230c74,0 98,43 113,70 3,5 4,9 5,9 7,5 17,17 22,28 2,7 4,14 4,21 0,10 -4,18 -12,25 -6,5 -13,8 -24,9 -4,0 -8,2 -14,7 -9,6 -22,14 -47,23 -31,12 -64,9 -96,0 -31,-8 -60,-23 -88,-38 -7,-4 -14,-7 -20,-11 -22,-12 -42,-22 -57,-28 -11,-4 -17,-16 -13,-27 2,-7 9,-13 17,-14l83 -15c14,-7 29,-16 44,-26 28,-18 55,-36 83,-36l-1 2zm76 91c-11,-19 -27,-49 -76,-49 -15,0 -37,14 -60,29 -17,11 -33,22 -51,29 -2,1 -3,2 -6,2l-22 4 2 2c7,3 13,7 20,11 26,13 53,27 79,35 25,7 49,9 69,1 21,-7 31,-15 40,-20 10,-6 17,-10 27,-12 -2,-3 -3,-5 -4,-6 -8,-5 -13,-14 -19,-25l1 0z"/>
  <path class="fil11" d="M15357 6250c3,0 7,0 9,1 22,12 37,36 37,64 0,41 -33,73 -73,73 -41,0 -73,-33 -73,-73 0,-6 1,-11 2,-16 35,-20 69,-48 98,-48l0 -1z"/>
  <path class="fil3" d="M15357 6217c1,0 3,0 7,0 2,0 4,0 7,1 6,1 11,2 16,6 16,9 28,22 37,37 9,16 15,34 15,54 0,30 -12,56 -31,75l0 0 0 0 0 0c-19,19 -46,31 -75,31 -30,0 -56,-12 -75,-31l0 0c-19,-19 -31,-46 -31,-75 0,-3 0,-7 1,-12 1,-3 1,-7 2,-12 2,-10 9,-18 17,-22 6,-3 15,-9 24,-15 1,0 2,-1 2,-1 30,-19 58,-36 88,-36l-1 0zm7 79c-2,-4 -5,-7 -9,-11 -12,1 -31,13 -50,26 -1,1 -1,1 -2,1 -4,2 -7,5 -12,7 1,9 5,17 12,24 7,7 17,12 28,12 11,0 21,-4 27,-12l0 0c7,-7 12,-17 12,-27 0,-7 -2,-14 -5,-20z"/>
  <path class="fil3" d="M15299 6063l207 26c18,2 34,12 46,26 10,12 17,29 16,46l0 0c0,2 0,4 -1,7l0 0c-2,18 -12,33 -24,44 -13,11 -30,17 -48,15 -1,0 -2,0 -3,0l0 0c-36,-4 -55,-12 -74,-18 -22,-8 -44,-17 -119,-17 -46,1 -73,13 -104,26 -17,7 -36,16 -60,23 -22,7 -46,-5 -54,-27 -6,-18 2,-38 17,-49l2 -1c50,-36 108,-79 184,-98 5,-2 11,-2 16,-1l0 0 1 -2z"/>
  <path class="fil3" d="M15813 6335c-1,8 -2,18 -1,30 1,12 2,26 5,43 15,93 12,157 7,251 -1,14 -2,28 -2,42 11,15 24,37 30,60 7,25 7,51 -7,76 -13,24 -36,31 -65,40 -8,2 -17,6 -26,9 -18,7 -40,-2 -46,-21 -1,-2 -2,-5 -2,-7l0 0 -12 -69c-12,-65 -8,-114 -5,-165 2,-32 4,-65 3,-103l0 0c-1,-21 -2,-41 -4,-61 -2,-20 -4,-41 -7,-62 -6,-41 -8,-70 -7,-96 2,-28 7,-50 17,-70 0,-1 1,-2 1,-2 73,-141 136,-146 253,-155 23,-2 49,-3 79,-7 5,-1 11,0 16,2 37,9 71,21 103,34 32,14 62,31 89,50 16,12 20,34 8,50 -9,13 -26,18 -41,13l0 0 -12 -4c-58,-19 -90,-30 -160,-31 -60,1 -114,12 -153,41 -31,23 -52,59 -59,112l-1 1zm-52 405c-1,-1 -2,-2 -2,-2 1,13 2,26 5,41l5 29c7,-2 12,-2 12,-3 3,-6 2,-15 1,-24 -5,-19 -16,-36 -22,-41l0 0 1 1zm-17 -433l0 2c3,-18 7,-34 13,-49 -1,2 -2,3 -2,5 0,1 -1,1 -1,2 -6,12 -9,24 -10,41z"/>
  <path class="fil3" d="M15636 6803c5,19 13,33 24,41 5,4 10,6 15,7 4,0 8,-1 12,-3 8,-5 16,-17 22,-34l65 22c-11,33 -29,55 -49,69 -17,12 -36,16 -55,15 -18,-2 -36,-8 -51,-21 -22,-17 -40,-44 -48,-79l65 -17 1 0z"/>
  <path class="fil3" d="M15520 7015c10,-5 19,-10 27,-15 42,-26 74,-44 113,5 17,20 34,8 50,-2 18,-12 36,-24 58,-24 23,0 37,12 55,28 15,13 34,30 65,35 1,0 2,0 3,1 21,4 30,12 26,34 0,2 0,2 -1,4 -3,15 -11,21 -22,22 -3,1 -7,2 -12,1 -1,0 -2,0 -3,-1 -1,0 -1,0 -2,0l-1 0c-5,-1 -10,-1 -15,-2 -30,-4 -83,-11 -91,-11 -12,0 -26,3 -41,6 -16,3 -31,7 -50,7 -17,1 -32,-2 -47,-5 -11,-2 -22,-4 -31,-4 -10,0 -20,2 -31,3 -10,2 -22,3 -35,5 -1,0 -2,0 -2,0l-50 4 0 0 0 0 -17 2c-17,2 -31,-11 -33,-27 -1,-12 6,-25 17,-30 7,-3 35,-19 67,-35l0 -1z"/>
  <path class="fil12" d="M15737 7062c36,-6 78,-12 78,6 0,57 -68,87 -131,88 -65,2 -136,-33 -136,-82 0,-17 42,-13 78,-10 18,3 37,8 55,7 19,-1 38,-6 56,-9z"/>
  <path class="fil3" d="M15731 7020l5 -1c18,-2 38,-6 55,-6 40,0 67,13 67,55 0,42 -22,74 -55,96 -32,22 -76,33 -117,34l-1 0 -3 0 0 0 0 0c-38,0 -79,-11 -111,-28 -38,-22 -64,-54 -65,-94l0 -1 0 -1 0 0 0 0c0,-39 27,-53 66,-55 18,-1 39,1 58,3 1,0 2,0 3,1 6,1 11,2 15,2 12,2 23,4 31,4l0 0c11,0 24,-3 37,-6 5,-1 10,-2 12,-2 1,0 1,0 2,0l0 0 -1 -1zm-47 93c13,0 26,-2 38,-5 -12,2 -25,4 -39,5l-1 0 -1 0 0 0 2 0 0 0z"/>
  <path class="fil3" d="M15478 6257c3,7 7,15 8,23l0 0 0 0c2,8 2,17 2,24 0,4 0,9 -1,14 -1,5 -2,9 -2,14 -3,15 -17,25 -33,23 -6,-1 -12,-3 -16,-7 -4,-2 -7,-6 -9,-9 -2,-2 -2,-4 -3,-6l-1 -2 0 0 -2 -2c-1,-1 -1,-2 -2,-3l0 0c-1,-2 -2,-6 -3,-10 -5,-16 -13,-39 -48,-39 -12,0 -34,13 -55,27 -12,7 -25,16 -37,22 9,8 12,22 7,33 -5,13 -18,20 -31,18l0 0 -64 -10c-4,-1 -7,-2 -11,-4 -10,-5 -19,-11 -27,-15 -8,-4 -17,-8 -23,-10 -16,-5 -24,-22 -18,-37 2,-8 8,-14 16,-17l0 0 110 -52c1,0 1,-1 2,-1 8,-3 20,-9 31,-15 1,0 2,-1 2,-1 73,-36 149,-73 208,42l0 0 0 0 -1 -2z"/>
  <polygon class="fil9" points="15726,6394 15781,6394 15781,6732 15726,6732 "/>
  <path class="fil3" d="M15984 6272c-49,0 -65,30 -76,49 -6,11 -11,19 -19,25l0 0c-1,1 -2,2 -4,6 12,2 18,6 27,12 7,5 18,12 40,20 22,8 45,6 69,-1 26,-7 54,-21 79,-35 6,-3 12,-7 19,-10l3 -2 -22 -4c-2,0 -4,-1 -6,-2 -17,-7 -35,-18 -51,-29 -23,-15 -46,-29 -60,-29l1 -1zm-113 28c15,-27 40,-70 113,-70 27,0 55,17 83,36 15,9 30,19 44,26l83 15c7,1 14,7 17,14 4,11 -2,23 -13,27 -16,6 -36,17 -58,28 -6,3 -12,7 -20,11 -28,15 -58,29 -88,38 -32,9 -65,12 -96,0 -25,-9 -37,-17 -47,-23 -6,-3 -9,-6 -14,-7 -10,-1 -18,-4 -24,-9l0 0c-8,-7 -12,-16 -12,-25 0,-7 2,-14 4,-21 5,-12 15,-23 22,-28l0 0 0 0c1,-1 2,-4 5,-9l0 -2z"/>
  <path class="fil13" d="M15922 6370l64 62c7,28 -2,73 -9,115 -8,51 -14,98 15,103 36,7 18,-84 17,-106 -4,-50 -3,-89 50,-123 16,-10 134,-56 51,-78 -53,-14 -175,21 -188,25l0 2z"/>
  <path class="fil11" d="M15984 6250c-3,0 -7,0 -9,1 -22,12 -37,36 -37,64 0,41 33,73 73,73 41,0 73,-33 73,-73 0,-6 -1,-11 -2,-16 -35,-20 -69,-48 -98,-48l0 -1z"/>
  <path class="fil3" d="M15977 6217c3,0 6,0 7,0 31,0 60,18 89,37 8,5 17,11 24,15 8,4 15,12 17,22 1,3 2,7 2,11l0 1c1,4 1,8 1,12 0,29 -12,56 -31,75l0 0 0 0 0 0c-19,19 -46,31 -75,31 -30,0 -56,-12 -75,-31l0 0 0 0c-19,-19 -31,-46 -31,-75 0,-20 5,-38 15,-54 9,-16 22,-28 37,-38 4,-3 10,-5 16,-6 2,0 4,0 7,-1l-1 1zm8 68c-3,3 -7,7 -9,11 -3,6 -5,12 -5,20 0,11 4,21 12,28l0 0c7,7 17,12 27,12 11,0 21,-4 27,-12l0 0c6,-6 10,-14 11,-24 -4,-2 -8,-5 -12,-7 -21,-13 -41,-26 -52,-26l1 -1z"/>
  <path class="fil3" d="M15855 6280c2,-7 5,-15 8,-22 60,-117 136,-78 210,-41 11,6 22,11 31,15 1,0 1,1 2,1l109 51c7,3 13,9 17,17 6,16 -2,32 -18,38 -7,2 -15,6 -23,10 -8,4 -17,9 -27,15 -3,2 -7,3 -11,4l-64 10 0 0c-13,2 -26,-5 -31,-18 -5,-12 -2,-25 7,-33 -13,-7 -26,-15 -37,-22 -22,-14 -43,-27 -55,-27 -35,0 -43,24 -48,40l0 0c-2,4 -2,8 -3,10l0 0c-1,1 -1,2 -2,3 0,1 0,0 -1,2l0 0 0 0c0,0 0,1 -1,2l0 0c-1,2 -2,3 -2,5 -2,4 -6,7 -9,9l0 0 0 0c-5,3 -10,6 -16,7 -15,2 -29,-7 -33,-23 -1,-5 -2,-9 -2,-14 -1,-5 -1,-10 -1,-14 0,-7 1,-16 3,-24l-2 -1z"/>
  <path class="fil14" d="M13389 4895c-16,-2 -31,-1 -47,3 -16,4 -31,12 -44,23 -17,14 -28,32 -33,54 -5,22 -3,43 5,64 5,12 12,23 22,34 10,11 22,20 35,29 13,8 26,16 41,22 15,7 29,12 43,15 24,6 45,8 64,8 19,-1 38,-5 57,-14 17,-8 31,-21 43,-36 12,-17 17,-33 15,-51 -2,-19 -7,-36 -16,-50 -9,-14 -20,-26 -31,-36 -2,-2 -2,-8 2,-19 3,-11 7,-23 12,-36 5,-12 10,-23 15,-33 5,-10 8,-13 9,-11 11,11 19,22 26,34 7,12 12,26 15,40 6,22 8,42 7,62 0,20 -2,39 -7,57 -4,18 -10,36 -17,51 -7,17 -15,32 -23,47 -20,36 -45,62 -77,76 -31,14 -65,20 -102,16 -20,-2 -38,-6 -56,-12 -18,-6 -35,-15 -50,-26 -15,-11 -28,-24 -40,-39 -12,-15 -21,-32 -26,-52 -3,-12 -6,-22 -7,-33 -1,-10 -2,-21 -1,-31 1,-10 2,-20 5,-31 2,-11 5,-22 8,-34 3,-13 7,-26 13,-38 5,-12 11,-26 17,-40 12,-26 31,-50 55,-71 25,-21 55,-33 89,-37 2,0 2,6 0,16 -2,10 -4,22 -8,34 -3,15 -8,31 -13,49l0 -7 -1 2zm400 -437c13,-5 27,-7 41,-4 13,2 26,7 38,13 12,7 23,16 33,26 10,11 19,22 26,36 4,7 7,15 8,23 2,8 2,17 3,24 0,7 0,15 -1,22 -1,7 -2,12 -2,17 -2,12 -7,25 -15,39 -7,14 -16,27 -26,39 -11,12 -22,22 -36,29 -13,7 -27,11 -41,8 -9,-1 -16,-2 -20,-3 -3,-2 -6,-3 -7,-6 -1,-2 -1,-4 1,-7l32 -71c10,5 19,8 27,10 7,2 15,2 22,1 7,-1 12,-5 16,-12 3,-8 4,-17 2,-26 -2,-10 -10,-22 -24,-35 -9,-8 -20,-16 -32,-23 -13,-7 -26,-12 -41,-15 -14,-2 -28,-2 -42,0 -14,2 -26,9 -36,21 -11,12 -19,25 -25,37 -6,12 -10,22 -12,26 17,14 34,28 50,41 17,13 31,26 44,36 13,11 24,20 33,27 9,7 14,12 16,13 1,1 -2,6 -8,16 -6,10 -13,20 -21,31 -7,12 -15,22 -22,31 -7,9 -10,14 -10,14 -1,0 -4,-2 -11,-8 -7,-6 -15,-13 -26,-22 -10,-9 -22,-19 -35,-31 -13,-12 -26,-23 -41,-35 -32,-28 -68,-59 -108,-94 -14,-2 -26,-3 -38,-4 -10,-2 -20,-2 -28,-4 -8,-1 -14,-2 -17,-2 -1,0 0,-3 3,-10 3,-7 8,-14 14,-23 6,-9 12,-19 20,-29 7,-11 14,-21 21,-29 7,-9 12,-17 16,-22 4,-6 7,-9 7,-10l0 -1c6,-9 11,-18 15,-26 4,-7 9,-15 13,-22 4,-7 8,-12 11,-17 8,-11 18,-20 30,-28 12,-8 23,-14 36,-17 12,-3 25,-3 37,-1 12,3 24,11 35,22 8,10 13,21 15,31 1,10 2,17 2,21 1,7 1,15 0,21 -1,3 -1,7 -2,11 6,-7 12,-15 18,-22 6,-6 12,-12 19,-17 7,-6 15,-10 22,-12l-2 2zm-98 81c-1,-11 -5,-21 -11,-29 -6,-8 -13,-15 -22,-20 -9,-5 -19,-7 -30,-7 -11,0 -22,4 -31,12 -8,6 -16,12 -22,21 -6,7 -10,14 -13,18 12,10 26,22 43,36 17,14 36,30 56,46 2,-4 6,-9 9,-15 3,-6 7,-12 10,-20 3,-7 6,-14 8,-22 2,-7 3,-14 2,-20l0 -1zm360 -511c0,0 7,7 17,21 12,13 26,31 42,50 17,21 35,43 55,67 20,24 39,46 55,68 17,21 31,39 44,54 12,15 19,23 21,26 1,1 -3,6 -11,14 -7,8 -17,17 -26,27 -10,10 -19,18 -27,26 -8,7 -12,12 -12,12 -1,0 -4,-4 -11,-12 -7,-7 -14,-17 -24,-30 -9,-12 -20,-26 -32,-41 -12,-15 -24,-31 -36,-46 -14,10 -24,22 -31,36 -7,14 -12,30 -12,46 -1,17 2,34 9,51 7,18 18,36 33,53 1,1 -3,6 -11,14 -7,8 -17,17 -26,27 -12,12 -24,25 -37,39 -3,-4 -7,-8 -10,-13 -3,-5 -7,-10 -10,-16 -3,-6 -7,-13 -10,-21 -4,-12 -7,-26 -8,-43 -2,-17 -2,-33 0,-48 1,-7 2,-15 4,-22 2,-7 3,-12 6,-17 2,-6 5,-12 8,-17 -2,2 -7,2 -11,3 -3,1 -8,2 -13,2 -5,1 -12,1 -20,0 -11,0 -22,-3 -34,-9 -12,-6 -22,-14 -31,-25 -9,-11 -17,-23 -21,-38 -4,-15 -5,-31 -2,-50 2,-17 11,-34 23,-50 13,-17 26,-32 41,-46 17,-17 35,-32 54,-47 6,-5 12,-10 18,-16 7,-6 12,-11 17,-16 7,-6 12,-12 18,-17l2 0zm5 246c7,-2 15,-7 23,-12 7,-5 13,-9 17,-12 -9,-12 -18,-23 -26,-34 -8,-11 -16,-21 -22,-29l-21 -26 -15 -19c-4,-6 -9,-11 -13,-17 -4,-6 -8,-10 -12,-14 -4,4 -9,8 -15,14 -6,6 -11,10 -15,15 -7,7 -11,15 -12,25 -2,10 -1,20 1,30 2,10 5,20 10,29 5,10 10,17 16,24 12,13 26,22 42,26 17,5 31,5 43,0l0 -1zm103 -324c0,-1 7,-5 22,-12 15,-7 33,-17 55,-28 22,-11 44,-22 68,-34 23,-12 43,-22 60,-31 12,-6 24,-12 38,-19 14,-7 29,-15 44,-22 15,-7 31,-15 45,-22 15,-7 28,-14 40,-19 12,-6 21,-10 28,-13 7,-3 11,-5 11,-5l1 2c1,6 1,12 2,18 0,7 1,13 1,20 0,7 0,12 0,18 0,6 -1,10 -1,12 -1,2 -2,2 -6,1 -7,-4 -16,-7 -25,-10 -9,-2 -19,-2 -30,-1 -3,1 -7,2 -13,5 -6,2 -13,6 -21,10 -8,4 -17,8 -26,13 -9,5 -19,10 -29,15 6,11 14,25 23,43 10,18 21,38 31,60 12,22 23,44 35,66 12,22 22,43 32,61 10,19 18,35 25,47 7,13 11,21 12,23 0,1 -2,2 -6,6 -4,3 -10,7 -17,12 -7,5 -14,10 -22,15 -8,5 -15,10 -22,14 -7,4 -12,7 -17,11 -5,3 -7,4 -7,4l-161 -314c-20,10 -38,19 -55,27 -17,9 -26,15 -31,18 -7,7 -13,15 -17,24 -3,9 -7,17 -7,26 -1,3 -2,5 -3,3 -2,-2 -6,-4 -11,-7 -5,-3 -9,-7 -15,-11 -5,-4 -10,-8 -16,-12 -5,-4 -10,-8 -14,-12 0,-1 -1,-1 -2,-1l1 -2zm523 -232c10,-6 22,-12 33,-18 12,-7 24,-12 36,-17 12,-6 26,-11 38,-15 13,-4 26,-7 37,-9 7,-1 14,1 23,5 9,4 16,8 22,12 5,3 12,11 24,22 11,11 24,24 39,39 15,15 31,31 47,49 17,17 34,35 50,52 17,17 32,33 46,49 15,15 26,28 36,38 3,4 7,6 12,6 4,0 9,0 13,-2 4,-1 8,-3 12,-6 4,-2 7,-5 10,-7l12 18c-2,2 -7,6 -16,11 -8,5 -17,11 -28,16 -11,6 -21,11 -31,17 -10,5 -18,9 -25,11 -12,4 -22,5 -31,2 -9,-2 -18,-8 -29,-20 -12,-13 -22,-25 -31,-35 -9,-10 -17,-19 -26,-28 -8,-8 -16,-17 -24,-24 -8,-7 -17,-17 -26,-26 -7,18 -13,36 -19,54 -6,18 -12,36 -21,53 -8,17 -17,34 -28,50 -11,17 -25,32 -41,48 2,-7 2,-14 3,-20 1,-6 0,-11 -1,-16 -3,-9 -7,-18 -11,-26 -3,-8 -7,-17 -12,-26 -17,-28 -26,-56 -26,-84 -1,-28 6,-56 20,-85 4,-8 10,-18 17,-30 7,-12 14,-20 21,-26 -7,-11 -17,-21 -30,-28 -12,-7 -24,-11 -36,-8 -4,1 -8,2 -13,4 -5,2 -10,5 -14,7 -5,2 -9,5 -12,7 -4,2 -7,4 -8,4 0,-1 -1,-2 -2,-3 -2,-2 -3,-4 -5,-6 -2,-2 -3,-4 -5,-6 -2,-2 -2,-3 -2,-3l1 0zm171 216c5,-11 9,-20 13,-28 4,-8 7,-16 11,-23 3,-7 6,-14 8,-22 2,-7 5,-15 7,-23 -8,-10 -17,-20 -25,-30 -7,-8 -15,-17 -22,-25 -8,-8 -15,-15 -21,-21 -6,14 -10,25 -11,32 -1,7 -2,14 -2,17 -1,14 0,26 3,37 3,11 7,20 12,29 5,9 10,17 15,26 5,9 10,18 13,29l-1 0zm656 -390c0,1 1,10 3,27 2,17 4,40 7,66 2,26 5,55 8,86 3,31 6,60 8,87 2,27 5,50 7,69 2,19 2,30 3,33 0,1 -6,2 -17,6 -12,2 -23,5 -37,7 -13,2 -26,5 -37,7 -12,2 -17,2 -17,2 -1,-1 -2,-6 -2,-16 -1,-10 -2,-22 -3,-37 -1,-16 -2,-32 -4,-51 -2,-19 -3,-38 -4,-58 -17,1 -33,5 -47,12 -14,7 -26,18 -36,31 -10,13 -17,30 -21,48 -4,19 -5,40 -2,62 0,1 -6,2 -17,6 -12,2 -23,6 -37,8 -16,3 -34,7 -53,12 0,-5 -1,-11 -1,-17 0,-6 0,-12 1,-19 1,-7 2,-14 3,-22 3,-12 8,-26 17,-41 8,-15 17,-28 26,-40 5,-6 10,-11 15,-16 5,-4 10,-8 15,-11 5,-3 11,-7 16,-10 -3,0 -7,-2 -11,-3 -3,-2 -7,-3 -12,-6 -5,-2 -10,-6 -17,-12 -9,-7 -17,-15 -23,-26 -7,-12 -11,-24 -12,-38 -2,-14 -1,-28 4,-43 4,-15 13,-29 26,-42 12,-12 27,-22 48,-29 20,-7 40,-12 60,-17 23,-4 46,-7 71,-9 7,-1 16,-2 24,-2 8,-1 17,-2 23,-3 8,-1 17,-2 25,-4l1 1zm-133 206c7,2 17,3 26,3 9,0 17,0 22,0 -1,-15 -2,-30 -3,-43 -1,-13 -2,-26 -2,-36l-2 -34 -2 -24c-1,-7 -1,-14 -2,-22 -1,-7 -2,-13 -2,-19 -6,1 -12,2 -20,3 -8,1 -15,2 -21,4 -9,2 -17,7 -24,13 -7,7 -12,16 -16,25 -4,9 -7,19 -8,30 -2,11 -2,20 -1,28 2,17 9,33 20,45 11,13 23,22 36,24l1 2zm930 -98c0,1 -2,9 -5,26 -3,17 -7,39 -13,65 -6,26 -12,55 -17,84 -7,31 -12,59 -17,86 -6,27 -10,50 -14,69 -4,19 -7,30 -7,32 0,1 -6,1 -17,0 -12,-1 -24,-2 -37,-3 -13,-2 -26,-3 -38,-5 -12,-2 -17,-2 -17,-3 0,-1 2,-9 5,-23 3,-14 7,-32 12,-54 5,-22 10,-44 16,-69 6,-24 11,-47 16,-68 -12,4 -28,8 -45,13 -17,5 -35,11 -53,16 -18,6 -35,11 -50,15 -16,5 -28,8 -36,11 -6,30 -11,54 -15,74 -4,19 -7,31 -7,33 0,1 -6,1 -17,0 -12,-1 -24,-2 -37,-3 -13,-2 -26,-3 -38,-5 -12,-2 -17,-2 -17,-2 0,-1 1,-5 2,-14 2,-8 5,-20 7,-33 3,-13 7,-29 11,-46 4,-17 8,-35 12,-53 10,-41 21,-89 34,-141 -5,-13 -10,-25 -14,-36 -3,-10 -7,-18 -10,-26 -3,-8 -5,-13 -5,-16 0,-1 2,-1 6,-1 4,0 10,0 17,0 7,0 15,1 24,2 9,1 17,2 26,3 22,3 46,6 74,10 0,1 -2,7 -4,22 -2,14 -7,32 -11,54 -5,22 -10,46 -15,73 -6,26 -11,53 -17,79 12,-3 26,-7 42,-12 17,-4 33,-9 50,-14 17,-5 34,-10 50,-14 17,-4 30,-8 41,-12 2,-7 3,-15 5,-21 2,-6 3,-11 4,-15l3 -12c-5,-13 -10,-25 -14,-36 -3,-10 -7,-18 -10,-26 -3,-8 -5,-13 -5,-16 0,-1 2,-1 6,-1 4,0 10,0 17,0 7,0 15,1 23,2 9,1 17,2 26,3 22,3 46,6 74,10l-1 0zm423 518c-5,3 -12,6 -24,8 -12,2 -29,6 -53,9 -12,2 -22,2 -31,1 -9,-2 -17,-4 -23,-7 -7,-3 -12,-7 -17,-12 -5,-4 -9,-9 -12,-14 -3,-4 -7,-16 -14,-34 -7,-18 -13,-39 -21,-62 -7,-23 -14,-46 -21,-67 -7,-22 -12,-38 -15,-49 -7,18 -15,36 -22,53 -7,17 -14,32 -20,46 -6,14 -11,25 -14,34 -3,9 -6,14 -7,16 0,1 -6,0 -17,-3 -11,-3 -23,-7 -36,-11 -13,-4 -25,-8 -36,-12 -11,-4 -17,-6 -17,-7 0,-1 2,-5 5,-13 3,-8 8,-18 13,-31 6,-12 12,-27 20,-43 7,-17 15,-33 22,-50 17,-39 37,-83 60,-132 -2,-15 -5,-27 -7,-39 -2,-10 -3,-19 -4,-28 -1,-8 -2,-14 -2,-17 0,-1 2,-1 6,0 4,1 9,2 16,4 7,2 14,4 23,7 8,2 17,5 26,8 21,7 45,15 71,24 0,1 -2,4 -5,12 -3,7 -7,17 -12,30 -5,12 -11,26 -17,43 -7,17 -14,33 -22,51 12,-6 26,-12 43,-21 17,-7 34,-15 50,-22 17,-7 31,-13 45,-18 13,-6 22,-9 26,-11 4,-2 10,-2 16,-2 6,0 12,0 17,1 6,1 11,2 16,3 5,2 8,3 11,6 2,2 5,6 8,10 3,5 5,9 7,14 2,5 2,9 3,13 1,4 0,7 -2,8 -2,2 -6,3 -12,7 -6,2 -12,6 -20,9 -7,3 -14,7 -21,9 -7,2 -12,5 -15,5 -7,2 -11,2 -13,1 -2,-1 -4,-4 -7,-11 -3,-7 -7,-12 -12,-19 -5,-7 -9,-10 -13,-12 -2,-1 -6,0 -12,2 -6,2 -12,5 -19,8 -7,3 -14,6 -21,9 -7,3 -12,6 -14,7 -3,2 -4,4 -3,8 1,4 3,11 7,20 2,3 4,12 8,24 4,12 10,28 16,46 6,17 12,36 20,56 7,20 14,39 20,55 7,17 12,31 17,43 5,12 8,18 11,20 2,2 5,3 9,3 4,0 8,0 13,0 5,-1 9,-1 13,-2 4,-1 8,-2 11,-2 1,2 2,4 2,7 0,2 0,4 1,6l1 5z"/>
  <path class="fil14" d="M16880 4364c-32,-26 -52,-56 -60,-90 -8,-33 -7,-68 3,-103 5,-19 12,-36 22,-53 9,-17 21,-31 35,-44 13,-12 29,-23 46,-31 17,-8 36,-14 56,-17 12,-2 23,-2 33,-1 10,1 21,2 30,5 10,2 19,7 29,11 10,4 20,9 31,14 12,6 24,12 36,20 12,7 23,16 36,24 15,11 28,24 40,40 12,16 21,33 27,52 7,19 11,38 12,59 1,20 -2,40 -8,58 -6,17 -15,35 -25,50 -11,16 -23,30 -37,42 -14,12 -30,22 -46,30 -17,7 -34,12 -53,12 -22,1 -43,0 -62,-4 -20,-4 -38,-10 -55,-17 -17,-7 -33,-17 -47,-26 -15,-10 -29,-21 -42,-31l-1 1zm244 -55c7,-12 16,-26 24,-41 8,-15 15,-30 20,-45 5,-16 7,-31 7,-47 0,-16 -5,-31 -13,-48 -11,-20 -26,-34 -46,-42 -20,-9 -41,-11 -64,-7 -12,2 -25,7 -37,15 -12,8 -24,17 -35,28 -11,11 -21,23 -30,36 -9,13 -17,26 -23,40 -10,22 -17,42 -20,61 -3,19 -2,38 2,59 5,18 14,35 27,49 14,14 30,22 47,24 17,2 32,0 46,-5 14,-5 27,-12 39,-20 12,-8 22,-18 31,-29 9,-11 17,-21 23,-31l0 2zm562 315c0,0 -7,7 -20,18 -13,12 -29,27 -49,45 -20,18 -41,37 -65,58 -23,21 -45,41 -65,59 -21,18 -38,34 -52,46 -14,12 -22,20 -25,22 -1,1 -6,-2 -14,-10 -9,-7 -18,-16 -28,-25 -10,-9 -19,-18 -27,-26 -8,-8 -12,-12 -12,-12 0,0 3,-2 8,-7 5,-5 12,-11 21,-18 8,-7 19,-16 30,-26 12,-10 23,-20 36,-31 -5,-6 -13,-15 -24,-27 -12,-12 -22,-25 -35,-39 -12,-13 -22,-26 -32,-37 -10,-12 -16,-18 -19,-22l-1 -1c-22,21 -41,38 -56,50 -15,13 -23,21 -26,22 -1,1 -6,-2 -14,-10 -9,-7 -18,-16 -28,-25 -10,-9 -19,-18 -27,-26 -8,-8 -12,-12 -12,-12 0,-1 3,-4 10,-10 7,-6 15,-13 26,-22 11,-9 22,-19 36,-31 13,-12 27,-23 41,-36 32,-28 69,-60 111,-94 3,-14 7,-26 10,-37 2,-10 6,-19 8,-27 2,-8 4,-13 5,-16 0,-1 2,0 5,2 3,2 7,6 13,10 6,4 12,10 18,16 7,6 13,12 20,18 16,15 34,32 55,52 0,0 -6,6 -17,16 -11,10 -25,22 -41,37 -17,15 -36,31 -55,50 -21,19 -41,36 -60,54 5,5 12,14 22,26 10,12 20,24 31,37 12,13 22,26 32,37 11,12 18,22 25,27l75 -65c12,-11 24,-20 35,-29 3,-14 7,-26 10,-37 2,-10 6,-19 8,-27 2,-8 4,-13 5,-16 0,-1 2,0 5,2 3,2 7,6 13,10 6,4 12,10 18,16 7,6 13,12 20,18 16,15 34,32 55,52l-2 2zm83 151c8,9 16,19 25,29 8,11 17,22 25,32 8,12 15,23 22,35 7,12 12,24 16,35 2,7 2,14 -1,23 -2,9 -5,17 -8,24 -2,5 -8,14 -17,27 -8,13 -18,28 -31,46 -12,17 -25,36 -39,56 -14,20 -28,40 -41,60 -13,20 -26,38 -39,55 -12,17 -22,31 -30,43 -3,4 -4,8 -4,12 1,4 2,9 4,13 2,4 5,7 8,11 3,3 7,6 9,8l-16 16c-2,-2 -7,-6 -14,-13 -7,-7 -14,-15 -22,-25 -7,-9 -15,-18 -22,-27 -7,-9 -12,-17 -15,-22 -6,-11 -9,-21 -8,-30 0,-9 5,-20 14,-32 11,-14 20,-26 28,-37 8,-11 16,-21 22,-31 7,-9 13,-19 19,-28 6,-9 12,-20 20,-31 -19,-3 -38,-6 -56,-8 -18,-2 -37,-6 -55,-10 -18,-4 -37,-11 -55,-18 -18,-7 -36,-18 -55,-31 7,0 14,0 20,-1 6,-1 11,-2 15,-4 8,-6 17,-11 24,-16 7,-5 15,-11 22,-17 25,-22 50,-36 78,-42 27,-6 56,-5 88,2 9,2 20,7 32,12 12,5 22,10 30,16 9,-9 17,-21 22,-35 5,-13 6,-26 2,-36 -2,-4 -3,-8 -7,-12 -3,-4 -7,-8 -10,-12 -3,-4 -7,-8 -10,-11 -3,-3 -5,-6 -6,-7 1,0 2,-1 3,-2 2,-2 3,-3 5,-6 2,-2 3,-4 5,-6 2,-2 2,-2 3,-2l-1 1zm-180 209c12,2 22,5 31,7 9,2 17,4 25,6 7,2 15,2 22,4 7,1 15,2 24,2 8,-10 17,-20 25,-30 7,-8 14,-17 20,-27 7,-9 12,-17 17,-24 -15,-3 -26,-5 -34,-4 -8,1 -14,1 -17,2 -14,2 -26,5 -36,10 -10,5 -18,11 -26,17 -8,7 -16,12 -23,20 -7,7 -16,13 -26,18l-1 -1z"/>
 </g>
</svg>
