<?xml version="1.0" encoding="UTF-8"?>
<!DOCTYPE svg PUBLIC "-//W3C//DTD SVG 1.1//EN" "http://www.w3.org/Graphics/SVG/1.1/DTD/svg11.dtd">
<!-- Creator: CorelDRAW X6 -->
<svg xmlns="http://www.w3.org/2000/svg" xml:space="preserve" width="210mm" height="148mm" version="1.1" style="shape-rendering:geometricPrecision; text-rendering:geometricPrecision; image-rendering:optimizeQuality; fill-rule:evenodd; clip-rule:evenodd"
viewBox="0 0 21000 14800"
 xmlns:xlink="http://www.w3.org/1999/xlink">
 <defs>
  <style type="text/css">
   <![CDATA[
    .fil0 {fill:#1C1F2C}
    .fil1 {fill:#EFEFEF}
    .fil3 {fill:#1C1F2C;fill-rule:nonzero}
    .fil2 {fill:#EFEFEF;fill-rule:nonzero}
   ]]>
  </style>
 </defs>
 <g id="Слой_x0020_1">
  <metadata id="CorelCorpID_0Corel-Layer"/>
  <rect class="fil0" x="-795" y="-22" width="22500" height="13500"/>
  <polygon class="fil1" points="10423,-22 21705,-22 21705,13478 10423,13478 "/>
  <rect class="fil0" x="-690" y="1388" width="11107" height="11107"/>
  <rect class="fil1" x="10418" y="1388" width="11107" height="11107"/>
  <path class="fil2" d="M5652 3974c0,165 -475,147 -558,213l173 416c-93,34 -55,-33 -151,-111 -154,-127 -758,139 -924,217 -165,78 -293,144 -383,197 -273,160 -156,202 126,166 156,-19 335,-58 417,-58l101 0c82,0 146,9 190,28 17,-9 36,-13 57,-13l59 0c0,48 73,72 217,72l14 29c-18,10 -33,15 -44,15 0,19 54,58 161,115l29 101 0 101c-22,81 -79,175 -171,282 -217,250 -1223,1136 -1499,1317l0 -14 44 -59 0 -13 -249 188 0 29c59,-49 103,-74 131,-74 -318,262 -594,461 -827,596l-29 -14c-82,54 -165,98 -247,130 -84,-42 -128,-70 -130,-87 212,-171 318,-263 318,-276l0 -44 -13 0c-50,0 -147,58 -291,175 -19,0 -29,-10 -29,-29 386,-308 885,-673 1468,-1132 115,-90 221,-177 319,-262 284,-247 1098,-913 160,-715 -157,33 -337,88 -538,163l-14 0 0 -29c40,0 84,-24 130,-72l0 -14c-124,19 -207,29 -247,29 -27,-2 -51,-31 -72,-89 -296,0 -241,-335 -109,-523 125,-177 329,-335 551,-465 256,-151 534,-266 734,-335 253,-87 473,-151 667,-178 201,-29 270,-42 457,24l2 0zm-1705 781l29 0c18,0 207,-87 568,-262l0 -29c-69,0 -268,97 -597,291zm-493 333l0 44 44 0 0 -14c0,-20 -10,-29 -29,-29l-15 0 0 -1zm-130 115l0 59c4,19 28,39 72,57l0 -14c-28,-42 -43,-76 -43,-102l-29 0zm130 0l0 15c55,67 119,101 190,101l13 0 0 -28c-94,-59 -151,-89 -173,-89l-29 0 -1 0zm-915 2137l0 29 72 0c283,-196 482,-345 597,-452l-15 0c-13,0 -227,140 -639,421l-15 0 0 1zm-247 363c3,19 12,29 29,29 112,-29 456,-281 1031,-755l-29 0c-231,152 -521,360 -871,624 -82,67 -135,101 -160,101l0 1zm871 -452l15 0c44,-18 69,-37 74,-57l-14 0c-44,19 -69,38 -74,57z"/>
  <path class="fil1" d="M5488 6311c-55,368 -347,287 -438,585 -21,69 -25,150 15,237 56,120 115,137 115,137 0,0 -2,3 -4,8 -7,10 -23,28 -50,43 -32,17 -87,33 -129,59 -56,33 -89,110 -20,148 47,39 148,74 207,79 120,12 247,-22 382,-13 217,15 560,125 870,130 351,6 379,-146 615,-242 141,-58 207,-114 203,-181 -15,-224 -451,-370 -797,-479 -177,-56 -340,-71 -400,-157 -33,-48 -34,-117 13,-227 53,-124 96,-197 124,-281 18,-53 28,-108 30,-190 1,-37 4,-75 6,-78 114,-5 205,-105 205,-228 0,-200 -162,-207 -316,-261 -54,-19 -104,-40 -139,-62 -67,-41 -79,-66 -28,-121 120,-129 220,-212 311,-304 116,-118 171,-171 187,-271 8,-51 30,-219 -46,-227 -51,-6 -124,18 -197,50 -171,76 -233,118 -340,124 -25,1 -27,-47 -6,-84 13,-23 25,-49 14,-59 -70,-79 -84,-59 -81,-120 1,-23 13,-55 13,-111 0,-177 -89,-237 -258,-259 -105,-13 -219,3 -296,47 -89,51 -157,144 -179,218 -28,95 -6,207 77,319 3,5 8,10 11,15 -72,22 -176,109 -120,151 29,23 94,50 150,93 51,38 96,89 101,161 9,116 -49,232 -75,345 -59,262 99,329 190,562 59,153 100,331 83,447l-1 -1z"/>
  <path class="fil0" d="M6060 5974l3 -8 -9 -3c0,2 -2,3 -3,3 -1,4 1,6 5,7l5 1 -1 1zm10 -26c11,-27 23,-54 29,-65l-9 -2c-5,-1 -8,-3 -12,-5l-7 2c-8,-2 -26,-6 -53,-13 -49,-7 -75,-11 -81,-12l-20 -7c0,3 -2,3 -3,3 -17,-8 -25,-13 -24,-17 8,-18 13,-25 20,-24l3 1 -4 5 3 1c7,-2 10,-4 11,-8l1 -6 -6 -1 1 -6c1,-4 3,-8 5,-11l19 -18 -1 6 6 1 1 -6 -3 -7c6,-3 10,-4 13,-4l1 -3 -9 -2 2 -9c27,-32 40,-51 41,-57l5 3c4,1 6,-1 7,-5l-6 -1 1 -3c1,-4 3,-8 5,-11 12,-8 18,-17 20,-28 3,0 3,2 3,3 8,-2 18,-13 28,-32 21,-22 54,-69 100,-138 17,-24 32,-47 46,-67 -12,-9 -23,-18 -34,-28 -11,-9 -22,-18 -32,-27 -59,84 -115,161 -169,231 -18,30 -32,46 -39,48 -1,4 1,6 5,7 -3,17 -11,32 -23,45 -44,67 -71,103 -82,108l-3 36c-1,4 -3,6 -7,5l-6 -1c2,-10 0,-15 -7,-17l-3 -1c-11,10 -20,23 -28,38l6 1c9,-3 14,-8 15,-16l12 3 5 4c-8,8 -12,14 -13,19l2 7 -13 16 -1 3c7,1 13,5 19,13 5,1 12,0 19,-3 7,2 32,8 74,20l40 1c28,8 54,13 79,18l33 6 7 -2 -1 3c4,1 9,2 13,3l-1 1zm-197 -239l3 1 -1 3c-1,4 -3,6 -8,5l-2 -7 7 -2zm64 67l5 3c-8,15 -14,23 -19,22l1 -3c1,-3 5,-10 13,-22zm-135 98l-1 3c0,4 2,7 5,8l2 -9 -6 -1zm43 48l14 6 95 18 -1 6 -113 -21 1 -3 4 -6 -1 0zm121 26l12 3 -1 6 -12 -3 1 -6z"/>
  <path class="fil3" d="M16603 3974c0,165 -475,147 -558,213l173 416c-93,34 -55,-33 -151,-111 -154,-127 -758,139 -924,217 -165,78 -293,144 -383,197 -273,160 -156,202 126,166 156,-19 335,-58 417,-58l101 0c82,0 146,9 190,28 17,-9 36,-13 57,-13l59 0c0,48 73,72 217,72l14 29c-18,10 -33,15 -44,15 0,19 54,58 161,115l29 101 0 101c-22,81 -79,175 -171,282 -217,250 -1223,1136 -1499,1317l0 -14 44 -59 0 -13 -249 188 0 29c59,-49 103,-74 131,-74 -318,262 -594,461 -827,596l-29 -14c-82,54 -165,98 -247,130 -84,-42 -128,-70 -130,-87 212,-171 318,-263 318,-276l0 -44 -13 0c-50,0 -147,58 -291,175 -19,0 -29,-10 -29,-29 386,-308 885,-673 1468,-1132 115,-90 221,-177 319,-262 284,-247 1098,-913 160,-715 -157,33 -337,88 -538,163l-14 0 0 -29c40,0 84,-24 130,-72l0 -14c-124,19 -207,29 -247,29 -27,-2 -51,-31 -72,-89 -296,0 -241,-335 -109,-523 125,-177 329,-335 551,-465 256,-151 534,-266 734,-335 253,-87 473,-151 667,-178 201,-29 270,-42 457,24l2 0zm-1705 781l29 0c18,0 207,-87 568,-262l0 -29c-69,0 -268,97 -597,291zm-493 333l0 44 44 0 0 -14c0,-20 -10,-29 -29,-29l-15 0 0 -1zm-130 115l0 59c4,19 28,39 72,57l0 -14c-28,-42 -43,-76 -43,-102l-29 0zm130 0l0 15c55,67 119,101 190,101l13 0 0 -28c-94,-59 -151,-89 -173,-89l-29 0 -1 0zm-915 2137l0 29 72 0c283,-196 482,-345 597,-452l-15 0c-13,0 -227,140 -639,421l-15 0 0 1zm-247 363c3,19 12,29 29,29 112,-29 456,-281 1031,-755l-29 0c-231,152 -521,360 -871,624 -82,67 -135,101 -160,101l0 1zm871 -452l15 0c44,-18 69,-37 74,-57l-14 0c-44,19 -69,38 -74,57z"/>
  <path class="fil0" d="M16439 6311c-55,368 -347,287 -438,585 -21,69 -25,150 15,237 56,120 115,137 115,137 0,0 -2,3 -4,8 -7,10 -23,28 -50,43 -32,17 -87,33 -129,59 -56,33 -89,110 -20,148 47,39 148,74 207,79 120,12 247,-22 382,-13 217,15 560,125 870,130 351,6 379,-146 615,-242 141,-58 207,-114 203,-181 -15,-224 -451,-370 -797,-479 -177,-56 -340,-71 -400,-157 -33,-48 -34,-117 13,-227 53,-124 96,-197 124,-281 18,-53 28,-108 30,-190 1,-37 4,-75 6,-78 114,-5 205,-105 205,-228 0,-200 -162,-207 -316,-261 -54,-19 -104,-40 -139,-62 -67,-41 -79,-66 -28,-121 120,-129 220,-212 311,-304 116,-118 171,-171 187,-271 8,-51 30,-219 -46,-227 -51,-6 -124,18 -197,50 -171,76 -233,118 -340,124 -25,1 -27,-47 -6,-84 13,-23 25,-49 14,-59 -70,-79 -84,-59 -81,-120 1,-23 13,-55 13,-111 0,-177 -89,-237 -258,-259 -105,-13 -219,3 -296,47 -89,51 -157,144 -179,218 -28,95 -6,207 77,319 3,5 8,10 11,15 -72,22 -176,109 -120,151 29,23 94,50 150,93 51,38 96,89 101,161 9,116 -49,232 -75,345 -59,262 99,329 190,562 59,153 100,331 83,447l-1 -1z"/>
  <path class="fil1" d="M17012 5974l3 -8 -9 -3c0,2 -2,3 -3,3 -1,4 1,6 5,7l5 1 -1 1zm10 -26c11,-27 23,-54 29,-65l-9 -2c-5,-1 -8,-3 -12,-5l-7 2c-8,-2 -26,-6 -53,-13 -49,-7 -75,-11 -81,-12l-20 -7c0,3 -2,3 -3,3 -17,-8 -25,-13 -24,-17 8,-18 13,-25 20,-24l3 1 -4 5 3 1c7,-2 10,-4 11,-8l1 -6 -6 -1 1 -6c1,-4 3,-8 5,-11l19 -18 -1 6 6 1 1 -6 -3 -7c6,-3 10,-4 13,-4l1 -3 -9 -2 2 -9c27,-32 40,-51 41,-57l5 3c4,1 6,-1 7,-5l-6 -1 1 -3c1,-4 3,-8 5,-11 12,-8 18,-17 20,-28 3,0 3,2 3,3 8,-2 18,-13 28,-32 21,-22 54,-69 100,-138 17,-24 32,-47 46,-67 -12,-9 -23,-18 -34,-28 -11,-9 -22,-18 -32,-27 -59,84 -115,161 -169,231 -18,30 -32,46 -39,48 -1,4 1,6 5,7 -3,17 -11,32 -23,45 -44,67 -71,103 -82,108l-3 36c-1,4 -3,6 -7,5l-6 -1c2,-10 0,-15 -7,-17l-3 -1c-11,10 -20,23 -28,38l6 1c9,-3 14,-8 15,-16l12 3 5 4c-8,8 -12,14 -13,19l2 7 -13 16 -1 3c7,1 13,5 19,13 5,1 12,0 19,-3 7,2 32,8 74,20l40 1c28,8 54,13 79,18l33 6 7 -2 -1 3c4,1 9,2 13,3l-1 1zm-197 -239l3 1 -1 3c-1,4 -3,6 -8,5l-2 -7 7 -2zm64 67l5 3c-8,15 -14,23 -19,22l1 -3c1,-3 5,-10 13,-22zm-135 98l-1 3c0,4 2,7 5,8l2 -9 -6 -1zm43 48l14 6 95 18 -1 6 -113 -21 1 -3 4 -6 -1 0zm121 26l12 3 -1 6 -12 -3 1 -6z"/>
 </g>
</svg>
