<?xml version="1.0" encoding="UTF-8"?>
<!DOCTYPE svg PUBLIC "-//W3C//DTD SVG 1.1//EN" "http://www.w3.org/Graphics/SVG/1.1/DTD/svg11.dtd">
<!-- Creator: CorelDRAW X6 -->
<svg xmlns="http://www.w3.org/2000/svg" xml:space="preserve" width="210mm" height="148mm" version="1.1" style="shape-rendering:geometricPrecision; text-rendering:geometricPrecision; image-rendering:optimizeQuality; fill-rule:evenodd; clip-rule:evenodd"
viewBox="0 0 21000 14800"
 xmlns:xlink="http://www.w3.org/1999/xlink">
 <defs>
  <style type="text/css">
   <![CDATA[
    .fil4 {fill:#2B1E15}
    .fil1 {fill:#37383D}
    .fil6 {fill:#528016}
    .fil8 {fill:#5F9516}
    .fil10 {fill:#756946}
    .fil5 {fill:#AD836B}
    .fil0 {fill:#C2C9CC}
    .fil9 {fill:#D1DDE2}
    .fil11 {fill:#F0F0F0}
    .fil7 {fill:white}
    .fil2 {fill:#2B1E15;fill-rule:nonzero}
    .fil3 {fill:#528016;fill-rule:nonzero}
   ]]>
  </style>
 </defs>
 <g id="Слой_x0020_1">
  <metadata id="CorelCorpID_0Corel-Layer"/>
  <rect class="fil0" x="-781" y="-11" width="22500" height="13500"/>
  <polygon class="fil1" points="10491,-11 21719,-11 21719,13489 10491,13489 "/>
  <path class="fil2" d="M3185 8296c-3,25 -7,73 -13,142 -3,42 -6,91 -9,148 -40,12 -97,17 -173,17 -112,0 -204,-25 -275,-76 -83,-61 -125,-150 -125,-271 0,-115 36,-204 109,-268 69,-61 159,-91 271,-91 43,0 88,3 136,10l24 280c-19,-7 -47,-11 -83,-11 -46,0 -87,14 -123,42 -41,32 -62,72 -62,120 0,46 17,82 52,107 29,21 63,32 102,30l-7 -89c-2,-18 -6,-48 -12,-90l188 0zm620 -135c0,55 -15,102 -46,144 -27,36 -61,63 -101,79 9,13 30,41 63,84 17,20 43,46 78,78 -13,5 -44,17 -92,38 -33,15 -64,30 -93,44 -9,-10 -28,-38 -58,-82 -13,-22 -33,-60 -60,-114l-1 0 -4 155 -250 0c-3,-64 -8,-171 -13,-319 -2,-87 -9,-208 -18,-362 81,-9 156,-13 222,-13 248,0 373,89 373,267l1 1zm-202 96c0,-28 -12,-48 -36,-60 -17,-9 -40,-13 -66,-12l-2 152c25,0 47,-6 66,-17 25,-14 38,-36 38,-63zm692 -351l-19 281c-11,-2 -35,-5 -71,-9 -25,-2 -52,-4 -81,-5l-6 85c32,1 85,0 159,-2 -3,11 -9,32 -16,61 -4,18 -8,39 -11,63 -9,-2 -30,-5 -64,-8 -16,-1 -40,-2 -71,-1l-5 99c22,0 63,-2 123,-6 11,-1 30,-5 55,-10 -2,9 -8,31 -17,66 -4,18 -9,40 -15,68l-396 0 -13 -347c-2,-79 -8,-191 -17,-333l466 0 0 -1zm504 0l-19 281c-11,-2 -35,-5 -71,-9 -25,-2 -52,-4 -82,-5l-6 85c32,1 85,0 159,-2 -3,11 -9,32 -16,61 -4,18 -8,39 -11,63 -9,-2 -30,-5 -64,-8 -16,-1 -40,-2 -71,-1l-5 99c22,0 63,-2 123,-6 11,-1 30,-5 55,-10 -2,9 -8,31 -17,66 -4,18 -10,40 -15,68l-396 0 -13 -347c-2,-79 -8,-191 -17,-333l466 0 0 -1zm583 0c-4,60 -9,164 -17,313 -5,109 -8,235 -11,377 -39,-31 -98,-76 -177,-136 -34,-24 -85,-60 -154,-108l-5 235 -142 0c-2,-60 -8,-173 -17,-339 -7,-135 -15,-248 -23,-341l222 0 166 156c0,-36 -1,-64 -2,-85 -1,-18 -2,-42 -6,-72l164 0 2 0zm680 0l-18 279c-11,-2 -34,-4 -70,-7 -21,-1 -46,-2 -75,-2l-8 142c30,1 77,-2 140,-6 -3,13 -8,36 -13,66 -3,18 -7,40 -11,65 -8,-2 -27,-5 -57,-8 -22,-2 -44,-2 -65,-2l-3 154 -248 0 -13 -347c-2,-80 -9,-191 -20,-333l462 0 0 -1zm634 0l-10 286c-3,81 -5,206 -5,371 -76,27 -153,41 -232,41 -97,0 -171,-19 -222,-58 -43,-33 -74,-84 -91,-153 -10,-40 -20,-113 -29,-219 -9,-98 -14,-188 -17,-268l286 0c-2,39 -3,103 -6,191 -1,49 -1,119 1,209 0,69 6,115 17,138 12,25 36,38 73,38 10,0 22,-3 35,-9 0,-61 -2,-157 -6,-290 -3,-66 -8,-159 -16,-277l218 0 3 0zm632 255c0,55 -15,102 -46,144 -27,36 -61,63 -101,79 9,13 30,41 63,84 17,20 43,46 78,78 -13,5 -44,17 -92,38 -33,15 -64,30 -93,44 -9,-10 -28,-38 -58,-82 -13,-22 -33,-60 -60,-114l-1 0 -4 155 -250 0c-3,-64 -8,-171 -13,-319 -2,-87 -9,-208 -18,-362 81,-9 156,-13 222,-13 248,0 373,89 373,267l1 1zm-202 96c0,-28 -12,-48 -36,-60 -17,-9 -40,-13 -66,-12l-2 152c25,0 47,-6 66,-17 25,-14 38,-36 38,-63z"/>
  <path class="fil3" d="M2592 8292c-1,-11 -2,-23 -2,-35 0,-25 2,-49 6,-72l392 0c-22,7 -44,18 -63,33 -27,21 -45,45 -55,74l-278 0zm539 -106l0 2c-2,-1 -4,-2 -6,-2l6 0 1 0z"/>
  <path class="fil3" d="M2675 8013c8,-9 16,-17 25,-25 69,-61 159,-91 271,-91 43,0 88,3 136,10l9 106 -441 0z"/>
  <path class="fil4" d="M5484 3438l-289 359 789 747c-76,-168 -97,-624 -137,-855 -45,-254 -198,-459 -363,-252z"/>
  <path class="fil5" d="M5503 3707l-131 163c135,70 258,167 356,290 -23,-98 -36,-246 -51,-333 -21,-122 -95,-220 -174,-121l0 1z"/>
  <path class="fil4" d="M4325 3438l289 359 -794 744c76,-168 102,-621 142,-851 45,-254 198,-459 363,-252z"/>
  <path class="fil5" d="M4302 3707l131 163c-135,70 -258,167 -356,290 23,-98 36,-246 51,-333 21,-122 95,-220 174,-121l0 1z"/>
  <path class="fil6" d="M3955 4847c-52,13 -414,-25 -457,17 -135,131 -244,112 -423,157 -127,32 -272,104 -406,263 -240,286 -297,714 -33,1025 89,105 157,400 146,589 -2,44 -6,84 -21,112 -2,2 396,-155 590,-530 147,-284 67,-346 351,-624 61,-60 43,33 44,-25 2,-126 283,-207 304,-302 91,-427 -11,-495 -93,-684l-1 1z"/>
  <path class="fil7" d="M2463 5816c-5,47 1,91 8,133 21,126 62,240 165,362 89,105 157,400 146,589 -1,12 -2,23 -2,34 28,3 58,5 87,5 13,0 27,0 40,-1 133,-80 327,-228 445,-456 103,-199 92,-237 176,-370 -104,-239 -438,-408 -663,-408 -225,0 -286,41 -401,112l1 0z"/>
  <path class="fil8" d="M2465 5914c14,140 69,277 170,396 89,105 157,400 146,589 -2,44 -6,84 -21,112 -2,2 396,-155 590,-530 69,-134 88,-218 118,-299 -97,-235 -395,-400 -607,-400 -212,0 -287,49 -397,131l1 1z"/>
  <path class="fil7" d="M2478 5996c24,112 76,219 157,315 89,105 153,398 142,589 -2,44 -6,89 -21,116 -2,2 400,-159 593,-533 34,-66 56,-120 73,-168 -81,-247 -390,-425 -595,-425 -204,0 -252,40 -351,106l2 0z"/>
  <path class="fil4" d="M5159 5075c1110,71 1701,2103 915,2469 -104,48 -215,89 -332,120 -460,123 -1396,111 -1839,-41 -68,-23 -135,-50 -198,-79 -436,-203 -448,-920 -182,-1530 213,-488 604,-908 1097,-939 91,-6 180,-4 268,4 88,-8 177,-10 268,-4l1 0z"/>
  <path class="fil8" d="M6278 5089c461,0 716,743 -12,925 -332,83 -768,57 -1048,-53 -178,-70 -304,-185 -322,-351 228,60 486,-51 560,-344 8,-22 13,-45 17,-70 30,-184 289,66 381,27 180,-78 398,-135 424,-135z"/>
  <path class="fil6" d="M6257 6016c-332,81 -762,54 -1040,-55 -178,-70 -304,-185 -322,-351 228,60 486,-51 560,-344 8,-22 13,-45 17,-70 2,-17 7,-30 13,-40 339,150 607,484 770,859l1 -1z"/>
  <path class="fil9" d="M3881 4449c-71,112 -150,214 -239,296 -3,6 -5,12 -5,17 -5,62 139,65 172,116 105,165 381,180 616,30 121,-77 89,-195 145,-304 52,-102 218,-176 168,-256 -105,-165 -457,-189 -692,-40 -62,39 -119,88 -164,140l-1 1z"/>
  <path class="fil10" d="M4848 5323l389 -86c115,36 250,61 394,61 412,0 858,-225 858,-294 0,-26 -78,-63 -189,-129 -59,-35 -123,-90 -180,-157 -112,-129 -218,-302 -328,-472 -212,-328 -551,-498 -913,-499 -360,-1 -713,168 -894,521 -131,256 -301,482 -512,605 -49,28 -76,69 -108,89 -43,25 -84,27 -84,42 0,68 445,294 858,294 136,0 264,-22 375,-55l336 80 -2 0z"/>
  <path class="fil7" d="M5894 4449c112,112 156,195 230,277 3,6 13,32 13,37 5,62 -139,65 -172,116 -105,165 -381,180 -616,30 -121,-77 -89,-195 -145,-304 -52,-102 -218,-176 -168,-256 105,-165 457,-189 692,-40 62,39 119,88 164,140l1 0z"/>
  <path class="fil8" d="M6330 4953c228,0 454,203 469,410 34,458 -388,616 -542,650 46,-47 83,-93 108,-140 162,-299 4,-591 -315,-673 -44,-11 119,-139 82,-163 115,-38 180,-85 198,-85l-1 0z"/>
  <path class="fil4" d="M6242 5170c154,-63 257,-132 257,-165 0,-26 -89,-47 -189,-129 -137,-113 -245,-200 -337,-267 -144,-105 -258,-157 -370,-187 -72,-19 -543,-99 -572,-61 -65,83 458,1117 1211,809z"/>
  <path class="fil7" d="M3898 4449c-61,61 -101,127 -141,173 -33,40 -56,66 -90,104 -3,6 -13,32 -13,37 -5,62 139,65 172,116 105,165 299,142 534,-8 121,-77 172,-158 227,-266 52,-102 201,-170 150,-251 -105,-165 -440,-195 -675,-46 -62,39 -119,88 -164,140l0 1z"/>
  <path class="fil4" d="M3533 5170c-154,-63 -257,-132 -257,-165 0,-26 89,-47 189,-129 137,-113 245,-200 337,-267 144,-105 258,-157 370,-187 72,-19 543,-99 572,-61 65,83 -458,1117 -1211,809z"/>
  <path class="fil11" d="M4528 4840c179,-219 512,-232 699,-27 267,294 -12,642 -340,637 -301,-6 -600,-314 -358,-609l0 -1z"/>
  <path class="fil10" d="M3995 7105c474,-127 404,-592 872,-718 114,-30 170,-44 241,-89 32,-21 98,-67 121,-116 22,-47 9,-78 -47,-63 2,0 -3,-36 -16,-44 -47,-30 -83,3 -119,32 7,-13 19,-39 -1,-55 -13,-10 -36,-9 -50,2l-153 125c-32,7 -66,14 -101,22 -172,38 -597,145 -873,307 -487,286 -150,669 126,596l-2 1z"/>
  <path class="fil10" d="M5295 4476c24,15 31,46 16,70 -29,47 -178,-7 -179,-12 -3,-31 122,19 144,-8 14,-17 12,-43 -6,-57l0 0c8,0 16,2 25,8l0 -1z"/>
  <path class="fil10" d="M5335 5067c-207,305 -662,303 -894,-4 256,300 717,233 894,4z"/>
  <path class="fil10" d="M4475 4476c-24,15 -31,46 -16,70 29,47 178,-7 179,-12 3,-31 -122,19 -144,-8 -14,-17 -12,-43 6,-57l0 0c-8,0 -16,2 -25,8l0 -1z"/>
  <path class="fil4" d="M4889 5087c43,0 77,21 77,48 0,32 -52,27 -77,112 -25,-85 -77,-80 -77,-112 0,-26 34,-48 77,-48z"/>
  <path class="fil2" d="M14598 8304c-3,25 -7,73 -13,142 -3,42 -6,91 -9,148 -40,12 -97,17 -173,17 -112,0 -204,-25 -275,-76 -83,-61 -125,-150 -125,-271 0,-115 36,-204 109,-268 69,-61 159,-91 271,-91 43,0 88,3 136,9l24 280c-19,-7 -47,-11 -83,-11 -46,0 -87,14 -123,42 -41,32 -62,72 -62,120 0,46 17,82 52,107 29,21 63,32 102,30l-7 -89c-2,-18 -6,-48 -12,-90l188 0zm620 -135c0,55 -15,102 -46,144 -27,36 -61,63 -101,79 9,13 30,41 63,84 17,20 43,46 78,78 -13,5 -44,17 -92,38 -33,15 -64,30 -93,44 -9,-10 -28,-38 -58,-82 -13,-22 -33,-60 -60,-114l-1 0 -4 155 -250 0c-3,-64 -8,-171 -13,-319 -2,-87 -9,-208 -18,-362 82,-9 156,-13 222,-13 248,0 373,89 373,267l1 1zm-202 96c0,-28 -12,-48 -36,-60 -17,-9 -40,-13 -66,-12l-2 152c25,0 47,-6 66,-17 25,-14 38,-36 38,-63zm692 -351l-19 281c-11,-2 -35,-5 -71,-9 -25,-2 -52,-4 -82,-5l-6 85c32,1 85,0 159,-2 -3,11 -9,32 -16,61 -4,18 -8,39 -11,63 -9,-2 -30,-5 -64,-8 -16,-1 -40,-2 -71,-1l-5 99c22,0 63,-2 123,-6 11,-1 30,-5 55,-10 -2,10 -8,31 -17,66 -4,18 -10,40 -15,68l-396 0 -13 -347c-2,-79 -8,-191 -17,-333l466 0 0 -1zm504 0l-19 281c-11,-2 -35,-5 -71,-9 -25,-2 -52,-4 -81,-5l-6 85c32,1 85,0 159,-2 -3,11 -9,32 -16,61 -4,18 -8,39 -11,63 -9,-2 -30,-5 -64,-8 -16,-1 -40,-2 -71,-1l-5 99c22,0 63,-2 123,-6 11,-1 30,-5 55,-10 -2,10 -8,31 -17,66 -4,18 -9,40 -15,68l-396 0 -13 -347c-2,-79 -8,-191 -17,-333l466 0 0 -1zm583 0c-4,60 -10,164 -17,313 -5,109 -8,235 -11,377 -39,-31 -98,-76 -177,-136 -34,-24 -85,-60 -154,-108l-5 235 -142 0c-2,-60 -8,-173 -17,-339 -7,-135 -15,-248 -23,-341l222 0 166 156c0,-36 -1,-64 -2,-85 -1,-18 -2,-42 -6,-72l164 0 2 0zm680 0l-18 279c-11,-2 -34,-4 -70,-7 -21,-1 -46,-2 -75,-2l-8 142c30,1 77,-2 140,-6 -3,13 -8,36 -13,66 -3,18 -7,40 -11,65 -8,-2 -27,-5 -57,-8 -22,-2 -44,-2 -65,-2l-3 154 -248 0 -13 -347c-2,-80 -9,-191 -20,-333l462 0 0 -1zm634 0l-10 286c-3,82 -5,206 -5,371 -76,27 -153,41 -232,41 -97,0 -171,-19 -222,-58 -43,-33 -74,-84 -91,-154 -10,-40 -20,-113 -29,-219 -9,-98 -14,-188 -17,-268l286 0c-2,39 -3,103 -6,191 -1,49 -1,119 1,209 0,69 6,115 17,138 12,25 36,38 73,38 10,0 22,-3 35,-9 0,-61 -2,-157 -6,-290 -3,-66 -8,-159 -16,-277l218 0 3 0zm632 255c0,55 -15,102 -46,144 -27,36 -61,63 -101,79 9,13 30,41 63,84 17,20 43,46 78,78 -13,5 -44,17 -92,38 -33,15 -64,30 -93,44 -9,-10 -28,-38 -58,-82 -13,-22 -33,-60 -60,-114l-1 0 -4 155 -250 0c-3,-64 -8,-171 -13,-319 -2,-87 -9,-208 -18,-362 82,-9 156,-13 222,-13 248,0 373,89 373,267l1 1zm-202 96c0,-28 -12,-48 -36,-60 -17,-9 -40,-13 -66,-12l-2 152c25,0 47,-6 66,-17 25,-14 38,-36 38,-63z"/>
  <path class="fil3" d="M14004 8300c-1,-11 -2,-23 -2,-35 0,-25 2,-49 6,-72l392 0c-22,7 -44,18 -63,33 -27,21 -45,45 -55,74l-278 0zm539 -106l0 2c-2,-1 -4,-2 -6,-2l6 0 1 0z"/>
  <path class="fil3" d="M14088 8021c8,-9 16,-17 25,-25 69,-61 159,-91 271,-91 43,0 88,3 136,9l9 106 -441 0z"/>
  <path class="fil4" d="M16897 3445l-289 359 789 747c-76,-168 -97,-624 -137,-855 -45,-254 -198,-459 -363,-252z"/>
  <path class="fil5" d="M16916 3714l-131 163c135,70 258,167 356,290 -23,-98 -36,-246 -51,-333 -21,-122 -95,-220 -174,-121l0 1z"/>
  <path class="fil4" d="M15736 3445l289 359 -794 744c76,-168 102,-621 142,-851 45,-254 198,-459 363,-252z"/>
  <path class="fil5" d="M15714 3714l131 163c-135,70 -258,167 -356,290 23,-98 36,-246 51,-333 21,-122 95,-220 174,-121l0 1z"/>
  <path class="fil6" d="M15368 4855c-52,13 -414,-25 -457,17 -135,131 -244,112 -423,157 -127,32 -272,104 -406,263 -240,286 -297,714 -33,1025 89,105 157,400 146,589 -2,44 -6,84 -21,112 -2,2 396,-155 590,-530 147,-284 67,-346 351,-624 61,-60 43,33 44,-25 2,-126 283,-207 304,-302 91,-427 -11,-495 -93,-684l-1 1z"/>
  <path class="fil7" d="M13875 5824c-5,47 1,91 8,133 21,126 62,240 165,362 89,105 157,400 146,589 -1,12 -2,23 -2,34 28,3 58,5 87,5 13,0 27,0 40,-1 133,-80 327,-228 445,-456 103,-199 92,-237 176,-370 -104,-239 -438,-408 -663,-408 -225,0 -286,41 -401,112l1 0z"/>
  <path class="fil8" d="M13878 5922c14,140 69,277 170,396 89,105 157,400 146,589 -2,44 -6,84 -21,112 -2,2 396,-155 590,-530 69,-134 88,-218 118,-299 -97,-235 -395,-400 -607,-400 -212,0 -287,49 -397,131l1 1z"/>
  <path class="fil7" d="M13891 6003c24,112 76,219 157,315 89,105 154,398 142,589 -2,44 -6,89 -21,116 -2,2 400,-159 593,-533 34,-66 56,-120 73,-168 -81,-247 -390,-425 -595,-425 -204,0 -252,40 -351,106l2 0z"/>
  <path class="fil4" d="M16572 5083c1110,71 1701,2103 915,2469 -104,48 -215,89 -332,120 -460,123 -1396,111 -1839,-41 -68,-23 -135,-50 -198,-79 -436,-203 -448,-920 -182,-1530 213,-488 604,-908 1097,-939 91,-6 180,-4 268,4 88,-8 177,-10 268,-4l1 0z"/>
  <path class="fil8" d="M17691 5097c461,0 716,743 -12,925 -332,83 -768,57 -1048,-53 -178,-70 -304,-185 -322,-351 228,60 486,-51 560,-344 8,-22 13,-45 17,-70 30,-184 289,66 381,27 180,-78 398,-135 424,-135z"/>
  <path class="fil6" d="M17670 6024c-332,81 -762,54 -1040,-55 -178,-70 -304,-185 -322,-351 228,60 486,-51 560,-344 8,-22 13,-45 17,-70 2,-17 7,-30 13,-40 339,150 607,484 770,859l1 -1z"/>
  <path class="fil9" d="M15293 4457c-71,112 -150,214 -239,296 -3,6 -5,12 -5,17 -5,62 139,65 172,116 105,165 381,180 616,30 121,-77 89,-195 145,-304 52,-102 218,-176 168,-256 -105,-165 -457,-189 -692,-40 -62,39 -119,88 -164,140l-1 1z"/>
  <path class="fil10" d="M16260 5331l389 -86c115,36 250,61 394,61 412,0 858,-226 858,-294 0,-26 -78,-63 -189,-129 -59,-35 -123,-90 -180,-157 -112,-129 -218,-302 -328,-472 -212,-328 -551,-498 -913,-499 -360,-1 -713,168 -894,521 -131,256 -301,482 -512,605 -49,28 -76,69 -108,89 -43,25 -84,27 -84,42 0,68 445,294 858,294 136,0 264,-22 375,-55l336 80 -2 0z"/>
  <path class="fil7" d="M17307 4457c112,112 156,195 230,277 3,6 13,32 13,37 5,62 -139,65 -172,116 -105,165 -381,180 -616,30 -121,-77 -89,-195 -145,-304 -52,-102 -218,-176 -168,-256 105,-165 457,-189 692,-40 62,39 119,88 164,140l1 0z"/>
  <path class="fil8" d="M17743 4961c228,0 454,203 469,410 34,458 -388,616 -542,650 46,-47 83,-93 108,-140 162,-299 4,-591 -315,-673 -44,-11 119,-139 82,-163 115,-38 180,-85 198,-85l-1 0z"/>
  <path class="fil4" d="M17655 5177c154,-63 257,-132 257,-165 0,-26 -89,-47 -189,-129 -137,-113 -245,-200 -337,-267 -144,-105 -258,-157 -370,-187 -72,-19 -543,-99 -572,-61 -65,83 458,1117 1211,809z"/>
  <path class="fil7" d="M15310 4457c-61,61 -101,127 -141,173 -33,40 -56,66 -90,104 -3,6 -13,32 -13,37 -5,62 139,65 172,116 105,165 299,142 534,-8 121,-77 172,-158 227,-266 52,-102 201,-170 150,-251 -105,-165 -440,-195 -675,-46 -62,39 -119,88 -164,140l0 1z"/>
  <path class="fil4" d="M14945 5177c-153,-63 -257,-132 -257,-165 0,-26 89,-47 189,-129 137,-113 245,-200 337,-267 144,-105 258,-157 369,-187 72,-19 543,-99 572,-61 65,83 -458,1117 -1211,809z"/>
  <path class="fil11" d="M15941 4848c179,-219 512,-232 699,-27 267,294 -12,642 -340,637 -301,-6 -600,-314 -358,-609l0 -1z"/>
  <path class="fil10" d="M15406 7113c474,-127 404,-592 872,-718 114,-30 170,-44 241,-89 32,-21 98,-67 121,-116 22,-47 9,-78 -47,-63 2,0 -3,-36 -16,-44 -47,-30 -83,3 -119,32 7,-13 19,-39 -1,-55 -13,-10 -36,-10 -50,2l-153 125c-32,7 -66,14 -101,22 -172,38 -597,145 -873,307 -487,286 -150,669 126,596l-2 1z"/>
  <path class="fil10" d="M16707 4484c24,15 31,46 16,70 -29,47 -178,-7 -179,-12 -3,-31 122,19 144,-8 14,-17 12,-43 -6,-57l0 0c8,0 16,2 25,8l0 -1z"/>
  <path class="fil10" d="M16748 5075c-207,305 -662,303 -894,-4 256,300 717,233 894,4z"/>
  <path class="fil10" d="M15888 4484c-24,15 -31,46 -16,70 29,47 178,-7 179,-12 3,-31 -122,19 -144,-8 -14,-17 -12,-43 6,-57l0 0c-8,0 -16,2 -25,8l0 -1z"/>
  <path class="fil4" d="M16301 5095c43,0 77,21 77,48 0,32 -52,27 -77,112 -25,-85 -77,-80 -77,-112 0,-26 34,-48 77,-48z"/>
 </g>
</svg>
