<?xml version="1.0" encoding="UTF-8"?>
<!DOCTYPE svg PUBLIC "-//W3C//DTD SVG 1.1//EN" "http://www.w3.org/Graphics/SVG/1.1/DTD/svg11.dtd">
<!-- Creator: CorelDRAW X6 -->
<svg xmlns="http://www.w3.org/2000/svg" xml:space="preserve" width="210mm" height="148mm" version="1.1" style="shape-rendering:geometricPrecision; text-rendering:geometricPrecision; image-rendering:optimizeQuality; fill-rule:evenodd; clip-rule:evenodd"
viewBox="0 0 21000 14800"
 xmlns:xlink="http://www.w3.org/1999/xlink">
 <defs>
  <style type="text/css">
   <![CDATA[
    .fil13 {fill:#1F230C}
    .fil6 {fill:#43371D}
    .fil14 {fill:#494F23}
    .fil0 {fill:#5D692F}
    .fil7 {fill:#624233}
    .fil11 {fill:#632911}
    .fil4 {fill:#6E2C0A}
    .fil8 {fill:#914E24}
    .fil5 {fill:#AC8C66}
    .fil15 {fill:#AEADAD}
    .fil10 {fill:#C37209}
    .fil9 {fill:#CDD4C4}
    .fil12 {fill:white}
    .fil3 {fill:#1F230C;fill-rule:nonzero}
    .fil1 {fill:#343912;fill-rule:nonzero}
    .fil2 {fill:#575D27;fill-rule:nonzero}
   ]]>
  </style>
 </defs>
 <g id="Слой_x0020_1">
  <metadata id="CorelCorpID_0Corel-Layer"/>
  <g id="_838689504">
   <rect class="fil0" x="-993" y="-117" width="22500" height="13500"/>
   <g id="_2376884656">
    <path class="fil1" d="M10041 10133c-16,0 -29,-5 -38,-15 -9,-10 -14,-23 -14,-37l0 -1269c0,-58 20,-108 61,-149 41,-41 90,-61 149,-61 58,0 108,20 149,61 41,41 61,90 61,149l0 1306c0,10 -5,15 -15,15 -10,0 -15,-5 -15,-15l0 -1306c0,-50 -18,-92 -53,-127 -35,-35 -77,-53 -127,-53 -51,0 -94,18 -129,53 -35,35 -53,77 -53,127l0 1269c0,15 8,22 24,22 15,0 22,-7 22,-22l0 -665c0,-15 5,-27 15,-37 10,-10 23,-15 37,-15l164 0c10,0 15,5 15,15 0,10 -5,15 -15,15l-164 0c-15,0 -22,7 -22,22l0 665c0,15 -5,27 -15,37 -10,10 -23,15 -37,15z"/>
    <path class="fil1" d="M9814 9960c0,48 -17,89 -51,123 -34,34 -75,50 -121,50 -48,0 -89,-17 -123,-50 -34,-34 -50,-74 -50,-123l0 -582c0,-10 5,-15 15,-15 10,0 15,5 15,15l0 582c0,39 14,73 42,101 28,28 61,42 101,42 39,0 73,-14 101,-42 28,-28 42,-61 42,-101l0 -1149c0,-50 -18,-92 -53,-127 -35,-35 -77,-53 -127,-53l-158 0c-16,0 -24,7 -24,22l0 1464c0,10 -4,15 -13,15 -10,0 -15,-5 -15,-15l0 -1464c0,-15 5,-27 14,-37 9,-10 22,-15 38,-15l158 0c58,0 108,20 149,61 41,41 61,90 61,149l0 1149 -1 0z"/>
    <path class="fil1" d="M9206 8602c10,0 15,5 15,15l0 1474c0,12 -4,22 -12,30 -8,8 -18,12 -30,12 -9,0 -17,-3 -24,-9 -7,-6 -12,-13 -15,-22l-363 -1461c-1,-6 -5,-9 -11,-9 -7,0 -11,4 -11,11l0 1437c0,15 7,22 22,22 16,0 24,-7 24,-22l0 -702c0,-10 4,-15 13,-15 10,0 15,5 15,15l0 702c0,15 -5,27 -14,37 -9,10 -22,15 -38,15 -15,0 -27,-5 -37,-15 -10,-10 -15,-23 -15,-37l0 -1437c0,-12 4,-22 12,-30 8,-8 18,-12 30,-12 20,0 34,10 39,31l363 1464c1,4 5,7 11,7 7,0 11,-4 11,-11l0 -1474c0,-10 5,-15 15,-15l0 -1z"/>
    <path class="fil1" d="M8182 10133c-16,0 -29,-5 -38,-15 -9,-10 -14,-23 -14,-37l0 -1269c0,-58 20,-108 61,-149 41,-41 90,-61 149,-61 58,0 108,20 149,61 41,41 61,90 61,149l0 1306c0,10 -5,15 -15,15 -10,0 -15,-5 -15,-15l0 -1306c0,-50 -18,-92 -53,-127 -35,-35 -77,-53 -127,-53 -51,0 -94,18 -129,53 -35,35 -53,77 -53,127l0 1269c0,15 8,22 24,22 15,0 22,-7 22,-22l0 -665c0,-15 5,-27 15,-37 10,-10 23,-15 37,-15l164 0c10,0 15,5 15,15 0,10 -5,15 -15,15l-164 0c-15,0 -22,7 -22,22l0 665c0,15 -5,27 -15,37 -10,10 -23,15 -37,15z"/>
    <path class="fil1" d="M7744 8602c58,0 108,20 149,61 41,41 61,90 61,149l0 409c0,48 -17,89 -50,123 -34,34 -74,50 -123,50 -47,0 -87,-17 -121,-50 -34,-34 -51,-74 -51,-123l0 -409c0,-10 5,-15 15,-15 10,0 15,5 15,15l0 409c0,39 14,73 42,101 28,28 61,42 101,42 39,0 73,-14 102,-42 28,-28 43,-61 43,-101l0 -409c0,-50 -18,-92 -53,-127 -35,-35 -78,-53 -129,-53 -50,0 -92,18 -127,53 -35,35 -53,77 -53,127l0 1306c0,10 -5,15 -15,15 -10,0 -15,-5 -15,-15l0 -1306c0,-58 20,-108 61,-149 41,-41 90,-61 149,-61l-1 0z"/>
    <path class="fil1" d="M6946 9960c0,48 -17,89 -51,123 -34,34 -75,50 -121,50 -48,0 -89,-17 -123,-50 -34,-34 -50,-74 -50,-123l0 -582c0,-10 5,-15 15,-15 10,0 15,5 15,15l0 582c0,39 14,73 42,101 28,28 61,42 101,42 39,0 73,-14 101,-42 28,-28 42,-61 42,-101l0 -1149c0,-50 -18,-92 -53,-127 -35,-35 -77,-53 -127,-53l-158 0c-16,0 -24,7 -24,22l0 1464c0,10 -4,15 -13,15 -10,0 -15,-5 -15,-15l0 -1464c0,-15 5,-27 14,-37 9,-10 22,-15 38,-15l158 0c58,0 108,20 149,61 41,41 61,90 61,149l0 1149 -1 0z"/>
    <path class="fil1" d="M5983 9319c-15,0 -27,-5 -37,-15 -10,-10 -15,-23 -15,-37l0 -455c0,-58 20,-108 61,-149 41,-41 90,-61 149,-61l197 0c10,0 15,5 15,15 0,10 -5,15 -15,15l-197 0c-50,0 -92,18 -127,53 -35,35 -53,77 -53,127l0 455c0,15 7,22 22,22l195 0c15,0 27,5 37,15 10,10 15,23 15,37 0,15 -5,27 -15,37 -10,10 -23,15 -37,15l-195 0c-15,0 -22,8 -22,24l0 505c0,50 18,92 53,127 35,35 77,53 127,53l197 0c10,0 15,5 15,15 0,10 -5,15 -15,15l-197 0c-58,0 -108,-20 -149,-61 -41,-41 -61,-90 -61,-149l0 -505c0,-16 5,-29 15,-39 10,-10 23,-15 37,-15l195 0c15,0 22,-7 22,-22 0,-15 -7,-22 -22,-22l-195 0z"/>
    <path class="fil1" d="M5756 10114c3,9 0,15 -9,20 -9,1 -15,-1 -20,-9l-267 -689 -2 -2c-1,0 -3,0 -3,-1 -1,-1 -2,-1 -3,-1 -7,0 -11,4 -11,11l0 639c0,15 -5,27 -15,37 -10,10 -23,15 -37,15 -15,0 -27,-5 -37,-15 -10,-10 -15,-23 -15,-37l0 -1269c0,-58 20,-108 61,-149 41,-41 90,-61 149,-61 58,0 108,20 149,61 41,41 61,90 61,149l0 409c0,48 -17,89 -50,123 -34,34 -74,50 -123,50 -47,0 -87,-17 -121,-50 -34,-34 -51,-74 -51,-123l0 -409c0,-10 5,-15 15,-15 10,0 15,5 15,15l0 409c0,39 14,73 42,101 28,28 61,42 101,42 39,0 73,-14 101,-42 28,-28 42,-61 42,-101l0 -409c0,-50 -18,-92 -53,-127 -35,-35 -77,-53 -127,-53 -50,0 -92,18 -127,53 -35,35 -53,77 -53,127l0 1269c0,15 7,22 22,22 15,0 22,-7 22,-22l0 -639c0,-12 4,-22 12,-30 8,-8 18,-12 30,-12 19,0 31,7 35,22l269 691 -2 0z"/>
    <path class="fil2" d="M10019 10126c-16,0 -29,-5 -38,-15 -9,-10 -14,-23 -14,-37l0 -1269c0,-58 20,-108 61,-149 41,-41 90,-61 149,-61 58,0 108,20 149,61 41,41 61,90 61,149l0 1306c0,10 -5,15 -15,15 -10,0 -15,-5 -15,-15l0 -1306c0,-50 -18,-92 -53,-127 -35,-35 -77,-53 -127,-53 -51,0 -94,18 -129,53 -35,35 -53,77 -53,127l0 1269c0,15 8,22 24,22 15,0 22,-7 22,-22l0 -665c0,-15 5,-27 15,-37 10,-10 23,-15 37,-15l164 0c10,0 15,5 15,15 0,10 -5,15 -15,15l-164 0c-15,0 -22,7 -22,22l0 665c0,15 -5,27 -15,37 -10,10 -23,15 -37,15z"/>
    <path class="fil2" d="M9791 9953c0,48 -17,89 -51,123 -34,34 -75,50 -121,50 -48,0 -89,-17 -123,-50 -34,-34 -50,-74 -50,-123l0 -582c0,-10 5,-15 15,-15 10,0 15,5 15,15l0 582c0,39 14,73 42,101 28,28 61,42 101,42 39,0 73,-14 101,-42 28,-28 42,-61 42,-101l0 -1149c0,-50 -18,-92 -53,-127 -35,-35 -77,-53 -127,-53l-158 0c-16,0 -24,7 -24,22l0 1464c0,10 -4,15 -13,15 -10,0 -15,-5 -15,-15l0 -1464c0,-15 5,-27 14,-37 9,-10 22,-15 38,-15l158 0c58,0 108,20 149,61 41,41 61,90 61,149l0 1149 -1 0z"/>
    <path class="fil2" d="M9183 8594c10,0 15,5 15,15l0 1474c0,12 -4,22 -12,30 -8,8 -18,12 -30,12 -9,0 -17,-3 -24,-9 -7,-6 -12,-13 -15,-22l-363 -1461c-1,-6 -5,-9 -11,-9 -7,0 -11,4 -11,11l0 1437c0,15 7,22 22,22 16,0 24,-7 24,-22l0 -702c0,-10 4,-15 13,-15 10,0 15,5 15,15l0 702c0,15 -5,27 -14,37 -9,10 -22,15 -38,15 -15,0 -27,-5 -37,-15 -10,-10 -15,-23 -15,-37l0 -1437c0,-12 4,-22 12,-30 8,-8 18,-12 30,-12 20,0 34,10 39,31l363 1464c1,4 5,7 11,7 7,0 11,-4 11,-11l0 -1474c0,-10 5,-15 15,-15l0 -1z"/>
    <path class="fil2" d="M8159 10126c-16,0 -29,-5 -38,-15 -9,-10 -14,-23 -14,-37l0 -1269c0,-58 20,-108 61,-149 41,-41 90,-61 149,-61 58,0 108,20 149,61 41,41 61,90 61,149l0 1306c0,10 -5,15 -15,15 -10,0 -15,-5 -15,-15l0 -1306c0,-50 -18,-92 -53,-127 -35,-35 -77,-53 -127,-53 -51,0 -94,18 -129,53 -35,35 -53,77 -53,127l0 1269c0,15 8,22 24,22 15,0 22,-7 22,-22l0 -665c0,-15 5,-27 15,-37 10,-10 23,-15 37,-15l164 0c10,0 15,5 15,15 0,10 -5,15 -15,15l-164 0c-15,0 -22,7 -22,22l0 665c0,15 -5,27 -15,37 -10,10 -23,15 -37,15z"/>
    <path class="fil2" d="M7722 8594c58,0 108,20 149,61 41,41 61,90 61,149l0 409c0,48 -17,89 -50,123 -34,34 -74,50 -123,50 -47,0 -87,-17 -121,-50 -34,-34 -51,-74 -51,-123l0 -409c0,-10 5,-15 15,-15 10,0 15,5 15,15l0 409c0,39 14,73 42,101 28,28 61,42 101,42 39,0 73,-14 102,-42 28,-28 43,-61 43,-101l0 -409c0,-50 -18,-92 -53,-127 -35,-35 -78,-53 -129,-53 -50,0 -92,18 -127,53 -35,35 -53,77 -53,127l0 1306c0,10 -5,15 -15,15 -10,0 -15,-5 -15,-15l0 -1306c0,-58 20,-108 61,-149 41,-41 90,-61 149,-61l-1 0z"/>
    <path class="fil3" d="M6923 9953c0,48 -17,89 -51,123 -34,34 -75,50 -121,50 -48,0 -89,-17 -123,-50 -34,-34 -50,-74 -50,-123l0 -582c0,-10 5,-15 15,-15 10,0 15,5 15,15l0 582c0,39 14,73 42,101 28,28 61,42 101,42 39,0 73,-14 101,-42 28,-28 42,-61 42,-101l0 -1149c0,-50 -18,-92 -53,-127 -35,-35 -77,-53 -127,-53l-158 0c-16,0 -24,7 -24,22l0 1464c0,10 -4,15 -13,15 -10,0 -15,-5 -15,-15l0 -1464c0,-15 5,-27 14,-37 9,-10 22,-15 38,-15l158 0c58,0 108,20 149,61 41,41 61,90 61,149l0 1149 -1 0z"/>
    <path class="fil3" d="M5960 9312c-15,0 -27,-5 -37,-15 -10,-10 -15,-23 -15,-37l0 -455c0,-58 20,-108 61,-149 41,-41 90,-61 149,-61l197 0c10,0 15,5 15,15 0,10 -5,15 -15,15l-197 0c-50,0 -92,18 -127,53 -35,35 -53,77 -53,127l0 455c0,15 7,22 22,22l195 0c15,0 27,5 37,15 10,10 15,23 15,37 0,15 -5,27 -15,37 -10,10 -23,15 -37,15l-195 0c-15,0 -22,8 -22,24l0 505c0,50 18,92 53,127 35,35 77,53 127,53l197 0c10,0 15,5 15,15 0,10 -5,15 -15,15l-197 0c-58,0 -108,-20 -149,-61 -41,-41 -61,-90 -61,-149l0 -505c0,-16 5,-29 15,-39 10,-10 23,-15 37,-15l195 0c15,0 22,-7 22,-22 0,-15 -7,-22 -22,-22l-195 0z"/>
    <path class="fil3" d="M5733 10106c3,9 0,15 -9,20 -9,1 -15,-1 -20,-9l-267 -689 -2 -2c-1,0 -3,0 -3,-1 -1,-1 -2,-1 -3,-1 -7,0 -11,4 -11,11l0 639c0,15 -5,27 -15,37 -10,10 -23,15 -37,15 -15,0 -27,-5 -37,-15 -10,-10 -15,-23 -15,-37l0 -1269c0,-58 20,-108 61,-149 41,-41 90,-61 149,-61 58,0 108,20 149,61 41,41 61,90 61,149l0 409c0,48 -17,89 -50,123 -34,34 -74,50 -123,50 -47,0 -87,-17 -121,-50 -34,-34 -51,-74 -51,-123l0 -409c0,-10 5,-15 15,-15 10,0 15,5 15,15l0 409c0,39 14,73 42,101 28,28 61,42 101,42 39,0 73,-14 101,-42 28,-28 42,-61 42,-101l0 -409c0,-50 -18,-92 -53,-127 -35,-35 -77,-53 -127,-53 -50,0 -92,18 -127,53 -35,35 -53,77 -53,127l0 1269c0,15 7,22 22,22 15,0 22,-7 22,-22l0 -639c0,-12 4,-22 12,-30 8,-8 18,-12 30,-12 19,0 31,7 35,22l269 691 -2 0z"/>
    <path class="fil3" d="M5930 9310c-15,0 -27,-5 -37,-15 -10,-10 -15,-23 -15,-37l0 -455c0,-58 20,-108 61,-149 41,-41 90,-61 149,-61l197 0c10,0 15,5 15,15 0,10 -5,15 -15,15l-197 0c-50,0 -92,18 -127,53 -35,35 -53,77 -53,127l0 455c0,15 7,22 22,22l195 0c15,0 27,5 37,15 10,10 15,23 15,37 0,15 -5,27 -15,37 -10,10 -23,15 -37,15l-195 0c-15,0 -22,8 -22,24l0 505c0,50 18,92 53,127 35,35 77,53 127,53l197 0c10,0 15,5 15,15 0,10 -5,15 -15,15l-197 0c-58,0 -108,-20 -149,-61 -41,-41 -61,-90 -61,-149l0 -505c0,-16 5,-29 15,-39 10,-10 23,-15 37,-15l195 0c15,0 22,-7 22,-22 0,-15 -7,-22 -22,-22l-195 0z"/>
    <path class="fil3" d="M5710 10106c3,9 0,15 -9,20 -9,1 -15,-1 -20,-9l-267 -689 -2 -2c-1,0 -3,0 -3,-1 -1,-1 -2,-1 -3,-1 -7,0 -11,4 -11,11l0 639c0,15 -5,27 -15,37 -10,10 -23,15 -37,15 -15,0 -27,-5 -37,-15 -10,-10 -15,-23 -15,-37l0 -1269c0,-58 20,-108 61,-149 41,-41 90,-61 149,-61 58,0 108,20 149,61 41,41 61,90 61,149l0 409c0,48 -17,89 -50,123 -34,34 -74,50 -123,50 -47,0 -87,-17 -121,-50 -34,-34 -51,-74 -51,-123l0 -409c0,-10 5,-15 15,-15 10,0 15,5 15,15l0 409c0,39 14,73 42,101 28,28 61,42 101,42 39,0 73,-14 101,-42 28,-28 42,-61 42,-101l0 -409c0,-50 -18,-92 -53,-127 -35,-35 -77,-53 -127,-53 -50,0 -92,18 -127,53 -35,35 -53,77 -53,127l0 1269c0,15 7,22 22,22 15,0 22,-7 22,-22l0 -639c0,-12 4,-22 12,-30 8,-8 18,-12 30,-12 19,0 31,7 35,22l269 691 -2 0z"/>
    <path class="fil3" d="M6895 9953c0,48 -17,89 -51,123 -34,34 -75,50 -121,50 -48,0 -89,-17 -123,-50 -34,-34 -50,-74 -50,-123l0 -582c0,-10 5,-15 15,-15 10,0 15,5 15,15l0 582c0,39 14,73 42,101 28,28 61,42 101,42 39,0 73,-14 101,-42 28,-28 42,-61 42,-101l0 -1149c0,-50 -18,-92 -53,-127 -35,-35 -77,-53 -127,-53l-158 0c-16,0 -24,7 -24,22l0 1464c0,10 -4,15 -13,15 -10,0 -15,-5 -15,-15l0 -1464c0,-15 5,-27 14,-37 9,-10 22,-15 38,-15l158 0c58,0 108,20 149,61 41,41 61,90 61,149l0 1149 -1 0z"/>
    <path class="fil4" d="M9805 3429c-94,-7 -79,-19 -68,-102 8,-59 2,-81 16,-173 27,-177 177,-169 157,-38 24,-5 46,-25 79,-31 74,-14 172,-13 237,24 13,7 17,13 32,20 88,44 42,56 78,87 16,14 14,17 13,39 -6,109 -78,214 -166,268 -283,173 -442,18 -378,-94zm3297 -473c75,-18 297,30 376,44 77,13 327,98 375,161 17,22 6,60 -8,78 -27,35 -92,56 -137,76 -163,73 -213,104 -337,198 -59,45 -48,33 -96,64 -42,27 -23,28 -101,55 -74,26 -192,64 -225,-37 -30,-90 35,-71 -57,-261 -30,-62 -42,-199 7,-262 53,-69 112,-93 203,-116zm-2265 -743c54,-4 144,-4 199,0 159,12 180,37 314,95 115,50 163,89 266,140 46,22 94,42 139,66 97,52 171,70 246,160 20,24 70,95 80,125 29,88 34,273 -8,358 -27,55 -132,179 -196,210 -46,22 -103,32 -158,43 -112,22 -249,19 -359,-20 -68,-24 -163,-119 -252,-158 -162,-70 -393,18 -509,-102 -25,-26 -29,-32 -25,-81 10,-112 107,-101 107,-201 1,-139 -160,-233 -275,-235 -65,-1 -201,-24 -235,-72 -20,-27 -8,-49 10,-70 19,-23 22,-37 46,-55 23,-16 33,-29 59,-45 162,-102 356,-143 551,-158zm-367 -304c-62,6 -221,70 -282,104 -14,8 -26,14 -43,22 -7,3 -14,8 -21,11 -7,3 -19,7 -25,0 -10,-22 27,-35 40,-55 -60,17 -264,137 -338,170 -43,19 -115,71 -151,102 -45,39 -98,70 -150,107l-137 116c-44,46 -113,125 -156,165 -11,10 -23,22 -34,31 -15,12 -19,19 -33,31 -11,10 -26,18 -37,27 -29,26 -9,47 -50,79 -24,18 -52,31 -78,51 9,16 51,22 -2,51 -21,11 -44,21 -54,38 11,6 27,13 36,19 -1,37 -43,38 -60,65 9,7 18,13 26,21 0,26 -52,96 -67,127 -9,19 -27,46 -38,62 -39,60 -75,132 -106,195 -19,38 -49,97 -59,141l169 -108c159,-144 93,-263 196,-275 3,-89 21,-90 58,-148 -22,-69 3,-74 62,-94 42,-14 78,-55 126,-46 34,36 -10,63 -24,100 -11,28 -24,91 -28,123 22,-23 44,-61 65,-87 21,-27 49,-58 64,-88 27,-55 36,-113 58,-172 8,-22 18,-31 28,-52 52,-112 164,-65 122,42 -26,67 -108,101 -159,151 -76,75 -129,178 -203,255 -28,29 -48,57 -74,83 -25,25 -47,50 -75,78 -50,50 -118,91 -180,130 -33,20 -66,37 -96,58 7,-1 375,-182 317,22 -11,40 -51,94 -7,125 43,30 65,23 80,89 17,72 -24,87 -44,122 -51,88 -60,133 -166,171 -38,14 -100,27 -117,52 -14,21 2,49 1,75 -1,45 -6,47 28,34 47,-19 98,4 137,20 42,17 80,30 118,51 39,22 70,40 114,55 51,18 86,19 141,28 49,8 94,16 141,27 90,20 183,32 275,21 102,-12 253,-31 323,-100 104,-104 202,-189 206,-358 1,-45 1,-92 -8,-133 -11,-49 -22,-63 -38,-103 -27,-69 71,-129 157,-85 41,21 52,19 88,53 83,76 108,198 108,317 0,70 -25,216 -46,281 -39,114 -55,192 -55,318 0,52 15,141 39,177 55,82 191,125 288,146 177,38 604,-10 743,-32 71,-11 145,-44 189,-81 29,-24 84,-123 103,-170 70,-180 -15,-474 235,-577 91,-37 210,-54 283,-123 46,-44 71,-130 78,-195 14,-122 -9,-128 -26,-236 -8,-51 -16,-64 -30,-106 -22,-65 -55,-134 -63,-209 -10,-91 43,-138 131,-139 91,-1 142,54 181,95 117,124 96,296 96,462 0,121 -114,409 -115,575 0,65 35,119 60,164 46,84 117,223 136,314 24,115 120,279 217,346 24,16 72,13 91,-5 119,-109 113,-307 106,-473 -3,-66 -50,-206 -12,-317 19,-57 51,-108 84,-149 44,-55 69,-72 123,-115 44,-35 89,-65 133,-100l146 -91c75,-35 157,-76 227,-122 25,-17 48,-30 75,-45 50,-28 105,-52 156,-77 44,-21 113,-55 149,-88 24,-22 38,-32 26,-79 -12,-47 -68,-157 -108,-185 -8,-6 -8,-3 -17,-11l-49 -39c-34,-24 -59,-59 -90,-87 -25,-24 -37,-38 -59,-57 -22,-19 -41,-36 -63,-57 -36,-35 -159,-133 -205,-144 -45,-10 -71,-4 -50,-55 -76,-20 -153,-10 -156,-41 4,-25 19,-21 39,-33 -44,-33 -388,-91 -465,-91 -162,0 -253,9 -420,41 -44,9 -87,13 -131,12 -28,-1 -18,4 -40,6 -81,8 -139,-48 -203,-78 -82,-39 -143,-111 -219,-159 -22,-14 -40,-22 -58,-39 -36,-34 -57,-68 -96,-97 -179,-136 -277,-194 -512,-248 -55,-13 -94,-26 -154,-36 -110,-17 -220,-51 -330,-47 -43,2 -191,32 -223,6 -2,-18 4,-23 15,-31 14,-10 22,-13 29,-27 -72,8 -160,42 -232,61 -38,10 -77,28 -109,36 -34,9 -37,-10 -23,-31 12,-18 27,-19 40,-33l-3 2z"/>
    <path class="fil5" d="M8693 3867c143,162 -7,393 207,423 25,4 298,195 495,204 278,14 282,125 632,-63 288,-155 335,-245 290,-611 -19,-156 -437,-353 -451,-509 -13,-155 -42,-34 -25,-265 12,-164 -341,-390 -559,12 -57,106 -363,398 -472,439 -31,12 -257,217 -121,245 25,71 -14,104 4,125z"/>
    <path class="fil4" d="M12213 4136c-61,12 -114,44 -146,78 -22,23 -59,119 -64,162 -25,228 12,153 -69,381 -33,93 -131,191 -212,234 -92,48 -166,57 -258,80 -160,39 -573,-47 -431,296l77 148c47,72 152,180 223,228 138,93 131,95 291,160 38,15 139,27 186,34 93,13 118,0 203,-13 60,-9 102,-43 152,-73 101,-59 175,-110 259,-187 33,-30 72,-89 98,-127 31,-45 61,-85 93,-132 34,-49 59,-78 87,-138 92,-195 105,-337 50,-556 -8,-31 -17,-55 -26,-86 -14,-49 -26,-72 -54,-114 -43,-65 -58,-145 -162,-232 -59,-50 -175,-165 -298,-142l1 -1z"/>
    <path class="fil6" d="M5890 3947c-38,15 -72,36 -80,77 -19,87 12,228 4,294l-49 187c-6,23 -14,38 -20,61 -11,43 -23,80 -35,122 -26,93 -66,305 -63,411 1,41 18,89 27,129 23,101 46,148 90,228 32,57 91,138 145,173 37,24 65,39 120,38 43,0 115,2 152,-11 79,-26 140,-77 171,-142 32,-67 36,-192 44,-275 25,-282 51,-254 43,-587 -2,-84 7,-228 -16,-297 -47,-143 -121,-178 -209,-265 -53,-52 -244,-176 -323,-145l-1 2z"/>
    <path class="fil7" d="M8748 4475c-8,82 -28,154 -37,236 -9,85 1,173 34,242 19,39 34,53 53,83 56,88 139,141 235,183 75,33 147,26 230,43 79,17 165,22 250,28 129,8 237,-1 350,-56 27,-13 71,-34 86,-55 68,-97 22,-142 -14,-191 -29,-39 -23,-42 -68,-68 -122,-70 -210,-71 -342,-52 -63,9 -183,21 -233,44 -130,57 -315,112 -410,-18 -86,-117 -75,-178 -80,-335 -1,-40 -9,-92 -54,-83l0 -1z"/>
    <path class="fil8" d="M5691 3488c-12,102 18,206 73,256 51,47 43,58 83,86 39,27 49,48 102,67 139,47 211,93 320,186 13,12 77,76 91,82 -4,-58 -21,-85 -21,-163 0,-77 34,-78 -4,-157 -35,9 -80,53 -109,52 -36,-39 -6,-76 -15,-119 -3,-16 -18,-29 -29,-39 -21,-16 -65,-2 -111,-103 -12,-26 -36,-55 -57,-84l-62 -78c-57,-71 -135,-66 -176,1 -11,18 -11,32 -37,36 -32,5 -36,-7 -48,-25l0 2z"/>
    <path class="fil4" d="M7385 4912c-44,13 -69,68 -11,113l118 71c223,134 281,182 546,201 120,8 221,-3 338,-27 27,-5 50,-13 62,-31 21,-33 -20,-29 -47,-33 -142,-20 -174,-20 -310,-63 -47,-15 -100,-24 -150,-39 -83,-26 -219,-53 -272,-102 -29,-27 -68,-59 -114,-71 -32,-9 -128,-28 -160,-19z"/>
    <path class="fil7" d="M9083 3879c67,-25 64,-124 17,-154 -27,-16 -53,-24 -65,-56 -15,-42 9,-67 20,-97 66,-188 -253,-30 -302,-9 -46,20 -121,63 -124,118 -4,79 59,110 128,118 43,5 103,7 148,32 12,7 25,16 42,17 38,2 97,-61 133,-24 14,15 6,33 3,53l0 2z"/>
    <path class="fil8" d="M6406 3899c-19,38 -17,147 -14,196 3,52 70,107 99,113 72,14 76,-56 126,-86 49,-30 134,-26 184,-10 -2,-40 -5,-62 -22,-92 -20,-37 -90,-243 -92,-246 -36,6 -53,74 -111,110 -113,69 -125,21 -170,15z"/>
    <path class="fil9" d="M5909 3194c21,0 37,-4 59,-3 22,1 46,1 44,25 -11,6 -80,-8 -130,14 -20,9 -31,17 -50,27 -64,32 -117,114 -120,188 -1,31 -6,51 26,50 10,-27 5,-31 23,-53 46,-58 95,-70 165,-39 85,38 180,2 225,-53 34,-42 28,-140 -8,-180 -10,-11 -29,-31 -40,-40 -29,-24 -78,-33 -123,-19 -33,10 -72,43 -70,84l-1 -1z"/>
    <path class="fil9" d="M6273 3722c30,-19 39,-56 126,-88 105,-39 144,15 131,58 -42,6 1,-68 -92,-47 -43,10 -71,27 -101,48 -25,18 -136,127 -104,186 18,-8 104,-154 163,-59 20,31 9,34 45,52 49,23 113,-12 136,-38 20,-22 17,-41 16,-75 -2,-58 68,-66 47,-138 -8,-28 -19,-45 -36,-61 -46,-43 -65,-45 -142,-29 -58,12 -96,31 -122,68 -14,19 -67,106 -69,125l2 -2z"/>
    <path class="fil5" d="M6716 4247c-63,9 -167,129 -194,181 -8,16 -29,68 8,53 52,-21 85,-67 162,9l81 60c16,8 66,11 82,5 30,-11 51,-99 54,-134 7,-110 -78,-191 -191,-174l-2 0z"/>
    <path class="fil10" d="M8755 4451c-14,-46 -42,-50 -22,-116 4,-15 6,-12 -3,-23 -117,-141 -92,-102 -113,-310 -12,20 -37,100 -43,126 -17,86 4,201 61,265 17,19 83,51 119,57l1 1z"/>
    <path class="fil11" d="M8910 4473l-4 129c15,-12 18,-22 38,-3 10,9 15,29 22,42 23,-3 52,-6 76,1 21,6 18,-2 37,-1 20,1 14,8 28,16 32,-15 90,-10 116,-108 6,-23 19,-75 -11,-85 -42,-14 -62,0 -84,23 -78,81 -52,136 -108,105 -12,-7 -18,-15 -31,-26 -10,-9 -20,-14 -33,-24 -16,-12 -33,-25 -39,-45l-8 -24 1 0z"/>
    <path class="fil5" d="M9373 4567c51,0 125,22 163,17l-136 -50c-56,-22 -84,-38 -140,60 -10,17 -8,59 -63,82 -33,14 -47,10 -78,19 -111,32 -30,16 -66,30 -63,3 -133,-24 -164,-54 -56,-55 -32,-156 -34,-169 -2,-12 0,-7 -5,-14 -42,29 2,169 21,202 28,47 104,80 183,72 61,-6 139,-46 176,-76 84,-67 45,-118 142,-118l1 -1z"/>
    <path class="fil4" d="M8742 4305c23,-22 43,-102 7,-152 -12,-17 -32,-34 -47,-49 -21,-20 -23,-44 -57,-41 -36,92 60,222 98,242l-1 0z"/>
    <path class="fil12" d="M9767 3335c76,-46 131,-155 223,-186 114,-38 151,-27 245,20 18,9 53,31 60,40 4,-34 -24,-44 -48,-56 -27,-14 -38,-26 -72,-37 -49,-16 -145,-19 -194,-3 -54,17 -93,56 -121,96 -19,29 -78,88 -94,126l1 0z"/>
    <path class="fil12" d="M9047 4677c-13,-6 -7,-10 -16,-23 -57,-3 -40,2 -64,7 -27,-20 -16,-42 -40,-54 -14,15 -7,20 -29,23 -9,-24 1,-58 -7,-76 -26,2 -22,37 -15,59 10,31 14,37 35,54 33,27 81,39 133,42 22,-19 5,-12 39,-19 16,-4 30,-10 44,-13 37,-8 59,-6 86,-27 27,-21 20,-41 39,-73 11,-19 42,-60 17,-80 -12,5 -6,-4 -11,14 -1,3 -3,18 -5,24 -12,52 -26,65 -62,103 -18,19 -45,25 -74,35 -24,8 -18,-7 -35,-13 -25,-9 -23,10 -34,18l-1 -1z"/>
    <path class="fil12" d="M10124 3274c13,-28 9,-69 -9,-86 -18,-17 -70,-16 -97,-7 -49,15 -111,63 -90,131 7,22 58,68 53,21 -4,-32 -29,-51 5,-88 82,-88 138,29 139,29l-1 0z"/>
    <path class="fil12" d="M9072 3910c-42,10 -89,70 -232,23 -62,-20 -49,19 -42,29 27,39 102,37 160,30 64,-8 94,-33 114,-83l0 1z"/>
    <path class="fil12" d="M8875 3448c43,-18 149,-104 175,-135 -60,0 -58,-15 -83,-55 -9,12 -20,71 -36,105 -19,40 -37,57 -56,85z"/>
    <path class="fil12" d="M10076 3428c53,26 188,-62 204,-152 -16,15 -26,33 -42,49 -34,34 -62,50 -107,70 -50,23 -55,12 -56,33l1 0z"/>
    <path class="fil12" d="M9178 3142c26,-118 -49,-160 -81,-139 -14,9 -17,31 -1,42 13,9 46,8 70,51 9,17 7,33 13,45l-1 1z"/>
    <path class="fil12" d="M10214 3192c15,46 2,77 -7,119 21,-10 55,-55 63,-83 -12,-15 -33,-30 -56,-36z"/>
    <path class="fil12" d="M9858 3336c13,17 73,48 106,49 -4,-4 0,-1 -7,-6 -39,-30 -58,-40 -63,-103 -10,12 -32,43 -36,60z"/>
    <path class="fil12" d="M9087 3111c8,14 0,1 18,11 6,4 13,10 16,16 10,17 6,37 6,58 20,-10 28,-32 28,-57 0,-41 -57,-56 -68,-28z"/>
    <path class="fil12" d="M9070 3270c-15,-7 -23,-9 -34,-20 -15,-15 -12,-24 -43,-13 -1,18 12,39 23,45 21,12 42,-3 55,-12l-1 0z"/>
    <path class="fil12" d="M9771 3360c-15,7 -22,13 -19,34 23,10 45,9 74,7 -8,-5 -25,-11 -33,-16 -13,-9 -12,-15 -22,-25z"/>
    <path class="fil7" d="M6271 3631c-6,22 -34,157 35,77 12,-14 188,-154 213,-15 0,0 1,-18 11,71 12,104 -29,100 -15,116 18,20 94,-58 111,-107 17,-46 42,-231 -32,-251 -56,-15 -72,-9 -94,-10 -14,0 -28,-14 -66,3 -73,33 -146,29 -151,96 -1,14 -11,12 -14,20l2 0z"/>
    <path class="fil7" d="M5923 3141c-13,12 -29,50 8,62 51,16 51,6 81,13 44,11 61,72 61,112 0,68 -105,99 -22,102 14,0 99,-22 108,-29 91,-75 59,-131 12,-217 -19,-35 -32,-40 -51,-63 -31,-38 -184,-36 -177,5 -6,5 -13,10 -19,15l-1 0z"/>
    <path class="fil10" d="M9278 2784c111,-3 282,11 245,-173 -62,-308 -560,180 -245,173z"/>
    <path class="fil10" d="M10729 4931c-35,-4 111,54 303,65 251,15 576,-17 622,-38 528,-233 329,-1568 -97,-1719 -400,-142 -552,-105 -630,-112 -394,-37 -262,20 -129,86 312,156 385,700 348,1149 -27,328 -15,614 -418,570l1 -1z"/>
    <path class="fil13" d="M12213 4136c123,-24 239,92 298,142 104,88 119,167 162,232 28,43 40,65 54,114 9,31 18,55 26,86 55,219 42,361 -50,556 -28,60 -53,89 -87,138 -32,46 -62,87 -93,132 -26,38 -65,96 -98,127 -85,77 -158,127 -259,187 -51,30 -92,63 -152,73 -84,13 -110,26 -203,13 -47,-7 -148,-19 -186,-34 -159,-65 -153,-67 -291,-160 -70,-47 -175,-155 -223,-228l-77 -148c-142,-343 271,-258 431,-296 93,-22 167,-32 258,-80 81,-43 179,-141 212,-234 81,-228 44,-153 69,-381 5,-43 42,-138 64,-162 31,-34 84,-66 146,-78l-1 1zm-4828 776c31,-10 127,10 160,19 46,12 84,44 114,71 54,49 189,76 272,102 49,15 103,25 150,39 136,42 168,43 310,63 27,4 68,0 47,33 -12,19 -36,26 -62,31 -116,24 -218,36 -338,27 -265,-19 -324,-67 -546,-201l-118 -71c-57,-46 -32,-100 11,-113zm1363 -437c45,-9 52,43 54,83 5,157 -6,218 80,335 96,130 280,75 410,18 51,-22 171,-35 233,-44 132,-18 221,-18 342,52 45,26 39,30 68,68 36,48 82,94 14,191 -15,21 -59,42 -86,55 -113,56 -221,64 -350,56 -85,-5 -171,-11 -250,-28 -83,-18 -155,-11 -230,-43 -96,-42 -179,-95 -235,-183 -19,-30 -35,-44 -53,-83 -33,-69 -43,-157 -34,-242 9,-81 30,-154 37,-236l0 1zm625 92c-97,0 -59,51 -142,118 -38,30 -116,70 -176,76 -78,8 -155,-25 -183,-72 -19,-33 -63,-173 -21,-202 5,7 4,1 5,14 2,14 -22,114 34,169 31,30 102,57 164,54 35,-14 -46,3 66,-30 31,-9 45,-5 78,-19 54,-23 53,-65 63,-82 56,-98 84,-82 140,-60l136 50c-38,6 -111,-17 -163,-17l-1 1zm-326 110c12,-8 9,-27 34,-18 17,6 10,21 35,13 29,-10 56,-16 74,-35 36,-37 50,-51 62,-103 2,-6 3,-21 5,-24 6,-18 0,-9 11,-14 25,21 -6,61 -17,80 -19,33 -12,53 -39,73 -27,21 -49,19 -86,27 -14,3 -28,9 -44,13 -34,8 -17,1 -39,19 -52,-3 -100,-15 -133,-42 -21,-17 -25,-23 -35,-54 -7,-22 -11,-57 15,-59 8,19 -2,53 7,76 22,-3 16,-9 29,-23 24,12 13,34 40,54 25,-5 7,-9 64,-7 9,12 3,16 16,23l1 1zm-128 -180c6,20 23,33 39,45 13,10 23,15 33,24 13,11 19,19 31,26 56,32 30,-24 108,-105 22,-22 42,-37 84,-23 30,10 17,62 11,85 -26,98 -84,93 -116,108 -14,-8 -8,-15 -28,-16 -19,-1 -16,7 -37,1 -24,-7 -52,-4 -76,-1 -7,-13 -12,-33 -22,-42 -21,-19 -24,-9 -38,3l4 -129 8 24 -1 0zm-2203 -250c113,-17 198,64 191,174 -2,35 -24,123 -54,134 -16,6 -66,3 -82,-5l-81 -60c-76,-76 -109,-30 -162,-9 -37,15 -16,-37 -8,-53 28,-53 131,-172 194,-181l2 0zm2039 204c-37,-6 -103,-38 -119,-57 -57,-64 -78,-179 -61,-265 5,-26 30,-107 43,-126 21,208 -4,169 113,310 9,11 7,8 3,23 -20,66 8,70 22,116l-1 -1zm-2865 -504c79,-31 270,92 323,145 88,87 162,122 209,265 23,69 14,213 16,297 8,333 -18,305 -43,587 -7,83 -12,208 -44,275 -31,65 -92,116 -171,142 -37,12 -110,10 -152,11 -55,0 -83,-14 -120,-38 -54,-35 -113,-115 -145,-173 -44,-80 -66,-127 -90,-228 -9,-41 -26,-88 -27,-129 -3,-106 37,-319 63,-411 12,-42 24,-79 35,-122 6,-23 14,-38 20,-61l49 -187c8,-66 -23,-207 -4,-294 9,-41 43,-63 80,-77l1 -2zm2852 358c-37,-21 -134,-150 -98,-242 34,-3 36,21 57,41 16,15 35,32 47,49 36,50 16,130 -7,152l1 0zm-2335 -406c45,6 57,54 170,-15 58,-35 75,-104 111,-110 2,3 72,209 92,246 16,30 20,52 22,92 -50,-16 -135,-20 -184,10 -50,31 -54,101 -126,86 -29,-6 -96,-61 -99,-113 -3,-49 -5,-158 14,-196zm2665 11c-20,50 -50,75 -114,83 -58,7 -133,9 -160,-30 -8,-11 -20,-50 42,-29 144,47 190,-14 232,-23l0 -1zm-2799 -188c3,-19 56,-105 69,-125 26,-36 64,-56 122,-68 77,-16 96,-14 142,29 17,16 28,32 36,61 20,72 -50,80 -47,138 1,34 4,54 -16,75 -24,26 -87,62 -136,38 -36,-17 -25,-21 -45,-52 -60,-95 -145,51 -163,59 -32,-59 79,-168 104,-186 30,-21 57,-38 101,-48 92,-21 50,53 92,47 13,-43 -25,-98 -131,-58 -87,33 -96,70 -126,88l-2 2zm-582 -233c12,18 16,30 48,25 26,-4 26,-18 37,-36 41,-67 118,-72 176,-1l62 78c21,29 45,58 57,84 46,101 90,86 111,103 12,9 26,23 29,39 9,43 -21,80 15,119 29,1 74,-43 109,-52 38,79 4,80 4,157 0,78 17,105 21,163 -14,-6 -77,-71 -91,-82 -109,-93 -181,-139 -320,-186 -53,-18 -63,-39 -102,-67 -41,-28 -32,-39 -83,-86 -56,-51 -85,-154 -73,-256l0 -2zm3392 390c3,-20 11,-38 -3,-53 -35,-38 -95,26 -133,24 -17,-1 -30,-11 -42,-17 -44,-25 -104,-27 -148,-32 -69,-8 -133,-39 -128,-118 3,-55 78,-98 124,-118 49,-21 368,-179 302,9 -10,30 -34,55 -20,97 11,32 38,39 65,56 48,29 51,129 -17,154l0 -2zm-209 -431c19,-27 37,-44 56,-85 16,-34 28,-93 36,-105 25,40 22,55 83,55 -26,31 -132,117 -175,135zm162 -198c11,11 19,13 34,20 -13,10 -33,25 -55,12 -11,-6 -24,-28 -23,-45 32,-11 28,-2 43,13l1 0zm17 -36c-4,-22 -2,-48 9,-63l-1 36c0,14 4,19 -8,27zm-3144 -20c-2,-41 37,-74 70,-84 45,-14 93,-5 123,19 12,9 30,29 40,40 35,40 42,138 8,180 -45,56 -139,91 -225,53 -70,-31 -119,-18 -165,39 -17,22 -13,26 -23,53 -31,1 -27,-20 -26,-50 3,-75 56,-156 120,-188 18,-9 30,-18 50,-27 51,-22 120,-8 130,-14 2,-24 -22,-24 -44,-25 -22,-1 -38,3 -59,3l1 1zm3212 -56c-4,-6 -10,-13 -16,-16 -17,-10 -10,4 -18,-11 11,-28 68,-13 68,28 0,25 -8,47 -28,57 0,-21 4,-41 -6,-58zm58 5c-6,-13 -4,-28 -13,-45 -23,-43 -57,-42 -70,-51 -16,-11 -12,-33 1,-42 32,-22 108,21 81,139l1 -1zm1292 -1234c-13,13 -28,15 -40,33 -15,21 -11,40 23,31 32,-8 71,-26 109,-36 71,-20 160,-54 232,-61 -7,14 -16,17 -29,27 -10,8 -17,12 -15,31 33,25 180,-5 223,-6 110,-4 220,30 330,47 60,9 99,23 154,36 235,54 332,113 512,248 39,29 60,63 96,97 18,17 36,24 58,39 76,48 137,120 219,159 63,30 122,86 203,78 22,-2 12,-7 40,-6 44,1 87,-3 131,-12 167,-32 259,-41 420,-41 77,0 421,58 465,91 -20,12 -35,8 -39,33 3,31 80,20 156,41 -21,51 5,45 50,55 47,10 169,109 205,144 22,21 41,38 63,57 22,19 34,34 59,57 30,29 56,63 90,87l49 39c9,8 9,5 17,11 40,28 96,138 108,185 12,47 -2,58 -26,79 -36,33 -105,67 -149,88 -51,25 -106,49 -156,77 -27,15 -50,28 -75,45 -70,47 -152,87 -227,122l-146 91c-45,35 -89,65 -133,100 -54,43 -78,60 -123,115 -33,41 -65,92 -84,149 -37,111 10,251 12,317 7,166 12,364 -106,473 -20,18 -68,22 -91,5 -97,-67 -192,-230 -217,-346 -19,-91 -90,-230 -136,-314 -25,-45 -60,-99 -60,-164 0,-165 114,-453 115,-575 0,-167 21,-339 -96,-462 -39,-41 -90,-96 -181,-95 -88,1 -142,47 -131,139 9,75 42,144 63,209 14,42 22,55 30,106 17,107 40,114 26,236 -8,66 -32,151 -78,195 -72,69 -192,86 -283,123 -250,103 -164,397 -235,577 -19,48 -74,146 -103,170 -43,37 -117,69 -189,81 -139,22 -566,71 -743,32 -97,-21 -233,-63 -288,-146 -24,-36 -39,-126 -39,-177 0,-126 17,-204 55,-318 22,-65 46,-211 46,-281 0,-119 -25,-240 -108,-317 -36,-33 -47,-32 -88,-53 -87,-44 -184,16 -157,85 16,40 27,54 38,103 9,42 9,88 8,133 -4,169 -102,254 -206,358 -69,69 -221,88 -323,100 -93,11 -186,-1 -275,-21 -47,-11 -93,-19 -141,-27 -55,-10 -89,-10 -141,-28 -44,-15 -75,-33 -114,-55 -38,-21 -76,-34 -118,-51 -39,-16 -90,-39 -137,-20 -34,13 -28,11 -28,-34 0,-26 -16,-55 -1,-75 17,-25 79,-38 117,-52 107,-38 116,-83 166,-171 20,-35 61,-49 44,-122 -16,-66 -38,-59 -80,-89 -44,-31 -5,-85 7,-125 58,-204 -310,-24 -317,-22 30,-21 63,-38 96,-58 62,-38 130,-79 180,-130 28,-28 49,-53 75,-78 26,-26 46,-54 74,-83 74,-77 127,-180 203,-255 51,-50 132,-84 159,-151 42,-107 -70,-154 -122,-42 -10,21 -20,31 -28,52 -21,58 -31,117 -58,172 -15,30 -44,62 -64,88 -20,26 -43,64 -65,87 4,-33 17,-95 28,-123 14,-37 58,-64 24,-100 -48,-9 -84,33 -126,46 -60,20 -84,25 -62,94 -36,58 -55,58 -58,148 -103,12 -37,131 -196,275l-169 108c10,-43 40,-103 59,-141 31,-64 67,-136 106,-195 11,-17 30,-44 38,-62 15,-32 68,-101 67,-127 -7,-8 -17,-14 -26,-21 16,-27 58,-28 60,-65 -9,-6 -25,-13 -36,-19 11,-17 33,-27 54,-38 52,-29 11,-35 2,-51 26,-19 54,-32 78,-51 41,-31 21,-53 50,-79 11,-10 26,-18 37,-27 14,-12 18,-19 33,-31 10,-8 23,-21 34,-31 44,-40 112,-119 156,-165l137 -116c53,-37 105,-68 150,-107 36,-31 108,-83 151,-102 74,-33 278,-152 338,-170 -13,20 -49,33 -40,55 6,7 18,3 25,0 7,-3 14,-8 21,-11 16,-8 28,-14 43,-22 61,-35 220,-99 282,-104l3 -2zm1290 6523l1674 0c-5,-72 -8,-145 -14,-217 -6,-68 -7,-147 -21,-212 -14,-65 -34,-118 -55,-174 -24,-64 -123,-240 -153,-309 -54,-123 -118,-196 -126,-338 -5,-79 -1,-149 5,-225 7,-90 81,-275 118,-345 27,-53 53,-104 83,-150 33,-50 64,-92 97,-136 63,-85 143,-179 185,-277l71 -162c87,-252 169,-418 229,-701 14,-66 19,-137 30,-202 13,-76 24,-120 23,-205 0,-74 -1,-152 -9,-224 -13,-119 -19,-74 -15,-218 1,-33 14,-64 22,-95 12,-45 10,-51 35,-81 43,-51 60,-67 123,-107 61,-38 89,-46 170,-64 59,-13 160,-6 226,-6 121,1 264,43 379,82 100,35 241,109 326,141 57,21 101,53 156,75l0 -513c-55,11 -116,33 -170,47 -59,15 -120,27 -180,39 -87,17 -318,5 -422,6l-522 -22c-153,-17 -185,4 -306,0 18,-20 165,-87 198,-104 33,-17 60,-40 93,-60 108,-66 306,-131 379,-220 50,-61 -9,-167 -45,-221 -31,-48 -67,-84 -109,-116 -78,-61 -124,-117 -195,-179 -59,-52 -190,-171 -261,-187 4,-42 -9,-41 -42,-53 -23,-8 -48,-15 -76,-17 1,-1 2,-2 2,-2l7 -6c7,-7 13,-18 3,-31 -7,-8 -30,-13 -44,-17 -89,-29 -195,-57 -286,-72 -236,-39 -414,-26 -646,23 -38,8 -68,12 -108,13 -30,1 -88,2 -116,-1 -31,-3 -61,-27 -81,-40 -23,-15 -54,-27 -77,-43 -83,-59 -121,-97 -207,-151 -27,-17 -44,-34 -63,-58 -63,-79 -185,-153 -275,-203 -128,-71 -221,-83 -357,-122 -68,-19 -131,-24 -200,-36 -64,-12 -138,-34 -205,-33 -77,0 -148,18 -223,17 6,-10 0,-1 6,-8l18 -15c40,-37 65,-30 61,-58 -42,-11 -353,91 -408,106 17,-18 64,-44 89,-53 39,-13 20,-34 -11,-23l-82 19c-72,15 -135,44 -201,68 -35,13 -62,31 -91,42 8,-15 29,-24 34,-38 16,-41 -86,19 -97,24 -84,42 -200,93 -277,141 -30,19 -60,33 -89,52 -31,21 -45,36 -83,58l-164 114 -153 129c-42,44 -89,100 -133,144 -23,23 -48,44 -72,69 -25,25 -56,30 -69,68 -9,25 -6,30 -26,46 -22,17 -66,34 -83,54 -18,21 3,30 12,41 -29,21 -78,32 -73,70 13,14 14,8 29,18 -27,38 -87,35 -29,84 -2,13 -225,365 -261,505 -10,42 -20,54 -38,90 -14,30 -49,30 -49,75 0,36 26,62 39,89 88,174 -119,266 -1,527 26,57 83,96 144,109 -14,125 -67,260 -41,391 14,71 34,188 -31,233 -102,70 -255,43 -363,21 -154,-30 -323,-54 -468,-115 -71,-30 -131,-65 -198,-96 -28,-13 -72,-33 -102,-42 -134,-41 -380,-28 -465,-118 -22,-23 -54,-41 -60,-84 -6,-41 -4,-93 -10,-139 -9,-68 -26,-173 -60,-230 -37,-63 -41,-40 -90,-131 -16,-29 -13,-17 -17,-55 -8,-81 -26,-85 -53,-165 -7,-20 -14,-32 -21,-52 -18,-47 -35,-122 -55,-166 -8,-17 -18,-31 -24,-49 -13,-41 0,-65 -34,-111 -72,-97 -135,-55 -209,-48 24,-45 11,-67 -10,-106 -37,-70 -73,-98 -129,-148 -23,-21 -59,-33 -85,-51 -20,-13 -49,-55 -67,-74 -100,-99 -250,-43 -247,66l-82 42c-87,41 -118,124 -215,159 -37,13 -125,19 -166,9 -23,-6 -112,-58 -177,33 -8,11 -13,27 -23,38 -18,-24 -11,-91 -1,-114 27,-63 68,-95 126,-127 24,-13 78,-23 92,-32 10,-23 -10,-32 -1,-53 19,-41 119,-45 158,-44 50,2 175,69 219,40 -3,-13 -5,-11 -21,-14l-87 -18c-35,-11 -69,-30 -111,-31 -41,-1 -90,5 -127,16 -18,5 -33,19 -43,29 -17,17 -10,31 -11,57 -73,26 -140,49 -184,113 -19,28 -42,62 -41,108 0,36 8,92 32,115 25,1 28,-21 40,-43 43,-75 132,-71 157,-12 25,60 -5,72 -16,128 -27,136 45,274 135,357 125,115 130,63 157,92 13,14 22,42 2,55 -27,15 -77,-31 -93,-44 -24,-18 -60,-37 -91,-50 -130,-55 -137,-19 -227,5 -1,-55 17,-86 43,-114 12,-14 28,-26 45,-35 28,-14 46,2 62,-14 20,-38 -51,-30 -73,-20 -47,21 -97,74 -109,124 -8,30 -13,79 -1,100 50,13 113,-49 154,-30 31,19 -37,136 87,256 34,33 59,39 90,83 27,39 33,73 50,123 39,113 22,194 1,307 -9,49 -16,99 -24,148 -10,54 -8,105 -14,159 -10,98 9,228 28,318 8,40 30,91 42,131 14,47 34,76 57,116 25,45 40,70 69,104 52,61 88,142 143,202 92,101 131,180 249,273 79,62 205,174 272,251 26,30 46,68 68,105 47,78 94,137 144,202 145,189 255,293 430,438 96,79 205,139 316,202 388,220 617,286 1078,311 115,6 222,9 336,-5 191,-25 427,-79 595,-95 106,-10 226,-14 329,5 100,19 202,27 303,46 123,24 485,72 588,103 87,26 176,55 262,84 287,96 230,90 467,228l165 96c32,25 207,202 214,216l5 2z"/>
    <path class="fil10" d="M10356 2559l53 60c-74,-23 -532,-63 -178,182 81,56 237,200 342,173 435,-114 102,-380 -197,-407 -1,0 -14,-6 -19,-7l-1 -1z"/>
    <path class="fil13" d="M10837 2213c-195,16 -389,56 -551,158 -26,16 -37,29 -59,45 -24,17 -27,32 -46,55 -18,22 -29,43 -10,70 34,48 170,71 235,72 115,3 276,97 275,235 -1,100 -98,89 -107,201 -4,49 0,55 25,81 116,120 347,32 509,102 89,39 184,134 252,158 110,39 247,42 359,20 56,-11 113,-21 158,-43 64,-31 169,-155 196,-210 41,-85 37,-271 8,-358 -10,-31 -60,-102 -80,-125 -75,-90 -149,-108 -246,-160 -45,-24 -93,-44 -139,-66 -103,-51 -151,-90 -266,-140 -134,-58 -155,-83 -314,-95 -55,-4 -144,-4 -199,0z"/>
    <path class="fil13" d="M13102 2956c-91,22 -150,47 -203,116 -49,63 -37,200 -7,262 92,190 27,171 57,261 34,101 151,63 225,37 78,-27 59,-28 101,-55 49,-31 38,-20 96,-64 124,-94 174,-125 337,-198 45,-20 110,-41 137,-76 14,-18 24,-56 8,-78 -48,-62 -298,-147 -375,-161 -80,-14 -301,-62 -376,-44z"/>
    <path class="fil14" d="M14627 8432l691 0 0 -498c-82,-12 -205,-20 -288,-7 -157,25 -287,105 -364,243 -45,80 -41,161 -39,262z"/>
    <path class="fil13" d="M9771 3360c10,10 9,16 22,25 8,6 24,12 33,16 -28,1 -51,3 -74,-7 -3,-22 4,-27 19,-34zm87 -24c4,-17 26,-47 36,-60 5,62 24,73 63,103 7,5 3,2 7,6 -34,-1 -93,-32 -106,-49zm218 92c0,-21 5,-10 56,-33 45,-21 73,-36 107,-70 16,-15 26,-34 42,-49 -16,90 -151,178 -204,152l-1 0zm48 -154c-1,0 -57,-117 -139,-29 -34,37 -9,56 -5,88 5,48 -46,1 -53,-21 -21,-68 42,-115 90,-131 27,-9 79,-9 97,7 19,17 22,58 9,86l1 0zm90 -82c24,6 45,21 56,36 -8,28 -42,73 -63,83 9,-42 22,-73 7,-119zm-447 144c16,-38 74,-97 94,-126 27,-41 66,-79 121,-96 49,-15 145,-13 194,3 34,11 45,23 72,37 24,12 52,22 48,56 -7,-9 -42,-31 -60,-40 -94,-46 -131,-58 -245,-20 -92,31 -147,139 -223,186l-1 0zm38 94c-64,112 95,267 378,94 88,-54 161,-159 166,-268 1,-22 3,-26 -13,-39 -36,-31 10,-43 -78,-87 -15,-8 -19,-13 -32,-20 -66,-36 -164,-37 -237,-24 -33,6 -55,26 -79,31 21,-130 -129,-139 -157,38 -14,92 -8,114 -16,173 -11,83 -27,94 68,102z"/>
    <path class="fil15" d="M9053 3214c12,-8 8,-13 8,-27l1 -36c-11,15 -13,41 -9,63z"/>
   </g>
  </g>
 </g>
</svg>
