<?xml version="1.0" encoding="UTF-8"?>
<!DOCTYPE svg PUBLIC "-//W3C//DTD SVG 1.1//EN" "http://www.w3.org/Graphics/SVG/1.1/DTD/svg11.dtd">
<!-- Creator: CorelDRAW X6 -->
<svg xmlns="http://www.w3.org/2000/svg" xml:space="preserve" width="210mm" height="148mm" version="1.1" style="shape-rendering:geometricPrecision; text-rendering:geometricPrecision; image-rendering:optimizeQuality; fill-rule:evenodd; clip-rule:evenodd"
viewBox="0 0 21000 14800"
 xmlns:xlink="http://www.w3.org/1999/xlink">
 <defs>
  <style type="text/css">
   <![CDATA[
    .fil10 {fill:black}
    .fil9 {fill:#1F230C}
    .fil0 {fill:#5D692F}
    .fil7 {fill:#624233}
    .fil1 {fill:#632911}
    .fil2 {fill:#AC8C66}
    .fil3 {fill:#C37209}
    .fil8 {fill:white}
    .fil6 {fill:#1F230C;fill-rule:nonzero}
    .fil4 {fill:#343912;fill-rule:nonzero}
    .fil5 {fill:#575D27;fill-rule:nonzero}
   ]]>
  </style>
 </defs>
 <g id="Слой_x0020_1">
  <metadata id="CorelCorpID_0Corel-Layer"/>
  <g id="_838681376">
   <rect class="fil0" x="-704" y="-82" width="22500" height="13500"/>
   <path class="fil1" d="M7195 8356l21 212c-286,-40 -2204,221 -2277,19 328,-68 250,-735 506,-1226 39,-75 246,-335 245,-397 -1,-55 -225,138 -184,48 626,-1388 403,-1985 1474,-2935 275,-244 1353,-827 1535,-1078 24,-33 216,-48 418,-268 172,-187 229,-389 624,-769 227,-218 721,715 972,1302 184,431 626,612 926,880 278,248 527,499 773,824 159,210 441,578 623,1189 -24,329 132,173 598,411 120,61 1542,932 951,932 -794,0 -1220,239 -1509,504 -531,487 -67,701 -218,835 -119,106 -534,-125 -714,-140 -229,-18 -4,-845 -1066,-1018 -1898,-310 -843,-1709 -3251,-1247 -1104,212 -679,680 -744,1630 -24,352 277,291 298,293l-1 -1z"/>
   <path class="fil2" d="M8825 8070l116 11c-432,0 -371,26 -762,-160 -149,-71 -271,-259 -275,-421 -5,-202 -34,-348 -16,-567 31,-361 -86,-367 272,-659 206,-167 1151,-40 1430,24 772,178 520,683 727,897 7,7 313,368 359,438 89,136 132,522 34,644 -184,228 -229,370 -576,370 -535,0 -835,-305 -1299,-504 -83,-35 -142,-73 -10,-73z"/>
   <path class="fil3" d="M11446 6896c11,-387 439,-195 611,-18 175,178 127,652 172,894 72,390 155,370 35,690 -58,153 364,361 293,445 -170,203 -943,24 -1003,-24 -4,-3 -174,-53 -297,-163 -214,-192 -408,-513 -198,-699 398,-352 540,-600 386,-1124l1 -1z"/>
   <path class="fil3" d="M7927 4038c53,64 411,-111 657,-111 247,0 355,-50 583,71 225,120 291,283 145,519 -52,83 -229,20 -381,440 -181,500 -108,286 -385,706 -126,191 -192,201 -325,434 -159,279 -777,991 -287,1265 74,42 263,225 279,301 30,149 422,146 519,370 157,365 -97,475 -411,475 -432,0 -521,-26 -937,-215 -87,-40 -399,-1043 -571,-1285 -286,-403 -360,-1513 63,-1934 199,-198 336,-537 544,-674 46,-30 432,-317 436,-335 18,-4 64,-39 72,-28l-1 1z"/>
   <path class="fil4" d="M15668 10559c-16,0 -28,-5 -37,-15 -9,-10 -14,-22 -14,-36l0 -1227c0,-56 20,-104 59,-144 39,-39 87,-59 144,-59 56,0 104,20 144,59 39,39 59,87 59,144l0 1263c0,10 -5,15 -15,15 -10,0 -15,-5 -15,-15l0 -1263c0,-48 -17,-89 -51,-123 -34,-34 -75,-51 -123,-51 -49,0 -91,17 -125,51 -34,34 -51,75 -51,123l0 1227c0,14 8,21 23,21 14,0 21,-7 21,-21l0 -643c0,-14 5,-26 15,-36 10,-10 22,-15 36,-15l159 0c10,0 15,5 15,15 0,10 -5,15 -15,15l-159 0c-14,0 -21,7 -21,21l0 643c0,14 -5,26 -15,36 -10,10 -22,15 -36,15l2 0z"/>
   <path class="fil4" d="M15448 10392c0,47 -17,86 -50,118 -33,32 -72,49 -117,49 -47,0 -86,-16 -118,-49 -32,-32 -49,-72 -49,-118l0 -563c0,-10 5,-15 15,-15 10,0 15,5 15,15l0 563c0,38 13,70 40,97 27,27 59,40 97,40 38,0 70,-13 97,-40 27,-27 40,-59 40,-97l0 -1110c0,-48 -17,-89 -51,-123 -34,-34 -75,-51 -123,-51l-152 0c-16,0 -23,7 -23,21l0 1415c0,10 -4,15 -13,15 -10,0 -15,-5 -15,-15l0 -1415c0,-14 5,-26 14,-36 9,-10 22,-15 37,-15l152 0c56,0 104,20 144,59 39,39 59,87 59,144l0 1110 1 1z"/>
   <path class="fil4" d="M14860 9079c10,0 15,5 15,15l0 1425c0,11 -4,21 -12,29 -8,8 -17,12 -29,12 -8,0 -16,-3 -23,-8 -7,-6 -12,-13 -15,-21l-351 -1413c-1,-6 -5,-8 -11,-8 -7,0 -11,4 -11,11l0 1389c0,14 7,21 21,21 16,0 23,-7 23,-21l0 -679c0,-10 4,-15 13,-15 10,0 15,5 15,15l0 679c0,14 -5,26 -14,36 -9,10 -22,15 -37,15 -14,0 -26,-5 -36,-15 -10,-10 -15,-22 -15,-36l0 -1389c0,-11 4,-21 12,-29 8,-8 17,-12 29,-12 20,0 32,10 38,30l351 1415c1,4 5,6 11,6 7,0 11,-4 11,-11l0 -1425c0,-10 5,-15 15,-15l0 -1z"/>
   <path class="fil4" d="M13871 10559c-16,0 -28,-5 -37,-15 -9,-10 -14,-22 -14,-36l0 -1227c0,-56 20,-104 59,-144 39,-39 87,-59 144,-59 56,0 104,20 144,59 39,39 59,87 59,144l0 1263c0,10 -5,15 -15,15 -10,0 -15,-5 -15,-15l0 -1263c0,-48 -17,-89 -51,-123 -34,-34 -75,-51 -123,-51 -49,0 -91,17 -125,51 -34,34 -51,75 -51,123l0 1227c0,14 8,21 23,21 14,0 21,-7 21,-21l0 -643c0,-14 5,-26 15,-36 10,-10 22,-15 36,-15l159 0c10,0 15,5 15,15 0,10 -5,15 -15,15l-159 0c-14,0 -21,7 -21,21l0 643c0,14 -5,26 -15,36 -10,10 -22,15 -36,15l2 0z"/>
   <path class="fil4" d="M13448 9079c56,0 104,20 144,59 39,39 59,87 59,144l0 395c0,47 -16,86 -49,118 -32,32 -72,49 -118,49 -45,0 -84,-16 -117,-49 -33,-32 -50,-72 -50,-118l0 -395c0,-10 5,-15 15,-15 10,0 15,5 15,15l0 395c0,38 13,70 40,97 27,27 59,40 97,40 38,0 71,-13 98,-40 27,-27 41,-59 41,-97l0 -395c0,-48 -17,-89 -51,-123 -34,-34 -75,-51 -125,-51 -48,0 -89,17 -123,51 -34,34 -51,75 -51,123l0 1263c0,10 -5,15 -15,15 -10,0 -15,-5 -15,-15l0 -1263c0,-56 20,-104 59,-144 39,-39 87,-59 144,-59l2 0z"/>
   <path class="fil4" d="M12676 10392c0,47 -17,86 -50,118 -33,32 -72,49 -117,49 -47,0 -86,-16 -118,-49 -32,-32 -49,-72 -49,-118l0 -563c0,-10 5,-15 15,-15 10,0 15,5 15,15l0 563c0,38 13,70 40,97 27,27 59,40 97,40 38,0 71,-13 97,-40 27,-27 40,-59 40,-97l0 -1110c0,-48 -17,-89 -51,-123 -34,-34 -75,-51 -123,-51l-152 0c-16,0 -23,7 -23,21l0 1415c0,10 -4,15 -13,15 -10,0 -15,-5 -15,-15l0 -1415c0,-14 5,-26 14,-36 9,-10 21,-15 37,-15l152 0c56,0 104,20 144,59 39,39 59,87 59,144l0 1110 1 1z"/>
   <path class="fil4" d="M11745 9773c-14,0 -26,-5 -36,-15 -10,-10 -15,-22 -15,-36l0 -440c0,-56 20,-104 59,-144 39,-39 87,-59 144,-59l190 0c10,0 15,5 15,15 0,10 -5,15 -15,15l-190 0c-48,0 -89,17 -123,51 -34,34 -51,75 -51,123l0 440c0,14 7,21 21,21l188 0c14,0 26,5 36,15 10,10 15,22 15,36 0,14 -5,26 -15,36 -10,10 -22,15 -36,15l-188 0c-14,0 -21,8 -21,23l0 489c0,48 17,89 51,123 34,34 75,51 123,51l190 0c10,0 15,5 15,15 0,10 -5,15 -15,15l-190 0c-56,0 -104,-20 -144,-59 -39,-39 -59,-87 -59,-144l0 -489c0,-16 5,-28 15,-38 10,-10 22,-15 36,-15l188 0c14,0 21,-7 21,-21 0,-14 -7,-21 -21,-21l-188 0 0 -2z"/>
   <path class="fil4" d="M11525 10540c3,8 0,15 -8,19 -8,1 -15,-1 -19,-8l-258 -666 -2 -2c-1,0 -2,0 -3,-1 -1,-1 -2,-1 -3,-1 -7,0 -11,4 -11,11l0 618c0,14 -5,26 -15,36 -10,10 -22,15 -36,15 -14,0 -26,-5 -36,-15 -10,-10 -15,-22 -15,-36l0 -1227c0,-56 20,-104 59,-144 39,-39 87,-59 144,-59 56,0 104,20 144,59 39,39 59,87 59,144l0 395c0,47 -16,86 -49,118 -32,32 -72,49 -118,49 -45,0 -84,-16 -117,-49 -33,-32 -50,-72 -50,-118l0 -395c0,-10 5,-15 15,-15 10,0 15,5 15,15l0 395c0,38 13,70 40,97 27,27 59,40 97,40 38,0 70,-13 97,-40 27,-27 40,-59 40,-97l0 -395c0,-48 -17,-89 -51,-123 -34,-34 -75,-51 -123,-51 -48,0 -89,17 -123,51 -34,34 -51,75 -51,123l0 1227c0,14 7,21 21,21 14,0 21,-7 21,-21l0 -618c0,-11 4,-21 12,-29 8,-8 17,-12 29,-12 18,0 30,7 34,21l260 668 1 0z"/>
   <path class="fil5" d="M15646 10552c-16,0 -28,-5 -37,-15 -9,-10 -14,-22 -14,-36l0 -1227c0,-56 20,-104 59,-144 39,-39 87,-59 144,-59 56,0 104,20 144,59 39,39 59,87 59,144l0 1263c0,10 -5,15 -15,15 -10,0 -15,-5 -15,-15l0 -1263c0,-48 -17,-89 -51,-123 -34,-34 -75,-51 -123,-51 -49,0 -91,17 -125,51 -34,34 -51,75 -51,123l0 1227c0,14 8,21 23,21 14,0 21,-7 21,-21l0 -643c0,-14 5,-26 15,-36 10,-10 22,-15 36,-15l159 0c10,0 15,5 15,15 0,10 -5,15 -15,15l-159 0c-14,0 -21,7 -21,21l0 643c0,14 -5,26 -15,36 -10,10 -22,15 -36,15l2 0z"/>
   <path class="fil5" d="M15426 10385c0,47 -17,86 -50,118 -33,32 -72,49 -117,49 -47,0 -86,-16 -118,-49 -32,-32 -49,-72 -49,-118l0 -563c0,-10 5,-15 15,-15 10,0 15,5 15,15l0 563c0,38 13,70 40,97 27,27 59,40 97,40 38,0 70,-13 97,-40 27,-27 40,-59 40,-97l0 -1110c0,-48 -17,-89 -51,-123 -34,-34 -75,-51 -123,-51l-152 0c-16,0 -23,7 -23,21l0 1415c0,10 -4,15 -13,15 -10,0 -15,-5 -15,-15l0 -1415c0,-14 5,-26 14,-36 9,-10 22,-15 37,-15l152 0c56,0 104,20 144,59 39,39 59,87 59,144l0 1110 1 1z"/>
   <path class="fil5" d="M14838 9072c10,0 15,5 15,15l0 1425c0,11 -4,21 -12,29 -8,8 -17,12 -29,12 -8,0 -16,-3 -23,-8 -7,-6 -12,-13 -15,-21l-351 -1413c-1,-6 -5,-8 -11,-8 -7,0 -11,4 -11,11l0 1389c0,14 7,21 21,21 16,0 23,-7 23,-21l0 -679c0,-10 4,-15 13,-15 10,0 15,5 15,15l0 679c0,14 -5,26 -14,36 -9,10 -22,15 -37,15 -14,0 -26,-5 -36,-15 -10,-10 -15,-22 -15,-36l0 -1389c0,-11 4,-21 12,-29 8,-8 17,-12 29,-12 20,0 32,10 38,30l351 1415c1,4 5,6 11,6 7,0 11,-4 11,-11l0 -1425c0,-10 5,-15 15,-15l0 -1z"/>
   <path class="fil5" d="M13849 10552c-16,0 -28,-5 -37,-15 -9,-10 -14,-22 -14,-36l0 -1227c0,-56 20,-104 59,-144 39,-39 87,-59 144,-59 56,0 104,20 144,59 39,39 59,87 59,144l0 1263c0,10 -5,15 -15,15 -10,0 -15,-5 -15,-15l0 -1263c0,-48 -17,-89 -51,-123 -34,-34 -75,-51 -123,-51 -49,0 -91,17 -125,51 -34,34 -51,75 -51,123l0 1227c0,14 8,21 23,21 14,0 21,-7 21,-21l0 -643c0,-14 5,-26 15,-36 10,-10 22,-15 36,-15l159 0c10,0 15,5 15,15 0,10 -5,15 -15,15l-159 0c-14,0 -21,7 -21,21l0 643c0,14 -5,26 -15,36 -10,10 -22,15 -36,15l2 0z"/>
   <path class="fil5" d="M13426 9072c56,0 104,20 144,59 39,39 59,87 59,144l0 395c0,47 -16,86 -49,118 -32,32 -72,49 -118,49 -45,0 -84,-16 -117,-49 -33,-32 -50,-72 -50,-118l0 -395c0,-10 5,-15 15,-15 10,0 15,5 15,15l0 395c0,38 13,70 40,97 27,27 59,40 97,40 38,0 71,-13 98,-40 27,-27 41,-59 41,-97l0 -395c0,-48 -17,-89 -51,-123 -34,-34 -75,-51 -125,-51 -48,0 -89,17 -123,51 -34,34 -51,75 -51,123l0 1263c0,10 -5,15 -15,15 -10,0 -15,-5 -15,-15l0 -1263c0,-56 20,-104 59,-144 39,-39 87,-59 144,-59l2 0z"/>
   <path class="fil6" d="M12654 10385c0,47 -17,86 -50,118 -33,32 -72,49 -117,49 -47,0 -86,-16 -118,-49 -32,-32 -49,-72 -49,-118l0 -563c0,-10 5,-15 15,-15 10,0 15,5 15,15l0 563c0,38 13,70 40,97 27,27 59,40 97,40 38,0 70,-13 97,-40 27,-27 40,-59 40,-97l0 -1110c0,-48 -17,-89 -51,-123 -34,-34 -75,-51 -123,-51l-152 0c-16,0 -23,7 -23,21l0 1415c0,10 -4,15 -13,15 -10,0 -15,-5 -15,-15l0 -1415c0,-14 5,-26 14,-36 9,-10 21,-15 37,-15l152 0c56,0 104,20 144,59 39,39 59,87 59,144l0 1110 1 1z"/>
   <path class="fil6" d="M11723 9765c-14,0 -26,-5 -36,-15 -10,-10 -15,-22 -15,-36l0 -440c0,-56 20,-104 59,-144 39,-39 87,-59 144,-59l190 0c10,0 15,5 15,15 0,10 -5,15 -15,15l-190 0c-48,0 -89,17 -123,51 -34,34 -51,75 -51,123l0 440c0,14 7,21 21,21l188 0c14,0 26,5 36,15 10,10 15,22 15,36 0,14 -5,26 -15,36 -10,10 -22,15 -36,15l-188 0c-14,0 -21,8 -21,23l0 489c0,48 17,89 51,123 34,34 75,51 123,51l190 0c10,0 15,5 15,15 0,10 -5,15 -15,15l-190 0c-56,0 -104,-20 -144,-59 -39,-39 -59,-87 -59,-144l0 -489c0,-16 5,-28 15,-38 10,-10 22,-15 36,-15l188 0c14,0 21,-7 21,-21 0,-14 -7,-21 -21,-21l-188 0 0 -2z"/>
   <path class="fil6" d="M11503 10533c3,8 0,15 -8,19 -8,1 -15,-1 -19,-8l-258 -666 -2 -2c-1,0 -2,0 -3,-1 -1,-1 -2,-1 -3,-1 -7,0 -11,4 -11,11l0 618c0,14 -5,26 -15,36 -10,10 -22,15 -36,15 -14,0 -26,-5 -36,-15 -10,-10 -15,-22 -15,-36l0 -1227c0,-56 20,-104 59,-144 39,-39 87,-59 144,-59 56,0 104,20 144,59 39,39 59,87 59,144l0 395c0,47 -16,86 -49,118 -32,32 -72,49 -118,49 -45,0 -84,-16 -117,-49 -33,-32 -50,-72 -50,-118l0 -395c0,-10 5,-15 15,-15 10,0 15,5 15,15l0 395c0,38 13,70 40,97 27,27 59,40 97,40 38,0 70,-13 97,-40 27,-27 40,-59 40,-97l0 -395c0,-48 -17,-89 -51,-123 -34,-34 -75,-51 -123,-51 -48,0 -89,17 -123,51 -34,34 -51,75 -51,123l0 1227c0,14 7,21 21,21 14,0 21,-7 21,-21l0 -618c0,-11 4,-21 12,-29 8,-8 17,-12 29,-12 18,0 30,7 34,21l260 668 1 0z"/>
   <path class="fil6" d="M11694 9764c-14,0 -26,-5 -36,-15 -10,-10 -15,-22 -15,-36l0 -440c0,-56 20,-104 59,-144 39,-39 87,-59 144,-59l190 0c10,0 15,5 15,15 0,10 -5,15 -15,15l-190 0c-48,0 -89,17 -123,51 -34,34 -51,75 -51,123l0 440c0,14 7,21 21,21l188 0c14,0 26,5 36,15 10,10 15,22 15,36 0,14 -5,26 -15,36 -10,10 -22,15 -36,15l-188 0c-14,0 -21,8 -21,23l0 489c0,48 17,89 51,123 34,34 75,51 123,51l190 0c10,0 15,5 15,15 0,10 -5,15 -15,15l-190 0c-56,0 -104,-20 -144,-59 -39,-39 -59,-87 -59,-144l0 -489c0,-16 5,-28 15,-38 10,-10 22,-15 36,-15l188 0c14,0 21,-7 21,-21 0,-14 -7,-21 -21,-21l-188 0 0 -2z"/>
   <path class="fil6" d="M11481 10533c3,8 0,15 -8,19 -8,1 -15,-1 -19,-8l-258 -666 -2 -2c-1,0 -2,0 -3,-1 -1,-1 -2,-1 -3,-1 -7,0 -11,4 -11,11l0 618c0,14 -5,26 -15,36 -10,10 -22,15 -36,15 -14,0 -26,-5 -36,-15 -10,-10 -15,-22 -15,-36l0 -1227c0,-56 20,-104 59,-144 39,-39 87,-59 144,-59 56,0 104,20 144,59 39,39 59,87 59,144l0 395c0,47 -16,86 -49,118 -32,32 -72,49 -118,49 -45,0 -84,-16 -117,-49 -33,-32 -50,-72 -50,-118l0 -395c0,-10 5,-15 15,-15 10,0 15,5 15,15l0 395c0,38 13,70 40,97 27,27 59,40 97,40 38,0 70,-13 97,-40 27,-27 40,-59 40,-97l0 -395c0,-48 -17,-89 -51,-123 -34,-34 -75,-51 -123,-51 -48,0 -89,17 -123,51 -34,34 -51,75 -51,123l0 1227c0,14 7,21 21,21 14,0 21,-7 21,-21l0 -618c0,-11 4,-21 12,-29 8,-8 17,-12 29,-12 18,0 30,7 34,21l260 668 1 0z"/>
   <path class="fil6" d="M12626 10385c0,47 -17,86 -50,118 -33,32 -72,49 -117,49 -47,0 -86,-16 -118,-49 -32,-32 -49,-72 -49,-118l0 -563c0,-10 5,-15 15,-15 10,0 15,5 15,15l0 563c0,38 13,70 40,97 27,27 59,40 97,40 38,0 71,-13 97,-40 27,-27 40,-59 40,-97l0 -1110c0,-48 -17,-89 -51,-123 -34,-34 -75,-51 -123,-51l-152 0c-16,0 -23,7 -23,21l0 1415c0,10 -4,15 -13,15 -10,0 -15,-5 -15,-15l0 -1415c0,-14 5,-26 14,-36 9,-10 22,-15 37,-15l152 0c56,0 104,20 144,59 39,39 59,87 59,144l0 1110 1 1z"/>
   <path class="fil7" d="M10535 8327c-3,5 -59,49 -70,56 -126,78 -119,80 -278,102 -152,21 -280,28 -430,-42 -32,-15 -57,-29 -85,-46 -33,-20 -44,-34 -72,-55 -90,-69 -180,-219 -178,-327 3,-146 39,-151 52,-202 -61,-3 -147,3 -204,-7 -47,-9 -29,-19 -86,-5 -44,11 -42,11 -70,33 -58,45 -60,37 -98,113 -72,143 29,351 101,481 19,35 21,36 44,64 97,112 177,152 328,192 55,15 227,31 289,25 145,-13 328,1 452,-68l125 -81c50,-35 158,-171 180,-232l0 -1z"/>
   <path class="fil7" d="M9539 7525c47,-28 73,-74 77,-152 4,-69 -54,-103 -89,-134 -55,-50 -135,-108 -219,-113 -86,-5 -101,-7 -165,53 -13,12 -30,66 -1,80 99,48 196,80 282,158 25,22 91,96 114,108l1 0z"/>
   <path class="fil8" d="M9245 5662c13,-9 19,-17 32,-27 12,-9 26,-16 39,-22 94,-41 222,-26 271,37 27,34 70,120 50,182 -10,31 -51,79 -76,102 -12,11 -20,13 -30,29 50,10 60,43 93,-18 62,-117 84,-215 -4,-324 -66,-83 -217,-109 -330,-57 -33,15 -44,50 -47,97l2 1z"/>
   <path class="fil7" d="M9310 7788c53,2 100,0 148,-13 21,-6 42,-13 51,-28 41,-65 0,-125 -67,-146 -118,-36 -180,19 -174,43 8,33 111,-60 181,0 16,14 23,40 18,65 -10,46 -121,69 -157,78l0 1z"/>
   <path class="fil8" d="M10856 7116c48,-1 86,1 120,67 13,25 2,56 14,80l26 2c35,-69 -22,-139 -50,-175 -32,-41 -130,-61 -171,-12 11,16 40,39 61,39l0 -1z"/>
   <path class="fil7" d="M8993 7597c-11,-59 -35,-156 45,-160 28,-1 60,25 71,42 25,37 1,76 27,91 33,-19 15,-84 -4,-119 -14,-26 -13,-27 -41,-38 -36,-15 -96,-28 -122,9 -13,17 -18,40 -15,63 7,49 14,82 39,113l0 -1z"/>
   <path class="fil8" d="M11143 7293c3,-14 -50,-126 -72,-141 3,60 24,79 -8,142 -12,23 -58,74 -82,81 68,11 143,-45 162,-82z"/>
   <path class="fil8" d="M10668 7151c30,-70 54,-95 111,-131 15,-10 40,-17 53,-27 -38,-17 -133,16 -164,32 -31,16 -35,53 -33,63 5,22 24,55 34,62l-1 1z"/>
   <path class="fil8" d="M9525 5749l54 -6c-13,-78 -84,-110 -173,-110 21,60 6,36 55,61 31,15 42,37 64,55z"/>
   <path class="fil8" d="M9540 5813c7,3 43,8 49,9l4 -35c-67,13 -53,11 -53,26z"/>
   <path class="fil8" d="M9274 5686c29,44 12,32 31,32 8,-17 -7,-25 -6,-53 -16,7 -14,8 -25,21z"/>
   <path class="fil9" d="M10535 8327c-23,61 -130,197 -180,232l-125 81c-124,69 -306,55 -452,68 -62,6 -234,-11 -289,-25 -151,-40 -231,-80 -328,-192 -24,-27 -25,-29 -44,-64 -71,-129 -172,-337 -101,-481 38,-75 41,-67 98,-113 28,-22 26,-23 70,-33 57,-14 39,-3 86,5 57,11 143,4 204,7 -13,51 -49,56 -52,202 -2,108 88,258 178,327 27,21 39,35 72,55 29,17 53,31 85,46 150,70 278,63 430,42 159,-22 152,-25 278,-102 11,-7 67,-51 70,-56l0 1zm-1225 -539c37,-9 147,-33 157,-78 5,-25 -1,-51 -18,-65 -70,-61 -173,33 -181,0 -6,-24 55,-80 174,-43 67,21 108,81 67,146 -9,15 -31,22 -51,28 -48,14 -95,16 -148,13l0 -1zm-317 -191c-25,-31 -32,-64 -39,-113 -3,-23 2,-45 15,-63 27,-37 86,-24 122,-9 28,12 27,12 41,38 19,35 36,100 4,119 -26,-15 -1,-54 -27,-91 -11,-17 -43,-43 -71,-42 -80,4 -56,101 -45,160l0 1zm545 -72c-23,-12 -90,-85 -114,-108 -86,-78 -183,-111 -282,-158 -29,-14 -12,-67 1,-80 64,-60 79,-59 165,-53 84,5 163,64 219,113 34,31 92,64 89,134 -4,77 -29,124 -77,152l-1 0zm-2936 1043c-16,45 -120,32 -176,34l-402 19c-53,4 -118,2 -170,16l-20 12c35,-2 66,-7 100,-8 105,-4 209,4 314,4 204,0 411,-23 614,-12 76,4 134,-2 207,-4 77,-3 351,-12 411,-7 67,6 133,6 203,7 33,0 68,-4 98,-3l305 12c35,1 60,-5 97,-2 271,19 681,-33 917,15 130,27 202,56 334,82 89,18 73,24 181,29 64,3 144,5 209,5 69,0 133,-10 202,-11 101,-2 292,30 389,32 126,3 262,0 380,-41 52,-18 70,-70 132,-78 75,-10 111,19 162,46 47,25 92,50 137,74l307 114c104,25 207,63 314,81 8,1 4,2 11,1 13,-2 2,2 10,-4 -13,-17 -95,-38 -123,-45 -85,-22 -308,-115 -362,-154 -51,-36 -86,-80 -135,-118 -50,-40 -76,-93 -108,-150 -38,-68 -67,-210 -47,-289 38,-154 207,-137 328,-187 63,-26 157,-104 186,-156 53,-96 -10,-157 60,-287 25,-48 74,-202 74,-267 1,-76 -17,-239 -50,-292 -33,-55 -111,-139 -178,-164 -44,-17 -109,-1 -133,24 -32,33 -14,94 4,133 45,98 81,144 51,269 -22,95 -77,162 -138,203 -59,40 -185,73 -273,68 -104,-6 -250,-115 -323,-191 -53,-56 -95,-136 -135,-208 -16,-29 -45,-84 -64,-110 -116,-157 -323,-88 -253,65 33,72 170,209 224,291 31,48 76,186 87,254 9,56 6,105 9,161 3,57 13,103 5,163 -25,176 -163,318 -328,360 -35,9 -111,17 -147,21 -231,24 -462,-80 -556,-296 -20,-45 -22,-98 -14,-151 5,-34 22,-107 58,-115 71,-15 95,-31 142,-69 11,-9 13,-7 23,-19 12,-14 26,-37 36,-53 47,-72 68,-175 75,-265 3,-37 1,-324 -7,-337 -16,9 -14,24 -20,45 -16,55 -32,110 -53,158 -39,85 -101,-18 -144,-60 -36,-35 -107,-90 -156,-121 -26,-16 -62,-38 -91,-49 -35,-14 -80,-14 -103,-38 -7,-47 49,-74 76,-98 31,-28 61,-60 89,-89 7,-7 14,-13 21,-21 12,-13 10,-13 20,-27l65 -113c9,-19 25,-43 29,-60 -34,10 -113,164 -241,247 -98,63 -199,127 -308,184 -77,40 -90,42 -137,107 -45,63 -59,105 -41,185 21,88 82,294 156,336 0,55 -33,112 -55,149 -65,110 -178,120 -296,95 -69,-15 -99,-9 -161,-45 -70,-42 -112,-84 -169,-136 -22,-20 -35,-23 -55,-48 -32,-39 -68,-69 -102,-105 -386,-408 -233,-811 127,-1096 410,-325 531,-100 942,-239 69,-23 38,-97 3,-130 -62,-57 -43,-14 -103,-103 -27,-40 -56,-75 -70,-136 -42,-183 -15,-347 131,-452 38,-28 82,-55 137,-70 68,-18 106,-16 141,-65 67,-94 -157,-154 -208,-180 -57,-29 -131,-19 -170,-38 -2,-56 62,-70 92,-110 35,-45 38,-95 13,-158 -96,-246 -392,-153 -566,-57 -76,42 -150,63 -120,181 17,66 98,139 130,178 42,52 48,78 45,163 -4,124 -51,228 -107,307 -120,167 -323,250 -523,407 -289,226 -478,607 -484,958 -6,411 277,579 557,778 180,128 425,236 510,395 77,147 20,262 -91,321 -517,275 -1139,-747 -1277,-1127 -144,-396 72,-506 -310,-797 -18,-14 -40,-33 -54,-49 -362,-427 103,-982 450,-1260 46,-37 83,-54 124,-82 53,-35 74,-51 108,-99 13,-19 27,-44 36,-67 18,-46 21,-122 -8,-164 -38,-55 -77,-24 -26,-132 33,-69 98,-113 153,-157 20,-16 37,-31 57,-46 68,-53 164,-130 236,-176 84,-54 315,-181 399,-220 45,-21 96,-42 145,-61 69,-26 79,-32 154,-53 28,-8 53,-16 80,-23 52,-14 237,-13 295,-13 73,0 102,-2 152,-55 47,-50 30,-178 -24,-224 -74,-63 -123,-66 -224,-86 -226,-44 -468,115 -664,140 -65,8 -132,2 -195,11 -63,9 -152,23 -215,41 -15,4 -23,9 -39,12 -101,20 -147,28 -245,66 -57,22 -93,44 -134,72l-120 86c-22,17 -36,29 -57,46l-107 99c-51,55 -98,102 -143,162 -30,39 -51,84 -80,127l-118 191c-12,23 -27,39 -42,61 -249,359 -936,1547 -575,1936 48,52 98,114 132,177 13,24 28,42 39,64 14,27 10,55 21,82 18,47 42,103 51,156 7,41 10,156 3,197 -16,96 -74,121 -124,185l-64 91c-56,95 -79,105 -120,241 -16,54 -36,111 -35,170 1,41 2,157 16,189 6,15 12,16 17,34 13,41 20,81 40,115 43,74 91,110 144,166 97,104 164,90 183,124l1 -2z"/>
   <path class="fil9" d="M13348 7347c203,-29 330,91 393,43 48,-36 13,-53 -45,-116 -90,-98 -66,-111 -186,-208 -46,-37 -103,-73 -176,-91 -51,-13 -193,-13 -250,-6 -137,15 -285,45 -402,123 -126,84 -190,124 -258,272l-39 97c-15,36 -25,56 -36,96 -19,71 -30,144 -43,219 -15,88 -54,276 -127,337 -81,68 -50,48 -101,96 -29,27 -38,34 -64,67 -77,97 -50,76 -94,168 -29,61 -47,147 -38,226 14,128 134,231 265,262 68,16 156,35 229,36 47,1 204,-15 234,-36 21,-15 66,-37 72,-58 24,-78 -41,-128 -103,-153 -64,-27 -149,-134 -174,-220 -28,-96 -14,-271 3,-374 6,-39 6,-78 17,-115 20,-66 42,-139 76,-191 35,-54 64,-110 105,-158 88,-105 190,-163 313,-216 153,-67 262,-77 426,-100l3 0z"/>
   <path class="fil9" d="M11071 7152c22,15 74,128 72,141 -19,36 -94,93 -162,82 24,-8 70,-59 82,-81 33,-62 12,-81 8,-142zm-276 -74c41,-48 139,-29 171,12 28,36 85,106 50,175l-26 -2c-11,-24 0,-55 -14,-80 -34,-66 -72,-68 -120,-67 -21,1 -50,-22 -61,-39l0 1zm-126 74c-10,-8 -29,-40 -34,-62 -2,-10 2,-48 33,-63 31,-16 126,-50 164,-32 -13,10 -37,17 -53,27 -57,36 -81,61 -111,131l1 -1zm-1128 -1339c0,-15 -14,-13 53,-26l-4 35c-6,-1 -42,-6 -49,-9zm-266 -127c11,-14 8,-14 25,-21 -1,28 14,36 6,53 -19,0 -2,12 -31,-32zm251 63c-22,-19 -32,-40 -64,-55 -49,-24 -35,-1 -55,-61 89,0 160,32 173,110l-54 6zm-280 -87c2,-47 14,-82 47,-97 114,-52 264,-26 330,57 87,109 65,207 4,324 -32,61 -43,28 -93,18 10,-17 18,-18 30,-29 25,-23 66,-71 76,-102 20,-61 -23,-147 -50,-182 -50,-63 -177,-78 -271,-37 -13,6 -27,13 -39,22 -13,9 -19,18 -32,27l-2 -1zm851 166c-1,1 -157,192 -42,149 67,-25 175,-101 276,-99 -26,29 -172,100 -172,154 30,8 138,-54 193,-76 53,-21 164,-55 227,-49 -28,23 -178,78 -294,165 -16,12 -29,20 -30,42 45,6 142,-28 197,-35 73,-9 150,-5 217,11 -43,28 -279,58 -275,119 48,29 163,-34 226,-38 -17,40 -108,91 -135,124 -16,20 -7,15 -6,22 5,34 209,-39 265,12 -17,24 -158,96 -209,129 -22,14 -54,29 -50,63 49,13 131,-43 197,-46 -43,54 -143,57 -141,233 1,78 7,92 -10,169 -11,53 -6,122 16,167 12,24 25,32 40,54 12,18 19,42 29,64 29,58 112,180 163,212 37,23 85,49 138,53 60,5 116,5 165,-18 47,-23 139,-88 140,-143 0,-15 -12,-63 -16,-79 -16,-60 -36,-82 -64,-129 -97,-164 -240,-144 -408,-115 -57,10 -126,5 -173,16 -36,-119 201,-94 278,-104 123,-15 135,-96 76,-147 -22,-19 -38,-21 -71,-27 -153,-28 -246,143 -274,20 -39,-174 141,-183 134,-241 -55,-17 -151,47 -202,47 19,-54 269,-144 259,-185 -34,-56 -201,-12 -265,-15 11,-20 80,-66 114,-100 14,-14 31,-19 26,-49 -53,-16 -150,50 -224,42 20,-24 96,-49 135,-61l115 -30c20,-5 26,-5 33,-21 -35,-49 -247,-27 -322,-10 -31,7 -67,21 -97,23 32,-54 247,-148 320,-185 18,-9 14,-2 18,-20 -50,-37 -267,43 -336,77 -22,11 -75,39 -99,44 43,-72 258,-158 163,-158 -117,0 -266,105 -316,108 6,-39 76,-118 103,-152 14,-18 35,-26 34,-49 -19,2 -105,69 -129,85 -28,18 -59,30 -100,60 -15,11 -18,16 -33,24 17,-55 57,-89 43,-167 -14,-79 -94,-52 -131,-14 -81,83 -80,294 -103,327 -89,-9 27,-259 40,-315 33,-143 -47,-232 -123,-279 -107,-66 -190,-75 -333,-46 -57,12 -104,34 -119,87 -35,123 -17,233 38,346 64,131 285,159 325,191 58,45 156,94 230,57 132,-66 46,-123 330,-292l-1 -2z"/>
   <path class="fil9" d="M14048 6793c-29,10 -103,2 -86,47 8,20 95,65 123,88 13,11 22,25 33,37 43,43 143,106 234,197l68 72c13,11 28,20 39,31 9,9 23,36 33,41 21,-17 -14,-42 -27,-66 -20,-37 -24,-44 -47,-70 -42,-49 -65,-72 -114,-116 -41,-38 -139,-105 -158,-128 -36,-43 -18,-33 -96,-78 20,-18 111,-28 81,-76 -15,-24 -214,-60 -323,-179 -26,-28 -57,-49 -88,-76l-178 -159c-15,-13 -34,-26 -46,-38 -41,-44 -46,-66 -134,-114 -146,-80 -221,-28 -329,-173 -23,-30 -48,-58 -70,-94 -39,-64 -82,-153 -143,-195 -28,-20 -99,-36 -115,22 -8,32 -6,116 -7,154 -5,117 -8,98 -67,183 -12,17 -24,33 -32,53 -47,117 -38,166 50,232 42,32 67,35 131,36 167,4 296,-39 476,-20 25,3 51,5 73,12 20,6 40,16 63,21 54,10 75,27 121,47 48,21 67,41 104,65 32,21 81,40 105,59 101,79 140,109 265,157 9,3 21,8 31,12 15,5 19,6 29,15l1 1z"/>
   <path class="fil9" d="M11400 5911c-20,14 -72,28 -99,43 -22,12 -70,41 -56,74 21,14 97,-5 125,-9 106,-18 304,-33 390,19 -71,22 -333,26 -364,48l0 14c25,19 168,20 215,27 71,11 132,27 194,50 132,50 248,161 305,178 -45,10 -166,9 -214,2 -102,-14 -105,-24 -160,-36 -20,-4 -14,-6 -26,5 -21,33 92,69 124,81 118,44 184,69 276,155 24,23 91,87 103,119 -28,-7 -80,-34 -108,-48 -54,-27 -43,-70 -91,-55 -13,47 37,50 56,85 64,118 75,248 73,384 -1,30 6,42 9,68l17 363c2,56 10,99 6,139l27 -78c13,-133 -29,-476 -11,-650 4,-37 0,-73 4,-107 68,-1 144,69 188,62 47,-27 -50,-205 -66,-234 -17,-31 -52,-70 -74,-90 -24,-23 -76,-54 -91,-75 41,-16 131,-22 156,-44 2,-59 -138,-156 -187,-184 -29,-17 -182,-96 -220,-108l-23 -8c-6,-4 -4,-2 -8,-6 23,-8 48,-19 69,-31 23,-13 55,-16 75,-28 3,-31 -39,-50 -67,-64 -127,-62 -112,-81 -317,-96 5,-9 70,-59 93,-71 119,-62 -258,-29 -388,16 -63,21 -316,117 -355,155 -8,8 -6,6 -15,13 -28,24 -12,47 21,31 39,-19 84,-34 127,-47 51,-16 245,-55 290,-57l-3 -5z"/>
   <path class="fil9" d="M11431 4106c2,-30 -87,-105 -106,-122 -22,-19 -32,-45 -50,-67 -22,-27 -107,-97 -121,-114l-153 -199c-97,-121 -138,-139 -252,-212 -48,-31 -96,-61 -147,-88 -34,-18 -38,-29 -55,-62 -15,-29 -26,-45 -41,-76 -12,-26 -19,-54 -32,-80 -40,-83 -48,-132 -109,-243 -28,-51 -49,-105 -78,-156 -27,-48 -54,-105 -79,-155l-39 -74c-9,-17 -5,-19 -20,-36 -14,-16 -15,-22 -24,-37 -35,-61 -19,-21 -52,-65l-97 -137c-16,-21 -36,-41 -53,-64 -22,-29 -79,-121 -107,-124 -4,32 28,53 42,71 16,20 32,49 48,69 50,66 48,55 102,137 33,51 72,83 98,140 80,172 125,382 139,578 18,241 -19,257 -42,436 -7,55 0,64 30,87 153,117 358,24 503,92 72,34 97,66 147,93 61,33 91,66 133,106l264 214c42,33 92,55 109,69 12,11 18,23 41,18l1 1z"/>
   <path class="fil9" d="M9366 2086l-21 14c-34,15 -93,36 -87,80 3,26 19,22 35,34 -56,33 -259,96 -140,144 -35,14 -187,61 -211,99 -25,39 14,45 32,57 -32,16 -118,26 -203,72 -23,12 -71,40 -79,58 -22,49 49,49 76,58 -9,9 -23,12 -34,16l-417 193c-26,15 -41,52 -5,65 26,10 75,4 105,7 -15,9 -342,137 -365,154 -14,10 -25,37 -7,54 16,15 53,10 77,12l-238 89c-165,62 -288,128 -426,230 -19,14 -83,61 -88,77 -17,45 29,62 95,38l-135 90c-166,109 -311,225 -454,361 -44,42 -140,132 -175,176 -54,67 -102,116 -160,192 -8,10 -15,20 -24,32 -11,14 -22,19 -20,41 22,-4 60,-51 74,-67 152,-168 487,-480 687,-616 59,-40 112,-77 173,-118l266 -170c25,-17 76,-44 58,-80 -28,-41 -150,31 -187,46 14,-5 63,-41 87,-54 30,-17 64,-34 95,-49 115,-57 484,-178 521,-210 14,-12 34,-53 -9,-70l-27 -11c39,-12 86,-35 128,-52 42,-17 87,-30 130,-48 30,-13 104,-40 109,-70 10,-61 -96,-43 -138,-44 25,-34 298,-139 340,-156 40,-15 92,-29 83,-81 -12,-29 -62,-31 -72,-34 -18,-7 -6,-1 -14,-8 28,-8 58,-25 93,-35 96,-30 239,-43 197,-111 -9,-15 -24,-18 -38,-27 27,-22 116,-45 157,-57 27,-8 64,-16 70,-39 12,-45 -35,-43 -53,-62 28,-10 56,-27 88,-39 32,-12 67,-18 93,-38 6,-55 -26,-49 -64,-65 31,-19 84,-25 103,-58 4,-49 -25,-47 -52,-69l163 -62c27,-7 40,-1 62,-13 1,-75 -159,-3 -205,14 -39,15 -74,25 -99,46 -55,46 22,57 53,65l-3 -1z"/>
   <path class="fil9" d="M6005 5368l97 -9c-48,58 -150,137 -221,218l-157 176c-13,14 -41,42 -28,74 35,34 173,-30 237,-34 -14,24 -106,89 -143,124 -110,108 -206,235 -299,357 -15,20 -55,60 -20,84 50,31 179,-110 297,-134l-69 66c-23,20 -46,43 -66,65 -42,45 -81,92 -122,145 -61,80 -111,143 -162,232 -17,30 -40,64 -5,92 57,28 331,-204 410,-207 -96,133 -170,201 -267,347 -21,31 -38,63 -56,98 -20,40 -18,101 44,77 22,-9 70,-51 88,-67 22,-19 61,-55 90,-67 -22,45 -116,162 -154,219 -48,71 -100,158 -143,237 -82,151 -127,263 -125,443 0,40 14,124 43,149 56,-35 -23,-158 59,-395 40,-116 176,-348 252,-450 31,-42 128,-162 138,-213 8,-42 -6,-68 -50,-63 -60,7 -107,74 -147,90 10,-27 58,-93 75,-116 61,-81 113,-137 168,-207 64,-82 104,-201 -58,-128 -96,43 -271,159 -295,168 20,-64 239,-331 304,-389l184 -163c14,-16 14,-32 -1,-46 -39,-27 -194,46 -240,67 -26,12 -48,29 -72,38 26,-65 221,-267 276,-321 56,-55 153,-106 132,-160 -22,-54 -195,13 -237,21 11,-19 37,-41 53,-58l338 -347c22,-20 53,-33 49,-69 -40,-28 -120,5 -176,8 13,-42 73,-97 103,-122l287 -263c7,-15 1,-51 -59,-2 -21,17 -36,35 -56,51 -71,60 -242,203 -289,264 -16,20 -28,42 -42,66 -23,39 -8,55 36,55l-1 -1z"/>
   <path class="fil9" d="M11460 4120c25,-27 12,-115 16,-157 18,51 43,106 64,157 27,64 40,121 71,152 21,0 34,-4 42,-19 5,-9 5,-12 7,-21 1,-5 1,-6 3,-11l7 -13 56 156c23,54 150,332 199,340 39,7 39,-32 40,-64 17,25 120,349 172,377 73,39 60,-95 61,-121 1,1 2,1 3,3l77 141c49,81 62,116 113,92 15,21 27,65 41,92 41,83 101,173 157,241 143,173 127,122 203,196 17,17 54,49 87,49 1,-37 -59,-79 -78,-100 -73,-76 -187,-213 -244,-300 -44,-67 -93,-154 -117,-244 -5,-19 -35,-137 -39,-144 -13,-19 -46,-15 -54,7 -5,15 -1,68 -4,90 -23,-28 -60,-102 -78,-139 -18,-38 -88,-211 -105,-232 -22,-27 -59,-12 -51,32 15,75 31,117 25,203 -35,-28 -164,-419 -184,-532 -2,-14 -6,-50 -10,-60 -7,-16 -30,-25 -46,-10 -35,31 -12,209 -11,262 -52,-71 -117,-233 -149,-331 -10,-31 -18,-60 -25,-92 -4,-18 -11,-104 -14,-109 -8,-14 -30,-19 -45,-5 -16,15 -3,84 -32,148 -38,-65 -118,-266 -132,-342 -3,-20 -5,-32 -21,-37 -51,-14 -37,85 -41,141 -3,38 -2,79 0,117 1,18 4,36 6,53 3,25 1,36 26,35l4 -1z"/>
   <path class="fil9" d="M9545 4694c-18,-9 -27,-20 -44,-34 -47,-37 -86,-58 -136,-89l-134 -91c-15,-11 -25,-27 -46,-23 -8,18 0,23 9,32l118 163c22,35 3,22 20,33 16,-38 -34,-93 -48,-128 62,27 204,133 261,186 90,86 15,-113 6,-142 -22,-67 -47,-110 -58,-142 64,34 289,296 348,368 14,17 30,46 59,43 27,-45 -5,-134 -16,-184 -12,-56 -34,-132 -35,-190 51,53 194,335 235,416 18,36 63,146 93,117 8,-8 24,-291 25,-336 0,-35 -3,-86 2,-119 0,2 67,220 75,256 11,46 22,90 34,135 6,22 12,44 18,66 59,191 118,-179 127,-198 6,-14 1,-4 6,-10 19,103 50,323 74,419l30 129c9,-91 -49,-463 -75,-567 -8,-32 -8,-56 -40,-54 -29,27 -49,224 -84,275 -11,-17 -91,-344 -127,-443 -8,-23 -16,-43 -26,-68 -8,-19 -15,-64 -38,-49 -15,13 -8,82 -8,107 -1,154 -2,201 -20,382l-80 -148c-26,-52 -54,-100 -80,-145 -29,-49 -56,-92 -86,-139l-65 -103c-17,-30 -38,-26 -35,7 0,3 4,18 5,23l26 157c13,65 33,137 39,204 -18,-10 -65,-73 -81,-92 -71,-87 -166,-184 -250,-256 -31,-26 -57,-55 -89,-80 -16,-13 -51,-27 -35,15 13,33 103,154 126,300l0 -3z"/>
   <path class="fil9" d="M13676 7578c-26,-20 -29,-35 -78,-17 -32,12 -46,28 -66,43 -32,-29 -39,-34 -116,18 -17,11 -33,25 -47,38 -11,10 -30,36 -41,44l-5 -37c-80,-36 -143,89 -167,156 -28,-37 -32,-171 -103,-80 -22,28 -31,39 -48,74 -8,17 -12,27 -17,44 -2,7 -5,16 -8,25l-11 22c-18,-16 -65,-78 -100,-63 -33,28 -18,113 -41,152 -7,-19 -16,-42 -34,-46 -25,-6 -34,19 -43,33 -23,34 -41,65 -55,109 -13,41 -51,243 -36,282 12,1 15,11 29,-32 30,-95 11,-210 99,-341 30,49 19,117 69,110 14,-26 7,-77 13,-113 6,-38 13,-75 20,-112 13,6 43,37 49,44 16,17 26,40 58,35 17,-24 40,-175 94,-201 13,44 26,112 57,136 37,13 45,-59 64,-100 15,-33 44,-80 71,-91 0,28 -10,66 6,89 44,43 59,-100 197,-163 19,24 11,60 54,53 28,-9 19,-86 92,-86 12,19 6,17 23,31 62,10 69,-67 135,-89l183 -41c123,-28 222,-4 324,-15 42,-5 61,-3 73,-43 -45,-16 -33,-10 -86,-7 -104,6 -200,-8 -304,13 -29,6 -54,14 -83,21 -98,26 -153,12 -219,104l-2 1z"/>
   <path class="fil9" d="M9621 2664c-26,10 -36,19 -45,50 -9,27 -4,60 2,89 15,62 25,92 50,147 23,48 48,74 79,113 20,25 68,87 123,65 44,-18 52,-89 47,-145 -12,-130 -156,-358 -256,-318l0 -1z"/>
   <path class="fil9" d="M9686 2317c-82,36 -13,230 27,276 31,35 106,218 196,174 36,-17 44,-95 31,-143 -23,-86 -149,-353 -254,-307z"/>
   <path class="fil10" d="M9096 3162c0,0 0,0 0,0z"/>
  </g>
 </g>
</svg>
