<?xml version="1.0" encoding="UTF-8"?>
<!DOCTYPE svg PUBLIC "-//W3C//DTD SVG 1.1//EN" "http://www.w3.org/Graphics/SVG/1.1/DTD/svg11.dtd">
<!-- Creator: CorelDRAW X6 -->
<svg xmlns="http://www.w3.org/2000/svg" xml:space="preserve" width="210mm" height="148mm" version="1.1" style="shape-rendering:geometricPrecision; text-rendering:geometricPrecision; image-rendering:optimizeQuality; fill-rule:evenodd; clip-rule:evenodd"
viewBox="0 0 21000 14800"
 xmlns:xlink="http://www.w3.org/1999/xlink">
 <defs>
  <style type="text/css">
   <![CDATA[
    .str0 {stroke:#6E2C0A;stroke-width:7.62}
    .fil12 {fill:#1F230C}
    .fil0 {fill:#5D692F}
    .fil9 {fill:#624233}
    .fil7 {fill:#632911}
    .fil4 {fill:#6E2C0A}
    .fil5 {fill:#712B07}
    .fil6 {fill:#AC8C66}
    .fil8 {fill:#C37209}
    .fil10 {fill:#CDD4C4}
    .fil11 {fill:white}
    .fil3 {fill:#1F230C;fill-rule:nonzero}
    .fil1 {fill:#343912;fill-rule:nonzero}
    .fil2 {fill:#575D27;fill-rule:nonzero}
   ]]>
  </style>
 </defs>
 <g id="Слой_x0020_1">
  <metadata id="CorelCorpID_0Corel-Layer"/>
  <g id="_818218912">
   <rect class="fil0" x="-640" y="-46" width="22500" height="13500"/>
   <path class="fil1" d="M11284 10740c-16,0 -29,-5 -38,-15 -9,-10 -14,-23 -14,-37l0 -1269c0,-58 20,-108 61,-149 41,-41 90,-61 149,-61 58,0 108,20 149,61 41,41 61,90 61,149l0 1306c0,10 -5,15 -15,15 -10,0 -15,-5 -15,-15l0 -1306c0,-50 -18,-92 -53,-127 -35,-35 -77,-53 -127,-53 -51,0 -94,18 -129,53 -35,35 -53,77 -53,127l0 1269c0,15 8,22 24,22 15,0 22,-7 22,-22l0 -665c0,-15 5,-27 15,-37 10,-10 23,-15 37,-15l164 0c10,0 15,5 15,15 0,10 -5,15 -15,15l-164 0c-15,0 -22,7 -22,22l0 665c0,15 -5,27 -15,37 -10,10 -23,15 -37,15z"/>
   <path class="fil1" d="M11056 10567c0,48 -17,89 -51,123 -34,34 -75,50 -121,50 -48,0 -89,-17 -123,-50 -34,-34 -50,-74 -50,-123l0 -582c0,-10 5,-15 15,-15 10,0 15,5 15,15l0 582c0,39 14,73 42,101 28,28 61,42 101,42 39,0 73,-14 101,-42 28,-28 42,-61 42,-101l0 -1149c0,-50 -18,-92 -53,-127 -35,-35 -77,-53 -127,-53l-158 0c-16,0 -24,7 -24,22l0 1464c0,10 -4,15 -13,15 -10,0 -15,-5 -15,-15l0 -1464c0,-15 5,-27 14,-37 9,-10 22,-15 38,-15l158 0c58,0 108,20 149,61 41,41 61,90 61,149l0 1149 -1 0z"/>
   <path class="fil1" d="M10448 9209c10,0 15,5 15,15l0 1474c0,12 -4,22 -12,30 -8,8 -18,12 -30,12 -9,0 -17,-3 -24,-9 -7,-6 -12,-13 -15,-22l-363 -1461c-1,-6 -5,-9 -11,-9 -7,0 -11,4 -11,11l0 1437c0,15 7,22 22,22 16,0 24,-7 24,-22l0 -702c0,-10 4,-15 13,-15 10,0 15,5 15,15l0 702c0,15 -5,27 -14,37 -9,10 -22,15 -38,15 -15,0 -27,-5 -37,-15 -10,-10 -15,-23 -15,-37l0 -1437c0,-12 4,-22 12,-30 8,-8 18,-12 30,-12 20,0 34,10 39,31l363 1464c1,4 5,7 11,7 7,0 11,-4 11,-11l0 -1474c0,-10 5,-15 15,-15l0 -1z"/>
   <path class="fil1" d="M9424 10740c-16,0 -29,-5 -38,-15 -9,-10 -14,-23 -14,-37l0 -1269c0,-58 20,-108 61,-149 41,-41 90,-61 149,-61 58,0 108,20 149,61 41,41 61,90 61,149l0 1306c0,10 -5,15 -15,15 -10,0 -15,-5 -15,-15l0 -1306c0,-50 -18,-92 -53,-127 -35,-35 -77,-53 -127,-53 -51,0 -94,18 -129,53 -35,35 -53,77 -53,127l0 1269c0,15 8,22 24,22 15,0 22,-7 22,-22l0 -665c0,-15 5,-27 15,-37 10,-10 23,-15 37,-15l164 0c10,0 15,5 15,15 0,10 -5,15 -15,15l-164 0c-15,0 -22,7 -22,22l0 665c0,15 -5,27 -15,37 -10,10 -23,15 -37,15z"/>
   <path class="fil1" d="M8987 9209c58,0 108,20 149,61 41,41 61,90 61,149l0 409c0,48 -17,89 -50,123 -34,34 -74,50 -123,50 -47,0 -87,-17 -121,-50 -34,-34 -51,-74 -51,-123l0 -409c0,-10 5,-15 15,-15 10,0 15,5 15,15l0 409c0,39 14,73 42,101 28,28 61,42 101,42 39,0 73,-14 102,-42 28,-28 43,-61 43,-101l0 -409c0,-50 -18,-92 -53,-127 -35,-35 -78,-53 -129,-53 -50,0 -92,18 -127,53 -35,35 -53,77 -53,127l0 1306c0,10 -5,15 -15,15 -10,0 -15,-5 -15,-15l0 -1306c0,-58 20,-108 61,-149 41,-41 90,-61 149,-61l-1 0z"/>
   <path class="fil1" d="M8188 10567c0,48 -17,89 -51,123 -34,34 -75,50 -121,50 -48,0 -89,-17 -123,-50 -34,-34 -50,-74 -50,-123l0 -582c0,-10 5,-15 15,-15 10,0 15,5 15,15l0 582c0,39 14,73 42,101 28,28 61,42 101,42 39,0 73,-14 101,-42 28,-28 42,-61 42,-101l0 -1149c0,-50 -18,-92 -53,-127 -35,-35 -77,-53 -127,-53l-158 0c-16,0 -24,7 -24,22l0 1464c0,10 -4,15 -13,15 -10,0 -15,-5 -15,-15l0 -1464c0,-15 5,-27 14,-37 9,-10 22,-15 38,-15l158 0c58,0 108,20 149,61 41,41 61,90 61,149l0 1149 -1 0z"/>
   <path class="fil1" d="M7226 9926c-15,0 -27,-5 -37,-15 -10,-10 -15,-23 -15,-37l0 -455c0,-58 20,-108 61,-149 41,-41 90,-61 149,-61l197 0c10,0 15,5 15,15 0,10 -5,15 -15,15l-197 0c-50,0 -92,18 -127,53 -35,35 -53,77 -53,127l0 455c0,15 7,22 22,22l195 0c15,0 27,5 37,15 10,10 15,23 15,37 0,15 -5,27 -15,37 -10,10 -23,15 -37,15l-195 0c-15,0 -22,8 -22,24l0 505c0,50 18,92 53,127 35,35 77,53 127,53l197 0c10,0 15,5 15,15 0,10 -5,15 -15,15l-197 0c-58,0 -108,-20 -149,-61 -41,-41 -61,-90 -61,-149l0 -505c0,-16 5,-29 15,-39 10,-10 23,-15 37,-15l195 0c15,0 22,-7 22,-22 0,-15 -7,-22 -22,-22l-195 0z"/>
   <path class="fil1" d="M6998 10721c3,9 0,15 -9,20 -9,1 -15,-1 -20,-9l-267 -689 -2 -2c-1,0 -3,0 -3,-1 -1,-1 -2,-1 -3,-1 -7,0 -11,4 -11,11l0 639c0,15 -5,27 -15,37 -10,10 -23,15 -37,15 -15,0 -27,-5 -37,-15 -10,-10 -15,-23 -15,-37l0 -1269c0,-58 20,-108 61,-149 41,-41 90,-61 149,-61 58,0 108,20 149,61 41,41 61,90 61,149l0 409c0,48 -17,89 -50,123 -34,34 -74,50 -123,50 -47,0 -87,-17 -121,-50 -34,-34 -51,-74 -51,-123l0 -409c0,-10 5,-15 15,-15 10,0 15,5 15,15l0 409c0,39 14,73 42,101 28,28 61,42 101,42 39,0 73,-14 101,-42 28,-28 42,-61 42,-101l0 -409c0,-50 -18,-92 -53,-127 -35,-35 -77,-53 -127,-53 -50,0 -92,18 -127,53 -35,35 -53,77 -53,127l0 1269c0,15 7,22 22,22 15,0 22,-7 22,-22l0 -639c0,-12 4,-22 12,-30 8,-8 18,-12 30,-12 19,0 31,7 35,22l269 691 -2 0z"/>
   <path class="fil2" d="M11261 10733c-16,0 -29,-5 -38,-15 -9,-10 -14,-23 -14,-37l0 -1269c0,-58 20,-108 61,-149 41,-41 90,-61 149,-61 58,0 108,20 149,61 41,41 61,90 61,149l0 1306c0,10 -5,15 -15,15 -10,0 -15,-5 -15,-15l0 -1306c0,-50 -18,-92 -53,-127 -35,-35 -77,-53 -127,-53 -51,0 -94,18 -129,53 -35,35 -53,77 -53,127l0 1269c0,15 8,22 24,22 15,0 22,-7 22,-22l0 -665c0,-15 5,-27 15,-37 10,-10 23,-15 37,-15l164 0c10,0 15,5 15,15 0,10 -5,15 -15,15l-164 0c-15,0 -22,7 -22,22l0 665c0,15 -5,27 -15,37 -10,10 -23,15 -37,15z"/>
   <path class="fil2" d="M11033 10560c0,48 -17,89 -51,123 -34,34 -75,50 -121,50 -48,0 -89,-17 -123,-50 -34,-34 -50,-74 -50,-123l0 -582c0,-10 5,-15 15,-15 10,0 15,5 15,15l0 582c0,39 14,73 42,101 28,28 61,42 101,42 39,0 73,-14 101,-42 28,-28 42,-61 42,-101l0 -1149c0,-50 -18,-92 -53,-127 -35,-35 -77,-53 -127,-53l-158 0c-16,0 -24,7 -24,22l0 1464c0,10 -4,15 -13,15 -10,0 -15,-5 -15,-15l0 -1464c0,-15 5,-27 14,-37 9,-10 22,-15 38,-15l158 0c58,0 108,20 149,61 41,41 61,90 61,149l0 1149 -1 0z"/>
   <path class="fil2" d="M10425 9201c10,0 15,5 15,15l0 1474c0,12 -4,22 -12,30 -8,8 -18,12 -30,12 -9,0 -17,-3 -24,-9 -7,-6 -12,-13 -15,-22l-363 -1461c-1,-6 -5,-9 -11,-9 -7,0 -11,4 -11,11l0 1437c0,15 7,22 22,22 16,0 24,-7 24,-22l0 -702c0,-10 4,-15 13,-15 10,0 15,5 15,15l0 702c0,15 -5,27 -14,37 -9,10 -22,15 -38,15 -15,0 -27,-5 -37,-15 -10,-10 -15,-23 -15,-37l0 -1437c0,-12 4,-22 12,-30 8,-8 18,-12 30,-12 20,0 34,10 39,31l363 1464c1,4 5,7 11,7 7,0 11,-4 11,-11l0 -1474c0,-10 5,-15 15,-15l0 -1z"/>
   <path class="fil2" d="M9401 10733c-16,0 -29,-5 -38,-15 -9,-10 -14,-23 -14,-37l0 -1269c0,-58 20,-108 61,-149 41,-41 90,-61 149,-61 58,0 108,20 149,61 41,41 61,90 61,149l0 1306c0,10 -5,15 -15,15 -10,0 -15,-5 -15,-15l0 -1306c0,-50 -18,-92 -53,-127 -35,-35 -77,-53 -127,-53 -51,0 -94,18 -129,53 -35,35 -53,77 -53,127l0 1269c0,15 8,22 24,22 15,0 22,-7 22,-22l0 -665c0,-15 5,-27 15,-37 10,-10 23,-15 37,-15l164 0c10,0 15,5 15,15 0,10 -5,15 -15,15l-164 0c-15,0 -22,7 -22,22l0 665c0,15 -5,27 -15,37 -10,10 -23,15 -37,15z"/>
   <path class="fil2" d="M8964 9201c58,0 108,20 149,61 41,41 61,90 61,149l0 409c0,48 -17,89 -50,123 -34,34 -74,50 -123,50 -47,0 -87,-17 -121,-50 -34,-34 -51,-74 -51,-123l0 -409c0,-10 5,-15 15,-15 10,0 15,5 15,15l0 409c0,39 14,73 42,101 28,28 61,42 101,42 39,0 73,-14 102,-42 28,-28 43,-61 43,-101l0 -409c0,-50 -18,-92 -53,-127 -35,-35 -78,-53 -129,-53 -50,0 -92,18 -127,53 -35,35 -53,77 -53,127l0 1306c0,10 -5,15 -15,15 -10,0 -15,-5 -15,-15l0 -1306c0,-58 20,-108 61,-149 41,-41 90,-61 149,-61l-1 0z"/>
   <path class="fil3" d="M8165 10560c0,48 -17,89 -51,123 -34,34 -75,50 -121,50 -48,0 -89,-17 -123,-50 -34,-34 -50,-74 -50,-123l0 -582c0,-10 5,-15 15,-15 10,0 15,5 15,15l0 582c0,39 14,73 42,101 28,28 61,42 101,42 39,0 73,-14 101,-42 28,-28 42,-61 42,-101l0 -1149c0,-50 -18,-92 -53,-127 -35,-35 -77,-53 -127,-53l-158 0c-16,0 -24,7 -24,22l0 1464c0,10 -4,15 -13,15 -10,0 -15,-5 -15,-15l0 -1464c0,-15 5,-27 14,-37 9,-10 22,-15 38,-15l158 0c58,0 108,20 149,61 41,41 61,90 61,149l0 1149 -1 0z"/>
   <path class="fil3" d="M7203 9919c-15,0 -27,-5 -37,-15 -10,-10 -15,-23 -15,-37l0 -455c0,-58 20,-108 61,-149 41,-41 90,-61 149,-61l197 0c10,0 15,5 15,15 0,10 -5,15 -15,15l-197 0c-50,0 -92,18 -127,53 -35,35 -53,77 -53,127l0 455c0,15 7,22 22,22l195 0c15,0 27,5 37,15 10,10 15,23 15,37 0,15 -5,27 -15,37 -10,10 -23,15 -37,15l-195 0c-15,0 -22,8 -22,24l0 505c0,50 18,92 53,127 35,35 77,53 127,53l197 0c10,0 15,5 15,15 0,10 -5,15 -15,15l-197 0c-58,0 -108,-20 -149,-61 -41,-41 -61,-90 -61,-149l0 -505c0,-16 5,-29 15,-39 10,-10 23,-15 37,-15l195 0c15,0 22,-7 22,-22 0,-15 -7,-22 -22,-22l-195 0z"/>
   <path class="fil3" d="M6975 10713c3,9 0,15 -9,20 -9,1 -15,-1 -20,-9l-267 -689 -2 -2c-1,0 -3,0 -3,-1 -1,-1 -2,-1 -3,-1 -7,0 -11,4 -11,11l0 639c0,15 -5,27 -15,37 -10,10 -23,15 -37,15 -15,0 -27,-5 -37,-15 -10,-10 -15,-23 -15,-37l0 -1269c0,-58 20,-108 61,-149 41,-41 90,-61 149,-61 58,0 108,20 149,61 41,41 61,90 61,149l0 409c0,48 -17,89 -50,123 -34,34 -74,50 -123,50 -47,0 -87,-17 -121,-50 -34,-34 -51,-74 -51,-123l0 -409c0,-10 5,-15 15,-15 10,0 15,5 15,15l0 409c0,39 14,73 42,101 28,28 61,42 101,42 39,0 73,-14 101,-42 28,-28 42,-61 42,-101l0 -409c0,-50 -18,-92 -53,-127 -35,-35 -77,-53 -127,-53 -50,0 -92,18 -127,53 -35,35 -53,77 -53,127l0 1269c0,15 7,22 22,22 15,0 22,-7 22,-22l0 -639c0,-12 4,-22 12,-30 8,-8 18,-12 30,-12 19,0 31,7 35,22l269 691 -2 0z"/>
   <path class="fil3" d="M7172 9917c-15,0 -27,-5 -37,-15 -10,-10 -15,-23 -15,-37l0 -455c0,-58 20,-108 61,-149 41,-41 90,-61 149,-61l197 0c10,0 15,5 15,15 0,10 -5,15 -15,15l-197 0c-50,0 -92,18 -127,53 -35,35 -53,77 -53,127l0 455c0,15 7,22 22,22l195 0c15,0 27,5 37,15 10,10 15,23 15,37 0,15 -5,27 -15,37 -10,10 -23,15 -37,15l-195 0c-15,0 -22,8 -22,24l0 505c0,50 18,92 53,127 35,35 77,53 127,53l197 0c10,0 15,5 15,15 0,10 -5,15 -15,15l-197 0c-58,0 -108,-20 -149,-61 -41,-41 -61,-90 -61,-149l0 -505c0,-16 5,-29 15,-39 10,-10 23,-15 37,-15l195 0c15,0 22,-7 22,-22 0,-15 -7,-22 -22,-22l-195 0z"/>
   <path class="fil3" d="M6952 10713c3,9 0,15 -9,20 -9,1 -15,-1 -20,-9l-267 -689 -2 -2c-1,0 -3,0 -3,-1 -1,-1 -2,-1 -3,-1 -7,0 -11,4 -11,11l0 639c0,15 -5,27 -15,37 -10,10 -23,15 -37,15 -15,0 -27,-5 -37,-15 -10,-10 -15,-23 -15,-37l0 -1269c0,-58 20,-108 61,-149 41,-41 90,-61 149,-61 58,0 108,20 149,61 41,41 61,90 61,149l0 409c0,48 -17,89 -50,123 -34,34 -74,50 -123,50 -47,0 -87,-17 -121,-50 -34,-34 -51,-74 -51,-123l0 -409c0,-10 5,-15 15,-15 10,0 15,5 15,15l0 409c0,39 14,73 42,101 28,28 61,42 101,42 39,0 73,-14 101,-42 28,-28 42,-61 42,-101l0 -409c0,-50 -18,-92 -53,-127 -35,-35 -77,-53 -127,-53 -50,0 -92,18 -127,53 -35,35 -53,77 -53,127l0 1269c0,15 7,22 22,22 15,0 22,-7 22,-22l0 -639c0,-12 4,-22 12,-30 8,-8 18,-12 30,-12 19,0 31,7 35,22l269 691 -2 0z"/>
   <path class="fil3" d="M8137 10560c0,48 -17,89 -51,123 -34,34 -75,50 -121,50 -48,0 -89,-17 -123,-50 -34,-34 -50,-74 -50,-123l0 -582c0,-10 5,-15 15,-15 10,0 15,5 15,15l0 582c0,39 14,73 42,101 28,28 61,42 101,42 39,0 73,-14 101,-42 28,-28 42,-61 42,-101l0 -1149c0,-50 -18,-92 -53,-127 -35,-35 -77,-53 -127,-53l-158 0c-16,0 -24,7 -24,22l0 1464c0,10 -4,15 -13,15 -10,0 -15,-5 -15,-15l0 -1464c0,-15 5,-27 14,-37 9,-10 22,-15 38,-15l158 0c58,0 108,20 149,61 41,41 61,90 61,149l0 1149 -1 0z"/>
   <path class="fil4 str0" d="M12023 8838l2665 0 0 -48c-16,-16 -53,-98 -74,-130 -27,-40 -45,-93 -73,-132 -19,-27 -36,-49 -55,-78 -36,-54 -68,-112 -110,-160 -41,-46 -79,-103 -117,-153l-113 -157c-35,-55 -78,-102 -121,-149 -109,-123 -239,-209 -369,-308 -77,-58 -162,-105 -242,-161 -54,-38 -105,-69 -158,-112 -25,-21 -50,-40 -74,-63 -81,-77 -132,-108 -196,-207 -33,-52 -68,-116 -95,-175 -41,-91 -82,-197 -109,-298 -10,-39 -12,-71 -39,-93 -34,0 -60,38 -66,71 -7,40 -17,75 -26,112 -18,72 -22,91 -52,154 -62,129 -30,89 -125,218 -77,105 -272,215 -354,331 -210,298 -43,412 -28,507 -27,-12 -46,-57 -61,-82 -17,-29 -28,-64 -38,-100 -24,-86 -9,-155 23,-227 23,-53 99,-179 137,-215 47,-44 27,-38 106,-99 104,-81 134,-103 211,-208 40,-54 66,-122 95,-184 48,-105 36,-309 48,-368 14,-71 40,-149 78,-200 150,-208 336,-189 569,-267 61,-20 138,-59 192,-87 61,-32 128,-60 185,-94 201,-119 167,-113 314,-243l110 -100c60,-53 118,-114 161,-186 33,-56 75,-113 101,-177 28,-66 44,-141 71,-208 32,-79 26,-153 -1,-237 -19,-59 -77,-133 -114,-165l-77 -65c-43,-37 -201,-146 -246,-170 -122,-64 -242,-129 -372,-185 -69,-29 -131,-46 -209,-69 -72,-21 -147,-41 -223,-56 -126,-25 -257,-23 -386,-36 -146,-15 -96,-21 -231,27 -88,32 -173,75 -247,130l-17 17c35,30 83,48 121,76 84,63 114,82 -1,193 -47,46 -72,68 -104,140 -61,134 -41,180 12,309 36,89 106,153 184,205 115,77 290,182 425,86 19,-14 36,-25 44,-55 17,-65 -18,-88 -52,-135 -93,-132 -154,-285 -35,-423 88,-102 223,-122 375,-113 164,9 324,50 458,132 39,24 75,60 109,88 35,29 68,57 84,113 15,58 10,113 -12,163 -21,50 -52,84 -85,113 -147,132 -803,348 -992,384 -31,6 -59,6 -89,10 -73,10 -164,42 -230,66 -56,21 -220,110 -252,143 -145,147 -181,351 -236,548 -22,80 -33,169 -43,253 -4,34 0,64 -2,97 -7,114 24,271 -5,371 -34,118 -60,196 -138,256 -83,64 -142,94 -261,129 -115,33 -179,40 -283,111 -128,88 -212,232 -177,399 7,32 44,115 60,137 42,60 87,109 132,164 8,10 36,33 51,44 17,13 32,30 52,46l104 93c71,68 212,238 270,321 17,25 22,35 41,57 44,51 84,116 125,170 8,11 11,20 19,32 19,27 31,69 46,99 12,23 25,39 34,61l3 2z"/>
   <path class="fil5" d="M11551 4389c1,59 109,138 144,170 59,55 100,109 128,189 26,74 45,188 43,272 -2,64 -18,231 -53,265 -66,15 -167,-119 -206,-148 1,22 11,49 16,75 14,80 24,172 8,252 -11,56 -23,94 -47,137 -18,32 -81,150 -119,156 -34,5 -42,-19 -52,-42 -32,-72 -121,-237 -199,-260 -30,-9 -38,16 -55,35 -30,32 -46,68 -74,106 -50,65 -136,115 -207,161 -89,58 -206,49 -237,131 -51,134 38,312 169,362 101,38 198,52 317,47 130,-5 308,-74 422,-130 45,-22 83,-36 121,-63 77,-55 141,-106 202,-166 61,-60 111,-114 153,-211 41,-94 64,-158 126,-242 64,-86 113,-110 208,-160 41,-21 79,-41 126,-58 23,-8 132,-39 140,-44 -64,-36 -81,-9 -223,-128 -80,-67 -102,-59 -180,-175 -34,-51 -56,-97 -74,-166 -24,-87 -39,-225 -1,-310 14,-32 14,-55 32,-88 49,-89 94,-131 171,-184l70 -49c-10,-67 -150,-107 -188,-151 -24,-27 19,-50 36,-63 140,-102 256,-117 308,-147 -27,-22 -141,-23 -215,-112 -78,-95 -114,-218 -154,-335 -26,-77 -72,-145 -114,-212 -27,-43 -96,-104 -38,-100 7,0 11,3 21,4 -44,-44 -148,-135 -204,-158 -32,-13 -68,-20 -58,-61l31 -5c-30,-20 -67,-39 -101,-60 -34,-21 -65,-42 -99,-64 -33,-20 -63,-41 -108,-55 -32,-10 -114,-17 -98,-60 25,-22 67,-8 100,-5l-10 -8c-28,-19 -61,-32 -91,-46 -74,-33 -156,-56 -238,-70 -37,-6 -103,-12 -115,-43 12,-36 82,-25 122,-28 -114,-52 -273,-71 -401,-84 -22,-2 -130,0 -127,-34 7,-20 29,-19 52,-24 11,-2 21,-4 32,-6l35 -9c-52,-23 -273,-30 -348,-30 -36,0 -90,11 -115,-4l-1 -19c21,-13 62,-28 89,-40 -91,-14 -274,12 -371,22 -60,6 -124,1 -186,9 -112,14 -217,35 -324,76 -100,38 -177,65 -235,159 -23,37 -55,105 -16,146 44,46 79,41 156,42 60,1 129,-4 187,-11 127,-17 240,-28 370,-19 260,17 693,132 885,306 52,47 96,100 145,150 58,58 81,107 121,179 18,33 52,105 57,144 16,117 42,240 31,363 -4,49 -41,115 -18,160 23,45 192,96 258,136 50,30 73,54 116,86 56,41 184,140 198,200 15,63 -109,118 -161,131 -28,7 -59,8 -86,17l1 -1z"/>
   <path class="fil6" d="M7294 3479c74,-11 119,-41 206,-25 174,31 103,196 91,336 -10,110 -20,292 -110,361 -32,24 -122,59 -164,72 -34,10 -63,14 -102,13 -52,-2 -63,4 -65,56 -3,71 10,146 46,190 43,54 163,34 267,80 128,56 112,50 232,124 49,31 95,58 150,86 122,64 207,101 359,113 76,6 147,6 219,-12 62,-15 111,-57 147,-89 59,-51 147,-225 161,-306 10,-58 2,-155 -13,-210 -39,-143 -229,-278 -233,-473 -1,-51 40,-136 60,-175 14,-28 30,-46 34,-82 4,-41 1,-75 -19,-102 -18,-25 -39,-33 -55,-61 -18,-34 1,-64 -1,-98 -2,-25 -25,-65 -38,-77 -118,-105 -433,1 -559,61 -87,41 -180,57 -277,78 -49,10 -218,68 -260,92 -16,10 -64,36 -75,48l-1 0z"/>
   <path class="fil7" d="M9300 5701c34,37 104,72 139,98 45,33 88,72 145,95 53,21 119,47 178,61 38,9 73,4 108,13 98,25 156,17 260,95 23,17 44,35 67,53l123 117c23,27 36,30 68,52 27,18 120,84 149,89 5,-44 -4,-78 -12,-119 -18,-100 -31,-270 -6,-366 56,-210 124,-53 344,-192 30,-19 51,-35 79,-54 80,-53 83,-66 130,-136l113 -157c59,-72 117,-185 124,-282 6,-76 -14,-163 -42,-224 -21,-44 -82,-122 -113,-157 -57,-66 -230,-189 -311,-230 -58,-29 -116,-58 -175,-90 -154,-83 -243,-90 -407,-133 -37,-10 -71,-17 -107,-25 -42,-10 -70,-23 -106,-34 9,30 29,50 40,83 51,154 38,119 108,260 28,56 53,112 88,156 28,35 98,71 141,103 34,26 102,85 117,128 26,74 27,129 -2,197 -34,82 -42,96 -42,200 0,63 -19,159 -43,208 -36,72 -64,79 -120,124 -24,19 -38,33 -71,49 -86,40 -200,85 -295,57 -66,-20 -184,-91 -229,-139 -112,-119 -250,-83 -217,-15 11,22 87,138 -18,157 -71,12 -147,-25 -206,-41l1 -1z"/>
   <path class="fil8" d="M9757 4059c-95,21 -115,32 -170,85 -27,26 -36,31 -54,75 -45,109 -22,187 23,307 44,117 117,179 145,365 14,97 13,137 -12,227 -24,88 -40,116 -92,165 -49,47 -95,71 -190,64 -184,-14 -259,-68 -433,-77 -72,-4 -158,3 -226,21 -79,22 -114,79 -53,141 74,74 204,79 288,94 114,22 195,95 264,121 33,13 57,26 90,39 98,36 270,78 169,-87 -49,-80 57,-113 131,-96 63,14 113,77 149,104 26,20 130,88 159,98 130,44 279,-12 382,-95 49,-40 89,-52 120,-137 28,-79 26,-140 31,-227 6,-101 34,-115 57,-195 19,-65 -9,-150 -52,-193 -180,-181 -166,-46 -305,-329 -15,-30 -30,-57 -44,-85 -73,-149 -63,-251 -186,-328 -43,-27 -125,-72 -191,-58l0 1z"/>
   <path class="fil9" d="M7173 4587c-129,34 -148,165 -104,277 36,90 58,131 119,199 13,15 40,34 58,49 83,71 10,20 118,92 57,38 240,99 315,109 76,9 126,1 196,-12 203,-39 148,-297 33,-396 -19,-16 -38,-35 -58,-49 -20,-14 -47,-25 -69,-38 -48,-27 -86,-53 -132,-78 -47,-26 -83,-57 -134,-80 -51,-23 -92,-49 -150,-60 -50,-10 -138,-25 -192,-12l0 -1z"/>
   <path class="fil8" d="M9182 2825c-121,16 -258,80 -332,171 -18,22 -58,80 -64,107 -14,61 -21,89 10,135 21,32 50,66 111,54 54,-10 79,-29 114,-53 89,-59 289,-97 397,-108 46,-5 177,-9 209,-44 9,-10 29,-40 23,-63 -5,-15 -33,-27 -51,-32 -51,-13 -149,-16 -209,-44 -44,-21 -65,-65 -82,-86 -26,-30 -72,-45 -126,-38l0 1z"/>
   <path class="fil9" d="M6910 3686c45,-7 37,1 73,5 33,4 32,-19 48,-36 20,-22 85,-58 119,-59 -4,5 -2,3 -7,7 -12,9 -131,64 -93,137 3,5 56,55 63,61 24,19 73,13 107,22 60,16 72,93 130,123 67,35 147,-18 176,76 7,-8 4,-2 8,-14 13,-35 55,-284 58,-312 9,-93 52,-227 -129,-237 -96,-5 -235,50 -303,88 -74,41 -65,-6 -157,35 -44,20 -84,50 -92,104l-1 0z"/>
   <path class="fil6" d="M8988 3434l15 6c21,4 27,0 67,10 32,8 49,14 74,29 77,46 105,82 166,134l57 46c16,13 42,37 74,27 63,-17 89,-132 22,-206 -27,-29 -88,-51 -134,-67 -55,-20 -116,-23 -179,-23 -83,0 -102,18 -163,44l1 0z"/>
   <path class="fil8" d="M8285 2911c28,-13 237,-169 279,-201 53,-41 101,-104 137,-138 13,-12 22,-21 34,-35l102 -104c8,-8 30,-25 37,-34 -46,12 -50,23 -107,28 -31,3 -79,23 -103,34 -78,34 -102,72 -148,126 -98,117 -123,167 -200,280 -10,15 -24,29 -29,43l-2 1z"/>
   <path class="fil6" d="M6970 4150c-25,48 -31,367 9,429 75,118 180,-126 142,-261 -15,-52 -62,-107 -109,-128 -10,-5 -16,-8 -23,-16l-19 -24z"/>
   <path class="fil10" d="M8646 3627c0,85 172,141 254,165 68,20 118,19 191,9 40,-5 97,-33 128,-54 15,-11 10,-5 16,-19 -29,2 -46,16 -75,24 -133,39 -271,49 -398,-19 -22,-12 -37,-24 -58,-37 -114,-67 -4,-80 26,-91 204,-78 249,-176 430,-43l98 82c15,14 16,21 44,23 -11,-50 -86,-114 -121,-138 -192,-134 -232,-48 -358,18 -57,30 -132,45 -176,80l-1 0z"/>
   <path class="fil4 str0" d="M7124 4059c53,-30 95,-47 174,-31 27,6 59,14 85,22 47,15 44,8 67,46 17,-17 19,-45 17,-70 -38,-28 -156,-18 -233,-62 -39,-22 -123,-133 -110,95z"/>
   <path class="fil11" d="M8843 3634c7,-2 146,-19 153,-18 48,5 50,79 25,123 131,-6 103,-126 37,-157 -69,-32 -201,-6 -215,52z"/>
   <path class="fil4 str0" d="M6940 3868c62,-3 80,6 102,52 17,34 34,73 46,109 5,-58 -6,-95 -22,-143 -4,-13 -7,-30 -12,-43 -7,-20 -33,-51 -46,-65 -20,-23 -33,-44 -78,-39 -24,35 -9,96 10,129z"/>
   <path class="fil10" d="M9161 3722c25,-4 68,-21 78,-39 -11,-13 -41,-36 -59,-45 5,51 -3,48 -19,84z"/>
   <path class="fil12" d="M7173 4587c53,-14 142,2 192,12 59,12 100,38 150,60 52,23 87,54 134,80 45,25 84,52 132,78 23,13 50,23 69,38 20,15 39,33 58,49 115,98 170,356 -33,396 -70,13 -120,22 -196,12 -75,-9 -258,-70 -315,-109 -108,-72 -35,-21 -118,-92 -18,-15 -45,-34 -58,-49 -61,-68 -83,-108 -119,-199 -44,-111 -26,-243 104,-277l0 1zm-185 -413c7,7 13,11 23,16 46,21 94,76 109,128 38,135 -67,379 -142,261 -39,-62 -34,-380 -9,-429l19 24zm2768 -115c66,-14 148,31 191,58 123,77 113,179 186,328 13,28 29,55 44,85 139,283 125,148 305,329 43,43 71,128 52,193 -23,80 -51,94 -57,195 -6,87 -4,148 -31,227 -30,85 -70,98 -120,137 -103,83 -253,139 -382,95 -29,-10 -133,-78 -159,-98 -36,-27 -85,-90 -149,-104 -74,-17 -180,16 -131,96 101,165 -70,123 -169,87 -33,-12 -57,-26 -90,-39 -69,-27 -150,-100 -264,-121 -84,-16 -214,-21 -288,-94 -61,-61 -27,-119 53,-141 67,-18 153,-25 226,-21 173,9 248,63 433,77 95,7 141,-18 190,-64 52,-49 68,-77 92,-165 25,-91 27,-130 12,-227 -27,-187 -101,-248 -145,-365 -45,-120 -67,-199 -23,-307 18,-43 27,-49 54,-75 55,-53 75,-64 170,-85l0 -1zm-456 1642c59,16 135,54 206,41 105,-18 28,-135 18,-157 -34,-68 104,-104 217,15 45,48 163,119 229,139 95,29 209,-16 295,-57 33,-16 47,-30 71,-49 56,-45 84,-51 120,-124 24,-48 43,-145 43,-208 0,-104 8,-118 42,-200 29,-68 28,-123 2,-197 -15,-43 -82,-102 -117,-128 -43,-33 -113,-68 -141,-103 -35,-44 -60,-100 -88,-156 -70,-141 -57,-106 -108,-260 -11,-33 -31,-53 -40,-83 36,10 64,24 106,34 37,9 70,16 107,25 164,43 253,49 407,133 60,32 117,61 175,90 81,41 253,163 311,230 31,35 92,113 113,157 28,60 48,148 42,224 -8,98 -65,210 -124,282l-113 157c-47,70 -50,82 -130,136 -28,19 -49,35 -79,54 -220,139 -288,-18 -344,192 -25,95 -12,266 6,366 7,41 17,76 12,119 -30,-5 -122,-71 -149,-89 -33,-22 -45,-25 -68,-52l-123 -117c-23,-19 -44,-36 -67,-53 -104,-79 -163,-71 -260,-95 -35,-9 -70,-4 -108,-13 -59,-14 -125,-40 -178,-61 -57,-23 -100,-62 -145,-95 -35,-26 -104,-61 -139,-98l-1 1zm-2176 -1642c-13,-229 71,-117 110,-95 77,43 195,34 233,62 2,26 0,53 -17,70 -23,-37 -19,-31 -67,-46 -26,-8 -58,-16 -85,-22 -79,-16 -121,1 -174,31zm-194 -320c45,-5 58,16 78,39 13,15 39,46 46,65 5,14 7,30 12,43 16,47 27,84 22,143 -12,-36 -29,-75 -46,-109 -23,-45 -40,-54 -102,-52 -19,-33 -34,-95 -10,-129zm2230 -16c16,-35 23,-33 19,-84 18,9 48,32 59,45 -10,18 -53,35 -78,39zm-317 -87c14,-58 147,-84 215,-52 66,31 94,151 -37,157 25,-44 22,-119 -25,-123 -7,-1 -145,16 -153,18zm-1933 52c8,-54 47,-85 92,-104 93,-41 84,5 157,-35 69,-38 208,-93 303,-88 181,10 138,144 129,237 -3,28 -45,277 -58,312 -4,12 -1,6 -8,14 -29,-94 -108,-41 -176,-76 -58,-30 -70,-107 -130,-123 -34,-9 -83,-3 -107,-22 -8,-6 -61,-56 -63,-61 -37,-73 82,-128 93,-137 6,-5 3,-2 7,-7 -34,2 -98,38 -119,59 -17,18 -16,40 -48,36 -36,-4 -28,-12 -73,-5l1 0zm1736 -59c45,-35 119,-50 176,-80 127,-66 166,-152 358,-18 35,25 110,88 121,138 -28,-2 -29,-9 -44,-23l-98 -82c-180,-133 -225,-35 -430,43 -30,12 -140,25 -26,91 21,12 36,25 58,37 127,69 264,58 398,19 29,-8 46,-23 75,-24 -6,14 0,8 -16,19 -32,22 -88,49 -128,54 -73,10 -123,11 -191,-9 -81,-24 -254,-80 -254,-165l1 0zm342 -193c61,-25 80,-44 163,-44 63,0 124,4 179,23 46,16 107,38 134,67 67,73 40,188 -22,206 -33,9 -58,-14 -74,-27l-57 -46c-61,-52 -89,-88 -166,-134 -25,-15 -42,-21 -74,-29 -40,-10 -46,-6 -67,-10l-15 -6 -1 0zm-1694 44c11,-13 59,-39 75,-48 41,-24 211,-81 260,-92 97,-21 191,-37 277,-78 125,-60 440,-167 559,-61 13,12 37,52 38,77 2,34 -18,64 1,98 16,29 37,36 55,61 20,27 23,61 19,102 -4,37 -20,54 -34,82 -20,39 -61,124 -60,175 4,196 194,331 233,473 15,55 22,152 13,210 -14,82 -102,256 -161,306 -36,31 -85,73 -147,89 -72,18 -142,17 -219,12 -152,-12 -236,-49 -359,-113 -54,-28 -100,-55 -150,-86 -119,-74 -104,-68 -232,-124 -105,-46 -224,-26 -267,-80 -36,-45 -49,-119 -46,-190 2,-52 13,-58 65,-56 39,2 68,-3 102,-13 42,-12 132,-47 164,-72 90,-70 100,-251 110,-361 12,-139 83,-305 -91,-336 -87,-15 -132,14 -206,25l1 0zm1888 -654c54,-7 100,7 126,38 17,20 37,65 82,86 60,28 157,31 209,44 18,4 47,16 51,32 7,24 -13,53 -23,63 -31,35 -163,39 -209,44 -109,12 -308,50 -397,108 -36,24 -60,42 -114,53 -60,12 -90,-23 -111,-54 -31,-46 -24,-74 -10,-135 6,-27 46,-85 64,-107 74,-91 211,-155 332,-171l0 -1zm-897 86c6,-14 19,-28 29,-43 76,-113 102,-163 200,-280 46,-55 71,-92 148,-126 25,-11 72,-31 103,-34 57,-5 62,-16 107,-28 -7,10 -29,26 -37,34l-102 104c-12,14 -21,22 -34,35 -36,34 -83,97 -137,138 -42,32 -251,188 -279,201l2 -1zm3266 1479c26,-9 57,-10 86,-17 53,-13 176,-68 161,-131 -15,-60 -143,-159 -198,-200 -43,-31 -66,-55 -116,-86 -66,-40 -235,-91 -258,-136 -23,-45 14,-110 18,-160 11,-124 -15,-246 -31,-363 -5,-39 -39,-111 -57,-144 -40,-72 -63,-121 -121,-179 -50,-50 -93,-103 -145,-150 -192,-174 -625,-289 -885,-306 -130,-8 -243,3 -370,19 -58,8 -127,12 -187,11 -77,-1 -112,4 -156,-42 -39,-41 -7,-109 16,-146 59,-94 135,-121 235,-159 107,-41 212,-61 324,-76 61,-8 126,-3 186,-9 96,-10 279,-36 371,-22 -28,11 -68,27 -89,40l1 19c26,15 79,4 115,4 76,0 296,7 348,30l-35 9c-11,2 -21,4 -32,6 -23,5 -45,4 -52,24 -2,34 105,32 127,34 128,13 287,32 401,84 -40,3 -110,-8 -122,28 12,31 78,37 115,43 82,14 164,37 238,70 31,14 64,27 91,46l10 8c-33,-3 -75,-17 -100,5 -15,42 66,50 98,60 45,14 75,35 108,55 34,21 66,43 99,64 33,21 71,40 101,60l-31 5c-9,41 26,47 58,61 55,23 160,114 204,158 -9,-1 -14,-3 -21,-4 -58,-3 11,57 38,100 42,67 87,135 114,212 40,117 76,240 154,335 73,90 187,90 215,112 -52,30 -168,45 -308,147 -17,12 -59,35 -36,63 38,44 178,84 188,151l-70 49c-77,54 -122,96 -171,184 -18,33 -18,56 -32,88 -37,86 -22,224 1,310 19,68 40,115 74,166 78,117 101,108 180,175 142,119 159,92 223,128 -8,5 -117,35 -140,44 -47,17 -86,37 -126,58 -95,50 -144,74 -208,160 -63,84 -85,148 -126,242 -42,98 -93,151 -153,211 -61,61 -125,112 -202,166 -38,27 -76,41 -121,63 -115,56 -293,125 -422,130 -119,5 -216,-9 -317,-47 -132,-50 -221,-228 -169,-362 31,-82 148,-73 237,-131 71,-46 157,-96 207,-161 29,-37 45,-74 74,-106 17,-18 25,-43 55,-35 78,23 167,188 199,260 10,23 18,47 52,42 38,-6 101,-124 119,-156 24,-44 36,-81 47,-137 16,-80 6,-172 -8,-252 -4,-25 -14,-53 -16,-75 38,30 140,163 206,148 34,-34 51,-200 53,-265 3,-84 -16,-198 -43,-272 -28,-79 -69,-134 -128,-189 -34,-32 -143,-111 -144,-170l-1 1zm-5019 4448l5491 0c-9,-22 -22,-38 -34,-61 -16,-30 -27,-72 -46,-99 -8,-12 -11,-21 -19,-32 -41,-54 -81,-119 -125,-170 -19,-22 -24,-32 -41,-57 -58,-84 -199,-253 -270,-321l-104 -93c-20,-16 -36,-33 -52,-46 -14,-11 -42,-33 -51,-44 -45,-55 -90,-104 -132,-164 -16,-22 -53,-105 -60,-137 -35,-167 49,-310 177,-399 104,-72 168,-78 283,-111 119,-35 178,-65 261,-129 78,-60 104,-138 138,-256 29,-100 -2,-258 5,-371 2,-33 -2,-63 2,-97 10,-84 21,-173 43,-253 54,-197 91,-401 236,-548 32,-32 196,-122 252,-143 65,-24 157,-57 230,-66 30,-4 58,-4 89,-10 189,-36 845,-251 992,-384 32,-29 64,-63 85,-113 21,-51 27,-106 12,-163 -15,-56 -49,-84 -84,-113 -34,-29 -70,-64 -109,-88 -134,-82 -294,-123 -458,-132 -152,-9 -287,11 -375,113 -119,138 -58,291 35,423 33,47 69,70 52,135 -8,30 -24,41 -44,55 -135,97 -310,-9 -425,-86 -79,-52 -148,-117 -184,-205 -53,-129 -73,-175 -12,-309 33,-72 57,-94 104,-140 115,-111 84,-131 1,-193 -37,-28 -86,-46 -121,-76l17 -17c74,-55 159,-98 247,-130 135,-49 85,-42 231,-27 129,13 260,11 386,36 76,15 150,35 223,56 79,23 141,40 209,69 131,56 250,121 372,185 45,24 203,133 246,170l77 65c37,32 95,105 114,165 27,84 33,158 1,237 -27,66 -43,142 -71,208 -27,64 -68,121 -101,177 -43,73 -101,134 -161,186l-110 100c-147,130 -113,124 -314,243 -57,34 -124,62 -185,94 -54,28 -131,66 -192,87 -233,78 -419,59 -569,267 -37,52 -64,129 -78,200 -12,59 0,264 -48,368 -28,62 -55,130 -95,184 -78,105 -107,128 -211,208 -80,62 -60,55 -106,99 -38,36 -114,162 -137,215 -32,72 -47,141 -23,227 10,36 20,71 38,100 15,26 34,70 61,82 -15,-95 -182,-209 28,-507 82,-117 278,-226 354,-331 94,-129 63,-89 125,-218 30,-63 34,-82 52,-154 9,-37 19,-72 26,-112 6,-32 32,-71 66,-71 27,22 29,54 39,93 27,101 68,206 109,298 27,59 62,123 95,175 64,99 115,130 196,207 24,23 49,42 74,63 52,43 103,75 158,112 80,56 165,103 242,161 130,98 260,185 369,308 43,48 86,94 121,149l113 157c38,50 76,107 117,153 42,47 75,105 110,160 19,29 36,51 55,78 28,39 46,92 73,132 21,32 58,114 74,130l0 -188c-7,-14 -12,-51 -21,-73 -46,-108 -89,-205 -152,-306 -31,-49 -156,-226 -195,-268 -15,-16 -24,-34 -37,-53 -76,-107 -164,-205 -251,-302 -19,-21 -31,-28 -49,-45l-141 -133c-30,-30 -71,-57 -99,-85 -62,-63 -320,-295 -387,-345 -89,-67 -186,-119 -268,-194 -53,-48 -91,-74 -130,-144 -36,-64 -88,-195 -80,-283 5,-53 17,-106 39,-147 22,-40 46,-84 73,-112 64,-67 138,-113 230,-139 94,-26 183,-65 262,-107 119,-63 249,-117 355,-198 106,-81 187,-179 288,-261 69,-57 120,-126 169,-199 86,-128 194,-345 188,-548 -2,-58 -18,-99 -42,-141 -11,-19 -20,-44 -30,-64 -40,-76 -158,-184 -229,-230 -36,-24 -76,-51 -108,-77 -107,-85 -485,-261 -618,-299 -98,-28 -190,-51 -293,-75 -206,-48 -461,-9 -658,-79 -165,-59 -171,-197 -206,-346 -13,-52 -31,-89 -48,-136 -18,-49 -45,-79 -70,-114 -69,-92 -6,-57 -68,-108 -48,-40 -150,-141 -204,-161 7,-29 9,-36 -14,-54 -39,-31 -93,-56 -136,-83 -30,-19 -58,-36 -90,-56l-70 -41c-5,-2 -7,-3 -12,-6l-11 -8c16,2 107,36 85,-10 -9,-19 -200,-110 -218,-118 -114,-51 -187,-47 -277,-77 38,-4 82,4 106,-14 1,-28 -17,-31 -39,-42 -21,-10 -36,-15 -59,-22 -85,-24 -171,-44 -260,-57 -23,-3 -131,-13 -141,-17 47,-21 179,-10 195,-18 3,-30 -19,-27 -48,-31 -117,-20 -226,-36 -345,-45 -49,-4 -102,0 -150,-5 12,-8 30,-13 47,-17 22,-6 36,-4 41,-25 -33,-44 -440,5 -507,18 -37,7 -91,4 -132,9 -109,12 -256,36 -360,55 -172,32 -276,57 -437,121 -75,30 -218,119 -292,122 -46,2 -72,12 -110,28 -87,38 -106,58 -157,121 -70,86 -118,154 -181,239 -19,25 -42,52 -62,75 -54,63 -86,78 -149,125 -74,55 -137,188 -196,224 -28,17 -57,34 -92,45 -72,22 -149,39 -224,54 -42,8 -70,18 -106,32 -32,13 -69,25 -100,37 -66,27 -118,66 -178,101 -116,68 -130,18 -224,55 -32,12 -72,34 -87,55 -42,59 -60,143 -32,215 15,38 25,57 36,101 16,64 24,155 31,179 10,33 6,25 -4,54 -22,62 -23,186 -21,258 7,299 109,210 98,317 -11,109 42,227 103,306 37,48 64,66 106,104l167 180c23,25 40,50 61,76 63,79 132,148 165,250 28,85 32,146 9,238 -29,114 -119,155 -214,202 -28,14 -85,23 -72,59 29,38 168,19 218,15 -37,57 -150,135 -212,176 -47,31 -261,121 -338,168 -21,13 -69,34 -58,62 68,-1 187,-64 242,7 18,23 23,48 15,83 -19,87 -90,211 -128,284 -24,46 -37,97 -61,145 -44,89 -92,188 -129,283 -20,50 -37,95 -58,143 -23,52 -33,102 -52,154 -18,50 -35,104 -51,155 -16,50 -35,102 -53,153 -48,140 -47,205 -77,334l-57 355c-9,62 -12,121 -19,182l-4 -2z"/>
  </g>
 </g>
</svg>
