<?xml version="1.0" encoding="UTF-8"?>
<!DOCTYPE svg PUBLIC "-//W3C//DTD SVG 1.1//EN" "http://www.w3.org/Graphics/SVG/1.1/DTD/svg11.dtd">
<!-- Creator: CorelDRAW X6 -->
<svg xmlns="http://www.w3.org/2000/svg" xml:space="preserve" width="210mm" height="148mm" version="1.1" style="shape-rendering:geometricPrecision; text-rendering:geometricPrecision; image-rendering:optimizeQuality; fill-rule:evenodd; clip-rule:evenodd"
viewBox="0 0 21000 14800"
 xmlns:xlink="http://www.w3.org/1999/xlink">
 <defs>
  <style type="text/css">
   <![CDATA[
    .fil12 {fill:#1C1F0A}
    .fil11 {fill:#1F230C}
    .fil10 {fill:#36110B}
    .fil6 {fill:#624233}
    .fil1 {fill:#632911}
    .fil8 {fill:#6E2C0A}
    .fil0 {fill:#6F7D38}
    .fil5 {fill:#702C09}
    .fil4 {fill:#AC8C66}
    .fil2 {fill:#C37209}
    .fil7 {fill:#CFD3C4}
    .fil3 {fill:#EEEDED}
    .fil9 {fill:white}
    .fil15 {fill:#1F230C;fill-rule:nonzero}
    .fil13 {fill:#343912;fill-rule:nonzero}
    .fil14 {fill:#575D27;fill-rule:nonzero}
   ]]>
  </style>
 </defs>
 <g id="Слой_x0020_1">
  <metadata id="CorelCorpID_0Corel-Layer"/>
  <g id="_827615712">
   <rect class="fil0" x="-802" y="-46" width="22500" height="13500"/>
   <g id="_1099888976">
    <path class="fil1" d="M6464 5933l-213 -8c-69,-132 43,-875 -66,-894 -145,-25 309,-479 -11,-533 -182,-31 126,-391 -21,-504 -147,-112 -302,-831 -115,-833 169,-2 580,67 853,67 156,0 457,-155 751,-149 455,10 1414,223 2105,-32 517,-191 831,-103 990,-355 142,-223 364,-277 534,-369 302,-164 654,-212 1074,-460 88,-52 121,204 237,352 123,157 69,443 61,702 -33,1042 1197,1082 204,1508 -263,113 54,1181 -932,1181 -717,0 -837,202 -1528,227 -1214,44 -1727,1007 -2619,507 -439,-246 -160,-1376 -1069,-553 -53,48 -235,79 -235,147l0 -1z"/>
    <path class="fil2" d="M9273 4401c294,119 70,480 -61,446 -159,-41 -260,-84 -421,35 -150,111 -305,325 -475,103 -194,-255 598,-729 957,-583l0 -1z"/>
    <path class="fil2" d="M10145 4331c-149,280 112,472 222,392 132,-96 210,-174 403,-124 180,48 473,198 525,-77 74,-390 -901,-660 -1150,-191z"/>
    <path class="fil3" d="M10720 4906c27,-7 30,-15 35,-44 -22,3 -30,11 -43,18l-2 58c17,-13 12,-11 9,-32l1 0z"/>
    <path class="fil3" d="M8894 5313c45,-5 65,-15 90,-39 -18,2 -33,6 -51,11 -25,7 -30,6 -39,28z"/>
    <path class="fil3" d="M10530 4581c25,-12 33,-25 30,-45 -51,-5 -38,8 -30,45z"/>
    <path class="fil3" d="M8653 5000c-4,-6 -1,-3 -7,-9l-16 -16c-5,-6 -3,-4 -10,-9l-18 23c6,7 -7,-2 10,9 31,20 35,7 41,1l0 1z"/>
    <path class="fil3" d="M8795 5374c-7,8 -4,-8 -7,15l7 43 23 0c-11,-51 -8,-51 -23,-58z"/>
    <path class="fil3" d="M10329 4703c8,24 2,6 8,13 19,-22 19,-25 17,-59 -19,11 -20,15 -28,29 1,7 1,11 3,18l0 -1z"/>
    <path class="fil3" d="M8576 5304c15,-1 27,-15 38,-34 -16,-2 -43,4 -38,34z"/>
    <path class="fil4" d="M9770 6258c-106,-8 -144,-12 -219,-73l-71 -71c-54,-65 -64,-207 -48,-272 8,-34 18,-41 28,-67 20,-52 13,-74 58,-131 105,-135 322,-167 492,-170 87,-2 89,3 162,28 132,45 149,81 205,174 52,88 90,195 73,299 -16,100 -135,210 -175,194 -4,-35 13,-18 58,-72 90,-108 25,-232 -69,-199 61,8 81,74 78,129 -5,86 -78,42 -216,189 -41,44 -32,98 -13,160 12,41 64,95 93,113 37,23 260,88 304,96 55,10 117,16 174,24 52,8 327,53 352,51 144,-8 194,-39 299,-98 252,-142 256,-495 142,-719 -32,-63 -46,-73 -86,-113 -56,-57 -44,-47 -116,-84 -116,-59 -197,-65 -328,-77 -43,-4 -113,-32 -151,-49 -97,-43 -162,-104 -236,-163 -19,-15 -41,-29 -62,-43 -60,-41 -81,-73 -107,-93l-107 -93c-62,-64 -63,-96 -154,-146 -190,-104 -476,-91 -634,31 -21,16 -29,29 -54,52 -38,34 -105,125 -133,167l-123 230c-43,127 -196,365 -336,415 -30,11 -48,15 -71,29 -220,129 -395,355 -320,648 21,80 54,136 110,189 47,45 67,98 144,155 21,16 110,58 137,68 55,19 108,26 172,21 166,-15 194,-88 269,-131 154,-88 335,-64 476,-129 63,-29 68,-49 113,-87 35,-30 76,-69 103,-102 39,-48 52,-89 49,-152 -2,-52 -19,-114 -60,-141 -60,-40 -137,-21 -234,-71 -26,-14 -38,-31 -58,-42 -92,-52 -17,-178 74,-143 76,29 62,129 189,106 8,-29 -1,-54 -11,-79l-132 -24c-13,-4 -34,-3 -47,-6 -25,-5 -63,-22 -89,-11 -18,8 -48,30 -55,50 -41,109 65,159 101,192 47,42 47,19 57,45l3 -4z"/>
    <path class="fil2" d="M8684 7505c3,-70 -40,-53 -134,-118 -75,-53 -71,-57 -134,-114 -32,-29 -53,-76 -118,-135 -75,-67 -231,-49 -291,-209 -20,-52 -8,-63 -12,-114 -3,-32 -12,-70 -15,-105 -7,-92 -10,-133 -38,-214 -24,-69 -38,-129 -25,-212 10,-65 42,-136 68,-185 44,-82 77,-157 128,-245 17,-29 31,-50 41,-85 49,-174 -39,-218 -115,-364 -57,-111 -233,-150 -352,-97 -43,19 -42,23 -72,54 -15,15 -20,14 -37,26l-146 165c-29,35 -70,109 -94,153 -66,122 -105,226 -121,380 -13,127 2,339 28,458 31,140 82,248 137,363 38,80 55,85 104,149 19,25 36,47 55,71l125 122c79,64 65,51 159,94 149,68 179,89 352,149 107,37 197,51 313,57 85,4 140,12 194,-43l0 -1z"/>
    <path class="fil5" d="M8565 7793c9,36 34,70 60,86 17,11 28,17 43,30 49,43 180,99 245,118 75,22 159,32 236,54 102,30 274,106 319,118 105,27 52,30 99,43 60,17 300,75 355,82 63,7 65,15 118,-13 71,-37 127,-63 119,-171 -8,-111 -51,-136 -111,-184 -43,-35 -136,-92 -186,-102 -82,-18 -149,-45 -224,-66 -35,-10 -76,-23 -112,-35l-446 -133c-105,-19 -62,-5 -121,-10 -81,-6 -199,-7 -271,16 -57,19 -141,91 -121,167l-2 0z"/>
    <path class="fil6" d="M9254 7120c5,25 15,48 20,79 16,96 27,133 115,180 184,99 396,195 599,90 110,-57 158,-102 164,-224 2,-38 -18,-130 -27,-170 -14,-58 -38,-96 -71,-124 -54,-47 -197,-89 -294,-95 -152,-8 -181,2 -333,45 -107,30 -197,89 -172,218l-1 1z"/>
    <path class="fil6" d="M11032 6957c8,-42 8,-127 -14,-161 -11,-17 -29,-28 -45,-44 -78,-82 -253,-71 -363,-52 -104,18 -168,53 -245,119 -60,51 -116,154 -116,244 0,226 276,315 431,265 191,-61 217,-147 294,-248 27,-36 47,-68 58,-122l0 -1z"/>
    <path class="fil6" d="M9987 5949c63,6 185,-44 226,-74 58,-42 102,-92 101,-197 0,-38 7,-35 -13,-64 -44,-65 -192,-112 -269,-111 -147,1 -245,10 -381,74 -73,35 -122,86 -123,175 0,89 81,129 147,157 76,33 157,56 250,46 4,-41 -2,-138 11,-168 7,-3 10,-12 19,4 7,13 0,89 33,158l-1 0z"/>
    <path class="fil7" d="M10372 4912c63,-1 54,-50 96,-49 23,1 83,39 102,-4 8,-18 -2,-37 12,-62 4,-9 77,-81 34,-149 -96,-11 -158,14 -208,65 -11,11 -50,61 -55,82 -12,50 3,85 19,116l0 1z"/>
    <path class="fil8" d="M9888 6727c49,-6 84,-26 127,-39 205,-62 393,4 438,-21 -10,-25 -50,-31 -75,-41 -56,-21 -108,-39 -162,-69 -22,-12 -51,-38 -73,-43 -79,-16 -111,56 -144,88 -34,34 -106,80 -110,125l-1 0z"/>
    <path class="fil7" d="M8727 5267c63,-17 33,-53 49,-92 14,-34 73,-22 110,-32 69,-19 108,-120 16,-154 -65,-24 -160,45 -193,81 -47,52 -48,164 19,196l-1 1z"/>
    <path class="fil9" d="M9162 5039c-27,-38 -89,-135 -124,-155 -25,-14 -83,-25 -119,-13l0 38c32,15 56,32 80,51 96,79 100,173 204,182 -9,-30 -24,-81 -40,-104l-1 1z"/>
    <path class="fil9" d="M8916 5402c61,-9 203,-74 231,-107 -37,-2 -102,17 -131,31 -74,33 -59,23 -115,42 2,19 4,20 15,33l0 1z"/>
    <path class="fil10" d="M10014 6008c0,30 46,68 87,55 49,-14 42,-20 46,-33 6,-19 14,-45 18,-64 -65,15 -8,23 -151,42z"/>
    <path class="fil9" d="M10689 4804c13,-6 22,-24 37,-35 16,-11 34,-15 51,-22l3 -60 -22 14c-27,18 -89,68 -70,102l1 1z"/>
    <path class="fil9" d="M8938 5193c62,-27 61,-51 94,-104 -8,-17 -8,-18 -21,-27 -11,56 -42,87 -90,106l17 24 0 1z"/>
    <path class="fil9" d="M10652 4782c34,0 -10,-8 80,-92 -63,-54 -90,69 -80,92z"/>
    <path class="fil9" d="M10760 4835c8,-17 9,-34 11,-57 -36,8 -64,31 -62,72l52 -15 -1 0z"/>
    <path class="fil9" d="M9196 5211c-24,-28 -70,-22 -60,21 6,25 60,29 60,-21z"/>
    <path class="fil9" d="M10279 4932c-36,36 2,63 31,53 16,-25 -3,-52 -31,-53z"/>
    <path class="fil9" d="M10389 4654c14,-9 22,-16 38,-28l-3 -41c-40,15 -57,41 -35,69z"/>
    <path class="fil9" d="M10464 4608l33 -13 -4 -47c-17,1 -28,10 -42,15l12 45 1 0z"/>
    <path class="fil9" d="M8753 5426l0 -56 -21 -5c-11,17 -12,27 -10,52l31 8 0 1z"/>
    <path class="fil9" d="M8691 5375c3,-10 6,-14 7,-24 -16,-8 -7,-5 -24,-9 -11,31 -26,43 6,61l12 -27 -1 -1z"/>
    <path class="fil9" d="M8869 5373l-30 2c3,21 8,30 20,43l20 -4 -9 -41 -1 0z"/>
    <path class="fil9" d="M8621 5349c16,-5 7,6 20,-14 5,-8 5,-9 8,-19l-16 -16c-15,16 -20,27 -11,49l-1 0z"/>
    <path class="fil2" d="M11376 7079c-3,-70 40,-53 134,-118 75,-53 71,-57 134,-114 32,-29 53,-76 118,-135 75,-67 231,-49 291,-209 20,-52 8,-63 12,-114 3,-32 12,-70 15,-105 7,-92 10,-133 38,-214 24,-69 38,-129 25,-212 -10,-65 -42,-136 -68,-185 -44,-82 -77,-157 -128,-245 -17,-29 -31,-50 -41,-85 -49,-174 39,-218 115,-364 57,-111 233,-150 352,-97 43,19 42,23 72,54 15,15 20,14 37,26l146 165c29,35 70,109 94,153 66,122 105,226 121,380 13,127 -2,339 -28,458 -31,140 -82,248 -137,363 -38,80 -55,85 -104,149 -19,25 -36,47 -55,71l-125 122c-79,64 -65,51 -159,94 -149,68 -179,89 -352,149 -107,37 -197,51 -313,57 -85,4 -140,12 -194,-43l0 -1z"/>
    <path class="fil11" d="M8565 7793c-20,-76 65,-148 121,-167 72,-24 190,-22 271,-16 59,4 17,-9 121,10l446 133c36,13 78,26 112,35 75,21 143,48 224,66 49,11 143,68 186,102 60,48 103,73 111,184 8,109 -48,134 -119,171 -53,28 -55,20 -118,13 -54,-6 -295,-65 -355,-82 -46,-13 7,-16 -99,-43 -45,-12 -218,-88 -319,-118 -76,-22 -160,-31 -236,-54 -65,-19 -196,-75 -245,-118 -15,-13 -26,-19 -43,-30 -25,-16 -50,-50 -60,-86l2 0zm688 -673c-25,-129 65,-188 172,-218 152,-43 181,-53 333,-45 97,5 241,48 294,95 32,28 57,66 71,124 9,40 29,132 27,170 -6,123 -54,168 -164,224 -202,105 -415,9 -599,-90 -87,-47 -99,-84 -115,-180 -5,-32 -15,-54 -20,-79l1 -1zm1778 -163c-11,54 -30,86 -58,122 -77,101 -102,187 -294,248 -154,49 -431,-39 -431,-265 0,-90 57,-193 116,-244 77,-65 141,-101 245,-119 110,-19 285,-29 363,52 16,16 34,27 45,44 22,34 22,119 14,161l0 1zm-1144 -229c4,-45 76,-91 110,-125 32,-32 65,-103 144,-88 23,4 52,31 73,43 55,30 106,47 162,69 26,10 65,16 75,41 -45,24 -233,-41 -438,21 -43,13 -78,34 -127,39l1 0zm126 -719c144,-19 86,-27 151,-42 -4,20 -12,45 -18,64 -4,13 2,18 -46,33 -42,12 -87,-25 -87,-55zm-1330 1496c-53,55 -109,48 -194,43 -117,-6 -206,-20 -313,-57 -173,-60 -203,-81 -352,-149 -93,-42 -79,-29 -159,-94l-125 -122c-19,-24 -36,-46 -55,-71 -49,-63 -65,-69 -104,-149 -55,-116 -107,-223 -137,-363 -26,-119 -41,-331 -28,-458 15,-154 55,-258 121,-380 24,-44 65,-118 94,-153l146 -165c17,-12 22,-11 37,-26 30,-32 28,-35 72,-54 119,-53 294,-13 352,97 76,146 165,190 115,364 -10,35 -24,56 -41,85 -52,88 -84,164 -128,245 -26,48 -58,120 -68,185 -13,82 1,142 25,212 29,81 31,123 38,214 3,36 12,74 15,105 5,52 -7,62 12,114 60,160 216,142 291,209 65,58 86,105 118,135 62,57 58,61 134,114 94,66 138,48 134,118l0 1zm1303 -1555c-33,-69 -26,-144 -33,-158 -9,-16 -12,-7 -19,-4 -12,30 -7,127 -11,168 -93,10 -174,-14 -250,-46 -65,-28 -147,-67 -147,-157 0,-89 50,-140 123,-175 136,-65 233,-73 381,-74 78,-1 225,46 269,111 20,30 13,26 13,64 0,104 -43,154 -101,197 -41,30 -163,79 -226,74l1 0zm-217 309c-10,-27 -10,-3 -57,-45 -36,-32 -143,-82 -101,-192 8,-20 37,-42 55,-50 26,-11 64,6 89,11 13,3 34,2 47,6l132 24c10,25 18,51 11,79 -127,22 -113,-77 -189,-106 -91,-34 -166,92 -74,143 19,11 31,28 58,42 97,51 174,31 234,71 41,27 58,90 60,141 3,63 -10,104 -49,152 -27,34 -68,72 -103,102 -46,38 -50,57 -113,87 -141,65 -321,42 -476,129 -75,43 -103,116 -269,131 -64,6 -116,-2 -172,-21 -28,-9 -116,-52 -137,-68 -77,-57 -97,-111 -144,-155 -56,-53 -90,-109 -110,-189 -75,-293 100,-519 320,-648 23,-14 42,-18 71,-29 140,-50 294,-288 336,-415l123 -230c28,-42 95,-133 133,-167 24,-22 33,-35 54,-52 158,-122 444,-134 634,-31 91,50 92,82 154,146l107 93c26,20 47,51 107,93 21,14 43,28 62,43 74,59 139,121 236,163 38,17 108,45 151,49 131,12 212,18 328,77 72,37 60,27 116,84 40,40 54,51 86,113 114,224 110,577 -142,719 -105,59 -155,90 -299,98 -25,1 -300,-44 -352,-51 -57,-9 -119,-14 -174,-24 -45,-8 -267,-73 -304,-96 -29,-18 -81,-72 -93,-113 -18,-62 -27,-117 13,-160 137,-148 211,-103 216,-189 3,-55 -17,-121 -78,-129 94,-33 159,90 69,199 -45,54 -62,36 -58,72 40,16 160,-94 175,-194 16,-103 -21,-211 -73,-299 -55,-93 -72,-129 -205,-174 -73,-25 -74,-30 -162,-28 -170,4 -387,36 -492,170 -45,57 -38,79 -58,131 -10,26 -19,33 -28,67 -16,65 -6,207 48,272l71 71c75,61 113,64 219,73l-3 4zm-975 -884c15,7 12,7 23,58l-23 0 -7 -43c3,-23 0,-7 7,-15zm-73 43c-2,-26 0,-35 10,-52l21 5 0 56 -31 -8 0 -1zm116 -42l30 -2 9 41 -20 4c-12,-12 -17,-22 -20,-43l1 0zm-159 27c-32,-18 -17,-30 -6,-61 17,4 8,2 24,9 -1,10 -3,14 -7,24l-12 27 1 1zm-59 -53c-8,-22 -4,-33 11,-49l16 16c-3,10 -3,12 -8,19 -13,20 -3,10 -20,14l1 0zm295 53c-11,-13 -13,-14 -15,-33 55,-19 40,-9 115,-42 30,-13 95,-33 131,-31 -29,33 -170,97 -231,107l0 -1zm-23 -89c9,-22 14,-21 39,-28 18,-5 32,-9 51,-11 -24,24 -45,34 -90,39zm-318 -9c-5,-30 23,-36 38,-34 -12,18 -24,33 -38,34zm620 -93c0,49 -54,46 -60,21 -10,-43 36,-48 60,-21zm-258 -17l-17 -24c48,-19 79,-49 90,-106 13,9 13,10 21,27 -33,53 -31,76 -94,104l0 -1zm-210 74c-67,-32 -66,-145 -19,-196 33,-37 129,-105 193,-81 93,34 54,135 -16,154 -37,10 -96,-2 -110,32 -16,38 14,75 -49,92l1 -1zm-124 -277l18 -23c7,5 5,3 10,9l16 16c6,6 3,3 7,9 -6,6 -9,19 -41,-1 -17,-11 -4,-2 -10,-9l0 -1zm1676 -58c28,0 47,27 31,53 -29,10 -67,-17 -31,-53zm-1361 -60c36,-12 94,-1 119,13 35,20 97,117 124,155 16,23 31,74 40,104 -104,-9 -108,-103 -204,-182 -23,-19 -47,-36 -80,-51l0 -38 1 -1zm1802 35c2,21 8,19 -9,32l2 -58c12,-7 20,-15 43,-18 -5,29 -7,37 -35,44l-1 0zm40 -71l-52 15c-2,-41 26,-64 62,-72 -1,23 -3,41 -11,57l1 0zm-71 -31c-19,-34 42,-84 70,-102l22 -14 -3 60c-17,7 -35,11 -51,22 -16,11 -24,29 -37,35l-1 -1zm-317 108c-16,-31 -31,-67 -19,-116 5,-21 44,-71 55,-82 50,-51 112,-75 208,-65 43,68 -30,140 -34,149 -13,25 -4,44 -12,62 -19,43 -79,4 -102,4 -42,-1 -33,48 -96,49l0 -1zm281 -130c-10,-23 17,-146 80,-92 -91,84 -46,92 -80,92zm-326 -97c8,-14 9,-18 28,-29 2,34 2,37 -17,59 -6,-7 0,12 -8,-13 -2,-7 -1,-11 -3,-18l0 1zm63 -30c-21,-28 -5,-54 35,-69l3 41c-16,11 -24,19 -38,28zm62 -91c14,-6 24,-14 42,-15l4 47 -33 13 -12 -45 -1 0zm109 -28c3,21 -5,33 -30,45 -8,-38 -21,-51 30,-45zm1595 -524c0,91 34,99 61,157 34,75 32,147 123,240 47,48 85,111 119,170 36,63 65,125 98,191 30,61 56,78 106,183 56,120 74,350 95,484 22,144 28,52 35,262 3,110 12,294 -14,398 -10,41 -21,77 -32,116 -20,69 -61,143 -100,189 -46,54 -92,92 -145,144 -36,35 -77,67 -109,106 -12,14 -27,21 -41,33 -27,24 -46,46 -72,70 -38,34 -200,164 -245,191 -43,26 -168,88 -214,46 -27,-49 67,-183 97,-221 36,-46 69,-94 110,-132 87,-79 53,-27 105,-142 16,-36 39,-75 43,-119 5,-53 -5,-97 -19,-144 -16,-54 -24,-210 -4,-269 15,-43 25,-39 55,-61 41,-31 95,-96 37,-158 -20,-21 -124,-59 -160,-71 -42,-15 -38,-19 -59,-57 -44,-80 51,-122 42,-287 -5,-86 -45,-193 -114,-240 -134,-89 -146,-100 -314,-101 -79,-1 -135,-56 -159,-121 -13,-36 -35,-179 -47,-232 -20,-91 -112,-224 -178,-290 -29,-29 -331,-163 -322,-21 2,32 18,36 33,56 14,19 28,31 44,51 57,74 93,164 117,257 19,73 7,102 -11,166 -27,99 -69,167 -156,217 -137,80 -278,105 -432,74 -17,-3 -42,-6 -56,-13 -20,-9 -23,-17 -36,-29 54,3 108,29 182,29 76,0 184,-43 231,-78 68,-51 80,-129 80,-242 0,-39 1,-120 -4,-156 -9,-74 -221,-174 -292,-179 -121,-8 -170,12 -246,68 -27,20 -56,51 -78,80 -12,16 -23,25 -36,43 -11,15 -20,35 -33,47 -19,-110 134,-232 49,-281 -85,-49 -139,30 -152,102 -5,27 0,70 -9,89 -27,-72 -16,-274 12,-339 22,-52 130,-200 123,-252 -32,-6 -55,53 -71,78 -81,127 -124,170 -123,346 0,121 8,165 45,267 28,77 61,152 77,240 -72,2 -273,-179 -632,-23 -35,15 -73,40 -96,62l-61 60c-10,13 -5,13 -23,23 7,-35 20,-66 28,-102 8,-34 15,-69 23,-102 11,-48 32,-182 29,-230 -1,-28 -11,-20 -13,-47 -5,-53 -21,-106 -44,-153 -21,-43 -62,-152 -111,-136 -5,26 -2,23 2,45 -6,-17 -29,-63 -42,-80 -16,-23 -40,-54 -83,-50l-6 19c0,1 -1,3 -2,3 0,1 -1,2 -2,3 -39,-26 -174,-94 -221,-41 2,18 4,15 17,27l7 7c-47,2 -153,19 -170,56 9,25 27,19 47,36 -22,2 -45,6 -65,10 -10,2 -19,4 -28,8 -18,7 -18,6 -19,25 21,12 61,-9 81,-14 30,-7 69,-1 92,-14 0,-21 -7,-24 -24,-31l-44 -20c77,-56 160,-10 237,-32 1,-23 -5,-21 -26,-30l-31 -11c-8,-4 -7,-4 -11,-8 46,-2 84,19 119,38 40,21 67,82 84,66l2 -31c-3,-12 -6,-20 -9,-33 40,20 64,101 95,141 15,20 13,49 36,37 9,-7 11,0 3,-38 -3,-14 -5,-26 -6,-39 20,24 32,67 39,105 32,184 65,141 -21,356 -36,90 -123,79 -178,22 -25,-26 -53,-38 -93,-54 -134,-55 -303,-24 -410,51 -70,49 -110,121 -157,205 -58,103 -28,66 20,270 56,236 205,186 370,141 68,-19 133,-58 137,39 3,78 -18,120 -56,169 -50,62 -117,110 -176,160l-186 156c-72,67 -137,152 -173,247l-14 24c-3,-154 29,-130 54,-256 7,-34 19,-94 30,-123 27,-74 21,-199 6,-279 -11,-57 -21,-72 -47,-111 -25,-37 -27,-53 -62,-91 -78,-85 -174,-181 -144,-317 22,-99 26,-141 99,-212 77,-76 200,-68 158,-146 -11,-21 -65,-51 -97,-55 -108,-14 -439,4 -540,12 -64,5 -118,20 -179,31 -27,5 -60,17 -84,13 -18,-3 -62,-20 -76,-29 -56,-33 -13,-114 6,-153 21,-41 64,-84 92,-113 34,-35 79,-63 113,-98 45,-46 11,-118 -17,-146 -35,-34 -113,-45 -172,-45 -77,0 -119,30 -161,67 -19,17 -43,33 -61,50 -10,10 -18,20 -29,29 -28,25 -61,51 -86,83 -18,23 -36,38 -56,59l-168 168c-70,66 -100,105 -148,194 -61,114 -80,212 -116,336 -47,163 -73,175 -143,309l-83 144c-37,74 -148,187 -205,247 -26,27 -84,101 -85,140 -1,33 33,48 62,38 77,-27 150,-89 225,-120 -22,31 -82,76 -111,107 -82,88 -135,141 -203,239 -12,18 -41,48 -20,76 24,30 57,2 72,-13 74,-73 142,-140 234,-208 38,-28 84,-61 136,-85 42,-19 114,-55 158,-66 -13,61 -233,313 -184,378 36,48 113,-31 146,-50 135,-76 136,60 112,107 -38,73 -118,95 -158,189 -17,39 -37,109 9,130 63,29 67,-3 111,62 46,69 80,153 115,233 18,42 40,75 59,114 38,78 70,154 128,219l163 184 138 209c75,171 48,222 76,271 62,11 128,-78 185,-91 -18,73 -45,101 -45,198 1,169 167,4 236,-14 -10,84 -82,293 65,274 138,-18 144,-28 270,50 628,390 1017,758 1922,664 599,-62 1044,-364 1734,-272 1043,138 991,701 1267,760 52,11 76,13 131,14 25,0 96,-13 117,-22 49,-21 49,-35 77,-65 479,-514 -230,-1251 -431,-1699 -33,-74 -85,-129 -122,-230 -21,-55 -69,-311 -30,-364 65,-89 102,-72 194,-42 40,13 65,36 94,0 14,-50 -54,-196 -65,-254 -22,-114 -30,-191 -30,-314 0,-246 132,-575 132,-820 0,-96 -19,-213 -12,-303 28,21 37,52 78,46 45,-75 -93,-363 -139,-441 -56,-94 -39,-75 -82,-161 -13,-26 -31,-55 -39,-84 90,11 225,78 311,118 49,23 75,-18 46,-56 -62,-82 -138,-148 -222,-204 -23,-15 -75,-40 -92,-55 42,2 99,13 144,20 37,5 112,28 134,26 30,-29 13,-47 -13,-69 -123,-104 -276,-140 -302,-166 -28,-28 -191,-100 -235,-123l-144 -93c-67,-49 -152,-82 -219,-133 -63,-48 -36,-53 -131,-106 -44,-25 -36,-23 -98,-20 -24,20 -23,24 -23,66l-1 -4z"/>
    <path class="fil12" d="M6866 8501c8,-25 42,-77 56,-98 46,-66 200,-201 250,-218 -79,9 -167,95 -207,135 -25,25 -56,61 -77,97 -16,27 -56,83 -55,118 25,3 43,-15 62,-27 17,-10 38,-22 58,-32 40,-21 73,-42 111,-63 26,-14 228,-84 257,-88 -35,26 -73,55 -104,82 -64,55 -244,244 -241,326 24,2 37,-13 53,-26 66,-51 282,-186 343,-190 -7,27 -23,38 -38,53 -45,44 -223,302 -251,349 -24,39 -21,105 40,97 33,-4 81,-57 99,-74 54,-49 133,-96 216,-123 -8,35 -172,288 -211,349 -20,31 -71,80 -43,125 33,53 83,31 127,6 40,-23 75,-45 114,-71 52,-34 179,-126 229,-143 -10,28 -23,47 -36,74 -58,119 -111,245 -161,369 -21,51 -50,125 30,136 40,6 57,-18 77,-35 58,-49 108,-100 170,-146 50,-37 208,-137 274,-151 -13,67 -54,132 -65,203 -16,99 55,126 137,79 79,-46 225,-193 353,-175 48,69 -40,254 45,286 71,27 168,-103 222,-113 4,42 4,84 15,122 5,17 31,83 39,92 41,9 71,-43 92,-65 18,-20 25,-26 37,-42 12,-14 27,-25 36,-37 7,57 -10,167 23,208 51,6 52,-19 75,-42 23,-23 37,-37 58,-58 24,-24 37,-36 60,-56 11,-9 16,-14 29,-28 14,-15 15,-19 34,-27 -2,86 -22,137 -21,264 1,141 52,166 102,78 57,-100 104,-210 184,-295 12,-13 19,-25 37,-30 3,52 -11,298 38,321 44,9 59,-20 76,-45 117,-164 210,-224 381,-324 24,-14 133,-31 124,-65 -20,-5 -122,5 -155,19 -104,41 -249,149 -297,197 -24,24 -69,90 -91,104 -8,-82 0,-165 -14,-246 -10,-60 -38,-83 -82,-39 -40,40 -79,76 -114,123 -23,32 -40,60 -61,97 -10,17 -19,34 -28,51 -8,17 -16,36 -31,47 -2,-115 16,-187 16,-259 0,-38 1,-132 -54,-98 -11,7 -57,58 -71,72 -17,17 -130,130 -152,138 -2,-38 -6,-73 -6,-112 -1,-48 9,-68 -20,-92 -34,-3 -37,11 -53,29l-100 111c-10,10 -5,10 -18,13 -3,-23 -8,-41 -11,-62 -8,-47 39,-146 -34,-162 -75,-16 -148,53 -194,78 -4,-68 10,-149 -27,-199 -93,-124 -296,0 -393,65 -19,13 -45,35 -65,44 6,-61 66,-152 74,-214 24,-188 -295,5 -359,41 -59,33 -111,83 -167,117 9,-35 39,-93 55,-129 18,-40 37,-82 57,-122 22,-45 40,-81 61,-119 17,-31 54,-92 50,-131 -16,-151 -377,155 -450,177 10,-29 34,-62 48,-88 36,-62 197,-296 130,-350 -31,-25 -68,3 -96,16 -34,15 -143,68 -173,75 16,-25 186,-250 138,-280 -80,-17 -170,48 -223,79l-192 116c32,-99 183,-241 265,-306 22,-18 103,-67 93,-78 -14,-15 -58,-1 -76,5l-202 67c-79,31 -155,86 -230,124l-1 -1z"/>
    <path class="fil12" d="M10050 2874c14,-47 68,-99 58,-151 -28,-63 -143,48 -183,78 -34,25 -155,110 -189,123 9,-25 27,-52 41,-76 19,-34 38,-51 7,-82 -49,-25 -276,174 -300,190 -36,24 -66,46 -101,67 -193,118 -158,94 -369,126 -38,6 -305,-7 -344,-13 -65,-9 -108,-27 -145,-28 -82,-2 -202,-44 -285,-63l-296 -51c-135,-12 -181,-37 -340,-37 -145,0 -201,28 -313,42 -53,7 -105,10 -157,17 -26,4 -54,6 -79,10 -49,9 -56,9 -61,28 23,10 195,-4 249,7 41,9 74,10 117,21 167,42 398,133 544,133 64,0 135,-21 258,-21 163,0 132,0 300,28 69,11 125,23 191,35 146,27 257,-33 387,-52 101,-14 331,-1 385,-66 17,-21 30,-43 47,-64 39,-49 126,-140 178,-164 -11,33 -60,104 -53,142 5,26 34,42 62,24 17,-11 35,-29 56,-44 39,-29 78,-53 120,-80l120 -78c-13,39 -56,82 -45,131 35,73 158,-67 223,-92l159 -20c151,-21 130,72 204,51 20,-6 6,-10 60,-29 36,-12 151,-134 181,-178 30,-44 49,-68 81,-103 9,-10 82,-95 83,-98 8,-30 -16,-52 -47,-42 -14,5 -37,31 -49,42 -149,132 -167,100 -225,138 -44,29 -35,0 -70,20 -21,11 -35,20 -60,30 -116,46 -199,46 -333,113 -25,12 -40,26 -67,34l0 2z"/>
    <path class="fil12" d="M11790 2879c30,-101 261,-251 270,-269 -89,-10 -248,11 -326,59 -17,11 -68,42 -88,45 -1,-35 11,-45 26,-65 8,-11 31,-47 37,-58 13,-25 22,-39 34,-60l25 -54c5,-48 -146,12 -168,22 -55,23 -94,53 -137,83 -52,37 -69,37 -123,93 -32,33 -62,89 -80,140 -14,40 -29,150 -3,186 9,13 18,10 32,21 38,30 36,46 100,68 64,22 217,112 277,159 123,97 77,207 180,257 29,14 56,13 83,22 33,11 58,-12 83,-23 71,-31 70,-69 63,-160 -3,-39 -17,-49 -22,-84 -5,-32 -14,-64 -16,-94 -3,-41 33,-139 49,-173 72,-148 -246,-115 -295,-113l-1 -2z"/>
    <path class="fil12" d="M7084 3567c-69,15 -106,49 -183,42 -44,-4 -85,-50 -188,-23 -64,17 -106,49 -134,87 -22,29 -20,45 -24,86 -3,27 -16,61 -21,90 -44,227 29,373 88,553 33,101 134,246 229,142 70,-77 111,-217 113,-327 1,-89 8,-113 32,-191 39,-127 44,-189 169,-273 40,-27 107,-60 77,-129 -24,-56 -79,-74 -157,-57l-1 0z"/>
    <path class="fil12" d="M5840 3327c35,18 93,-16 136,-20 -11,16 -30,33 -45,50 -44,49 -69,93 -75,161 -9,101 93,-11 155,-30 -28,50 -48,15 -100,155 -15,40 -76,158 -49,199 32,25 44,-38 81,-66 -6,30 -66,281 -32,306 30,21 47,-23 93,-73 18,-20 8,-17 32,-30 -9,62 -50,172 -68,293 -7,47 -18,62 13,92 19,2 33,1 43,-10 7,-8 4,-7 10,-17l13 -16c-9,55 -149,338 23,289 36,-10 68,-37 101,-44 -10,52 -37,118 -53,171 -67,221 -35,239 -63,389 -19,99 -42,137 -5,180l36 2c20,-21 52,-111 79,-167 18,-37 68,-136 90,-161 9,153 -12,279 -56,416 -13,40 -43,104 -42,118 31,-5 79,-149 88,-181 24,-81 35,-162 35,-253 0,-51 -1,-98 2,-147l-15 -21c-52,-3 -85,96 -124,119 4,-162 53,-278 95,-425 68,-235 -79,-105 -176,-74 6,-79 110,-293 81,-355 -7,-15 -24,-26 -48,-19 -18,5 -29,24 -46,34 7,-83 73,-289 68,-316 -52,-34 -119,87 -162,111 1,-57 9,-111 23,-162 7,-27 12,-42 23,-67 9,-22 25,-43 21,-70 -35,-26 -56,11 -87,26 33,-131 70,-141 123,-209 19,-24 37,-44 12,-74 -54,-11 -126,45 -164,61 4,-50 40,-87 65,-115 34,-38 75,-68 72,-105 -30,-25 -58,-9 -100,-4 16,-30 70,-68 100,-88l124 -67c-3,-53 -68,-9 -93,3 -35,18 -61,36 -90,58 -51,38 -85,79 -117,104 -16,12 -33,21 -27,51l0 -2z"/>
    <path class="fil12" d="M9742 3765c38,12 28,-13 79,-80 43,-56 188,-189 237,-211 -14,41 -60,103 -52,153 25,49 96,-37 157,-79 27,-19 145,-93 174,-101 -20,49 -100,123 -54,174 25,13 217,-95 364,-99 -14,21 -42,42 -43,73 -2,47 42,39 77,29 67,-19 148,-20 221,-16 -3,13 -46,37 -13,75 11,13 54,34 73,43 97,51 411,224 493,208 0,-21 -27,-36 -45,-46l-196 -99c-27,-14 -242,-121 -259,-137 6,-9 -1,-2 10,-13l32 -32c15,-29 -7,-48 -26,-53 -57,-15 -195,-5 -259,-2 11,-20 63,-49 45,-80 -19,-33 -216,1 -244,9 -48,13 -113,43 -155,50 27,-67 136,-152 79,-179 -60,-8 -140,43 -180,67l-156 96c15,-45 63,-106 58,-137 -14,-72 -124,41 -188,91 -48,38 -104,81 -140,123 -29,33 -107,123 -89,170l0 3z"/>
    <path class="fil12" d="M12313 2058c27,4 87,19 108,40 -29,2 -115,3 -134,31 9,16 2,8 23,15l81 40c25,17 67,45 83,76 -37,1 -102,-6 -131,4 5,33 53,23 128,103 19,20 97,100 100,131 -66,8 -96,-44 -150,-44 1,51 134,149 139,217 -47,16 -42,8 -90,10 1,8 41,74 50,94 40,82 114,251 117,338 -51,-5 -94,-70 -128,-77 -2,58 41,163 63,225 8,23 21,48 28,71l69 215c11,29 21,42 32,69l78 111c102,116 186,106 256,223 24,39 25,50 49,51 -1,-43 -73,-197 -132,-243 -110,-86 -71,-3 -193,-180 -29,-42 -43,-64 -65,-119 -17,-43 -30,-100 -50,-140 -26,-54 -110,-208 -118,-256 48,26 176,169 107,-54l-84 -211c-16,-32 -40,-71 -50,-98 35,-2 54,-2 76,-23 9,-53 -98,-149 -119,-191 35,11 85,51 129,27 30,-30 -98,-160 -127,-185 -16,-14 -48,-32 -63,-47 34,-4 86,7 108,-12 -4,-23 -54,-67 -73,-81 -62,-46 -47,-29 -97,-58 56,-23 175,3 114,-43 -15,-11 -44,-22 -65,-30 -22,-8 -61,-33 -68,1l-1 0z"/>
    <path class="fil12" d="M10956 2456l31 -25c61,-60 113,-128 184,-184 130,-100 227,-174 386,-245 199,-90 166,-56 323,-98 42,-11 119,-44 137,-81 -36,13 -58,41 -149,63 -57,14 -118,19 -172,38 -125,44 -176,72 -287,134 -48,27 -151,90 -191,125 -90,80 -128,106 -215,206 -9,11 -15,18 -25,28 -16,16 -19,14 -23,39l1 0z"/>
    <path class="fil13" d="M14689 11120c-16,0 -29,-5 -38,-15 -9,-10 -14,-23 -14,-37l0 -1269c0,-58 20,-108 61,-149 41,-41 90,-61 149,-61 58,0 108,20 149,61 41,41 61,90 61,149l0 1306c0,10 -5,15 -15,15 -10,0 -15,-5 -15,-15l0 -1306c0,-50 -18,-92 -53,-127 -35,-35 -77,-53 -127,-53 -51,0 -94,18 -129,53 -35,35 -53,77 -53,127l0 1269c0,15 8,22 24,22 15,0 22,-7 22,-22l0 -665c0,-15 5,-27 15,-37 10,-10 23,-15 37,-15l164 0c10,0 15,5 15,15 0,10 -5,15 -15,15l-164 0c-15,0 -22,7 -22,22l0 665c0,15 -5,27 -15,37 -10,10 -23,15 -37,15z"/>
    <path class="fil13" d="M14462 10947c0,48 -17,89 -51,123 -34,34 -75,50 -121,50 -48,0 -89,-17 -123,-50 -34,-34 -50,-74 -50,-123l0 -582c0,-10 5,-15 15,-15 10,0 15,5 15,15l0 582c0,39 14,73 42,101 28,28 61,42 101,42 39,0 73,-14 101,-42 28,-28 42,-61 42,-101l0 -1149c0,-50 -18,-92 -53,-127 -35,-35 -77,-53 -127,-53l-158 0c-16,0 -24,7 -24,22l0 1464c0,10 -4,15 -13,15 -10,0 -15,-5 -15,-15l0 -1464c0,-15 5,-27 14,-37 9,-10 22,-15 38,-15l158 0c58,0 108,20 149,61 41,41 61,90 61,149l0 1149 -1 0z"/>
    <path class="fil13" d="M13853 9589c10,0 15,5 15,15l0 1474c0,12 -4,22 -12,30 -8,8 -18,12 -30,12 -9,0 -17,-3 -24,-9 -7,-6 -12,-13 -15,-22l-363 -1461c-1,-6 -5,-9 -11,-9 -7,0 -11,4 -11,11l0 1437c0,15 7,22 22,22 16,0 24,-7 24,-22l0 -702c0,-10 4,-15 13,-15 10,0 15,5 15,15l0 702c0,15 -5,27 -14,37 -9,10 -22,15 -38,15 -15,0 -27,-5 -37,-15 -10,-10 -15,-23 -15,-37l0 -1437c0,-12 4,-22 12,-30 8,-8 18,-12 30,-12 20,0 34,10 39,31l363 1464c1,4 5,7 11,7 7,0 11,-4 11,-11l0 -1474c0,-10 5,-15 15,-15l0 -1z"/>
    <path class="fil13" d="M12830 11120c-16,0 -29,-5 -38,-15 -9,-10 -14,-23 -14,-37l0 -1269c0,-58 20,-108 61,-149 41,-41 90,-61 149,-61 58,0 108,20 149,61 41,41 61,90 61,149l0 1306c0,10 -5,15 -15,15 -10,0 -15,-5 -15,-15l0 -1306c0,-50 -18,-92 -53,-127 -35,-35 -77,-53 -127,-53 -51,0 -94,18 -129,53 -35,35 -53,77 -53,127l0 1269c0,15 8,22 24,22 15,0 22,-7 22,-22l0 -665c0,-15 5,-27 15,-37 10,-10 23,-15 37,-15l164 0c10,0 15,5 15,15 0,10 -5,15 -15,15l-164 0c-15,0 -22,7 -22,22l0 665c0,15 -5,27 -15,37 -10,10 -23,15 -37,15z"/>
    <path class="fil13" d="M12392 9589c58,0 108,20 149,61 41,41 61,90 61,149l0 409c0,48 -17,89 -50,123 -34,34 -74,50 -123,50 -47,0 -87,-17 -121,-50 -34,-34 -51,-74 -51,-123l0 -409c0,-10 5,-15 15,-15 10,0 15,5 15,15l0 409c0,39 14,73 42,101 28,28 61,42 101,42 39,0 73,-14 102,-42 28,-28 43,-61 43,-101l0 -409c0,-50 -18,-92 -53,-127 -35,-35 -78,-53 -129,-53 -50,0 -92,18 -127,53 -35,35 -53,77 -53,127l0 1306c0,10 -5,15 -15,15 -10,0 -15,-5 -15,-15l0 -1306c0,-58 20,-108 61,-149 41,-41 90,-61 149,-61l-1 0z"/>
    <path class="fil13" d="M11594 10947c0,48 -17,89 -51,123 -34,34 -75,50 -121,50 -48,0 -89,-17 -123,-50 -34,-34 -50,-74 -50,-123l0 -582c0,-10 5,-15 15,-15 10,0 15,5 15,15l0 582c0,39 14,73 42,101 28,28 61,42 101,42 39,0 73,-14 101,-42 28,-28 42,-61 42,-101l0 -1149c0,-50 -18,-92 -53,-127 -35,-35 -77,-53 -127,-53l-158 0c-16,0 -24,7 -24,22l0 1464c0,10 -4,15 -13,15 -10,0 -15,-5 -15,-15l0 -1464c0,-15 5,-27 14,-37 9,-10 22,-15 38,-15l158 0c58,0 108,20 149,61 41,41 61,90 61,149l0 1149 -1 0z"/>
    <path class="fil13" d="M10631 10306c-15,0 -27,-5 -37,-15 -10,-10 -15,-23 -15,-37l0 -455c0,-58 20,-108 61,-149 41,-41 90,-61 149,-61l197 0c10,0 15,5 15,15 0,10 -5,15 -15,15l-197 0c-50,0 -92,18 -127,53 -35,35 -53,77 -53,127l0 455c0,15 7,22 22,22l195 0c15,0 27,5 37,15 10,10 15,23 15,37 0,15 -5,27 -15,37 -10,10 -23,15 -37,15l-195 0c-15,0 -22,8 -22,24l0 505c0,50 18,92 53,127 35,35 77,53 127,53l197 0c10,0 15,5 15,15 0,10 -5,15 -15,15l-197 0c-58,0 -108,-20 -149,-61 -41,-41 -61,-90 -61,-149l0 -505c0,-16 5,-29 15,-39 10,-10 23,-15 37,-15l195 0c15,0 22,-7 22,-22 0,-15 -7,-22 -22,-22l-195 0z"/>
    <path class="fil13" d="M10403 11100c3,9 0,15 -9,20 -9,1 -15,-1 -20,-9l-267 -689 -2 -2c-1,0 -3,0 -3,-1 -1,-1 -2,-1 -3,-1 -7,0 -11,4 -11,11l0 639c0,15 -5,27 -15,37 -10,10 -23,15 -37,15 -15,0 -27,-5 -37,-15 -10,-10 -15,-23 -15,-37l0 -1269c0,-58 20,-108 61,-149 41,-41 90,-61 149,-61 58,0 108,20 149,61 41,41 61,90 61,149l0 409c0,48 -17,89 -50,123 -34,34 -74,50 -123,50 -47,0 -87,-17 -121,-50 -34,-34 -51,-74 -51,-123l0 -409c0,-10 5,-15 15,-15 10,0 15,5 15,15l0 409c0,39 14,73 42,101 28,28 61,42 101,42 39,0 73,-14 101,-42 28,-28 42,-61 42,-101l0 -409c0,-50 -18,-92 -53,-127 -35,-35 -77,-53 -127,-53 -50,0 -92,18 -127,53 -35,35 -53,77 -53,127l0 1269c0,15 7,22 22,22 15,0 22,-7 22,-22l0 -639c0,-12 4,-22 12,-30 8,-8 18,-12 30,-12 19,0 31,7 35,22l269 691 -2 0z"/>
    <path class="fil14" d="M14666 11112c-16,0 -29,-5 -38,-15 -9,-10 -14,-23 -14,-37l0 -1269c0,-58 20,-108 61,-149 41,-41 90,-61 149,-61 58,0 108,20 149,61 41,41 61,90 61,149l0 1306c0,10 -5,15 -15,15 -10,0 -15,-5 -15,-15l0 -1306c0,-50 -18,-92 -53,-127 -35,-35 -77,-53 -127,-53 -51,0 -94,18 -129,53 -35,35 -53,77 -53,127l0 1269c0,15 8,22 24,22 15,0 22,-7 22,-22l0 -665c0,-15 5,-27 15,-37 10,-10 23,-15 37,-15l164 0c10,0 15,5 15,15 0,10 -5,15 -15,15l-164 0c-15,0 -22,7 -22,22l0 665c0,15 -5,27 -15,37 -10,10 -23,15 -37,15z"/>
    <path class="fil14" d="M14439 10939c0,48 -17,89 -51,123 -34,34 -75,50 -121,50 -48,0 -89,-17 -123,-50 -34,-34 -50,-74 -50,-123l0 -582c0,-10 5,-15 15,-15 10,0 15,5 15,15l0 582c0,39 14,73 42,101 28,28 61,42 101,42 39,0 73,-14 101,-42 28,-28 42,-61 42,-101l0 -1149c0,-50 -18,-92 -53,-127 -35,-35 -77,-53 -127,-53l-158 0c-16,0 -24,7 -24,22l0 1464c0,10 -4,15 -13,15 -10,0 -15,-5 -15,-15l0 -1464c0,-15 5,-27 14,-37 9,-10 22,-15 38,-15l158 0c58,0 108,20 149,61 41,41 61,90 61,149l0 1149 -1 0z"/>
    <path class="fil14" d="M13831 9581c10,0 15,5 15,15l0 1474c0,12 -4,22 -12,30 -8,8 -18,12 -30,12 -9,0 -17,-3 -24,-9 -7,-6 -12,-13 -15,-22l-363 -1461c-1,-6 -5,-9 -11,-9 -7,0 -11,4 -11,11l0 1437c0,15 7,22 22,22 16,0 24,-7 24,-22l0 -702c0,-10 4,-15 13,-15 10,0 15,5 15,15l0 702c0,15 -5,27 -14,37 -9,10 -22,15 -38,15 -15,0 -27,-5 -37,-15 -10,-10 -15,-23 -15,-37l0 -1437c0,-12 4,-22 12,-30 8,-8 18,-12 30,-12 20,0 34,10 39,31l363 1464c1,4 5,7 11,7 7,0 11,-4 11,-11l0 -1474c0,-10 5,-15 15,-15l0 -1z"/>
    <path class="fil14" d="M12807 11112c-16,0 -29,-5 -38,-15 -9,-10 -14,-23 -14,-37l0 -1269c0,-58 20,-108 61,-149 41,-41 90,-61 149,-61 58,0 108,20 149,61 41,41 61,90 61,149l0 1306c0,10 -5,15 -15,15 -10,0 -15,-5 -15,-15l0 -1306c0,-50 -18,-92 -53,-127 -35,-35 -77,-53 -127,-53 -51,0 -94,18 -129,53 -35,35 -53,77 -53,127l0 1269c0,15 8,22 24,22 15,0 22,-7 22,-22l0 -665c0,-15 5,-27 15,-37 10,-10 23,-15 37,-15l164 0c10,0 15,5 15,15 0,10 -5,15 -15,15l-164 0c-15,0 -22,7 -22,22l0 665c0,15 -5,27 -15,37 -10,10 -23,15 -37,15z"/>
    <path class="fil14" d="M12369 9581c58,0 108,20 149,61 41,41 61,90 61,149l0 409c0,48 -17,89 -50,123 -34,34 -74,50 -123,50 -47,0 -87,-17 -121,-50 -34,-34 -51,-74 -51,-123l0 -409c0,-10 5,-15 15,-15 10,0 15,5 15,15l0 409c0,39 14,73 42,101 28,28 61,42 101,42 39,0 73,-14 102,-42 28,-28 43,-61 43,-101l0 -409c0,-50 -18,-92 -53,-127 -35,-35 -78,-53 -129,-53 -50,0 -92,18 -127,53 -35,35 -53,77 -53,127l0 1306c0,10 -5,15 -15,15 -10,0 -15,-5 -15,-15l0 -1306c0,-58 20,-108 61,-149 41,-41 90,-61 149,-61l-1 0z"/>
    <path class="fil15" d="M11571 10939c0,48 -17,89 -51,123 -34,34 -75,50 -121,50 -48,0 -89,-17 -123,-50 -34,-34 -50,-74 -50,-123l0 -582c0,-10 5,-15 15,-15 10,0 15,5 15,15l0 582c0,39 14,73 42,101 28,28 61,42 101,42 39,0 73,-14 101,-42 28,-28 42,-61 42,-101l0 -1149c0,-50 -18,-92 -53,-127 -35,-35 -77,-53 -127,-53l-158 0c-16,0 -24,7 -24,22l0 1464c0,10 -4,15 -13,15 -10,0 -15,-5 -15,-15l0 -1464c0,-15 5,-27 14,-37 9,-10 22,-15 38,-15l158 0c58,0 108,20 149,61 41,41 61,90 61,149l0 1149 -1 0z"/>
    <path class="fil15" d="M10608 10298c-15,0 -27,-5 -37,-15 -10,-10 -15,-23 -15,-37l0 -455c0,-58 20,-108 61,-149 41,-41 90,-61 149,-61l197 0c10,0 15,5 15,15 0,10 -5,15 -15,15l-197 0c-50,0 -92,18 -127,53 -35,35 -53,77 -53,127l0 455c0,15 7,22 22,22l195 0c15,0 27,5 37,15 10,10 15,23 15,37 0,15 -5,27 -15,37 -10,10 -23,15 -37,15l-195 0c-15,0 -22,8 -22,24l0 505c0,50 18,92 53,127 35,35 77,53 127,53l197 0c10,0 15,5 15,15 0,10 -5,15 -15,15l-197 0c-58,0 -108,-20 -149,-61 -41,-41 -61,-90 -61,-149l0 -505c0,-16 5,-29 15,-39 10,-10 23,-15 37,-15l195 0c15,0 22,-7 22,-22 0,-15 -7,-22 -22,-22l-195 0z"/>
    <path class="fil15" d="M10381 11093c3,9 0,15 -9,20 -9,1 -15,-1 -20,-9l-267 -689 -2 -2c-1,0 -3,0 -3,-1 -1,-1 -2,-1 -3,-1 -7,0 -11,4 -11,11l0 639c0,15 -5,27 -15,37 -10,10 -23,15 -37,15 -15,0 -27,-5 -37,-15 -10,-10 -15,-23 -15,-37l0 -1269c0,-58 20,-108 61,-149 41,-41 90,-61 149,-61 58,0 108,20 149,61 41,41 61,90 61,149l0 409c0,48 -17,89 -50,123 -34,34 -74,50 -123,50 -47,0 -87,-17 -121,-50 -34,-34 -51,-74 -51,-123l0 -409c0,-10 5,-15 15,-15 10,0 15,5 15,15l0 409c0,39 14,73 42,101 28,28 61,42 101,42 39,0 73,-14 101,-42 28,-28 42,-61 42,-101l0 -409c0,-50 -18,-92 -53,-127 -35,-35 -77,-53 -127,-53 -50,0 -92,18 -127,53 -35,35 -53,77 -53,127l0 1269c0,15 7,22 22,22 15,0 22,-7 22,-22l0 -639c0,-12 4,-22 12,-30 8,-8 18,-12 30,-12 19,0 31,7 35,22l269 691 -2 0z"/>
    <path class="fil15" d="M10578 10297c-15,0 -27,-5 -37,-15 -10,-10 -15,-23 -15,-37l0 -455c0,-58 20,-108 61,-149 41,-41 90,-61 149,-61l197 0c10,0 15,5 15,15 0,10 -5,15 -15,15l-197 0c-50,0 -92,18 -127,53 -35,35 -53,77 -53,127l0 455c0,15 7,22 22,22l195 0c15,0 27,5 37,15 10,10 15,23 15,37 0,15 -5,27 -15,37 -10,10 -23,15 -37,15l-195 0c-15,0 -22,8 -22,24l0 505c0,50 18,92 53,127 35,35 77,53 127,53l197 0c10,0 15,5 15,15 0,10 -5,15 -15,15l-197 0c-58,0 -108,-20 -149,-61 -41,-41 -61,-90 -61,-149l0 -505c0,-16 5,-29 15,-39 10,-10 23,-15 37,-15l195 0c15,0 22,-7 22,-22 0,-15 -7,-22 -22,-22l-195 0z"/>
    <path class="fil15" d="M10358 11093c3,9 0,15 -9,20 -9,1 -15,-1 -20,-9l-267 -689 -2 -2c-1,0 -3,0 -3,-1 -1,-1 -2,-1 -3,-1 -7,0 -11,4 -11,11l0 639c0,15 -5,27 -15,37 -10,10 -23,15 -37,15 -15,0 -27,-5 -37,-15 -10,-10 -15,-23 -15,-37l0 -1269c0,-58 20,-108 61,-149 41,-41 90,-61 149,-61 58,0 108,20 149,61 41,41 61,90 61,149l0 409c0,48 -17,89 -50,123 -34,34 -74,50 -123,50 -47,0 -87,-17 -121,-50 -34,-34 -51,-74 -51,-123l0 -409c0,-10 5,-15 15,-15 10,0 15,5 15,15l0 409c0,39 14,73 42,101 28,28 61,42 101,42 39,0 73,-14 101,-42 28,-28 42,-61 42,-101l0 -409c0,-50 -18,-92 -53,-127 -35,-35 -77,-53 -127,-53 -50,0 -92,18 -127,53 -35,35 -53,77 -53,127l0 1269c0,15 7,22 22,22 15,0 22,-7 22,-22l0 -639c0,-12 4,-22 12,-30 8,-8 18,-12 30,-12 19,0 31,7 35,22l269 691 -2 0z"/>
    <path class="fil15" d="M11542 10939c0,48 -17,89 -51,123 -34,34 -75,50 -121,50 -48,0 -89,-17 -123,-50 -34,-34 -50,-74 -50,-123l0 -582c0,-10 5,-15 15,-15 10,0 15,5 15,15l0 582c0,39 14,73 42,101 28,28 61,42 101,42 39,0 73,-14 101,-42 28,-28 42,-61 42,-101l0 -1149c0,-50 -18,-92 -53,-127 -35,-35 -77,-53 -127,-53l-158 0c-16,0 -24,7 -24,22l0 1464c0,10 -4,15 -13,15 -10,0 -15,-5 -15,-15l0 -1464c0,-15 5,-27 14,-37 9,-10 22,-15 38,-15l158 0c58,0 108,20 149,61 41,41 61,90 61,149l0 1149 -1 0z"/>
   </g>
  </g>
 </g>
</svg>
