<?xml version="1.0" encoding="UTF-8"?>
<!DOCTYPE svg PUBLIC "-//W3C//DTD SVG 1.1//EN" "http://www.w3.org/Graphics/SVG/1.1/DTD/svg11.dtd">
<!-- Creator: CorelDRAW X6 -->
<svg xmlns="http://www.w3.org/2000/svg" xml:space="preserve" width="210mm" height="148mm" version="1.1" style="shape-rendering:geometricPrecision; text-rendering:geometricPrecision; image-rendering:optimizeQuality; fill-rule:evenodd; clip-rule:evenodd"
viewBox="0 0 21000 14800"
 xmlns:xlink="http://www.w3.org/1999/xlink">
 <defs>
  <style type="text/css">
   <![CDATA[
    .str1 {stroke:#6B6B6B;stroke-width:20}
    .str0 {stroke:#B6B6B6;stroke-width:20}
    .fil2 {fill:#252A27}
    .fil0 {fill:#625A65}
    .fil3 {fill:#6B6B6B}
    .fil7 {fill:#717178}
    .fil1 {fill:#B6B6B6}
    .fil4 {fill:white}
    .fil5 {fill:#717178;fill-rule:nonzero}
    .fil6 {fill:white;fill-rule:nonzero}
   ]]>
  </style>
 </defs>
 <g id="Слой_x0020_1">
  <metadata id="CorelCorpID_0Corel-Layer"/>
  <rect class="fil0" x="-817" y="-46" width="22500" height="13500"/>
  <path class="fil1" d="M10157 4093c-236,-95 -513,-225 -604,-220 -76,4 -140,48 -228,152 -178,211 -349,568 -487,809 -98,170 -74,308 1,438 189,328 651,921 890,1259 139,197 181,211 266,214 130,7 333,6 502,4 85,-1 294,0 290,-72l-2 -56c-14,-42 -75,-33 -137,-24 -87,14 -104,-13 -88,-39 25,-41 331,-54 356,-154 41,-162 -321,-557 -464,-774 -165,-250 -355,-491 -598,-559 -84,-24 96,156 41,131 -51,-23 -72,-59 7,-98 221,-109 93,-254 111,-381 89,41 -87,-22 30,47 76,45 160,68 261,51 163,-28 327,-136 362,-195 36,-63 39,-149 -4,-262 -50,-131 -195,-149 -505,-272l1 -1zm245 -188c57,-90 157,-224 196,-317 29,-69 55,-109 -36,-189 -105,-92 -224,-187 -354,-217 -66,-15 -131,-6 -180,63 -67,95 -246,315 -305,468 -33,87 25,141 109,181 43,21 175,76 282,113 174,59 186,61 285,-102l1 0z"/>
  <path class="fil1" d="M11310 5721c-19,-19 -66,-100 -89,-58 -6,11 -11,28 -16,55 -15,69 -123,72 -165,37 -78,-66 -106,-403 -172,-434 -317,-147 -671,-227 -334,250 87,123 176,245 203,291 50,86 131,200 176,310 38,90 74,181 110,258 36,77 -111,48 -157,103 -41,51 11,136 21,158 48,109 478,70 588,55 77,-11 115,-57 196,-220 98,-199 211,-496 289,-739 87,-267 143,-537 -100,-246 -85,103 -173,153 -243,211 -115,97 -209,67 -308,-32l1 1z"/>
  <path class="fil2" d="M10917 6117c536,-301 284,-1008 -145,-1426 -85,-82 -97,-336 -131,-365 -244,-214 -501,-54 -685,48 -541,300 94,2232 961,1744l0 -1z"/>
  <path class="fil1" d="M10157 4093c-136,-54 -285,-121 -406,-167l-124 972 84 181c53,-45 38,-155 45,-204 25,-191 61,-235 113,-225 89,17 159,127 276,173 110,44 207,38 288,7 207,-79 311,-256 230,-466 -50,-131 -195,-149 -505,-272z"/>
  <path class="fil1 str0" d="M10970 6213c8,-4 36,-21 44,-25l25 -150c-94,77 -90,38 -178,-113l-78 -134 -48 33 206 398c5,-2 24,-6 28,-9z"/>
  <path class="fil3 str1" d="M10808 5711l-188 -333c-71,-126 -227,-17 -165,92l188 333c72,126 228,20 165,-92z"/>
  <path class="fil3 str1" d="M11128 5232c-12,-31 -26,-61 -41,-92 -102,200 -277,375 -508,482 -190,89 -391,119 -578,98 15,31 32,61 48,91 185,19 383,-12 572,-99 168,-78 307,-192 410,-325 5,-7 11,-14 15,-20 32,-43 59,-88 83,-134l-1 0z"/>
  <path class="fil4" d="M10728 5766l0 0c26,-14 26,-64 0,-110l-98 -177c-26,-46 -68,-72 -94,-58l0 0c-26,14 -26,64 0,110l98 177c26,46 67,72 94,58z"/>
  <path class="fil1" d="M11264 3855c-16,-48 -58,-87 -115,-126 -148,-102 -376,-225 -440,-201 -53,20 -83,86 -114,134 -46,71 -116,212 -179,290 -136,170 10,204 151,250 94,30 134,84 159,139 64,143 -9,287 103,230 35,-17 67,-63 100,-103 70,-82 144,-186 204,-285 85,-139 152,-261 129,-328l0 -1z"/>
  <path class="fil5" d="M10274 7106c0,-54 14,-95 43,-121 29,-27 66,-40 110,-40 44,0 79,14 108,40 28,27 42,67 42,120l0 1031c0,46 -12,85 -35,115 -24,31 -60,48 -111,50 -53,0 -92,-15 -118,-45 -26,-30 -39,-69 -39,-116l0 -1035 -1 1z"/>
  <path class="fil6" d="M10931 8140l0 -903 -167 0c-50,0 -89,-12 -116,-37 -27,-25 -41,-58 -41,-102 0,-95 53,-142 157,-142l642 0c105,0 157,48 157,142 0,43 -14,77 -40,102 -27,25 -66,37 -116,37l-170 0 0 903c0,52 -14,92 -41,120 -27,28 -64,42 -110,42 -45,0 -81,-14 -110,-42 -28,-28 -43,-67 -43,-119l-1 -1z"/>
  <path class="fil7" d="M10931 7237l-1 909c0,51 15,91 44,119 29,28 66,42 110,42 46,0 83,-14 110,-42 28,-28 42,-67 42,-119l0 -908c729,0 -890,0 -306,0l0 1 0 -1z"/>
  <path class="fil6" d="M8521 8606c0,-19 3,-38 10,-58 6,-20 15,-38 28,-54 12,-16 27,-29 45,-40 17,-11 37,-15 59,-15l448 0c11,0 19,4 26,11 7,7 11,16 11,26 0,11 -4,19 -11,26 -7,7 -16,11 -26,11l-432 0c-18,0 -32,3 -43,10 -11,6 -20,14 -26,24 -6,9 -11,19 -13,30 -2,11 -4,21 -4,30 0,9 1,19 4,30 2,11 7,21 13,30 6,9 15,17 26,24 11,6 25,10 43,10l432 0c11,0 19,4 26,11 7,7 11,16 11,26 0,11 -4,19 -11,26 -7,7 -16,11 -26,11l-456 0c-21,0 -40,-5 -56,-15 -16,-11 -30,-24 -42,-40 -12,-16 -20,-34 -27,-54 -6,-20 -9,-40 -9,-59l0 1zm1199 0c0,-9 -1,-19 -4,-30 -2,-11 -7,-21 -13,-30 -6,-9 -15,-17 -27,-24 -11,-6 -25,-10 -43,-10l-277 0c-18,0 -32,3 -43,10 -11,6 -20,14 -26,24 -6,9 -11,19 -13,30 -2,11 -4,21 -4,30l0 131c0,11 -4,19 -11,26 -7,7 -16,11 -26,11 -11,0 -19,-4 -26,-11 -7,-7 -11,-16 -11,-26l0 -131c0,-19 3,-38 10,-58 6,-20 15,-38 28,-54 12,-16 27,-29 45,-40 17,-11 37,-15 59,-15l322 0c20,0 39,5 56,15 17,11 31,24 42,40 12,16 20,34 27,54 6,20 9,40 9,58l0 131c0,11 -4,19 -11,26 -7,7 -16,11 -26,11 -11,0 -19,-4 -26,-11 -7,-7 -11,-16 -11,-26l0 -131 -1 0zm672 -37c11,0 19,4 26,11 7,7 11,16 11,26 0,11 -4,19 -11,26 -7,7 -16,11 -26,11l-383 0c-11,0 -19,-4 -26,-11 -7,-7 -11,-16 -11,-26 0,-11 4,-19 11,-26 7,-7 16,-11 26,-11l383 0zm-391 -57c-18,0 -32,3 -43,10 -11,6 -20,14 -26,24 -6,9 -11,19 -13,30 -2,11 -4,21 -4,30 0,9 1,19 4,30 2,11 7,21 13,30 6,9 15,17 26,24 11,6 25,10 43,10l424 0c11,0 19,4 26,11 7,7 11,16 11,26 0,11 -4,19 -11,26 -7,7 -16,11 -26,11l-448 0c-21,0 -40,-5 -56,-15 -16,-11 -30,-24 -42,-40 -12,-16 -20,-34 -27,-54 -6,-20 -9,-40 -9,-59 0,-19 3,-38 10,-58 6,-20 15,-38 28,-54 12,-16 27,-29 45,-40 17,-11 37,-15 59,-15l440 0c11,0 19,4 26,11 7,7 11,16 11,26 0,11 -4,19 -11,26 -7,7 -16,11 -26,11l-424 0 1 1zm1040 214c0,-14 4,-25 14,-34 9,-9 20,-14 34,-14 14,0 25,4 34,14 9,9 14,20 14,34 0,14 -4,25 -14,34 -9,9 -20,14 -34,14 -14,0 -25,-4 -34,-14 -9,-9 -14,-20 -14,-34zm-456 -120c0,9 1,19 4,30 2,11 7,21 13,30 6,9 15,17 26,24 11,6 25,10 43,10l206 0c17,0 32,-3 43,-10 11,-6 20,-14 27,-24 6,-9 11,-19 13,-30 2,-11 4,-21 4,-30l0 -131c0,-11 4,-19 11,-26 7,-7 16,-11 26,-11 11,0 19,4 26,11 7,7 11,16 11,26l0 131c0,19 -3,39 -10,59 -6,20 -15,38 -28,54 -12,16 -27,29 -45,40 -17,11 -37,15 -59,15l-251 0c-21,0 -40,-5 -56,-15 -16,-11 -30,-24 -42,-40 -12,-16 -20,-34 -27,-54 -6,-20 -9,-40 -9,-58l0 -131c0,-11 4,-19 11,-26 7,-7 16,-11 26,-11 11,0 19,4 26,11 7,7 11,16 11,26l0 131 2 0zm1202 131c0,11 -4,19 -11,26 -7,7 -16,11 -26,11 -11,0 -19,-4 -26,-11 -7,-7 -11,-16 -11,-26l0 -18c0,-15 -3,-28 -10,-38 -6,-10 -14,-18 -24,-24 -9,-6 -20,-9 -31,-12 -11,-2 -21,-3 -30,-3l-131 0 -2 0 -3 0 -131 0c-16,0 -32,-2 -48,-6 -16,-4 -32,-11 -46,-19l0 118c0,11 -4,19 -11,26 -7,7 -16,11 -26,11 -11,0 -19,-4 -26,-11 -7,-7 -11,-16 -11,-26l0 -261c0,-11 4,-19 11,-26 7,-7 16,-11 26,-11 11,0 19,4 26,11 7,7 11,16 11,26l0 13c0,16 3,30 10,40 6,11 14,19 24,25 9,6 20,10 30,12 11,2 21,4 30,4l133 0 1 0 2 0 131 0c16,0 32,2 48,6 16,4 32,11 46,19l0 -118c0,-11 4,-19 11,-26 7,-7 16,-11 26,-11 11,0 19,4 26,11 7,7 11,16 11,26l0 261 1 0zm277 -46c0,-14 4,-25 14,-34 9,-9 20,-14 34,-14 14,0 25,4 34,14 9,9 14,20 14,34 0,14 -4,25 -14,34 -9,9 -20,14 -34,14 -14,0 -25,-4 -34,-14 -9,-9 -14,-20 -14,-34zm-162 69c-7,9 -17,14 -28,14 -11,0 -19,-4 -26,-11 -7,-7 -11,-16 -11,-26 0,-10 2,-17 7,-22l187 -251c9,-12 20,-22 35,-29 14,-7 30,-11 46,-11 15,0 30,3 44,10 14,7 25,16 34,28l187 250c2,4 5,8 7,12 2,4 4,9 4,14 0,11 -4,19 -11,26 -7,7 -16,11 -26,11 -13,0 -22,-5 -29,-15l-179 -239c-4,-4 -8,-9 -14,-14 -6,-5 -11,-7 -17,-7 -6,0 -11,2 -17,7 -6,5 -10,9 -12,14l-181 240 -1 1zm622 -154c0,-11 4,-19 11,-26 7,-7 16,-11 26,-11l382 0c7,0 14,-3 20,-9 6,-6 9,-12 9,-21 0,-7 -3,-14 -9,-20 -6,-6 -12,-8 -20,-8l-469 0c-11,0 -19,-4 -26,-11 -7,-7 -11,-16 -11,-26 0,-11 4,-19 11,-26 7,-7 16,-11 26,-11l466 0c14,0 28,2 40,7 12,5 24,12 33,22 9,9 17,20 22,32 6,12 8,25 8,40 0,13 -2,25 -7,36 -4,11 -11,21 -18,30 16,19 25,41 25,66 0,14 -2,28 -8,40 -6,12 -12,23 -22,32 -9,9 -20,16 -33,22 -12,5 -26,7 -40,7l-466 0c-11,0 -19,-4 -26,-11 -7,-7 -11,-16 -11,-26 0,-11 4,-19 11,-26 7,-7 16,-11 26,-11l469 0c7,0 14,-2 20,-8 6,-6 9,-12 9,-20 0,-8 -3,-15 -9,-21 -6,-6 -12,-9 -20,-9l-382 0c-11,0 -19,-4 -26,-11 -7,-7 -11,-16 -11,-26l0 -1z"/>
  <path class="fil1" d="M10861 5217c55,55 127,97 213,105 115,11 158,-41 287,-196 136,-163 258,-321 388,-512 167,-232 42,-280 -147,-435 -139,-115 -197,-134 -249,-118 -40,12 -233,285 -403,552 -45,69 -82,127 -114,175 -116,176 -149,256 25,430l0 -1z"/>
  <path class="fil1" d="M11743 5540c186,-154 380,-390 440,-453 60,-63 83,-120 -65,-302 -84,-103 -175,-204 -230,-177 -72,35 -544,627 -603,720 -65,102 -53,155 24,250 179,222 317,58 434,-39z"/>
 </g>
</svg>
