<?xml version="1.0" encoding="UTF-8"?>
<!DOCTYPE svg PUBLIC "-//W3C//DTD SVG 1.1//EN" "http://www.w3.org/Graphics/SVG/1.1/DTD/svg11.dtd">
<!-- Creator: CorelDRAW X6 -->
<svg xmlns="http://www.w3.org/2000/svg" xml:space="preserve" width="210mm" height="148mm" version="1.1" style="shape-rendering:geometricPrecision; text-rendering:geometricPrecision; image-rendering:optimizeQuality; fill-rule:evenodd; clip-rule:evenodd"
viewBox="0 0 21000 14800"
 xmlns:xlink="http://www.w3.org/1999/xlink">
 <defs>
  <style type="text/css">
   <![CDATA[
    .str1 {stroke:#498D98;stroke-width:7.62}
    .str0 {stroke:#528E98;stroke-width:7.62}
    .fil4 {fill:#0C0E17}
    .fil6 {fill:#203842}
    .fil13 {fill:#293538}
    .fil12 {fill:#498D98}
    .fil7 {fill:#528E98}
    .fil0 {fill:#535663}
    .fil10 {fill:#596E85}
    .fil8 {fill:#649AB5}
    .fil14 {fill:#69A1BD}
    .fil11 {fill:#828C8E}
    .fil9 {fill:#E3F2C7}
    .fil18 {fill:#F24F3E}
    .fil15 {fill:#F3F5F5}
    .fil17 {fill:white}
    .fil16 {fill:#203842;fill-rule:nonzero}
    .fil2 {fill:#528E98;fill-rule:nonzero}
    .fil5 {fill:#649AB5;fill-rule:nonzero}
    .fil1 {fill:#F24F3E;fill-rule:nonzero}
    .fil3 {fill:#FFCF0F;fill-rule:nonzero}
   ]]>
  </style>
 </defs>
 <g id="Слой_x0020_1">
  <metadata id="CorelCorpID_0Corel-Layer"/>
  <rect class="fil0" x="-711" y="-11" width="22500" height="13500"/>
  <path class="fil1" d="M11292 7115c71,42 127,22 132,2 4,-17 26,26 37,17 12,-9 17,-19 17,-31 0,-13 -5,-23 -14,-29 -9,-6 -46,-23 -107,-50 -50,-22 -85,-48 -108,-78 -22,-30 -33,-67 -33,-111 0,-63 22,-115 65,-156 43,-41 99,-61 167,-61 65,0 151,32 246,85l-86 166c-45,38 -52,52 -56,50 -57,-34 -57,-132 -94,-132 -35,0 -51,14 -51,41 0,13 7,25 19,35 12,10 36,21 69,33 62,22 108,48 137,79 28,31 43,69 43,116 0,129 -99,280 -242,280 -75,0 -151,-78 -236,-131l8 -74 89 -50 -1 -1zm504 -476l208 0 0 28 0 35 0 360c0,22 5,41 16,55 10,15 24,22 42,22 40,0 69,-30 60,-88l-51 -338 51 -74 208 0 0 381c0,97 -22,165 -51,228 -31,64 -129,133 -214,133 -95,0 -162,-89 -204,-141 -42,-52 -50,-119 -63,-197l-53 -327 53 -78 -1 0zm894 0l0 84c1,-1 60,-103 160,-103 62,0 113,32 151,96 38,64 57,149 57,257 0,104 -21,196 -55,262 -37,73 -111,151 -194,156 -64,3 -74,-108 -114,-181l-3 0 0 357 -62 77 -145 -77 -57 -847 57 -81 208 0 -2 0zm160 327c0,-108 -27,-162 -82,-162 -52,0 -78,55 -78,164 0,113 26,169 78,169 55,0 82,-57 82,-170zm623 151l168 0c-33,147 -116,272 -249,272 -84,0 -127,-103 -176,-166 -49,-63 -118,-143 -118,-255 0,-104 51,-209 108,-259 60,-53 124,-92 204,-92 49,0 95,15 140,46 45,31 77,70 98,121 21,50 32,129 35,237l-60 77 -287 -77c3,98 2,171 54,171 9,0 20,-5 31,-12 9,-6 3,-2 12,-8 3,-2 41,-52 41,-53l0 -2zm-135 -211l151 0c-2,-46 -7,-80 -19,-103 -12,-22 -30,-33 -55,-33 -27,0 -47,11 -60,32 -12,22 -18,56 -18,103l1 0zm664 -266l0 110 2 0c50,-86 102,-129 156,-129 8,0 19,2 34,4l0 204c-1,3 -60,75 -60,75 -12,-1 2,-82 -9,-82 -76,0 -114,50 -114,148l0 327 -60 77 -148 -77 -53 -580 53 -77 199 0z"/>
  <path class="fil2" d="M11340 8484l-39 0 0 -85 -58 85 -58 -85 0 85 -39 0 0 -154 39 0 58 85 58 -85 39 0 0 154zm175 0l0 -97c0,-39 -19,-58 -58,-58l-89 0 0 39 89 0c13,0 19,7 19,19l0 0 -67 0c-32,0 -48,16 -48,47 0,33 16,49 48,49l106 0 0 1zm-116 -48c0,-7 3,-9 10,-9l67 0 0 19 -67 0c-7,0 -10,-3 -10,-10zm137 0c0,31 16,48 48,48l96 0 0 -39 -96 0c-7,0 -9,-3 -9,-9 0,-7 3,-10 9,-10l58 0c32,0 48,-17 48,-49 0,-31 -16,-47 -48,-47l-96 0 0 39 96 0c6,0 9,3 9,9 0,7 -3,10 -9,10l-58 0c-32,0 -48,16 -48,48zm329 48l0 -97c0,-39 -19,-58 -58,-58l-89 0 0 39 89 0c13,0 19,7 19,19l0 0 -67 0c-32,0 -48,16 -48,47 0,33 16,49 48,49l106 0 0 1zm-116 -48c0,-7 3,-9 10,-9l67 0 0 19 -67 0c-7,0 -10,-3 -10,-10zm242 -48l-67 0 0 39 67 0c7,0 10,3 10,11 0,6 -3,9 -10,9l-106 0 0 39 106 0c32,0 48,-16 48,-47 0,-11 -4,-21 -13,-30 9,-8 13,-18 13,-28 0,-32 -17,-49 -48,-49l-106 0 0 39 106 0c7,0 10,3 10,11 0,6 -3,9 -10,9l0 -2zm223 97l-39 0 0 -17c-20,13 -39,20 -58,20 -39,0 -58,-19 -58,-58l0 -100 39 0 0 100c0,12 7,19 19,19 26,-3 45,-16 58,-36l0 -83 39 0 0 154 0 1zm175 0l-39 0 0 -58 -77 0 0 58 -39 0 0 -154 39 0 0 58 77 0 0 -58 39 0 0 154zm351 19c0,39 -20,58 -59,58l-57 0 0 -39 58 0c13,0 19,-7 19,-19l0 -19 -58 0c-39,0 -58,-19 -58,-58l0 -39c0,-39 19,-58 58,-58l97 0 0 174zm-39 -135l-58 0c-13,0 -19,7 -19,19l0 39c0,13 7,19 19,19l58 0 0 -77zm218 55l0 -39c0,-39 -20,-58 -59,-58l-40 0c-39,0 -59,19 -59,58l0 39 0 3c0,39 19,58 58,58l93 0 0 -39 -93 0c-13,0 -19,-7 -19,-19l0 -3 119 0 -1 0zm-119 -39c0,-13 7,-19 19,-19l42 0c13,0 19,7 19,19l-80 0zm295 -16l-58 0 0 116 -39 0 0 -116 -58 0 0 -39 154 0 0 39 1 0zm175 116l-97 0c-39,0 -58,-19 -58,-58l0 -39c0,-39 19,-58 58,-58l97 0 0 39 -97 0c-13,0 -19,7 -19,19l0 39c0,13 7,19 19,19l97 0 0 39zm194 0l-55 0 -60 -58 -19 0 0 58 -39 0 0 -154 39 0 0 58 19 0 61 -58 55 0 -79 77 79 77zm165 0l-39 0 0 -17c-20,13 -39,20 -58,20 -39,0 -58,-19 -58,-58l0 -100 39 0 0 100c0,12 7,19 19,19 26,-3 45,-16 58,-36l0 -83 39 0 0 154 0 1zm75 -77l-54 77 47 0 30 -43 30 43 47 0 -54 -77 54 -77 -47 0 -30 44 -30 -44 -47 0 54 77zm460 77l-55 0 -60 -58 -19 0 0 58 -39 0 0 -154 39 0 0 58 19 0 61 -58 55 0 -79 77 79 77zm165 -55c0,39 -19,58 -58,58l-39 0c-39,0 -58,-19 -58,-58l0 -46c0,-39 19,-58 58,-58l39 0c39,0 58,19 58,58l0 46zm-39 0l0 -46c0,-13 -7,-19 -19,-19l-39 0c-13,0 -19,7 -19,19l0 46c0,13 7,19 19,19l39 0c13,0 19,-7 19,-19zm175 55l0 -116 -39 0c-11,0 -17,7 -19,19l-19 97 -37 0 18 -97c5,-39 25,-58 58,-58l77 0 0 154 -39 0 0 1zm60 -105c0,-33 16,-49 48,-49l106 0 0 154 -39 0 0 -58 -17 0 -48 58 -50 0 48 -58c-32,0 -48,-16 -48,-47l1 0zm116 -11l-67 0c-7,0 -10,3 -10,11 0,6 3,9 10,9l67 0 0 -19 0 -1zm213 116l-97 0c-39,0 -58,-19 -58,-58l0 -39c0,-39 19,-58 58,-58l97 0 0 39 -97 0c-13,0 -19,7 -19,19l0 39c0,13 7,19 19,19l97 0 0 39zm175 -55c0,39 -19,58 -58,58l-39 0c-39,0 -58,-19 -58,-58l0 -46c0,-39 19,-58 58,-58l39 0c39,0 58,19 58,58l0 46zm-39 0l0 -46c0,-13 -7,-19 -19,-19l-39 0c-13,0 -19,7 -19,19l0 46c0,13 7,19 19,19l39 0c13,0 19,-7 19,-19zm233 55l-55 0 -60 -58 -19 0 0 58 -39 0 0 -154 39 0 0 58 19 0 61 -58 55 0 -79 77 79 77z"/>
  <path class="fil3" d="M11205 6025c-9,7 -13,16 -13,28l0 0c0,9 5,21 14,30 3,3 8,7 14,12 16,11 42,24 78,29 -30,36 -70,70 -117,98 -86,53 -190,91 -282,111l-62 13 44 46c9,10 48,34 100,49 5,2 11,2 17,4 -77,48 -167,70 -257,72 -186,5 -302,-100 -319,-99 -95,5 -361,96 -375,108 94,-63 45,4 243,12 142,7 302,60 451,50 133,-3 270,-46 371,-144l65 -65 -92 3c-26,1 -50,-2 -73,-7 70,-23 142,-55 205,-94 79,-49 145,-111 178,-183l29 -65 -70 16c-29,7 -52,4 -70,-1 15,-12 32,-25 51,-38 103,-75 231,-168 177,-282 -53,-113 -262,-96 -355,-89l-11 1c10,-14 26,-31 50,-46l67 -42 -76 -22c-97,-28 -185,-34 -276,-21 -59,8 -118,26 -182,49 14,-17 31,-38 51,-60l70 -75 -102 16c-170,26 -303,74 -402,149 -31,23 -57,48 -81,75 -33,38 -131,122 -205,164 28,-7 165,33 195,29 29,-51 85,-175 133,-212 70,-53 161,-91 273,-117 -21,28 -34,50 -42,65 -4,9 -7,16 -9,21 -7,21 -1,38 13,47l2 1c4,2 8,4 13,4l10 2 9 -4c96,-42 180,-72 262,-84 59,-8 117,-8 178,2 -25,28 -35,55 -40,69l-60 46 84 12 22 3 2 0 2 0c2,0 0,0 2,0 2,0 5,1 10,1 10,0 22,-1 37,-2 78,-7 253,-20 285,48 28,60 -73,134 -155,194 -36,26 -69,50 -90,73l2 -1z"/>
  <path class="fil3" d="M11215 6039c-2,2 -3,3 -4,5l0 0c-1,2 -2,4 -2,7l0 2c0,2 1,5 2,8 2,3 3,7 7,9 2,2 3,3 5,5 2,2 4,3 7,5 7,5 18,12 32,17 11,4 23,7 37,9l31 4 -20 25c-15,19 -33,36 -52,53 -21,17 -44,34 -69,49 -42,26 -89,49 -135,67 -51,20 -104,36 -153,46l-31 7 22 23c4,4 17,13 37,23l0 0c15,7 34,15 55,21l0 0c3,1 6,2 7,2 2,0 4,1 7,2l41 10 -36 22c-38,24 -80,41 -123,54 -46,13 -94,20 -142,21 -148,4 -252,-59 -301,-88 -12,-7 -16,-12 -17,-12 -36,2 -98,17 -161,35 -34,10 -67,20 -98,30 25,8 62,17 127,21 61,2 124,14 189,25 87,16 176,31 261,26l1 0c68,-2 137,-14 201,-39 58,-22 112,-55 158,-100l34 -33 -47 2c-13,1 -26,0 -38,-2 -14,-2 -27,-4 -39,-7l-61 -14 60 -19c36,-12 72,-26 108,-41 33,-15 65,-31 94,-50 41,-25 77,-53 107,-84 27,-28 49,-59 64,-91l15 -33 -36 8c-15,3 -28,4 -41,4 -15,0 -27,-2 -38,-6l-31 -10 26 -21c15,-12 32,-24 50,-37l1 -1c98,-71 219,-160 171,-261 -48,-102 -248,-86 -338,-79l0 0 -11 1 -37 3 22 -31c6,-8 13,-17 22,-26 9,-8 20,-17 33,-26l34 -22 -39 -12c-47,-14 -92,-22 -137,-26 -44,-3 -88,-2 -132,5 -29,4 -58,11 -88,18 -30,8 -60,18 -91,30l-58 22 38 -49c7,-10 16,-20 25,-30l0 0c8,-9 17,-20 28,-31l36 -39 -52 8c-84,13 -158,31 -224,55 -65,24 -122,54 -170,90 -15,11 -28,22 -41,35 -13,12 -26,25 -37,38 -18,22 -57,58 -101,93l0 0c-21,17 -42,33 -64,47 17,3 35,7 52,11 31,7 63,13 79,14 5,-10 12,-22 18,-36 31,-60 74,-142 115,-173 36,-27 78,-50 124,-70 46,-20 98,-36 156,-49l46 -11 -28 38c-9,12 -17,24 -23,34 -7,12 -13,22 -17,29 -2,4 -3,7 -5,10 -2,2 -2,6 -3,7 -2,7 -2,12 -1,17 1,4 3,7 7,10l2 1 0 0c1,1 2,1 3,2 1,0 2,1 3,1l0 0 5 1 5 -2 0 0c49,-22 94,-40 137,-54 44,-14 87,-25 129,-31 31,-4 60,-7 91,-6 31,0 61,3 93,9l31 6 -21 23c-12,13 -19,26 -25,36l0 0c-6,11 -9,20 -12,27l-2 5 -4 3 -26 21 43 6 22 3 0 0 1 0 1 0c2,0 3,0 4,0l3 0 0 0c1,0 2,0 5,0l0 0c8,0 20,-1 35,-2l1 0c40,-3 103,-8 162,-4 63,5 121,21 140,61 18,39 -2,79 -39,117 -33,35 -79,69 -121,98 -17,13 -35,25 -50,37 -15,12 -28,22 -38,33l-1 1 -1 1 2 2zm-36 -10c3,-7 8,-12 14,-17 12,-12 25,-23 41,-36 15,-12 33,-25 51,-38 41,-30 85,-62 117,-94 27,-28 43,-55 32,-78 -12,-26 -59,-38 -111,-41 -56,-4 -118,1 -157,4l-1 0c-15,1 -26,2 -38,2l0 0c-2,0 -4,0 -7,0 -3,0 -4,0 -5,0 -1,0 -2,0 -2,0l-1 0 -2 0 -1 0 -2 0 0 0 -22 -3 -84 -12 -41 -6 33 -26 55 -43c2,-7 7,-17 12,-27l0 0c3,-6 7,-12 11,-19 -20,-2 -39,-4 -58,-4 -28,0 -57,2 -86,6 -40,6 -81,16 -123,30 -43,14 -88,31 -134,53l0 0 -9 4 -5 2 -5 -1 -10 -2 0 0c-3,-1 -7,-2 -11,-2 -3,-1 -7,-2 -9,-4l0 0 -2 -1 -1 -1c-11,-7 -18,-17 -22,-30 -3,-11 -2,-24 2,-37 1,-2 2,-7 4,-11 2,-3 3,-7 6,-12 4,-8 10,-18 17,-30 -38,11 -73,22 -105,36 -45,19 -84,41 -118,66 -34,26 -74,104 -104,161 -9,17 -17,32 -24,45l-4 7 -8 1c-17,2 -58,-6 -98,-15 -41,-8 -84,-17 -95,-15l-122 28 109 -60c32,-18 70,-45 103,-72l0 0c42,-33 79,-68 97,-89 12,-14 26,-28 40,-41 14,-13 29,-25 45,-37 51,-38 111,-70 180,-95 68,-25 145,-44 231,-57l102 -16 50 -7 -35 37 -70 75c-3,3 -7,7 -10,11 12,-3 22,-7 34,-10 31,-8 61,-15 92,-19 46,-7 93,-9 139,-6 46,3 94,12 144,26l76 22 37 11 -33 21 -67 42c-6,3 -11,7 -15,11 107,-7 285,-9 337,102 60,127 -74,224 -183,304l-1 1 -14 11c6,-1 12,-2 20,-3l70 -16 34 -7 -14 31 -29 65c-17,36 -41,70 -71,102 -32,33 -71,63 -113,89 -31,19 -65,37 -98,52 -12,6 -25,11 -38,17l86 -2 45 -2 -32 31 -65 65c-50,48 -108,84 -170,108 -68,26 -141,40 -213,41l0 0c-89,6 -180,-10 -270,-26 -64,-11 -126,-22 -184,-25 -94,-4 -136,-22 -161,-32 -7,-2 -12,-5 -17,-6 -26,9 -46,17 -52,20l-3 2 -21 -28c0,0 1,-1 1,-1l0 0c40,-26 57,-33 75,-30 40,-14 90,-31 140,-45 65,-18 129,-34 168,-36 9,-1 20,6 37,17 46,27 144,87 282,83 45,-1 90,-7 134,-20 27,-7 54,-17 79,-30 -13,-5 -26,-10 -36,-15l0 0c-24,-12 -41,-24 -47,-31l-44 -46 -22 -22 31 -7 62 -13c47,-10 98,-26 147,-45 46,-18 89,-40 130,-64 23,-14 45,-30 65,-46 10,-8 20,-17 28,-26 -5,-2 -10,-3 -14,-5 -17,-7 -31,-14 -41,-21 -3,-2 -7,-5 -9,-7 -3,-2 -6,-5 -7,-7 -6,-6 -11,-12 -13,-19 -1,-2 -2,-3 -2,-5l-3 0 0 -17c0,-9 2,-17 5,-23l0 0 -1 -2zm-18 -372l0 0z"/>
  <path class="fil4" d="M6949 7678c-165,33 -289,179 -289,354 0,199 161,361 361,361 199,0 361,-161 361,-361 0,-153 -96,-285 -231,-337 6,-31 3,-69 -10,-113 -14,-45 -116,-224 -200,-335 -56,-74 -72,-94 -32,-108 93,-31 370,273 496,352 348,218 588,109 1431,80 -7,39 -10,79 -10,119 0,388 314,702 702,702 388,0 702,-314 702,-702 0,-388 -314,-702 -702,-702 -357,0 -242,65 -375,-218 -47,-100 -106,-209 -163,-314 128,-8 236,-18 314,-30l314 0 0 12c0,17 13,30 30,30l0 0c17,0 30,-13 30,-30l0 -12 2 0 0 12c0,17 13,30 30,30l0 0c17,0 30,-13 30,-30l0 -12 2 0 0 12c0,17 13,30 30,30l0 0c17,0 30,-13 30,-30l0 -12c257,-11 512,68 584,-17 27,-32 -100,-112 -148,-242 -54,-149 12,-366 4,-361 -14,8 -27,17 -40,24 -148,90 -222,149 -400,254 -2,-15 -14,-27 -30,-27l0 0c-17,0 -30,13 -30,30l0 7 -2 1 0 -8c0,-17 -13,-30 -30,-30l0 0c-17,0 -30,13 -30,30l0 18 -2 0 0 -19c0,-17 -13,-30 -30,-30l0 0c-12,0 -22,7 -27,17 3,-58 2,-122 2,-191 0,-141 12,-143 104,-141 52,1 84,6 110,-40 46,-78 0,-758 -72,-990 295,-244 656,-406 834,-622 241,-292 -41,-377 -330,-363 -549,26 -928,343 -1076,522 -116,-64 -781,-452 -1064,-585 -103,-48 -148,-80 -209,41 -378,749 108,1374 -94,1609 -137,159 -695,41 -1653,41 -170,-10 -209,41 -126,218l108 266c247,568 -128,591 645,627 342,16 774,23 1189,21 -218,170 -462,295 -747,348 -258,48 -530,98 -789,137 -144,22 -168,94 1,217 105,77 230,151 280,183 90,55 185,199 211,291 2,6 3,12 6,17l-1 -1zm2670 -1561l0 0 0 -1 0 1zm-1722 693c161,-87 321,-195 465,-328 154,-3 300,-7 433,-13 33,50 73,110 118,183 70,111 107,241 122,372 2,19 3,35 4,50 -500,-215 -806,-271 -1143,-262zm1737 -2280c36,-36 73,-70 111,-103 85,-75 173,-150 258,-219 247,-201 457,-353 -55,-272 -285,45 -636,283 -693,342 -2,2 -3,3 -4,5l31 17c161,88 272,161 352,233l0 -1z"/>
  <path class="fil5" d="M6968 7770c-61,12 -115,46 -153,93 -37,46 -60,104 -60,169 0,74 30,140 78,189 48,48 115,78 189,78 74,0 140,-30 189,-78 48,-48 78,-115 78,-189 0,-56 -17,-108 -46,-151 -31,-44 -74,-79 -123,-98l-73 -28 -77 16 -1 0zm-300 -26c42,-51 96,-94 156,-123 -12,-23 -28,-48 -46,-72 -31,-42 -65,-79 -96,-98l-21 -13 0 0c11,7 22,14 0,0 -60,-36 -168,-103 -265,-174 -65,-47 -108,-91 -132,-132 -23,-40 -31,-78 -23,-114 7,-41 31,-73 68,-98 31,-21 75,-36 127,-44 255,-38 515,-86 762,-132l24 -4c133,-25 258,-67 376,-122 26,-12 50,-25 74,-38 -108,-1 -214,-2 -318,-3 -203,-3 -394,-9 -562,-17 -598,-28 -602,-53 -629,-307 -9,-83 -22,-203 -98,-376l-1 -2 -108 -266 0 0c-54,-117 -63,-200 -25,-264 41,-68 119,-90 238,-84l0 0 1139 0c624,-12 368,-22 424,-1075 12,-229 46,-414 102,-522 99,-196 170,-162 316,-92 7,3 -21,-10 18,8 218,103 658,354 906,496 37,22 70,41 98,55 100,-106 257,-236 464,-336 175,-85 386,-149 627,-161 119,-6 239,4 330,36 62,22 114,55 148,101l0 0c39,52 53,116 35,191 -14,55 -47,118 -104,188 -113,137 -284,247 -468,367 -110,71 -224,146 -333,230 30,129 54,322 66,501 17,229 13,446 -20,502 -53,90 -103,89 -182,87l-12 0c-17,0 2,-36 -12,-18 0,0 -1,1 -1,1l0 7c1,8 5,25 5,57 0,89 0,28 0,49l0 31c8,1 16,2 23,4 10,-2 21,-4 31,-4l0 0c14,0 27,2 40,7 68,-41 122,-77 174,-112 41,-26 196,-157 314,-247 84,-64 149,-100 147,-98 -7,8 -48,47 -108,119 -40,48 -89,189 -79,206l1 1c19,32 76,-25 69,13 -11,55 -37,193 -4,284 19,52 59,98 89,134 63,74 60,70 -7,146 -2,2 61,71 138,122 55,37 131,62 131,62 0,12 -472,-55 -603,-66 -65,-6 -137,-12 -209,-13 -2,2 -3,4 -6,6 -22,22 -54,36 -89,36l0 0c-11,0 -22,-2 -31,-4 -10,2 -21,4 -31,4l0 0c-11,0 -21,-2 -31,-4 -10,2 -20,4 -31,4l0 0c-35,0 -65,-14 -89,-36 -2,-2 -3,-3 -4,-5l-50 0 -3 7 0 -7 -194 0c-36,5 -81,10 -133,15 -12,1 -23,2 -35,3 6,10 11,21 17,31 30,56 56,110 79,159 28,60 46,105 59,138 11,27 -2,31 7,36 4,2 17,-3 59,-6 42,-2 98,-5 165,-5 220,0 420,89 563,233 144,144 233,343 233,563 0,220 -89,420 -233,563 -144,144 -343,233 -563,233 -220,0 -420,-89 -563,-233 -144,-144 -233,-343 -233,-563 0,-7 0,-14 0,-21 -175,8 -327,19 -456,29 -434,32 -640,48 -921,-127 -50,-31 -115,-89 -185,-150l-7 -7c35,61 61,114 69,139 8,27 14,54 16,79l0 3c60,34 111,82 150,138 50,74 79,162 79,257 0,126 -51,240 -133,322 -83,83 -196,133 -322,133 -126,0 -240,-51 -322,-133 -83,-83 -133,-196 -133,-322 0,-109 39,-209 103,-288l-1 2zm387 -49l3 -17c2,-7 2,-17 1,-27 -1,-12 -4,-25 -8,-41 -6,-18 -36,-74 -74,-139 -34,-57 -74,-118 -110,-165 -34,-44 -55,-72 -66,-102 -31,-84 -7,-125 79,-153 112,-37 271,103 415,229 63,55 122,108 161,132 228,142 415,128 808,99 153,-12 335,-25 571,-33l116 -4 -20 114c-2,17 -5,33 -7,51 -2,17 -2,35 -2,52 0,168 68,319 178,429 110,110 261,178 429,178 168,0 319,-68 429,-178 110,-110 178,-261 178,-429 0,-168 -68,-319 -178,-429 -110,-110 -261,-178 -429,-178 -73,0 -121,2 -156,4 -79,4 -118,6 -162,-20 -48,-28 -62,-63 -89,-131l-6 -15c6,29 10,59 14,89 2,11 2,21 3,30 1,6 1,16 2,28l5 149 -137 -59c-244,-105 -440,-171 -615,-209 -174,-38 -328,-50 -489,-46l-391 9 344 -187c80,-44 161,-93 239,-148 72,-51 141,-107 206,-166l26 -25 36 -1c76,-2 152,-3 226,-6 69,-2 137,-5 204,-7l53 -2 1 1 140 -9c67,-4 127,-9 175,-13 47,-4 92,-10 132,-16l7 -1 7 0c447,0 68,-381 261,-631l99 -997 -8 -26 12 -10 5 -46 -36 36 -66 -59c-36,-31 -79,-65 -134,-101 -56,-37 -122,-76 -199,-118l-20 -11 -10 -6 -2 -1 -109 -60 0 0c-31,-17 -70,-40 -115,-65 -246,-141 -680,-388 -894,-489 -26,-12 1,0 -19,-9 -34,-16 -50,-24 -66,7 -43,85 -71,243 -81,446 -10,205 -2,453 30,716 4,36 8,65 11,88 4,33 8,62 12,87l202 1307 86 -1 -218 170c-115,89 -236,167 -366,229 -131,62 -271,109 -423,137l-24 4c-255,47 -520,97 -769,134 -4,1 -8,2 -12,2 13,12 31,27 55,45 89,65 195,130 253,165 10,6 7,4 0,0l0 0 22 13c54,33 107,89 150,148 46,65 84,138 102,197l0 0c0,1 1,2 2,6l0 0c2,7 1,3 2,6l17 49 4 0zm2563 -1363l27 0 33 0 2 0 33 0 27 0 2 0 32 0 35 0c99,-3 195,5 282,13 59,5 113,10 152,12 -34,-41 -70,-93 -93,-157 -24,-66 -29,-140 -26,-207 -11,7 -22,15 -33,22 -66,44 -134,89 -240,151l-13 7 0 1 -2 1 -113 66 -4 -46 -22 4 -2 0 -32 6 -44 127 -1 -1zm693 19c2,-1 2,-2 3,-2 19,-22 11,-12 -3,2zm-598 -704c5,0 11,0 16,0 7,0 10,0 12,0 11,0 10,12 14,7 13,-23 9,-196 -5,-393 -8,-117 -22,-237 -37,-340l0 726 0 1zm0 -1015c125,-102 260,-190 389,-274 172,-112 331,-215 424,-329 38,-46 60,-84 67,-113 4,-16 2,-26 -2,-34l0 0c-10,-13 -31,-26 -59,-36 -67,-24 -161,-31 -258,-26 -22,1 -44,2 -65,5 94,12 138,49 147,106 16,98 -108,199 -256,318 -12,10 -25,21 -38,31 -39,32 -81,67 -126,105 -40,34 -83,71 -130,113 -21,18 -38,34 -54,49 -14,13 -27,26 -40,37l0 49 0 1zm-1538 1758l-285 -942 -6 0 -387 0 -12 0 -81 0 -31 0 -1200 0 -6 0c-48,-2 -70,-7 -71,-6 -2,3 10,32 36,90l2 4 108 266 0 0c87,199 102,336 112,430 12,108 12,118 449,138 170,8 359,13 556,17 205,3 419,5 629,3l187 -1 -2 -1zm-1414 886c-12,-7 -35,-22 0,0l0 0zm-99 161c-17,-11 -9,-6 0,0l0 0zm3153 -3196c41,-35 84,-70 129,-108 12,-11 26,-21 38,-31 101,-82 189,-134 188,-142 -3,-22 -52,43 -207,67 -100,16 -213,60 -316,111 -88,43 -167,90 -226,130 44,26 84,50 119,74 32,22 61,42 89,62 182,-170 54,-50 185,-163l1 0zm-1416 2333c-63,56 -127,107 -192,153 71,8 144,20 220,36 148,32 308,83 495,156 -5,-22 -11,-42 -17,-64 -17,-55 -41,-108 -71,-156 -32,-50 -55,-87 -64,-99 -8,-13 -17,-26 -25,-38 -49,2 -100,4 -155,6 -61,2 -126,3 -192,5l1 1z"/>
  <circle class="fil6" cx="7021" cy="8031" r="361"/>
  <ellipse class="fil7" transform="matrix(-0.246026 0.0587148 0.044363 0.373794 8152.22 4849.7)" rx="1191" ry="3294"/>
  <path class="fil7 str0" d="M10446 5662c-42,-11 -314,250 -182,541 133,290 477,313 515,293 17,-9 138,-110 70,-175 -57,-54 -169,71 -319,19 -68,-23 -156,-94 -186,-171 -41,-103 -2,-249 53,-320 95,-122 591,-48 49,-186l0 -1z"/>
  <polygon class="fil6" points="10274,5785 9789,6099 8986,6227 8986,6427 10423,6425 "/>
  <path class="fil8" d="M7943 3578c-8,2 -17,6 -24,10 137,131 278,575 343,1124 77,645 22,1202 -122,1291 32,31 65,45 96,37 162,-39 228,-621 146,-1302 -81,-680 -277,-1200 -439,-1162l1 1z"/>
  <path class="fil9" d="M8315 5354c-715,0 -1417,0 -2142,0 -170,-10 -209,41 -126,218l108 266c247,568 -128,591 645,627 902,42 2435,22 2629,-66 213,-97 196,-274 196,-515 0,-141 12,-143 104,-141 52,1 84,6 110,-40 50,-87 -12,-919 -97,-1052 -71,-111 -204,-215 -458,-354 -224,-123 -1204,-690 -1253,-680 281,380 355,1410 285,1737l-1 1z"/>
  <path class="fil10" d="M9131 7111c-1024,-459 -1260,-259 -2381,-177 935,948 834,665 2205,634l175 -457z"/>
  <path class="fil8" d="M9705 4379c-76,32 -351,350 -594,677 -236,318 -442,644 -469,726 -30,89 -30,109 67,103 108,-7 381,-674 527,-846 16,-19 301,-347 432,-532 50,-71 38,-127 37,-127z"/>
  <path class="fil8" d="M7140 7062l20 26c138,0 1273,-354 857,-363 -95,-2 -369,194 -474,237 -113,46 -284,75 -403,100l0 -1z"/>
  <path class="fil11" d="M9641 4825c-304,304 -496,595 -752,1032 -56,95 -151,162 -4,414 86,147 193,336 270,499 134,284 18,218 375,218 388,0 702,314 702,702 0,388 -314,702 -702,702 -388,0 -702,-314 -702,-702 0,-107 24,-208 66,-299 108,-229 164,-198 143,-371 -16,-131 -52,-261 -122,-372 -327,-515 -292,-423 -511,-208 -449,441 -1083,622 -1378,675 -159,29 -170,16 -83,130 84,110 186,290 200,335 67,216 -141,277 -198,79 -26,-91 -121,-235 -211,-291 -50,-31 -175,-106 -280,-183 -169,-123 -146,-194 -1,-217 253,-38 732,-127 789,-137 1172,-218 1637,-1645 2503,-2407 85,-75 173,-150 258,-219 247,-201 457,-353 -55,-272 -224,36 -497,187 -623,290l-70 57c-2,1 -55,-30 -59,-34 -3,-3 50,-60 85,-94 185,-179 526,-405 988,-428 289,-14 571,71 330,363 -204,247 -649,424 -960,736l-1 1z"/>
  <path class="fil7" d="M10262 5833c-29,15 -64,203 -3,347 61,144 164,274 194,258 13,-7 17,-41 12,-92 -7,-61 -105,-108 -134,-199 -22,-69 17,-204 12,-216 -26,-70 -63,-107 -79,-98z"/>
  <path class="fil12 str1" d="M9658 6057l0 0c20,0 36,85 36,189l0 32c0,105 -16,189 -36,189l0 0c-20,0 -36,-85 -36,-189l0 -32c0,-105 16,-189 36,-189z"/>
  <path class="fil13" d="M9742 6057l0 0c27,0 49,85 49,189l0 32c0,105 -22,189 -49,189l0 0c-27,0 -49,-85 -49,-189l0 -32c0,-105 22,-189 49,-189z"/>
  <path class="fil14" d="M9828 6057l0 0c17,0 30,85 30,189l0 32c0,105 -13,189 -30,189l0 0c-17,0 -30,-85 -30,-189l0 -32c0,-105 13,-189 30,-189z"/>
  <circle class="fil7" cx="9533" cy="7728" r="592"/>
  <circle class="fil15" cx="9528" cy="7705" r="127"/>
  <path class="fil16" d="M9528 6985c-197,0 -375,79 -504,209 -129,129 -209,307 -209,504 0,197 79,375 209,504 129,129 307,209 504,209 197,0 375,-79 504,-209 129,-129 209,-307 209,-504 0,-197 -79,-375 -209,-504 -129,-129 -307,-209 -504,-209zm-400 314c103,-103 243,-165 400,-165 156,0 297,63 400,165 103,103 165,243 165,400 0,156 -63,297 -165,400 -103,103 -243,165 -400,165 -156,0 -297,-63 -400,-165 -103,-103 -165,-243 -165,-400 0,-156 63,-297 165,-400z"/>
  <path class="fil17" d="M10745 5684c236,0 427,169 427,377 0,121 -158,170 -258,240 -73,50 -70,137 -169,137 -236,0 -427,-169 -427,-377 0,-209 191,-377 427,-377z"/>
  <path class="fil18" d="M11207 6047c-2,1 44,48 128,30 -61,137 -267,231 -431,267 11,11 83,51 170,48 -194,189 -545,141 -671,18 194,-1 353,-81 426,-171 -18,-5 -6,-3 -34,-2 -85,5 -110,-17 -112,-20 73,-115 290,-34 340,-299 -43,-61 -107,-82 -189,-84 -92,-2 -174,55 -261,67 -1,-17 29,-75 103,-108 -27,-2 -318,-27 -445,105 -1,-24 46,-126 60,-147 81,-127 243,-213 474,-249 -86,92 -108,147 -103,148 186,-83 328,-114 501,-63 -73,46 -78,100 -82,103l22 3c2,0 7,1 11,1 43,0 287,-38 334,62 54,114 -175,222 -240,292l1 -2z"/>
  <path class="fil3" d="M11206 7161c71,42 122,63 154,63 17,0 31,-4 43,-13 12,-9 17,-19 17,-31 0,-13 -5,-23 -14,-29 -10,-6 -46,-23 -107,-50 -50,-22 -85,-48 -108,-78 -22,-30 -33,-67 -33,-111 0,-63 22,-115 65,-156 43,-41 99,-61 167,-61 65,0 146,26 242,79l-80 148c-62,-38 -113,-57 -152,-57 -35,0 -51,14 -51,41 0,13 7,25 19,35 12,10 36,21 69,33 62,22 108,48 137,79 28,31 43,69 43,116 0,67 -22,122 -67,165 -45,43 -102,65 -171,65 -75,0 -156,-26 -242,-79l71 -154 -2 -2zm531 -445l208 0 0 423c0,22 5,41 16,55 10,15 24,22 42,22 40,0 60,-30 60,-88l0 -411 208 0 0 381c0,97 -22,170 -68,222 -46,51 -111,77 -196,77 -95,0 -164,-26 -206,-79 -42,-52 -63,-118 -63,-197l0 -405 -1 0zm894 0l0 84 3 0c46,-68 98,-103 156,-103 62,0 113,32 151,96 38,64 57,149 57,257 0,104 -20,188 -58,252 -39,64 -89,96 -149,96 -64,0 -116,-37 -156,-110l-3 0 0 357 -208 0 0 -928 208 0 -1 0zm160 327c0,-108 -27,-162 -82,-162 -52,0 -78,55 -78,164 0,113 26,169 78,169 55,0 82,-57 82,-170zm638 130l175 0c-33,147 -117,222 -251,222 -84,0 -149,-31 -198,-95 -49,-63 -73,-151 -73,-262 0,-104 24,-187 73,-250 49,-63 113,-94 194,-94 49,0 95,15 140,46 45,31 77,70 98,121 21,50 32,129 35,237l-347 0c3,98 30,146 81,146 17,0 33,-7 47,-19 14,-13 22,-30 25,-50l1 -1zm-151 -190l151 0c-2,-46 -7,-80 -19,-103 -12,-22 -30,-33 -55,-33 -27,0 -47,11 -60,32 -12,22 -18,56 -18,103l1 0zm664 -266l0 110 2 0c50,-86 102,-129 156,-129 8,0 19,2 34,4l0 204c-26,-4 -49,-7 -70,-7 -76,0 -114,50 -114,148l0 327 -208 0 0 -658 199 0 1 1z"/>
  <path class="fil2" d="M11579 8097l-157 0 -55 -117c-12,-27 -22,-45 -30,-52 -7,-7 -17,-11 -30,-11l0 179 -140 0 0 -452 140 0 0 174c12,-1 22,-5 28,-13 7,-8 17,-31 31,-69 11,-28 21,-48 31,-60 11,-12 28,-21 52,-26 24,-5 62,-8 113,-8l0 95 -7 0c-24,0 -41,4 -53,13 -12,9 -21,24 -28,44 -7,21 -16,36 -24,46 -8,10 -20,18 -35,24 20,7 38,18 53,34 15,17 31,41 48,75l61 123 0 2zm32 -226c0,-74 21,-132 62,-172 41,-41 98,-62 172,-62 75,0 133,20 174,60 41,41 61,97 61,170 0,53 -9,96 -26,130 -17,34 -44,60 -77,79 -34,19 -75,28 -126,28 -51,0 -94,-8 -127,-24 -33,-17 -60,-42 -81,-77 -21,-35 -31,-79 -31,-132l-1 0zm140 0c0,46 8,79 26,98 17,20 41,30 70,30 30,0 53,-10 70,-29 17,-20 25,-55 25,-105 0,-42 -8,-74 -26,-94 -17,-20 -41,-30 -70,-30 -28,0 -51,10 -68,30 -17,20 -26,53 -26,99zm819 225l-140 0 0 -341 -109 0 0 139c0,57 -3,99 -9,126 -6,26 -21,46 -42,59 -22,12 -58,19 -108,19 -15,0 -32,-2 -52,-5l0 -92 21 0c19,0 32,-4 40,-12 7,-8 12,-23 12,-46l0 -299 388 0 0 452 1 0zm491 0l0 -452 -233 0c-43,0 -76,3 -99,11 -23,7 -41,22 -55,41 -14,20 -21,45 -21,74 0,25 5,46 16,65 11,18 26,33 44,45 12,7 28,13 49,18 -17,6 -29,11 -36,17 -5,3 -12,12 -22,24 -10,12 -17,22 -20,28l-68 131 158 0 74 -138c9,-18 18,-30 26,-35 10,-7 22,-11 34,-11l12 0 0 183 140 0 2 0zm-140 -268l-59 0c-7,0 -19,-2 -37,-7 -9,-2 -17,-7 -22,-14 -6,-7 -9,-17 -9,-26 0,-15 5,-26 14,-34 9,-8 26,-12 52,-12l61 0 0 92 0 1zm534 84l122 37c-8,34 -22,63 -39,86 -17,23 -40,41 -66,52 -26,12 -60,17 -100,17 -49,0 -89,-7 -121,-22 -31,-14 -58,-40 -80,-75 -22,-36 -34,-82 -34,-138 0,-74 20,-132 60,-172 40,-40 96,-60 169,-60 57,0 102,12 134,35 32,23 57,59 73,106l-123 27c-4,-14 -9,-24 -13,-30 -8,-11 -17,-19 -29,-25 -12,-6 -24,-8 -38,-8 -31,0 -56,12 -73,38 -12,19 -19,49 -19,89 0,50 7,84 23,103 15,18 36,28 65,28 26,0 47,-7 60,-22 14,-15 23,-36 30,-65zm601 185l-157 0 -55 -117c-12,-27 -22,-45 -30,-52 -7,-7 -17,-11 -30,-11l0 179 -140 0 0 -452 140 0 0 174c12,-1 22,-5 28,-13 7,-8 17,-31 31,-69 11,-28 21,-48 31,-60 11,-12 28,-21 52,-26 24,-5 62,-8 113,-8l0 95 -7 0c-24,0 -41,4 -53,13 -12,9 -21,24 -28,44 -7,21 -16,36 -24,46 -8,10 -20,18 -35,24 20,7 38,18 53,34 15,17 31,41 48,75l61 123 0 2zm328 -74l-158 0 -22 74 -142 0 170 -452 153 0 170 452 -146 0 -22 -74 -2 0zm-30 -98l-50 -162 -50 162 99 0z"/>
 </g>
</svg>
