<?xml version="1.0" encoding="UTF-8"?>
<!DOCTYPE svg PUBLIC "-//W3C//DTD SVG 1.1//EN" "http://www.w3.org/Graphics/SVG/1.1/DTD/svg11.dtd">
<!-- Creator: CorelDRAW X6 -->
<svg xmlns="http://www.w3.org/2000/svg" xml:space="preserve" width="210mm" height="148mm" version="1.1" style="shape-rendering:geometricPrecision; text-rendering:geometricPrecision; image-rendering:optimizeQuality; fill-rule:evenodd; clip-rule:evenodd"
viewBox="0 0 21000 14800"
 xmlns:xlink="http://www.w3.org/1999/xlink">
 <defs>
  <style type="text/css">
   <![CDATA[
    .fil15 {fill:none}
    .fil18 {fill:#3B7D6B}
    .fil5 {fill:#64AD99}
    .fil22 {fill:#7A5407}
    .fil26 {fill:#7A5D52}
    .fil6 {fill:#7BC8BE}
    .fil1 {fill:#856558}
    .fil17 {fill:#86BEB1}
    .fil20 {fill:#9C7321}
    .fil25 {fill:#9E7968}
    .fil12 {fill:#A2DCD0}
    .fil7 {fill:#ACE0DC}
    .fil21 {fill:#B3852E}
    .fil11 {fill:#B4F0EB}
    .fil8 {fill:#C59334}
    .fil23 {fill:#CCAA7D}
    .fil14 {fill:#D4B894}
    .fil3 {fill:#E3E0C1}
    .fil4 {fill:#E6CCAA}
    .fil9 {fill:#F3AF30}
    .fil24 {fill:#F3B02E}
    .fil16 {fill:#F4F8F9}
    .fil0 {fill:#F5F1C9}
    .fil10 {fill:#F8DB42}
    .fil27 {fill:#86BEB1;fill-rule:nonzero}
    .fil2 {fill:#CAC395;fill-rule:nonzero}
    .fil13 {fill:#F4F8F9;fill-rule:nonzero}
    .fil19 {fill:#F8DB42;fill-rule:nonzero}
   ]]>
  </style>
 </defs>
 <g id="Слой_x0020_1">
  <metadata id="CorelCorpID_0Corel-Layer"/>
  <g id="_816254944">
   <rect class="fil0" x="-186" y="-54" width="21167" height="15028"/>
   <path class="fil1" d="M7836 7289c10,6 21,13 31,20m-10 526c-5,0 -11,1 -16,1m1160 2288l-3 0c11,-295 -159,-589 -517,-795 7,-25 14,-49 20,-74 31,-130 104,-681 8,-870 -44,-129 -233,-245 -515,-329 53,-39 139,-66 267,-69 76,-2 130,-31 155,-71 13,-21 19,-45 17,-69 -2,-24 -12,-48 -30,-72 -48,-61 -156,-115 -335,-121 -58,-2 -102,-28 -121,-62 -8,-14 -12,-29 -11,-44 1,-15 7,-31 18,-46 34,-44 114,-80 256,-81 104,0 185,-46 223,-103 15,-23 24,-49 24,-75 0,-26 -8,-52 -27,-76 -71,-91 -427,-152 -422,-149 2,6 -13,35 -6,42 20,22 63,54 116,54 156,-1 243,34 278,79 12,16 18,33 18,50 0,17 -6,35 -17,52 -31,47 -99,84 -188,84 -157,1 -249,44 -289,98 -17,22 -25,45 -26,69 -1,24 4,47 16,68 26,46 82,81 156,83 165,6 262,52 303,105 13,17 20,34 22,50 1,15 -2,30 -10,43 -18,29 -60,50 -120,51 -156,4 -257,43 -315,97 -104,-29 -219,-54 -344,-74 16,-1 32,-2 49,-3 84,-2 143,-35 172,-81 9,-15 16,-31 19,-48 2,-11 2,-23 1,-35 0,-2 -1,-5 -1,-7 -4,-26 -15,-51 -34,-76l0 0c-51,-65 -164,-122 -351,-129 -50,-2 -87,-23 -103,-51 -6,-10 -9,-21 -8,-33 1,-11 5,-23 14,-34 30,-40 104,-72 239,-72 98,0 178,-39 224,-91 5,-6 10,-12 14,-18l2 -4c18,-27 27,-56 27,-86 0,-31 -10,-61 -31,-89 -97,-124 -241,-72 -334,-112 -150,-65 -16,-91 139,-89 64,1 113,-37 113,-85 0,-173 0,33 -253,36 -79,1 -225,-38 -167,127 21,60 115,104 174,104 149,-1 230,30 262,71 9,12 14,24 13,37 0,13 -5,27 -14,40 -3,4 -6,9 -10,13 -18,20 -45,38 -78,49 -24,8 -52,13 -82,13 -165,1 -262,48 -306,106 -19,25 -29,53 -31,80 -2,28 5,55 19,79 29,52 92,91 174,94 282,10 427,201 194,207 -115,3 -202,25 -264,58 -171,-19 -354,-29 -545,-29 -64,0 -128,1 -190,3 6,-296 247,-546 234,-820 -9,-184 -13,-250 -85,-400 5,2 10,4 15,5 15,2 30,4 45,6 34,6 80,8 129,6 610,-9 299,-363 17,-608 98,-146 161,-319 174,-505 8,-53 8,-111 -2,-171l0 0 0 -4c2,-124 -29,-250 -112,-378 -173,-333 -522,-560 -923,-560 -156,0 -304,34 -437,96 -141,-42 -291,-64 -446,-64 -101,0 -199,10 -295,28 -263,31 -626,170 -892,117 -213,-42 -162,-215 -259,-215 -207,1 -214,740 -178,1290 -87,-21 -134,-15 -101,60 55,125 177,99 -69,81 -103,-7 -116,51 -75,120 70,117 210,130 147,138 -266,36 -86,188 168,208 6,38 14,76 23,113 -45,19 -98,38 -159,57 -422,128 -1572,290 -1804,787 -168,359 91,509 434,416 499,-136 1229,-630 1347,-698 112,-65 223,-127 326,-182 266,494 787,830 1388,830 411,0 785,-157 1065,-415 15,66 43,112 154,133 38,7 68,0 91,-18 -102,288 -901,608 -1209,787 -314,183 -217,381 -159,707 -294,0 -569,178 -460,523 -97,122 -171,262 -196,393 -38,196 12,424 214,646 568,1050 4197,1763 4244,-294l-2 -5z"/>
   <path class="fil2" d="M8867 10247l5 -127c5,-125 -30,-251 -106,-368 -75,-116 -191,-223 -347,-313l-86 -50 27 -95c4,-13 7,-25 10,-35 5,-18 8,-30 9,-35 18,-75 51,-299 53,-504 1,-118 -7,-225 -35,-279l-3 -6 -4 -11c-12,-35 -51,-73 -112,-113 -78,-50 -187,-96 -319,-136l-31 -9 -15 -4c-48,-13 -101,-26 -157,-38 -58,-12 -115,-23 -173,-33l-167 -27 -6 3 -38 -4c-85,-9 -172,-16 -261,-21 -84,-4 -174,-7 -271,-7 -49,0 -80,0 -93,0 -29,1 -60,1 -93,3l-134 5 3 -134c3,-147 51,-274 104,-397 -169,224 -583,431 -910,594 -118,59 -224,111 -294,152 -192,112 -164,245 -124,444 10,47 20,97 26,132l26 149 -151 0c-56,0 -112,8 -163,24 -59,19 -110,48 -145,87 -31,36 -50,82 -50,138 407,804 -5393,808 1518,1971 411,98 849,137 1243,93 383,-43 724,-164 956,-387 167,-161 279,-379 309,-662l-1 0zm-1951 1529c-3395,715 -6952,-1446 -3165,-2454 407,-108 773,-196 865,-194 26,-194 165,-306 345,-363 28,-9 57,-16 87,-22 -61,-300 -99,-503 247,-704 82,-48 189,-101 308,-160 250,-125 558,-278 726,-418 -13,-7 -25,-16 -36,-24 -127,97 -267,177 -419,236 -192,75 -400,116 -617,116 -318,0 -617,-88 -872,-241 -227,-136 -420,-324 -563,-546 -15,8 -30,17 -46,26 -61,34 -117,66 -169,96 -18,10 -50,31 -93,58 -248,157 -844,533 -1284,653 -120,33 -234,40 -329,22 -90,-16 -166,-54 -222,-111 -59,-61 -94,-142 -95,-240 -1,-77 19,-165 64,-263 212,-452 1017,-644 1559,-773 94,-22 180,-43 248,-61 -39,-17 -72,-36 -97,-56l0 0c-36,-29 -61,-63 -73,-102 -16,-53 -9,-103 26,-148 -11,-13 -21,-28 -31,-44 -28,-48 -43,-97 -39,-143 2,-28 10,-54 25,-78 15,-24 35,-45 61,-60 19,-11 41,-20 66,-25 -5,-67 30,-112 96,-141 4,-2 8,-3 12,-5 -5,-109 -9,-224 -9,-339 -1,-219 10,-431 41,-590 40,-210 123,-350 267,-360 1,0 6,0 13,0l1 0c119,0 149,60 187,138 14,29 33,66 96,79 151,30 357,-16 548,-60 107,-24 209,-47 302,-58 49,-9 100,-16 153,-21 56,-5 109,-8 160,-8 82,0 163,6 244,18 65,9 130,23 193,39 63,-26 128,-47 195,-62 81,-18 165,-27 251,-27 221,0 427,62 604,169 182,110 331,268 429,456 46,73 78,146 99,218 20,71 29,142 29,212 5,33 8,66 8,99 0,37 -2,71 -7,102 -8,101 -28,197 -59,288 -21,61 -47,120 -78,176 128,120 247,257 285,380 33,109 24,204 -51,272 23,-1 46,1 67,2 14,1 27,2 32,2 86,-1 124,-38 141,-55 207,-204 302,132 198,267 7,4 46,29 53,34 7,-44 24,-153 111,-137 78,14 48,151 143,144 53,-4 136,-8 217,11 121,29 221,114 221,244 0,26 -4,52 -12,77 -7,23 -18,46 -33,68 -33,49 -82,92 -144,121 -47,22 -101,36 -161,39 30,7 58,15 83,24 86,31 148,76 187,126l0 0c16,21 29,42 38,63 10,24 16,49 19,74 3,26 1,52 -5,77l0 0c-6,25 -16,49 -31,71 -26,41 -65,76 -116,99 -4,2 -9,4 -14,6 6,4 13,8 19,12 106,67 179,146 212,233 46,93 60,239 59,391 -2,215 -36,452 -56,548 1786,1183 -600,2272 -1712,2506l-2 1zm1088 -4563c-4,-2 -8,-4 -11,-5 -1,26 -5,50 -12,73l-2 6c4,-1 8,-3 12,-4 58,-20 130,-32 218,-32 10,0 19,-1 27,-2 -31,-6 -70,-10 -118,-10 -43,0 -82,-10 -115,-25l1 -1zm-214 340c-2,-13 10,-54 24,-67 -1,0 -104,26 -141,22 17,7 101,37 117,45zm272 268c-33,-1 -63,-7 -92,-15 0,6 0,11 0,17 0,13 -2,24 -3,34 -1,7 -3,15 -5,22 23,-11 48,-21 75,-29 30,-9 63,-17 98,-22 -22,-3 -46,-5 -73,-6l0 -1zm-601 -274l0 0 0 0 0 0zm-247 -518c-35,-101 -28,-169 4,-216 -62,14 -137,22 -227,24l0 0 -6 0c1,6 3,13 4,19 13,66 16,133 21,231 8,169 -57,316 -123,466 -34,76 -68,153 -89,230 20,0 34,0 43,0 92,0 187,3 283,8 83,4 162,10 240,18 11,-5 23,-9 35,-14 -39,-7 -75,-19 -106,-36 -52,-28 -94,-69 -120,-116 -13,-22 -22,-46 -28,-72l-1 0c-6,-25 -8,-51 -7,-77 2,-27 7,-54 17,-79 9,-23 22,-47 40,-70 38,-50 96,-93 177,-121 18,-6 37,-12 57,-16 -32,-9 -64,-22 -92,-39 -54,-32 -100,-79 -120,-138l-2 -2zm-459 30c-3,-65 -7,-113 -15,-155 -9,-46 -25,-91 -56,-156l-136 -285 295 112 0 0c5,1 5,1 9,1 3,0 4,0 20,2l6 1c13,2 28,4 45,5 19,1 39,1 59,0l2 0c178,-3 232,-24 223,-52 -28,-92 -161,-223 -288,-334l-85 -74 62 -93c43,-65 79,-136 105,-212 25,-74 42,-151 47,-231l1 -11c3,-22 5,-44 5,-64 0,-20 -2,-42 -6,-66l0 0 0 0 -1 -9 0 -4 -1 -6 0 -7c1,-50 -5,-101 -20,-152 -14,-51 -38,-103 -72,-156l-4 -6 -2 -4c-78,-149 -195,-274 -337,-360 -137,-83 -299,-131 -473,-131 -68,0 -134,7 -197,21 -65,14 -128,36 -186,63l-43 20 -46 -14c-65,-19 -133,-34 -203,-44 -67,-10 -136,-15 -208,-15 -49,0 -95,2 -137,6 -44,4 -89,11 -135,19l-9 1c-83,10 -179,31 -278,54 -217,49 -450,102 -653,62 -144,-29 -207,-96 -245,-161 -6,26 -13,61 -21,103 -28,144 -38,339 -37,543 1,151 7,310 17,458l11 172 -17 -4c-5,21 -20,47 -48,79 -32,38 -56,47 -88,46 30,18 50,40 57,92 6,42 1,74 -16,98 17,3 34,5 52,6l100 8 16 99c2,10 5,28 10,52 3,17 7,35 11,52l25 105 -100 42c-26,11 -53,21 -80,31l0 0c-29,10 -59,20 -92,30 -96,29 -209,56 -338,87 -494,117 -1229,292 -1388,633 -29,61 -41,112 -41,152 0,30 9,52 24,67 18,19 48,32 85,39 60,11 135,5 218,-17 402,-110 977,-472 1216,-623 47,-30 82,-52 101,-63 63,-36 121,-69 172,-98 51,-29 103,-57 157,-86l112 -60 60 112c124,231 309,425 534,559 216,130 470,204 742,204 186,0 363,-35 526,-98 169,-66 322,-163 454,-283l160 -147 49 212c3,12 5,20 6,21 5,5 19,10 45,15l256 -197 7 -6z"/>
   <path class="fil3" d="M5568 9205c1736,0 3143,558 3143,1247 0,689 -1407,1247 -3143,1247 -1736,0 -3143,-558 -3143,-1247 0,-689 1407,-1247 3143,-1247z"/>
   <path class="fil4" d="M2505 10259c26,0 47,29 47,66 0,36 -21,66 -47,66 -26,0 -47,-29 -47,-66 0,-36 21,-66 47,-66z"/>
   <path class="fil4" d="M2649 10259c26,0 47,29 47,66 0,36 -21,66 -47,66 -26,0 -47,-29 -47,-66 0,-36 21,-66 47,-66z"/>
   <path class="fil4" d="M2791 10259c26,0 47,29 47,66 0,36 -21,66 -47,66 -26,0 -47,-29 -47,-66 0,-36 21,-66 47,-66z"/>
   <path class="fil4" d="M2948 10259c26,0 47,29 47,66 0,36 -21,66 -47,66 -26,0 -47,-29 -47,-66 0,-36 21,-66 47,-66z"/>
   <path class="fil4" d="M3092 10259c26,0 47,29 47,66 0,36 -21,66 -47,66 -26,0 -47,-29 -47,-66 0,-36 21,-66 47,-66z"/>
   <path class="fil4" d="M2433 10547c-6,-32 -9,-64 -9,-96 0,-8 0,-16 1,-24 7,-5 15,-8 23,-8 26,0 47,29 47,66 0,36 -21,66 -47,66 -5,0 -10,-1 -15,-3l0 -1z"/>
   <path class="fil4" d="M2592 10419c26,0 47,29 47,66 0,36 -21,66 -47,66 -26,0 -47,-29 -47,-66 0,-36 21,-66 47,-66z"/>
   <path class="fil4" d="M2734 10419c26,0 47,29 47,66 0,36 -21,66 -47,66 -26,0 -47,-29 -47,-66 0,-36 21,-66 47,-66z"/>
   <path class="fil4" d="M2891 10419c26,0 47,29 47,66 0,36 -21,66 -47,66 -26,0 -47,-29 -47,-66 0,-36 21,-66 47,-66z"/>
   <path class="fil4" d="M3035 10419c26,0 47,29 47,66 0,36 -21,66 -47,66 -26,0 -47,-29 -47,-66 0,-36 21,-66 47,-66z"/>
   <path class="fil4" d="M2546 10575c26,0 47,29 47,66 0,36 -21,66 -47,66 -26,0 -47,-29 -47,-66 0,-36 21,-66 47,-66z"/>
   <path class="fil4" d="M2690 10575c26,0 47,29 47,66 0,36 -21,66 -47,66 -26,0 -47,-29 -47,-66 0,-36 21,-66 47,-66z"/>
   <path class="fil4" d="M2832 10575c26,0 47,29 47,66 0,36 -21,66 -47,66 -26,0 -47,-29 -47,-66 0,-36 21,-66 47,-66z"/>
   <path class="fil4" d="M2989 10575c26,0 47,29 47,66 0,36 -21,66 -47,66 -26,0 -47,-29 -47,-66 0,-36 21,-66 47,-66z"/>
   <path class="fil4" d="M2534 10779c-9,-13 -17,-26 -25,-38 12,8 21,21 25,38z"/>
   <path class="fil4" d="M2633 10735c26,0 47,29 47,66 0,36 -21,66 -47,66 -26,0 -47,-29 -47,-66 0,-36 21,-66 47,-66z"/>
   <path class="fil4" d="M2776 10735c26,0 47,29 47,66 0,36 -21,66 -47,66 -26,0 -47,-29 -47,-66 0,-36 21,-66 47,-66z"/>
   <path class="fil4" d="M2932 10735c26,0 47,29 47,66 0,36 -21,66 -47,66 -26,0 -47,-29 -47,-66 0,-36 21,-66 47,-66z"/>
   <path class="fil4" d="M3076 10735c26,0 47,29 47,66 0,36 -21,66 -47,66 -26,0 -47,-29 -47,-66 0,-36 21,-66 47,-66z"/>
   <path class="fil4" d="M3108 10566c26,0 47,29 47,66 0,36 -21,66 -47,66 -26,0 -47,-29 -47,-66 0,-36 21,-66 47,-66z"/>
   <path class="fil4" d="M3264 10566c26,0 47,29 47,66 0,36 -21,66 -47,66 -26,0 -47,-29 -47,-66 0,-36 21,-66 47,-66z"/>
   <path class="fil4" d="M3408 10566c26,0 47,29 47,66 0,36 -21,66 -47,66 -26,0 -47,-29 -47,-66 0,-36 21,-66 47,-66z"/>
   <path class="fil4" d="M3551 10566c26,0 47,29 47,66 0,36 -21,66 -47,66 -26,0 -47,-29 -47,-66 0,-36 21,-66 47,-66z"/>
   <path class="fil4" d="M3707 10566c26,0 47,29 47,66 0,36 -21,66 -47,66 -26,0 -47,-29 -47,-66 0,-36 21,-66 47,-66z"/>
   <path class="fil4" d="M3851 10566c26,0 47,29 47,66 0,36 -21,66 -47,66 -26,0 -47,-29 -47,-66 0,-36 21,-66 47,-66z"/>
   <path class="fil4" d="M3984 10566c26,0 47,29 47,66 0,36 -21,66 -47,66 -26,0 -47,-29 -47,-66 0,-36 21,-66 47,-66z"/>
   <path class="fil4" d="M4140 10566c26,0 47,29 47,66 0,36 -21,66 -47,66 -26,0 -47,-29 -47,-66 0,-36 21,-66 47,-66z"/>
   <path class="fil4" d="M4284 10566c26,0 47,29 47,66 0,36 -21,66 -47,66 -26,0 -47,-29 -47,-66 0,-36 21,-66 47,-66z"/>
   <path class="fil4" d="M4427 10566c26,0 47,29 47,66 0,36 -21,66 -47,66 -26,0 -47,-29 -47,-66 0,-36 21,-66 47,-66z"/>
   <path class="fil4" d="M4583 10566c26,0 47,29 47,66 0,36 -21,66 -47,66 -26,0 -47,-29 -47,-66 0,-36 21,-66 47,-66z"/>
   <path class="fil4" d="M3207 10726c26,0 47,29 47,66 0,36 -21,66 -47,66 -26,0 -47,-29 -47,-66 0,-36 21,-66 47,-66z"/>
   <path class="fil4" d="M3351 10726c26,0 47,29 47,66 0,36 -21,66 -47,66 -26,0 -47,-29 -47,-66 0,-36 21,-66 47,-66z"/>
   <path class="fil4" d="M3494 10726c26,0 47,29 47,66 0,36 -21,66 -47,66 -26,0 -47,-29 -47,-66 0,-36 21,-66 47,-66z"/>
   <path class="fil4" d="M3650 10726c26,0 47,29 47,66 0,36 -21,66 -47,66 -26,0 -47,-29 -47,-66 0,-36 21,-66 47,-66z"/>
   <path class="fil4" d="M3794 10726c26,0 47,29 47,66 0,36 -21,66 -47,66 -26,0 -47,-29 -47,-66 0,-36 21,-66 47,-66z"/>
   <path class="fil4" d="M3927 10726c26,0 47,29 47,66 0,36 -21,66 -47,66 -26,0 -47,-29 -47,-66 0,-36 21,-66 47,-66z"/>
   <path class="fil4" d="M4084 10726c26,0 47,29 47,66 0,36 -21,66 -47,66 -26,0 -47,-29 -47,-66 0,-36 21,-66 47,-66z"/>
   <path class="fil4" d="M4227 10726c26,0 47,29 47,66 0,36 -21,66 -47,66 -26,0 -47,-29 -47,-66 0,-36 21,-66 47,-66z"/>
   <path class="fil4" d="M4370 10726c26,0 47,29 47,66 0,36 -21,66 -47,66 -26,0 -47,-29 -47,-66 0,-36 21,-66 47,-66z"/>
   <path class="fil4" d="M4526 10726c26,0 47,29 47,66 0,36 -21,66 -47,66 -26,0 -47,-29 -47,-66 0,-36 21,-66 47,-66z"/>
   <path class="fil4" d="M4670 10726c26,0 47,29 47,66 0,36 -21,66 -47,66 -26,0 -47,-29 -47,-66 0,-36 21,-66 47,-66z"/>
   <path class="fil4" d="M2751 11006c-21,-17 -41,-34 -60,-51 -1,-4 -1,-8 -1,-12 0,-36 21,-66 47,-66 26,0 47,29 47,66 0,30 -14,55 -34,63l1 0z"/>
   <path class="fil4" d="M2870 10877c26,0 47,29 47,66 0,36 -21,66 -47,66 -26,0 -47,-29 -47,-66 0,-36 21,-66 47,-66z"/>
   <path class="fil4" d="M3027 10877c26,0 47,29 47,66 0,36 -21,66 -47,66 -26,0 -47,-29 -47,-66 0,-36 21,-66 47,-66z"/>
   <path class="fil4" d="M3171 10877c26,0 47,29 47,66 0,36 -21,66 -47,66 -26,0 -47,-29 -47,-66 0,-36 21,-66 47,-66z"/>
   <path class="fil4" d="M3313 10877c26,0 47,29 47,66 0,36 -21,66 -47,66 -26,0 -47,-29 -47,-66 0,-36 21,-66 47,-66z"/>
   <path class="fil4" d="M3470 10877c26,0 47,29 47,66 0,36 -21,66 -47,66 -26,0 -47,-29 -47,-66 0,-36 21,-66 47,-66z"/>
   <path class="fil4" d="M3614 10877c26,0 47,29 47,66 0,36 -21,66 -47,66 -26,0 -47,-29 -47,-66 0,-36 21,-66 47,-66z"/>
   <path class="fil4" d="M2859 11084c-21,-14 -42,-29 -62,-43 5,-3 11,-4 16,-4 22,0 40,20 46,47z"/>
   <path class="fil4" d="M2988 11164c-21,-12 -42,-24 -62,-36 -2,-8 -3,-16 -3,-25 0,-36 21,-66 47,-66 26,0 47,29 47,66 0,28 -12,51 -30,61l1 0z"/>
   <path class="fil4" d="M3114 11037c26,0 47,29 47,66 0,36 -21,66 -47,66 -26,0 -47,-29 -47,-66 0,-36 21,-66 47,-66z"/>
   <path class="fil4" d="M3256 11037c26,0 47,29 47,66 0,36 -21,66 -47,66 -26,0 -47,-29 -47,-66 0,-36 21,-66 47,-66z"/>
   <path class="fil4" d="M3413 11037c26,0 47,29 47,66 0,36 -21,66 -47,66 -26,0 -47,-29 -47,-66 0,-36 21,-66 47,-66z"/>
   <path class="fil4" d="M3557 11037c26,0 47,29 47,66 0,36 -21,66 -47,66 -26,0 -47,-29 -47,-66 0,-36 21,-66 47,-66z"/>
   <path class="fil4" d="M3111 11229c-21,-10 -41,-21 -61,-31 6,-3 12,-5 19,-5 19,0 35,15 42,36z"/>
   <path class="fil4" d="M3252 11295c-30,-13 -59,-26 -87,-39 1,-35 22,-62 47,-62 26,0 47,29 47,66 0,13 -3,26 -8,36l1 -1z"/>
   <path class="fil4" d="M3354 11193c26,0 47,29 47,66 0,36 -21,66 -47,66 -26,0 -47,-29 -47,-66 0,-36 21,-66 47,-66z"/>
   <path class="fil4" d="M3511 11193c26,0 47,29 47,66 0,36 -21,66 -47,66 -26,0 -47,-29 -47,-66 0,-36 21,-66 47,-66z"/>
   <path class="fil4" d="M3497 11389c-24,-8 -47,-17 -70,-25 8,-7 17,-12 27,-12 19,0 35,15 43,37z"/>
   <path class="fil4" d="M3643 11437c-31,-10 -62,-19 -92,-29 4,-31 23,-55 47,-55 26,0 47,29 47,66 0,7 -1,13 -2,19l0 -1z"/>
   <path class="fil4" d="M3630 11184c26,0 47,29 47,66 0,36 -21,66 -47,66 -26,0 -47,-29 -47,-66 0,-36 21,-66 47,-66z"/>
   <path class="fil4" d="M3786 11184c26,0 47,29 47,66 0,36 -21,66 -47,66 -26,0 -47,-29 -47,-66 0,-36 21,-66 47,-66z"/>
   <path class="fil4" d="M3930 11184c26,0 47,29 47,66 0,36 -21,66 -47,66 -26,0 -47,-29 -47,-66 0,-36 21,-66 47,-66z"/>
   <path class="fil4" d="M4072 11184c26,0 47,29 47,66 0,36 -21,66 -47,66 -26,0 -47,-29 -47,-66 0,-36 21,-66 47,-66z"/>
   <path class="fil4" d="M4229 11184c26,0 47,29 47,66 0,36 -21,66 -47,66 -26,0 -47,-29 -47,-66 0,-36 21,-66 47,-66z"/>
   <path class="fil4" d="M4373 11184c26,0 47,29 47,66 0,36 -21,66 -47,66 -26,0 -47,-29 -47,-66 0,-36 21,-66 47,-66z"/>
   <path class="fil4" d="M4506 11184c26,0 47,29 47,66 0,36 -21,66 -47,66 -26,0 -47,-29 -47,-66 0,-36 21,-66 47,-66z"/>
   <path class="fil4" d="M4662 11184c26,0 47,29 47,66 0,36 -21,66 -47,66 -26,0 -47,-29 -47,-66 0,-36 21,-66 47,-66z"/>
   <path class="fil4" d="M4806 11184c26,0 47,29 47,66 0,36 -21,66 -47,66 -26,0 -47,-29 -47,-66 0,-36 21,-66 47,-66z"/>
   <path class="fil4" d="M4949 11184c26,0 47,29 47,66 0,36 -21,66 -47,66 -26,0 -47,-29 -47,-66 0,-36 21,-66 47,-66z"/>
   <path class="fil4" d="M5105 11184c26,0 47,29 47,66 0,36 -21,66 -47,66 -26,0 -47,-29 -47,-66 0,-36 21,-66 47,-66z"/>
   <path class="fil4" d="M3750 11469c-19,-5 -38,-11 -57,-16 -7,-11 -11,-26 -11,-43 0,-36 21,-66 47,-66 26,0 47,29 47,66 0,26 -11,48 -27,59l1 0z"/>
   <path class="fil4" d="M3873 11344c26,0 47,29 47,66 0,36 -21,66 -47,66 -26,0 -47,-29 -47,-66 0,-36 21,-66 47,-66z"/>
   <path class="fil4" d="M4015 11344c26,0 47,29 47,66 0,36 -21,66 -47,66 -26,0 -47,-29 -47,-66 0,-36 21,-66 47,-66z"/>
   <path class="fil4" d="M4172 11344c26,0 47,29 47,66 0,36 -21,66 -47,66 -26,0 -47,-29 -47,-66 0,-36 21,-66 47,-66z"/>
   <path class="fil4" d="M4316 11344c26,0 47,29 47,66 0,36 -21,66 -47,66 -26,0 -47,-29 -47,-66 0,-36 21,-66 47,-66z"/>
   <path class="fil4" d="M4449 11344c26,0 47,29 47,66 0,36 -21,66 -47,66 -26,0 -47,-29 -47,-66 0,-36 21,-66 47,-66z"/>
   <path class="fil4" d="M4605 11344c26,0 47,29 47,66 0,36 -21,66 -47,66 -26,0 -47,-29 -47,-66 0,-36 21,-66 47,-66z"/>
   <path class="fil4" d="M4749 11344c26,0 47,29 47,66 0,36 -21,66 -47,66 -26,0 -47,-29 -47,-66 0,-36 21,-66 47,-66z"/>
   <path class="fil4" d="M4892 11344c26,0 47,29 47,66 0,36 -21,66 -47,66 -26,0 -47,-29 -47,-66 0,-36 21,-66 47,-66z"/>
   <path class="fil4" d="M5048 11344c26,0 47,29 47,66 0,36 -21,66 -47,66 -26,0 -47,-29 -47,-66 0,-36 21,-66 47,-66z"/>
   <path class="fil4" d="M5192 11344c26,0 47,29 47,66 0,36 -21,66 -47,66 -26,0 -47,-29 -47,-66 0,-36 21,-66 47,-66z"/>
   <path class="fil4" d="M3329 9576c29,-12 59,-23 89,-34l0 2c0,36 -21,66 -47,66 -18,0 -33,-14 -41,-34l-1 0z"/>
   <path class="fil4" d="M3457 9527c26,-9 53,-19 81,-28 8,12 13,27 13,45 0,36 -21,66 -47,66 -26,0 -47,-29 -47,-66 0,-6 1,-11 2,-17l-2 0z"/>
   <path class="fil4" d="M3660 9479c26,0 47,29 47,66 0,36 -21,66 -47,66 -26,0 -47,-29 -47,-66 0,-36 21,-66 47,-66z"/>
   <path class="fil4" d="M3804 9479c26,0 47,29 47,66 0,36 -21,66 -47,66 -26,0 -47,-29 -47,-66 0,-36 21,-66 47,-66z"/>
   <path class="fil4" d="M3946 9479c26,0 47,29 47,66 0,36 -21,66 -47,66 -26,0 -47,-29 -47,-66 0,-36 21,-66 47,-66z"/>
   <path class="fil4" d="M4103 9479c26,0 47,29 47,66 0,36 -21,66 -47,66 -26,0 -47,-29 -47,-66 0,-36 21,-66 47,-66z"/>
   <path class="fil4" d="M4246 9479c26,0 47,29 47,66 0,36 -21,66 -47,66 -26,0 -47,-29 -47,-66 0,-36 21,-66 47,-66z"/>
   <path class="fil4" d="M2976 9746c27,-16 55,-31 84,-46 0,2 0,3 0,5 0,36 -21,66 -47,66 -15,0 -28,-9 -37,-24l0 -1z"/>
   <path class="fil4" d="M3132 9663c16,-8 32,-15 48,-23 21,7 36,33 36,64 0,36 -21,66 -47,66 -26,0 -47,-29 -47,-66 0,-16 4,-30 10,-41z"/>
   <path class="fil4" d="M3313 9639c26,0 47,29 47,66 0,36 -21,66 -47,66 -26,0 -47,-29 -47,-66 0,-36 21,-66 47,-66z"/>
   <path class="fil4" d="M3446 9639c26,0 47,29 47,66 0,36 -21,66 -47,66 -26,0 -47,-29 -47,-66 0,-36 21,-66 47,-66z"/>
   <path class="fil4" d="M3603 9639c26,0 47,29 47,66 0,36 -21,66 -47,66 -26,0 -47,-29 -47,-66 0,-36 21,-66 47,-66z"/>
   <path class="fil4" d="M3747 9639c26,0 47,29 47,66 0,36 -21,66 -47,66 -26,0 -47,-29 -47,-66 0,-36 21,-66 47,-66z"/>
   <path class="fil4" d="M3889 9639c26,0 47,29 47,66 0,36 -21,66 -47,66 -26,0 -47,-29 -47,-66 0,-36 21,-66 47,-66z"/>
   <path class="fil4" d="M4046 9639c26,0 47,29 47,66 0,36 -21,66 -47,66 -26,0 -47,-29 -47,-66 0,-36 21,-66 47,-66z"/>
   <path class="fil4" d="M4189 9639c26,0 47,29 47,66 0,36 -21,66 -47,66 -26,0 -47,-29 -47,-66 0,-36 21,-66 47,-66z"/>
   <path class="fil4" d="M2779 9876c26,-20 54,-39 82,-59 7,11 11,26 11,43 0,36 -21,66 -47,66 -22,0 -41,-21 -46,-50z"/>
   <path class="fil4" d="M2969 9794c26,0 47,29 47,66 0,36 -21,66 -47,66 -26,0 -47,-29 -47,-66 0,-36 21,-66 47,-66z"/>
   <path class="fil4" d="M3111 9794c26,0 47,29 47,66 0,36 -21,66 -47,66 -26,0 -47,-29 -47,-66 0,-36 21,-66 47,-66z"/>
   <path class="fil4" d="M3267 9794c26,0 47,29 47,66 0,36 -21,66 -47,66 -26,0 -47,-29 -47,-66 0,-36 21,-66 47,-66z"/>
   <path class="fil4" d="M3411 9794c26,0 47,29 47,66 0,36 -21,66 -47,66 -26,0 -47,-29 -47,-66 0,-36 21,-66 47,-66z"/>
   <path class="fil4" d="M3544 9794c26,0 47,29 47,66 0,36 -21,66 -47,66 -26,0 -47,-29 -47,-66 0,-36 21,-66 47,-66z"/>
   <path class="fil4" d="M3701 9794c26,0 47,29 47,66 0,36 -21,66 -47,66 -26,0 -47,-29 -47,-66 0,-36 21,-66 47,-66z"/>
   <path class="fil4" d="M3845 9794c26,0 47,29 47,66 0,36 -21,66 -47,66 -26,0 -47,-29 -47,-66 0,-36 21,-66 47,-66z"/>
   <path class="fil4" d="M3987 9794c26,0 47,29 47,66 0,36 -21,66 -47,66 -26,0 -47,-29 -47,-66 0,-36 21,-66 47,-66z"/>
   <path class="fil4" d="M4144 9794c26,0 47,29 47,66 0,36 -21,66 -47,66 -26,0 -47,-29 -47,-66 0,-36 21,-66 47,-66z"/>
   <path class="fil4" d="M2768 9954c26,0 47,29 47,66 0,36 -21,66 -47,66 -26,0 -47,-29 -47,-66 0,-36 21,-66 47,-66z"/>
   <path class="fil4" d="M2912 9954c26,0 47,29 47,66 0,36 -21,66 -47,66 -26,0 -47,-29 -47,-66 0,-36 21,-66 47,-66z"/>
   <path class="fil4" d="M3054 9954c26,0 47,29 47,66 0,36 -21,66 -47,66 -26,0 -47,-29 -47,-66 0,-36 21,-66 47,-66z"/>
   <path class="fil4" d="M3211 9954c26,0 47,29 47,66 0,36 -21,66 -47,66 -26,0 -47,-29 -47,-66 0,-36 21,-66 47,-66z"/>
   <path class="fil4" d="M3354 9954c26,0 47,29 47,66 0,36 -21,66 -47,66 -26,0 -47,-29 -47,-66 0,-36 21,-66 47,-66z"/>
   <path class="fil4" d="M3487 9954c26,0 47,29 47,66 0,36 -21,66 -47,66 -26,0 -47,-29 -47,-66 0,-36 21,-66 47,-66z"/>
   <path class="fil4" d="M3644 9954c26,0 47,29 47,66 0,36 -21,66 -47,66 -26,0 -47,-29 -47,-66 0,-36 21,-66 47,-66z"/>
   <path class="fil4" d="M3788 9954c26,0 47,29 47,66 0,36 -21,66 -47,66 -26,0 -47,-29 -47,-66 0,-36 21,-66 47,-66z"/>
   <path class="fil4" d="M3930 9954c26,0 47,29 47,66 0,36 -21,66 -47,66 -26,0 -47,-29 -47,-66 0,-36 21,-66 47,-66z"/>
   <path class="fil4" d="M4087 9954c26,0 47,29 47,66 0,36 -21,66 -47,66 -26,0 -47,-29 -47,-66 0,-36 21,-66 47,-66z"/>
   <path class="fil4" d="M4231 9954c26,0 47,29 47,66 0,36 -21,66 -47,66 -26,0 -47,-29 -47,-66 0,-36 21,-66 47,-66z"/>
   <path class="fil4" d="M4262 9785c26,0 47,29 47,66 0,36 -21,66 -47,66 -26,0 -47,-29 -47,-66 0,-36 21,-66 47,-66z"/>
   <path class="fil4" d="M4419 9785c26,0 47,29 47,66 0,36 -21,66 -47,66 -26,0 -47,-29 -47,-66 0,-36 21,-66 47,-66z"/>
   <path class="fil4" d="M4563 9785c26,0 47,29 47,66 0,36 -21,66 -47,66 -26,0 -47,-29 -47,-66 0,-36 21,-66 47,-66z"/>
   <path class="fil4" d="M4705 9785c26,0 47,29 47,66 0,36 -21,66 -47,66 -26,0 -47,-29 -47,-66 0,-36 21,-66 47,-66z"/>
   <path class="fil4" d="M4862 9785c26,0 47,29 47,66 0,36 -21,66 -47,66 -26,0 -47,-29 -47,-66 0,-36 21,-66 47,-66z"/>
   <path class="fil4" d="M5006 9785c26,0 47,29 47,66 0,36 -21,66 -47,66 -26,0 -47,-29 -47,-66 0,-36 21,-66 47,-66z"/>
   <path class="fil4" d="M5138 9785c26,0 47,29 47,66 0,36 -21,66 -47,66 -26,0 -47,-29 -47,-66 0,-36 21,-66 47,-66z"/>
   <path class="fil4" d="M5295 9785c26,0 47,29 47,66 0,36 -21,66 -47,66 -26,0 -47,-29 -47,-66 0,-36 21,-66 47,-66z"/>
   <path class="fil4" d="M5439 9785c26,0 47,29 47,66 0,36 -21,66 -47,66 -26,0 -47,-29 -47,-66 0,-36 21,-66 47,-66z"/>
   <path class="fil4" d="M5581 9785c26,0 47,29 47,66 0,36 -21,66 -47,66 -26,0 -47,-29 -47,-66 0,-36 21,-66 47,-66z"/>
   <path class="fil4" d="M5738 9785c26,0 47,29 47,66 0,36 -21,66 -47,66 -26,0 -47,-29 -47,-66 0,-36 21,-66 47,-66z"/>
   <path class="fil4" d="M4362 9945c26,0 47,29 47,66 0,36 -21,66 -47,66 -26,0 -47,-29 -47,-66 0,-36 21,-66 47,-66z"/>
   <path class="fil4" d="M4506 9945c26,0 47,29 47,66 0,36 -21,66 -47,66 -26,0 -47,-29 -47,-66 0,-36 21,-66 47,-66z"/>
   <path class="fil4" d="M4648 9945c26,0 47,29 47,66 0,36 -21,66 -47,66 -26,0 -47,-29 -47,-66 0,-36 21,-66 47,-66z"/>
   <path class="fil4" d="M4805 9945c26,0 47,29 47,66 0,36 -21,66 -47,66 -26,0 -47,-29 -47,-66 0,-36 21,-66 47,-66z"/>
   <path class="fil4" d="M4949 9945c26,0 47,29 47,66 0,36 -21,66 -47,66 -26,0 -47,-29 -47,-66 0,-36 21,-66 47,-66z"/>
   <path class="fil4" d="M5081 9945c26,0 47,29 47,66 0,36 -21,66 -47,66 -26,0 -47,-29 -47,-66 0,-36 21,-66 47,-66z"/>
   <path class="fil4" d="M5238 9945c26,0 47,29 47,66 0,36 -21,66 -47,66 -26,0 -47,-29 -47,-66 0,-36 21,-66 47,-66z"/>
   <path class="fil4" d="M5382 9945c26,0 47,29 47,66 0,36 -21,66 -47,66 -26,0 -47,-29 -47,-66 0,-36 21,-66 47,-66z"/>
   <path class="fil4" d="M5524 9945c26,0 47,29 47,66 0,36 -21,66 -47,66 -26,0 -47,-29 -47,-66 0,-36 21,-66 47,-66z"/>
   <path class="fil4" d="M5681 9945c26,0 47,29 47,66 0,36 -21,66 -47,66 -26,0 -47,-29 -47,-66 0,-36 21,-66 47,-66z"/>
   <path class="fil4" d="M5825 9945c26,0 47,29 47,66 0,36 -21,66 -47,66 -26,0 -47,-29 -47,-66 0,-36 21,-66 47,-66z"/>
   <path class="fil4" d="M3149 10097c26,0 47,29 47,66 0,36 -21,66 -47,66 -26,0 -47,-29 -47,-66 0,-36 21,-66 47,-66z"/>
   <path class="fil4" d="M3305 10097c26,0 47,29 47,66 0,36 -21,66 -47,66 -26,0 -47,-29 -47,-66 0,-36 21,-66 47,-66z"/>
   <path class="fil4" d="M3449 10097c26,0 47,29 47,66 0,36 -21,66 -47,66 -26,0 -47,-29 -47,-66 0,-36 21,-66 47,-66z"/>
   <path class="fil4" d="M3592 10097c26,0 47,29 47,66 0,36 -21,66 -47,66 -26,0 -47,-29 -47,-66 0,-36 21,-66 47,-66z"/>
   <path class="fil4" d="M3748 10097c26,0 47,29 47,66 0,36 -21,66 -47,66 -26,0 -47,-29 -47,-66 0,-36 21,-66 47,-66z"/>
   <path class="fil4" d="M3892 10097c26,0 47,29 47,66 0,36 -21,66 -47,66 -26,0 -47,-29 -47,-66 0,-36 21,-66 47,-66z"/>
   <path class="fil4" d="M4025 10097c26,0 47,29 47,66 0,36 -21,66 -47,66 -26,0 -47,-29 -47,-66 0,-36 21,-66 47,-66z"/>
   <path class="fil4" d="M4182 10097c26,0 47,29 47,66 0,36 -21,66 -47,66 -26,0 -47,-29 -47,-66 0,-36 21,-66 47,-66z"/>
   <path class="fil4" d="M4325 10097c26,0 47,29 47,66 0,36 -21,66 -47,66 -26,0 -47,-29 -47,-66 0,-36 21,-66 47,-66z"/>
   <path class="fil4" d="M4468 10097c26,0 47,29 47,66 0,36 -21,66 -47,66 -26,0 -47,-29 -47,-66 0,-36 21,-66 47,-66z"/>
   <path class="fil4" d="M4624 10097c26,0 47,29 47,66 0,36 -21,66 -47,66 -26,0 -47,-29 -47,-66 0,-36 21,-66 47,-66z"/>
   <path class="fil4" d="M4768 10097c26,0 47,29 47,66 0,36 -21,66 -47,66 -26,0 -47,-29 -47,-66 0,-36 21,-66 47,-66z"/>
   <path class="fil4" d="M3092 10257c26,0 47,29 47,66 0,36 -21,66 -47,66 -26,0 -47,-29 -47,-66 0,-36 21,-66 47,-66z"/>
   <path class="fil4" d="M3248 10257c26,0 47,29 47,66 0,36 -21,66 -47,66 -26,0 -47,-29 -47,-66 0,-36 21,-66 47,-66z"/>
   <path class="fil4" d="M3392 10257c26,0 47,29 47,66 0,36 -21,66 -47,66 -26,0 -47,-29 -47,-66 0,-36 21,-66 47,-66z"/>
   <path class="fil4" d="M3535 10257c26,0 47,29 47,66 0,36 -21,66 -47,66 -26,0 -47,-29 -47,-66 0,-36 21,-66 47,-66z"/>
   <path class="fil4" d="M3691 10257c26,0 47,29 47,66 0,36 -21,66 -47,66 -26,0 -47,-29 -47,-66 0,-36 21,-66 47,-66z"/>
   <path class="fil4" d="M3835 10257c26,0 47,29 47,66 0,36 -21,66 -47,66 -26,0 -47,-29 -47,-66 0,-36 21,-66 47,-66z"/>
   <path class="fil4" d="M3968 10257c26,0 47,29 47,66 0,36 -21,66 -47,66 -26,0 -47,-29 -47,-66 0,-36 21,-66 47,-66z"/>
   <path class="fil4" d="M4125 10257c26,0 47,29 47,66 0,36 -21,66 -47,66 -26,0 -47,-29 -47,-66 0,-36 21,-66 47,-66z"/>
   <path class="fil4" d="M4269 10257c26,0 47,29 47,66 0,36 -21,66 -47,66 -26,0 -47,-29 -47,-66 0,-36 21,-66 47,-66z"/>
   <path class="fil4" d="M4411 10257c26,0 47,29 47,66 0,36 -21,66 -47,66 -26,0 -47,-29 -47,-66 0,-36 21,-66 47,-66z"/>
   <path class="fil4" d="M4567 10257c26,0 47,29 47,66 0,36 -21,66 -47,66 -26,0 -47,-29 -47,-66 0,-36 21,-66 47,-66z"/>
   <path class="fil4" d="M4711 10257c26,0 47,29 47,66 0,36 -21,66 -47,66 -26,0 -47,-29 -47,-66 0,-36 21,-66 47,-66z"/>
   <path class="fil4" d="M3190 10412c26,0 47,29 47,66 0,36 -21,66 -47,66 -26,0 -47,-29 -47,-66 0,-36 21,-66 47,-66z"/>
   <path class="fil4" d="M3347 10412c26,0 47,29 47,66 0,36 -21,66 -47,66 -26,0 -47,-29 -47,-66 0,-36 21,-66 47,-66z"/>
   <path class="fil4" d="M3490 10412c26,0 47,29 47,66 0,36 -21,66 -47,66 -26,0 -47,-29 -47,-66 0,-36 21,-66 47,-66z"/>
   <path class="fil4" d="M3633 10412c26,0 47,29 47,66 0,36 -21,66 -47,66 -26,0 -47,-29 -47,-66 0,-36 21,-66 47,-66z"/>
   <path class="fil4" d="M3789 10412c26,0 47,29 47,66 0,36 -21,66 -47,66 -26,0 -47,-29 -47,-66 0,-36 21,-66 47,-66z"/>
   <path class="fil4" d="M3933 10412c26,0 47,29 47,66 0,36 -21,66 -47,66 -26,0 -47,-29 -47,-66 0,-36 21,-66 47,-66z"/>
   <path class="fil4" d="M4066 10412c26,0 47,29 47,66 0,36 -21,66 -47,66 -26,0 -47,-29 -47,-66 0,-36 21,-66 47,-66z"/>
   <path class="fil4" d="M4223 10412c26,0 47,29 47,66 0,36 -21,66 -47,66 -26,0 -47,-29 -47,-66 0,-36 21,-66 47,-66z"/>
   <path class="fil4" d="M4367 10412c26,0 47,29 47,66 0,36 -21,66 -47,66 -26,0 -47,-29 -47,-66 0,-36 21,-66 47,-66z"/>
   <path class="fil4" d="M4509 10412c26,0 47,29 47,66 0,36 -21,66 -47,66 -26,0 -47,-29 -47,-66 0,-36 21,-66 47,-66z"/>
   <path class="fil4" d="M4666 10412c26,0 47,29 47,66 0,36 -21,66 -47,66 -26,0 -47,-29 -47,-66 0,-36 21,-66 47,-66z"/>
   <path class="fil4" d="M3290 10572c26,0 47,29 47,66 0,36 -21,66 -47,66 -26,0 -47,-29 -47,-66 0,-36 21,-66 47,-66z"/>
   <path class="fil4" d="M3433 10572c26,0 47,29 47,66 0,36 -21,66 -47,66 -26,0 -47,-29 -47,-66 0,-36 21,-66 47,-66z"/>
   <path class="fil4" d="M3576 10572c26,0 47,29 47,66 0,36 -21,66 -47,66 -26,0 -47,-29 -47,-66 0,-36 21,-66 47,-66z"/>
   <path class="fil4" d="M3732 10572c26,0 47,29 47,66 0,36 -21,66 -47,66 -26,0 -47,-29 -47,-66 0,-36 21,-66 47,-66z"/>
   <path class="fil4" d="M3876 10572c26,0 47,29 47,66 0,36 -21,66 -47,66 -26,0 -47,-29 -47,-66 0,-36 21,-66 47,-66z"/>
   <path class="fil4" d="M4009 10572c26,0 47,29 47,66 0,36 -21,66 -47,66 -26,0 -47,-29 -47,-66 0,-36 21,-66 47,-66z"/>
   <path class="fil4" d="M4166 10572c26,0 47,29 47,66 0,36 -21,66 -47,66 -26,0 -47,-29 -47,-66 0,-36 21,-66 47,-66z"/>
   <path class="fil4" d="M4310 10572c26,0 47,29 47,66 0,36 -21,66 -47,66 -26,0 -47,-29 -47,-66 0,-36 21,-66 47,-66z"/>
   <path class="fil4" d="M4452 10572c26,0 47,29 47,66 0,36 -21,66 -47,66 -26,0 -47,-29 -47,-66 0,-36 21,-66 47,-66z"/>
   <path class="fil4" d="M4609 10572c26,0 47,29 47,66 0,36 -21,66 -47,66 -26,0 -47,-29 -47,-66 0,-36 21,-66 47,-66z"/>
   <path class="fil4" d="M4753 10572c26,0 47,29 47,66 0,36 -21,66 -47,66 -26,0 -47,-29 -47,-66 0,-36 21,-66 47,-66z"/>
   <path class="fil4" d="M4784 10404c26,0 47,29 47,66 0,36 -21,66 -47,66 -26,0 -47,-29 -47,-66 0,-36 21,-66 47,-66z"/>
   <path class="fil4" d="M4941 10404c26,0 47,29 47,66 0,36 -21,66 -47,66 -26,0 -47,-29 -47,-66 0,-36 21,-66 47,-66z"/>
   <path class="fil4" d="M5085 10404c26,0 47,29 47,66 0,36 -21,66 -47,66 -26,0 -47,-29 -47,-66 0,-36 21,-66 47,-66z"/>
   <path class="fil4" d="M5227 10404c26,0 47,29 47,66 0,36 -21,66 -47,66 -26,0 -47,-29 -47,-66 0,-36 21,-66 47,-66z"/>
   <path class="fil4" d="M5384 10404c26,0 47,29 47,66 0,36 -21,66 -47,66 -26,0 -47,-29 -47,-66 0,-36 21,-66 47,-66z"/>
   <path class="fil4" d="M5527 10404c26,0 47,29 47,66 0,36 -21,66 -47,66 -26,0 -47,-29 -47,-66 0,-36 21,-66 47,-66z"/>
   <path class="fil4" d="M5660 10404c26,0 47,29 47,66 0,36 -21,66 -47,66 -26,0 -47,-29 -47,-66 0,-36 21,-66 47,-66z"/>
   <path class="fil4" d="M5817 10404c26,0 47,29 47,66 0,36 -21,66 -47,66 -26,0 -47,-29 -47,-66 0,-36 21,-66 47,-66z"/>
   <path class="fil4" d="M5961 10404c26,0 47,29 47,66 0,36 -21,66 -47,66 -26,0 -47,-29 -47,-66 0,-36 21,-66 47,-66z"/>
   <path class="fil4" d="M6103 10404c26,0 47,29 47,66 0,36 -21,66 -47,66 -26,0 -47,-29 -47,-66 0,-36 21,-66 47,-66z"/>
   <path class="fil4" d="M6260 10404c26,0 47,29 47,66 0,36 -21,66 -47,66 -26,0 -47,-29 -47,-66 0,-36 21,-66 47,-66z"/>
   <path class="fil4" d="M4884 10564c26,0 47,29 47,66 0,36 -21,66 -47,66 -26,0 -47,-29 -47,-66 0,-36 21,-66 47,-66z"/>
   <path class="fil4" d="M5028 10564c26,0 47,29 47,66 0,36 -21,66 -47,66 -26,0 -47,-29 -47,-66 0,-36 21,-66 47,-66z"/>
   <path class="fil4" d="M5170 10564c26,0 47,29 47,66 0,36 -21,66 -47,66 -26,0 -47,-29 -47,-66 0,-36 21,-66 47,-66z"/>
   <path class="fil4" d="M5327 10564c26,0 47,29 47,66 0,36 -21,66 -47,66 -26,0 -47,-29 -47,-66 0,-36 21,-66 47,-66z"/>
   <path class="fil4" d="M5471 10564c26,0 47,29 47,66 0,36 -21,66 -47,66 -26,0 -47,-29 -47,-66 0,-36 21,-66 47,-66z"/>
   <path class="fil4" d="M5603 10564c26,0 47,29 47,66 0,36 -21,66 -47,66 -26,0 -47,-29 -47,-66 0,-36 21,-66 47,-66z"/>
   <path class="fil4" d="M5760 10564c26,0 47,29 47,66 0,36 -21,66 -47,66 -26,0 -47,-29 -47,-66 0,-36 21,-66 47,-66z"/>
   <path class="fil4" d="M5904 10564c26,0 47,29 47,66 0,36 -21,66 -47,66 -26,0 -47,-29 -47,-66 0,-36 21,-66 47,-66z"/>
   <path class="fil4" d="M6046 10564c26,0 47,29 47,66 0,36 -21,66 -47,66 -26,0 -47,-29 -47,-66 0,-36 21,-66 47,-66z"/>
   <path class="fil4" d="M6203 10564c26,0 47,29 47,66 0,36 -21,66 -47,66 -26,0 -47,-29 -47,-66 0,-36 21,-66 47,-66z"/>
   <path class="fil4" d="M6347 10564c26,0 47,29 47,66 0,36 -21,66 -47,66 -26,0 -47,-29 -47,-66 0,-36 21,-66 47,-66z"/>
   <path class="fil4" d="M4354 9301c15,-2 29,-5 44,-7 -8,7 -17,11 -27,11 -6,0 -12,-2 -17,-4z"/>
   <path class="fil4" d="M4479 9281c26,-4 52,-8 78,-11 -8,21 -24,35 -42,35 -15,0 -28,-9 -37,-24l1 0z"/>
   <path class="fil4" d="M4604 9264c30,-4 60,-7 90,-11 -5,30 -24,52 -46,52 -20,0 -37,-17 -44,-41z"/>
   <path class="fil4" d="M4758 9247c31,-3 63,-6 95,-9l0 2c0,36 -21,66 -47,66 -25,0 -45,-26 -47,-59l-1 0z"/>
   <path class="fil4" d="M4901 9233c31,-3 62,-5 94,-7 1,5 1,9 1,14 0,36 -21,66 -47,66 -26,0 -47,-29 -47,-66 0,-2 0,-5 0,-7l-1 0z"/>
   <path class="fil4" d="M5045 9222c30,-2 60,-4 90,-5 2,7 3,15 3,23 0,36 -21,66 -47,66 -26,0 -47,-29 -47,-66 0,-6 1,-12 2,-18l-1 0z"/>
   <path class="fil4" d="M5204 9213c28,-1 57,-2 86,-3 3,9 5,19 5,30 0,36 -21,66 -47,66 -26,0 -47,-29 -47,-66 0,-9 1,-18 4,-27l-1 0z"/>
   <path class="fil4" d="M5350 9208c27,-1 55,-1 82,-2 4,10 7,21 7,34 0,36 -21,66 -47,66 -26,0 -47,-29 -47,-66 0,-12 2,-22 6,-32l-1 0z"/>
   <path class="fil4" d="M5479 9205c29,0 58,-1 87,-1 3,8 4,17 4,26 0,36 -21,66 -47,66 -26,0 -47,-29 -47,-66 0,-9 1,-18 4,-26l-1 1z"/>
   <path class="fil4" d="M5623 9205c29,0 58,1 88,1 2,8 4,16 4,25 0,36 -21,66 -47,66 -26,0 -47,-29 -47,-66 0,-9 1,-18 4,-26l-2 0z"/>
   <path class="fil4" d="M5765 9207c30,1 60,2 89,3 2,7 2,14 2,21 0,36 -21,66 -47,66 -26,0 -47,-29 -47,-66 0,-8 1,-16 3,-24z"/>
   <path class="fil4" d="M5920 9212c31,1 61,3 92,5 1,4 1,9 1,14 0,36 -21,66 -47,66 -26,0 -47,-29 -47,-66 0,-6 1,-13 2,-18l-1 -1z"/>
   <path class="fil4" d="M6063 9220c32,2 63,4 94,7 0,1 0,3 0,4 0,36 -21,66 -47,66 -26,0 -47,-29 -47,-66 0,-4 0,-7 1,-11l-1 0z"/>
   <path class="fil4" d="M6195 9229c32,3 63,5 95,8 -3,33 -23,59 -47,59 -26,0 -47,-29 -47,-66l0 -1 -1 0z"/>
   <path class="fil4" d="M6352 9244c31,3 61,6 91,10 -7,25 -24,43 -44,43 -23,0 -42,-23 -47,-53z"/>
   <path class="fil4" d="M6500 9260c27,3 53,7 80,10 -9,16 -22,26 -38,26 -19,0 -35,-15 -42,-36z"/>
   <path class="fil4" d="M6655 9281c18,3 35,5 52,8 -7,5 -14,7 -22,7 -12,0 -22,-6 -30,-15z"/>
   <path class="fil4" d="M4310 9316c26,0 47,29 47,66 0,36 -21,66 -47,66 -26,0 -47,-29 -47,-66 0,-36 21,-66 47,-66z"/>
   <path class="fil4" d="M4466 9316c26,0 47,29 47,66 0,36 -21,66 -47,66 -26,0 -47,-29 -47,-66 0,-36 21,-66 47,-66z"/>
   <path class="fil4" d="M4610 9316c26,0 47,29 47,66 0,36 -21,66 -47,66 -26,0 -47,-29 -47,-66 0,-36 21,-66 47,-66z"/>
   <path class="fil4" d="M4752 9316c26,0 47,29 47,66 0,36 -21,66 -47,66 -26,0 -47,-29 -47,-66 0,-36 21,-66 47,-66z"/>
   <path class="fil4" d="M4909 9316c26,0 47,29 47,66 0,36 -21,66 -47,66 -26,0 -47,-29 -47,-66 0,-36 21,-66 47,-66z"/>
   <path class="fil4" d="M5053 9316c26,0 47,29 47,66 0,36 -21,66 -47,66 -26,0 -47,-29 -47,-66 0,-36 21,-66 47,-66z"/>
   <path class="fil4" d="M5186 9316c26,0 47,29 47,66 0,36 -21,66 -47,66 -26,0 -47,-29 -47,-66 0,-36 21,-66 47,-66z"/>
   <path class="fil4" d="M5342 9316c26,0 47,29 47,66 0,36 -21,66 -47,66 -26,0 -47,-29 -47,-66 0,-36 21,-66 47,-66z"/>
   <path class="fil4" d="M5486 9316c26,0 47,29 47,66 0,36 -21,66 -47,66 -26,0 -47,-29 -47,-66 0,-36 21,-66 47,-66z"/>
   <path class="fil4" d="M5629 9316c26,0 47,29 47,66 0,36 -21,66 -47,66 -26,0 -47,-29 -47,-66 0,-36 21,-66 47,-66z"/>
   <path class="fil4" d="M5785 9316c26,0 47,29 47,66 0,36 -21,66 -47,66 -26,0 -47,-29 -47,-66 0,-36 21,-66 47,-66z"/>
   <path class="fil4" d="M5929 9316c26,0 47,29 47,66 0,36 -21,66 -47,66 -26,0 -47,-29 -47,-66 0,-36 21,-66 47,-66z"/>
   <path class="fil4" d="M4253 9476c26,0 47,29 47,66 0,36 -21,66 -47,66 -26,0 -47,-29 -47,-66 0,-36 21,-66 47,-66z"/>
   <path class="fil4" d="M4409 9476c26,0 47,29 47,66 0,36 -21,66 -47,66 -26,0 -47,-29 -47,-66 0,-36 21,-66 47,-66z"/>
   <path class="fil4" d="M4553 9476c26,0 47,29 47,66 0,36 -21,66 -47,66 -26,0 -47,-29 -47,-66 0,-36 21,-66 47,-66z"/>
   <path class="fil4" d="M4696 9476c26,0 47,29 47,66 0,36 -21,66 -47,66 -26,0 -47,-29 -47,-66 0,-36 21,-66 47,-66z"/>
   <path class="fil4" d="M4852 9476c26,0 47,29 47,66 0,36 -21,66 -47,66 -26,0 -47,-29 -47,-66 0,-36 21,-66 47,-66z"/>
   <path class="fil4" d="M4996 9476c26,0 47,29 47,66 0,36 -21,66 -47,66 -26,0 -47,-29 -47,-66 0,-36 21,-66 47,-66z"/>
   <path class="fil4" d="M5129 9476c26,0 47,29 47,66 0,36 -21,66 -47,66 -26,0 -47,-29 -47,-66 0,-36 21,-66 47,-66z"/>
   <path class="fil4" d="M5285 9476c26,0 47,29 47,66 0,36 -21,66 -47,66 -26,0 -47,-29 -47,-66 0,-36 21,-66 47,-66z"/>
   <path class="fil4" d="M5429 9476c26,0 47,29 47,66 0,36 -21,66 -47,66 -26,0 -47,-29 -47,-66 0,-36 21,-66 47,-66z"/>
   <path class="fil4" d="M5572 9476c26,0 47,29 47,66 0,36 -21,66 -47,66 -26,0 -47,-29 -47,-66 0,-36 21,-66 47,-66z"/>
   <path class="fil4" d="M5728 9476c26,0 47,29 47,66 0,36 -21,66 -47,66 -26,0 -47,-29 -47,-66 0,-36 21,-66 47,-66z"/>
   <path class="fil4" d="M5872 9476c26,0 47,29 47,66 0,36 -21,66 -47,66 -26,0 -47,-29 -47,-66 0,-36 21,-66 47,-66z"/>
   <path class="fil4" d="M4351 9632c26,0 47,29 47,66 0,36 -21,66 -47,66 -26,0 -47,-29 -47,-66 0,-36 21,-66 47,-66z"/>
   <path class="fil4" d="M4507 9632c26,0 47,29 47,66 0,36 -21,66 -47,66 -26,0 -47,-29 -47,-66 0,-36 21,-66 47,-66z"/>
   <path class="fil4" d="M4651 9632c26,0 47,29 47,66 0,36 -21,66 -47,66 -26,0 -47,-29 -47,-66 0,-36 21,-66 47,-66z"/>
   <path class="fil4" d="M4794 9632c26,0 47,29 47,66 0,36 -21,66 -47,66 -26,0 -47,-29 -47,-66 0,-36 21,-66 47,-66z"/>
   <path class="fil4" d="M4950 9632c26,0 47,29 47,66 0,36 -21,66 -47,66 -26,0 -47,-29 -47,-66 0,-36 21,-66 47,-66z"/>
   <path class="fil4" d="M5094 9632c26,0 47,29 47,66 0,36 -21,66 -47,66 -26,0 -47,-29 -47,-66 0,-36 21,-66 47,-66z"/>
   <path class="fil4" d="M5227 9632c26,0 47,29 47,66 0,36 -21,66 -47,66 -26,0 -47,-29 -47,-66 0,-36 21,-66 47,-66z"/>
   <path class="fil4" d="M5384 9632c26,0 47,29 47,66 0,36 -21,66 -47,66 -26,0 -47,-29 -47,-66 0,-36 21,-66 47,-66z"/>
   <path class="fil4" d="M5527 9632c26,0 47,29 47,66 0,36 -21,66 -47,66 -26,0 -47,-29 -47,-66 0,-36 21,-66 47,-66z"/>
   <path class="fil4" d="M5670 9632c26,0 47,29 47,66 0,36 -21,66 -47,66 -26,0 -47,-29 -47,-66 0,-36 21,-66 47,-66z"/>
   <path class="fil4" d="M5826 9632c26,0 47,29 47,66 0,36 -21,66 -47,66 -26,0 -47,-29 -47,-66 0,-36 21,-66 47,-66z"/>
   <path class="fil4" d="M4450 9792c26,0 47,29 47,66 0,36 -21,66 -47,66 -26,0 -47,-29 -47,-66 0,-36 21,-66 47,-66z"/>
   <path class="fil4" d="M4594 9792c26,0 47,29 47,66 0,36 -21,66 -47,66 -26,0 -47,-29 -47,-66 0,-36 21,-66 47,-66z"/>
   <path class="fil4" d="M4737 9792c26,0 47,29 47,66 0,36 -21,66 -47,66 -26,0 -47,-29 -47,-66 0,-36 21,-66 47,-66z"/>
   <path class="fil4" d="M4893 9792c26,0 47,29 47,66 0,36 -21,66 -47,66 -26,0 -47,-29 -47,-66 0,-36 21,-66 47,-66z"/>
   <path class="fil4" d="M5037 9792c26,0 47,29 47,66 0,36 -21,66 -47,66 -26,0 -47,-29 -47,-66 0,-36 21,-66 47,-66z"/>
   <path class="fil4" d="M5170 9792c26,0 47,29 47,66 0,36 -21,66 -47,66 -26,0 -47,-29 -47,-66 0,-36 21,-66 47,-66z"/>
   <path class="fil4" d="M5327 9792c26,0 47,29 47,66 0,36 -21,66 -47,66 -26,0 -47,-29 -47,-66 0,-36 21,-66 47,-66z"/>
   <path class="fil4" d="M5471 9792c26,0 47,29 47,66 0,36 -21,66 -47,66 -26,0 -47,-29 -47,-66 0,-36 21,-66 47,-66z"/>
   <path class="fil4" d="M5613 9792c26,0 47,29 47,66 0,36 -21,66 -47,66 -26,0 -47,-29 -47,-66 0,-36 21,-66 47,-66z"/>
   <path class="fil4" d="M5769 9792c26,0 47,29 47,66 0,36 -21,66 -47,66 -26,0 -47,-29 -47,-66 0,-36 21,-66 47,-66z"/>
   <path class="fil4" d="M5913 9792c26,0 47,29 47,66 0,36 -21,66 -47,66 -26,0 -47,-29 -47,-66 0,-36 21,-66 47,-66z"/>
   <path class="fil4" d="M5945 9623c26,0 47,29 47,66 0,36 -21,66 -47,66 -26,0 -47,-29 -47,-66 0,-36 21,-66 47,-66z"/>
   <path class="fil4" d="M6102 9623c26,0 47,29 47,66 0,36 -21,66 -47,66 -26,0 -47,-29 -47,-66 0,-36 21,-66 47,-66z"/>
   <path class="fil4" d="M6245 9623c26,0 47,29 47,66 0,36 -21,66 -47,66 -26,0 -47,-29 -47,-66 0,-36 21,-66 47,-66z"/>
   <path class="fil4" d="M6388 9623c26,0 47,29 47,66 0,36 -21,66 -47,66 -26,0 -47,-29 -47,-66 0,-36 21,-66 47,-66z"/>
   <path class="fil4" d="M6544 9623c26,0 47,29 47,66 0,36 -21,66 -47,66 -26,0 -47,-29 -47,-66 0,-36 21,-66 47,-66z"/>
   <path class="fil4" d="M6688 9623c26,0 47,29 47,66 0,36 -21,66 -47,66 -26,0 -47,-29 -47,-66 0,-36 21,-66 47,-66z"/>
   <path class="fil4" d="M6821 9623c26,0 47,29 47,66 0,36 -21,66 -47,66 -26,0 -47,-29 -47,-66 0,-36 21,-66 47,-66z"/>
   <path class="fil4" d="M6978 9623c26,0 47,29 47,66 0,36 -21,66 -47,66 -26,0 -47,-29 -47,-66 0,-36 21,-66 47,-66z"/>
   <path class="fil4" d="M7122 9623c26,0 47,29 47,66 0,36 -21,66 -47,66 -26,0 -47,-29 -47,-66 0,-36 21,-66 47,-66z"/>
   <path class="fil4" d="M7264 9623c26,0 47,29 47,66 0,36 -21,66 -47,66 -26,0 -47,-29 -47,-66 0,-36 21,-66 47,-66z"/>
   <path class="fil4" d="M7421 9623c26,0 47,29 47,66 0,36 -21,66 -47,66 -26,0 -47,-29 -47,-66 0,-36 21,-66 47,-66z"/>
   <path class="fil4" d="M6045 9783c26,0 47,29 47,66 0,36 -21,66 -47,66 -26,0 -47,-29 -47,-66 0,-36 21,-66 47,-66z"/>
   <path class="fil4" d="M6189 9783c26,0 47,29 47,66 0,36 -21,66 -47,66 -26,0 -47,-29 -47,-66 0,-36 21,-66 47,-66z"/>
   <path class="fil4" d="M6331 9783c26,0 47,29 47,66 0,36 -21,66 -47,66 -26,0 -47,-29 -47,-66 0,-36 21,-66 47,-66z"/>
   <path class="fil4" d="M6487 9783c26,0 47,29 47,66 0,36 -21,66 -47,66 -26,0 -47,-29 -47,-66 0,-36 21,-66 47,-66z"/>
   <path class="fil4" d="M6631 9783c26,0 47,29 47,66 0,36 -21,66 -47,66 -26,0 -47,-29 -47,-66 0,-36 21,-66 47,-66z"/>
   <path class="fil4" d="M6764 9783c26,0 47,29 47,66 0,36 -21,66 -47,66 -26,0 -47,-29 -47,-66 0,-36 21,-66 47,-66z"/>
   <path class="fil4" d="M6921 9783c26,0 47,29 47,66 0,36 -21,66 -47,66 -26,0 -47,-29 -47,-66 0,-36 21,-66 47,-66z"/>
   <path class="fil4" d="M7065 9783c26,0 47,29 47,66 0,36 -21,66 -47,66 -26,0 -47,-29 -47,-66 0,-36 21,-66 47,-66z"/>
   <path class="fil4" d="M7207 9783c26,0 47,29 47,66 0,36 -21,66 -47,66 -26,0 -47,-29 -47,-66 0,-36 21,-66 47,-66z"/>
   <path class="fil4" d="M7364 9783c26,0 47,29 47,66 0,36 -21,66 -47,66 -26,0 -47,-29 -47,-66 0,-36 21,-66 47,-66z"/>
   <path class="fil4" d="M7508 9783c26,0 47,29 47,66 0,36 -21,66 -47,66 -26,0 -47,-29 -47,-66 0,-36 21,-66 47,-66z"/>
   <path class="fil4" d="M3999 11532c-26,-6 -52,-12 -77,-18 9,-12 21,-20 34,-20 19,0 36,16 43,39l0 -1z"/>
   <path class="fil4" d="M3491 10713c26,0 47,29 47,66 0,36 -21,66 -47,66 -26,0 -47,-29 -47,-66 0,-36 21,-66 47,-66z"/>
   <path class="fil4" d="M3647 10713c26,0 47,29 47,66 0,36 -21,66 -47,66 -26,0 -47,-29 -47,-66 0,-36 21,-66 47,-66z"/>
   <path class="fil4" d="M3791 10713c26,0 47,29 47,66 0,36 -21,66 -47,66 -26,0 -47,-29 -47,-66 0,-36 21,-66 47,-66z"/>
   <path class="fil4" d="M3933 10713c26,0 47,29 47,66 0,36 -21,66 -47,66 -26,0 -47,-29 -47,-66 0,-36 21,-66 47,-66z"/>
   <path class="fil4" d="M4090 10713c26,0 47,29 47,66 0,36 -21,66 -47,66 -26,0 -47,-29 -47,-66 0,-36 21,-66 47,-66z"/>
   <path class="fil4" d="M4234 10713c26,0 47,29 47,66 0,36 -21,66 -47,66 -26,0 -47,-29 -47,-66 0,-36 21,-66 47,-66z"/>
   <path class="fil4" d="M4367 10713c26,0 47,29 47,66 0,36 -21,66 -47,66 -26,0 -47,-29 -47,-66 0,-36 21,-66 47,-66z"/>
   <path class="fil4" d="M4523 10713c26,0 47,29 47,66 0,36 -21,66 -47,66 -26,0 -47,-29 -47,-66 0,-36 21,-66 47,-66z"/>
   <path class="fil4" d="M4667 10713c26,0 47,29 47,66 0,36 -21,66 -47,66 -26,0 -47,-29 -47,-66 0,-36 21,-66 47,-66z"/>
   <path class="fil4" d="M4810 10713c26,0 47,29 47,66 0,36 -21,66 -47,66 -26,0 -47,-29 -47,-66 0,-36 21,-66 47,-66z"/>
   <path class="fil4" d="M4966 10713c26,0 47,29 47,66 0,36 -21,66 -47,66 -26,0 -47,-29 -47,-66 0,-36 21,-66 47,-66z"/>
   <path class="fil4" d="M5110 10713c26,0 47,29 47,66 0,36 -21,66 -47,66 -26,0 -47,-29 -47,-66 0,-36 21,-66 47,-66z"/>
   <path class="fil4" d="M3434 10873c26,0 47,29 47,66 0,36 -21,66 -47,66 -26,0 -47,-29 -47,-66 0,-36 21,-66 47,-66z"/>
   <path class="fil4" d="M3590 10873c26,0 47,29 47,66 0,36 -21,66 -47,66 -26,0 -47,-29 -47,-66 0,-36 21,-66 47,-66z"/>
   <path class="fil4" d="M3734 10873c26,0 47,29 47,66 0,36 -21,66 -47,66 -26,0 -47,-29 -47,-66 0,-36 21,-66 47,-66z"/>
   <path class="fil4" d="M3876 10873c26,0 47,29 47,66 0,36 -21,66 -47,66 -26,0 -47,-29 -47,-66 0,-36 21,-66 47,-66z"/>
   <path class="fil4" d="M4033 10873c26,0 47,29 47,66 0,36 -21,66 -47,66 -26,0 -47,-29 -47,-66 0,-36 21,-66 47,-66z"/>
   <path class="fil4" d="M4177 10873c26,0 47,29 47,66 0,36 -21,66 -47,66 -26,0 -47,-29 -47,-66 0,-36 21,-66 47,-66z"/>
   <path class="fil4" d="M4310 10873c26,0 47,29 47,66 0,36 -21,66 -47,66 -26,0 -47,-29 -47,-66 0,-36 21,-66 47,-66z"/>
   <path class="fil4" d="M4466 10873c26,0 47,29 47,66 0,36 -21,66 -47,66 -26,0 -47,-29 -47,-66 0,-36 21,-66 47,-66z"/>
   <path class="fil4" d="M4610 10873c26,0 47,29 47,66 0,36 -21,66 -47,66 -26,0 -47,-29 -47,-66 0,-36 21,-66 47,-66z"/>
   <path class="fil4" d="M4753 10873c26,0 47,29 47,66 0,36 -21,66 -47,66 -26,0 -47,-29 -47,-66 0,-36 21,-66 47,-66z"/>
   <path class="fil4" d="M4909 10873c26,0 47,29 47,66 0,36 -21,66 -47,66 -26,0 -47,-29 -47,-66 0,-36 21,-66 47,-66z"/>
   <path class="fil4" d="M5053 10873c26,0 47,29 47,66 0,36 -21,66 -47,66 -26,0 -47,-29 -47,-66 0,-36 21,-66 47,-66z"/>
   <path class="fil4" d="M3532 11029c26,0 47,29 47,66 0,36 -21,66 -47,66 -26,0 -47,-29 -47,-66 0,-36 21,-66 47,-66z"/>
   <path class="fil4" d="M3688 11029c26,0 47,29 47,66 0,36 -21,66 -47,66 -26,0 -47,-29 -47,-66 0,-36 21,-66 47,-66z"/>
   <path class="fil4" d="M3832 11029c26,0 47,29 47,66 0,36 -21,66 -47,66 -26,0 -47,-29 -47,-66 0,-36 21,-66 47,-66z"/>
   <path class="fil4" d="M3974 11029c26,0 47,29 47,66 0,36 -21,66 -47,66 -26,0 -47,-29 -47,-66 0,-36 21,-66 47,-66z"/>
   <path class="fil4" d="M4131 11029c26,0 47,29 47,66 0,36 -21,66 -47,66 -26,0 -47,-29 -47,-66 0,-36 21,-66 47,-66z"/>
   <path class="fil4" d="M4275 11029c26,0 47,29 47,66 0,36 -21,66 -47,66 -26,0 -47,-29 -47,-66 0,-36 21,-66 47,-66z"/>
   <path class="fil4" d="M4408 11029c26,0 47,29 47,66 0,36 -21,66 -47,66 -26,0 -47,-29 -47,-66 0,-36 21,-66 47,-66z"/>
   <path class="fil4" d="M4564 11029c26,0 47,29 47,66 0,36 -21,66 -47,66 -26,0 -47,-29 -47,-66 0,-36 21,-66 47,-66z"/>
   <path class="fil4" d="M4708 11029c26,0 47,29 47,66 0,36 -21,66 -47,66 -26,0 -47,-29 -47,-66 0,-36 21,-66 47,-66z"/>
   <path class="fil4" d="M4851 11029c26,0 47,29 47,66 0,36 -21,66 -47,66 -26,0 -47,-29 -47,-66 0,-36 21,-66 47,-66z"/>
   <path class="fil4" d="M5007 11029c26,0 47,29 47,66 0,36 -21,66 -47,66 -26,0 -47,-29 -47,-66 0,-36 21,-66 47,-66z"/>
   <path class="fil4" d="M3631 11189c26,0 47,29 47,66 0,36 -21,66 -47,66 -26,0 -47,-29 -47,-66 0,-36 21,-66 47,-66z"/>
   <path class="fil4" d="M3775 11189c26,0 47,29 47,66 0,36 -21,66 -47,66 -26,0 -47,-29 -47,-66 0,-36 21,-66 47,-66z"/>
   <path class="fil4" d="M3918 11189c26,0 47,29 47,66 0,36 -21,66 -47,66 -26,0 -47,-29 -47,-66 0,-36 21,-66 47,-66z"/>
   <path class="fil4" d="M4074 11189c26,0 47,29 47,66 0,36 -21,66 -47,66 -26,0 -47,-29 -47,-66 0,-36 21,-66 47,-66z"/>
   <path class="fil4" d="M4218 11189c26,0 47,29 47,66 0,36 -21,66 -47,66 -26,0 -47,-29 -47,-66 0,-36 21,-66 47,-66z"/>
   <path class="fil4" d="M4351 11189c26,0 47,29 47,66 0,36 -21,66 -47,66 -26,0 -47,-29 -47,-66 0,-36 21,-66 47,-66z"/>
   <path class="fil4" d="M4507 11189c26,0 47,29 47,66 0,36 -21,66 -47,66 -26,0 -47,-29 -47,-66 0,-36 21,-66 47,-66z"/>
   <path class="fil4" d="M4651 11189c26,0 47,29 47,66 0,36 -21,66 -47,66 -26,0 -47,-29 -47,-66 0,-36 21,-66 47,-66z"/>
   <path class="fil4" d="M4794 11189c26,0 47,29 47,66 0,36 -21,66 -47,66 -26,0 -47,-29 -47,-66 0,-36 21,-66 47,-66z"/>
   <path class="fil4" d="M4950 11189c26,0 47,29 47,66 0,36 -21,66 -47,66 -26,0 -47,-29 -47,-66 0,-36 21,-66 47,-66z"/>
   <path class="fil4" d="M5094 11189c26,0 47,29 47,66 0,36 -21,66 -47,66 -26,0 -47,-29 -47,-66 0,-36 21,-66 47,-66z"/>
   <path class="fil4" d="M5126 11020c26,0 47,29 47,66 0,36 -21,66 -47,66 -26,0 -47,-29 -47,-66 0,-36 21,-66 47,-66z"/>
   <path class="fil4" d="M5282 11020c26,0 47,29 47,66 0,36 -21,66 -47,66 -26,0 -47,-29 -47,-66 0,-36 21,-66 47,-66z"/>
   <path class="fil4" d="M5426 11020c26,0 47,29 47,66 0,36 -21,66 -47,66 -26,0 -47,-29 -47,-66 0,-36 21,-66 47,-66z"/>
   <path class="fil4" d="M5569 11020c26,0 47,29 47,66 0,36 -21,66 -47,66 -26,0 -47,-29 -47,-66 0,-36 21,-66 47,-66z"/>
   <path class="fil4" d="M5725 11020c26,0 47,29 47,66 0,36 -21,66 -47,66 -26,0 -47,-29 -47,-66 0,-36 21,-66 47,-66z"/>
   <path class="fil4" d="M5869 11020c26,0 47,29 47,66 0,36 -21,66 -47,66 -26,0 -47,-29 -47,-66 0,-36 21,-66 47,-66z"/>
   <path class="fil4" d="M6002 11020c26,0 47,29 47,66 0,36 -21,66 -47,66 -26,0 -47,-29 -47,-66 0,-36 21,-66 47,-66z"/>
   <path class="fil4" d="M6159 11020c26,0 47,29 47,66 0,36 -21,66 -47,66 -26,0 -47,-29 -47,-66 0,-36 21,-66 47,-66z"/>
   <path class="fil4" d="M6303 11020c26,0 47,29 47,66 0,36 -21,66 -47,66 -26,0 -47,-29 -47,-66 0,-36 21,-66 47,-66z"/>
   <path class="fil4" d="M6445 11020c26,0 47,29 47,66 0,36 -21,66 -47,66 -26,0 -47,-29 -47,-66 0,-36 21,-66 47,-66z"/>
   <path class="fil4" d="M6601 11020c26,0 47,29 47,66 0,36 -21,66 -47,66 -26,0 -47,-29 -47,-66 0,-36 21,-66 47,-66z"/>
   <path class="fil4" d="M5225 11180c26,0 47,29 47,66 0,36 -21,66 -47,66 -26,0 -47,-29 -47,-66 0,-36 21,-66 47,-66z"/>
   <path class="fil4" d="M5369 11180c26,0 47,29 47,66 0,36 -21,66 -47,66 -26,0 -47,-29 -47,-66 0,-36 21,-66 47,-66z"/>
   <path class="fil4" d="M5512 11180c26,0 47,29 47,66 0,36 -21,66 -47,66 -26,0 -47,-29 -47,-66 0,-36 21,-66 47,-66z"/>
   <path class="fil4" d="M5668 11180c26,0 47,29 47,66 0,36 -21,66 -47,66 -26,0 -47,-29 -47,-66 0,-36 21,-66 47,-66z"/>
   <path class="fil4" d="M5812 11180c26,0 47,29 47,66 0,36 -21,66 -47,66 -26,0 -47,-29 -47,-66 0,-36 21,-66 47,-66z"/>
   <path class="fil4" d="M5945 11180c26,0 47,29 47,66 0,36 -21,66 -47,66 -26,0 -47,-29 -47,-66 0,-36 21,-66 47,-66z"/>
   <path class="fil4" d="M6102 11180c26,0 47,29 47,66 0,36 -21,66 -47,66 -26,0 -47,-29 -47,-66 0,-36 21,-66 47,-66z"/>
   <path class="fil4" d="M6246 11180c26,0 47,29 47,66 0,36 -21,66 -47,66 -26,0 -47,-29 -47,-66 0,-36 21,-66 47,-66z"/>
   <path class="fil4" d="M6388 11180c26,0 47,29 47,66 0,36 -21,66 -47,66 -26,0 -47,-29 -47,-66 0,-36 21,-66 47,-66z"/>
   <path class="fil4" d="M6545 11180c26,0 47,29 47,66 0,36 -21,66 -47,66 -26,0 -47,-29 -47,-66 0,-36 21,-66 47,-66z"/>
   <path class="fil4" d="M6688 11180c26,0 47,29 47,66 0,36 -21,66 -47,66 -26,0 -47,-29 -47,-66 0,-36 21,-66 47,-66z"/>
   <path class="fil4" d="M4012 11331c26,0 47,29 47,66 0,36 -21,66 -47,66 -26,0 -47,-29 -47,-66 0,-36 21,-66 47,-66z"/>
   <path class="fil4" d="M4169 11331c26,0 47,29 47,66 0,36 -21,66 -47,66 -26,0 -47,-29 -47,-66 0,-36 21,-66 47,-66z"/>
   <path class="fil4" d="M4313 11331c26,0 47,29 47,66 0,36 -21,66 -47,66 -26,0 -47,-29 -47,-66 0,-36 21,-66 47,-66z"/>
   <path class="fil4" d="M4455 11331c26,0 47,29 47,66 0,36 -21,66 -47,66 -26,0 -47,-29 -47,-66 0,-36 21,-66 47,-66z"/>
   <path class="fil4" d="M4612 11331c26,0 47,29 47,66 0,36 -21,66 -47,66 -26,0 -47,-29 -47,-66 0,-36 21,-66 47,-66z"/>
   <path class="fil4" d="M4756 11331c26,0 47,29 47,66 0,36 -21,66 -47,66 -26,0 -47,-29 -47,-66 0,-36 21,-66 47,-66z"/>
   <path class="fil4" d="M4889 11331c26,0 47,29 47,66 0,36 -21,66 -47,66 -26,0 -47,-29 -47,-66 0,-36 21,-66 47,-66z"/>
   <path class="fil4" d="M5045 11331c26,0 47,29 47,66 0,36 -21,66 -47,66 -26,0 -47,-29 -47,-66 0,-36 21,-66 47,-66z"/>
   <path class="fil4" d="M5189 11331c26,0 47,29 47,66 0,36 -21,66 -47,66 -26,0 -47,-29 -47,-66 0,-36 21,-66 47,-66z"/>
   <path class="fil4" d="M5331 11331c26,0 47,29 47,66 0,36 -21,66 -47,66 -26,0 -47,-29 -47,-66 0,-36 21,-66 47,-66z"/>
   <path class="fil4" d="M5488 11331c26,0 47,29 47,66 0,36 -21,66 -47,66 -26,0 -47,-29 -47,-66 0,-36 21,-66 47,-66z"/>
   <path class="fil4" d="M5632 11331c26,0 47,29 47,66 0,36 -21,66 -47,66 -26,0 -47,-29 -47,-66 0,-36 21,-66 47,-66z"/>
   <path class="fil4" d="M3999 11532c-27,-6 -53,-12 -79,-19 9,-14 21,-22 35,-22 20,0 37,17 44,41z"/>
   <path class="fil4" d="M4159 11566c-32,-6 -63,-13 -94,-19 4,-32 23,-56 47,-56 26,0 47,29 47,66 0,3 0,6 0,9z"/>
   <path class="fil4" d="M4296 11592c-29,-5 -57,-10 -86,-16 -1,-6 -2,-13 -2,-19 0,-36 21,-66 47,-66 26,0 47,29 47,66 0,13 -3,25 -7,35l1 0z"/>
   <path class="fil4" d="M4423 11613c-20,-3 -39,-6 -58,-9 -9,-12 -14,-28 -14,-47 0,-36 21,-66 47,-66 26,0 47,29 47,66 0,24 -9,44 -23,56l1 0z"/>
   <path class="fil4" d="M4555 11491c26,0 47,29 47,66 0,36 -21,66 -47,66 -26,0 -47,-29 -47,-66 0,-36 21,-66 47,-66z"/>
   <path class="fil4" d="M4699 11491c26,0 47,29 47,66 0,36 -21,66 -47,66 -26,0 -47,-29 -47,-66 0,-36 21,-66 47,-66z"/>
   <path class="fil4" d="M4832 11491c26,0 47,29 47,66 0,36 -21,66 -47,66 -26,0 -47,-29 -47,-66 0,-36 21,-66 47,-66z"/>
   <path class="fil4" d="M4988 11491c26,0 47,29 47,66 0,36 -21,66 -47,66 -26,0 -47,-29 -47,-66 0,-36 21,-66 47,-66z"/>
   <path class="fil4" d="M5132 11491c26,0 47,29 47,66 0,36 -21,66 -47,66 -26,0 -47,-29 -47,-66 0,-36 21,-66 47,-66z"/>
   <path class="fil4" d="M5275 11491c26,0 47,29 47,66 0,36 -21,66 -47,66 -26,0 -47,-29 -47,-66 0,-36 21,-66 47,-66z"/>
   <path class="fil4" d="M5431 11491c26,0 47,29 47,66 0,36 -21,66 -47,66 -26,0 -47,-29 -47,-66 0,-36 21,-66 47,-66z"/>
   <path class="fil4" d="M5575 11491c26,0 47,29 47,66 0,36 -21,66 -47,66 -26,0 -47,-29 -47,-66 0,-36 21,-66 47,-66z"/>
   <path class="fil4" d="M4828 11664c-19,-2 -39,-4 -58,-6 8,-7 17,-11 26,-11 12,0 23,6 32,17z"/>
   <path class="fil4" d="M4969 11676c-25,-2 -50,-4 -75,-6 9,-14 22,-23 36,-23 16,0 31,11 39,29z"/>
   <path class="fil4" d="M5130 11686c-28,-2 -57,-3 -85,-5 8,-20 24,-34 42,-34 19,0 36,16 43,39z"/>
   <path class="fil4" d="M5275 11693c-30,-1 -60,-2 -90,-4 7,-25 24,-42 44,-42 21,0 39,19 45,46l1 0z"/>
   <path class="fil4" d="M5419 11697c-31,-1 -61,-1 -92,-2 6,-28 24,-48 46,-48 22,0 41,21 46,50z"/>
   <path class="fil4" d="M5575 11698l-8 0c-28,0 -56,0 -85,0 5,-29 24,-51 46,-51 23,0 42,22 46,51l1 0z"/>
   <path class="fil4" d="M5695 11697c-31,1 -63,1 -94,1 2,-34 22,-60 47,-60 25,0 45,26 47,59z"/>
   <path class="fil4" d="M5851 11693c-31,1 -62,2 -94,3 3,-33 23,-58 47,-58 24,0 43,24 47,55z"/>
   <path class="fil4" d="M5994 11687c-31,2 -61,3 -92,4 4,-30 23,-53 47,-53 22,0 40,21 46,49l-1 0z"/>
   <path class="fil4" d="M6134 11678c-29,2 -59,4 -89,6 6,-27 24,-46 45,-46 20,0 36,16 44,40z"/>
   <path class="fil4" d="M6286 11666c-27,2 -53,5 -80,7 8,-21 24,-34 42,-34 16,0 30,11 39,27l-1 0z"/>
   <path class="fil4" d="M6420 11652c-21,2 -42,5 -63,7 9,-13 21,-21 34,-21 11,0 21,5 29,14z"/>
   <path class="fil4" d="M6530 11639c-7,1 -14,2 -21,3 5,-2 9,-3 15,-3 2,0 4,0 6,1l0 -1z"/>
   <path class="fil4" d="M4651 9933c26,0 47,29 47,66 0,36 -21,66 -47,66 -26,0 -47,-29 -47,-66 0,-36 21,-66 47,-66z"/>
   <path class="fil4" d="M4808 9933c26,0 47,29 47,66 0,36 -21,66 -47,66 -26,0 -47,-29 -47,-66 0,-36 21,-66 47,-66z"/>
   <path class="fil4" d="M4952 9933c26,0 47,29 47,66 0,36 -21,66 -47,66 -26,0 -47,-29 -47,-66 0,-36 21,-66 47,-66z"/>
   <path class="fil4" d="M5094 9933c26,0 47,29 47,66 0,36 -21,66 -47,66 -26,0 -47,-29 -47,-66 0,-36 21,-66 47,-66z"/>
   <path class="fil4" d="M5251 9933c26,0 47,29 47,66 0,36 -21,66 -47,66 -26,0 -47,-29 -47,-66 0,-36 21,-66 47,-66z"/>
   <path class="fil4" d="M5395 9933c26,0 47,29 47,66 0,36 -21,66 -47,66 -26,0 -47,-29 -47,-66 0,-36 21,-66 47,-66z"/>
   <path class="fil4" d="M5528 9933c26,0 47,29 47,66 0,36 -21,66 -47,66 -26,0 -47,-29 -47,-66 0,-36 21,-66 47,-66z"/>
   <path class="fil4" d="M5684 9933c26,0 47,29 47,66 0,36 -21,66 -47,66 -26,0 -47,-29 -47,-66 0,-36 21,-66 47,-66z"/>
   <path class="fil4" d="M5828 9933c26,0 47,29 47,66 0,36 -21,66 -47,66 -26,0 -47,-29 -47,-66 0,-36 21,-66 47,-66z"/>
   <path class="fil4" d="M5970 9933c26,0 47,29 47,66 0,36 -21,66 -47,66 -26,0 -47,-29 -47,-66 0,-36 21,-66 47,-66z"/>
   <path class="fil4" d="M6127 9933c26,0 47,29 47,66 0,36 -21,66 -47,66 -26,0 -47,-29 -47,-66 0,-36 21,-66 47,-66z"/>
   <path class="fil4" d="M6271 9933c26,0 47,29 47,66 0,36 -21,66 -47,66 -26,0 -47,-29 -47,-66 0,-36 21,-66 47,-66z"/>
   <path class="fil4" d="M4594 10093c26,0 47,29 47,66 0,36 -21,66 -47,66 -26,0 -47,-29 -47,-66 0,-36 21,-66 47,-66z"/>
   <path class="fil4" d="M4751 10093c26,0 47,29 47,66 0,36 -21,66 -47,66 -26,0 -47,-29 -47,-66 0,-36 21,-66 47,-66z"/>
   <path class="fil4" d="M4895 10093c26,0 47,29 47,66 0,36 -21,66 -47,66 -26,0 -47,-29 -47,-66 0,-36 21,-66 47,-66z"/>
   <path class="fil4" d="M5037 10093c26,0 47,29 47,66 0,36 -21,66 -47,66 -26,0 -47,-29 -47,-66 0,-36 21,-66 47,-66z"/>
   <path class="fil4" d="M5194 10093c26,0 47,29 47,66 0,36 -21,66 -47,66 -26,0 -47,-29 -47,-66 0,-36 21,-66 47,-66z"/>
   <path class="fil4" d="M5338 10093c26,0 47,29 47,66 0,36 -21,66 -47,66 -26,0 -47,-29 -47,-66 0,-36 21,-66 47,-66z"/>
   <path class="fil4" d="M5471 10093c26,0 47,29 47,66 0,36 -21,66 -47,66 -26,0 -47,-29 -47,-66 0,-36 21,-66 47,-66z"/>
   <path class="fil4" d="M5627 10093c26,0 47,29 47,66 0,36 -21,66 -47,66 -26,0 -47,-29 -47,-66 0,-36 21,-66 47,-66z"/>
   <path class="fil4" d="M5771 10093c26,0 47,29 47,66 0,36 -21,66 -47,66 -26,0 -47,-29 -47,-66 0,-36 21,-66 47,-66z"/>
   <path class="fil4" d="M5913 10093c26,0 47,29 47,66 0,36 -21,66 -47,66 -26,0 -47,-29 -47,-66 0,-36 21,-66 47,-66z"/>
   <path class="fil4" d="M6070 10093c26,0 47,29 47,66 0,36 -21,66 -47,66 -26,0 -47,-29 -47,-66 0,-36 21,-66 47,-66z"/>
   <path class="fil4" d="M6214 10093c26,0 47,29 47,66 0,36 -21,66 -47,66 -26,0 -47,-29 -47,-66 0,-36 21,-66 47,-66z"/>
   <path class="fil4" d="M4692 10248c26,0 47,29 47,66 0,36 -21,66 -47,66 -26,0 -47,-29 -47,-66 0,-36 21,-66 47,-66z"/>
   <path class="fil4" d="M4849 10248c26,0 47,29 47,66 0,36 -21,66 -47,66 -26,0 -47,-29 -47,-66 0,-36 21,-66 47,-66z"/>
   <path class="fil4" d="M4993 10248c26,0 47,29 47,66 0,36 -21,66 -47,66 -26,0 -47,-29 -47,-66 0,-36 21,-66 47,-66z"/>
   <path class="fil4" d="M5135 10248c26,0 47,29 47,66 0,36 -21,66 -47,66 -26,0 -47,-29 -47,-66 0,-36 21,-66 47,-66z"/>
   <path class="fil4" d="M5292 10248c26,0 47,29 47,66 0,36 -21,66 -47,66 -26,0 -47,-29 -47,-66 0,-36 21,-66 47,-66z"/>
   <path class="fil4" d="M5436 10248c26,0 47,29 47,66 0,36 -21,66 -47,66 -26,0 -47,-29 -47,-66 0,-36 21,-66 47,-66z"/>
   <path class="fil4" d="M5569 10248c26,0 47,29 47,66 0,36 -21,66 -47,66 -26,0 -47,-29 -47,-66 0,-36 21,-66 47,-66z"/>
   <path class="fil4" d="M5725 10248c26,0 47,29 47,66 0,36 -21,66 -47,66 -26,0 -47,-29 -47,-66 0,-36 21,-66 47,-66z"/>
   <path class="fil4" d="M5869 10248c26,0 47,29 47,66 0,36 -21,66 -47,66 -26,0 -47,-29 -47,-66 0,-36 21,-66 47,-66z"/>
   <path class="fil4" d="M6012 10248c26,0 47,29 47,66 0,36 -21,66 -47,66 -26,0 -47,-29 -47,-66 0,-36 21,-66 47,-66z"/>
   <path class="fil4" d="M6168 10248c26,0 47,29 47,66 0,36 -21,66 -47,66 -26,0 -47,-29 -47,-66 0,-36 21,-66 47,-66z"/>
   <path class="fil4" d="M4792 10408c26,0 47,29 47,66 0,36 -21,66 -47,66 -26,0 -47,-29 -47,-66 0,-36 21,-66 47,-66z"/>
   <path class="fil4" d="M4936 10408c26,0 47,29 47,66 0,36 -21,66 -47,66 -26,0 -47,-29 -47,-66 0,-36 21,-66 47,-66z"/>
   <path class="fil4" d="M5078 10408c26,0 47,29 47,66 0,36 -21,66 -47,66 -26,0 -47,-29 -47,-66 0,-36 21,-66 47,-66z"/>
   <path class="fil4" d="M5235 10408c26,0 47,29 47,66 0,36 -21,66 -47,66 -26,0 -47,-29 -47,-66 0,-36 21,-66 47,-66z"/>
   <path class="fil4" d="M5379 10408c26,0 47,29 47,66 0,36 -21,66 -47,66 -26,0 -47,-29 -47,-66 0,-36 21,-66 47,-66z"/>
   <path class="fil4" d="M5512 10408c26,0 47,29 47,66 0,36 -21,66 -47,66 -26,0 -47,-29 -47,-66 0,-36 21,-66 47,-66z"/>
   <path class="fil4" d="M5668 10408c26,0 47,29 47,66 0,36 -21,66 -47,66 -26,0 -47,-29 -47,-66 0,-36 21,-66 47,-66z"/>
   <path class="fil4" d="M5812 10408c26,0 47,29 47,66 0,36 -21,66 -47,66 -26,0 -47,-29 -47,-66 0,-36 21,-66 47,-66z"/>
   <path class="fil4" d="M5955 10408c26,0 47,29 47,66 0,36 -21,66 -47,66 -26,0 -47,-29 -47,-66 0,-36 21,-66 47,-66z"/>
   <path class="fil4" d="M6111 10408c26,0 47,29 47,66 0,36 -21,66 -47,66 -26,0 -47,-29 -47,-66 0,-36 21,-66 47,-66z"/>
   <path class="fil4" d="M6255 10408c26,0 47,29 47,66 0,36 -21,66 -47,66 -26,0 -47,-29 -47,-66 0,-36 21,-66 47,-66z"/>
   <path class="fil4" d="M6287 10240c26,0 47,29 47,66 0,36 -21,66 -47,66 -26,0 -47,-29 -47,-66 0,-36 21,-66 47,-66z"/>
   <path class="fil4" d="M6443 10240c26,0 47,29 47,66 0,36 -21,66 -47,66 -26,0 -47,-29 -47,-66 0,-36 21,-66 47,-66z"/>
   <path class="fil4" d="M6587 10240c26,0 47,29 47,66 0,36 -21,66 -47,66 -26,0 -47,-29 -47,-66 0,-36 21,-66 47,-66z"/>
   <path class="fil4" d="M6730 10240c26,0 47,29 47,66 0,36 -21,66 -47,66 -26,0 -47,-29 -47,-66 0,-36 21,-66 47,-66z"/>
   <path class="fil4" d="M6886 10240c26,0 47,29 47,66 0,36 -21,66 -47,66 -26,0 -47,-29 -47,-66 0,-36 21,-66 47,-66z"/>
   <path class="fil4" d="M7030 10240c26,0 47,29 47,66 0,36 -21,66 -47,66 -26,0 -47,-29 -47,-66 0,-36 21,-66 47,-66z"/>
   <path class="fil4" d="M7163 10240c26,0 47,29 47,66 0,36 -21,66 -47,66 -26,0 -47,-29 -47,-66 0,-36 21,-66 47,-66z"/>
   <path class="fil4" d="M7319 10240c26,0 47,29 47,66 0,36 -21,66 -47,66 -26,0 -47,-29 -47,-66 0,-36 21,-66 47,-66z"/>
   <path class="fil4" d="M7463 10240c26,0 47,29 47,66 0,36 -21,66 -47,66 -26,0 -47,-29 -47,-66 0,-36 21,-66 47,-66z"/>
   <path class="fil4" d="M7606 10240c26,0 47,29 47,66 0,36 -21,66 -47,66 -26,0 -47,-29 -47,-66 0,-36 21,-66 47,-66z"/>
   <path class="fil4" d="M7762 10240c26,0 47,29 47,66 0,36 -21,66 -47,66 -26,0 -47,-29 -47,-66 0,-36 21,-66 47,-66z"/>
   <path class="fil4" d="M6386 10400c26,0 47,29 47,66 0,36 -21,66 -47,66 -26,0 -47,-29 -47,-66 0,-36 21,-66 47,-66z"/>
   <path class="fil4" d="M6530 10400c26,0 47,29 47,66 0,36 -21,66 -47,66 -26,0 -47,-29 -47,-66 0,-36 21,-66 47,-66z"/>
   <path class="fil4" d="M6673 10400c26,0 47,29 47,66 0,36 -21,66 -47,66 -26,0 -47,-29 -47,-66 0,-36 21,-66 47,-66z"/>
   <path class="fil4" d="M6829 10400c26,0 47,29 47,66 0,36 -21,66 -47,66 -26,0 -47,-29 -47,-66 0,-36 21,-66 47,-66z"/>
   <path class="fil4" d="M6973 10400c26,0 47,29 47,66 0,36 -21,66 -47,66 -26,0 -47,-29 -47,-66 0,-36 21,-66 47,-66z"/>
   <path class="fil4" d="M7106 10400c26,0 47,29 47,66 0,36 -21,66 -47,66 -26,0 -47,-29 -47,-66 0,-36 21,-66 47,-66z"/>
   <path class="fil4" d="M7263 10400c26,0 47,29 47,66 0,36 -21,66 -47,66 -26,0 -47,-29 -47,-66 0,-36 21,-66 47,-66z"/>
   <path class="fil4" d="M7406 10400c26,0 47,29 47,66 0,36 -21,66 -47,66 -26,0 -47,-29 -47,-66 0,-36 21,-66 47,-66z"/>
   <path class="fil4" d="M7549 10400c26,0 47,29 47,66 0,36 -21,66 -47,66 -26,0 -47,-29 -47,-66 0,-36 21,-66 47,-66z"/>
   <path class="fil4" d="M7705 10400c26,0 47,29 47,66 0,36 -21,66 -47,66 -26,0 -47,-29 -47,-66 0,-36 21,-66 47,-66z"/>
   <path class="fil4" d="M7849 10400c26,0 47,29 47,66 0,36 -21,66 -47,66 -26,0 -47,-29 -47,-66 0,-36 21,-66 47,-66z"/>
   <path class="fil4" d="M5173 10551c26,0 47,29 47,66 0,36 -21,66 -47,66 -26,0 -47,-29 -47,-66 0,-36 21,-66 47,-66z"/>
   <path class="fil4" d="M5330 10551c26,0 47,29 47,66 0,36 -21,66 -47,66 -26,0 -47,-29 -47,-66 0,-36 21,-66 47,-66z"/>
   <path class="fil4" d="M5474 10551c26,0 47,29 47,66 0,36 -21,66 -47,66 -26,0 -47,-29 -47,-66 0,-36 21,-66 47,-66z"/>
   <path class="fil4" d="M5616 10551c26,0 47,29 47,66 0,36 -21,66 -47,66 -26,0 -47,-29 -47,-66 0,-36 21,-66 47,-66z"/>
   <path class="fil4" d="M5773 10551c26,0 47,29 47,66 0,36 -21,66 -47,66 -26,0 -47,-29 -47,-66 0,-36 21,-66 47,-66z"/>
   <path class="fil4" d="M5917 10551c26,0 47,29 47,66 0,36 -21,66 -47,66 -26,0 -47,-29 -47,-66 0,-36 21,-66 47,-66z"/>
   <path class="fil4" d="M6049 10551c26,0 47,29 47,66 0,36 -21,66 -47,66 -26,0 -47,-29 -47,-66 0,-36 21,-66 47,-66z"/>
   <path class="fil4" d="M6206 10551c26,0 47,29 47,66 0,36 -21,66 -47,66 -26,0 -47,-29 -47,-66 0,-36 21,-66 47,-66z"/>
   <path class="fil4" d="M6350 10551c26,0 47,29 47,66 0,36 -21,66 -47,66 -26,0 -47,-29 -47,-66 0,-36 21,-66 47,-66z"/>
   <path class="fil4" d="M6492 10551c26,0 47,29 47,66 0,36 -21,66 -47,66 -26,0 -47,-29 -47,-66 0,-36 21,-66 47,-66z"/>
   <path class="fil4" d="M6649 10551c26,0 47,29 47,66 0,36 -21,66 -47,66 -26,0 -47,-29 -47,-66 0,-36 21,-66 47,-66z"/>
   <path class="fil4" d="M6793 10551c26,0 47,29 47,66 0,36 -21,66 -47,66 -26,0 -47,-29 -47,-66 0,-36 21,-66 47,-66z"/>
   <path class="fil4" d="M5116 10711c26,0 47,29 47,66 0,36 -21,66 -47,66 -26,0 -47,-29 -47,-66 0,-36 21,-66 47,-66z"/>
   <path class="fil4" d="M5273 10711c26,0 47,29 47,66 0,36 -21,66 -47,66 -26,0 -47,-29 -47,-66 0,-36 21,-66 47,-66z"/>
   <path class="fil4" d="M5417 10711c26,0 47,29 47,66 0,36 -21,66 -47,66 -26,0 -47,-29 -47,-66 0,-36 21,-66 47,-66z"/>
   <path class="fil4" d="M5559 10711c26,0 47,29 47,66 0,36 -21,66 -47,66 -26,0 -47,-29 -47,-66 0,-36 21,-66 47,-66z"/>
   <path class="fil4" d="M5716 10711c26,0 47,29 47,66 0,36 -21,66 -47,66 -26,0 -47,-29 -47,-66 0,-36 21,-66 47,-66z"/>
   <path class="fil4" d="M5860 10711c26,0 47,29 47,66 0,36 -21,66 -47,66 -26,0 -47,-29 -47,-66 0,-36 21,-66 47,-66z"/>
   <path class="fil4" d="M5993 10711c26,0 47,29 47,66 0,36 -21,66 -47,66 -26,0 -47,-29 -47,-66 0,-36 21,-66 47,-66z"/>
   <path class="fil4" d="M6149 10711c26,0 47,29 47,66 0,36 -21,66 -47,66 -26,0 -47,-29 -47,-66 0,-36 21,-66 47,-66z"/>
   <path class="fil4" d="M6293 10711c26,0 47,29 47,66 0,36 -21,66 -47,66 -26,0 -47,-29 -47,-66 0,-36 21,-66 47,-66z"/>
   <path class="fil4" d="M6435 10711c26,0 47,29 47,66 0,36 -21,66 -47,66 -26,0 -47,-29 -47,-66 0,-36 21,-66 47,-66z"/>
   <path class="fil4" d="M6592 10711c26,0 47,29 47,66 0,36 -21,66 -47,66 -26,0 -47,-29 -47,-66 0,-36 21,-66 47,-66z"/>
   <path class="fil4" d="M6736 10711c26,0 47,29 47,66 0,36 -21,66 -47,66 -26,0 -47,-29 -47,-66 0,-36 21,-66 47,-66z"/>
   <path class="fil4" d="M5214 10867c26,0 47,29 47,66 0,36 -21,66 -47,66 -26,0 -47,-29 -47,-66 0,-36 21,-66 47,-66z"/>
   <path class="fil4" d="M5371 10867c26,0 47,29 47,66 0,36 -21,66 -47,66 -26,0 -47,-29 -47,-66 0,-36 21,-66 47,-66z"/>
   <path class="fil4" d="M5515 10867c26,0 47,29 47,66 0,36 -21,66 -47,66 -26,0 -47,-29 -47,-66 0,-36 21,-66 47,-66z"/>
   <path class="fil4" d="M5657 10867c26,0 47,29 47,66 0,36 -21,66 -47,66 -26,0 -47,-29 -47,-66 0,-36 21,-66 47,-66z"/>
   <path class="fil4" d="M5814 10867c26,0 47,29 47,66 0,36 -21,66 -47,66 -26,0 -47,-29 -47,-66 0,-36 21,-66 47,-66z"/>
   <path class="fil4" d="M5958 10867c26,0 47,29 47,66 0,36 -21,66 -47,66 -26,0 -47,-29 -47,-66 0,-36 21,-66 47,-66z"/>
   <path class="fil4" d="M6091 10867c26,0 47,29 47,66 0,36 -21,66 -47,66 -26,0 -47,-29 -47,-66 0,-36 21,-66 47,-66z"/>
   <path class="fil4" d="M6247 10867c26,0 47,29 47,66 0,36 -21,66 -47,66 -26,0 -47,-29 -47,-66 0,-36 21,-66 47,-66z"/>
   <path class="fil4" d="M6391 10867c26,0 47,29 47,66 0,36 -21,66 -47,66 -26,0 -47,-29 -47,-66 0,-36 21,-66 47,-66z"/>
   <path class="fil4" d="M6533 10867c26,0 47,29 47,66 0,36 -21,66 -47,66 -26,0 -47,-29 -47,-66 0,-36 21,-66 47,-66z"/>
   <path class="fil4" d="M6690 10867c26,0 47,29 47,66 0,36 -21,66 -47,66 -26,0 -47,-29 -47,-66 0,-36 21,-66 47,-66z"/>
   <path class="fil4" d="M5314 11027c26,0 47,29 47,66 0,36 -21,66 -47,66 -26,0 -47,-29 -47,-66 0,-36 21,-66 47,-66z"/>
   <path class="fil4" d="M5458 11027c26,0 47,29 47,66 0,36 -21,66 -47,66 -26,0 -47,-29 -47,-66 0,-36 21,-66 47,-66z"/>
   <path class="fil4" d="M5600 11027c26,0 47,29 47,66 0,36 -21,66 -47,66 -26,0 -47,-29 -47,-66 0,-36 21,-66 47,-66z"/>
   <path class="fil4" d="M5757 11027c26,0 47,29 47,66 0,36 -21,66 -47,66 -26,0 -47,-29 -47,-66 0,-36 21,-66 47,-66z"/>
   <path class="fil4" d="M5901 11027c26,0 47,29 47,66 0,36 -21,66 -47,66 -26,0 -47,-29 -47,-66 0,-36 21,-66 47,-66z"/>
   <path class="fil4" d="M6034 11027c26,0 47,29 47,66 0,36 -21,66 -47,66 -26,0 -47,-29 -47,-66 0,-36 21,-66 47,-66z"/>
   <path class="fil4" d="M6190 11027c26,0 47,29 47,66 0,36 -21,66 -47,66 -26,0 -47,-29 -47,-66 0,-36 21,-66 47,-66z"/>
   <path class="fil4" d="M6334 11027c26,0 47,29 47,66 0,36 -21,66 -47,66 -26,0 -47,-29 -47,-66 0,-36 21,-66 47,-66z"/>
   <path class="fil4" d="M6476 11027c26,0 47,29 47,66 0,36 -21,66 -47,66 -26,0 -47,-29 -47,-66 0,-36 21,-66 47,-66z"/>
   <path class="fil4" d="M6633 11027c26,0 47,29 47,66 0,36 -21,66 -47,66 -26,0 -47,-29 -47,-66 0,-36 21,-66 47,-66z"/>
   <path class="fil4" d="M6777 11027c26,0 47,29 47,66 0,36 -21,66 -47,66 -26,0 -47,-29 -47,-66 0,-36 21,-66 47,-66z"/>
   <path class="fil4" d="M6809 10858c26,0 47,29 47,66 0,36 -21,66 -47,66 -26,0 -47,-29 -47,-66 0,-36 21,-66 47,-66z"/>
   <path class="fil4" d="M6965 10858c26,0 47,29 47,66 0,36 -21,66 -47,66 -26,0 -47,-29 -47,-66 0,-36 21,-66 47,-66z"/>
   <path class="fil4" d="M7109 10858c26,0 47,29 47,66 0,36 -21,66 -47,66 -26,0 -47,-29 -47,-66 0,-36 21,-66 47,-66z"/>
   <path class="fil4" d="M7251 10858c26,0 47,29 47,66 0,36 -21,66 -47,66 -26,0 -47,-29 -47,-66 0,-36 21,-66 47,-66z"/>
   <path class="fil4" d="M7408 10858c26,0 47,29 47,66 0,36 -21,66 -47,66 -26,0 -47,-29 -47,-66 0,-36 21,-66 47,-66z"/>
   <path class="fil4" d="M7552 10858c26,0 47,29 47,66 0,36 -21,66 -47,66 -26,0 -47,-29 -47,-66 0,-36 21,-66 47,-66z"/>
   <path class="fil4" d="M7685 10858c26,0 47,29 47,66 0,36 -21,66 -47,66 -26,0 -47,-29 -47,-66 0,-36 21,-66 47,-66z"/>
   <path class="fil4" d="M7841 10858c26,0 47,29 47,66 0,36 -21,66 -47,66 -26,0 -47,-29 -47,-66 0,-36 21,-66 47,-66z"/>
   <path class="fil4" d="M7985 10858c26,0 47,29 47,66 0,36 -21,66 -47,66 -26,0 -47,-29 -47,-66 0,-36 21,-66 47,-66z"/>
   <path class="fil4" d="M8128 10858c26,0 47,29 47,66 0,36 -21,66 -47,66 -26,0 -47,-29 -47,-66 0,-36 21,-66 47,-66z"/>
   <path class="fil4" d="M8284 10858c26,0 47,29 47,66 0,36 -21,66 -47,66 -26,0 -47,-29 -47,-66 0,-36 21,-66 47,-66z"/>
   <path class="fil4" d="M6908 11018c26,0 47,29 47,66 0,36 -21,66 -47,66 -26,0 -47,-29 -47,-66 0,-36 21,-66 47,-66z"/>
   <path class="fil4" d="M7052 11018c26,0 47,29 47,66 0,36 -21,66 -47,66 -26,0 -47,-29 -47,-66 0,-36 21,-66 47,-66z"/>
   <path class="fil4" d="M7195 11018c26,0 47,29 47,66 0,36 -21,66 -47,66 -26,0 -47,-29 -47,-66 0,-36 21,-66 47,-66z"/>
   <path class="fil4" d="M7351 11018c26,0 47,29 47,66 0,36 -21,66 -47,66 -26,0 -47,-29 -47,-66 0,-36 21,-66 47,-66z"/>
   <path class="fil4" d="M7495 11018c26,0 47,29 47,66 0,36 -21,66 -47,66 -26,0 -47,-29 -47,-66 0,-36 21,-66 47,-66z"/>
   <path class="fil4" d="M7628 11018c26,0 47,29 47,66 0,36 -21,66 -47,66 -26,0 -47,-29 -47,-66 0,-36 21,-66 47,-66z"/>
   <path class="fil4" d="M7784 11018c26,0 47,29 47,66 0,36 -21,66 -47,66 -26,0 -47,-29 -47,-66 0,-36 21,-66 47,-66z"/>
   <path class="fil4" d="M7928 11018c26,0 47,29 47,66 0,36 -21,66 -47,66 -26,0 -47,-29 -47,-66 0,-36 21,-66 47,-66z"/>
   <path class="fil4" d="M8071 11018c26,0 47,29 47,66 0,36 -21,66 -47,66 -26,0 -47,-29 -47,-66 0,-36 21,-66 47,-66z"/>
   <path class="fil4" d="M8275 11085c-25,17 -51,33 -77,49 -11,-12 -17,-30 -17,-51 0,-36 21,-66 47,-66 26,0 47,29 47,66l0 2z"/>
   <path class="fil4" d="M8368 11018c-12,9 -23,18 -35,27 8,-15 21,-25 35,-27z"/>
   <path class="fil4" d="M5759 9207c31,1 63,2 94,3 0,3 0,5 0,8 0,36 -21,66 -47,66 -26,0 -47,-29 -47,-66 0,-4 0,-8 1,-11l-1 0z"/>
   <path class="fil4" d="M5915 9212c32,1 63,3 95,5l0 1c0,36 -21,66 -47,66 -26,0 -47,-29 -47,-66 0,-2 0,-4 0,-6l-1 0z"/>
   <path class="fil4" d="M6059 9220c32,2 63,4 94,7 -3,32 -23,58 -47,58 -26,0 -47,-29 -47,-64l0 -1z"/>
   <path class="fil4" d="M6202 9230c31,3 61,5 92,8 -6,27 -24,46 -45,46 -23,0 -43,-23 -47,-54z"/>
   <path class="fil4" d="M6362 9245c28,3 56,6 83,9 -8,18 -23,30 -40,30 -19,0 -36,-16 -43,-39z"/>
   <path class="fil4" d="M6514 9262c21,3 43,5 64,8 -8,8 -18,13 -29,13 -14,0 -27,-8 -35,-22l0 1z"/>
   <path class="fil4" d="M5749 9312c26,0 47,29 47,66 0,36 -21,66 -47,66 -26,0 -47,-29 -47,-66 0,-36 21,-66 47,-66z"/>
   <path class="fil4" d="M5906 9312c26,0 47,29 47,66 0,36 -21,66 -47,66 -26,0 -47,-29 -47,-66 0,-36 21,-66 47,-66z"/>
   <path class="fil4" d="M6049 9312c26,0 47,29 47,66 0,36 -21,66 -47,66 -26,0 -47,-29 -47,-66 0,-36 21,-66 47,-66z"/>
   <path class="fil4" d="M6192 9312c26,0 47,29 47,66 0,36 -21,66 -47,66 -26,0 -47,-29 -47,-66 0,-36 21,-66 47,-66z"/>
   <path class="fil4" d="M6348 9312c26,0 47,29 47,66 0,36 -21,66 -47,66 -26,0 -47,-29 -47,-66 0,-36 21,-66 47,-66z"/>
   <path class="fil4" d="M6492 9312c26,0 47,29 47,66 0,36 -21,66 -47,66 -26,0 -47,-29 -47,-66 0,-36 21,-66 47,-66z"/>
   <path class="fil4" d="M6625 9312c26,0 47,29 47,66 0,36 -21,66 -47,66 -26,0 -47,-29 -47,-66 0,-36 21,-66 47,-66z"/>
   <path class="fil4" d="M6782 9312c26,0 47,29 47,66 0,36 -21,66 -47,66 -26,0 -47,-29 -47,-66 0,-36 21,-66 47,-66z"/>
   <path class="fil4" d="M6901 9322c20,4 40,8 60,11 8,12 13,27 13,45 0,36 -21,66 -47,66 -26,0 -47,-29 -47,-66 0,-24 9,-44 23,-56l-2 0z"/>
   <path class="fil4" d="M7026 9347c30,6 59,13 88,19 1,4 1,8 1,12 0,36 -21,66 -47,66 -26,0 -47,-29 -47,-66 0,-11 2,-22 6,-31l-1 0z"/>
   <path class="fil4" d="M7177 9380c31,7 61,15 91,22 -7,24 -24,41 -44,41 -26,0 -47,-28 -47,-63z"/>
   <path class="fil4" d="M7332 9419c20,5 40,11 60,16 -7,5 -14,8 -23,8 -15,0 -28,-10 -37,-24z"/>
   <path class="fil4" d="M5847 9468c26,0 47,29 47,66 0,36 -21,66 -47,66 -26,0 -47,-29 -47,-66 0,-36 21,-66 47,-66z"/>
   <path class="fil4" d="M6004 9468c26,0 47,29 47,66 0,36 -21,66 -47,66 -26,0 -47,-29 -47,-66 0,-36 21,-66 47,-66z"/>
   <path class="fil4" d="M6148 9468c26,0 47,29 47,66 0,36 -21,66 -47,66 -26,0 -47,-29 -47,-66 0,-36 21,-66 47,-66z"/>
   <path class="fil4" d="M6290 9468c26,0 47,29 47,66 0,36 -21,66 -47,66 -26,0 -47,-29 -47,-66 0,-36 21,-66 47,-66z"/>
   <path class="fil4" d="M6446 9468c26,0 47,29 47,66 0,36 -21,66 -47,66 -26,0 -47,-29 -47,-66 0,-36 21,-66 47,-66z"/>
   <path class="fil4" d="M6590 9468c26,0 47,29 47,66 0,36 -21,66 -47,66 -26,0 -47,-29 -47,-66 0,-36 21,-66 47,-66z"/>
   <path class="fil4" d="M6723 9468c26,0 47,29 47,66 0,36 -21,66 -47,66 -26,0 -47,-29 -47,-66 0,-36 21,-66 47,-66z"/>
   <path class="fil4" d="M6880 9468c26,0 47,29 47,66 0,36 -21,66 -47,66 -26,0 -47,-29 -47,-66 0,-36 21,-66 47,-66z"/>
   <path class="fil4" d="M7024 9468c26,0 47,29 47,66 0,36 -21,66 -47,66 -26,0 -47,-29 -47,-66 0,-36 21,-66 47,-66z"/>
   <path class="fil4" d="M7166 9468c26,0 47,29 47,66 0,36 -21,66 -47,66 -26,0 -47,-29 -47,-66 0,-36 21,-66 47,-66z"/>
   <path class="fil4" d="M7323 9468c26,0 47,29 47,66 0,36 -21,66 -47,66 -26,0 -47,-29 -47,-66 0,-36 21,-66 47,-66z"/>
   <path class="fil4" d="M5947 9628c26,0 47,29 47,66 0,36 -21,66 -47,66 -26,0 -47,-29 -47,-66 0,-36 21,-66 47,-66z"/>
   <path class="fil4" d="M6091 9628c26,0 47,29 47,66 0,36 -21,66 -47,66 -26,0 -47,-29 -47,-66 0,-36 21,-66 47,-66z"/>
   <path class="fil4" d="M6233 9628c26,0 47,29 47,66 0,36 -21,66 -47,66 -26,0 -47,-29 -47,-66 0,-36 21,-66 47,-66z"/>
   <path class="fil4" d="M6390 9628c26,0 47,29 47,66 0,36 -21,66 -47,66 -26,0 -47,-29 -47,-66 0,-36 21,-66 47,-66z"/>
   <path class="fil4" d="M6533 9628c26,0 47,29 47,66 0,36 -21,66 -47,66 -26,0 -47,-29 -47,-66 0,-36 21,-66 47,-66z"/>
   <path class="fil4" d="M6666 9628c26,0 47,29 47,66 0,36 -21,66 -47,66 -26,0 -47,-29 -47,-66 0,-36 21,-66 47,-66z"/>
   <path class="fil4" d="M6823 9628c26,0 47,29 47,66 0,36 -21,66 -47,66 -26,0 -47,-29 -47,-66 0,-36 21,-66 47,-66z"/>
   <path class="fil4" d="M6967 9628c26,0 47,29 47,66 0,36 -21,66 -47,66 -26,0 -47,-29 -47,-66 0,-36 21,-66 47,-66z"/>
   <path class="fil4" d="M7109 9628c26,0 47,29 47,66 0,36 -21,66 -47,66 -26,0 -47,-29 -47,-66 0,-36 21,-66 47,-66z"/>
   <path class="fil4" d="M7266 9628c26,0 47,29 47,66 0,36 -21,66 -47,66 -26,0 -47,-29 -47,-66 0,-36 21,-66 47,-66z"/>
   <path class="fil4" d="M7410 9628c26,0 47,29 47,66 0,36 -21,66 -47,66 -26,0 -47,-29 -47,-66 0,-36 21,-66 47,-66z"/>
   <path class="fil4" d="M7441 9459c26,0 47,29 47,66 0,36 -21,66 -47,66 -26,0 -47,-29 -47,-66 0,-36 21,-66 47,-66z"/>
   <path class="fil4" d="M7559 9487c29,9 58,19 86,29 0,3 0,6 0,9 0,36 -21,66 -47,66 -26,0 -47,-29 -47,-66 0,-14 3,-27 9,-38l-1 0z"/>
   <path class="fil4" d="M7695 9534c29,10 57,21 84,32 -9,15 -22,25 -37,25 -24,0 -44,-25 -47,-57z"/>
   <path class="fil4" d="M7541 9619c26,0 47,29 47,66 0,36 -21,66 -47,66 -26,0 -47,-29 -47,-66 0,-36 21,-66 47,-66z"/>
   <path class="fil4" d="M7685 9619c26,0 47,29 47,66 0,36 -21,66 -47,66 -26,0 -47,-29 -47,-66 0,-36 21,-66 47,-66z"/>
   <path class="fil4" d="M7827 9619c26,0 47,29 47,66 0,36 -21,66 -47,66 -26,0 -47,-29 -47,-66 0,-36 21,-66 47,-66z"/>
   <path class="fil4" d="M7950 9638c27,13 54,26 81,39 0,3 0,5 0,8 0,36 -21,66 -47,66 -26,0 -47,-29 -47,-66 0,-18 5,-35 14,-47l-1 0z"/>
   <path class="fil4" d="M8082 9703c24,13 47,25 70,38 -7,6 -15,9 -24,9 -22,0 -40,-20 -46,-47z"/>
   <path class="fil4" d="M6328 9771c26,0 47,29 47,66 0,36 -21,66 -47,66 -26,0 -47,-29 -47,-66 0,-36 21,-66 47,-66z"/>
   <path class="fil4" d="M6484 9771c26,0 47,29 47,66 0,36 -21,66 -47,66 -26,0 -47,-29 -47,-66 0,-36 21,-66 47,-66z"/>
   <path class="fil4" d="M6628 9771c26,0 47,29 47,66 0,36 -21,66 -47,66 -26,0 -47,-29 -47,-66 0,-36 21,-66 47,-66z"/>
   <path class="fil4" d="M6771 9771c26,0 47,29 47,66 0,36 -21,66 -47,66 -26,0 -47,-29 -47,-66 0,-36 21,-66 47,-66z"/>
   <path class="fil4" d="M6927 9771c26,0 47,29 47,66 0,36 -21,66 -47,66 -26,0 -47,-29 -47,-66 0,-36 21,-66 47,-66z"/>
   <path class="fil4" d="M7071 9771c26,0 47,29 47,66 0,36 -21,66 -47,66 -26,0 -47,-29 -47,-66 0,-36 21,-66 47,-66z"/>
   <path class="fil4" d="M7204 9771c26,0 47,29 47,66 0,36 -21,66 -47,66 -26,0 -47,-29 -47,-66 0,-36 21,-66 47,-66z"/>
   <path class="fil4" d="M7361 9771c26,0 47,29 47,66 0,36 -21,66 -47,66 -26,0 -47,-29 -47,-66 0,-36 21,-66 47,-66z"/>
   <path class="fil4" d="M7505 9771c26,0 47,29 47,66 0,36 -21,66 -47,66 -26,0 -47,-29 -47,-66 0,-36 21,-66 47,-66z"/>
   <path class="fil4" d="M7647 9771c26,0 47,29 47,66 0,36 -21,66 -47,66 -26,0 -47,-29 -47,-66 0,-36 21,-66 47,-66z"/>
   <path class="fil4" d="M7803 9771c26,0 47,29 47,66 0,36 -21,66 -47,66 -26,0 -47,-29 -47,-66 0,-36 21,-66 47,-66z"/>
   <path class="fil4" d="M7947 9771c26,0 47,29 47,66 0,36 -21,66 -47,66 -26,0 -47,-29 -47,-66 0,-36 21,-66 47,-66z"/>
   <path class="fil4" d="M6271 9931c26,0 47,29 47,66 0,36 -21,66 -47,66 -26,0 -47,-29 -47,-66 0,-36 21,-66 47,-66z"/>
   <path class="fil4" d="M6427 9931c26,0 47,29 47,66 0,36 -21,66 -47,66 -26,0 -47,-29 -47,-66 0,-36 21,-66 47,-66z"/>
   <path class="fil4" d="M6571 9931c26,0 47,29 47,66 0,36 -21,66 -47,66 -26,0 -47,-29 -47,-66 0,-36 21,-66 47,-66z"/>
   <path class="fil4" d="M6714 9931c26,0 47,29 47,66 0,36 -21,66 -47,66 -26,0 -47,-29 -47,-66 0,-36 21,-66 47,-66z"/>
   <path class="fil4" d="M6870 9931c26,0 47,29 47,66 0,36 -21,66 -47,66 -26,0 -47,-29 -47,-66 0,-36 21,-66 47,-66z"/>
   <path class="fil4" d="M7014 9931c26,0 47,29 47,66 0,36 -21,66 -47,66 -26,0 -47,-29 -47,-66 0,-36 21,-66 47,-66z"/>
   <path class="fil4" d="M7147 9931c26,0 47,29 47,66 0,36 -21,66 -47,66 -26,0 -47,-29 -47,-66 0,-36 21,-66 47,-66z"/>
   <path class="fil4" d="M7304 9931c26,0 47,29 47,66 0,36 -21,66 -47,66 -26,0 -47,-29 -47,-66 0,-36 21,-66 47,-66z"/>
   <path class="fil4" d="M7448 9931c26,0 47,29 47,66 0,36 -21,66 -47,66 -26,0 -47,-29 -47,-66 0,-36 21,-66 47,-66z"/>
   <path class="fil4" d="M7590 9931c26,0 47,29 47,66 0,36 -21,66 -47,66 -26,0 -47,-29 -47,-66 0,-36 21,-66 47,-66z"/>
   <path class="fil4" d="M7746 9931c26,0 47,29 47,66 0,36 -21,66 -47,66 -26,0 -47,-29 -47,-66 0,-36 21,-66 47,-66z"/>
   <path class="fil4" d="M7890 9931c26,0 47,29 47,66 0,36 -21,66 -47,66 -26,0 -47,-29 -47,-66 0,-36 21,-66 47,-66z"/>
   <path class="fil4" d="M6369 10086c26,0 47,29 47,66 0,36 -21,66 -47,66 -26,0 -47,-29 -47,-66 0,-36 21,-66 47,-66z"/>
   <path class="fil4" d="M6526 10086c26,0 47,29 47,66 0,36 -21,66 -47,66 -26,0 -47,-29 -47,-66 0,-36 21,-66 47,-66z"/>
   <path class="fil4" d="M6669 10086c26,0 47,29 47,66 0,36 -21,66 -47,66 -26,0 -47,-29 -47,-66 0,-36 21,-66 47,-66z"/>
   <path class="fil4" d="M6812 10086c26,0 47,29 47,66 0,36 -21,66 -47,66 -26,0 -47,-29 -47,-66 0,-36 21,-66 47,-66z"/>
   <path class="fil4" d="M6968 10086c26,0 47,29 47,66 0,36 -21,66 -47,66 -26,0 -47,-29 -47,-66 0,-36 21,-66 47,-66z"/>
   <path class="fil4" d="M7112 10086c26,0 47,29 47,66 0,36 -21,66 -47,66 -26,0 -47,-29 -47,-66 0,-36 21,-66 47,-66z"/>
   <path class="fil4" d="M7245 10086c26,0 47,29 47,66 0,36 -21,66 -47,66 -26,0 -47,-29 -47,-66 0,-36 21,-66 47,-66z"/>
   <path class="fil4" d="M7402 10086c26,0 47,29 47,66 0,36 -21,66 -47,66 -26,0 -47,-29 -47,-66 0,-36 21,-66 47,-66z"/>
   <path class="fil4" d="M7546 10086c26,0 47,29 47,66 0,36 -21,66 -47,66 -26,0 -47,-29 -47,-66 0,-36 21,-66 47,-66z"/>
   <path class="fil4" d="M7688 10086c26,0 47,29 47,66 0,36 -21,66 -47,66 -26,0 -47,-29 -47,-66 0,-36 21,-66 47,-66z"/>
   <path class="fil4" d="M7845 10086c26,0 47,29 47,66 0,36 -21,66 -47,66 -26,0 -47,-29 -47,-66 0,-36 21,-66 47,-66z"/>
   <path class="fil4" d="M6469 10246c26,0 47,29 47,66 0,36 -21,66 -47,66 -26,0 -47,-29 -47,-66 0,-36 21,-66 47,-66z"/>
   <path class="fil4" d="M6612 10246c26,0 47,29 47,66 0,36 -21,66 -47,66 -26,0 -47,-29 -47,-66 0,-36 21,-66 47,-66z"/>
   <path class="fil4" d="M6755 10246c26,0 47,29 47,66 0,36 -21,66 -47,66 -26,0 -47,-29 -47,-66 0,-36 21,-66 47,-66z"/>
   <path class="fil4" d="M6911 10246c26,0 47,29 47,66 0,36 -21,66 -47,66 -26,0 -47,-29 -47,-66 0,-36 21,-66 47,-66z"/>
   <path class="fil4" d="M7055 10246c26,0 47,29 47,66 0,36 -21,66 -47,66 -26,0 -47,-29 -47,-66 0,-36 21,-66 47,-66z"/>
   <path class="fil4" d="M7188 10246c26,0 47,29 47,66 0,36 -21,66 -47,66 -26,0 -47,-29 -47,-66 0,-36 21,-66 47,-66z"/>
   <path class="fil4" d="M7345 10246c26,0 47,29 47,66 0,36 -21,66 -47,66 -26,0 -47,-29 -47,-66 0,-36 21,-66 47,-66z"/>
   <path class="fil4" d="M7489 10246c26,0 47,29 47,66 0,36 -21,66 -47,66 -26,0 -47,-29 -47,-66 0,-36 21,-66 47,-66z"/>
   <path class="fil4" d="M7631 10246c26,0 47,29 47,66 0,36 -21,66 -47,66 -26,0 -47,-29 -47,-66 0,-36 21,-66 47,-66z"/>
   <path class="fil4" d="M7788 10246c26,0 47,29 47,66 0,36 -21,66 -47,66 -26,0 -47,-29 -47,-66 0,-36 21,-66 47,-66z"/>
   <path class="fil4" d="M7932 10246c26,0 47,29 47,66 0,36 -21,66 -47,66 -26,0 -47,-29 -47,-66 0,-36 21,-66 47,-66z"/>
   <path class="fil4" d="M7963 10077c26,0 47,29 47,66 0,36 -21,66 -47,66 -26,0 -47,-29 -47,-66 0,-36 21,-66 47,-66z"/>
   <path class="fil4" d="M8120 10077c26,0 47,29 47,66 0,36 -21,66 -47,66 -26,0 -47,-29 -47,-66 0,-36 21,-66 47,-66z"/>
   <path class="fil4" d="M8264 10077c26,0 47,29 47,66 0,36 -21,66 -47,66 -26,0 -47,-29 -47,-66 0,-36 21,-66 47,-66z"/>
   <path class="fil4" d="M8406 10077c26,0 47,29 47,66 0,36 -21,66 -47,66 -26,0 -47,-29 -47,-66 0,-36 21,-66 47,-66z"/>
   <path class="fil4" d="M8567 10078c15,20 30,39 43,59 0,2 0,4 0,6 0,36 -21,66 -47,66 -26,0 -47,-29 -47,-66 0,-36 21,-66 47,-66 1,0 3,0 4,0l0 1z"/>
   <path class="fil4" d="M8063 10237c26,0 47,29 47,66 0,36 -21,66 -47,66 -26,0 -47,-29 -47,-66 0,-36 21,-66 47,-66z"/>
   <path class="fil4" d="M8207 10237c26,0 47,29 47,66 0,36 -21,66 -47,66 -26,0 -47,-29 -47,-66 0,-36 21,-66 47,-66z"/>
   <path class="fil4" d="M8349 10237c26,0 47,29 47,66 0,36 -21,66 -47,66 -26,0 -47,-29 -47,-66 0,-36 21,-66 47,-66z"/>
   <path class="fil4" d="M8506 10237c26,0 47,29 47,66 0,36 -21,66 -47,66 -26,0 -47,-29 -47,-66 0,-36 21,-66 47,-66z"/>
   <path class="fil4" d="M8666 10242c12,27 21,55 28,83 -6,26 -24,45 -45,45 -26,0 -47,-29 -47,-66 0,-36 21,-66 47,-66 6,0 11,1 17,4z"/>
   <path class="fil5" d="M9030 10124l-4299 161c313,1119 4250,1983 4299,-161z"/>
   <path class="fil6" d="M7696 9014l-2306 55c-294,-109 -746,334 -818,703 -58,298 89,668 656,977 966,526 1839,713 2912,327 1160,-417 1204,-1527 9,-1904 -151,-48 -305,-100 -452,-159l-1 1z"/>
   <path class="fil5" d="M6436 9796c657,53 1176,269 1159,482 -17,214 -564,344 -1221,292 -657,-53 -1176,-269 -1159,-482 17,-214 564,-344 1221,-292z"/>
   <path class="fil7" d="M5315 8384l-126 46c0,618 278,1465 845,1806 979,588 2221,155 2496,-982 35,-145 122,-812 -32,-919 -22,-15 -60,209 -92,209 -730,0 -1208,179 -1961,-91 -79,-28 -1159,-375 -1131,-70l1 1z"/>
   <path class="fil5" d="M7817 9975c47,32 57,106 30,186 -104,69 -215,125 -331,168 -26,-58 -9,-152 49,-237 74,-109 187,-161 252,-117z"/>
   <path class="fil8" d="M5102 4537l-1373 1759c-63,-227 -196,-1850 111,-1851 97,0 46,172 259,215 306,61 740,-133 1003,-123z"/>
   <path class="fil9" d="M5286 4514c869,0 1574,705 1574,1574 0,869 -705,1574 -1574,1574 -869,0 -1574,-705 -1574,-1574 0,-869 705,-1574 1574,-1574z"/>
   <path class="fil10" d="M6169 4483c574,0 1040,466 1040,1040 0,574 -466,1040 -1040,1040 -574,0 -1040,-466 -1040,-1040 0,-574 466,-1040 1040,-1040z"/>
   <path class="fil11" d="M5825 10077c10,10 20,19 31,28 11,-13 23,-29 35,-49 18,-31 26,-63 26,-96 0,-43 -14,-85 -36,-122 -45,-74 -160,-162 -243,-93 -18,15 -21,30 -30,30l108 -6c56,0 102,46 129,91 18,30 30,65 30,100 0,25 -6,51 -20,74 -11,18 -21,31 -30,42l0 1z"/>
   <path class="fil12" d="M5040 9621l17 -212c-87,212 265,649 521,390 80,-81 167,-80 258,71 73,121 73,267 -204,244 -218,-18 -654,-252 -704,-504l112 11z"/>
   <path class="fil11" d="M5386 9323l43 -32c31,-213 -310,-289 -478,-377 306,-125 624,-52 750,271 40,104 -2,235 -79,288 -65,45 -159,22 -208,12 -46,-10 -26,-162 -27,-162l-1 0z"/>
   <path class="fil5" d="M5386 9323l43 -32c11,-76 -25,-135 -85,-183 28,-13 58,-20 90,-20 125,0 226,106 226,237 0,62 -23,118 -59,160 -63,29 -143,10 -188,0 -46,-10 -26,-162 -27,-162z"/>
   <path class="fil12" d="M4824 9012c-343,328 495,1191 264,632 -31,-75 -34,-128 -19,-167 54,-142 69,-248 194,-353 14,-12 99,-51 173,-45 72,6 133,58 129,54 -176,-163 -443,-407 -742,-121l1 0z"/>
   <path class="fil5" d="M6868 7909c928,0 1680,238 1680,533 0,294 -752,533 -1680,533 -928,0 -1680,-238 -1680,-533 0,-294 752,-533 1680,-533z"/>
   <path class="fil13" d="M7911 8185c-1,-35 8,-69 27,-101 46,-76 155,-136 350,-140 61,-1 102,-22 120,-51 8,-13 12,-28 10,-43 -2,-16 -9,-33 -22,-50 -41,-53 -138,-99 -303,-105 -74,-3 -130,-38 -156,-83 -12,-21 -18,-44 -16,-68 1,-23 10,-47 26,-69 41,-54 132,-97 289,-98 88,0 157,-37 188,-84 11,-17 17,-34 17,-52 0,-17 -6,-34 -18,-50 -35,-45 -122,-80 -278,-79 -52,0 -96,-31 -116,-54 -7,-8 -10,-13 -12,-19 -17,-7 74,35 127,30 171,-1 269,41 312,95 18,24 27,50 27,76 0,26 -8,51 -24,75 -38,57 -119,103 -223,103 -142,1 -222,37 -256,81 -11,15 -17,30 -18,46 -1,15 3,30 11,44 19,34 62,60 121,62 179,7 287,60 335,121 18,23 28,48 30,72 2,25 -3,48 -17,69 -25,40 -79,69 -155,71 -178,4 -275,56 -315,120 -15,25 -22,52 -21,79 1,27 9,55 22,80 36,66 150,95 203,118 -3,4 -90,7 -169,-38 -64,-36 -97,-84 -98,-159l2 1z"/>
   <path class="fil13" d="M7567 8403c-115,0 -212,-66 -258,-151 -19,-34 -29,-71 -30,-109 -1,-39 9,-77 30,-113 50,-81 164,-146 368,-150 53,-1 88,-18 103,-41 6,-9 8,-19 7,-30 -1,-12 -7,-25 -17,-38l0 0c-38,-49 -130,-91 -287,-97 -82,-3 -144,-42 -174,-94 -14,-24 -21,-52 -19,-79 2,-27 12,-55 31,-80 44,-58 141,-105 306,-106 81,0 143,-33 170,-75 9,-13 13,-27 14,-40 0,-12 -4,-25 -13,-37 -32,-41 -113,-72 -262,-71 -59,0 -153,-44 -174,-104 -58,-165 89,-126 167,-127 104,-1 231,-22 231,-122 9,12 22,30 22,85 0,48 -49,86 -113,85 -156,-2 -289,24 -139,89 93,41 237,-12 334,112 21,28 31,58 31,89 0,30 -10,60 -27,86 -41,63 -129,112 -240,113 -135,1 -209,33 -239,72 -9,11 -13,23 -14,34 -1,11 2,22 8,33 16,28 53,50 103,51 186,7 300,64 351,129l0 0c21,26 32,55 35,83 3,29 -4,58 -20,83 -29,46 -89,79 -172,81 -170,4 -261,51 -297,110 -13,21 -19,44 -18,67 1,24 8,48 20,70 33,60 101,107 184,107l0 85 -2 0z"/>
   <path class="fil14" d="M8491 8579c-191,227 -845,395 -1623,395 -778,0 -1432,-168 -1623,-395 191,-227 845,-395 1623,-395 778,0 1432,168 1623,395z"/>
   <path class="fil15" d="M7386 7289c163,-83 346,-92 510,20m176 462c-47,38 -116,60 -186,64 -77,4 -136,-5 -182,-23m71 -562c-44,-20 -85,-41 -122,-64m43 -942c180,-52 414,-38 679,84 40,18 75,38 106,57m-113 598c-56,8 -113,3 -165,-20m-88 -347c71,-26 160,-20 173,-3"/>
   <path class="fil15" d="M7771 8783c-176,-59 -293,-142 -360,-232m1363 -402c21,-2 42,-5 63,-10m-186 -523c0,17 2,32 5,46m220 97c10,-6 19,-13 27,-21"/>
   <path class="fil16" d="M7385 9052c333,0 604,194 604,433 0,239 -270,433 -604,433 -333,0 -604,-194 -604,-433 0,-239 270,-433 604,-433z"/>
   <path class="fil16" d="M8180 9012c155,0 281,90 281,201 0,111 -126,201 -281,201 -155,0 -281,-90 -281,-201 0,-111 126,-201 281,-201z"/>
   <path class="fil17" d="M7619 9107c147,0 267,107 267,239 0,132 -119,239 -267,239 -147,0 -267,-107 -267,-239 0,-132 119,-239 267,-239z"/>
   <path class="fil18" d="M7624 9178c94,0 171,69 171,153 0,85 -77,153 -171,153 -94,0 -171,-69 -171,-153 0,-85 77,-153 171,-153z"/>
   <path class="fil16" d="M7689 9225c50,0 91,36 91,81 0,45 -41,81 -91,81 -50,0 -91,-36 -91,-81 0,-45 41,-81 91,-81z"/>
   <path class="fil17" d="M8074 9047c-81,0 -146,59 -146,131 0,72 66,131 146,131 81,0 146,-59 146,-131 0,-72 -66,-131 -146,-131z"/>
   <path class="fil18" d="M8071 9085c-52,0 -94,38 -94,84 0,46 42,84 94,84 52,0 94,-38 94,-84 0,-46 -42,-84 -94,-84z"/>
   <path class="fil16" d="M8035 9111c-27,0 -50,20 -50,45 0,25 22,45 50,45 27,0 50,-20 50,-45 0,-25 -22,-45 -50,-45z"/>
   <path class="fil10" d="M6267 6992c-56,-85 -348,-280 -646,-490 -302,-213 -646,-375 -614,-847 25,-368 263,-707 331,-752 477,-165 1171,1127 1439,1590 47,81 -16,166 3,239 -127,209 -46,692 -276,649 -225,-42 -107,-191 -238,-389l1 0z"/>
   <path class="fil8" d="M6335 6794c-252,-240 -802,-383 -997,-639 -14,-18 -27,-37 -40,-55 427,-269 1055,-298 1421,92 64,69 22,165 57,232 -90,169 -56,402 -183,568 -9,12 19,68 21,107 1,26 0,181 -105,56 -54,-65 -65,-257 -174,-361z"/>
   <path class="fil10" d="M3561 5795c55,125 177,99 -69,81 -103,-7 -110,48 -75,120 78,162 312,150 147,138 -424,-29 280,507 614,-34 122,-197 246,-259 180,-259 -327,1 -296,10 -636,-90 -123,-36 -201,-47 -161,44z"/>
   <path class="fil19" d="M4343 6589c-48,-78 -385,-473 -191,-451 -24,-171 75,-331 275,-302 66,15 133,47 192,96 142,119 242,339 168,653 -19,79 -79,151 -151,194 -152,70 -250,-41 -292,-191l-1 1zm-109 -490l44 496 159 12 2 6c5,21 13,34 22,39 7,5 18,6 31,4 18,-2 38,-10 57,-21 36,-22 66,-55 74,-88 57,-240 -12,-401 -112,-485 -38,-32 -80,-52 -120,-61 -36,-8 -70,-7 -98,5 -32,13 -55,44 -59,93z"/>
   <path class="fil20" d="M4357 6634l-208 -521c0,-338 559,-246 578,242 15,369 -311,509 -370,279z"/>
   <path class="fil21" d="M4315 6517l-240 -263c-77,-247 351,-149 452,51 44,87 67,317 -186,321 -13,0 -29,-69 -26,-109z"/>
   <path class="fil22" d="M3595 6511c-422,128 -1572,290 -1804,787 -168,359 91,509 434,416 499,-136 1229,-630 1347,-698 296,-171 588,-327 731,-373 235,-74 50,-323 -123,-398 -181,-78 -65,108 -586,267l1 -1z"/>
   <path class="fil10" d="M6308 6628c-260,-219 -781,-225 -970,-473 -867,-1140 914,-2029 1644,-1251 611,651 -236,1205 -178,1935 42,531 -480,-198 -495,-211l-1 0z"/>
   <path class="fil10" d="M6145 4680c476,0 863,386 863,863 0,476 -386,863 -863,863 -476,0 -863,-386 -863,-863 0,-476 386,-863 863,-863z"/>
   <path class="fil23" d="M6785 6610l-1110 -257c7,12 837,332 926,688 56,226 17,472 -322,633 -392,186 -671,377 -849,481 -380,221 -252,450 -18,521 241,73 619,11 885,126 417,180 1398,46 1250,-118 -115,-127 -647,-224 -791,-477 -248,-435 172,-755 156,-1114 -10,-214 -14,-268 -126,-482l-1 -1z"/>
   <path class="fil14" d="M6722 8139c-17,-41 -29,-80 -36,-119 -12,44 -86,162 -126,185 -95,57 94,194 -82,165 -104,-18 -122,-70 -130,-72 0,0 -40,19 8,67 160,159 383,7 267,-56 -77,-42 47,-100 99,-170z"/>
   <path class="fil24" d="M6528 6533c-78,-120 -356,9 -507,-48 -253,-97 -549,-153 -684,-330 -3,-4 -6,-8 -9,-12 436,-475 1252,-547 1701,-41 -108,241 5,-106 27,171 44,560 -506,295 -529,261l1 -1z"/>
   <path class="fil24" d="M5783 6404c113,61 865,253 1093,298 152,30 589,-8 479,-244 -40,-85 -246,-290 -324,-357 0,0 -106,170 -362,283 -312,137 -603,93 -887,19l1 1z"/>
   <path class="fil10" d="M6842 6698c224,34 404,-4 486,-77 43,-39 60,-92 27,-163 -31,-66 -225,-262 -319,-352 -92,85 -191,310 -226,384 -54,116 -81,172 31,208l1 0z"/>
   <path class="fil20" d="M2103 7422l425 -354c116,-156 -408,-100 -547,221 -31,71 38,201 122,134l0 -1z"/>
   <path class="fil16" d="M7817 9975c10,7 18,16 25,26l0 46 -66 0 0 -87c15,2 29,7 41,15z"/>
   <path class="fil16" d="M7687 9979c25,-12 49,-19 71,-20l0 104 -71 0 0 -84z"/>
   <path class="fil16" d="M7602 10044c23,-24 47,-44 71,-58l0 97 -71 0 0 -39z"/>
   <path class="fil24" d="M5143 5482c3,-4 6,-8 9,-13 474,-632 607,-173 694,-264 74,-79 57,-181 -12,-241 -90,-79 -329,-69 -500,148 -83,106 -177,258 -192,370l1 0z"/>
   <path class="fil16" d="M5999 5607c85,322 -34,633 -265,694 -231,61 -487,-151 -572,-474 -85,-322 34,-633 265,-694 231,-61 487,151 572,474z"/>
   <path class="fil25" d="M6005 5847c38,142 -36,285 -163,319 -128,34 -261,-55 -299,-197 -38,-142 36,-285 163,-319 128,-34 261,55 299,197z"/>
   <path class="fil26" d="M5938 5870c24,91 -23,183 -105,204 -82,22 -168,-35 -192,-126 -24,-91 23,-183 105,-204 82,-22 168,35 192,126z"/>
   <path class="fil16" d="M5909 5945c13,48 -12,97 -55,108 -43,11 -89,-19 -102,-67 -13,-48 12,-97 55,-108 43,-11 89,19 102,67z"/>
   <path class="fil16" d="M6635 5522c37,219 194,376 352,349 157,-26 255,-226 218,-445 -37,-219 -194,-376 -352,-349 -157,26 -255,226 -218,445z"/>
   <path class="fil25" d="M6729 5722c16,97 100,164 187,149 87,-15 144,-105 128,-202 -16,-97 -100,-164 -187,-149 -87,15 -144,105 -128,202z"/>
   <path class="fil26" d="M6776 5718c10,62 64,105 120,96 56,-9 92,-67 82,-130 -10,-62 -64,-105 -120,-96 -56,9 -92,67 -82,130z"/>
   <path class="fil16" d="M6814 5756c6,33 34,56 63,51 29,-5 49,-36 43,-69 -6,-33 -34,-56 -63,-51 -29,5 -49,36 -43,69z"/>
   <path class="fil10" d="M6716 4896c-145,233 63,106 214,117 112,9 -25,-85 -120,-126 -52,-22 -67,-35 -94,8l0 1z"/>
   <path class="fil9" d="M6780 5085c89,-31 178,-4 225,3 85,12 20,-112 -136,-128 -182,-18 -223,172 -89,125z"/>
   <path class="fil14" d="M7059 8347l-311 -159c-132,35 13,200 -68,312 -155,215 -961,-114 -501,105 72,34 512,133 566,-8 50,-128 -112,-338 280,-177 28,11 47,-35 34,-73z"/>
   <path class="fil15" d="M7567 8361c-272,0 -421,-426 111,-439 231,-6 222,-276 -194,-291 -201,-7 -248,-273 143,-275 264,-1 369,-310 -92,-307 -88,1 -147,-106 -84,-48m10 17c-84,0 -86,-142 -12,-140 56,1 290,9 290,-54 0,-60 -16,-56 -19,-70"/>
   <path class="fil15" d="M8187 8361c-272,0 -421,-426 111,-439 231,-6 222,-276 -194,-291 -201,-7 -248,-273 143,-275 264,-1 369,-310 -92,-307 -88,1 -147,-106 -84,-48"/>
   <path class="fil27" d="M5096 9543c-26,-156 104,-415 276,-442 138,-22 253,87 276,218 31,181 -256,255 -256,66 0,-77 44,-92 40,-99 -45,15 -65,55 -64,99 0,26 8,54 22,78 14,25 36,46 62,59 50,24 120,20 202,-45 8,-7 15,-14 22,-21 29,-36 37,-83 29,-132 -8,-47 -32,-96 -65,-138 -16,-20 -35,-39 -55,-56 -12,-10 -25,-19 -38,-27 -53,-32 -115,-49 -179,-39 -192,30 -336,306 -307,484 27,162 104,254 246,306 71,26 67,31 16,-9 -102,-81 -203,-167 -226,-303l-1 1z"/>
  </g>
 </g>
</svg>
