<?xml version="1.0" encoding="UTF-8"?>
<!DOCTYPE svg PUBLIC "-//W3C//DTD SVG 1.1//EN" "http://www.w3.org/Graphics/SVG/1.1/DTD/svg11.dtd">
<!-- Creator: CorelDRAW X6 -->
<svg xmlns="http://www.w3.org/2000/svg" xml:space="preserve" width="210mm" height="148mm" version="1.1" style="shape-rendering:geometricPrecision; text-rendering:geometricPrecision; image-rendering:optimizeQuality; fill-rule:evenodd; clip-rule:evenodd"
viewBox="0 0 21000 14800"
 xmlns:xlink="http://www.w3.org/1999/xlink">
 <defs>
  <style type="text/css">
   <![CDATA[
    .str8 {stroke:#8B827D;stroke-width:7.62}
    .str7 {stroke:#DDD2BF;stroke-width:7.62}
    .str6 {stroke:#67BBBB;stroke-width:20}
    .str5 {stroke:#7CB9B1;stroke-width:20}
    .str9 {stroke:#849C22;stroke-width:20}
    .str1 {stroke:#7CB9B1;stroke-width:75}
    .str2 {stroke:#CCD5E4;stroke-width:75}
    .str4 {stroke:#7CB9B1;stroke-width:150}
    .str3 {stroke:#CCD5E4;stroke-width:150}
    .str0 {stroke:#CCD5E4;stroke-width:200}
    .fil8 {fill:none}
    .fil3 {fill:#4B3852}
    .fil27 {fill:#5D888D}
    .fil7 {fill:#5E4B2A}
    .fil23 {fill:#5E7F48}
    .fil0 {fill:#625A65}
    .fil15 {fill:#663F20}
    .fil29 {fill:#67BBBB}
    .fil5 {fill:#6B7B7F}
    .fil2 {fill:#6C562F}
    .fil32 {fill:#725C34}
    .fil20 {fill:#729393}
    .fil11 {fill:#778C21}
    .fil26 {fill:#7CB9B1}
    .fil1 {fill:#7D6740}
    .fil17 {fill:#7D9422}
    .fil9 {fill:#849C22}
    .fil18 {fill:#85B237}
    .fil12 {fill:#89C444}
    .fil4 {fill:#8B827D}
    .fil16 {fill:#8D827D}
    .fil6 {fill:#8E837E}
    .fil13 {fill:#A5A2B3}
    .fil22 {fill:#A6320D}
    .fil30 {fill:#C3B59B}
    .fil21 {fill:#CC4A16}
    .fil28 {fill:#CCD5E4}
    .fil33 {fill:#CF8308}
    .fil25 {fill:#DC8A02}
    .fil31 {fill:#DDD2BF}
    .fil14 {fill:#FCFCF4}
    .fil24 {fill:#663F20;fill-rule:nonzero}
    .fil10 {fill:#849C22;fill-rule:nonzero}
    .fil19 {fill:#89C444;fill-rule:nonzero}
   ]]>
  </style>
 </defs>
 <g id="Слой_x0020_1">
  <metadata id="CorelCorpID_0Corel-Layer"/>
  <g id="_222775888">
   <rect class="fil0" x="-949" y="-15" width="22500" height="13500"/>
   <rect class="fil0" x="1129" y="232" width="18360" height="13217"/>
   <rect class="fil1" x="-943" y="9695" width="22489" height="195"/>
   <rect class="fil2" x="-943" y="9697" width="22494.8" height="68.11"/>
   <ellipse class="fil1" cx="15664" cy="10328" rx="1060" ry="983"/>
   <ellipse class="fil1" cx="14439" cy="10154" rx="581" ry="568"/>
   <path class="fil3" d="M10204 3542c138,1 273,14 404,38 -142,26 -279,65 -410,116 33,277 270,583 439,333 28,-41 56,-79 83,-115l0 557 668 0c-102,52 -117,130 115,244 355,174 355,129 798,572 1,1 -99,88 -328,-45 -274,-159 -449,-343 -809,-375 -358,-32 -662,164 -681,-185 -7,-132 -310,-270 -668,-294 -346,-23 -622,128 -759,377l1896 242 826 1763c-1271,1008 -1894,515 -2756,1774 -305,445 -883,1318 -1049,1243l73 -4300 13 -42c9,-517 290,-1250 661,-1592 359,-331 798,-280 1342,-308 25,-11 53,-28 85,-56 44,-38 162,-213 71,8 -6,14 -11,29 -14,45zm-851 747c72,-7 146,-12 218,-12 755,0 667,19 522,-239 -218,-387 -453,-83 -739,251l-1 0z"/>
   <path class="fil1" d="M7208 11088c519,0 939,-411 939,-918 0,-70 119,-135 103,-201 -11,-47 -152,-98 -171,-142 -139,-337 -477,-575 -871,-575 -519,0 -939,411 -939,918 0,507 420,918 939,918z"/>
   <rect class="fil4" x="4881" y="1807" width="16668" height="178"/>
   <path class="fil3" d="M3159 5105c-8,-962 55,-2499 1337,-2548 686,-26 1298,585 1481,1422 20,93 45,189 45,287 -1,254 81,253 89,415 12,260 -79,259 -132,473 -43,175 1,224 2,424 0,73 13,152 -139,349 -61,79 17,211 -14,396 -14,80 -118,135 -132,247 -15,130 91,356 259,472 137,94 295,336 36,479 -91,50 -221,76 -307,134 -152,102 -140,381 -153,556 -20,277 -121,592 -296,849 -241,353 -516,520 -780,525 -363,7 -705,-292 -909,-829 -397,-1047 -377,-2501 -386,-3649l-1 -2z"/>
   <path class="fil5" d="M3524 1250c258,0 716,-121 1006,123 247,208 346,564 525,988 368,872 672,2138 487,3737 -382,3292 -755,4367 -1685,4367 -575,0 -772,225 -1536,-670 -602,-705 422,-1854 166,-3614 -190,-1310 -1246,-1523 -1185,-2333 98,-1296 1587,-2599 2222,-2599l0 1z"/>
   <path class="fil1" d="M2019 11063c462,0 837,-366 837,-818 0,-452 -375,-818 -837,-818 -394,0 -745,254 -834,612 -16,62 -3,140 -3,207 0,452 375,818 837,818l0 -1z"/>
   <ellipse class="fil1" cx="18972" cy="10062" rx="518" ry="506"/>
   <path class="fil6" d="M2019 9428c-60,0 -118,6 -174,18 379,78 663,407 663,800 0,67 13,144 -3,207 -76,303 -339,532 -658,594 55,11 113,17 172,17 394,0 745,-254 834,-612 16,-62 3,-140 3,-207 0,-452 -375,-818 -837,-818l0 1z"/>
   <ellipse class="fil1" cx="2758" cy="10195" rx="408" ry="399"/>
   <rect class="fil2" x="-961" y="10054" width="22513" height="3438"/>
   <path class="fil1" d="M5370 13370c180,-459 306,-1970 306,-2677 0,-707 -5,-431 -13,-639l-1011 0c-8,208 -12,-68 -12,639 0,707 125,2218 306,2677l425 0 -1 0z"/>
   <path class="fil7" d="M5370 13370c74,-189 139,-555 189,-970l-804 0c51,415 115,781 189,970l425 0 1 0z"/>
   <path class="fil8 str0" d="M2555 1425c725,14 2047,-853 2433,739 78,322 554,1261 598,1328"/>
   <path class="fil8 str1" d="M2622 2123c1137,0 1143,24 1591,1245 93,253 69,760 69,1047"/>
   <path class="fil8 str2" d="M2481 1791c1867,-128 2321,783 2200,2217"/>
   <path class="fil8 str2" d="M2165 1521c2374,-236 2911,708 2790,2142"/>
   <path class="fil8 str3" d="M2441 3609c619,66 589,2321 589,3495"/>
   <path class="fil0" d="M5448 11462c58,-318 96,-828 96,-1099 0,-346 -2,-211 -6,-313l-495 0c-4,102 -6,-33 -6,313 0,278 40,809 101,1124 56,289 255,278 311,-26l-1 1z"/>
   <path class="fil9" d="M3029 5105c-8,-962 55,-2499 1337,-2548 686,-26 1298,585 1481,1422 20,93 45,189 45,287 -1,254 81,253 89,415 12,260 -101,255 -170,465 -89,270 26,266 39,432 6,73 13,152 -139,349 -61,79 17,211 -14,396 -14,80 -118,135 -132,247 -26,221 85,223 43,419 -40,188 -149,173 -185,365 -18,94 65,197 65,304 0,183 -74,377 -87,552 -20,277 -121,592 -296,849 -241,353 -516,520 -780,525 -363,7 -705,-292 -909,-829 -397,-1047 -377,-2501 -386,-3649l-1 -1z"/>
   <path class="fil10" d="M3617 10446c81,35 184,57 235,58 14,0 29,0 44,0 20,0 20,0 30,0l0 126 -29 0c-16,0 -32,0 -47,0 -63,-1 -188,-27 -283,-68 -6,-3 -12,-5 -18,-8l3 3c7,46 78,182 72,183l-79 106c-26,2 -146,-300 -151,-348 -56,22 -53,13 -110,52 -68,47 -52,52 -105,119 -1,1 -17,5 -37,1l-92 0c0,-2 0,-2 0,-2 35,-220 243,-251 338,-315 2,-30 6,-53 14,-97l2 -12 0 0c57,-322 258,-776 592,-869 51,-14 103,-18 167,-18l0 126c-54,0 -96,3 -134,13 -273,76 -455,506 -502,771l0 0 -2 12c-22,122 -26,117 92,167z"/>
   <path class="fil10" d="M5263 10325c16,9 45,22 77,43 81,52 171,111 191,183l-121 32c-7,-25 -75,-70 -137,-110 -7,-4 -13,-9 -20,-13l-1 10c-5,102 -10,226 -10,258l-126 0c0,-27 4,-138 9,-239 -32,22 -85,36 -191,43 -19,1 -55,5 -88,11 -22,4 -42,8 -52,11l-45 -117c19,-7 47,-13 76,-18 37,-6 78,-11 101,-12 124,-8 203,-56 206,-187 0,-170 -71,-319 -180,-442 -133,-149 -321,-259 -506,-319l38 -119c205,66 413,188 562,354 124,139 206,309 212,504l5 126 0 1z"/>
   <path class="fil11" d="M3318 3246c1,86 30,206 32,296 26,982 116,2149 419,2951 204,537 529,836 892,829 1959,-38 380,41 607,656 63,172 167,335 154,511 -20,277 -121,592 -296,849 -241,353 -516,520 -780,525 -363,7 -718,-287 -909,-829 -358,-1014 -661,-4775 -119,-5787l0 -1z"/>
   <path class="fil12" d="M5108 9055c-241,353 -516,520 -780,525 -363,7 -705,-292 -909,-829 -370,-977 -1721,-1846 869,-1877 238,-3 1107,96 1532,265 495,197 102,331 -153,424 -203,74 -198,412 -267,777 -47,249 -151,509 -292,715z"/>
   <path class="fil10" d="M2741 7463c-208,-724 1465,-647 1543,-648 142,-2 523,11 881,73 87,15 245,27 402,71 241,66 479,257 492,365 -79,-31 -211,-126 -387,-195 -163,-64 -350,-94 -524,-121 -335,-51 -699,-70 -863,-68 -1154,14 -1548,259 -1544,523z"/>
   <ellipse class="fil13" cx="5446" cy="5325" rx="485" ry="527"/>
   <ellipse class="fil14" cx="5360" cy="5338" rx="400" ry="493"/>
   <ellipse class="fil15" cx="5063" cy="5283" rx="104" ry="119"/>
   <ellipse class="fil13" cx="4076" cy="4628" rx="485" ry="527"/>
   <ellipse class="fil14" cx="3990" cy="4640" rx="400" ry="493"/>
   <ellipse class="fil15" cx="3693" cy="4585" rx="104" ry="119"/>
   <ellipse class="fil9" transform="matrix(1.28249 0.969846 -0.969846 1.28249 4362.49 8201.44)" rx="68" ry="66"/>
   <ellipse class="fil9" transform="matrix(1.28249 0.969846 -0.969846 1.28249 4594.79 8343.84)" rx="68" ry="66"/>
   <ellipse class="fil9" transform="matrix(0.844402 0.638554 -0.638554 0.844402 4655.49 8069.74)" rx="68" ry="66"/>
   <ellipse class="fil9" transform="matrix(0.844402 0.638554 -0.638554 0.844402 4351.69 7960.04)" rx="68" ry="66"/>
   <ellipse class="fil9" transform="matrix(0.844402 0.638554 -0.638554 0.844402 4400.79 8477.14)" rx="68" ry="66"/>
   <ellipse class="fil9" transform="matrix(0.844402 0.638554 -0.638554 0.844402 4144.59 8436.74)" rx="68" ry="66"/>
   <ellipse class="fil9" cx="5040" cy="7917" rx="76" ry="74"/>
   <ellipse class="fil9" cx="5229" cy="7899" rx="76" ry="74"/>
   <ellipse class="fil9" cx="5148" cy="7721" rx="50" ry="49"/>
   <ellipse class="fil9" cx="4932" cy="7788" rx="50" ry="49"/>
   <ellipse class="fil9" cx="5177" cy="8055" rx="50" ry="49"/>
   <ellipse class="fil9" cx="5018" cy="8140" rx="50" ry="49"/>
   <ellipse class="fil9" transform="matrix(0.655248 0.495511 -0.495511 0.655248 4540.69 7904.84)" rx="68" ry="66"/>
   <ellipse class="fil9" transform="matrix(0.655248 0.495511 -0.495511 0.655248 4116.09 8218.64)" rx="68" ry="66"/>
   <ellipse class="fil9" transform="matrix(0.443895 0.335682 -0.335682 0.443895 4231.49 8644.24)" rx="68" ry="66"/>
   <polygon class="fil14" points="3338,6756 3283,6906 3228,7056 3390,7025 3553,6994 3446,6875 "/>
   <polygon class="fil14" points="3950,6684 3766,6966 4115,6942 "/>
   <path class="fil1" d="M8717 11258c320,0 579,-446 579,-996 0,-73 -5,-145 -13,-214l-1130 0c-9,69 -13,140 -13,214 0,550 259,996 579,996l-2 0z"/>
   <path class="fil7" d="M8717 11258c177,0 335,-137 441,-353l-883 0c106,216 265,353 442,353z"/>
   <path class="fil16" d="M14518 6077c1,-15 1,-29 1,-44 0,-684 -568,-1239 -1268,-1239 -700,0 -1268,555 -1268,1239 0,15 0,29 1,44l2534 0z"/>
   <path class="fil3" d="M12556 9544c-239,-103 -521,-305 -758,-235 -312,92 -615,320 -1004,-67 -309,-308 -1070,98 -1700,521l-146 0c653,-454 1512,-953 1846,-621 388,387 692,159 1004,67 237,-70 490,128 730,231 -3,7 1,77 28,104z"/>
   <path class="fil9" d="M8520 4270l3790 71 223 872 -7 4226c-239,-103 -486,-289 -723,-219 -312,92 -615,320 -1004,-67 -555,-553 -2570,1198 -2658,1210l121 -5275 258 -818z"/>
   <path class="fil17" d="M8520 4270l2811 52c420,353 684,859 684,1421 0,1068 -952,1934 -2125,1934 -677,0 -1281,-288 -1670,-738l42 -1852 258 -818 0 1z"/>
   <path class="fil17" d="M8972 9760c-44,30 -87,61 -129,91 108,-1006 461,-3273 461,-3306l142 18c11,55 -357,2168 -474,3197z"/>
   <path class="fil17" d="M11207 9368c-42,-4 -84,-14 -128,-30 -154,-1059 -378,-2367 -369,-2410l142 -18c0,25 209,1378 355,2458z"/>
   <path class="fil18" d="M8520 4270l2649 338 826 1763c-1271,1008 -1894,515 -2756,1774 -305,445 -908,994 -1074,919l98 -3976 258 -818 -1 0z"/>
   <path class="fil1" d="M11473 11175c320,0 579,-427 579,-955 0,-56 -3,-111 -9,-165l-1140 0c-6,54 -9,109 -9,165 0,527 259,955 579,955z"/>
   <path class="fil19" d="M11349 10723c-16,9 -45,22 -77,43 -81,52 -171,111 -191,183l121 32c7,-25 75,-70 137,-110 7,-4 13,-9 20,-13l1 10c5,102 10,226 10,258l126 0c0,-28 -4,-138 -9,-239 32,22 85,36 191,43 19,1 55,5 88,11 22,4 42,8 52,11l45 -117c-19,-7 -47,-13 -76,-18 -37,-6 -78,-11 -101,-12 -124,-8 -203,-56 -206,-187 0,-513 -492,-3669 -492,-3708l-142 18c-14,66 524,3127 509,3669l-5 126 -1 0z"/>
   <path class="fil19" d="M11013 7095c-17,-112 -26,-179 -26,-185l-142 18c-2,9 6,69 20,167l148 0z"/>
   <path class="fil19" d="M9050 10353c16,9 45,22 77,43 81,52 171,111 191,183l-121 32c-7,-25 -75,-70 -137,-110 -7,-4 -13,-9 -20,-13l-1 10c-5,102 -10,226 -10,258l-126 0c0,-27 4,-138 9,-239 -32,22 -85,36 -191,43 -19,1 -55,5 -88,11 -22,4 -42,8 -52,11l-45 -117c19,-7 47,-13 76,-18 37,-6 78,-11 101,-12 124,-8 203,-56 206,-187 0,-513 492,-3669 492,-3708l142 18c14,66 -524,3127 -509,3669l5 126 1 0z"/>
   <path class="fil10" d="M9158 8280c125,-875 251,-1691 250,-1710l142 18c7,34 -92,602 -225,1462l-168 230 1 0z"/>
   <path class="fil20" d="M9000 3014c0,-5 0,-9 0,-14 0,-215 -178,-389 -398,-389 -220,0 -398,174 -398,389 0,5 0,9 0,14l796 0z"/>
   <ellipse class="fil21" cx="10396" cy="5080" rx="2125" ry="1934"/>
   <path class="fil22" d="M10420 3143c138,1 273,14 404,38 -142,26 -279,65 -410,116 33,277 270,583 439,333 28,-41 56,-79 83,-115l0 557 668 0c-102,52 -117,130 115,244 355,174 355,129 798,572 1,1 -99,88 -328,-45 -274,-159 -449,-343 -809,-375 -358,-32 -662,164 -681,-185 -7,-132 -310,-270 -668,-294 -359,-24 -643,140 -774,405 -102,206 -136,442 -136,683 0,332 69,659 253,917 437,612 852,640 1286,632 54,-1 98,4 123,15 155,67 -133,301 40,332 -137,25 -278,38 -423,38 -1174,0 -2125,-866 -2125,-1934 0,-1031 886,-1874 2003,-1931 25,-11 53,-28 85,-56 44,-38 162,-213 71,8 -6,14 -11,29 -14,45zm-851 747c72,-7 146,-12 218,-12 755,0 667,19 522,-239 -218,-387 -453,-83 -739,251l-1 0z"/>
   <path class="fil22" d="M10400 3143c7,0 13,0 20,0 -11,47 -12,100 -6,154 -73,28 -143,60 -211,95 -3,-9 -5,-17 -8,-26 -85,-301 -56,-159 83,-220 40,-2 81,-3 122,-3zm-831 747c-14,17 -29,34 -42,51 -196,-6 -370,7 -472,41 -2,1 243,-65 515,-92l-1 0z"/>
   <path class="fil12" d="M9138 3953c-3,1 396,-118 739,-118 956,0 550,-17 397,-559 -100,-355 286,-514 497,-695 44,-38 -166,206 -257,427 -115,279 206,848 419,532 305,-451 580,-511 1133,-602 3,0 -242,103 -426,285 -99,98 -566,820 -120,585 248,-131 821,-299 1085,-273 6,1 -986,256 -935,320 16,20 131,-21 410,-10l306 13c18,1 -199,32 -295,39 -243,18 -751,103 -292,329 355,174 388,295 779,751 1,1 -80,-90 -309,-223 -274,-159 -449,-343 -809,-375 -358,-32 -662,164 -681,-185 -15,-270 -1509,-307 -1641,-239l0 -2z"/>
   <polygon class="fil23" points="11143,3448 11271,3757 11324,4135 11143,4065 10888,4065 11015,3757 "/>
   <path class="fil13" d="M11807 4733c129,0 124,194 146,448 3,30 39,59 39,91 0,299 -40,543 -185,543 -144,0 -262,-242 -262,-541 0,-299 117,-541 262,-541z"/>
   <ellipse class="fil14" cx="11825" cy="5280" rx="193" ry="536"/>
   <path class="fil13" d="M10914 4733c129,0 124,194 146,448 3,30 39,59 39,91 0,299 -40,543 -185,543 -144,0 -262,-242 -262,-541 0,-299 117,-541 262,-541z"/>
   <ellipse class="fil14" cx="10962" cy="5280" rx="193" ry="536"/>
   <ellipse class="fil15" cx="10961" cy="5700" rx="104" ry="119"/>
   <ellipse class="fil15" cx="11825" cy="5700" rx="104" ry="119"/>
   <path class="fil8" d="M10544 6468c244,-260 1309,-286 835,-131 -138,45 -153,144 -254,197"/>
   <path class="fil24" d="M10850 6236c165,-32 346,-40 477,-33 67,4 123,11 159,23 96,30 121,77 52,142 -43,40 -386,143 -399,105 -17,-50 318,-71 269,-151 -40,-64 -410,-21 -601,35 -96,28 -166,67 -200,77 -216,59 -77,-136 243,-197l0 -1z"/>
   <ellipse class="fil22" transform="matrix(0.999833 -0.510968 0.510968 0.999833 10177.9 5965.94)" rx="68" ry="66"/>
   <ellipse class="fil22" transform="matrix(0.999833 -0.510968 0.510968 0.999833 10338.1 5863.14)" rx="68" ry="66"/>
   <ellipse class="fil22" transform="matrix(0.658297 -0.336425 0.336425 0.658297 10362.8 6025.74)" rx="68" ry="66"/>
   <ellipse class="fil22" transform="matrix(0.658297 -0.336425 0.336425 0.658297 10259.5 6174.44)" rx="68" ry="66"/>
   <ellipse class="fil9" transform="matrix(1.28249 0.969846 -0.969846 1.28249 5134.49 13208.9)" rx="68" ry="66"/>
   <ellipse class="fil9" transform="matrix(0.844402 0.638554 -0.638554 0.844402 5132.09 12642.4)" rx="68" ry="66"/>
   <path class="fil6" d="M14539 9571c-47,0 -92,5 -136,14 237,49 428,242 494,467l272 0c-78,-267 -331,-481 -629,-481l-1 0zm46 1200c-56,28 -116,49 -180,61 43,9 88,13 134,13 15,0 31,-1 46,-1l0 -73z"/>
   <path class="fil1" d="M14602 13370c180,-459 306,-1970 306,-2677 0,-707 -5,-431 -13,-639l-1028 1c-8,208 5,-69 5,638 0,707 125,2218 306,2677l425 0 -1 0z"/>
   <path class="fil1" d="M17537 11396c757,0 1370,-591 1370,-1320 0,-10 0,-19 0,-29l-2739 0c0,10 0,19 0,29 0,729 613,1320 1370,1320l-1 0z"/>
   <path class="fil0" d="M17736 11132c544,0 985,-425 985,-949 0,-7 0,-14 0,-21l-1969 0c0,7 0,14 0,21 0,524 441,949 985,949l-1 0z"/>
   <path class="fil3" d="M17824 6188c718,220 1234,837 1234,1565 0,912 -812,1651 -1814,1651 -1002,0 -1814,-739 -1814,-1651 0,-727 526,-1313 1232,-1564 480,-171 724,-242 449,-754 -406,-757 23,-1321 296,-1895 62,80 -123,1571 70,398 97,-591 428,-730 842,-1088 17,-15 -427,447 -521,929 -113,579 11,1504 -96,2187l2 6 119 216 1 0z"/>
   <path class="fil10" d="M16867 10379c81,35 184,57 235,58 14,0 29,0 44,0 20,0 20,0 30,0l0 126 -29 0c-16,0 -32,0 -47,0 -63,-1 -188,-27 -283,-68 -6,-3 -12,-5 -18,-8l3 3c7,46 78,182 72,183l-79 106c-26,2 -146,-300 -151,-348 -56,22 -53,13 -110,52 -68,47 -52,52 -105,119 -1,1 -17,5 -37,1l-92 0c0,-2 0,-2 0,-2 35,-220 243,-251 338,-315 2,-30 6,-53 14,-97l2 -12 0 0c57,-322 258,-776 592,-869 51,-14 103,-18 167,-18l0 126c-54,0 -96,3 -134,13 -273,76 -455,506 -502,771l0 0 -2 12c-22,122 -26,117 92,167z"/>
   <path class="fil10" d="M18514 10258c16,9 45,22 77,43 81,52 171,111 191,183l-121 32c-7,-25 -75,-70 -137,-110 -7,-4 -13,-9 -20,-13l-1 10c-5,102 -10,226 -10,258l-126 0c0,-28 4,-138 9,-239 -32,22 -85,36 -191,43 -19,1 -55,5 -88,11 -22,4 -42,8 -52,11l-45 -117c19,-7 47,-13 76,-18 37,-6 78,-11 101,-12 124,-8 203,-56 206,-187 0,-170 -71,-319 -180,-442 -133,-149 -321,-259 -506,-319l38 -119c205,66 413,188 562,354 124,139 206,309 212,504l5 126 0 1z"/>
   <path class="fil10" d="M17408 10441c-16,9 -45,22 -77,43 -81,52 -171,111 -191,183l121 32c7,-25 75,-70 137,-110 7,-4 13,-9 20,-13l1 10c5,102 10,226 10,258l126 0c0,-27 -4,-138 -9,-239 32,22 85,36 191,43 19,1 55,5 88,11 22,4 42,8 52,11l45 -117c-19,-7 -47,-13 -76,-18 -37,-6 -78,-11 -101,-12 -124,-8 -203,-56 -206,-187 0,-120 51,-1021 48,-1030l-121 -13c-16,16 -48,897 -52,1022l-5 126 -1 0z"/>
   <ellipse class="fil25" cx="17453" cy="7770" rx="1814" ry="1651"/>
   <polygon class="fil25" points="17574,5251 17829,5989 18121,6516 17537,6441 17062,6544 17404,5856 "/>
   <path class="fil9" d="M17826 5991l-430 -122c-48,-235 -475,-1037 -420,-1197 1,-5 231,719 231,15 0,-603 9,-582 204,-1149 62,80 -1,1589 192,417 97,-591 203,-697 617,-1055 17,-15 -203,414 -297,896 -113,581 12,1512 -97,2195z"/>
   <path class="fil7" d="M14878 11461l-977 0c47,723 148,1582 276,1908l425 0c128,-327 229,-1185 276,-1908z"/>
   <ellipse class="fil9" transform="matrix(1.62115 1.22594 -1.22594 1.62115 14434.1 12785)" rx="68" ry="66"/>
   <ellipse class="fil9" transform="matrix(1.62115 1.22594 -1.22594 1.62115 14431.8 13162.6)" rx="68" ry="66"/>
   <ellipse class="fil9" transform="matrix(0.75207 0.56873 -0.56873 0.75207 14403.9 12239)" rx="68" ry="66"/>
   <ellipse class="fil13" cx="17650" cy="7683" rx="485" ry="527"/>
   <ellipse class="fil14" cx="17564" cy="7696" rx="400" ry="493"/>
   <ellipse class="fil15" cx="17267" cy="7640" rx="104" ry="119"/>
   <ellipse class="fil13" cx="16662" cy="7085" rx="485" ry="527"/>
   <ellipse class="fil14" cx="16577" cy="7098" rx="400" ry="493"/>
   <ellipse class="fil15" cx="16279" cy="7043" rx="104" ry="119"/>
   <path class="fil24" d="M17016 8572c139,-39 292,-59 404,-63 57,-2 106,1 137,8 84,18 109,57 54,117 -34,37 -319,150 -333,118 -18,-42 266,-83 218,-148 -38,-52 -351,11 -510,72 -80,31 -137,69 -165,80 -180,66 -75,-110 194,-185l1 1z"/>
   <rect class="fil16" x="-943" y="690" width="22490.2" height="94.49"/>
   <polygon class="fil20" points="-949,687 2055,1327 1255,4040 -943,3382 "/>
   <path class="fil26" d="M-946 306c1721,490 3106,-425 3827,603l-1658 2845c-271,-328 358,-1246 -2166,-1347l-4 -2102 1 1z"/>
   <path class="fil27" d="M2308 476c202,67 379,183 530,376 8,30 15,61 21,93l-1636 2809c-128,-155 -55,-443 -210,-713 20,-307 90,-659 211,-1021 270,-806 713,-1415 1084,-1544z"/>
   <ellipse class="fil13" transform="matrix(0.912382 0.305809 -0.19944 0.595031 2106.69 2538.14)" rx="794" ry="3016"/>
   <path class="fil28" d="M2924 1220c213,139 116,1139 -197,1865 -313,726 -752,1155 -965,1016 -213,-139 -191,-1131 122,-1857 313,-726 827,-1164 1040,-1024z"/>
   <path class="fil8 str4" d="M2692 2716c334,-42 678,309 700,1053 47,1597 177,1812 180,2538"/>
   <path class="fil26 str5" d="M3563 6073c62,161 120,300 118,384 -3,134 -246,109 -250,-3 -2,-82 69,-216 132,-381z"/>
   <path class="fil29 str6" d="M2909 1613c4,-4 110,208 -36,322 -5,4 -101,-175 36,-322z"/>
   <path class="fil29 str6" d="M2781 1420c4,-3 65,226 -101,308 -5,3 -62,-192 101,-308z"/>
   <path class="fil29 str6" d="M2763 1943c4,-3 65,226 -101,308 -5,3 -62,-192 101,-308z"/>
   <path class="fil29 str6" d="M2618 2303c4,-3 65,226 -101,308 -5,3 -62,-192 101,-308z"/>
   <path class="fil29 str6" d="M2483 3096c4,-3 65,226 -101,308 -5,3 -62,-192 101,-308z"/>
   <path class="fil29 str6" d="M2865 2211c4,-3 65,226 -101,308 -5,3 -62,-192 101,-308z"/>
   <path class="fil29 str6" d="M2583 1734c4,-3 65,226 -101,308 -5,3 -62,-192 101,-308z"/>
   <path class="fil29 str6" d="M2723 2567c4,-3 65,226 -101,308 -5,3 -62,-192 101,-308z"/>
   <path class="fil29 str6" d="M2120 3631c4,-3 65,226 -101,308 -5,3 -62,-192 101,-308z"/>
   <path class="fil30" d="M12421 1989c0,-7 0,-13 0,-20 0,-314 -260,-568 -581,-568 -321,0 -581,254 -581,568 0,7 0,14 0,20l1162 0z"/>
   <path class="fil30" d="M10069 1813c0,-4 0,-8 0,-12 0,-182 -151,-330 -337,-330 -186,0 -337,148 -337,330 0,4 0,8 0,12l674 0z"/>
   <path class="fil30" d="M13434 1986c0,-7 0,-13 0,-20 0,-314 -260,-568 -581,-568 -321,0 -581,254 -581,568 0,7 0,14 0,20l1162 0z"/>
   <path class="fil30" d="M14270 1823c0,-4 0,-8 0,-12 0,-182 -151,-330 -337,-330 -186,0 -337,148 -337,330 0,4 0,8 0,12l674 0z"/>
   <path class="fil30" d="M18188 1823c0,-4 0,-8 0,-12 0,-182 -151,-330 -337,-330 -186,0 -337,148 -337,330 0,4 0,8 0,12l674 0z"/>
   <path class="fil30" d="M19477 1806c0,-3 0,-6 0,-9 0,-143 -119,-259 -265,-259 -146,0 -265,116 -265,259 0,3 0,6 0,9l529 0 1 0z"/>
   <path class="fil30" d="M16191 1976c0,-7 0,-13 0,-20 0,-314 -260,-568 -581,-568 -321,0 -581,254 -581,568 0,7 0,14 0,20l1162 0z"/>
   <path class="fil30" d="M8186 1805c0,-3 0,-6 0,-9 0,-143 -119,-259 -265,-259 -146,0 -265,116 -265,259 0,3 0,6 0,9l529 0 1 0z"/>
   <path class="fil16" d="M16173 4013c0,-8 0,-15 0,-23 0,-358 -297,-648 -663,-648 -366,0 -663,290 -663,648 0,8 0,15 0,23l1326 0z"/>
   <path class="fil31 str7" d="M17836 778c0,-2 0,-4 0,-6 0,-86 -71,-155 -159,-155 -88,0 -159,70 -159,155 0,2 0,4 0,6l318 0z"/>
   <path class="fil31 str7" d="M15474 778c0,-2 0,-4 0,-6 0,-86 -71,-155 -159,-155 -88,0 -159,70 -159,155 0,2 0,4 0,6l318 0z"/>
   <path class="fil31 str7" d="M14780 782c0,-2 0,-4 0,-6 0,-86 -71,-155 -159,-155 -88,0 -159,70 -159,155 0,2 0,4 0,6l318 0z"/>
   <path class="fil4 str8" d="M15934 749c0,-2 0,-4 0,-6 0,-86 -71,-155 -159,-155 -88,0 -159,70 -159,155 0,2 0,4 0,6l318 0z"/>
   <path class="fil4 str8" d="M14374 749c0,-2 0,-4 0,-6 0,-86 -71,-155 -159,-155 -88,0 -159,70 -159,155 0,2 0,4 0,6l318 0z"/>
   <path class="fil4 str8" d="M13045 749c0,-2 0,-4 0,-6 0,-86 -71,-155 -159,-155 -88,0 -159,70 -159,155 0,2 0,4 0,6l318 0z"/>
   <path class="fil4 str8" d="M11534 749c0,-2 0,-4 0,-6 0,-86 -71,-155 -159,-155 -88,0 -159,70 -159,155 0,2 0,4 0,6l318 0z"/>
   <path class="fil4 str8" d="M10870 749c0,-2 0,-4 0,-6 0,-86 -71,-155 -159,-155 -88,0 -159,70 -159,155 0,2 0,4 0,6l318 0z"/>
   <path class="fil4 str8" d="M9010 749c0,-2 0,-4 0,-6 0,-86 -71,-155 -159,-155 -88,0 -159,70 -159,155 0,2 0,4 0,6l318 0z"/>
   <path class="fil4 str8" d="M18516 749c0,-2 0,-4 0,-6 0,-86 -71,-155 -159,-155 -88,0 -159,70 -159,155 0,2 0,4 0,6l318 0z"/>
   <path class="fil31 str7" d="M11808 782c0,-2 0,-4 0,-6 0,-86 -71,-155 -159,-155 -88,0 -159,70 -159,155 0,2 0,4 0,6l318 0z"/>
   <path class="fil4 str8" d="M7832 749c0,-2 0,-4 0,-6 0,-86 -71,-155 -159,-155 -88,0 -159,70 -159,155 0,2 0,4 0,6l318 0z"/>
   <circle class="fil32" cx="20814" cy="12868" r="506"/>
   <path class="fil9" d="M20804 12557c32,56 -436,560 28,580 85,4 174,-80 200,-182 33,-131 -54,-202 -135,-289 -24,-26 -76,-80 -93,-109z"/>
   <path class="fil2" d="M20806 12555c32,56 -436,560 28,580 85,4 174,-80 200,-182 43,-170 -146,-189 -184,-84 -6,16 -8,40 10,47 15,6 35,15 44,28 7,11 -1,40 -6,49 -17,31 -78,37 -101,17 -21,-18 -33,-58 -3,-111 37,-67 85,-89 121,-100 72,-22 175,70 -15,-136 -24,-26 -76,-80 -93,-109l-1 1z"/>
   <path class="fil8 str9" d="M20808 12565c-7,25 -23,59 -41,95 -50,98 -156,231 -136,341 9,48 41,90 105,120 122,57 318,-34 301,-233 -8,-99 -59,-173 -165,-156 -125,20 -308,296 -104,350 117,31 261,-150 150,-241 -89,-73 -185,122 -128,169 55,44 162,-23 97,-85 -33,-31 -93,27 -47,38 9,2 6,-28 -9,-3"/>
   <ellipse class="fil1" transform="matrix(0.209387 -0.60825 0.60825 0.209387 11142.9 4150.24)" rx="146" ry="403"/>
   <polygon class="fil9" points="11300,3533 11345,3864 11391,4194 11144,4130 10897,4065 11098,3799 "/>
   <ellipse class="fil9" transform="matrix(0.75207 0.56873 -0.56873 0.75207 11143.3 10950.1)" rx="68" ry="66"/>
   <ellipse class="fil9" transform="matrix(0.75207 0.56873 -0.56873 0.75207 11433.8 11128.6)" rx="68" ry="66"/>
   <ellipse class="fil23" transform="matrix(0.813433 0.615134 -0.615134 0.813433 11813.7 10883.7)" rx="68" ry="66"/>
   <ellipse class="fil9" transform="matrix(0.75207 0.56873 -0.56873 0.75207 8963.89 10771.6)" rx="68" ry="66"/>
   <ellipse class="fil9" transform="matrix(0.751395 0.56822 -0.56822 0.751395 9254.99 10595.2)" rx="68" ry="66"/>
   <ellipse class="fil23" transform="matrix(0.751395 0.56822 -0.56822 0.751395 8545.19 10532.9)" rx="68" ry="66"/>
   <polygon class="fil23" points="11354,3801 11374,3947 11394,4092 11285,4064 11176,4036 11265,3918 "/>
   <path class="fil33" d="M17453 6117c1002,0 1814,739 1814,1651 0,912 -812,1651 -1814,1651 -113,0 -224,-10 -332,-28 843,-142 1481,-815 1481,-1623 0,-808 -639,-1481 -1481,-1623 108,-18 219,-28 332,-28z"/>
   <path class="fil17" d="M17834 5991l-199 -57c94,-677 -21,-1573 89,-2138 42,-216 109,-421 169,-580 82,-95 190,-190 335,-316 17,-15 -203,414 -297,896 -113,581 12,1512 -97,2195z"/>
   <ellipse class="fil23" transform="matrix(0.751395 0.56822 -0.56822 0.751395 5472.39 10572.8)" rx="68" ry="66"/>
   <ellipse class="fil23" transform="matrix(0.751395 0.56822 -0.56822 0.751395 4762.49 10498.1)" rx="68" ry="66"/>
   <ellipse class="fil12" transform="matrix(0.751395 0.56822 -0.56822 0.751395 5179.69 10737.8)" rx="68" ry="66"/>
   <ellipse class="fil12" transform="matrix(0.751395 0.56822 -0.56822 0.751395 3934.39 10563.5)" rx="68" ry="66"/>
   <ellipse class="fil12" transform="matrix(0.816923 0.617774 -0.617774 0.816923 3590.89 10797)" rx="68" ry="66"/>
   <ellipse class="fil23" transform="matrix(0.816923 0.617774 -0.617774 0.816923 3117.59 10678.7)" rx="68" ry="66"/>
   <ellipse class="fil12" transform="matrix(0.816923 0.617774 -0.617774 0.816923 16841.1 10732.7)" rx="68" ry="66"/>
   <ellipse class="fil12" transform="matrix(0.816923 0.617774 -0.617774 0.816923 16367.9 10624.7)" rx="68" ry="66"/>
   <ellipse class="fil12" transform="matrix(0.816923 0.617774 -0.617774 0.816923 17160.8 10498.1)" rx="68" ry="66"/>
   <ellipse class="fil23" transform="matrix(0.816923 0.617774 -0.617774 0.816923 17194 10701.5)" rx="68" ry="66"/>
   <ellipse class="fil12" transform="matrix(0.816923 0.617774 -0.617774 0.816923 17488.7 10867.6)" rx="68" ry="66"/>
   <ellipse class="fil23" transform="matrix(0.816923 0.617774 -0.617774 0.816923 17910 10618.5)" rx="68" ry="66"/>
   <ellipse class="fil12" transform="matrix(0.816923 0.617774 -0.617774 0.816923 18003.4 10440)" rx="68" ry="66"/>
   <ellipse class="fil12" transform="matrix(0.816923 0.617774 -0.617774 0.816923 18428.9 10691.1)" rx="68" ry="66"/>
   <ellipse class="fil23" transform="matrix(0.816923 0.617774 -0.617774 0.816923 18725.7 10523)" rx="68" ry="66"/>
   <path class="fil30" d="M20481 1985c0,-4 0,-9 0,-13 0,-207 -172,-375 -384,-375 -212,0 -384,168 -384,375 0,4 0,9 0,13l766 0 2 0z"/>
   <path class="fil30" d="M21521 1805c0,-3 0,-6 0,-9 0,-143 -119,-259 -265,-259 -146,0 -265,116 -265,259 0,3 0,6 0,9l529 0 1 0z"/>
  </g>
 </g>
</svg>
