<?xml version="1.0" encoding="UTF-8"?>
<!DOCTYPE svg PUBLIC "-//W3C//DTD SVG 1.1//EN" "http://www.w3.org/Graphics/SVG/1.1/DTD/svg11.dtd">
<!-- Creator: CorelDRAW X6 -->
<svg xmlns="http://www.w3.org/2000/svg" xml:space="preserve" width="210mm" height="148mm" version="1.1" style="shape-rendering:geometricPrecision; text-rendering:geometricPrecision; image-rendering:optimizeQuality; fill-rule:evenodd; clip-rule:evenodd"
viewBox="0 0 21000 14800"
 xmlns:xlink="http://www.w3.org/1999/xlink">
 <defs>
  <style type="text/css">
   <![CDATA[
    .str3 {stroke:#012A43;stroke-width:7.62}
    .str0 {stroke:#0F595C;stroke-width:7.62}
    .str1 {stroke:#5C432F;stroke-width:7.62}
    .str2 {stroke:#3D6E78;stroke-width:42.33;stroke-linecap:round;stroke-linejoin:round}
    .fil15 {fill:none}
    .fil11 {fill:#002942}
    .fil50 {fill:#012A43}
    .fil0 {fill:#064E69}
    .fil3 {fill:#0D4559}
    .fil14 {fill:#0F2F46}
    .fil17 {fill:#204159}
    .fil21 {fill:#213769}
    .fil73 {fill:#2A7330}
    .fil75 {fill:#2C302A}
    .fil56 {fill:#36312C}
    .fil77 {fill:#374852}
    .fil38 {fill:#3D6E78}
    .fil31 {fill:#438592}
    .fil1 {fill:#44192A}
    .fil67 {fill:#454552}
    .fil69 {fill:#46454D}
    .fil60 {fill:#4C4F51}
    .fil51 {fill:#4F3F64}
    .fil40 {fill:#51515F}
    .fil30 {fill:#519DAB}
    .fil36 {fill:#528F96}
    .fil6 {fill:#61550B}
    .fil33 {fill:#636466}
    .fil66 {fill:#647F11}
    .fil32 {fill:#659283}
    .fil68 {fill:#664716}
    .fil37 {fill:#73B3A0}
    .fil7 {fill:#766C2C}
    .fil59 {fill:#775033}
    .fil39 {fill:#85868C}
    .fil54 {fill:#874143}
    .fil72 {fill:#876A26}
    .fil2 {fill:#8B6B34}
    .fil74 {fill:#8F5C10}
    .fil55 {fill:#946342}
    .fil45 {fill:#949599}
    .fil41 {fill:#98949D}
    .fil27 {fill:#9A2211}
    .fil5 {fill:#9AAFB5}
    .fil25 {fill:#9C7459}
    .fil12 {fill:#A1491D}
    .fil34 {fill:#A1D4C3}
    .fil22 {fill:#A32F17}
    .fil47 {fill:#A7803D}
    .fil64 {fill:#A87A60}
    .fil71 {fill:#B0741A}
    .fil65 {fill:#B16545}
    .fil46 {fill:#B6E1D9}
    .fil42 {fill:#B7E1DA}
    .fil43 {fill:#BA954C}
    .fil9 {fill:#BAAA79}
    .fil10 {fill:#BCBD93}
    .fil4 {fill:#BCD9DF}
    .fil70 {fill:#C0CFC6}
    .fil13 {fill:#C56231}
    .fil18 {fill:#C97B3C}
    .fil8 {fill:#CAC395}
    .fil48 {fill:#CDBC95}
    .fil63 {fill:#CF6E63}
    .fil58 {fill:#D17C73}
    .fil28 {fill:#DC5523}
    .fil49 {fill:#ECD79C}
    .fil19 {fill:#EE9575}
    .fil62 {fill:#EF5847}
    .fil61 {fill:#F2A88C}
    .fil44 {fill:#F7FDFD}
    .fil20 {fill:#F87D1C}
    .fil26 {fill:#FDF4DE}
    .fil23 {fill:#374852;fill-rule:nonzero}
    .fil52 {fill:#3D6E78;fill-rule:nonzero}
    .fil76 {fill:#8F5C10;fill-rule:nonzero}
    .fil16 {fill:#9AAFB5;fill-rule:nonzero}
    .fil53 {fill:#A1D4C3;fill-rule:nonzero}
    .fil29 {fill:#B16545;fill-rule:nonzero}
    .fil57 {fill:#CDBC95;fill-rule:nonzero}
    .fil35 {fill:#F7FDFD;fill-rule:nonzero}
    .fil24 {fill:#F97F24;fill-rule:nonzero}
   ]]>
  </style>
 </defs>
 <g id="Слой_x0020_1">
  <metadata id="CorelCorpID_0Corel-Layer"/>
  <rect class="fil0" x="-782" y="-33" width="22500" height="13500"/>
  <path class="fil1" d="M12726 4677l-328 170c-459,44 -1208,1994 185,1992 556,-1 1150,-476 934,-1459 -84,-381 -519,-449 -742,-684 -12,-13 -31,-20 -49,-19z"/>
  <path class="fil2" d="M11862 5585c-180,570 -114,1269 721,1268 556,-1 1150,-476 934,-1459 -6,-27 -14,-53 -23,-77 -154,431 -541,643 -911,643 -391,0 -613,-153 -721,-374z"/>
  <path class="fil3 str0" d="M3700 8895c883,0 1598,133 1598,298 0,164 -716,298 -1598,298 -883,0 -1598,-133 -1598,-298 0,-164 716,-298 1598,-298z"/>
  <path class="fil2" d="M3529 4677l-328 170c-118,11 -453,298 -453,543 0,180 -101,163 -149,313 -464,1443 1983,1270 1722,-324 -63,-385 -519,-449 -742,-684 -12,-13 -31,-20 -49,-19z"/>
  <path class="fil4" d="M4721 5138l-188 388 -330 -217 14 1231 -1026 18 79 -1299 -172 435 -254 -268c196,-442 155,-676 637,-676l514 0c334,0 437,177 724,387z"/>
  <polygon class="fil5" points="4163,5158 4439,5397 4011,5472 "/>
  <path class="fil6" d="M3153 4921c174,269 -223,1369 -47,1606 59,79 224,-557 242,-627 63,-246 145,-679 149,-1001 1,-84 10,-194 8,-227 -1,-20 -351,29 -399,152 -10,25 29,68 47,96z"/>
  <path class="fil6" d="M3198 6491l-125 23c0,126 11,278 11,385 133,-11 113,67 113,-249 0,-55 0,-111 0,-159z"/>
  <path class="fil7" d="M3040 6399c-51,294 273,84 174,-15 -27,-27 -166,-28 -174,15z"/>
  <path class="fil8" d="M3083 5666l-156 -155c-2,-2 -16,105 -24,160 -25,190 -18,432 9,465 194,228 417,-498 471,-613 26,-55 55,-99 93,-120 157,-85 63,-175 68,-303 2,-63 -93,-2 -130,51 -37,52 -53,61 -76,53 -71,-27 49,-101 -15,-126 -22,-9 -87,-4 -79,208 0,6 3,42 -9,72 -25,65 -155,340 -154,309z"/>
  <path class="fil9" d="M3088 5662l-161 -152c-3,-2 -16,105 -24,160 -25,190 -18,432 9,465 13,16 27,27 39,35 -58,-12 -55,-167 -18,-279 38,-112 111,-180 155,-228 2,-2 0,-1 -1,-2z"/>
  <path class="fil10" d="M3629 4921c-134,0 -126,-79 -126,-182l0 -127 244 0 0 127c0,103 11,182 -118,182z"/>
  <path class="fil5" d="M3386 8930l-546 81c-41,31 -32,104 -22,142 103,400 757,-76 649,-271 -13,-24 -64,40 -81,48z"/>
  <path class="fil11" d="M3345 8704c93,0 169,34 169,75 0,42 -76,75 -169,75 -93,0 -169,-34 -169,-75 0,-42 76,-75 169,-75z"/>
  <path class="fil8" d="M3156 8008c1,192 11,404 36,562 11,68 -5,225 11,268 29,74 168,90 218,40 4,-4 32,-333 48,-406 94,-428 111,-1101 -184,-993 -113,42 -131,183 -129,530z"/>
  <path class="fil12" d="M3375 8851l-232 -24c-45,33 -277,94 -315,188 -115,287 341,242 500,78 92,-94 184,-197 184,-322 -65,-5 -73,99 -136,79z"/>
  <path class="fil13" d="M3159 8715c-39,17 -33,37 -21,43 24,12 126,7 193,18 118,18 49,165 -11,178 -31,7 -77,2 -142,-24 -35,-14 -57,-113 -68,-167 -8,-39 7,-30 49,-48z"/>
  <path class="fil14" d="M3614 7426c33,18 55,52 55,91l0 0c0,57 -47,104 -104,104l-476 0c-57,0 -104,-47 -104,-104l0 0c0,-44 28,-82 67,-97l149 -869c28,-3 95,-64 167,-129 186,-170 533,-288 741,-77 56,57 97,132 113,202 45,200 102,770 113,875 36,16 61,53 61,95l0 0c0,57 -47,104 -104,104l-476 0c-57,0 -104,-47 -104,-104l0 0c0,-42 25,-78 61,-95l0 -444c0,-205 -159,-212 -159,23l0 424z"/>
  <path class="fil5" d="M4030 8922l546 76c41,31 33,103 24,142 -99,401 -758,-68 -651,-264 13,-24 65,39 81,47z"/>
  <path class="fil11" d="M4070 8696c-93,1 -169,35 -168,77 0,42 76,75 170,74 93,-1 169,-35 168,-77 0,-42 -76,-75 -170,-74z"/>
  <path class="fil8" d="M4251 7998c1,192 -7,404 -30,562 -10,68 8,225 -8,268 -28,74 -167,92 -218,42 -4,-4 -35,-332 -52,-406 -98,-427 -122,-1100 174,-995 113,40 132,182 134,528z"/>
  <path class="fil12" d="M4041 8843l232 -26c45,32 278,91 317,185 118,285 -338,245 -499,83 -92,-93 -186,-195 -187,-320 65,-6 74,98 137,78z"/>
  <path class="fil13" d="M4255 8705c39,17 33,37 21,42 -24,12 -126,9 -192,20 -118,19 -47,166 13,178 31,6 77,1 142,-26 34,-14 56,-114 66,-167 7,-39 -8,-30 -50,-47z"/>
  <path class="fil15" d="M4452 8941c-137,1 -109,154 -127,70 -16,-75 157,-114 9,-89 -30,5 -76,87 -86,74 -37,-49 160,-163 22,-96 -25,12 -57,67 -74,91"/>
  <path class="fil16" d="M4452 8950c-80,1 -99,58 -107,80 -3,9 -5,14 -11,15l0 0c-10,2 -13,-7 -19,-32 -9,-44 35,-75 59,-93 6,-4 11,1 10,-3l0 0c-1,-4 -12,7 -49,14 -12,2 -31,25 -47,44 -10,12 -19,22 -26,27 -9,6 -16,7 -22,-1 -22,-29 16,-71 46,-100 -3,2 -7,4 -12,7 -18,9 -43,47 -60,73 -4,6 -8,11 -10,15l-15 -11c3,-5 6,-9 10,-15 18,-28 45,-68 67,-79 41,-20 58,-24 62,-16l0 0c4,8 -6,17 -20,30 -23,22 -61,58 -55,79 5,-5 12,-13 20,-23 18,-22 39,-47 59,-50 51,-9 69,-9 71,2l0 0c1,8 -6,13 -18,21 -20,14 -57,40 -52,71 13,-30 41,-75 118,-76l0 19zm-122 77l0 0c3,-1 0,-1 -1,-1 -1,1 -1,2 1,1zm-25 -139c4,-1 7,-1 6,-4l0 0c-1,-2 -2,0 -6,4z"/>
  <path class="fil17" d="M4334 7420l0 3c36,16 61,53 61,95l0 0c0,57 -47,104 -104,104l-476 0c-57,0 -104,-47 -104,-104l0 0c0,-42 25,-78 61,-95l0 -3 562 0z"/>
  <path class="fil17" d="M3614 7426c33,18 55,52 55,91l0 0c0,57 -47,104 -104,104l-476 0c-57,0 -104,-47 -104,-104l0 0c0,-44 28,-82 67,-97l0 -1 562 0 0 6z"/>
  <path class="fil18" d="M2877 3758l-18 -3c-77,-72 -341,89 -126,242 29,21 -7,16 -33,31 -55,30 -94,164 121,161 -47,-4 -159,164 169,164 284,0 9,-326 89,-487 91,-181 -124,-167 -204,-108z"/>
  <path class="fil8" d="M3588 3565c421,0 762,256 762,571 0,315 -341,571 -762,571 -421,0 -762,-256 -762,-571 0,-315 341,-571 762,-571z"/>
  <path class="fil19" d="M4198 4056c43,0 77,41 77,92 0,51 -35,92 -77,92 -43,0 -77,-41 -77,-92 0,-51 35,-92 77,-92z"/>
  <path class="fil20" d="M3816 3823c6,14 33,21 51,2 20,-21 98,-41 124,-40 21,1 23,-26 -10,-45 -25,-14 -72,-16 -132,26 -25,17 -41,38 -32,57z"/>
  <path class="fil18" d="M4434 3736l40 1c75,-70 327,97 142,248 39,18 67,57 67,102 0,62 -53,113 -118,113 -12,0 -24,-2 -35,-5 36,22 74,99 -30,137 -16,45 -66,78 -125,78 -69,0 -126,-45 -130,-102 -17,-38 -7,-99 -6,-175 1,-58 -7,-110 -23,-155 -4,1 -9,1 -13,1 -40,0 -72,-35 -72,-78 0,-18 6,-35 15,-48 -2,-2 -4,-4 -5,-7 -11,10 -27,16 -43,16 -32,0 -59,-23 -63,-53 -4,1 -8,1 -11,1 -45,0 -81,-49 -81,-108 0,-4 0,-8 0,-11 -65,-37 -110,-60 -95,-82 14,-20 73,-20 149,-9 8,-4 17,-6 27,-6 17,0 33,7 46,19 146,31 317,88 363,121zm82 453c-1,0 -3,0 -4,0 1,0 3,0 5,0l0 0z"/>
  <path class="fil18" d="M3019 3720l-96 106c0,0 -21,4 -17,18 3,11 30,31 32,45 5,36 6,71 31,73 109,9 38,-171 143,-118 3,2 7,3 12,4 21,19 54,31 91,31 63,0 114,-36 114,-79 0,-2 0,-4 0,-6l2 0c14,8 31,13 51,13 37,0 68,-17 77,-41l3 -1c-2,5 -3,10 -3,15 0,30 36,55 79,55 44,0 79,-25 79,-55 0,-15 -9,-28 -22,-38 177,-28 -98,-146 -109,-145 -9,1 84,13 -70,30 -190,21 -258,-46 -398,93z"/>
  <path class="fil21" d="M4307 3547l353 0c60,0 108,49 108,108l0 0c0,60 -49,108 -108,108l-353 0c-60,0 -108,-49 -108,-108l0 0c0,-60 49,-108 108,-108z"/>
  <path class="fil14" d="M3206 3278l793 0c199,0 362,163 362,362l0 0c0,62 -34,129 -104,117 -202,-36 -432,-61 -671,-61 -261,0 -507,24 -722,66 -14,-38 -21,-79 -21,-121l0 0c0,-199 163,-362 362,-362z"/>
  <path class="fil22 str1" d="M3353 3522c-139,-73 -192,-34 -198,132 0,5 1,9 2,12 97,-33 205,-52 318,-52 49,0 98,4 144,10 33,-10 54,-17 54,-18 4,-100 -134,-92 -189,-80 -8,-143 -116,-49 -131,-5z"/>
  <path class="fil19" d="M3062 4100c43,0 77,41 77,92 0,51 -35,92 -77,92 -43,0 -77,-41 -77,-92 0,-51 35,-92 77,-92z"/>
  <path class="fil15" d="M3258 3910c-1,47 30,137 75,129 28,-5 52,-49 52,-165"/>
  <path class="fil23" d="M3235 3909c0,-13 11,-23 24,-23 13,0 23,11 23,24 0,8 1,17 3,27 4,20 11,41 21,57 7,12 15,21 22,21l0 0 0 0c0,0 1,0 2,0 7,-1 14,-10 20,-31 7,-24 12,-60 12,-111 0,-13 11,-24 24,-24 13,0 24,11 24,24 0,56 -5,97 -14,125 -13,40 -33,59 -57,64 -4,1 -8,1 -12,1l0 0c-26,-1 -46,-19 -62,-44 -13,-21 -22,-48 -26,-73 -2,-13 -4,-25 -3,-36z"/>
  <path class="fil15" d="M3862 3910c-1,47 30,137 75,129 28,-5 52,-49 52,-165"/>
  <path class="fil23" d="M3839 3909c0,-13 11,-23 24,-23 13,0 23,11 23,24 0,8 1,17 3,27 4,20 11,41 21,57 7,12 15,21 22,21l0 0 0 0c1,0 1,0 2,0 7,-1 14,-10 20,-31 7,-24 12,-60 12,-111 0,-13 11,-24 24,-24 13,0 24,11 24,24 0,56 -5,97 -14,125 -13,40 -33,59 -57,64 -4,1 -8,1 -12,1l0 0c-26,-1 -46,-19 -62,-44 -13,-21 -22,-48 -26,-73 -2,-13 -4,-25 -3,-36z"/>
  <path class="fil24" d="M4033 4127c5,0 9,1 13,1 5,1 7,4 7,7 0,3 -3,5 -7,7 -3,1 -8,1 -13,1 -5,0 -9,-1 -13,-1 -5,-1 -7,-4 -7,-7 0,-3 3,-5 7,-7 3,-1 8,-1 13,-1zm10 8c-3,-1 -6,-1 -10,-1 -4,0 -8,0 -10,1 3,1 6,1 10,1 4,0 8,0 10,-1zm3 0c0,0 0,0 -1,0 0,0 1,0 1,0zm-26 0c0,0 0,0 1,0 0,0 -1,0 -1,0z"/>
  <path class="fil24" d="M3265 4131c5,0 9,1 13,1 5,1 7,4 7,7 0,3 -3,5 -7,7 -3,1 -8,1 -13,1 -5,0 -9,-1 -13,-1 -5,-1 -7,-4 -7,-7 0,-3 3,-5 7,-7 3,-1 8,-1 13,-1zm10 8c-3,-1 -6,-1 -10,-1 -4,0 -8,0 -10,1 3,1 6,1 10,1 4,0 8,0 10,-1zm3 0c0,0 0,0 -1,0 0,0 1,0 1,0zm-26 0c0,0 0,0 1,0 0,0 -1,0 -1,0z"/>
  <path class="fil24" d="M3368 4191c5,0 9,1 13,1 5,1 7,4 7,7 0,3 -3,5 -7,7 -3,1 -8,1 -13,1 -5,0 -9,-1 -13,-1 -5,-1 -7,-4 -7,-7 0,-3 3,-5 7,-7 3,-1 8,-1 13,-1zm10 8c-3,-1 -6,-1 -10,-1 -4,0 -8,0 -10,1 3,1 6,1 10,1 4,0 8,0 10,-1zm3 0c0,0 0,0 -1,0 0,0 1,0 1,0zm-26 0c0,0 0,0 1,0 0,0 -1,0 -1,0z"/>
  <path class="fil24" d="M3867 4105c5,0 9,1 13,1 5,1 7,4 7,7 0,3 -3,5 -7,7 -3,1 -8,1 -13,1 -5,0 -9,-1 -13,-1 -5,-1 -7,-4 -7,-7 0,-3 3,-5 7,-7 3,-1 8,-1 13,-1zm10 8c-3,-1 -6,-1 -10,-1 -4,0 -8,0 -10,1 3,1 6,1 10,1 4,0 8,0 10,-1zm3 0c0,0 0,0 -1,0 0,0 1,0 1,0zm-26 0c0,0 0,0 1,0 0,0 -1,0 -1,0z"/>
  <path class="fil24" d="M3949 4146c5,0 9,1 13,1 5,1 7,4 7,7 0,3 -3,5 -7,7 -3,1 -8,1 -13,1 -5,0 -9,-1 -13,-1 -5,-1 -7,-4 -7,-7 0,-3 3,-5 7,-7 3,-1 8,-1 13,-1zm10 8c-3,-1 -6,-1 -10,-1 -4,0 -8,0 -10,1 3,1 6,1 10,1 4,0 8,0 10,-1zm3 0c0,0 0,0 -1,0 0,0 1,0 1,0zm-26 0c0,0 0,0 1,0 0,0 -1,0 -1,0z"/>
  <path class="fil10" d="M3754 5470c-5,2 -30,1 -33,5 -56,71 41,122 135,90 44,-15 194,-24 284,-56 75,-26 295,-106 143,-202 -32,-20 -424,109 -489,151 -10,6 -10,-3 -41,11z"/>
  <path class="fil7" d="M4316 5353c-150,50 -564,199 -567,205 -22,37 124,261 132,382 3,48 23,117 68,197 20,35 48,135 82,127 146,-33 490,-133 543,-198 49,-60 -126,-538 -169,-636 -39,-90 -20,-99 -88,-77z"/>
  <path class="fil25" d="M3699 5454l9 32c24,-2 563,-176 581,-196 9,-9 9,-20 -6,-33 -21,-19 -210,56 -342,112 -13,5 -244,104 -242,85z"/>
  <path class="fil1" d="M4044 6261l-290 -717c-71,-193 -92,-39 -3,142 57,115 183,649 293,575z"/>
  <path class="fil26" d="M3872 5470c-5,2 -30,1 -33,5 -56,71 41,122 135,90 44,-15 194,-24 284,-56 75,-26 295,-106 143,-202 -32,-20 -424,109 -489,151 -10,6 -10,-3 -41,11z"/>
  <path class="fil27" d="M4434 5353c-150,50 -564,199 -567,205 -22,37 124,261 132,382 3,48 23,117 68,197 20,35 48,135 82,127 146,-33 490,-133 543,-198 49,-60 -126,-538 -169,-636 -39,-90 -20,-99 -88,-77z"/>
  <path class="fil27" d="M3817 5454l9 32c24,-2 563,-176 581,-196 9,-9 9,-20 -6,-33 -21,-19 -210,56 -342,112 -13,5 -244,104 -242,85z"/>
  <path class="fil28" d="M4162 6261l-290 -717c-71,-193 -92,-39 -3,142 57,115 183,649 293,575z"/>
  <path class="fil8" d="M2866 3822c43,0 77,50 77,111 0,61 -35,111 -77,111 -43,0 -77,-50 -77,-111 0,-61 35,-111 77,-111z"/>
  <path class="fil15" d="M3692 4409c49,65 284,64 284,-89"/>
  <path class="fil29" d="M3677 4420c-6,-8 -5,-20 4,-26 8,-6 20,-5 26,4 16,21 58,33 104,33 20,0 40,-2 59,-8 18,-5 35,-13 50,-24 23,-17 38,-43 38,-79 0,-10 8,-19 19,-19 10,0 19,8 19,19 0,49 -21,85 -53,109 -18,14 -40,24 -62,30 -22,6 -46,9 -69,9 -57,0 -111,-18 -134,-48z"/>
  <path class="fil29" d="M3629 4164c0,-6 5,-11 11,-10 6,0 11,5 10,11 -1,28 11,48 26,57 6,3 12,5 19,5 6,0 13,-2 19,-6 17,-11 31,-38 31,-84 0,-6 5,-11 11,-11 6,0 11,5 11,11 0,55 -18,88 -42,102 -10,6 -20,9 -30,9 -10,0 -21,-3 -30,-8 -21,-13 -38,-39 -37,-76z"/>
  <path class="fil20" d="M3293 3843c6,14 33,21 51,2 20,-21 98,-41 124,-40 21,1 23,-26 -10,-45 -25,-14 -72,-16 -132,26 -25,17 -41,38 -32,57z"/>
  <path class="fil8" d="M4548 5494c11,25 54,25 52,70 -2,35 -92,73 -226,123 -120,45 -233,71 -332,75 -44,2 -60,10 -93,-54 -35,-67 -151,-59 -92,-4 12,11 49,41 -4,53 -84,18 -83,-72 -108,-56 -35,20 -54,384 158,333 112,-27 201,-71 291,-90 163,-33 796,-127 786,-344 -4,-92 -96,-200 -157,-265 -17,-18 -99,-121 -127,-146l-148 305z"/>
  <path class="fil15" d="M2965 8953c137,0 111,153 128,69 15,-75 -158,-112 -10,-89 30,5 77,87 86,73 36,-49 -161,-161 -23,-96 25,12 58,66 75,90"/>
  <path class="fil16" d="M2965 8943c77,0 106,45 119,75 5,-31 -32,-57 -53,-71 -11,-8 -19,-13 -18,-21 2,-11 20,-11 71,-3 19,3 41,28 59,50 8,9 15,18 21,23 5,-21 -33,-57 -56,-79 -14,-13 -24,-22 -20,-30 4,-8 21,-5 62,15 23,11 50,51 68,78 4,5 7,10 10,15l-15 11c-3,-4 -6,-9 -10,-15 -17,-26 -43,-63 -61,-72 -5,-2 -9,-4 -12,-6 30,28 68,70 47,99 -6,8 -13,7 -22,1 -7,-5 -16,-16 -26,-27 -16,-19 -35,-41 -48,-43 -37,-6 -49,-17 -50,-13 -1,4 4,-1 10,3 24,17 69,48 60,92 -5,25 -8,34 -18,32 -6,-1 -8,-7 -11,-15 -8,-22 -27,-78 -108,-78l0 -19zm124 93c-2,1 -4,1 -1,1 2,0 2,0 1,-1zm16 -141c-1,3 2,2 6,4 -4,-3 -5,-5 -6,-4z"/>
  <path class="fil3 str0" d="M8314 8665c810,0 1466,183 1466,409 0,226 -656,409 -1466,409 -810,0 -1466,-183 -1466,-409 0,-226 656,-409 1466,-409z"/>
  <path class="fil30" d="M7685 4677l-328 170c-254,25 -529,632 -602,857 -379,1178 1117,1238 1539,355 34,-71 -9,-169 9,-253 33,-150 -35,-363 -66,-551 -63,-385 -279,-323 -503,-558 -12,-13 -31,-20 -49,-19z"/>
  <path class="fil31" d="M6740 5757c-345,1202 1320,1194 1621,159 26,-90 -261,-225 -257,-330 3,-89 287,-264 204,-322 -100,-70 -42,-61 -47,-77 -210,900 -1265,1216 -1521,570z"/>
  <path class="fil32" d="M7614 8920l-546 81c-41,31 -32,104 -22,142 55,213 268,177 437,67 60,-39 95,-111 154,-135 85,-36 122,-183 94,-232 -13,-24 -101,69 -117,77z"/>
  <path class="fil33" d="M7572 8694c93,0 169,34 169,75 0,42 -76,75 -169,75 -93,0 -169,-34 -169,-75 0,-42 76,-75 169,-75z"/>
  <path class="fil34" d="M7602 8840l-232 -24c-45,33 -277,94 -315,188 -115,287 341,242 500,78 25,-26 55,-63 87,-80 112,-59 101,-150 101,-240 -1,0 -2,-11 -8,-21 -7,-11 -20,-20 -22,-21 -3,0 8,15 12,27 5,14 -5,13 -13,17 -42,20 -56,91 -108,74z"/>
  <path class="fil15" d="M7181 8947c137,0 111,153 128,69 15,-75 -158,-112 -10,-89 30,5 77,87 86,73 36,-49 -161,-161 -23,-96 25,12 58,66 75,90"/>
  <path class="fil35" d="M7181 8938c77,0 106,45 119,75 5,-31 -32,-57 -53,-71 -11,-8 -19,-13 -18,-21 2,-11 20,-11 71,-3 19,3 41,28 59,50 8,9 15,18 21,23 5,-21 -33,-57 -56,-79 -14,-13 -24,-22 -20,-30 4,-8 21,-5 62,15 23,11 50,51 68,78 4,5 7,10 10,15l-15 11c-3,-4 -6,-9 -10,-15 -17,-26 -43,-63 -61,-72 -5,-2 -9,-4 -12,-6 30,28 68,70 47,99 -6,8 -13,7 -22,1 -7,-5 -16,-16 -26,-27 -16,-19 -35,-41 -48,-43 -37,-6 -49,-17 -50,-13 -1,4 4,-1 10,3 24,17 69,48 60,92 -5,25 -8,34 -18,32 -6,-1 -8,-7 -11,-15 -8,-22 -27,-78 -108,-78l0 -19zm124 93c-2,1 -4,1 -1,1 2,0 2,0 1,-1zm16 -141c-1,3 2,2 6,4 -4,-3 -6,-5 -6,-4z"/>
  <path class="fil36" d="M7262 6604c21,33 2,141 12,276 43,587 40,1892 145,1895 65,2 97,35 136,38 136,10 132,-14 188,-469 19,-156 17,-799 18,-804 44,-217 323,-865 115,-1011 -455,-319 -617,191 -614,76z"/>
  <path class="fil37" d="M7387 8705c-39,17 -33,37 -21,43 24,12 126,7 193,18 118,18 49,165 -11,178 -31,7 -77,2 -142,-24 -35,-14 -57,-113 -68,-167 -8,-39 7,-30 49,-48z"/>
  <path class="fil38" d="M7760 7716l0 -54c-3,2 -5,4 -6,8 -6,23 -24,53 -45,82 -22,30 -48,59 -69,83 -4,5 -4,12 1,17 5,4 12,4 17,-1 21,-24 48,-54 71,-85 12,-17 23,-33 32,-49z"/>
  <path class="fil38" d="M8229 7632c-2,8 -5,16 -8,24 19,16 39,33 59,48 51,38 102,71 145,82 6,2 13,-2 14,-8 2,-6 -2,-13 -8,-14 -39,-10 -88,-41 -137,-78 -22,-17 -44,-35 -65,-53z"/>
  <path class="fil15" d="M8428 7774c-58,-15 -136,-73 -203,-130"/>
  <path class="fil8" d="M8713 5179c59,379 -64,962 -310,1213 -59,60 -93,126 -151,155 -121,61 -180,191 10,125 1,-8 -43,21 -66,49 -25,32 -19,71 60,27 49,-28 91,-125 18,-3 -11,19 -42,81 11,60 55,-22 114,-203 62,-53 -43,124 45,63 85,-55 84,-248 268,-431 385,-747 59,-162 162,-732 -42,-853 -24,-14 -46,4 -62,83z"/>
  <path class="fil33" d="M8110 8525c-91,20 -158,69 -149,109 9,41 90,58 181,38 91,-20 158,-69 149,-109 -9,-41 -90,-58 -181,-38z"/>
  <path class="fil36" d="M7812 6638l69 -108c5,74 -68,176 -55,237 66,325 302,444 385,701 48,149 16,175 -28,262 -22,45 -52,154 -78,281 -12,59 -44,240 -62,385 -3,24 -23,246 -19,268 26,121 120,119 245,-68 29,-43 19,-143 60,-216 16,-28 33,-57 49,-88 136,-248 285,-568 270,-715 -53,-495 -215,-1154 -496,-1290 -234,-114 -341,160 -341,349z"/>
  <path class="fil33" d="M8877 5138l-2 4c473,362 -272,1459 -384,1393 -231,-137 -33,-235 41,-467 184,-581 144,-525 56,-608l-228 -150 13 1119 -127 114 -897 16 79 -1299 -172 435 -239 -244c29,-65 39,-166 59,-223 119,-330 152,-477 563,-477l514 0c334,0 437,177 724,387z"/>
  <polygon class="fil39" points="8369,6109 8372,6376 8038,6376 8038,6109 "/>
  <polygon class="fil40" points="8369,6062 8369,6118 7979,6118 7981,6062 "/>
  <path class="fil40" d="M8626 6441c-33,37 -62,69 -85,89 -20,17 -43,19 -46,17l-132 -106c-1,-1 -2,-47 8,-69 12,-25 32,-53 46,-78 3,84 141,182 209,148z"/>
  <path class="fil40" d="M8373 6427c-39,47 -62,79 -113,116l-912 15 8 -129 999 0 18 -1z"/>
  <polygon class="fil41" points="7743,5241 7777,5241 7777,6551 7743,6551 "/>
  <polygon class="fil42" points="7760,5325 7830,5086 7899,4838 7760,4847 7663,4838 "/>
  <path class="fil31" d="M7308 4921c174,269 -223,1369 -47,1606 59,79 224,-557 242,-627 63,-246 145,-679 149,-1001 1,-84 10,-194 8,-227 -1,-20 -351,29 -399,152 -10,25 29,68 48,96z"/>
  <path class="fil38" d="M7362 6491l-125 23c0,126 11,278 11,385 133,-11 113,67 113,-249 0,-55 0,-111 0,-159z"/>
  <path class="fil30" d="M7196 6399c-51,294 273,84 174,-15 -27,-27 -166,-28 -174,15z"/>
  <path class="fil30" d="M7419 4822c107,165 -36,790 -122,1036 -102,290 -6,109 67,-63 69,-163 78,-43 101,-215 36,-272 104,-539 106,-768 1,-43 3,-120 1,-137 -1,-10 -183,10 -208,73 -5,13 44,61 54,75z"/>
  <path class="fil8" d="M7239 5666l-156 -155c-2,-2 -16,105 -24,160 -25,190 -18,432 9,465 194,228 417,-498 471,-613 26,-55 55,-99 93,-120 157,-85 63,-175 68,-303 2,-63 -93,-2 -130,51 -37,52 -53,61 -76,53 -70,-27 49,-101 -15,-126 -22,-9 -87,-4 -79,208 0,6 3,42 -9,72 -25,65 -155,340 -154,309z"/>
  <path class="fil9" d="M7243 5662l-161 -152c-3,-2 -16,105 -24,160 -25,190 -18,432 9,465 13,16 27,27 39,35 -58,-12 -55,-167 -18,-279 38,-112 111,-180 155,-228 2,-2 0,-1 -1,-2z"/>
  <path class="fil10" d="M7785 4921c-134,0 -126,-79 -126,-182l0 -127 244 0 0 127c0,103 11,182 -118,182z"/>
  <path class="fil43" d="M7075 3623c401,0 1547,-236 1547,255 0,330 152,887 -190,827 -63,-11 -145,-24 -239,-32 -204,-19 -937,-72 -1088,14 -101,58 -179,106 -172,-647l141 -417z"/>
  <path class="fil8" d="M7744 3565c421,0 762,256 762,571 0,315 -341,571 -762,571 -421,0 -762,-256 -762,-571 0,-315 341,-571 762,-571z"/>
  <path class="fil22 str1" d="M7508 3522c-139,-73 -192,-34 -198,132 0,5 1,9 2,12 97,-33 205,-52 318,-52 49,0 98,4 144,10 33,-10 54,-17 54,-18 4,-100 -134,-92 -189,-80 -8,-143 -116,-49 -131,-5z"/>
  <path class="fil19" d="M7241 4106c29,31 22,85 -16,119 -37,35 -91,37 -120,6 -29,-31 -22,-85 16,-119 37,-35 91,-37 120,-6z"/>
  <path class="fil24" d="M8189 4127c5,0 9,1 13,1 5,1 7,4 7,7 0,3 -3,5 -7,7 -3,1 -8,1 -13,1 -5,0 -9,-1 -13,-1 -5,-1 -7,-4 -7,-7 0,-3 3,-5 7,-7 3,-1 8,-1 13,-1zm10 8c-3,-1 -6,-1 -10,-1 -4,0 -8,0 -10,1 3,1 6,1 10,1 4,0 8,0 10,-1zm3 0c0,0 0,0 -1,0 0,0 1,0 1,0zm-26 0c0,0 0,0 1,0 0,0 -1,0 -1,0z"/>
  <path class="fil24" d="M7421 4131c5,0 9,1 13,1 5,1 7,4 7,7 0,3 -3,5 -7,7 -3,1 -8,1 -13,1 -5,0 -9,-1 -13,-1 -5,-1 -7,-4 -7,-7 0,-3 3,-5 7,-7 3,-1 8,-1 13,-1zm10 8c-3,-1 -6,-1 -10,-1 -4,0 -8,0 -10,1 3,1 6,1 10,1 4,0 8,0 10,-1zm3 0c0,0 0,0 -1,0 0,0 1,0 1,0zm-26 0c0,0 0,0 1,0 0,0 -1,0 -1,0z"/>
  <path class="fil24" d="M7523 4191c5,0 9,1 13,1 5,1 7,4 7,7 0,3 -3,5 -7,7 -3,1 -8,1 -13,1 -5,0 -9,-1 -13,-1 -5,-1 -7,-4 -7,-7 0,-3 3,-5 7,-7 3,-1 8,-1 13,-1zm10 8c-3,-1 -6,-1 -10,-1 -4,0 -8,0 -10,1 3,1 6,1 10,1 4,0 8,0 10,-1zm3 0c0,0 0,0 -1,0 0,0 1,0 1,0zm-26 0c0,0 0,0 1,0 0,0 -1,0 -1,0z"/>
  <path class="fil24" d="M8022 4105c5,0 9,1 13,1 5,1 7,4 7,7 0,3 -3,5 -7,7 -3,1 -8,1 -13,1 -5,0 -9,-1 -13,-1 -5,-1 -7,-4 -7,-7 0,-3 3,-5 7,-7 3,-1 8,-1 13,-1zm10 8c-3,-1 -6,-1 -10,-1 -4,0 -8,0 -10,1 3,1 6,1 10,1 4,0 8,0 10,-1zm3 0c0,0 0,0 -1,0 0,0 1,0 1,0zm-26 0c0,0 0,0 1,0 0,0 -1,0 -1,0z"/>
  <path class="fil24" d="M8105 4146c5,0 9,1 13,1 5,1 7,4 7,7 0,3 -3,5 -7,7 -3,1 -8,1 -13,1 -5,0 -9,-1 -13,-1 -5,-1 -7,-4 -7,-7 0,-3 3,-5 7,-7 3,-1 8,-1 13,-1zm10 8c-3,-1 -6,-1 -10,-1 -4,0 -8,0 -10,1 3,1 6,1 10,1 4,0 8,0 10,-1zm3 0c0,0 0,0 -1,0 0,0 1,0 1,0zm-26 0c0,0 0,0 1,0 0,0 -1,0 -1,0z"/>
  <path class="fil29" d="M7708 4164c0,-6 5,-11 11,-10 6,0 11,5 10,11 -1,28 11,48 26,57 6,3 12,5 19,5 6,0 13,-2 19,-6 17,-11 31,-38 31,-84 0,-6 5,-11 11,-11 6,0 11,5 11,11 0,55 -18,88 -42,102 -10,6 -20,9 -30,9 -10,0 -21,-3 -30,-8 -21,-13 -38,-39 -36,-76z"/>
  <path class="fil43" d="M7092 3566c-156,57 -157,235 -166,437 -7,160 291,-88 427,-295 0,145 -319,385 42,173 808,-475 -272,-325 -302,-314z"/>
  <path class="fil8" d="M8558 4024c51,0 92,59 92,132 0,73 -41,132 -92,132 -51,0 -92,-59 -92,-132 0,-73 41,-132 92,-132z"/>
  <path class="fil43" d="M7960 3704c-5,57 94,306 167,72 2,0 78,100 197,216 136,133 281,198 153,-72 -106,-224 -516,-216 -516,-216z"/>
  <path class="fil44" d="M7352 3351l20 -59c-54,-162 344,-272 519,-265 850,33 828,1215 223,729 -140,-112 -697,-273 -724,-404 -12,-4 -25,-2 -38,-2z"/>
  <path class="fil45" d="M7057 3619c189,-27 682,54 863,111l310 98c0,0 -203,-625 -952,-617 -185,2 -345,40 -414,104 -126,117 193,305 193,305z"/>
  <path class="fil46" d="M8075 3069c-55,-87 60,-64 141,-26 65,31 95,97 7,97 -25,0 -48,-30 -97,-37 -12,-2 -45,-25 -51,-33z"/>
  <path class="fil42" d="M7939 3034c49,-8 -83,-8 -48,-6 785,31 873,1049 397,819 11,-43 -134,-724 -350,-813z"/>
  <path class="fil8" d="M6960 4024c51,0 92,59 92,132 0,73 -41,132 -92,132 -51,0 -92,-59 -92,-132 0,-73 41,-132 92,-132z"/>
  <g id="_845647616">
   <g>
    <g>
     <path class="fil47" d="M8306 9025c80,0 96,85 96,154 0,69 -55,102 -135,102 -80,0 -169,-44 -172,-130 -2,-43 44,-109 91,-120 65,-16 81,-6 121,-6z"/>
     <path class="fil48" d="M8292 9027c80,0 145,56 145,125 0,69 -65,125 -145,125 -80,0 -145,-56 -145,-125 0,-69 65,-125 145,-125z"/>
     <path class="fil49" d="M8299 9075c50,0 91,35 91,78 0,43 -41,78 -91,78 -50,0 -91,-35 -91,-78 0,-43 41,-78 91,-78z"/>
     <path class="fil45" d="M8283 9147c-31,112 135,29 172,29 132,0 153,48 268,76 72,18 142,-35 87,-80 -47,-38 -203,-68 -317,-70 -29,0 -201,12 -210,44z"/>
    </g>
    <path class="fil47" d="M8979 8753c285,-73 565,-185 759,-145 386,79 243,258 -20,360 -508,196 -945,255 -1482,189 -467,-57 -533,-186 -418,-229 100,-38 922,-114 1161,-175z"/>
    <path class="fil50" d="M8977 8688c280,-71 554,-121 745,-82 379,77 238,193 -20,293 -498,192 -926,250 -1454,185 -458,-56 -509,-135 -396,-177 98,-37 891,-159 1126,-219z"/>
   </g>
   <g>
    <path class="fil47" d="M9736 8964c70,0 84,75 84,135 0,61 -48,90 -119,90 -70,0 -149,-39 -152,-114 -1,-38 39,-96 80,-106 57,-14 71,-5 106,-5z"/>
    <path class="fil48" d="M9724 8965c70,0 128,49 128,110 0,61 -57,110 -128,110 -70,0 -128,-49 -128,-110 0,-61 57,-110 128,-110z"/>
    <path class="fil47" d="M8900 9172c80,0 96,85 96,154 0,69 -55,102 -135,102 -80,0 -169,-44 -172,-130 -2,-43 44,-109 91,-120 65,-16 81,-6 121,-6z"/>
    <path class="fil48" d="M8886 9174c80,0 145,56 145,125 0,69 -65,125 -145,125 -80,0 -145,-56 -145,-125 0,-69 65,-125 145,-125z"/>
    <path class="fil49" d="M8893 9222c50,0 91,35 91,78 0,43 -41,78 -91,78 -50,0 -91,-35 -91,-78 0,-43 41,-78 91,-78z"/>
   </g>
  </g>
  <path class="fil33" d="M7327 6050c31,-60 154,-304 212,-478l36 -109 -179 -104c-17,-10 -32,26 -43,47 -57,106 -44,309 -168,3 -48,-118 -59,-264 -92,-219 -18,24 -64,195 -76,248 -82,355 -11,1228 310,612z"/>
  <path class="fil40" d="M7521 5623c7,-18 13,-35 18,-52l35 -105 -104 -64c-4,-2 -8,-5 -12,-8l-62 -36 -1 0 -1 0 0 0c-17,-7 -30,27 -41,47 -6,11 -21,53 -26,65 105,-11 187,62 194,153z"/>
  <path class="fil40" d="M7758 5543c30,0 54,24 54,53 0,29 -24,53 -54,53 -30,0 -54,-24 -54,-53 0,-29 24,-53 54,-53z"/>
  <polygon class="fil51" points="7758,5444 7785,5516 7813,5589 7758,5589 7703,5589 7731,5516 "/>
  <path class="fil15" d="M8463 7727c-77,-36 -175,-160 -237,-244"/>
  <path class="fil52" d="M8468 7717c6,3 8,10 6,16 -3,6 -10,8 -16,6 -40,-19 -85,-60 -128,-107 -42,-46 -82,-99 -114,-141 -4,-5 -3,-13 2,-16 5,-4 13,-3 16,2 31,42 71,93 112,139 41,45 84,84 120,101z"/>
  <path class="fil15" d="M7762 7497c-12,84 -101,214 -163,298"/>
  <path class="fil52" d="M7750 7495c1,-6 7,-11 13,-10 6,1 11,7 10,13 -6,44 -32,99 -64,154 -32,54 -70,108 -101,150 -4,5 -11,6 -16,3 -5,-4 -6,-11 -3,-16 31,-42 68,-95 100,-148 31,-52 56,-105 61,-145z"/>
  <path class="fil15" d="M7765 7672c-12,50 -74,123 -117,170"/>
  <path class="fil15" d="M8428 7774c-82,-21 -201,-126 -277,-197"/>
  <path class="fil19" d="M8278 4106c-29,31 -22,85 16,119 37,35 91,37 120,6 29,-31 22,-85 -16,-119 -37,-35 -91,-37 -120,-6z"/>
  <path class="fil47" d="M7932 3823c6,14 33,21 51,2 20,-21 98,-41 124,-40 21,1 22,-26 -10,-45 -25,-14 -72,-16 -132,26 -25,17 -41,38 -32,57z"/>
  <path class="fil15" d="M7374 4002c-1,-47 30,-137 75,-129 28,5 52,49 52,165"/>
  <path class="fil23" d="M7398 4002c0,13 -10,24 -23,24 -13,0 -24,-10 -24,-23 0,-11 1,-23 3,-36 5,-24 14,-52 26,-73 15,-25 36,-43 62,-44l0 0c4,0 8,0 12,1 23,4 44,23 57,64 9,28 14,69 14,125 0,13 -11,24 -24,24 -13,0 -24,-11 -24,-24 0,-51 -5,-87 -12,-111 -7,-21 -14,-30 -20,-31 -1,0 -1,0 -2,0l0 0 0 0c-7,0 -15,9 -22,21 -10,16 -17,38 -21,57 -2,10 -3,19 -3,27z"/>
  <path class="fil15" d="M7978 4002c-1,-47 30,-137 75,-129 28,5 52,49 52,165"/>
  <path class="fil23" d="M8002 4002c0,13 -10,24 -23,24 -13,0 -24,-10 -24,-23 0,-11 1,-23 3,-36 5,-24 14,-52 26,-73 15,-25 36,-43 62,-44l0 0c4,0 8,0 12,1 23,4 44,23 57,64 9,28 14,69 14,125 0,13 -11,24 -24,24 -13,0 -24,-11 -24,-24 0,-51 -5,-87 -12,-111 -7,-21 -14,-30 -20,-31 -1,0 -1,0 -2,0l0 0 0 0c-7,0 -15,9 -22,21 -10,16 -17,38 -21,57 -2,10 -3,19 -3,27z"/>
  <path class="fil47" d="M7409 3843c6,14 33,21 51,2 20,-21 98,-41 124,-40 21,1 22,-26 -10,-45 -25,-14 -72,-16 -132,26 -25,17 -41,38 -32,57z"/>
  <path class="fil15" d="M7453 4356c52,155 498,306 597,15"/>
  <path class="fil29" d="M7435 4362c-3,-10 2,-20 12,-24 10,-3 20,2 24,12 19,55 95,111 187,142 39,13 81,22 122,24 41,2 81,-2 117,-14 60,-20 110,-63 135,-138 3,-10 14,-15 24,-12 10,3 15,14 12,24 -30,87 -88,137 -159,161 -41,14 -86,18 -131,16 -45,-3 -90,-12 -132,-26 -102,-35 -189,-100 -211,-166z"/>
  <path class="fil24" d="M8111 4229c5,0 9,1 13,1 5,1 7,4 7,7 0,3 -3,5 -7,7 -3,1 -8,1 -13,1 -5,0 -9,-1 -13,-1 -5,-1 -7,-4 -7,-7 0,-3 3,-5 7,-7 3,-1 8,-1 13,-1zm10 8c-3,-1 -6,-1 -10,-1 -4,0 -8,0 -10,1 3,1 6,1 10,1 4,0 8,0 10,-1zm3 0c0,0 0,0 -1,0 0,0 1,0 1,0zm-26 0c0,0 0,0 1,0 0,0 -1,0 -1,0z"/>
  <path class="fil24" d="M8199 4199c5,0 9,1 13,1 5,1 7,4 7,7 0,3 -3,5 -7,7 -3,1 -8,1 -13,1 -5,0 -9,-1 -13,-1 -5,-1 -7,-4 -7,-7 0,-3 3,-5 7,-7 3,-1 8,-1 13,-1zm10 8c-3,-1 -6,-1 -10,-1 -4,0 -8,0 -10,1 3,1 6,1 10,1 4,0 8,0 10,-1zm3 0c0,0 0,0 -1,0 0,0 1,0 1,0zm-26 0c0,0 0,0 1,0 0,0 -1,0 -1,0z"/>
  <path class="fil24" d="M7364 4199c5,0 9,1 13,1 5,1 7,4 7,7 0,3 -3,5 -7,7 -3,1 -8,1 -13,1 -5,0 -9,-1 -13,-1 -5,-1 -7,-4 -7,-7 0,-3 3,-5 7,-7 3,-1 8,-1 13,-1zm10 8c-3,-1 -6,-1 -10,-1 -4,0 -8,0 -10,1 3,1 6,1 10,1 4,0 8,0 10,-1zm3 0c0,0 0,0 -1,0 0,0 1,0 1,0zm-26 0c0,0 0,0 1,0 0,0 -1,0 -1,0z"/>
  <path class="fil24" d="M7623 4117c5,0 9,1 13,1 5,1 7,4 7,7 0,3 -3,5 -7,7 -3,1 -8,1 -13,1 -5,0 -9,-1 -13,-1 -5,-1 -7,-4 -7,-7 0,-3 3,-5 7,-7 3,-1 8,-1 13,-1zm10 8c-3,-1 -6,-1 -10,-1 -4,0 -8,0 -10,1 3,1 6,1 10,1 4,0 8,0 10,-1zm3 0c0,0 0,0 -1,0 0,0 1,0 1,0zm-26 0c0,0 0,0 1,0 0,0 -1,0 -1,0z"/>
  <path class="fil24" d="M7877 4095c5,0 9,1 13,1 5,1 7,4 7,7 0,3 -3,5 -7,7 -3,1 -8,1 -13,1 -5,0 -9,-1 -13,-1 -5,-1 -7,-4 -7,-7 0,-3 3,-5 7,-7 3,-1 8,-1 13,-1zm10 8c-3,-1 -6,-1 -10,-1 -4,0 -8,0 -10,1 3,1 6,1 10,1 4,0 8,0 10,-1zm3 0c0,0 0,0 -1,0 0,0 1,0 1,0zm-26 0c0,0 0,0 1,0 0,0 -1,0 -1,0z"/>
  <path class="fil32" d="M8117 8754l550 -36c47,22 53,95 52,134 -13,325 -507,188 -681,3 -47,-50 -62,-119 -48,-165 8,-26 110,59 127,63z"/>
  <path class="fil37" d="M8112 8675l222 -72c51,22 291,33 348,117 65,96 41,164 -24,204 -158,96 -440,19 -575,-95 -61,-52 -104,-126 -121,-202 63,-19 92,81 150,49z"/>
  <path class="fil15" d="M8546 8689c-134,29 -76,173 -110,95 -31,-70 130,-143 -9,-89 -28,11 -57,101 -69,90 -46,-41 124,-192 2,-98 -22,17 -43,77 -54,104"/>
  <path class="fil53" d="M8548 8699c-78,17 -86,76 -88,99 -1,9 -2,15 -8,17l0 0c-9,4 -14,-4 -25,-28l0 0c-18,-41 19,-81 39,-103 5,-5 11,-1 9,-5 -1,-4 -10,10 -46,23 -12,5 -26,30 -37,52 -7,13 -14,25 -20,32 -7,8 -14,10 -21,4 -28,-24 2,-73 25,-107 -3,3 -6,6 -10,9 -16,12 -33,54 -44,83 -3,7 -5,12 -7,17l-17 -7c2,-5 4,-10 7,-17 12,-31 30,-76 50,-91 36,-28 52,-35 58,-28 5,7 -2,18 -13,34 -18,26 -48,69 -38,89 4,-6 10,-16 15,-26 13,-25 29,-54 47,-61 48,-19 66,-22 70,-12 3,7 -4,14 -13,24 -17,18 -48,51 -36,80 6,-32 25,-82 101,-98l4 18zm-104 100c2,-1 0,-1 -2,-1 -1,1 0,2 2,1l0 0zm-53 -131c4,-2 7,-3 5,-5 -1,-1 -2,1 -5,5z"/>
  <path class="fil32" d="M8294 8497c42,9 40,29 30,37 -21,16 -122,34 -185,58 -111,42 -13,172 48,172 32,0 75,-15 134,-54 31,-21 32,-123 31,-177 -1,-39 -14,-28 -58,-36z"/>
  <path class="fil3 str0" d="M13207 8665c810,0 1466,183 1466,409 0,226 -656,409 -1466,409 -810,0 -1466,-183 -1466,-409 0,-226 656,-409 1466,-409z"/>
  <path class="fil54" d="M13606 9275c-80,-5 -101,79 -105,148 -4,69 48,106 128,110 80,5 171,-33 180,-119 4,-43 -37,-111 -83,-126 -64,-20 -80,-11 -120,-13z"/>
  <path class="fil47" d="M13620 9277c-80,-5 -148,47 -152,116 -4,69 57,128 137,133 80,5 148,-47 152,-116 4,-69 -57,-128 -137,-133z"/>
  <path class="fil48" d="M13610 9325c-50,-3 -93,29 -96,73 -3,43 36,81 86,84 50,3 93,-29 96,-73 3,-43 -36,-81 -86,-84z"/>
  <path class="fil45" d="M13622 9398c24,114 -137,21 -173,19 -132,-8 -156,38 -272,59 -73,13 -139,-44 -82,-85 49,-35 207,-55 321,-50 29,1 200,25 207,57z"/>
  <path class="fil55" d="M12951 8962c-280,-90 -552,-219 -749,-191 -391,55 -258,243 -2,361 495,227 927,312 1468,279 469,-29 543,-153 431,-203 -98,-44 -913,-170 -1149,-246z"/>
  <path class="fil56" d="M12957 8897c-275,-88 -546,-154 -738,-127 -383,54 -250,178 2,293 486,222 909,306 1440,274 460,-28 516,-104 407,-153 -96,-43 -879,-213 -1110,-287z"/>
  <path class="fil54" d="M12183 9126c-70,-4 -88,69 -92,130 -4,60 43,93 113,97 70,4 151,-29 158,-105 4,-38 -33,-98 -73,-110 -56,-18 -71,-10 -106,-12z"/>
  <path class="fil47" d="M12195 9128c-70,-4 -130,41 -134,102 -4,60 50,113 121,117 70,4 130,-41 134,-102 4,-60 -50,-113 -121,-117z"/>
  <path class="fil54" d="M13005 9385c-80,-5 -101,79 -105,148 -4,69 48,106 128,110 80,5 171,-33 180,-119 4,-43 -37,-111 -83,-126 -64,-20 -80,-11 -120,-13z"/>
  <path class="fil47" d="M13018 9388c-80,-5 -148,47 -152,116 -4,69 57,128 137,133 80,5 148,-47 152,-116 4,-69 -57,-128 -137,-133z"/>
  <path class="fil48" d="M13008 9435c-50,-3 -93,29 -96,73 -3,43 36,81 86,84 50,3 93,-29 96,-73 3,-43 -36,-81 -86,-84z"/>
  <path class="fil48" d="M12930 8920l546 81c41,31 32,104 22,142 -103,400 -757,-76 -649,-271 13,-24 64,40 81,48z"/>
  <path class="fil33" d="M12972 8694c-93,0 -169,34 -169,75 0,42 76,75 169,75 93,0 169,-34 169,-75 0,-42 -76,-75 -169,-75z"/>
  <path class="fil54" d="M12941 8840l232 -24c45,33 277,94 315,188 115,287 -341,242 -500,78 -92,-94 -184,-197 -184,-322 65,-5 73,99 136,79z"/>
  <path class="fil15" d="M13363 8947c-137,0 -111,153 -128,69 -15,-75 158,-112 10,-89 -30,5 -77,87 -86,73 -36,-49 161,-161 23,-96 -25,12 -58,66 -75,90"/>
  <path class="fil57" d="M13363 8956c-80,0 -100,57 -108,78 -3,9 -5,14 -11,15 -10,2 -13,-7 -18,-32 -9,-44 36,-75 60,-92 6,-4 11,1 10,-3 -1,-4 -12,7 -50,13 -12,2 -31,24 -48,43 -10,12 -19,22 -26,27 -9,6 -16,7 -22,-1 -22,-30 17,-71 47,-99 -4,2 -7,4 -12,6 -18,9 -43,46 -61,72 -4,6 -8,12 -10,15l-15 -11c3,-5 7,-10 10,-15 19,-28 46,-68 68,-78 41,-20 58,-23 62,-15 4,8 -6,17 -20,30 -23,22 -62,58 -56,79 5,-5 13,-13 21,-23 18,-21 40,-47 59,-50 51,-8 69,-8 71,3 1,8 -7,13 -18,21 -20,14 -57,39 -53,71 13,-30 42,-75 119,-75l0 19zm-123 75c3,-1 0,-1 -1,-1 -1,1 -1,2 1,1zm-24 -139c4,-1 7,-1 6,-4 -1,-2 -2,0 -6,4z"/>
  <path class="fil38" d="M12468 7777c139,0 883,54 775,-257 -227,-47 -616,-193 -875,-128 100,-208 296,-334 355,-625 12,-61 13,-42 18,-116l-5 -13c0,-190 -107,-463 -341,-349 -281,137 -443,795 -496,1290 -26,244 380,199 568,199z"/>
  <path class="fil33" d="M13094 7558c26,-90 79,-153 119,-142 40,11 52,93 26,183 -26,90 -79,153 -119,142 -40,-11 -52,-93 -26,-183z"/>
  <path class="fil48" d="M13322 7580l-71 547c19,48 91,59 130,60 325,8 221,-494 48,-679 -47,-50 -115,-70 -161,-59 -27,6 52,113 55,131z"/>
  <path class="fil54" d="M13243 7570l-86 217c19,52 14,292 94,355 92,71 161,52 205,-11 106,-151 47,-438 -58,-580 -48,-64 -119,-112 -194,-134 -23,61 75,97 39,152z"/>
  <path class="fil15" d="M13230 8004c38,-132 177,-65 101,-104 -68,-35 -151,121 -88,-15 13,-28 104,-50 94,-63 -38,-48 -199,111 -98,-4 18,-21 80,-38 107,-47"/>
  <path class="fil57" d="M13221 8002c21,-74 72,-90 104,-94 -29,-13 -63,15 -82,31 -11,9 -18,15 -25,11 -10,-4 -5,-22 17,-69 8,-18 38,-31 64,-43 11,-5 21,-10 27,-14 -19,-11 -64,16 -91,33 -16,10 -28,17 -34,11 -7,-6 1,-21 31,-56 17,-19 63,-34 94,-44 7,-2 13,-4 17,-6l6 18c-6,2 -11,4 -17,6 -30,10 -73,24 -86,39 -3,4 -6,7 -9,10 35,-21 86,-47 108,-18l0 0c6,8 3,15 -5,21l0 0c-7,5 -19,11 -33,17 -23,10 -49,23 -55,34 -16,34 -30,42 -26,44 3,2 0,-5 5,-9 23,-19 65,-53 105,-32 23,12 31,17 26,26 -3,6 -9,6 -18,7 -23,1 -83,5 -105,82l-18 -5zm123 -94c0,2 0,4 1,2 1,-2 1,-2 -1,-2zm-131 -54c2,2 3,-1 5,-5 -4,3 -6,4 -5,5z"/>
  <path class="fil58" d="M13054 7740c6,42 26,42 35,32 18,-20 42,-119 70,-180 50,-108 172,-2 168,59 -2,32 -19,74 -62,130 -23,29 -125,24 -179,20 -39,-3 -27,-15 -32,-60z"/>
  <path class="fil36" d="M13272 6717c1,46 2,101 -2,162 -43,587 -40,1892 -145,1895 -65,2 -97,35 -136,38 -136,10 -132,-14 -188,-469 -19,-156 -17,-799 -18,-804 -25,-122 -108,-379 -138,-606 -11,-85 -50,-354 -41,-422 10,-72 70,59 117,26 238,-167 480,-236 542,-29 9,31 9,170 10,209z"/>
  <path class="fil58" d="M13157 8705c39,17 33,37 21,43 -24,12 -126,7 -193,18 -118,18 -49,165 11,178 31,7 77,2 142,-24 35,-14 57,-113 68,-167 8,-39 -7,-30 -49,-48z"/>
  <path class="fil38" d="M12784 7716l0 -54c3,2 5,4 6,8 6,23 24,53 45,82 22,30 48,59 69,83 4,5 4,12 -1,17 -5,4 -12,4 -17,-1 -21,-24 -48,-54 -71,-85 -12,-17 -23,-33 -32,-49z"/>
  <path class="fil15" d="M13320 7774c-58,-15 -136,-73 -203,-130"/>
  <path class="fil40" d="M13265 6427c-39,47 -62,79 -113,116l-912 15 8 -129 999 0 18 -1z"/>
  <polygon class="fil41" points="12635,5241 12670,5241 12670,6551 12635,6551 "/>
  <polygon class="fil42" points="12653,5325 12723,5086 12791,4838 12653,4847 12555,4838 "/>
  <path class="fil10" d="M12677 4921c-134,0 -126,-79 -126,-182l0 -127 244 0 0 127c0,103 11,182 -118,182z"/>
  <path class="fil59" d="M11968 3623c401,0 1547,-236 1547,255 0,330 152,1105 -190,1044 -63,-11 -186,24 -280,15 -204,-19 -834,-202 -985,-115 -101,58 -240,-29 -233,-783l141 -417z"/>
  <path class="fil32" d="M12795 2971c421,0 762,256 762,571 0,315 -341,571 -762,571 -421,0 -762,-256 -762,-571 0,-92 -112,-86 -60,-163 126,-186 524,-408 822,-408z"/>
  <path class="fil60" d="M12530 3183c467,0 962,166 962,712 0,315 -541,430 -962,430 -421,0 -762,-256 -762,-571 0,-199 136,-374 342,-476 120,-60 265,-94 420,-94z"/>
  <path class="fil32" d="M13278 5637c41,339 43,807 -4,936l-1108 -16c-61,-586 -75,-729 24,-1310l-14 -29 46 -439c61,-19 137,-29 235,-29l514 0c82,0 151,11 211,30 15,345 59,538 97,857z"/>
  <path class="fil61" d="M13297 6448c-6,54 -14,97 -24,125l-1108 -16c-4,-38 -8,-75 -11,-110l1143 0z"/>
  <polygon class="fil61" points="12658,5133 12780,4838 12641,4847 12544,4838 "/>
  <path class="fil10" d="M12662 4927c-134,0 -126,-79 -126,-182l0 -127 244 0 0 127c0,103 11,182 -118,182z"/>
  <path class="fil8" d="M12636 3565c421,0 762,256 762,571 0,315 -341,571 -762,571 -421,0 -762,-256 -762,-571 0,-315 341,-571 762,-571z"/>
  <path class="fil24" d="M13081 4127c5,0 9,1 13,1 5,1 7,4 7,7 0,3 -3,5 -7,7 -3,1 -8,1 -13,1 -5,0 -9,-1 -13,-1 -5,-1 -7,-4 -7,-7 0,-3 3,-5 7,-7 3,-1 8,-1 13,-1zm10 8c-3,-1 -6,-1 -10,-1 -4,0 -8,0 -10,1 3,1 6,1 10,1 4,0 8,0 10,-1zm3 0c0,0 0,0 -1,0 0,0 1,0 1,0zm-26 0c0,0 0,0 1,0 0,0 -1,0 -1,0z"/>
  <path class="fil24" d="M12313 4131c5,0 9,1 13,1 5,1 7,4 7,7 0,3 -3,5 -7,7 -3,1 -8,1 -13,1 -5,0 -9,-1 -13,-1 -5,-1 -7,-4 -7,-7 0,-3 3,-5 7,-7 3,-1 8,-1 13,-1zm10 8c-3,-1 -6,-1 -10,-1 -4,0 -8,0 -10,1 3,1 6,1 10,1 4,0 8,0 10,-1zm3 0c0,0 0,0 -1,0 0,0 1,0 1,0zm-26 0c0,0 0,0 1,0 0,0 -1,0 -1,0z"/>
  <path class="fil24" d="M12416 4191c5,0 9,1 13,1 5,1 7,4 7,7 0,3 -3,5 -7,7 -3,1 -8,1 -13,1 -5,0 -9,-1 -13,-1 -5,-1 -7,-4 -7,-7 0,-3 3,-5 7,-7 3,-1 8,-1 13,-1zm10 8c-3,-1 -6,-1 -10,-1 -4,0 -8,0 -10,1 3,1 6,1 10,1 4,0 8,0 10,-1zm3 0c0,0 0,0 -1,0 0,0 1,0 1,0zm-26 0c0,0 0,0 1,0 0,0 -1,0 -1,0z"/>
  <path class="fil24" d="M12915 4105c5,0 9,1 13,1 5,1 7,4 7,7 0,3 -3,5 -7,7 -3,1 -8,1 -13,1 -5,0 -9,-1 -13,-1 -5,-1 -7,-4 -7,-7 0,-3 3,-5 7,-7 3,-1 8,-1 13,-1zm10 8c-3,-1 -6,-1 -10,-1 -4,0 -8,0 -10,1 3,1 6,1 10,1 4,0 8,0 10,-1zm3 0c0,0 0,0 -1,0 0,0 1,0 1,0zm-26 0c0,0 0,0 1,0 0,0 -1,0 -1,0z"/>
  <path class="fil24" d="M12997 4146c5,0 9,1 13,1 5,1 7,4 7,7 0,3 -3,5 -7,7 -3,1 -8,1 -13,1 -5,0 -9,-1 -13,-1 -5,-1 -7,-4 -7,-7 0,-3 3,-5 7,-7 3,-1 8,-1 13,-1zm10 8c-3,-1 -6,-1 -10,-1 -4,0 -8,0 -10,1 3,1 6,1 10,1 4,0 8,0 10,-1zm3 0c0,0 0,0 -1,0 0,0 1,0 1,0zm-26 0c0,0 0,0 1,0 0,0 -1,0 -1,0z"/>
  <path class="fil29" d="M12600 4164c0,-6 5,-11 11,-10 6,0 11,5 10,11 -1,28 11,48 26,57 6,3 12,5 19,5 6,0 13,-2 19,-6 17,-11 31,-38 31,-84 0,-6 5,-11 11,-11 6,0 11,5 11,11 0,55 -18,88 -42,102 -10,6 -20,9 -31,9 -10,0 -21,-3 -30,-8 -21,-13 -38,-39 -36,-76z"/>
  <path class="fil59" d="M11823 4015c-7,160 291,-88 427,-295 0,145 -319,385 42,173 183,-108 289,-168 262,-328 -1,-4 -712,50 -730,450z"/>
  <path class="fil55" d="M12731 3565c-5,57 98,297 170,63 2,0 78,100 197,216 136,133 308,240 175,-28 -102,-205 -542,-251 -542,-251z"/>
  <path class="fil8" d="M11853 4024c51,0 92,59 92,132 0,73 -41,132 -92,132 -51,0 -92,-59 -92,-132 0,-73 41,-132 92,-132z"/>
  <path class="fil15" d="M12782 7497c12,84 101,214 163,298"/>
  <path class="fil52" d="M12770 7498c-1,-6 4,-12 10,-13 6,-1 12,4 13,10 6,40 30,92 61,145 31,53 69,106 100,148 4,5 3,13 -3,16 -5,4 -13,3 -16,-3 -31,-42 -69,-96 -101,-150 -32,-55 -58,-110 -64,-154z"/>
  <path class="fil15" d="M12779 7672c12,50 74,123 117,170"/>
  <path class="fil19" d="M13147 4104c-7,42 29,83 79,91 50,8 97,-19 104,-61 7,-42 -29,-83 -79,-91 -50,-8 -97,19 -104,61z"/>
  <path class="fil15" d="M13066 3882c-46,-9 -140,7 -139,53 1,28 39,59 155,78"/>
  <path class="fil23" d="M13071 3859c13,2 21,15 19,27 -2,13 -15,21 -27,19 -8,-1 -17,-2 -27,-2 -20,0 -42,4 -60,11 -13,5 -23,12 -25,19l0 0 0 0c0,1 0,1 0,2 0,7 8,15 28,25 22,11 57,22 107,30 13,2 21,14 19,27 -2,13 -14,21 -27,19 -55,-9 -94,-21 -121,-35 -38,-19 -53,-43 -53,-66 0,-4 0,-8 1,-12l0 0c5,-25 26,-43 54,-53 23,-9 51,-14 76,-14 13,0 26,1 36,3z"/>
  <path class="fil47" d="M12327 3716c0,15 21,33 45,24 27,-10 107,6 128,18 18,11 32,-14 11,-45 -16,-24 -57,-46 -130,-35 -30,5 -53,16 -54,37z"/>
  <path class="fil15" d="M12754 4414c-13,40 -129,79 -155,4"/>
  <path class="fil29" d="M12736 4408c3,-10 14,-15 24,-12 10,3 15,14 12,24 -7,21 -33,42 -63,52 -12,4 -25,7 -38,8 -13,1 -27,-1 -39,-5 -22,-7 -41,-23 -50,-51 -3,-10 2,-20 12,-24 10,-3 20,2 24,12 5,15 15,23 26,27 8,3 16,3 25,3 9,-1 19,-3 28,-6 20,-7 36,-18 40,-28z"/>
  <path class="fil24" d="M13003 4229c5,0 9,1 13,1 5,1 7,4 7,7 0,3 -3,5 -7,7 -3,1 -8,1 -13,1 -5,0 -9,-1 -13,-1 -5,-1 -7,-4 -7,-7 0,-3 3,-5 7,-7 3,-1 8,-1 13,-1zm10 8c-3,-1 -6,-1 -10,-1 -4,0 -8,0 -10,1 3,1 6,1 10,1 4,0 8,0 10,-1zm3 0c0,0 0,0 -1,0 0,0 1,0 1,0zm-26 0c0,0 0,0 1,0 0,0 -1,0 -1,0z"/>
  <path class="fil24" d="M13091 4199c5,0 9,1 13,1 5,1 7,4 7,7 0,3 -3,5 -7,7 -3,1 -8,1 -13,1 -5,0 -9,-1 -13,-1 -5,-1 -7,-4 -7,-7 0,-3 3,-5 7,-7 3,-1 8,-1 13,-1zm10 8c-3,-1 -6,-1 -10,-1 -4,0 -8,0 -10,1 3,1 6,1 10,1 4,0 8,0 10,-1zm3 0c0,0 0,0 -1,0 0,0 1,0 1,0zm-26 0c0,0 0,0 1,0 0,0 -1,0 -1,0z"/>
  <path class="fil24" d="M12256 4199c5,0 9,1 13,1 5,1 7,4 7,7 0,3 -3,5 -7,7 -3,1 -8,1 -13,1 -5,0 -9,-1 -13,-1 -5,-1 -7,-4 -7,-7 0,-3 3,-5 7,-7 3,-1 8,-1 13,-1zm10 8c-3,-1 -6,-1 -10,-1 -4,0 -8,0 -10,1 3,1 6,1 10,1 4,0 8,0 10,-1zm3 0c0,0 0,0 -1,0 0,0 1,0 1,0zm-26 0c0,0 0,0 1,0 0,0 -1,0 -1,0z"/>
  <path class="fil24" d="M12515 4117c5,0 9,1 13,1 5,1 7,4 7,7 0,3 -3,5 -7,7 -3,1 -8,1 -13,1 -5,0 -9,-1 -13,-1 -5,-1 -7,-4 -7,-7 0,-3 3,-5 7,-7 3,-1 8,-1 13,-1zm10 8c-3,-1 -6,-1 -10,-1 -4,0 -8,0 -10,1 3,1 6,1 10,1 4,0 8,0 10,-1zm3 0c0,0 0,0 -1,0 0,0 1,0 1,0zm-26 0c0,0 0,0 1,0 0,0 -1,0 -1,0z"/>
  <path class="fil24" d="M12769 4095c5,0 9,1 13,1 5,1 7,4 7,7 0,3 -3,5 -7,7 -3,1 -8,1 -13,1 -5,0 -9,-1 -13,-1 -5,-1 -7,-4 -7,-7 0,-3 3,-5 7,-7 3,-1 8,-1 13,-1zm10 8c-3,-1 -6,-1 -10,-1 -4,0 -8,0 -10,1 3,1 6,1 10,1 4,0 8,0 10,-1zm3 0c0,0 0,0 -1,0 0,0 1,0 1,0zm-26 0c0,0 0,0 1,0 0,0 -1,0 -1,0z"/>
  <path class="fil15" d="M12121 7774c58,-15 136,-73 203,-130"/>
  <path class="fil15 str2" d="M12086 7727c77,-36 175,-160 237,-244"/>
  <path class="fil8" d="M12166 5083c-125,-412 -505,-1519 -190,-1919 119,-151 110,-357 -91,-154 3,12 42,-54 53,-104 12,-56 -21,-103 -94,3 -46,67 -38,217 -22,15 3,-31 3,-130 -51,-70 -56,62 -18,331 -46,107 -23,-186 -97,-52 -74,124 48,370 -72,719 -21,1196 26,244 156,934 493,961 39,3 71,-49 42,-160z"/>
  <path class="fil8" d="M13267 5036c35,-134 -63,-153 9,-403 149,-518 295,-1164 92,-1434 -116,-154 -110,-357 91,-154 -3,12 -42,-54 -53,-104 -12,-56 21,-103 94,3 46,67 38,217 22,15 -3,-31 -3,-130 51,-70 56,62 18,331 46,107 23,-186 97,-52 74,124 -48,370 72,719 21,1196 -26,244 -153,732 -414,778 -39,7 -63,51 -33,-60z"/>
  <path class="fil15" d="M12293 3882c46,-9 140,7 139,53 -1,28 -39,59 -155,78"/>
  <path class="fil23" d="M12297 3905c-13,2 -25,-6 -27,-19 -2,-13 6,-25 19,-27 10,-2 23,-3 36,-3 25,0 53,5 76,14 27,11 49,28 54,53l0 0c1,4 1,7 1,12 0,24 -16,47 -53,66 -26,13 -65,25 -121,35 -13,2 -25,-7 -27,-19 -2,-13 7,-25 19,-27 50,-8 85,-19 107,-30 20,-10 28,-18 28,-25 0,0 0,-1 0,-2l0 0 0 0c-1,-7 -11,-13 -25,-19 -18,-7 -40,-11 -60,-11 -10,0 -19,0 -27,2z"/>
  <path class="fil19" d="M11992 4087c-7,42 29,83 79,91 50,8 97,-19 104,-61 7,-42 -29,-83 -79,-91 -50,-8 -97,19 -104,61z"/>
  <path class="fil62" d="M11921 4192l-349 -49c41,341 -140,590 582,1324l121 -698c-10,-2 -130,-138 -250,-304 -87,-121 -107,-272 -104,-272z"/>
  <path class="fil63" d="M11921 4192l-349 -49c6,50 9,99 12,147l375 51c-32,-81 -40,-149 -38,-149z"/>
  <path class="fil62" d="M13390 4192l349 -49c-41,341 246,614 -476,1348l-222 -731c10,-2 125,-129 245,-296 87,-121 107,-272 104,-272z"/>
  <path class="fil63" d="M13390 4192l349 -49c-5,46 -8,90 -11,134l-371 51c28,-75 35,-135 33,-136z"/>
  <path class="fil55" d="M13030 4740c42,2 55,-19 166,-168 82,-111 176,-189 199,-361 5,-39 11,-108 -5,-175 -30,-126 -150,-283 -200,-312 -14,-8 -85,74 -72,129 0,0 146,149 173,199 105,194 11,339 -124,490 -78,87 -246,192 -137,199z"/>
  <path class="fil54" d="M12128 6211c3,85 133,-440 149,-500 54,-211 124,-583 128,-860 3,-261 -252,-235 -223,-182 50,90 -26,622 -58,1064 -14,190 0,363 4,478z"/>
  <path class="fil54" d="M13309 6209c6,84 -157,-425 -179,-483 -77,-204 -186,-566 -219,-841 -31,-259 226,-261 202,-205 -38,90 102,545 172,965 36,217 14,435 24,564z"/>
  <path class="fil64" d="M13422 6116l-108 66c45,118 110,255 149,355 120,-58 130,22 16,-273 -20,-52 -40,-103 -57,-148z"/>
  <path class="fil65" d="M13234 6089c58,293 285,-19 157,-76 -35,-16 -165,33 -157,76z"/>
  <path class="fil64" d="M12000 6116l108 66c-45,118 -110,255 -149,355 -120,-58 -130,22 -16,-273 20,-52 40,-103 57,-148z"/>
  <path class="fil65" d="M12188 6089c-58,293 -285,-19 -157,-76 35,-16 165,33 157,76z"/>
  <path class="fil47" d="M13021 3781c0,15 -21,33 -45,24 -27,-10 -107,6 -128,18 -18,11 -32,-14 -11,-45 16,-24 57,-46 130,-35 30,5 53,16 54,37z"/>
  <path class="fil3" d="M18039 8895c-1033,0 -1871,158 -1871,352 0,194 838,352 1871,352 1033,0 1871,-158 1871,-352 0,-194 -838,-352 -1871,-352z"/>
  <path class="fil2" d="M17819 4677l328 170c118,11 453,298 453,543 0,180 101,163 149,313 464,1443 -1983,1270 -1722,-324 63,-385 519,-449 742,-684 12,-13 31,-20 49,-19z"/>
  <path class="fil66" d="M17735 7426c-33,18 -55,52 -55,91l0 0c0,57 47,104 104,104l476 0c57,0 104,-47 104,-104l0 0c0,-44 -28,-82 -67,-97l-149 -869c-28,-3 -95,-64 -167,-129 -107,-98 -168,-142 -256,-160 -156,-33 -366,-37 -485,84 -56,57 -97,132 -113,202 -45,200 -102,770 -113,875 -36,16 -61,53 -61,95l0 0c0,57 47,104 104,104l476 0c57,0 104,-47 104,-104l0 0c0,-42 -25,-78 -61,-95l0 -444c0,-205 159,-212 159,23l0 424z"/>
  <path class="fil67" d="M16716 5220l247 400 183 -312 -14 1231 1026 18 -79 -1299 172 435 254 -268c-196,-442 -155,-676 -637,-676l-514 0c-334,0 -349,260 -636,470z"/>
  <path class="fil6" d="M18196 4921c-174,269 223,1369 47,1606 -59,79 -224,-557 -242,-627 -63,-246 -145,-679 -149,-1001 -1,-84 -10,-194 -8,-227 1,-20 351,29 399,152 10,25 -29,68 -47,96z"/>
  <path class="fil6" d="M18151 6491l125 23c0,126 -11,278 -11,385 -133,-11 -113,67 -113,-249 0,-55 0,-111 0,-159z"/>
  <path class="fil7" d="M18308 6399c51,294 -273,84 -174,-15 27,-27 166,-28 174,15z"/>
  <path class="fil8" d="M18265 5666l156 -155c2,-2 16,105 24,160 25,190 18,432 -9,465 -194,228 -417,-498 -471,-613 -26,-55 -55,-99 -93,-120 -157,-85 -63,-175 -68,-303 -2,-63 93,-2 130,51 37,52 53,61 76,53 71,-27 -49,-101 15,-126 22,-9 87,-4 79,208 0,6 -3,42 9,72 25,65 155,340 154,309z"/>
  <path class="fil9" d="M18261 5662l161 -152c3,-2 16,105 24,160 25,190 18,432 -9,465 -13,16 -27,27 -39,35 58,-12 55,-167 18,-279 -38,-112 -111,-180 -155,-228 -2,-2 0,-1 1,-2z"/>
  <path class="fil10" d="M17719 4921c134,0 126,-79 126,-182l0 -127 -244 0 0 127c0,103 -11,182 118,182z"/>
  <path class="fil5" d="M17962 8930l546 81c41,31 32,104 22,142 -103,400 -757,-76 -649,-271 13,-24 64,40 81,48z"/>
  <path class="fil11" d="M18004 8704c-93,0 -169,34 -169,75 0,42 76,75 169,75 93,0 169,-34 169,-75 0,-42 -76,-75 -169,-75z"/>
  <path class="fil8" d="M18193 8008c-1,192 -11,404 -36,562 -11,68 5,225 -11,268 -29,74 -168,90 -218,40 -4,-4 -32,-333 -48,-406 -94,-428 -110,-1101 184,-993 113,42 131,183 129,530z"/>
  <path class="fil12" d="M17974 8851l232 -24c45,33 277,94 315,188 115,287 -341,242 -500,78 -92,-94 -184,-197 -184,-322 65,-5 73,99 136,79z"/>
  <path class="fil13" d="M18189 8715c39,17 33,37 21,43 -24,12 -126,7 -193,18 -118,18 -49,165 11,178 31,7 77,2 142,-24 35,-14 57,-113 68,-167 8,-39 -7,-30 -49,-48z"/>
  <path class="fil10" d="M17554 6883c2,5 23,19 23,24 2,91 -107,72 -162,-11 -26,-39 -140,-137 -191,-217 -43,-66 -170,-263 9,-247 38,3 270,344 297,418 4,11 10,3 25,34z"/>
  <path class="fil68" d="M17179 6449c89,131 327,501 326,507 -5,43 -257,132 -337,223 -31,36 -89,79 -173,115 -37,16 -120,78 -142,51 -96,-115 -308,-403 -311,-487 -3,-78 427,-351 521,-403 86,-47 77,-67 116,-8z"/>
  <path class="fil69" d="M17607 6904l-27 20c-18,-16 -340,-481 -343,-509 -1,-13 6,-21 25,-23 29,-2 133,172 204,297 7,12 131,231 141,215z"/>
  <path class="fil69" d="M16843 7335l666 -393c174,-110 97,25 -84,114 -116,57 -540,404 -582,279z"/>
  <path class="fil70" d="M17460 6812c2,5 23,19 23,24 2,91 -107,72 -162,-11 -26,-39 -140,-137 -191,-217 -43,-66 -170,-263 9,-247 38,3 270,344 297,418 4,11 10,3 25,34z"/>
  <path class="fil33" d="M17085 6377c89,131 327,501 326,507 -5,43 -257,132 -337,223 -31,36 -89,79 -173,115 -37,16 -120,78 -142,51 -96,-115 -308,-403 -311,-487 -3,-78 427,-351 521,-403 86,-47 76,-67 116,-8z"/>
  <path class="fil71" d="M17514 6832l-27 20c-18,-16 -340,-481 -343,-509 -1,-13 6,-21 25,-23 29,-2 133,172 204,297 7,12 131,231 141,215z"/>
  <path class="fil72" d="M16750 7264l666 -393c174,-110 97,25 -84,114 -116,57 -540,404 -582,279z"/>
  <path class="fil8" d="M16964 5615c-32,97 -12,35 -38,133 -22,81 -145,563 -49,593 166,53 49,45 18,95 -13,21 -11,57 16,98 91,139 75,313 -87,127 4,-10 33,49 40,92 8,49 -23,88 -80,-8 -36,-60 -21,-189 -18,-14 1,27 -4,112 -48,57 -45,-57 2,-286 -34,-95 -30,159 -86,39 -57,-111 39,-203 3,-658 43,-988 11,-86 32,-197 67,-268l20 -40c7,-13 185,302 206,327z"/>
  <path class="fil5" d="M17318 8922l-546 76c-41,31 -33,103 -24,142 99,401 758,-68 651,-264 -13,-24 -65,39 -81,47z"/>
  <path class="fil11" d="M17279 8696c93,1 169,35 168,77 0,42 -76,75 -170,74 -93,-1 -169,-35 -168,-77 0,-42 76,-75 170,-74z"/>
  <path class="fil8" d="M17097 7998c-1,192 7,404 30,562 10,68 -8,225 8,268 28,74 167,92 218,42 4,-4 35,-332 52,-406 98,-427 122,-1100 -174,-995 -113,40 -132,182 -134,528z"/>
  <path class="fil12" d="M17308 8843l-232 -26c-45,32 -278,91 -317,185 -118,285 338,245 499,83 92,-93 186,-195 187,-320 -65,-6 -74,98 -137,78z"/>
  <path class="fil13" d="M17094 8705c-39,17 -33,37 -21,42 24,12 126,9 192,20 118,19 47,166 -13,178 -31,6 -77,1 -142,-26 -34,-14 -56,-114 -66,-167 -7,-39 8,-30 50,-47z"/>
  <path class="fil15" d="M16897 8941c137,1 109,154 127,70 16,-75 -157,-114 -9,-89 30,5 76,87 86,74 37,-49 -160,-163 -22,-96 25,12 57,67 74,91"/>
  <path class="fil16" d="M16897 8932c77,1 106,46 118,76 5,-31 -32,-57 -52,-71 -11,-8 -19,-13 -18,-21l0 0c2,-11 20,-10 71,-2 19,3 41,29 59,50 8,9 15,18 20,23 6,-21 -33,-57 -55,-79 -14,-13 -23,-22 -20,-30l0 0c4,-8 21,-4 62,16 23,11 49,51 67,79 4,5 7,10 10,15l-15 11c-3,-4 -6,-9 -10,-15 -17,-26 -42,-64 -60,-73 -5,-2 -9,-4 -12,-7 29,28 68,70 46,100 -6,8 -13,7 -22,1 -7,-5 -16,-16 -26,-27 -16,-19 -35,-42 -47,-44 -37,-6 -49,-18 -49,-14l0 0c-1,4 4,-1 10,3 24,17 68,48 59,93 -5,25 -9,34 -19,32l0 0c-6,-1 -8,-7 -11,-15 -7,-22 -27,-79 -107,-80l0 -19zm123 94c-2,1 -4,1 -1,1l0 0c2,0 2,0 1,-1zm18 -141c-1,3 2,2 6,4 -4,-4 -5,-5 -6,-4l0 0z"/>
  <path class="fil73" d="M17014 7420l0 3c-36,16 -61,53 -61,95l0 0c0,57 47,104 104,104l476 0c57,0 104,-47 104,-104l0 0c0,-42 -25,-78 -61,-95l0 -3 -562 0z"/>
  <path class="fil73" d="M17735 7426c-33,18 -55,52 -55,91l0 0c0,57 47,104 104,104l476 0c57,0 104,-47 104,-104l0 0c0,-44 -28,-82 -67,-97l0 -1 -562 0 0 6z"/>
  <path class="fil74" d="M16793 3700c0,542 350,412 771,412 421,0 762,-256 762,-571 0,-92 229,68 177,-10 -592,-891 -1710,-374 -1710,169z"/>
  <path class="fil75" d="M17213 4845c-108,119 -143,-268 -94,-510 -102,102 -46,498 -152,93 -54,-206 -86,-323 47,-417 3,-2 469,538 199,834z"/>
  <path class="fil75" d="M18318 4855c88,96 116,-217 76,-414 83,83 37,404 123,76 44,-167 70,-262 -38,-338 -2,-2 -380,437 -161,677z"/>
  <path class="fil8" d="M17760 3565c-421,0 -762,256 -762,571 0,315 341,571 762,571 421,0 762,-256 762,-571 0,-315 -341,-571 -762,-571z"/>
  <path class="fil19" d="M17106 4176c-43,0 -77,41 -77,92 0,51 35,92 77,92 43,0 77,-41 77,-92 0,-51 -35,-92 -77,-92z"/>
  <path class="fil75 str3" d="M17625 3743c-3,15 -28,27 -49,13 -24,-16 -105,-19 -129,-12 -20,6 -28,-21 0,-46 22,-20 66,-31 135,-4 28,11 48,28 44,48z"/>
  <path class="fil19" d="M18414 4171c-43,0 -77,41 -77,92 0,51 35,92 77,92 43,0 77,-41 77,-92 0,-51 -35,-92 -77,-92z"/>
  <path class="fil24" d="M17316 4127c-5,0 -9,1 -13,1 -5,1 -7,4 -7,7 0,3 3,5 7,7 3,1 8,1 13,1 5,0 9,-1 13,-1 5,-1 7,-4 7,-7 0,-3 -3,-5 -7,-7 -3,-1 -8,-1 -13,-1zm-10 8c3,-1 6,-1 10,-1 4,0 8,0 10,1 -3,1 -6,1 -10,1 -4,0 -8,0 -10,-1zm-3 0c0,0 0,0 1,0 0,0 -1,0 -1,0zm26 0c0,0 0,0 -1,0 0,0 1,0 1,0z"/>
  <path class="fil24" d="M18083 4131c-5,0 -9,1 -13,1 -5,1 -7,4 -7,7 0,3 3,5 7,7 3,1 8,1 13,1 5,0 9,-1 13,-1 5,-1 7,-4 7,-7 0,-3 -3,-5 -7,-7 -3,-1 -8,-1 -13,-1zm-10 8c3,-1 6,-1 10,-1 4,0 8,0 10,1 -3,1 -6,1 -10,1 -4,0 -8,0 -10,-1zm-3 0c0,0 0,0 1,0 0,0 -1,0 -1,0zm26 0c0,0 0,0 -1,0 0,0 1,0 1,0z"/>
  <path class="fil24" d="M17981 4191c-5,0 -9,1 -13,1 -5,1 -7,4 -7,7 0,3 3,5 7,7 3,1 8,1 13,1 5,0 9,-1 13,-1 5,-1 7,-4 7,-7 0,-3 -3,-5 -7,-7 -3,-1 -8,-1 -13,-1zm-10 8c3,-1 6,-1 10,-1 4,0 8,0 10,1 -3,1 -6,1 -10,1 -4,0 -8,0 -10,-1zm-3 0c0,0 0,0 1,0 0,0 -1,0 -1,0zm26 0c0,0 0,0 -1,0 0,0 1,0 1,0z"/>
  <path class="fil24" d="M17482 4105c-5,0 -9,1 -13,1 -5,1 -7,4 -7,7 0,3 3,5 7,7 3,1 8,1 13,1 5,0 9,-1 13,-1 5,-1 7,-4 7,-7 0,-3 -3,-5 -7,-7 -3,-1 -8,-1 -13,-1zm-10 8c3,-1 6,-1 10,-1 4,0 8,0 10,1 -3,1 -6,1 -10,1 -4,0 -8,0 -10,-1zm-3 0c0,0 0,0 1,0 0,0 -1,0 -1,0zm26 0c0,0 0,0 -1,0 0,0 1,0 1,0z"/>
  <path class="fil24" d="M17399 4146c-5,0 -9,1 -13,1 -5,1 -7,4 -7,7 0,3 3,5 7,7 3,1 8,1 13,1 5,0 9,-1 13,-1 5,-1 7,-4 7,-7 0,-3 -3,-5 -7,-7 -3,-1 -8,-1 -13,-1zm-10 8c3,-1 6,-1 10,-1 4,0 8,0 10,1 -3,1 -6,1 -10,1 -4,0 -8,0 -10,-1zm-3 0c0,0 0,0 1,0 0,0 -1,0 -1,0zm26 0c0,0 0,0 -1,0 0,0 1,0 1,0z"/>
  <path class="fil29" d="M17759 4175c2,-6 -1,-12 -6,-14 -6,-2 -12,1 -14,6 -10,26 -29,40 -46,42 -7,1 -14,0 -19,-3 -6,-3 -11,-7 -15,-13 -12,-17 -14,-47 4,-90 2,-5 0,-12 -6,-14 -5,-2 -12,0 -14,6 -22,51 -18,88 -2,110 6,9 15,16 25,20 10,4 20,6 31,4 25,-3 50,-21 64,-56z"/>
  <path class="fil75" d="M18099 3708c0,15 -22,32 -46,22 -27,-12 -107,1 -129,13 -19,10 -31,-15 -9,-45 17,-23 59,-43 132,-29 29,6 52,19 52,39z"/>
  <path class="fil15" d="M18384 8953c-137,0 -111,153 -128,69 -15,-75 158,-112 10,-89 -30,5 -77,87 -86,73 -36,-49 161,-161 23,-96 -25,12 -58,66 -75,90"/>
  <path class="fil16" d="M18384 8962c-80,0 -100,57 -108,78 -3,9 -5,14 -11,15 -10,2 -13,-7 -18,-32 -9,-44 36,-75 60,-92 6,-4 11,1 10,-3 -1,-4 -12,7 -50,13 -12,2 -32,24 -48,43 -10,12 -19,22 -26,27 -9,6 -16,7 -22,-1 -22,-30 17,-71 47,-99 -4,2 -7,4 -12,6 -18,9 -43,46 -61,72 -4,6 -8,12 -10,15l-15 -11c3,-5 7,-10 10,-15 19,-28 46,-68 68,-78 41,-20 58,-23 62,-15 4,8 -6,17 -20,30 -23,22 -62,58 -56,79 5,-5 13,-13 21,-23 18,-21 40,-47 59,-50 51,-8 69,-8 71,3 1,8 -7,13 -18,21 -20,14 -57,39 -53,71 13,-30 42,-75 119,-75l0 19zm-123 75c3,-1 0,-1 -1,-1 -1,1 -1,2 1,1zm-24 -139c4,-1 7,-1 6,-4 -1,-2 -2,0 -6,4z"/>
  <path class="fil8" d="M16972 3989c51,0 92,59 92,132 0,73 -41,132 -92,132 -51,0 -92,-59 -92,-132 0,-73 41,-132 92,-132z"/>
  <path class="fil8" d="M18531 3989c51,0 92,59 92,132 0,73 -41,132 -92,132 -51,0 -92,-59 -92,-132 0,-73 41,-132 92,-132z"/>
  <path class="fil75" d="M17090 3677c6,0 12,0 18,1 -1,-7 -2,-14 -2,-22 0,-73 51,-132 113,-132 28,0 53,12 73,31 11,-45 47,-77 89,-77 51,0 93,48 93,108 0,59 -41,108 -93,108 -18,0 -35,-6 -50,-17 -8,58 -48,104 -99,110 8,21 12,45 12,69 0,99 -69,179 -154,179 -85,0 -154,-80 -154,-179 0,-99 69,-179 154,-179z"/>
  <path class="fil75" d="M18307 3569c-28,0 -53,12 -73,31 -11,-45 -47,-77 -89,-77 -51,0 -93,48 -93,108 0,59 41,108 93,108 18,0 35,-6 50,-17 8,58 48,104 99,110 -8,21 -12,45 -12,69 0,99 69,179 154,179 178,0 258,-426 40,-393 -173,26 -52,34 -57,35 1,-7 2,-14 2,-22 0,-73 -51,-132 -113,-132z"/>
  <path class="fil71" d="M17825 3183c-467,0 -962,166 -962,712 0,96 50,173 132,235 5,-312 370,-564 762,-564 392,0 732,175 805,432 157,-200 -81,-603 -317,-720 -120,-60 -265,-94 -420,-94z"/>
  <path class="fil15" d="M16923 3515c-14,83 97,340 206,293"/>
  <path class="fil76" d="M16935 3517c-5,30 8,84 31,138 15,36 35,70 58,97 22,26 45,44 69,48 11,2 21,1 32,-4l9 22c-15,6 -30,8 -45,6 -30,-5 -58,-27 -83,-56 -24,-29 -45,-66 -61,-103 -25,-58 -38,-117 -32,-151l23 4z"/>
  <path class="fil15" d="M17047 3390c185,50 278,100 278,278"/>
  <path class="fil76" d="M17050 3378c94,25 165,51 213,94 49,43 74,103 74,196l-24 0c0,-85 -22,-139 -66,-178 -45,-40 -113,-64 -204,-88l6 -23z"/>
  <path class="fil15" d="M17197 3295c111,-66 322,100 342,275"/>
  <path class="fil76" d="M17191 3285c14,-9 30,-14 47,-16 45,-5 97,12 145,44 47,31 92,77 123,130 23,39 40,82 45,126l-23 3c-5,-40 -20,-80 -41,-116 -30,-50 -71,-93 -116,-122 -44,-29 -90,-45 -129,-40 -14,2 -26,6 -38,13l-12 -20z"/>
  <path class="fil65" d="M17885 4418c25,179 -157,159 -141,1 11,-105 111,-210 141,-1z"/>
  <path class="fil77" d="M17331 3924c31,0 56,15 56,34 0,19 -25,34 -56,34 -31,0 -56,-15 -56,-34 0,-19 25,-34 56,-34z"/>
  <path class="fil77" d="M18169 3922c32,0 59,16 59,35 0,19 -26,35 -59,35 -32,0 -59,-16 -59,-35 0,-19 26,-35 59,-35z"/>
  <path class="fil70" d="M19245 8110c351,0 635,284 635,635 0,351 -284,635 -635,635 -351,0 -635,-284 -635,-635 0,-351 284,-635 635,-635z"/>
  <path class="fil77" d="M19580 9285c-12,7 -23,14 -35,20 10,-15 19,-29 27,-44 30,-56 49,-116 74,-222l-8 -6c2,-2 3,-4 3,-5 2,-3 3,-5 5,-6l0 0c6,-6 11,-6 18,2l3 4 -1 5c-26,114 -46,178 -78,237 -3,5 -5,10 -8,14z"/>
  <path class="fil77" d="M18628 8595c26,-108 80,-205 153,-283l21 39 59 109 -86 83 -86 83 -61 -31z"/>
  <path class="fil77" d="M18904 9281c-136,-87 -238,-225 -277,-386l141 -27 148 -28 79 128 79 128 -99 107 -72 77z"/>
  <path class="fil77" d="M19678 8281c90,84 156,195 185,319l-116 -16 -125 -17 -23 -118 -23 -118 102 -52z"/>
  <path class="fil77" d="M19822 9010c-8,17 -16,34 -26,50l-74 47 -106 68 -94 -74 -94 -74 48 -114 48 -114 124 4 124 4 28 117 21 88z"/>
  <polygon class="fil77" points="19154,8222 19256,8292 19358,8362 19319,8476 19280,8589 19154,8589 19027,8589 18988,8476 18949,8362 19051,8292 "/>
  <path class="fil15" d="M18908 8947c-22,-71 68,-335 123,-376"/>
  <path class="fil23" d="M18899 8949c-11,-37 5,-120 31,-201 27,-83 66,-164 96,-186l11 15c-27,20 -63,97 -89,177 -25,77 -41,156 -31,189l-18 6z"/>
  <path class="fil15" d="M19205 8527c206,126 236,146 357,344 -3,7 -5,2 -14,-4"/>
  <path class="fil23" d="M19210 8519c103,63 163,100 212,146 49,46 87,101 148,201l3 4 -2 4c-4,9 -9,11 -17,8l0 0c-2,-1 -4,-2 -7,-5 -1,-1 -3,-2 -5,-4l6 -8c-56,-92 -93,-144 -139,-188 -48,-45 -107,-81 -209,-144l10 -16z"/>
  <path class="fil15" d="M19254 8382c28,3 487,-89 384,-57"/>
  <path class="fil23" d="M19255 8373c11,1 103,-15 195,-31 104,-18 208,-37 212,-25 2,7 -4,13 -21,18l-4 -12c-24,4 -103,23 -183,38 -94,17 -187,33 -201,32l2 -19zm389 -51c0,0 -1,0 -1,0 1,2 2,2 1,0z"/>
  <path class="fil15" d="M18986 8344c-29,19 -186,174 -197,164"/>
  <path class="fil23" d="M18991 8352c-10,7 -39,33 -71,62 -57,52 -123,112 -137,102l12 -15c1,1 61,-54 112,-101 33,-30 62,-57 74,-64l10 16z"/>
  <path class="fil15" d="M19021 9091c241,0 278,-1 484,-108 1,-7 -3,-4 -14,-4"/>
  <path class="fil23" d="M19021 9082c120,0 189,-1 253,-14 62,-13 120,-38 217,-88l-1 -10c3,0 5,0 6,-1 3,0 5,-1 8,0l0 0c9,1 11,5 10,15l-1 5 -4 2c-104,54 -165,81 -231,95 -66,14 -136,14 -257,14l0 -19z"/>
  <path class="fil15" d="M19425 9469c156,-184 179,-212 232,-438 -5,-5 -5,-1 -12,8"/>
  <path class="fil15" d="M16956 6494c7,7 18,22 29,21"/>
 </g>
</svg>
