<?xml version="1.0" encoding="UTF-8"?>
<!DOCTYPE svg PUBLIC "-//W3C//DTD SVG 1.1//EN" "http://www.w3.org/Graphics/SVG/1.1/DTD/svg11.dtd">
<!-- Creator: CorelDRAW X6 -->
<svg xmlns="http://www.w3.org/2000/svg" xml:space="preserve" width="210mm" height="148mm" version="1.1" style="shape-rendering:geometricPrecision; text-rendering:geometricPrecision; image-rendering:optimizeQuality; fill-rule:evenodd; clip-rule:evenodd"
viewBox="0 0 21000 14800"
 xmlns:xlink="http://www.w3.org/1999/xlink">
 <defs>
  <style type="text/css">
   <![CDATA[
    .str0 {stroke:black;stroke-width:20}
    .fil15 {fill:none}
    .fil13 {fill:none;fill-rule:nonzero}
    .fil1 {fill:#41546E}
    .fil11 {fill:#434547}
    .fil0 {fill:#445975}
    .fil6 {fill:#524E52}
    .fil17 {fill:#5E535E}
    .fil16 {fill:#665D66}
    .fil5 {fill:#707070}
    .fil19 {fill:#78646E}
    .fil14 {fill:#8A8A8A}
    .fil9 {fill:#919191}
    .fil10 {fill:#A3A69E}
    .fil7 {fill:#A8A8A8}
    .fil8 {fill:#C2C2C2}
    .fil18 {fill:#CCC6C6}
    .fil3 {fill:white}
    .fil2 {fill:#41546E;fill-rule:nonzero}
    .fil12 {fill:#524E52;fill-rule:nonzero}
    .fil4 {fill:white;fill-rule:nonzero}
   ]]>
  </style>
 </defs>
 <g id="Слой_x0020_1">
  <metadata id="CorelCorpID_0Corel-Layer"/>
  <g id="_816297952">
   <rect class="fil0" x="-747" y="-61" width="22500" height="13500"/>
   <g id="_776748944">
    <ellipse class="fil1" cx="11256" cy="9289" rx="2802" ry="391"/>
    <path class="fil2" d="M8444 4985c9,22 16,38 24,57 10,24 22,53 34,84l16 23 -5 4c67,159 162,363 224,381l-49 171c-132,-38 -258,-294 -339,-483l-130 -3c1,-27 32,-75 80,-120 -9,-21 -15,-38 -18,-44l163 -69 0 -1zm2089 2782c4491,1835 -595,-1222 1866,827 60,50 145,85 260,90 141,6 235,-104 279,-224 22,-58 32,-118 31,-169 -1,-39 -7,-69 -18,-80 -2,-2 1,4 -4,7l-225 98 111 -219c4,-7 5,-9 5,-10l0 0c1,-2 2,-5 5,-10 76,-167 -21,-461 -128,-790 -125,-383 -264,-809 -186,-1195 33,-163 13,-318 -46,-451 -17,-17 -28,-36 -30,-59 -6,-10 -12,-20 -18,-30 -47,-73 -107,-137 -177,-186 -70,-49 -149,-84 -234,-102 -160,-33 -343,-3 -526,114l-188 120 -18 24 0 0c-71,94 -127,169 -209,170 -126,2 -167,-68 -168,-170l0 0c-1,-51 11,-106 23,-161 11,-51 23,-103 20,-135 -4,-47 -13,-100 -28,-156 -16,-60 -37,-125 -63,-191l-23 -57 47 -41c119,-105 229,-247 296,-385 56,-113 82,-217 57,-284 -19,-50 -39,-85 -60,-109 -22,-24 -46,-33 -71,-30 -36,5 -79,28 -125,64 -94,74 -193,196 -281,322l-66 95 -75 -89c-89,-106 -159,-188 -236,-261 -75,-70 -159,-132 -278,-200l-2 0 -11 -6c-100,-57 -215,-91 -337,-93 -111,-2 -229,23 -347,82l-92 46 -32 -97c-41,-124 -83,-242 -127,-318 -20,-34 -24,-62 -27,-60 -134,85 -179,180 -175,274 4,103 63,213 129,310l41 60 -51 52c-179,181 -580,224 -900,259 -137,15 -258,28 -322,44 74,74 149,143 225,208 84,72 170,139 257,198l75 51 -53 73c-30,42 -72,102 -114,163 -72,103 -147,211 -231,323l0 0 0 0 0 0 -22 28c-3,4 -10,13 -22,28l0 0 -2 3 0 0 -22 28c-12,16 3,-4 -23,28l0 0 -2 3 -10 12 0 0 -10 12 -3 4 0 0 -11 14 0 0 -11 14 0 0 -2 3 -10 12 0 0 -10 12 0 0 -4 5 0 0 -11 14 0 0 -12 14 -1 1 0 0 -11 13 0 0 -12 13 0 0 -6 7 0 0 -11 12 0 0 -11 13 0 0 -1 1 0 0 -12 14 0 0 -12 14 0 0 -5 5 0 0 -10 11 -10 11 0 0 -7 7 -2 2 0 0 -40 41 -1 0 -17 17c-19,20 -39,40 -60,60 -21,21 -42,41 -62,60 -23,22 -45,42 -65,60 -77,69 -137,147 -182,229 -46,85 -74,175 -85,266 -6,50 -7,99 -3,149l0 0c4,50 14,98 28,144 15,48 35,94 60,138 24,43 54,84 89,123 67,75 153,139 258,189 100,48 217,82 353,98 93,11 182,18 267,19 89,1 176,-2 262,-11 86,-8 171,-22 255,-40 59,-13 118,-28 176,-45l0 -1 75 -26c102,-35 200,-76 294,-123 98,-49 193,-105 286,-167l104 143c-27,21 -51,41 -68,55 -19,16 -42,35 -70,58 -107,90 -284,239 -434,400 -141,152 -259,312 -262,432l-2 63 -60 19c-3,1 -6,17 -10,42 -6,39 -3,87 8,138 12,52 33,106 62,153 51,81 130,142 237,137 214,-9 325,-126 368,-249 14,-42 21,-84 22,-122 0,-37 -5,-70 -15,-95 -8,-19 -15,-32 -19,-32l-378 44 321 -207c11,-7 23,-14 37,-21 14,-7 28,-12 40,-16 482,-152 805,-124 1023,-15 226,113 337,308 396,483l2 5 1 4 1 3 0 1 0 0 0 0 0 2 0 0 0 1 0 1 0 1 0 0 0 2 0 1 0 0 0 0 0 0 0 0 0 0 0 2 0 2 0 1 0 1 0 0 0 0 0 0 0 2 0 2 0 0 0 1 0 0 0 1 0 0 0 2 0 0 0 0 1 2 0 0 0 0 0 0 0 1 0 2 0 0 0 0 0 0 0 2 0 0 0 0 0 0 0 2 0 0 0 1 0 0 0 0 0 0 1 2 0 0 0 0 0 2 0 1 0 1 0 0 0 2 0 0 0 0 1 2 0 0 0 0 0 1 0 0 0 2 0 0 0 0 1 2 0 0 0 1 0 2 0 0 0 1 0 1 0 1 0 0 0 1 0 0 0 0 0 0 0 0 1 1 1 5 0 2 0 0 0 0 0 1 0 0 0 2 0 0 1 2 0 1 0 0 0 1 0 0 0 2 0 0 0 0 0 0 1 2 0 0 0 1 0 1 0 0 0 1 0 1 0 1 0 1 1 4 0 0 1 2 1 6 0 0 0 0 1 2 0 0 0 0 0 0 0 0 1 4 0 0 0 1 5 18c4,16 7,26 8,29 3,11 6,21 8,28l2 7 1 3c1,5 5,27 9,47 3,17 6,33 8,40l16 76 -73 26c-16,6 -31,33 -41,73 -12,48 -14,109 -2,172 12,64 38,130 82,188 72,97 194,172 381,181 159,7 269,-105 327,-236 23,-51 38,-105 46,-155 8,-49 8,-94 2,-132 -6,-34 -13,-56 -21,-58l-110 -15 39 -104c8,-20 15,-42 22,-67 7,-25 14,-50 20,-76l1 -4 0 0 3 -14 0 0 3 -14 0 0 1 -4 2 -8 0 0 1 -4 3 -15 0 0 3 -14 1 -4 1 -4 1 -7 0 0 0 -1 1 -4 0 0 1 -2 0 0 0 -1 0 0 1 -4 1 -4 1 -4 1 -4 1 -4 1 -4 1 -3 0 -1 1 -4 1 -4 1 -4 0 0 0 -1c133,-625 -543,-254 -1163,-508l67 -164 3 3zm1250 805l-1 3 -1 4 0 0 -2 8 -1 4 0 0 -3 14 0 0 -3 14 0 0 -1 4c-7,29 -14,58 -22,84l-2 6c40,36 65,92 77,160 9,55 9,121 -2,188 -10,66 -30,135 -59,200 -85,189 -249,352 -497,341 -249,-11 -415,-116 -516,-251 -60,-81 -97,-172 -114,-261 -17,-90 -14,-177 4,-249 16,-64 46,-118 85,-154l-5 -27c-3,-9 -5,-18 -8,-25l-3 -9 0 0 -4 -16 -2 -7 0 0 0 0 -3 -10 0 0 -3 -10 0 -1 0 -1 0 0 0 -1 0 0 0 -1 0 -1 -1 -2 0 0 0 0 -1 -6 0 -2 0 0 -1 -4 0 0 0 0 -1 -2 0 -1 0 -1 0 0 0 0 0 0 0 -1 -1 -2 0 0 0 0 0 0 0 -2 0 0 0 -1 0 0 0 -1 -1 -2 0 -1 0 -1 0 0 0 -1 0 -1 0 -1 0 -2 0 0 0 -2 0 0 0 -1 0 0 0 -1 0 0 0 -1 0 0 0 0 0 -1 -1 -2 0 0 0 -1 0 0 0 -1 0 0 0 -2 0 0 0 -1 0 -2 0 0 0 0 0 -2 0 0 0 -1 0 -1 0 0 0 -2 0 -1 0 0 0 0 0 -1 0 0 0 -1 0 -1 0 -2 0 0 0 0 0 -2 0 0 0 0 0 0 0 -1 0 0 0 -2 0 0 0 0 0 0 -1 -2 0 0 0 0 0 0 0 -2 0 -1 0 0 0 0 0 0 -1 -2 0 0 0 0 0 -2 0 0 0 -1 0 0 0 -1 0 0 0 0 0 0 0 0 0 -2 -1 -2 0 -1 0 -1 0 0 0 0 0 0 0 -2 0 -2 0 0 0 0 0 -2 0 -1 0 -1 0 0 0 -1 0 0 0 -1c-48,-139 -134,-292 -306,-378 -167,-83 -416,-107 -792,-4 4,9 8,18 12,27 18,46 27,101 27,161 -1,57 -11,119 -31,179 -63,182 -224,354 -528,367 -182,8 -312,-90 -394,-220 -41,-65 -69,-138 -85,-208 -16,-72 -20,-143 -11,-202 10,-66 35,-120 76,-154 27,-159 154,-336 304,-497 23,-25 46,-49 70,-73 -87,29 -176,54 -267,74 -89,19 -180,34 -275,43 -91,9 -185,13 -281,11 -96,-1 -191,-8 -287,-20 -154,-19 -290,-59 -407,-114 -127,-61 -232,-140 -314,-231 -43,-48 -80,-100 -111,-155 -32,-56 -57,-114 -75,-174 -18,-60 -30,-120 -35,-181l0 0c-5,-61 -4,-123 3,-185 14,-112 49,-224 105,-329 54,-100 127,-194 219,-277 23,-21 44,-40 63,-57 21,-20 41,-39 60,-57 19,-19 38,-38 57,-57 18,-18 36,-37 54,-57l1 -1 41 -44 2 1 2 -3 0 0 12 -14 0 0 1 -1 0 0 11 -12 0 0 11 -12 0 0 5 -6 0 0 12 -13 0 0 11 -13 0 0 11 -13 0 0 11 -14 0 0 4 -5 0 0 10 -12 0 0 10 -12 2 -3 0 0 11 -13 0 0 11 -14 0 0 3 -4 10 -12 0 0 10 -12 2 -3 0 0c11,-13 -6,7 21,-27 16,-20 19,-24 21,-27l0 0 2 -3 0 0 21 -27 21 -28 0 0 0 0 0 0c81,-107 155,-214 227,-317 21,-30 41,-59 64,-92 -67,-49 -133,-102 -198,-158 -89,-76 -177,-158 -264,-246 -77,-77 -76,-144 -15,-204 69,-68 252,-88 473,-112 259,-28 576,-63 738,-165 -62,-103 -110,-216 -115,-333 -7,-154 58,-304 256,-430 112,-71 201,-10 276,121 39,68 76,160 110,259 114,-43 228,-62 336,-60 151,3 293,44 416,113 4,2 8,4 11,5l0 0c136,77 233,149 319,229 62,58 117,119 178,190 79,-104 165,-200 250,-267 70,-55 142,-92 213,-101 82,-10 158,15 224,87 36,40 68,95 95,166 43,116 11,270 -65,424 -69,139 -175,283 -293,397 19,52 35,104 48,154 18,67 29,131 34,187 5,58 -10,122 -24,185 -8,38 -16,75 -19,103 11,-17 30,-49 58,-85l0 0c22,-29 46,-61 70,-90 247,-272 867,-344 1144,-104 67,47 122,104 173,170 13,-13 26,-25 41,-35 56,-39 123,-53 195,-47 63,5 131,27 199,63 121,63 243,171 333,302 38,55 67,60 91,43 41,-28 86,-87 129,-144 32,-42 63,-83 96,-116 50,-50 108,-82 179,-92 66,-8 140,4 227,40 66,28 106,67 123,98 14,27 17,55 9,80 -10,36 -35,60 -74,69l0 0c-29,7 -71,1 -116,-25 -38,-22 -72,-33 -99,-32 -8,0 -14,2 -19,5 -6,4 -12,10 -17,20 -20,35 -30,96 -24,190 3,56 8,108 13,161 18,193 36,389 -22,564 -11,34 -24,65 -37,94 -14,30 -28,56 -42,80 -55,89 -140,165 -235,211l0 0c-71,35 -149,53 -224,48 -80,-6 -156,-38 -217,-103 -51,-54 -90,-131 -111,-235 -13,-62 -23,-123 -34,-186 -36,-209 -78,-453 -163,-607 -9,-16 -18,-31 -28,-44 17,106 15,219 -8,335 -69,339 63,743 181,1105 103,316 197,603 152,823 16,8 30,20 44,33 44,45 66,118 68,201 1,72 -13,154 -42,234 -68,182 -217,349 -453,339 -158,-7 -278,-58 -366,-131 -72,-60 -121,-134 -152,-210 -54,44 -280,77 -351,52l-11 -7zm-1999 -3057l18 -3 0 0c0,0 0,0 0,0 34,-15 53,-26 97,12l1 0c60,51 50,79 4,133l-59 -51 25 56c9,4 12,9 5,12 -8,3 -20,9 -39,13l-19 4 -6 -30c-5,8 -13,10 -26,-1l0 0c-14,-12 -5,-16 13,-15l8 -10 -14 -72 -23 -20c7,-8 13,-7 19,-2l-5 -24 1 -2zm18 -3l1 0c2,0 0,0 -1,0l0 0zm14 69l6 33 14 -16 -20 -17zm6 34l6 33c16,4 32,9 41,14l-25 -56 -8 -7 -14 16zm-14 29l-2 -10 -8 9c3,0 6,1 9,1l1 0zm20 4l-6 -33 -7 8c0,8 0,16 -1,22 4,1 9,2 14,3zm-6 -33l-6 -33 -10 -9c5,16 8,34 9,50l7 -8zm-945 -434l17 -8 0 0c8,-4 -3,2 14,-7l81 158c-8,4 2,-1 -17,8l0 0 -19 9 -76 -160zm565 75c1,27 0,55 -5,84 -4,28 -10,57 -18,87l-171 -46c6,-24 11,-46 14,-66 3,-19 4,-36 3,-51l177 -8zm1428 3285l0 0m-826 -4641l-1 0 0 0 1 0zm2639 1646c46,19 86,48 122,85 33,34 62,75 87,121 99,180 144,439 183,662 12,68 23,132 33,181 14,69 38,118 67,149 28,30 63,45 100,47 42,3 89,-9 134,-30l0 0c65,-32 124,-84 161,-144 12,-19 22,-39 33,-61 10,-23 20,-48 30,-77 47,-140 30,-317 14,-492 -5,-58 -11,-115 -14,-166 -2,-35 -2,-68 -1,-99 -42,53 -86,105 -137,140 -109,75 -222,79 -338,-88 -74,-108 -173,-196 -269,-246 -46,-24 -91,-39 -132,-43 -32,-3 -60,2 -80,16 -11,7 -20,18 -29,32 11,4 23,9 35,14l1 -1z"/>
    <path class="fil3" d="M8244 5044c52,122 215,560 350,599m1787 2230c659,269 1228,116 1401,176 73,350 -283,-1346 -155,388m-1945 -2812l19 -4c20,-4 31,-16 17,0m-921 -338c13,-6 24,-11 33,-16m406 15c2,41 -6,91 -20,144m-1026 -183c0,-11 75,-85 159,-144m1124 2013c-44,35 -93,74 -140,114 -216,182 -719,606 -727,898 -164,52 -61,661 328,643 571,-25 547,-698 342,-674 18,-11 36,-21 56,-27 914,-289 1202,97 1309,412l1 3 0 0 0 2 0 1 0 2 0 2 0 1 1 2 0 0 0 2 0 1 0 1 1 2 0 0 0 2 0 1 0 1 0 2 0 0 1 2 0 1 0 1 0 2 0 0 0 2 0 0 0 2 0 1 0 1 1 2 0 0 0 2 0 1 0 1 0 2 0 0 1 2 0 1 0 1 0 2 0 0 1 2 0 1 0 2 0 1 0 1 1 2 0 0 0 2 0 1 0 1 1 2 0 0 0 2 0 1 0 1 0 2 0 0 1 2 0 1 0 1 0 2 0 0 1 2 0 0 0 2 0 1 0 1 1 2 0 0 1 4 0 2 1 6 0 0 1 2 0 1 1 3 0 1c2,7 4,14 5,20l0 0c6,21 12,41 18,61 7,34 12,64 17,88 -196,68 -179,758 445,785 466,21 582,-728 370,-757 18,-47 32,-98 45,-154l1 -4c2,-9 4,-19 6,-28l1 -4 2 -8 1 -4c2,-10 4,-19 6,-29l1 -4 1 -4 0 0 1 -4 1 -4 1 -4 1 -2 0 -2 1 -4 1 -4 1 -4 1 -4 1 -4 1 -4 1 -3 0 -1 1 -4 1 -4 1 -4 0 -1c47,23 100,36 161,33 134,-6 235,-48 309,-108 29,178 164,377 469,390 436,19 513,-747 257,-636 4,-8 8,-16 12,-24 186,-411 -451,-1304 -308,-2004 134,-659 -520,-1217 -1166,-806 21,-32 46,-59 79,-80 0,0 -22,-4 -59,8 -65,21 -134,91 -182,150 -90,110 -155,222 -207,223 -160,2 -25,-250 -35,-385 -8,-106 -44,-238 -97,-372 243,-215 450,-574 378,-766 -152,-410 -462,-104 -693,228 -181,-216 -287,-338 -547,-486 -2,-1 -3,-2 -4,-2 -214,-121 -491,-152 -768,-13 -84,-257 -178,-494 -286,-425 -332,212 -219,491 -71,708 -307,309 -1475,174 -1250,399 171,172 344,323 523,445 -109,152 -217,315 -344,483l-1 1c-14,19 -28,37 -43,56l-2 2c-14,19 -29,37 -44,56l-2 3c-7,8 -13,17 -20,25l-3 4c-7,9 -15,18 -22,27l-2 3c-7,8 -13,16 -20,24l-4 5c-8,9 -15,18 -23,27l0 0c-8,9 -15,18 -23,26l-6 7c-7,8 -15,17 -22,25l-1 1c-8,9 -17,18 -25,28l-5 5c-7,7 -13,14 -20,21l-7 7 0 0 -1 0 -2 -1 -1 1c-36,39 -74,78 -114,117 -40,39 -81,78 -125,117 -173,155 -271,352 -296,551 -14,111 -4,223 28,330 33,106 89,207 168,295 144,161 366,280 666,316 190,23 373,25 548,8 183,-18 357,-56 524,-113l2 -1 -1 -2 0 0c213,-73 413,-175 601,-300l10 -3zm3059 -1462c69,29 123,88 166,166 120,217 158,579 207,818 84,412 482,283 625,51 26,-43 50,-94 71,-156 68,-204 19,-457 5,-691 -19,-314 126,-359 291,-265 81,46 90,-17 -20,-63 -146,-61 -236,-42 -309,32 -128,128 -275,460 -452,204 -196,-285 -549,-445 -664,-225 -50,96 -1,95 83,130l-3 -1zm-397 2170l2 22c-11,-4 -23,-5 -36,-3 11,-7 22,-13 34,-18l0 -1z"/>
    <path class="fil4" d="M8326 5010c9,22 16,38 24,57 10,24 22,53 34,84l16 23 -5 4c67,159 162,363 224,381l-49 171c-132,-38 -258,-294 -339,-483l-130 -3c1,-27 32,-75 80,-120 -9,-21 -15,-38 -18,-44l163 -69 0 -1zm2089 2782c4491,1835 -595,-1222 1866,827 60,50 145,85 260,90 141,6 235,-104 279,-224 22,-58 32,-118 31,-169 -1,-39 -7,-69 -18,-80 -2,-2 1,4 -4,7l-225 98 111 -219c4,-7 5,-9 5,-10l0 0c1,-2 2,-5 5,-10 76,-167 -21,-461 -128,-790 -125,-383 -264,-809 -186,-1195 33,-163 13,-318 -46,-451 -17,-17 -28,-36 -30,-59 -6,-10 -12,-20 -18,-30 -47,-73 -107,-137 -177,-186 -70,-49 -149,-84 -234,-102 -160,-33 -343,-3 -526,114l-188 120 -18 24 0 0c-71,94 -127,169 -209,170 -126,2 -167,-68 -168,-170l0 0c-1,-51 11,-106 23,-161 11,-51 23,-103 20,-135 -4,-47 -13,-100 -28,-156 -16,-60 -37,-125 -63,-191l-23 -57 47 -41c119,-105 229,-247 296,-385 56,-113 82,-217 57,-284 -19,-50 -39,-85 -60,-109 -22,-24 -46,-33 -71,-30 -36,5 -79,28 -125,64 -94,74 -193,196 -281,322l-66 95 -75 -89c-89,-106 -159,-188 -236,-261 -75,-70 -159,-132 -278,-200l-2 0 -11 -6c-100,-57 -215,-91 -337,-93 -111,-2 -229,23 -347,82l-92 46 -32 -97c-41,-124 -83,-242 -127,-318 -20,-34 -24,-62 -27,-60 -134,85 -179,180 -175,274 4,103 63,213 129,310l41 60 -51 52c-179,181 -580,224 -900,259 -137,15 -258,28 -322,44 74,74 149,143 225,208 84,72 170,139 257,198l75 51 -53 73c-30,42 -72,102 -114,163 -72,103 -147,211 -231,323l0 0 0 0 0 0 -22 28c-3,4 -10,13 -22,28l0 0 -2 3 0 0 -22 28c-12,16 3,-4 -23,28l0 0 -2 3 -10 12 0 0 -10 12 -3 4 0 0 -11 14 0 0 -11 14 0 0 -2 3 -10 12 0 0 -10 12 0 0 -4 5 0 0 -11 14 0 0 -12 14 0 1 0 0 -11 13 0 0 -12 13 0 0 -6 7 0 0 -11 12 0 0 -11 12 0 0 -1 1 0 0 -12 14 0 0 -12 14 0 0 -5 5 0 0 -10 11 -10 11 0 0 -7 7 -2 2 0 0 -41 41 -1 0 -17 17c-19,20 -39,40 -60,60 -21,21 -42,41 -62,60 -23,22 -45,42 -65,60 -77,69 -137,147 -182,229 -46,85 -74,175 -85,266 -6,50 -7,99 -3,149l0 0c4,50 14,98 28,144 15,48 35,94 60,138 24,43 54,84 89,123 67,75 153,139 258,189 100,48 217,82 353,98 93,11 182,18 267,19 89,1 176,-2 262,-11 86,-8 171,-22 255,-40 59,-13 118,-28 176,-45l0 -1 75 -26c102,-35 200,-76 294,-123 98,-49 193,-105 286,-167l104 143c-27,21 -51,41 -68,55 -19,16 -42,35 -70,58 -107,90 -284,239 -434,400 -141,152 -259,312 -262,432l-2 63 -60 19c-3,1 -6,17 -10,42 -6,39 -3,87 8,138 12,52 33,106 62,153 51,81 130,142 237,137 214,-9 325,-126 368,-249 14,-42 21,-84 22,-122 0,-37 -5,-70 -15,-95 -8,-19 -15,-32 -19,-32l-378 44 321 -207c11,-7 23,-14 37,-21 14,-7 28,-12 40,-16 482,-152 805,-124 1023,-15 226,113 337,308 396,483l2 5 1 4 1 3 0 1 0 0 0 0 0 2 0 0 0 1 0 1 0 1 0 0 0 2 0 1 0 0 0 0 0 0 0 0 0 0 0 2 0 2 0 1 0 1 0 0 0 0 0 0 0 2 0 2 0 0 0 1 0 0 0 1 0 0 0 2 0 0 0 0 1 2 0 0 0 0 0 0 0 1 0 2 0 0 0 0 0 0 1 2 0 0 0 0 0 0 0 2 0 0 0 1 0 0 0 0 0 0 0 2 0 0 0 0 0 2 0 1 0 1 0 0 0 2 0 0 0 0 1 2 0 0 0 0 0 1 0 0 0 2 0 0 0 0 1 2 0 0 0 1 0 2 0 0 0 1 0 1 0 1 0 0 0 1 0 0 0 0 0 0 0 0 1 1 1 5 0 2 0 0 0 0 0 1 0 0 0 2 0 0 1 2 0 1 0 0 0 1 0 0 0 2 0 0 0 0 0 0 1 2 0 0 0 1 0 1 0 0 0 1 0 1 0 1 0 1 1 4 0 0 1 2 1 6 0 0 0 0 1 2 0 0 0 0 0 0 0 0 1 4 0 0 0 1 5 18c4,16 7,26 8,29 3,11 6,21 9,28l2 7 1 3c1,5 5,27 9,47 3,17 6,33 8,40l16 76 -73 26c-16,6 -31,33 -41,73 -12,48 -14,109 -2,172 12,64 38,130 82,188 72,97 194,172 381,181 159,7 269,-105 327,-236 23,-51 38,-105 46,-155 8,-49 8,-94 2,-132 -6,-34 -13,-56 -21,-58l-110 -15 39 -104c8,-20 15,-42 22,-67 7,-25 14,-50 20,-76l1 -4 0 0 3 -14 0 0 3 -14 0 0 1 -4 2 -8 0 0 1 -4 3 -15 0 0 3 -14 1 -4 1 -4 1 -7 0 0 0 -1 1 -4 0 0 1 -2 0 0 0 -1 0 0 1 -4 1 -4 1 -4 1 -4 1 -4 1 -4 1 -3 0 -1 1 -4 1 -4 1 -4 0 0 0 -1c133,-625 -543,-254 -1163,-508l67 -164 2 4zm1250 805l-1 3 -1 4 0 0 -2 8 -1 4 0 0 -3 14 0 0 -3 14 0 0 -1 4c-7,29 -14,58 -22,84l-2 6c40,36 65,92 77,160 9,55 9,121 -2,188 -10,66 -30,135 -59,200 -85,189 -249,352 -497,341 -249,-11 -415,-116 -516,-251 -60,-81 -97,-172 -114,-261 -17,-90 -14,-177 4,-249 16,-64 46,-118 85,-154l-5 -27c-3,-9 -5,-18 -8,-25l-3 -9 0 0 -4 -16 -2 -7 0 0 0 0 -3 -10 0 0 -3 -10 0 -1 0 -1 0 0 0 -1 0 0 0 -1 0 -1 -1 -2 0 0 0 0 -2 -6 0 -2 0 0 -1 -4 0 0 0 0 -1 -2 0 -1 0 -1 0 0 0 0 0 0 0 -1 -1 -2 0 0 0 0 0 0 0 -2 0 0 0 -1 0 0 0 -1 -1 -2 0 -1 0 -1 0 0 0 -1 0 -1 0 -1 0 -2 0 0 0 -2 0 0 0 -1 0 0 0 -1 0 0 0 -1 0 0 0 0 0 -1 -1 -2 0 0 0 -1 0 0 0 -1 0 0 0 -2 0 0 0 -1 -1 -2 0 0 0 0 0 -2 0 0 0 -1 0 -1 0 0 0 -2 0 -1 0 0 0 0 0 -1 0 0 0 -1 0 -1 0 -2 0 0 0 0 -1 -2 0 0 0 0 0 0 0 -1 0 0 0 -2 0 0 0 0 0 0 0 -2 0 0 0 0 0 0 0 -2 0 -1 0 0 0 0 0 0 -1 -2 0 0 0 0 0 -2 0 0 0 -1 0 0 0 -1 0 0 0 0 0 0 0 0 0 -2 -1 -2 0 -1 0 -1 0 0 0 0 0 0 0 -2 0 -2 0 0 0 0 0 -2 0 -1 0 -1 0 0 0 -1 0 0 0 -1c-48,-139 -134,-292 -306,-378 -167,-83 -416,-107 -792,-4 4,9 8,18 12,27 18,46 27,101 27,161 -1,57 -11,119 -31,179 -63,182 -224,354 -528,367 -182,8 -312,-90 -394,-220 -41,-65 -69,-138 -85,-208 -16,-72 -20,-143 -11,-202 10,-66 35,-120 76,-154 27,-159 154,-336 304,-497 23,-25 46,-49 70,-73 -87,29 -176,54 -267,74 -89,19 -180,34 -275,43 -91,9 -185,13 -281,11 -96,-1 -191,-8 -287,-20 -154,-19 -290,-59 -407,-114 -127,-61 -232,-140 -314,-231 -43,-48 -80,-100 -111,-155 -32,-56 -57,-114 -75,-174 -18,-60 -30,-120 -35,-181l0 0c-5,-61 -4,-123 3,-185 14,-112 49,-224 105,-329 54,-100 127,-194 219,-277 23,-21 44,-40 63,-57 21,-20 41,-39 60,-57 19,-19 38,-38 57,-57 18,-18 36,-37 54,-57l1 -1 41 -44 2 1 2 -3 0 0 12 -14 0 0 1 -1 0 0 11 -12 0 0 11 -12 0 0 5 -6 0 0 12 -13 0 0 11 -13 0 0 11 -13 0 0 11 -14 0 0 4 -5 0 0 10 -12 0 0 10 -12 2 -3 0 0 11 -13 0 0 11 -14 0 0 3 -4 10 -12 0 0 10 -12 2 -3 0 0c11,-13 -6,7 21,-27 16,-20 19,-24 21,-27l0 0 2 -3 0 0 21 -27 21 -28 0 0 0 0 0 0c81,-107 155,-214 227,-317 21,-30 41,-59 64,-92 -67,-49 -133,-102 -198,-158 -89,-76 -177,-158 -264,-246 -77,-77 -76,-144 -15,-204 69,-68 252,-88 473,-112 259,-28 576,-63 738,-165 -62,-103 -110,-216 -115,-333 -7,-154 58,-304 256,-430 112,-71 201,-10 276,121 39,68 76,160 110,259 114,-43 228,-62 336,-60 151,3 293,44 416,113 4,2 8,4 11,5l0 0c136,77 233,149 319,229 62,58 117,119 178,190 79,-104 165,-200 250,-267 70,-55 142,-92 213,-101 82,-10 158,15 224,87 36,40 68,95 95,166 43,116 11,270 -65,424 -69,139 -175,283 -293,397 19,52 35,104 48,154 18,67 29,131 34,187 5,58 -10,122 -24,185 -8,38 -16,75 -19,103 11,-17 30,-49 58,-85l0 0c22,-29 46,-61 70,-90 247,-272 867,-344 1144,-104 67,47 122,104 173,170 13,-13 26,-25 41,-35 56,-39 123,-53 195,-47 63,5 131,27 199,63 121,63 243,171 333,302 38,55 67,60 91,43 41,-28 86,-87 129,-144 32,-42 63,-83 96,-116 50,-50 108,-82 179,-92 66,-8 140,4 227,40 66,28 106,67 123,98 14,27 17,55 9,80 -10,36 -35,60 -74,69l0 0c-29,7 -71,1 -116,-25 -38,-22 -72,-33 -99,-32 -8,0 -14,2 -19,5 -6,4 -12,10 -17,20 -20,35 -30,96 -24,190 3,56 8,108 13,161 18,193 36,389 -22,564 -11,34 -24,65 -37,94 -14,30 -28,56 -42,80 -55,89 -140,165 -235,211l0 0c-71,35 -149,53 -224,48 -80,-6 -156,-38 -217,-103 -51,-54 -90,-131 -111,-235 -13,-62 -23,-123 -34,-186 -36,-209 -78,-453 -163,-607 -9,-16 -18,-31 -28,-44 17,106 15,219 -8,335 -69,339 63,743 181,1105 103,316 197,603 152,823 16,8 30,20 44,33 44,45 66,118 68,201 1,72 -13,154 -42,234 -68,182 -217,349 -453,339 -158,-7 -278,-58 -366,-131 -72,-60 -121,-134 -152,-210 -54,44 -280,77 -351,52l-9 -7zm-1999 -3057l18 -3 0 0c0,0 0,0 0,0 34,-15 53,-26 97,12l1 0c60,51 50,79 4,133l-59 -51 25 56c9,4 12,9 5,12 -8,3 -20,9 -39,13l-19 4 -6 -30c-5,8 -13,10 -26,-1l0 0c-14,-12 -5,-16 13,-15l8 -10 -14 -72 -23 -20c7,-8 13,-7 19,-2l-5 -24 1 -2zm18 -3l1 0c2,0 0,0 -1,0l0 0zm14 69l6 33 14 -16 -20 -17zm6 34l6 33c16,4 32,9 41,14l-25 -56 -8 -7 -14 16zm-14 29l-2 -10 -8 9c3,0 6,1 9,1l1 0zm20 4l-6 -33 -7 8c0,8 0,16 -1,22 4,1 9,2 14,3zm-6 -33l-6 -33 -10 -9c5,16 8,34 9,50l7 -8zm-945 -434l17 -8 0 0c8,-4 -3,2 14,-7l81 158c-8,4 2,-1 -17,8l0 0 -19 9 -76 -160zm565 75c1,27 0,55 -5,84 -4,28 -10,57 -18,87l-171 -46c6,-24 11,-46 14,-66 3,-19 4,-36 3,-51l177 -8zm1428 3285l0 0m-826 -4641l-1 0 0 0 1 0zm2639 1646c46,19 86,48 122,85 33,34 62,75 87,121 99,180 144,439 183,662 12,68 23,132 33,181 14,69 38,118 67,149 28,30 63,45 100,47 42,3 89,-9 134,-30l0 0c65,-32 124,-84 161,-144 12,-19 22,-39 33,-61 10,-23 20,-48 30,-77 47,-140 30,-317 14,-492 -5,-58 -11,-115 -14,-166 -2,-35 -2,-68 -1,-99 -42,53 -86,105 -137,140 -109,75 -222,79 -338,-88 -74,-108 -173,-196 -269,-246 -46,-24 -91,-39 -132,-43 -32,-3 -60,2 -80,16 -11,7 -20,18 -29,32 11,4 23,9 35,14l1 -1z"/>
    <path class="fil5" d="M9004 7090l645 -131c14,2 -162,131 -324,267 -246,206 -862,726 -701,1009 42,73 225,72 315,178 93,109 177,-281 385,-347 1450,-458 1324,781 1400,740 568,-305 606,-921 -88,-1604 -598,-589 -963,-860 -1631,-113l-1 1z"/>
    <path class="fil5" d="M12126 6879l92 403c-337,-176 -961,363 -769,700 42,73 225,72 315,178 93,109 177,-281 385,-347 131,-41 15,174 317,103 30,-7 1,-144 24,-157 167,-94 -437,-760 -363,-880l-1 0z"/>
    <path class="fil6" d="M12063 7847c-128,53 -314,244 -490,85 -346,-314 -298,603 178,582 597,-26 543,-763 312,-666l0 -1z"/>
    <path class="fil7" d="M10424 6031l-826 1010c628,289 859,796 983,1230 102,356 91,685 489,745 466,71 457,-294 556,-697 107,-433 191,-911 310,-972 179,-91 166,430 232,771 94,486 484,337 629,17 186,-411 -451,-1304 -308,-2004 174,-852 -972,-1537 -1712,-172 -243,448 -281,-137 -353,71l0 1z"/>
    <path class="fil5" d="M10420 7843c19,38 36,77 52,115 409,141 774,130 1023,123 74,-2 138,-4 187,-1 7,-30 14,-59 21,-89 -57,-4 -127,-2 -210,0 -259,7 -646,19 -1073,-148zm129 322c9,29 18,58 26,86 102,-15 273,-9 453,-2 219,9 450,18 602,-14 6,-1 11,-2 17,-4 8,-34 16,-67 24,-101 -17,7 -37,12 -59,17 -141,29 -367,20 -580,12 -188,-7 -366,-14 -483,6zm55 191c8,31 15,61 22,91 229,50 589,39 809,32 85,-3 136,-77 139,-41 3,46 -13,87 -45,122 -29,33 -71,60 -122,81 -52,21 -113,35 -180,40 -180,13 -393,-41 -563,-194l-5 -5 -6 -3 -21 -10c11,46 21,91 33,134 179,134 389,181 570,168 75,-6 146,-22 207,-47 41,-17 78,-37 109,-61 21,-83 38,-175 59,-271 -41,-7 -102,-5 -177,-3 -234,7 -636,19 -828,-34l-1 1z"/>
    <path class="fil6" d="M11679 8093c9,-41 19,-81 28,-121 -20,-39 -38,-85 -52,-138 -68,-273 -227,-712 -432,-1070 -150,-262 -327,-482 -514,-567l-37 82c168,76 331,282 473,530 201,350 356,780 423,1047 25,100 65,180 111,237zm154 -583c16,-44 33,-81 51,-108 -102,-230 -263,-515 -507,-860 -160,-226 -226,-445 -222,-569 2,-41 9,-66 21,-70 16,-5 45,12 88,58 142,149 360,555 616,1376 5,17 11,32 16,46 12,-16 25,-28 38,-35 15,-8 28,-11 41,-10 -3,-9 -6,-18 -9,-28 -241,-773 -453,-1190 -602,-1372l1 1c496,496 657,1023 673,1314 3,50 1,93 -4,126 19,30 34,74 46,128 11,-13 20,-30 28,-51 17,-45 25,-116 20,-207 -17,-306 -184,-859 -699,-1374 -44,-44 -146,-117 -243,-188 -58,-42 -115,-80 -153,-106 -18,21 -35,42 -53,64 43,35 97,74 153,115 26,19 53,38 78,57 -23,-7 -44,-7 -63,-1 -52,16 -81,71 -84,153 -5,140 66,381 238,624 268,380 435,683 530,917l1 0z"/>
    <path class="fil8" d="M8326 4781l339 -424c-569,410 -728,1033 -1441,1674 -539,485 -355,1374 565,1488 1259,155 2181,-629 2828,-1657 739,-1175 -1329,-2542 -2201,-1309 -36,50 -80,166 -90,228z"/>
    <path class="fil9" d="M8245 4769c-291,366 -518,810 -1021,1262 -19,17 -37,35 -55,53 188,218 710,381 869,354 31,-5 277,347 301,274 97,-299 -341,-549 129,-1032 315,-324 676,-367 1135,-483 209,-53 228,-282 222,-317 -36,-216 -1279,-13 -1580,-112l0 0 0 1z"/>
    <path class="fil10" d="M9600 7016c65,-49 128,-101 190,-155 31,-283 -266,-542 -420,-518l51 35c326,267 273,470 179,639l0 -1z"/>
    <path class="fil11" d="M9600 7016c65,-49 128,-101 190,-155 31,-283 -266,-542 -420,-518l51 35c326,267 273,470 179,639l0 -1z"/>
    <path class="fil6" d="M7463 5797c-72,78 -151,156 -239,234 -539,485 -355,1374 565,1488 389,48 745,6 1072,-105 -6,-26 -12,-52 -19,-78 -192,-733 -722,-1288 -1379,-1540l0 1z"/>
    <path class="fil12" d="M7464 5800c-36,38 -73,77 -113,116 -40,39 -81,78 -125,118 -172,154 -270,350 -294,548 -14,111 -4,222 28,328 32,106 88,206 167,293 144,160 364,278 663,315 190,23 372,25 547,8 182,-18 355,-56 521,-112 -3,-12 -6,-25 -8,-37 -3,-13 -6,-26 -10,-39 -94,-359 -269,-676 -501,-934 -240,-268 -541,-475 -875,-603l0 -1zm-116 112c40,-39 77,-78 114,-117l1 -1 2 1c335,129 637,336 879,605 232,259 408,576 502,937 3,13 7,26 10,39 3,13 6,26 9,39l1 2 -2 1c-167,57 -341,95 -524,113 -175,17 -358,15 -548,-8 -300,-37 -522,-156 -666,-316 -79,-88 -135,-189 -168,-295 -33,-106 -42,-219 -28,-330 25,-199 123,-396 296,-551 44,-39 85,-78 125,-117l-3 -2z"/>
    <path class="fil13 str0" d="M8920 4018c-55,132 -90,112 -170,198"/>
    <path class="fil14" d="M9287 4131l-254 254c-103,-174 -638,-657 -130,-980 152,-97 275,410 384,726z"/>
    <path class="fil15" d="M8181 5244c1,-26 402,-386 394,-131 -1,32 3,16 -7,56"/>
    <path class="fil15" d="M8788 5284c123,-58 69,-52 210,-97 507,-163 20,678 -26,758"/>
    <path class="fil16" d="M10382 4802l-57 99c109,41 161,138 180,263 38,246 -52,598 -88,839 -63,416 355,432 569,263 39,-31 79,-71 120,-122 182,-228 68,-707 314,-869 0,0 -22,-4 -59,8 -65,21 -152,63 -199,121 -90,110 -155,222 -207,223 -160,3 -25,-250 -35,-385 -20,-253 -196,-653 -384,-876 -199,-237 -302,-365 -575,-520 -89,-51 412,843 421,957l0 -1z"/>
    <path class="fil15" d="M8235 5043c52,122 215,560 350,599"/>
    <path class="fil17" d="M7581 4512c685,688 1404,1043 2360,544 1069,-559 -173,-1984 -1099,-953 -290,323 -1487,182 -1261,410l0 -1z"/>
    <path class="fil9" d="M10337 4601c217,-377 669,-1022 864,-498 119,322 -542,1114 -846,907 -186,-127 -99,-268 -18,-409z"/>
    <path class="fil6" d="M10777 8759c150,62 368,286 574,99 406,-368 349,706 -208,681 -700,-31 -636,-893 -366,-780z"/>
    <path class="fil6" d="M12216 8130c128,53 314,244 490,85 346,-314 298,603 -178,582 -597,-26 -543,-763 -312,-666l0 -1z"/>
    <path class="fil6" d="M9237 8102c-128,53 -314,244 -490,85 -346,-314 -298,603 178,582 597,-26 543,-763 312,-666l0 -1z"/>
    <path class="fil6" d="M12524 5651c69,29 123,88 166,166 120,217 158,579 207,818 84,412 482,283 625,51 26,-43 50,-94 71,-156 68,-204 19,-457 5,-691 -19,-314 126,-359 291,-265 81,46 90,-17 -20,-63 -146,-61 -236,-42 -309,32 -128,128 -275,460 -452,204 -196,-285 -549,-445 -664,-225 -50,96 -1,95 83,130l-3 -1z"/>
    <path class="fil15" d="M8889 5883c329,-176 440,-193 804,-262 20,-4 31,-16 17,0"/>
    <ellipse class="fil18" transform="matrix(-0.793164 -0.93009 -0.93009 0.793164 9089.23 5939.7)" rx="98" ry="106"/>
    <path class="fil17" d="M9239 5927c-76,129 -185,230 -145,-75 4,-29 26,-100 74,-123 213,-103 119,117 71,198z"/>
    <ellipse class="fil3" transform="matrix(-0.253639 0.0584014 0.105669 0.458923 9057.57 5942.09)" rx="98" ry="106"/>
    <path class="fil19" d="M8979 5465c213,-98 463,-10 559,197 3,6 5,12 8,18 -1,-3 -3,-6 -4,-10 -115,-1 -161,96 -286,154 -88,41 -182,78 -276,104 -77,21 -250,-42 -237,18 0,0 0,2 1,4 -50,-191 46,-398 236,-486l-1 1zm567 216c2,6 5,12 7,18 -2,-6 -4,-12 -7,-18zm7 20c1,2 2,5 2,7 -1,-2 -2,-5 -2,-7zm3 10c1,3 2,6 3,8 -1,-3 -2,-6 -3,-8zm3 10c1,3 1,5 2,8 -1,-3 -1,-5 -2,-8zm3 10c1,3 1,6 2,9 -1,-3 -1,-6 -2,-9zm2 10c1,3 1,5 2,8 -1,-3 -1,-5 -2,-8zm2 10c0,2 1,5 1,7 0,-2 -1,-5 -1,-7zm2 10c0,2 1,5 1,7 0,-2 -1,-5 -1,-7zm2 10c0,2 1,4 1,7 0,-2 -1,-4 -1,-7zm1 10c0,2 1,5 1,7 0,-2 -1,-5 -1,-7zm1 10c0,2 0,5 1,7 0,-2 0,-5 -1,-7zm1 10c0,2 0,5 0,7 0,-2 0,-5 0,-7zm1 50c0,2 0,4 0,7 0,-2 0,-4 0,-7zm-766 239c-14,-19 -27,-40 -38,-63 9,18 22,39 38,63l0 0z"/>
    <path class="fil12" d="M9662 5647c17,-19 16,-47 -1,-60 -41,-30 -216,80 -260,103 -240,126 -377,181 -717,247 4,14 98,19 229,6 220,-21 611,-137 749,-296z"/>
    <path class="fil19" d="M10596 4486c137,-200 324,-390 415,-145 50,135 -133,410 -307,513 -324,192 -253,-157 -108,-368z"/>
    <path class="fil15" d="M10373 7872c659,269 1228,116 1401,176 74,357 -1487,-27 -1311,274 111,190 1154,89 1156,114 22,292 -592,440 -985,86l-29 -13"/>
    <path class="fil17" d="M8349 6891c-14,167 -146,335 -275,-58 -36,-110 60,-234 133,-210 102,34 153,132 142,267l0 1z"/>
   </g>
  </g>
 </g>
</svg>
