<?xml version="1.0" encoding="UTF-8"?>
<!DOCTYPE svg PUBLIC "-//W3C//DTD SVG 1.1//EN" "http://www.w3.org/Graphics/SVG/1.1/DTD/svg11.dtd">
<!-- Creator: CorelDRAW X6 -->
<svg xmlns="http://www.w3.org/2000/svg" xml:space="preserve" width="210mm" height="148mm" version="1.1" style="shape-rendering:geometricPrecision; text-rendering:geometricPrecision; image-rendering:optimizeQuality; fill-rule:evenodd; clip-rule:evenodd"
viewBox="0 0 21000 14800"
 xmlns:xlink="http://www.w3.org/1999/xlink">
 <defs>
  <style type="text/css">
   <![CDATA[
    .str0 {stroke:#41546E;stroke-width:270.93}
    .str1 {stroke:white;stroke-width:270.93}
    .fil10 {fill:none}
    .fil1 {fill:#41546E}
    .fil0 {fill:#445975}
    .fil9 {fill:#524E52}
    .fil3 {fill:#805F45}
    .fil4 {fill:#8C6E47}
    .fil6 {fill:#997248}
    .fil12 {fill:#9E7F57}
    .fil5 {fill:#A17B52}
    .fil7 {fill:#AB8450}
    .fil11 {fill:#AB9074}
    .fil13 {fill:#BA8F97}
    .fil14 {fill:#CCC6C6}
    .fil2 {fill:white}
    .fil8 {fill:#805F45;fill-rule:nonzero}
   ]]>
  </style>
 </defs>
 <g id="Слой_x0020_1">
  <metadata id="CorelCorpID_0Corel-Layer"/>
  <rect class="fil0" x="-747" y="-61" width="22500" height="13500"/>
  <path class="fil1 str0" d="M8794 7450c-252,152 -887,803 -632,1049 260,250 138,524 700,766 89,39 623,-175 1094,-303 406,178 1337,103 1698,-25 213,180 568,328 1027,376 63,7 199,-55 260,-50 204,18 370,-348 385,-379 130,-251 -193,-159 -233,-388 -61,-352 -320,-673 -593,-891 30,-293 29,-1017 -228,-1188 -299,-198 -847,222 -1277,269 -461,51 -938,-129 -1225,93 -937,726 -463,-1028 -820,-749 -47,32 -92,228 -123,360 -76,322 -121,839 -34,1059l1 1zm2993 -1027c-256,85 -543,236 -792,264 -461,51 -938,-129 -1225,93 -302,234 -457,210 -541,80 -17,66 -25,134 -25,203 0,596 640,1080 1431,1080 790,0 1430,-483 1430,-1080 0,-240 -103,-461 -278,-640zm-2518 961c8,19 16,38 26,56 69,-115 167,-208 249,-254 41,-24 77,-35 99,-30 15,3 23,20 19,51 -8,76 -74,215 -233,436 11,13 23,27 35,40 170,-235 240,-385 249,-470 7,-64 -17,-98 -59,-107 -35,-8 -84,5 -136,35 -81,46 -176,134 -249,243zm297 396c13,11 26,22 40,32 62,-71 132,-163 208,-280 92,-142 195,-237 261,-268 19,-9 32,-12 37,-9 3,2 3,13 -2,32 -18,74 -104,219 -301,451 -39,46 -70,100 -91,152 15,9 29,18 45,27 19,-49 48,-101 86,-145 202,-239 292,-392 312,-472 11,-44 3,-73 -20,-88 -21,-14 -51,-12 -87,5 -73,34 -185,136 -282,286 -76,117 -144,208 -204,276l-2 1zm355 219c17,7 35,15 52,22 106,-98 247,-266 430,-535 179,-263 324,-420 407,-475 24,-16 38,-23 40,-21 4,4 1,23 -11,58 -41,117 -184,350 -467,693 -108,131 -185,243 -235,334 17,5 34,9 51,13 48,-85 122,-191 224,-315 288,-348 434,-588 476,-710 19,-56 18,-94 -2,-112 -22,-20 -57,-16 -104,15 -88,58 -238,219 -422,489 -193,283 -337,452 -440,542l1 2zm468 128c21,3 42,5 63,7 111,-122 241,-294 383,-524 165,-268 293,-416 364,-469 19,-14 29,-21 29,-21l0 0c1,0 -3,12 -11,35 -30,83 -132,243 -327,455 -163,178 -264,369 -288,481 -4,18 -6,35 -6,50 13,0 26,0 39,0 4,0 8,0 12,0 0,-10 2,-24 5,-40 22,-105 119,-286 276,-457 200,-218 306,-385 338,-473 17,-46 14,-78 -6,-93l0 0c-20,-15 -51,-10 -91,20 -76,56 -208,209 -378,483 -152,245 -289,424 -402,543l0 3zm319 15c30,-1 59,-3 88,-5 96,-88 236,-258 424,-540 236,-354 475,-620 611,-727 41,-32 69,-49 80,-47 1,0 -7,14 -18,44 -41,106 -179,329 -461,699 -136,179 -199,306 -205,378 -4,45 11,74 42,86 2,1 3,1 5,2 95,-36 184,-79 266,-130 100,-86 220,-215 348,-388 41,-56 82,-101 119,-137 13,-32 23,-64 32,-97 -57,44 -123,109 -193,203 -202,275 -383,435 -492,484 -31,14 -53,19 -66,14 -7,-3 -11,-14 -9,-33 6,-63 65,-180 195,-351 285,-374 427,-602 469,-712 26,-70 17,-106 -21,-113 -26,-5 -68,15 -121,57 -139,110 -383,380 -622,739 -227,341 -381,513 -469,574l-2 0zm-1217 -2000l-431 -870c19,-12 37,-19 58,-25 64,-17 127,96 220,-184 39,-117 75,-252 88,-292 62,-191 123,-390 157,-599 98,-610 367,-1119 1135,-1152 505,-22 675,436 836,802 270,614 233,1082 388,1653 81,296 282,156 334,288 37,91 -141,238 -91,337 206,401 -736,658 -1291,628 -166,-9 -1385,-547 -1403,-586zm1956 541c-192,37 -390,54 -553,45 -98,-5 -1190,-303 -1559,-465 164,-988 2782,-1055 2753,193 -8,358 -623,133 -641,227zm-1705 -3550c-102,-227 509,-380 470,139 -12,160 -402,10 -470,-139zm1076 -266c160,-418 505,-46 310,154 -136,140 -479,288 -310,-154zm306 1557c11,-32 34,-120 34,16 0,13 -590,1632 -34,-16zm402 -480c-131,112 -133,59 -198,215 -24,57 -48,123 -76,176 -7,13 462,-550 274,-391zm-390 528c13,-15 17,-57 -6,-56m-9 2678l-1030 -799 -142 -131c379,183 835,931 1594,-127 311,-434 761,-513 995,40 102,242 152,470 56,723 -14,37 -33,67 -59,76 -16,5 -32,-4 -46,-44 -15,-39 -78,8 -89,164 -5,68 -38,26 -56,-16 -12,-27 -17,-56 -34,-48 -45,23 -38,107 -50,148 -3,12 -7,17 -12,18 -20,4 -100,-58 -132,-69 -80,-27 -201,-40 -312,-63 -393,-82 -498,6 -682,126l-1 2zm-2289 -1611c-435,818 1,1482 262,1731 138,132 201,150 186,17 -9,-79 108,107 245,147 70,-114 -165,-113 201,-1 48,15 -49,-97 155,-137 213,-42 1426,-53 1421,-254 0,-8 -67,11 -161,-25 -152,-57 -386,-206 -581,-339 -503,-342 -773,-540 -1070,-1058 -186,-324 -446,-481 -658,-83l0 2zm4116 3060c390,-292 782,-175 570,440 -193,559 -1875,540 -570,-440zm222 -391c54,-29 111,15 148,84 179,329 -269,488 -261,168 3,-99 41,-214 113,-252zm-159 652c108,-68 309,-103 300,160 -4,130 -164,197 -291,215 -434,60 -245,-227 -9,-375zm-4526 -550c-372,-127 -735,39 -713,429 33,574 1381,785 1485,430 45,-153 -240,-678 -772,-860l0 1zm2395 -5373c97,-253 305,-28 188,93 -82,85 -290,174 -188,-93zm-922 332c-240,-126 9,-306 114,-175 74,92 138,309 -114,175zm3374 5352c17,59 88,69 164,48 360,-100 164,-533 -61,-305 -69,71 -125,178 -103,256l0 1zm95 158c-17,59 38,106 113,128 358,108 423,-363 111,-290 -96,23 -201,84 -224,162zm31 193c-35,37 -13,93 35,139 226,219 456,-108 195,-174 -81,-20 -183,-15 -230,35zm-5071 115c-148,-51 -336,-216 -77,-411 127,-96 315,6 429,113 391,369 -29,409 -352,298zm-815 -659c352,-126 440,342 126,284 -159,-29 -371,-195 -126,-284zm497 59c599,-154 -928,-404 -314,-64 95,65 230,106 314,64zm-613 322c-32,52 9,112 75,153 318,197 503,-240 183,-251 -99,-3 -216,28 -258,98zm594 235c28,45 -6,97 -64,134 -275,176 -441,-204 -163,-217 86,-4 189,22 226,82l1 1zm2453 -5510c5,-44 40,-77 78,-72 38,5 64,44 58,89 -5,44 -73,130 -110,126 -38,-5 -31,-98 -26,-142l0 -1zm13 145c31,34 88,-164 10,-156 -35,4 -40,122 -10,156zm-138 -48c15,-44 158,-55 246,-223 4,-7 5,-9 10,-16m-342 134c8,-24 33,-37 67,-55 51,-27 104,-85 157,-188 3,-6 5,-9 9,-15l0 0 3 -4 97 48 -3 4 0 0c-3,4 -4,6 -6,10 -60,114 -181,144 -237,174 -48,16 -69,28 -87,25l0 1zm275 6c7,-3 17,6 22,20 5,14 4,27 -3,29 -7,3 -17,-6 -22,-20 -5,-14 -4,-27 3,-29zm502 -58c-5,-44 -40,-77 -78,-72 -38,5 -64,44 -58,89 5,44 73,130 110,126 38,-5 31,-98 26,-142l0 -1zm-31 145c45,7 -34,-183 -90,-127 -25,25 45,120 90,127zm157 -48c-15,-44 -158,-55 -246,-223 -4,-7 -5,-9 -10,-16m277 213c-8,-24 -33,-37 -67,-55 -51,-27 -104,-85 -157,-188 -3,-6 -5,-9 -9,-15l0 0 -3 -4 -97 48 3 4 0 0c3,4 4,6 6,10 60,114 181,144 237,174 48,16 69,28 87,25l0 1zm-200 -69c7,-3 17,6 22,20 5,14 4,27 -3,29 -7,3 -17,-6 -22,-20 -5,-14 -4,-27 3,-29z"/>
  <ellipse class="fil1" cx="10495" cy="9477" rx="3340" ry="344"/>
  <path class="fil2 str1" d="M8661 7553c-252,152 -887,803 -632,1049 260,250 138,524 700,766 89,39 623,-175 1094,-303 406,178 1337,103 1698,-25 213,180 568,328 1027,376 63,7 199,-55 260,-50 204,18 370,-348 385,-379 130,-251 -193,-159 -233,-388 -61,-352 -320,-673 -593,-891 30,-293 29,-1017 -228,-1188 -299,-198 -847,222 -1277,269 -461,51 -938,-129 -1225,93 -937,726 -463,-1028 -820,-749 -47,32 -92,228 -123,360 -76,322 -121,839 -34,1059l1 1zm2993 -1027c-256,85 -543,236 -792,264 -461,51 -938,-129 -1225,93 -302,234 -457,210 -541,80 -17,66 -25,134 -25,203 0,596 640,1080 1431,1080 790,0 1430,-483 1430,-1080 0,-240 -103,-461 -278,-640zm-2518 961c8,19 16,38 26,56 69,-115 167,-208 249,-254 41,-24 77,-35 99,-30 15,3 23,20 19,51 -8,76 -74,215 -233,436 11,13 23,27 35,40 170,-235 240,-385 249,-470 7,-64 -17,-98 -59,-107 -35,-8 -84,5 -136,35 -81,46 -176,134 -249,243zm297 396c13,11 26,22 40,32 62,-71 132,-163 208,-280 92,-142 195,-237 261,-268 19,-9 32,-12 37,-9 3,2 3,13 -2,32 -18,74 -104,219 -301,451 -39,46 -70,100 -91,152 15,9 29,18 45,27 19,-49 48,-101 86,-145 202,-239 292,-392 312,-472 11,-44 3,-73 -20,-88 -21,-14 -51,-12 -87,5 -73,34 -185,136 -282,286 -76,117 -144,208 -204,276l-2 1zm355 219c17,7 35,15 52,22 106,-98 247,-266 430,-535 179,-263 324,-420 407,-475 24,-16 38,-23 40,-21 4,4 1,23 -11,58 -41,117 -184,350 -467,693 -108,131 -185,243 -235,334 17,5 34,9 51,13 48,-85 122,-191 224,-315 288,-348 434,-588 476,-710 19,-56 18,-94 -2,-112 -22,-20 -57,-16 -104,15 -88,58 -238,219 -422,489 -193,283 -337,452 -440,542l1 2zm468 128c21,3 42,5 63,7 111,-122 241,-294 383,-524 165,-268 293,-416 364,-469 19,-14 29,-21 29,-21l0 0c1,0 -3,12 -11,35 -30,83 -132,243 -327,455 -163,178 -264,369 -288,481 -4,18 -6,35 -6,50 13,0 26,0 39,0 4,0 8,0 12,0 0,-10 2,-24 5,-40 22,-105 119,-286 276,-457 200,-218 306,-385 338,-473 17,-46 14,-78 -6,-93l0 0c-20,-15 -51,-10 -91,20 -76,56 -208,209 -378,483 -152,245 -289,424 -402,543l0 3zm319 15c30,-1 59,-3 88,-5 96,-88 236,-258 424,-540 236,-354 475,-620 611,-727 41,-32 69,-49 80,-47 1,0 -7,14 -18,44 -41,106 -179,329 -461,699 -136,179 -199,306 -205,378 -4,45 11,74 42,86 2,1 3,1 5,2 95,-36 184,-79 266,-130 100,-86 220,-215 348,-388 41,-56 82,-101 119,-137 13,-32 23,-64 32,-97 -57,44 -123,109 -193,203 -202,275 -383,435 -492,484 -31,14 -53,19 -66,14 -7,-3 -11,-14 -9,-33 6,-63 65,-180 195,-351 285,-374 427,-602 469,-712 26,-70 17,-106 -21,-113 -26,-5 -68,15 -121,57 -139,110 -383,380 -622,739 -227,341 -381,513 -469,574l-2 0zm-1217 -2000l-431 -870c19,-12 37,-19 58,-25 64,-17 127,96 220,-184 39,-117 75,-252 88,-292 255,-787 184,-1703 1292,-1751 505,-22 675,436 836,802 270,614 233,1082 388,1653 81,296 282,156 334,288 37,91 -141,238 -91,337 206,401 -736,658 -1291,628 -166,-9 -1385,-547 -1403,-586zm1956 541c-192,37 -390,54 -553,45 -98,-5 -1190,-303 -1559,-465 164,-988 2782,-1055 2753,193 -8,358 -623,133 -641,227zm-1705 -3550c-102,-227 509,-380 470,139 -12,160 -402,10 -470,-139zm1076 -266c160,-418 505,-46 310,154 -136,140 -479,288 -310,-154zm-533 1199c4,3 646,931 839,358 6,-17 -2,-35 -10,-53 32,25 44,61 44,69 0,125 -196,180 -290,195 -91,15 -191,10 -280,-35 -718,-363 -353,-576 -303,-534zm749 214c-26,-169 -685,-178 -380,-387 376,-258 1104,-146 872,51 -131,112 -133,59 -198,215 -24,57 -48,123 -76,176 -93,173 -192,109 -217,-54l-1 -1zm-405 273c194,98 459,-25 507,-81 13,-15 17,-57 -6,-56m-9 2678l-1030 -799 -142 -131c379,183 835,931 1594,-127 311,-434 761,-513 995,40 102,242 152,470 56,723 -14,37 -33,67 -59,76 -16,5 -32,-4 -46,-44 -15,-39 -78,8 -89,164 -5,68 -38,26 -56,-16 -12,-27 -17,-56 -34,-48 -45,23 -38,107 -50,148 -3,12 -7,17 -12,18 -20,4 -100,-58 -132,-69 -80,-27 -201,-40 -312,-63 -393,-82 -498,6 -682,126l-1 2zm-2289 -1611c-435,818 1,1482 262,1731 138,132 201,150 186,17 -9,-79 108,107 245,147 70,-114 -165,-113 201,-1 48,15 -49,-97 155,-137 213,-42 1426,-53 1421,-254 0,-8 -67,11 -161,-25 -152,-57 -386,-206 -581,-339 -503,-342 -773,-540 -1070,-1058 -186,-324 -446,-481 -658,-83l0 2zm4116 3060c390,-292 782,-175 570,440 -193,559 -1875,540 -570,-440zm222 -391c54,-29 111,15 148,84 179,329 -269,488 -261,168 3,-99 41,-214 113,-252zm-159 652c108,-68 309,-103 300,160 -4,130 -164,197 -291,215 -434,60 -245,-227 -9,-375zm-4526 -550c-372,-127 -735,39 -713,429 33,574 1381,785 1485,430 45,-153 -240,-678 -772,-860l0 1zm2395 -5373c97,-253 305,-28 188,93 -82,85 -290,174 -188,-93zm-922 332c-240,-126 9,-306 114,-175 74,92 138,309 -114,175zm3374 5352c17,59 88,69 164,48 360,-100 164,-533 -61,-305 -69,71 -125,178 -103,256l0 1zm95 158c-17,59 38,106 113,128 358,108 423,-363 111,-290 -97,23 -201,84 -224,162zm31 193c-35,37 -13,93 35,139 226,219 456,-108 195,-174 -81,-20 -183,-15 -230,35zm-5071 115c-148,-51 -336,-216 -77,-411 127,-96 315,6 429,113 391,369 -29,409 -352,298zm-815 -659c352,-126 440,342 126,284 -159,-29 -371,-195 -126,-284zm497 59c63,-31 60,-115 21,-197 -189,-390 -642,-76 -335,133 95,65 230,106 314,64zm-613 322c-32,52 9,112 75,153 318,197 503,-240 183,-251 -99,-3 -216,28 -258,98zm594 235c28,45 -6,97 -64,134 -275,176 -441,-204 -163,-217 86,-4 189,22 226,82l1 1zm2453 -5510c5,-44 40,-77 78,-72 38,5 64,44 58,89 -5,44 -73,130 -110,126 -38,-5 -31,-98 -26,-142l0 -1zm13 145c31,34 88,-164 10,-156 -35,4 -40,122 -10,156zm-138 -48c15,-44 158,-55 246,-223 4,-7 5,-9 10,-16m-342 134c8,-24 33,-37 67,-55 51,-27 104,-85 157,-188 3,-6 5,-9 9,-15l0 0 3 -4 97 48 -3 4 0 0c-3,4 -4,6 -6,10 -60,114 -181,144 -237,174 -48,16 -69,28 -87,25l0 1zm275 6c7,-3 17,6 22,20 5,14 4,27 -3,29 -7,3 -17,-6 -22,-20 -5,-14 -4,-27 3,-29zm502 -58c-5,-44 -40,-77 -78,-72 -38,5 -64,44 -58,89 5,44 73,130 110,126 38,-5 31,-98 26,-142l0 -1zm-31 145c45,7 -34,-183 -90,-127 -25,25 45,120 90,127zm157 -48c-15,-44 -158,-55 -246,-223 -4,-7 -5,-9 -10,-16m277 213c-8,-24 -33,-37 -67,-55 -51,-27 -104,-85 -157,-188 -3,-6 -5,-9 -9,-15l0 0 -3 -4 -97 48 3 4 0 0c3,4 4,6 6,10 60,114 181,144 237,174 48,16 69,28 87,25l0 1zm-200 -69c7,-3 17,6 22,20 5,14 4,27 -3,29 -7,3 -17,-6 -22,-20 -5,-14 -4,-27 3,-29z"/>
  <path class="fil3" d="M8668 7545c-252,152 -887,803 -632,1049 260,250 138,524 700,766 89,39 623,-175 1094,-303 406,178 1337,103 1698,-25 213,180 568,328 1027,376 63,7 199,-55 260,-50 204,18 370,-348 385,-379 130,-251 -193,-159 -233,-388 -61,-352 -320,-673 -593,-891 30,-293 29,-1017 -228,-1188 -299,-198 -847,222 -1277,269 -461,51 -938,-129 -1225,93 -937,726 -463,-1028 -820,-749 -47,32 -92,228 -123,360 -76,322 -121,839 -34,1059l1 1z"/>
  <path class="fil4" d="M11661 6519c-256,85 -543,236 -792,264 -461,51 -938,-129 -1225,93 -302,234 -457,210 -541,80 -17,66 -25,134 -25,203 0,596 640,1080 1431,1080 790,0 1430,-483 1430,-1080 0,-240 -103,-461 -278,-640z"/>
  <path class="fil5" d="M9143 7480c8,19 16,38 26,56 69,-115 167,-208 249,-254 41,-24 77,-35 99,-30 15,3 23,20 19,51 -8,76 -74,215 -233,436 11,13 23,27 35,40 170,-235 240,-385 249,-470 7,-64 -17,-98 -59,-107 -35,-8 -84,5 -136,35 -81,46 -176,134 -249,243zm297 396c13,11 26,22 40,32 62,-71 132,-163 208,-280 92,-142 195,-237 261,-268 19,-9 32,-12 36,-9 3,2 3,13 -2,32 -18,74 -104,219 -301,451 -39,46 -70,100 -91,152 15,9 29,18 45,27 19,-49 48,-101 86,-145 202,-239 292,-392 312,-472 11,-44 3,-73 -20,-88 -21,-14 -51,-12 -87,5 -73,34 -185,136 -282,286 -76,117 -144,208 -204,276l-1 1zm355 219c17,7 35,15 52,22 106,-98 247,-266 430,-535 179,-263 324,-420 407,-475 24,-16 38,-23 40,-21 4,4 1,23 -11,58 -41,117 -184,350 -467,693 -108,131 -185,243 -235,334 17,5 34,9 51,13 48,-85 122,-191 224,-315 288,-348 434,-588 476,-710 19,-56 18,-94 -2,-112 -22,-20 -57,-16 -104,15 -88,58 -238,219 -422,489 -193,283 -337,452 -440,542l1 2zm468 128c21,3 42,5 63,7 111,-122 241,-294 383,-524 165,-268 293,-416 364,-469 19,-14 29,-21 29,-21l0 0c1,0 -3,12 -11,35 -30,83 -132,243 -327,455 -163,178 -264,369 -288,481 -4,18 -6,35 -6,50 13,0 26,0 39,0 4,0 8,0 12,0 0,-10 2,-24 5,-40 22,-105 119,-286 276,-457 200,-218 306,-385 338,-473 17,-46 14,-78 -6,-93l0 0c-20,-15 -51,-10 -91,20 -76,56 -208,209 -378,483 -152,245 -289,424 -402,543l0 3zm319 15c30,-1 59,-3 88,-5 96,-88 236,-258 424,-540 236,-354 475,-620 611,-727 41,-32 69,-49 80,-47 1,0 -7,14 -18,44 -41,106 -179,329 -461,699 -136,179 -199,306 -205,378 -4,45 11,74 42,86 2,1 3,1 5,2 95,-36 184,-79 266,-130 100,-86 220,-215 348,-388 41,-56 82,-101 119,-137 13,-32 23,-64 32,-97 -57,44 -123,109 -193,203 -202,275 -383,435 -492,484 -31,14 -53,19 -66,14 -7,-3 -11,-14 -9,-33 6,-63 65,-180 195,-351 285,-374 427,-602 469,-712 26,-70 17,-106 -21,-113 -26,-5 -68,15 -121,57 -139,110 -383,380 -622,739 -227,341 -381,513 -469,574l-2 0z"/>
  <path class="fil5" d="M9365 6237l-431 -870c19,-12 37,-19 58,-25 64,-17 127,96 220,-184 39,-117 75,-252 88,-292 62,-191 123,-390 157,-599 98,-610 367,-1119 1135,-1152 505,-22 675,436 836,802 270,614 233,1082 388,1653 81,296 282,156 334,288 37,91 -141,238 -91,337 206,401 -736,658 -1291,628 -166,-9 -1385,-547 -1403,-586z"/>
  <path class="fil6" d="M11321 6778c-192,37 -390,54 -553,45 -98,-5 -1190,-303 -1559,-465 164,-988 2782,-1055 2753,193 -8,358 -623,133 -641,227z"/>
  <path class="fil7" d="M9617 3228c-102,-227 509,-380 470,139 -12,160 -402,10 -470,-139z"/>
  <path class="fil7" d="M10693 2961c160,-418 505,-46 310,154 -136,140 -479,288 -310,-154z"/>
  <path class="fil8" d="M9923 4324c137,-163 181,-211 237,-164 21,18 27,42 36,77 134,507 749,441 803,281 6,-17 -2,-35 -10,-53 32,25 44,61 44,69 0,125 -196,180 -290,195 -91,15 -191,10 -280,-35 -293,-148 -342,-337 -367,-431 -4,-17 2,-21 -3,-24 -45,-38 -100,100 -171,85l1 0z"/>
  <path class="fil9" d="M10909 4375c-26,-169 -685,-177 -380,-387 376,-258 1104,-146 872,51 -131,112 -133,59 -198,215 -24,57 -48,123 -76,176 -93,173 -192,109 -217,-54l-1 -1z"/>
  <path class="fil10" d="M9979 4356c330,-391 -10,22 524,292 194,98 459,-25 507,-81 13,-15 17,-57 -6,-57"/>
  <path class="fil11" d="M10995 7188l-1030 -799 -142 -131c379,183 835,931 1594,-127 311,-434 761,-513 995,40 102,242 152,470 56,723 -14,37 -33,67 -59,76 -16,5 -32,-4 -46,-44 -15,-39 -78,8 -89,164 -5,68 -38,26 -56,-16 -12,-27 -17,-56 -34,-48 -45,23 -38,107 -50,148 -3,12 -7,17 -12,18 -20,4 -100,-58 -132,-69 -80,-27 -201,-40 -312,-63 -393,-82 -498,6 -682,126l-1 2z"/>
  <path class="fil7" d="M8707 5577c-435,818 1,1482 262,1731 138,132 201,150 186,17 -9,-79 108,107 245,147 70,-114 -165,-113 201,-1 48,15 -49,-97 155,-137 213,-42 1426,-53 1421,-254 0,-8 -67,11 -161,-25 -152,-57 -386,-206 -581,-339 -503,-342 -773,-540 -1070,-1058 -186,-324 -446,-481 -658,-83l0 2z"/>
  <path class="fil12" d="M12823 8638c390,-292 782,-175 570,440 -193,559 -1875,540 -570,-440z"/>
  <path class="fil6" d="M13045 8246c54,-29 111,15 148,84 179,329 -269,488 -261,168 3,-99 41,-214 113,-252z"/>
  <path class="fil13" d="M12886 8898c108,-68 309,-103 300,160 -4,130 -164,197 -291,215 -434,60 -245,-227 -9,-375z"/>
  <path class="fil12" d="M8360 8348c-372,-127 -735,39 -713,429 33,574 1381,785 1485,430 45,-153 -240,-678 -772,-860l0 1z"/>
  <path class="fil13" d="M10755 2975c97,-253 305,-28 188,93 -82,85 -290,174 -188,-93z"/>
  <path class="fil13" d="M9833 3307c-240,-126 9,-306 114,-175 74,92 138,309 -114,175z"/>
  <path class="fil6" d="M13207 8660c17,59 88,69 164,48 360,-100 164,-533 -61,-305 -69,71 -125,178 -103,256l0 1z"/>
  <path class="fil6" d="M13302 8817c-17,59 38,106 113,128 358,108 423,-363 111,-290 -96,23 -201,84 -224,162z"/>
  <path class="fil6" d="M13333 9011c-35,37 -13,93 35,139 226,219 456,-108 195,-174 -81,-20 -183,-15 -230,35z"/>
  <path class="fil13" d="M8262 9125c-148,-51 -336,-216 -77,-411 127,-96 315,6 429,113 391,369 -29,409 -352,298z"/>
  <path class="fil6" d="M7341 8600c-20,-58 32,-107 106,-134 352,-126 441,342 126,284 -98,-18 -205,-74 -232,-151l0 1z"/>
  <path class="fil6" d="M7944 8526c63,-31 60,-115 21,-197 -189,-390 -642,-76 -335,133 95,65 230,106 314,64z"/>
  <path class="fil6" d="M7331 8848c-32,52 9,112 75,153 318,197 503,-240 183,-251 -99,-3 -216,28 -258,98z"/>
  <path class="fil6" d="M7924 9083c28,45 -6,97 -64,134 -275,176 -441,-204 -163,-217 86,-4 189,22 226,82l1 1z"/>
  <path class="fil14" d="M10377 3573c5,-44 40,-77 78,-72 38,5 64,44 58,89 -5,44 -73,130 -110,126 -38,-5 -31,-98 -26,-142l0 -1z"/>
  <path class="fil9" d="M10390 3718c31,34 88,-164 10,-156 -35,4 -40,122 -10,156z"/>
  <path class="fil10" d="M10252 3669c15,-44 158,-55 246,-223 4,-7 5,-9 10,-16"/>
  <path class="fil8" d="M10167 3564c8,-24 33,-37 67,-55 51,-27 104,-85 157,-188 3,-6 5,-9 9,-15l0 0 3 -4 97 48 -3 4 0 0c-3,4 -4,6 -6,10 -60,114 -181,144 -237,174 -48,16 -69,28 -87,25l0 1z"/>
  <ellipse class="fil2" transform="matrix(0.129197 -0.0482904 0.0873744 0.233764 10451.7 3595.65)" rx="98" ry="106"/>
  <path class="fil14" d="M10945 3512c-5,-44 -40,-77 -78,-72 -38,5 -64,44 -58,89 5,44 73,130 110,126 38,-5 31,-98 26,-142l0 -1z"/>
  <path class="fil9" d="M10913 3657c45,7 -34,-183 -90,-127 -25,25 45,120 90,127z"/>
  <path class="fil10" d="M11070 3609c-15,-44 -158,-55 -246,-223 -4,-7 -5,-9 -10,-16"/>
  <path class="fil8" d="M11090 3583c-8,-24 -33,-37 -67,-55 -51,-27 -104,-85 -157,-188 -3,-6 -5,-9 -9,-15l0 0 -3 -4 -97 48 3 4 0 0c3,4 4,6 6,10 60,114 181,144 237,174 48,16 69,28 87,25l0 1z"/>
  <ellipse class="fil2" transform="matrix(0.129197 -0.0482904 0.0873744 0.233764 10900.1 3539.14)" rx="98" ry="106"/>
 </g>
</svg>
