<?xml version="1.0" encoding="UTF-8"?>
<!DOCTYPE svg PUBLIC "-//W3C//DTD SVG 1.1//EN" "http://www.w3.org/Graphics/SVG/1.1/DTD/svg11.dtd">
<!-- Creator: CorelDRAW X6 -->
<svg xmlns="http://www.w3.org/2000/svg" xml:space="preserve" width="210mm" height="148mm" version="1.1" style="shape-rendering:geometricPrecision; text-rendering:geometricPrecision; image-rendering:optimizeQuality; fill-rule:evenodd; clip-rule:evenodd"
viewBox="0 0 21000 14800"
 xmlns:xlink="http://www.w3.org/1999/xlink">
 <defs>
  <style type="text/css">
   <![CDATA[
    .str0 {stroke:black;stroke-width:20}
    .str1 {stroke:#DFCB8E;stroke-width:20}
    .fil18 {fill:none}
    .fil48 {fill:#267969}
    .fil53 {fill:#298070}
    .fil47 {fill:#2B8174}
    .fil0 {fill:#2F3B45}
    .fil39 {fill:#359280}
    .fil59 {fill:#3DAA95}
    .fil37 {fill:#3FAA96}
    .fil11 {fill:#42A996}
    .fil34 {fill:#514C46}
    .fil15 {fill:#524B41}
    .fil45 {fill:#5A5247}
    .fil56 {fill:#5B5444}
    .fil13 {fill:#5D574B}
    .fil38 {fill:#5E564B}
    .fil57 {fill:#749B86}
    .fil12 {fill:#779E89}
    .fil4 {fill:#7A362F}
    .fil50 {fill:#7B6965}
    .fil14 {fill:#7D6B67}
    .fil25 {fill:#7EAA93}
    .fil21 {fill:#8A9E8E}
    .fil49 {fill:#8F7D78}
    .fil54 {fill:#91AA95}
    .fil43 {fill:#94A996}
    .fil46 {fill:#95B19B}
    .fil20 {fill:#96B29C}
    .fil58 {fill:#9F4207}
    .fil3 {fill:#A23634}
    .fil51 {fill:#A3997C}
    .fil40 {fill:#A3C1A9}
    .fil1 {fill:#B74238}
    .fil33 {fill:#B8A46C}
    .fil9 {fill:#B90E16}
    .fil10 {fill:#B90F16}
    .fil31 {fill:#B91017}
    .fil28 {fill:#BCAD82}
    .fil41 {fill:#BCD8BF}
    .fil23 {fill:#BCDABE}
    .fil32 {fill:#BE3522}
    .fil24 {fill:#C8B789}
    .fil6 {fill:#CC9308}
    .fil36 {fill:#DA9D0A}
    .fil8 {fill:#DAA00F}
    .fil52 {fill:#DEA61F}
    .fil30 {fill:#DF372A}
    .fil2 {fill:#DF574B}
    .fil27 {fill:#DFCB8E}
    .fil35 {fill:#E0AB2B}
    .fil5 {fill:#E2382B}
    .fil17 {fill:#E8D593}
    .fil7 {fill:#EEAC0A}
    .fil26 {fill:#F1ECD6}
    .fil44 {fill:#F2F0E4}
    .fil19 {fill:#F9E59E}
    .fil22 {fill:#FEFADF}
    .fil42 {fill:black;fill-rule:nonzero}
    .fil55 {fill:#3DAA95;fill-rule:nonzero}
    .fil29 {fill:#7D6B67;fill-rule:nonzero}
    .fil16 {fill:#C8B789;fill-rule:nonzero}
   ]]>
  </style>
 </defs>
 <g id="Слой_x0020_1">
  <metadata id="CorelCorpID_0Corel-Layer"/>
  <rect class="fil0" x="-683" y="-23" width="22500" height="13500"/>
  <polygon class="fil1" points="4973,9602 6703,9602 6703,12259 4973,12259 "/>
  <path class="fil1" d="M5836 9411c306,0 607,76 862,193l-1730 -1c254,-117 562,-191 868,-191z"/>
  <polygon class="fil2" points="5723,9602 6703,9602 6703,12259 5723,12259 "/>
  <polygon class="fil3" points="5788,9602 6703,9602 6703,12259 5788,12259 "/>
  <path class="fil2" d="M5872 10960c31,0 55,25 55,55 0,31 -25,55 -55,55 -31,0 -55,-25 -55,-55 0,-31 25,-55 55,-55z"/>
  <path class="fil3" d="M5859 10989c6,0 10,4 10,10 0,5 -4,10 -10,10 -6,0 -10,-4 -10,-10 0,-5 4,-10 10,-10z"/>
  <path class="fil3" d="M5890 10989c6,0 10,4 10,10 0,5 -4,10 -10,10 -6,0 -10,-4 -10,-10 0,-5 4,-10 10,-10z"/>
  <path class="fil3" d="M5859 11018c6,0 10,4 10,10 0,5 -4,10 -10,10 -6,0 -10,-4 -10,-10 0,-5 4,-10 10,-10z"/>
  <path class="fil3" d="M5890 11018c6,0 10,4 10,10 0,5 -4,10 -10,10 -6,0 -10,-4 -10,-10 0,-5 4,-10 10,-10z"/>
  <path class="fil2" d="M5872 11675c31,0 55,25 55,55 0,31 -25,55 -55,55 -31,0 -55,-25 -55,-55 0,-31 25,-55 55,-55z"/>
  <path class="fil3" d="M5859 11704c6,0 10,4 10,10 0,5 -4,10 -10,10 -6,0 -10,-4 -10,-10 0,-5 4,-10 10,-10z"/>
  <path class="fil3" d="M5890 11704c6,0 10,4 10,10 0,5 -4,10 -10,10 -6,0 -10,-4 -10,-10 0,-5 4,-10 10,-10z"/>
  <path class="fil3" d="M5859 11732c6,0 10,4 10,10 0,5 -4,10 -10,10 -6,0 -10,-4 -10,-10 0,-5 4,-10 10,-10z"/>
  <path class="fil3" d="M5890 11732c6,0 10,4 10,10 0,5 -4,10 -10,10 -6,0 -10,-4 -10,-10 0,-5 4,-10 10,-10z"/>
  <path class="fil4" d="M5855 10429c188,-164 865,-756 314,-906 -82,-22 -193,-36 -315,-36 -137,0 -260,17 -343,44 -459,149 178,720 345,897z"/>
  <path class="fil3" d="M6351 9854c106,-171 112,-333 -159,-402 -88,-22 -206,-36 -337,-36 -147,0 -278,17 -367,44 -202,61 -205,194 -128,341 -37,-118 -9,-219 148,-270 84,-27 206,-44 343,-44 122,0 233,14 315,36 218,59 244,188 184,331z"/>
  <path class="fil5" d="M5320 9586l36 83c-50,187 228,482 404,660l94 104 -589 149c-21,-418 -68,-593 54,-996z"/>
  <path class="fil5" d="M6411 9586l-36 83c50,187 -228,482 -404,660l-123 102 618 152c21,-418 68,-593 -54,-996z"/>
  <path class="fil6" d="M14526 3661l135 0c21,0 38,17 38,38l0 160c0,21 -17,38 -38,38l-135 0c-21,0 -38,-17 -38,-38l0 -160c0,-21 17,-38 38,-38z"/>
  <path class="fil7" d="M15239 3438c110,217 129,445 3,691 -215,-30 -395,-99 -530,-241l-2 -223c131,-144 313,-210 529,-228z"/>
  <path class="fil7" d="M13942 3438c-110,217 -129,445 -3,691 215,-30 395,-99 530,-241l2 -223c-131,-144 -313,-210 -529,-228z"/>
  <path class="fil8" d="M9277 3691l118 0c18,0 33,15 33,33l0 140c0,18 -15,33 -33,33l-118 0c-18,0 -33,-15 -33,-33l0 -140c0,-18 15,-33 33,-33z"/>
  <path class="fil9" d="M10112 3560c-7,70 -35,145 -34,223 1,171 150,373 -92,325 -190,-38 -438,-113 -535,-216l-2 -196c88,-97 306,-193 492,-223 97,-16 187,-63 171,88z"/>
  <path class="fil10" d="M8557 3560c7,70 35,145 34,223 -1,171 -150,373 92,325 190,-38 438,-113 535,-216l2 -196c-88,-97 -306,-193 -492,-223 -97,-16 -187,-63 -171,88z"/>
  <path class="fil11" d="M11907 3661l135 0c21,0 38,17 38,38l0 160c0,21 -17,38 -38,38l-135 0c-21,0 -38,-17 -38,-38l0 -160c0,-21 17,-38 38,-38z"/>
  <path class="fil12" d="M12620 3438c1,3 4,685 3,691 -215,-30 -395,-99 -530,-241l-2 -223c131,-144 313,-210 529,-228z"/>
  <path class="fil12" d="M11327 3438c-1,3 -4,685 -3,691 215,-30 395,-99 530,-241l2 -223c-131,-144 -313,-210 -529,-228z"/>
  <path class="fil13" d="M14070 1160c113,0 201,12 285,27 226,39 257,36 483,-2 81,-14 166,-25 274,-25 172,0 168,59 451,65 53,1 52,2 52,36l0 102c0,52 1,37 -53,45 -60,9 -50,22 -46,130 8,209 -181,378 -404,378 -158,0 -294,-114 -373,-257 -104,-187 -31,-291 -148,-292 -116,0 -44,105 -148,292 -79,143 -216,257 -373,257 -223,0 -412,-169 -404,-378 4,-109 14,-121 -46,-130 -54,-8 -53,8 -53,-45l0 -102c0,-34 -1,-35 52,-36 283,-6 279,-65 451,-65z"/>
  <path class="fil0" d="M14073 1232c144,0 354,-17 354,184 0,173 -142,417 -354,417 -177,0 -321,-134 -321,-300 0,-166 144,-300 321,-300z"/>
  <path class="fil0" d="M15116 1235c-144,0 -354,-17 -354,184 0,173 142,417 354,417 177,0 321,-134 321,-300 0,-166 -144,-300 -321,-300z"/>
  <path class="fil14" d="M14471 2729c-318,240 -732,66 -792,-225 233,203 293,185 553,-65 225,-216 541,63 239,290z"/>
  <path class="fil14" d="M14710 2729c318,240 732,66 792,-225 -233,203 -293,185 -553,-65 -225,-216 -541,63 -239,290z"/>
  <path class="fil15" d="M11554 2467l836 0c39,0 74,16 99,41 25,25 41,61 41,99 0,61 9,83 22,83 24,0 62,-69 89,-117 4,-8 9,-15 12,-22l222 -386 3 -6 -1 7 -54 325 -22 130 0 0c-9,54 -17,93 -25,123 -9,30 -18,50 -32,68 -26,33 -282,215 -495,366 -126,89 -236,168 -276,199l-1 1 -1 -1c-72,-58 -220,-160 -368,-262 -181,-125 -363,-250 -409,-297 -25,-26 -29,-54 -38,-121 -3,-25 -8,-56 -14,-94l-18 -111 -54 -325 -1 -7 3 6 228 398c4,6 7,13 11,20 26,46 60,107 81,107 13,0 21,-22 21,-83 0,-39 16,-74 41,-99 25,-25 61,-41 99,-41z"/>
  <path class="fil16" d="M7503 1269l0 2593c0,32 -13,61 -34,82l0 0c-21,21 -50,34 -82,34l-2416 0c-32,0 -61,-13 -82,-34 -21,-21 -34,-50 -34,-82l0 -2593c0,-17 4,-34 11,-49 7,-14 16,-27 27,-37l1 -1 0 0c2,-2 4,-4 7,-6 51,-41 127,-60 196,-77 13,-3 26,-6 33,-8 166,-43 339,-75 518,-97 175,-21 356,-33 541,-33 215,0 424,15 626,44 207,30 405,74 592,131 27,8 52,28 70,51l0 0c18,24 29,53 29,81zm-96 2593l0 -2593c0,-8 -4,-17 -10,-25l0 0c-6,-8 -13,-14 -20,-16 -182,-55 -375,-98 -578,-127 -196,-28 -401,-43 -612,-43 -181,0 -358,11 -529,32 -176,22 -346,54 -506,95 -14,4 -24,6 -34,8 -56,14 -120,29 -154,55l-1 1 -6 5c-2,2 -4,5 -6,7 -1,2 -2,5 -2,9l0 2593c0,6 2,11 6,15 4,4 9,6 15,6l2416 0c6,0 11,-2 15,-6l0 0c4,-4 6,-9 6,-15z"/>
  <path class="fil17" d="M7426 1296l0 2534c0,37 -30,67 -67,67l-2361 0c-37,0 -67,-30 -67,-67l0 -2534c0,-21 9,-39 24,-51 1,-1 2,-2 3,-3 49,-39 137,-56 206,-74 315,-81 661,-126 1023,-126 422,0 822,61 1177,169 34,10 63,50 63,85z"/>
  <polygon class="fil18 str0" points="6107,3413 6107,3361 6386,3361 6386,3413 "/>
  <path class="fil18 str0" d="M6107 2325l0 -263c99,-30 203,-24 311,35 -20,118 -60,216 -140,288l-123 -2c-19,-18 -35,-38 -49,-59z"/>
  <path class="fil19" d="M7426 1296l0 2534c0,37 -29,67 -65,67l-1218 0 0 -2675c0,-37 29,-67 65,-67l955 0c69,17 136,36 202,56 33,10 61,50 61,85z"/>
  <path class="fil20" d="M7428 1296l0 2534c0,37 -30,67 -67,67l-1037 0 894 -2727c50,13 99,27 147,41 34,10 63,50 63,85z"/>
  <path class="fil21" d="M7426 3371l0 462c0,28 -17,52 -42,62l-465 0 0 -525 507 0z"/>
  <polygon class="fil22" points="7426,3365 7426,3519 6919,3519 6919,3365 "/>
  <polygon class="fil23" points="7426,3216 7426,3363 7233,3363 6918,3363 7076,3174 7233,2984 7391,3174 "/>
  <path class="fil18 str0" d="M6212 2593c31,0 56,25 56,56 0,31 -25,56 -56,56 -31,0 -56,-25 -56,-56 0,-31 25,-56 56,-56z"/>
  <path class="fil18 str0" d="M6199 2622c6,0 10,4 10,10 0,5 -4,10 -10,10 -6,0 -10,-4 -10,-10 0,-5 4,-10 10,-10z"/>
  <path class="fil18 str0" d="M6230 2622c6,0 10,4 10,10 0,5 -4,10 -10,10 -6,0 -10,-4 -10,-10 0,-5 4,-10 10,-10z"/>
  <path class="fil18 str0" d="M6199 2651c6,0 10,4 10,10 0,5 -4,10 -10,10 -6,0 -10,-4 -10,-10 0,-5 4,-10 10,-10z"/>
  <path class="fil18 str0" d="M6230 2651c6,0 10,4 10,10 0,5 -4,10 -10,10 -6,0 -10,-4 -10,-10 0,-5 4,-10 10,-10z"/>
  <path class="fil18 str0" d="M6212 3310c31,0 56,25 56,56 0,31 -25,56 -56,56 -31,0 -56,-25 -56,-56 0,-31 25,-56 56,-56z"/>
  <path class="fil18 str0" d="M6199 3339c6,0 10,4 10,10 0,5 -4,10 -10,10 -6,0 -10,-4 -10,-10 0,-5 4,-10 10,-10z"/>
  <path class="fil18 str0" d="M6230 3339c6,0 10,4 10,10 0,5 -4,10 -10,10 -6,0 -10,-4 -10,-10 0,-5 4,-10 10,-10z"/>
  <path class="fil18 str0" d="M6199 3368c6,0 10,4 10,10 0,5 -4,10 -10,10 -6,0 -10,-4 -10,-10 0,-5 4,-10 10,-10z"/>
  <path class="fil18 str0" d="M6230 3368c6,0 10,4 10,10 0,5 -4,10 -10,10 -6,0 -10,-4 -10,-10 0,-5 4,-10 10,-10z"/>
  <path class="fil14" d="M6195 2059c189,-164 868,-759 315,-910 -82,-22 -194,-36 -317,-36 -138,0 -261,17 -345,45 -461,150 179,723 346,901z"/>
  <path class="fil24" d="M6693 1482c106,-172 113,-335 -159,-404 -88,-22 -207,-36 -339,-36 -147,0 -279,17 -369,45 -202,62 -206,194 -128,342 -38,-118 -9,-219 149,-271 84,-27 207,-45 345,-45 123,0 234,14 317,36 219,60 245,189 184,333z"/>
  <path class="fil25" d="M6016 2089c121,-58 247,-65 381,7 -20,118 -60,216 -140,288l-123 -2c-77,-74 -112,-175 -118,-294z"/>
  <path class="fil22" d="M5658 1213l36 83c-50,188 229,483 406,663l95 105 -591 150c-21,-420 -68,-596 54,-1000z"/>
  <path class="fil22" d="M6754 1213l-36 83c50,188 -229,483 -406,663l-124 102 620 152c21,-420 68,-596 -54,-1000z"/>
  <polygon class="fil19" points="6916,9602 8646,9602 8646,12259 6916,12259 "/>
  <path class="fil19" d="M7785 9411c306,0 607,76 862,193l-1730 -1c254,-117 562,-191 868,-191z"/>
  <polygon class="fil26" points="7665,9602 8646,9602 8646,12259 7665,12259 "/>
  <polygon class="fil27" points="7730,9602 8646,9602 8646,12259 7730,12259 "/>
  <path class="fil26" d="M7815 10960c31,0 55,25 55,55 0,31 -25,55 -55,55 -31,0 -55,-25 -55,-55 0,-31 25,-55 55,-55z"/>
  <path class="fil27 str1" d="M7802 10989c6,0 10,4 10,10 0,5 -4,10 -10,10 -6,0 -10,-4 -10,-10 0,-5 4,-10 10,-10z"/>
  <path class="fil27 str1" d="M7832 10989c6,0 10,4 10,10 0,5 -4,10 -10,10 -6,0 -10,-4 -10,-10 0,-5 4,-10 10,-10z"/>
  <path class="fil27 str1" d="M7802 11018c6,0 10,4 10,10 0,5 -4,10 -10,10 -6,0 -10,-4 -10,-10 0,-5 4,-10 10,-10z"/>
  <path class="fil27 str1" d="M7832 11018c6,0 10,4 10,10 0,5 -4,10 -10,10 -6,0 -10,-4 -10,-10 0,-5 4,-10 10,-10z"/>
  <path class="fil26" d="M7815 11675c31,0 55,25 55,55 0,31 -25,55 -55,55 -31,0 -55,-25 -55,-55 0,-31 25,-55 55,-55z"/>
  <path class="fil27" d="M7802 11704c6,0 10,4 10,10 0,5 -4,10 -10,10 -6,0 -10,-4 -10,-10 0,-5 4,-10 10,-10z"/>
  <path class="fil27" d="M7832 11704c6,0 10,4 10,10 0,5 -4,10 -10,10 -6,0 -10,-4 -10,-10 0,-5 4,-10 10,-10z"/>
  <path class="fil27" d="M7802 11732c6,0 10,4 10,10 0,5 -4,10 -10,10 -6,0 -10,-4 -10,-10 0,-5 4,-10 10,-10z"/>
  <path class="fil27" d="M7832 11732c6,0 10,4 10,10 0,5 -4,10 -10,10 -6,0 -10,-4 -10,-10 0,-5 4,-10 10,-10z"/>
  <path class="fil28" d="M7798 10429c188,-164 865,-756 314,-906 -82,-22 -193,-36 -315,-36 -137,0 -260,17 -343,44 -459,149 178,720 345,897z"/>
  <path class="fil27" d="M8293 9854c106,-171 112,-333 -159,-402 -88,-22 -206,-36 -337,-36 -147,0 -278,17 -367,44 -202,61 -205,194 -128,341 -37,-118 -9,-219 148,-270 84,-27 206,-44 343,-44 122,0 233,14 315,36 218,59 244,188 184,331z"/>
  <path class="fil22" d="M7262 9586l36 83c-50,187 228,482 404,660l94 104 -589 149c-21,-418 -68,-593 54,-996z"/>
  <path class="fil22" d="M8354 9586l-36 83c50,187 -228,482 -404,660l-123 102 618 152c21,-418 68,-593 -54,-996z"/>
  <path class="fil29" d="M7503 4639l0 2593c0,32 -13,61 -34,82l0 0c-21,21 -50,34 -82,34l-2416 0c-32,0 -61,-13 -82,-34 -21,-21 -34,-50 -34,-82l0 -2593c0,-17 4,-34 11,-49 7,-14 16,-27 27,-37l1 -1 0 0c2,-2 4,-4 7,-6 51,-41 127,-60 196,-77 13,-3 26,-6 33,-8 166,-43 339,-75 518,-97 175,-21 356,-33 541,-33 215,0 424,15 626,44 207,30 405,74 592,131 27,8 52,28 70,51l0 0c18,24 29,53 29,81zm-96 2593l0 -2593c0,-8 -4,-17 -10,-25l0 0c-6,-8 -13,-14 -20,-16 -182,-55 -375,-98 -578,-127 -196,-28 -401,-43 -612,-43 -181,0 -358,11 -529,32 -176,22 -346,54 -506,95 -14,4 -24,6 -34,8 -56,14 -120,29 -154,55l-1 1 -6 5c-2,2 -4,5 -6,7 -1,2 -2,5 -2,9l0 2593c0,6 2,11 6,15 4,4 9,6 15,6l2416 0c6,0 11,-2 15,-6l0 0c4,-4 6,-9 6,-15z"/>
  <path class="fil30" d="M7426 4659l0 2534c0,37 -30,67 -67,67l-2361 0c-37,0 -67,-30 -67,-67l0 -2534c0,-21 9,-39 24,-51 1,-1 2,-2 3,-3 49,-39 137,-56 206,-74 315,-81 661,-126 1023,-126 422,0 822,61 1177,169 34,10 63,50 63,85z"/>
  <path class="fil15" d="M6117 7260l-1119 0c-37,0 -67,-30 -67,-67l0 -2534c0,-21 9,-39 24,-51 1,-1 2,-2 3,-3 49,-39 137,-56 206,-74 18,-5 36,-9 54,-14l899 2743z"/>
  <path class="fil31" d="M7426 4659l0 2534c0,37 -30,67 -67,67l-1251 0 0 -2675c0,-37 30,-67 67,-67l981 0c71,17 140,36 207,56 34,10 63,50 63,85z"/>
  <path class="fil32" d="M7419 4659l0 2534c0,37 -30,67 -67,67l-1055 0 0 -2675c0,-37 30,-67 67,-67l785 0c71,17 140,36 207,56 34,10 63,50 63,85z"/>
  <path class="fil15" d="M7426 4659l0 2534c0,37 -30,67 -67,67l-1037 0 894 -2727c50,13 99,27 147,41 34,10 63,50 63,85z"/>
  <path class="fil13" d="M7426 6730l0 462c0,28 -17,52 -42,62l-465 0 0 -525 507 0z"/>
  <polygon class="fil15" points="7426,6727 7426,6881 6919,6881 6919,6727 "/>
  <polygon class="fil14" points="7426,6578 7426,6726 7233,6726 6918,6726 7076,6536 7233,6347 7391,6536 "/>
  <path class="fil33" d="M6212 5955c31,0 56,25 56,56 0,31 -25,56 -56,56 -31,0 -56,-25 -56,-56 0,-31 25,-56 56,-56z"/>
  <path class="fil30" d="M6199 5984c6,0 10,4 10,10 0,5 -4,10 -10,10 -6,0 -10,-4 -10,-10 0,-5 4,-10 10,-10z"/>
  <path class="fil30" d="M6230 5984c6,0 10,4 10,10 0,5 -4,10 -10,10 -6,0 -10,-4 -10,-10 0,-5 4,-10 10,-10z"/>
  <path class="fil30" d="M6199 6013c6,0 10,4 10,10 0,5 -4,10 -10,10 -6,0 -10,-4 -10,-10 0,-5 4,-10 10,-10z"/>
  <path class="fil30" d="M6230 6013c6,0 10,4 10,10 0,5 -4,10 -10,10 -6,0 -10,-4 -10,-10 0,-5 4,-10 10,-10z"/>
  <path class="fil33" d="M6212 6673c31,0 56,25 56,56 0,31 -25,56 -56,56 -31,0 -56,-25 -56,-56 0,-31 25,-56 56,-56z"/>
  <path class="fil30" d="M6199 6702c6,0 10,4 10,10 0,5 -4,10 -10,10 -6,0 -10,-4 -10,-10 0,-5 4,-10 10,-10z"/>
  <path class="fil30" d="M6230 6702c6,0 10,4 10,10 0,5 -4,10 -10,10 -6,0 -10,-4 -10,-10 0,-5 4,-10 10,-10z"/>
  <path class="fil30" d="M6199 6731c6,0 10,4 10,10 0,5 -4,10 -10,10 -6,0 -10,-4 -10,-10 0,-5 4,-10 10,-10z"/>
  <path class="fil30" d="M6230 6731c6,0 10,4 10,10 0,5 -4,10 -10,10 -6,0 -10,-4 -10,-10 0,-5 4,-10 10,-10z"/>
  <path class="fil14" d="M6195 5422c189,-164 868,-759 315,-910 -82,-22 -194,-36 -317,-36 -138,0 -261,17 -345,45 -461,150 179,723 346,901z"/>
  <path class="fil34" d="M6693 4844c106,-172 113,-335 -159,-404 -88,-22 -207,-36 -339,-36 -147,0 -279,17 -369,45 -202,62 -206,194 -128,342 -38,-118 -9,-219 149,-271 84,-27 207,-45 345,-45 123,0 234,14 317,36 219,60 245,189 184,333z"/>
  <path class="fil35" d="M5658 4575l36 83c-50,188 229,483 406,663l95 105 -591 150c-21,-420 -68,-596 54,-1000z"/>
  <path class="fil36" d="M6754 4575l-36 83c50,188 -229,483 -406,663l-124 102 620 152c21,-420 68,-596 -54,-1000z"/>
  <path class="fil37" d="M6126 2380l150 0c150,448 194,973 203,1522l-568 0c11,-576 65,-1138 216,-1522z"/>
  <path class="fil22" d="M5932 3413c1,-17 3,-35 4,-52l428 0 0 52 -432 0z"/>
  <path class="fil2" d="M10557 5801l196 0c252,753 274,1670 267,2608 0,276 28,162 -183,410l-190 223 -190 -223c-228,-267 -182,-125 -182,-433 -12,-947 35,-1951 283,-2585z"/>
  <g id="_905119440">
   <path class="fil1" d="M10557 5801l87 0 0 126 -132 0c14,-43 29,-85 45,-126z"/>
   <path class="fil1" d="M10431 6222c10,-46 21,-90 33,-134l180 0 0 134 -213 0z"/>
   <path class="fil1" d="M10372 6534c7,-45 15,-90 23,-134l249 0 0 134 -272 0z"/>
   <path class="fil1" d="M10333 6829c5,-45 10,-90 16,-134l295 0 0 134 -311 0z"/>
   <path class="fil1" d="M10305 7124c3,-45 7,-89 11,-134l328 0 0 134 -339 0z"/>
   <path class="fil1" d="M10287 7436c2,-45 4,-89 7,-134l350 0 0 134 -357 0z"/>
   <path class="fil1" d="M10277 7709c1,-45 2,-89 4,-134l363 0 0 134 -367 0z"/>
   <path class="fil1" d="M10272 8004c0,-45 1,-89 1,-134l370 0 0 134 -372 0z"/>
   <path class="fil1" d="M10273 8315c0,-44 -1,-89 -1,-134l372 0 0 134 -371 0z"/>
   <path class="fil1" d="M10276 8611c-10,-26 -6,-58 -4,-134l372 0 0 134 -367 0z"/>
   <path class="fil1" d="M10530 8906l-74 -87c-15,-17 -28,-33 -41,-47l229 0 0 134 -114 0z"/>
  </g>
  <path class="fil1" d="M10413 5421c158,-76 323,-85 498,10 -26,154 -78,283 -182,377l-160 -2c-101,-97 -146,-229 -155,-384z"/>
  <path class="fil14" d="M8937 5801l196 0c252,753 274,1670 267,2608 0,276 28,162 -183,410l-190 223 -190 -223c-228,-267 -182,-125 -182,-433 -12,-947 35,-1951 283,-2585z"/>
  <path class="fil23" d="M8684 7151c2,-23 3,-45 5,-68l560 0 0 68 -565 0z"/>
  <path class="fil38" d="M8794 5421c158,-76 323,-85 498,10 -26,154 -78,283 -182,377l-160 -2c-101,-97 -146,-229 -155,-384z"/>
  <path class="fil39" d="M11706 1139c256,44 292,41 547,-2 385,-65 484,38 823,46 60,1 59,2 59,41l0 116c0,59 1,42 -60,51 -68,10 -57,25 -52,148 9,237 -88,393 -459,401 -653,15 -361,-594 -591,-594 -243,0 102,552 -580,594 -447,27 -479,-164 -470,-401 5,-123 16,-138 -52,-148 -61,-9 -60,9 -60,-51l0 -116c0,-39 -1,-40 59,-41 347,-8 439,-111 836,-43z"/>
  <path class="fil0" d="M11389 1198c160,-15 364,33 377,200 9,118 22,415 -356,426 -336,9 -367,-105 -367,-290 0,-185 0,-303 345,-335z"/>
  <path class="fil0" d="M12563 1198c-160,-15 -364,33 -377,200 -9,118 -22,415 356,426 336,9 367,-105 367,-290 0,-185 0,-303 -345,-335z"/>
  <path class="fil14" d="M13675 5801l196 0c252,753 274,1670 267,2608 0,276 28,162 -183,410l-190 223 -190 -223c-228,-267 -182,-125 -182,-433 -12,-947 35,-1951 283,-2585z"/>
  <g id="_905113360">
   <path class="fil40" d="M13884 5843c14,42 26,85 39,128l-334 89c14,-52 30,-102 46,-151l249 -66z"/>
   <path class="fil40" d="M13964 6128c10,43 20,87 29,130l-478 127c9,-50 19,-99 30,-146l419 -112z"/>
   <path class="fil40" d="M14027 6433c8,44 15,88 21,133l-585 156c6,-49 13,-96 20,-144l544 -145z"/>
   <path class="fil40" d="M14070 6727c5,44 11,89 15,134l-655 175c4,-48 8,-95 13,-142l627 -167z"/>
   <path class="fil40" d="M14100 7025c4,45 7,90 10,136l-702 187c3,-47 5,-94 8,-141l683 -182z"/>
   <path class="fil40" d="M14121 7342c2,45 4,91 6,137l-732 195c1,-47 3,-93 5,-140l721 -192z"/>
   <path class="fil40" d="M14132 7621c1,46 2,91 3,137l-745 199c0,-46 1,-93 2,-139l740 -197z"/>
   <path class="fil40" d="M14138 7925c0,46 1,92 1,138l-749 200c0,-46 0,-92 0,-138l748 -199z"/>
   <path class="fil40" d="M14139 8247c0,46 0,92 -1,138l-749 200c-3,-27 1,-66 2,-139l748 -199z"/>
   <path class="fil40" d="M14139 8553c-1,75 -15,81 -92,163l-457 122 -16 -19c-33,-39 -60,-69 -83,-93l648 -173z"/>
   <polygon class="fil40" points="13857,8933 13764,9042 13706,8974 "/>
  </g>
  <path class="fil14" d="M13531 5421c158,-76 323,-85 498,10 -26,154 -78,283 -182,377l-160 -2c-101,-97 -146,-229 -155,-384z"/>
  <g id="_905112304">
   <path class="fil41" d="M13867 5371c53,10 107,30 162,59 -3,18 -6,36 -10,54l-151 -113z"/>
   <path class="fil41" d="M13531 5421c29,-14 58,-25 87,-34l347 259c-19,41 -43,79 -72,113l-355 -265c-3,-24 -6,-48 -7,-73z"/>
  </g>
  <path class="fil42" d="M15234 5795l196 0 5 0 1 4c126,377 195,795 231,1236 36,441 40,905 36,1374l0 0c0,35 0,62 1,85 1,69 1,100 -11,127 -10,23 -29,42 -62,77 -27,28 -63,66 -113,124l-190 223 -5 6 -5 -6 -190 -223c-54,-63 -92,-103 -119,-132l0 0c-33,-35 -51,-53 -60,-74 -10,-24 -9,-50 -7,-106 1,-31 2,-70 2,-125l0 0c-6,-474 3,-961 44,-1410 41,-449 115,-859 240,-1177l2 -4 4 0zm191 13l-187 0c-123,316 -196,723 -237,1170 -41,448 -50,936 -44,1409l0 0c0,54 -1,94 -3,125 -2,54 -3,79 6,101 8,19 25,37 57,71l0 0c28,29 66,69 120,132l186 218 186 -218c50,-59 86,-97 113,-125 33,-34 50,-53 60,-74 11,-25 11,-55 10,-122 0,-24 -1,-53 -1,-85l0 0c3,-469 0,-932 -36,-1373 -36,-439 -104,-854 -229,-1229z"/>
  <path class="fil43" d="M13479 10099l591 0c23,0 42,19 42,42l0 287c0,23 -19,42 -42,42l-591 0c-23,0 -42,-19 -42,-42l0 -287c0,-23 19,-42 42,-42z"/>
  <path class="fil38" d="M13393 10244l762 0c23,0 42,19 42,42l0 287c0,23 -19,42 -42,42l-762 0c-23,0 -42,-19 -42,-42l0 -287c0,-23 19,-42 42,-42z"/>
  <path class="fil43" d="M13479 11684l591 0c23,0 42,-19 42,-42l0 -287c0,-23 -19,-42 -42,-42l-591 0c-23,0 -42,19 -42,42l0 287c0,23 19,42 42,42z"/>
  <path class="fil38" d="M13393 11539l762 0c23,0 42,-19 42,-42l0 -287c0,-23 -19,-42 -42,-42l-762 0c-23,0 -42,19 -42,42l0 287c0,23 19,42 42,42z"/>
  <path class="fil23" d="M13795 10288c329,0 596,267 596,596 0,329 -267,596 -596,596 -329,0 -596,-267 -596,-596 0,-329 267,-596 596,-596z"/>
  <path class="fil44" d="M13787 10381c282,0 510,229 510,510 0,282 -229,510 -510,510 -282,0 -510,-229 -510,-510 0,-282 229,-510 510,-510z"/>
  <path class="fil38" d="M14033 10627l0 0c6,5 7,15 2,22l-236 274c-5,6 -15,7 -22,2l0 0c-6,-6 -7,-15 -2,-22l236 -274c5,-6 15,-7 22,-2z"/>
  <path class="fil38" d="M13787 10823c37,0 67,30 67,67 0,37 -30,67 -67,67 -37,0 -67,-30 -67,-67 0,-37 30,-67 67,-67z"/>
  <path class="fil38" d="M13626 10726l0 0c9,-9 24,-10 33,-1l173 161 -44 0 0 22 -160 -149c-9,-9 -10,-24 -1,-33z"/>
  <path class="fil2" d="M13787 10845c25,0 45,20 45,45 0,25 -20,45 -45,45 -25,0 -45,-20 -45,-45 0,-25 20,-45 45,-45z"/>
  <path class="fil2" d="M13786 10925l0 0c6,0 10,5 10,10l0 269c0,6 -5,10 -10,10l0 0c-6,0 -10,-5 -10,-10l0 -269c0,-6 5,-10 10,-10z"/>
  <path class="fil14" d="M13791 10400l0 0c9,0 17,8 17,17l0 96c0,9 -8,17 -17,17l0 0c-9,0 -17,-8 -17,-17l0 -96c0,-9 8,-17 17,-17z"/>
  <path class="fil14" d="M13791 11240l0 0c9,0 17,8 17,17l0 96c0,9 -8,17 -17,17l0 0c-9,0 -17,-8 -17,-17l0 -96c0,-9 8,-17 17,-17z"/>
  <path class="fil14" d="M13300 10883l0 0c0,-9 8,-17 18,-17l96 3c9,0 17,8 17,18l0 0c0,9 -8,17 -18,17l-96 -3c-9,0 -17,-8 -17,-18z"/>
  <path class="fil14" d="M14129 10883l0 0c0,-9 8,-17 18,-17l96 3c9,0 17,8 17,18l0 0c0,9 -8,17 -18,17l-96 -3c-9,0 -17,-8 -17,-18z"/>
  <path class="fil14" d="M8354 1300l0 0c54,0 99,44 99,99l0 15c0,54 -44,99 -99,99l0 0c-54,0 -99,-44 -99,-99l0 -15c0,-54 44,-99 99,-99z"/>
  <path class="fil14" d="M10301 1300l0 0c-54,0 -99,44 -99,99l0 15c0,54 44,99 99,99l0 0c54,0 99,-44 99,-99l0 -15c0,-54 -44,-99 -99,-99z"/>
  <path class="fil9" d="M8794 1115c203,0 367,163 367,364 0,14 -1,29 -2,42 -34,-166 -182,-291 -359,-291 -188,0 -343,141 -365,322 -5,-24 -8,-49 -8,-74 0,-201 164,-364 367,-364z"/>
  <polygon class="fil14" points="9166,1556 9490,1556 9490,1592 9166,1592 "/>
  <path class="fil14" d="M9328 1295c98,0 177,88 177,196 0,23 -4,45 -10,66 -24,-76 -90,-130 -167,-130 -77,0 -142,54 -167,130 -7,-21 -10,-43 -10,-66 0,-108 79,-196 177,-196z"/>
  <path class="fil9" d="M9860 1115c-203,0 -367,163 -367,364 0,14 1,29 2,42 34,-166 182,-291 359,-291 188,0 343,141 365,322 5,-24 8,-49 8,-74 0,-201 -164,-364 -367,-364z"/>
  <path class="fil45" d="M9323 2571c43,-124 -10,-255 -118,-292 -182,-62 -667,382 -384,753 -123,-662 350,-19 502,-461z"/>
  <path class="fil45" d="M9346 2571c-43,-124 10,-255 118,-292 182,-62 667,382 384,753 123,-662 -350,-19 -502,-461z"/>
  <polygon class="fil37" points="8982,9602 10712,9602 10712,12259 8982,12259 "/>
  <polygon class="fil23" points="9732,9602 10712,9602 10712,12259 9732,12259 "/>
  <polygon class="fil39" points="9797,9602 10712,9602 10712,12259 9797,12259 "/>
  <path class="fil37" d="M9851 9411c306,0 607,76 862,193l-1730 -1c254,-117 562,-191 868,-191z"/>
  <path class="fil46" d="M9881 10960c31,0 55,25 55,55 0,31 -25,55 -55,55 -31,0 -55,-25 -55,-55 0,-31 25,-55 55,-55z"/>
  <path class="fil47" d="M9868 10989c6,0 10,4 10,10 0,5 -4,10 -10,10 -6,0 -10,-4 -10,-10 0,-5 4,-10 10,-10z"/>
  <path class="fil47" d="M9898 10989c6,0 10,4 10,10 0,5 -4,10 -10,10 -6,0 -10,-4 -10,-10 0,-5 4,-10 10,-10z"/>
  <path class="fil47" d="M9868 11018c6,0 10,4 10,10 0,5 -4,10 -10,10 -6,0 -10,-4 -10,-10 0,-5 4,-10 10,-10z"/>
  <path class="fil47" d="M9898 11018c6,0 10,4 10,10 0,5 -4,10 -10,10 -6,0 -10,-4 -10,-10 0,-5 4,-10 10,-10z"/>
  <path class="fil46" d="M9881 11675c31,0 55,25 55,55 0,31 -25,55 -55,55 -31,0 -55,-25 -55,-55 0,-31 25,-55 55,-55z"/>
  <path class="fil48" d="M9868 11704c6,0 10,4 10,10 0,5 -4,10 -10,10 -6,0 -10,-4 -10,-10 0,-5 4,-10 10,-10z"/>
  <path class="fil48" d="M9898 11704c6,0 10,4 10,10 0,5 -4,10 -10,10 -6,0 -10,-4 -10,-10 0,-5 4,-10 10,-10z"/>
  <path class="fil48" d="M9868 11732c6,0 10,4 10,10 0,5 -4,10 -10,10 -6,0 -10,-4 -10,-10 0,-5 4,-10 10,-10z"/>
  <path class="fil48" d="M9898 11732c6,0 10,4 10,10 0,5 -4,10 -10,10 -6,0 -10,-4 -10,-10 0,-5 4,-10 10,-10z"/>
  <path class="fil48" d="M9864 10429c188,-164 865,-756 314,-906 -82,-22 -193,-36 -315,-36 -137,0 -260,17 -343,44 -459,149 178,720 345,897z"/>
  <path class="fil46" d="M10360 9854c106,-171 112,-333 -159,-402 -88,-22 -206,-36 -337,-36 -147,0 -278,17 -367,44 -202,61 -205,194 -128,341 -37,-118 -9,-219 148,-270 84,-27 206,-44 343,-44 122,0 233,14 315,36 218,59 244,188 184,331z"/>
  <path class="fil23" d="M9329 9586l36 83c-50,187 228,482 404,660l94 104 -589 149c-21,-418 -68,-593 54,-996z"/>
  <path class="fil23" d="M10420 9586l-36 83c50,187 -228,482 -404,660l-123 102 618 152c21,-418 68,-593 -54,-996z"/>
  <polygon class="fil49" points="10924,9602 12654,9602 12654,12259 10924,12259 "/>
  <polygon class="fil28" points="11674,9602 12654,9602 12654,12259 11674,12259 "/>
  <polygon class="fil50" points="11739,9602 12654,9602 12654,12259 11739,12259 "/>
  <path class="fil49" d="M11778 9414c306,0 617,72 872,188l-1725 1c254,-117 547,-190 853,-190z"/>
  <path class="fil51" d="M11823 10960c31,0 55,25 55,55 0,31 -25,55 -55,55 -31,0 -55,-25 -55,-55 0,-31 25,-55 55,-55z"/>
  <path class="fil49" d="M11810 10989c6,0 10,4 10,10 0,5 -4,10 -10,10 -6,0 -10,-4 -10,-10 0,-5 4,-10 10,-10z"/>
  <path class="fil49" d="M11841 10989c6,0 10,4 10,10 0,5 -4,10 -10,10 -6,0 -10,-4 -10,-10 0,-5 4,-10 10,-10z"/>
  <path class="fil49" d="M11810 11018c6,0 10,4 10,10 0,5 -4,10 -10,10 -6,0 -10,-4 -10,-10 0,-5 4,-10 10,-10z"/>
  <path class="fil49" d="M11841 11018c6,0 10,4 10,10 0,5 -4,10 -10,10 -6,0 -10,-4 -10,-10 0,-5 4,-10 10,-10z"/>
  <path class="fil51" d="M11823 11675c31,0 55,25 55,55 0,31 -25,55 -55,55 -31,0 -55,-25 -55,-55 0,-31 25,-55 55,-55z"/>
  <path class="fil49" d="M11810 11704c6,0 10,4 10,10 0,5 -4,10 -10,10 -6,0 -10,-4 -10,-10 0,-5 4,-10 10,-10z"/>
  <path class="fil49" d="M11841 11704c6,0 10,4 10,10 0,5 -4,10 -10,10 -6,0 -10,-4 -10,-10 0,-5 4,-10 10,-10z"/>
  <path class="fil49" d="M11810 11732c6,0 10,4 10,10 0,5 -4,10 -10,10 -6,0 -10,-4 -10,-10 0,-5 4,-10 10,-10z"/>
  <path class="fil49" d="M11841 11732c6,0 10,4 10,10 0,5 -4,10 -10,10 -6,0 -10,-4 -10,-10 0,-5 4,-10 10,-10z"/>
  <path class="fil38" d="M11806 10429c188,-164 865,-756 314,-906 -82,-22 -193,-36 -315,-36 -137,0 -260,17 -343,44 -459,149 178,720 345,897z"/>
  <path class="fil51" d="M12302 9854c106,-171 112,-333 -159,-402 -88,-22 -206,-36 -337,-36 -147,0 -278,17 -367,44 -202,61 -205,194 -128,341 -37,-118 -9,-219 148,-270 84,-27 206,-44 343,-44 122,0 233,14 315,36 218,59 244,188 184,331z"/>
  <path class="fil28" d="M11271 9586l36 83c-50,187 228,482 404,660l94 104 -589 149c-21,-418 -68,-593 54,-996z"/>
  <path class="fil28" d="M12362 9586l-36 83c50,187 -228,482 -404,660l-123 102 618 152c21,-418 68,-593 -54,-996z"/>
  <path class="fil29" d="M8797 1231c-100,0 -191,40 -257,106 -66,65 -106,155 -106,255 0,100 41,190 106,255 66,65 156,106 257,106 100,0 191,-40 257,-106 66,-65 106,-155 106,-255 0,-100 -41,-190 -106,-255 -66,-65 -156,-106 -257,-106zm-276 86c71,-70 168,-114 276,-114 108,0 205,43 276,114 71,70 114,167 114,274 0,107 -44,204 -114,274 -71,70 -168,114 -276,114 -108,0 -205,-43 -276,-114 -71,-70 -114,-167 -114,-274 0,-107 44,-204 114,-274z"/>
  <path class="fil29" d="M9859 1231c-100,0 -191,40 -257,106 -66,65 -106,155 -106,255 0,100 41,190 106,255 66,65 156,106 257,106 100,0 191,-40 257,-106 66,-65 106,-155 106,-255 0,-100 -41,-190 -106,-255 -66,-65 -156,-106 -257,-106zm-276 86c71,-70 168,-114 276,-114 108,0 205,43 276,114 71,70 114,167 114,274 0,107 -44,204 -114,274 -71,70 -168,114 -276,114 -108,0 -205,-43 -276,-114 -71,-70 -114,-167 -114,-274 0,-107 44,-204 114,-274z"/>
  <path class="fil52" d="M9298 3691c-1,0 -2,0 -2,0 -1,0 -2,0 -2,0l5 0z"/>
  <path class="fil52" d="M9659 3962c20,0 37,17 37,37 0,10 -4,19 -10,25 -22,-8 -43,-17 -64,-26 0,-20 17,-36 37,-36z"/>
  <path class="fil52" d="M9802 3962c20,0 37,17 37,37 0,20 -17,37 -37,37 -20,0 -37,-17 -37,-37 0,-20 17,-37 37,-37z"/>
  <path class="fil52" d="M9823 4054c16,0 29,10 34,24 -19,-5 -38,-10 -57,-16 6,-5 14,-8 23,-8z"/>
  <path class="fil52" d="M9450 3820c1,3 1,5 1,8 0,3 0,5 -1,8l0 -16z"/>
  <path class="fil52" d="M9532 3791c20,0 37,17 37,37 0,20 -17,37 -37,37 -20,0 -37,-17 -37,-37 0,-20 17,-37 37,-37z"/>
  <path class="fil52" d="M9669 3791c20,0 37,17 37,37 0,20 -17,37 -37,37 -20,0 -37,-17 -37,-37 0,-20 17,-37 37,-37z"/>
  <path class="fil52" d="M9812 3791c20,0 37,17 37,37 0,20 -17,37 -37,37 -20,0 -37,-17 -37,-37 0,-20 17,-37 37,-37z"/>
  <path class="fil52" d="M9470 3883c20,0 37,17 37,37 0,5 -1,11 -3,15 -20,-14 -38,-29 -53,-44l0 -3c6,-3 12,-5 19,-5z"/>
  <path class="fil52" d="M9588 3883c20,0 37,17 37,37 0,20 -17,37 -37,37 -20,0 -37,-17 -37,-37 0,-20 17,-37 37,-37z"/>
  <path class="fil52" d="M9724 3883c20,0 37,17 37,37 0,20 -17,37 -37,37 -20,0 -37,-17 -37,-37 0,-20 17,-37 37,-37z"/>
  <path class="fil52" d="M9868 3883c20,0 37,17 37,37 0,20 -17,37 -37,37 -20,0 -37,-17 -37,-37 0,-20 17,-37 37,-37z"/>
  <path class="fil52" d="M9547 3617c19,1 35,17 35,37 0,20 -17,37 -37,37 -20,0 -37,-17 -37,-37 0,-4 1,-8 2,-12 12,-8 24,-17 37,-25z"/>
  <path class="fil52" d="M9681 3617c20,0 37,17 37,37 0,20 -17,37 -37,37 -20,0 -37,-17 -37,-37 0,-20 17,-37 37,-37z"/>
  <path class="fil52" d="M9825 3617c20,0 37,17 37,37 0,20 -17,37 -37,37 -20,0 -37,-17 -37,-37 0,-20 17,-37 37,-37z"/>
  <path class="fil52" d="M9449 3709c20,1 35,17 35,37 0,20 -15,36 -35,37l-1 -74z"/>
  <path class="fil52" d="M9566 3709c20,0 37,17 37,37 0,20 -17,37 -37,37 -20,0 -37,-17 -37,-37 0,-20 17,-37 37,-37z"/>
  <path class="fil52" d="M9702 3709c20,0 37,17 37,37 0,20 -17,37 -37,37 -20,0 -37,-17 -37,-37 0,-20 17,-37 37,-37z"/>
  <path class="fil52" d="M9845 3709c20,0 37,17 37,37 0,20 -17,37 -37,37 -20,0 -37,-17 -37,-37 0,-20 17,-37 37,-37z"/>
  <path class="fil52" d="M9871 3486c-2,19 -18,33 -37,33 -12,0 -23,-6 -30,-16 22,-7 45,-13 67,-18z"/>
  <path class="fil52" d="M9646 3564c1,3 1,7 1,10 0,20 -17,37 -37,37 -12,0 -22,-6 -29,-14 20,-11 42,-22 65,-33z"/>
  <path class="fil52" d="M9747 3538c20,0 37,17 37,37 0,20 -17,37 -37,37 -20,0 -37,-17 -37,-37 0,-20 17,-37 37,-37z"/>
  <path class="fil52" d="M9890 3538c20,0 37,17 37,37 0,20 -17,37 -37,37 -20,0 -37,-17 -37,-37 0,-20 17,-37 37,-37z"/>
  <path class="fil52" d="M10007 3549c20,0 37,17 37,37 0,20 -17,37 -37,37 -20,0 -37,-17 -37,-37 0,-20 17,-37 37,-37z"/>
  <path class="fil52" d="M10103 3615c-9,-7 -15,-17 -15,-29 0,-16 10,-30 24,-35 0,3 0,6 -1,9 -2,18 -5,36 -9,55z"/>
  <path class="fil52" d="M9969 3467c7,7 12,16 12,27 0,20 -17,37 -37,37 -20,0 -37,-17 -37,-37 0,-6 1,-11 4,-16 10,-2 20,-4 29,-5 10,-2 19,-3 29,-5z"/>
  <path class="fil52" d="M10063 3457c20,0 37,17 37,37 0,20 -17,37 -37,37 -20,0 -37,-17 -37,-37 0,-20 17,-37 37,-37z"/>
  <path class="fil52" d="M9933 3628c20,0 37,17 37,37 0,20 -17,37 -37,37 -20,0 -37,-17 -37,-37 0,-20 17,-37 37,-37z"/>
  <path class="fil52" d="M10051 3628c20,0 37,17 37,37 0,20 -17,37 -37,37 -20,0 -37,-17 -37,-37 0,-20 17,-37 37,-37z"/>
  <path class="fil52" d="M9993 3720c20,0 37,17 37,37 0,20 -17,37 -37,37 -20,0 -37,-17 -37,-37 0,-20 17,-37 37,-37z"/>
  <path class="fil52" d="M10078 3772c-2,-5 -3,-10 -3,-15 0,-7 2,-14 6,-20 -1,12 -2,23 -2,35z"/>
  <path class="fil52" d="M9990 3894c20,0 37,17 37,37 0,20 -17,37 -37,37 -20,0 -37,-17 -37,-37 0,-20 17,-37 37,-37z"/>
  <path class="fil52" d="M10112 3968c-1,0 -2,0 -3,0 -20,0 -37,-17 -37,-37 0,-15 9,-28 23,-34 6,24 12,48 17,71z"/>
  <path class="fil52" d="M9928 3802c20,0 37,17 37,37 0,20 -17,37 -37,37 -20,0 -37,-17 -37,-37 0,-20 17,-37 37,-37z"/>
  <path class="fil52" d="M10046 3802c16,0 30,11 35,25 1,4 1,9 2,13 -1,20 -17,36 -37,36 -20,0 -37,-17 -37,-37 0,-20 17,-37 37,-37z"/>
  <path class="fil52" d="M9916 3973c20,0 37,17 37,37 0,20 -17,37 -37,37 -20,0 -37,-17 -37,-37 0,-20 17,-37 37,-37z"/>
  <path class="fil52" d="M10035 3973c20,0 37,17 37,37 0,20 -17,37 -37,37 -20,0 -37,-17 -37,-37 0,-20 17,-37 37,-37z"/>
  <path class="fil52" d="M9976 4065c20,0 37,17 37,37 0,3 0,7 -1,10 -8,-1 -17,-3 -26,-4 -15,-3 -31,-6 -46,-10 2,-18 18,-32 37,-32z"/>
  <path class="fil52" d="M10095 4065c10,0 19,4 26,10 -7,22 -25,36 -60,39 -1,-4 -2,-8 -2,-12 0,-20 17,-37 37,-37z"/>
  <path class="fil52" d="M8894 3791c20,0 37,17 37,37 0,20 -17,37 -37,37 -20,0 -37,-17 -37,-37 0,-20 17,-37 37,-37z"/>
  <path class="fil52" d="M9012 3791c20,0 37,17 37,37 0,20 -17,37 -37,37 -20,0 -37,-17 -37,-37 0,-20 17,-37 37,-37z"/>
  <path class="fil52" d="M9149 3791c20,0 37,17 37,37 0,20 -17,37 -37,37 -20,0 -37,-17 -37,-37 0,-20 17,-37 37,-37z"/>
  <path class="fil52" d="M8936 3883c20,0 37,17 37,37 0,20 -17,37 -37,37 -20,0 -37,-17 -37,-37 0,-20 17,-37 37,-37z"/>
  <path class="fil52" d="M9054 3883c20,0 37,17 37,37 0,20 -17,37 -37,37 -20,0 -37,-17 -37,-37 0,-20 17,-37 37,-37z"/>
  <path class="fil52" d="M9190 3883c10,0 19,4 26,11 -16,16 -35,31 -57,46 -4,-6 -6,-13 -6,-20 0,-20 17,-37 37,-37z"/>
  <path class="fil52" d="M8866 3962c20,0 37,17 37,37 0,20 -17,37 -37,37 -20,0 -37,-17 -37,-37 0,-20 17,-37 37,-37z"/>
  <path class="fil52" d="M8984 3962c20,0 37,17 37,37 0,4 -1,8 -2,11 -18,7 -36,14 -54,20 -11,-6 -18,-18 -18,-32 0,-20 17,-37 37,-37z"/>
  <path class="fil52" d="M9121 3962l1 0c-10,6 -21,11 -32,17 7,-10 18,-17 31,-17z"/>
  <path class="fil52" d="M8574 3902c3,5 5,11 5,18 0,13 -7,24 -17,31 4,-16 8,-32 12,-48z"/>
  <path class="fil52" d="M8678 3883c20,0 37,17 37,37 0,20 -17,37 -37,37 -20,0 -37,-17 -37,-37 0,-20 17,-37 37,-37z"/>
  <path class="fil52" d="M8821 3883c20,0 37,17 37,37 0,20 -17,37 -37,37 -20,0 -37,-17 -37,-37 0,-20 17,-37 37,-37z"/>
  <path class="fil52" d="M8615 3791c20,0 37,17 37,37 0,20 -17,37 -37,37 -13,0 -24,-6 -30,-16 3,-16 5,-33 6,-49 6,-6 15,-9 24,-9z"/>
  <path class="fil52" d="M8759 3791c20,0 37,17 37,37 0,20 -17,37 -37,37 -20,0 -37,-17 -37,-37 0,-20 17,-37 37,-37z"/>
  <path class="fil52" d="M8604 3962c20,0 37,17 37,37 0,20 -17,37 -37,37 -20,0 -37,-17 -37,-37 0,-20 17,-37 37,-37z"/>
  <path class="fil52" d="M8748 3962c20,0 37,17 37,37 0,20 -17,37 -37,37 -20,0 -37,-17 -37,-37 0,-20 17,-37 37,-37z"/>
  <path class="fil52" d="M8546 4059c11,6 19,18 19,32 0,3 0,5 -1,8 -11,-10 -16,-23 -18,-40z"/>
  <path class="fil52" d="M8664 4054c20,0 37,17 37,37 0,5 -1,9 -2,13 -5,1 -10,2 -15,3 -18,4 -34,6 -48,7 -5,-6 -8,-14 -8,-23 0,-20 17,-37 37,-37z"/>
  <path class="fil52" d="M8807 4054c13,0 24,7 31,16 -23,6 -45,12 -67,17 2,-19 17,-34 37,-34z"/>
  <path class="fil52" d="M8913 3519c-6,-1 -11,-2 -16,-5 5,2 11,4 16,5z"/>
  <path class="fil52" d="M8958 3538c2,0 3,0 5,0 6,2 12,5 17,7 9,7 15,17 15,30 0,20 -17,37 -37,37 -20,0 -37,-17 -37,-37 0,-20 17,-37 37,-37z"/>
  <path class="fil52" d="M9099 3603c-6,5 -14,8 -23,8 -20,0 -37,-17 -37,-37 0,-1 0,-2 0,-3 21,10 41,21 60,32z"/>
  <path class="fil52" d="M8888 3617c20,0 37,17 37,37 0,20 -17,37 -37,37 -20,0 -37,-17 -37,-37 0,-20 17,-37 37,-37z"/>
  <path class="fil52" d="M9007 3617c20,0 37,17 37,37 0,20 -17,37 -37,37 -20,0 -37,-17 -37,-37 0,-20 17,-37 37,-37z"/>
  <path class="fil52" d="M9180 3657c-2,19 -18,33 -37,33 -20,0 -37,-17 -37,-37 0,-15 9,-28 21,-34 19,12 37,24 52,37z"/>
  <path class="fil52" d="M8930 3709c20,0 37,17 37,37 0,20 -17,37 -37,37 -20,0 -37,-17 -37,-37 0,-20 17,-37 37,-37z"/>
  <path class="fil52" d="M9048 3709c20,0 37,17 37,37 0,20 -17,37 -37,37 -20,0 -37,-17 -37,-37 0,-20 17,-37 37,-37z"/>
  <path class="fil52" d="M9185 3709c17,0 31,11 35,27l0 21c-5,15 -19,26 -35,26 -20,0 -37,-17 -37,-37 0,-20 17,-37 37,-37z"/>
  <path class="fil52" d="M8564 3538c20,0 37,17 37,37 0,20 -16,36 -35,37 -3,-17 -6,-35 -8,-52 -1,-8 -1,-15 -2,-21 3,-1 5,-1 8,-1z"/>
  <path class="fil52" d="M8700 3538c20,0 37,17 37,37 0,20 -17,37 -37,37 -20,0 -37,-17 -37,-37 0,-20 17,-37 37,-37z"/>
  <path class="fil52" d="M8844 3538c20,0 37,17 37,37 0,20 -17,37 -37,37 -20,0 -37,-17 -37,-37 0,-20 17,-37 37,-37z"/>
  <path class="fil52" d="M8667 3460c5,6 8,14 8,23 0,20 -17,37 -37,37 -20,0 -37,-17 -37,-37 0,-12 6,-23 15,-30 15,0 32,3 51,7z"/>
  <path class="fil52" d="M8817 3491c-4,17 -18,29 -36,29 -20,0 -37,-17 -37,-37 0,-3 0,-5 1,-8 24,4 48,10 72,16z"/>
  <path class="fil52" d="M8627 3617c20,0 37,17 37,37 0,20 -17,37 -37,37 -20,0 -37,-17 -37,-37 0,-20 17,-37 37,-37z"/>
  <path class="fil52" d="M8770 3617c20,0 37,17 37,37 0,20 -17,37 -37,37 -20,0 -37,-17 -37,-37 0,-20 17,-37 37,-37z"/>
  <path class="fil52" d="M8686 3709c20,0 37,17 37,37 0,20 -17,37 -37,37 -20,0 -37,-17 -37,-37 0,-20 17,-37 37,-37z"/>
  <path class="fil52" d="M8830 3709c20,0 37,17 37,37 0,20 -17,37 -37,37 -20,0 -37,-17 -37,-37 0,-20 17,-37 37,-37z"/>
  <path class="fil53" d="M12093 3853l100 0 0 104 -24 0c-26,-21 -51,-43 -75,-68l0 -36z"/>
  <polygon class="fil11" points="12196,3853 12307,3853 12307,3957 12196,3957 "/>
  <polygon class="fil53" points="12308,3853 12419,3853 12419,3957 12308,3957 "/>
  <path class="fil18" d="M12173 3960l20 0 0 15c-7,-5 -14,-10 -20,-15z"/>
  <path class="fil53" d="M12196 3960l111 0 0 81c-39,-18 -76,-39 -111,-64l0 -17z"/>
  <path class="fil18" d="M12308 3960l111 0 0 104 -59 0c-17,-7 -34,-14 -51,-22l0 -82z"/>
  <polygon class="fil11" points="12092,3746 12193,3746 12193,3850 12093,3850 "/>
  <polygon class="fil53" points="12196,3746 12307,3746 12307,3850 12196,3850 "/>
  <polygon class="fil18" points="12308,3746 12419,3746 12419,3850 12308,3850 "/>
  <path class="fil11" d="M12193 3577l0 63 -75 0c24,-23 49,-44 75,-63z"/>
  <path class="fil53" d="M12260 3536l47 0 0 104 -111 0 0 -65c20,-14 41,-27 63,-39z"/>
  <polygon class="fil18" points="12308,3536 12419,3536 12419,3639 12308,3639 "/>
  <path class="fil53" d="M12114 3643l79 0 0 104 -101 0 -1 -80c7,-8 15,-16 22,-23z"/>
  <polygon class="fil18" points="12196,3643 12307,3643 12307,3747 12196,3747 "/>
  <polygon class="fil53" points="12308,3643 12419,3643 12419,3747 12308,3747 "/>
  <path class="fil18" d="M12307 3512l0 20 -41 0c13,-7 27,-14 41,-20z"/>
  <path class="fil53" d="M12419 3473l0 60 -111 0 0 -21c35,-16 72,-29 111,-39z"/>
  <path class="fil53" d="M12365 4066l54 0 0 19c-18,-6 -36,-12 -54,-19z"/>
  <polygon class="fil53" points="12422,3536 12533,3536 12533,3639 12422,3639 "/>
  <path class="fil18" d="M12536 3536l85 0c0,30 0,66 1,104l-86 0 0 -104z"/>
  <polygon class="fil11" points="12422,3643 12533,3643 12533,3747 12422,3747 "/>
  <path class="fil53" d="M12536 3643l86 0c0,33 0,68 1,104l-87 0 0 -104z"/>
  <path class="fil11" d="M12533 3448l0 84 -111 0 0 -60c36,-10 72,-17 111,-23z"/>
  <path class="fil53" d="M12621 3532l-85 0 0 -84c28,-4 56,-7 84,-10 0,1 1,38 1,94z"/>
  <polygon class="fil18" points="12422,3853 12533,3853 12533,3957 12422,3957 "/>
  <path class="fil53" d="M12536 3853l87 0c0,36 0,71 0,104l-87 0 0 -104z"/>
  <polygon class="fil53" points="12422,3960 12533,3960 12533,4064 12422,4064 "/>
  <path class="fil11" d="M12536 3960l87 0c0,40 0,76 0,104l-88 0 0 -104z"/>
  <polygon class="fil53" points="12422,3746 12533,3746 12533,3850 12422,3850 "/>
  <path class="fil18" d="M12536 3746l87 0c0,35 0,70 0,104l-87 0 0 -104z"/>
  <path class="fil18" d="M12422 4066l111 0 0 48c-38,-8 -75,-17 -111,-28l0 -20z"/>
  <path class="fil53" d="M12536 4066l88 0c0,38 0,63 0,64 -30,-4 -59,-9 -88,-15l0 -49z"/>
  <path class="fil53" d="M11324 3853l25 0 0 104 -26 0c0,-32 0,-68 0,-104z"/>
  <polygon class="fil18" points="11353,3853 11463,3853 11463,3957 11353,3957 "/>
  <polygon class="fil53" points="11465,3853 11575,3853 11575,3957 11465,3957 "/>
  <path class="fil11" d="M11324 3960l26 0 0 104 -26 0c0,-28 0,-64 0,-104z"/>
  <polygon class="fil53" points="11353,3960 11463,3960 11463,4064 11353,4064 "/>
  <polygon class="fil11" points="11465,3960 11575,3960 11575,4064 11465,4064 "/>
  <path class="fil11" d="M11325 3746l25 0 0 104 -25 0c0,-34 0,-69 0,-104z"/>
  <polygon class="fil53" points="11353,3746 11463,3746 11463,3850 11353,3850 "/>
  <polygon class="fil11" points="11465,3746 11575,3746 11575,3850 11465,3850 "/>
  <path class="fil18" d="M11326 3536l24 0 0 104 -24 0c0,-38 0,-74 1,-104z"/>
  <polygon class="fil53" points="11353,3536 11463,3536 11463,3639 11353,3639 "/>
  <polygon class="fil18" points="11465,3536 11575,3536 11575,3639 11465,3639 "/>
  <path class="fil53" d="M11325 3643l24 0 0 104 -25 0c0,-36 0,-71 1,-104z"/>
  <polygon class="fil18" points="11353,3643 11463,3643 11463,3747 11353,3747 "/>
  <polygon class="fil53" points="11465,3643 11575,3643 11575,3747 11465,3747 "/>
  <path class="fil53" d="M11349 3440l0 92 -24 0c0,-56 1,-93 1,-94 8,1 15,1 23,2z"/>
  <path class="fil11" d="M11463 3457l0 75 -111 0 0 -92c38,4 75,9 111,16z"/>
  <path class="fil53" d="M11575 3487l0 45 -111 0 0 -75c38,8 75,18 111,30z"/>
  <path class="fil53" d="M11323 4066l26 0 0 60c-9,1 -17,3 -26,4 0,-1 0,-25 0,-64z"/>
  <path class="fil18" d="M11353 4066l111 0 0 37c-36,9 -73,16 -111,22l0 -59z"/>
  <path class="fil53" d="M11465 4066l111 0 0 3c-35,13 -72,24 -111,34l0 -37z"/>
  <polygon class="fil53" points="11578,3536 11687,3536 11689,3536 11689,3639 11578,3639 "/>
  <path class="fil11" d="M11803 3615l0 25 -111 0 0 -101c39,22 76,47 111,77z"/>
  <path class="fil53" d="M11830 3639l-25 0 0 -23c9,7 17,15 25,23z"/>
  <polygon class="fil12" points="11578,3643 11689,3643 11689,3747 11578,3747 "/>
  <polygon class="fil53" points="11692,3643 11803,3643 11803,3747 11692,3747 "/>
  <path class="fil18" d="M11805 3643l28 0c8,8 15,15 22,23l-1 80 -50 0 0 -104z"/>
  <path class="fil18" d="M11681 3532l-103 0 0 -44c36,12 70,27 103,44z"/>
  <polygon class="fil18" points="11578,3853 11689,3853 11689,3957 11578,3957 "/>
  <path class="fil53" d="M11692 3853l111 0 0 84c-8,7 -16,13 -24,20l-86 0 0 -104z"/>
  <path class="fil11" d="M11805 3853l49 0 0 36c-16,17 -32,32 -49,47l0 -83z"/>
  <path class="fil53" d="M11578 3960l111 0 0 56c-32,18 -66,34 -102,48l-9 0 0 -104z"/>
  <path class="fil18" d="M11692 3960l82 0c-26,20 -53,38 -82,54l0 -54z"/>
  <polygon class="fil53" points="11578,3746 11689,3746 11689,3850 11578,3850 "/>
  <polygon class="fil18" points="11692,3746 11803,3746 11803,3850 11692,3850 "/>
  <polygon class="fil53" points="11805,3746 11855,3746 11854,3850 11805,3850 "/>
  <polygon class="fil18" points="11578,4066 11582,4066 11578,4067 "/>
  <path class="fil47" d="M15180 5728l53 0 0 66c-20,-20 -37,-42 -53,-66z"/>
  <path class="fil54" d="M15234 5728l111 0 0 79 -100 -2c-3,-3 -7,-7 -10,-10l0 -67z"/>
  <path class="fil47" d="M15348 5728l111 0 0 23c-16,20 -34,39 -54,57l-57 -1 0 -79z"/>
  <path class="fil47" d="M15096 6273l0 50 -10 0c3,-17 7,-34 10,-50z"/>
  <path class="fil55" d="M15118 6273l0 50 0 21 -21 0 -10 0 -26 0 5 -25 5 -25c2,-11 4,-20 5,-25l42 -194 0 198z"/>
  <path class="fil47" d="M15108 6219l102 0 0 104 -111 0 0 -66c3,-13 6,-25 8,-38z"/>
  <path class="fil55" d="M15108 6198l102 0 21 0 0 21 0 104 0 21 -21 0 -110 0 -21 0 0 -21 0 -66 0 -2 1 -2c2,-10 5,-23 8,-36l1 -2 4 -17 17 0zm81 43l-64 0c-1,6 -3,12 -4,19l0 42 68 0 0 -61z"/>
  <polygon class="fil47" points="15212,6219 15323,6219 15323,6323 15212,6323 "/>
  <path class="fil55" d="M15212 6198l110 0 21 0 0 21 0 104 0 21 -21 0 -110 0 -21 0 0 -21 0 -104 0 -21 21 0zm89 43l-68 0 0 61 68 0 0 -61z"/>
  <path class="fil47" d="M15085 6326l11 0 0 104 -31 0c6,-35 13,-70 20,-104z"/>
  <path class="fil55" d="M15085 6305l11 0 21 0 0 21 0 104 0 21 -21 0 -31 0 -25 0 4 -25c3,-16 6,-33 10,-53 4,-21 7,-37 10,-52l3 -17 17 0z"/>
  <polygon class="fil47" points="15100,6326 15210,6326 15210,6430 15100,6430 "/>
  <path class="fil55" d="M15100 6305l110 0 21 0 0 21 0 104 0 21 -21 0 -110 0 -21 0 0 -21 0 -104 0 -21 21 0zm89 43l-68 0 0 61 68 0 0 -61z"/>
  <polygon class="fil47" points="15212,6326 15323,6326 15323,6430 15212,6430 "/>
  <path class="fil55" d="M15212 6305l110 0 21 0 0 21 0 104 0 21 -21 0 -110 0 -21 0 0 -21 0 -104 0 -21 21 0zm89 43l-68 0 0 61 68 0 0 -61z"/>
  <path class="fil47" d="M15134 6112l76 0 0 104 -101 0c8,-35 16,-70 25,-104z"/>
  <path class="fil55" d="M15134 6091l76 0 21 0 0 21 0 104 0 21 -21 0 -101 0 -27 0 6 -26c4,-17 8,-34 12,-53 4,-17 9,-35 13,-52l4 -16 16 0zm55 43l-38 0c-3,12 -6,23 -9,35 -2,8 -4,17 -6,26l53 0 0 -61z"/>
  <polygon class="fil47" points="15212,6112 15323,6112 15323,6216 15212,6216 "/>
  <path class="fil55" d="M15212 6091l110 0 21 0 0 21 0 104 0 21 -21 0 -110 0 -21 0 0 -21 0 -104 0 -21 21 0zm89 43l-68 0 0 61 68 0 0 -61z"/>
  <path class="fil47" d="M15197 5902l14 0 0 104 -47 0c11,-35 21,-70 33,-104z"/>
  <path class="fil55" d="M15197 5881l14 0 21 0 0 21 0 104 0 21 -21 0 -46 0 -28 0 8 -27c6,-19 11,-37 16,-53 5,-17 11,-34 17,-52l5 -14 15 0z"/>
  <polygon class="fil47" points="15212,5902 15323,5902 15323,6006 15212,6006 "/>
  <path class="fil55" d="M15212 5881l110 0 21 0 0 21 0 104 0 21 -21 0 -110 0 -21 0 0 -21 0 -104 0 -21 21 0zm89 43l-68 0 0 61 68 0 0 -61z"/>
  <path class="fil47" d="M15163 6009l47 0 0 104 -76 0c9,-35 19,-70 29,-104z"/>
  <path class="fil55" d="M15163 5988l47 0 21 0 0 21 0 104 0 21 -21 0 -76 0 -27 0 7 -27c5,-19 10,-37 14,-53 5,-19 10,-36 15,-52l5 -15 16 0zm26 43l-10 0c-4,12 -7,24 -10,36 -2,9 -5,17 -7,25l27 0 0 -61z"/>
  <polygon class="fil47" points="15212,6009 15323,6009 15323,6113 15212,6113 "/>
  <path class="fil55" d="M15212 5988l110 0 21 0 0 21 0 104 0 21 -21 0 -110 0 -21 0 0 -21 0 -104 0 -21 21 0zm89 43l-68 0 0 61 68 0 0 -61z"/>
  <path class="fil47" d="M15210 5863l0 36 -12 0c4,-12 8,-24 12,-36z"/>
  <path class="fil55" d="M15232 5863l0 36 0 21 -21 0 -12 0 -30 0 10 -28c1,-4 4,-10 6,-18l0 0 6 -18 41 -117 0 124z"/>
  <path class="fil47" d="M15323 5801l0 98 -111 0 0 -40c7,-19 14,-39 22,-58l89 0z"/>
  <path class="fil55" d="M15344 5801l0 98 0 21 -21 0 -110 0 -21 0 0 -21 0 -40 0 -3 1 -4c4,-10 7,-20 11,-29l0 0c4,-11 8,-21 11,-29l5 -13 14 0 89 0 21 0 0 21zm-43 76l0 -55 -53 0c-2,5 -4,10 -6,15l0 0c-3,9 -6,17 -9,25l0 15 68 0z"/>
  <path class="fil47" d="M15048 6539l49 0 0 104 -64 0c5,-35 10,-70 15,-104z"/>
  <path class="fil55" d="M15048 6518l49 0 21 0 0 21 0 104 0 21 -21 0 -64 0 -24 0 3 -24c3,-20 5,-37 7,-52 2,-13 5,-31 8,-52l3 -18 18 0zm28 43l-9 0c-1,10 -3,21 -5,33 -1,10 -3,19 -4,28l19 0 0 -61z"/>
  <polygon class="fil47" points="15100,6539 15210,6539 15210,6643 15100,6643 "/>
  <path class="fil55" d="M15100 6518l110 0 21 0 0 21 0 104 0 21 -21 0 -110 0 -21 0 0 -21 0 -104 0 -21 21 0zm89 43l-68 0 0 61 68 0 0 -61z"/>
  <polygon class="fil47" points="15212,6539 15323,6539 15323,6643 15212,6643 "/>
  <path class="fil55" d="M15212 6518l110 0 21 0 0 21 0 104 0 21 -21 0 -110 0 -21 0 0 -21 0 -104 0 -21 21 0zm89 43l-68 0 0 61 68 0 0 -61z"/>
  <path class="fil47" d="M15032 6647l65 0 0 104 -78 0c4,-35 9,-70 13,-104z"/>
  <path class="fil55" d="M15032 6625l65 0 21 0 0 21 0 104 0 21 -21 0 -78 0 -24 0 3 -24c2,-12 4,-30 7,-52 2,-18 5,-36 7,-52l3 -18 18 0zm43 43l-25 0c-2,11 -3,22 -4,33 -1,7 -2,17 -4,28l33 0 0 -61z"/>
  <polygon class="fil47" points="15100,6647 15210,6647 15210,6750 15100,6750 "/>
  <path class="fil55" d="M15100 6625l110 0 21 0 0 21 0 104 0 21 -21 0 -110 0 -21 0 0 -21 0 -104 0 -21 21 0zm89 43l-68 0 0 61 68 0 0 -61z"/>
  <polygon class="fil47" points="15212,6647 15323,6647 15323,6750 15212,6750 "/>
  <path class="fil55" d="M15212 6625l110 0 21 0 0 21 0 104 0 21 -21 0 -110 0 -21 0 0 -21 0 -104 0 -21 21 0zm89 43l-68 0 0 61 68 0 0 -61z"/>
  <path class="fil47" d="M15065 6432l31 0 0 104 -48 0c6,-35 11,-70 17,-104z"/>
  <path class="fil55" d="M15065 6411l31 0 21 0 0 21 0 104 0 21 -21 0 -49 0 -25 0 4 -25c3,-20 6,-38 9,-52 3,-19 6,-37 9,-52l3 -18 18 0zm10 104l0 -14 -2 14 2 0z"/>
  <polygon class="fil47" points="15100,6432 15210,6432 15210,6536 15100,6536 "/>
  <path class="fil55" d="M15100 6411l110 0 21 0 0 21 0 104 0 21 -21 0 -110 0 -21 0 0 -21 0 -104 0 -21 21 0zm89 43l-68 0 0 61 68 0 0 -61z"/>
  <polygon class="fil47" points="15212,6432 15323,6432 15323,6536 15212,6536 "/>
  <path class="fil55" d="M15212 6411l110 0 21 0 0 21 0 104 0 21 -21 0 -110 0 -21 0 0 -21 0 -104 0 -21 21 0zm89 43l-68 0 0 61 68 0 0 -61z"/>
  <polygon class="fil47" points="15326,5902 15436,5902 15436,6006 15326,6006 "/>
  <path class="fil55" d="M15326 5881l110 0 21 0 0 21 0 104 0 21 -21 0 -110 0 -21 0 0 -21 0 -104 0 -21 21 0zm89 43l-68 0 0 61 68 0 0 -61z"/>
  <path class="fil47" d="M15439 5902l22 0c10,34 20,69 30,104l-52 0 0 -104z"/>
  <path class="fil55" d="M15439 5881l22 0 16 0 5 15c5,18 10,35 15,52 4,14 9,32 15,52l7 27 -28 0 -52 0 -21 0 0 -21 0 -104 0 -21 21 0zm24 104l-3 -10 0 10 3 0z"/>
  <polygon class="fil47" points="15326,6009 15436,6009 15436,6113 15326,6113 "/>
  <path class="fil55" d="M15326 5988l110 0 21 0 0 21 0 104 0 21 -21 0 -110 0 -21 0 0 -21 0 -104 0 -21 21 0zm89 43l-68 0 0 61 68 0 0 -61z"/>
  <path class="fil47" d="M15439 6009l53 0c9,34 18,69 27,104l-80 0 0 -104z"/>
  <path class="fil55" d="M15439 5988l53 0 16 0 4 16c3,13 8,30 14,52 5,19 9,36 13,52l6 26 -27 0 -80 0 -21 0 0 -21 0 -104 0 -21 21 0zm37 43l-15 0 0 61 31 0c-2,-9 -4,-17 -7,-26 -2,-10 -6,-21 -9,-36z"/>
  <path class="fil47" d="M15436 5821l0 77 -111 0 0 -98 104 0c2,7 4,13 7,20z"/>
  <path class="fil55" d="M15457 5821l0 77 0 21 -21 0 -110 0 -21 0 0 -21 0 -98 0 -21 21 0 104 0 15 0 5 15 7 20 1 3 0 3zm-43 56l0 -53 -1 -2 -67 0 0 55 68 0z"/>
  <path class="fil47" d="M15461 5898l-21 0 0 -67c7,22 14,45 21,67z"/>
  <path class="fil55" d="M15461 5920l-21 0 -21 0 0 -21 0 -67 0 -134 41 128c4,13 8,24 11,34 4,12 7,23 10,34l8 27 -29 0z"/>
  <polygon class="fil47" points="15326,6219 15436,6219 15436,6323 15326,6323 "/>
  <path class="fil55" d="M15326 6198l110 0 21 0 0 21 0 104 0 21 -21 0 -110 0 -21 0 0 -21 0 -104 0 -21 21 0zm89 43l-68 0 0 61 68 0 0 -61z"/>
  <path class="fil47" d="M15439 6219l104 0c2,10 4,19 6,29l0 75 -111 0 0 -104z"/>
  <path class="fil55" d="M15439 6198l104 0 17 0 4 17 6 29 1 2 0 2 0 75 0 21 -21 0 -110 0 -21 0 0 -21 0 -104 0 -21 21 0zm87 43l-66 0 0 61 68 0 0 -51 -2 -10z"/>
  <path class="fil47" d="M15565 6323l-14 0 0 -67c5,22 9,45 14,67z"/>
  <path class="fil55" d="M15565 6344l-14 0 -21 0 0 -21 0 -67 0 -202 42 197c2,8 4,19 7,34 4,18 6,28 7,34l5 25 -26 0z"/>
  <polygon class="fil47" points="15326,6326 15436,6326 15436,6430 15326,6430 "/>
  <path class="fil55" d="M15326 6305l110 0 21 0 0 21 0 104 0 21 -21 0 -110 0 -21 0 0 -21 0 -104 0 -21 21 0zm89 43l-68 0 0 61 68 0 0 -61z"/>
  <polygon class="fil47" points="15439,6326 15550,6326 15550,6430 15439,6430 "/>
  <path class="fil55" d="M15439 6305l110 0 21 0 0 21 0 104 0 21 -21 0 -110 0 -21 0 0 -21 0 -104 0 -21 21 0zm89 43l-68 0 0 61 68 0 0 -61z"/>
  <path class="fil47" d="M15552 6326l14 0c7,34 13,69 19,104l-33 0 0 -104z"/>
  <path class="fil55" d="M15552 6305l14 0 17 0 3 17c3,14 6,32 10,52 4,22 7,39 9,52l4 25 -25 0 -33 0 -21 0 0 -21 0 -104 0 -21 21 0z"/>
  <polygon class="fil47" points="15326,6112 15436,6112 15436,6216 15326,6216 "/>
  <path class="fil55" d="M15326 6091l110 0 21 0 0 21 0 104 0 21 -21 0 -110 0 -21 0 0 -21 0 -104 0 -21 21 0zm89 43l-68 0 0 61 68 0 0 -61z"/>
  <path class="fil47" d="M15439 6112l79 0c8,34 16,69 24,104l-104 0 0 -104z"/>
  <path class="fil55" d="M15439 6091l79 0 17 0 4 16c4,17 8,34 12,52 4,19 8,36 12,53l6 26 -26 0 -103 0 -21 0 0 -21 0 -104 0 -21 21 0zm63 43l-41 0 0 61 56 0c-2,-9 -4,-18 -6,-27 -3,-12 -5,-23 -8,-35z"/>
  <polygon class="fil47" points="15326,6539 15436,6539 15436,6643 15326,6643 "/>
  <path class="fil55" d="M15326 6518l110 0 21 0 0 21 0 104 0 21 -21 0 -110 0 -21 0 0 -21 0 -104 0 -21 21 0zm89 43l-68 0 0 61 68 0 0 -61z"/>
  <polygon class="fil47" points="15439,6539 15550,6539 15550,6643 15439,6643 "/>
  <path class="fil55" d="M15439 6518l110 0 21 0 0 21 0 104 0 21 -21 0 -110 0 -21 0 0 -21 0 -104 0 -21 21 0zm89 43l-68 0 0 61 68 0 0 -61z"/>
  <path class="fil47" d="M15552 6539l51 0c5,34 10,69 15,104l-66 0 0 -104z"/>
  <path class="fil55" d="M15552 6518l51 0 18 0 3 18c2,15 5,32 8,52 2,16 5,33 7,52l3 24 -24 0 -66 0 -21 0 0 -21 0 -104 0 -21 21 0zm33 43l-12 0 0 61 21 0c-1,-9 -3,-18 -4,-28 -1,-10 -3,-21 -5,-33z"/>
  <polygon class="fil47" points="15326,6647 15436,6647 15436,6750 15326,6750 "/>
  <path class="fil55" d="M15326 6625l110 0 21 0 0 21 0 104 0 21 -21 0 -110 0 -21 0 0 -21 0 -104 0 -21 21 0zm89 43l-68 0 0 61 68 0 0 -61z"/>
  <polygon class="fil47" points="15439,6647 15550,6647 15550,6750 15439,6750 "/>
  <path class="fil55" d="M15439 6625l110 0 21 0 0 21 0 104 0 21 -21 0 -110 0 -21 0 0 -21 0 -104 0 -21 21 0zm89 43l-68 0 0 61 68 0 0 -61z"/>
  <path class="fil47" d="M15552 6647l67 0c5,34 9,69 13,104l-80 0 0 -104z"/>
  <path class="fil55" d="M15552 6625l67 0 19 0 3 18c2,16 4,33 7,52 3,23 5,40 7,52l3 24 -24 0 -80 0 -21 0 0 -21 0 -104 0 -21 21 0zm48 43l-27 0 0 61 35 0c-1,-12 -3,-21 -3,-28 -1,-10 -3,-21 -4,-33z"/>
  <polygon class="fil47" points="15326,6432 15436,6432 15436,6536 15326,6536 "/>
  <path class="fil55" d="M15326 6411l110 0 21 0 0 21 0 104 0 21 -21 0 -110 0 -21 0 0 -21 0 -104 0 -21 21 0zm89 43l-68 0 0 61 68 0 0 -61z"/>
  <polygon class="fil47" points="15439,6432 15550,6432 15550,6536 15439,6536 "/>
  <path class="fil55" d="M15439 6411l110 0 21 0 0 21 0 104 0 21 -21 0 -110 0 -21 0 0 -21 0 -104 0 -21 21 0zm89 43l-68 0 0 61 68 0 0 -61z"/>
  <path class="fil47" d="M15552 6432l34 0c6,34 12,69 17,104l-51 0 0 -104z"/>
  <path class="fil55" d="M15552 6411l34 0 18 0 3 18c3,15 5,32 9,52 3,16 5,33 8,52l4 25 -25 0 -51 0 -21 0 0 -21 0 -104 0 -21 21 0zm22 76l0 -2 0 29 5 0 -4 -27z"/>
  <polygon class="fil47" points="14986,7182 15096,7182 15096,7286 14986,7286 "/>
  <path class="fil55" d="M14986 7161l111 0 21 0 0 21 0 104 0 21 -21 0 -111 0 -21 0 0 -21 0 -104 0 -21 21 0zm89 43l-68 0 0 61 68 0 0 -61z"/>
  <polygon class="fil47" points="15100,7182 15210,7182 15210,7286 15100,7286 "/>
  <path class="fil55" d="M15100 7161l110 0 21 0 0 21 0 104 0 21 -21 0 -110 0 -21 0 0 -21 0 -104 0 -21 21 0zm89 43l-68 0 0 61 68 0 0 -61z"/>
  <polygon class="fil47" points="15212,7182 15323,7182 15323,7286 15212,7286 "/>
  <path class="fil55" d="M15212 7161l110 0 21 0 0 21 0 104 0 21 -21 0 -110 0 -21 0 0 -21 0 -104 0 -21 21 0zm89 43l-68 0 0 61 68 0 0 -61z"/>
  <polygon class="fil47" points="14986,7290 15096,7290 15096,7393 14986,7393 "/>
  <path class="fil55" d="M14986 7268l111 0 21 0 0 21 0 104 0 21 -21 0 -111 0 -21 0 0 -21 0 -104 0 -21 21 0zm89 43l-68 0 0 61 68 0 0 -61z"/>
  <polygon class="fil47" points="15100,7290 15210,7290 15210,7393 15100,7393 "/>
  <path class="fil55" d="M15100 7268l110 0 21 0 0 21 0 104 0 21 -21 0 -110 0 -21 0 0 -21 0 -104 0 -21 21 0zm89 43l-68 0 0 61 68 0 0 -61z"/>
  <polygon class="fil47" points="15212,7290 15323,7290 15323,7393 15212,7393 "/>
  <path class="fil55" d="M15212 7268l110 0 21 0 0 21 0 104 0 21 -21 0 -110 0 -21 0 0 -21 0 -104 0 -21 21 0zm89 43l-68 0 0 61 68 0 0 -61z"/>
  <polygon class="fil47" points="14986,7075 15096,7075 15096,7179 14986,7179 "/>
  <path class="fil55" d="M14986 7054l111 0 21 0 0 21 0 104 0 21 -21 0 -111 0 -21 0 0 -21 0 -104 0 -21 21 0zm89 43l-68 0 0 61 68 0 0 -61z"/>
  <polygon class="fil47" points="15100,7075 15210,7075 15210,7179 15100,7179 "/>
  <path class="fil55" d="M15100 7054l110 0 21 0 0 21 0 104 0 21 -21 0 -110 0 -21 0 0 -21 0 -104 0 -21 21 0zm89 43l-68 0 0 61 68 0 0 -61z"/>
  <polygon class="fil47" points="15212,7075 15323,7075 15323,7179 15212,7179 "/>
  <path class="fil55" d="M15212 7054l110 0 21 0 0 21 0 104 0 21 -21 0 -110 0 -21 0 0 -21 0 -104 0 -21 21 0zm89 43l-68 0 0 61 68 0 0 -61z"/>
  <path class="fil47" d="M15005 6865l91 0 0 104 -102 0c3,-35 7,-69 10,-104z"/>
  <path class="fil55" d="M15005 6844l91 0 21 0 0 21 0 104 0 21 -21 0 -102 0 -23 0 2 -23c2,-19 3,-36 5,-52 2,-18 4,-35 5,-52l2 -19 19 0zm70 43l-51 0c-1,11 -2,22 -3,33l-3 29 57 0 0 -61z"/>
  <polygon class="fil47" points="15100,6865 15210,6865 15210,6969 15100,6969 "/>
  <path class="fil55" d="M15100 6844l110 0 21 0 0 21 0 104 0 21 -21 0 -110 0 -21 0 0 -21 0 -104 0 -21 21 0zm89 43l-68 0 0 61 68 0 0 -61z"/>
  <polygon class="fil47" points="15212,6865 15323,6865 15323,6969 15212,6969 "/>
  <path class="fil55" d="M15212 6844l110 0 21 0 0 21 0 104 0 21 -21 0 -110 0 -21 0 0 -21 0 -104 0 -21 21 0zm89 43l-68 0 0 61 68 0 0 -61z"/>
  <path class="fil47" d="M14995 6972l102 0 0 104 -111 0 0 -3c3,-34 6,-67 9,-100z"/>
  <path class="fil55" d="M14995 6951l102 0 21 0 0 21 0 104 0 21 -21 0 -111 0 -21 0 0 -21 0 -3 0 -2c2,-19 3,-35 4,-51 0,-5 2,-23 5,-50l2 -19 19 0zm81 43l-61 0 -3 31 -3 31 67 0 0 -61z"/>
  <polygon class="fil47" points="15100,6972 15210,6972 15210,7076 15100,7076 "/>
  <path class="fil55" d="M15100 6951l110 0 21 0 0 21 0 104 0 21 -21 0 -110 0 -21 0 0 -21 0 -104 0 -21 21 0zm89 43l-68 0 0 61 68 0 0 -61z"/>
  <polygon class="fil47" points="15212,6972 15323,6972 15323,7076 15212,7076 "/>
  <path class="fil55" d="M15212 6951l110 0 21 0 0 21 0 104 0 21 -21 0 -110 0 -21 0 0 -21 0 -104 0 -21 21 0zm89 43l-68 0 0 61 68 0 0 -61z"/>
  <path class="fil47" d="M15017 6758l79 0 0 104 -91 0c4,-35 8,-70 12,-104z"/>
  <path class="fil55" d="M15017 6737l79 0 21 0 0 21 0 104 0 21 -21 0 -91 0 -24 0 2 -23c2,-19 4,-36 6,-52 2,-19 4,-36 6,-52l2 -19 19 0zm58 43l-39 0c-1,12 -3,23 -4,33 -1,10 -2,19 -3,29l46 0 0 -61z"/>
  <polygon class="fil47" points="15100,6758 15210,6758 15210,6862 15100,6862 "/>
  <path class="fil55" d="M15100 6737l110 0 21 0 0 21 0 104 0 21 -21 0 -110 0 -21 0 0 -21 0 -104 0 -21 21 0zm89 43l-68 0 0 61 68 0 0 -61z"/>
  <polygon class="fil47" points="15212,6758 15323,6758 15323,6862 15212,6862 "/>
  <path class="fil55" d="M15212 6737l110 0 21 0 0 21 0 104 0 21 -21 0 -110 0 -21 0 0 -21 0 -104 0 -21 21 0zm89 43l-68 0 0 61 68 0 0 -61z"/>
  <polygon class="fil47" points="14986,7503 15096,7503 15096,7606 14986,7606 "/>
  <path class="fil55" d="M14986 7481l111 0 21 0 0 21 0 104 0 21 -21 0 -111 0 -21 0 0 -21 0 -104 0 -21 21 0zm89 43l-68 0 0 61 68 0 0 -61z"/>
  <polygon class="fil47" points="15100,7503 15210,7503 15210,7606 15100,7606 "/>
  <path class="fil55" d="M15100 7481l110 0 21 0 0 21 0 104 0 21 -21 0 -110 0 -21 0 0 -21 0 -104 0 -21 21 0zm89 43l-68 0 0 61 68 0 0 -61z"/>
  <polygon class="fil47" points="15212,7503 15323,7503 15323,7606 15212,7606 "/>
  <path class="fil55" d="M15212 7481l110 0 21 0 0 21 0 104 0 21 -21 0 -110 0 -21 0 0 -21 0 -104 0 -21 21 0zm89 43l-68 0 0 61 68 0 0 -61z"/>
  <polygon class="fil47" points="14986,7610 15096,7610 15096,7714 14986,7714 "/>
  <path class="fil55" d="M14986 7588l111 0 21 0 0 21 0 104 0 21 -21 0 -111 0 -21 0 0 -21 0 -104 0 -21 21 0zm89 43l-68 0 0 61 68 0 0 -61z"/>
  <polygon class="fil47" points="15100,7610 15210,7610 15210,7714 15100,7714 "/>
  <path class="fil55" d="M15100 7588l110 0 21 0 0 21 0 104 0 21 -21 0 -110 0 -21 0 0 -21 0 -104 0 -21 21 0zm89 43l-68 0 0 61 68 0 0 -61z"/>
  <polygon class="fil47" points="15212,7610 15323,7610 15323,7714 15212,7714 "/>
  <path class="fil55" d="M15212 7588l110 0 21 0 0 21 0 104 0 21 -21 0 -110 0 -21 0 0 -21 0 -104 0 -21 21 0zm89 43l-68 0 0 61 68 0 0 -61z"/>
  <polygon class="fil47" points="14986,7395 15096,7395 15096,7499 14986,7499 "/>
  <path class="fil55" d="M14986 7374l111 0 21 0 0 21 0 104 0 21 -21 0 -111 0 -21 0 0 -21 0 -104 0 -21 21 0zm89 43l-68 0 0 61 68 0 0 -61z"/>
  <polygon class="fil47" points="15100,7395 15210,7395 15210,7499 15100,7499 "/>
  <path class="fil55" d="M15100 7374l110 0 21 0 0 21 0 104 0 21 -21 0 -110 0 -21 0 0 -21 0 -104 0 -21 21 0zm89 43l-68 0 0 61 68 0 0 -61z"/>
  <polygon class="fil47" points="15212,7395 15323,7395 15323,7499 15212,7499 "/>
  <path class="fil55" d="M15212 7374l110 0 21 0 0 21 0 104 0 21 -21 0 -110 0 -21 0 0 -21 0 -104 0 -21 21 0zm89 43l-68 0 0 61 68 0 0 -61z"/>
  <polygon class="fil47" points="15326,6865 15436,6865 15436,6969 15326,6969 "/>
  <path class="fil55" d="M15326 6844l110 0 21 0 0 21 0 104 0 21 -21 0 -110 0 -21 0 0 -21 0 -104 0 -21 21 0zm89 43l-68 0 0 61 68 0 0 -61z"/>
  <polygon class="fil47" points="15439,6865 15550,6865 15550,6969 15439,6969 "/>
  <path class="fil55" d="M15439 6844l110 0 21 0 0 21 0 104 0 21 -21 0 -110 0 -21 0 0 -21 0 -104 0 -21 21 0zm89 43l-68 0 0 61 68 0 0 -61z"/>
  <path class="fil47" d="M15552 6865l93 0c4,34 7,69 10,104l-103 0 0 -104z"/>
  <path class="fil55" d="M15552 6844l93 0 19 0 2 19c2,16 3,33 5,52 2,22 4,41 5,52l2 23 -23 0 -103 0 -21 0 0 -21 0 -104 0 -21 21 0zm74 43l-52 0 0 61 58 0c-1,-12 -2,-21 -3,-29 -1,-10 -2,-21 -3,-33z"/>
  <polygon class="fil47" points="15326,6972 15436,6972 15436,7076 15326,7076 "/>
  <path class="fil55" d="M15326 6951l110 0 21 0 0 21 0 104 0 21 -21 0 -110 0 -21 0 0 -21 0 -104 0 -21 21 0zm89 43l-68 0 0 61 68 0 0 -61z"/>
  <polygon class="fil47" points="15439,6972 15550,6972 15550,7076 15439,7076 "/>
  <path class="fil55" d="M15439 6951l110 0 21 0 0 21 0 104 0 21 -21 0 -110 0 -21 0 0 -21 0 -104 0 -21 21 0zm89 43l-68 0 0 61 68 0 0 -61z"/>
  <path class="fil47" d="M15552 6972l103 0c3,29 5,58 7,86l0 17 -111 0 0 -104z"/>
  <path class="fil55" d="M15552 6951l103 0 19 0 2 19c1,13 2,28 4,43 1,13 2,28 4,43l0 2 0 17 0 21 -21 0 -110 0 -21 0 0 -21 0 -104 0 -21 21 0zm84 43l-62 0 0 61 68 0c-1,-12 -2,-24 -3,-38l-2 -24z"/>
  <polygon class="fil47" points="15326,6758 15436,6758 15436,6862 15326,6862 "/>
  <path class="fil55" d="M15326 6737l110 0 21 0 0 21 0 104 0 21 -21 0 -110 0 -21 0 0 -21 0 -104 0 -21 21 0zm89 43l-68 0 0 61 68 0 0 -61z"/>
  <polygon class="fil47" points="15439,6758 15550,6758 15550,6862 15439,6862 "/>
  <path class="fil55" d="M15439 6737l110 0 21 0 0 21 0 104 0 21 -21 0 -110 0 -21 0 0 -21 0 -104 0 -21 21 0zm89 43l-68 0 0 61 68 0 0 -61z"/>
  <path class="fil47" d="M15552 6758l81 0c4,34 8,69 12,104l-93 0 0 -104z"/>
  <path class="fil55" d="M15552 6737l81 0 19 0 2 19c2,16 4,33 6,52 2,16 4,33 6,52l2 23 -23 0 -93 0 -21 0 0 -21 0 -104 0 -21 21 0zm62 43l-41 0 0 61 48 0 -3 -28c-1,-10 -2,-21 -4,-33z"/>
  <polygon class="fil47" points="15326,7182 15436,7182 15436,7286 15326,7286 "/>
  <path class="fil55" d="M15326 7161l110 0 21 0 0 21 0 104 0 21 -21 0 -110 0 -21 0 0 -21 0 -104 0 -21 21 0zm89 43l-68 0 0 61 68 0 0 -61z"/>
  <polygon class="fil47" points="15439,7182 15550,7182 15550,7286 15439,7286 "/>
  <path class="fil55" d="M15439 7161l110 0 21 0 0 21 0 104 0 21 -21 0 -110 0 -21 0 0 -21 0 -104 0 -21 21 0zm89 43l-68 0 0 61 68 0 0 -61z"/>
  <polygon class="fil47" points="15552,7182 15662,7182 15662,7286 15552,7286 "/>
  <path class="fil55" d="M15552 7161l110 0 21 0 0 21 0 104 0 21 -21 0 -110 0 -21 0 0 -21 0 -104 0 -21 21 0zm89 43l-68 0 0 61 68 0 0 -61z"/>
  <polygon class="fil47" points="15326,7290 15436,7290 15436,7393 15326,7393 "/>
  <path class="fil55" d="M15326 7268l110 0 21 0 0 21 0 104 0 21 -21 0 -110 0 -21 0 0 -21 0 -104 0 -21 21 0zm89 43l-68 0 0 61 68 0 0 -61z"/>
  <polygon class="fil47" points="15439,7290 15550,7290 15550,7393 15439,7393 "/>
  <path class="fil55" d="M15439 7268l110 0 21 0 0 21 0 104 0 21 -21 0 -110 0 -21 0 0 -21 0 -104 0 -21 21 0zm89 43l-68 0 0 61 68 0 0 -61z"/>
  <polygon class="fil47" points="15552,7290 15662,7290 15662,7393 15552,7393 "/>
  <path class="fil55" d="M15552 7268l110 0 21 0 0 21 0 104 0 21 -21 0 -110 0 -21 0 0 -21 0 -104 0 -21 21 0zm89 43l-68 0 0 61 68 0 0 -61z"/>
  <polygon class="fil47" points="15326,7075 15436,7075 15436,7179 15326,7179 "/>
  <path class="fil55" d="M15326 7054l110 0 21 0 0 21 0 104 0 21 -21 0 -110 0 -21 0 0 -21 0 -104 0 -21 21 0zm89 43l-68 0 0 61 68 0 0 -61z"/>
  <polygon class="fil47" points="15439,7075 15550,7075 15550,7179 15439,7179 "/>
  <path class="fil55" d="M15439 7054l110 0 21 0 0 21 0 104 0 21 -21 0 -110 0 -21 0 0 -21 0 -104 0 -21 21 0zm89 43l-68 0 0 61 68 0 0 -61z"/>
  <polygon class="fil47" points="15552,7075 15662,7075 15662,7179 15552,7179 "/>
  <path class="fil55" d="M15552 7054l110 0 21 0 0 21 0 104 0 21 -21 0 -110 0 -21 0 0 -21 0 -104 0 -21 21 0zm89 43l-68 0 0 61 68 0 0 -61z"/>
  <polygon class="fil47" points="15326,7503 15436,7503 15436,7606 15326,7606 "/>
  <path class="fil55" d="M15326 7481l110 0 21 0 0 21 0 104 0 21 -21 0 -110 0 -21 0 0 -21 0 -104 0 -21 21 0zm89 43l-68 0 0 61 68 0 0 -61z"/>
  <polygon class="fil47" points="15439,7503 15550,7503 15550,7606 15439,7606 "/>
  <path class="fil55" d="M15439 7481l110 0 21 0 0 21 0 104 0 21 -21 0 -110 0 -21 0 0 -21 0 -104 0 -21 21 0zm89 43l-68 0 0 61 68 0 0 -61z"/>
  <polygon class="fil47" points="15552,7503 15662,7503 15662,7606 15552,7606 "/>
  <path class="fil55" d="M15552 7481l110 0 21 0 0 21 0 104 0 21 -21 0 -110 0 -21 0 0 -21 0 -104 0 -21 21 0zm89 43l-68 0 0 61 68 0 0 -61z"/>
  <polygon class="fil47" points="15326,7610 15436,7610 15436,7714 15326,7714 "/>
  <path class="fil55" d="M15326 7588l110 0 21 0 0 21 0 104 0 21 -21 0 -110 0 -21 0 0 -21 0 -104 0 -21 21 0zm89 43l-68 0 0 61 68 0 0 -61z"/>
  <polygon class="fil47" points="15439,7610 15550,7610 15550,7714 15439,7714 "/>
  <path class="fil55" d="M15439 7588l110 0 21 0 0 21 0 104 0 21 -21 0 -110 0 -21 0 0 -21 0 -104 0 -21 21 0zm89 43l-68 0 0 61 68 0 0 -61z"/>
  <polygon class="fil47" points="15552,7610 15662,7610 15662,7714 15552,7714 "/>
  <path class="fil55" d="M15552 7588l110 0 21 0 0 21 0 104 0 21 -21 0 -110 0 -21 0 0 -21 0 -104 0 -21 21 0zm89 43l-68 0 0 61 68 0 0 -61z"/>
  <polygon class="fil47" points="15326,7395 15436,7395 15436,7499 15326,7499 "/>
  <path class="fil55" d="M15326 7374l110 0 21 0 0 21 0 104 0 21 -21 0 -110 0 -21 0 0 -21 0 -104 0 -21 21 0zm89 43l-68 0 0 61 68 0 0 -61z"/>
  <polygon class="fil47" points="15439,7395 15550,7395 15550,7499 15439,7499 "/>
  <path class="fil55" d="M15439 7374l110 0 21 0 0 21 0 104 0 21 -21 0 -110 0 -21 0 0 -21 0 -104 0 -21 21 0zm89 43l-68 0 0 61 68 0 0 -61z"/>
  <polygon class="fil47" points="15552,7395 15662,7395 15662,7499 15552,7499 "/>
  <path class="fil55" d="M15552 7374l110 0 21 0 0 21 0 104 0 21 -21 0 -110 0 -21 0 0 -21 0 -104 0 -21 21 0zm89 43l-68 0 0 61 68 0 0 -61z"/>
  <path class="fil47" d="M14978 7182l6 0 0 104 -13 0c2,-35 4,-69 7,-104z"/>
  <path class="fil55" d="M14978 7161l6 0 21 0 0 21 0 104 0 21 -21 0 -13 0 -23 0 1 -23c1,-18 2,-36 3,-52 1,-18 2,-36 3,-52l1 -20 20 0z"/>
  <path class="fil47" d="M14971 7290l13 0 0 104 -18 0c2,-35 4,-69 6,-104z"/>
  <path class="fil55" d="M14971 7268l13 0 21 0 0 21 0 104 0 21 -21 0 -18 0 -22 0 1 -22c1,-18 2,-36 3,-52l0 0c1,-19 2,-35 3,-52l1 -20 20 0z"/>
  <path class="fil47" d="M14984 7102l0 77 -6 0c2,-26 4,-52 6,-77z"/>
  <path class="fil55" d="M15005 7102l0 77 0 21 -21 0 -6 0 -23 0 2 -23c1,-14 2,-27 3,-39 1,-14 2,-27 3,-39l42 2z"/>
  <path class="fil47" d="M14960 7503l23 0 0 104 -27 0c1,-35 2,-69 4,-104z"/>
  <path class="fil55" d="M14960 7481l23 0 21 0 0 21 0 104 0 21 -21 0 -27 0 -22 0 1 -22c1,-18 1,-35 2,-52 1,-18 1,-35 2,-52l1 -20 20 0z"/>
  <path class="fil47" d="M14956 7610l27 0 0 104 -30 0c1,-35 2,-69 3,-104z"/>
  <path class="fil55" d="M14957 7588l27 0 21 0 0 21 0 104 0 21 -21 0 -30 0 -22 0 0 -22c0,-18 1,-35 1,-52 1,-18 1,-35 2,-52l1 -21 20 0z"/>
  <path class="fil47" d="M14965 7395l18 0 0 104 -23 0c1,-35 3,-69 5,-104z"/>
  <path class="fil55" d="M14965 7374l18 0 21 0 0 21 0 104 0 21 -21 0 -23 0 -22 0 1 -22c1,-18 1,-35 2,-52 1,-18 2,-35 2,-52l1 -20 20 0z"/>
  <path class="fil47" d="M15666 7182l5 0c2,34 4,69 6,104l-11 0 0 -104z"/>
  <path class="fil55" d="M15666 7161l5 0 20 0 1 20c1,16 2,33 3,52 1,17 2,34 3,53l1 22 -22 0 -11 0 -21 0 0 -21 0 -104 0 -21 21 0z"/>
  <path class="fil47" d="M15666 7290l12 0c2,34 4,69 5,104l-17 0 0 -104z"/>
  <path class="fil55" d="M15666 7268l12 0 20 0 1 20c1,17 2,34 3,52 1,17 2,34 2,52l1 22 -22 0 -17 0 -21 0 0 -21 0 -104 0 -21 21 0z"/>
  <path class="fil47" d="M15671 7179l-5 0 0 -71c2,23 3,47 5,71z"/>
  <path class="fil55" d="M15671 7200l-5 0 -21 0 0 -21 0 -70 42 -2c1,10 2,22 3,35 1,11 2,23 2,35l1 23 -23 0z"/>
  <path class="fil47" d="M15666 7503l21 0c1,35 2,69 3,104l-25 0 0 -104z"/>
  <path class="fil55" d="M15666 7481l21 0 20 0 1 21c1,17 1,34 2,52 1,17 1,34 2,52l1 22 -22 0 -25 0 -21 0 0 -21 0 -104 0 -21 21 0z"/>
  <path class="fil47" d="M15666 7610l25 0c1,35 2,69 3,104l-27 0 0 -104z"/>
  <path class="fil55" d="M15666 7588l25 0 21 0 1 21c0,17 1,34 1,52 0,17 1,34 1,52l0 22 -22 0 -27 0 -21 0 0 -21 0 -104 0 -21 21 0z"/>
  <path class="fil47" d="M15666 7395l17 0c2,35 3,69 4,104l-21 0 0 -104z"/>
  <path class="fil55" d="M15666 7374l17 0 20 0 1 20c1,17 2,34 2,52 1,17 1,34 2,52l1 22 -22 0 -21 0 -21 0 0 -21 0 -104 0 -21 21 0z"/>
  <polygon class="fil47" points="15323,9041 15323,8996 15284,8996 "/>
  <polygon class="fil55" points="15344,8996 15344,9041 15322,9079 15268,9010 15238,8975 15284,8975 15323,8975 15344,8975 "/>
  <path class="fil47" d="M15191 8887l20 0 0 -104 -109 0c10,11 20,23 31,36l58 68z"/>
  <path class="fil55" d="M15210 8908l-20 0 -10 0 -6 -7 -58 -68 0 0c-6,-7 -11,-13 -16,-18l-15 -17 -31 -35 47 0 109 0 21 0 0 21 0 104 0 21 -21 0zm-21 -56l0 -48 -41 0 1 1 0 0 40 47z"/>
  <polygon class="fil47" points="15212,8887 15323,8887 15323,8783 15212,8783 "/>
  <path class="fil55" d="M15233 8866l68 0 0 -61 -68 0 0 61zm89 43l-110 0 -21 0 0 -21 0 -104 0 -21 21 0 110 0 21 0 0 21 0 104 0 21 -21 0z"/>
  <path class="fil47" d="M15096 8777l0 -101 -94 0c22,23 52,54 94,101z"/>
  <path class="fil55" d="M15075 8722l0 -25 -23 0c7,8 15,16 23,25zm43 -46l0 101 0 56 -37 -42c-33,-38 -60,-65 -80,-87l-13 -14 -34 -36 50 0 94 0 21 0 0 21z"/>
  <polygon class="fil47" points="15100,8780 15210,8780 15210,8676 15100,8676 "/>
  <path class="fil55" d="M15121 8759l68 0 0 -61 -68 0 0 61zm89 43l-110 0 -7 -17 -14 -5 0 -104 0 -21 21 0 110 0 21 0 0 21 0 104 0 21 -21 0z"/>
  <polygon class="fil47" points="15212,8780 15323,8780 15323,8676 15212,8676 "/>
  <path class="fil55" d="M15233 8759l68 0 0 -61 -68 0 0 61zm89 43l-110 0 -21 0 0 -21 0 -104 0 -21 21 0 110 0 21 0 0 21 0 104 0 21 -21 0z"/>
  <polygon class="fil47" points="15210,8910 15210,8890 15194,8890 "/>
  <polygon class="fil55" points="15232,8890 15232,8910 15232,8967 15194,8924 15177,8904 15148,8869 15194,8869 15210,8869 15232,8869 "/>
  <polygon class="fil47" points="15282,8994 15323,8994 15323,8890 15212,8890 15212,8912 "/>
  <path class="fil55" d="M15292 8973l9 0 0 -61 -62 0 52 61zm31 43l-40 0 -10 0 -6 -7 -70 -82 -5 -6 0 -8 0 -22 0 -21 21 0 110 0 21 0 0 21 0 104 0 21 -21 0z"/>
  <polygon class="fil47" points="15362,8996 15326,8996 15326,9039 "/>
  <polygon class="fil55" points="15326,8975 15362,8975 15408,8975 15378,9010 15321,9078 15304,9039 15304,8996 15304,8975 "/>
  <polygon class="fil47" points="15326,8887 15436,8887 15436,8783 15326,8783 "/>
  <path class="fil55" d="M15347 8866l68 0 0 -61 -68 0 0 61zm89 43l-110 0 -21 0 0 -21 0 -104 0 -21 21 0 110 0 21 0 0 21 0 104 0 21 -21 0z"/>
  <path class="fil47" d="M15439 8887l16 0 58 -68c11,-13 21,-25 31,-36l-105 0 0 104z"/>
  <path class="fil55" d="M15455 8908l-16 0 -21 0 0 -21 0 -104 0 -21 21 0 105 0 47 0 -31 35 -15 17c-4,5 -9,11 -16,18l0 0 -58 68 -6 7 -10 0zm6 -61l36 -43 0 0 1 -1 -37 0 0 43z"/>
  <polygon class="fil47" points="15326,8780 15436,8780 15436,8676 15326,8676 "/>
  <path class="fil55" d="M15347 8759l68 0 0 -61 -68 0 0 61zm89 43l-110 0 -21 0 0 -21 0 -104 0 -21 21 0 110 0 21 0 0 21 0 104 0 21 -21 0z"/>
  <polygon class="fil47" points="15439,8780 15547,8780 15550,8777 15550,8676 15439,8676 "/>
  <path class="fil55" d="M15461 8759l68 0 0 -61 -68 0 0 61zm86 43l-108 0 -21 0 0 -21 0 -104 0 -21 21 0 110 0 21 0 0 21 0 101 0 8 -6 6 -3 3 -6 7 -9 0z"/>
  <path class="fil47" d="M15643 8676l-92 0 0 99c41,-46 70,-76 92,-99z"/>
  <path class="fil55" d="M15594 8697l-21 0 0 22c7,-8 15,-16 21,-22zm-42 -43l92 0 49 0 -34 36c-5,5 -11,12 -18,19 -19,20 -42,45 -73,79l-37 42 0 -56 0 -99 0 -21 21 0z"/>
  <polygon class="fil47" points="15326,8994 15364,8994 15436,8909 15436,8890 15326,8890 "/>
  <path class="fil55" d="M15347 8973l7 0 52 -61 -59 0 0 61zm17 43l-38 0 -21 0 0 -21 0 -104 0 -21 21 0 110 0 21 0 0 21 0 19 0 8 -5 6 -72 85 -6 7 -10 0z"/>
  <polygon class="fil47" points="15452,8890 15439,8890 15439,8905 "/>
  <polygon class="fil55" points="15439,8869 15452,8869 15498,8869 15468,8904 15456,8919 15418,8963 15418,8905 15418,8890 15418,8869 "/>
  <polygon class="fil47" points="14986,8244 15096,8244 15096,8140 14986,8140 "/>
  <path class="fil55" d="M15007 8223l68 0 0 -61 -68 0 0 61zm89 43l-111 0 -21 0 0 -21 0 -104 0 -21 21 0 111 0 21 0 0 21 0 104 0 21 -21 0z"/>
  <polygon class="fil47" points="15100,8244 15210,8244 15210,8140 15100,8140 "/>
  <path class="fil55" d="M15121 8223l68 0 0 -61 -68 0 0 61zm89 43l-110 0 -21 0 0 -21 0 -104 0 -21 21 0 110 0 21 0 0 21 0 104 0 21 -21 0z"/>
  <polygon class="fil47" points="15212,8244 15323,8244 15323,8140 15212,8140 "/>
  <path class="fil55" d="M15233 8223l68 0 0 -61 -68 0 0 61zm89 43l-110 0 -21 0 0 -21 0 -104 0 -21 21 0 110 0 21 0 0 21 0 104 0 21 -21 0z"/>
  <polygon class="fil47" points="14986,8137 15096,8137 15096,8033 14986,8033 "/>
  <path class="fil55" d="M15007 8115l68 0 0 -61 -68 0 0 61zm89 43l-111 0 -21 0 0 -21 0 -104 0 -21 21 0 111 0 21 0 0 21 0 104 0 21 -21 0z"/>
  <polygon class="fil47" points="15100,8137 15210,8137 15210,8033 15100,8033 "/>
  <path class="fil55" d="M15121 8115l68 0 0 -61 -68 0 0 61zm89 43l-110 0 -21 0 0 -21 0 -104 0 -21 21 0 110 0 21 0 0 21 0 104 0 21 -21 0z"/>
  <polygon class="fil47" points="15212,8137 15323,8137 15323,8033 15212,8033 "/>
  <path class="fil55" d="M15233 8115l68 0 0 -61 -68 0 0 61zm89 43l-110 0 -21 0 0 -21 0 -104 0 -21 21 0 110 0 21 0 0 21 0 104 0 21 -21 0z"/>
  <polygon class="fil47" points="14986,8351 15096,8351 15096,8247 14986,8247 "/>
  <path class="fil55" d="M15007 8330l68 0 0 -61 -68 0 0 61zm89 43l-111 0 -21 0 0 -21 0 -104 0 -21 21 0 111 0 21 0 0 21 0 104 0 21 -21 0z"/>
  <polygon class="fil47" points="15100,8351 15210,8351 15210,8247 15100,8247 "/>
  <path class="fil55" d="M15121 8330l68 0 0 -61 -68 0 0 61zm89 43l-110 0 -21 0 0 -21 0 -104 0 -21 21 0 110 0 21 0 0 21 0 104 0 21 -21 0z"/>
  <polygon class="fil47" points="15212,8351 15323,8351 15323,8247 15212,8247 "/>
  <path class="fil55" d="M15233 8330l68 0 0 -61 -68 0 0 61zm89 43l-110 0 -21 0 0 -21 0 -104 0 -21 21 0 110 0 21 0 0 21 0 104 0 21 -21 0z"/>
  <polygon class="fil47" points="14986,8561 15096,8561 15096,8457 14986,8457 "/>
  <path class="fil55" d="M15007 8540l68 0 0 -61 -68 0 0 61zm89 43l-111 0 -21 0 0 -21 0 -104 0 -21 21 0 111 0 21 0 0 21 0 104 0 21 -21 0z"/>
  <polygon class="fil47" points="15100,8561 15210,8561 15210,8457 15100,8457 "/>
  <path class="fil55" d="M15121 8540l68 0 0 -61 -68 0 0 61zm89 43l-110 0 -21 0 0 -21 0 -104 0 -21 21 0 110 0 21 0 0 21 0 104 0 21 -21 0z"/>
  <polygon class="fil47" points="15212,8561 15323,8561 15323,8457 15212,8457 "/>
  <path class="fil55" d="M15233 8540l68 0 0 -61 -68 0 0 61zm89 43l-110 0 -21 0 0 -21 0 -104 0 -21 21 0 110 0 21 0 0 21 0 104 0 21 -21 0z"/>
  <polygon class="fil47" points="14986,8454 15096,8454 15096,8350 14986,8350 "/>
  <path class="fil55" d="M15007 8433l68 0 0 -61 -68 0 0 61zm89 43l-111 0 -21 0 0 -21 0 -104 0 -21 21 0 111 0 21 0 0 21 0 104 0 21 -21 0z"/>
  <polygon class="fil47" points="15100,8454 15210,8454 15210,8350 15100,8350 "/>
  <path class="fil55" d="M15121 8433l68 0 0 -61 -68 0 0 61zm89 43l-110 0 -21 0 0 -21 0 -104 0 -21 21 0 110 0 21 0 0 21 0 104 0 21 -21 0z"/>
  <polygon class="fil47" points="15212,8454 15323,8454 15323,8350 15212,8350 "/>
  <path class="fil55" d="M15233 8433l68 0 0 -61 -68 0 0 61zm89 43l-110 0 -21 0 0 -21 0 -104 0 -21 21 0 110 0 21 0 0 21 0 104 0 21 -21 0z"/>
  <path class="fil47" d="M14995 8668l101 0 0 -104 -111 0 0 94c3,3 6,7 9,10z"/>
  <path class="fil55" d="M15007 8647l68 0 0 -61 -68 0 0 61zm89 43l-101 0 -9 0 -6 -7 -9 -10 -6 -6 0 -8 0 -94 0 -21 21 0 111 0 21 0 0 21 0 104 0 21 -21 0z"/>
  <polygon class="fil47" points="15100,8668 15210,8668 15210,8565 15100,8565 "/>
  <path class="fil55" d="M15121 8647l68 0 0 -61 -68 0 0 61zm89 43l-110 0 -21 0 0 -21 0 -104 0 -21 21 0 110 0 21 0 0 21 0 104 0 21 -21 0z"/>
  <polygon class="fil47" points="15212,8668 15323,8668 15323,8565 15212,8565 "/>
  <path class="fil55" d="M15233 8647l68 0 0 -61 -68 0 0 61zm89 43l-110 0 -21 0 0 -21 0 -104 0 -21 21 0 110 0 21 0 0 21 0 104 0 21 -21 0z"/>
  <polygon class="fil47" points="14986,7924 15096,7924 15096,7820 14986,7820 "/>
  <path class="fil55" d="M15007 7902l68 0 0 -61 -68 0 0 61zm89 43l-111 0 -21 0 0 -21 0 -104 0 -21 21 0 111 0 21 0 0 21 0 104 0 21 -21 0z"/>
  <polygon class="fil47" points="15100,7924 15210,7924 15210,7820 15100,7820 "/>
  <path class="fil55" d="M15121 7902l68 0 0 -61 -68 0 0 61zm89 43l-110 0 -21 0 0 -21 0 -104 0 -21 21 0 110 0 21 0 0 21 0 104 0 21 -21 0z"/>
  <polygon class="fil47" points="15212,7924 15323,7924 15323,7820 15212,7820 "/>
  <path class="fil55" d="M15233 7902l68 0 0 -61 -68 0 0 61zm89 43l-110 0 -21 0 0 -21 0 -104 0 -21 21 0 110 0 21 0 0 21 0 104 0 21 -21 0z"/>
  <polygon class="fil47" points="14986,7817 15096,7817 15096,7713 14986,7713 "/>
  <path class="fil55" d="M15007 7795l68 0 0 -61 -68 0 0 61zm89 43l-111 0 -21 0 0 -21 0 -104 0 -21 21 0 111 0 21 0 0 21 0 104 0 21 -21 0z"/>
  <polygon class="fil47" points="15100,7817 15210,7817 15210,7713 15100,7713 "/>
  <path class="fil55" d="M15121 7795l68 0 0 -61 -68 0 0 61zm89 43l-110 0 -21 0 0 -21 0 -104 0 -21 21 0 110 0 21 0 0 21 0 104 0 21 -21 0z"/>
  <polygon class="fil47" points="15212,7817 15323,7817 15323,7713 15212,7713 "/>
  <path class="fil55" d="M15233 7795l68 0 0 -61 -68 0 0 61zm89 43l-110 0 -21 0 0 -21 0 -104 0 -21 21 0 110 0 21 0 0 21 0 104 0 21 -21 0z"/>
  <polygon class="fil47" points="14986,8031 15096,8031 15096,7927 14986,7927 "/>
  <path class="fil55" d="M15007 8010l68 0 0 -61 -68 0 0 61zm89 43l-111 0 -21 0 0 -21 0 -104 0 -21 21 0 111 0 21 0 0 21 0 104 0 21 -21 0z"/>
  <polygon class="fil47" points="15100,8031 15210,8031 15210,7927 15100,7927 "/>
  <path class="fil55" d="M15121 8010l68 0 0 -61 -68 0 0 61zm89 43l-110 0 -21 0 0 -21 0 -104 0 -21 21 0 110 0 21 0 0 21 0 104 0 21 -21 0z"/>
  <polygon class="fil47" points="15212,8031 15323,8031 15323,7927 15212,7927 "/>
  <path class="fil55" d="M15233 8010l68 0 0 -61 -68 0 0 61zm89 43l-110 0 -21 0 0 -21 0 -104 0 -21 21 0 110 0 21 0 0 21 0 104 0 21 -21 0z"/>
  <polygon class="fil47" points="15326,8561 15436,8561 15436,8457 15326,8457 "/>
  <path class="fil55" d="M15347 8540l68 0 0 -61 -68 0 0 61zm89 43l-110 0 -21 0 0 -21 0 -104 0 -21 21 0 110 0 21 0 0 21 0 104 0 21 -21 0z"/>
  <polygon class="fil47" points="15439,8561 15550,8561 15550,8457 15439,8457 "/>
  <path class="fil55" d="M15461 8540l68 0 0 -61 -68 0 0 61zm89 43l-110 0 -21 0 0 -21 0 -104 0 -21 21 0 110 0 21 0 0 21 0 104 0 21 -21 0z"/>
  <polygon class="fil47" points="15552,8561 15662,8561 15662,8457 15552,8457 "/>
  <path class="fil55" d="M15573 8540l68 0 0 -61 -68 0 0 61zm89 43l-110 0 -21 0 0 -21 0 -104 0 -21 21 0 110 0 21 0 0 21 0 104 0 21 -21 0z"/>
  <polygon class="fil47" points="15326,8454 15436,8454 15436,8350 15326,8350 "/>
  <path class="fil55" d="M15347 8433l68 0 0 -61 -68 0 0 61zm89 43l-110 0 -21 0 0 -21 0 -104 0 -21 21 0 110 0 21 0 0 21 0 104 0 21 -21 0z"/>
  <polygon class="fil47" points="15439,8454 15550,8454 15550,8350 15439,8350 "/>
  <path class="fil55" d="M15461 8433l68 0 0 -61 -68 0 0 61zm89 43l-110 0 -21 0 0 -21 0 -104 0 -21 21 0 110 0 21 0 0 21 0 104 0 21 -21 0z"/>
  <polygon class="fil47" points="15552,8454 15662,8454 15662,8350 15552,8350 "/>
  <path class="fil55" d="M15573 8433l68 0 0 -61 -68 0 0 61zm89 43l-110 0 -21 0 0 -21 0 -104 0 -21 21 0 110 0 21 0 0 21 0 104 0 21 -21 0z"/>
  <polygon class="fil47" points="15326,8668 15436,8668 15436,8565 15326,8565 "/>
  <path class="fil55" d="M15347 8647l68 0 0 -61 -68 0 0 61zm89 43l-110 0 -21 0 0 -21 0 -104 0 -21 21 0 110 0 21 0 0 21 0 104 0 21 -21 0z"/>
  <polygon class="fil47" points="15439,8668 15550,8668 15550,8565 15439,8565 "/>
  <path class="fil55" d="M15461 8647l68 0 0 -61 -68 0 0 61zm89 43l-110 0 -21 0 0 -21 0 -104 0 -21 21 0 110 0 21 0 0 21 0 104 0 21 -21 0z"/>
  <path class="fil47" d="M15552 8668l99 0c4,-5 8,-9 12,-13l0 -91 -111 0 0 104z"/>
  <path class="fil55" d="M15573 8647l68 0 0 -61 -68 0 0 61zm78 43l-99 0 -21 0 0 -21 0 -104 0 -21 21 0 110 0 21 0 0 21 0 91 0 8 -5 6c-2,3 -4,5 -6,7 -2,2 -4,4 -6,7l-6 7 -9 0z"/>
  <polygon class="fil47" points="15326,8244 15436,8244 15436,8140 15326,8140 "/>
  <path class="fil55" d="M15347 8223l68 0 0 -61 -68 0 0 61zm89 43l-110 0 -21 0 0 -21 0 -104 0 -21 21 0 110 0 21 0 0 21 0 104 0 21 -21 0z"/>
  <polygon class="fil47" points="15439,8244 15550,8244 15550,8140 15439,8140 "/>
  <path class="fil55" d="M15461 8223l68 0 0 -61 -68 0 0 61zm89 43l-110 0 -21 0 0 -21 0 -104 0 -21 21 0 110 0 21 0 0 21 0 104 0 21 -21 0z"/>
  <polygon class="fil47" points="15552,8244 15662,8244 15662,8140 15552,8140 "/>
  <path class="fil55" d="M15573 8223l68 0 0 -61 -68 0 0 61zm89 43l-110 0 -21 0 0 -21 0 -104 0 -21 21 0 110 0 21 0 0 21 0 104 0 21 -21 0z"/>
  <polygon class="fil47" points="15326,8137 15436,8137 15436,8033 15326,8033 "/>
  <path class="fil55" d="M15347 8115l68 0 0 -61 -68 0 0 61zm89 43l-110 0 -21 0 0 -21 0 -104 0 -21 21 0 110 0 21 0 0 21 0 104 0 21 -21 0z"/>
  <polygon class="fil47" points="15439,8137 15550,8137 15550,8033 15439,8033 "/>
  <path class="fil55" d="M15461 8115l68 0 0 -61 -68 0 0 61zm89 43l-110 0 -21 0 0 -21 0 -104 0 -21 21 0 110 0 21 0 0 21 0 104 0 21 -21 0z"/>
  <polygon class="fil47" points="15552,8137 15662,8137 15662,8033 15552,8033 "/>
  <path class="fil55" d="M15573 8115l68 0 0 -61 -68 0 0 61zm89 43l-110 0 -21 0 0 -21 0 -104 0 -21 21 0 110 0 21 0 0 21 0 104 0 21 -21 0z"/>
  <polygon class="fil47" points="15326,8351 15436,8351 15436,8247 15326,8247 "/>
  <path class="fil55" d="M15347 8330l68 0 0 -61 -68 0 0 61zm89 43l-110 0 -21 0 0 -21 0 -104 0 -21 21 0 110 0 21 0 0 21 0 104 0 21 -21 0z"/>
  <polygon class="fil47" points="15439,8351 15550,8351 15550,8247 15439,8247 "/>
  <path class="fil55" d="M15461 8330l68 0 0 -61 -68 0 0 61zm89 43l-110 0 -21 0 0 -21 0 -104 0 -21 21 0 110 0 21 0 0 21 0 104 0 21 -21 0z"/>
  <polygon class="fil47" points="15552,8351 15662,8351 15662,8247 15552,8247 "/>
  <path class="fil55" d="M15573 8330l68 0 0 -61 -68 0 0 61zm89 43l-110 0 -21 0 0 -21 0 -104 0 -21 21 0 110 0 21 0 0 21 0 104 0 21 -21 0z"/>
  <polygon class="fil47" points="15326,7924 15436,7924 15436,7820 15326,7820 "/>
  <path class="fil55" d="M15347 7902l68 0 0 -61 -68 0 0 61zm89 43l-110 0 -21 0 0 -21 0 -104 0 -21 21 0 110 0 21 0 0 21 0 104 0 21 -21 0z"/>
  <polygon class="fil47" points="15439,7924 15550,7924 15550,7820 15439,7820 "/>
  <path class="fil55" d="M15461 7902l68 0 0 -61 -68 0 0 61zm89 43l-110 0 -21 0 0 -21 0 -104 0 -21 21 0 110 0 21 0 0 21 0 104 0 21 -21 0z"/>
  <polygon class="fil47" points="15552,7924 15662,7924 15662,7820 15552,7820 "/>
  <path class="fil55" d="M15573 7902l68 0 0 -61 -68 0 0 61zm89 43l-110 0 -21 0 0 -21 0 -104 0 -21 21 0 110 0 21 0 0 21 0 104 0 21 -21 0z"/>
  <polygon class="fil47" points="15326,7817 15436,7817 15436,7713 15326,7713 "/>
  <path class="fil55" d="M15347 7795l68 0 0 -61 -68 0 0 61zm89 43l-110 0 -21 0 0 -21 0 -104 0 -21 21 0 110 0 21 0 0 21 0 104 0 21 -21 0z"/>
  <polygon class="fil47" points="15439,7817 15550,7817 15550,7713 15439,7713 "/>
  <path class="fil55" d="M15461 7795l68 0 0 -61 -68 0 0 61zm89 43l-110 0 -21 0 0 -21 0 -104 0 -21 21 0 110 0 21 0 0 21 0 104 0 21 -21 0z"/>
  <polygon class="fil47" points="15552,7817 15662,7817 15662,7713 15552,7713 "/>
  <path class="fil55" d="M15573 7795l68 0 0 -61 -68 0 0 61zm89 43l-110 0 -21 0 0 -21 0 -104 0 -21 21 0 110 0 21 0 0 21 0 104 0 21 -21 0z"/>
  <polygon class="fil47" points="15326,8031 15436,8031 15436,7927 15326,7927 "/>
  <path class="fil55" d="M15347 8010l68 0 0 -61 -68 0 0 61zm89 43l-110 0 -21 0 0 -21 0 -104 0 -21 21 0 110 0 21 0 0 21 0 104 0 21 -21 0z"/>
  <polygon class="fil47" points="15439,8031 15550,8031 15550,7927 15439,7927 "/>
  <path class="fil55" d="M15461 8010l68 0 0 -61 -68 0 0 61zm89 43l-110 0 -21 0 0 -21 0 -104 0 -21 21 0 110 0 21 0 0 21 0 104 0 21 -21 0z"/>
  <polygon class="fil47" points="15552,8031 15662,8031 15662,7927 15552,7927 "/>
  <path class="fil55" d="M15573 8010l68 0 0 -61 -68 0 0 61zm89 43l-110 0 -21 0 0 -21 0 -104 0 -21 21 0 110 0 21 0 0 21 0 104 0 21 -21 0z"/>
  <path class="fil47" d="M14947 8561l37 0 0 -104 -34 0c-1,48 -3,80 -3,104z"/>
  <path class="fil55" d="M14984 8583l-37 0 -21 0 0 -21c0,-14 1,-31 1,-51 1,-16 1,-34 2,-54l0 -21 21 0 34 0 21 0 0 21 0 104 0 21 -21 0z"/>
  <path class="fil47" d="M14949 8454l34 0 0 -104 -34 0c0,12 0,24 0,36 0,26 0,48 -1,68z"/>
  <path class="fil55" d="M14984 8475l-34 0 -22 0 0 -22c0,-10 0,-21 1,-32 0,-7 0,-18 0,-36l0 0 0 -18 0 0 0 -18 0 -21 21 0 34 0 21 0 0 21 0 104 0 21 -21 0z"/>
  <path class="fil47" d="M14984 8656l0 -91 -37 0c1,42 8,59 37,91z"/>
  <path class="fil55" d="M15005 8565l0 91 0 55 -37 -41c-16,-18 -26,-32 -33,-48 -7,-16 -9,-33 -9,-57l0 -22 21 0 37 0 21 0 0 21z"/>
  <path class="fil47" d="M14949 8244l35 0 0 -104 -35 0c0,35 0,69 0,104z"/>
  <path class="fil55" d="M14984 8265l-35 0 -21 0 0 -21c0,-17 0,-35 0,-52l0 -52 0 -21 21 0 35 0 21 0 0 21 0 104 0 21 -21 0z"/>
  <path class="fil47" d="M14949 8137l35 0 0 -104 -35 0c0,35 0,69 0,104z"/>
  <path class="fil55" d="M14984 8158l-35 0 -21 0 0 -21c0,-27 0,-55 0,-104l0 -21 21 0 35 0 21 0 0 21 0 104 0 21 -21 0z"/>
  <path class="fil47" d="M14950 8351l34 0 0 -104 -35 0c0,35 1,69 1,104z"/>
  <path class="fil55" d="M14984 8372l-34 0 -21 0 0 -21 0 -5c0,-33 -1,-65 -1,-98l0 -21 21 0 35 0 21 0 0 21 0 104 0 21 -21 0z"/>
  <path class="fil47" d="M14950 7924l34 0 0 -104 -32 0c-1,35 -1,69 -2,104z"/>
  <path class="fil55" d="M14984 7945l-34 0 -21 0 0 -22 1 -52c0,-18 1,-35 1,-52l0 -21 21 0 32 0 21 0 0 21 0 104 0 21 -21 0z"/>
  <path class="fil47" d="M14951 7817l32 0 0 -104 -30 0c-1,35 -2,69 -2,104z"/>
  <path class="fil55" d="M14984 7838l-32 0 -22 0 0 -22c0,-18 1,-35 1,-52 0,-18 1,-35 1,-52l1 -21 21 0 30 0 21 0 0 21 0 104 0 21 -21 0z"/>
  <path class="fil47" d="M14949 8031l35 0 0 -104 -34 0c0,35 -1,69 -1,104z"/>
  <path class="fil55" d="M14984 8052l-35 0 -21 0 0 -21 0 -3c0,-34 0,-67 1,-101l0 -21 21 0 34 0 21 0 0 21 0 104 0 21 -21 0z"/>
  <path class="fil47" d="M15666 8244l32 0c0,-35 0,-69 0,-104l-32 0 0 104z"/>
  <polygon class="fil55" points="15698,8265 15666,8265 15645,8265 15645,8244 15645,8140 15645,8119 15666,8119 15698,8119 15719,8119 15719,8140 15719,8244 15719,8244 15719,8244 15719,8265 "/>
  <path class="fil47" d="M15666 8137l32 0c0,-35 0,-69 0,-104l-31 0 0 104z"/>
  <path class="fil55" d="M15698 8158l-32 0 -21 0 0 -21 0 -104 0 -21 21 0 31 0 21 0 0 21c0,23 0,47 0,70l0 34 0 21 -21 0z"/>
  <path class="fil47" d="M15666 8351l31 0c0,-35 0,-69 0,-104l-32 0 0 104z"/>
  <path class="fil55" d="M15697 8372l-31 0 -21 0 0 -21 0 -104 0 -21 21 0 32 0 21 0 0 21 0 9c0,31 0,63 0,94l0 21 -21 0z"/>
  <path class="fil47" d="M15666 8561l32 0c1,-25 0,-57 -1,-104l-31 0 0 104z"/>
  <path class="fil55" d="M15698 8583l-32 0 -21 0 0 -21 0 -104 0 -21 21 0 31 0 21 0 0 21c0,12 0,23 0,34 0,30 1,53 0,71l-1 21 -21 0z"/>
  <path class="fil47" d="M15666 8454l31 0c0,-14 0,-29 0,-45 0,-20 0,-39 0,-59l-31 0 0 104z"/>
  <path class="fil55" d="M15697 8475l-31 0 -21 0 0 -21 0 -104 0 -21 21 0 31 0 21 0 0 21 0 0 0 0c0,20 0,39 0,59l0 0 0 23c0,7 0,14 0,21l0 22 -22 0z"/>
  <path class="fil47" d="M15697 8565l-32 0 0 86c23,-27 30,-46 32,-86z"/>
  <path class="fil55" d="M15666 8543l31 0 22 0 -1 22c-1,22 -3,39 -9,54 -6,16 -14,29 -27,45l-38 45 0 -59 0 -86 0 -21 21 0z"/>
  <path class="fil47" d="M15666 7924l31 0c0,-35 -1,-69 -1,-104l-29 0 0 104z"/>
  <path class="fil55" d="M15697 7945l-31 0 -21 0 0 -21 0 -104 0 -21 21 0 29 0 21 0 0 21c0,17 1,34 1,52 0,17 0,34 1,52l0 21 -21 0z"/>
  <path class="fil47" d="M15666 7817l29 0c-1,-35 -1,-69 -2,-104l-27 0 0 104z"/>
  <path class="fil55" d="M15695 7838l-29 0 -21 0 0 -21 0 -104 0 -21 21 0 27 0 21 0 0 21c0,17 1,34 1,52 0,17 1,35 1,52l0 22 -21 0z"/>
  <path class="fil47" d="M15666 8031l31 0c0,-35 0,-69 -1,-104l-31 0 0 104z"/>
  <path class="fil55" d="M15697 8052l-31 0 -21 0 0 -21 0 -104 0 -21 21 0 31 0 21 0 0 21c0,17 0,34 0,52l0 52 0 21 -21 0z"/>
  <g id="_901704048">
   <path class="fil28" d="M10737 5801l-87 0 0 126 132 0c-14,-43 -29,-85 -45,-126z"/>
   <path class="fil28" d="M10863 6222c-10,-46 -21,-90 -33,-134l-180 0 0 134 213 0z"/>
   <path class="fil28" d="M10922 6534c-7,-45 -15,-90 -23,-134l-249 0 0 134 272 0z"/>
   <path class="fil28" d="M10961 6829c-5,-45 -10,-90 -16,-134l-295 0 0 134 311 0z"/>
   <path class="fil28" d="M10988 7124c-3,-45 -7,-89 -11,-134l-328 0 0 134 339 0z"/>
   <path class="fil28" d="M11007 7436c-2,-45 -4,-89 -7,-134l-350 0 0 134 357 0z"/>
   <path class="fil28" d="M11017 7709c-1,-45 -2,-89 -4,-134l-363 0 0 134 367 0z"/>
   <path class="fil28" d="M11021 8004c0,-45 -1,-89 -1,-134l-370 0 0 134 372 0z"/>
   <path class="fil28" d="M11021 8315c0,-44 1,-89 1,-134l-372 0 0 134 371 0z"/>
   <path class="fil28" d="M11017 8611c10,-26 6,-58 4,-134l-372 0 0 134 368 0z"/>
   <path class="fil28" d="M10764 8906l74 -87c15,-17 28,-33 41,-47l-229 0 0 134 114 0z"/>
  </g>
  <path class="fil20" d="M12058 5801l196 0c252,753 274,1670 267,2608 0,276 28,162 -183,410l-190 223 -190 -223c-228,-267 -182,-125 -182,-433 -12,-947 35,-1951 283,-2585z"/>
  <path class="fil23" d="M11804 7151c2,-23 3,-45 5,-68l560 0 0 68 -565 0z"/>
  <path class="fil21" d="M11914 5421c158,-76 323,-85 498,10 -26,154 -78,283 -182,377l-160 -2c-101,-97 -146,-229 -155,-384z"/>
  <path class="fil56" d="M15093 10099l591 0c23,0 42,19 42,42l0 287c0,23 -19,42 -42,42l-591 0c-23,0 -42,-19 -42,-42l0 -287c0,-23 19,-42 42,-42z"/>
  <path class="fil57" d="M15008 10244l762 0c23,0 42,19 42,42l0 287c0,23 -19,42 -42,42l-762 0c-23,0 -42,-19 -42,-42l0 -287c0,-23 19,-42 42,-42z"/>
  <path class="fil56" d="M15093 11684l591 0c23,0 42,-19 42,-42l0 -287c0,-23 -19,-42 -42,-42l-591 0c-23,0 -42,19 -42,42l0 287c0,23 19,42 42,42z"/>
  <path class="fil57" d="M15008 11539l762 0c23,0 42,-19 42,-42l0 -287c0,-23 -19,-42 -42,-42l-762 0c-23,0 -42,19 -42,42l0 287c0,23 19,42 42,42z"/>
  <path class="fil58" d="M14931 10407l910 0c61,0 112,50 112,112l0 761c0,61 -50,112 -112,112l-910 0c-61,0 -112,-50 -112,-112l0 -761c0,-61 50,-112 112,-112z"/>
  <path class="fil44" d="M15002 10486l774 0c51,0 93,42 93,93l0 632c0,51 -42,93 -93,93l-774 0c-51,0 -93,-42 -93,-93l0 -632c0,-51 42,-93 93,-93z"/>
  <path class="fil38" d="M15647 10627l0 0c6,5 7,15 2,22l-236 274c-5,6 -15,7 -22,2l0 0c-6,-6 -7,-15 -2,-22l236 -274c5,-6 15,-7 22,-2z"/>
  <path class="fil38" d="M15402 10823c37,0 67,30 67,67 0,37 -30,67 -67,67 -37,0 -67,-30 -67,-67 0,-37 30,-67 67,-67z"/>
  <path class="fil38" d="M15240 10726l0 0c9,-9 24,-10 33,-1l173 161 -44 0 0 22 -160 -149c-9,-9 -10,-24 -1,-33z"/>
  <path class="fil2" d="M15402 10845c25,0 45,20 45,45 0,25 -20,45 -45,45 -25,0 -45,-20 -45,-45 0,-25 20,-45 45,-45z"/>
  <path class="fil14" d="M15405 11203l0 0c9,0 17,8 17,17l0 35c0,9 -8,17 -17,17l0 0c-9,0 -17,-8 -17,-17l0 -35c0,-9 8,-17 17,-17z"/>
  <path class="fil2" d="M15400 10925l0 0c6,0 10,5 10,10l0 224c0,6 -5,10 -10,10l0 0c-6,0 -10,-5 -10,-10l0 -224c0,-6 5,-10 10,-10z"/>
  <path class="fil14" d="M14914 10883l0 0c0,-9 8,-17 18,-17l96 3c9,0 17,8 17,18l0 0c0,9 -8,17 -18,17l-96 -3c-9,0 -17,-8 -17,-18z"/>
  <path class="fil14" d="M15734 10883l0 0c0,-9 8,-17 18,-17l96 3c9,0 17,8 17,18l0 0c0,9 -8,17 -18,17l-96 -3c-9,0 -17,-8 -17,-18z"/>
  <path class="fil14" d="M15405 10520l0 0c9,0 17,8 17,17l0 35c0,9 -8,17 -17,17l0 0c-9,0 -17,-8 -17,-17l0 -35c0,-9 8,-17 17,-17z"/>
  <path class="fil20" d="M4929 1296l0 2534c0,37 30,67 67,67l1037 0 -894 -2727c-50,13 -99,27 -147,41 -34,10 -63,50 -63,85z"/>
  <path class="fil59" d="M15086 5421c158,-76 323,-85 498,10 -26,154 -78,283 -182,377l-160 -2c-101,-97 -146,-229 -155,-384z"/>
 </g>
</svg>
