<?xml version="1.0" encoding="UTF-8"?>
<!DOCTYPE svg PUBLIC "-//W3C//DTD SVG 1.1//EN" "http://www.w3.org/Graphics/SVG/1.1/DTD/svg11.dtd">
<!-- Creator: CorelDRAW X6 -->
<svg xmlns="http://www.w3.org/2000/svg" xml:space="preserve" width="210mm" height="148mm" version="1.1" style="shape-rendering:geometricPrecision; text-rendering:geometricPrecision; image-rendering:optimizeQuality; fill-rule:evenodd; clip-rule:evenodd"
viewBox="0 0 21000 14800"
 xmlns:xlink="http://www.w3.org/1999/xlink">
 <defs>
  <style type="text/css">
   <![CDATA[
    .fil13 {fill:none}
    .fil3 {fill:#41546E}
    .fil0 {fill:#445975}
    .fil7 {fill:#605C75}
    .fil9 {fill:#AD7B84}
    .fil6 {fill:#BA8F97}
    .fil5 {fill:#BD7985}
    .fil10 {fill:#D198A3}
    .fil8 {fill:#D2A2AB}
    .fil11 {fill:#E6B1BB}
    .fil12 {fill:#FECCCF}
    .fil2 {fill:white}
    .fil1 {fill:#41546E;fill-rule:nonzero}
    .fil15 {fill:#AD7B84;fill-rule:nonzero}
    .fil14 {fill:#BD7985;fill-rule:nonzero}
    .fil4 {fill:white;fill-rule:nonzero}
   ]]>
  </style>
 </defs>
 <g id="Слой_x0020_1">
  <metadata id="CorelCorpID_0Corel-Layer"/>
  <g id="_886100880">
   <rect class="fil0" x="-793" y="-97" width="22500" height="13500"/>
   <g id="_771508512">
    <path class="fil1" d="M7542 5530c-149,19 -291,70 -416,138 -147,79 -268,180 -348,278l-53 65 -73 -42c-33,-19 -63,-23 -87,-17 -9,2 -16,6 -21,10 -1,1 -2,0 -2,0 0,1 1,0 3,2 10,16 27,36 45,58 80,97 176,216 130,391 -6,23 -8,41 -7,52l65 50 -49 76c-7,11 -16,22 -25,35 -9,11 -17,21 -26,30l-18 18 -24 7c-239,73 -334,314 -339,546 -2,112 17,221 51,309 30,77 68,134 111,155 28,14 65,6 109,-33 291,-261 470,-159 618,7 31,34 59,71 88,108 65,84 126,163 175,155l7 -1 9 0c51,-1 113,-13 174,-40 48,-22 94,-52 129,-93 51,-61 91,-68 132,-67 6,-24 17,-48 46,-71 38,-31 76,-38 110,-38 11,-28 29,-56 69,-79 47,-27 86,-23 126,-19 9,1 7,8 13,5 9,-5 21,-11 36,-19 12,-7 23,-13 33,-19l395 -236 -263 378c-32,46 -60,91 -81,131 -19,36 -32,67 -39,93l-20 75 -78 -1c-110,-2 -187,38 -229,89 -15,19 -25,39 -30,57 -3,15 -3,29 1,40 5,14 18,26 42,32 30,8 72,15 118,22 180,29 400,64 514,290 31,61 58,90 80,97 3,1 6,0 9,-1 8,-4 17,-13 27,-27 33,-49 49,-130 30,-218l-22 -102 104 -16c78,-12 158,-44 242,-88 88,-46 183,-107 285,-172l0 0 0 0c111,-71 231,-147 364,-217l-66 -64 126 33 16 -8 41 15 1 0 0 0 0 0 1 0 1 0 1 0 0 0 1 0 1 0 0 0 0 0 0 0 0 0 1 0 0 0 1 0 0 0 0 0 0 0 0 0 0 0 2 1 0 0 1 0 0 0c4,2 1,0 12,4 22,8 -3,-1 12,4l2 1 0 0 4 1 3 1 0 0 3 1 1 0 2 1 0 0 1 0 0 0 2 1 0 0 0 0 0 0 2 1 6 2 0 0 2 1 0 0 0 0 1 0 3 1 0 0 3 1 0 0 3 1 3 1 0 0 0 0 0 0 2 1 1 0 0 0 1 0 0 0 2 1 0 0 1 0 2 1 1 0 0 0 2 1 0 0 0 0 3 1 0 0 3 1 0 0 0 0 2 1 0 0 1 0 0 0 1 0 0 0 1 0 0 0 1 0 1 0 0 0 1 0 2 1 1 0 0 0 2 1 2 1 1 0 0 0 0 0 0 0 0 0 0 0 1 0 0 0 0 0 0 0 0 0 1 0 1 0 0 0 1 0 1 0 0 0 0 0 0 0 1 0 1 0 0 0 0 0 1 0 1 0 1 0 0 0 0 0 0 0 1 0 0 0 0 0 0 0 0 0c7,2 3,1 25,7 11,3 15,4 17,5l9 2c11,3 -6,-2 23,6l0 0c28,7 10,3 23,6l0 0 5 1 0 0 8 2 0 0 6 1 0 0 0 0 1 0 0 0 0 0 0 0 0 0 0 0 1 0 3 1 0 0 0 0 0 0 0 0 1 0 1 0 0 0 0 0 0 0 0 0 0 0 0 0 0 0 0 0 1 0 1 0 2 1 0 0 0 0 0 0 0 0 0 0 1 0 0 0 2 0 19 5 0 0 19 4 0 0c22,5 17,4 21,5 21,5 -20,-5 22,5l0 0 6 1 0 0 1 0 0 0 1 0 0 0 0 0 0 0 0 0 1 0 1 0 0 0 14 3 0 0 15 3 0 0 13 3 15 3 0 0c26,5 -15,-3 25,5l25 5 0 0 2 0 0 0 0 0 12 2 24 5 0 0 2 0 0 0 1 0 0 0 2 0 0 0 0 0 0 0 1 0 2 0 0 0 1 0 0 0 0 0 0 0 0 0 0 0 0 0 0 0 0 0 0 0 0 0 0 0 0 0 0 0 0 0 3 1 1 0 0 0 0 0 0 0 0 0 0 0 1 0 0 0 0 0 1 0 0 0 0 0 0 0 1 0 0 0 0 0 0 0 1 0 0 0 9 2 0 0 26 5c26,5 16,3 26,5l10 2 0 0 4 1 22 4 0 0c25,4 7,1 21,4l15 2 23 4 0 0c16,2 20,3 22,3l27 4c52,7 -34,-5 20,3l0 0 0 0 2 0 1 0 0 0 0 0 0 0 0 0 0 0 0 0 1 0 0 0 1 0 1 0 1 0 1 0 0 0 0 0 0 0 1 0 0 0 7 1 7 1 10 1 0 0 25 3 25 3 0 0 8 1c-1,0 7,1 41,5l0 0 0 0 0 0 1 0 0 0 1 0 0 0 0 0 1 0 0 0 0 0 0 0 0 0 1 0 0 0 0 0 0 0 1 0 0 0 0 0 0 0 1 0 1 0 0 0 0 0 0 0 1 0 2 0 0 0 0 0 0 0 1 0 0 0 0 0 2 0 0 0 0 0 0 0 1 0 0 0 0 0 3 0 0 0 11 1 23 3 24 2 12 1 0 0 12 1 0 0 0 0 0 0 4 0 0 0 0 0 0 0 0 0 0 0 0 0 15 1 3 0 0 0 4 0 14 1 0 0 12 1 12 1 0 0 19 1 0 0 18 1 0 0 13 1 0 0 13 1 0 0 17 1 0 0 17 1 20 1 0 0 19 1 15 1 0 0 15 1 0 0 14 1 0 0 14 1 0 0 13 0 0 0 13 0 0 0 0 0 1 0 0 0 1 0 1 0 1 0 0 0 0 0 0 0 0 0 1 0 0 0 0 0 0 0 0 0 1 0 0 0 0 0 1 0 0 0 0 0 0 0 2 0 0 0 0 0 4 0 0 0 0 0 0 0c11,0 19,1 22,1l17 0 6 0 14 0c11,0 23,0 30,0 9,0 16,0 22,0l0 0 4 0c9,0 17,0 24,0 8,0 17,0 25,0l0 0 11 0 0 0 11 0 17 0 8 0 11 0 0 0 0 0 3 0 0 0 0 0 0 0 0 0 0 0 0 0 0 0c5,0 12,0 18,-1l6 0 13 0 16 -1 0 0 16 -1 0 0 17 -1 0 0c16,-1 35,-2 56,-3 15,-1 33,-2 55,-4l0 0 16 -1c6,0 18,-2 35,-3 31,-3 27,-2 36,-3l0 0 4 0 2 0 0 0 0 0 0 0 3 0 0 0 0 0 0 0 1 0 0 0 0 0 0 0 0 0 0 0 0 0 0 0 1 0 2 0 1 0 0 0 15 -2 9 -1 0 0 14 -2c3,0 15,-2 34,-4 26,-3 30,-4 34,-4l0 0 6 -1 0 0c5,-1 1,0 18,-3l18 -3 0 0 10 -2 0 0c10,-2 -1,0 15,-2l0 0 16 -3 17 -3 0 0 0 0 2 0 0 0 0 0 1 0 0 0 0 0 2 0 0 0 0 0 1 0 0 0 0 0 2 0 0 0 0 0 0 0 0 0 0 0 0 0 1 0 0 0 0 0 0 0 0 0 0 0 0 0 1 0 2 0 0 0 0 0 1 0 0 0 1 0 2 0 0 0 0 0 2 0 0 0 6 -1 0 0c7,-1 0,0 19,-4 27,-5 -3,1 19,-3l6 -1 35 -7c19,-4 31,-7 35,-7l7 -1 0 0c2,-1 4,-1 18,-4l0 0c33,-8 -3,1 18,-4l0 0 2 -1 0 0c13,-3 24,-6 35,-9 16,-4 27,-7 35,-9l0 0 9 -3c11,-3 24,-7 38,-11 10,-3 23,-7 37,-11l0 0 8 -3 0 0 0 0 0 0 1 0 0 0 4 -1 0 0 0 0 1 0 0 0 1 0 0 0 1 0 1 0 1 0 1 0 0 0 10 -3 0 0 10 -3c18,-6 35,-12 51,-17 16,-6 32,-12 50,-19l0 0 9 -3c4,-1 15,-6 32,-13 16,-6 26,-11 32,-13l10 -4 0 0 1 0 1 0 1 0 0 0 1 0 0 0 0 0 0 0 0 0 0 0 1 0 0 0 0 0 1 0 0 0 1 0 3 -1 0 0 0 0 6 -3 0 0 8 -3 0 0 10 -5 8 -4 30 -14 3 1 52 -22 0 34 29 6c18,4 35,8 53,11 140,30 278,59 417,103 143,45 287,105 433,195 13,8 30,14 49,19 24,5 50,8 77,7l130 -4 -32 126c-15,60 -5,109 16,141 8,12 18,22 27,27 6,3 11,5 16,5 4,0 9,-4 15,-12 13,-19 29,-47 46,-78 71,-128 157,-285 364,-309 42,-5 64,-12 72,-19 -2,-5 -6,-11 -12,-18 -34,-40 -103,-72 -186,-66l-110 8 4 -110c0,-7 0,-14 0,-19 0,-4 0,-11 -1,-19 -7,-107 -53,-241 -166,-403 -99,-143 -248,-305 -467,-489l-266 -224 344 50c148,22 297,16 434,-9 149,-27 282,-76 381,-136l86 -52 51 87c27,46 62,69 92,74 9,2 18,1 26,-1 3,-1 5,-1 5,-2 1,-1 -2,1 -3,-3 -5,-20 -13,-44 -22,-70 -42,-119 -93,-263 11,-412 10,-14 17,-25 21,-32 -38,0 -88,23 -125,70l-50 63 -72 -35c-59,-29 -134,-56 -228,-79 -92,-22 -200,-41 -328,-56 -122,-14 -204,-45 -285,-135 -71,-78 -136,-197 -229,-393 -82,-172 -191,-322 -319,-451 -139,-140 -299,-255 -470,-345 -214,-112 -456,-159 -691,-161 -284,-2 -557,60 -758,150 -556,250 -915,164 -1290,75 -300,-72 -611,-146 -1052,-27 -40,11 -86,30 -137,55 -55,28 -115,63 -176,103l-34 23 -41 -9c-11,-2 -34,-1 -61,0 -77,3 -178,7 -306,-47 -105,-44 -176,-105 -232,-153 -28,-24 -51,-44 -58,-46 -11,-3 4,45 -41,187 -30,96 -46,207 -31,312 11,79 42,154 99,214l175 183 -252 -16 -3 0 31 13zm-510 -37c107,-58 226,-105 351,-135 -28,-58 -45,-119 -54,-182 -20,-136 0,-278 38,-399 90,-289 169,-354 289,-317 47,15 83,46 128,85 46,40 105,90 179,121 88,37 164,34 223,31 23,-1 44,-2 65,-1 57,-36 113,-68 166,-95 61,-30 120,-54 174,-69 490,-132 825,-52 1148,25 342,82 669,160 1163,-62 224,-101 527,-170 840,-167 264,2 538,55 781,183 188,99 366,226 520,381 143,144 265,313 357,505 86,180 142,286 196,345 43,47 90,64 161,72 136,16 253,36 352,60 78,19 145,40 203,64 73,-61 162,-90 234,-88 38,1 73,10 102,26 36,20 64,50 79,90 23,60 13,138 -49,227 -46,66 -13,158 14,233 11,32 22,62 29,91 16,69 -1,129 -39,174 -26,30 -60,52 -99,64 -35,10 -74,13 -115,6 -58,-10 -119,-39 -171,-92 -106,52 -233,94 -371,119 -68,12 -139,20 -212,23 125,122 221,235 294,340 123,177 180,332 197,462 107,17 197,70 250,132 27,32 46,67 54,104 10,44 6,88 -15,128 -33,64 -105,114 -228,129 -105,13 -165,120 -214,208 -19,34 -37,66 -58,96 -43,60 -100,90 -160,95 -44,4 -89,-7 -129,-30 -37,-21 -70,-52 -96,-91 -32,-49 -54,-112 -56,-184 -4,-1 -8,-2 -13,-3 -42,-9 -80,-24 -111,-43 -130,-81 -259,-134 -388,-175 -133,-42 -266,-70 -399,-99 -18,-4 -35,-7 -53,-11l-21 -5 -7 3 -1 0 0 0 -1 0 0 0 -1 1 0 0 0 0 -1 0 -1 0 -1 0 -1 0 0 0 -2 1 -4 2 -1 0 -5 2 -136 58 0 -5c-18,6 -36,13 -54,18l-10 3 0 0 -11 3 0 0 -1 0 0 0 -1 0 -1 0 0 0 -1 0 0 0 0 0 0 0 0 0 -1 0 -2 0 0 0 0 0 -2 1 -2 1 -8 3 -79 25 -1 -2 -3 1 -9 3 0 0c-17,5 -29,8 -37,10 -13,3 -26,7 -38,9l0 0 -2 1 0 0c-35,8 0,0 -19,5l0 0 -20 4 0 0 -7 2c-20,4 -33,7 -38,8l-38 7 -6 1c-35,7 -6,1 -20,4 -6,1 0,0 -20,4l0 0 -6 1 0 0 -3 1 -2 0 0 0 0 0 -2 0 0 0 0 0 -1 0 -1 0 0 0 0 0 0 0 0 0 0 0 0 0 -1 0 -2 0 0 0 0 0 0 0 0 0 -1 0 0 0 0 0 -1 0 0 0 0 0 0 0 0 0 -1 0 0 0 -1 0 0 0 0 0 0 0 0 0 -1 0 0 0 0 0 -1 0 0 0 -1 0 0 0 0 0 0 0 0 0 -1 0 0 0 0 0 -19 3 0 0 0 0 -16 3 0 0c-4,1 1,0 -7,1l-59 10 0 -1 0 0 -6 1 0 0c-27,4 -34,5 -36,5 -4,1 -16,2 -37,4l-14 2 0 0 -11 1 0 0 -3 0 0 0 -7 1 -1 0 -1 0 0 0 0 0 -4 0 -1 0 -1 0 0 0 -2 0 0 0 0 0 0 0 0 0 0 0 0 0 0 0 0 0 0 0 0 0 0 0 0 0 -1 0 0 0 0 0 0 0 -3 0 0 0 0 0 0 0 0 0 0 0 -2 0 0 0 -4 0 0 0 -104 11 0 -2 -1 0 1 3 -156 6c-5,0 -12,0 -21,1l-5 0 -2 1 -15 0 0 0 0 0 0 0 0 0 0 0 0 0 0 0 -3 0 0 0 -3 0 2 4 -181 -3c-9,0 -17,0 -24,0l-20 0 0 0 0 0 -2 0 0 0 0 0 -3 0 0 0 0 0 -3 0 -2 0 0 0 0 0 -1 0 0 0 0 0 0 0 -2 0 0 0 0 0 0 0 0 0 0 0 -2 0 0 0 0 0 -2 0 0 0 0 0 0 0 0 0 0 0 -6 0 0 0 -7 0 0 0 -14 0 0 0 -14 -1 0 0 -14 -1 0 0 -15 -1 0 0 -15 -1 -20 -1 -1 0 -20 -1 -17 -1 0 0 -17 -1 0 0 -13 -1 0 0 -10 -1 0 0 -22 -2 0 0 -19 -1 0 0 -26 -2 -19 -2 0 0 -15 -1 0 0 -2 0 0 0 0 0 -1 0 0 0 0 0 -1 0 -92 -6 0 -3 -3 0 0 0 0 0 -1 0 0 0 0 0 0 0 0 0 0 0 0 0 0 0 0 0 0 0 0 0 0 0 0 0 0 0 0 0 0 0 -1 0 0 0 0 0 0 0 0 0 -1 0 0 0 -1 0 0 0 0 0 0 0 0 0 0 0 -1 0 0 0 -1 0 0 0 -1 0 0 0 0 0 0 0 0 0 0 0 0 0 0 0 0 0 0 0 -1 0 -1 0 0 0 0 0 0 0 0 0 0 0 0 0 0 0 -1 0 0 0 -1 0 0 0 0 0 0 0 0 0 0 0 0 0c-74,-8 21,2 -28,-4l0 0 -1 0 -11 -1 -11 -1 0 0 -26 -3 -26 -3 0 0 -10 -1 -7 -1 -8 -1 0 0 -1 0 0 0 0 0 0 0 -1 0 0 0 0 0 -1 0 0 0 0 0 0 0 0 0 0 0 0 0c2,0 3,0 1,0l0 0 0 0 0 0 -1 0 0 0 1 0 -1 0 0 0 0 0 0 0 0 0 0 0 0 0 -1 0 0 0 -1 0 0 0 0 0 -1 0 2 0 0 0 -2 0 0 0 0 0c-18,-3 -8,-1 0,0l0 0 -25 -4 -25 -4 -18 -3 -6 -1 0 0 -18 -3 -23 -3 0 0c-23,-4 -9,-1 -19,-3l0 0 -22 -4 -5 -1 0 0 -10 -2c-22,-4 -21,-4 -24,-4l2 4 -46 -10 15 15 -319 -84c-23,-6 -9,-2 -20,-5l0 0c-13,-3 3,1 -24,-6l0 0c-33,-9 -16,-4 -27,-7 -5,-1 -2,-1 -27,-7l0 0 0 0 0 0 -1 0 0 0 0 0 0 0 0 0 -1 0 0 0 0 0 0 0 0 0 -2 -1 0 0 -1 0 0 0 0 0 -1 0 0 0 0 0 0 0 0 0 0 0 -1 0 0 0 -1 0 0 0 0 0 0 0 -1 0 0 0 0 0 0 0 0 0 0 0 0 0 0 0 0 0 0 0 0 0 0 0 0 0 0 0 -1 0 0 0 -1 0 -2 -1 -3 -1 0 0 -1 0 -2 -1 -1 0 0 0 -2 -1 -2 0 0 0 -1 0 0 0 -2 -1 -1 0 -1 0 0 0 -2 -1 0 0 0 0 -3 -1 0 0 -3 -1 0 0 0 0 -3 -1 0 0 -1 0 -2 -1 -1 0 0 0 -2 -1 0 0 -1 0 0 0 -1 0 -2 -1 0 0 -1 0 0 0 -3 -1 -3 -1 -2 -1 0 0 0 0 0 0 0 0 -2 0 -3 -1 0 0 0 0 -1 0 -2 -1 0 0 -6 -2 -2 -1 -1 0 -1 0 0 0 -2 -1 0 0 -1 0 0 0 -3 -1 0 0 0 0 -3 -1 -1 0 -3 -1 -4 -1 0 0 -1 0c-125,66 -240,139 -348,208l0 0 0 0c-105,67 -202,129 -300,180 -70,37 -140,67 -209,87 3,106 -25,205 -72,273 -28,41 -64,74 -105,94 -46,22 -97,28 -150,13 -72,-21 -143,-82 -201,-198 -68,-135 -233,-162 -368,-183 -49,-8 -95,-15 -139,-27 -93,-26 -151,-85 -176,-159 -16,-47 -18,-98 -6,-149l0 -1c-25,16 -51,29 -77,41 -82,37 -169,55 -242,57 -163,26 -259,-99 -360,-230 -25,-33 -51,-67 -78,-96 -78,-87 -174,-139 -339,8 -115,103 -228,114 -330,63 -89,-45 -161,-140 -207,-262 -42,-110 -66,-245 -63,-383 6,-289 125,-592 422,-713 -1,-6 -3,-13 -3,-19 -5,-37 -2,-80 11,-131 21,-77 -41,-153 -92,-215 -21,-26 -41,-50 -58,-76 -33,-51 -41,-103 -30,-152 9,-42 31,-78 63,-107 28,-25 65,-44 107,-54 47,-11 100,-11 155,5 92,-98 215,-194 358,-271l-32 0zm2874 2410l0 0m707 152l0 0 0 0 0 0 0 0zm2 0l1 0 0 0 -1 0 0 0zm1 0l0 0 0 0 0 0 0 0zm129 -183l0 0c9,1 6,1 0,0zm20 202l0 0m1156 -220l0 0z"/>
    <path class="fil2" d="M7479 5574c-356,43 -674,252 -838,453 -156,-90 -312,22 -239,135 59,92 206,206 162,370 -21,78 -8,127 21,150 -13,20 -26,36 -39,50 -688,211 -387,1518 27,1146 467,-419 554,344 833,293 115,-1 278,-52 377,-169 50,-59 77,-11 132,-42 26,-14 9,-64 32,-83 38,-30 97,-7 117,-19 21,-13 10,-67 50,-90 37,-22 93,10 134,-11 27,-14 52,-28 75,-42 -67,97 -116,186 -135,256 -360,-6 -470,351 -244,413 163,45 451,26 569,261 163,324 391,70 331,-214 179,-28 359,-143 565,-275 120,-77 250,-159 394,-232l3 1 0 0 1 0 1 0 0 0 1 0 1 0 0 0 0 0 1 0 1 0 0 0 4 1 2 1c8,3 17,6 25,9l2 1 4 1 3 1 0 0 3 1 0 0 3 1 1 0 2 1 1 0 2 1 6 2 2 1 1 0 3 1 0 0 3 1 0 0 3 1 3 1 1 0 2 1 1 0 2 1 2 1 1 0 2 1 1 0 3 1 0 0 3 1 0 0 3 1 0 0 3 1 1 0 2 1 1 0 2 1 2 1 1 0 2 1 1 0 3 1 2 1 1 0 1 0 0 0 1 0 1 0 0 0 1 0 0 0 1 0 0 0 1 0 0 0 0 0 1 0 0 0 1 0 0 0 1 0 0 0 0 0 1 0 0 0 1 0 0 0 1 0 0 0 0 0 1 0 0 0c18,5 36,10 54,14l0 0c16,4 31,8 47,12l5 1c5,1 11,3 16,4l0 0 0 0 1 0 0 0 1 0 0 0 1 0 0 0 0 0 1 0 0 0 1 0 0 0 1 0 0 0 0 0 1 0 0 0 1 0 1 0 0 0 1 0 0 0 0 0 1 0 0 0 1 0 0 0 0 0 1 0 0 0c13,3 25,6 38,9l0 0c15,3 29,7 44,10l6 1 0 0 1 0 0 0 1 0 0 0 0 0 1 0 0 0 1 0c10,2 20,4 30,7l0 0 14 3 15 3c17,4 34,7 52,11l2 0 0 0c13,3 25,5 38,7l0 0 2 0 1 0 0 0 2 0 1 0 0 0 1 0 0 0 0 0 0 0 0 0 1 0 0 0 0 0 0 0 0 0 0 0 1 0 0 0 1 0 0 0 1 0 0 0 0 0 1 0 0 0 1 0 0 0 1 0 0 0 0 0 1 0 0 0 1 0 1 0 1 0 1 0 1 0 9 2c18,3 35,6 53,10 5,1 10,2 15,2 14,2 29,5 43,7l15 2c15,2 31,5 46,7l0 0c16,2 32,5 49,7l0 0 2 0 1 0 0 0 1 0 0 0 0 0 0 0 0 0 1 0 0 0 1 0 0 0 0 0 1 0 0 0 0 0 1 0 8 1c6,1 11,2 17,2 17,2 34,4 51,7 7,1 14,2 22,3 9,1 19,2 28,3l0 0 0 0 0 0 1 0 0 0 1 0 0 0 0 0 1 0 0 0 1 0 0 0 0 0 0 0 0 0 1 0 0 0 1 0 0 0 0 0 1 0 0 0 1 0 0 0 0 0 0 0 0 0 1 0 0 0 1 0 0 0 0 0 0 0 0 0 0 0 0 0 0 0 0 0 0 0 0 0 0 0 0 0 0 0 0 0 0 0 0 0 0 0 0 0c5,1 10,1 15,2 16,2 32,3 49,5 8,1 16,2 24,2l3 0 0 0 0 0 0 0 0 0 0 0 0 0 0 0 0 0c13,1 26,2 38,3l0 0c8,1 17,1 25,2 12,1 25,2 37,3 9,1 17,1 26,2 12,1 23,1 35,2 13,1 26,1 39,2 10,0 20,1 30,1 10,0 19,1 29,1 9,0 18,1 27,1l0 0 1 0 0 0 0 0 1 0 0 0 0 0 1 0 0 0 0 0 0 0 0 0 1 0 0 0 0 0 1 0 0 0 0 0 1 0 0 0 1 0 0 0 0 0 1 0 0 0 1 0 0 0 3 0 0 0 1 0 1 0 0 0c16,0 31,1 47,1l0 0 14 0c10,0 21,0 31,0 9,0 18,0 27,0 17,0 34,0 50,0 7,0 15,0 22,0 11,0 22,0 33,-1l5 0 0 0 0 0 0 0 0 0 0 0 0 0 0 0 0 0c13,0 27,-1 40,-1l0 0c11,0 22,-1 33,-1l18 -1c38,-2 76,-4 114,-7l16 -1c24,-2 49,-4 73,-7l4 0 0 0 1 0 0 0 0 0 1 0 0 0 1 0 0 0 0 0 0 0 0 0 1 0 0 0 0 0 0 0 0 0 1 0 0 0 0 0 0 0 0 0 1 0 0 0 0 0 0 0 0 0 1 0 0 0 1 0 0 0 0 0 1 0 0 0 1 0 1 0 0 0 3 0 0 0c7,-1 14,-2 22,-2l14 -2c24,-3 47,-6 71,-9l6 -1c13,-2 26,-4 38,-6l10 -2c11,-2 21,-3 32,-5l0 0 19 -3 0 0 0 0 1 0 2 0 0 0 0 0 1 0 2 0 0 0 0 0 1 0 0 0 1 0 0 0 1 0 0 0 0 0 1 0 0 0 1 0 0 0 1 0 0 0 2 0 1 0 0 0 3 -1 7 -1c13,-2 26,-5 39,-7l6 -1c24,-5 49,-10 73,-15l7 -2c13,-3 26,-6 38,-9l2 -1c24,-6 49,-12 73,-19l9 -3c27,-7 53,-15 79,-23l0 0 8 -3 0 0 1 0 4 -1 0 0 1 0 0 0 0 0 1 0 1 0 0 0 1 0 1 0 0 0 1 0 11 -3 10 -3c36,-12 71,-24 106,-38l9 -4c23,-9 45,-18 67,-27l0 0c4,-1 7,-3 11,-5l1 0 0 0 1 0 1 0 0 0 1 0 1 0 0 0 1 0 0 0 1 0 1 0 0 0c6,-3 12,-5 17,-8l10 -5 8 -4c35,8 70,15 105,23 273,58 543,115 819,286 46,28 110,42 181,40 -59,235 152,381 251,242 76,-107 138,-321 341,-346 310,-37 123,-319 -144,-300 1,-15 0,-31 -1,-47 -15,-225 -172,-544 -667,-961 335,49 673,-31 881,-158 110,190 335,141 302,-3 -25,-106 -124,-264 -27,-403 147,-212 -127,-252 -263,-80 -125,-62 -315,-113 -588,-144 -194,-22 -257,-96 -436,-472 -180,-379 -488,-660 -833,-841 -502,-263 -1145,-188 -1535,-13 -981,441 -1325,-227 -2326,43 -97,26 -217,88 -341,170 -71,-15 -188,26 -350,-41 -285,-120 -317,-421 -464,49 -61,196 -71,454 91,624 -4,0 -8,-1 -12,-1l12 13z"/>
    <ellipse class="fil3" transform="matrix(0.869116 -0.0100931 0.0163375 1.40681 10457.3 7669.39)" rx="5353" ry="750"/>
    <path class="fil4" d="M7482 5674c-149,19 -291,70 -416,138 -147,79 -268,180 -348,278l-53 65 -73 -42c-33,-19 -63,-23 -87,-17 -9,2 -16,6 -21,10 -1,1 -2,0 -2,0 0,1 1,0 3,2 10,16 27,36 45,58 80,97 176,216 130,391 -6,23 -8,41 -7,52l65 50 -49 76c-7,11 -16,22 -25,35 -9,11 -17,21 -26,30l-18 18 -24 7c-239,73 -334,314 -339,546 -2,112 17,221 51,309 30,77 68,134 111,155 28,14 65,6 109,-33 291,-261 470,-159 618,7 31,34 59,71 88,108 65,84 126,163 175,155l7 -1 9 0c51,-1 113,-13 174,-40 48,-22 94,-52 129,-93 51,-61 91,-68 132,-67 6,-24 17,-48 46,-71 38,-31 76,-38 110,-38 11,-28 29,-56 69,-79 47,-27 86,-23 126,-19 9,1 7,8 13,5 9,-5 21,-11 36,-19 12,-7 23,-13 33,-19l395 -236 -263 378c-32,46 -60,91 -81,131 -19,36 -32,67 -39,93l-20 75 -78 -1c-110,-2 -187,38 -229,89 -15,19 -25,39 -30,57 -3,15 -3,29 1,40 5,14 18,26 42,32 30,8 72,15 118,22 180,29 400,64 514,290 31,61 58,90 80,97 3,1 6,0 9,-1 8,-4 17,-13 27,-27 33,-49 49,-130 30,-218l-22 -102 104 -16c78,-12 158,-44 242,-88 88,-46 183,-107 285,-172l0 0 0 0c111,-71 231,-147 364,-217l-66 -64 126 33 16 -8 41 15 1 0 0 0 0 0 1 0 1 0 1 0 0 0 1 0 1 0 0 0 0 0 0 0 0 0 1 0 0 0 1 0 0 0 0 0 0 0 0 0 0 0 2 1 0 0 1 0 0 0c4,2 1,0 12,4 22,8 -3,-1 12,4l2 1 0 0 4 1 3 1 0 0 3 1 1 0 2 1 0 0 1 0 0 0 2 1 0 0 0 0 0 0 2 1 6 2 0 0 2 1 0 0 0 0 1 0 3 1 0 0 3 1 0 0 3 1 3 1 0 0 0 0 0 0 2 1 1 0 0 0 1 0 0 0 2 1 0 0 1 0 2 1 1 0 0 0 2 1 0 0 0 0 3 1 0 0 3 1 0 0 0 0 2 1 0 0 1 0 0 0 1 0 0 0 1 0 0 0 1 0 1 0 0 0 1 0 2 1 1 0 0 0 2 1 2 1 1 0 0 0 0 0 0 0 0 0 0 0 1 0 0 0 0 0 0 0 0 0 1 0 1 0 0 0 1 0 1 0 0 0 0 0 0 0 1 0 1 0 0 0 0 0 1 0 1 0 1 0 0 0 0 0 0 0 1 0 0 0 0 0 0 0 0 0c7,2 3,1 25,7 11,3 15,4 17,5l9 2c11,3 -6,-2 23,6l0 0c28,7 10,3 23,6l0 0 5 1 0 0 8 2 0 0 6 1 0 0 0 0 1 0 0 0 0 0 0 0 0 0 0 0 1 0 3 1 0 0 0 0 0 0 0 0 1 0 1 0 0 0 0 0 0 0 0 0 0 0 0 0 0 0 0 0 1 0 1 0 2 1 0 0 0 0 0 0 0 0 0 0 1 0 0 0 2 0 19 5 0 0 19 4 0 0c22,5 17,4 21,5 21,5 -20,-5 22,5l0 0 6 1 0 0 1 0 0 0 1 0 0 0 0 0 0 0 0 0 1 0 1 0 0 0 14 3 0 0 15 3 0 0 13 3 15 3 0 0c26,5 -15,-3 25,5l25 5 0 0 2 0 0 0 0 0 12 2 24 5 0 0 2 0 0 0 1 0 0 0 2 0 0 0 0 0 0 0 1 0 2 0 0 0 1 0 0 0 0 0 0 0 0 0 0 0 0 0 0 0 0 0 0 0 0 0 0 0 0 0 0 0 0 0 3 1 1 0 0 0 0 0 0 0 0 0 0 0 1 0 0 0 0 0 1 0 0 0 1 0 0 0 1 0 0 0 0 0 0 0 1 0 0 0 9 2 0 0 26 5c26,5 16,3 26,5l10 2 0 0 4 1 22 4 0 0c25,4 7,1 21,4l15 2 23 4 0 0c16,2 20,3 22,3l27 4c52,7 -34,-5 20,3l0 0 0 0 2 0 1 0 0 0 0 0 0 0 0 0 0 0 0 0 1 0 0 0 1 0 1 0 1 0 1 0 0 0 0 0 0 0 1 0 0 0 7 1 7 1 10 1 0 0 25 3 25 3 0 0 8 1c-1,0 7,1 41,5l0 0 0 0 0 0 1 0 0 0 1 0 0 0 0 0 1 0 0 0 0 0 0 0 0 0 1 0 0 0 0 0 0 0 1 0 0 0 0 0 0 0 1 0 1 0 0 0 0 0 0 0 1 0 2 0 0 0 0 0 0 0 1 0 0 0 0 0 2 0 0 0 0 0 0 0 1 0 0 0 0 0 3 0 0 0 11 1 23 3 24 2 12 1 0 0 12 1 0 0 0 0 0 0 4 0 0 0 0 0 0 0 0 0 0 0 0 0 15 1 3 0 0 0 4 0 14 1 0 0 12 1 12 1 0 0 19 1 0 0 18 1 0 0 13 1 0 0 13 1 0 0 17 1 0 0 17 1 20 1 0 0 19 1 15 1 0 0 15 1 0 0 14 1 0 0 14 1 0 0 13 0 0 0 13 0 0 0 0 0 1 0 0 0 1 0 1 0 1 0 0 0 0 0 0 0 0 0 1 0 0 0 0 0 0 0 0 0 1 0 0 0 0 0 1 0 0 0 0 0 0 0 2 0 0 0 0 0 4 0 0 0 0 0 0 0c11,0 19,1 22,1l17 0 6 0 14 0c11,0 23,0 30,0 9,0 16,0 22,0l0 0 4 0c9,0 17,0 24,0 8,0 17,0 25,0l0 0 11 0 0 0 11 0 17 0 8 0 11 0 0 0 0 0 3 0 0 0 0 0 0 0 0 0 0 0 0 0 0 0c5,0 12,0 18,-1l6 0 13 0 16 -1 0 0 16 -1 0 0 17 -1 0 0c16,-1 35,-2 56,-3 15,-1 33,-2 55,-4l0 0 16 -1c6,0 18,-2 35,-3 31,-3 27,-2 36,-3l0 0 4 0 2 0 0 0 0 0 0 0 3 0 0 0 0 0 0 0 1 0 0 0 0 0 0 0 0 0 0 0 0 0 0 0 1 0 2 0 1 0 0 0 15 -2 9 -1 0 0 14 -2c3,0 15,-2 34,-4 26,-3 30,-4 34,-4l0 0 6 -1 0 0c5,-1 1,0 18,-3l18 -3 0 0 10 -2 0 0c10,-2 -1,0 15,-2l0 0 16 -3 17 -3 0 0 0 0 2 0 0 0 0 0 1 0 0 0 0 0 2 0 0 0 0 0 1 0 0 0 0 0 2 0 0 0 0 0 0 0 0 0 0 0 0 0 1 0 0 0 0 0 0 0 0 0 0 0 0 0 1 0 2 0 0 0 0 0 1 0 0 0 1 0 2 0 0 0 0 0 2 0 0 0 6 -1 0 0c7,-1 0,0 19,-4 27,-5 -3,1 19,-3l6 -1 35 -7c19,-4 31,-7 35,-7l7 -1 0 0c2,-1 4,-1 18,-4l0 0c33,-8 -3,1 18,-4l0 0 2 -1 0 0c13,-3 24,-6 35,-9 16,-4 27,-7 35,-9l0 0 9 -3c11,-3 24,-7 38,-11 10,-3 23,-7 37,-11l0 0 8 -3 0 0 0 0 0 0 1 0 0 0 4 -1 0 0 0 0 1 0 0 0 1 0 0 0 1 0 1 0 1 0 1 0 0 0 10 -3 0 0 10 -3c18,-6 35,-12 51,-17 16,-6 32,-12 50,-19l0 0 9 -3c4,-1 15,-6 32,-13 16,-6 26,-11 32,-13l10 -4 0 0 1 0 1 0 1 0 0 0 1 0 0 0 0 0 0 0 0 0 0 0 1 0 0 0 0 0 1 0 0 0 1 0 3 -1 0 0 0 0 6 -3 0 0 8 -3 0 0 10 -5 8 -4 30 -14 3 1 52 -22 0 34 29 6c18,4 35,8 53,11 140,30 278,59 417,103 143,45 287,105 433,195 13,8 30,14 49,19 24,5 50,8 77,7l130 -4 -32 126c-15,60 -5,109 16,141 8,12 18,22 27,27 6,3 11,5 16,5 4,0 9,-4 15,-12 13,-19 29,-47 46,-78 71,-128 157,-285 364,-309 42,-5 64,-12 72,-19 -2,-5 -6,-11 -12,-18 -34,-40 -103,-72 -186,-66l-110 8 4 -110c0,-7 0,-14 0,-19 0,-4 0,-11 -1,-19 -7,-107 -53,-241 -166,-403 -99,-143 -248,-305 -467,-489l-266 -224 344 50c148,22 297,16 434,-9 149,-27 282,-76 381,-136l86 -52 51 87c27,46 62,69 92,74 9,2 18,1 26,-1 3,-1 5,-1 5,-2 1,-1 -2,1 -3,-3 -5,-20 -13,-44 -22,-70 -42,-119 -93,-263 11,-412 10,-14 17,-25 21,-32 -38,0 -88,23 -125,70l-50 63 -72 -35c-59,-29 -134,-56 -228,-79 -92,-22 -200,-41 -327,-56 -122,-14 -204,-45 -285,-135 -71,-78 -136,-197 -229,-393 -82,-172 -191,-322 -319,-451 -139,-140 -299,-255 -470,-345 -214,-112 -456,-159 -691,-161 -284,-2 -557,60 -758,150 -556,250 -915,164 -1290,75 -300,-72 -611,-146 -1052,-27 -40,11 -86,30 -137,55 -55,28 -115,63 -176,103l-34 23 -41 -9c-11,-2 -34,-1 -61,0 -77,3 -178,7 -306,-47 -105,-44 -176,-105 -232,-153 -28,-24 -51,-44 -58,-46 -11,-3 4,45 -41,187 -30,96 -46,207 -31,312 11,79 42,154 99,214l175 183 -252 -16 -3 0 29 13zm-510 -37c107,-58 226,-105 351,-135 -28,-58 -45,-119 -54,-182 -20,-136 0,-278 38,-399 90,-289 169,-354 289,-317 47,15 83,46 128,85 46,40 105,90 179,121 88,37 164,34 223,31 23,-1 44,-2 65,-1 57,-36 113,-68 166,-95 61,-30 120,-54 174,-69 490,-132 825,-52 1148,25 342,82 669,160 1163,-62 224,-101 527,-170 840,-167 264,2 538,55 781,183 188,99 366,226 520,381 143,144 265,313 357,505 86,180 142,286 196,345 43,47 90,64 161,72 136,16 253,36 352,60 78,19 145,40 203,64 73,-61 162,-90 234,-88 38,1 73,10 102,26 36,20 64,50 79,90 23,60 13,138 -49,227 -46,66 -13,158 14,233 11,32 22,62 29,91 16,69 -1,129 -39,174 -26,30 -60,52 -99,64 -35,10 -74,13 -115,6 -58,-10 -119,-39 -171,-92 -106,52 -233,94 -371,119 -68,12 -139,20 -212,23 125,122 221,235 294,340 123,177 180,332 197,462 107,17 197,70 250,132 27,32 46,67 54,104 10,44 6,88 -15,128 -33,64 -105,114 -228,129 -105,13 -165,120 -214,208 -19,34 -37,66 -58,96 -43,60 -100,90 -160,95 -44,4 -89,-7 -129,-30 -37,-21 -70,-52 -96,-91 -32,-49 -54,-112 -56,-184 -4,-1 -8,-2 -13,-3 -42,-9 -80,-24 -111,-43 -130,-81 -259,-134 -388,-175 -133,-42 -266,-70 -399,-99 -18,-4 -35,-7 -53,-11l-21 -5 -7 3 -1 0 0 0 -1 0 0 0 -1 1 0 0 0 0 -1 0 -1 0 -1 0 -1 0 0 0 -2 1 -4 2 -1 0 -5 2 -136 58 0 -5c-18,6 -36,13 -54,18l-10 3 0 0 -11 3 0 0 -1 0 0 0 -1 0 -1 0 0 0 -1 0 0 0 0 0 0 0 0 0 -1 0 -2 0 0 0 0 0 -2 1 -2 1 -8 3 -79 25 -1 -2 -3 1 -9 3 0 0c-17,5 -29,8 -37,10 -13,3 -26,7 -38,9l0 0 -2 1 0 0c-35,8 0,0 -19,5l0 0 -20 4 0 0 -7 2c-20,4 -33,7 -38,8l-38 7 -6 1c-35,7 -6,1 -20,4 -6,1 0,0 -20,4l0 0 -6 1 0 0 -3 1 -2 0 0 0 0 0 -2 0 0 0 0 0 -1 0 -1 0 0 0 0 0 0 0 0 0 0 0 0 0 -1 0 -2 0 0 0 0 0 0 0 0 0 -1 0 0 0 0 0 -1 0 0 0 0 0 0 0 0 0 -1 0 0 0 -1 0 0 0 0 0 0 0 0 0 -1 0 0 0 0 0 -1 0 0 0 -1 0 0 0 0 0 0 0 0 0 -1 0 0 0 0 0 -19 3 0 0 0 0 -16 3 0 0c-4,1 1,0 -7,1l-59 10 0 -1 0 0 -6 1 0 0c-27,4 -34,5 -36,5 -4,1 -16,2 -37,4l-14 2 0 0 -11 1 0 0 -3 0 0 0 -7 1 -1 0 -1 0 0 0 0 0 -4 0 -1 0 -1 0 0 0 -2 0 0 0 0 0 0 0 0 0 0 0 0 0 0 0 0 0 0 0 0 0 0 0 0 0 -1 0 0 0 0 0 0 0 -3 0 0 0 0 0 0 0 0 0 0 0 -2 0 0 0 -4 0 0 0 -104 11 0 -2 -1 0 1 3 -156 6c-5,0 -12,0 -21,1l-5 0 -2 1 -15 0 0 0 0 0 0 0 0 0 0 0 0 0 0 0 -3 0 0 0 -3 0 2 4 -181 -3c-9,0 -17,0 -24,0l-20 0 0 0 0 0 -2 0 0 0 0 0 -3 0 0 0 0 0 -3 0 -2 0 0 0 0 0 -1 0 0 0 0 0 0 0 -2 0 0 0 0 0 0 0 0 0 0 0 -2 0 0 0 0 0 -2 0 0 0 0 0 0 0 0 0 0 0 -6 0 0 0 -7 0 0 0 -14 0 0 0 -14 -1 0 0 -14 -1 0 0 -15 -1 0 0 -15 -1 -20 -1 -1 0 -20 -1 -17 -1 0 0 -17 -1 0 0 -13 -1 0 0 -10 -1 0 0 -22 -2 0 0 -19 -1 0 0 -26 -2 -19 -2 0 0 -15 -1 0 0 -2 0 0 0 0 0 -1 0 0 0 0 0 -1 0 -92 -6 0 -3 -3 0 0 0 0 0 -1 0 0 0 0 0 0 0 0 0 0 0 0 0 0 0 0 0 0 0 0 0 0 0 0 0 0 0 0 0 0 0 -1 0 0 0 0 0 0 0 0 0 -1 0 0 0 -1 0 0 0 0 0 0 0 0 0 0 0 -1 0 0 0 -1 0 0 0 0 0 0 0 0 0 0 0 0 0 0 0 0 0 0 0 0 0 0 0 -1 0 -1 0 0 0 0 0 0 0 0 0 0 0 0 0 0 0 -1 0 0 0 -1 0 0 0 0 0 0 0 0 0 0 0 0 0c-74,-8 21,2 -28,-4l0 0 -1 0 -11 -1 -11 -1 0 0 -26 -3 -26 -3 0 0 -10 -1 -7 -1 -8 -1 0 0 -1 0 0 0 0 0 0 0 -1 0 0 0 0 0 -1 0 0 0 0 0 0 0 0 0 0 0 0 0c2,0 3,0 1,0l0 0 0 0 0 0 -1 0 0 0 1 0 -1 0 0 0 0 0 0 0 0 0 0 0 0 0 -1 0 0 0 -1 0 0 0 0 0 -1 0 2 0 0 0 -2 0 0 0 0 0c-18,-3 -8,-1 0,0l0 0 -25 -4 -25 -4 -18 -3 -6 -1 0 0 -18 -3 -23 -3 0 0c-23,-4 -9,-1 -19,-3l0 0 -22 -4 -5 -1 0 0 -10 -2c-22,-4 -21,-4 -24,-4l2 4 -46 -10 15 15 -319 -84c-23,-6 -9,-2 -20,-5l0 0c-13,-3 3,1 -24,-6l0 0c-33,-9 -16,-4 -27,-7 -5,-1 -2,-1 -27,-7l0 0 0 0 0 0 -1 0 0 0 0 0 0 0 0 0 -1 0 0 0 0 0 0 0 0 0 -2 -1 0 0 -1 0 0 0 0 0 -1 0 0 0 0 0 0 0 0 0 0 0 -1 0 0 0 -1 0 0 0 0 0 0 0 -1 0 0 0 0 0 0 0 0 0 0 0 0 0 0 0 -1 0 0 0 0 0 0 0 0 0 0 0 -1 0 0 0 -1 0 -2 -1 -3 -1 0 0 -1 0 -2 -1 -1 0 0 0 -2 -1 -2 0 0 0 -1 0 0 0 -2 -1 -1 0 -1 0 0 0 -2 -1 0 0 0 0 -3 -1 0 0 -3 -1 0 0 0 0 -3 -1 0 0 -1 0 -2 -1 -1 0 0 0 -2 -1 0 0 -1 0 0 0 -1 0 -2 -1 0 0 -1 0 0 0 -3 -1 -3 -1 -2 -1 0 0 0 0 0 0 0 0 -2 0 -3 -1 0 0 0 0 -1 0 -2 -1 0 0 -6 -2 -2 -1 -1 0 -1 0 0 0 -2 -1 0 0 -1 0 0 0 -3 -1 0 0 0 0 -3 -1 -1 0 -3 -1 -4 -1 0 0 -1 0c-125,66 -240,139 -348,208l0 0 0 0c-105,67 -202,129 -300,180 -71,37 -140,67 -209,87 3,106 -25,205 -72,273 -28,41 -64,74 -105,94 -46,22 -97,28 -150,13 -72,-21 -143,-82 -201,-198 -68,-135 -233,-162 -368,-183 -49,-8 -95,-15 -139,-27 -93,-26 -151,-85 -176,-159 -16,-47 -18,-98 -6,-149l0 -1c-25,16 -51,29 -77,41 -82,37 -169,55 -242,57 -163,26 -259,-99 -360,-230 -25,-33 -51,-67 -78,-96 -78,-87 -174,-139 -339,8 -115,103 -228,114 -330,63 -89,-45 -161,-140 -207,-262 -42,-110 -66,-245 -63,-383 6,-289 125,-592 422,-713 -1,-6 -3,-13 -3,-19 -5,-37 -2,-80 11,-131 21,-77 -41,-153 -92,-215 -21,-26 -41,-50 -58,-76 -33,-51 -41,-103 -30,-152 9,-42 31,-78 63,-107 28,-25 65,-44 107,-54 47,-11 100,-11 155,5 92,-98 215,-194 358,-271l-32 0zm2874 2410l0 0m707 152l0 0 0 0 0 0 0 0zm2 0l1 0 0 0 -1 0 0 0zm1 0l0 0 0 0 0 0 0 0zm129 -183l0 0c9,1 6,1 0,0zm20 202l0 0m1156 -220l0 0z"/>
    <path class="fil5" d="M7480 5578c-958,115 -1649,1441 243,543 104,-49 300,-518 -243,-543z"/>
    <path class="fil6" d="M7685 5566l-30 124c-327,-143 -331,-489 -254,-736 147,-470 178,-169 464,-49 320,134 466,-160 423,405 -15,198 -611,377 -603,255l0 1z"/>
    <path class="fil7" d="M6402 6166c59,92 206,206 162,370 -67,251 210,193 277,-20 19,-60 21,-133 -7,-214 -156,-464 -539,-301 -432,-136z"/>
    <path class="fil8" d="M10334 7633l-1171 -700c-200,78 -1057,969 -929,1126 547,675 901,132 1568,-195 30,-15 665,-357 532,-231z"/>
    <path class="fil8" d="M7242 7832l-938 -656c45,-525 207,-241 342,-617 18,-51 46,-79 81,-97 62,-33 130,-19 161,-69 26,-41 -12,-92 45,-148 40,-39 92,34 130,-7 21,-22 7,-82 21,-94 20,-17 72,2 93,-17 132,-115 259,-301 305,-439 87,-262 728,-819 1075,-912 1001,-270 1345,398 2326,-43 390,-175 1033,-250 1535,13 345,181 653,463 833,841 179,376 242,450 436,472 1472,168 564,918 -309,787 -326,1452 -2255,1458 -3450,1123 -396,-111 -873,-461 -1317,-385 -149,26 -220,104 -362,176 -41,21 -96,-11 -134,11 -40,23 -29,77 -50,90 -20,12 -79,-12 -117,19 -23,19 -6,68 -32,83 -55,31 -82,-17 -132,42 -117,138 -322,183 -433,165 -120,-19 -54,-282 -108,-339l-1 1z"/>
    <path class="fil9" d="M12903 5101c139,139 258,301 347,487 179,376 242,450 436,472 1472,168 564,918 -309,787 -4,18 -8,35 -13,53 -161,-138 -286,-288 -286,-511 0,-185 421,-610 -175,-1289l0 1z"/>
    <path class="fil10" d="M12554 7884c-756,379 -1848,305 -2627,87 -73,-20 -149,-49 -227,-82 112,-69 261,-135 432,-205 599,-243 1285,-171 1897,-5 212,58 394,128 526,204l-1 1z"/>
    <path class="fil11" d="M12554 7884c-14,7 -27,13 -41,20 -4,-13 -8,-25 -11,-37 -1,15 -2,30 -3,44 -18,9 -37,17 -56,25 2,-33 5,-68 8,-105 37,18 72,36 104,54l-1 -1zm-282 116c-17,6 -34,11 -52,17 -26,-88 -54,-181 -86,-262 -7,-17 -13,-34 -19,-50 22,7 45,14 66,21l4 10c32,82 61,176 87,265l0 -1zm-150 45c-17,5 -35,9 -53,13 -8,-38 -16,-74 -22,-107 -15,-89 -35,-188 -55,-281 12,3 23,6 35,9 8,2 16,4 24,7 18,86 36,174 50,256 5,32 13,67 21,103zm-221 49c-18,3 -36,6 -54,9 -29,-109 -57,-226 -84,-338 -13,-55 -26,-108 -39,-159 20,4 39,8 59,12 11,43 22,88 33,133 28,113 56,231 85,341l0 2zm-143 23c-19,3 -37,5 -56,7 -15,-34 -29,-68 -41,-102 11,35 22,70 33,103 -18,2 -37,4 -55,6 -35,-108 -72,-225 -109,-344 -23,-75 -47,-151 -71,-226 20,3 40,6 60,9 21,67 42,135 63,201 13,42 26,83 39,124 -24,-91 -41,-193 -49,-316 18,3 37,6 55,10 16,228 65,380 131,529l0 -1zm-172 19c-19,2 -38,3 -57,5 -21,-48 -45,-99 -71,-153 -61,-127 -139,-197 -214,-266 -62,-57 -123,-112 -173,-194 22,1 45,1 67,2 43,61 92,105 142,151 79,72 161,146 227,282 30,61 56,118 79,172l0 1zm-204 12c-16,1 -33,1 -49,1 -104,-232 -268,-526 -394,-622 32,-1 63,-1 95,0 112,148 253,411 348,621zm-223 2c-20,0 -41,-1 -61,-1 -64,-126 -131,-261 -173,-378 0,-3 1,-6 1,-9 -2,1 -3,1 -5,2 -6,-21 -12,-41 -18,-59 -14,187 4,207 -55,430 -14,-1 -27,-2 -40,-4 25,-127 38,-380 47,-509 2,-36 2,-67 1,-91 16,-1 31,-1 47,-2l11 3c7,30 17,70 31,122l1 -2c29,134 123,321 209,489l5 10 -1 -1zm-400 -24c-19,-2 -38,-4 -57,-6 -19,-53 -38,-119 -59,-191 -31,-109 -67,-232 -107,-337l-9 -23c18,-3 36,-7 54,-10l5 13c41,106 77,231 109,341 25,86 47,162 64,212l0 1zm-182 -22c-19,-3 -39,-5 -58,-8l-9 -37c-23,-96 -47,-192 -60,-270 -11,-62 -24,-129 -37,-195 18,-4 35,-8 53,-12 14,67 27,135 38,198 13,78 36,172 59,266 5,20 10,39 14,58zm-238 -39c-20,-4 -40,-7 -59,-11 -33,-120 -67,-256 -100,-389 17,-6 34,-13 51,-18 35,144 72,292 107,419l1 -1zm-141 -28c-23,-5 -45,-10 -67,-15 -25,-54 -48,-107 -69,-163 18,55 35,108 52,159 -21,-5 -41,-10 -62,-15 -26,-79 -53,-164 -81,-251 16,-7 33,-14 50,-22l1 2 -1 -2c17,-7 34,-14 51,-21 31,121 75,222 126,328zm-204 -49c-22,-6 -44,-12 -66,-18l-1 0c-20,-45 -43,-94 -67,-145 -3,-6 -6,-12 -9,-18 16,-8 32,-16 49,-23 3,6 6,12 9,18 32,67 61,129 86,186l-1 0zm-181 -56c-21,-8 -43,-16 -65,-25 -5,-13 -9,-26 -14,-39 15,-9 31,-18 47,-26 11,28 21,58 31,90l1 0z"/>
    <path class="fil5" d="M9420 5332c-148,108 -388,445 -204,655 77,87 192,118 518,101 223,-12 410,372 502,284 260,-249 -217,-1475 -817,-1039l1 -1z"/>
    <path class="fil12" d="M7111 6771c349,112 1072,999 351,1384 -325,173 -392,-718 -889,-273 -501,449 -835,-1551 537,-1111l1 0z"/>
    <path class="fil13" d="M9170 6941c-200,78 -1057,969 -929,1126 547,675 901,132 1568,-195 30,-15 665,-357 532,-231"/>
    <path class="fil14" d="M8276 6689c64,-7 120,28 176,70 169,128 352,489 212,691l-3 9 -94 -31 5 -16 3 -8 5 -6c27,-36 35,-95 28,-163 -21,-195 -94,-388 -265,-503 -37,-25 -58,-27 -67,-43z"/>
    <path class="fil15" d="M8554 7620c-159,192 -259,382 -236,442 0,0 0,1 0,1l0 0c390,481 601,215 998,-37 406,-259 624,-263 1079,-445 13,11 -451,276 -528,317 -20,11 -34,18 -36,19l0 0c-156,76 -294,165 -422,246 -439,280 -760,485 -1206,-64l0 0c-7,-8 -12,-17 -16,-27 -39,-99 91,-310 271,-527 171,-206 389,-424 541,-548 63,-51 116,-87 153,-101 -40,22 -539,654 -598,725l0 -1z"/>
    <path class="fil7" d="M7944 8390c163,45 451,26 569,261 233,462 596,-250 71,-550 -659,-376 -934,207 -640,288l0 1z"/>
    <path class="fil8" d="M13697 6542c-27,79 -98,132 -195,121 -287,-34 -163,-318 -94,-219 135,196 308,-53 -40,-123 -186,-37 -295,-47 -300,183 -1,39 -89,-47 -95,-58 -46,-76 -3,-848 192,-878 61,-9 -41,368 244,544 150,93 370,199 290,430l-2 0z"/>
    <path class="fil7" d="M14564 6688c-25,-106 -124,-264 -27,-403 149,-214 -132,-253 -267,-75 -38,50 -65,118 -67,204 -10,489 405,466 360,275l1 -1z"/>
    <path class="fil14" d="M8932 5915c-20,-5 -55,-10 -90,7 -69,33 -155,106 -222,161 77,23 167,48 234,50 40,2 69,-16 86,-29 108,159 -515,56 -623,32 99,-59 653,-413 616,-223l-1 2z"/>
    <path class="fil14" d="M7701 5632c20,5 53,16 77,47 47,61 91,164 126,244 -79,-15 -171,-33 -231,-60 -36,-16 -55,-46 -64,-65 -168,94 434,283 542,310 -62,-97 -396,-663 -450,-477l0 1z"/>
    <path class="fil8" d="M13178 6778l-1386 838c586,329 1101,224 1655,566 247,153 1194,-208 -155,-1318 -10,-9 -193,-91 -114,-86z"/>
    <path class="fil13" d="M11792 7612c586,329 1101,224 1655,566 247,153 1194,-208 -155,-1318 -10,-9 -193,-91 -114,-86"/>
    <path class="fil15" d="M12622 7838c282,60 560,119 850,298 65,40 193,36 302,-19 52,-26 24,-22 56,-72 32,-49 71,-92 62,-211 -64,-455 -726,-1115 -703,-1111 7,5 78,31 157,96 524,431 688,761 703,991 7,99 -17,182 -60,248 -42,66 -103,115 -170,148 -138,69 -307,71 -398,15 -276,-171 -545,-228 -819,-286 -269,-57 -541,-115 -834,-279 -31,-15 670,143 855,183l-1 -1z"/>
    <path class="fil7" d="M13852 8503c76,-107 138,-321 341,-346 398,-48 -25,-500 -381,-197 -448,381 -96,735 41,542l-1 1z"/>
    <ellipse class="fil5" transform="matrix(0.585679 0.0249261 -0.0249261 0.585679 7349.47 7524.36)" rx="146" ry="569"/>
    <ellipse class="fil5" transform="matrix(0.585679 0.0249261 -0.0249261 0.585679 6572.08 7312.17)" rx="146" ry="569"/>
    <path class="fil11" d="M11256 5388c9,185 84,584 -2,683 -174,199 -252,157 -405,-123 -180,-330 -152,-748 73,-1014 217,-257 530,-301 836,-219 152,40 215,104 -76,147 -213,31 -440,266 -427,526l1 0z"/>
    <path class="fil13" d="M8281 6738c243,-26 473,511 338,689l-5 16"/>
    <path class="fil6" d="M7157 6365c99,-78 496,95 696,238 274,196 -27,212 -145,94 -45,-45 -88,-102 -197,-144 -90,-35 -410,-144 -354,-188z"/>
    <path class="fil6" d="M6991 6566c91,-24 249,3 380,60 82,36 346,187 143,243 -99,28 -141,-94 -357,-166 -20,-7 -359,-87 -166,-138l0 1z"/>
   </g>
  </g>
 </g>
</svg>
