<?xml version="1.0" encoding="UTF-8"?>
<!DOCTYPE svg PUBLIC "-//W3C//DTD SVG 1.1//EN" "http://www.w3.org/Graphics/SVG/1.1/DTD/svg11.dtd">
<!-- Creator: CorelDRAW X6 -->
<svg xmlns="http://www.w3.org/2000/svg" xml:space="preserve" width="210mm" height="148mm" version="1.1" style="shape-rendering:geometricPrecision; text-rendering:geometricPrecision; image-rendering:optimizeQuality; fill-rule:evenodd; clip-rule:evenodd"
viewBox="0 0 21000 14800"
 xmlns:xlink="http://www.w3.org/1999/xlink">
 <defs>
  <style type="text/css">
   <![CDATA[
    .str0 {stroke:#756558;stroke-width:7.62}
    .fil12 {fill:none}
    .fil14 {fill:none;fill-rule:nonzero}
    .fil2 {fill:#41546E}
    .fil11 {fill:#434547}
    .fil0 {fill:#445975}
    .fil5 {fill:#524E52}
    .fil10 {fill:#756558}
    .fil9 {fill:#7A917F}
    .fil6 {fill:#83766B}
    .fil16 {fill:#B0878F}
    .fil7 {fill:#BEAD9E}
    .fil8 {fill:#CACFBE}
    .fil17 {fill:#EEF4EA}
    .fil3 {fill:white}
    .fil1 {fill:#3C4E66;fill-rule:nonzero}
    .fil15 {fill:#3F404A;fill-rule:nonzero}
    .fil13 {fill:#524E52;fill-rule:nonzero}
    .fil4 {fill:white;fill-rule:nonzero}
   ]]>
  </style>
 </defs>
 <g id="Слой_x0020_1">
  <metadata id="CorelCorpID_0Corel-Layer"/>
  <g id="_886095440">
   <rect class="fil0" x="-687" y="-72" width="22500" height="13500"/>
   <g id="_758862864">
    <path class="fil1" d="M8424 7247c-78,18 -145,96 -198,199 -79,153 -123,351 -133,510 -44,667 -240,737 -441,724 -30,-2 -55,-6 -80,-9 -39,-6 -77,-11 -91,-5 -10,5 -19,13 -25,24 -10,17 -15,38 -15,61 -1,26 5,53 16,79 15,33 40,64 76,85 51,29 116,51 186,66 86,19 176,27 255,28 93,1 167,-18 242,-37 84,-21 168,-42 284,-43 81,-1 165,4 250,10 135,9 275,18 379,0l48 -9 40 29c19,14 40,27 63,40l0 0c23,14 48,27 74,40 94,47 217,70 344,71 141,1 286,-23 406,-68 100,-38 146,-35 183,-13 8,-17 21,-32 44,-47 52,-34 98,-36 149,9l37 -37 42 70 16 -2 41 61c1,2 3,5 6,9l0 0c9,12 1,3 6,9 28,38 48,58 61,66 2,-1 3,-3 4,-4 2,-2 4,-4 10,-10 7,-7 14,-14 24,-22 44,-34 92,-44 146,-6 30,21 46,49 56,79 6,18 8,31 11,44l0 2 147 -360 66 358c2,-3 3,-7 4,-12 8,-30 35,-71 73,-117 9,-11 19,-23 30,-36l20 -149 1 -4 0 0 1 -6 10 -86 85 -15 13 -2 158 -28 682 -638 -578 825c43,3 70,33 90,83 7,18 9,31 10,45 8,2 17,3 26,4 26,2 56,2 86,2 103,-2 217,-24 287,-38 3,-1 8,-2 40,-7l0 0 9 -2 0 0 9 -2 7 -1 11 0c59,-1 146,-3 235,-6 121,-4 248,-8 309,-10l7 0 4 0c10,1 17,1 18,1 3,0 5,0 7,0 251,-11 494,-42 689,-104 177,-57 312,-138 368,-253 16,-32 26,-68 29,-109 3,-33 1,-69 -6,-108 -32,49 -76,82 -126,101 -52,19 -109,22 -166,14 -54,-8 -108,-25 -156,-49l-1 0c-14,-7 -25,-13 -36,-20 -12,-7 -23,-14 -34,-22 -217,-157 -200,-513 -180,-909 12,-237 24,-491 -14,-704 -77,-430 -504,-915 -843,-1299 -65,-73 -126,-143 -189,-218 -89,-105 -171,-212 -231,-315 -67,-113 -109,-223 -111,-325l0 -16 3 -13c4,-16 6,-27 8,-34 3,-14 5,-26 7,-35 74,-390 -120,-525 -286,-641 -136,-95 -259,-181 -287,-352 -10,-62 -3,-123 20,-180l0 0c22,-54 58,-104 109,-146 57,-47 85,-100 89,-147 2,-25 -2,-48 -12,-67 -10,-19 -26,-35 -47,-47 -41,-23 -103,-30 -180,-9 -111,31 -200,159 -270,260 -81,117 -145,211 -260,199 -126,-13 -201,-32 -274,-51 -97,-25 -193,-49 -415,-54 -98,-2 -137,-55 -134,-145 1,-52 26,-112 55,-184 16,-39 33,-82 46,-122 26,-77 43,-154 4,-167 -143,-48 -246,129 -357,319 -34,59 -69,119 -105,173 -137,208 -285,369 -429,525 -285,310 -554,602 -656,1229l1 8 -2 16c-3,24 -10,122 -13,212 -2,57 -3,108 0,126 16,109 55,221 113,319 54,93 124,173 205,229l107 74 -85 98c-63,73 -111,181 -147,297 -53,172 -78,357 -86,480 -3,47 -5,90 -6,128 -1,42 -1,83 -1,123l1 94 -92 21 0 -2zm-404 92c65,-127 152,-231 263,-286 0,-16 0,-33 1,-49 1,-48 3,-94 6,-137 9,-136 37,-342 96,-534 31,-101 72,-200 123,-284 -70,-65 -131,-143 -181,-229 -73,-125 -123,-266 -143,-403 -5,-31 -4,-97 -2,-167 3,-86 9,-183 13,-223l0 -4 0 0c0,-8 0,-15 1,-23l0 -3c111,-705 404,-1024 715,-1362 137,-149 278,-302 405,-496 36,-54 67,-109 99,-162 160,-275 309,-530 631,-422 224,75 205,271 142,460 -16,49 -34,94 -51,134l-7 16c167,10 255,33 344,55 67,17 135,34 240,45 22,2 8,-45 45,-100 91,-131 206,-299 400,-352 142,-39 264,-21 356,30 61,35 108,84 138,143 30,58 44,125 38,193 -9,105 -64,215 -173,305 -20,17 -34,35 -42,55l0 0c-7,18 -9,37 -6,57 12,74 96,133 190,199 223,156 483,338 382,874 -3,16 -6,30 -8,40 -2,9 -4,17 -5,24 5,55 34,123 79,198 54,91 128,188 209,284 51,60 117,135 186,214 357,405 808,917 897,1412 43,240 30,506 18,756 -16,330 -31,626 85,710 5,4 11,8 17,11 8,5 14,8 20,11l0 0c27,13 56,23 85,27 21,3 41,3 55,-3 6,-2 11,-6 14,-13 3,-7 6,-16 7,-28 1,-9 3,-23 4,-35 10,-87 18,-165 108,-202l0 0c22,-9 46,-13 70,-10 19,2 37,8 55,17 39,19 76,58 106,120 20,40 39,95 57,167l0 0 1 6 0 0 1 6 0 0c18,77 24,149 18,216 -6,69 -24,133 -53,192 -88,179 -271,297 -506,372 -217,69 -480,103 -749,115 -7,0 -15,0 -24,0 -8,0 -15,-1 -20,-1 -60,2 -181,6 -304,10 -81,2 -163,5 -227,6l-2 0 0 0 -9 2 0 0c-10,2 -10,2 -35,7 -76,15 -200,39 -328,42 -36,1 -73,1 -111,-2 -45,-4 -88,-13 -127,-32 -20,-10 -37,-21 -50,-32 -50,28 -110,40 -178,-3 -13,15 -20,18 -21,22 -6,23 -15,46 -28,68 -15,25 -34,48 -59,68l-92 72 -19 -25c-24,4 -49,5 -77,3 -23,-2 -43,-6 -61,-13 -49,24 -111,30 -194,2 -50,-17 -81,-44 -103,-77 -33,10 -70,12 -113,0 -52,-15 -109,-52 -170,-126 -7,-1 -15,-2 -22,-4 -2,2 -3,3 -5,5 -47,45 -98,51 -150,36 -29,-8 -52,-22 -75,-36 -16,-10 -26,-19 -34,-26l2 4c4,6 7,11 5,12 -145,55 -320,84 -489,83 -161,-1 -320,-31 -447,-95 -30,-15 -59,-30 -86,-46l0 0c-14,-8 -28,-17 -42,-26 -120,14 -256,5 -387,-4 -84,-6 -165,-11 -232,-10 -87,1 -160,19 -232,37 -88,22 -176,44 -299,43 -96,-1 -203,-10 -304,-32 -90,-20 -177,-49 -251,-92 -83,-48 -141,-117 -174,-194 -25,-57 -36,-118 -35,-177 1,-61 17,-120 45,-170 31,-54 76,-97 134,-123 76,-33 145,-23 217,-12 22,3 44,6 61,8 83,5 165,-46 195,-507 12,-185 64,-419 159,-602l4 0zm2152 1895c-8,-8 2,2 9,12l-2 -4c-3,-3 -5,-5 -8,-7l1 -1zm713 -867l-8 7 -438 373 260 -514 6 -12 111 -220 99 226 2 5 34 78 -66 56 0 1z"/>
    <ellipse class="fil2" cx="10581" cy="9429" rx="3526" ry="363"/>
    <path class="fil3" d="M8191 7204c-264,60 -401,507 -421,814 -58,882 -366,533 -543,610 -152,67 -154,345 41,456 136,77 335,108 498,109 210,1 320,-77 529,-80 198,-3 461,42 648,9 46,33 96,61 153,90 230,116 588,103 843,7 101,-38 89,-6 131,21 29,18 59,36 82,14 49,-47 3,-180 85,-58 14,21 30,35 51,14 1,2 3,5 5,7 2,2 9,2 20,0 5,8 11,16 17,23 106,140 169,129 221,90 11,-9 20,-17 29,-26 9,-9 18,-18 22,-15 12,8 16,30 19,49 8,41 15,77 62,93 105,35 136,-10 157,-61 6,34 20,62 70,66 49,4 83,-7 108,-26l0 0c26,-20 38,-47 46,-75 8,-28 86,-119 179,-218 16,-17 32,-33 50,-49 -47,66 -87,133 -60,158 76,69 152,-42 183,-55 36,-14 -12,68 60,103 51,25 119,25 185,24 138,-3 283,-36 345,-47 6,-1 12,-2 18,-3 151,-3 445,-12 546,-16 16,1 28,1 36,1 520,-24 1012,-128 1156,-422 45,-91 56,-200 25,-330 0,0 0,0 0,0 -1,-4 -2,-8 -3,-11 -33,-134 -71,-197 -103,-211 -10,-6 -19,-7 -28,-3 -33,14 -33,82 -42,146 -25,177 -202,166 -329,104 -19,-10 -37,-21 -53,-32 -278,-201 -47,-975 -149,-1539 -99,-552 -704,-1154 -1058,-1571 -170,-200 -312,-409 -315,-568 6,-25 11,-49 16,-75 140,-737 -519,-703 -573,-1033 -13,-81 16,-159 89,-219 267,-222 103,-568 -254,-471 -265,73 -378,467 -487,455 -287,-30 -299,-96 -699,-105 -114,-3 286,-518 5,-612 -289,-97 -413,260 -596,538 -411,628 -948,826 -1103,1811 -1,5 -1,10 0,16 -6,44 -22,309 -13,370 35,241 172,492 367,627 -180,207 -247,624 -261,846 -6,90 -8,177 -7,260zm2997 1815c1,-4 1,-7 1,-11l13 -2c-5,5 -10,9 -15,14l1 -1zm-594 -663l8 -7 -2 -5 -6 12z"/>
    <path class="fil4" d="M8216 7317c-78,18 -145,96 -198,199 -79,153 -123,351 -133,510 -44,667 -240,737 -441,724 -30,-2 -55,-6 -80,-9 -39,-6 -77,-11 -91,-5 -10,5 -19,13 -25,24 -10,17 -15,38 -15,61 -1,26 5,53 16,79 15,33 40,64 76,85 51,29 116,51 186,66 86,19 176,27 255,28 93,1 167,-18 242,-37 84,-21 168,-42 284,-43 81,-1 165,4 250,10 135,9 275,18 379,0l48 -9 40 29c19,14 40,27 63,40l0 0c23,14 48,27 74,40 94,47 217,70 344,71 141,1 286,-23 406,-68 100,-38 146,-35 183,-13 8,-17 21,-32 44,-47 52,-34 98,-36 149,9l37 -37 42 70 16 -2 41 61c1,2 3,5 6,9l0 0c9,12 1,3 6,9 28,38 48,58 61,66 2,-1 3,-3 4,-4 2,-2 4,-4 10,-10 7,-7 14,-14 24,-22 44,-34 92,-44 146,-6 30,21 46,49 56,79 6,18 8,31 11,44l0 2 147 -360 66 358c2,-3 3,-7 4,-12 8,-30 35,-71 73,-117 9,-11 19,-23 30,-36l20 -149 1 -4 0 0 1 -6 10 -86 85 -15 13 -2 158 -28 682 -638 -578 825c43,3 70,33 90,83 7,18 9,31 10,45 8,2 17,3 26,4 26,2 56,2 86,2 103,-2 217,-24 287,-38 3,-1 8,-2 40,-7l0 0 9 -2 0 0 9 -2 7 -1 11 0c59,-1 146,-3 235,-6 121,-4 248,-8 309,-10l7 0 4 0c10,1 17,1 18,1 3,0 5,0 7,0 251,-11 494,-42 689,-104 177,-57 312,-138 368,-253 16,-32 26,-68 29,-109 3,-33 1,-69 -6,-108 -32,49 -76,82 -126,101 -52,19 -109,22 -166,14 -54,-8 -108,-25 -156,-49l-1 0c-14,-7 -25,-13 -36,-20 -12,-7 -23,-14 -34,-22 -217,-157 -200,-513 -180,-909 12,-237 24,-491 -14,-704 -77,-430 -504,-915 -843,-1299 -65,-73 -126,-143 -189,-218 -89,-105 -171,-212 -231,-315 -67,-113 -109,-223 -111,-325l0 -16 3 -13c4,-16 6,-27 8,-34 3,-14 5,-26 7,-35 74,-390 -120,-525 -286,-641 -136,-95 -259,-181 -287,-352 -10,-62 -3,-123 20,-180l0 0c22,-54 58,-104 109,-146 57,-47 85,-100 89,-147 2,-25 -2,-48 -12,-67 -10,-19 -26,-35 -47,-47 -41,-23 -103,-30 -180,-9 -111,31 -200,159 -270,260 -81,117 -145,211 -260,199 -126,-13 -201,-32 -274,-51 -97,-25 -193,-49 -415,-54 -98,-2 -137,-55 -134,-145 1,-52 26,-112 55,-184 16,-39 33,-82 46,-122 26,-77 43,-154 4,-167 -143,-48 -246,129 -357,319 -34,59 -69,119 -105,173 -137,208 -285,369 -429,525 -285,310 -554,602 -656,1229l1 8 -2 16c-3,24 -10,122 -13,212 -2,57 -3,108 0,126 16,109 55,221 113,319 54,93 124,173 205,229l107 74 -85 98c-63,73 -111,181 -147,297 -53,172 -78,357 -86,480 -3,47 -5,90 -6,128 -1,42 -1,83 -1,123l1 94 -92 21 0 -2zm-404 92c65,-127 152,-231 263,-286 0,-16 0,-33 1,-49 1,-48 3,-94 6,-137 9,-136 37,-342 96,-534 31,-101 72,-200 123,-284 -70,-65 -131,-143 -181,-229 -73,-125 -123,-266 -143,-403 -5,-31 -4,-97 -2,-167 3,-86 9,-183 13,-223l0 -4 0 0c0,-8 0,-15 1,-23l0 -3c111,-705 404,-1024 715,-1362 137,-149 278,-302 405,-496 36,-54 67,-109 99,-162 160,-275 309,-530 631,-422 224,75 205,271 142,460 -16,49 -34,94 -51,134l-7 16c167,10 255,33 344,55 67,17 135,34 240,45 22,2 8,-45 45,-100 91,-131 206,-299 400,-352 142,-39 264,-21 356,30 61,35 108,84 138,143 30,58 44,125 38,193 -9,105 -64,215 -173,305 -20,17 -34,35 -42,55l0 0c-7,18 -9,37 -6,57 12,74 96,133 190,199 223,156 483,338 382,874 -3,16 -6,30 -8,40 -2,9 -4,17 -5,24 5,55 34,123 79,198 54,91 128,188 209,284 51,60 117,135 186,214 357,405 808,917 897,1412 43,240 30,506 18,756 -16,330 -31,626 85,710 5,4 11,8 17,11 8,5 14,8 20,11l0 0c27,13 56,23 85,27 21,3 41,3 55,-3 6,-2 11,-6 14,-13 3,-7 6,-16 7,-28 1,-9 3,-23 4,-35 10,-87 18,-165 108,-202l0 0c22,-9 46,-13 70,-10 19,2 37,8 55,17 39,19 76,58 106,120 20,40 39,95 57,167l0 0 1 6 0 0 1 6 0 0c18,77 24,149 18,216 -6,69 -24,133 -53,192 -88,179 -271,297 -506,372 -217,69 -480,103 -749,115 -7,0 -15,0 -24,0 -8,0 -15,-1 -20,-1 -60,2 -181,6 -304,10 -81,2 -163,5 -227,6l-2 0 0 0 -9 2 0 0c-10,2 -10,2 -35,7 -76,15 -200,39 -328,42 -36,1 -73,1 -111,-2 -45,-4 -88,-13 -127,-32 -20,-10 -37,-21 -50,-32 -50,28 -110,40 -178,-3 -13,15 -20,18 -21,22 -6,23 -15,46 -28,68 -15,25 -34,48 -59,68l-92 72 -19 -25c-24,4 -49,5 -77,3 -23,-2 -43,-6 -61,-13 -49,24 -111,30 -194,2 -50,-17 -81,-44 -103,-77 -33,10 -70,12 -113,0 -52,-15 -109,-52 -170,-126 -7,-1 -15,-2 -22,-4 -2,2 -3,3 -5,5 -47,45 -98,51 -150,36 -29,-8 -52,-22 -75,-36 -16,-10 -26,-19 -34,-26l2 4c4,6 7,11 5,12 -145,55 -320,84 -489,83 -161,-1 -320,-31 -447,-95 -30,-15 -59,-30 -86,-46l0 0c-14,-8 -28,-17 -42,-26 -120,14 -256,5 -387,-4 -84,-6 -165,-11 -232,-10 -87,1 -160,19 -232,37 -88,22 -176,44 -299,43 -96,-1 -203,-10 -304,-32 -90,-20 -177,-49 -251,-92 -83,-48 -141,-117 -174,-194 -25,-57 -36,-118 -35,-177 1,-61 17,-120 45,-170 31,-54 76,-97 134,-123 76,-33 145,-23 217,-12 22,3 44,6 61,8 83,5 165,-46 195,-507 12,-185 64,-419 159,-602l4 0zm2152 1895c-8,-8 2,2 9,12l-2 -4c-3,-3 -5,-5 -8,-7l1 -1zm713 -867l-8 7 -438 373 260 -514 6 -12 111 -220 99 226 2 5 34 78 -66 56 0 1z"/>
    <path class="fil5" d="M8513 7319c-490,-399 -734,281 -762,700 -58,882 -366,533 -543,610 -152,67 -154,345 41,456 136,77 335,108 498,109 210,1 320,-77 529,-80 402,-6 1068,186 841,-483 -145,-425 -326,-961 -603,-1312l-1 0z"/>
    <ellipse class="fil6" transform="matrix(0.685083 0.0449053 -0.0449053 0.685083 10666.5 8775.95)" rx="395" ry="627"/>
    <path class="fil6" d="M8576 6055l4 -59c-286,113 -382,677 -400,949 -34,516 52,896 209,1272 307,737 419,860 687,996 230,116 588,103 843,7 101,-38 89,-6 131,21 29,18 59,36 82,14 49,-47 3,-180 85,-58 15,23 32,37 56,8 52,-62 52,-6 144,-5 39,0 140,-150 85,-317 -15,-45 -78,-224 -102,-273 -184,-383 -923,192 -741,-474 72,-265 -403,-953 -556,-1210 -150,-251 -133,-504 -200,-860 -17,-4 -291,-3 -327,-11z"/>
    <path class="fil7" d="M8964 6508l-66 95c-140,384 342,1803 735,2001 80,40 373,182 678,46 463,-206 635,-1625 410,-2095 -35,-74 171,-472 93,-521 -356,-221 -1331,154 -1544,405 -60,70 -218,75 -305,69l-1 0z"/>
    <path class="fil8" d="M8989 7437c7,25 15,51 23,76 81,-77 182,-215 292,-365 149,-204 314,-430 456,-541 6,-5 14,-5 22,0 13,8 25,26 34,52 10,30 14,70 8,120 -23,194 -195,515 -752,911 8,23 17,46 25,69 590,-416 773,-761 797,-972 7,-60 1,-111 -11,-150 -14,-43 -37,-74 -63,-90 -34,-22 -72,-21 -104,4 -149,117 -317,347 -469,555 -97,133 -188,257 -258,331zm191 525c10,23 20,45 30,67 134,-119 302,-303 508,-575 119,-157 157,-296 194,-431 43,-157 84,-308 264,-475 -21,-14 -42,-27 -64,-39 -181,174 -224,332 -269,496 -35,128 -71,260 -183,407 -196,259 -356,436 -482,551l2 -1zm64 136c12,23 23,46 35,69 99,-131 269,-306 464,-499 -91,98 -169,201 -254,315 -55,73 -114,151 -182,235 13,22 25,44 38,65 76,-93 140,-178 200,-258 215,-286 377,-502 854,-750 76,-40 133,-69 173,-90 -5,-20 -10,-41 -16,-61 -50,19 -112,48 -189,88 -221,115 -376,222 -500,333 40,-39 80,-78 121,-118 167,-163 340,-331 497,-493 -11,-23 -22,-45 -33,-67 -160,166 -339,341 -513,509 -280,273 -545,531 -695,721l0 1zm123 220c7,12 15,23 22,34 6,8 13,16 20,24 119,-152 445,-433 740,-686 175,-151 340,-292 445,-399 -4,-24 -9,-48 -14,-72 -94,88 -278,246 -477,417 -284,244 -598,514 -736,682zm382 336c19,7 40,14 63,20 40,-46 134,-135 244,-237 110,-103 234,-218 333,-329 91,-101 165,-187 225,-258 0,-32 -1,-63 0,-95 -67,73 -158,173 -277,306 -98,109 -220,223 -328,325 -114,106 -214,200 -258,268l-2 0zm137 38c44,9 92,14 142,15 26,-9 55,-18 85,-29 34,-85 119,-100 196,-75 36,-15 75,-30 115,-47 -22,20 -45,43 -70,67l4 2c65,-42 124,-109 177,-194 -14,7 -28,13 -44,20 -314,134 -504,210 -605,242l0 -1zm-302 -132c-17,-17 -33,-33 -49,-50 73,-57 157,-130 242,-203 97,-84 195,-168 278,-230 123,-92 260,-202 380,-300 65,-53 125,-102 178,-142 0,28 -1,56 -1,84 -39,34 -84,73 -133,113 -121,98 -258,209 -382,302 -83,62 -179,145 -275,227 -82,71 -164,142 -239,199l1 0z"/>
    <path class="fil6" d="M10770 8529c238,16 418,220 402,458 -10,155 -105,313 -236,376 -34,16 -75,-12 -112,-3 -40,9 -68,32 -111,29 -56,-4 -79,-90 -127,-112 -47,-22 -118,20 -154,-17 -82,-84 -130,-202 -122,-329 16,-237 221,-417 459,-401l1 -1z"/>
    <path class="fil6" d="M11636 4724l66 -13c-64,164 99,414 301,653 353,417 959,1020 1058,1571 101,565 -129,1338 149,1539 122,88 357,137 386,-69 9,-65 9,-132 42,-146 35,-14 84,43 126,212 1,4 2,8 3,11 0,0 0,0 0,0 31,130 19,239 -25,330 -144,294 -636,398 -1156,422 -57,3 -304,-36 -601,18 -63,11 -207,44 -345,47 -66,1 -134,1 -185,-24 -72,-35 -24,-118 -60,-103 -31,12 -107,124 -183,55 -49,-45 121,-224 152,-297 36,-84 -27,54 -118,66 -279,36 -955,240 -973,220 -98,-109 482,-468 415,-628 -180,-425 -470,-991 -406,-1439 41,-284 158,-566 292,-772 199,-306 106,-579 548,-1100 141,-166 475,-472 514,-554l0 1z"/>
    <path class="fil9" d="M8746 6089l396 -20c-10,19 -73,37 -228,103 -117,49 -168,240 -143,368 81,408 433,362 711,295 852,-206 2259,-1096 2201,-2116 -13,-228 -736,553 -877,623 -504,253 -704,366 -1282,519 -161,43 -599,61 -692,156 -33,34 -22,-36 -87,71l1 1z"/>
    <path class="fil6" d="M8086 5086c155,-985 692,-1184 1103,-1811 182,-278 306,-635 596,-538 281,94 -119,609 -5,612 400,9 412,75 699,105 109,11 222,-383 487,-455 357,-98 521,249 254,471 -72,60 -102,139 -89,219 53,330 712,296 573,1033 -140,738 -707,1119 -1394,1431 -273,124 -547,219 -663,185 -39,-11 128,-127 139,-195 59,-386 -870,-889 -1101,-816 -122,38 -616,-97 -598,-240l-1 -1z"/>
    <path class="fil10" d="M10113 3725c59,-28 192,-152 250,-132 120,42 133,269 105,482 -29,219 -214,854 -450,854 -208,0 -554,-327 -554,-590 0,-263 279,-436 649,-613l0 -1z"/>
    <path class="fil11" d="M8182 4978c-100,-38 2,-447 589,-335 315,60 372,535 81,446 -118,-36 -171,-101 -237,19 -10,18 8,94 75,135 51,31 154,29 149,41 -12,28 -290,-30 -308,-28 -43,6 -277,-21 -283,-40 -6,-18 191,62 219,-54 5,-21 8,-45 8,-66 1,-166 -196,-81 -292,-118l-1 0z"/>
    <path class="fil12" d="M8997 3958c-5,-37 470,-632 518,-276 6,44 7,21 3,79"/>
    <path class="fil13" d="M8969 3962c-3,-24 137,-222 277,-335 37,-30 74,-55 109,-70 39,-17 75,-23 107,-11 42,15 72,55 83,133 2,12 3,18 4,23l0 0c1,6 2,10 2,16l0 0c0,8 0,17 -2,39l1 6c1,7 -17,-45 -44,-93 -67,-121 -135,-69 -224,2 -58,47 -278,281 -313,290z"/>
    <path class="fil14" d="M9854 3871c158,-110 84,-88 271,-185 668,-347 187,941 141,1063"/>
    <path class="fil13" d="M9686 3970c30,-27 246,-226 417,-326 398,-206 455,64 406,404 -10,68 -58,229 -120,380 -71,173 -156,334 -161,330 23,-60 147,-435 189,-724 36,-248 -6,-465 -277,-325 -71,37 -448,258 -454,260l0 1z"/>
    <path class="fil5" d="M8074 5472c59,403 400,834 828,704 451,-137 148,-122 175,79 11,80 862,317 788,-228 -90,-659 -845,-761 -1404,-774 -161,-4 -364,-137 -373,-156 -4,-9 -24,308 -14,376l0 -1z"/>
    <path class="fil12" d="M11436 8072c-72,-29 -237,2 -423,72 -442,167 -949,696 -666,1068 169,223 162,-81 255,-15 53,37 25,122 69,136 124,42 88,-94 146,-102 62,-9 22,156 76,160 72,6 95,-28 106,-67 22,-82 431,-493 501,-534 3,-2 147,-120 198,-153 410,-265 717,-550 736,-1073 7,-198 71,-634 87,-876l4 -64"/>
    <path class="fil15" d="M10742 8374c-132,100 -274,245 -345,374 -164,299 20,493 72,454 5,-4 12,-11 18,-17 37,-38 73,-74 141,-26 42,30 50,71 57,108 9,48 36,30 48,-4 14,-37 27,-71 76,-79 52,-8 60,7 67,28 5,17 5,39 8,55 6,31 29,47 45,34 17,-13 33,-51 58,-86 83,-118 339,-363 717,-603 201,-130 376,-271 503,-436 125,-163 171,-365 181,-616 4,-108 24,-281 44,-455 18,-154 36,-310 43,-422l4 -64c59,56 69,722 60,945 -10,272 -23,569 -159,747 -249,324 -838,465 -1159,808 -92,98 -171,190 -179,218 -8,28 -21,55 -46,75l0 0c-25,19 -59,30 -108,26 -50,-4 -64,-33 -70,-66 -21,51 -52,96 -157,61 -47,-16 -54,-52 -62,-93 -4,-19 -8,-41 -19,-49 -4,-3 -13,6 -22,15 -8,9 -17,17 -29,26 -52,39 -115,50 -221,-90 -28,-37 -49,-75 -64,-114 -54,-144 -25,-299 56,-445 77,-141 203,-275 345,-383 111,-84 232,-153 349,-197 98,-37 190,-63 267,-76 80,-14 146,-13 190,5 -11,-15 -74,10 -178,36 -186,47 -411,216 -533,309l2 -3z"/>
    <path class="fil16" d="M11017 3526c-169,99 -419,85 -129,-303 81,-108 265,-100 290,-13 35,120 -24,235 -161,315l0 1z"/>
    <path class="fil17" d="M9949 4010c52,-84 152,-117 223,-73 71,44 87,148 35,232 -52,84 -267,194 -338,151 -71,-44 28,-226 80,-310z"/>
    <path class="fil5" d="M9830 4457c50,158 533,-403 265,-494 -121,-41 -314,339 -265,494z"/>
    <ellipse class="fil3" transform="matrix(0.304295 0.0223035 -0.0403549 0.550577 10077.4 4124.05)" rx="98" ry="106"/>
    <ellipse class="fil3" transform="matrix(0.524441 0.0384393 -0.0695503 0.948899 10165.3 4091.53)" rx="98" ry="106"/>
    <path class="fil17" d="M9191 3906c52,-84 152,-117 223,-73 71,44 87,148 35,232 -19,31 -218,224 -267,261 -84,63 -33,-36 -78,-63 -71,-44 36,-273 87,-357z"/>
    <path class="fil5" d="M9072 4352c50,158 533,-403 265,-494 -121,-41 -314,339 -265,494z"/>
    <ellipse class="fil3" transform="matrix(0.304295 0.0223035 -0.0403549 0.550577 9319.71 4019.77)" rx="98" ry="106"/>
    <ellipse class="fil3" transform="matrix(0.524441 0.0384393 -0.0695503 0.948899 9407.62 3987.25)" rx="98" ry="106"/>
    <path class="fil5" d="M8379 4833c-109,15 -113,-169 99,-128 76,15 119,80 89,116 -39,46 -104,0 -187,12l-1 0z"/>
    <path class="fil10 str0" d="M13068 8146c14,147 51,263 136,325 122,88 357,137 386,-69 9,-65 9,-132 42,-146 35,-14 84,43 126,212 1,4 2,8 3,11 0,0 0,0 0,0 31,130 19,239 -25,330 -144,294 -636,398 -1156,422 -39,2 -409,14 -582,17 587,-136 1002,-429 1070,-1102z"/>
   </g>
  </g>
 </g>
</svg>
