<?xml version="1.0" encoding="UTF-8"?>
<!DOCTYPE svg PUBLIC "-//W3C//DTD SVG 1.1//EN" "http://www.w3.org/Graphics/SVG/1.1/DTD/svg11.dtd">
<!-- Creator: CorelDRAW X6 -->
<svg xmlns="http://www.w3.org/2000/svg" xml:space="preserve" width="210mm" height="148mm" version="1.1" style="shape-rendering:geometricPrecision; text-rendering:geometricPrecision; image-rendering:optimizeQuality; fill-rule:evenodd; clip-rule:evenodd"
viewBox="0 0 21000 14800"
 xmlns:xlink="http://www.w3.org/1999/xlink">
 <defs>
  <style type="text/css">
   <![CDATA[
    .fil13 {fill:none}
    .fil15 {fill:none;fill-rule:nonzero}
    .fil1 {fill:#41546E}
    .fil0 {fill:#445975}
    .fil5 {fill:#5C432F}
    .fil17 {fill:#66472F}
    .fil7 {fill:#6B492E}
    .fil11 {fill:#784E2B}
    .fil9 {fill:#805D41}
    .fil6 {fill:#8A5F67}
    .fil12 {fill:#8C5123}
    .fil19 {fill:#A36F78}
    .fil8 {fill:#AB6E3F}
    .fil20 {fill:#ABA096}
    .fil10 {fill:#AD7B84}
    .fil21 {fill:#BAAFA6}
    .fil16 {fill:#BEAD9E}
    .fil3 {fill:white}
    .fil2 {fill:#41546E;fill-rule:nonzero}
    .fil18 {fill:#66472F;fill-rule:nonzero}
    .fil14 {fill:#B36427;fill-rule:nonzero}
    .fil4 {fill:white;fill-rule:nonzero}
   ]]>
  </style>
 </defs>
 <g id="Слой_x0020_1">
  <metadata id="CorelCorpID_0Corel-Layer"/>
  <g id="_886210848">
   <rect class="fil0" x="-758" y="-27" width="22500" height="13500"/>
   <g id="_776758000">
    <ellipse class="fil1" cx="10561" cy="9471" rx="2295" ry="363"/>
    <path class="fil2" d="M11621 6945l4 0 1 0 4 0 1 0c83,-2 152,17 206,53 43,28 76,66 97,110 20,40 30,87 31,138 2,71 -16,152 -54,238 335,-200 627,-406 802,-666 179,-266 239,-599 99,-1062 -3,-9 -9,-23 -18,-41 -8,-14 -16,-28 -25,-39l-53 -66 40 -74c102,-187 178,-335 239,-489 60,-152 105,-312 146,-526 12,-64 54,-279 94,-493 -18,17 -36,34 -56,50 -50,42 -104,82 -161,120l-154 103 -40 -182c-13,-60 -29,-117 -48,-168 -18,-51 -40,-98 -63,-141 -195,-351 -513,-583 -871,-701 -240,-80 -499,-108 -751,-86 -251,21 -495,92 -707,210 -288,161 -519,410 -629,743 -7,20 -16,53 -27,96 -13,52 -30,119 -49,198l-36 150 -140 -65c-53,-24 -108,-54 -166,-90 21,45 44,92 68,140 43,86 92,178 145,271l24 43 -11 48c-34,148 -74,330 -120,538 -41,189 -79,365 -110,512l-10 47 -39 29c-182,134 -358,350 -494,662 -91,210 -164,512 -210,759 17,-11 34,-22 51,-32 99,-59 201,-101 304,-135l143 -47 23 149c1,7 2,14 3,20 1,5 2,12 4,20l9 46 -24 42c-120,212 -298,543 -479,884 -209,393 -429,776 -560,1002 51,-43 95,-85 119,-111 144,-162 224,-185 291,-125 152,-124 316,-281 481,-442 125,-121 252,-244 382,-359l147 -130 58 188c8,25 16,47 26,67 8,16 17,31 26,42l14 17 8 21c36,98 78,204 119,295 0,-59 -4,-111 -8,-160 -5,-58 -9,-113 -7,-180l1 -27 12 -24c19,-39 32,-93 47,-153 26,-105 55,-226 128,-357 0,0 0,-1 2,-4l0 0c4,-8 2,-4 3,-7l28 -62 66 -12 3 -1 1 0 1 0 1 0 0 0 0 0 0 0 0 0 0 0 4 -1 0 0 1 0 0 0 0 0 0 0 0 0 0 0 0 0 1 0 0 0 0 0 13 -2 0 0 0 0 0 0 0 0 2 0 0 0 11 -2 0 0 5 -1 0 0 0 0 2 0 0 0 0 0 0 0 2 -1 0 0 0 0 17 -3 2 0 0 0 6 -1 0 0 9 -2 0 0 0 0 0 0 0 0 0 0 0 0 2 0 0 0 0 0 0 0 17 -4 0 0 2 0 1 0 4 -1 150 -31 2 154c1,45 4,89 10,133 6,42 14,81 24,117l3 9 1 10c15,112 38,257 66,390 4,20 8,40 13,59 21,-55 43,-108 67,-159 49,-104 106,-205 179,-330l4 -7c8,-12 15,-22 20,-30 11,-17 18,-28 20,-31 26,-43 105,-178 173,-324 38,-82 71,-165 87,-232l12 -53 48 -28 20 -12 8 -5 5 -3 3 -2 0 0 1 0 0 0 0 0 0 0 0 0 0 0 0 0 0 0 21 -13 0 0 7 -4 0 0 0 0 0 0 0 0 0 0 1 -1 0 0 3 -2 0 0 0 0 0 0 0 0 0 0 0 0 0 0 0 0 0 0 1 -1 10 -6 0 0 10 -6 0 0 0 0 9 -6 0 0 0 0 1 -1 0 0 0 0 0 0 0 0 0 0 0 0 0 0 0 0 1 0 0 0 0 0 1 0 0 0 0 0 0 0 1 0 0 0 0 0 0 0 0 0 0 0 0 0 13 -8 7 -5 0 0 2 -1 8 -5 1 0 1 -1 0 0 0 0 0 0 0 0 0 0 0 0 0 0 0 0 0 0 0 0 0 0 0 0 0 0 0 0 11 -7 0 0 10 -7 7 -4 0 0 2 -1 0 0 0 0 0 0 1 0 0 0 0 0 1 0 1 -1 0 0 0 0 4 -2 0 0 0 0 1 0 0 0 0 0 1 0 0 0 0 0 1 0 18 -12 5 -3 0 0 5 -3 1 -1 1 0 0 0 0 0 0 0 0 0 0 0 0 0 0 0 1 -1 1 0 0 0 3 -2 0 0 0 0 0 0 0 0 1 -1 0 0 1 0 0 0 0 0 0 0 0 0 17 -11 0 0 5 -3 0 0 9 -6 0 0 0 0 0 0 0 0 0 0 0 0 0 0 0 0 0 0 1 -1 0 0 0 0 0 0 2 -2 0 0 0 0 15 -10 0 0 6 -4 0 0 6 -4 0 0 1 0 1 -1 0 0 0 0 1 0 1 0 1 0 1 0 0 0 5 -3 1 0 1 0 1 0 1 0 0 0 1 0 1 0 1 0 1 0 14 -10 1 0 0 0 0 0 0 0 0 0 0 0 1 -1 3 -2 0 0 5 -3 0 0 1 0 1 0 0 0 0 0 1 0 5 -3 0 0 0 0 3 -2 0 0 0 0 1 -1 1 0 0 0 0 0 23 -17 0 0 0 0 1 0 1 0 0 0 1 -1 0 0 1 0 0 0 1 -1 0 0 0 0 0 0 0 0 0 0 0 0 0 0 2 -1 0 0 1 0 1 0 0 0 0 0 1 0 15 -11 1 -1 0 0 0 0 15 -11 0 0 0 0 1 0 0 0 0 0 1 0 0 0 0 0 1 0 15 -11 0 0 2 -1 0 0 0 0 0 0 3 -3 13 -10 0 0 0 0 0 0 1 0 0 0 0 0 1 -1 1 0 0 0 14 -11 0 0 3 -2 15 -11 0 0 1 -1 1 0 0 0 0 0 1 0 1 0 2 -1 1 0 1 0 1 0 1 0 1 0 10 -8 4 -3 0 0 14 -11 3 -3 0 0 1 0 0 0 0 0 0 0 1 0 0 0 0 0 1 0 0 0 11 -9 0 0 0 0 1 -1 16 -13 2 -2 0 0 1 -1 0 0 0 0 0 0 0 0 0 0 0 0 0 0 0 0 0 0 0 0 1 -1 0 0 0 0 0 0 0 0 0 0 0 0 2 -2 2 -1 33 -27 43 -2 17 -50zm78 264c-7,-5 -17,-8 -30,-10l-7 5 0 0 -1 1 -1 0 0 0 -1 0 -1 0 0 0 0 0 0 0 -1 0 0 0 -18 14 0 0 -4 3 -10 8 -1 0 -1 0 -1 0 -1 0 -1 0 -2 1 -1 0 -1 0 -1 0 -1 0 -1 0 -1 1 -1 0 0 0 -15 11 -3 2 -1 1 -14 11 0 0 -1 1 -1 0 0 0 0 0 0 0 -1 1 -1 0 0 0 -16 12 0 0 -1 1 0 0 -2 1 -1 0 -14 10 -1 0 -1 0 0 0 0 0 -1 0 -34 26 -1 0 -2 2 0 0 0 0 -1 1 -1 1 -1 0 0 0 0 0 0 0 -1 1 -1 1 -1 1 -1 0 0 0 0 0 0 0 0 0 -1 1 -1 0 -1 0 0 0 0 0 -1 0 -1 0 -1 0 -1 0 0 0 -1 1 -1 0 0 0 0 0 -1 0 -1 0 -1 0 -1 0 0 0 -1 1 0 0 0 0 0 0 -1 0 -1 0 -1 0 -1 0 -1 0 -1 0 -1 0 -4 3 0 0 0 0 -1 0 -1 0 0 0 -3 2 0 0 -1 0 -1 0 0 0 0 0 -5 4 0 0 0 0 0 0 0 0 -1 0 -1 0 0 0 0 0 -1 0 0 0 0 0 0 0 -2 1 0 0 0 0 0 0 -1 0 -34 24 -1 0 -4 3 -1 0 0 0 -1 0 -1 0 -1 0 -1 1 0 0 0 0 -1 0 0 0 0 0 0 0 -7 5 0 1 -6 4 -1 0 -17 12 0 0 0 0 0 0 0 0 0 0 0 0 0 0 0 0 0 0 0 0 -1 1 0 0 0 0 0 0 0 0 0 0 0 0 -9 6 -1 0 -6 4 0 0 -17 11 0 0 0 0 -1 1 0 0 -1 0 0 0 0 0 0 0 0 0 0 0 0 0 -3 2 -1 1 0 0 0 0 0 0 -1 1 -1 0 0 0 0 0 -1 0 0 0 -5 3 -1 1 -5 3 -18 12 0 0 0 0 -1 0 0 0 0 0 -1 0 0 0 0 0 -1 0 0 0 0 0 -4 3 0 0 0 0 0 0 -1 0 0 0 0 0 -1 0 -1 1 0 0 0 0 -2 1 0 0 -7 5 -11 7 -1 1 -1 1 -1 1 -13 8 -1 1 0 0 0 0 0 0 0 0 0 0 -3 2 -8 5 0 1 -7 5 -13 8 0 0 0 0 0 0 0 0 0 0 -1 0 0 0 0 0 0 0 -1 0 0 0 0 0 -1 0 0 0 0 0 0 0 -1 0 0 0 0 0 0 0 0 0 0 0 -1 0 0 0 -9 6 0 0 -1 0 -10 6 -1 1 -9 6 0 0 0 0 0 0 0 0 0 0 0 0 0 0 0 0 0 0 -1 1 -3 2 0 0 0 0 0 0 0 0 0 0 -1 0 -2 1 0 0 0 0 -7 5 0 0 -17 10c-22,72 -54,151 -89,227 -71,153 -157,301 -187,349 -12,20 -20,32 -23,37 -10,15 -17,26 -23,35l0 0c-68,115 -120,209 -164,302 -5,11 -10,22 -15,32 91,-17 212,20 410,171 21,0 41,2 59,4 18,2 35,5 51,9 41,-11 91,-19 143,-19 65,0 135,12 200,45 70,35 131,92 168,180 22,52 35,115 35,189 0,150 -144,170 -243,62l0 0 -7 -8 0 0 -17 -19c-21,-23 -39,-43 -57,-58 -19,37 -50,57 -89,65 6,32 10,67 10,103 0,151 -145,169 -242,63l-7 -8 0 0 -17 -19c-31,-34 -57,-63 -84,-74 -30,46 -82,61 -148,56 -44,-3 -84,-20 -126,-38l-11 -5 0 0c-48,-20 -93,-32 -135,-39 -44,-7 -85,-8 -122,-4 -135,15 -197,39 -240,57 -119,47 -158,63 -429,-53 -80,-34 -161,-47 -236,-48 -77,-1 -149,11 -210,27 -30,8 -56,25 -79,40 -48,32 -88,59 -157,60 -68,1 -113,-32 -135,-92 -12,-33 -13,-70 -2,-109l0 0c7,-23 18,-49 33,-74 55,-92 179,-205 360,-214 50,-2 99,1 146,7 -36,-83 -72,-173 -103,-258 -2,-2 -3,-5 -5,-7 -82,77 -166,158 -249,238 -189,183 -376,363 -554,501 -114,87 -193,112 -250,99 -62,60 -159,142 -246,202 -49,33 -96,60 -137,75 -83,31 -156,24 -209,-40 -12,-14 -21,-30 -27,-48 -3,-8 341,-751 692,-1414 116,-219 231,-434 332,-618 -64,43 -124,95 -181,161 -59,69 -264,93 -248,-97 38,-461 135,-836 266,-1135 263,-603 482,-494 637,-1203 33,-149 70,-317 110,-493 -46,-83 -89,-163 -127,-239 -56,-111 -102,-210 -138,-291 -24,-54 -53,-122 -82,-191 -21,-51 -43,-103 -61,-148l-430 -489c385,213 568,341 912,589 32,23 62,43 92,62 4,-15 7,-29 11,-42 15,-57 25,-96 31,-113 132,-398 405,-695 747,-885 245,-136 524,-218 810,-242 285,-24 578,8 851,98 414,137 783,408 1012,819 31,55 57,114 80,177 2,5 4,11 6,16 38,-32 71,-66 99,-101 165,-204 189,-492 353,-710 -18,568 35,892 -83,1499 -45,231 -94,404 -159,571 -57,145 -126,284 -217,452l2 4c17,31 30,64 37,87 166,548 90,950 -131,1278 -214,316 -560,552 -950,781l-14 8c-197,116 -316,185 -404,127 -97,-64 -73,-176 62,-380 64,-98 96,-183 94,-245 0,-13 -3,-24 -7,-32 -2,-4 -5,-8 -8,-10l4 44zm27 448c-36,-4 -59,-11 -30,8 15,10 22,5 30,-8zm-3269 1515c-15,-19 -27,-35 -8,-9 5,6 7,9 8,9zm1562 -151c38,9 54,2 79,-8 57,-23 137,-54 299,-73 -9,-3 -18,-6 -25,-11l-86 -22c-49,-12 -89,13 -132,40 -40,26 -82,53 -134,72l-1 2zm492 -84c9,0 18,1 27,2l203 -77 6 -2c21,-8 45,-15 71,-21 -104,-61 -135,-33 -171,-1 -24,22 -50,44 -79,64l0 0c-5,4 -2,2 -8,6l0 0c-15,11 -31,22 -48,30l0 0 -1 -1zm623 -1664l0 0m373 51l0 0m-1535 1220c5,64 11,132 9,214 12,-7 23,-14 35,-22 43,-27 84,-54 131,-70 -9,-37 -18,-77 -27,-118 -28,-134 -52,-282 -67,-399 -2,-7 -4,-14 -6,-22 -12,39 -21,76 -29,112 -16,64 -30,122 -52,176 0,40 4,83 7,129l-1 0z"/>
    <path class="fil3" d="M11425 7167c3,0 6,0 8,0 240,-6 270,222 90,494 -192,292 -109,240 187,66 752,-442 1330,-902 1023,-1913 -9,-29 -34,-83 -66,-123 211,-385 312,-607 398,-1052 27,-139 197,-1020 197,-1085 3,69 -190,334 -243,400 -70,86 -164,162 -270,233 -28,-128 -70,-245 -124,-344 -690,-1238 -2761,-1107 -3189,188 -13,38 -41,149 -78,304 -156,-72 -331,-191 -541,-398 32,79 83,200 142,335 65,147 162,350 283,562 -75,330 -159,712 -231,1052 -368,272 -709,841 -790,1808l26 4c156,-182 339,-273 530,-336 2,16 5,31 8,46 -350,618 -1167,2197 -1167,2199 36,99 367,-183 451,-277 298,-335 -126,200 222,-68 289,-222 609,-570 922,-847 19,62 44,115 76,153 72,195 165,420 238,513l0 0c-9,4 -198,-82 -387,-73 -219,11 -322,237 -264,236 63,-1 107,-71 207,-97 137,-35 333,-55 526,28 361,155 210,31 606,-13 91,-10 199,2 319,52 66,27 133,59 137,-2 0,-4 0,-8 0,-13 141,-56 200,23 294,125 17,19 28,31 29,31 0,-66 -12,-117 -33,-158 -9,-24 -25,-44 -46,-62 -39,-37 -89,-56 -138,-64 -74,-17 -151,-14 -192,6l-3 -1 6 -2c83,-31 227,-49 371,20 64,31 133,59 137,-2 1,-14 0,-29 -5,-45 130,-44 188,33 277,131 17,19 28,31 29,31 0,-328 -309,-307 -414,-262 -38,-13 -89,-20 -154,-18l-3 0c-366,-292 -397,-128 -532,-37 -30,20 -64,52 -58,-9l0 -5 1 -2c75,-258 153,-407 296,-650 14,-21 28,-43 43,-66 44,-73 227,-389 275,-593 7,-4 14,-8 21,-12l8 -5 5 -3 3 -2 0 0 0 0 0 0 0 0 0 0 0 0 0 0 22 -13 8 -5 0 0 0 0 0 0 0 0 4 -2 0 0 0 0 0 0 0 0 0 0 0 0c7,-4 13,-8 20,-12l1 0 9 -6 1 -1 0 0 0 0 1 -1 0 0 0 0 0 0 0 0 1 -1 0 0 0 0 0 0 0 0 0 0 0 0 0 0 0 0c7,-4 14,-9 21,-13l8 -5 3 -2 0 0 0 0 0 0 0 0 0 0 0 0 0 0 0 0 0 0 0 0 0 0 0 0 0 0c7,-5 14,-9 21,-14l7 -5 2 -1 0 0 0 0 0 0 0 0 0 0 0 0 0 0 4 -3 0 0 0 0 0 0 0 0 0 0 0 0 0 0 18 -12 5 -3 5 -4 1 0 1 0 1 0 0 0 1 0 1 0 3 -2 0 0 1 0 1 0 0 0 1 0 1 0 17 -11 6 -4 9 -6 0 0 0 0 0 0 0 0 0 0 0 0 0 0 0 0 0 0 0 0 0 0 17 -12 6 -4 7 -5 1 0 1 -1 1 0 1 0 1 0 1 0 5 -3 1 0 1 0 1 0 1 0 1 0 1 0 1 0 1 0 14 -10 2 -1 1 -1 0 0 10 -7 1 0 1 0 1 0 0 0 1 0 0 0 0 0 0 0 0 0 0 0 0 0 1 0 0 0 1 0 1 0 0 0 0 0 0 0 1 0 0 0 0 0 0 0 0 0 0 0 0 0 1 0 0 0 1 0 1 0 1 0 1 0 1 0 1 0 1 0 1 0 1 0 3 -2 1 0 1 0 1 0 1 0 1 0 1 0 1 0 1 0 0 0 1 0 1 0 1 0 1 0 1 0 1 0 1 0 0 0 0 0 1 0 1 0 1 0 1 0 1 0 1 0 1 0 1 0 1 0 1 0 1 0 1 0 1 0 1 0 1 0 1 0 1 0 1 0 0 0 0 0 0 0 0 0 0 0 0 0 1 0 0 0 1 0 0 0 0 0 0 0 0 0 1 0 1 0 1 0 1 0 15 -11 1 -1 1 -1 15 -11 1 0 1 0 1 0 1 0 1 0 0 0 1 0 1 0 1 0 1 0 1 0 14 -10 2 -1 1 -1 17 -13 1 0 1 0 0 0 0 0 1 0 1 0 1 0 14 -11 3 -2 15 -11 1 0 1 0 1 0 1 0 1 0 1 0 1 0 2 -1 1 0 1 0 1 0 1 0 1 0 10 -8 4 -3 18 -14 1 0 1 0 1 0 0 0 0 0 1 0 1 0 13 -10 0 0c6,-5 12,-10 18,-15l0 0 1 -1 0 0 0 0 0 0 0 0 0 0 0 0 0 0 0 0 0 0 0 0 0 0 0 0 0 0 2 -2 2 -1 -4 -78zm-1782 1852l-2 -1c1,-4 1,-9 2,-14 30,-241 -9,-369 -5,-522 60,-124 62,-305 171,-505 3,-6 6,-13 10,-21l3 -1 1 0 1 0 0 0 0 0 0 0 0 0 4 -1 0 0 0 0 0 0 0 0 0 0 0 0 0 0 0 0 0 0 14 -2 2 0 0 0 12 -2 5 -1 0 0 0 0 0 0 0 0 1 0 0 0 0 0 0 0 0 0 19 -4 2 0 7 -1 9 -2 0 0 0 0 0 0 2 0 0 0 0 0 17 -4 2 0 4 -1c2,103 15,200 39,283 27,204 80,513 139,663 -197,-50 -241,141 -472,139l13 -3z"/>
    <path class="fil4" d="M11420 7040l4 0 1 0 4 0 1 0c83,-2 152,17 206,53 43,28 76,66 97,110 20,40 30,87 31,138 2,71 -16,152 -54,238 335,-200 627,-406 802,-666 179,-266 239,-599 99,-1062 -3,-9 -9,-23 -18,-41 -8,-14 -16,-28 -25,-39l-53 -66 40 -74c102,-187 178,-335 239,-489 60,-152 105,-312 146,-526 12,-64 54,-279 94,-493 -18,17 -36,34 -56,50 -50,42 -104,82 -161,120l-154 103 -40 -182c-13,-60 -29,-117 -48,-168 -18,-51 -40,-98 -63,-141 -195,-351 -513,-583 -871,-701 -240,-80 -499,-108 -751,-86 -251,21 -495,92 -707,210 -288,161 -519,410 -629,743 -7,20 -16,53 -27,96 -13,52 -30,119 -49,198l-36 150 -140 -65c-53,-24 -108,-54 -166,-90 21,45 44,92 68,140 43,86 92,178 145,271l24 43 -11 48c-34,148 -74,330 -120,538 -41,189 -79,365 -110,512l-10 47 -39 29c-182,134 -358,350 -494,662 -91,210 -164,512 -210,759 17,-11 34,-22 51,-32 99,-59 201,-101 304,-135l143 -47 23 149c1,7 2,14 3,20 1,5 2,12 4,20l9 46 -24 42c-120,212 -298,543 -479,884 -209,393 -429,776 -560,1002 51,-43 95,-85 119,-111 144,-162 224,-185 291,-125 152,-124 316,-281 481,-442 125,-121 252,-244 382,-359l147 -130 58 188c8,25 16,47 26,67 8,16 17,31 26,42l14 17 8 21c36,98 78,204 119,295 0,-59 -4,-111 -8,-160 -5,-58 -9,-113 -7,-180l1 -27 12 -24c19,-39 32,-93 47,-153 26,-105 55,-226 128,-357 0,0 0,-1 2,-4l0 0c4,-8 2,-4 3,-7l28 -62 66 -12 3 -1 1 0 1 0 1 0 0 0 0 0 0 0 0 0 0 0 4 -1 0 0 1 0 0 0 0 0 0 0 0 0 0 0 0 0 1 0 0 0 0 0 13 -2 0 0 0 0 0 0 0 0 2 0 0 0 11 -2 0 0 5 -1 0 0 0 0 2 0 0 0 0 0 0 0 2 -1 0 0 0 0 17 -3 2 0 0 0 6 -1 0 0 9 -2 0 0 0 0 0 0 0 0 0 0 0 0 2 0 0 0 0 0 0 0 17 -4 0 0 2 0 1 0 4 -1 150 -31 2 154c1,45 4,89 10,133 6,42 14,81 24,117l3 9 1 10c15,112 38,257 66,390 4,20 8,40 13,59 21,-55 43,-108 67,-159 49,-104 106,-205 179,-330l4 -7c8,-12 15,-22 20,-30 11,-17 18,-28 20,-31 26,-43 105,-178 173,-324 38,-82 71,-165 87,-232l12 -53 48 -28 20 -12 8 -5 5 -3 3 -2 0 0 1 0 0 0 0 0 0 0 0 0 0 0 0 0 0 0 21 -13 0 0 7 -4 0 0 0 0 0 0 0 0 0 0 1 -1 0 0 3 -2 0 0 0 0 0 0 0 0 0 0 0 0 0 0 0 0 0 0 1 -1 10 -6 0 0 10 -6 0 0 0 0 9 -6 0 0 0 0 1 -1 0 0 0 0 0 0 0 0 0 0 0 0 0 0 0 0 1 0 0 0 0 0 1 0 0 0 0 0 0 0 1 0 0 0 0 0 0 0 0 0 0 0 0 0 13 -8 7 -5 0 0 2 -1 8 -5 1 0 1 -1 0 0 0 0 0 0 0 0 0 0 0 0 0 0 0 0 0 0 0 0 0 0 0 0 0 0 0 0 11 -7 0 0 10 -7 7 -4 0 0 2 -1 0 0 0 0 0 0 1 0 0 0 0 0 1 0 1 -1 0 0 0 0 4 -2 0 0 0 0 1 0 0 0 0 0 1 0 0 0 0 0 1 0 18 -12 5 -3 0 0 5 -3 1 -1 1 0 0 0 0 0 0 0 0 0 0 0 0 0 0 0 1 -1 1 0 0 0 3 -2 0 0 0 0 0 0 0 0 1 -1 0 0 1 0 0 0 0 0 0 0 0 0 17 -11 0 0 5 -3 0 0 9 -6 0 0 0 0 0 0 0 0 0 0 0 0 0 0 0 0 0 0 1 -1 0 0 0 0 0 0 2 -2 0 0 0 0 15 -10 0 0 6 -4 0 0 6 -4 0 0 1 0 1 -1 0 0 0 0 1 0 1 0 1 0 1 0 0 0 5 -3 1 0 1 0 1 0 1 0 0 0 1 0 1 0 1 0 1 0 14 -10 1 0 0 0 0 0 0 0 0 0 0 0 1 -1 3 -2 0 0 5 -3 0 0 1 0 1 0 0 0 0 0 1 0 5 -3 0 0 0 0 3 -2 0 0 0 0 1 -1 1 0 0 0 0 0 23 -17 0 0 0 0 1 0 1 0 0 0 1 -1 0 0 1 0 0 0 1 -1 0 0 0 0 0 0 0 0 0 0 0 0 0 0 2 -1 0 0 1 0 1 0 0 0 0 0 1 0 15 -11 1 -1 0 0 0 0 15 -11 0 0 0 0 1 0 0 0 0 0 1 0 0 0 0 0 1 0 15 -11 0 0 2 -1 0 0 0 0 0 0 3 -3 13 -10 0 0 0 0 0 0 1 0 0 0 0 0 1 -1 1 0 0 0 14 -11 0 0 3 -2 15 -11 0 0 1 -1 1 0 0 0 0 0 1 0 1 0 2 -1 1 0 1 0 1 0 1 0 1 0 10 -8 4 -3 0 0 14 -11 3 -3 0 0 1 0 0 0 0 0 0 0 1 0 0 0 0 0 1 0 0 0 11 -9 0 0 0 0 1 -1 16 -13 2 -2 0 0 1 -1 0 0 0 0 0 0 0 0 0 0 0 0 0 0 0 0 0 0 0 0 1 -1 0 0 0 0 0 0 0 0 0 0 0 0 2 -2 2 -1 33 -27 43 -2 17 -50zm78 264c-7,-5 -17,-8 -30,-10l-7 5 0 0 -1 1 -1 0 0 0 -1 0 -1 0 0 0 0 0 0 0 -1 0 0 0 -18 14 0 0 -4 3 -10 8 -1 0 -1 0 -1 0 -1 0 -1 0 -2 1 -1 0 -1 0 -1 0 -1 0 -1 0 -1 1 -1 0 0 0 -15 11 -3 2 -1 1 -14 11 0 0 -1 1 -1 0 0 0 0 0 0 0 -1 1 -1 0 0 0 -16 12 0 0 -1 1 0 0 -2 1 -1 0 -14 10 -1 0 -1 0 0 0 0 0 -1 0 -34 26 -1 0 -2 2 0 0 0 0 -1 1 -1 1 -1 0 0 0 0 0 0 0 -1 1 -1 1 -1 1 -1 0 0 0 0 0 0 0 0 0 -1 1 -1 0 -1 0 0 0 0 0 -1 0 -1 0 -1 0 -1 0 0 0 -1 1 -1 0 0 0 0 0 -1 0 -1 0 -1 0 -1 0 0 0 -1 1 0 0 0 0 0 0 -1 0 -1 0 -1 0 -1 0 -1 0 -1 0 -1 0 -4 3 0 0 0 0 -1 0 -1 0 0 0 -3 2 0 0 -1 0 -1 0 0 0 0 0 -5 4 0 0 0 0 0 0 0 0 -1 0 -1 0 0 0 0 0 -1 0 0 0 0 0 0 0 -2 1 0 0 0 0 0 0 -1 0 -34 24 -1 0 -4 3 -1 0 0 0 -1 0 -1 0 -1 0 -1 1 0 0 0 0 -1 0 0 0 0 0 0 0 -7 5 0 1 -6 4 -1 0 -17 12 0 0 0 0 0 0 0 0 0 0 0 0 0 0 0 0 0 0 0 0 -1 1 0 0 0 0 0 0 0 0 0 0 0 0 -9 6 -1 0 -6 4 0 0 -17 11 0 0 0 0 -1 1 0 0 -1 0 0 0 0 0 0 0 0 0 0 0 0 0 -3 2 -1 1 0 0 0 0 0 0 -1 1 -1 0 0 0 0 0 -1 0 0 0 -5 3 -1 1 -5 3 -18 12 0 0 0 0 -1 0 0 0 0 0 -1 0 0 0 0 0 -1 0 0 0 0 0 -4 3 0 0 0 0 0 0 -1 0 0 0 0 0 -1 0 -1 1 0 0 0 0 -2 1 0 0 -7 5 -11 7 -1 1 -1 1 -1 1 -13 8 -1 1 0 0 0 0 0 0 0 0 0 0 -3 2 -8 5 0 1 -7 5 -13 8 0 0 0 0 0 0 0 0 0 0 -1 0 0 0 0 0 0 0 -1 0 0 0 0 0 -1 0 0 0 0 0 0 0 -1 0 0 0 0 0 0 0 0 0 0 0 -1 0 0 0 -9 6 0 0 -1 0 -10 6 -1 1 -9 6 0 0 0 0 0 0 0 0 0 0 0 0 0 0 0 0 0 0 -1 1 -3 2 0 0 0 0 0 0 0 0 0 0 -1 0 -2 1 0 0 0 0 -7 5 0 0 -17 10c-22,72 -54,151 -89,227 -71,153 -157,301 -187,349 -12,20 -20,32 -23,37 -10,15 -17,26 -23,35l0 0c-68,115 -120,209 -164,302 -5,11 -10,22 -15,32 91,-17 212,20 410,171 21,0 41,2 59,4 18,2 35,5 51,9 41,-11 91,-19 143,-19 65,0 135,12 200,45 70,35 131,92 168,180 22,52 35,115 35,189 0,150 -144,170 -243,62l0 0 -7 -8 0 0 -17 -19c-21,-23 -39,-43 -57,-58 -19,37 -50,57 -89,65 6,32 10,67 10,103 0,151 -145,169 -242,63l-7 -8 0 0 -17 -19c-31,-34 -57,-63 -84,-74 -30,46 -82,61 -148,56 -44,-3 -84,-20 -126,-38l-11 -5 0 0c-48,-20 -93,-32 -135,-39 -44,-7 -85,-8 -122,-4 -135,15 -197,39 -240,57 -119,47 -158,63 -429,-53 -80,-34 -161,-47 -236,-48 -77,-1 -149,11 -210,27 -30,8 -56,25 -79,40 -48,32 -88,59 -157,60 -68,1 -113,-32 -135,-92 -12,-33 -13,-70 -2,-109l0 0c7,-23 18,-49 33,-74 55,-92 179,-205 360,-214 50,-2 99,1 146,7 -36,-83 -72,-173 -103,-258 -2,-2 -3,-5 -5,-7 -82,77 -166,158 -249,238 -189,183 -376,363 -554,501 -114,87 -193,112 -250,99 -62,60 -159,142 -246,202 -49,33 -96,60 -137,75 -83,31 -156,24 -209,-40 -62,-74 65,-255 101,-330 131,-278 346,-720 564,-1131 116,-219 231,-434 332,-618 -64,43 -124,95 -181,161 -59,69 -264,93 -248,-97 38,-461 135,-836 266,-1135 263,-603 482,-494 637,-1203 33,-149 70,-317 110,-493 -46,-83 -89,-163 -127,-239 -56,-111 -102,-210 -138,-291 -24,-54 -53,-122 -82,-191 -21,-51 -43,-103 -61,-148l-234 -574 441 436c100,99 191,176 275,237 32,23 62,43 92,62 4,-15 7,-29 11,-42 15,-57 25,-96 31,-113 132,-398 405,-695 747,-885 245,-136 524,-218 810,-242 285,-24 578,8 851,98 414,137 783,408 1012,819 31,55 57,114 80,177 2,5 4,11 6,16 38,-32 71,-66 99,-101 165,-204 316,-455 480,-673 -18,568 -92,855 -210,1462 -45,231 -94,404 -159,571 -57,145 -126,284 -217,452l2 4c17,31 30,64 37,87 166,548 90,950 -131,1278 -214,316 -560,552 -950,781l-14 8c-197,116 -316,185 -404,127 -97,-64 -73,-176 62,-380 64,-98 96,-183 94,-245 0,-13 -3,-24 -7,-32 -2,-4 -5,-8 -8,-10l4 44zm27 448c-36,-4 -59,-11 -30,8 15,10 22,5 30,-8zm-3269 1515c-15,-19 -27,-35 -8,-9 5,6 7,9 8,9zm1562 -151c38,9 54,2 79,-8 57,-23 137,-54 299,-73 -9,-3 -18,-6 -25,-11l-86 -22c-49,-12 -89,13 -132,40 -40,26 -82,53 -134,72l-1 2zm492 -84c9,0 18,1 27,2l203 -77 6 -2c21,-8 45,-15 71,-21 -104,-61 -135,-33 -171,-1 -24,22 -50,44 -79,64l0 0c-5,4 -2,2 -8,6l0 0c-15,11 -31,22 -48,30l0 0 -1 -1zm623 -1664l0 0m373 51l0 0m-1535 1220c5,64 11,132 9,214 12,-7 23,-14 35,-22 43,-27 84,-54 131,-70 -9,-37 -18,-77 -27,-118 -28,-134 -52,-282 -67,-399 -2,-7 -4,-14 -6,-22 -12,39 -21,76 -29,112 -16,64 -30,122 -52,176 0,40 4,83 7,129l-1 0z"/>
    <path class="fil5" d="M12592 5639l-1366 1573c422,-157 520,111 298,448 -192,292 -109,240 187,66 752,-442 1330,-902 1023,-1913 -15,-50 -77,-170 -142,-175l0 1z"/>
    <path class="fil5" d="M9015 7515l-102 -319c-195,287 -1294,2408 -1293,2410 36,99 367,-183 451,-277 298,-335 -126,200 222,-68 387,-298 830,-821 1238,-1098 292,-198 916,-649 175,-795 -340,-67 -436,-18 -691,146l0 1z"/>
    <path class="fil6" d="M10669 7835l-710 186c-17,5 151,1300 281,853 77,-263 156,-413 305,-666 99,-167 75,-248 124,-373z"/>
    <path class="fil5" d="M10091 7540l-153 350c-9,501 263,890 641,268 65,-107 429,-736 226,-770 -270,-45 -479,1 -714,153l0 -1z"/>
    <path class="fil7" d="M9437 4030c428,-1295 2500,-1426 3189,-188 135,243 191,601 155,956 37,49 63,105 79,168 23,95 26,282 -87,523 -560,1186 -1979,2499 -3316,2499 -751,0 -853,-966 -479,-1464l-131 295c-45,-46 519,-2571 591,-2789l-1 0z"/>
    <path class="fil7" d="M12138 6462c-611,730 -1465,1352 -2321,1495 120,-352 217,-626 246,-690 349,-774 1284,-1033 2074,-804l1 -1z"/>
    <path class="fil8" d="M8818 3936c32,79 83,200 142,335 217,493 798,1611 1418,1611 304,0 550,-240 550,-535 0,-284 -277,-558 -503,-696 -390,-239 -658,-145 -1024,-298 -167,-70 -354,-190 -583,-417z"/>
    <path class="fil9" d="M8222 7693c215,-2580 2284,-2328 1786,-1151 -407,962 -1240,545 -1760,1155l-26 -4z"/>
    <path class="fil10" d="M9796 7977l-623 251c10,32 409,1279 471,776 54,-437 -118,-502 152,-1027z"/>
    <path class="fil7" d="M9960 7671l-808 66c0,191 -20,1029 350,877 220,-91 149,-344 310,-636 50,-91 154,-498 149,-306l-1 -1z"/>
    <path class="fil11" d="M12178 6414c-620,759 -1506,1411 -2390,1547 71,-307 127,-539 147,-598 296,-895 1376,-1233 2243,-949z"/>
    <path class="fil12" d="M12130 6472c-15,18 -31,36 -46,55 -1,-25 -1,-50 -2,-74 -1,-23 -2,-46 -3,-68 16,4 32,9 48,14 1,17 2,35 2,53l1 21 0 -1zm-226 252c-17,18 -34,35 -51,53 1,-11 1,-23 2,-36 6,-107 15,-267 45,-395 15,3 30,5 45,8 -26,115 -35,265 -41,370zm-154 155c-12,11 -23,23 -35,34 -37,-87 -57,-245 -74,-381 -13,-99 -23,-185 -30,-214 15,0 29,1 44,2 14,49 23,124 34,206 16,128 35,276 62,354l-1 -1zm-299 267c-18,15 -36,30 -54,44 16,-96 12,-200 8,-303 -8,-209 -17,-416 135,-571 23,0 47,0 70,1 -175,144 -166,355 -158,569 4,88 7,176 -1,260zm-216 168c-14,10 -28,20 -42,30 -21,-128 -21,-328 -21,-514 0,-210 0,-401 -24,-429 -18,-21 -30,-26 -37,-19 -57,49 -73,348 -88,631 -10,189 -20,370 -43,474 -20,13 -41,26 -62,38l2 -5c32,-77 43,-289 55,-510 14,-258 28,-528 81,-632 37,-9 74,-18 112,-25 5,5 11,11 16,17 35,41 35,241 35,460 0,176 0,364 14,484l2 0zm-430 278c-14,8 -29,16 -43,24 -7,-114 1,-283 10,-455 16,-307 32,-627 -11,-631 -113,-9 -158,181 -175,383 -13,152 -9,308 -7,398 1,27 1,48 1,57 0,59 -21,226 -55,366 -19,8 -37,17 -56,25 39,-142 63,-329 63,-391 0,-17 0,-34 -1,-56 -2,-91 -6,-250 7,-403 12,-148 41,-292 102,-369 39,-21 78,-40 118,-58 2,0 4,0 6,0 90,7 72,352 55,681 -8,164 -17,324 -15,429l1 0zm-461 218c-15,6 -30,12 -46,17 -13,-85 -7,-288 -1,-497 7,-233 14,-473 5,-547 10,-10 20,-19 31,-29 27,95 19,340 12,577 -6,202 -12,397 -2,478l1 1zm-241 81c-16,5 -33,9 -49,14 6,-29 13,-67 22,-116 14,-76 16,-147 17,-226 2,-123 5,-264 57,-472 21,-85 40,-153 58,-208 21,-25 43,-48 66,-71 -16,51 -41,144 -78,290 -51,203 -53,341 -55,462 -1,81 -3,154 -18,234 -7,35 -13,66 -20,93zm-76 21c-14,4 -28,7 -42,10 -12,-78 -19,-187 -25,-300 -6,-97 -12,-196 -19,-274 11,-32 23,-63 35,-93 15,89 24,229 32,364 7,113 13,223 19,292l0 1zm-179 39c-15,3 -30,5 -44,8 -1,-13 -3,-27 -5,-41 11,-48 22,-95 32,-138 6,68 12,128 17,172l0 -1z"/>
    <path class="fil13" d="M9825 7956c-3,-29 -7,-65 -11,-106m144 -551c21,167 29,468 48,619m71 -19c7,-29 14,-63 22,-105 37,-198 -12,-357 73,-697 28,-113 52,-196 71,-253m74 -74c35,159 -21,872 4,1049m177 -73c36,-141 59,-318 59,-379 0,-130 -46,-883 206,-862 102,9 8,781 21,1098m168 -99c64,-223 35,-1015 138,-1135m47 -10c9,5 20,13 31,26 55,63 8,672 47,944m210 -162c38,-292 -86,-634 150,-851m57 1c30,108 48,441 101,578m146 -145c6,-106 14,-272 44,-401m179 42c2,34 3,71 4,108"/>
    <path class="fil14" d="M10917 5297c76,11 210,197 308,408 69,148 134,313 174,439l7 -18c11,11 140,-358 153,-416 12,-53 42,-231 73,-326 7,-20 37,16 24,-9l41 -21 -40 -51 17 -14 19 -15 24 0 0 0 42 0 19 37c14,26 1,62 -16,115 -79,236 -222,1007 -469,980 21,-226 -99,-444 -192,-644 -81,-174 -182,-326 -205,-329l22 -136 -1 0z"/>
    <path class="fil15" d="M10927 5367c112,16 453,833 442,951 80,-18 207,-505 228,-598 16,-74 121,-379 119,-378l-17 14"/>
    <ellipse class="fil12" cx="10376" cy="5347" rx="550" ry="535"/>
    <path class="fil16" d="M10919 5442c-47,251 -274,441 -545,441 -259,0 -466,-177 -534,-408 -12,-41 -19,-156 -10,-159 138,-49 315,47 529,25 154,-16 420,-56 563,-76 1,0 9,113 -3,177z"/>
    <path class="fil17" d="M10369 5521c13,119 49,228 91,-13 4,-23 11,-128 -9,-160 -90,-140 -91,97 -83,173l1 0z"/>
    <path class="fil18" d="M9760 5385c-30,-13 -45,-47 -31,-71 32,-58 297,-24 361,-20 351,18 542,8 977,-100 3,19 -105,75 -265,132 -270,95 -792,170 -1041,59l-1 0z"/>
    <path class="fil6" d="M10330 8949l-208 -11c26,1 98,-137 119,-141 12,-2 1,48 -2,83 -5,61 29,29 58,9 136,-91 166,-256 535,40 89,71 -383,-7 -503,19l1 1z"/>
    <path class="fil10" d="M9953 8960c-2,1 -15,-3 -36,-11l0 65c40,9 80,22 120,39 361,155 308,112 555,19 83,-31 227,-49 371,20 64,31 133,59 137,-2 5,-67 -44,-172 -267,-163 -234,9 -227,-29 -557,12 -225,28 -247,-156 -322,21l-1 0z"/>
    <path class="fil19" d="M9905 9070l-140 25 -131 -76c325,11 287,-358 773,32 89,71 -383,-7 -503,19l1 0z"/>
    <path class="fil10" d="M9528 9081c-9,4 -198,-82 -387,-73 -219,11 -322,237 -264,236 63,-1 107,-71 207,-97 137,-35 333,-55 526,28 361,155 210,31 606,-13 91,-10 199,2 319,52 66,27 133,59 137,-2 5,-67 -44,-172 -267,-163 -234,9 -227,-29 -557,12 -225,28 -247,-156 -322,21l2 -1z"/>
    <path class="fil20" d="M10557 9105c63,-50 440,-114 440,248 -1,0 -12,-12 -29,-31 -95,-104 -155,-185 -304,-120 -38,16 -100,-40 -107,-97z"/>
    <path class="fil8" d="M12179 5827c-266,0 -455,-137 -534,-373 -34,-101 -28,-205 -13,-310 84,-590 1040,-760 1388,-1190 53,-66 247,-330 243,-400 0,66 -170,947 -197,1085 -86,445 -313,1188 -888,1188l1 0z"/>
    <ellipse class="fil12" cx="12170" cy="5296" rx="550" ry="535"/>
    <path class="fil16" d="M12719 5308c-7,290 -250,523 -550,523 -267,0 -496,-184 -539,-430 -24,-137 -1,-201 -1,-203 18,-78 187,91 289,108 126,21 255,28 381,28 179,0 285,-89 420,-25l0 -1z"/>
    <path class="fil13" d="M11571 5400c542,-134 710,-119 1264,-85 30,2 51,-12 25,7"/>
    <path class="fil18" d="M12874 5346c30,-13 45,-47 31,-71 -32,-58 -297,-24 -361,-20 -351,18 -542,8 -977,-100 -3,19 105,75 265,132 270,95 792,170 1041,59l1 0z"/>
    <path class="fil17" d="M12203 5443c13,119 49,228 91,-13 4,-23 14,-85 -7,-117 -90,-140 -93,54 -85,130l1 0z"/>
    <path class="fil21" d="M10972 9227c-28,-205 -515,-212 -395,-71 33,39 142,-59 282,-17 56,17 87,37 113,87l0 1z"/>
    <path class="fil20" d="M10961 8959c63,-50 440,-114 440,248 -1,0 -12,-12 -29,-31 -95,-104 -155,-185 -304,-120 -38,16 -100,-40 -107,-97z"/>
   </g>
  </g>
 </g>
</svg>
