<?xml version="1.0" encoding="UTF-8"?>
<!DOCTYPE svg PUBLIC "-//W3C//DTD SVG 1.1//EN" "http://www.w3.org/Graphics/SVG/1.1/DTD/svg11.dtd">
<!-- Creator: CorelDRAW X6 -->
<svg xmlns="http://www.w3.org/2000/svg" xml:space="preserve" width="210mm" height="148mm" version="1.1" style="shape-rendering:geometricPrecision; text-rendering:geometricPrecision; image-rendering:optimizeQuality; fill-rule:evenodd; clip-rule:evenodd"
viewBox="0 0 21000 14800"
 xmlns:xlink="http://www.w3.org/1999/xlink">
 <defs>
  <style type="text/css">
   <![CDATA[
    .fil1 {fill:none}
    .fil4 {fill:#1F807C}
    .fil13 {fill:#2D787E}
    .fil0 {fill:#472230}
    .fil5 {fill:#47B2AC}
    .fil9 {fill:#4E2904}
    .fil11 {fill:#774218}
    .fil6 {fill:#915227}
    .fil7 {fill:#AC5F29}
    .fil14 {fill:#DF372A}
    .fil15 {fill:#DF574B}
    .fil10 {fill:#E3BFB5}
    .fil3 {fill:#F0802A}
    .fil8 {fill:#FBFDFF}
    .fil12 {fill:white}
    .fil18 {fill:#1F807C;fill-rule:nonzero}
    .fil2 {fill:#290D00;fill-rule:nonzero}
    .fil20 {fill:#472230;fill-rule:nonzero}
    .fil17 {fill:#47B2AC;fill-rule:nonzero}
    .fil16 {fill:#DF372A;fill-rule:nonzero}
    .fil19 {fill:white;fill-rule:nonzero}
   ]]>
  </style>
 </defs>
 <g id="Слой_x0020_1">
  <metadata id="CorelCorpID_0Corel-Layer"/>
  <rect class="fil0" x="-797" y="-14" width="22500" height="13500"/>
  <path class="fil1" d="M6010 6681c335,-137 796,18 1121,139 389,145 -1190,-146 -887,-68 241,62 931,404 455,208 -208,-86 -1834,-338 -474,15 785,204 589,262 -61,109 -75,-18 -1628,-294 -1216,-96 162,78 923,90 1495,283 268,91 91,92 -85,63 -339,-56 -1086,-198 -1206,-199 -4,0 -1149,-86 -738,79 130,52 1318,60 1920,252 321,102 76,81 -96,63 -644,-68 -2064,-374 -2413,-135 235,175 1352,18 1798,229 4,35 -2516,-224 -2084,-44 205,86 2120,199 2537,199"/>
  <path class="fil2" d="M6002 6661c172,-70 375,-66 576,-28 199,37 397,106 561,167 59,22 81,42 74,61 -16,43 -422,-18 -716,-62 -35,-5 -68,-12 -99,-18 133,51 292,123 388,170 36,18 63,32 78,41 90,57 94,77 -19,45 -21,-6 -69,-24 -153,-58 -104,-43 -569,-128 -829,-157 -45,-5 -84,-8 -113,-9 71,28 221,73 482,141 264,69 419,121 483,155 39,21 52,41 42,60 -8,14 -33,22 -72,22 -87,0 -272,-28 -524,-87 -47,-11 -672,-123 -1031,-157 -81,-8 -148,-11 -192,-9 -20,1 -41,-11 -37,-6 6,8 24,20 58,36 63,30 227,51 437,77l0 0c309,39 715,90 1055,205 76,26 118,45 136,59 21,17 23,32 9,47 -7,8 -21,12 -39,14 -42,4 -122,-3 -201,-16 -108,-18 -249,-43 -399,-70 -340,-60 -723,-128 -804,-129l-1 0 -5 0c-69,-5 -777,-54 -800,3 -1,3 21,14 76,36 42,17 215,30 447,47 436,32 1077,79 1472,205 230,73 230,106 133,118 -45,6 -150,-4 -238,-14 -155,-16 -353,-46 -570,-79 -665,-100 -1509,-227 -1799,-77 127,64 417,71 733,78 379,9 796,19 1033,131l11 5 1 12c2,15 -7,24 -26,26 -46,5 -296,-13 -611,-37 -614,-46 -1478,-110 -1498,-60 -1,3 13,0 38,10 83,35 464,75 910,110 625,49 1376,88 1619,88l0 42c-243,0 -996,-39 -1622,-88 -450,-35 -835,-76 -923,-113 -52,-22 -70,-44 -61,-66 32,-78 913,-12 1540,34 208,15 388,29 497,35 -237,-71 -587,-80 -910,-87 -350,-9 -668,-16 -786,-104l-24 -18 25 -17c272,-186 1163,-52 1859,53 217,33 415,63 568,79 85,9 188,19 228,14 12,-1 -50,-7 -141,-36 -389,-124 -1028,-171 -1462,-203 -235,-17 -411,-30 -460,-50 -83,-33 -111,-64 -100,-91 34,-86 771,-34 842,-29l5 0 0 0c88,2 470,70 810,130 153,27 298,53 399,70 67,11 133,18 174,17 -21,-10 -53,-23 -99,-38 -337,-114 -741,-165 -1047,-203l0 0c-214,-27 -381,-48 -450,-81 -40,-19 -63,-35 -73,-48 -29,-39 -1,-58 69,-62 46,-3 115,1 198,9 362,34 990,147 1037,158 249,58 430,86 514,86 7,0 14,0 19,0 -3,0 -5,-1 -8,-3 -62,-32 -213,-84 -474,-151 -290,-75 -445,-123 -508,-152 -91,-41 -83,-63 -7,-72 30,-3 88,0 162,8 204,22 535,80 722,125 -125,-55 -266,-112 -350,-134 -41,-11 -58,-23 -54,-38l0 0c6,-24 143,-3 318,23 280,42 666,100 670,90 2,-6 -18,5 -50,-7 -162,-60 -358,-129 -554,-165 -194,-36 -389,-41 -552,26l-16 -39zm229 81c-3,0 -4,1 -5,2l0 0c-1,5 1,2 5,-2zm488 408c2,-3 -3,-1 -10,0 6,0 10,0 10,0z"/>
  <path class="fil3" d="M7194 4385c10,36 15,81 15,133 3,585 -307,1200 174,1704 123,130 303,190 582,72 507,-216 365,-793 170,-882 -161,-74 -29,80 -17,163 43,293 -442,236 -511,-526 -12,-135 -40,-269 -85,-382 -188,-467 -590,-585 -589,-583 9,15 249,259 261,300z"/>
  <path class="fil4" d="M3266 5413c-16,-16 -239,-375 -263,-413 -212,-330 -672,-1417 -517,-1706 92,-172 251,4 336,71 172,136 455,320 904,302 228,-9 421,46 320,137 -150,135 -219,92 -380,304 -75,99 -131,183 -175,259 -156,266 -162,414 -313,644 -33,49 132,409 88,402z"/>
  <path class="fil5" d="M3706 4059c-13,15 -26,31 -40,49 -75,99 -131,183 -175,259 -149,254 -161,401 -294,614 -199,-204 -409,-854 -445,-1094 -11,-73 -5,-111 88,-85 188,51 260,127 468,196 59,19 128,38 214,56 90,18 140,15 185,6z"/>
  <path class="fil6" d="M6138 5898l52 -78c-135,248 -5,482 -222,820 -333,517 488,307 410,-61 -19,-90 32,-252 126,-440 104,-208 160,-398 -89,-421 -128,-12 -276,-59 -276,181z"/>
  <path class="fil1" d="M7001 6782c603,246 -115,-210 227,-120 2,1 488,243 252,-6 -155,-163 412,158 221,-66 -130,-153 391,185 203,-53 -18,-23 243,124 257,2 6,-54 386,-68 453,-77"/>
  <path class="fil2" d="M7009 6762c166,68 220,84 223,77 1,-4 -26,-35 -54,-67 -37,-42 -75,-86 -67,-116 7,-27 41,-37 122,-15l0 0c2,1 4,2 8,3 33,16 260,126 285,102 4,-3 -12,-25 -61,-76 -35,-37 -40,-60 -24,-75 20,-19 80,0 144,21 62,20 129,42 138,34 1,-1 -9,-14 -38,-48 -29,-34 -32,-56 -17,-69 20,-17 73,5 131,28 57,23 120,48 129,42l0 0c8,-7 -70,-61 -37,-86l0 0c11,-9 29,-2 55,8 34,13 88,34 133,39 32,4 59,-2 62,-29l0 0c19,-107 480,-69 479,-54 -128,19 -404,-34 -452,102 -10,29 -54,28 -93,24 -39,-5 -84,-19 -118,-33 16,31 14,51 -1,63l0 0c-28,22 -103,-8 -170,-35 -26,-11 -51,-21 -68,-27 0,0 1,1 1,1 48,57 54,89 33,107 -28,24 -106,-2 -179,-26 -52,-17 -100,-33 -101,-31 -4,4 12,0 26,15 70,74 82,115 60,136 -46,44 -296,-77 -332,-95 -1,0 0,0 0,0l0 0 0 0 0 0c-51,-14 -70,-17 -71,-15 -2,8 28,43 58,77 37,42 73,83 61,111 -12,30 -83,26 -278,-54l16 -39zm214 -79c0,0 1,0 0,0l0 0zm473 -116c-2,2 0,2 5,2 -3,-1 -5,-2 -5,-2z"/>
  <path class="fil2" d="M7010 6761c83,34 138,55 172,67 34,12 48,14 49,11l0 0c1,-1 -6,-10 -16,-22 -10,-12 -24,-28 -38,-44l0 0 0 0c-37,-43 -76,-87 -67,-117 4,-14 14,-23 34,-27 19,-3 48,0 88,10l1 0c2,1 4,1 7,3l1 1c16,8 81,39 145,66 64,26 126,48 138,37 1,-1 -2,-7 -11,-18 -10,-12 -26,-30 -50,-56l0 0c-18,-19 -28,-34 -31,-46 -4,-13 -1,-23 7,-30 21,-20 80,0 145,21l0 0c31,10 63,21 89,28 25,7 44,10 49,7l0 0c0,0 -2,-3 -8,-10 -6,-8 -16,-19 -30,-36 -15,-17 -23,-31 -25,-43 -3,-12 1,-21 9,-28 10,-9 29,-8 52,-1 23,6 51,17 80,29 29,11 59,24 82,32 23,8 40,13 45,10l0 0 0 0c1,-1 -1,-3 -3,-6 -3,-3 -6,-7 -10,-12 -6,-6 -12,-13 -17,-20l0 0c-13,-17 -22,-35 -7,-48l0 0 1 -1c6,-5 14,-5 23,-3 9,2 20,6 33,11l0 0 0 0c34,13 88,34 132,39 16,2 31,1 41,-3 11,-4 18,-12 19,-25l0 -1 0 0c12,-58 151,-73 276,-73 43,0 84,2 118,5 34,3 61,6 75,10 8,2 12,4 12,6l0 1 -1 0c-35,5 -82,5 -131,5 -131,-1 -285,-1 -320,96 -5,15 -19,22 -37,25 -17,3 -38,2 -57,-1 -20,-2 -41,-7 -61,-13 -19,-6 -38,-12 -55,-18 7,15 10,27 10,37 0,11 -5,19 -12,25l-1 1 0 0c-14,10 -40,8 -70,0 -31,-8 -66,-23 -100,-36l0 0 0 0 0 0c-24,-10 -47,-19 -63,-25 23,27 36,49 41,66 5,18 1,31 -10,40 -14,12 -41,12 -74,5 -32,-7 -70,-19 -106,-31 -26,-9 -51,-17 -69,-23 -16,-5 -28,-9 -30,-9 1,0 1,0 2,1 5,1 14,4 23,13 35,37 56,66 65,88 9,23 6,39 -5,50 -23,22 -98,3 -171,-24 -73,-27 -144,-62 -163,-70l0 0 -1 0 0 0 0 0c-25,-7 -42,-11 -53,-13 -10,-2 -15,-3 -15,-3 -1,4 6,14 17,28 11,14 26,31 41,48 18,21 37,42 49,61 12,19 18,37 13,51 -6,16 -27,22 -72,15 -44,-7 -110,-29 -208,-69l-1 0 0 -1 16 -39 0 -1 1 0zm172 69c-34,-12 -89,-33 -172,-66l-15 37c97,40 163,61 206,68 43,7 63,1 69,-14 5,-13 -1,-30 -12,-49 -12,-19 -30,-40 -49,-61 -15,-17 -30,-34 -41,-48 -11,-14 -19,-26 -17,-30 0,-2 6,-2 18,1 11,2 29,7 54,13l0 0 0 0 0 0 1 0 0 0c0,0 0,0 0,0 20,10 90,43 161,70 72,27 146,46 169,25 11,-10 13,-25 4,-47 -9,-22 -29,-51 -64,-88 -8,-9 -17,-11 -22,-13 -2,-1 -3,-1 -4,-2 -1,-1 -1,-2 0,-3 1,-1 14,2 33,8 19,6 44,14 69,23 36,12 74,24 106,31 32,6 58,7 72,-5 10,-9 14,-21 9,-38 -5,-17 -18,-40 -42,-68l-1 -1 -1 -1 -4 -4 5 2c17,7 42,17 68,27l0 0 0 0 0 0c34,14 69,28 100,36 30,8 56,10 69,-1l1 -1 0 0c6,-5 10,-13 11,-22 0,-10 -3,-23 -11,-38l-1 -3 3 1c17,7 37,14 57,19 20,6 41,11 61,13l0 0c19,2 40,3 57,1 17,-3 30,-10 35,-23 35,-99 191,-98 322,-98 49,0 94,0 129,-4 -1,-1 -4,-2 -9,-3 -14,-3 -41,-7 -75,-10 -34,-3 -75,-5 -118,-5 -125,0 -264,15 -274,72l0 0c-2,14 -9,22 -21,27 -11,4 -26,5 -43,3 -45,-5 -99,-26 -133,-40l0 0 0 0c-13,-5 -24,-9 -33,-11 -8,-2 -15,-1 -20,2l0 0 -1 1c-15,11 -6,29 7,45 6,7 12,14 17,20 4,5 8,9 11,12 3,4 5,7 3,9l0 0 0 0c-5,4 -23,-1 -47,-9 -24,-8 -54,-20 -83,-32 -29,-12 -57,-23 -80,-29 -23,-6 -41,-7 -50,1 -7,6 -10,15 -8,25 2,11 10,25 25,42 14,17 24,28 30,36 6,8 9,12 8,13l0 0c-5,4 -25,1 -51,-6 -26,-7 -58,-18 -89,-28l0 0c-64,-21 -123,-40 -143,-22 -7,7 -10,16 -6,28 4,12 13,27 31,45l0 0c24,26 40,44 50,56 10,13 13,20 11,22 -13,12 -76,-9 -141,-36 -64,-27 -129,-58 -145,-66l-1 -1c-3,-1 -4,-2 -6,-3l-1 0c-40,-11 -69,-14 -88,-11 -19,3 -29,12 -32,25 -8,29 30,73 67,115l0 0 0 0c14,16 28,32 38,44 10,13 17,22 16,24l0 0c-2,4 -16,2 -52,-10zm403 -214l0 0m-1 2l0 0m112 -51c0,0 0,0 0,0l0 0zm-2 2c-1,-1 0,-2 1,-3l0 0c0,0 1,0 3,0l0 0c1,0 2,1 4,2l8 3 -8 -1c-1,0 -2,0 -3,0 -2,0 -3,0 -4,-1l0 0z"/>
  <path class="fil7" d="M6891 4061c466,172 386,807 268,1236 -121,440 -112,501 -17,766 143,397 41,872 89,990 65,158 -161,341 -183,253 -11,-45 -21,-8 -48,20 -32,33 -92,54 -129,-23 -2,-4 -9,21 -33,36 -44,26 -113,35 -94,-113 -82,117 -167,-20 -84,-133 42,-58 118,-73 165,-110 159,-126 122,-789 -135,-836 -672,-122 -382,-671 -440,255 -24,391 -94,715 -89,1125 1,93 31,198 5,284 -8,26 -21,50 -41,71 -67,71 -164,83 -181,48 -33,-66 -158,57 -221,17 -87,-56 12,-72 -64,-23 -194,127 -147,-49 -157,-30 -50,92 -132,4 -105,-68 40,-109 -67,40 -85,-49 -29,-143 57,-194 160,-220 196,-49 229,-158 199,-548 -27,-350 -97,-705 -132,-1066 -109,50 -214,105 -314,142 -603,223 -1028,45 -1531,-352 -82,-65 -88,-40 -84,-90 19,-236 834,-365 847,-465 186,-1422 578,-1803 2432,-1116z"/>
  <path class="fil3" d="M6250 6403c-24,391 -94,715 -89,1125 1,93 31,198 5,284 -8,26 -21,50 -41,71 -67,71 -164,83 -181,48 -33,-66 -158,57 -221,17 -87,-56 12,-72 -64,-23 -194,127 -147,-49 -157,-30 -50,92 -132,4 -105,-68 40,-109 -67,40 -85,-49 -29,-143 57,-194 160,-220 196,-49 229,-158 199,-548 -27,-350 -97,-705 -132,-1066 -109,50 -214,105 -314,142 -522,193 -911,85 -1332,-205 25,-178 59,-347 100,-507 219,-82 454,-143 465,-195 114,-513 390,-863 764,-1139 888,198 1071,1652 1027,2365z"/>
  <path class="fil3" d="M4098 5916l22 -33c0,1 0,174 -4,384 -5,266 58,794 -205,972 -41,28 -97,35 -247,98 -134,57 -265,230 -141,266 63,18 32,-82 28,92 -2,96 117,81 107,-11 9,81 98,174 142,30 16,0 39,72 90,85 79,20 68,-63 122,-71 135,-19 319,-48 285,-179 41,-36 80,-108 109,-236 64,-277 159,-595 241,-866 63,-209 156,-512 -79,-649 -425,-248 -448,119 -470,117z"/>
  <path class="fil4" d="M5454 5325c372,-355 1050,-1605 821,-2031 -92,-172 -251,4 -336,71 -172,136 -455,320 -904,302 -228,-9 -421,46 -320,137 150,135 219,92 380,304 75,99 131,183 175,259 156,266 48,422 200,652 33,49 -60,313 -17,305z"/>
  <path class="fil5" d="M5055 4059c13,15 26,31 40,49 75,99 131,183 175,259 149,254 161,401 294,614 199,-204 409,-854 445,-1094 11,-73 5,-111 -88,-85 -188,51 -260,127 -468,196 -59,19 -128,38 -214,56 -90,18 -140,15 -185,6z"/>
  <ellipse class="fil3" cx="4349" cy="4903" rx="1210" ry="1139"/>
  <path class="fil7" d="M3901 5535l1073 -217c50,-10 99,1 138,27 39,26 69,67 79,117 16,79 33,105 50,101 185,-37 279,-626 306,-743l3 -8 0 9 10 167c28,808 -864,1265 -437,1750 -369,-116 -636,-231 -990,-382 -850,-458 -859,-793 -932,-1080l-3 -8 6 7c89,94 387,604 548,590 16,-3 22,-34 6,-113 -10,-50 1,-99 27,-138 26,-39 67,-69 117,-79z"/>
  <ellipse class="fil3" cx="4293" cy="5685" rx="227" ry="22"/>
  <ellipse class="fil8" cx="3647" cy="4648" rx="369" ry="406"/>
  <ellipse class="fil5" cx="3638" cy="4653" rx="293" ry="322"/>
  <ellipse class="fil9" cx="3641" cy="4656" rx="240" ry="264"/>
  <ellipse class="fil8" cx="3469" cy="4736" rx="67" ry="73"/>
  <ellipse class="fil8" cx="4935" cy="4689" rx="369" ry="406"/>
  <ellipse class="fil5" cx="4941" cy="4695" rx="293" ry="322"/>
  <ellipse class="fil9" cx="4938" cy="4697" rx="240" ry="264"/>
  <path class="fil10" d="M3600 7372c-106,74 -181,200 -77,230 63,18 32,-82 28,92 -2,96 117,81 107,-11 9,81 98,174 142,30 16,0 39,72 90,85 79,20 68,-63 122,-71 135,-19 319,-48 285,-179 4,-3 8,-7 11,-11 -130,-123 -305,-198 -497,-198 -73,0 -144,11 -211,31z"/>
  <path class="fil10" d="M5472 7558c-103,26 -189,77 -160,220 18,89 125,-59 85,49 -27,72 55,160 105,68 10,-19 -36,157 157,30 75,-50 -23,-33 64,23 63,40 188,-82 221,-17 17,34 114,22 181,-48 20,-21 33,-45 41,-71 6,-21 10,-44 10,-67 -132,-136 -316,-221 -521,-221 -36,0 -72,3 -107,8 -22,11 -48,19 -77,27z"/>
  <path class="fil11" d="M7234 7062c54,156 -165,332 -186,245 -11,-45 -21,-8 -48,20 -32,33 -92,54 -129,-23 -2,-4 -9,21 -33,36 -44,26 -113,35 -94,-113 -82,117 -167,-20 -84,-133 42,-58 118,-73 165,-110 2,-1 4,-3 5,-5 21,-2 41,-3 62,-3 123,0 240,31 341,85z"/>
  <path class="fil12" d="M7526 6324c111,48 253,49 439,-30 507,-216 365,-793 170,-882 -161,-74 -56,76 -39,157 44,207 -221,228 -365,-66 -7,51 -1,104 17,147 33,78 20,110 -55,116 -56,4 -114,29 -68,91 131,178 -238,80 -126,182 48,44 129,57 77,124 -66,86 -275,30 -50,161z"/>
  <path class="fil13" d="M4349 3474c724,0 1311,782 1311,1231 0,448 -72,416 -177,593 41,-115 76,17 76,-361 0,-379 -542,-1139 -1210,-1139 -668,0 -1210,510 -1210,1139 0,128 22,251 64,366 -105,-177 -165,-381 -165,-598 0,-680 587,-1231 1311,-1231z"/>
  <ellipse class="fil8" cx="4772" cy="4790" rx="67" ry="73"/>
  <ellipse class="fil8" cx="5018" cy="4526" rx="182" ry="201"/>
  <path class="fil7" d="M4716 5497c-21,103 -110,178 -211,178 -120,0 -188,-79 -210,-184 -22,105 -108,184 -210,184 -99,0 -182,-73 -208,-173 -39,-153 132,-317 231,-413 165,-159 195,-176 351,-8 90,97 286,270 256,416z"/>
  <path class="fil14" d="M4378 5617c-26,13 -55,20 -86,20 -25,0 -49,-5 -71,-13 41,-33 70,-82 82,-138 11,53 38,98 75,131z"/>
  <ellipse class="fil10" cx="4503" cy="5460" rx="210" ry="231"/>
  <ellipse class="fil10" cx="4083" cy="5460" rx="210" ry="231"/>
  <path class="fil9" d="M4102 5230c-3,64 66,131 107,170 75,72 88,80 159,4 38,-41 117,-111 117,-174l-384 0z"/>
  <ellipse class="fil7" cx="3539" cy="5124" rx="343" ry="219"/>
  <ellipse class="fil8" cx="3716" cy="4494" rx="182" ry="201"/>
  <ellipse class="fil7" cx="4981" cy="5107" rx="343" ry="219"/>
  <ellipse class="fil15" cx="3479" cy="5217" rx="135" ry="149"/>
  <path class="fil16" d="M3338 5195c13,-15 29,-33 46,-52 70,-79 159,-180 191,-171 65,19 -59,159 -73,175 -70,83 -165,194 -168,237 0,7 3,11 11,11l0 0c4,0 2,-6 13,-16 66,-62 275,-256 309,-246l0 0c9,3 13,10 9,24 -5,18 -38,57 -75,101 -27,32 -57,67 -77,95 -23,31 -46,53 -47,56 -3,-31 57,-102 109,-163 35,-42 67,-79 72,-94 0,-1 7,0 4,-1l0 0c-24,-7 -226,182 -291,242 -14,13 -23,21 -27,21l0 0c-21,-1 -30,-13 -29,-31 3,-49 100,-163 172,-248 4,-5 116,-134 82,-144 -20,-6 -105,90 -171,165 -44,50 -81,92 -93,92 7,4 10,-27 33,-52z"/>
  <ellipse class="fil15" cx="4971" cy="5173" rx="135" ry="149"/>
  <path class="fil16" d="M4829 5150c13,-15 29,-33 46,-52 70,-79 159,-180 191,-171 64,19 -59,159 -73,175 -70,83 -165,194 -168,237 0,7 3,11 11,11l0 0c4,0 2,-6 13,-16 66,-62 275,-256 309,-246l0 0c9,3 13,10 9,24 -5,18 -38,57 -75,101 -27,32 -57,67 -77,95 -23,31 -46,53 -47,56 -3,-31 57,-102 109,-163 35,-42 67,-79 72,-94 0,-1 7,0 4,-1l0 0c-24,-7 -226,182 -291,242 -14,13 -23,21 -27,21l0 0c-21,-2 -30,-13 -29,-31 3,-49 100,-163 172,-248 4,-5 116,-134 82,-144 -20,-6 -105,90 -171,165 -44,50 -81,92 -93,92 7,4 10,-27 33,-52z"/>
  <path class="fil9" d="M4002 4197c293,50 334,47 626,-3 441,-74 554,43 941,52 69,2 68,2 68,47l0 132c0,68 1,48 -69,58 -77,12 -65,28 -60,169 10,271 -101,449 -525,459 -747,17 -413,-679 -676,-679 -278,0 117,632 -663,679 -512,31 -548,-188 -538,-459 5,-141 18,-157 -60,-169 -70,-10 -69,10 -69,-58l0 -132c0,-45 -1,-45 68,-47 397,-9 503,-127 956,-50zm-363 68c183,-17 417,38 432,228 11,135 25,475 -407,487 -385,11 -419,-120 -419,-332 0,-212 0,-347 395,-384zm1344 0c-183,-17 -417,38 -432,228 -11,135 -25,475 407,487 385,11 419,-120 419,-332 0,-212 0,-347 -395,-384z"/>
  <g id="_888249680">
   <path class="fil17" d="M3604 8922l-9 -31 -146 0 -9 31 -64 0 114 -408 -46 -165 281 0 160 573 -281 0zm-82 -294l-41 145 81 0 -41 -145zm721 -217l0 512 -289 0 0 -512 -123 0 0 -61 535 0 0 61 -123 0z"/>
   <path class="fil18" d="M5559 8409l0 513 -289 0 0 -296 -84 64 -73 -55 0 286 -289 0 0 -504 -33 -25 0 -76 395 298 395 -298 0 76 -22 17zm482 149l0 364 -264 0 0 -364 -158 -208 77 0 212 282 212 -282 77 0 -158 208zm1080 32c0,30 -5,59 -16,86 -11,27 -25,52 -45,73 -19,21 -42,39 -67,53 -26,14 -54,23 -84,26l0 95 -287 0 0 -573 287 0c31,0 60,7 86,21 26,14 48,32 67,55 19,23 33,48 43,77 10,29 16,58 16,87zm-80 49c0,-35 -8,-60 -25,-74 -16,-14 -41,-21 -75,-21 -5,0 -11,0 -16,0 -5,0 -11,0 -16,0l0 221c16,-3 32,-8 47,-15 16,-7 30,-16 42,-26 12,-11 23,-23 30,-37 8,-14 12,-31 12,-49zm119 284l0 -573 289 0 0 512 85 0 0 61 -374 0zm640 0l-9 -31 -146 0 -9 31 -64 0 114 -408 -46 -165 281 0 160 573 -281 0zm-82 -294l-41 145 81 0 -41 -145zm911 160c-14,23 -30,44 -49,62 -19,18 -39,34 -61,47 -22,13 -46,22 -72,29 -25,7 -51,10 -78,10 -41,0 -80,-8 -117,-23 -37,-16 -69,-37 -96,-64 -27,-27 -49,-59 -65,-95 -16,-36 -24,-75 -24,-117 0,-42 8,-81 23,-118 16,-37 37,-68 64,-95 27,-27 59,-48 96,-64 37,-16 76,-23 118,-23 27,0 53,3 78,10 25,7 49,17 72,29 22,13 43,28 61,47 19,19 35,39 49,62l-57 56c-15,-18 -32,-31 -52,-41 -20,-10 -42,-15 -65,-15 -21,0 -41,4 -59,12 -18,8 -34,19 -48,32 -14,14 -24,29 -32,48 -8,18 -12,38 -12,59 0,21 4,40 12,59 8,19 19,35 32,48 14,14 30,24 48,32 19,8 38,12 59,12 23,0 45,-5 65,-15 20,-10 37,-23 52,-41l57 56zm323 -17l0 90 111 0 0 61 -395 0 0 -573 395 0 0 61 -111 0 0 26 113 0 0 334 -113 0z"/>
  </g>
  <path class="fil1" d="M15508 6623c335,-137 796,18 1121,139 389,145 -1190,-146 -887,-68 241,62 931,404 455,208 -208,-86 -1834,-338 -474,15 785,204 589,262 -61,109 -75,-18 -1628,-294 -1216,-96 162,78 923,90 1495,283 268,91 91,92 -85,63 -339,-56 -1086,-198 -1206,-199 -4,0 -1149,-86 -738,79 130,52 1318,60 1920,252 321,102 76,81 -96,63 -644,-68 -2064,-374 -2413,-135 235,175 1352,18 1798,229 4,35 -2516,-224 -2084,-44 205,86 2120,199 2537,199"/>
  <path class="fil19" d="M15503 6611c170,-70 372,-65 572,-28 199,37 396,106 559,167 54,20 75,37 70,51 -14,37 -416,-24 -708,-68 -73,-11 -138,-24 -187,-34 141,47 354,142 472,200 36,18 63,32 77,41 62,39 64,53 -13,31 -21,-6 -69,-24 -152,-58 -104,-43 -571,-129 -831,-157 -72,-8 -127,-11 -154,-8 -2,0 7,2 17,6 61,28 215,75 503,150 264,69 418,121 481,154 34,18 46,35 38,50 -6,12 -29,18 -65,18 -87,0 -271,-28 -522,-87 -47,-11 -672,-123 -1032,-157 -81,-8 -149,-11 -193,-9 -29,2 -45,4 -43,7 7,9 26,21 61,38 64,31 229,52 440,78l0 0c308,39 714,90 1054,205 75,25 116,44 133,58 16,13 18,25 8,35 -6,6 -18,10 -34,12 -41,4 -120,-3 -199,-16 -107,-18 -249,-43 -399,-70 -340,-60 -723,-129 -805,-130l-1 0 -5 0c-69,-5 -783,-55 -808,8 -3,8 20,22 81,46 43,17 217,30 449,47 436,32 1077,79 1470,205 204,65 211,93 134,102 -44,5 -149,-4 -236,-14 -155,-16 -352,-46 -569,-79 -676,-102 -1537,-232 -1817,-69 122,71 421,78 750,86 378,9 795,19 1030,131l7 3 1 7c1,10 -5,16 -19,17 -46,5 -295,-13 -609,-37 -617,-46 -1483,-110 -1506,-56 -1,2 12,8 42,21 84,35 466,75 913,111 625,49 1377,88 1619,88l0 27c-243,0 -995,-39 -1621,-88 -449,-35 -834,-76 -921,-113 -47,-19 -64,-38 -56,-55 30,-72 908,-7 1532,39 249,19 458,34 554,37 -237,-88 -617,-97 -966,-106 -349,-8 -665,-16 -781,-102l-15 -11 15 -10c269,-184 1159,-50 1853,54 217,33 415,63 568,79 86,9 189,19 230,14 9,-1 -22,-14 -139,-51 -390,-124 -1030,-171 -1464,-203 -235,-17 -410,-30 -457,-49 -78,-31 -105,-58 -96,-81 32,-80 763,-29 834,-24l5 0 0 0c86,1 469,69 809,130 153,27 297,53 399,70 77,13 153,20 192,16 4,0 7,-1 10,-1 -16,-12 -55,-28 -123,-52 -337,-114 -742,-165 -1049,-204l0 0c-213,-27 -380,-48 -448,-80 -39,-19 -61,-34 -71,-46 -23,-31 3,-46 63,-49 45,-3 114,1 197,9 361,34 989,147 1036,158 249,58 431,86 516,86 26,0 40,-1 42,-4 0,0 -9,-4 -28,-14 -62,-33 -214,-84 -475,-152 -289,-75 -444,-123 -507,-151 -72,-32 -68,-50 -10,-57 29,-3 87,0 160,8 247,27 679,106 816,151 -142,-66 -336,-148 -442,-175 -36,-9 -51,-19 -48,-29l0 0c4,-17 138,3 309,29 283,43 673,101 679,85 1,-2 -17,-3 -54,-17 -162,-60 -358,-129 -555,-166 -196,-36 -392,-41 -557,26l-10 -24zm220 73c-4,0 -6,0 -6,1l0 0c-1,3 2,1 6,-1zm346 591c1,-1 0,-1 -1,1 0,0 1,0 1,-1z"/>
  <path class="fil12" d="M16693 4327c10,36 15,81 15,133 3,585 -307,1200 174,1704 123,130 303,190 582,72 507,-216 365,-793 170,-882 -161,-74 -29,80 -17,163 43,293 -442,236 -511,-526 -12,-135 -40,-269 -85,-382 -188,-467 -590,-585 -589,-583 9,15 249,259 261,300z"/>
  <path class="fil12" d="M12764 5356c-16,-16 -239,-375 -263,-413 -212,-330 -672,-1417 -517,-1706 92,-172 251,4 336,71 172,136 455,320 904,302 228,-9 421,46 320,137 -150,135 -219,92 -380,304 -75,99 -131,183 -175,259 -156,266 -162,414 -313,644 -33,49 132,409 88,402z"/>
  <path class="fil1" d="M16500 6724c603,247 -115,-210 227,-120 2,1 488,243 252,-6 -155,-163 412,158 221,-66 -130,-153 391,185 203,-53 -18,-23 243,124 257,2 6,-54 386,-68 453,-77"/>
  <path class="fil19" d="M16508 6704c166,68 220,84 223,77 1,-4 -26,-35 -54,-67 -37,-42 -75,-86 -67,-116 7,-27 41,-37 122,-15l0 0c2,1 4,2 8,3 33,16 260,126 285,102 4,-3 -12,-25 -61,-76 -35,-37 -40,-60 -24,-75 20,-19 80,0 144,21 62,20 129,42 138,34 1,-1 -9,-14 -38,-48 -29,-34 -32,-56 -17,-69 20,-17 73,5 131,28 57,23 120,48 129,42l0 0c8,-7 -70,-61 -37,-86l0 0c11,-9 29,-2 55,8 34,13 88,34 133,39 32,4 59,-2 62,-29l0 0c19,-107 480,-69 479,-54 -128,19 -404,-34 -452,102 -10,29 -54,28 -93,24 -39,-5 -84,-19 -118,-33 16,31 14,51 -1,63l0 0c-28,22 -103,-8 -170,-35 -26,-11 -51,-21 -68,-27 0,0 1,1 1,1 48,57 54,89 33,107 -28,24 -106,-2 -179,-26 -52,-17 -100,-33 -101,-31 -4,4 12,0 26,15 70,74 82,115 60,136 -46,44 -296,-77 -332,-95 -1,0 0,0 0,0l0 0 0 0 0 0c-51,-14 -70,-17 -71,-15 -2,8 28,43 58,77 37,42 72,83 61,111 -12,30 -83,26 -278,-54l16 -39zm214 -79c0,0 1,0 0,0l0 0zm473 -116c-2,2 0,2 5,2 -3,-1 -5,-2 -5,-2z"/>
  <path class="fil19" d="M16510 6698c83,34 137,55 172,67 30,10 42,14 42,14 0,-1 -6,-6 -15,-16 -10,-13 -24,-28 -38,-44l0 0 0 0 0 0c-38,-44 -77,-89 -69,-122 4,-16 16,-27 39,-31 20,-3 49,0 90,10l2 0c3,1 5,2 8,3l1 1c16,8 81,39 145,66 62,26 122,47 132,38 1,-1 -5,-2 -11,-11 -9,-12 -25,-30 -49,-55l0 0c-18,-19 -29,-35 -33,-49 -4,-15 -1,-27 9,-36 23,-22 84,-2 150,20l0 0c31,10 63,21 89,28 24,6 41,10 44,8l0 0c3,-2 -5,2 -9,-2 -6,-8 -16,-19 -30,-36 -15,-18 -24,-33 -27,-45 -3,-14 1,-25 10,-33 12,-10 32,-9 57,-2 23,6 51,18 81,29 28,11 58,24 82,32 16,5 28,9 35,11 -2,-3 -6,-6 -9,-10 -6,-6 -12,-13 -18,-20l0 0c-14,-18 -23,-37 -10,-52l0 -1 5 -4c7,-6 16,-7 27,-4 10,2 21,6 34,12l0 0 0 0c34,13 87,34 131,39 15,2 29,1 39,-3 9,-3 15,-10 16,-21l1 -7 1 0c20,-57 156,-72 280,-72 43,0 85,2 119,5 34,3 62,6 76,10 11,2 16,6 16,12l0 5 -5 1c-36,5 -82,5 -132,5 -129,-1 -282,-1 -315,92 -6,17 -22,25 -41,29 -18,3 -39,2 -59,0l0 0c-20,-2 -41,-7 -62,-13 -15,-4 -30,-9 -43,-14 4,10 6,20 5,27 0,12 -6,22 -14,29l-5 4 0 -1c-16,8 -42,6 -71,-2 -31,-8 -67,-23 -101,-36l0 0 0 0 0 0 -44 -18c16,21 25,38 29,52 6,20 1,35 -12,46 -16,13 -44,13 -78,6 -33,-7 -71,-19 -107,-31 -23,-8 -45,-15 -63,-21 32,35 51,62 60,84 10,25 7,43 -6,55 -25,24 -102,5 -177,-23 -72,-27 -144,-61 -162,-70l-8 0 1 -2c-22,-6 -37,-9 -47,-11 -7,-1 -8,-9 -9,-7 0,2 6,11 16,23 11,14 26,31 41,48 19,21 37,42 49,62 13,21 20,40 13,56 -7,18 -30,26 -78,18 -44,-7 -111,-29 -209,-69l-6 -3 2 -6 16 -39 2 -6 6 3zm168 79c-34,-11 -87,-32 -167,-64l-11 27c94,38 158,58 200,66 40,7 58,2 63,-10 5,-11 -1,-27 -12,-44 -12,-19 -30,-39 -48,-60 -15,-17 -30,-35 -41,-49 -12,-16 -20,-28 -18,-35 1,-5 9,-6 24,-3 11,2 29,7 55,14l0 0 0 0 8 2 -1 2c25,12 90,43 156,67 71,26 142,45 163,26 9,-8 11,-22 3,-41 -9,-21 -29,-50 -63,-86 -7,-8 -15,-10 -20,-11 -3,-1 -5,-1 -7,-3 -3,-4 -3,-7 1,-11 3,-3 18,0 39,7 19,6 44,14 70,23 36,12 74,24 106,31 30,6 55,7 67,-3 8,-7 11,-18 7,-32 -5,-17 -17,-38 -41,-66l0 0 -1 -1 0 0 0 0 -3 -3 -7 -1c-1,0 -2,0 -3,0 -3,0 -6,0 -8,-3l0 0c-3,-4 -3,-7 2,-11l0 0c0,0 1,-1 1,-1l-4 -4 18 7 39 15 -1 0 42 17 0 0 0 0 0 0c34,14 69,28 99,36 29,8 52,10 64,0l1 -1c5,-4 8,-10 8,-18 0,-9 -3,-21 -10,-36l-8 -15 16 6c17,6 37,13 57,19 20,6 41,11 60,13l0 0c19,2 39,3 55,1 15,-3 27,-8 31,-20 36,-102 194,-102 327,-101 32,0 63,0 90,-1 -13,-2 -28,-3 -45,-5 -34,-3 -75,-5 -118,-5 -123,0 -259,14 -268,68l0 0c0,2 -1,3 -1,5l0 2 0 0c-3,12 -12,20 -23,25 -12,5 -28,5 -45,3 -45,-5 -100,-26 -134,-40l0 0 0 0c-13,-5 -23,-9 -32,-11 -7,-1 -12,-1 -16,1l-1 1c-11,9 -3,24 8,38l0 0c6,7 12,14 17,19 4,5 8,9 11,12 4,6 6,10 4,14l0 1 -3 2c-6,5 -26,0 -52,-9 -24,-8 -54,-21 -83,-32 -29,-12 -57,-23 -79,-29 -21,-6 -37,-7 -45,0 -6,5 -8,11 -6,20 2,10 10,23 24,40 14,17 24,29 30,36 9,11 10,18 7,21l0 0c-7,6 -28,2 -56,-5 -26,-7 -58,-18 -89,-28l0 0c-62,-20 -120,-39 -137,-23 -6,6 -8,13 -5,23 3,11 13,26 30,43l0 0c24,26 41,44 50,56 12,15 15,25 10,29 -15,14 -80,-8 -146,-35 -64,-27 -129,-58 -146,-66l-1 -1c-2,-1 -4,-2 -5,-2l-1 0c-40,-11 -67,-13 -86,-11 -16,3 -25,10 -28,21 -7,27 30,69 66,110l0 0 0 0 0 0c14,16 28,32 38,44 12,14 19,25 17,29l0 0c-3,7 -20,6 -59,-7zm743 -236c0,0 1,0 1,0l0 0c1,-1 0,0 -1,0zm-27 -77c0,0 -1,0 -1,1"/>
  <path class="fil12" d="M16389 4004c466,172 386,807 268,1236 -121,440 -112,501 -17,766 143,397 41,872 89,990 65,158 -161,341 -183,253 -11,-45 -21,-8 -48,20 -32,33 -92,54 -129,-23 -2,-4 -9,21 -33,36 -44,26 -113,35 -94,-113 -82,117 -167,-20 -84,-133 42,-58 118,-73 165,-110 159,-126 122,-789 -135,-836 -672,-122 -382,-671 -440,255 -24,391 -94,715 -89,1125 1,93 31,198 5,284 -8,26 -21,50 -41,71 -67,71 -164,83 -181,48 -33,-66 -158,57 -221,17 -87,-56 12,-72 -64,-23 -193,127 -147,-49 -157,-30 -50,92 -132,4 -105,-68 40,-109 -67,40 -85,-49 -29,-143 57,-194 160,-220 196,-49 229,-158 199,-548 -27,-350 -97,-705 -132,-1066 -109,50 -214,105 -314,142 -603,223 -1028,45 -1531,-352 -82,-65 -88,-40 -84,-90 19,-236 834,-366 847,-465 186,-1422 578,-1803 2432,-1116z"/>
  <path class="fil12" d="M15748 6345c-24,391 -94,715 -89,1125 1,93 31,198 5,284 -8,26 -21,50 -41,71 -67,71 -164,83 -181,48 -33,-66 -158,57 -221,17 -87,-56 12,-72 -64,-23 -193,127 -147,-49 -157,-30 -50,92 -132,4 -105,-68 40,-109 -67,40 -85,-49 -29,-143 57,-194 160,-220 196,-49 229,-158 199,-548 -27,-350 -97,-705 -132,-1066 -109,50 -214,105 -314,142 -522,193 -911,85 -1332,-205 25,-178 58,-347 100,-507 219,-82 454,-143 465,-195 114,-513 390,-863 764,-1139 888,198 1071,1652 1027,2365z"/>
  <path class="fil12" d="M13596 5858l22 -33c0,1 0,174 -4,384 -5,266 58,794 -205,972 -41,28 -97,35 -247,98 -134,57 -265,230 -141,266 63,18 32,-82 28,93 -2,96 117,81 107,-11 9,81 98,174 142,30 16,0 39,72 90,85 79,20 68,-63 122,-71 135,-19 319,-48 285,-179 41,-36 80,-108 109,-236 64,-277 159,-595 241,-866 63,-209 156,-512 -79,-649 -425,-248 -448,119 -470,117z"/>
  <path class="fil12" d="M14952 5267c372,-355 1050,-1605 821,-2031 -92,-172 -251,4 -336,71 -172,136 -455,320 -904,302 -228,-9 -420,46 -320,137 150,135 219,92 380,304 75,99 131,184 175,259 156,266 48,422 200,652 33,49 -60,313 -17,305z"/>
  <ellipse class="fil12" cx="13840" cy="4854" rx="1210" ry="1139"/>
  <path class="fil12" d="M13402 5478l1073 -217c50,-10 99,1 138,27 39,26 69,67 79,117 16,79 33,105 50,101 185,-37 279,-626 306,-743l3 -8 0 9 10 167c28,808 -864,1265 -437,1750 -369,-116 -636,-231 -990,-382 -850,-458 -940,-967 -1012,-1254l3 -2 80 174c89,94 387,604 548,590 16,-3 22,-34 6,-113 -10,-50 1,-99 27,-138 26,-39 67,-69 117,-79z"/>
  <path class="fil0" d="M13825 5489c124,-13 225,-10 227,2 1,7 -28,16 -75,24 -39,7 -82,-6 -150,2 -56,7 -107,28 -147,29 -48,1 -79,-2 -79,-9 -1,-12 100,-36 224,-49z"/>
  <ellipse class="fil8" cx="13152" cy="4590" rx="369" ry="406"/>
  <ellipse class="fil0" cx="13158" cy="4612" rx="324" ry="357"/>
  <ellipse class="fil8" cx="12974" cy="4678" rx="67" ry="73"/>
  <ellipse class="fil8" cx="14468" cy="4631" rx="369" ry="406"/>
  <ellipse class="fil0" cx="14473" cy="4637" rx="327" ry="360"/>
  <ellipse class="fil0" cx="14496" cy="4640" rx="263" ry="290"/>
  <path class="fil12" d="M13098 7314c-106,74 -181,200 -77,230 63,18 32,-82 28,93 -2,96 117,81 107,-11 9,81 98,174 142,30 16,0 39,72 90,85 79,20 68,-63 122,-71 135,-19 319,-48 285,-179 4,-3 8,-7 11,-11 -130,-123 -305,-198 -497,-198 -73,0 -144,11 -211,31z"/>
  <path class="fil12" d="M14970 7500c-103,26 -189,77 -160,220 18,89 125,-59 85,49 -27,72 55,160 105,68 10,-19 -36,157 157,30 75,-50 -23,-33 64,23 63,40 188,-82 221,-17 17,34 114,22 181,-48 20,-21 33,-45 41,-71 6,-21 10,-44 10,-67 -132,-136 -316,-221 -521,-221 -36,0 -72,3 -107,8 -22,11 -48,19 -77,27z"/>
  <path class="fil12" d="M16733 7004c54,156 -165,332 -186,245 -11,-45 -21,-8 -48,20 -32,33 -92,54 -129,-23 -2,-4 -9,21 -33,36 -44,26 -113,35 -94,-113 -82,117 -167,-20 -84,-133 42,-58 118,-73 165,-110 2,-1 4,-3 5,-5 21,-2 41,-3 62,-3 123,0 240,31 341,85z"/>
  <path class="fil12" d="M17024 6266c111,48 253,49 439,-30 507,-216 365,-793 170,-882 -161,-74 -56,76 -39,157 44,207 -221,228 -365,-66 -7,51 -1,104 17,147 33,78 20,110 -55,116 -56,4 -114,29 -68,91 131,178 -238,80 -126,182 48,44 129,57 77,124 -66,86 -275,30 -50,161z"/>
  <path class="fil20" d="M16868 6207c45,44 101,80 174,105 30,10 63,19 99,25l-32 81c-34,-6 -65,-15 -95,-25 -86,-29 -155,-73 -209,-127l-2 -2 -1 -2c-91,-116 -101,-167 -65,-196 23,-18 53,-15 91,-11 35,4 80,8 108,-8 16,-9 15,-17 10,-26 -5,-8 -12,-18 -19,-28 -13,-17 -26,-36 -37,-58 -29,-59 -18,-91 18,-109 28,-14 65,-5 106,4 33,8 69,16 88,11l0 0c8,-2 10,-16 -1,-57l0 0c-7,-28 -7,-52 -1,-71 5,-16 14,-28 25,-38 11,-9 23,-15 37,-19l0 0c31,-8 71,-3 106,8 26,8 40,10 44,6 7,-7 10,-29 9,-65 -1,-31 4,-63 12,-95 9,-31 21,-63 38,-92l69 -121 11 139c2,31 7,60 13,87l-49 125c-3,-6 -54,-110 -57,-116 -2,48 36,179 13,201 -30,29 -71,32 -129,14 -22,-7 -44,-11 -59,-7l0 0c-1,0 -2,0 -2,1 -1,4 -1,12 3,23l0 0c27,104 -4,147 -60,162l0 0c-40,11 -87,0 -129,-10l-20 -5c7,11 14,21 22,31 9,12 17,23 24,35 31,51 37,98 -40,143 -52,31 -126,2 -173,-3 -18,-2 -12,13 -16,16 -8,6 27,11 77,74zm78 -303c-1,0 -1,0 -1,0 -5,2 -3,2 1,0z"/>
  <path class="fil12" d="M13847 3416c724,0 1311,782 1311,1231 0,448 -72,416 -177,593 41,-115 76,17 76,-361 0,-379 -542,-1139 -1210,-1139 -668,0 -1210,510 -1210,1139 0,128 22,251 64,366 -105,-177 -165,-381 -165,-598 0,-680 587,-1231 1311,-1231z"/>
  <ellipse class="fil8" cx="14305" cy="4732" rx="67" ry="73"/>
  <ellipse class="fil8" cx="14551" cy="4468" rx="182" ry="201"/>
  <path class="fil0" d="M14227 5312c-17,103 -103,182 -205,186 -120,5 -191,-71 -217,-176 -18,106 -101,188 -203,192 -99,4 -185,-66 -214,-165 -44,-151 114,-322 210,-421 159,-165 205,-184 367,-22 94,94 284,259 261,406z"/>
  <ellipse class="fil12" transform="matrix(0.274785 -0.0283022 0.0283022 0.274785 13593.6 5323.26)" rx="785" ry="864"/>
  <path class="fil0" d="M13932 5455c-33,20 -71,34 -112,38 -33,3 -66,0 -97,-8 50,-50 83,-119 91,-195 22,69 64,127 118,165z"/>
  <ellipse class="fil12" transform="matrix(0.274785 -0.0283022 0.0283022 0.274785 14025.5 5281.83)" rx="785" ry="864"/>
  <path class="fil0" d="M13591 5082c4,64 79,123 124,159 82,64 96,70 159,-13 33,-45 105,-123 99,-185l-382 39z"/>
  <ellipse class="fil12" cx="13109" cy="5016" rx="343" ry="219"/>
  <ellipse class="fil8" cx="13220" cy="4436" rx="182" ry="201"/>
  <ellipse class="fil12" cx="14490" cy="4983" rx="343" ry="219"/>
  <path class="fil20" d="M12891 5137c13,-15 29,-33 46,-52 70,-79 159,-180 191,-171 64,19 -59,159 -73,175 -70,83 -165,194 -168,237 0,7 3,11 11,11l0 0c4,0 2,-6 13,-16 66,-62 275,-256 309,-246l0 0c9,3 13,10 9,24 -5,18 -38,57 -75,101 -27,32 -57,67 -77,95 -23,31 -46,53 -47,56 -3,-31 57,-102 109,-163 35,-42 67,-79 72,-94 0,-1 7,0 4,-1l0 0c-24,-7 -226,182 -291,242 -14,13 -23,21 -27,21l0 0c-21,-2 -30,-13 -29,-31 3,-49 100,-163 172,-248 4,-5 116,-134 82,-144 -20,-6 -105,90 -171,165 -44,50 -81,92 -93,92 7,4 10,-27 33,-52z"/>
  <path class="fil20" d="M14339 5026c13,-15 29,-33 46,-52 70,-79 159,-180 191,-171 64,19 -59,159 -73,175 -70,83 -165,194 -168,237 0,7 3,11 11,11l0 0c4,0 2,-6 13,-16 66,-62 275,-256 309,-246l0 0c9,3 13,10 9,24 -5,18 -38,57 -75,101 -27,32 -57,67 -77,95 -23,31 -46,53 -47,56 -3,-31 57,-102 109,-163 35,-42 67,-79 72,-94 0,-1 7,0 4,-1l0 0c-24,-7 -226,182 -291,242 -14,13 -23,21 -27,21l0 0c-21,-2 -30,-13 -29,-31 3,-49 100,-163 172,-248 4,-5 116,-134 82,-144 -20,-6 -105,90 -171,165 -44,50 -81,92 -93,92 7,4 10,-27 33,-52z"/>
  <path class="fil0" d="M13519 4139c293,50 334,47 626,-2 441,-74 554,43 941,52 69,2 68,2 68,47l0 132c0,68 1,48 -69,58 -77,12 -65,28 -60,169 10,271 -101,449 -525,459 -747,17 -413,-679 -676,-679 -278,0 117,632 -663,679 -512,31 -547,-188 -538,-459 5,-141 18,-157 -60,-169 -70,-10 -69,10 -69,-58l0 -132c0,-45 -1,-45 68,-47 397,-9 503,-127 956,-50zm-363 68c183,-17 417,38 432,228 11,135 25,475 -407,487 -385,11 -419,-120 -419,-332 0,-212 0,-347 395,-384zm1344 0c-183,-17 -417,38 -432,228 -11,135 -25,475 407,487 385,11 419,-120 419,-332 0,-212 0,-347 -395,-384z"/>
  <path class="fil19" d="M13103 8864l-9 -31 -146 0 -9 31 -64 0 114 -408 -46 -165 281 0 160 573 -281 0zm-82 -294l-41 145 81 0 -41 -145zm721 -217l0 512 -289 0 0 -512 -123 0 0 -61 535 0 0 61 -123 0zm1316 -2l0 513 -289 0 0 -296 -84 64 -73 -55 0 286 -289 0 0 -504 -33 -25 0 -76 395 298 395 -298 0 76 -22 17zm482 149l0 364 -264 0 0 -364 -158 -208 77 0 212 282 212 -282 77 0 -158 208zm1080 32c0,30 -5,59 -16,86 -11,27 -25,52 -45,73 -19,21 -41,39 -67,53 -26,14 -54,23 -84,26l0 95 -287 0 0 -573 287 0c31,0 60,7 86,21 26,14 48,32 67,55 19,23 33,48 43,77 10,29 16,58 16,87zm-80 49c0,-35 -8,-60 -25,-74 -16,-14 -41,-21 -75,-21 -5,0 -11,0 -16,0 -5,0 -11,0 -16,0l0 221c16,-3 32,-8 47,-15 16,-7 30,-16 42,-26 12,-11 23,-23 30,-37 8,-14 12,-31 12,-49zm119 284l0 -573 289 0 0 512 85 0 0 61 -374 0zm640 0l-9 -31 -146 0 -9 31 -64 0 114 -408 -46 -165 281 0 160 573 -281 0zm-82 -294l-41 145 81 0 -41 -145zm911 160c-14,23 -30,44 -49,62 -19,18 -39,34 -61,47 -22,13 -46,22 -72,29 -25,7 -51,10 -78,10 -41,0 -80,-8 -117,-23 -37,-16 -69,-37 -96,-64 -27,-27 -49,-59 -65,-95 -16,-36 -24,-75 -24,-117 0,-42 8,-81 23,-118 16,-37 37,-68 64,-95 27,-27 59,-48 96,-64 37,-16 76,-23 118,-23 27,0 53,3 78,10 25,7 49,17 72,29 22,13 43,28 61,47 19,19 35,39 49,62l-57 56c-15,-18 -32,-31 -52,-41 -20,-10 -42,-15 -65,-15 -21,0 -41,4 -59,12 -18,8 -34,19 -48,32 -14,14 -24,29 -32,48 -8,18 -12,38 -12,59 0,21 4,40 12,59 8,19 19,35 32,48 14,14 30,24 48,32 19,8 38,12 59,12 23,0 45,-5 65,-15 20,-10 37,-23 52,-41l57 56zm323 -17l0 90 111 0 0 61 -395 0 0 -573 395 0 0 61 -111 0 0 26 113 0 0 334 -113 0z"/>
  <path class="fil0" d="M12510 4424c-127,-185 -249,-571 -272,-725 -8,-53 -3,-79 63,-61 135,37 186,91 334,140 42,14 92,27 153,40 5,1 10,2 15,3 -178,148 -291,363 -293,603z"/>
  <path class="fil0" d="M15138 4424c127,-185 249,-571 272,-725 8,-53 3,-79 -63,-61 -135,37 -186,91 -334,140 -42,14 -92,27 -153,40 -5,1 -10,2 -15,3 178,148 291,363 293,603z"/>
 </g>
</svg>
