<?xml version="1.0" encoding="UTF-8" standalone="no"?>
<!-- Creator: CorelDRAW X6 -->

<svg
   xmlns:dc="http://purl.org/dc/elements/1.1/"
   xmlns:cc="http://creativecommons.org/ns#"
   xmlns:rdf="http://www.w3.org/1999/02/22-rdf-syntax-ns#"
   xmlns:svg="http://www.w3.org/2000/svg"
   xmlns="http://www.w3.org/2000/svg"
   xmlns:sodipodi="http://sodipodi.sourceforge.net/DTD/sodipodi-0.dtd"
   xmlns:inkscape="http://www.inkscape.org/namespaces/inkscape"
   xml:space="preserve"
   width="20mm"
   height="18mm"
   version="1.1"
   style="clip-rule:evenodd;fill-rule:evenodd;image-rendering:optimizeQuality;shape-rendering:geometricPrecision;text-rendering:geometricPrecision"
   viewBox="0 0 2000 1800"
   id="svg2"
   inkscape:version="0.91 r13725"
   sodipodi:docname="carrot.svg"><metadata
     id="metadata33"><rdf:RDF><cc:Work
         rdf:about=""><dc:format>image/svg+xml</dc:format><dc:type
           rdf:resource="http://purl.org/dc/dcmitype/StillImage" /><dc:title></dc:title></cc:Work></rdf:RDF></metadata><sodipodi:namedview
     pagecolor="#ffffff"
     bordercolor="#666666"
     borderopacity="1"
     objecttolerance="10"
     gridtolerance="10"
     guidetolerance="10"
     inkscape:pageopacity="0"
     inkscape:pageshadow="2"
     inkscape:window-width="1280"
     inkscape:window-height="969"
     id="namedview31"
     showgrid="false"
     inkscape:zoom="1.7941506"
     inkscape:cx="244.17375"
     inkscape:cy="168.37104"
     inkscape:window-x="0"
     inkscape:window-y="0"
     inkscape:window-maximized="1"
     inkscape:current-layer="svg2" /><defs
     id="defs4"><style
       type="text/css"
       id="style6"><![CDATA[
    .fil0 {fill:none}
    .fil2 {fill:#759274}
    .fil3 {fill:#897C59}
    .fil1 {fill:#95B697}
    .fil4 {fill:#9C8453}
   ]]></style></defs><g
     id="Слой_x0020_1"
     transform="translate(-19709.854,-11083.253)"><metadata
       id="CorelCorpID_0Corel-Layer" /><rect
       class="fil0"
       x="19732"
       y="11194"
       width="1962"
       height="1693"
       id="rect10"
       style="fill:none" /><g
       id="_235125232"><path
         class="fil1"
         d="m 20005,11528 c -18,12 -14,-20 -14,26 l 48,7 c -6,29 9,7 -10,23 -24,-9 -27,-14 -44,-27 -7,-19 1,-12 -16,-29 -26,13 -6,2 -27,16 -22,14 -10,4 -25,18 l 29,10 -21,17 c -1,1 -4,4 -5,5 l -27,19 c -10,-54 14,-66 17,-126 -28,17 -15,20 -32,49 l -12,-68 c -30,32 3,-10 -8,19 l -20,39 c 38,23 25,-2 33,49 -53,-12 -35,-37 -73,-68 0,34 0,24 18,53 l -65,-21 -19,59 63,-17 19,21 c 20,-22 -2,-6 31,-17 -12,31 -1,21 -39,51 -2,1 -7,8 -8,5 -1,-2 -6,3 -8,5 46,1 20,-4 40,12 l 20,-29 c 22,-25 -1,-5 29,-26 4,21 4,67 -11,80 -18,15 -20,6 -40,32 2,1 5,0 6,0 l 11,0 c 2,0 8,0 10,0 14,5 3,-3 20,22 l 18,-29 c 16,-18 -20,-8 26,-14 23,49 35,45 85,79 l -9,34 c -19,-76 -4,4 -72,-57 -30,60 51,-27 -41,64 59,-7 62,-19 113,-7 -14,41 21,-12 -10,11 l -24,13 c -3,2 -7,4 -10,6 -3,2 -8,9 -10,7 -2,-3 -7,4 -10,7 40,-2 82,-12 89,28 l 33,0 c 14,-194 39,-150 87,-183 -96,-16 8,-51 63,-111 -22,-10 -27,-1 -45,10 18,-45 6,-38 -1,-49 -19,42 1,15 -28,32 21,-46 -7,-16 28,-32 l 33,-5 c -18,-11 -24,-19 -62,-5 14,-10 1,-4 6,-22 l 41,-7 c -16,-12 24,-31 -23,-11 -31,13 -5,0 -17,18 -26,4 -11,-44 -27,29 -28,-95 47,-86 22,-164 -1,-2 -3,-6 -3,-7 -1,-1 -4,-3 -4,-7 0,-4 -3,-5 -5,-7 -30,30 -17,20 -37,62 -3,-52 -12,-47 0,-99 31,-23 23,-17 31,-62 -48,21 -16,-27 -45,41 0,-5 -1,-31 -2,-33 -5,-21 -4,-16 -11,-29 -30,37 -14,29 -16,100 l -37,-64 c 4,59 7,65 44,87 0,38 11,32 -21,32 -8,-42 -13,-56 -68,-82 11,37 18,37 37,61 -67,-15 -44,-5 -55,0 23,21 -30,3 32,18 5,1 44,3 52,4 l 1,26 c 21,54 8,14 -3,22 -46,-47 -44,-32 -102,-48 17,44 -19,26 43,37 -31,34 -14,32 -11,38 25,-16 5,5 12,-15 24,12 28,-29 17,24 l -26,29 c 3,1 17,2 21,3 32,8 10,-4 35,15 z m 115,-59 c -5,46 19,12 17,0 -3,-25 -15,-22 -17,0 z m -7,-112 c 1,-2 7,-29 7,-30 -5,-33 7,0 -13,-23 -27,76 -5,38 5,52 z m -86,135 c 2,1 3,2 0,0 z"
         id="path13"
         inkscape:connector-curvature="0"
         style="fill:#95b697" /><path
         class="fil2"
         d="m 21485,12004 19,-5 c 0,-164 -62,-450 -165,-508 -8,13 -2,8 -9,27 -9,27 -94,84 -6,127 -42,68 -3,155 83,132 -68,249 59,-27 77,227 z"
         id="path15"
         inkscape:connector-curvature="0"
         style="fill:#759274" /><path
         class="fil2"
         d="m 21515,12000 24,2 c 13,-84 -3,-58 68,-92 27,-13 40,-29 -9,-61 l 17,-10 c 73,-42 46,-39 57,-102 0,-1 1,-4 1,-5 23,-75 19,-42 -30,-121 -88,87 -117,224 -127,389 z"
         id="path17"
         inkscape:connector-curvature="0"
         style="fill:#759274" /><path
         class="fil1"
         d="m 20751,11813 c 0,43 -3,8 14,22 l 13,-21 c 19,-45 16,-43 76,-51 l -27,-56 c 36,9 33,15 65,-5 -35,-36 -35,-5 -57,-50 l 105,-6 c -53,-48 -53,13 -81,-54 l 101,-18 c -16,-35 -32,-11 -78,-19 7,-42 7,-28 19,-59 l 8,-42 c -106,-35 -140,264 -156,360 z"
         id="path19"
         inkscape:connector-curvature="0"
         style="fill:#95b697" /><path
         class="fil1"
         d="m 20732,11486 c -7,-38 -20,-85 -50,-102 -44,-27 -76,-14 -83,37 l 55,15 -39,32 c 32,38 22,9 65,39 l -28,39 c 2,1 6,3 8,4 l 35,12 -39,35 c 27,22 32,18 57,26 -21,52 -24,34 -32,44 l 12,12 c 43,47 21,30 43,106 7,-96 14,-204 -5,-299 z"
         id="path21"
         inkscape:connector-curvature="0"
         style="fill:#95b697" /><path
         class="fil1"
         d="m 20685,11797 c -8,-75 -43,-252 -132,-189 69,70 51,22 69,72 -42,15 -42,1 -66,34 37,20 5,3 36,4 l 31,8 c -40,29 -40,9 -46,55 41,-13 27,-21 71,-28 13,15 7,11 18,24 17,20 7,9 19,20 z"
         id="path23"
         inkscape:connector-curvature="0"
         style="fill:#95b697" /><path
         class="fil3"
         d="m 21485,12004 c -141,51 -103,242 -82,387 11,82 62,344 100,391 52,-163 247,-685 37,-781 l -24,-2 -11,0 -19,5 z"
         id="path25"
         inkscape:connector-curvature="0"
         style="fill:#897c59" /><path
         class="fil4"
         d="m 20778,11814 -13,21 c -17,-15 -14,21 -14,-22 -337,17 -117,775 13,989 0,0 17,-428 36,-513 54,-240 217,-442 -22,-475 z"
         id="path27"
         inkscape:connector-curvature="0"
         style="fill:#9c8453" /><path
         class="fil3"
         d="m 20090,11880 -33,0 c -93,82 -37,332 -23,467 13,121 22,366 65,459 56,-52 74,-583 77,-697 l -2,-11 c -1,-96 6,-196 -84,-218 z"
         id="path29"
         inkscape:connector-curvature="0"
         style="fill:#897c59" /></g></g></svg>